<?xml version="1.0" standalone="no"?>
<!DOCTYPE svg PUBLIC "-//W3C//DTD SVG 1.1//EN" "http://www.w3.org/Graphics/SVG/1.1/DTD/svg11.dtd" >
<svg xmlns="http://www.w3.org/2000/svg" xmlns:svg="http://www.w3.org/2000/svg" xmlns:xlink="http://www.w3.org/1999/xlink" viewBox="0 0 1024 1024"><path d="M165.57 639.42Q137.91 621.39 150.27 597.25Q179.11 610.69 267.95 594.35Q378.13 575.7 449.76 585.39Q449.26 579.99 476.98 595.44Q478.31 584.68 500.11 602.08Q487.77 594.51 485.28 600.2Q494.15 574.44 482.61 526.04Q478.65 544.09 487.24 517.26Q485.75 512.51 490.49 509.6Q492.98 460.89 505.56 480.62Q502.91 443.35 521.03 454.33Q534.07 432.49 518.98 421.76L576.58 395.29L457.4 376.48Q456.37 383.04 434.23 385.34Q388.59 381.68 354.18 384.25Q340.52 391.7 306.16 377.76Q323.04 357.44 319.89 354.32Q330.63 329.61 316.91 325.81Q311.94 346.34 322.02 329.43Q337.35 325.33 367.44 340.14Q380.65 318.63 414.89 316.02Q434.1 301.82 486.21 323.9Q549.4 312.66 597.2 296.48Q619.53 306.26 650.71 308.26Q670.85 332.36 671.94 329.32Q693.83 326.18 709.32 308.25Q681.85 339.79 690.15 346.48Q692.16 349.41 676.92 351.36Q693.94 359.22 641.64 390.49Q638.14 379.23 639.79 420.61Q613.42 417.46 621.49 434.63L556.82 489.34L583.34 575.5L616.87 591.04Q636.45 597.33 679.05 588.21Q735.96 587.34 779.08 585.68Q849.93 583.37 879.67 592.79Q870.07 610.83 874.06 644.39Q893.48 657.05 904.18 635.13Q894.64 662.8 881.73 656.88Q897.39 663.62 889.76 681.41Q861.18 694.3 834.36 684.73Q832.71 682.05 767.75 673.85Q769.05 687.77 731.24 673.58L592.84 670.15L581.16 747.67Q570.77 842.04 564.25 869.7Q550.27 907.1 535.79 930.38L523.93 922.49L481.17 900.68Q457.83 909.08 451.1 879.8Q409.19 832.16 431.89 835.24Q428.9 793.17 434.68 794.86Q444.72 780.46 440.52 787.4Q475.57 812.14 491.2 796.91L481.28 822.54L519.95 824.69Q497.69 796.81 521.5 802.45Q489.51 781.01 520.45 730.76V680.1L355.24 669.77Q326.78 669.19 296.43 693.96Q219.89 695.75 199.04 668.62Q134.88 675.23 157 660.57Q159.46 624.35 154.2 644.42Q131.09 640.83 148.77 619.27ZM123.67 205.41Q109.28 216.85 107.05 203.31Q116.63 185.42 172.63 171.34Q191.6 172.36 290.98 171.18L472 160.12L469.87 126.71Q460.69 148.31 477.11 130.47Q480.17 97.72 472.37 101.08Q499.66 92.87 498.99 105.9Q526.79 102.25 517.61 95.2Q526.95 98.67 562.23 98.78Q538.33 116.37 567.22 137.62Q578.51 145.44 570.5 152.02Q575.45 164.11 570.81 139.74Q543.81 165.65 552.69 173.8Q537.7 152.93 577.84 165.51Q584.67 173.49 728.68 168.59Q795.7 167.2 833.98 180.28Q870.86 180.59 880.25 191.2Q893.75 173.96 912.53 197Q925.82 223.35 906.53 240.09Q903.81 238.05 890.41 294.12Q902.9 309.22 888.03 346.08Q892.74 356.71 892.27 361.96Q888.75 363.53 855.98 363.06Q876.59 380.08 867.62 370.42Q840.89 390.96 825.18 361.74Q807.28 369.8 798.24 345.44Q820.32 361.6 810.52 355.63Q811.79 342.08 820.28 328.35Q801.14 312.8 838.26 282.15Q839.91 297.83 832.41 254.89L817.42 238.37L729.58 269.71Q687.31 232.83 577.31 271.35Q504.42 261.13 417.63 260.63H195.82L182.84 308.26Q184.24 335.38 179.61 356.21Q209.08 346.73 184.6 367.96Q177.04 384.02 157.95 390.82Q160.57 382.72 156.45 378.36Q136.07 383.58 141.75 350.95Q115.14 368.86 126.69 315.46Q134.31 291.5 123.82 273.38Q96.17 259.63 129.87 256.41Q124.61 208.53 123.31 200.56Z" fill="black"></path></svg>