<?xml version="1.0" standalone="no"?>
<!DOCTYPE svg PUBLIC "-//W3C//DTD SVG 1.1//EN" "http://www.w3.org/Graphics/SVG/1.1/DTD/svg11.dtd" >
<svg xmlns="http://www.w3.org/2000/svg" xmlns:svg="http://www.w3.org/2000/svg" xmlns:xlink="http://www.w3.org/1999/xlink" viewBox="0 0 1024 1024"><path d="M178.29 822.67Q159.14 830.65 184.49 779.54Q208.54 715.1 226.76 697.13Q221.18 649.3 200.46 620.27Q230.27 529.08 219.08 388.09Q220.75 249.17 243.79 200.28Q213.14 131.97 239.14 115.25Q226.28 141.04 219.88 110.66Q223.94 101.86 292.01 115.53Q335.06 101.39 367.82 111.63Q457.89 121.51 532.73 129.92Q706.19 112.7 768.27 139.4Q856.82 114.23 861.19 132.53Q851.65 141.45 878.38 154.76Q886.45 198.77 874.66 212.91Q885.54 222.53 852.05 285.64Q873.44 306.77 858.73 413.13Q859 472.62 840.1 578.33Q832.51 669.42 830.86 711.4Q849.8 810.52 838.06 788.9Q851.44 813.69 833.98 839.9Q840.39 860.29 847.15 881.11Q847.87 888 838.64 908.69Q828.89 906.66 844.51 897.52Q840.66 915.3 808.31 909.42Q808.79 901.2 751.36 889.96Q713.18 871.73 697.93 837.06Q689.14 824.87 683.42 831.09Q692.39 811.04 720.25 809.56Q721.06 797.27 698.36 800.46Q724.22 774.95 737.47 775.1Q712.74 800.24 742.06 774.91Q739.3 793.49 772.15 794.83Q780.14 799.33 764.6 798.23Q756.39 787.29 796.29 782.76Q764.51 772.38 797.64 679.08L781.34 593.05L548.95 616.97V696.34Q582.15 738.29 555.64 724.17Q578.42 822.87 567.51 842.09Q566.46 847.24 523.49 845.18Q540.44 856.07 549.13 835.69Q524.3 836.72 518.95 857.81Q514.28 837.39 483.01 811.98Q495.94 805.05 481.44 703.36L487.45 593.55L291.34 602.08L300.71 617.01Q276.19 682.64 286.86 777.8Q254.9 821.77 209.61 844.3Q205.5 862.28 204.76 890.49Q193.72 881.66 201.33 906.18Q166.49 895.65 177.07 867.85Q157.3 866.44 167 876.51Q139.95 870.88 165.99 866.51Q168.98 829.35 146.46 832.97ZM556.45 508.48L625.12 509.16Q682.94 540.47 715.65 509.49Q756.23 543.64 752.5 542.6L766.16 551.01V374.07L657.98 389.39H593.89Q563.79 374.78 554.82 372.28Q562.29 392.32 560.18 422.77ZM687.31 305.55Q728.12 300.23 758.94 303.52Q765.77 306.2 791.98 300.59Q797.7 305.21 803.37 298.46Q800.13 285.61 789.72 255.89L781.32 191.64L551.09 191.83V309.64ZM311.12 521.06Q313.19 523.1 347.58 509.97Q344.28 528.1 375.04 506.63H467.75L499.42 442.79Q503.88 424.83 490.63 424.11Q486 425.62 481.85 398.62Q481.5 383.93 482.07 372.64Q451.93 398.31 425.83 389.24Q375.1 393.03 343.74 396.34Q293.31 379.42 296.68 381.65ZM296.74 207.23L281.41 317.15H499.23L497.07 258.28L466.16 205.5Z" fill="black"></path></svg>