<?xml version="1.0" standalone="no"?>
<!DOCTYPE svg PUBLIC "-//W3C//DTD SVG 1.1//EN" "http://www.w3.org/Graphics/SVG/1.1/DTD/svg11.dtd" >
<svg xmlns="http://www.w3.org/2000/svg" xmlns:svg="http://www.w3.org/2000/svg" xmlns:xlink="http://www.w3.org/1999/xlink" viewBox="0 0 1024 1024"><path d="M161.5 833.5Q168.5 823.5 185.0 778.5Q201.5 733.5 212.5 691.5Q217.5 668.5 220.0 607.0Q222.5 545.5 224.5 392.5Q224.5 248.5 226.5 190.0Q228.5 131.5 233.5 128.5Q233.5 128.5 233.5 128.5Q233.5 121.5 278.0 120.0Q322.5 118.5 385.5 118.5Q449.5 118.5 546.5 119.5Q689.5 119.5 772.0 121.0Q854.5 122.5 860.5 126.5Q867.5 135.5 868.0 162.0Q868.5 188.5 868.5 193.5Q868.5 237.5 861.5 293.5Q858.5 319.5 855.5 396.0Q852.5 472.5 851.5 565.5Q851.5 657.5 848.5 725.0Q845.5 792.5 845.5 805.5Q845.5 815.5 844.5 832.0Q843.5 848.5 842.5 864.5Q842.5 886.5 839.5 895.5Q836.5 904.5 829.5 905.5Q827.5 905.5 826.5 905.5Q806.5 905.5 765.0 882.5Q723.5 859.5 707.5 835.5Q700.5 825.5 700.5 819.5Q700.5 819.5 701.0 816.0Q701.5 812.5 708.5 801.5Q717.5 788.5 725.0 787.5Q732.5 786.5 733.5 786.5Q746.5 786.5 766.5 796.5Q768.5 798.5 770.5 798.5Q775.5 798.5 777.5 778.5Q779.5 758.5 779.5 661.5L780.5 603.5L563.5 598.5V707.5Q563.5 720.5 563.5 732.5Q563.5 803.5 558.5 827.0Q553.5 850.5 536.5 850.5Q534.5 850.5 532.5 850.5Q529.5 850.5 527.5 850.5Q506.5 850.5 500.5 828.0Q494.5 805.5 492.5 713.5L491.5 596.5L294.5 601.5L293.5 619.5Q285.5 691.5 267.5 759.0Q249.5 826.5 228.5 860.5Q212.5 880.5 200.5 885.0Q188.5 889.5 182.5 889.5Q172.5 889.5 163.5 882.5Q156.5 875.5 156.0 866.0Q155.5 856.5 155.5 854.5Q155.5 841.5 161.5 833.5ZM557.5 526.5 642.5 527.5Q680.5 527.5 712.0 528.5Q743.5 529.5 755.5 529.5L784.5 533.5V383.5L672.5 382.5H594.5Q561.5 382.5 559.5 383.5Q557.5 385.5 557.5 406.5ZM667.5 308.5Q714.5 310.5 747.5 310.5Q780.5 310.5 784.5 308.5Q786.5 304.5 788.0 287.5Q789.5 270.5 791.5 247.5L793.5 193.5L557.5 189.5V304.5ZM303.5 520.5Q303.5 522.5 328.0 524.5Q352.5 526.5 393.5 526.5H485.5L487.5 457.5Q488.5 436.5 488.5 421.5Q488.5 407.5 487.0 396.5Q485.5 385.5 478.5 383.5Q460.5 378.5 416.5 378.0Q372.5 377.5 360.5 377.5Q312.5 377.5 303.5 380.5ZM296.5 189.5 300.5 310.5H482.5L483.5 248.5L485.5 189.5Z" fill="black"></path></svg>