<?xml version="1.0" standalone="no"?>
<!DOCTYPE svg PUBLIC "-//W3C//DTD SVG 1.1//EN" "http://www.w3.org/Graphics/SVG/1.1/DTD/svg11.dtd" >
<svg xmlns="http://www.w3.org/2000/svg" xmlns:svg="http://www.w3.org/2000/svg" xmlns:xlink="http://www.w3.org/1999/xlink" viewBox="0 0 1024 1024"><path d="M459.62 304.98Q486.15 312.08 470.76 320.22Q448.43 303.53 500.14 303.1Q501.28 275.35 541.91 279.51Q543.18 307.93 577.12 283.46H664.91L671.04 281.04Q662.57 245.51 650.21 240.36Q655.59 236.18 645.41 208.91Q645.57 151.92 664.21 143.45Q663.85 126.16 662.08 133.89Q665.53 134.35 691.68 123.36Q694.32 139.31 703.06 142.27Q717.75 154.67 729.21 220.14L752.05 285.8L835.73 297.63Q871.8 279.07 902.96 295.73Q897.89 290.01 895.46 330.18Q898.67 324.37 912.22 307.53Q923.64 312.42 898 322.36Q901.08 344.76 886.35 363.66Q868.47 361.24 849.31 373.53Q818.51 369.36 783.05 347.43Q760.74 354.86 781.62 381.63Q748.59 369.76 773.14 454.01Q779.46 482.74 799.4 511.17Q820.25 537.16 800.23 580.69Q812.04 579.54 830.55 580.9Q810.7 635.13 849.63 703.39Q844.1 777.43 888 780.61Q868.86 807.73 866.16 812.24Q892.33 803.08 899.24 789.2Q908.91 756.38 939.22 775.37Q939.46 746.81 945.12 755.29Q962.6 757.55 948.09 805.21Q937.82 826.08 930.09 869.85Q928.06 899.79 889.09 934.98Q892.55 918.84 874.3 936.73Q892.15 909.62 860.44 945.38Q866.17 943.89 855.71 917.73Q844.53 879.53 799.57 794Q771.85 736.35 728.2 653.73Q715.61 558.5 703.08 474.2Q707.04 388.23 684.67 358.33Q674.05 385.82 639.56 375.62Q615.83 356.98 596.91 381.61Q496.62 378.16 498.96 376.65Q457.84 349.01 461.67 318.7Q462.47 322.25 482.32 305.87ZM94.44 704.77Q106.42 656.88 133.62 670.17L122.86 651.1L262.38 652.12Q367.63 663.65 367.78 659.74Q392.62 640.78 396.29 656.7Q432.6 649 438.93 669.1Q426.1 697.24 437.66 711.27Q433.51 746.72 437.81 769.62Q429.81 853.69 405.75 858.51Q398.67 919.79 384.63 898.5Q409.13 909.6 334.9 907.92Q321.93 907.83 245.54 905.33Q234.46 899.86 232.97 915.33Q166.19 919.09 143.35 893.63Q115.76 872.63 124.3 802.65Q108.52 764.32 107.93 719.36Q120.77 727.85 97.84 707.29ZM443.38 765.12Q439.17 758.58 501.25 769.54Q500.96 762.19 518.15 720.61Q511.77 719.95 515.87 725.98Q533.15 750.87 517.96 742.88Q551.88 725.5 523.95 733.92Q526.97 693.37 529.58 683.04Q522.25 675.11 559.24 648.17L527.11 593.93H521.27Q477.15 601.86 449.58 585.07Q432.76 573.48 458.46 570.52Q456.88 559.97 461.27 538.69Q450.77 547.26 440.08 517.49Q472.15 525.99 445.06 519.37Q470.45 498.07 566.01 516.03Q652.24 526.23 667.75 524.67Q685.69 509.81 698.93 534.27Q708.13 554.28 704.72 567.23Q712.46 542.03 691.14 554.19Q693.29 567.01 663.01 566.04Q648.05 595.62 640.69 600.61H596.03L608.43 645.15L602.95 731.89L647.96 714.27Q666.97 706.7 658.36 714.58Q667.15 703.31 705.15 704.73Q686.76 742.91 703.84 756.03Q706.13 742.07 699.34 743.27Q721.02 779.14 694.17 788.09Q674.64 780.85 618.2 787.52Q571.91 792.58 551.38 815.9Q548.62 826.76 509.16 830.38Q494.42 846.61 458.41 817.16Q454.26 831.56 461.09 837.25Q439.2 831.15 454.33 804.65Q440.99 802.41 437.74 811.77Q423.9 775.55 443.73 763.57ZM88.92 300.16Q71.81 273.7 94.94 247.81Q97.59 270.18 123.35 253.39Q140.82 258.49 239.65 259.48Q311.75 266.36 374.32 256.06Q408.77 231.06 405.81 267.02Q434.05 267.93 437.14 298.77Q419.74 284.67 410.47 296.58Q412 292.3 423.55 319.51Q396.64 306.13 342.51 318.58Q277.07 314.53 242.58 338.36Q170.3 312.68 119.78 332.07Q63.42 298.02 88.19 324.53Q86.19 287.43 71.92 293.24Q81.57 273.27 58.57 283.81ZM187.32 792.01Q173.9 796.53 197.02 828.84Q171.14 845.19 174.65 834.83L211.32 831.27Q253.02 830.6 285 842.19Q303.11 848.04 296.89 850.11Q312.2 858.05 348.56 858.31Q361.86 852.17 338.06 834.43Q356.89 814.86 357.06 799.54Q333.11 786.41 350.17 776.84V727.93H198.49ZM148.46 395.96Q154.48 396.66 141.71 357.63Q156.41 357.84 197.99 374.44Q270.39 355.13 282.9 352.66Q316.4 377.82 348.79 374.35Q382.08 386.66 397.78 417.2Q386.01 404.46 367 412.5Q387.23 411.3 390.17 407.29Q392.59 431.12 343 423.08Q342.29 457.43 251.48 440.06Q190.14 446.59 197.82 458.87Q187.62 441.56 158.22 442.9Q164.3 462.01 148.02 440.26Q117.94 429.21 140.88 418.79Q131.42 408.14 134.64 410.89Q133.31 388.79 113.46 372.31ZM121.92 132.31Q136.47 105.32 132.35 98.7Q168.85 110.52 159.55 96.06H173.38Q163.8 82.42 204.6 115.94Q192.83 86.7 212.36 117.07Q266.52 110.35 287.33 134.17Q317.25 130.04 337.21 153.88Q377.07 162.56 366.13 175.32Q364.21 150.96 365.78 170.84Q362.74 172.94 362.42 198.92Q351.84 216.9 335.47 213.53Q326.51 195.98 282.78 205.31Q269.8 200.07 273.16 182.93Q259.99 197.52 204.49 176.08Q175.62 170.22 176.45 162.69Q153.68 150.92 131.96 146.15Q121.63 170.92 106.52 116.09Q109.52 123.3 128.16 111.46ZM153.73 513.68Q150.57 525.31 177.02 512.29Q188.76 511.31 227.02 521.93Q245.63 493.83 285.49 500.69Q270.14 490.62 284.97 494.79Q322.6 488.68 364.89 521.17Q354.71 512.4 375.29 559.36Q353.45 561.2 374.1 560.25Q353.88 565.44 371.74 541.2Q353.09 559.55 357.36 570.13Q325.15 598.44 304.5 589.58Q268.85 579.8 255.9 575.28Q231.71 589.49 168.03 580.95Q142.98 577.24 163.72 570.23Q143.61 544.67 142.35 535.32Q160.55 529.46 142.76 519.75ZM757.41 148.3Q756.22 147.92 771.86 155.1Q766.32 123.54 801.12 125.59Q794.33 147.19 831.08 174.74Q879.89 198.3 854.79 237.83Q891.85 206.53 890.16 222.61Q892.37 258.78 879.61 243.68Q870.99 265.12 838.78 268.11Q833.56 257.63 822.68 227.82Q781.87 232.32 753.8 188.38Q776.34 168.22 779.59 159.91Q751.87 143.89 771.07 169.8Z" fill="black"></path></svg>