<?xml version="1.0" standalone="no"?>
<!DOCTYPE svg PUBLIC "-//W3C//DTD SVG 1.1//EN" "http://www.w3.org/Graphics/SVG/1.1/DTD/svg11.dtd" >
<svg xmlns="http://www.w3.org/2000/svg" xmlns:svg="http://www.w3.org/2000/svg" xmlns:xlink="http://www.w3.org/1999/xlink" viewBox="0 0 1024 1024"><path d="M467.5 324.5Q467.5 322.5 467.5 320.5Q467.5 303.5 483.5 298.5Q499.5 293.5 544.5 293.5Q558.5 293.5 575.5 293.5H670.5L665.5 272.5Q663.5 263.5 661.0 241.5Q658.5 219.5 654.5 194.5Q649.5 158.5 649.5 146.0Q649.5 133.5 656.5 129.5Q666.5 123.5 675.5 123.5Q689.5 123.5 704.5 142.0Q719.5 160.5 735.5 228.5L749.5 282.5L821.5 286.5Q877.5 288.5 893.0 294.0Q908.5 299.5 908.5 317.5Q908.5 320.5 908.5 322.5Q908.5 324.5 908.5 327.5Q908.5 345.5 893.0 353.0Q877.5 360.5 829.5 362.5Q802.5 363.5 784.5 364.5Q766.5 365.5 766.5 367.5Q767.5 376.5 780.5 437.0Q793.5 497.5 800.5 529.5Q805.5 549.5 808.5 566.5Q811.5 583.5 811.5 590.5Q812.5 633.5 835.0 712.0Q857.5 790.5 868.5 797.5Q870.5 797.5 875.0 793.0Q879.5 788.5 884.5 781.5Q899.5 762.5 919.5 762.5Q923.5 762.5 937.5 765.0Q951.5 767.5 953.5 794.5Q951.5 808.5 931.0 855.5Q910.5 902.5 899.5 920.5Q893.5 928.5 882.5 928.5Q880.5 928.5 873.5 928.0Q866.5 927.5 852.5 916.5Q825.5 896.5 792.0 812.0Q758.5 727.5 742.5 642.5Q728.5 560.5 709.5 471.0Q690.5 381.5 683.5 371.5Q681.5 371.5 652.5 368.5Q623.5 365.5 580.5 365.5Q503.5 363.5 485.0 357.0Q466.5 350.5 466.5 332.5Q466.5 328.5 467.5 324.5ZM104.5 711.5Q105.5 669.5 116.5 657.5L125.5 641.5L263.5 644.5Q348.5 646.5 379.0 649.0Q409.5 651.5 413.5 657.5Q420.5 662.5 422.0 678.5Q423.5 694.5 423.5 713.5Q423.5 733.5 422.5 761.5Q422.5 846.5 418.0 873.5Q413.5 900.5 397.5 902.5Q389.5 905.5 350.0 907.5Q310.5 909.5 256.5 909.5Q241.5 909.5 228.5 909.5Q149.5 909.5 131.0 898.5Q112.5 887.5 110.5 821.5Q104.5 762.5 104.5 722.5Q104.5 716.5 104.5 711.5ZM443.5 780.5Q452.5 765.5 481.5 750.5Q496.5 743.5 508.0 739.0Q519.5 734.5 523.5 732.5Q524.5 732.5 525.5 732.5Q535.5 732.5 538.0 719.5Q540.5 706.5 540.5 688.5Q540.5 673.5 539.5 651.5L535.5 587.5H501.5Q469.5 587.5 456.0 577.5Q442.5 567.5 442.5 552.5Q442.5 548.5 443.5 545.5Q445.5 538.5 450.0 531.5Q454.5 524.5 458.5 520.5Q479.5 513.5 561.5 513.5Q643.5 513.5 670.5 520.5Q685.5 527.5 689.0 536.0Q692.5 544.5 693.5 550.5Q692.5 556.5 690.5 563.5Q686.5 574.5 670.5 582.5Q654.5 590.5 634.5 590.5H614.5L618.5 653.5L620.5 716.5L652.5 714.5Q655.5 714.5 658.5 714.5Q680.5 714.5 693.5 722.0Q706.5 729.5 706.5 747.5Q706.5 749.5 706.5 750.5Q706.5 766.5 687.5 776.5Q668.5 786.5 618.5 795.5Q591.5 799.5 563.5 806.5Q535.5 813.5 519.5 819.5Q483.5 831.5 465.5 831.5Q465.5 831.5 456.5 831.0Q447.5 830.5 442.5 813.5Q438.5 805.5 438.5 797.5Q438.5 788.5 443.5 780.5ZM70.5 286.5Q71.5 268.5 78.5 257.5Q80.5 250.5 113.5 248.5Q146.5 246.5 245.5 246.5Q317.5 246.5 363.5 248.5Q409.5 250.5 416.5 254.5Q427.5 261.5 427.5 281.5Q428.5 285.5 428.5 289.5Q428.5 310.5 404.5 315.5Q380.5 320.5 324.5 320.5Q289.5 320.5 240.5 318.5Q173.5 318.5 127.0 317.0Q80.5 315.5 76.5 311.5Q70.5 305.5 70.5 290.5Q70.5 288.5 70.5 286.5ZM184.5 777.5Q188.5 801.5 189.5 817.5Q190.5 833.5 191.5 835.5L213.5 836.5Q235.5 837.5 267.5 839.5Q285.5 839.5 299.5 839.5Q319.5 839.5 333.0 838.5Q346.5 837.5 346.5 831.5Q348.5 828.5 349.5 811.5Q350.5 794.5 350.5 772.5V720.5H181.5ZM132.5 385.5Q137.5 380.5 150.5 376.5Q163.5 372.5 193.5 369.5Q252.5 365.5 291.5 365.5Q325.5 365.5 354.0 370.0Q382.5 374.5 382.5 397.5Q382.5 398.5 382.5 399.5Q382.5 402.5 383.5 405.5Q382.5 426.5 356.5 434.0Q330.5 441.5 233.5 444.5Q200.5 447.5 182.5 447.5Q173.5 447.5 163.0 446.0Q152.5 444.5 145.5 437.5Q130.5 425.5 129.0 417.0Q127.5 408.5 127.5 404.5Q127.5 395.5 132.5 385.5ZM125.5 126.5Q127.5 102.5 150.5 97.5Q157.5 95.5 165.5 95.5H175.5Q179.5 97.5 192.0 99.5Q204.5 101.5 217.5 101.5Q253.5 106.5 293.0 118.0Q332.5 129.5 348.5 140.5Q361.5 151.5 362.5 161.0Q363.5 170.5 363.5 172.5Q363.5 187.5 353.5 198.5Q343.5 207.5 326.0 207.5Q308.5 207.5 294.5 198.5Q287.5 194.5 266.5 189.0Q245.5 183.5 220.5 178.5Q195.5 174.5 175.0 170.0Q154.5 165.5 146.5 164.5Q125.5 152.5 125.5 130.5Q125.5 128.5 125.5 126.5ZM155.5 525.5Q164.5 515.5 186.5 513.5Q197.5 511.5 221.5 509.5Q245.5 507.5 272.5 507.5Q278.5 507.5 283.5 507.5Q327.5 507.5 345.0 514.5Q362.5 521.5 362.5 541.5Q362.5 543.5 362.5 545.5Q362.5 548.5 362.5 550.5Q362.5 568.5 348.5 576.0Q334.5 583.5 287.5 587.5Q265.5 589.5 247.5 589.5Q214.5 589.5 186.0 582.0Q157.5 574.5 152.5 552.5Q150.5 546.5 150.5 540.5Q150.5 532.5 155.5 525.5ZM762.5 161.5Q764.5 149.5 775.5 142.5Q782.5 138.5 790.5 138.5Q807.5 138.5 835.5 160.5Q863.5 182.5 872.5 219.5Q873.5 225.5 873.5 230.5Q873.5 243.5 867.5 255.0Q861.5 266.5 845.5 266.5Q830.5 266.5 812.5 247.5Q794.5 228.5 769.5 189.5Q762.5 177.5 762.5 166.5Q762.5 163.5 762.5 161.5Z" fill="black"></path></svg>