<?xml version="1.0" standalone="no"?>
<!DOCTYPE svg PUBLIC "-//W3C//DTD SVG 1.1//EN" "http://www.w3.org/Graphics/SVG/1.1/DTD/svg11.dtd" >
<svg xmlns="http://www.w3.org/2000/svg" xmlns:svg="http://www.w3.org/2000/svg" xmlns:xlink="http://www.w3.org/1999/xlink" viewBox="0 0 1024 1024"><path d="M357.4 400.68Q386.96 181.27 360.5 139.45L369.92 121.4Q397.96 130.9 370.38 119.01Q379.1 124.28 431.37 95.34Q443.84 123.51 517.59 128.65Q561.45 132.72 607.44 135.21Q627.66 123.79 642.36 143.37Q627.74 121.16 654.23 114.67Q642.2 126.62 646.06 147.21Q635.96 185.95 640.62 212.32Q657.54 281.68 651.83 413.29Q629.43 560.96 656.67 625.92Q644.32 693.45 625.58 667.59Q644.61 701.18 611.45 686.95Q579.02 686.8 570.69 708.9Q526.88 676.58 479.29 707.84Q451.52 687.96 417.15 687.5Q378.44 692.89 362.7 686.64Q378.32 662.62 351.36 510.42Q379.35 457.76 386.44 436.99ZM771.5 842.99Q783.61 829.46 825.82 793.83Q810.43 820.82 840.87 831Q859.76 812.7 852.17 834.75Q861.33 804.35 854.22 804.65Q866.71 827.64 870.16 740.28Q884.42 631.13 850.52 505.73Q862.59 365.68 868.09 300.61Q860.52 221.37 883.55 201.42Q852.02 152.72 881.28 158.92Q899.56 141.23 893.92 125.23Q883.58 119.47 896.48 142.13Q912.02 140.08 942.67 146.18L924.47 149.71L945.18 534.03Q931.24 667.17 929.3 801.7Q940.08 905 927.9 896.56Q936.66 911.98 929.46 907.29Q924.53 905.89 912.33 931.09Q864.1 935.41 862.38 912.55Q812.66 904.37 799.08 869.99Q794.45 860.53 788.64 846.6Q764.93 816.22 768.87 816.91ZM670.76 338.87Q674.67 263.17 680.71 213.59Q692.46 163.19 709.57 161.22Q700.65 158.33 697.92 146.83Q689.53 152.2 717.32 124.7Q729.88 121.64 737.74 150.88Q727.95 133.8 718.52 125.47Q750.17 143.62 736.68 160.92Q770.66 152.96 780.62 176.27Q755.97 203.18 769.53 345.46Q760.41 420.65 748.1 442.31Q762.23 482.62 752.65 508.51Q773.31 523.93 743.6 539.01Q756.88 556.49 712.94 539.41Q731.41 533.59 703.45 517.53Q677.56 525.35 684.12 474.81Q675 453.18 704.02 354.49ZM127.89 831.04Q131.45 807.04 178.92 770.59Q245.95 742.46 238.92 767.02Q249.35 755.35 250.42 772.55Q244.57 761.04 260.42 766.64Q266.73 778.32 276.71 794.55Q271.24 776.32 288.45 825.34Q284.67 836.85 216.42 856.75Q221.23 847.6 208.79 851.12Q173.87 887.85 166.54 879.04Q157.86 874.5 137.06 915.87Q116.94 921.35 127.2 906.23Q115.02 902.44 83.33 893.13Q98.15 883.27 86.49 866.34Q68.88 871.84 132.26 849.77ZM435.85 628.25H550.56L573.95 568.2Q558.47 554.47 570.87 526.22Q554.07 512.95 584.42 507.18Q584.59 513.84 560.1 533.45Q566.52 532.25 549.55 521.49Q553.95 524.84 554.84 511.94Q533.01 504.58 496.11 500.6Q509.55 507.7 459.09 494.3Q452.64 515.09 466.08 527.39Q447.58 494.61 435.9 544Q441.24 540.02 433.71 549.31ZM101.82 138.22Q116.5 117.44 114.54 120.01Q115.34 116.72 111.87 91.7Q123.07 107.45 136.12 89.95Q178.61 84.5 188.16 98.24Q178.93 95.75 230.47 113.05Q220.63 110.37 262.9 144.15Q287.42 168.64 317.43 153.95Q321.42 173.15 304.33 180.05Q307.15 177.13 279.28 211.07L281.63 219.44L207.14 187.81Q153.55 188.77 153.88 171.69Q117.46 171.98 97.97 164.19Q89.01 136.13 92.21 122.72Q101.08 150.33 111.46 122.49ZM509.13 294.26H586.26L579.43 214.4V200.99Q579.78 168.57 568.71 165.28Q575.85 158.73 542.15 163.75Q563.11 162.6 545.59 165.22Q526.57 189.78 522.93 159.02L436.39 159.78V289.18ZM101.82 347.23Q77.53 340.33 84.81 325.25Q98.78 312.42 93.37 327.37Q120.71 317.42 103.24 322.19Q113.34 326.26 149.88 321.79Q168.76 319.78 220.88 338.2Q235.81 341.61 236.68 364.13Q248.26 366.3 280.88 353.61Q271.57 350.92 246.18 370.01Q266.31 401.78 238.39 420.23Q233.95 403.06 213.63 402.82Q193.68 421.56 164.65 424.25Q171.5 390.47 128.58 406.95L89.54 383.4ZM382.73 815.91Q382.39 755.31 414.44 761.92Q402.08 757.64 442.97 743.28Q431.45 754.18 425.69 764.41Q439.49 779.04 437.3 767.07Q435.32 819.29 441 863.11Q385.07 919.66 396.23 932.5Q399.56 935.84 387.58 920.08Q363.59 909.92 376.89 926.4Q356.94 888.92 329 888.84Q321.37 882.35 373.68 833.18ZM537.55 739.7Q544.55 732.07 542.91 750.17Q535.19 736.29 528.06 754Q533.59 725.07 548.91 746.87Q574.82 740.1 621.1 784.82Q640.11 848.5 636.45 874.14Q633.93 884.13 639.34 865.27Q611.16 878.35 606.09 888.76Q620.82 882.13 581.12 862.29Q590.48 854.68 545.23 823.17Q533.13 798.53 505.43 792.51Q493.62 758.66 524.63 779.63Q496.99 757.37 527.35 728.03ZM434.91 359.33L434.58 426.46L514.21 422.02Q514.51 428.47 541.72 433.32Q576.64 438.66 556.69 406.11Q548.1 426.01 561.99 406.75Q589.11 402.11 583 402.11L577.55 339.21L552.46 362.5Q498.32 354.53 483.52 361.61Q459.33 332.83 475.77 331.72Z" fill="black"></path></svg>