<svg xmlns="http://www.w3.org/2000/svg" width="200" height="200" viewBox="0 0 200 200" version="1.1">
	<path d="M 96 73.684 C 89.992 74.673, 82.876 78.368, 80.010 81.987 C 68.417 96.624, 71.769 114.231, 87.972 123.807 C 91.732 126.030, 93.640 126.452, 99.972 126.461 C 108.536 126.474, 111.672 125.187, 118.577 118.822 C 123.578 114.213, 127 106.362, 127 99.500 C 127 86.766, 116.273 74.283, 105.831 74.866 C 103.813 74.979, 101.874 74.605, 101.522 74.036 C 100.871 72.983, 100.429 72.955, 96 73.684 M 94.500 76.983 C 88.504 78.539, 84.068 81.046, 81.658 84.238 C 73.215 95.426, 74.020 108.162, 83.731 117.037 C 91.859 124.466, 100.920 126.153, 109.744 121.882 C 121.795 116.048, 127.278 101.814, 122.115 89.769 C 119.042 82.600, 110.266 76.343, 104.927 77.516 C 100.060 78.585, 101.572 81.397, 107.500 82.301 C 112.819 83.112, 118.413 89.346, 119.690 95.886 C 121.643 105.889, 115.200 116.793, 106.038 118.991 C 93.503 121.998, 82.517 114.336, 80.402 101.112 C 79.377 94.704, 83.007 86.752, 87.980 84.509 C 90.987 83.153, 99.868 75.661, 97.946 76.102 C 97.701 76.159, 96.150 76.555, 94.500 76.983 M 96.677 81.803 C 95.124 83.431, 92.129 85.540, 90.021 86.491 C 83.469 89.445, 81.075 99.306, 85.027 107.053 C 92.315 121.339, 111.977 119.918, 116.473 104.780 C 117.696 100.660, 117.701 99.324, 116.506 95.354 C 114.865 89.901, 110.544 85, 107.378 85 C 103.540 85, 100.168 83.203, 99.827 80.976 C 99.515 78.942, 99.370 78.980, 96.677 81.803" stroke="none" fill="black" fill-rule="evenodd"/>
</svg>