<svg xmlns="http://www.w3.org/2000/svg" width="200" height="200" viewBox="0 0 200 200" version="1.1">
	<path d="M 80.192 29.646 L 80.500 46.293 71.844 51.688 L 63.188 57.084 43.864 50.105 C 33.236 46.267, 24.378 43.288, 24.180 43.487 C 23.982 43.685, 22.962 48.269, 21.913 53.673 C 20.281 62.086, 20.024 67.745, 20.128 93 C 20.194 109.225, 20.530 125.520, 20.874 129.210 L 21.500 135.920 35 128.342 C 45.157 122.641, 51.589 119.817, 60.974 116.939 C 67.834 114.835, 73.615 113.282, 73.820 113.487 C 74.025 113.692, 76.083 119.286, 78.392 125.918 L 82.591 137.976 80.854 153.738 C 79.899 162.407, 79.091 170.698, 79.059 172.161 C 79.006 174.547, 80.164 175.442, 90.250 180.813 C 96.438 184.108, 101.810 186.511, 102.189 186.152 C 102.567 185.794, 105.312 178.520, 108.288 169.989 L 113.700 154.479 111.848 138.989 C 110.830 130.470, 110.110 122.886, 110.248 122.135 C 110.483 120.864, 128.969 113.019, 131.762 113.006 C 132.456 113.003, 137.600 117.292, 143.194 122.537 C 148.988 127.969, 153.939 131.854, 154.699 131.562 C 155.432 131.281, 160.329 127.327, 165.580 122.775 L 175.128 114.500 174.314 97.500 C 173.866 88.150, 173.658 73.638, 173.851 65.250 C 174.044 56.863, 173.837 50, 173.391 50 C 172.945 50, 166.938 49.313, 160.040 48.474 L 147.500 46.949 137.054 50.474 C 131.308 52.413, 126.254 54, 125.823 54 C 125.392 54, 121.422 48.600, 117 42 C 109.477 30.770, 107 28.128, 107 31.331 C 107 32.959, 114.801 59.134, 115.492 59.826 C 115.764 60.098, 117.862 59.759, 120.154 59.072 C 123.703 58.009, 124.446 58.045, 125.157 59.315 C 125.616 60.136, 128.951 62.192, 132.567 63.884 C 137.146 66.027, 138.915 67.347, 138.394 68.231 C 137.125 70.383, 115.910 98, 115.525 98 C 115.326 98, 114.226 96.484, 113.082 94.632 C 111.185 91.563, 111 89.742, 111 74.132 C 111 61.076, 110.703 57.008, 109.750 57.032 C 109.063 57.050, 103.113 58.601, 96.528 60.478 C 89.944 62.355, 84.493 63.802, 84.415 63.695 C 83.717 62.736, 83.362 47.894, 84.027 47.483 C 84.846 46.977, 84.693 40.824, 83.376 21.250 C 82.949 14.915, 82.480 13, 81.352 13 C 80.108 13, 79.931 15.537, 80.192 29.646 M 113 42.595 C 113 42.922, 113.944 46.297, 115.097 50.095 C 117.161 56.890, 118.102 57.854, 120.922 56.069 C 122.077 55.338, 121.537 53.928, 118.055 48.584 C 114.016 42.386, 113 41.181, 113 42.595 M 26 47.390 C 26 47.604, 25.059 52.217, 23.909 57.640 C 21.950 66.878, 21.858 69.457, 22.459 98.500 C 22.812 115.550, 23.450 129.850, 23.878 130.278 C 24.305 130.705, 29.570 128.274, 35.578 124.874 C 41.585 121.475, 49.935 117.525, 54.132 116.097 L 61.765 113.500 57.939 104.704 L 54.113 95.908 64.666 81.388 C 70.470 73.401, 76.232 66.482, 77.469 66.012 C 79.950 65.068, 81 61.577, 81 54.268 C 81 48.995, 81.184 48.972, 71.005 55.497 L 63.715 60.170 45.328 53.585 C 26.733 46.926, 26 46.691, 26 47.390 M 137.320 53.272 C 132.271 55.048, 127.837 56.809, 127.466 57.187 C 127.096 57.565, 130.470 59.723, 134.965 61.982 C 139.459 64.242, 142.993 66.467, 142.818 66.926 C 142.205 68.535, 116.493 101.917, 115.835 101.958 C 115.470 101.981, 113.489 99.710, 111.434 96.910 L 107.698 91.821 108.290 75.910 C 108.615 67.160, 108.796 60.004, 108.691 60.009 C 107.739 60.054, 83.680 66.987, 83.358 67.308 C 83.125 67.542, 83.399 72.630, 83.966 78.616 C 85.802 97.976, 86.558 95.889, 74.517 104.698 C 68.751 108.916, 64.160 112.493, 64.314 112.647 C 64.467 112.801, 66.781 112.268, 69.456 111.463 C 72.130 110.658, 74.637 110, 75.028 110 C 75.419 110, 77.897 116.143, 80.535 123.650 L 85.331 137.300 83.536 155.188 C 82.549 165.026, 81.912 173.218, 82.121 173.392 C 83.118 174.227, 100.439 182.894, 100.663 182.671 C 100.803 182.530, 103.172 176.022, 105.926 168.209 L 110.934 154.003 108.850 136.952 C 107.704 127.573, 107.011 119.656, 107.310 119.357 C 107.608 119.058, 113.459 116.663, 120.312 114.034 L 132.772 109.253 143.419 119.155 L 154.067 129.056 163.552 120.799 C 169.904 115.269, 172.850 112.052, 172.470 111.060 C 172.157 110.245, 171.628 96.682, 171.294 80.919 L 170.687 52.258 163.593 51.604 C 159.692 51.244, 154.250 50.746, 151.500 50.497 C 147.619 50.146, 144.445 50.767, 137.320 53.272 M 76.669 69.813 C 75.767 70.810, 71.029 77.182, 66.140 83.972 L 57.251 96.319 59.706 101.909 C 61.056 104.984, 62.535 107.889, 62.993 108.363 C 63.453 108.839, 68.032 106.107, 73.194 102.278 L 82.561 95.330 81.386 81.915 C 80.741 74.537, 80.164 68.388, 80.106 68.250 C 79.776 67.472, 78.097 68.236, 76.669 69.813" stroke="none" fill="black" fill-rule="evenodd"/>
</svg>