<svg xmlns="http://www.w3.org/2000/svg" width="200" height="200" viewBox="0 0 200 200" version="1.1">
	<path d="M 145.645 97.420 L 132.789 107.719 96.895 107.610 C 68.787 107.524, 61 107.771, 61 108.750 C 61 109.707, 66.096 110.035, 82.750 110.149 C 94.713 110.231, 111.108 110.343, 119.184 110.399 L 133.868 110.500 146.646 100.286 L 159.423 90.072 166.462 96.816 C 170.333 100.525, 175.525 105.211, 178 107.229 C 181.134 109.783, 182.182 111.215, 181.454 111.945 C 179.807 113.594, 18.173 113.895, 17.542 112.250 C 17.171 111.281, 20.821 110.998, 33.781 110.989 C 51.251 110.977, 58.330 110.344, 57.421 108.872 C 57.125 108.393, 46.755 108, 34.377 108 L 11.872 108 14.120 112 L 16.368 116 98.607 116 L 180.847 116 183.918 113.415 L 186.990 110.831 179.245 104.520 C 174.985 101.049, 169.040 95.687, 166.034 92.605 C 163.028 89.522, 160.103 87.027, 159.534 87.061 C 158.965 87.094, 152.715 91.756, 145.645 97.420" stroke="none" fill="black" fill-rule="evenodd"/>
</svg>