<svg xmlns="http://www.w3.org/2000/svg" width="200" height="200" viewBox="0 0 200 200" version="1.1">
	<path d="M 145.353 27.919 L 135.500 41.032 92.500 40.397 L 49.500 39.763 39.250 42.959 C 32.123 45.182, 29 46.620, 29 47.682 C 29 48.969, 30.216 49.117, 36.750 48.630 C 41.012 48.312, 51.087 47.771, 59.138 47.428 L 73.775 46.803 73.263 60.152 C 72.403 82.552, 73.918 79.827, 55.982 91.236 C 47.467 96.653, 40.500 101.628, 40.500 102.292 C 40.500 103.642, 41.576 103.660, 54.802 102.529 L 64.105 101.734 63.543 104.117 C 63.235 105.428, 61.672 114.170, 60.072 123.543 C 57.590 138.079, 56.338 142.640, 51.563 154.543 C 48.483 162.220, 45.588 169.094, 45.130 169.819 C 44.457 170.884, 21.555 174.833, 15.250 174.972 C 14.563 174.988, 14 175.675, 14 176.500 C 14 178.250, 24.702 178.459, 93 178.045 C 116.410 177.904, 144.866 178.335, 158.280 179.034 C 171.359 179.716, 182.323 180.011, 182.645 179.689 C 182.966 179.367, 179.542 173.232, 175.035 166.056 L 166.841 153.009 162.171 155.699 C 159.602 157.178, 155.821 159.426, 153.770 160.694 C 151.718 161.962, 149.693 163, 149.270 163 C 148.846 163, 148.658 146.125, 148.850 125.500 C 149.163 92.076, 149.032 88, 147.644 88 C 146.788 88, 139.494 89.371, 131.435 91.047 C 123.376 92.723, 116.420 93.960, 115.978 93.797 C 115.535 93.634, 127.939 80.450, 143.543 64.500 C 168.878 38.602, 173.809 33, 171.272 33 C 170.872 33, 167.086 36.438, 162.859 40.640 L 155.174 48.280 145.587 47.011 C 140.314 46.314, 136 45.560, 136 45.336 C 136 45.112, 140.771 38.601, 146.601 30.866 C 153.653 21.511, 156.868 16.468, 156.204 15.804 C 155.541 15.141, 151.908 19.197, 145.353 27.919 M 45.500 44.088 C 44.197 44.706, 49.330 44.858, 60.234 44.525 L 76.968 44.014 76.493 49.757 C 76.232 52.916, 75.747 61.611, 75.416 69.081 L 74.813 82.661 61.405 91.081 C 53.093 96.300, 48.677 99.611, 49.787 99.792 C 50.773 99.953, 54.936 99.673, 59.039 99.170 C 63.143 98.668, 66.629 98.365, 66.786 98.498 C 66.943 98.630, 65.464 108.310, 63.498 120.009 C 60.114 140.155, 59.576 142.138, 53.325 157.526 L 46.725 173.773 40.612 174.636 C 32.464 175.788, 76.902 176.368, 88.941 175.268 L 97.342 174.500 87.671 167.024 C 82.352 162.912, 78 159.002, 78 158.335 C 78 157.668, 80.523 147.983, 83.606 136.811 L 89.213 116.500 95.679 109.901 L 102.146 103.303 99.147 102.061 C 97.497 101.377, 95.252 101.103, 94.158 101.450 C 90.456 102.625, 91.018 100.275, 96.018 93.669 C 98.758 90.050, 101 86.796, 101 86.438 C 101 86.080, 99.618 84.042, 97.928 81.909 C 94.349 77.391, 94.052 79.034, 102.127 58.736 C 105.357 50.616, 108 43.754, 108 43.486 C 108 42.559, 47.497 43.142, 45.500 44.088 M 123.083 43.372 C 124.254 44.416, 133 45.024, 133 44.061 C 133 43.450, 130.810 43, 127.833 43 C 124.992 43, 122.854 43.167, 123.083 43.372 M 104.250 60.773 C 100.813 69.439, 98 76.947, 98 77.459 C 98 77.972, 99.195 79.638, 100.655 81.162 L 103.311 83.934 116.793 65.938 C 124.208 56.040, 130.100 47.798, 129.887 47.622 C 129.488 47.293, 113.283 44.989, 111.500 45.008 C 110.950 45.014, 107.688 52.108, 104.250 60.773 M 120 66.146 C 112.575 76.133, 106.376 84.801, 106.224 85.409 C 106.072 86.016, 107.205 88.019, 108.742 89.860 L 111.537 93.208 128.123 76.354 C 149.520 54.612, 152.584 51.138, 150.857 50.585 C 150.111 50.345, 147.250 49.868, 144.500 49.524 C 141.750 49.180, 138.150 48.694, 136.500 48.443 C 133.628 48.006, 132.923 48.762, 120 66.146 M 100.203 92.549 C 98.390 95.019, 97.143 97.422, 97.432 97.890 C 97.721 98.357, 99.352 99.317, 101.056 100.023 C 103.951 101.222, 104.345 101.115, 107.047 98.403 L 109.939 95.500 106.719 91.779 L 103.500 88.059 100.203 92.549 M 127.529 94.577 C 114.819 97.292, 111.070 98.475, 109.173 100.373 L 106.788 102.758 114.644 106.629 L 122.500 110.500 123.028 132.500 L 123.555 154.500 113.546 164.750 L 103.536 175 118.518 174.988 C 126.758 174.982, 143.295 175.499, 155.266 176.138 C 167.238 176.778, 177.277 177.056, 177.576 176.757 C 178.104 176.230, 167.460 158.402, 166.124 157.577 C 165.757 157.350, 161.192 159.595, 155.978 162.565 L 146.500 167.965 146.238 129.483 C 146.035 99.644, 145.698 91.019, 144.738 91.083 C 144.057 91.129, 136.313 92.702, 127.529 94.577 M 98.177 111.321 L 91.912 117.643 86.442 137.071 C 83.434 147.757, 81.091 157.010, 81.236 157.632 C 81.381 158.255, 85.932 162.257, 91.350 166.526 L 101.199 174.288 111.124 164.364 L 121.048 154.440 120.371 133.363 L 119.694 112.287 112.330 108.643 C 108.280 106.640, 104.849 105, 104.705 105 C 104.560 105, 101.623 107.845, 98.177 111.321" stroke="none" fill="black" fill-rule="evenodd"/>
</svg>