<svg xmlns="http://www.w3.org/2000/svg" width="200" height="200" viewBox="0 0 200 200" version="1.1">
	<path d="M 153.639 19.488 C 149.903 24.707, 146.409 29.247, 145.874 29.578 C 142.548 31.634, 116.470 34.007, 86.500 34.982 C 68.350 35.572, 46.750 36.480, 38.500 37 C 30.250 37.520, 22.262 37.958, 20.750 37.973 C 18.984 37.990, 18 38.537, 18 39.500 C 18 40.771, 20.435 41, 33.917 41 C 45.713 41, 49.965 40.676, 50.341 39.750 C 50.719 38.816, 51.057 38.793, 51.676 39.658 C 52.290 40.516, 57.038 40.598, 69.983 39.972 C 79.596 39.508, 87.514 39.212, 87.578 39.314 C 87.641 39.416, 86.524 44.225, 85.095 50 C 82.548 60.289, 82.307 60.751, 73.119 73 C 60.973 89.190, 42.713 107.708, 27 119.769 C 20.125 125.046, 14.305 129.514, 14.067 129.698 C 13.828 129.883, 14.073 130.473, 14.611 131.011 C 15.247 131.647, 20.455 130.373, 29.544 127.356 C 42.901 122.923, 44.135 122.275, 58.298 112.243 C 66.437 106.478, 73.637 101.721, 74.298 101.672 C 74.959 101.623, 77.709 101.963, 80.408 102.428 L 85.316 103.275 84.654 132.887 C 84.290 149.174, 83.730 164.750, 83.410 167.500 L 82.828 172.500 94.004 180.827 C 100.151 185.406, 105.313 189.006, 105.475 188.827 C 105.638 188.647, 107.931 181.750, 110.571 173.500 L 115.371 158.500 115.165 126 C 115.053 108.125, 114.691 90.237, 114.363 86.250 C 113.660 77.720, 114.720 76.988, 120.161 82.250 C 122.010 84.037, 128.242 90, 134.011 95.500 C 140.096 101.301, 148.699 111.052, 154.500 118.722 C 160 125.994, 164.725 131.936, 165 131.925 C 165.795 131.895, 184 109.290, 184 108.333 C 184 107.858, 178.488 101.991, 171.750 95.295 L 159.500 83.120 144 80.445 C 135.475 78.973, 128.172 77.470, 127.770 77.105 C 127.369 76.740, 140.752 66.104, 157.511 53.470 C 193.585 26.275, 195.758 23.591, 173.124 34.189 C 162.718 39.061, 162.332 39.156, 154.333 38.831 C 149.841 38.649, 145.869 38.203, 145.506 37.840 C 145.144 37.477, 148.931 31.347, 153.923 24.217 C 158.916 17.087, 163 10.972, 163 10.627 C 163 10.282, 162.422 10, 161.715 10 C 161.008 10, 157.374 14.270, 153.639 19.488 M 130 35.058 C 122.919 36.110, 111.773 36.934, 104.289 36.958 L 91.077 37 90.126 40.750 C 89.602 42.813, 88.381 48.100, 87.412 52.500 C 85.742 60.081, 85.085 61.260, 74.889 75 C 63.198 90.755, 42.753 111.837, 30.765 120.498 C 27.061 123.174, 24.182 125.515, 24.367 125.701 C 24.553 125.886, 28.956 124.556, 34.153 122.746 C 42.032 120.001, 46.083 117.690, 58.550 108.832 L 73.500 98.210 80.906 99.809 L 88.312 101.407 87.658 128.454 C 87.298 143.329, 86.754 159.100, 86.449 163.500 L 85.895 171.500 94.551 177.847 C 99.312 181.337, 103.567 183.812, 104.007 183.347 C 104.447 182.881, 106.626 176.650, 108.849 169.500 L 112.891 156.500 111.919 114.500 C 111.384 91.400, 110.736 70.925, 110.479 69 C 110.063 65.889, 111.037 64.001, 119.255 52 L 128.500 38.500 134.885 38 C 140.079 37.593, 141.547 37.080, 142.757 35.250 C 143.575 34.013, 143.852 33.045, 143.372 33.101 C 142.892 33.156, 136.875 34.037, 130 35.058 M 168.370 39.408 C 163.688 41.588, 162.333 41.750, 152.844 41.266 L 142.449 40.736 130.224 58.299 C 123.501 67.959, 118 76.119, 118 76.431 C 118 78.934, 125.123 74.406, 147.081 57.944 C 177.961 34.794, 177.594 35.113, 168.370 39.408 M 121.512 53.744 C 114.838 63.736, 113.003 67.245, 113.015 69.994 C 113.046 77.092, 114.388 76.444, 121.738 65.779 C 125.634 60.126, 131.124 52.237, 133.937 48.250 L 139.052 41 134.538 41 L 130.023 41 121.512 53.744 M 133.889 91.638 C 140.855 98.276, 150.006 108.372, 155.188 115.138 C 160.185 121.662, 164.639 127, 165.087 127 C 165.535 127, 169.307 122.849, 173.470 117.775 L 181.040 108.550 169.744 97.254 L 158.448 85.958 142.474 82.987 C 133.688 81.353, 125.414 80.012, 124.087 80.008 C 122.103 80.001, 123.840 82.063, 133.889 91.638" stroke="none" fill="black" fill-rule="evenodd"/>
</svg>