<svg xmlns="http://www.w3.org/2000/svg" width="200" height="200" viewBox="0 0 200 200" version="1.1">
	<path d="M 44 13.660 C 44 14.023, 41.996 25.163, 39.546 38.416 L 35.091 62.511 25.628 82.006 C 20.423 92.727, 16.015 102.127, 15.832 102.894 C 15.623 103.773, 16.795 104.623, 19 105.192 C 20.925 105.689, 24.862 106.762, 27.750 107.576 L 33 109.056 33 132.028 C 33 151.900, 33.205 155, 34.518 155 C 35.840 155, 36.001 151.888, 35.768 130.799 L 35.500 106.598 27.500 104.657 C 23.100 103.589, 19.370 102.612, 19.212 102.486 C 19.053 102.360, 23.208 93.536, 28.445 82.878 L 37.966 63.500 42.125 40 C 44.412 27.075, 46.397 16.360, 46.535 16.190 C 47.054 15.551, 76 18.336, 76 19.025 C 76 19.420, 72.456 28.302, 68.125 38.761 L 60.249 57.779 59.150 76.639 C 58.545 87.013, 58.311 104.275, 58.629 115 C 59.088 130.501, 58.774 139.201, 57.095 157.425 C 55.934 170.033, 54.803 180.531, 54.582 180.752 C 54.360 180.973, 48.664 177.725, 41.924 173.534 C 34.911 169.173, 29.036 166.156, 28.191 166.480 C 27.379 166.792, 26.891 167.219, 27.107 167.429 C 28.172 168.465, 55.392 185.111, 56.316 185.291 C 57.002 185.425, 58.204 176.562, 59.679 160.500 C 61.576 139.830, 61.869 131.949, 61.371 115 C 61.018 103, 61.254 86.958, 61.941 76.312 L 63.113 58.125 70.657 39.812 C 74.806 29.741, 78.581 21.098, 79.044 20.606 C 79.534 20.088, 86.420 21.557, 95.442 24.106 L 110.997 28.500 110.985 55 C 110.978 69.575, 111.499 90.950, 112.143 102.500 L 113.314 123.500 108.532 139 C 105.902 147.525, 103.480 154.950, 103.149 155.500 C 102.818 156.050, 101.353 147.050, 99.894 135.500 L 97.240 114.500 99.105 93.500 C 100.131 81.950, 100.977 71.089, 100.985 69.364 C 100.999 66.450, 100.124 65.653, 88.658 58.143 C 81.870 53.696, 75.570 49.772, 74.658 49.422 C 73.216 48.869, 72.994 49.679, 72.952 55.643 C 72.925 59.414, 72.510 81.400, 72.030 104.500 L 71.156 146.500 75.199 165 C 77.423 175.175, 79.545 183.835, 79.916 184.245 C 80.286 184.654, 87.319 180.598, 95.545 175.230 C 103.770 169.863, 112.830 163.989, 115.679 162.177 L 120.857 158.883 140.885 169.192 L 160.912 179.500 171.928 168.500 L 182.945 157.500 181.931 133.500 C 181.109 114.048, 181.209 105.349, 182.458 87.591 C 183.306 75.542, 184 63.467, 184 60.758 C 184 51.389, 181.708 56.380, 177.894 74.057 C 174.506 89.759, 161.880 137.539, 160.897 138.378 C 159.559 139.522, 140.958 151, 140.444 151 C 140.098 151, 139.969 125.687, 140.158 94.750 C 140.346 63.812, 140.111 33.402, 139.636 27.171 L 138.771 15.842 117.636 16.502 C 100.605 17.034, 91.547 16.759, 71 15.086 C 41.548 12.688, 44 12.817, 44 13.660 M 124.500 19.047 C 119 19.442, 109.550 19.855, 103.500 19.965 L 92.500 20.165 103.345 23.279 L 114.190 26.393 113.737 48.447 C 113.466 61.632, 113.884 81.156, 114.778 97 L 116.272 123.500 110.047 143.500 C 103.803 163.562, 102.552 166.512, 101.208 164.336 C 100.819 163.706, 99.175 152.102, 97.555 138.551 L 94.610 113.912 96.461 90.945 C 97.479 78.314, 98.129 67.824, 97.906 67.635 C 97.683 67.445, 92.713 64.099, 86.862 60.198 L 76.223 53.105 75.623 68.802 C 75.293 77.436, 74.738 98.165, 74.390 114.867 L 73.756 145.233 77.568 162.617 C 79.665 172.178, 81.785 180, 82.279 180 C 82.774 180, 91.576 174.521, 101.839 167.823 L 120.500 155.647 140.384 165.933 L 160.269 176.219 170.195 166.293 L 180.121 156.366 179.141 132.433 C 178.560 118.239, 178.515 104.024, 179.030 97.500 C 179.935 86.034, 180.084 78.059, 179.329 81.500 C 179.088 82.600, 175.481 96.194, 171.313 111.709 L 163.737 139.917 151.006 147.959 C 144.004 152.381, 137.966 156, 137.589 156 C 137.212 156, 137.038 127.987, 137.202 93.750 C 137.475 36.689, 136.965 17.723, 135.170 18.165 C 134.802 18.256, 130 18.653, 124.500 19.047" stroke="none" fill="black" fill-rule="evenodd"/>
</svg>