<svg xmlns="http://www.w3.org/2000/svg" width="200" height="200" viewBox="0 0 200 200" version="1.1">
	<path d="M 131.934 17.447 C 126.221 19.446, 122.066 19.892, 99.934 20.878 C 85.945 21.501, 71.560 22.009, 67.966 22.006 C 61.760 22, 61.342 21.848, 59.649 18.982 C 57.539 15.410, 55.633 16.044, 56.231 20.118 L 56.654 23 48.077 23.118 C 43.360 23.183, 38.150 23.527, 36.500 23.883 L 33.500 24.529 33.807 44.514 C 33.976 55.506, 34.797 74.937, 35.632 87.694 L 37.150 110.889 29.591 127.066 C 25.434 135.964, 22.307 143.752, 22.643 144.372 C 25.303 149.292, 34.683 162.972, 35.405 162.984 C 37.255 163.016, 77.032 140.326, 92 130.701 C 110.175 119.013, 108.606 120.206, 107.395 118.995 C 106.767 118.367, 101.496 121.249, 92.462 127.160 C 84.783 132.185, 69.275 141.453, 58 147.755 C 46.725 154.057, 37.177 159.408, 36.782 159.646 C 36.388 159.884, 33.567 156.325, 30.515 151.738 L 24.965 143.398 32.498 127.395 L 40.031 111.392 38.583 90.446 C 37.786 78.926, 36.835 59.712, 36.470 47.750 L 35.805 26 46.722 26 L 57.639 26 59.822 35.750 C 61.844 44.784, 62.023 48.522, 62.252 86.667 C 62.389 109.308, 62.766 128.100, 63.092 128.425 C 63.417 128.751, 72.305 126.943, 82.842 124.409 C 96.925 121.021, 102 119.412, 102 118.333 C 102 117.409, 101.351 117.052, 100.250 117.370 C 99.287 117.648, 91.410 119.566, 82.745 121.633 C 71.206 124.385, 66.693 125.093, 65.881 124.281 C 65.105 123.505, 64.774 111.188, 64.779 83.336 C 64.786 47.227, 64.605 42.764, 62.843 35.634 C 61.773 31.308, 61.084 27.583, 61.310 27.356 C 61.897 26.770, 68.552 38.045, 68.250 39.114 C 68.112 39.601, 68.403 40, 68.896 40 C 69.389 40, 74.493 47.087, 80.239 55.750 C 98.337 83.035, 107.928 96.360, 108.417 94.895 C 109.934 90.348, 117.955 53.736, 117.570 53.113 C 117.315 52.700, 107.833 49.499, 96.500 46 L 75.895 39.639 100.198 31.226 C 128.120 21.559, 137.198 19.869, 138.337 24.126 C 139.354 27.926, 139.108 38.473, 137.471 61.238 L 135.942 82.500 129.721 101.302 L 123.500 120.103 109.991 135.802 L 96.482 151.500 76.159 163.157 C 61.934 171.315, 56.385 174.975, 57.668 175.351 C 58.676 175.647, 63.550 176.178, 68.500 176.530 L 77.500 177.171 107.500 162.770 C 140.437 146.959, 145.866 144.488, 146.336 145.094 C 146.510 145.317, 152.411 153.732, 159.450 163.793 C 166.488 173.854, 172.364 181.954, 172.507 181.793 C 172.950 181.294, 183.001 145.501, 182.987 144.471 C 182.981 143.937, 176.006 138.585, 167.487 132.577 C 158.969 126.570, 152.002 121.395, 152.005 121.077 C 152.008 120.760, 155.111 112.380, 158.902 102.455 L 165.793 84.410 167.897 65.237 C 169.053 54.692, 170 44.661, 170 42.946 C 170 40.715, 167.963 36.861, 162.847 29.414 L 155.694 19 148.347 19 C 141.667 19, 141 18.819, 141 17 C 141 14.528, 140.155 14.570, 131.934 17.447 M 141.272 28.750 C 141.515 32.462, 141.074 46.075, 140.292 59 L 138.871 82.500 132.340 102.040 L 125.810 121.580 111.961 137.691 L 98.111 153.802 81.475 163.292 C 72.325 168.512, 65.239 173.030, 65.728 173.332 C 66.217 173.634, 69.066 173.976, 72.059 174.090 C 76.827 174.273, 78.752 173.668, 87.617 169.207 C 98.272 163.845, 132.870 147.372, 141.680 143.468 L 146.861 141.172 158.680 158.066 C 165.181 167.358, 170.782 174.969, 171.127 174.980 C 172.005 175.008, 180.086 145.949, 179.475 144.960 C 179.201 144.517, 172.232 139.356, 163.988 133.492 C 155.745 127.628, 149 122.351, 149 121.765 C 149 121.179, 152.159 112.423, 156.021 102.307 L 163.041 83.914 165.038 65.207 C 166.136 54.918, 167.139 45.269, 167.267 43.765 C 167.434 41.807, 165.654 38.330, 161 31.520 L 154.500 22.010 147.665 22.005 L 140.829 22 141.272 28.750 M 84.011 24.226 C 73.292 24.732, 64.364 25.303, 64.171 25.496 C 63.978 25.688, 65.665 28.561, 67.919 31.880 L 72.017 37.915 92.758 30.868 C 104.166 26.992, 113.688 23.636, 113.917 23.410 C 114.432 22.902, 108.850 23.055, 84.011 24.226 M 75 42.576 C 75 44, 106.086 89.247, 106.666 88.667 C 107.649 87.684, 114.809 55.455, 114.178 54.853 C 113.805 54.497, 106.750 52.110, 98.500 49.549 C 90.250 46.988, 81.588 44.269, 79.250 43.507 C 76.912 42.745, 75 42.326, 75 42.576" stroke="none" fill="black" fill-rule="evenodd"/>
</svg>