<svg xmlns="http://www.w3.org/2000/svg" width="200" height="200" viewBox="0 0 200 200" version="1.1">
	<path d="M 64.927 21.136 C 63.985 22.897, 63.847 29.714, 64.348 49.765 L 65.006 76.083 60.872 83.616 C 58.535 87.874, 55.816 91.497, 54.619 91.948 C 53.453 92.387, 46.425 93.991, 39 95.512 C 25.037 98.372, 21.577 99.507, 22.460 100.935 C 23.735 102.998, 30.254 102.396, 44.764 98.874 C 53.369 96.785, 60.505 95.172, 60.620 95.288 C 60.736 95.405, 61.797 99.285, 62.978 103.910 C 64.880 111.365, 65.046 113.866, 64.434 125.920 C 64.004 134.387, 64.220 145.432, 65.006 155.182 L 66.269 170.844 78.497 175.881 L 90.725 180.918 118.613 180.931 C 146.064 180.943, 146.727 180.895, 161 177.834 C 168.975 176.124, 175.608 174.641, 175.741 174.538 C 175.873 174.436, 174.171 168.985, 171.958 162.426 C 169.225 154.324, 167.296 146.011, 165.942 136.500 C 162.934 115.374, 163.406 115.882, 158.520 128.500 L 154.261 139.500 143.880 145.661 L 133.500 151.822 119.006 152.161 L 104.512 152.500 98.825 144.156 L 93.138 135.813 93.675 121.156 C 94.057 110.709, 94.874 103.820, 96.520 97.169 C 97.789 92.038, 98.982 87.685, 99.170 87.496 C 99.359 87.308, 106.260 86.234, 114.506 85.110 C 122.753 83.987, 135.575 81.752, 143 80.145 C 150.425 78.538, 163.146 76.217, 171.269 74.987 C 181.787 73.394, 185.791 72.426, 185.179 71.625 C 180.664 65.706, 170.680 54.004, 170.160 54.021 C 169.797 54.033, 164.840 55.102, 159.145 56.398 L 148.789 58.754 140.596 66.905 L 132.402 75.056 117.955 77.508 L 103.507 79.960 98.221 74.230 L 92.935 68.500 93.448 61 C 93.730 56.875, 94.261 46.249, 94.628 37.387 L 95.295 21.275 82.897 20.563 C 76.079 20.172, 69.524 19.621, 68.332 19.338 C 66.773 18.969, 65.817 19.474, 64.927 21.136 M 67.254 49.137 L 67.802 76.500 63.901 83.623 C 59.550 91.568, 59.420 92, 61.388 92 C 62.305 92, 63.533 95.062, 65.005 101.019 C 66.968 108.966, 67.269 113.152, 67.536 136.269 C 67.703 150.696, 68.217 164.002, 68.678 165.837 C 69.459 168.952, 70.249 169.479, 80.508 173.732 L 91.500 178.289 119.500 178.079 C 145.247 177.886, 148.465 177.664, 159.500 175.319 C 166.100 173.916, 171.659 172.624, 171.854 172.447 C 172.048 172.271, 170.610 167.260, 168.657 161.313 C 165.913 152.956, 162.354 135.367, 161.960 128.220 C 161.939 127.824, 160.690 130.650, 159.185 134.500 L 156.450 141.500 145.231 148.205 L 134.012 154.910 118.890 155.053 C 107.365 155.163, 103.459 154.876, 102.467 153.848 C 101.751 153.107, 98.878 149.157, 96.083 145.072 L 91 137.644 91 122.791 C 91 110.128, 91.388 106.360, 93.634 97.220 C 95.083 91.324, 96.770 86.004, 97.384 85.397 C 97.998 84.790, 104.800 83.515, 112.500 82.563 C 120.200 81.611, 132.350 79.553, 139.500 77.989 C 146.650 76.425, 158.897 74.145, 166.714 72.922 L 180.929 70.698 178.038 67.099 C 176.448 65.120, 173.877 62.008, 172.324 60.184 L 169.500 56.868 159 59.335 L 148.500 61.802 141 69.827 L 133.500 77.852 118.087 80.365 L 102.675 82.878 96.311 76.189 C 89.951 69.504, 89.947 69.497, 90.432 64.500 C 90.699 61.750, 91.227 51.558, 91.605 41.852 L 92.292 24.204 83.396 23.554 C 78.503 23.197, 72.746 22.650, 70.603 22.340 L 66.706 21.774 67.254 49.137" stroke="none" fill="black" fill-rule="evenodd"/>
</svg>