<svg xmlns="http://www.w3.org/2000/svg" width="200" height="200" viewBox="0 0 200 200" version="1.1">
	<path d="M 92.533 19.892 C 88.718 20.477, 88.027 21.240, 74.533 39.781 L 60.500 59.061 42.750 58.416 C 28.103 57.883, 25 58.008, 25.001 59.135 C 25.002 60.118, 29.268 61.206, 40.251 63.025 C 52.832 65.109, 58.081 65.493, 70.250 65.224 C 82.898 64.944, 85 64.672, 85 63.315 C 85 61.914, 83.079 61.792, 68.250 62.253 C 59.037 62.539, 53.824 62.487, 56.663 62.137 L 61.827 61.500 74.998 43.500 C 82.242 33.600, 88.876 24.712, 89.740 23.750 C 91.079 22.258, 93.180 22, 104.019 22 L 116.728 22 111.879 38.250 C 109.212 47.188, 107.023 54.837, 107.015 55.250 C 106.996 56.178, 126.662 56.101, 146 55.098 C 153.975 54.684, 160.626 54.431, 160.780 54.536 C 160.934 54.641, 160.287 59.382, 159.342 65.072 L 157.624 75.418 146.062 87.326 C 129.156 104.739, 114.861 115.493, 96 124.987 C 82.123 131.973, 58.110 147.443, 59.299 148.633 C 59.554 148.887, 67.353 151.127, 76.631 153.610 C 92.354 157.818, 94.587 158.162, 109.500 158.671 C 118.300 158.972, 133.388 158.743, 143.029 158.163 L 160.558 157.108 170.029 159.854 C 175.238 161.364, 179.500 162.831, 179.500 163.115 C 179.500 163.399, 175.314 167.539, 170.198 172.315 L 160.895 181 144.698 180.922 C 135.789 180.879, 121.525 180.518, 113 180.120 L 97.500 179.397 82.698 173.949 L 67.895 168.500 59.214 151.784 C 54.439 142.590, 50.260 135.390, 49.928 135.784 C 49.595 136.178, 46.888 142.440, 43.912 149.701 C 39.717 159.934, 37.938 163.167, 36 164.080 C 34.625 164.728, 31.163 166.308, 28.307 167.591 L 23.114 169.924 26.580 160.348 C 30.622 149.184, 29.936 150.246, 41.500 137.233 L 50.500 127.106 51.328 131.150 C 52.121 135.022, 52.291 135.170, 55.328 134.639 C 57.073 134.334, 62.314 133.580, 66.976 132.963 L 75.452 131.843 87.885 119.744 C 94.723 113.089, 104.152 103.337, 108.839 98.072 C 113.525 92.808, 118.617 87.140, 120.155 85.477 C 122.343 83.113, 123.392 80.313, 124.976 72.617 C 126.089 67.207, 127 62.313, 127 61.743 C 127 61.049, 123.443 60.930, 116.250 61.383 C 91.057 62.972, 89 63.229, 89 64.786 C 89 66.012, 90.108 66.169, 95.250 65.672 C 98.688 65.339, 106.588 64.762, 112.806 64.388 L 124.111 63.708 123.543 66.104 C 123.231 67.422, 122.419 71.276, 121.738 74.668 C 120.566 80.507, 119.873 81.547, 108.740 94.168 C 102.271 101.501, 91.819 112.361, 85.511 118.302 C 72.942 130.142, 75.334 128.990, 58.298 131.411 L 54.096 132.008 53.798 125.923 L 53.500 119.838 42.457 132.169 C 36.383 138.951, 30.439 145.850, 29.248 147.500 C 27.405 150.052, 19 171.858, 19 174.087 C 19 174.500, 23.828 172.676, 29.728 170.034 L 40.457 165.230 45.511 153.162 L 50.565 141.094 58.273 155.882 L 65.981 170.671 81.741 176.577 L 97.500 182.483 130 182.834 L 162.500 183.185 173.500 172.947 C 179.550 167.317, 184.627 162.393, 184.783 162.007 C 184.938 161.620, 179.538 159.752, 172.783 157.855 C 160.826 154.499, 160.181 154.426, 148.500 155.114 C 141.900 155.503, 127.579 155.861, 116.675 155.910 L 96.850 156 81.175 151.895 C 72.554 149.637, 65.362 147.661, 65.193 147.504 C 64.196 146.579, 82.776 135.103, 95.880 128.549 C 116.922 118.026, 132.401 106.058, 151.103 85.851 L 160.034 76.202 162.017 65.408 C 163.108 59.471, 164.001 53.914, 164.001 53.057 C 164.003 51.693, 162.357 51.580, 150.751 52.146 C 129.114 53.200, 111 53.119, 111 51.969 C 111 51.401, 113.025 44.117, 115.500 35.782 C 117.975 27.446, 120 20.260, 120 19.813 C 120 18.896, 98.629 18.958, 92.533 19.892" stroke="none" fill="black" fill-rule="evenodd"/>
</svg>