<svg xmlns="http://www.w3.org/2000/svg" width="200" height="200" viewBox="0 0 200 200" version="1.1">
	<path d="M 165.524 41.903 L 163.832 48.805 149.666 48.343 C 132.005 47.767, 131 47.573, 131 44.731 L 131 42.500 82.816 42.727 L 34.631 42.955 30.815 46.680 C 28.717 48.729, 26.999 50.652, 26.998 50.953 C 26.997 51.254, 34.535 51.211, 43.748 50.857 C 52.962 50.503, 62.188 50.166, 64.250 50.107 C 66.627 50.039, 68 49.519, 68 48.686 C 68 47.634, 64.547 47.455, 50.750 47.792 C 36.873 48.130, 33.736 47.965, 34.707 46.949 C 36.249 45.335, 128.203 44.891, 127.667 46.500 C 127.458 47.128, 116.484 47.599, 98.167 47.765 C 81.756 47.914, 69 48.424, 69 48.930 C 69 50.571, 84.219 51.296, 106.626 50.722 L 128.753 50.156 129.416 61.328 C 129.781 67.473, 130.340 75.044, 130.658 78.154 L 131.237 83.808 141.075 90.652 C 149.932 96.813, 150.855 97.746, 150.328 99.998 C 150.006 101.374, 148.591 103.737, 147.184 105.250 C 144.739 107.878, 144.203 108, 135.118 108 C 126.262 108, 125.425 107.823, 122.919 105.423 L 120.229 102.846 81.419 102.952 C 60.073 103.011, 42.372 103.294, 42.084 103.582 C 41.797 103.870, 43.111 105.319, 45.005 106.803 L 48.449 109.500 85.840 110 L 123.231 110.500 127.010 114.760 C 129.088 117.103, 133.289 122.075, 136.344 125.809 L 141.898 132.598 137.286 150.299 L 132.674 168 84.549 168 C 47.897 168, 33.572 168.356, 24.462 169.492 C 17.883 170.313, 12.387 170.988, 12.250 170.992 C 12.113 170.996, 12 171.609, 12 172.353 C 12 174.573, 28.474 175.183, 97 175.500 C 131.925 175.661, 163.058 176.113, 166.184 176.504 L 171.867 177.214 175.384 170.231 L 178.900 163.248 169.353 156.374 C 161.257 150.546, 149.326 138.440, 145.723 132.399 C 144.564 130.457, 151.838 105.079, 154.586 101.476 C 156.723 98.674, 156.882 98.033, 155.615 97.325 C 154.340 96.611, 155.294 92.036, 162.047 66.493 C 166.409 49.997, 169.982 36.163, 169.989 35.750 C 169.995 35.337, 169.373 35, 168.608 35 C 167.716 35, 166.607 37.481, 165.524 41.903 M 132.455 64.392 C 132.838 72.151, 133.375 79.400, 133.647 80.500 C 133.920 81.600, 138.108 85.261, 142.953 88.635 L 151.763 94.769 157.260 73.635 C 160.283 62.011, 162.474 52.214, 162.128 51.864 C 161.783 51.515, 154.808 51.016, 146.629 50.756 L 131.758 50.283 132.455 64.392 M 71.203 105.694 C 56.971 105.914, 49.125 106.393, 49.512 107.019 C 49.890 107.631, 63.544 108, 85.759 108 C 113.702 108, 121.138 107.738, 120.186 106.786 C 118.819 105.419, 106.617 105.147, 71.203 105.694 M 146.426 109.974 C 145.908 110.492, 141.572 111.047, 136.790 111.208 L 128.094 111.500 135.154 120 C 139.036 124.675, 142.322 128.620, 142.456 128.766 C 142.590 128.912, 143.878 124.662, 145.320 119.320 C 146.762 113.978, 147.812 109.479, 147.654 109.321 C 147.496 109.163, 146.943 109.457, 146.426 109.974 M 143.524 137.250 C 143.297 137.938, 141.318 145.429, 139.127 153.897 C 136.935 162.366, 134.547 169.675, 133.821 170.140 C 133.094 170.604, 110.052 170.974, 82.616 170.960 C 55.179 170.947, 32.531 171.135, 32.287 171.380 C 31.104 172.563, 49.685 173.024, 107.673 173.252 L 170.845 173.500 172.941 169.185 C 174.094 166.811, 174.790 164.470, 174.488 163.981 C 174.186 163.492, 170.215 160.404, 165.664 157.118 C 160.768 153.584, 154.830 148.052, 151.125 143.572 C 147.680 139.407, 144.654 136, 144.399 136 C 144.145 136, 143.751 136.563, 143.524 137.250" stroke="none" fill="black" fill-rule="evenodd"/>
</svg>