<svg xmlns="http://www.w3.org/2000/svg" width="200" height="200" viewBox="0 0 200 200" version="1.1">
	<path d="M 78.648 24.250 C 77.574 33.191, 77.828 37, 79.500 37 C 80.672 37, 81.003 35.632, 81.015 30.750 C 81.038 21.359, 80.635 21.573, 95.476 23.076 L 108.202 24.365 107.588 27.932 C 107.250 29.895, 106.681 45.184, 106.324 61.908 L 105.674 92.317 110.477 91.658 C 113.118 91.296, 119.003 91, 123.553 91 L 131.827 91 138.590 82.750 C 142.309 78.213, 145.906 73.883, 146.584 73.128 C 147.601 71.995, 149.399 73.282, 156.908 80.520 C 161.909 85.341, 166 89.616, 166 90.019 C 166 90.423, 163.766 91.715, 161.036 92.889 C 156.304 94.925, 155.418 94.975, 142.010 93.966 C 129.043 92.990, 127.089 93.079, 116.948 95.099 L 105.949 97.291 106.516 131.395 C 106.828 150.153, 107.321 167.863, 107.613 170.750 L 108.144 176 117.322 176.009 C 122.370 176.013, 128.834 176.298, 131.686 176.640 L 136.872 177.263 143.186 171.410 C 146.659 168.190, 150.682 164.500, 152.128 163.208 L 154.755 160.861 164.057 163.409 C 169.172 164.811, 173.672 166.305, 174.056 166.729 C 174.439 167.153, 175.727 170.154, 176.918 173.397 L 179.082 179.295 171.791 178.614 C 163.001 177.794, 107.607 177.761, 86 178.563 C 77.475 178.880, 67.800 178.766, 64.500 178.310 L 58.500 177.481 70.358 175.550 L 82.216 173.618 81.359 162.059 C 80.888 155.702, 80.502 126.689, 80.501 97.587 C 80.500 54.375, 80.255 44.591, 79.166 44.225 C 78.061 43.854, 77.890 54.703, 78.166 107.401 C 78.459 163.285, 78.318 171.079, 77 171.468 C 71.747 173.022, 55.314 174.919, 42.500 175.452 C 25.090 176.175, 21 176.750, 21 178.472 C 21 180.473, 44.502 181.135, 108.500 180.933 C 140.400 180.833, 170.213 181.090, 174.750 181.505 C 179.287 181.919, 183 182.077, 183 181.856 C 183 180.444, 176.662 165.293, 175.691 164.386 C 175.036 163.773, 169.880 162.029, 164.234 160.510 L 153.968 157.749 144.979 165.965 L 135.989 174.181 123.144 173.470 L 110.299 172.760 109.649 159.222 C 109.292 151.776, 109 135.242, 109 122.480 L 109 99.276 119.250 97.526 C 128.145 96.007, 131.326 95.921, 143.309 96.871 L 157.119 97.965 164.138 94.430 C 172.356 90.292, 172.959 91.902, 157.985 77.986 L 147.232 67.993 139.052 77.996 C 131.064 87.766, 130.775 88, 126.686 88.007 C 124.384 88.011, 119.463 88.301, 115.750 88.652 L 109 89.289 109 66.251 C 109 53.579, 109.472 38.611, 110.049 32.988 C 110.626 27.365, 110.911 22.578, 110.683 22.349 C 110.204 21.871, 85.802 19.049, 81.889 19.020 C 79.483 19.002, 79.229 19.411, 78.648 24.250" stroke="none" fill="black" fill-rule="evenodd"/>
</svg>