<svg xmlns="http://www.w3.org/2000/svg" width="200" height="200" viewBox="0 0 200 200" version="1.1">
	<path d="M 147.500 24.056 L 129.500 31.907 78.250 31.954 C 37.941 31.990, 27 32.267, 27 33.250 C 27 34.230, 37.997 34.556, 77.951 34.762 L 128.902 35.023 146.375 27.512 C 155.986 23.380, 164.283 20, 164.815 20 C 165.346 20, 169.712 23.259, 174.518 27.243 L 183.254 34.487 178.877 35.442 C 176.470 35.967, 159.820 36.420, 141.877 36.448 L 109.254 36.500 108.120 49 C 107.496 55.875, 106.989 62.319, 106.993 63.320 C 107.003 65.812, 123.911 73.672, 139.400 78.384 C 145.945 80.375, 152.020 82.551, 152.900 83.219 C 153.780 83.887, 158.137 87.446, 162.583 91.127 L 170.666 97.819 173.999 109.498 C 176.490 118.225, 177.028 121.365, 176.128 121.921 C 175.465 122.331, 171.228 123.215, 166.711 123.885 C 162.195 124.556, 157.766 125.320, 156.868 125.582 C 155.676 125.931, 153.352 123.155, 148.243 115.280 C 144.397 109.351, 137.310 100, 132.495 94.500 C 125.270 86.249, 122.494 83.853, 116.620 80.799 C 112.704 78.764, 109.091 77.077, 108.592 77.049 C 108.052 77.020, 107.936 93.326, 108.305 117.250 C 108.835 151.521, 108.682 159.304, 107.279 169.646 L 105.630 181.791 101.065 182.370 C 98.554 182.687, 93.443 183.249, 89.707 183.616 L 82.914 184.285 82.980 119.392 L 83.046 54.500 80.699 45.500 L 78.351 36.500 74.925 36.598 C 73.041 36.652, 61.012 37.053, 48.193 37.489 L 24.887 38.283 21.441 34.943 C 19.145 32.717, 17.663 31.937, 16.996 32.604 C 16.329 33.271, 17.137 34.709, 19.418 36.920 L 22.840 40.237 49.420 39.843 C 64.039 39.626, 76 39.461, 76 39.477 C 76 39.493, 76.944 42.655, 78.097 46.503 C 80.144 53.333, 80.189 55.096, 80.016 120.250 L 79.839 187 82.884 187 C 88.245 187, 106.471 184.767, 107.313 184.008 C 107.760 183.604, 108.948 177.673, 109.952 170.828 C 111.562 159.854, 111.714 153.795, 111.238 119.599 L 110.699 80.816 116.255 83.658 C 123.291 87.256, 136.107 101.658, 146.611 117.768 C 152.276 126.456, 154.428 129.012, 155.759 128.631 C 156.717 128.357, 162.450 127.365, 168.500 126.426 C 174.550 125.487, 179.825 124.435, 180.221 124.088 C 180.618 123.741, 180.088 120.542, 179.044 116.979 C 177.999 113.415, 176.197 107.250, 175.038 103.278 L 172.932 96.057 162.716 87.721 C 152.950 79.752, 152.015 79.239, 141.500 76.088 C 135.450 74.275, 125.840 70.701, 120.145 68.146 L 109.791 63.500 110.444 54.500 C 110.804 49.550, 111.340 44.095, 111.636 42.377 L 112.175 39.254 136.337 39.741 C 154.949 40.117, 163.703 39.852, 174.445 38.586 C 187.301 37.072, 190.036 36.524, 188.917 35.689 C 188.145 35.113, 169.519 19.666, 167.500 17.927 C 165.579 16.273, 164.786 16.516, 147.500 24.056" stroke="none" fill="black" fill-rule="evenodd"/>
</svg>