<svg xmlns="http://www.w3.org/2000/svg" width="200" height="200" viewBox="0 0 200 200" version="1.1">
	<path d="M 66.104 23.134 C 63.165 32.100, 62.720 34.914, 62.247 47.545 L 61.713 61.821 50.106 62.425 C 43.723 62.758, 36.475 63.524, 34 64.128 C 31.525 64.732, 26.913 65.441, 23.750 65.702 C 19.444 66.058, 18 66.565, 18 67.718 C 18 69.013, 19.074 69.161, 24.750 68.648 C 28.463 68.312, 35.401 67.745, 40.168 67.387 L 48.837 66.738 56.421 72.935 C 62.533 77.930, 63.911 79.556, 63.520 81.316 C 63.253 82.517, 61.874 89.634, 60.456 97.130 C 59.037 104.627, 55.958 116.615, 53.612 123.771 C 49.983 134.843, 48.121 138.676, 41.118 149.499 C 36.592 156.494, 28.751 166.920, 23.694 172.668 C 14.824 182.750, 12.681 186, 14.902 186 C 15.479 186, 22.150 183.286, 29.726 179.969 C 42.970 174.170, 43.923 173.547, 54.500 163.791 C 64.195 154.847, 66.452 152.093, 73.529 140.572 C 80.452 129.300, 82.091 125.709, 85.431 114.500 C 88.866 102.970, 89.419 99.607, 90.316 84.750 L 91.328 68 103.550 68 L 115.773 68 115.896 114.241 L 116.020 160.483 125.240 169.741 L 134.460 179 141.980 178.995 C 146.116 178.992, 153.873 178.700, 159.218 178.346 L 168.937 177.703 177.218 170.751 C 181.773 166.928, 186.039 163.283, 186.697 162.650 C 187.622 161.761, 186.680 157.294, 182.552 143 C 179.613 132.825, 176.940 125.175, 176.611 126 C 176.283 126.825, 175.214 129.875, 174.237 132.778 C 172.476 138.010, 172.352 138.120, 159.980 145.514 C 153.116 149.616, 147.408 152.641, 147.296 152.236 C 147.184 151.831, 146.397 145.334, 145.546 137.798 C 143.179 116.821, 143.503 97.327, 146.495 80.601 L 148.982 66.702 143.241 60.235 C 140.084 56.679, 136.455 52.471, 135.178 50.884 C 133.900 49.298, 132.389 48, 131.819 48 C 131.249 48, 125.188 51.372, 118.350 55.493 L 105.918 62.985 99.709 56.352 C 90.051 46.034, 90.442 47.965, 94.999 33.126 C 97.199 25.958, 99 19.468, 99 18.704 C 99 17.689, 95.287 16.729, 85.250 15.151 C 77.688 13.961, 71.033 12.991, 70.463 12.994 C 69.892 12.997, 67.930 17.560, 66.104 23.134 M 68.213 25.801 C 65.275 34.762, 65 36.697, 65 48.367 C 65 55.387, 64.534 62.002, 63.965 63.066 C 63.116 64.652, 61.837 65, 56.865 65 L 50.800 65 58.908 71.546 C 65.520 76.885, 66.925 78.498, 66.525 80.296 C 66.255 81.508, 64.847 88.800, 63.395 96.500 C 61.943 104.200, 58.744 116.761, 56.286 124.413 C 52.197 137.143, 51.048 139.480, 42.753 151.913 C 37.767 159.386, 30.561 168.987, 26.738 173.250 C 22.916 177.512, 20.008 181, 20.276 181 C 20.545 181, 25.541 178.862, 31.379 176.250 C 40.734 172.064, 43.275 170.333, 52.789 161.668 C 62.362 152.950, 64.454 150.403, 71.271 139.168 C 77.934 128.187, 79.481 124.702, 82.887 113 C 86.089 101.999, 86.932 97.279, 87.445 87.500 C 87.791 80.900, 88.335 73.138, 88.652 70.250 L 89.230 65 96.834 65 L 104.437 65 98.949 59.250 C 95.931 56.087, 92.192 52.082, 90.639 50.350 L 87.817 47.199 91.880 33.905 C 94.115 26.592, 95.740 20.406, 95.491 20.158 C 95.053 19.720, 74.555 16.027, 72.463 16.009 C 71.892 16.004, 69.980 20.411, 68.213 25.801 M 120 57.703 L 108.500 64.500 113.104 64.799 L 117.709 65.098 118.434 102.986 C 118.833 123.825, 118.863 144.840, 118.500 149.687 L 117.841 158.500 127.170 167.580 L 136.500 176.659 152.214 175.874 L 167.927 175.088 176.364 167.942 L 184.800 160.796 182.891 154.148 C 181.840 150.492, 180.243 144.800, 179.342 141.500 C 177.321 134.103, 176.450 133.001, 175.677 136.867 C 175.156 139.468, 173.165 140.992, 160.453 148.511 C 152.409 153.269, 145.623 156.956, 145.372 156.705 C 145.120 156.454, 144.040 148.655, 142.971 139.374 C 140.238 115.640, 140.390 98.959, 143.497 81.594 L 145.985 67.688 142.559 63.594 C 140.675 61.342, 137.416 57.566, 135.317 55.203 L 131.500 50.906 120 57.703" stroke="none" fill="black" fill-rule="evenodd"/>
</svg>