<svg xmlns="http://www.w3.org/2000/svg" width="200" height="200" viewBox="0 0 200 200" version="1.1">
	<path d="M 74.126 30.760 L 65.753 49.500 48.485 66.627 C 38.434 76.596, 28.839 87.148, 25.526 91.877 C 22.395 96.345, 20.019 100, 20.246 100 C 20.474 100, 28.949 96.118, 39.080 91.374 C 50.937 85.822, 58.925 82.666, 61.500 82.517 C 63.700 82.389, 73.600 83.097, 83.500 84.088 L 101.500 85.892 117.260 82.555 L 133.019 79.218 135.043 82.061 C 138.073 86.315, 142.219 96.198, 141.303 96.978 C 139.593 98.433, 118.215 104.020, 116.652 103.420 C 115.744 103.071, 115 103.240, 115 103.795 C 115 104.350, 113.538 105.353, 111.750 106.024 C 107.799 107.508, 60.990 110.065, 52.250 109.276 C 41.721 108.324, 44.002 110.793, 60.750 118.474 C 68.862 122.195, 75.638 125.361, 75.807 125.510 C 75.976 125.659, 74.669 136.426, 72.903 149.437 C 70.996 163.493, 70.060 173.453, 70.597 173.980 C 71.501 174.867, 101.251 186.082, 101.648 185.685 C 101.764 185.570, 102.150 174.905, 102.505 161.987 L 103.152 138.500 109.738 123.212 C 113.361 114.804, 116.657 108.279, 117.064 108.712 C 117.471 109.145, 122.093 116.101, 127.336 124.169 L 136.868 138.838 121.315 142.528 L 105.763 146.218 108.132 148.452 C 110.076 150.287, 120.534 159.834, 139.104 176.725 L 141.707 179.094 154.354 162.196 L 167 145.297 166.992 124.899 L 166.985 104.500 157.391 99 C 152.115 95.975, 146.652 92.150, 145.252 90.500 L 142.706 87.500 161.853 87.228 C 172.384 87.079, 181 86.572, 181 86.102 C 181 85.632, 179.044 79.679, 176.654 72.874 L 172.308 60.500 149.925 52.984 L 127.543 45.468 117.011 29.064 C 107.420 14.125, 104 9.886, 104 12.939 C 104 13.547, 107.600 21.758, 112 31.185 C 116.400 40.612, 120 48.583, 120 48.899 C 120 49.215, 118.435 47.150, 116.523 44.310 C 112.189 37.875, 111.633 37.539, 108.602 39.525 L 106.147 41.133 94.570 26.567 C 88.202 18.555, 82.882 12.004, 82.746 12.010 C 82.611 12.015, 78.732 20.453, 74.126 30.760 M 75.421 34.471 L 67.500 51.999 51 67.862 C 33.796 84.401, 25.706 93.863, 29.909 92.529 C 31.116 92.146, 38.195 88.945, 45.639 85.416 C 53.083 81.887, 60.147 78.978, 61.337 78.952 C 62.824 78.918, 67.253 74.688, 75.500 65.424 C 85.411 54.291, 88.849 51.149, 95.250 47.377 C 99.513 44.865, 102.993 42.515, 102.984 42.155 C 102.970 41.588, 86.165 19.844, 84.100 17.721 C 83.683 17.293, 79.778 24.830, 75.421 34.471 M 117 35.131 C 117 35.467, 120.064 42.263, 123.808 50.234 C 131.446 66.492, 136.529 75, 138.604 75 C 139.372 75, 140 75.675, 140 76.500 C 140 77.325, 139.325 78, 138.500 78 C 136.510 78, 136.599 78.615, 139.191 82.809 C 140.396 84.759, 141.559 85.824, 141.774 85.177 C 142.055 84.334, 147.115 84, 159.583 84 C 169.162 84, 177 83.634, 177 83.188 C 177 82.405, 171.954 67.314, 170.509 63.775 C 170.019 62.575, 163.137 59.901, 147.900 54.990 L 125.996 47.931 121.498 41.226 C 119.024 37.539, 117 34.796, 117 35.131 M 108.616 42.812 C 108.228 43.441, 127.686 69.176, 130.613 71.902 C 132.532 73.690, 126.681 64, 119.653 53.750 C 112.222 42.914, 109.947 40.659, 108.616 42.812 M 97 49.419 C 90.967 52.944, 87.260 56.297, 78.047 66.560 C 69.424 76.167, 67.200 79.168, 69.047 78.707 C 70.396 78.371, 80.003 76.213, 90.395 73.913 L 109.291 69.730 117.895 71.269 C 122.628 72.115, 126.661 72.652, 126.858 72.462 C 127.332 72.005, 105.951 44.995, 105.134 45.018 C 104.785 45.028, 101.125 47.008, 97 49.419 M 91.239 76.427 C 83.396 78.221, 76.769 79.898, 76.513 80.154 C 76.257 80.410, 81.774 81.178, 88.774 81.860 C 101.437 83.094, 101.571 83.085, 115.952 80.015 C 123.901 78.317, 130.540 76.793, 130.706 76.627 C 131.265 76.069, 112.416 72.999, 108.942 73.083 C 107.049 73.129, 99.083 74.634, 91.239 76.427 M 145.094 96.176 C 145.681 97.273, 145.977 98.357, 145.750 98.584 C 145.523 98.810, 139.974 100.571, 133.419 102.495 C 126.863 104.420, 120.925 106.211, 120.222 106.477 C 119.380 106.794, 122.709 112.593, 129.972 123.458 C 136.037 132.532, 141 140.119, 141 140.318 C 141 140.517, 134.467 142.191, 126.483 144.038 C 118.498 145.885, 112.086 147.716, 112.233 148.107 C 112.380 148.497, 118.950 154.735, 126.833 161.968 L 141.166 175.120 152.583 159.889 L 164 144.659 164 125.393 L 164 106.126 154.013 100.153 C 147.034 95.979, 144.348 94.782, 145.094 96.176 M 105 110.106 C 102.525 110.584, 90.041 111.319, 77.258 111.738 L 54.017 112.500 66.099 118 C 72.744 121.025, 78.361 123.788, 78.582 124.141 C 78.802 124.493, 77.637 134.808, 75.991 147.063 C 74.346 159.319, 73 170.063, 73 170.939 C 73 172.069, 76.705 173.895, 85.722 177.211 C 92.720 179.783, 98.682 181.652, 98.972 181.363 C 99.263 181.075, 99.727 170.862, 100.003 158.669 L 100.507 136.500 104.870 127 C 107.270 121.775, 110.065 115.588, 111.081 113.250 C 113.185 108.412, 113.343 108.494, 105 110.106" stroke="none" fill="black" fill-rule="evenodd"/>
</svg>