<svg xmlns="http://www.w3.org/2000/svg" width="200" height="200" viewBox="0 0 200 200" version="1.1">
	<path d="M 132.500 16.087 C 110.329 23.494, 106.062 24.558, 76.500 30.050 C 58.900 33.320, 44.163 35.997, 43.750 35.998 C 43.337 35.999, 43 36.638, 43 37.417 C 43 38.821, 44.731 39.330, 58.757 42.050 L 65.013 43.263 62.071 48.359 C 60.249 51.516, 58.215 53.700, 56.727 54.098 C 55.407 54.451, 49.077 55.068, 42.661 55.469 C 32.396 56.110, 28.706 57.039, 30.259 58.592 C 30.511 58.844, 34.719 59.722, 39.609 60.542 C 54.872 63.102, 54.424 62.722, 46.750 66.609 C 42.978 68.519, 40 70.683, 40 71.514 C 40 73.437, 40.182 73.409, 44.693 70.787 C 48.215 68.739, 48.390 68.720, 47.036 70.537 C 46.231 71.616, 43.054 75.200, 39.975 78.500 L 34.377 84.500 33.115 94.500 C 32.420 100, 31.627 105.452, 31.351 106.616 C 30.968 108.235, 33.229 111.409, 40.964 120.116 C 46.527 126.377, 51.398 131.601, 51.789 131.724 C 52.484 131.943, 81.558 90.314, 82.592 87.620 C 82.910 86.793, 79.706 83.155, 74.452 78.378 L 65.788 70.500 71.144 69.849 C 80.815 68.673, 92 68.878, 92 70.232 C 92 70.909, 87.620 84.629, 82.266 100.722 L 72.532 129.980 46.266 151.113 C 31.820 162.736, 20 172.641, 20 173.123 C 20 174.881, 23.361 173.861, 41.454 166.611 L 59.893 159.222 73.920 165.602 C 81.634 169.111, 88.364 172.099, 88.874 172.241 C 89.384 172.383, 95.471 169.154, 102.401 165.064 L 115 157.629 115.070 146.064 C 115.109 139.704, 115.448 133.726, 115.823 132.780 C 116.364 131.416, 121.753 136.164, 141.866 155.725 L 167.227 180.390 166.558 165.445 C 166.189 157.225, 165.658 149.289, 165.377 147.810 C 164.989 145.761, 162.027 143.066, 152.966 136.516 C 146.420 131.785, 140.830 127.534, 140.544 127.071 C 140.257 126.607, 149.428 121.344, 160.922 115.374 C 172.417 109.404, 181.667 104.270, 181.478 103.964 C 181.289 103.659, 174.804 100.554, 167.067 97.066 C 159.330 93.577, 153.004 90.448, 153.009 90.111 C 153.014 89.775, 155.954 85.779, 159.542 81.231 C 163.772 75.869, 165.614 72.801, 164.783 72.504 C 164.077 72.252, 155.642 70.215, 146.039 67.978 C 136.435 65.741, 128.383 63.716, 128.145 63.479 C 127.908 63.241, 128.341 62.819, 129.107 62.540 C 130.344 62.090, 182.180 59, 188.497 59 C 190.055 59, 191 58.434, 191 57.500 C 191 56.675, 190.213 55.995, 189.250 55.988 C 184.495 55.956, 132.687 53.021, 132.436 52.769 C 132.276 52.609, 135.012 48.659, 138.514 43.989 C 142.017 39.320, 144.503 35.116, 144.038 34.646 C 142.889 33.486, 142.011 34.097, 129.136 45 C 118.752 53.794, 118.126 54.522, 120.709 54.793 C 125.949 55.343, 126.325 55.772, 124.075 58.632 C 122.934 60.083, 122 61.807, 122 62.463 C 122 63.296, 116.946 63.988, 105.250 64.756 C 89.870 65.766, 87.456 65.685, 75.741 63.770 C 68.724 62.623, 63.247 61.417, 63.570 61.092 C 63.893 60.766, 85.375 49.250, 111.308 35.500 C 137.241 21.750, 158.389 10.061, 158.304 9.525 C 158.219 8.989, 157.779 8.442, 157.325 8.309 C 156.871 8.177, 145.700 11.677, 132.500 16.087 M 123 22.101 C 111.521 26.017, 102.596 28.126, 80.165 32.221 C 64.053 35.162, 52.622 37.678, 53.665 38.053 C 54.674 38.416, 58.540 39.279, 62.256 39.971 L 69.013 41.229 64.756 49.113 C 60.607 56.801, 60.406 56.998, 56.750 56.999 C 52.613 57, 51.876 58.328, 55.064 60.034 C 56.843 60.987, 62.603 58.239, 96.814 40.119 C 118.641 28.558, 137.175 18.653, 138 18.108 C 140.773 16.277, 137.575 17.128, 123 22.101 M 129.473 48.455 C 125.599 51.926, 124.942 52.912, 126.500 52.916 C 127.715 52.920, 129.789 51.170, 131.782 48.461 C 133.587 46.007, 134.924 44, 134.754 44 C 134.584 44, 132.208 46.005, 129.473 48.455 M 128.459 57.067 C 128.096 57.653, 128.047 58.380, 128.349 58.683 C 128.652 58.985, 136.234 58.854, 145.200 58.392 L 161.500 57.551 152 56.887 C 137.043 55.843, 129.178 55.903, 128.459 57.067 M 45.762 58.707 C 47.006 58.946, 48.806 58.937, 49.762 58.687 C 50.718 58.437, 49.700 58.241, 47.500 58.252 C 45.300 58.263, 44.518 58.468, 45.762 58.707 M 61.190 65.660 C 62.559 67.176, 63.966 67.428, 69.176 67.089 L 75.500 66.678 71 65.876 C 68.525 65.435, 64.931 64.792, 63.014 64.447 C 59.680 63.848, 59.600 63.901, 61.190 65.660 M 53 66.500 C 50.544 67.904, 50.577 67.930, 54.872 67.965 C 58.648 67.995, 59.075 67.795, 58 66.500 C 56.493 64.684, 56.177 64.684, 53 66.500 M 108.037 67.154 C 101.732 67.634, 96.298 68.358, 95.962 68.763 C 95.625 69.168, 90.781 83.450, 85.197 100.500 L 75.043 131.500 52.601 149.495 C 40.257 159.393, 30.269 167.602, 30.404 167.738 C 30.540 167.874, 37.211 165.341, 45.229 162.109 L 59.806 156.234 73.802 162.583 C 81.500 166.075, 88.247 169.060, 88.796 169.216 C 89.345 169.372, 94.736 166.579, 100.775 163.009 L 111.756 156.518 112.371 150.009 C 112.709 146.429, 112.989 139.073, 112.993 133.663 L 113 123.826 138.230 148.349 C 152.107 161.837, 163.607 172.727, 163.785 172.548 C 163.963 172.370, 163.793 166.525, 163.406 159.559 L 162.702 146.893 150.142 137.780 C 137.432 128.557, 136.785 128.226, 133.873 129.441 C 132.618 129.964, 132.092 129.362, 131.576 126.810 C 131.014 124.026, 129.236 122.308, 120.393 116 C 114.611 111.875, 109.454 108.001, 108.935 107.392 C 108.314 106.663, 110.562 99.978, 115.493 87.892 C 119.619 77.776, 122.996 68.713, 122.998 67.750 C 122.999 66.696, 122.304 66.056, 121.250 66.141 C 120.287 66.218, 114.342 66.674, 108.037 67.154 M 126.416 68.358 C 125.495 70.760, 133.583 122.012, 135.128 123.556 C 136.357 124.786, 139.214 123.592, 156.224 114.739 C 167.045 109.108, 175.584 104.212, 175.199 103.859 C 174.815 103.507, 168.558 100.620, 161.297 97.443 L 148.093 91.668 154.650 83.271 C 158.256 78.653, 161.048 74.733, 160.854 74.561 C 160.276 74.050, 130.033 67, 128.419 67 C 127.604 67, 126.703 67.611, 126.416 68.358 M 55.437 70.731 C 50.580 71.077, 50.108 71.385, 43.840 78.306 L 37.306 85.520 35.654 96.848 L 34.003 108.175 42.444 117.638 C 47.087 122.843, 51.220 127.136, 51.628 127.178 C 52.035 127.220, 58.578 118.310, 66.166 107.377 L 79.962 87.500 70.746 78.750 C 65.677 73.938, 61.298 70.083, 61.015 70.185 C 60.732 70.287, 58.222 70.532, 55.437 70.731 M 117.350 90.577 L 111.199 105.986 120.181 112.578 C 125.121 116.204, 129.413 118.921, 129.718 118.615 C 130.196 118.137, 124.362 76.027, 123.730 75.398 C 123.604 75.272, 120.732 82.102, 117.350 90.577" stroke="none" fill="black" fill-rule="evenodd"/>
</svg>