<svg xmlns="http://www.w3.org/2000/svg" width="200" height="200" viewBox="0 0 200 200" version="1.1">
	<path d="M 58 14.112 C 58 14.723, 63.576 21.136, 70.392 28.362 C 82.382 41.074, 83.334 41.832, 99.772 51.750 C 109.116 57.387, 117.004 62, 117.302 62 C 117.600 62, 115.179 55.388, 111.922 47.307 C 108.665 39.225, 106 32.280, 106 31.873 C 106 31.466, 110.452 32.632, 115.894 34.464 C 122.658 36.742, 128.998 39.858, 135.935 44.314 C 141.516 47.898, 145.704 51.065, 145.242 51.351 C 144.779 51.637, 138.348 54.624, 130.950 57.989 L 117.500 64.108 103.500 63.529 C 95.800 63.211, 86.463 62.709, 82.750 62.415 C 77.071 61.964, 76 62.127, 76 63.439 C 76 64.461, 76.949 65.020, 78.750 65.057 C 90.783 65.305, 117.210 66.876, 117.706 67.373 C 118.046 67.712, 116.288 75.305, 113.801 84.245 L 109.278 100.500 120.868 106.373 L 132.457 112.246 145.979 111.628 L 159.500 111.011 151 115.070 C 144.740 118.059, 138.284 120.034, 126.501 122.564 C 117.701 124.454, 110.319 126, 110.095 126 C 109.674 126, 110.545 149.501, 111.661 168.250 L 112.301 179 97.150 179 C 87.070 179, 82 178.642, 82 177.932 C 82 177.344, 83.575 169.662, 85.500 160.861 C 87.425 152.059, 88.977 144.103, 88.950 143.179 C 88.922 142.256, 84.461 136.325, 79.037 130 L 69.176 118.500 75.081 118.202 C 80.577 117.926, 81.029 117.718, 81.604 115.202 C 81.944 113.716, 83.992 105.357, 86.154 96.626 C 88.316 87.895, 89.953 80.624, 89.793 80.469 C 88.490 79.209, 56.559 67, 54.567 67 C 53.155 67, 52 66.565, 52 66.033 C 52 65.484, 56.837 64.943, 63.169 64.783 C 71.599 64.569, 74.450 64.161, 74.796 63.117 C 75.181 61.958, 72.436 61.840, 57.878 62.391 C 33.235 63.323, 26 64.014, 26 65.433 C 26 66.242, 30.949 67.145, 41.250 68.214 C 55.501 69.693, 57.348 70.135, 69.453 74.973 C 76.578 77.820, 83.371 80.678, 84.549 81.325 L 86.692 82.500 82.596 98.883 L 78.500 115.266 56.250 115.083 C 41.521 114.962, 34 115.249, 34 115.931 C 34 117.281, 35.785 117.615, 52.991 119.481 C 61.019 120.352, 68.022 121.598, 68.694 122.276 C 73.536 127.159, 85.966 142.787, 85.981 144.009 C 85.999 145.451, 80.481 171.602, 79.389 175.250 C 78.908 176.856, 76.803 177, 53.758 177 L 28.651 177 31.076 179.604 L 33.500 182.208 73 181.758 C 94.725 181.510, 122.915 181.709, 135.645 182.200 L 158.789 183.093 171.417 175.297 L 184.044 167.500 166.164 167.228 L 148.284 166.956 131.973 170.976 C 123.003 173.187, 115.467 174.801, 115.228 174.562 C 114.872 174.206, 112.092 128.753, 112.404 128.388 C 112.457 128.326, 119.291 126.886, 127.591 125.186 C 140.475 122.549, 144.535 121.221, 155.341 116.114 C 162.304 112.823, 168 109.600, 168 108.950 C 168 108.060, 163.621 107.947, 150.194 108.492 L 132.387 109.214 122.944 104.492 C 117.750 101.894, 113.322 99.606, 113.105 99.406 C 112.887 99.206, 114.651 91.833, 117.025 83.021 C 120.293 70.891, 121.725 67.002, 122.921 67.010 C 123.789 67.015, 135.750 68.551, 149.500 70.422 C 163.250 72.294, 174.662 73.665, 174.860 73.469 C 175.057 73.274, 171.820 67.576, 167.666 60.807 C 160.332 48.857, 159.930 48.409, 153.806 45.362 C 150.338 43.636, 143 40.757, 137.500 38.964 C 129.539 36.369, 124.485 33.772, 112.710 26.225 C 104.576 21.012, 97.707 16.959, 97.447 17.220 C 97.187 17.480, 97.681 19.386, 98.545 21.455 C 99.410 23.523, 99.947 25.386, 99.739 25.594 C 99.531 25.802, 90.630 23.054, 79.959 19.486 C 59.676 12.705, 58 12.295, 58 14.112 M 69.869 23.810 C 80.530 35.759, 85.285 39.727, 98.750 47.911 C 106.037 52.340, 112 55.750, 112 55.487 C 112 54.156, 102.560 31.341, 101.608 30.372 C 100.998 29.752, 92.265 26.516, 82.200 23.182 L 63.901 17.120 69.869 23.810 M 103.016 25.136 C 103.719 26.678, 105.811 28.167, 108.774 29.232 C 111.333 30.153, 113.580 30.753, 113.766 30.567 C 113.953 30.381, 112.394 29.192, 110.303 27.925 C 108.211 26.658, 105.468 24.967, 104.206 24.167 C 101.982 22.757, 101.946 22.786, 103.016 25.136 M 140 43.377 C 140 43.658, 142.477 45.369, 145.505 47.180 C 148.532 48.991, 150.878 50.866, 150.718 51.347 C 150.557 51.828, 144.930 54.699, 138.213 57.726 C 131.496 60.754, 126 63.540, 126 63.918 C 126 64.658, 168.829 70.505, 169.480 69.854 C 169.695 69.638, 167.197 65.149, 163.930 59.876 C 158.164 50.574, 157.789 50.200, 151.244 47.240 C 143.899 43.917, 140 42.577, 140 43.377 M 129.500 174.340 L 113.500 178.492 134.949 179.305 C 146.746 179.751, 157.321 179.865, 158.449 179.556 C 159.577 179.248, 163.650 176.977, 167.500 174.509 L 174.500 170.022 160 170.105 C 146.369 170.183, 144.541 170.437, 129.500 174.340" stroke="none" fill="black" fill-rule="evenodd"/>
</svg>