<svg xmlns="http://www.w3.org/2000/svg" width="200" height="200" viewBox="0 0 200 200" version="1.1">
	<path d="M 76.671 19.136 L 73.170 24.500 72.578 46 C 72.253 57.825, 71.877 68.850, 71.743 70.500 C 71.609 72.150, 71.950 73.725, 72.500 74 C 74.265 74.882, 75.945 58.105, 75.754 41.500 L 75.570 25.500 78.418 21.250 C 79.984 18.913, 81.848 17, 82.561 17 C 84.003 17, 97.739 18.737, 102.674 19.543 L 105.848 20.062 103.760 26.246 C 101.693 32.365, 101.690 32.562, 103.413 45.194 C 105.745 62.293, 109.983 80.206, 114.750 93.116 C 119.222 105.225, 126.281 115.818, 138.628 128.943 C 145.117 135.840, 147.975 137.955, 158.843 143.896 C 165.804 147.702, 173.647 151.852, 176.271 153.118 L 181.042 155.419 172.409 164.091 C 164.491 172.047, 163.244 172.908, 157.327 174.510 L 150.876 176.256 147.688 173.396 C 137.025 163.832, 133.145 159.577, 127.956 151.758 C 118.043 136.821, 109.844 111.812, 106.562 86.500 C 104.503 70.623, 102.980 64, 101.386 64 C 100.035 64, 99.905 64.532, 97.502 80 C 94.131 101.696, 84.004 125.188, 71.621 140.041 C 57.228 157.304, 33.334 175.984, 22.500 178.445 C 19.932 179.028, 20.766 177.947, 28.288 170.946 C 44.041 156.284, 57.485 134.344, 64.615 111.663 C 68.517 99.250, 73.149 79.051, 72.379 77.805 C 71.078 75.700, 70.162 77.819, 68.078 87.750 C 62.637 113.675, 53.614 135.421, 41.389 152.077 C 37.843 156.908, 29.780 165.790, 23.471 171.815 C 17.162 177.840, 12 182.995, 12 183.270 C 12 183.545, 15.712 182.839, 20.250 181.701 C 35.105 177.974, 56.529 162.025, 73.324 142.190 C 86.188 126.998, 97.361 101.433, 100.170 80.762 C 100.823 75.956, 101.464 72.131, 101.596 72.262 C 101.727 72.393, 102.563 78.126, 103.454 85 C 108.571 124.472, 120.798 152.584, 140.751 170.750 C 145.735 175.288, 150.443 179, 151.212 179 C 151.982 179, 155.512 178.046, 159.056 176.881 C 164.741 175.011, 166.648 173.630, 175.250 165.149 C 180.613 159.863, 185 155.285, 185 154.977 C 185 154.669, 182.412 153.156, 179.250 151.615 C 176.088 150.074, 167.875 145.739, 161 141.981 C 150.406 136.190, 147.271 133.879, 140.443 126.824 C 128.300 114.278, 121.624 104.085, 116.927 90.918 C 112.296 77.937, 107.707 57.926, 105.928 42.960 C 104.741 32.977, 104.789 32.081, 106.837 26.016 C 108.027 22.494, 109 19.105, 109 18.486 C 109 17.798, 104.823 16.883, 98.250 16.131 C 92.338 15.455, 85.851 14.648, 83.836 14.337 C 80.301 13.792, 80.048 13.962, 76.671 19.136" stroke="none" fill="black" fill-rule="evenodd"/>
</svg>