<svg xmlns="http://www.w3.org/2000/svg" width="200" height="200" viewBox="0 0 200 200" version="1.1">
	<path d="M 69.548 15.250 C 69.249 17.038, 68.354 23.675, 67.558 30 C 66.762 36.325, 64.565 48.925, 62.677 58 L 59.243 74.500 59.763 127.206 L 60.284 179.912 46.892 173.828 C 39.526 170.482, 33.370 167.635, 33.212 167.500 C 33.053 167.366, 34.290 154.486, 35.961 138.878 C 37.632 123.270, 38.999 109.025, 38.999 107.222 L 39 103.944 32.250 104.507 C 28.538 104.816, 23.306 105.301, 20.623 105.586 C 16.869 105.984, 15.868 105.803, 16.274 104.801 C 16.565 104.086, 20.868 94.500, 25.837 83.500 C 33.980 65.476, 35.521 61.045, 41.436 38.649 C 45.046 24.980, 48 13.618, 48 13.399 C 48 13.179, 47.325 13, 46.500 13 C 45.675 13, 45 13.258, 45 13.573 C 45 13.888, 42.115 25.109, 38.588 38.508 C 32.647 61.082, 31.426 64.527, 21.950 85.464 C 16.326 97.890, 11.920 108.253, 12.159 108.492 C 12.398 108.732, 17.727 108.510, 24 108 C 30.273 107.490, 35.629 107.296, 35.902 107.568 C 36.174 107.841, 34.968 121.650, 33.221 138.254 C 31.474 154.859, 30.372 168.764, 30.772 169.155 C 31.415 169.782, 50.687 178.739, 59.913 182.699 L 63.326 184.163 62.700 129.157 L 62.074 74.151 65.476 58.254 C 67.347 49.511, 69.437 37.544, 70.121 31.661 C 70.805 25.778, 71.699 21.310, 72.108 21.732 C 72.746 22.391, 85 63.930, 85 65.435 C 85 65.734, 81.333 67.822, 76.850 70.075 L 68.700 74.173 69.340 86.837 C 69.692 93.801, 70.509 107.487, 71.155 117.250 L 72.330 135 85.692 135 C 96.181 135, 102.625 134.355, 115.663 132 C 124.799 130.350, 132.436 129, 132.636 129 C 132.836 129, 133 115.913, 133 99.918 L 133 70.837 125.968 61.750 C 122.100 56.753, 119.288 52.317, 119.718 51.892 C 120.148 51.467, 125.338 49.096, 131.250 46.622 L 142 42.124 142 93.925 L 142 145.726 126.022 153.052 C 117.234 157.081, 110.171 160.504, 110.325 160.658 C 112.176 162.510, 156.577 186.810, 157.096 186.257 C 157.486 185.840, 160.952 175.600, 164.799 163.500 L 171.792 141.500 171.050 114.500 L 170.308 87.500 174.555 64.500 L 178.802 41.500 170.651 28.771 C 164.824 19.671, 162.407 16.619, 162.174 18.069 C 161.979 19.280, 164.666 24.473, 168.846 30.968 L 175.844 41.841 171.833 63.170 L 167.822 84.500 168.347 113.244 L 168.872 141.989 162.334 162.244 C 158.737 173.385, 155.655 182.649, 155.483 182.831 C 155.312 183.013, 146.319 178.116, 135.499 171.949 L 115.826 160.736 130.405 154.155 L 144.983 147.574 145.241 94.135 L 145.500 40.696 153.469 37.296 C 162.490 33.447, 162.716 33.299, 161.433 32.080 C 160.886 31.560, 149.140 33.439, 133 36.630 C 107.686 41.635, 83.169 45.502, 82.295 44.628 C 82.096 44.429, 79.859 37.006, 77.324 28.133 C 72.666 11.830, 70.671 8.525, 69.548 15.250 M 140.500 38 C 137.778 38.693, 137.732 38.768, 140 38.811 C 141.375 38.838, 143.400 38.473, 144.500 38 C 146.966 36.940, 144.664 36.940, 140.500 38 M 133.813 39.683 C 134.534 39.972, 135.397 39.936, 135.729 39.604 C 136.061 39.272, 135.471 39.036, 134.417 39.079 C 133.252 39.127, 133.015 39.364, 133.813 39.683 M 104.333 45.370 C 93.241 46.542, 83.937 47.730, 83.657 48.010 C 82.675 48.991, 87.476 64, 88.771 64 C 89.478 64, 92.790 62.621, 96.130 60.935 C 99.470 59.249, 102.419 58.086, 102.684 58.350 C 102.948 58.615, 104.693 65.652, 106.562 73.988 L 109.959 89.144 108.720 109.572 C 107.622 127.668, 107.653 130.002, 108.990 130.016 C 109.821 130.025, 114.888 129.271, 120.250 128.342 L 130 126.652 130 98.976 L 130 71.300 122.500 61.728 C 118.375 56.463, 115 51.748, 115 51.250 C 115 50.752, 118.938 48.711, 123.750 46.715 C 131.918 43.326, 132.234 43.090, 128.500 43.162 C 126.300 43.204, 115.425 44.198, 104.333 45.370 M 94.500 64.668 C 91.750 66.085, 89.316 67.411, 89.091 67.615 C 88.866 67.819, 92.235 80.332, 96.577 95.423 C 100.920 110.513, 104.595 122.739, 104.743 122.590 C 104.891 122.442, 105.507 115.049, 106.111 106.161 C 107.188 90.318, 107.158 89.762, 104.538 77.751 C 101.296 62.887, 101.046 61.988, 100.183 62.047 C 99.807 62.072, 97.250 63.252, 94.500 64.668 M 78.303 72.546 C 71.259 75.812, 71.116 75.953, 71.533 79.191 C 71.767 81.011, 72.425 91.050, 72.996 101.500 C 73.567 111.950, 74.296 123.088, 74.615 126.250 L 75.196 132 89.039 132 C 96.653 132, 103.077 131.662, 103.316 131.250 C 103.757 130.487, 86.888 70.537, 85.991 69.679 C 85.721 69.421, 82.262 70.711, 78.303 72.546" stroke="none" fill="black" fill-rule="evenodd"/>
</svg>