<svg xmlns="http://www.w3.org/2000/svg" width="200" height="200" viewBox="0 0 200 200" version="1.1">
	<path d="M 41.634 22.429 L 39.909 39.934 26.629 70.217 C 19.325 86.873, 13.712 100.647, 14.156 100.827 C 14.599 101.007, 18.394 100.444, 22.588 99.577 C 26.782 98.710, 30.680 98, 31.249 98 C 31.948 98, 32.120 106.487, 31.780 124.185 L 31.276 150.370 40.579 171.920 C 45.696 183.773, 50.109 192.802, 50.385 191.985 C 50.662 191.168, 53.131 178.834, 55.872 164.576 L 60.857 138.653 73.471 126.076 C 80.409 119.159, 85.866 114.175, 85.598 115 C 85.330 115.825, 83.550 125.050, 81.643 135.500 C 77.791 156.602, 75.766 186.693, 78.263 185.724 C 78.943 185.460, 90.075 177.942, 103 169.019 C 115.925 160.095, 127.030 152.580, 127.679 152.317 C 128.327 152.055, 134.723 156.152, 141.892 161.420 C 149.061 166.689, 155.506 170.988, 156.213 170.973 C 159.014 170.915, 187.500 160.145, 187.500 159.145 C 187.500 158.557, 180.412 150, 171.750 140.128 C 163.088 130.256, 156 121.674, 156 121.057 C 156 120.441, 160.073 112.951, 165.050 104.414 C 171.424 93.481, 173.916 88.311, 173.477 86.927 C 173.134 85.846, 171.099 81.165, 168.955 76.524 L 165.056 68.086 150.884 76.065 C 143.089 80.454, 136.626 83.922, 136.521 83.772 C 136.416 83.623, 140.723 77.167, 146.094 69.427 L 155.857 55.354 167.929 49.493 C 179.724 43.767, 182.872 40.923, 177.250 41.074 C 175.738 41.114, 166.248 41.682, 156.163 42.337 C 145.887 43.003, 137.589 43.145, 137.289 42.658 C 136.994 42.181, 134.340 34.119, 131.391 24.743 C 126.256 8.417, 125.395 6.152, 124.680 7.083 C 124.505 7.313, 119.442 14.221, 113.430 22.435 C 107.419 30.650, 102.014 38.019, 101.420 38.813 C 100.529 40.003, 95.555 37.243, 72.920 23.002 C 57.839 13.513, 45.018 5.564, 44.429 5.337 C 43.731 5.067, 42.758 11.018, 41.634 22.429 M 45.651 11.750 C 45.385 12.713, 44.598 19.575, 43.903 27 L 42.638 40.500 30.319 68.677 C 23.544 84.175, 18 97.053, 18 97.296 C 18 97.538, 21.891 96.942, 26.647 95.970 L 35.293 94.203 34.572 121.831 L 33.852 149.460 41.099 166.230 C 45.086 175.453, 48.606 182.998, 48.924 182.996 C 49.241 182.994, 51.442 172.757, 53.816 160.246 L 58.131 137.500 73.526 122.044 C 81.993 113.543, 89.117 106.793, 89.356 107.044 C 89.596 107.295, 87.592 118.975, 84.904 133 C 80.865 154.073, 80.015 160.453, 80.008 169.750 C 80.004 175.938, 80.188 181, 80.418 181 C 80.648 181, 88.410 175.764, 97.668 169.365 C 106.926 162.966, 117.661 155.597, 121.524 152.988 L 128.547 148.245 141.965 158.122 C 149.345 163.555, 155.860 167.990, 156.442 167.979 C 157.024 167.967, 163.518 165.791, 170.874 163.143 L 184.247 158.327 169.374 141.389 C 161.193 132.074, 153.953 123.760, 153.284 122.914 C 152.278 121.643, 153.706 118.552, 161.548 105.021 C 168.131 93.664, 170.841 88.075, 170.416 86.734 C 170.078 85.672, 168.448 81.908, 166.792 78.370 L 163.782 71.938 159.641 74.325 C 157.364 75.638, 150.438 79.517, 144.250 82.944 C 134.242 88.487, 133.004 89.469, 133.040 91.837 C 133.062 93.302, 134.545 106.313, 136.335 120.750 C 138.126 135.188, 139.345 147.002, 139.045 147.004 C 136.838 147.020, 104 131.403, 104 130.338 C 104 129.602, 104.170 129, 104.378 129 C 104.586 129, 111.674 132.081, 120.128 135.847 C 129.779 140.145, 135.608 142.254, 135.792 141.512 C 135.952 140.862, 134.903 131.144, 133.461 119.915 C 132.019 108.687, 130.087 90.770, 129.166 80.099 L 127.493 60.698 114.497 52.440 C 103.007 45.139, 101.326 44.353, 100 45.659 C 98.671 46.967, 99.068 47.611, 103.494 51.317 C 106.240 53.618, 110.259 57.126, 112.425 59.114 L 116.362 62.728 115.139 82.614 C 113.341 111.832, 112.964 115, 111.290 115 C 110.156 115, 109.973 113.903, 110.416 109.750 C 110.724 106.862, 111.442 96.850, 112.012 87.500 C 112.583 78.150, 113.235 69.037, 113.462 67.250 C 113.842 64.256, 113.241 63.441, 105.848 56.927 C 101.171 52.805, 97.239 50.078, 96.426 50.390 C 95.658 50.685, 90.973 51.232, 86.015 51.606 C 81.057 51.981, 77 52.433, 77 52.611 C 77 52.790, 80.825 58.738, 85.500 65.828 C 90.175 72.919, 94 79.125, 94 79.618 C 94 80.112, 85.876 88.837, 75.948 99.008 L 57.896 117.500 58.511 91 L 59.127 64.500 64.036 44.055 C 66.735 32.811, 68.844 23.551, 68.722 23.479 C 68.600 23.407, 63.670 20.345, 57.767 16.674 C 51.864 13.003, 46.832 10, 46.585 10 C 46.337 10, 45.917 10.787, 45.651 11.750 M 113.538 26.897 C 108.059 34.483, 103.631 41.097, 103.698 41.595 C 103.765 42.093, 109.598 46.148, 116.660 50.607 C 131.226 59.805, 130.079 57.872, 131.727 76 L 132.500 84.500 143.316 68.722 L 154.132 52.944 163.316 48.479 C 172.204 44.158, 172.355 44.029, 168 44.477 C 165.525 44.731, 157.137 45.239, 149.360 45.605 L 135.220 46.270 134.513 43.885 C 130.673 30.939, 124.637 13.011, 124.133 13.052 C 123.785 13.081, 119.017 19.311, 113.538 26.897 M 70.521 29.195 C 70.268 29.913, 68.023 38.994, 65.531 49.376 L 61 68.251 61 89.355 L 61 110.458 70.073 101.479 C 75.063 96.541, 81.835 89.489, 85.123 85.810 L 91.100 79.119 81.554 64.821 C 70.744 48.629, 70.706 49.270, 82.500 48.952 C 96.348 48.579, 96.324 48.719, 84.269 38.500 C 71.746 27.885, 71.128 27.467, 70.521 29.195 M 80 31.267 C 80.825 32.089, 84.800 35.567, 88.832 38.998 C 94.235 43.594, 96.459 44.941, 97.282 44.118 C 97.985 43.415, 98.047 42.666, 97.450 42.102 C 95.697 40.445, 78.481 29.756, 80 31.267" stroke="none" fill="black" fill-rule="evenodd"/>
</svg>