<svg xmlns="http://www.w3.org/2000/svg" width="200" height="200" viewBox="0 0 200 200" version="1.1">
	<path d="M 44.615 6.750 C 44.329 7.713, 41.116 20.200, 37.475 34.500 C 33.833 48.800, 27.232 71.169, 22.806 84.210 L 14.758 107.919 22.772 117.235 L 30.787 126.552 32.396 156.026 C 33.281 172.237, 34.018 187.525, 34.034 190 C 34.062 194.263, 34.145 194.395, 35.618 192.500 C 36.473 191.400, 42.481 179.921, 48.969 166.992 L 60.766 143.483 59.090 115.992 L 57.414 88.500 61.231 70 C 63.330 59.825, 65.170 51.102, 65.319 50.615 C 65.468 50.128, 68.183 55.465, 71.351 62.475 C 74.520 69.485, 76.975 75.343, 76.806 75.492 C 76.638 75.641, 73.688 77.173, 70.250 78.896 C 61.191 83.437, 61.838 85, 72.775 85 L 81.551 85 86.025 95.175 C 88.486 100.772, 90.667 105.772, 90.871 106.288 C 91.095 106.854, 88.824 106.944, 85.121 106.514 C 79.883 105.906, 79 106.034, 79 107.402 C 79 108.281, 79.421 109, 79.935 109 C 80.449 109, 82.121 109.476, 83.651 110.057 C 85.798 110.874, 86.110 111.314, 85.021 111.987 C 83.912 112.672, 86.222 116.789, 95.805 131.206 C 102.512 141.297, 108 149.991, 108 150.527 C 108.001 151.062, 105.655 153.569, 102.788 156.097 L 97.575 160.693 106.537 169.138 C 111.467 173.782, 118.004 179.912, 121.064 182.761 L 126.629 187.939 152.736 146.443 L 178.844 104.948 173.672 101.139 C 160.269 91.269, 156.952 89.546, 148.107 87.857 L 139.500 86.215 153.574 86.107 L 167.648 86 169.998 78.507 C 171.290 74.386, 172.157 70.833, 171.924 70.611 C 171.691 70.389, 161.825 69.671, 150 69.016 C 138.175 68.360, 128.388 67.713, 128.250 67.579 C 128.113 67.444, 139.138 62.151, 152.750 55.816 C 168.741 48.375, 177.614 43.715, 177.823 42.649 C 178.115 41.160, 176.163 41, 157.722 41 L 137.298 41 130.520 26.044 L 123.742 11.089 84.752 11.707 L 45.762 12.325 46.518 9.913 C 46.934 8.586, 47.486 6.938, 47.744 6.250 C 48.003 5.563, 47.521 5, 46.674 5 C 45.828 5, 44.901 5.787, 44.615 6.750 M 65.906 14.738 L 45.312 15.040 39.480 37.770 C 36.272 50.271, 30.133 71.046, 25.838 83.936 C 19.208 103.829, 18.228 107.609, 19.354 108.936 C 20.084 109.796, 23.612 113.979, 27.194 118.231 L 33.706 125.961 34.920 152.731 C 35.588 167.454, 36.492 180.400, 36.928 181.500 C 37.561 183.096, 39.766 179.417, 47.848 163.283 L 57.976 143.067 56.377 114.783 L 54.779 86.500 59.196 65.827 L 63.614 45.155 59.247 35.437 C 53.674 23.035, 54.757 21.334, 62.358 30.549 C 67.580 36.880, 67.887 37.548, 67.355 41.426 C 66.866 44.991, 67.645 47.476, 73.022 59.529 C 76.451 67.213, 79.342 73.606, 79.448 73.736 C 79.553 73.866, 85.233 71.059, 92.070 67.497 C 101.505 62.582, 104.018 60.879, 102.500 60.430 C 96.231 58.573, 73.840 50.409, 73.685 49.924 C 73.583 49.607, 81.600 42.322, 91.500 33.736 C 105.709 21.413, 109.628 18.481, 110.109 19.813 C 110.443 20.741, 112.869 31.251, 115.500 43.169 C 118.130 55.087, 120.621 65.387, 121.035 66.057 C 121.576 66.932, 128.668 64.069, 146.225 55.887 L 170.663 44.500 153.123 44 L 135.583 43.500 128.863 29 L 122.143 14.500 104.322 14.468 C 94.520 14.450, 77.233 14.571, 65.906 14.738 M 93.563 35.415 C 79.827 47.445, 77.539 49.946, 80.167 50.056 C 80.900 50.087, 88.191 52.480, 96.370 55.375 L 111.239 60.638 97.370 67.849 C 79.180 77.306, 80.775 76.057, 82.086 79.816 L 83.196 83 102.098 83 C 116.552 83, 121.001 82.706, 121.002 81.750 C 121.007 79.648, 108.714 24.544, 108.087 23.854 C 107.764 23.499, 101.228 28.701, 93.563 35.415 M 63.080 37 C 64.538 40.061, 65 40.628, 65 39.358 C 65 38.821, 64.300 37.509, 63.445 36.441 C 61.978 34.611, 61.958 34.643, 63.080 37 M 122 70.754 C 122 71.256, 122.512 74.216, 123.138 77.333 L 124.276 83 138.138 83.219 C 145.762 83.339, 154.995 83.452, 158.655 83.469 L 165.309 83.500 167.059 78.353 L 168.808 73.206 163.654 72.637 C 160.819 72.324, 151.525 71.801, 143 71.474 C 134.475 71.148, 126.263 70.647, 124.750 70.361 C 123.237 70.075, 122 70.252, 122 70.754 M 74.051 79.920 L 70.602 81.757 74.869 82.478 C 79.819 83.314, 80.117 83.163, 79.344 80.206 C 78.656 77.575, 78.474 77.565, 74.051 79.920 M 84.999 85.881 C 84.999 86.090, 87.085 90.932, 89.633 96.640 L 94.265 107.019 109.883 98.849 C 118.472 94.355, 126.587 89.976, 127.915 89.117 L 130.329 87.554 126.892 86.840 C 123.301 86.094, 84.997 85.217, 84.999 85.881 M 133.628 88.792 C 133.331 89.273, 124.759 94.129, 114.580 99.583 C 104.400 105.037, 96.186 109.891, 96.325 110.370 C 96.465 110.848, 106.012 114.151, 117.540 117.711 C 129.068 121.270, 138.723 124.401, 138.995 124.670 C 139.268 124.938, 133.663 130.669, 126.540 137.405 L 113.589 149.653 115.731 154.807 C 117.067 158.023, 117.496 160.194, 116.870 160.580 C 115.642 161.339, 115.262 160.975, 112.489 156.380 L 110.293 152.741 106.112 156.518 C 103.813 158.595, 102.059 160.628, 102.216 161.035 C 102.797 162.547, 125.320 183.059, 126.099 182.785 C 127.664 182.234, 175.064 105.665, 174.287 104.943 C 173.854 104.541, 169.566 101.479, 164.758 98.138 C 156.623 92.486, 155.373 91.955, 146.758 90.488 C 141.666 89.621, 136.750 88.688, 135.834 88.415 C 134.918 88.142, 133.925 88.312, 133.628 88.792 M 88.970 113.019 C 87.936 113.657, 89.817 117.170, 96.952 127.927 C 102.085 135.667, 106.423 142, 106.592 142 C 106.965 142, 105.581 138.737, 99.199 124.573 C 94.308 113.718, 92.020 111.134, 88.970 113.019 M 99.349 118.250 C 100.106 120.037, 103.323 127.230, 106.499 134.234 L 112.273 146.969 123.183 136.830 C 129.183 131.254, 133.734 126.348, 133.296 125.928 C 132.522 125.184, 100.336 115, 98.761 115 C 98.328 115, 98.592 116.463, 99.349 118.250" stroke="none" fill="black" fill-rule="evenodd"/>
</svg>