<svg xmlns="http://www.w3.org/2000/svg" width="200" height="200" viewBox="0 0 200 200" version="1.1">
	<path d="M 109.576 10.877 C 109.266 11.378, 114.298 16.727, 120.757 22.764 L 132.500 33.740 148.167 36.370 C 156.783 37.816, 164.206 39, 164.661 39 C 165.116 39, 161.005 41.587, 155.527 44.750 L 145.566 50.500 138.818 66.403 C 135.107 75.149, 132.306 82.687, 132.594 83.153 C 132.882 83.619, 137.479 84.050, 142.809 84.112 C 148.139 84.173, 156.775 84.511, 162 84.862 L 171.500 85.500 153.500 87.824 C 143.600 89.102, 132.607 90.002, 129.071 89.824 L 122.643 89.500 115.562 54.580 C 111.222 33.178, 108.001 19.500, 107.241 19.247 C 106.558 19.019, 105.961 18.983, 105.914 19.167 C 105.867 19.350, 105.304 23.550, 104.664 28.500 L 103.500 37.500 95.500 42.171 C 82.342 49.852, 82.567 47.200, 93.529 65.410 C 98.797 74.161, 103.195 81.756, 103.303 82.289 C 103.412 82.822, 98.775 84.319, 93 85.616 C 87.225 86.913, 81.487 88.213, 80.250 88.506 C 79.013 88.799, 78 89.705, 78 90.519 C 78 91.780, 81.124 92, 99.032 92 C 118.200 92, 120.128 92.157, 120.782 93.766 C 121.177 94.738, 124.640 101.002, 128.479 107.686 L 135.458 119.839 145.979 120.445 C 151.765 120.779, 159.391 121.378, 162.925 121.776 L 169.350 122.500 151.675 127 L 134 131.500 134.099 136 C 134.153 138.475, 134.716 147.925, 135.349 157 L 136.500 173.500 140 173.424 C 141.925 173.381, 149.575 173.049, 157 172.685 L 170.500 172.024 158.500 175.066 L 146.500 178.109 120.615 177.087 C 106.379 176.524, 94.572 175.905, 94.377 175.711 C 94.183 175.516, 97.366 166.614, 101.451 155.929 C 105.536 145.243, 109.018 135.865, 109.189 135.090 C 109.420 134.042, 104.780 132.449, 91.135 128.891 C 81.034 126.258, 72.552 123.885, 72.287 123.620 C 71.595 122.929, 80.022 19.622, 80.829 18.896 C 81.198 18.564, 87.537 17.777, 94.916 17.147 C 102.294 16.517, 108.564 15.769, 108.849 15.484 C 110.645 13.688, 106.004 13.355, 94.500 14.455 C 86.042 15.263, 81.063 15.358, 80.250 14.726 C 79.425 14.085, 78.524 14.150, 77.601 14.916 C 76.831 15.555, 69.564 16.712, 61.452 17.488 C 53.339 18.264, 46.367 19.259, 45.957 19.699 C 45.547 20.140, 41.964 31.975, 37.994 46 C 34.024 60.025, 27.226 80.883, 22.888 92.350 C 18.550 103.818, 15 113.592, 15 114.071 C 15 114.549, 19.702 116.373, 25.449 118.124 L 35.898 121.308 35.358 134.404 C 34.067 165.711, 33.551 189.983, 34.180 189.751 C 34.554 189.613, 41.304 182.555, 49.180 174.066 L 63.500 158.632 63.500 109.066 L 63.500 59.500 69.899 42.732 C 73.418 33.510, 76.416 26.085, 76.559 26.232 C 76.703 26.380, 75.038 48.503, 72.859 75.395 C 70.680 102.287, 69.089 124.791, 69.325 125.403 C 69.560 126.016, 77.908 128.521, 87.876 130.970 C 97.844 133.418, 106 135.670, 106 135.972 C 106 136.275, 102.712 145.067, 98.693 155.511 L 91.386 174.500 86.127 175.149 C 80.626 175.827, 79.162 176.494, 80.416 177.750 C 80.827 178.162, 95.865 179.051, 113.832 179.723 L 146.500 180.947 167.750 175.747 C 181.571 172.365, 189 170.102, 189 169.274 C 189 167.692, 189.280 167.690, 162.072 169.492 C 149.736 170.309, 139.546 170.870, 139.426 170.739 C 139.120 170.403, 137 140.660, 137 136.698 L 137 133.436 159 128 C 172.013 124.785, 181 122.087, 181 121.396 C 181 119.863, 175.792 119.209, 157.008 118.380 C 148.487 118.005, 140.436 117.409, 139.116 117.056 C 137.381 116.592, 134.963 113.382, 130.380 105.457 C 126.894 99.431, 124.033 93.980, 124.021 93.345 C 124.007 92.547, 125.780 92.341, 129.750 92.679 C 133.385 92.988, 145.211 91.849, 161.903 89.584 C 176.424 87.613, 188.462 86, 188.653 86 C 188.844 86, 189 85.325, 189 84.500 C 189 83.473, 187.975 83.002, 185.750 83.006 C 181.055 83.015, 136.549 80.793, 136.242 80.534 C 136.099 80.414, 138.604 74.058, 141.808 66.408 L 147.632 52.500 159.800 45.500 C 166.493 41.650, 171.975 38.255, 171.984 37.956 C 171.993 37.658, 164.012 36.127, 154.250 34.555 C 144.488 32.983, 135.741 31.427, 134.813 31.098 C 133.885 30.769, 128.485 26.198, 122.813 20.940 C 111.334 10.300, 110.381 9.575, 109.576 10.877 M 59.252 20.294 L 48.004 21.271 46.060 27.886 C 44.990 31.524, 41.644 43.164, 38.623 53.752 C 33.763 70.788, 31.198 78.274, 20.647 106.224 L 18.109 112.948 28.015 116.004 C 33.462 117.686, 38.067 119.385, 38.246 119.781 C 38.426 120.176, 38.107 134.563, 37.537 151.752 C 36.966 168.940, 36.751 182.890, 37.057 182.752 C 37.363 182.613, 42.763 176.944, 49.057 170.154 L 60.500 157.807 60.530 108.154 L 60.560 58.500 66.880 42.500 C 70.356 33.700, 73.810 24.813, 74.556 22.750 L 75.911 19 73.206 19.159 C 71.718 19.246, 65.438 19.757, 59.252 20.294 M 107.116 31.125 C 106.783 38.652, 106.227 39.385, 96.932 44.553 C 92.038 47.274, 88.027 49.812, 88.017 50.193 C 88.008 50.575, 92.519 58.394, 98.041 67.569 C 103.564 76.744, 107.805 84.532, 107.465 84.875 C 107.126 85.219, 103.620 86.206, 99.674 87.068 L 92.500 88.636 105.940 89.294 C 113.332 89.657, 119.491 89.842, 119.626 89.707 C 119.837 89.496, 109.114 36.157, 107.724 30.500 C 107.333 28.913, 107.208 29.042, 107.116 31.125" stroke="none" fill="black" fill-rule="evenodd"/>
</svg>