<svg xmlns="http://www.w3.org/2000/svg" width="200" height="200" viewBox="0 0 200 200" version="1.1">
	<path d="M 50.152 15.591 C 49.595 17.741, 47.682 26.025, 45.899 34 C 43.022 46.875, 41.562 50.881, 32.877 69.741 C 25.888 84.919, 22.226 94.310, 20.048 102.638 C 16.489 116.249, 16.662 115, 18.335 115 C 19.197 115, 20.777 110.806, 22.795 103.160 C 25.032 94.681, 28.654 85.415, 35.552 70.517 C 44.539 51.109, 45.452 48.532, 49.172 32.110 C 51.365 22.429, 53.250 14.417, 53.362 14.305 C 53.474 14.193, 57.703 14.370, 62.761 14.697 L 71.956 15.293 76.028 21.543 L 80.100 27.792 70.098 45.727 L 60.096 63.661 61.027 78.081 C 62.366 98.841, 62.143 140.535, 60.579 161.801 C 59.838 171.866, 59.030 180.304, 58.783 180.551 C 58.535 180.798, 53.533 178.914, 47.667 176.364 L 37 171.728 37.009 165.614 C 37.014 162.251, 37.488 152.075, 38.062 143 C 39.106 126.504, 37.760 94.848, 35.886 91.815 C 34.050 88.844, 33.841 92.910, 35.020 108.700 C 35.994 121.740, 36.020 129.892, 35.137 145.123 C 34.512 155.916, 34 166.731, 34 169.158 L 34 173.570 47.607 179.345 C 55.091 182.521, 61.330 184.980, 61.471 184.810 C 61.612 184.639, 62.471 173.925, 63.380 161 C 65.268 134.147, 65.465 107.028, 63.957 81.717 L 62.914 64.212 72.150 47.606 C 77.230 38.473, 81.637 31.014, 81.943 31.031 C 82.249 31.048, 85.100 35.149, 88.277 40.144 L 94.054 49.227 80.514 72.268 C 73.068 84.940, 67.188 95.521, 67.448 95.781 C 67.708 96.042, 72.551 94.319, 78.211 91.954 C 87.985 87.869, 89.038 87.125, 99.250 77.094 L 110 66.534 109.900 91.517 C 109.845 105.258, 109.442 124.375, 109.005 134 L 108.210 151.500 114.355 172.249 C 117.735 183.661, 120.725 192.990, 121 192.980 C 121.275 192.971, 125.493 184.678, 130.374 174.552 L 139.248 156.142 149.874 147.646 C 160.242 139.356, 178.842 121.472, 177.948 120.651 C 177.702 120.425, 169.400 121.523, 159.500 123.092 C 149.600 124.661, 140.533 125.957, 139.352 125.972 C 137.285 125.999, 137.374 125.536, 141.712 113.750 C 144.191 107.013, 146.733 100.996, 147.360 100.380 C 147.987 99.764, 154.800 97.604, 162.500 95.579 C 170.200 93.554, 177.287 91.665, 178.250 91.381 C 179.212 91.097, 180 90.162, 180 89.303 C 180 87.999, 179.052 87.841, 174.250 88.342 C 171.088 88.672, 162.625 89.238, 155.445 89.601 L 142.390 90.261 141.159 79.880 C 140.481 74.171, 139.660 67.596, 139.334 65.269 L 138.742 61.037 161.905 60.769 L 185.068 60.500 175.927 49.500 C 170.900 43.450, 166.486 38.384, 166.119 38.242 C 165.751 38.100, 156.030 42.268, 144.515 47.505 C 133.001 52.742, 123.283 56.908, 122.921 56.763 C 122.559 56.618, 124.400 49.850, 127.013 41.723 L 131.764 26.946 127.632 24.608 C 125.359 23.322, 119.501 20.178, 114.613 17.622 L 105.725 12.974 78.444 12.328 L 51.163 11.682 50.152 15.591 M 84.220 29.091 C 89.390 37.016, 94.412 44.707, 95.381 46.183 C 97.455 49.343, 98.371 47.239, 85.014 70 C 71.775 92.560, 72.457 91.162, 75.222 90.082 C 85.949 85.892, 87.909 84.493, 100.250 72.214 L 113 59.529 112.979 82.514 C 112.968 95.156, 112.518 116.065, 111.979 128.978 L 111 152.455 116.190 169.335 L 121.381 186.215 129.440 170.128 L 137.500 154.041 148.877 145.050 C 155.135 140.105, 162.740 133.313, 165.778 129.956 L 171.301 123.853 167.900 124.469 C 159.034 126.076, 133.519 129.852, 133.261 129.595 C 132.966 129.299, 144.600 98.016, 145.181 97.547 C 145.356 97.405, 149.325 96.276, 154 95.039 C 158.675 93.802, 162.725 92.574, 163 92.309 C 163.275 92.044, 158.213 92.153, 151.750 92.550 C 145.049 92.962, 139.997 92.891, 139.993 92.386 C 139.989 91.899, 139.089 84.814, 137.993 76.641 C 136.897 68.469, 136 60.940, 136 59.911 C 136 58.148, 137.254 58.023, 157.529 57.770 L 179.058 57.500 172.424 49.500 C 168.776 45.100, 165.698 41.398, 165.585 41.273 C 165.472 41.149, 154.905 45.797, 142.103 51.603 C 129.301 57.409, 118.612 61.945, 118.351 61.684 C 118.089 61.422, 120.206 53.924, 123.055 45.021 C 126.314 34.835, 127.883 28.483, 127.287 27.887 C 126.766 27.366, 121.651 24.461, 115.920 21.431 L 105.500 15.923 90.160 15.303 L 74.820 14.683 84.220 29.091" stroke="none" fill="black" fill-rule="evenodd"/>
</svg>