<svg xmlns="http://www.w3.org/2000/svg" width="200" height="200" viewBox="0 0 200 200" version="1.1">
	<path d="M 61.600 18.085 C 50.104 22.420, 40.489 26.178, 40.232 26.435 C 39.974 26.692, 35.849 40.572, 31.063 57.279 L 22.363 87.655 25.597 91.397 C 29.491 95.901, 29.735 97.512, 30.538 124 L 31.130 143.500 38.713 168 C 42.884 181.475, 46.602 192.849, 46.975 193.276 C 47.512 193.892, 63 140.136, 63 137.654 C 63 137.294, 62.403 137, 61.673 137 C 60.787 137, 58.233 144.823, 54 160.500 C 50.510 173.425, 47.395 183.992, 47.077 183.983 C 46.760 183.974, 43.698 174.861, 40.274 163.733 L 34.048 143.500 33.005 119.110 L 31.961 94.720 28.981 91.325 C 27.341 89.458, 26 87.259, 26 86.439 C 26 85.618, 29.648 72.197, 34.106 56.614 L 42.213 28.282 63.356 20.469 C 75.495 15.984, 85.778 12.746, 87.500 12.866 C 89.150 12.981, 101.389 14.773, 114.698 16.848 L 138.895 20.620 146.698 27.615 C 150.989 31.461, 158.461 36.816, 163.303 39.513 C 171.233 43.931, 171.877 44.503, 169.803 45.283 C 168.536 45.760, 159.730 49.013, 150.234 52.514 L 132.967 58.878 121.484 53.823 L 110 48.769 110 44.979 L 110 41.189 102.250 41.693 C 94.522 42.196, 94.460 42.180, 80.130 36.018 C 72.227 32.620, 65.428 30.213, 65.022 30.670 C 64.615 31.126, 62.387 41.781, 60.069 54.346 L 55.856 77.191 56.573 101.596 C 56.968 115.018, 57.676 126, 58.146 126 C 58.616 126, 58.998 114.638, 58.995 100.750 C 58.989 75.952, 59.055 75.142, 62.662 55.500 C 64.682 44.500, 66.681 35.101, 67.105 34.613 C 67.534 34.118, 72.438 35.668, 78.181 38.113 L 88.487 42.500 81.244 43.389 C 76.575 43.961, 74 44.723, 74 45.531 C 74 46.221, 80.862 49.543, 89.250 52.913 C 97.638 56.283, 105.122 59.433, 105.883 59.912 C 107.516 60.940, 108.056 60.813, 84 65.086 C 74.375 66.796, 66.336 68.352, 66.135 68.545 C 65.813 68.855, 69.268 95.828, 72.179 115.726 L 73.236 122.952 89.368 123.226 L 105.500 123.500 98.408 127.183 L 91.316 130.866 85.063 154.005 C 81.624 166.731, 79.005 177.339, 79.243 177.576 C 79.481 177.814, 81.095 177.514, 82.829 176.910 C 85.132 176.107, 92.786 176.128, 111.187 176.989 L 136.391 178.168 162.446 174.411 C 187.024 170.868, 191.625 169.820, 190.511 168.018 C 190.255 167.603, 180.679 164.031, 169.232 160.080 L 148.419 152.897 140.657 137.334 C 136.387 128.775, 133.031 121.672, 133.197 121.551 C 133.364 121.429, 142.712 120.331, 153.971 119.110 C 165.230 117.890, 174.660 116.674, 174.926 116.408 C 175.785 115.549, 182.795 63.521, 182.136 62.894 C 181.786 62.561, 172.056 61.742, 160.513 61.074 C 148.971 60.406, 139.438 59.771, 139.330 59.663 C 139.222 59.555, 147.665 56.376, 158.092 52.598 C 168.519 48.820, 177.233 45.431, 177.458 45.068 C 177.683 44.705, 173.059 41.765, 167.183 38.535 C 160.409 34.812, 153.510 29.972, 148.329 25.309 L 140.157 17.955 114.100 13.977 C 99.768 11.790, 86.795 10.045, 85.271 10.101 C 83.747 10.156, 73.095 13.749, 61.600 18.085 M 102.565 44.895 C 102.260 45.388, 102.721 46.063, 103.588 46.395 C 106.084 47.353, 107 47.113, 107 45.500 C 107 43.890, 103.482 43.410, 102.565 44.895 M 86.026 45.913 L 80.551 46.500 93.004 51.500 C 99.852 54.250, 105.803 56.650, 106.228 56.833 C 106.653 57.017, 106.999 55.667, 106.997 53.833 C 106.994 50.658, 106.673 50.369, 100.247 47.742 C 96.536 46.226, 93.050 45.061, 92.500 45.155 C 91.950 45.249, 89.037 45.590, 86.026 45.913 M 110.005 55.237 C 110.009 58.053, 110.523 58.720, 113.755 60.103 L 117.500 61.706 113.750 62.464 C 110.054 63.212, 110 63.291, 110 67.936 L 110 72.650 126.487 85.325 C 135.555 92.296, 143.151 98, 143.367 98 C 143.583 98, 141.733 89.900, 139.255 80 C 135.657 65.621, 134.414 62, 133.075 62 C 132.154 62, 130.972 61.592, 130.450 61.093 C 129.928 60.594, 126.575 58.957, 123 57.456 C 119.425 55.955, 115.037 54.107, 113.250 53.350 L 110 51.973 110.005 55.237 M 138 63.409 C 138 63.774, 140.268 73.113, 143.041 84.162 C 145.813 95.212, 147.946 104.387, 147.781 104.553 C 147.615 104.718, 139.081 98.403, 128.815 90.518 C 118.550 82.633, 109.892 76.441, 109.576 76.758 C 109.259 77.074, 109 84.908, 109 94.167 C 109 108.954, 108.805 111, 107.395 111 C 105.956 111, 105.826 108.550, 106.145 87.425 L 106.500 63.850 104 64.332 C 102.625 64.597, 94.188 66.093, 85.250 67.657 C 72.675 69.857, 69.010 70.839, 69.042 72 C 69.065 72.825, 70.535 84.075, 72.310 97 L 75.536 120.500 93.768 120.773 C 107.710 120.981, 112 121.344, 112 122.317 C 112 123.016, 107.933 125.582, 102.963 128.018 C 92.626 133.085, 94.681 129.314, 87.036 157.247 C 82.794 172.746, 82.463 174.450, 83.864 173.584 C 84.340 173.290, 96.303 173.555, 110.450 174.172 L 136.172 175.294 159.622 171.983 C 172.519 170.162, 182.718 168.353, 182.286 167.964 C 181.854 167.574, 173.966 164.639, 164.758 161.442 C 155.551 158.244, 147.618 155.375, 147.130 155.064 C 146.046 154.375, 128.740 119.926, 129.231 119.436 C 129.423 119.243, 138.920 118.069, 150.334 116.825 C 161.748 115.582, 171.509 114.303, 172.025 113.984 C 172.542 113.665, 174.463 102.626, 176.295 89.452 L 179.626 65.500 173.563 64.856 C 162.999 63.734, 138 62.717, 138 63.409" stroke="none" fill="black" fill-rule="evenodd"/>
</svg>