<svg xmlns="http://www.w3.org/2000/svg" width="200" height="200" viewBox="0 0 200 200" version="1.1">
	<path d="M 106.500 24.193 C 102.100 26.440, 87.608 32.023, 74.296 36.599 C 53.098 43.884, 48.285 45.171, 35.553 46.959 C 27.558 48.082, 20.787 49, 20.508 49 C 20.228 49, 20 49.656, 20 50.458 C 20 51.681, 21.642 51.816, 30.158 51.297 C 37.211 50.868, 40.116 51.003, 39.661 51.740 C 39.272 52.369, 41.050 53.536, 44.030 54.608 C 46.794 55.602, 48.859 56.884, 48.620 57.457 C 48.380 58.031, 42.518 71.286, 35.592 86.913 C 28.667 102.541, 23 115.681, 23 116.114 C 23 116.547, 28.013 114.668, 34.140 111.937 C 45.084 107.061, 45.544 106.953, 60.146 105.826 C 68.321 105.194, 75.261 104.927, 75.566 105.232 C 75.871 105.538, 73.187 111.642, 69.601 118.798 L 63.081 131.809 42.541 150.061 C 31.243 160.099, 22 168.463, 22 168.647 C 22 168.831, 26.837 168.697, 32.750 168.350 L 43.500 167.718 63.790 153.859 C 74.950 146.237, 84.324 140, 84.621 140 C 84.918 140, 85.012 150.575, 84.831 163.501 C 84.649 176.426, 84.853 187.001, 85.285 187.001 C 85.999 187, 112.856 167.239, 115.711 164.614 C 116.657 163.744, 116.405 157.809, 114.560 137.500 C 113.261 123.200, 112.297 111.395, 112.417 111.266 C 112.537 111.137, 115.694 117.971, 119.432 126.454 L 126.228 141.877 145.190 159.189 C 155.619 168.710, 164.455 176.605, 164.826 176.734 C 165.458 176.953, 176.619 151.174, 177.727 146.936 C 178.165 145.260, 174.836 143.343, 153.371 132.917 C 139.696 126.275, 128.355 120.689, 128.170 120.503 C 127.856 120.189, 142.392 96.547, 144.081 94.625 C 144.504 94.143, 152.569 98.073, 162.003 103.357 C 171.437 108.641, 179.008 112.560, 178.828 112.064 C 178.647 111.568, 173.775 100.789, 168 88.110 L 157.500 65.057 146.250 59.848 C 140.063 56.983, 135 54.332, 135 53.957 C 135 53.581, 138.358 52.733, 142.463 52.071 C 147.747 51.218, 154.097 48.964, 164.213 44.352 C 172.071 40.769, 178.913 37.439, 179.417 36.952 C 181.929 34.525, 175.312 35.246, 156.421 39.458 C 145.027 41.998, 134.807 44.171, 133.710 44.288 C 132.168 44.452, 129.994 41.800, 124.108 32.576 C 119.924 26.018, 116.050 20.529, 115.500 20.379 C 114.950 20.229, 110.900 21.945, 106.500 24.193 M 94.500 33.611 C 83.500 39.427, 73.825 44.589, 73 45.083 C 72.069 45.641, 73.662 45.746, 77.198 45.359 C 84.029 44.613, 83.126 42.145, 85.941 69.232 L 87.991 88.964 76.500 111.308 L 65.009 133.651 47.576 149.076 C 37.987 157.559, 30.111 164.821, 30.071 165.212 C 30.032 165.604, 32.997 165.645, 36.661 165.303 C 43.857 164.631, 42.899 165.200, 78.914 140.207 L 88.328 133.674 87.689 157.837 C 87.338 171.127, 87.282 182, 87.566 182 C 88.007 182, 111.023 165.011, 113.299 163.006 C 113.739 162.618, 112.898 149.197, 111.431 133.180 C 108.939 105.967, 108.818 100.151, 110.770 101.358 C 111.201 101.624, 115.357 110.470, 120.006 121.014 L 128.459 140.187 145.817 156.093 C 155.364 164.842, 163.499 172, 163.895 172 C 164.635 172, 175.328 146.974, 174.796 146.488 C 174.633 146.340, 163.284 140.766, 149.575 134.101 C 135.866 127.436, 124.484 121.818, 124.281 121.615 C 124.018 121.351, 141.444 92.895, 143.502 90.227 C 143.618 90.077, 150.152 93.564, 158.022 97.978 C 165.892 102.391, 172.452 105.881, 172.600 105.733 C 172.748 105.585, 168.961 96.848, 164.185 86.318 L 155.500 67.171 145.565 62.571 C 140.101 60.040, 135.319 58.314, 134.940 58.735 C 134.560 59.156, 131.381 70.244, 127.875 83.375 C 122.346 104.081, 120.230 109.647, 118.563 107.874 C 117.766 107.027, 105.918 56.749, 106.401 56.266 C 106.690 55.977, 116.627 53.977, 128.484 51.821 C 145.982 48.640, 151.399 47.251, 157.243 44.451 C 161.203 42.553, 163.959 41, 163.366 41 C 162.774 41, 155.162 42.573, 146.451 44.495 C 137.739 46.418, 130.362 47.614, 130.056 47.155 C 129.750 46.695, 126.207 41.073, 122.182 34.660 C 118.157 28.247, 114.782 23.008, 114.682 23.019 C 114.582 23.029, 105.500 27.796, 94.500 33.611 M 66.500 44 C 64.300 45.018, 63.175 45.866, 64 45.884 C 64.825 45.902, 67.075 45.054, 69 44 C 73.452 41.563, 71.765 41.563, 66.500 44 M 68 48.920 C 65.525 49.280, 61.295 50.877, 58.601 52.469 L 53.701 55.365 62.851 58.814 C 68.689 61.016, 72 62.798, 72 63.739 C 72 64.745, 71.444 64.990, 70.250 64.510 C 62.528 61.406, 51.869 57.798, 51.503 58.164 C 50.204 59.462, 28.247 110.542, 28.887 110.774 C 29.304 110.925, 32.994 109.522, 37.087 107.656 C 43.861 104.570, 45.923 104.154, 60.015 103.037 C 68.532 102.362, 75.651 101.664, 75.836 101.486 C 76.020 101.308, 73.625 93.418, 70.513 83.953 C 66.614 72.092, 65.177 66.423, 65.891 65.709 C 67.105 64.495, 66.968 64.163, 73.587 84.250 C 76.261 92.362, 78.685 98.998, 78.974 98.997 C 79.263 98.995, 80.775 96.629, 82.334 93.739 L 85.167 88.486 83.082 69.493 C 81.935 59.047, 80.997 49.938, 80.998 49.250 C 81 47.899, 75.924 47.770, 68 48.920 M 48 51.161 L 45.500 52.196 47.815 53.090 C 49.425 53.711, 51.025 53.521, 53.065 52.466 C 54.679 51.632, 56 50.735, 56 50.474 C 56 49.631, 50.573 50.097, 48 51.161 M 119.185 56.226 C 112.536 57.512, 109.022 58.626, 109.297 59.360 C 109.532 59.987, 111.896 69.617, 114.552 80.760 C 117.207 91.904, 119.682 100.679, 120.051 100.260 C 120.421 99.842, 123.332 89.825, 126.519 78 C 129.707 66.175, 132.517 55.938, 132.764 55.250 C 133.336 53.661, 131.918 53.763, 119.185 56.226" stroke="none" fill="black" fill-rule="evenodd"/>
</svg>