<svg xmlns="http://www.w3.org/2000/svg" width="200" height="200" viewBox="0 0 200 200" version="1.1">
	<path d="M 45.145 14.002 C 44.122 15.683, 40.234 28.633, 36.504 42.780 C 32.775 56.926, 26.483 77.955, 22.522 89.511 L 15.321 110.522 24.727 116.891 C 34.098 123.238, 34.130 123.274, 33.613 126.880 C 33.328 128.871, 32.835 138.825, 32.518 149 C 32.201 159.175, 31.677 170.313, 31.354 173.750 C 30.875 178.855, 31.037 180, 32.241 180 C 33.939 180, 34.566 172.793, 35.635 140.997 L 36.290 121.493 27.645 115.740 C 22.890 112.576, 19 109.594, 19 109.114 C 19 108.635, 21.888 99.932, 25.418 89.775 C 28.948 79.618, 34.838 59.876, 38.509 45.904 C 42.179 31.932, 45.884 19.003, 46.741 17.173 L 48.301 13.846 56.401 14.453 C 67.673 15.297, 153.403 20, 157.533 20 C 160.573 20, 161.503 20.779, 166.843 27.794 L 172.776 35.587 171.554 64.044 L 170.333 92.500 164.105 113.178 L 157.877 133.856 170.013 152.020 C 176.688 162.010, 182.003 170.314, 181.825 170.473 C 181.646 170.632, 175.330 167.241, 167.788 162.938 L 154.076 155.114 134.288 161.957 C 123.405 165.721, 109.878 170.645, 104.230 172.900 C 98.581 175.155, 93.707 177, 93.397 177 C 93.088 177, 101.500 169.912, 112.091 161.250 L 131.348 145.500 139.307 122.500 L 147.266 99.500 149.464 70.500 C 150.673 54.550, 151.400 41.203, 151.081 40.839 C 150.761 40.476, 140.600 38.662, 128.500 36.808 L 106.500 33.438 106.714 28.257 C 106.926 23.145, 106.887 23.070, 103.714 22.544 C 97.407 21.498, 53.816 16.895, 53.051 17.195 C 52.622 17.363, 57.173 21.977, 63.164 27.449 L 74.057 37.398 66.438 45.062 L 58.819 52.726 58.047 76.325 C 57.622 89.304, 57.501 112.476, 57.778 127.819 L 58.280 155.714 48.944 173.607 C 43.809 183.448, 39.663 191.714, 39.729 191.975 C 40.394 194.589, 43.246 190.434, 51.171 175.307 L 60.500 157.500 60.557 106.218 L 60.614 54.936 68.032 47.468 C 72.112 43.361, 75.734 40, 76.080 40 C 76.427 40, 77.036 51.922, 77.434 66.494 L 78.158 92.988 73.947 115.938 L 69.736 138.889 73.028 151.455 C 76.236 163.700, 76.373 163.986, 78.410 162.646 C 79.559 161.889, 92.564 153.287, 107.310 143.529 C 122.055 133.770, 134.334 126.001, 134.596 126.263 C 134.858 126.525, 133.581 130.734, 131.758 135.617 L 128.444 144.495 105.731 162.957 C 91.189 174.777, 83.364 181.764, 83.980 182.380 C 84.596 182.996, 90.618 181.138, 100.721 177.215 C 109.399 173.846, 124.898 168.176, 135.163 164.617 L 153.826 158.145 167.163 165.675 C 174.498 169.817, 181.963 174.096, 183.750 175.185 C 190.548 179.323, 188.517 174.628, 174.516 153.840 L 160.861 133.567 167.052 112.665 L 173.243 91.763 174.053 73.473 C 174.499 63.414, 174.971 50.494, 175.103 44.762 L 175.342 34.340 169.042 26.212 C 161.927 17.033, 163.245 17.551, 144.500 16.569 C 90.578 13.744, 58.455 11.959, 53.252 11.498 C 47.117 10.955, 46.971 11, 45.145 14.002 M 63.243 23.784 C 65.034 25.650, 68.645 28.986, 71.268 31.197 C 75.195 34.507, 76.297 34.999, 77.518 33.985 C 78.766 32.949, 79 33.189, 79 35.508 C 79 37.686, 80.962 40.119, 88.380 47.142 C 93.538 52.026, 98.876 56.902, 100.242 57.976 L 102.725 59.929 103.241 42.715 C 103.525 33.247, 103.699 25.435, 103.629 25.355 C 103.558 25.275, 93.709 24.125, 81.743 22.800 L 59.986 20.390 63.243 23.784 M 105.661 49.775 L 105.017 62.490 115.258 72.146 C 120.891 77.457, 125.835 81.489, 126.245 81.106 C 126.655 80.723, 128.531 76.605, 130.414 71.955 L 133.838 63.500 131.669 61.148 C 130.476 59.854, 124.281 53.905, 117.903 47.928 L 106.306 37.061 105.661 49.775 M 123.865 49.772 L 137.230 62.500 132.419 74.250 C 129.773 80.713, 127.327 86, 126.985 86 C 126.642 86, 121.668 81.649, 115.931 76.332 L 105.500 66.664 105.162 72.082 C 104.977 75.062, 105.138 87.469, 105.521 99.653 L 106.216 121.805 110.358 122.357 C 112.636 122.661, 119.259 123.203, 125.075 123.562 L 135.650 124.215 140.250 110.858 L 144.850 97.500 146.780 70.500 C 147.841 55.650, 148.544 43.307, 148.342 43.070 C 147.998 42.669, 113.689 37.062, 111.500 37.050 C 110.950 37.046, 116.514 42.772, 123.865 49.772 M 80.328 68.250 L 80.967 92.500 76.824 115.340 L 72.682 138.181 75.036 148.152 C 76.330 153.636, 77.716 158.325, 78.115 158.571 C 78.896 159.054, 126.885 127.914, 126.957 126.878 C 126.981 126.537, 121.671 125.939, 115.158 125.550 L 103.316 124.843 102.697 94.221 L 102.077 63.598 91.789 53.849 C 86.130 48.487, 81.093 44.078, 80.595 44.050 C 80.061 44.021, 79.951 53.956, 80.328 68.250" stroke="none" fill="black" fill-rule="evenodd"/>
</svg>