<svg xmlns="http://www.w3.org/2000/svg" width="200" height="200" viewBox="0 0 200 200" version="1.1">
	<path d="M 67.649 36.105 L 57.798 61.191 58.518 71.248 C 58.914 76.780, 58.904 102.892, 58.496 129.274 L 57.754 177.243 46.454 165.872 L 35.155 154.500 34.183 126.232 L 33.211 97.963 29.605 93.563 C 27.622 91.143, 26 88.659, 26 88.043 C 26 87.427, 30.725 71.594, 36.500 52.859 C 42.275 34.123, 47 17.491, 47 15.897 C 47 13.989, 46.488 13, 45.500 13 C 44.500 13, 44 14, 44 16.002 C 44 17.654, 39.275 34.388, 33.500 53.189 C 27.725 71.991, 23 87.774, 23 88.264 C 23 88.753, 24.743 91.587, 26.873 94.562 L 30.745 99.970 31.478 127.854 L 32.211 155.737 46.606 170.106 L 61 184.474 61.165 148.487 C 61.256 128.694, 61.199 100.983, 61.038 86.906 L 60.746 61.312 69.069 40.185 C 73.646 28.565, 77.485 19.158, 77.599 19.279 C 78.003 19.711, 98 104.140, 98 105.415 C 98 106.296, 95.692 106.927, 90.809 107.381 C 86.853 107.749, 83.433 108.233, 83.208 108.458 C 81.772 109.895, 85.063 111.002, 90.809 111.015 C 94.489 111.024, 98.012 111.361, 98.639 111.765 C 99.709 112.456, 102.282 120.051, 101.658 120.676 C 101.499 120.834, 97.349 120.305, 92.435 119.499 C 87.521 118.694, 82.713 118.027, 81.750 118.017 C 80.120 118.001, 80 120.160, 80 149.500 C 80 168.227, 80.377 181, 80.929 181 C 81.440 181, 92.744 178.962, 106.049 176.470 L 130.240 171.941 152.787 172.970 C 165.189 173.535, 175.540 173.794, 175.790 173.543 C 176.040 173.293, 174.991 160.038, 173.457 144.087 L 170.669 115.086 167.584 114.425 C 165.888 114.062, 164.219 113.601, 163.876 113.401 C 163.532 113.201, 164.318 107.067, 165.620 99.769 C 166.923 92.471, 167.992 86.162, 167.995 85.750 C 167.998 85.338, 169.763 85, 171.918 85 C 179.331 85, 179.395 84.746, 174.453 74.907 L 169.980 66 174.509 66 C 178.692 66, 178.999 65.828, 178.522 63.750 C 174.334 45.490, 171.148 32.815, 170.613 32.280 C 170.247 31.913, 165.817 31.416, 160.770 31.175 L 151.594 30.736 158.047 28.777 C 161.596 27.700, 164.863 26.474, 165.307 26.052 C 165.751 25.631, 162.013 22.232, 157 18.500 C 151.276 14.238, 147.534 12.066, 146.941 12.659 C 146.347 13.253, 148.616 15.596, 153.040 18.960 C 156.914 21.906, 159.728 24.651, 159.292 25.061 C 158.857 25.471, 155.350 26.830, 151.500 28.080 C 145.531 30.019, 141.565 30.439, 124.581 30.927 C 112.325 31.280, 104.531 31.896, 104.322 32.529 C 104.134 33.095, 108.161 34.935, 113.270 36.618 L 122.560 39.678 131.530 36.859 C 139.575 34.331, 141.956 34.039, 154.609 34.020 L 168.719 34 171.356 45.250 C 175.832 64.348, 175.796 63, 171.825 63 C 168.534 63, 168.247 62.686, 164.475 54.948 C 161.179 48.188, 160.224 46.976, 158.525 47.390 C 149.388 49.617, 101.224 59, 98.927 59 C 97.083 59, 96 59.519, 96 60.401 C 96 61.922, 97.276 62.029, 142.500 64.297 L 166.500 65.500 170.186 73 C 172.214 77.125, 173.901 80.838, 173.936 81.250 C 173.971 81.662, 172.841 82, 171.425 82 C 169.119 82, 168.883 81.660, 169.175 78.750 C 169.449 76.010, 169.186 75.530, 167.500 75.689 C 133.560 78.902, 110.199 81.272, 109.100 81.615 C 108.033 81.948, 108.253 82.640, 110.025 84.526 C 112.790 87.470, 116.573 87.620, 145.871 85.954 C 155.975 85.379, 164.461 85.128, 164.729 85.395 C 165.545 86.212, 160.718 112, 159.749 112 C 159.251 112, 152.276 110.199, 144.248 107.998 L 129.652 103.996 115.817 105.155 C 108.207 105.793, 101.800 106.131, 101.578 105.907 C 101.357 105.683, 96.101 84.237, 89.899 58.250 C 83.696 32.263, 78.369 11.004, 78.061 11.010 C 77.752 11.015, 73.067 22.308, 67.649 36.105 M 119 35.421 C 121.467 36.315, 123.533 36.410, 126 35.740 C 131.424 34.269, 130.914 33.994, 122.917 34.076 C 115.716 34.150, 115.602 34.189, 119 35.421 M 135.500 55.011 C 122.850 57.660, 113.850 59.900, 115.500 59.988 C 143.538 61.474, 165.001 62.442, 165.001 62.221 C 164.999 61.677, 158.967 50.002, 158.736 50.096 C 158.606 50.149, 148.150 52.361, 135.500 55.011 M 139.500 81.064 C 114.755 83.713, 114.515 83.872, 136 83.386 C 159.991 82.843, 166 82.242, 166 80.385 C 166 78.595, 161.478 78.711, 139.500 81.064 M 116 107.952 C 110.194 108.493, 109.874 108.630, 113 109.228 C 114.925 109.597, 122.575 110.123, 130 110.398 L 143.500 110.899 137 108.953 C 130.424 106.985, 127.735 106.857, 116 107.952 M 103.539 115.250 C 104.878 121.487, 104.711 121.411, 122.669 123.881 C 131.926 125.154, 140.665 126.418, 142.088 126.691 C 144.596 127.170, 144.713 127.529, 145.883 138.343 C 146.547 144.479, 147.327 150.723, 147.617 152.218 C 148.128 154.850, 147.624 155.195, 131.619 163.181 C 122.529 167.715, 114.780 171.114, 114.399 170.732 C 114.017 170.351, 111.267 159.801, 108.286 147.287 C 105.306 134.774, 102.392 124.242, 101.811 123.883 C 101.230 123.524, 97.998 122.919, 94.628 122.539 C 91.257 122.158, 87.263 121.600, 85.750 121.299 L 83 120.750 83 149.394 L 83 178.038 85.250 177.531 C 86.487 177.252, 96.994 175.253, 108.598 173.090 L 129.695 169.157 150.978 170.115 C 162.683 170.642, 172.471 170.862, 172.729 170.604 C 173.156 170.177, 169.706 131.238, 168.365 121.346 C 167.841 117.481, 167.514 117.113, 163.651 116.041 C 160.041 115.038, 119.343 112.156, 107.171 112.041 L 102.841 112 103.539 115.250 M 106 124.981 C 106 125.486, 108.023 134.359, 110.495 144.699 C 112.967 155.040, 115.225 164.511, 115.513 165.747 C 116.020 167.921, 116.506 167.761, 130.268 160.884 C 138.096 156.973, 144.602 153.685, 144.726 153.577 C 145.013 153.328, 142.103 129.740, 141.756 129.507 C 141.615 129.411, 134.075 128.318, 125 127.078 C 115.925 125.837, 107.938 124.651, 107.250 124.442 C 106.563 124.233, 106 124.476, 106 124.981" stroke="none" fill="black" fill-rule="evenodd"/>
</svg>