<svg xmlns="http://www.w3.org/2000/svg" width="200" height="200" viewBox="0 0 200 200" version="1.1">
	<path d="M 37.992 26.250 L 36.709 45.500 25.826 74.389 C 19.841 90.278, 15.172 103.505, 15.450 103.784 C 15.728 104.062, 19.566 103.869, 23.978 103.355 C 30.941 102.544, 31.997 102.624, 31.980 103.960 C 31.970 104.807, 31.525 117.070, 30.992 131.211 L 30.023 156.921 41.588 173.211 C 55.969 193.465, 55.991 193.489, 56.028 188.964 C 56.044 187.059, 56.959 174.250, 58.062 160.500 C 59.165 146.750, 60.317 121.775, 60.623 105 C 61.118 77.823, 61.497 72.495, 64.103 56.096 C 66.190 42.964, 67.633 36.712, 69.141 34.273 C 70.303 32.392, 71.571 31.224, 71.958 31.677 C 72.346 32.130, 73.888 35.398, 75.386 38.941 L 78.108 45.382 78.018 74.941 C 77.940 100.550, 78.289 107.875, 80.625 129.750 C 82.593 148.188, 83.666 155, 84.600 155 C 85.304 155, 92.970 152.539, 101.637 149.531 C 110.304 146.523, 117.539 144.206, 117.715 144.382 C 117.892 144.559, 120.682 151.266, 123.915 159.289 L 129.794 173.875 99.397 173.279 C 72.776 172.758, 69 172.871, 69 174.185 C 69 176.179, 90.162 176.993, 142.157 176.997 L 180.815 177 173.432 161.250 C 169.371 152.588, 166.038 144.938, 166.024 144.250 C 166.011 143.563, 167.174 143, 168.608 143 L 171.216 143 170.542 133.250 C 169.572 119.218, 169.494 58.676, 170.428 44.250 C 171.105 33.792, 171.006 32, 169.755 32 C 168.559 32, 168.154 34.907, 167.562 47.750 C 166.674 66.987, 166.699 107.608, 167.609 126.250 C 168.263 139.629, 168.226 140, 166.247 140 C 165.129 140, 163.992 139.438, 163.720 138.750 C 162.977 136.870, 144.930 90.880, 143.804 88 L 142.828 85.500 140.048 88.802 L 137.268 92.104 130.634 78.440 C 125.350 67.556, 124 63.824, 124 60.100 C 124 55.816, 123.584 55.015, 119.023 50.523 C 116.286 47.827, 113.736 45.930, 113.357 46.309 C 112.979 46.688, 114.768 51.675, 117.334 57.391 C 121.788 67.313, 121.997 68.187, 121.937 76.642 L 121.873 85.500 111.592 64.500 C 105.938 52.950, 101.423 43.356, 101.559 43.180 C 101.696 43.004, 113.622 39.314, 128.063 34.981 C 142.503 30.648, 154.641 26.582, 155.034 25.945 C 155.552 25.108, 155.940 25.093, 156.434 25.893 C 157.402 27.460, 159 27.267, 159 25.584 C 159 24.805, 157.207 22.748, 155.016 21.013 L 151.033 17.858 98.314 12.429 C 69.319 9.443, 44.173 7, 42.435 7 L 39.276 7 37.992 26.250 M 41.972 11.250 C 41.956 11.938, 41.301 20.375, 40.515 30 L 39.086 47.500 29.043 73.853 C 23.519 88.347, 19 100.428, 19 100.701 C 19 101.250, 30.438 100.158, 33.341 99.332 C 35.071 98.839, 35.147 99.453, 34.603 109.654 C 34.286 115.619, 33.770 128.600, 33.458 138.500 L 32.890 156.500 42.695 170.227 C 48.088 177.776, 52.737 183.964, 53.026 183.977 C 54.266 184.032, 58.049 119.099, 58.025 98.175 C 58.002 77.992, 58.295 74.008, 61.077 56.675 C 63.893 39.130, 64.466 36.970, 67.827 31.267 C 69.847 27.840, 71.746 25.027, 72.047 25.017 C 72.348 25.008, 74.528 29.711, 76.893 35.468 L 81.192 45.936 90.775 38.307 L 100.357 30.678 126.678 27.506 C 141.155 25.761, 153.280 24.053, 153.623 23.710 C 155.760 21.574, 143.881 19.754, 97 15.034 C 69.225 12.237, 45.487 9.961, 44.250 9.975 C 43.013 9.989, 41.987 10.563, 41.972 11.250 M 117.340 31.374 L 101.181 33.500 91.685 41.061 L 82.189 48.622 97.080 85.463 C 105.270 105.726, 112.090 122.422, 112.235 122.565 C 112.381 122.709, 117.603 116.517, 123.841 108.806 L 135.182 94.786 130.401 84.334 C 127.771 78.586, 125.368 73.727, 125.060 73.536 C 124.752 73.345, 124.656 77.421, 124.847 82.594 C 125.405 97.766, 123.901 96.210, 109.522 66.750 C 101.929 51.192, 97.640 41.338, 98.349 41.078 C 98.982 40.847, 108.050 38.062, 118.500 34.890 C 128.950 31.718, 136.600 29.151, 135.500 29.185 C 134.400 29.220, 126.228 30.204, 117.340 31.374 M 81.036 80.604 C 81.003 105.316, 82.783 132.246, 85.538 148.708 L 86.075 151.916 100.787 146.848 C 108.879 144.061, 115.657 141.635, 115.850 141.457 C 116.042 141.280, 115.651 139.471, 114.980 137.439 L 113.761 133.745 108.347 134.304 L 102.933 134.862 105.001 132.181 C 110.706 124.782, 111.592 128.819, 95.594 89.337 L 81.072 53.500 81.036 80.604 M 139.990 93.123 C 139.050 95.186, 139.926 97.625, 146.553 111.381 C 152.023 122.735, 153.857 127.470, 152.994 128.004 C 152.330 128.414, 149.247 129.038, 146.144 129.391 C 143.040 129.744, 135.023 130.757, 128.329 131.642 L 116.158 133.252 117.269 135.876 C 119.093 140.185, 119.589 140.323, 125.771 138.235 C 131.439 136.321, 132.279 136.295, 144.602 137.649 C 151.696 138.428, 158.214 138.939, 159.088 138.783 C 160.372 138.554, 158.936 134.070, 151.574 115.319 C 146.568 102.570, 142.158 91.824, 141.773 91.440 C 141.389 91.056, 140.587 91.813, 139.990 93.123 M 125.058 111.607 C 114.237 124.922, 112.389 128.445, 115.581 129.669 C 117.065 130.239, 148.850 126.484, 149.695 125.639 C 150.178 125.156, 137.339 98, 136.628 98 C 136.346 98, 131.140 104.123, 125.058 111.607 M 110.500 130 C 110.160 130.550, 110.359 131, 110.941 131 C 111.523 131, 112 130.550, 112 130 C 112 129.450, 111.802 129, 111.559 129 C 111.316 129, 110.840 129.450, 110.500 130 M 126.561 140.893 C 123.845 141.849, 121.479 143.063, 121.303 143.591 C 121.127 144.119, 123.602 151.065, 126.803 159.026 L 132.623 173.500 154.061 174.080 C 165.853 174.399, 175.676 174.523, 175.891 174.356 C 176.106 174.188, 173.540 168.078, 170.188 160.776 C 166.837 153.474, 163.634 146.262, 163.072 144.750 C 162.486 143.174, 161.292 141.996, 160.275 141.992 C 159.299 141.987, 154.450 141.550, 149.500 141.020 C 144.550 140.490, 138.475 139.853, 136 139.606 C 133.203 139.326, 129.631 139.813, 126.561 140.893" stroke="none" fill="black" fill-rule="evenodd"/>
</svg>