<svg xmlns="http://www.w3.org/2000/svg" width="200" height="200" viewBox="0 0 200 200" version="1.1">
	<path d="M 35.571 5.188 C 34.368 8.997, 27.918 67.753, 27.194 81.500 C 26.486 94.919, 27.358 171.691, 28.227 172.560 C 28.380 172.714, 37.729 171.538, 49.003 169.947 C 63.476 167.905, 73.591 167.047, 83.419 167.028 C 97.060 167.001, 97.444 167.060, 102.654 170 C 105.578 171.650, 108.314 172.997, 108.735 172.994 C 109.156 172.991, 113.489 167.816, 118.365 161.494 C 123.240 155.172, 127.536 150, 127.912 150 C 128.287 150, 132.332 159.337, 136.900 170.750 C 141.469 182.162, 145.536 191.853, 145.938 192.284 C 146.339 192.715, 153.128 186.190, 161.024 177.784 C 168.920 169.378, 177.132 160.645, 179.273 158.378 L 183.166 154.255 179.517 124.378 C 177.510 107.945, 175.560 93.794, 175.184 92.932 C 174.574 91.533, 171.962 91.715, 151 94.616 C 138.075 96.405, 126.623 97.898, 125.550 97.934 C 121.582 98.068, 125.703 96.129, 135.680 93.168 L 145.860 90.146 165.930 73.410 C 176.968 64.205, 186 56.386, 186 56.035 C 186 55.684, 171.593 54.100, 153.984 52.514 C 136.376 50.929, 122.313 49.299, 122.734 48.892 C 123.155 48.485, 126.370 45.868, 129.877 43.076 L 136.255 38 160.127 38 C 173.257 38, 184 37.659, 184 37.241 C 184 36.824, 179.976 31.471, 175.057 25.345 C 166.269 14.400, 166.148 14.176, 168.081 12.427 C 169.392 11.241, 169.714 10.314, 169.047 9.647 C 168.381 8.981, 167.435 9.201, 166.210 10.310 C 164.838 11.552, 164.085 11.685, 163.236 10.836 C 162.176 9.776, 116.561 7.376, 63 5.562 C 52.825 5.218, 42.584 4.697, 40.243 4.406 C 37.232 4.031, 35.864 4.259, 35.571 5.188 M 37.603 10.674 C 35.020 27.172, 30.888 65.888, 30.043 81.500 C 29.082 99.265, 29.847 168.230, 31.017 169.316 C 31.283 169.562, 40.275 168.480, 51 166.911 C 64.821 164.890, 74.431 164.056, 84 164.048 C 97.108 164.037, 97.657 164.123, 102.895 167.010 C 107.467 169.530, 108.460 169.765, 109.395 168.549 C 123.292 150.494, 128.538 144.153, 129.078 144.759 C 129.440 145.167, 133.441 154.725, 137.969 166 C 142.496 177.275, 146.538 186.860, 146.950 187.300 C 147.937 188.353, 180.002 154.206, 179.992 152.114 C 179.988 151.226, 178.417 138.125, 176.500 123 C 174.583 107.875, 173.012 95.250, 173.008 94.944 C 173.003 94.639, 162.762 95.791, 150.250 97.504 C 134.099 99.715, 127.576 100.974, 127.761 101.844 C 128.276 104.255, 138.477 117, 139.892 117 C 140.686 117, 144.210 116.500, 147.723 115.888 C 151.235 115.276, 154.404 115.071, 154.765 115.432 C 155.409 116.076, 159.035 147.231, 158.530 147.781 C 158.388 147.935, 153.598 141.860, 147.886 134.281 C 135.578 117.949, 137.414 118.454, 118.201 126.119 C 111.354 128.851, 105.640 130.954, 105.503 130.793 C 105.366 130.632, 104.232 124.538, 102.983 117.250 C 101.377 107.877, 100.316 104, 99.357 104 C 97.743 104, 97.597 102.803, 99.035 101.365 C 99.748 100.652, 99.545 97.170, 98.382 90.165 L 96.693 80 92.597 79.989 C 90.344 79.983, 86.816 79.700, 84.758 79.359 L 81.016 78.741 87.508 73.621 C 92.146 69.964, 94 67.842, 94 66.192 C 94 64.653, 94.400 64.129, 95.197 64.622 C 95.855 65.028, 95.384 63.943, 94.150 62.211 C 92.916 60.478, 91.467 58.788, 90.929 58.456 C 90.390 58.123, 85.236 59.078, 79.475 60.576 L 69 63.302 68.868 94.401 C 68.795 111.505, 68.457 132.448, 68.118 140.941 L 67.500 156.381 59 145.591 L 50.500 134.801 51.274 98.151 L 52.048 61.500 56.579 39.500 C 59.071 27.400, 61.320 16.875, 61.577 16.110 C 61.849 15.302, 68.127 22.837, 76.574 34.110 C 84.566 44.775, 91.522 53.647, 92.033 53.827 C 92.544 54.007, 96.992 52.994, 101.919 51.577 C 106.846 50.160, 112.495 49, 114.473 49 C 117.264 49, 119.400 47.935, 124.008 44.250 L 129.947 39.500 114.223 39.213 C 101.081 38.974, 98.123 38.639, 96.206 37.176 C 93.968 35.467, 94.549 35.316, 119.972 30.986 L 146.033 26.546 154.080 20.137 C 158.506 16.612, 161.761 13.399, 161.314 12.998 C 160.866 12.597, 136.200 11.307, 106.500 10.130 C 76.800 8.953, 49.283 7.734, 45.351 7.419 L 38.201 6.848 37.603 10.674 M 158.232 20.166 C 155.335 22.439, 153.161 24.495, 153.401 24.735 C 154.032 25.366, 169.006 22.844, 168.968 22.113 C 168.935 21.457, 164.296 15.989, 163.798 16.017 C 163.634 16.026, 161.130 17.894, 158.232 20.166 M 63 21.670 C 63 22.213, 61.222 31.089, 59.048 41.395 C 55.249 59.412, 55.075 61.063, 54.536 84.316 C 54.228 97.617, 53.744 114.155, 53.461 121.066 L 52.946 133.632 58.634 140.821 C 61.763 144.776, 64.588 147.747, 64.911 147.424 C 65.235 147.101, 65.725 127.732, 66 104.382 C 66.371 72.870, 66.810 61.735, 67.702 61.184 C 68.362 60.776, 73.200 59.349, 78.452 58.012 C 83.703 56.676, 88 55.218, 88 54.772 C 88 54.327, 82.375 46.474, 75.500 37.322 C 68.625 28.170, 63 21.127, 63 21.670 M 158.616 27.074 C 153.180 28.106, 148.005 29.198, 147.116 29.501 C 145.341 30.107, 139.549 34.956, 140.135 35.346 C 140.336 35.480, 149.139 35.345, 159.697 35.045 L 178.894 34.500 175.228 29.750 C 173.211 27.137, 170.872 25.044, 170.030 25.099 C 169.189 25.153, 164.052 26.042, 158.616 27.074 M 124.500 33.032 L 109.500 35.791 122 35.868 C 134.428 35.946, 134.520 35.929, 138 33 C 139.925 31.380, 141.050 30.103, 140.500 30.164 C 139.950 30.224, 132.750 31.515, 124.500 33.032 M 101.750 54.331 C 97.487 55.501, 94 56.710, 94 57.017 C 94 57.324, 95.237 59.032, 96.750 60.812 L 99.500 64.048 106.500 58.435 C 110.350 55.348, 113.688 52.637, 113.917 52.411 C 114.921 51.420, 108.881 52.373, 101.750 54.331 M 110.504 58.469 C 106.106 62.048, 102.394 65.320, 102.255 65.739 C 102.116 66.157, 112.181 69.200, 124.621 72.500 C 144.159 77.683, 149.673 79.799, 147.874 81.423 C 147.668 81.609, 139.625 81.460, 130 81.093 C 120.375 80.726, 112.321 80.547, 112.101 80.695 C 111.669 80.987, 115.526 86.705, 119.378 91.483 L 121.783 94.465 133.133 91.139 L 144.484 87.813 161.892 73.213 C 176.293 61.136, 178.973 58.486, 177.401 57.873 C 176.355 57.466, 164.700 56.182, 151.500 55.020 C 138.300 53.858, 125.475 52.694, 123 52.433 C 118.681 51.979, 118.179 52.221, 110.504 58.469 M 98 70.918 C 98 75.607, 98.955 77, 102.169 77 L 105.124 77 101.893 72.500 C 100.115 70.025, 98.512 68, 98.330 68 C 98.149 68, 98 69.313, 98 70.918 M 104.027 70.633 C 104.042 71.110, 105.280 72.978, 106.780 74.785 L 109.506 78.070 121.003 77.785 L 132.500 77.500 120 74.120 C 113.125 72.261, 106.713 70.521, 105.750 70.254 C 104.787 69.986, 104.012 70.157, 104.027 70.633 M 90.694 74.532 L 87.888 77 91.944 77 C 96.018 77, 96.515 76.507, 95.393 73.582 C 94.591 71.491, 94.019 71.606, 90.694 74.532 M 101.057 89.542 C 101.989 94.791, 102.957 99.291, 103.209 99.542 C 103.936 100.269, 118 95.784, 118 94.826 C 118 94.351, 115.649 90.820, 112.776 86.981 C 107.796 80.327, 107.360 80, 103.457 80 L 99.362 80 101.057 89.542 M 118.813 98.683 C 119.534 98.972, 120.397 98.936, 120.729 98.604 C 121.061 98.272, 120.471 98.036, 119.417 98.079 C 118.252 98.127, 118.015 98.364, 118.813 98.683 M 112.823 102.390 C 108.601 103.001, 104.822 103.829, 104.425 104.231 C 103.591 105.077, 107.057 127, 108.025 127 C 108.379 127, 112.928 125.267, 118.134 123.149 C 123.340 121.031, 129.293 118.980, 131.364 118.592 C 133.434 118.203, 134.987 117.556, 134.814 117.154 C 133.368 113.790, 123.176 101.073, 122 101.164 C 121.175 101.228, 117.045 101.780, 112.823 102.390 M 145.739 118.959 C 143.670 119.361, 141.793 119.874, 141.566 120.101 C 141.339 120.327, 144.104 124.463, 147.710 129.290 C 151.315 134.118, 154.413 137.920, 154.594 137.739 C 154.775 137.558, 154.427 133.043, 153.821 127.705 C 152.618 117.115, 153.018 117.548, 145.739 118.959" stroke="none" fill="black" fill-rule="evenodd"/>
</svg>