<svg xmlns="http://www.w3.org/2000/svg" width="200" height="200" viewBox="0 0 200 200" version="1.1">
	<path d="M 34.570 3.763 C 34.257 4.077, 34 5.572, 34 7.085 C 34 12.625, 33.422 13, 24.893 13 C 18.544 13, 17 13.293, 17 14.500 C 17 15.709, 18.563 16, 25.067 16 C 32.270 16, 33.082 16.188, 32.646 17.750 C 32.378 18.712, 31.397 25.125, 30.467 32 C 29.536 38.875, 25.467 58.672, 21.425 75.994 L 14.074 107.489 19.735 129.388 L 25.396 151.288 37.844 162.144 C 44.690 168.115, 50.712 173, 51.225 173 C 51.764 173, 51.924 170.352, 51.603 166.750 C 51.297 163.313, 50.766 145.425, 50.422 127 L 49.798 93.500 53.976 65.154 L 58.155 36.809 50.565 26.829 C 46.391 21.340, 43.233 16.433, 43.547 15.924 C 43.861 15.416, 46.240 15, 48.833 15 C 52.827 15, 57.653 16.980, 80.447 27.975 C 95.243 35.111, 107.770 41.090, 108.287 41.262 C 108.851 41.450, 108.674 44.959, 107.844 50.038 L 106.462 58.500 92.611 58.779 L 78.761 59.058 68.497 51.614 L 58.232 44.170 57.631 57.335 C 57.300 64.576, 56.789 79.500, 56.496 90.500 C 56.202 101.500, 55.700 115.274, 55.381 121.109 L 54.800 131.717 77.358 138.026 L 99.916 144.336 100.208 150.918 C 100.369 154.538, 99.513 163.788, 98.306 171.473 C 97.100 179.158, 96.285 185.619, 96.496 185.830 C 96.707 186.041, 105.225 178.628, 115.424 169.357 L 133.968 152.500 143.234 151.371 C 150.475 150.489, 152.937 150.513, 154.500 151.482 C 156.105 152.476, 157.186 156.103, 159.976 169.860 C 165.036 194.809, 165.861 193.754, 168.074 159.500 C 169.081 143.912, 169.800 139.807, 176.737 110.078 L 184.301 77.656 181.812 75.578 C 180.442 74.435, 178.156 72.600, 176.731 71.500 L 174.140 69.500 175.706 47.719 C 176.567 35.740, 177.026 25.693, 176.725 25.392 C 176.117 24.783, 143.112 49.092, 143.043 50.199 C 143.019 50.584, 145.946 53.001, 149.546 55.570 C 153.146 58.139, 155.919 60.414, 155.708 60.625 C 155.497 60.836, 145.632 56.317, 133.786 50.581 C 113.944 40.975, 112.283 39.971, 112.693 37.827 C 113.083 35.786, 114.326 35.222, 122.819 33.233 C 135.672 30.222, 179.237 14.865, 179.795 13.148 C 180.162 12.019, 169.853 11.847, 117.367 12.109 L 54.500 12.423 44.820 7.808 C 39.496 5.270, 34.884 3.450, 34.570 3.763 M 37 8.356 C 37 10.972, 40.661 13.145, 44.516 12.816 L 48.228 12.500 42.614 9.761 C 38.636 7.820, 37 7.411, 37 8.356 M 112.185 14.986 L 60.870 15.500 85.185 27.187 L 109.500 38.875 110.009 36.187 C 110.488 33.657, 111.305 33.293, 124.009 29.948 C 136.339 26.702, 165.404 16.997, 169 14.925 C 170.021 14.337, 169.382 14.127, 167 14.267 C 165.075 14.380, 140.408 14.704, 112.185 14.986 M 35.553 17.250 C 35.342 17.938, 34.186 25.244, 32.984 33.487 C 31.783 41.730, 27.691 61.645, 23.893 77.743 L 16.986 107.012 22.353 128.414 C 27.421 148.619, 27.911 149.981, 31.111 152.767 C 32.975 154.389, 37.799 158.553, 41.832 162.018 L 49.164 168.319 48.598 156.910 C 48.287 150.634, 47.766 133.944, 47.441 119.819 L 46.850 94.138 51.086 65.740 L 55.323 37.341 47.085 26.671 C 39.350 16.651, 36.462 14.292, 35.553 17.250 M 160.225 40.276 C 152.924 45.780, 147.074 50.378, 147.225 50.493 C 149.456 52.191, 169.796 66.795, 170.591 67.270 C 171.346 67.721, 172.057 62.213, 172.903 49.356 C 173.575 39.145, 173.984 30.673, 173.812 30.529 C 173.641 30.385, 167.526 34.771, 160.225 40.276 M 111.610 44.819 C 111.345 45.744, 110.588 49.987, 109.927 54.250 L 108.726 62 93.377 62 L 78.028 62 69.774 55.954 C 62.606 50.703, 61.432 50.144, 60.846 51.704 C 60.139 53.588, 57.726 129.059, 58.353 129.686 C 59.021 130.354, 95.186 140.148, 95.569 139.764 C 95.778 139.556, 91.244 132.886, 85.495 124.942 C 79.746 116.999, 75.067 110.050, 75.098 109.500 C 75.128 108.950, 81.081 103.170, 88.327 96.656 L 101.500 84.812 102.385 121.153 C 103.146 152.404, 103.047 158.961, 101.683 167.962 C 100.811 173.720, 100.242 178.575, 100.419 178.752 C 100.595 178.929, 107.661 172.726, 116.120 164.969 C 124.579 157.212, 132.542 150.445, 133.815 149.932 C 135.088 149.420, 137.788 148.968, 139.815 148.930 C 147.855 148.776, 147.503 147.658, 137.943 142.974 C 132.920 140.513, 128.604 138.165, 128.350 137.756 C 128.097 137.347, 129.097 129.393, 130.574 120.082 L 133.259 103.152 140.379 101.448 C 144.296 100.511, 147.826 99.453, 148.225 99.098 C 148.623 98.742, 144.686 93.425, 139.475 87.281 C 134.264 81.138, 130 75.714, 130 75.229 C 130 74.743, 136.975 72.840, 145.500 71 C 154.025 69.160, 161 67.371, 161 67.026 C 161 66.680, 158.863 65.465, 156.250 64.326 C 153.637 63.187, 142.633 57.954, 131.795 52.697 C 115.298 44.695, 112.012 43.413, 111.610 44.819 M 151 72.570 C 143.025 74.412, 135.927 76.050, 135.228 76.210 C 134.514 76.372, 138.365 81.752, 143.992 88.452 C 150.822 96.586, 153.625 100.619, 152.765 101.075 C 152.069 101.444, 148.013 102.509, 143.752 103.441 C 137.323 104.847, 135.919 105.507, 135.501 107.318 C 135.021 109.403, 131 134.494, 131 135.406 C 131 135.647, 135.785 138.411, 141.634 141.548 C 152.068 147.145, 152.388 147.243, 158.690 146.737 C 162.222 146.453, 165.361 145.972, 165.666 145.667 C 165.971 145.362, 167.368 128.683, 168.771 108.602 C 171.448 70.268, 171.387 68.822, 167.128 69.110 C 166.232 69.171, 158.975 70.727, 151 72.570 M 173.646 79.794 C 172.382 93.836, 170.826 119.159, 171.204 119.537 C 171.539 119.872, 181 80.569, 181 78.841 C 181 78.509, 179.481 77.079, 177.625 75.663 L 174.250 73.089 173.646 79.794 M 88.500 100.302 C 83 105.332, 78.630 109.852, 78.790 110.344 C 78.949 110.837, 83.674 117.669, 89.290 125.527 L 99.500 139.814 99.759 129.157 C 99.902 123.296, 99.677 112.347, 99.259 104.827 L 98.500 91.155 88.500 100.302 M 159.513 150.250 C 159.280 150.938, 160.129 156.450, 161.400 162.500 C 163.998 174.871, 164.523 174.386, 165.457 158.750 L 166.040 149 162.989 149 C 161.310 149, 159.746 149.563, 159.513 150.250" stroke="none" fill="black" fill-rule="evenodd"/>
</svg>