<svg xmlns="http://www.w3.org/2000/svg" width="200" height="200" viewBox="0 0 200 200" version="1.1">
	<path d="M 64.932 4.667 C 64.894 5.125, 64.924 9.292, 64.998 13.927 C 65.107 20.756, 64.883 22.162, 63.816 21.340 C 52.736 12.798, 45.749 7.918, 45.275 8.392 C 44.663 9.004, 34.103 52.566, 34.038 54.750 C 34.017 55.438, 34.563 55.998, 35.250 55.995 C 36.055 55.991, 38.280 48.340, 41.500 34.498 C 44.250 22.677, 46.829 13.005, 47.231 13.003 C 47.634 13.001, 52.021 15.968, 56.981 19.595 C 65.416 25.762, 66 26.420, 66 29.750 C 66 31.708, 63.707 45.278, 60.905 59.905 L 55.810 86.500 56.530 124.814 L 57.249 163.128 50.875 162.527 C 32.816 160.825, 34 161.142, 34 158.013 C 34 153.036, 30.075 100.945, 28.818 89.243 C 28.153 83.051, 27.271 77.439, 26.859 76.772 C 25.066 73.871, 24.770 77.780, 25.953 88.741 C 26.651 95.209, 28.225 114.566, 29.452 131.757 C 30.678 148.949, 31.865 163.181, 32.091 163.385 C 32.700 163.935, 59.361 165.972, 59.829 165.504 C 60.051 165.283, 59.828 147.866, 59.334 126.801 L 58.437 88.500 64.017 58.677 L 69.598 28.854 71.699 30.677 C 72.885 31.706, 75.156 36.654, 76.911 42.035 L 80.022 51.570 77.636 72.535 C 76.323 84.066, 75.531 93.773, 75.875 94.107 C 76.219 94.441, 85.950 95.467, 97.500 96.388 C 125.886 98.650, 125.693 98.615, 126.266 101.612 C 127.069 105.813, 122.341 106.953, 91.118 110.084 C 75.508 111.649, 62.612 113.058, 62.459 113.215 C 62.306 113.372, 67.090 119.340, 73.091 126.478 C 79.091 133.616, 84 139.786, 84 140.189 C 84 140.593, 83.089 144.829, 81.976 149.604 C 80.863 154.378, 80.142 158.475, 80.374 158.707 C 80.606 158.939, 87.029 156.922, 94.648 154.225 C 102.267 151.528, 108.662 149.448, 108.859 149.603 C 109.057 149.758, 107.820 153.550, 106.109 158.028 C 104.399 162.507, 103.030 166.695, 103.067 167.335 C 103.104 167.976, 106.265 171.135, 110.091 174.356 L 117.049 180.212 146.275 175.064 C 162.349 172.233, 176.252 169.691, 177.172 169.416 C 178.696 168.959, 178.799 166.562, 178.345 142.207 C 177.848 115.602, 174.665 69.218, 173.246 67.898 C 172.836 67.516, 163.275 63.069, 152 58.015 C 140.725 52.962, 131.128 48.471, 130.673 48.036 C 128.851 46.295, 136.611 42.816, 156.260 36.564 C 167.608 32.954, 177.142 30, 177.446 30 C 177.751 30, 178 29.268, 178 28.373 C 178 26.900, 175.973 26.806, 156.750 27.383 C 145.063 27.734, 129.134 28.294, 121.354 28.626 L 107.208 29.231 111.054 43.832 C 113.170 51.863, 114.810 58.522, 114.700 58.631 C 114.590 58.740, 105.850 52.456, 95.279 44.665 L 76.058 30.500 71.716 17.563 C 69.329 10.447, 66.841 4.447, 66.188 4.229 C 65.534 4.011, 64.969 4.208, 64.932 4.667 M 68 20.593 C 68 23.386, 68.556 24.866, 69.927 25.722 C 71.805 26.895, 71.814 26.807, 70.282 22.213 C 68.233 16.070, 68 15.904, 68 20.593 M 130.331 30.946 C 120.337 31.251, 111.905 31.757, 111.593 32.071 C 111.280 32.385, 112.645 38.956, 114.625 46.672 L 118.226 60.702 123.613 65 C 126.576 67.364, 129 69.907, 129 70.649 C 129 72.574, 128.144 72.347, 124.279 69.399 C 122.403 67.968, 120.683 66.984, 120.456 67.211 C 120.118 67.548, 123.526 81.501, 125.586 88.213 C 126.165 90.101, 138.407 97, 141.178 97 C 142.137 97, 143.727 97.849, 144.711 98.887 C 145.695 99.924, 152.350 103.699, 159.500 107.276 L 172.500 113.778 168.500 114.814 C 166.300 115.384, 157.819 117.318, 149.652 119.113 L 134.805 122.377 135.439 126.343 C 135.788 128.524, 136.276 130.638, 136.524 131.039 C 136.772 131.440, 141.505 133.703, 147.041 136.067 C 152.578 138.431, 157.313 140.697, 157.563 141.102 C 157.954 141.735, 141.175 152, 139.751 152 C 139.469 152, 138.172 147.889, 136.869 142.865 L 134.500 133.730 127 130.368 C 111.671 123.495, 112.381 124.511, 121.500 122.502 C 125.900 121.533, 129.788 120.578, 130.141 120.379 C 130.668 120.081, 128.252 108.207, 127.458 107.191 C 127.325 107.022, 125.480 107.612, 123.358 108.504 C 120.939 109.521, 109.987 111.066, 94 112.647 C 79.975 114.034, 68.344 115.324, 68.154 115.514 C 67.963 115.704, 72.160 121.052, 77.479 127.398 L 87.150 138.938 85.463 146.523 C 84.535 150.695, 83.938 154.267, 84.138 154.461 C 84.337 154.655, 90.984 152.602, 98.909 149.899 C 106.834 147.196, 113.411 145.100, 113.526 145.242 C 113.641 145.384, 111.953 150.314, 109.774 156.199 L 105.813 166.897 109.434 170.076 C 111.425 171.824, 114.190 174.148, 115.578 175.240 L 118.102 177.225 144.301 172.589 C 158.710 170.039, 171.791 167.691, 173.370 167.371 L 176.239 166.789 175.598 141.144 C 174.969 115.956, 172.136 71.739, 171.052 70.186 C 170.748 69.751, 160.377 64.814, 148.006 59.214 C 135.634 53.615, 125.415 48.688, 125.298 48.267 C 125.180 47.845, 127.184 45.953, 129.750 44.062 C 133.005 41.663, 139.265 39.046, 150.458 35.403 L 166.500 30.183 157.500 30.288 C 152.550 30.345, 140.324 30.642, 130.331 30.946 M 78.247 37.250 C 78.500 37.938, 79.665 41.425, 80.835 45 L 82.963 51.500 80.606 71.500 C 79.310 82.500, 78.317 91.587, 78.400 91.693 C 78.484 91.799, 86.640 92.584, 96.526 93.438 C 106.412 94.292, 116.861 95.250, 119.746 95.567 C 124.512 96.090, 124.934 95.976, 124.356 94.321 C 124.007 93.320, 123.091 91.987, 122.321 91.361 C 121.524 90.712, 120.060 85.119, 118.920 78.361 C 117.819 71.837, 116.711 65.807, 116.458 64.960 C 116.024 63.505, 79.951 36, 78.477 36 C 78.097 36, 77.993 36.563, 78.247 37.250 M 127 95.031 C 127 95.564, 127.675 96, 128.500 96 C 129.325 96, 130 95.823, 130 95.607 C 130 95.391, 129.325 94.955, 128.500 94.638 C 127.675 94.322, 127 94.499, 127 95.031 M 128.710 101 C 129.329 103.368, 129.768 103.421, 133.993 101.645 C 137.119 100.331, 137.145 100.271, 134.858 99.659 C 130.165 98.402, 128.146 98.843, 128.710 101 M 135.500 103.914 C 132.750 104.881, 130.508 106.084, 130.518 106.586 C 130.541 107.732, 133.142 118.283, 133.607 119.115 C 133.884 119.611, 148.499 116.674, 162 113.410 C 164.154 112.889, 163.047 112.065, 154 107.454 C 148.225 104.511, 142.825 102.114, 142 102.129 C 141.175 102.143, 138.250 102.946, 135.500 103.914 M 127.199 123.986 C 125.384 124.416, 123.706 124.960, 123.472 125.195 C 123.237 125.430, 125.285 126.568, 128.022 127.725 C 131.261 129.093, 132.995 129.421, 132.986 128.664 C 132.962 126.550, 131.778 122.998, 131.133 123.102 C 130.785 123.159, 129.015 123.556, 127.199 123.986 M 138.437 137.710 C 140.024 144.281, 141.099 148, 141.413 148 C 142.204 148, 151.027 142.766, 151.485 142.025 C 151.762 141.576, 151.429 140.979, 150.744 140.697 C 150.060 140.415, 146.859 139, 143.632 137.552 L 137.763 134.921 138.437 137.710" stroke="none" fill="black" fill-rule="evenodd"/>
</svg>