<svg xmlns="http://www.w3.org/2000/svg" width="200" height="200" viewBox="0 0 200 200" version="1.1">
	<path d="M 131 10.724 C 131 11.764, 134.825 34.388, 139.500 61 C 148.150 110.239, 148.482 112.995, 147.363 126.232 L 146.726 133.767 136.184 138.133 C 130.386 140.535, 125.334 142.630, 124.958 142.788 C 124.581 142.946, 121.909 136.317, 119.020 128.057 L 113.766 113.038 118.263 101.769 L 122.759 90.500 123.912 58.115 C 124.546 40.304, 124.827 25.493, 124.536 25.203 C 123.807 24.473, 67.739 18.928, 67.140 19.526 C 66.875 19.792, 71.551 44.982, 77.532 75.504 C 88.232 130.109, 89.976 136.656, 91.446 127.750 C 91.741 125.963, 92.877 116.400, 93.971 106.500 C 95.969 88.411, 98.144 78.104, 99.350 81 C 99.694 81.825, 102.419 89.368, 105.405 97.761 L 110.835 113.022 104.918 127.705 C 101.663 135.780, 99 142.750, 99 143.193 C 99 143.637, 99.792 144, 100.759 144 C 101.727 144, 103.031 144.788, 103.657 145.750 C 104.283 146.713, 108.427 152.787, 112.866 159.250 L 120.937 171 96.677 171 L 72.417 171 69.592 165.250 C 66.801 159.568, 66.745 159.089, 64.909 125 C 63.887 106.025, 63.039 77.386, 63.025 61.357 C 63.004 37.015, 62.764 32.124, 61.569 31.665 C 60.471 31.244, 59.656 33.258, 58.072 40.308 C 56.935 45.364, 54.711 55.266, 53.129 62.313 L 50.253 75.126 52.230 109.517 L 54.206 143.909 43.484 161.502 C 37.587 171.179, 32.638 178.962, 32.486 178.798 C 32.334 178.634, 31.683 163.702, 31.039 145.615 L 29.868 112.729 25.818 101.989 L 21.768 91.249 30.384 56.070 C 39.009 20.854, 40.439 12, 37.500 12 C 36.382 12, 36 13.182, 36 16.637 C 36 19.188, 32.150 37.075, 27.445 56.387 L 18.889 91.500 23.019 102.542 L 27.149 113.584 28.392 150.276 C 29.075 170.456, 29.839 187.172, 30.089 187.422 C 30.339 187.672, 36.505 178.157, 43.791 166.277 L 57.038 144.677 55.037 110.088 L 53.035 75.500 56.268 61 L 59.500 46.500 60.235 73.500 C 60.639 88.350, 61.660 113.915, 62.503 130.312 L 64.037 160.124 67.531 167.062 L 71.025 174 97.454 174 C 113.072 174, 124.122 173.611, 124.469 173.050 C 124.792 172.527, 120.092 164.891, 114.024 156.080 L 102.992 140.060 107.072 129.780 C 109.317 124.126, 111.473 119.168, 111.863 118.763 C 112.254 118.357, 114.777 124.320, 117.469 132.013 C 120.161 139.706, 122.852 146, 123.450 146 C 124.047 146, 130.152 143.613, 137.018 140.696 L 149.500 135.392 150 129.446 C 150.489 123.632, 150.561 123.845, 153.226 139 C 155.904 154.224, 155.918 154.527, 154.035 156 C 152.165 157.462, 152.234 157.894, 156.769 173.250 C 159.327 181.912, 161.669 189, 161.973 189 C 162.277 189, 167.007 175.613, 172.484 159.250 L 182.443 129.500 182.135 94 L 181.827 58.500 174.804 36 C 170.942 23.625, 167.621 13.328, 167.426 13.118 C 166.831 12.480, 153 16.331, 153 17.134 C 153 18.806, 155.017 18.887, 159.975 17.415 C 162.847 16.562, 165.330 16.007, 165.492 16.182 C 165.654 16.357, 168.721 25.950, 172.307 37.500 L 178.828 58.500 179.456 93 L 180.084 127.500 171.224 153.948 C 166.350 168.495, 162.102 179.970, 161.782 179.448 C 161.463 178.927, 159.854 173.879, 158.207 168.232 C 155.316 158.314, 155.277 157.919, 157.077 156.658 C 158.879 155.396, 158.810 154.610, 154.982 133.025 L 151.023 110.697 152.363 87.599 L 153.703 64.500 143.544 37.064 C 134.377 12.310, 131 5.219, 131 10.724 M 70 22.176 C 70 23.365, 89.009 119.342, 89.302 119.635 C 89.501 119.834, 90.443 112.849, 91.395 104.113 C 92.348 95.377, 93.752 86.153, 94.515 83.615 C 96.511 76.983, 94.463 66.205, 87.587 47.169 C 81.354 29.909, 81.074 28.858, 82.572 28.330 C 84.190 27.759, 94.768 51.696, 95.462 57.500 C 95.791 60.250, 99.722 73.005, 104.196 85.845 L 112.332 109.189 116.034 100.296 L 119.736 91.402 120.979 59.645 C 121.662 42.178, 122.059 27.741, 121.861 27.561 C 121.662 27.382, 111.600 26.272, 99.500 25.095 C 87.400 23.919, 75.813 22.701, 73.750 22.390 C 71.688 22.079, 70 21.982, 70 22.176 M 137.189 31.500 C 138.532 40.583, 148.484 95.849, 148.732 95.602 C 148.893 95.440, 149.459 88.499, 149.989 80.177 L 150.952 65.046 144.408 47.288 C 140.809 37.522, 137.612 29.299, 137.304 29.015 C 136.997 28.732, 136.944 29.850, 137.189 31.500" stroke="none" fill="black" fill-rule="evenodd"/>
</svg>