<svg xmlns="http://www.w3.org/2000/svg" width="200" height="200" viewBox="0 0 200 200" version="1.1">
	<path d="M 79.386 8.437 C 79.012 9.411, 79.007 15.826, 79.374 22.692 L 80.041 35.177 77.125 32.839 C 75.520 31.552, 69.646 26.502, 64.071 21.617 C 58.495 16.731, 53.775 12.906, 53.581 13.117 C 53.387 13.327, 54.083 19.320, 55.127 26.433 C 56.171 33.546, 56.653 39.621, 56.197 39.933 C 53.493 41.784, 24.929 65.305, 24.456 66.072 C 24.112 66.627, 29.930 67, 38.941 67 L 54 67 54 90.439 L 54 113.877 49.750 114.415 C 47.413 114.710, 39.875 115.418, 33 115.988 C 14.195 117.546, 11 118.047, 11 119.438 C 11 120.678, 30.415 122, 48.639 122 C 55.014 122, 64 124.147, 64 125.671 C 64 125.920, 59.777 131.963, 54.616 139.099 C 48.931 146.958, 38.910 158.689, 29.196 168.856 C 19.823 178.665, 13.447 186.106, 13.852 186.761 C 14.316 187.512, 22.897 184.349, 39.877 177.169 L 65.209 166.457 80.744 152.555 L 96.278 138.653 82.639 131.820 C 75.138 128.061, 69 124.592, 69 124.110 C 69 121.984, 75.312 122.510, 91.807 126.009 C 101.538 128.073, 112.013 130.282, 115.085 130.918 L 120.671 132.073 122.947 139.332 C 125.014 145.922, 126.644 148.336, 140.649 165.545 C 149.133 175.970, 156.395 184.592, 156.787 184.704 C 157.179 184.815, 162.379 178.355, 168.342 170.346 C 175.563 160.648, 178.851 155.451, 178.186 154.786 C 177.520 154.120, 173.768 158.340, 166.952 167.418 C 161.323 174.916, 156.626 180.926, 156.516 180.775 C 156.405 180.624, 150.096 172.873, 142.495 163.551 C 131.967 150.638, 128.091 145.089, 126.221 140.251 C 124.871 136.758, 123.974 133.693, 124.227 133.440 C 124.480 133.187, 133.614 135.693, 144.526 139.008 C 157.489 142.946, 164.704 144.696, 165.345 144.055 C 166.588 142.812, 166.001 142.593, 142.119 135.430 C 123.220 129.761, 122.704 129.535, 121.369 126.340 C 120.616 124.538, 119.999 122.712, 119.998 122.282 C 119.998 121.852, 129.110 121.771, 140.248 122.102 L 160.500 122.704 169.455 113.891 C 174.380 109.043, 178.205 104.913, 177.955 104.713 C 177.705 104.513, 169.298 105.031, 159.273 105.864 C 149.248 106.698, 140.809 107.142, 140.518 106.851 C 140.040 106.373, 143.646 71.870, 144.423 69.500 C 144.603 68.950, 152.231 66.040, 161.375 63.034 C 184.277 55.504, 183.959 54.485, 159 55.422 C 148.550 55.815, 140 55.768, 139.999 55.318 C 139.999 54.868, 141.643 46.267, 143.653 36.204 C 146.116 23.874, 146.978 17.578, 146.297 16.897 C 145.615 16.215, 140.326 22.909, 130.076 37.425 C 121.711 49.272, 114.517 59.181, 114.089 59.445 C 112.613 60.357, 104.394 56.487, 99.824 52.728 C 95.318 49.020, 95.124 48.611, 88.482 28.728 C 84.765 17.602, 81.351 8.087, 80.895 7.583 C 80.414 7.050, 79.780 7.409, 79.386 8.437 M 57 19.445 C 57 19.758, 57.689 24.600, 58.531 30.207 L 60.062 40.401 56.888 42.885 C 55.142 44.252, 48.553 49.561, 42.247 54.685 L 30.780 64 40.765 64 C 46.257 64, 52.156 64.281, 53.875 64.625 L 57 65.250 57 91.029 L 57 116.808 46.250 117.613 L 35.500 118.419 46.919 119.220 L 58.338 120.021 78.919 99.816 C 90.239 88.703, 100.062 79.120, 100.749 78.520 C 101.734 77.661, 101.244 75.175, 98.431 66.776 L 94.864 56.123 87.963 53.486 C 80.576 50.663, 80.588 50.680, 79.764 41.584 C 79.554 39.262, 77.207 36.651, 68.250 28.773 C 62.063 23.330, 57 19.133, 57 19.445 M 82.493 27.962 C 82.998 37.235, 83.082 37.499, 86.689 41.194 C 88.714 43.267, 90.506 44.828, 90.671 44.662 C 90.837 44.496, 88.949 38.542, 86.475 31.430 L 81.978 18.500 82.493 27.962 M 128.859 43.936 C 116.739 61.221, 115.275 62.937, 113.075 62.431 C 110.959 61.945, 110.817 62.074, 111.959 63.450 C 112.678 64.317, 113.982 64.908, 114.856 64.763 C 116.601 64.474, 116.604 64.929, 115.084 92.143 C 114.402 104.355, 114.524 106.057, 116.510 112 L 118.681 118.500 139.078 119.233 L 159.476 119.967 165.212 114.291 C 168.366 111.169, 170.763 108.429, 170.537 108.203 C 170.311 107.977, 162.895 108.361, 154.057 109.057 C 145.219 109.753, 137.742 110.075, 137.441 109.774 C 136.967 109.300, 140.123 78.156, 141.530 69.421 C 142.009 66.452, 142.451 66.208, 154.013 62.537 C 160.606 60.444, 166 58.498, 166 58.214 C 166 57.929, 159.475 58.005, 151.500 58.382 C 137.739 59.032, 137 58.971, 137 57.189 C 137 56.157, 138.351 48.643, 140.002 40.491 C 141.653 32.340, 142.827 25.494, 142.611 25.277 C 142.395 25.061, 136.206 33.458, 128.859 43.936 M 83 45.313 C 83 48.586, 83.302 48.915, 87.678 50.406 C 93.168 52.276, 93 52.255, 93 51.093 C 93 50.594, 90.750 48.302, 88 46 L 83 41.814 83 45.313 M 101.207 66.139 L 104.252 75.219 108.251 71.220 L 112.250 67.221 108.030 63.360 C 105.709 61.237, 102.539 58.951, 100.986 58.280 L 98.162 57.060 101.207 66.139 M 109.372 76.719 L 106.243 81.196 108.872 89.227 L 111.500 97.258 112.267 91.379 C 112.689 88.146, 112.914 82.517, 112.767 78.871 L 112.500 72.242 109.372 76.719 M 82.490 100.010 L 62.574 119.945 74.537 119.510 C 81.117 119.271, 93.131 118.946, 101.237 118.788 C 115.442 118.510, 115.952 118.428, 115.374 116.500 C 115.045 115.400, 114.382 114.079, 113.901 113.564 C 113.069 112.672, 96.999 111.198, 86.643 111.063 C 82.899 111.014, 81.910 110.678, 82.325 109.595 C 82.622 108.822, 87.426 102.029, 93.002 94.498 C 98.577 86.967, 102.974 80.641, 102.773 80.440 C 102.572 80.239, 93.445 89.045, 82.490 100.010 M 95.046 96.242 L 86.849 107.483 90.175 108.129 C 92.004 108.484, 97.414 108.999, 102.199 109.273 C 109.698 109.703, 110.945 109.547, 111.244 108.136 C 111.642 106.259, 104.893 85, 103.899 85 C 103.537 85, 99.553 90.059, 95.046 96.242 M 94 121.913 C 88.518 122.498, 88.550 122.511, 103.495 125.671 C 111.743 127.416, 118.650 128.683, 118.845 128.488 C 119.040 128.294, 118.670 126.529, 118.022 124.567 L 116.845 121 108.172 121.163 C 103.403 121.253, 97.025 121.590, 94 121.913 M 57.500 139.730 C 52.379 146.943, 42.587 158.652, 34.779 166.899 C 27.232 174.869, 21.185 181.518, 21.341 181.674 C 21.497 181.830, 31.218 177.885, 42.943 172.907 L 64.262 163.857 77.631 151.772 C 84.984 145.125, 91 139.536, 91 139.351 C 91 139.026, 67.299 126.973, 66.765 127.027 C 66.619 127.041, 62.450 132.758, 57.500 139.730" stroke="none" fill="black" fill-rule="evenodd"/>
</svg>