<svg xmlns="http://www.w3.org/2000/svg" width="200" height="200" viewBox="0 0 200 200" version="1.1">
	<path d="M 143.500 9.575 L 116.500 14.908 64.060 13.978 C 35.218 13.466, 11.405 13.262, 11.143 13.524 C 10.881 13.786, 12.270 15.462, 14.229 17.250 C 17.246 20.003, 19.644 25.062, 29.915 50.337 L 42.039 80.175 37.105 88.837 L 32.172 97.500 28.070 131.500 C 25.815 150.200, 23.976 166.287, 23.985 167.250 C 24.020 171.287, 26.916 168.271, 33.604 157.228 C 37.512 150.778, 44.891 138.650, 50.003 130.278 L 59.298 115.056 52.482 98.420 C 48.734 89.270, 45.667 81.259, 45.667 80.617 C 45.667 78.961, 63.359 48.988, 64.171 49.268 C 64.541 49.396, 71.138 54.606, 78.832 60.848 L 92.821 72.195 93.533 82.642 C 93.925 88.387, 94.077 93.238, 93.872 93.420 C 93.668 93.602, 88.786 90.446, 83.023 86.405 C 75.854 81.378, 72.334 79.444, 71.872 80.279 C 71.501 80.951, 69.099 88.412, 66.536 96.860 L 61.874 112.221 64.128 124.555 L 66.383 136.890 63.601 156.021 C 62.071 166.544, 61.043 175.376, 61.316 175.649 C 61.846 176.179, 91.568 169.938, 114.201 164.544 L 127.902 161.278 152.595 167.162 C 166.175 170.399, 177.513 172.820, 177.790 172.544 C 178.066 172.267, 175.923 160.479, 173.027 146.348 L 167.762 120.655 161.308 111.734 C 157.758 106.828, 154.999 102.681, 155.177 102.519 C 155.354 102.357, 164.700 97.628, 175.944 92.010 C 189.909 85.033, 195.930 81.548, 194.944 81.013 C 194.150 80.583, 172.463 74.237, 146.750 66.911 C 102.523 54.311, 100 53.468, 100 51.296 C 100 48.472, 97.269 48.196, 96.820 50.974 C 96.607 52.290, 96.075 52.683, 95.227 52.151 C 94.109 51.450, 91.439 30.228, 92.354 29.313 C 92.524 29.142, 94.377 33.390, 96.471 38.752 C 100.451 48.943, 101.513 50.820, 102.654 49.679 C 103.032 49.301, 100.999 43.085, 98.135 35.865 C 95.272 28.645, 93.057 22.620, 93.214 22.476 C 93.371 22.331, 98.175 21.265, 103.889 20.107 C 112.845 18.291, 117.802 18, 139.806 18 C 153.846 18, 165.146 18.183, 164.917 18.406 C 164.688 18.630, 154.150 20.945, 141.500 23.551 C 128.850 26.156, 118.346 28.415, 118.158 28.569 C 117.971 28.724, 120.999 34.172, 124.889 40.677 L 131.961 52.505 147.485 57.415 C 156.023 60.115, 163.223 62.110, 163.486 61.848 C 163.748 61.585, 165.439 52.176, 167.244 40.937 L 170.526 20.504 174.763 19.610 C 180.115 18.481, 180.533 16, 175.371 16 L 171.742 16 172.420 10 C 172.944 5.370, 172.803 4.028, 171.800 4.121 C 171.085 4.187, 158.350 6.641, 143.500 9.575 M 151 10.941 L 132.500 14.646 149.958 15.315 C 159.559 15.683, 167.717 15.651, 168.086 15.242 C 168.756 14.502, 170.356 6.894, 169.795 7.118 C 169.633 7.183, 161.175 8.903, 151 10.941 M 18 16.243 C 18 16.552, 24.637 22.774, 32.750 30.071 C 40.862 37.368, 48.156 43.934, 48.957 44.662 C 49.909 45.527, 50.074 46.326, 49.434 46.966 C 48.793 47.607, 44.345 44.664, 36.598 38.473 C 30.077 33.263, 24.569 29, 24.358 29 C 24.146 29, 24.683 30.688, 25.551 32.750 C 26.420 34.813, 30.757 45.388, 35.189 56.250 C 39.622 67.112, 43.538 76, 43.891 76 C 44.649 76, 61 48.476, 61 47.201 C 61 46.478, 45.204 33.102, 41.638 30.804 C 41.044 30.422, 40.770 29.901, 41.029 29.647 C 41.288 29.394, 52.060 27.164, 64.967 24.693 C 77.873 22.222, 88.587 19.738, 88.776 19.172 C 88.964 18.607, 90.554 18.354, 92.309 18.609 C 94.064 18.864, 96.850 18.645, 98.500 18.122 C 100.639 17.445, 96.021 17.147, 82.412 17.086 C 71.913 17.039, 53.125 16.703, 40.662 16.340 C 28.198 15.978, 18 15.934, 18 16.243 M 145 25.591 C 133.175 28.027, 123.175 30.127, 122.777 30.260 C 122.380 30.392, 124.630 34.892, 127.777 40.260 L 133.500 50.021 147.399 54.528 C 155.044 57.006, 161.393 58.914, 161.509 58.767 C 161.624 58.620, 162.938 50.625, 164.429 41 C 165.919 31.375, 167.318 22.938, 167.538 22.250 C 168.030 20.710, 170.423 20.355, 145 25.591 M 67.194 27 C 56.576 29.078, 47.681 30.985, 47.428 31.239 C 46.583 32.084, 61.998 43.495, 64.266 43.703 C 65.495 43.816, 71.889 45.477, 78.476 47.395 C 85.062 49.313, 90.605 50.729, 90.792 50.541 C 90.980 50.354, 90.655 45.093, 90.070 38.850 C 89.485 32.608, 89.005 26.488, 89.003 25.250 C 88.999 22.534, 90.722 22.396, 67.194 27 M 67 47.370 C 67 47.574, 72.625 52.322, 79.500 57.921 L 92 68.102 91.930 62.801 C 91.816 54.206, 91.653 54.050, 78.930 50.365 C 66.093 46.647, 67 46.874, 67 47.370 M 94.679 62.750 C 95.138 69.536, 95.528 70.774, 97.813 72.706 C 99.248 73.919, 100.544 74.790, 100.693 74.641 C 101.128 74.205, 98.227 57.176, 97.523 56.037 C 97.170 55.467, 96.268 55, 95.518 55 C 94.438 55, 94.264 56.615, 94.679 62.750 M 101.441 60.115 C 103.305 70.939, 104.661 81, 104.255 81 C 103.998 81, 101.995 79.580, 99.803 77.844 L 95.818 74.687 96.534 85.094 C 96.928 90.817, 97.456 95.854, 97.707 96.288 C 97.959 96.721, 101.816 99.520, 106.279 102.508 L 114.393 107.941 125.384 88.491 C 131.429 77.793, 136.628 69.292, 136.937 69.599 C 137.247 69.907, 138.014 79.910, 138.642 91.829 L 139.785 113.500 133.642 119.637 C 127.808 125.466, 126.765 126.048, 112.847 131.243 L 98.195 136.713 97.621 131.606 C 97.305 128.798, 96.555 120.200, 95.954 112.500 C 95.328 104.484, 94.356 98.009, 93.680 97.350 C 91.676 95.397, 74.972 84, 74.115 84 C 73.670 84, 71.379 90.412, 69.024 98.250 L 64.741 112.500 67.022 124.581 L 69.303 136.661 66.630 154.476 C 65.160 164.274, 64.079 172.388, 64.228 172.508 C 64.613 172.816, 106.842 163.630, 116.667 161.102 C 121.158 159.946, 126.108 159.002, 127.667 159.004 C 129.225 159.006, 140.512 161.411, 152.750 164.347 C 164.988 167.284, 174.999 169.645, 174.998 169.594 C 174.997 169.542, 172.782 158.816, 170.076 145.757 L 165.156 122.014 158.023 111.895 C 154.100 106.330, 151.028 101.659, 151.195 101.515 C 151.363 101.371, 159.713 97.122, 169.750 92.071 C 179.787 87.021, 187.997 82.577, 187.994 82.195 C 187.990 81.688, 123.180 62.714, 102.679 57.218 C 101.106 56.796, 100.938 57.189, 101.441 60.115 M 125.135 94.513 C 119.985 103.581, 115.329 111, 114.790 111 C 114.251 111, 110.210 108.521, 105.811 105.490 L 97.812 99.980 98.537 109.740 C 98.935 115.108, 99.540 122.513, 99.881 126.196 L 100.500 132.891 113.055 128.172 C 123.086 124.401, 126.751 122.467, 131.289 118.549 L 136.968 113.646 136.341 100.073 C 135.996 92.608, 135.441 84.593, 135.107 82.263 L 134.500 78.026 125.135 94.513 M 39.166 90.606 L 35.071 97.500 31.133 129.500 C 28.966 147.100, 27.271 161.583, 27.364 161.684 C 27.458 161.785, 33.990 151.301, 41.879 138.386 L 56.223 114.903 50.483 100.702 C 47.326 92.891, 44.409 85.873, 44.001 85.106 C 43.485 84.136, 42.017 85.806, 39.166 90.606" stroke="none" fill="black" fill-rule="evenodd"/>
</svg>