<svg xmlns="http://www.w3.org/2000/svg" width="200" height="200" viewBox="0 0 200 200" version="1.1">
	<path d="M 155.683 12.650 C 155.308 13.026, 155 14.366, 155 15.628 C 155 18.371, 156.543 17.914, 121.919 25.414 L 96.339 30.954 62.919 29.596 C 32.894 28.376, 26.225 28.558, 28.213 30.547 C 28.532 30.866, 35.159 32.315, 42.939 33.768 L 57.084 36.409 64.042 47.706 C 67.869 53.920, 71 59.228, 71 59.502 C 71 59.776, 59.863 60, 46.250 59.999 L 21.500 59.998 21.745 78.249 C 21.978 95.592, 23.292 140.177, 24.680 177.791 C 25.031 187.301, 25.645 194.726, 26.045 194.291 C 26.444 193.856, 33.400 181.745, 41.501 167.377 L 56.231 141.254 67.865 135.948 C 74.264 133.029, 79.766 130.514, 80.092 130.359 C 80.417 130.204, 82.631 143.805, 85.012 160.583 C 88.410 184.535, 89.598 190.811, 90.541 189.794 C 91.202 189.082, 98.167 177.025, 106.019 163 C 113.871 148.975, 120.341 137.428, 120.398 137.339 C 120.680 136.896, 144.035 138.702, 144.539 139.206 C 144.862 139.528, 140.372 147.064, 134.563 155.951 C 128.753 164.838, 124 172.449, 124 172.863 C 124 173.613, 170.125 179.009, 170.913 178.352 C 171.698 177.697, 172.882 125.346, 172.941 88.621 L 173 51.742 163.750 52.426 C 158.662 52.802, 153.644 53.363, 152.597 53.671 C 150.431 54.310, 149.606 55.833, 163.220 34.052 C 167.499 27.206, 171 21.270, 171 20.861 C 171 18.644, 168.470 19.757, 159.941 25.728 C 154.749 29.363, 141.050 37.915, 129.500 44.732 C 117.950 51.549, 108.025 57.739, 107.444 58.489 C 106.678 59.478, 102.143 60.041, 90.944 60.537 L 75.500 61.221 67.195 47.659 C 59.168 34.549, 58.751 34.065, 54.695 33.155 L 50.500 32.214 55.500 32.167 C 58.250 32.141, 68.375 32.505, 78 32.975 L 95.500 33.830 126.238 27.238 L 156.976 20.645 157.613 17.248 C 158.229 13.968, 157.087 11.247, 155.683 12.650 M 155.848 31.821 C 151.113 35.022, 140.004 41.866, 131.162 47.030 C 122.320 52.193, 115.236 56.569, 115.420 56.754 C 116.019 57.353, 147.463 53.941, 148.080 53.210 C 148.409 52.819, 151.746 47.550, 155.494 41.500 C 159.242 35.450, 162.966 29.488, 163.769 28.250 C 164.573 27.012, 165.056 26, 164.844 26 C 164.631 26, 160.583 28.619, 155.848 31.821 M 156.030 55.745 C 153.022 55.951, 150.010 56.577, 149.337 57.136 C 148.663 57.694, 145.994 61.551, 143.404 65.706 L 138.696 73.260 143.505 90.880 C 146.150 100.571, 148.517 109.063, 148.764 109.750 C 149.012 110.438, 148.521 111, 147.673 111 C 146.826 111, 142.615 106.071, 138.316 100.047 C 134.017 94.023, 130.236 89.073, 129.914 89.047 C 129.591 89.021, 128.517 92.548, 127.526 96.884 C 125.741 104.699, 125.617 104.896, 113.313 119.384 C 101.689 133.070, 99 135.609, 99 132.896 C 99 132.288, 105.525 121.348, 113.500 108.584 C 121.475 95.821, 128 84.880, 128 84.272 C 128 83.664, 128.396 83.017, 128.880 82.833 C 129.364 82.650, 131.106 80.367, 132.749 77.760 L 135.738 73.021 134.205 67.510 C 132.771 62.359, 132.470 61.999, 129.585 61.982 C 119.465 61.923, 62.282 64.411, 61.219 64.957 C 60.340 65.408, 64.803 72.027, 75.434 86.042 C 85.408 99.190, 90.586 106.814, 89.964 107.436 C 88.995 108.405, 87.462 107.156, 74.750 95.042 C 71.587 92.028, 68.990 89.774, 68.979 90.031 C 68.967 90.289, 67.721 94.100, 66.210 98.500 C 64.177 104.418, 61.422 109.313, 55.623 117.308 C 51.311 123.253, 47.621 127.954, 47.423 127.756 C 47.224 127.558, 47.016 112.667, 46.959 94.666 L 46.856 61.936 35.678 62.218 L 24.500 62.500 24.840 90.500 C 25.170 117.651, 27.520 183.864, 28.176 184.499 C 28.354 184.671, 34.292 174.556, 41.371 162.020 L 54.241 139.227 68.333 132.659 C 76.083 129.047, 82.553 126.219, 82.709 126.376 C 82.866 126.533, 84.797 139.189, 87 154.500 C 89.203 169.811, 91.141 182.474, 91.307 182.640 C 91.473 182.806, 97.806 171.948, 105.382 158.511 C 118.528 135.193, 119.277 134.101, 121.828 134.509 C 123.297 134.744, 130.238 135.221, 137.250 135.569 C 144.262 135.917, 149.990 136.494, 149.979 136.851 C 149.967 137.208, 145.070 144.925, 139.096 154 C 133.122 163.075, 128.426 170.707, 128.660 170.959 C 129.508 171.875, 168.154 175.559, 168.642 174.770 C 168.917 174.325, 169.407 147.194, 169.730 114.480 L 170.317 55 165.908 55.185 C 163.484 55.287, 159.039 55.539, 156.030 55.745 M 135 58 C 131.975 58.371, 130.693 58.747, 132.150 58.837 C 134.464 58.979, 134.953 59.634, 136 64 C 136.660 66.750, 137.492 68.987, 137.850 68.972 C 138.528 68.942, 145 58.648, 145 57.600 C 145 56.932, 143.087 57.009, 135 58 M 52.750 66.218 L 50 67.167 50 93.747 L 50 120.328 55.927 112.019 C 60.329 105.849, 62.543 101.496, 64.528 95.105 C 65.998 90.372, 67.363 86.331, 67.561 86.123 C 67.758 85.916, 70.286 87.716, 73.178 90.123 C 78.235 94.333, 78.024 93.958, 67.646 80.265 C 61.712 72.436, 56.552 65.859, 56.179 65.650 C 55.805 65.441, 54.263 65.697, 52.750 66.218 M 134.925 79.164 C 134.245 80.449, 133.092 82.420, 132.363 83.546 C 131.163 85.398, 131.660 86.437, 137.622 94.546 C 141.243 99.470, 143.953 102.600, 143.643 101.500 C 143.333 100.400, 141.713 94.589, 140.043 88.586 C 138.372 82.583, 136.816 77.482, 136.584 77.250 C 136.352 77.018, 135.606 77.880, 134.925 79.164 M 123.055 98.295 C 122.302 99.508, 119.503 103.987, 116.836 108.250 C 114.169 112.513, 112.129 116, 112.302 116 C 113.595 116, 122.590 103.966, 123.695 100.758 C 125.290 96.130, 125.027 95.120, 123.055 98.295" stroke="none" fill="black" fill-rule="evenodd"/>
</svg>