<svg xmlns="http://www.w3.org/2000/svg" width="200" height="200" viewBox="0 0 200 200" version="1.1">
	<path d="M 96.797 21.918 L 91.095 22.500 100.907 45.250 L 110.720 68 90.193 68 C 69.243 68, 64.734 67.268, 78.700 66.134 L 86.500 65.500 87.675 53.500 C 88.988 40.096, 89.314 26.981, 88.393 24.582 C 88.059 23.712, 87.272 23.002, 86.643 23.005 C 86.014 23.008, 81.711 32.180, 77.081 43.386 L 68.662 63.762 56.081 64.486 C 34.824 65.710, 19.687 67.419, 19.283 68.641 C 19.011 69.465, 25.130 69.881, 41.370 70.141 C 53.725 70.339, 64.150 70.817, 64.537 71.204 C 64.923 71.590, 63.568 75.865, 61.524 80.703 C 59.481 85.541, 57.600 90.007, 57.345 90.627 C 57.090 91.246, 57.968 92.026, 59.298 92.360 L 61.715 92.967 55.818 110.233 C 50.326 126.318, 49.291 128.454, 40.711 141.440 C 35.645 149.107, 28.568 159.232, 24.986 163.940 C 14.148 178.180, 13.676 178.938, 15.259 179.546 C 16.029 179.841, 23.282 176.550, 31.377 172.232 C 44.363 165.305, 47.532 163.072, 58.300 153.262 C 68.831 143.667, 71.858 140.150, 80.374 127.610 L 90.242 113.078 89.544 105.289 C 88.397 92.498, 89.270 93.485, 77.828 92.027 L 67.797 90.749 70.150 88.395 L 72.504 86.041 97.348 90.305 L 122.192 94.569 126.975 105.534 C 129.605 111.565, 134.895 121.900, 138.731 128.500 C 144.220 137.944, 146.706 143.657, 150.404 155.319 C 152.988 163.470, 155.488 171.155, 155.961 172.397 L 156.820 174.656 171.160 172.004 C 181.722 170.052, 185.577 168.953, 185.793 167.834 C 186.045 166.530, 184.419 166.640, 174.293 168.610 C 167.807 169.872, 161.578 170.926, 160.451 170.952 C 158.678 170.994, 157.693 168.826, 153.149 154.889 C 149.048 142.313, 146.410 136.226, 141.123 127.139 C 134.398 115.583, 125.588 96.992, 126.844 97.009 C 127.205 97.014, 132.450 99.433, 138.500 102.385 C 147.160 106.610, 152.039 109.897, 161.439 117.837 C 168.005 123.384, 173.695 128.503, 174.084 129.211 C 174.473 129.920, 176.648 136.548, 178.919 143.940 C 181.189 151.332, 183.231 157.564, 183.457 157.790 C 183.682 158.016, 184.297 157.934, 184.823 157.610 C 185.378 157.266, 183.834 150.734, 181.139 142.023 L 176.500 127.028 163 115.691 C 151.108 105.705, 147.997 103.656, 136.875 98.484 L 124.251 92.612 119.792 82.056 L 115.334 71.500 142.610 70.873 C 157.612 70.528, 174.300 69.915, 179.693 69.511 L 189.500 68.776 184.500 64.252 C 181.750 61.764, 175.819 56.388, 171.321 52.306 L 163.142 44.883 150.919 54.441 C 144.197 59.699, 137.978 63.990, 137.099 63.978 C 136.219 63.967, 130.261 62.279, 123.859 60.228 L 112.218 56.500 117.606 39 C 120.570 29.375, 122.996 21.387, 122.998 21.250 C 123.002 20.802, 102.651 21.321, 96.797 21.918 M 95.167 24.853 C 98.222 32.668, 108.570 56, 108.981 56 C 109.415 56, 115.953 35.744, 118.744 25.750 C 119.191 24.152, 118.172 24, 107.033 24 C 100.323 24, 94.983 24.384, 95.167 24.853 M 79.275 45.364 C 75.851 53.689, 72.739 61.358, 72.358 62.407 C 71.713 64.183, 72.062 64.273, 77.438 63.719 C 80.613 63.391, 83.346 62.983, 83.513 62.811 C 84.222 62.081, 86.125 39.096, 85.827 34.864 C 85.501 30.242, 85.482 30.273, 79.275 45.364 M 150.795 57.983 C 144.414 62.942, 138.497 67, 137.645 67 C 136.794 67, 130.388 65.187, 123.410 62.971 C 116.433 60.756, 110.529 59.137, 110.292 59.375 C 110.055 59.612, 110.801 61.650, 111.951 63.903 L 114.041 68 137.270 67.868 C 150.047 67.796, 165.575 67.459, 171.777 67.118 L 183.055 66.500 173.512 58 C 168.263 53.325, 163.615 49.380, 163.182 49.233 C 162.749 49.086, 157.175 53.023, 150.795 57.983 M 56.728 67.722 C 58.503 67.943, 61.653 67.946, 63.728 67.730 C 65.802 67.513, 64.350 67.333, 60.500 67.328 C 56.650 67.324, 54.952 67.501, 56.728 67.722 M 65.133 79.234 C 63.281 83.780, 61.545 88.063, 61.276 88.750 C 60.183 91.538, 65.403 89.870, 68.394 86.475 L 71.500 82.949 95.308 87.084 C 108.402 89.357, 119.375 90.958, 119.692 90.641 C 120.009 90.325, 118.473 85.888, 116.278 80.783 L 112.288 71.500 90.394 71.234 L 68.500 70.967 65.133 79.234 M 64.798 94.736 C 63.952 95.706, 60.900 103.632, 58.014 112.350 C 53.159 127.017, 52.094 129.217, 43.743 141.834 C 38.779 149.334, 31.336 159.934, 27.204 165.391 L 19.690 175.313 31.904 168.906 C 42.446 163.377, 45.828 160.926, 56.612 151 C 67.166 141.286, 70.542 137.383, 78.356 125.867 L 87.606 112.233 86.667 104.166 C 85.612 95.108, 86.420 95.779, 75 94.481 C 71.975 94.137, 68.788 93.657, 67.918 93.414 C 67.048 93.171, 65.644 93.766, 64.798 94.736" stroke="none" fill="black" fill-rule="evenodd"/>
</svg>