<svg xmlns="http://www.w3.org/2000/svg" width="200" height="200" viewBox="0 0 200 200" version="1.1">
	<path d="M 90.500 17.056 C 87.750 17.507, 79.295 19.812, 71.711 22.177 L 57.921 26.478 54.961 31.724 C 53.332 34.609, 52 37.262, 52 37.619 C 52 37.977, 58.469 37.949, 66.375 37.557 L 80.750 36.845 86.846 39.922 C 93.298 43.179, 95 43.615, 95 42.013 C 95 41.469, 91.877 39.452, 88.060 37.530 L 81.120 34.035 68.517 34.674 L 55.913 35.313 57.707 32.163 C 59.283 29.393, 60.978 28.520, 71.738 24.928 C 78.469 22.681, 87.751 20.284, 92.365 19.602 L 100.753 18.362 110 25.819 L 119.247 33.276 112.412 36.888 C 106.290 40.123, 105.072 41.301, 100.736 48.177 L 95.896 55.854 99.578 67.677 C 107.598 93.433, 121.580 116.297, 137.884 130.317 C 146.550 137.768, 160.861 146.961, 173.750 153.354 C 178.287 155.604, 181.989 157.683, 181.976 157.973 C 181.963 158.263, 178.946 160.525, 175.271 163 C 171.596 165.475, 165.345 170.558, 161.381 174.295 L 154.173 181.090 145.016 171.623 C 130.250 156.360, 123.476 146.472, 113.462 125.561 C 108.573 115.352, 104.254 107, 103.865 107 C 103.475 107, 100.107 112.287, 96.380 118.750 C 88.968 131.601, 80.991 140.699, 65.769 153.666 C 56.274 161.754, 36.721 173.912, 29.207 176.400 L 24.500 177.958 27 175.960 C 37.888 167.260, 49.348 155.962, 55.647 147.718 C 74.899 122.523, 87.572 91.928, 91.879 60.250 C 93.317 49.667, 93.419 47, 92.385 47 C 91.013 47, 90.883 47.574, 88.541 64 C 83.398 100.065, 63.250 139.809, 38.756 162.206 C 33.665 166.862, 26.041 173.216, 21.814 176.327 C 17.587 179.439, 13.867 182.407, 13.548 182.923 C 12.074 185.308, 15.628 184.634, 25.906 180.581 C 54.848 169.167, 83.953 145.349, 97.712 121.817 C 100.704 116.701, 103.301 112.365, 103.484 112.183 C 103.666 112.001, 107.647 119.754, 112.331 129.412 C 121.913 149.169, 130.445 161.185, 145.345 175.905 L 153.853 184.309 158.676 180.266 C 161.329 178.042, 164.394 175.232, 165.487 174.021 C 166.580 172.810, 171.620 168.928, 176.686 165.396 C 181.753 161.863, 186.165 158.542, 186.490 158.015 C 186.816 157.489, 182.225 154.622, 176.288 151.644 C 135.464 131.171, 115.878 108.958, 102.463 67.923 L 98.679 56.346 103.299 49.205 C 107.578 42.590, 108.522 41.760, 116.085 37.957 C 120.577 35.699, 123.857 33.507, 123.376 33.086 C 122.894 32.665, 117.915 28.648, 112.311 24.160 C 101.301 15.343, 101.179 15.303, 90.500 17.056" stroke="none" fill="black" fill-rule="evenodd"/>
</svg>