<svg xmlns="http://www.w3.org/2000/svg" width="200" height="200" viewBox="0 0 200 200" version="1.1">
	<path d="M 49.109 24.822 L 34.718 29.500 34.529 75.648 L 34.340 121.797 49.813 116.375 C 58.323 113.393, 65.454 111.120, 65.659 111.325 C 65.864 111.530, 64.387 119.297, 62.378 128.584 L 58.725 145.469 41.862 162.904 C 32.588 172.493, 25 180.712, 25 181.169 C 25 181.626, 27.813 181.969, 31.250 181.931 C 37.233 181.864, 38.349 181.405, 57.398 171.168 L 77.297 160.475 82.986 147.988 C 86.115 141.119, 90.332 131.932, 92.355 127.571 L 96.035 119.642 99.635 123.071 L 103.235 126.500 102.570 151.750 C 102.204 165.637, 102.263 177.005, 102.702 177.012 C 103.141 177.018, 113.041 178.783, 124.703 180.933 L 145.906 184.843 165.703 178.822 C 176.591 175.510, 185.658 172.649, 185.852 172.465 C 186.178 172.154, 178.548 133.713, 177.361 129.690 C 176.959 128.328, 173.632 131.915, 163.911 144.190 C 156.807 153.161, 150.600 160.632, 150.118 160.793 C 149.636 160.954, 144.181 154.274, 137.994 145.948 L 126.746 130.810 133.123 124.345 C 137.882 119.520, 142.765 116.056, 152.373 110.690 L 165.246 103.500 164.601 77.500 C 163.992 52.912, 162.403 23.070, 161.664 22.330 C 161.230 21.897, 114.102 30.819, 112.900 31.562 C 110.852 32.828, 112.398 33.825, 119.750 35.984 C 124.013 37.236, 127.615 38.354, 127.756 38.469 C 127.897 38.585, 128.686 44.039, 129.509 50.590 C 130.332 57.140, 131.238 63.904, 131.523 65.620 C 131.979 68.361, 131.675 68.892, 129.021 69.991 C 127.359 70.680, 126.002 71.976, 126.005 72.871 C 126.008 73.767, 127.748 80.226, 129.873 87.225 C 133.244 98.331, 133.529 100.007, 132.117 100.400 C 131.228 100.648, 121.161 101.159, 109.746 101.536 L 88.993 102.220 73.498 96.360 C 64.976 93.137, 58.003 90.218, 58.002 89.873 C 58.001 89.528, 65.887 84.178, 75.527 77.983 C 85.166 71.788, 92.874 66.540, 92.654 66.321 C 92.435 66.102, 87.446 65.103, 81.568 64.102 C 75.690 63.100, 70.532 61.880, 70.106 61.390 C 69.680 60.901, 67.354 55.884, 64.938 50.243 C 62.521 44.601, 60.084 40.157, 59.522 40.368 C 58.117 40.893, 58.447 41.987, 63.672 54.108 L 68.245 64.716 76.623 66.019 C 81.230 66.736, 85 67.632, 85 68.011 C 85 68.390, 77.688 73.342, 68.750 79.016 C 59.813 84.690, 52.140 89.640, 51.699 90.017 C 51.259 90.393, 59.479 93.980, 69.966 97.987 L 89.032 105.273 112.681 104.138 C 125.688 103.514, 136.527 102.806, 136.768 102.566 C 137.008 102.325, 135.299 95.724, 132.970 87.898 C 128.439 72.677, 128.417 73.797, 133.311 70.500 C 134.616 69.621, 134.536 67.501, 132.648 53 L 130.500 36.500 125.750 35.074 C 123.138 34.289, 121 33.365, 121 33.021 C 121 32.135, 158.359 25.156, 159.155 25.893 C 159.718 26.415, 160.576 43.479, 162.429 91.052 L 162.840 101.604 151.170 108.052 C 142.675 112.746, 137.391 116.520, 131.750 121.923 C 127.487 126.006, 124 129.867, 124 130.504 C 124 131.140, 129.818 139.420, 136.929 148.905 L 149.857 166.149 162.679 150.123 L 175.500 134.097 178.685 149.298 C 180.437 157.659, 182.131 165.886, 182.449 167.581 L 183.027 170.662 164.452 176.315 L 145.876 181.968 125.438 178.260 L 105 174.551 105 149.488 L 105 124.425 100.027 119.526 L 95.053 114.628 93.584 118.064 C 92.776 119.954, 88.307 129.814, 83.653 139.976 L 75.192 158.453 56.007 168.726 C 41.799 176.335, 35.883 179, 33.201 179 L 29.579 179 45.656 162.750 C 59.721 148.533, 61.813 145.999, 62.381 142.500 C 62.738 140.300, 64.550 131.369, 66.408 122.654 C 70.376 104.046, 72.314 105.318, 51.389 112.795 L 37.277 117.838 37.377 74.592 L 37.478 31.346 51.447 27.003 L 65.417 22.659 77.958 24.447 C 84.856 25.430, 91.057 26.534, 91.738 26.900 C 92.472 27.295, 88.909 29.781, 82.980 33.011 C 77.483 36.006, 73.157 38.916, 73.368 39.478 C 73.578 40.040, 74.159 40.420, 74.660 40.322 C 76.671 39.928, 102.265 25.591, 101.415 25.334 C 99.155 24.652, 67.594 20.008, 65.661 20.072 C 64.473 20.112, 57.024 22.250, 49.109 24.822" stroke="none" fill="black" fill-rule="evenodd"/>
</svg>