<svg xmlns="http://www.w3.org/2000/svg" width="200" height="200" viewBox="0 0 200 200" version="1.1">
	<path d="M 90.018 18.250 C 87.641 27.188, 85.413 34.829, 85.068 35.230 C 84.722 35.632, 81.602 34.215, 78.134 32.083 L 71.829 28.205 76.164 27.549 C 84.152 26.340, 86 25.847, 86 24.921 C 86 24.414, 84.668 24, 83.041 24 C 78.538 24, 64.996 26.159, 65.028 26.872 C 65.044 27.217, 69.100 29.916, 74.043 32.869 C 78.985 35.821, 83.264 38.618, 83.552 39.084 C 83.840 39.550, 83.088 43.695, 81.881 48.296 L 79.687 56.661 73.594 59.930 L 67.500 63.199 46.595 55.588 C 35.098 51.401, 25.485 48.181, 25.234 48.433 C 24.158 49.509, 23.046 76.194, 22.585 112 C 22.313 133.175, 21.787 154.113, 21.417 158.528 L 20.745 166.556 32.048 176.778 C 38.265 182.400, 43.666 187, 44.051 187 C 44.844 187, 44.666 187.864, 49.037 162.804 L 52.297 144.108 62.757 132.804 C 68.510 126.587, 78.595 114.300, 85.167 105.500 C 91.740 96.700, 97.428 89.393, 97.809 89.262 C 98.189 89.132, 101.594 95.744, 105.376 103.957 L 112.253 118.888 117.376 119.960 C 120.194 120.549, 125.739 121.739, 129.698 122.604 L 136.895 124.177 138.043 129.839 C 138.674 132.952, 139.775 138.345, 140.488 141.822 C 141.451 146.510, 141.491 148.247, 140.643 148.538 C 140.014 148.755, 132.980 150.555, 125.010 152.539 C 117.041 154.523, 110.332 156.335, 110.101 156.566 C 109.694 156.972, 112.776 160.386, 129.248 177.770 L 137.083 186.040 152.792 179.462 C 161.431 175.844, 168.804 172.572, 169.176 172.192 C 170.651 170.683, 171.276 95.691, 170.008 72.500 C 169.316 59.850, 168.680 49.411, 168.595 49.303 C 168.509 49.195, 161.508 51.332, 153.035 54.053 C 144.563 56.774, 136.112 59, 134.257 59 C 131.384 59, 111.879 56.931, 111.304 56.566 C 111.137 56.460, 106 19.479, 106 18.384 C 106 18.173, 105.359 18, 104.577 18 C 103.579 18, 102.346 21.515, 100.457 29.750 C 98.974 36.212, 97.383 41.909, 96.921 42.410 C 96.005 43.401, 88 38.593, 88 37.051 C 88 36.545, 89.990 28.801, 92.422 19.843 C 94.853 10.885, 96.627 3.205, 96.363 2.778 C 95.064 0.676, 94.010 3.245, 90.018 18.250 M 103.835 28.500 C 102.261 31.072, 99.818 45.218, 100.781 46.181 C 101.473 46.873, 101.190 47.810, 99.900 49.100 C 95.924 53.076, 98.157 55.951, 105.250 55.986 C 107.236 55.996, 107.979 55.514, 107.924 54.250 C 107.682 48.667, 104.347 27.664, 103.835 28.500 M 86.670 41.734 C 86.413 42.155, 85.680 44.525, 85.042 47 C 84.403 49.475, 83.666 52.244, 83.403 53.154 C 83.041 54.409, 84.516 53.964, 89.515 51.310 C 93.139 49.386, 95.964 47.391, 95.793 46.878 C 95.314 45.442, 87.199 40.867, 86.670 41.734 M 26.468 62.750 C 26.026 68.662, 25.595 88.575, 25.510 107 C 25.426 125.425, 24.992 146.134, 24.545 153.020 L 23.733 165.540 32.897 173.906 C 37.937 178.507, 42.235 182.098, 42.447 181.886 C 42.659 181.674, 44.223 173.625, 45.922 164 C 47.621 154.375, 49.234 145.600, 49.507 144.500 C 49.780 143.400, 55.065 137.015, 61.251 130.310 C 67.438 123.606, 78.125 110.477, 85 101.136 C 91.875 91.794, 97.921 84.257, 98.436 84.387 C 98.952 84.518, 102.483 91.346, 106.285 99.562 C 110.087 107.778, 113.600 114.993, 114.092 115.594 C 114.584 116.196, 120.052 117.728, 126.243 118.997 C 132.435 120.267, 137.950 121.707, 138.500 122.197 C 139.574 123.155, 145.067 149.080, 144.419 150.130 C 144.205 150.477, 138.061 152.227, 130.765 154.019 C 123.469 155.811, 116.916 157.583, 116.202 157.955 C 114.722 158.728, 136.686 182.688, 138.453 182.228 C 139.029 182.078, 145.627 179.385, 153.115 176.244 L 166.729 170.533 167.359 161.016 C 168.815 139.044, 167.535 55.202, 165.717 53.383 C 165.545 53.212, 158.901 55.135, 150.952 57.656 L 136.500 62.241 124.735 60.969 C 118.264 60.269, 112.712 59.955, 112.397 60.270 C 112.082 60.585, 112.129 63.692, 112.502 67.174 L 113.180 73.505 128.004 90.503 C 146.128 111.283, 146.509 114.800, 128.751 97.385 C 118.734 87.562, 87.608 62, 85.663 62 C 84.040 62, 78.788 73.821, 77.395 80.610 C 76.051 87.162, 73.911 91.935, 64.775 108.750 C 58.630 120.062, 53.162 129, 52.387 129 C 51.624 129, 51 128.800, 51 128.556 C 51 128.311, 53.484 121.001, 56.519 112.310 C 60.498 100.918, 64.032 93.050, 69.183 84.114 C 73.259 77.042, 76.863 69.416, 77.574 66.359 C 78.259 63.412, 78.645 61, 78.432 61 C 78.219 61, 75.672 62.157, 72.772 63.570 L 67.500 66.141 48.155 59.070 C 37.515 55.182, 28.464 52, 28.041 52 C 27.619 52, 26.911 56.837, 26.468 62.750 M 88 55.141 C 81.439 58.865, 82.379 58.006, 81.588 61 C 80.949 63.416, 80.979 63.408, 82.495 60.750 C 83.358 59.237, 84.387 58.002, 84.782 58.004 C 85.177 58.006, 92.443 63.406, 100.929 70.004 C 109.415 76.602, 116.591 82, 116.875 82 C 117.160 82, 115.905 80.465, 114.087 78.590 C 111.201 75.612, 110.648 74.165, 109.724 67.166 L 108.666 59.152 101.583 58.326 C 94.611 57.513, 94.505 57.457, 94.822 54.750 C 94.998 53.237, 94.773 52.004, 94.322 52.009 C 93.870 52.015, 91.025 53.424, 88 55.141 M 69.283 89.325 C 65.570 95.719, 59.947 108.752, 60.030 110.773 C 60.064 111.620, 67.829 97.881, 71.592 90.315 C 75.707 82.041, 73.950 81.288, 69.283 89.325" stroke="none" fill="black" fill-rule="evenodd"/>
</svg>