<svg xmlns="http://www.w3.org/2000/svg" width="200" height="200" viewBox="0 0 200 200" version="1.1">
	<path d="M 148 19.665 L 137.500 26.164 107 25.614 C 73.926 25.016, 24.009 27.316, 23.991 29.438 C 23.974 31.341, 35.340 54, 36.312 54 C 36.831 54, 48.336 48.792, 61.878 42.427 L 86.500 30.853 103.500 32.057 C 112.850 32.719, 121.049 33.550, 121.720 33.903 C 122.869 34.509, 111.052 41.788, 79.520 59.897 L 66.540 67.351 57.520 65.045 C 52.559 63.776, 47.892 62.506, 47.149 62.223 C 46.260 61.884, 45.918 62.327, 46.149 63.516 C 46.342 64.510, 49.623 67.265, 53.440 69.640 L 60.379 73.956 63.327 72.090 C 66.261 70.232, 66.341 70.241, 80.670 73.978 C 88.588 76.043, 95.278 77.945, 95.538 78.205 C 95.798 78.465, 81.496 82.406, 63.756 86.962 C 46.015 91.518, 31.198 95.528, 30.829 95.873 C 30.460 96.218, 30.620 102.165, 31.184 109.089 L 32.209 121.678 24.604 155.267 C 20.422 173.741, 17 189.338, 17 189.928 C 17 193.766, 21.502 187.875, 36.624 164.250 C 52.413 139.581, 54.060 136.566, 57.794 125.500 L 61.842 113.500 61.921 145.750 C 61.982 170.814, 62.279 178.011, 63.250 178.047 C 63.938 178.073, 77.965 179.561, 94.423 181.353 L 124.347 184.612 152.521 178.452 C 186.681 170.985, 186 171.153, 186 170.158 C 186 169.377, 174.095 146.686, 171.392 142.316 L 170.041 140.133 163.847 142.560 C 160.441 143.895, 157.452 144.786, 157.206 144.539 C 156.353 143.686, 166.291 89.445, 169.581 77 L 172.886 64.500 167.835 57.181 L 162.785 49.862 163.511 36.808 C 164.096 26.276, 163.985 23.838, 162.932 24.189 C 161.994 24.502, 133.465 105.430, 133.053 108.950 C 133.024 109.198, 132.508 108.908, 131.907 108.307 C 131.116 107.516, 131.279 103.568, 132.496 94.030 C 133.422 86.778, 133.912 80.578, 133.586 80.252 C 133.260 79.926, 130.112 79.399, 126.591 79.080 L 120.189 78.500 136.718 56.207 C 145.809 43.946, 153.079 33.746, 152.874 33.541 C 152.668 33.336, 148.225 32.759, 143 32.258 L 133.500 31.347 137.345 29.620 C 143.809 26.718, 162.010 14.825, 161.429 13.884 C 160.448 12.298, 158.647 13.074, 148 19.665 M 47.159 29.563 C 37.071 30.270, 28.590 31.076, 28.312 31.354 C 28.034 31.633, 29.847 36.168, 32.341 41.433 L 36.876 51.006 44.188 47.634 C 60.596 40.067, 84.527 28.761, 84.917 28.393 C 85.702 27.652, 65.498 28.278, 47.159 29.563 M 96.750 28.706 C 97.987 28.944, 100.013 28.944, 101.250 28.706 C 102.487 28.467, 101.475 28.272, 99 28.272 C 96.525 28.272, 95.513 28.467, 96.750 28.706 M 117.347 30.251 C 125.814 30.933, 129.509 30.891, 130.297 30.103 C 131.101 29.299, 127.887 29.040, 118.450 29.149 L 105.500 29.297 117.347 30.251 M 127.427 34.908 C 126.917 35.382, 114.800 42.548, 100.500 50.834 C 86.200 59.120, 73.630 66.521, 72.567 67.282 C 70.798 68.547, 71.224 68.811, 77.567 70.379 C 98.720 75.608, 100.017 76.080, 99.467 78.357 C 99.038 80.130, 101.365 82.527, 112.952 92.250 C 120.653 98.712, 127.356 104, 127.848 104 C 128.339 104, 129.050 100.737, 129.428 96.750 C 129.805 92.762, 130.371 87.813, 130.685 85.750 L 131.256 82 126.878 81.942 C 124.470 81.911, 120.878 81.573, 118.896 81.192 L 115.293 80.500 131.619 58.522 C 140.598 46.435, 147.620 36.255, 147.222 35.901 C 146.047 34.853, 128.436 33.970, 127.427 34.908 M 147.519 74.750 C 140.507 95.513, 134.608 112.677, 134.409 112.893 C 134.211 113.108, 133.352 112.707, 132.500 112 C 131.648 111.293, 130.800 110.892, 130.614 111.107 C 130.428 111.323, 129.792 115.347, 129.200 120.050 C 128.227 127.777, 128.355 129.654, 130.526 139.550 C 133.323 152.299, 133.417 153.306, 131.765 152.755 C 131.085 152.528, 129.360 147.121, 127.931 140.739 C 125.419 129.520, 125.377 128.794, 126.661 118.847 C 127.719 110.645, 127.736 108.319, 126.744 107.373 C 126.060 106.720, 119.235 100.927, 111.578 94.499 L 97.657 82.812 91.828 99.057 C 88.623 107.992, 86 115.952, 86 116.746 C 86 118.501, 107.162 164.020, 107.945 163.951 C 108.250 163.924, 118.621 159.987, 130.992 155.201 L 153.483 146.500 158.623 117.500 C 161.450 101.550, 165.133 83.149, 166.808 76.608 L 169.853 64.716 164.830 57.608 L 159.808 50.500 160.271 43.750 C 160.525 40.038, 160.628 37, 160.501 37 C 160.373 37, 154.531 53.987, 147.519 74.750 M 58.397 69.500 C 59.441 70.290, 60.726 70.669, 61.254 70.343 C 62.410 69.628, 60.136 68.024, 58 68.047 C 56.846 68.060, 56.938 68.395, 58.397 69.500 M 63.315 89.865 C 47.264 94.084, 33.882 97.784, 33.579 98.088 C 33.275 98.391, 33.500 103.706, 34.078 109.898 L 35.129 121.156 28.474 150.654 C 24.813 166.878, 22.023 180.356, 22.273 180.606 C 22.523 180.856, 28.976 171.296, 36.614 159.362 C 50.217 138.106, 50.614 137.326, 56.063 121.144 C 59.122 112.058, 62.092 104.469, 62.662 104.279 C 64.257 103.748, 64.987 117.479, 64.994 148.121 L 65 175.742 73.250 176.452 C 77.787 176.843, 91.092 178.219, 102.816 179.510 L 124.133 181.858 152.565 175.597 C 168.202 172.154, 181.261 169.073, 181.583 168.750 C 182.020 168.313, 171.157 146.395, 169.378 144.125 C 169.216 143.919, 166.171 144.779, 162.610 146.036 C 157.632 147.794, 156 148.862, 155.549 150.661 C 154.900 153.245, 153 153.871, 153 151.500 C 153 150.675, 152.806 150, 152.569 150 C 152.331 150, 142.128 153.843, 129.895 158.540 C 117.662 163.238, 107.145 166.886, 106.525 166.648 C 105.341 166.193, 83 119.056, 83 117.012 C 83 116.055, 91.865 90.463, 94.521 83.750 C 94.981 82.588, 94.758 82.033, 93.857 82.097 C 93.111 82.150, 79.367 85.646, 63.315 89.865" stroke="none" fill="black" fill-rule="evenodd"/>
</svg>