<svg xmlns="http://www.w3.org/2000/svg" width="200" height="200" viewBox="0 0 200 200" version="1.1">
	<path d="M 86.708 22.846 C 84.341 27.056, 77.042 40.266, 70.489 52.203 C 63.935 64.140, 58.409 73.742, 58.209 73.542 C 58.009 73.342, 59.005 65.507, 60.423 56.131 C 64.109 31.745, 65.334 34.512, 50.250 33.143 C 34.353 31.700, 34 31.704, 34 33.349 C 34 34.355, 37.197 34.962, 46.551 35.734 C 53.454 36.303, 59.364 37.030, 59.683 37.349 C 60.002 37.669, 58.810 47.892, 57.035 60.068 C 53.552 83.954, 53.793 87.657, 58.322 79.850 C 59.710 77.457, 67.650 63.127, 75.968 48.004 C 84.286 32.881, 91.509 20.091, 92.019 19.581 C 92.590 19.010, 96.635 19.742, 102.519 21.480 C 111.791 24.218, 112.074 24.388, 111.542 26.903 C 110.392 32.343, 104.048 70.377, 104.268 70.511 C 105.778 71.431, 126 87.388, 126 87.659 C 126 87.861, 124.356 87.340, 122.346 86.500 C 120.337 85.661, 118.618 85.092, 118.528 85.237 C 118.437 85.382, 115.806 91.680, 112.681 99.234 L 107 112.968 107 136.791 L 107 160.614 124.250 162.396 C 133.738 163.376, 142.553 164.422, 143.839 164.720 L 146.179 165.262 145.610 155.381 C 145.297 149.946, 144.778 140.281, 144.457 133.901 L 143.874 122.303 154.973 114.020 C 161.077 109.465, 166.225 105.909, 166.414 106.119 C 166.602 106.329, 167.329 113.925, 168.029 123 C 169.124 137.198, 169.078 142.201, 167.702 158.865 C 166.823 169.516, 165.903 178.431, 165.657 178.676 C 165.412 178.922, 160.261 176.640, 154.212 173.606 L 143.212 168.090 124.856 167.045 C 114.760 166.471, 101.775 165.961, 96 165.913 C 90.225 165.864, 83.429 165.527, 80.897 165.162 L 76.295 164.500 81.022 149.316 L 85.749 134.132 84.766 111.316 C 84.225 98.767, 83.628 88.335, 83.440 88.133 C 83.252 87.931, 75.425 90.115, 66.046 92.986 L 48.994 98.206 40.856 90.871 L 32.719 83.535 33.377 70.017 C 33.739 62.583, 34.319 52.337, 34.665 47.250 C 35.222 39.071, 35.104 38, 33.648 38 C 32.453 38, 32.003 38.894, 32.010 41.250 C 32.015 43.038, 31.501 53.471, 30.867 64.435 L 29.714 84.370 38.607 92.645 C 43.498 97.196, 47.963 100.938, 48.528 100.960 C 49.094 100.982, 56.595 98.820, 65.197 96.156 L 80.837 91.313 81.390 100.406 C 81.695 105.408, 82.202 114.902, 82.518 121.504 L 83.092 133.508 78.443 148.504 C 75.887 156.752, 73.424 163.895, 72.969 164.378 C 72.509 164.867, 66.644 161.231, 59.740 156.176 L 47.337 147.095 50.046 126.297 C 51.536 114.859, 52.603 105.330, 52.416 105.122 C 52.009 104.668, 23.301 110.194, 22.068 110.963 C 21.593 111.259, 21.534 122.263, 21.935 135.500 L 22.662 159.500 27.081 174.241 C 29.512 182.349, 31.844 188.986, 32.264 188.991 C 32.684 188.996, 40.107 184.275, 48.759 178.500 C 61.365 170.086, 65.196 168, 68.045 168 C 70 168, 72.159 168.559, 72.842 169.242 C 73.830 170.230, 74.255 170.206, 74.925 169.121 C 75.631 167.978, 80.441 167.942, 104.634 168.896 C 120.510 169.522, 135.750 170.307, 138.500 170.640 C 141.691 171.027, 147.746 173.373, 155.235 177.123 C 161.689 180.356, 167.343 183, 167.799 183 C 168.255 183, 169.435 172.537, 170.420 159.750 C 172.116 137.739, 172.122 135.568, 170.529 119.007 C 169.604 109.386, 168.703 101.370, 168.527 101.193 C 168.350 101.017, 162.068 105.424, 154.566 110.987 L 140.926 121.102 141.443 128.301 C 141.727 132.260, 142.223 141.457, 142.545 148.738 L 143.130 161.976 140.315 161.496 C 137.938 161.090, 110.877 158, 109.704 158 C 109.488 158, 109.521 147.762, 109.775 135.250 L 110.239 112.500 114.768 101.500 C 117.259 95.450, 119.643 90.110, 120.066 89.632 C 120.489 89.155, 128.772 92.389, 138.473 96.820 C 149.962 102.066, 156.259 104.461, 156.537 103.687 C 156.771 103.034, 158.744 93.843, 160.922 83.262 L 164.881 64.024 161.112 45.762 C 159.039 35.718, 157.038 27.500, 156.665 27.500 C 156.292 27.500, 151.093 31.874, 145.112 37.220 C 132.644 48.363, 133.838 45.303, 131.922 71 C 131.287 79.525, 130.637 86.645, 130.478 86.822 C 130.167 87.169, 108.297 70.289, 107.603 69.166 C 107.373 68.794, 108.952 58.188, 111.113 45.599 C 113.274 33.009, 114.920 22.587, 114.771 22.438 C 114.622 22.290, 109.215 20.598, 102.755 18.680 L 91.011 15.193 86.708 22.846 M 145.553 40.368 L 136.606 48.675 134.814 70.015 C 133.829 81.752, 133.130 91.406, 133.261 91.467 C 141.943 95.509, 154.371 100.942, 154.504 100.755 C 154.603 100.615, 156.308 92.300, 158.292 82.278 L 161.901 64.056 158.729 48.028 C 156.985 39.213, 155.319 32.014, 155.029 32.030 C 154.738 32.047, 150.474 35.799, 145.553 40.368 M 41 109.601 C 37.425 110.371, 32.150 111.480, 29.279 112.066 L 24.057 113.130 24.663 135.815 L 25.269 158.500 29.223 171.500 C 31.398 178.650, 33.321 184.647, 33.498 184.826 C 33.675 185.006, 40.599 180.618, 48.886 175.076 C 57.172 169.534, 64.703 165, 65.621 165 C 66.539 165, 62.287 161.376, 56.171 156.947 C 50.056 152.518, 44.893 148.581, 44.698 148.197 C 44.503 147.814, 45.521 138.613, 46.961 127.750 C 48.624 115.208, 49.200 108.037, 48.539 108.100 C 47.968 108.156, 44.575 108.831, 41 109.601" stroke="none" fill="black" fill-rule="evenodd"/>
</svg>