<svg xmlns="http://www.w3.org/2000/svg" width="200" height="200" viewBox="0 0 200 200" version="1.1">
	<path d="M 102.647 7.750 C 102.379 8.713, 101.366 12.988, 100.397 17.250 C 98.665 24.867, 98.582 24.999, 95.567 24.958 C 93.880 24.935, 77.661 23.436, 59.524 21.627 C 29.011 18.585, 26.246 18.452, 22.524 19.858 C 17.422 21.785, 17.403 21.803, 18.814 23.214 C 19.722 24.122, 19.377 25.041, 17.321 27.187 C 15.849 28.723, 14.838 30.141, 15.073 30.340 C 15.308 30.538, 24.950 37.342, 36.500 45.459 C 48.050 53.576, 58.043 60.731, 58.706 61.359 C 60.557 63.110, 41.953 95.865, 26.582 117.921 C 14.626 135.076, 13.838 136.490, 15.122 138.503 C 17.857 142.792, 49.328 183.006, 49.677 182.657 C 49.874 182.460, 49.596 169.665, 49.060 154.224 L 48.086 126.149 60.620 104.104 L 73.154 82.059 77.327 82.518 C 83.855 83.235, 117.702 85.055, 125.754 85.122 C 132.341 85.176, 133.053 85.380, 133.507 87.341 C 134.298 90.763, 137 104.086, 137 104.565 C 137 105.831, 131.523 104.746, 130.360 103.250 C 129.063 101.583, 128.949 101.583, 127.950 103.250 C 126.992 104.847, 124.551 105, 99.950 105 C 85.128 105, 73.018 105.338, 73.040 105.750 C 73.062 106.162, 75.200 108.178, 77.790 110.230 C 80.381 112.281, 84.413 115.717, 86.750 117.864 L 91 121.769 91.129 141.634 C 91.200 152.561, 91.538 168.180, 91.879 176.344 L 92.500 191.188 106.624 174.344 L 120.748 157.500 125.111 133.320 C 127.511 120.021, 129.583 109.249, 129.716 109.382 C 129.848 109.515, 132.217 116.962, 134.979 125.931 L 140 142.237 140 159.366 L 140 176.494 160.567 155.927 L 181.134 135.360 170.212 110.430 C 164.205 96.718, 159.433 85.329, 159.609 85.119 C 159.784 84.910, 165.528 84.460, 172.372 84.119 L 184.817 83.500 170.658 66.917 C 162.871 57.796, 151.325 44.822, 145 38.084 C 138.675 31.346, 132.974 24.859, 132.331 23.667 C 131.688 22.475, 130.788 21.493, 130.331 21.485 C 129.874 21.477, 127.067 18.885, 124.094 15.724 C 121.121 12.564, 118.497 10.170, 118.262 10.405 C 118.026 10.640, 118.584 14.508, 119.500 19 C 120.416 23.492, 121.016 27.260, 120.833 27.374 C 120.650 27.487, 116.170 27.112, 110.878 26.540 L 101.255 25.500 103.587 16 C 104.869 10.775, 105.937 6.388, 105.959 6.250 C 105.982 6.112, 105.355 6, 104.567 6 C 103.779 6, 102.915 6.787, 102.647 7.750 M 122.324 19.500 C 122.614 20.600, 123.150 22.986, 123.516 24.803 C 124.210 28.245, 125.609 28.567, 127.418 25.699 C 128.270 24.349, 127.821 23.375, 125.138 20.759 C 122.510 18.196, 121.910 17.927, 122.324 19.500 M 29.087 22.660 C 35.387 30.094, 60.270 58.049, 60.973 58.483 C 61.456 58.782, 63.338 56.320, 65.156 53.013 C 66.974 49.706, 69.033 47, 69.731 47 C 71.428 47, 71.489 46.499, 67.475 65.551 C 65.536 74.753, 64.115 82.448, 64.318 82.651 C 64.521 82.854, 71.482 73.384, 79.788 61.605 C 91.923 44.395, 95.185 39.051, 96.403 34.388 C 97.237 31.196, 97.803 28.470, 97.662 28.328 C 97.521 28.187, 83.251 26.703, 65.953 25.031 C 48.654 23.359, 32.931 21.727, 31.014 21.406 C 27.710 20.851, 27.609 20.917, 29.087 22.660 M 22.181 26.294 L 18.863 29.737 33.599 40.119 C 41.704 45.828, 49.038 50.917, 49.896 51.427 C 50.754 51.938, 47.191 47.509, 41.978 41.587 C 36.765 35.664, 30.925 29.026, 29 26.835 L 25.500 22.852 22.181 26.294 M 129.787 27.622 C 129.517 28.105, 132.815 35.700, 137.116 44.500 C 141.417 53.300, 144.950 60.234, 144.968 59.909 C 145.004 59.253, 132.674 31.026, 131.205 28.402 C 130.695 27.490, 130.056 27.138, 129.787 27.622 M 100.421 29.489 C 100.239 30.045, 99.463 32.975, 98.698 36 C 97.581 40.414, 93.802 46.471, 79.556 66.681 C 68.826 81.903, 61.312 91.673, 60.557 91.383 C 59.603 91.017, 59.974 87.783, 62.128 77.702 C 63.679 70.441, 65.224 62.925, 65.560 61 L 66.173 57.500 64.277 60.500 C 63.234 62.150, 57.938 71.600, 52.508 81.500 C 47.078 91.400, 37.017 107.589, 30.151 117.476 C 23.284 127.363, 17.667 135.946, 17.667 136.549 C 17.667 137.676, 46.235 175.098, 46.723 174.610 C 46.872 174.461, 46.627 163.350, 46.178 149.919 L 45.362 125.500 58.278 102.750 L 71.194 80 77.347 80.028 C 80.731 80.043, 93.625 80.705, 106 81.500 C 118.375 82.295, 129.287 82.957, 130.250 82.972 C 131.343 82.990, 132 82.249, 132 81 C 132 79.118, 131.333 79, 120.697 79 L 109.393 79 106.197 71.181 C 104.439 66.881, 103 62.779, 103 62.066 C 103 61.353, 107.275 54.647, 112.500 47.164 C 117.725 39.681, 122 32.828, 122 31.937 C 122 30.601, 120.129 30.153, 111.377 29.397 C 104.298 28.785, 100.643 28.816, 100.421 29.489 M 126.247 32.207 C 125.223 33.445, 126.314 39.748, 132.572 68.750 L 134.136 76 141.568 76 C 145.656 76, 149 75.838, 149 75.639 C 149 75.441, 144.121 65.296, 138.158 53.096 C 129.983 36.370, 127.053 31.232, 126.247 32.207 M 138.047 36.500 C 138.639 38.150, 143.279 48.950, 148.360 60.500 L 157.599 81.500 164.549 81.788 C 168.372 81.946, 173.136 81.721, 175.135 81.288 L 178.769 80.500 167.433 67.213 C 149.786 46.529, 136.765 32.920, 138.047 36.500 M 114.132 49.493 C 109.659 55.889, 105.999 61.657, 105.997 62.311 C 105.996 62.965, 107.188 66.313, 108.647 69.750 L 111.300 76 121.150 76 C 126.568 76, 131 75.751, 131 75.446 C 131 73.300, 123.634 39.331, 123.028 38.682 C 122.608 38.232, 118.605 43.097, 114.132 49.493 M 135.177 80.553 C 135.355 81.407, 135.838 82.082, 136.250 82.053 C 136.662 82.024, 141.036 82, 145.969 82 C 153.530 82, 154.847 81.765, 154.362 80.500 C 153.493 78.236, 134.705 78.287, 135.177 80.553 M 136.022 85.715 C 136.034 86.147, 136.934 90.527, 138.022 95.449 C 140.654 107.357, 140.720 107, 135.893 107 C 132.688 107, 131.910 107.323, 132.351 108.472 C 132.662 109.282, 135 116.739, 137.546 125.045 C 141.830 139.015, 142.227 141.227, 142.839 154.589 L 143.500 169.032 160.693 151.766 L 177.886 134.500 167.111 110 L 156.336 85.500 146.168 85.215 C 140.576 85.058, 136.010 85.283, 136.022 85.715 M 101.561 107.970 L 79.623 108.500 86.164 113.805 L 92.706 119.110 93.348 128.805 C 93.701 134.137, 94.031 146.375, 94.082 156 C 94.133 165.625, 94.473 175.706, 94.838 178.402 L 95.500 183.304 105.501 171.402 C 111.002 164.856, 116.093 158.744, 116.815 157.820 C 117.744 156.633, 127 110.719, 127 107.302 C 127 107.136, 126.213 107.099, 125.250 107.220 C 124.287 107.342, 113.628 107.679, 101.561 107.970" stroke="none" fill="black" fill-rule="evenodd"/>
</svg>