<svg xmlns="http://www.w3.org/2000/svg" width="200" height="200" viewBox="0 0 200 200" version="1.1">
	<path d="M 34.533 11.801 C 33.351 12.983, 34.160 13.895, 37.250 14.865 C 39.038 15.426, 48.416 18.395, 58.091 21.464 L 75.683 27.042 82.971 46.558 C 86.979 57.292, 90.062 66.271, 89.821 66.512 C 89.408 66.926, 79.143 65.581, 74.250 64.472 C 72.700 64.121, 72 64.423, 72 65.442 C 72 66.923, 73.016 67.291, 86.041 70.518 L 92.582 72.138 97.181 84.319 C 101.679 96.231, 101.739 96.543, 99.918 98.444 C 98.894 99.514, 97.900 100.189, 97.709 99.944 C 97.519 99.700, 93.427 94.438, 88.617 88.250 C 80.530 77.849, 78 75.409, 78 78.013 C 78 78.571, 81.172 85.358, 85.048 93.097 L 92.097 107.167 94.513 105.583 C 95.842 104.712, 97.078 104, 97.259 104 C 97.863 104, 105.273 114.062, 104.883 114.354 C 104.672 114.511, 100.246 117.295, 95.046 120.538 L 85.592 126.436 91.330 127.586 C 94.487 128.218, 97.367 129.034, 97.731 129.398 C 98.096 129.762, 97.293 131.150, 95.947 132.482 L 93.500 134.903 61 134.202 L 28.500 133.500 41.730 130.613 L 54.961 127.727 55.428 124.613 C 55.909 121.408, 58.016 78.319, 58.006 71.907 C 58 68.398, 57.648 68.074, 43 58.099 C 34.750 52.481, 28 47.749, 28 47.584 C 28 47.419, 34.300 46.256, 42 45 C 52.006 43.368, 56 42.329, 56 41.358 C 56 40.611, 55.737 40, 55.417 40 C 53.444 40, 23.284 45.347, 22.316 45.868 C 21.639 46.233, 28.425 51.435, 38.144 58.003 L 55.157 69.500 54.455 87.500 C 54.068 97.400, 53.471 109.962, 53.126 115.415 L 52.500 125.331 34 129.477 C 20.495 132.503, 15.500 134.011, 15.500 135.062 C 15.500 136.278, 21.234 136.577, 52.668 137 C 73.110 137.275, 90.057 137.725, 90.328 138 C 90.599 138.275, 89.849 139.672, 88.660 141.104 C 86.814 143.329, 84.098 144.256, 70 147.470 L 53.500 151.232 33.250 168.175 C 15.055 183.399, 9.501 189.227, 14.750 187.589 C 15.713 187.288, 28.805 183.240, 43.844 178.594 C 58.884 173.947, 71.376 169.957, 71.605 169.728 C 71.834 169.499, 75.512 164.197, 79.779 157.945 C 86.924 147.475, 87.891 146.470, 92.018 145.214 C 97.137 143.657, 117.468 144.314, 119.627 146.106 C 120.322 146.682, 121.593 149.257, 122.452 151.827 C 124.008 156.480, 124.125 156.570, 149.757 172.662 C 163.916 181.550, 175.595 188.730, 175.712 188.617 C 175.963 188.371, 160.192 147.858, 159.624 147.290 C 159.327 146.994, 125.962 143.111, 122.911 143.018 C 122.586 143.008, 121.831 141.925, 121.233 140.612 L 120.145 138.224 147.822 137.569 C 178.035 136.854, 183.303 136.414, 182.720 134.653 C 182.510 134.019, 176.041 130.890, 168.344 127.700 L 154.349 121.900 149.561 105.011 L 144.774 88.122 155.916 66.573 L 167.059 45.025 162.769 38.631 C 158.395 32.110, 149.193 23, 146.982 23 C 146.308 23, 140.149 26.441, 133.294 30.646 L 120.831 38.292 101.879 32.396 L 82.926 26.500 78.287 19.750 C 72.270 10.997, 69.053 10.404, 72.513 18.686 C 73.345 20.677, 73.806 22.527, 73.538 22.796 C 73.269 23.064, 64.503 20.581, 54.057 17.276 C 43.612 13.972, 34.826 11.508, 34.533 11.801 M 133 33.920 C 118.633 42.867, 120.060 39.452, 121.430 61.610 L 122.241 74.720 117.371 73.919 C 108.889 72.526, 108.232 73.112, 116 75.143 C 120.125 76.222, 125.201 77.552, 127.280 78.099 C 129.359 78.646, 130.811 79.496, 130.507 79.989 C 130.202 80.482, 124.383 84.765, 117.576 89.506 L 105.199 98.128 107.585 104.216 C 108.897 107.564, 110.115 110.448, 110.292 110.625 C 110.469 110.802, 112.320 109.788, 114.404 108.371 C 120.024 104.553, 121.289 106.676, 116.634 112.114 C 114.635 114.449, 113.004 117.066, 113.009 117.930 C 113.014 118.793, 115.293 122.425, 118.073 126 C 122.613 131.838, 122.918 132.533, 121.064 132.820 C 119.929 132.995, 119 133.558, 119 134.070 C 119 135.092, 145.395 135.120, 163.962 134.118 L 175.424 133.500 164.462 129.088 C 158.433 126.661, 153.152 124.378, 152.726 124.014 C 152.301 123.650, 149.681 115.388, 146.904 105.654 L 141.856 87.956 152.817 66.633 L 163.778 45.310 159.991 39.405 C 156.512 33.980, 148.231 25.907, 146.310 26.067 C 145.864 26.104, 139.875 29.638, 133 33.920 M 81.929 35.750 C 83.513 40.013, 86.824 48.900, 89.288 55.500 L 93.768 67.500 104.134 69.196 C 109.835 70.129, 115.567 70.916, 116.870 70.946 L 119.241 71 118.527 58.250 C 118.134 51.237, 117.518 45.190, 117.157 44.811 C 116.795 44.431, 112.900 46.331, 108.500 49.032 C 104.100 51.733, 100.180 53.956, 99.789 53.971 C 99.398 53.987, 94.942 48.150, 89.886 41 C 84.831 33.850, 80.324 28, 79.872 28 C 79.420 28, 80.346 31.487, 81.929 35.750 M 86 30.553 C 86 31.602, 100.317 50.922, 100.850 50.593 C 101.207 50.372, 104.672 48.236, 108.549 45.846 C 112.425 43.456, 115.711 41.089, 115.850 40.586 C 115.989 40.083, 109.330 37.548, 101.052 34.952 C 92.773 32.356, 86 30.377, 86 30.553 M 105.813 72.683 C 106.534 72.972, 107.397 72.936, 107.729 72.604 C 108.061 72.272, 107.471 72.036, 106.417 72.079 C 105.252 72.127, 105.015 72.364, 105.813 72.683 M 96 73.185 C 96 73.886, 103.932 94.266, 104.379 94.712 C 104.642 94.976, 109.422 91.955, 115 88 C 120.578 84.045, 124.994 80.661, 124.814 80.481 C 124.633 80.300, 118.864 78.747, 111.993 77.031 C 105.122 75.314, 98.713 73.674, 97.750 73.387 C 96.787 73.100, 96 73.009, 96 73.185 M 89.971 96.873 C 92.210 101.358, 93.467 102.933, 94.212 102.188 C 94.957 101.443, 94.288 99.850, 91.957 96.815 C 86.775 90.066, 86.575 90.072, 89.971 96.873 M 101.054 100.967 C 99.876 101.695, 100.127 102.576, 102.478 105.969 C 105.718 110.644, 107.757 112.361, 106.568 109.414 C 106.143 108.361, 105.330 106.150, 104.761 104.500 C 103.388 100.517, 102.756 99.915, 101.054 100.967 M 99.774 120.668 C 93.603 124.548, 93.226 126, 98.392 126 C 101 126, 102.309 125.199, 104.833 122.059 C 106.575 119.891, 108 117.866, 108 117.559 C 108 116.222, 105.101 117.318, 99.774 120.668 M 106.988 123.513 C 104.229 126.449, 104.945 127.504, 110.236 128.305 L 113.972 128.870 112.486 125.313 C 111.669 123.356, 111 121.586, 111 121.378 C 111 120.271, 109.067 121.300, 106.988 123.513 M 100.353 131.159 C 97.454 134.890, 97.644 135, 106.941 135 C 112.093 135, 116 134.584, 116 134.035 C 116 131.331, 102.192 128.793, 100.353 131.159 M 93.242 139.985 C 92.047 141.898, 92.208 141.949, 97.751 141.403 C 100.913 141.092, 106.875 141.266, 111 141.790 C 115.125 142.315, 118.649 142.615, 118.831 142.457 C 119.013 142.300, 118.660 141.233, 118.046 140.086 C 117.016 138.162, 116.060 138, 105.705 138 C 95.593 138, 94.358 138.197, 93.242 139.985 M 124.775 150.246 C 126.338 154.593, 127.110 155.195, 147.932 168.302 C 159.780 175.759, 169.632 181.701, 169.828 181.506 C 170.023 181.311, 167.390 173.999, 163.977 165.257 L 157.771 149.363 144.635 148.103 C 137.411 147.410, 129.623 146.597, 127.329 146.296 L 123.158 145.750 124.775 150.246 M 68.993 150.372 C 61.564 152.118, 54.548 154.211, 53.402 155.023 C 50.081 157.376, 20.205 182.476, 20.425 182.728 C 20.534 182.854, 31.713 179.520, 45.267 175.320 L 69.911 167.684 77.015 157.342 C 80.922 151.654, 83.755 147.044, 83.309 147.099 C 82.864 147.153, 76.422 148.626, 68.993 150.372" stroke="none" fill="black" fill-rule="evenodd"/>
</svg>