<svg xmlns="http://www.w3.org/2000/svg" width="200" height="200" viewBox="0 0 200 200" version="1.1">
	<path d="M 116.500 20.605 L 90.500 26.012 63.410 25.964 L 36.321 25.916 35.665 47.726 C 35.027 68.958, 35.088 69.984, 37.985 86.415 C 39.622 95.699, 41.195 103.529, 41.482 103.815 C 41.768 104.101, 47.177 103.669, 53.501 102.855 C 59.825 102.041, 65 101.491, 65 101.632 C 65 102.685, 54.593 139.825, 53.969 141 C 53.530 141.825, 47.276 149.250, 40.069 157.500 C 27.545 171.838, 26.994 172.654, 27.562 176 C 27.888 177.925, 28.478 179.835, 28.871 180.243 C 29.265 180.652, 37.739 176.602, 47.704 171.243 L 65.820 161.500 75.874 144 C 84.106 129.670, 86.955 123.557, 91.599 110.250 C 94.719 101.313, 97.583 94, 97.963 94 C 98.344 94, 100.063 100.188, 101.783 107.750 L 104.911 121.500 103.705 142.854 L 102.500 164.209 106.500 166.489 C 108.700 167.743, 115.568 171.542, 121.762 174.931 L 133.025 181.091 155.166 178.593 C 167.343 177.218, 177.618 175.735, 177.999 175.297 C 178.605 174.599, 181.016 147.289, 181.004 141.250 C 181 139.189, 180.536 139, 175.489 139 C 170.568 139, 168.146 139.917, 152.882 147.559 C 143.479 152.267, 135.654 155.979, 135.494 155.809 C 135.334 155.639, 134.241 146.270, 133.066 134.989 L 130.929 114.478 133.779 107.489 L 136.630 100.500 150.065 95.440 L 163.500 90.379 163.770 68.539 L 164.040 46.698 160.366 33.599 C 158.346 26.395, 156.394 20.155, 156.030 19.734 C 155.665 19.312, 147.186 21.925, 137.187 25.541 C 123.575 30.464, 117.977 32.038, 114.906 31.808 C 111.334 31.540, 112.916 30.866, 127.152 26.589 C 136.143 23.888, 143.779 21.413, 144.121 21.089 C 144.462 20.765, 145.033 19.262, 145.390 17.750 C 145.915 15.524, 145.701 15.019, 144.269 15.100 C 143.296 15.154, 130.800 17.632, 116.500 20.605 M 118.567 22.930 C 108.470 25.022, 101.369 26.928, 102.317 27.291 C 103.243 27.647, 104 28.414, 104 28.997 C 104 29.682, 100.200 30.030, 93.250 29.983 C 86.881 29.939, 80.055 30.511, 76.500 31.387 C 70.558 32.851, 70.666 32.864, 87.788 32.683 C 100.597 32.547, 105.281 32.168, 105.866 31.220 C 106.300 30.516, 114.045 27.698, 123.078 24.958 C 132.110 22.218, 139.950 19.792, 140.500 19.567 C 143.776 18.227, 134.120 19.707, 118.567 22.930 M 141.624 26.752 C 133.635 29.673, 132.154 30.513, 133.874 31.149 C 135.443 31.730, 136.006 32.795, 136.021 35.218 C 136.033 37.023, 136.682 46.589, 137.463 56.475 C 138.244 66.362, 138.652 74.687, 138.371 74.975 C 138.089 75.264, 134.178 75.967, 129.680 76.538 L 121.500 77.577 99.270 62.602 C 87.043 54.366, 77.176 47.490, 77.344 47.322 C 77.512 47.155, 85.041 44.364, 94.075 41.122 L 110.500 35.226 82.250 35.761 C 57.056 36.238, 54 36.126, 54 34.731 C 54 33.190, 57.393 32.136, 68.227 30.312 C 72.419 29.606, 72.443 29.579, 69.500 28.914 C 67.850 28.542, 60.378 28.183, 52.895 28.118 L 39.289 28 38.652 34.750 C 37.169 50.444, 37.922 69.996, 40.604 85.473 C 42.036 93.738, 43.371 100.672, 43.570 100.883 C 43.769 101.093, 49.459 100.567, 56.214 99.714 C 62.970 98.861, 68.576 98.243, 68.674 98.340 C 68.771 98.438, 66.072 108.493, 62.675 120.685 L 56.500 142.852 43.250 158.103 C 31.924 171.140, 28.001 177, 30.600 177 C 30.931 177, 38.542 173.063, 47.516 168.250 L 63.830 159.500 73.820 142 C 82.573 126.667, 84.706 121.927, 91.046 103.724 C 95.025 92.297, 98.426 83.093, 98.604 83.270 C 98.781 83.448, 100.904 91.897, 103.322 102.046 L 107.718 120.500 106.492 141.500 C 105.818 153.050, 105.325 162.582, 105.398 162.682 C 105.471 162.782, 111.823 166.315, 119.515 170.533 L 133.500 178.203 154.500 175.833 L 175.500 173.462 176.118 168.421 C 176.457 165.649, 177.061 158.602, 177.459 152.761 L 178.183 142.140 174.841 141.802 C 172.236 141.538, 167.345 143.518, 152.642 150.790 C 142.271 155.920, 133.573 159.907, 133.316 159.649 C 133.058 159.391, 131.773 149.127, 130.460 136.840 L 128.074 114.500 131.286 106.282 L 134.499 98.064 147.749 93.282 L 161 88.500 161.025 67.500 C 161.051 46.800, 161.004 46.332, 157.778 34.750 C 155.421 26.289, 154.085 23.020, 153.003 23.071 C 152.176 23.110, 147.056 24.767, 141.624 26.752 M 122 34.680 C 119.127 35.149, 84.848 47.029, 83.815 47.913 C 83.439 48.236, 91.844 54.386, 102.493 61.580 L 121.855 74.660 128.573 73.851 C 132.268 73.406, 135.424 72.909, 135.587 72.747 C 135.749 72.584, 135.246 64.137, 134.470 53.976 C 133.693 43.814, 133.044 35.163, 133.028 34.750 C 132.999 33.985, 126.513 33.944, 122 34.680" stroke="none" fill="black" fill-rule="evenodd"/>
</svg>