<svg xmlns="http://www.w3.org/2000/svg" width="200" height="200" viewBox="0 0 200 200" version="1.1">
	<path d="M 92.481 14.845 L 79.461 22.607 46.731 22.178 C 6.054 21.644, 5.234 22.134, 33.864 29.855 C 44.785 32.800, 54.261 35.543, 54.923 35.952 C 55.669 36.413, 51.159 39.648, 43.044 44.474 C 35.849 48.752, 29.756 52.585, 29.505 52.991 C 29.254 53.398, 38.509 60.131, 50.070 67.953 L 71.092 82.176 70.404 76.990 C 70.026 74.137, 68.530 63.495, 67.081 53.339 L 64.446 34.875 72.176 30.187 L 79.906 25.500 94.356 25.800 L 108.806 26.101 110.403 33.173 C 111.281 37.063, 112 42.964, 112 46.287 L 112 52.328 98.990 69.664 C 91.834 79.199, 85.536 87, 84.995 87 C 84.453 87, 77.595 86.307, 69.755 85.460 C 55.845 83.957, 55.008 83.979, 35.178 86.365 C 24.001 87.710, 14.581 89.086, 14.245 89.422 C 12.560 91.107, 17.295 91.832, 36.947 92.898 C 48.743 93.537, 58.465 94.160, 58.552 94.280 C 58.638 94.401, 57.762 103.618, 56.604 114.762 L 54.500 135.024 39.500 155.547 C 31.250 166.834, 24.373 176.435, 24.218 176.881 C 24.062 177.328, 26.970 178.196, 30.679 178.811 C 36.059 179.703, 37.733 179.664, 38.961 178.619 C 39.807 177.898, 48.842 170.531, 59.038 162.248 L 77.576 147.186 83.979 124.573 C 87.501 112.137, 90.658 102.082, 90.996 102.230 C 91.333 102.379, 94.622 103.805, 98.304 105.400 L 105 108.300 104.979 112.400 C 104.967 114.655, 104.305 124.600, 103.507 134.500 C 101.261 162.376, 99.528 157.680, 117.451 172.285 L 132.901 184.875 158.114 180.441 C 171.981 178.002, 183.442 175.891, 183.584 175.749 C 183.888 175.445, 179.870 130.637, 179.500 130.207 C 179.260 129.929, 173.833 135.539, 162.043 148.250 C 159.110 151.412, 156.397 154, 156.014 154 C 155.349 154, 145.533 145.334, 134.160 134.706 L 128.819 129.716 133.516 111.608 C 136.100 101.649, 138.728 93.169, 139.357 92.765 C 139.986 92.361, 147.295 92.024, 155.599 92.015 C 174.739 91.996, 186 91.080, 186 89.542 C 186 88.902, 178.860 85.851, 170.134 82.763 L 154.267 77.147 134.450 81.574 C 123.551 84.008, 114.491 86, 114.317 86 C 114.142 86, 114 78.879, 114 70.176 L 114 54.352 124.613 40.176 C 134.480 26.997, 137.002 24.577, 138.444 26.910 C 138.754 27.410, 136.080 36.481, 132.503 47.066 C 128.926 57.652, 126 66.867, 126 67.543 C 126 68.250, 128.018 69.055, 130.750 69.437 C 133.363 69.802, 136.963 70.353, 138.750 70.662 C 141.218 71.088, 142 70.863, 142 69.727 C 142 68.655, 140.369 68.028, 136.250 67.515 C 133.088 67.122, 130.199 66.616, 129.830 66.391 C 129.322 66.080, 141.475 27.517, 142.485 26.237 C 142.600 26.092, 147.037 27.990, 152.347 30.454 C 158.642 33.376, 162 35.489, 162 36.529 C 162 37.406, 160.830 42.191, 159.400 47.162 C 157.557 53.567, 157.111 56.511, 157.867 57.267 C 159.184 58.584, 159.203 58.537, 162.957 44.660 L 165.883 33.841 151.201 26.858 L 136.519 19.875 134.813 21.982 C 133.186 23.992, 132.587 24.053, 121.846 23.295 L 110.584 22.500 109.760 18.500 C 108.285 11.351, 106.938 6.999, 106.211 7.041 C 105.820 7.064, 99.641 10.576, 92.481 14.845 M 94.500 17 L 84.500 22.983 96.317 22.992 C 107.101 22.999, 108.090 22.847, 107.627 21.250 C 107.348 20.288, 106.625 17.587, 106.021 15.250 C 105.417 12.912, 104.828 11.004, 104.711 11.008 C 104.595 11.013, 100 13.709, 94.500 17 M 43.823 29.645 L 60.146 34.141 67.073 30.026 C 70.883 27.762, 74 25.706, 74 25.455 C 74 25.205, 63.538 25.033, 50.750 25.074 L 27.500 25.149 43.823 29.645 M 112.012 27.250 C 112.018 27.938, 112.688 30.975, 113.500 34 C 114.312 37.025, 114.982 41.482, 114.988 43.905 L 115 48.310 123 37.684 C 127.400 31.840, 131 26.820, 131 26.529 C 131 26.238, 126.725 26, 121.500 26 C 114.560 26, 112.003 26.337, 112.012 27.250 M 48 44.626 C 41.125 48.784, 35.127 52.540, 34.670 52.973 C 34.214 53.405, 41.301 58.780, 50.420 64.916 C 63 73.381, 67 75.636, 67 74.259 C 67 72.461, 63.539 46.494, 62.467 40.250 C 62.160 38.462, 61.592 37.015, 61.205 37.033 C 60.817 37.051, 54.875 40.468, 48 44.626 M 99.475 73.750 C 93 82.412, 87.593 89.639, 87.459 89.810 C 87.324 89.980, 80.304 89.365, 71.857 88.444 C 58.289 86.965, 55.102 86.928, 44.500 88.131 L 32.500 89.493 39.500 90.122 C 43.350 90.468, 49.736 90.807, 53.691 90.876 C 57.646 90.944, 61.071 91.338, 61.302 91.750 C 61.533 92.162, 60.692 102.292, 59.433 114.260 L 57.145 136.020 42.663 155.760 L 28.182 175.500 32.153 176.321 C 34.381 176.782, 36.645 176.751, 37.312 176.251 C 37.965 175.761, 46.704 168.717, 56.732 160.597 L 74.964 145.836 76.925 139.168 C 78.003 135.501, 80.992 125.075, 83.565 116 C 86.139 106.925, 88.425 99.188, 88.646 98.807 C 89.052 98.107, 105.766 105.400, 107.362 106.974 C 107.843 107.449, 107.427 118.943, 106.417 133.051 L 104.611 158.278 107.199 160.389 C 108.622 161.550, 115.151 166.872, 121.708 172.216 L 133.630 181.932 157.065 177.840 C 169.954 175.589, 180.575 173.692, 180.667 173.624 C 180.759 173.555, 180.084 164.984, 179.167 154.576 L 177.500 135.653 167.113 146.826 C 161.400 152.972, 156.450 157.991, 156.113 157.981 C 155.535 157.963, 143.056 146.822, 131.134 135.681 L 125.768 130.667 130.890 110.661 C 133.707 99.658, 136.180 90.486, 136.387 90.280 C 136.593 90.074, 145.928 89.589, 157.131 89.202 L 177.500 88.500 165.794 84.289 L 154.089 80.077 133.824 84.539 C 122.679 86.992, 112.943 89, 112.190 89 C 111.075 89, 110.884 86.120, 111.160 73.499 C 111.347 64.974, 111.443 57.999, 111.373 57.999 C 111.303 58, 105.949 65.088, 99.475 73.750" stroke="none" fill="black" fill-rule="evenodd"/>
</svg>