<svg xmlns="http://www.w3.org/2000/svg" width="200" height="200" viewBox="0 0 200 200" version="1.1">
	<path d="M 25.119 30.305 C 21.204 40.770, 18.114 49.447, 18.254 49.587 C 18.393 49.727, 26.156 50.120, 35.504 50.461 C 60.019 51.355, 60.617 51.462, 61.919 55.198 C 62.514 56.903, 63 59.058, 63 59.986 C 63 62.712, 54.081 66.385, 32.500 72.546 C 21.500 75.686, 11.963 78.539, 11.306 78.886 C 10.585 79.267, 17.080 85.836, 27.705 95.473 L 45.299 111.429 37.973 118.090 L 30.647 124.752 35.333 131.318 C 37.910 134.929, 40.258 138.509, 40.551 139.273 C 40.861 140.080, 35.195 148.105, 27.004 158.459 C 19.260 168.248, 13.106 176.439, 13.327 176.660 C 13.549 176.882, 28.003 174.732, 45.448 171.883 L 77.165 166.702 86.876 176.376 L 96.587 186.051 117.139 160.275 L 137.691 134.500 143.595 103.500 C 146.843 86.450, 149.611 73.625, 149.746 75 C 149.881 76.375, 150.649 89.425, 151.452 104 L 152.912 130.500 143.438 159.398 C 138.227 175.292, 134.084 188.394, 134.232 188.513 C 134.379 188.632, 144.715 180.578, 157.201 170.615 L 179.901 152.500 179.857 121.500 C 179.832 104.450, 179.511 86.450, 179.144 81.500 L 178.476 72.500 166.619 57.500 C 160.098 49.250, 154.183 42.164, 153.475 41.753 C 149.340 39.353, 123.867 30.414, 108.465 25.958 C 91.328 21, 56.912 13.067, 52.344 13.021 C 50.676 13.005, 50.306 13.453, 50.710 15 C 50.998 16.100, 51.068 16.995, 50.867 16.989 C 50.665 16.983, 46.391 15.695, 41.369 14.127 L 32.239 11.276 25.119 30.305 M 32.872 17.750 C 26.479 34.057, 22.060 46.394, 22.467 46.800 C 23.022 47.355, 59.268 49.066, 59.773 48.561 C 59.948 48.385, 58.355 42.031, 56.232 34.441 L 52.373 20.639 43.982 17.820 C 39.367 16.269, 35.221 15, 34.770 15 C 34.319 15, 33.465 16.238, 32.872 17.750 M 54.219 17.157 C 54.854 19.061, 106.136 34.998, 108.154 33.917 C 110.479 32.673, 110.697 32.733, 111.228 34.762 C 111.548 35.988, 114.549 37.415, 121.094 39.453 C 131.182 42.593, 133.172 43.613, 130.911 44.481 C 130.128 44.781, 125.231 43.693, 120.029 42.062 C 114.827 40.431, 110.505 39.187, 110.426 39.298 C 110.346 39.409, 109.534 49.675, 108.621 62.111 L 106.960 84.723 97.919 105.357 C 92.946 116.706, 89.157 126.445, 89.499 126.998 C 89.840 127.551, 90.995 133.705, 92.065 140.673 C 93.135 147.642, 94.124 153.457, 94.263 153.596 C 94.402 153.735, 100.246 140.945, 107.249 125.174 L 119.984 96.500 118 72.500 C 115.622 43.715, 115.665 46, 117.500 46 C 118.515 46, 119.017 47.051, 119.052 49.250 C 119.081 51.038, 119.913 62.615, 120.901 74.977 L 122.698 97.453 108.099 130.207 C 100.070 148.221, 93.245 162.969, 92.934 162.980 C 92.623 162.991, 91.546 156.812, 90.542 149.250 C 89.537 141.688, 88.134 133.250, 87.424 130.500 L 86.134 125.500 95.180 104.788 L 104.226 84.076 105.978 61.288 C 106.941 48.755, 107.596 38.343, 107.432 38.151 C 107.078 37.735, 70.089 59.734, 68.176 61.499 C 67.082 62.507, 67.234 64.114, 69.054 70.753 L 71.255 78.787 77.128 78.255 C 84.011 77.631, 83.557 76.160, 81.967 93.947 C 79.915 116.897, 79.143 117.166, 73.436 96.919 L 69.371 82.500 59.186 82.837 L 49 83.175 49 77.087 C 49 73.739, 48.633 71, 48.184 71 C 46.841 71, 16.724 79.942, 16.157 80.509 C 15.869 80.798, 16.053 81.398, 16.567 81.844 C 17.080 82.290, 24.647 89.141, 33.383 97.070 L 49.267 111.485 42.133 118.010 C 38.210 121.599, 35 124.881, 35 125.305 C 35 125.728, 37.241 129.265, 39.980 133.165 L 44.959 140.256 40.468 145.878 C 23.539 167.066, 19.113 173.002, 20.231 173.020 C 20.929 173.030, 34.240 170.929, 49.811 168.350 L 78.121 163.660 87.311 172.759 L 96.500 181.858 115 158.803 C 125.175 146.122, 133.856 135.136, 134.291 134.389 C 134.726 133.642, 137.767 118.962, 141.049 101.766 C 149.391 58.061, 148.949 60, 150.571 60 C 151.508 60, 152.015 61.119, 152.043 63.250 C 152.066 65.037, 152.894 81.125, 153.882 99 L 155.679 131.500 147.385 156.342 C 140.800 176.065, 139.489 180.907, 141.025 179.842 C 142.088 179.104, 150.596 172.425, 159.932 165 L 176.905 151.500 176.953 113.349 L 177 75.197 164.813 59.668 L 152.627 44.139 138.063 38.594 C 120.116 31.761, 93.783 24.210, 71.590 19.534 C 52.307 15.471, 53.721 15.664, 54.219 17.157 M 56.012 22.750 C 56.019 23.163, 57.151 27.550, 58.528 32.500 C 59.904 37.450, 61.491 43.188, 62.054 45.250 C 63.007 48.745, 63.335 49, 66.872 49 C 68.959 49, 70.928 49.262, 71.248 49.582 C 71.568 49.901, 71.187 51.701, 70.401 53.582 C 69.616 55.462, 69.181 57, 69.435 57 C 69.858 57, 95.369 41.834, 100.891 38.300 C 103.189 36.829, 102.390 36.483, 80.391 29.407 C 56.229 21.637, 55.993 21.572, 56.012 22.750 M 64.393 53.582 C 64.727 54.452, 65 55.892, 65 56.782 C 65 58.858, 66.544 57.266, 67.455 54.250 C 68.014 52.398, 67.750 52, 65.960 52 C 64.388 52, 63.954 52.438, 64.393 53.582 M 60.037 67.174 C 58.132 67.721, 55.416 68.992, 54.002 69.999 C 51.811 71.559, 51.489 72.434, 51.820 75.915 C 52.189 79.779, 52.386 80, 55.465 80 C 61.085 80, 68 78.769, 68 77.768 C 68 75.719, 64.822 66.005, 64.179 66.090 C 63.806 66.140, 61.941 66.628, 60.037 67.174 M 72.249 82.250 C 72.503 82.938, 73.749 87.455, 75.017 92.288 C 76.286 97.122, 77.648 100.722, 78.046 100.288 C 78.444 99.855, 79.080 95.338, 79.460 90.250 L 80.150 81 75.968 81 C 73.042 81, 71.925 81.375, 72.249 82.250" stroke="none" fill="black" fill-rule="evenodd"/>
</svg>