<svg xmlns="http://www.w3.org/2000/svg" width="200" height="200" viewBox="0 0 200 200" version="1.1">
	<path d="M 150.500 11.725 C 147.750 11.926, 134.700 12.938, 121.500 13.975 L 97.500 15.861 76.527 22.930 L 55.554 30 38.277 30 C 28.775 30, 21 30.237, 21 30.526 C 21 30.815, 25.292 39.921, 30.538 50.760 C 39.637 69.561, 40.129 70.919, 41.222 80.234 C 42.256 89.045, 42.570 90.004, 44.434 90.041 C 45.570 90.063, 47.932 91.307, 49.681 92.806 L 52.863 95.531 44.492 104.717 C 39.889 109.769, 35.647 114.791, 35.066 115.876 C 34.249 117.404, 34.938 121.352, 38.122 133.365 L 42.234 148.880 33.572 165.562 C 28.808 174.737, 25.043 182.369, 25.205 182.522 C 25.367 182.675, 39.450 177.224, 56.500 170.410 C 73.550 163.595, 87.607 158.015, 87.739 158.010 C 88.395 157.983, 96.997 145.455, 96.981 144.550 C 96.971 143.972, 94.289 138.623, 91.022 132.661 C 87.755 126.700, 85.626 122.234, 86.291 122.736 C 86.956 123.238, 95.825 130.391, 106 138.631 C 116.175 146.870, 125.034 153.933, 125.687 154.326 C 127.257 155.270, 142.317 125.991, 143 120.667 C 143.457 117.104, 144.080 118.421, 150.269 136.033 C 153.992 146.627, 156.814 155.519, 156.540 155.793 C 156.267 156.067, 151.421 155.367, 145.771 154.238 C 140.122 153.108, 135.360 152.320, 135.189 152.486 C 134.864 152.802, 144.379 171.928, 150.275 182.810 L 153.694 189.121 167.984 168.918 L 182.274 148.714 180.480 120.599 C 178.925 96.229, 178.833 88.797, 179.790 64.817 L 180.894 37.151 173.777 24.075 L 166.660 11 161.080 11.180 C 158.011 11.279, 153.250 11.525, 150.500 11.725 M 132 15.788 L 99.500 18.108 77.186 25.705 L 54.872 33.302 39.936 32.628 C 31.721 32.257, 25 32.119, 25 32.321 C 25 32.524, 29.015 41.008, 33.923 51.175 C 41.643 67.170, 42.939 70.612, 43.540 76.712 C 44.547 86.931, 44.307 86.761, 54.693 84.614 C 59.537 83.613, 64.018 82.503, 64.651 82.147 C 66.779 80.951, 112.701 30.503, 111.939 30.198 C 111.343 29.958, 77.174 41.555, 69.750 44.516 C 68.232 45.121, 68 46.668, 68 56.171 L 68 67.128 79.524 57.064 C 85.863 51.529, 91.488 47, 92.024 47 C 94.444 47, 92.242 49.486, 81.750 58.598 C 75.563 63.972, 69.263 69.495, 67.750 70.871 L 65 73.374 65 58.335 L 65 43.297 91.172 34.015 C 112.507 26.449, 117.680 24.943, 119.159 25.867 C 120.156 26.490, 123.566 27.002, 126.736 27.004 L 132.500 27.008 138.330 43.893 L 144.159 60.779 143.934 85.139 L 143.708 109.500 152.507 134.264 C 157.346 147.884, 161.114 159.219, 160.880 159.453 C 160.646 159.687, 155.994 159.014, 150.542 157.958 C 145.089 156.902, 140.443 156.223, 140.217 156.449 C 139.567 157.100, 153.413 182.998, 154.268 182.730 C 154.690 182.597, 160.428 174.870, 167.018 165.558 C 180.948 145.875, 179.808 151.252, 177.437 116.448 C 176.122 97.151, 176.052 89.080, 176.999 65.722 L 178.125 37.943 172.406 27.222 C 169.261 21.325, 166.196 15.818, 165.594 14.984 C 164.620 13.634, 160.946 13.722, 132 15.788 M 116.605 29.829 C 116.253 30.399, 121.485 46.496, 128.233 65.599 L 140.500 100.333 141 81.416 L 141.500 62.500 136.275 46.608 C 133.401 37.868, 130.926 30.599, 130.775 30.457 C 129.775 29.512, 117.147 28.953, 116.605 29.829 M 91.871 56.918 C 79.975 69.888, 70.321 80.596, 70.419 80.714 C 70.516 80.832, 76.048 79.641, 82.712 78.068 C 92.780 75.691, 96.032 74.429, 101.946 70.604 C 105.860 68.072, 109.498 66, 110.031 66 C 112.516 66, 110.369 68.161, 103.250 72.826 C 96.281 77.392, 94.089 78.228, 81.500 81.123 C 70.793 83.586, 66.853 84.935, 64.750 86.859 C 63.237 88.242, 62 89.655, 62 89.998 C 62 90.341, 64.362 91.224, 67.250 91.960 C 73.007 93.428, 100 105.858, 100 107.041 C 100 107.446, 97.102 110.190, 93.559 113.139 C 90.016 116.087, 87.091 118.780, 87.059 119.122 C 87.010 119.641, 118.562 145.712, 124.174 149.789 C 125.788 150.961, 126.571 149.834, 132.871 137.258 C 143.850 115.341, 144.118 118.640, 127.584 72.015 C 120.099 50.910, 113.869 33.573, 113.738 33.489 C 113.607 33.405, 103.767 43.948, 91.871 56.918 M 56.733 86.718 C 55.211 86.948, 54.225 87.555, 54.542 88.068 C 55.429 89.504, 58.612 89.172, 60 87.500 C 60.685 86.675, 60.852 86.067, 60.372 86.150 C 59.893 86.232, 58.255 86.488, 56.733 86.718 M 52.065 91.579 C 52.714 92.360, 53.891 93, 54.681 93 C 56.693 93, 55.460 91.354, 52.958 90.699 C 51.257 90.254, 51.097 90.412, 52.065 91.579 M 57.720 94.287 C 57.241 95.536, 82.772 117.048, 84.624 116.957 C 85.106 116.933, 87.891 114.771, 90.812 112.153 L 96.125 107.392 83.812 101.696 C 66.655 93.758, 58.781 91.522, 57.720 94.287 M 46.371 106.750 C 41.975 111.563, 38.050 116.049, 37.648 116.721 C 37.247 117.392, 38.755 125.042, 41.001 133.721 L 45.084 149.500 38.081 162.956 C 34.229 170.356, 31.255 176.589, 31.472 176.805 C 31.689 177.022, 44.069 172.379, 58.984 166.488 L 86.102 155.777 90.051 150.431 C 92.223 147.491, 94 144.782, 94 144.412 C 94 144.042, 91.234 138.735, 87.853 132.619 C 84.472 126.504, 81.697 120.909, 81.686 120.186 C 81.666 118.849, 56.797 98, 55.223 98 C 54.750 98, 50.767 101.938, 46.371 106.750" stroke="none" fill="black" fill-rule="evenodd"/>
</svg>