<svg xmlns="http://www.w3.org/2000/svg" width="200" height="200" viewBox="0 0 200 200" version="1.1">
	<path d="M 90.500 19.861 L 81.500 28.916 59 32 C 30.184 35.950, 30 35.985, 30 37.502 C 30 38.205, 32.925 39.813, 36.500 41.075 C 40.320 42.424, 43 43.948, 43 44.773 C 43 45.544, 40.975 54.945, 38.500 65.663 C 33.457 87.501, 33.534 87.001, 35.250 86.997 C 36.061 86.995, 38.223 79.352, 41.403 65.247 C 44.099 53.286, 46.349 43.106, 46.403 42.625 C 46.456 42.144, 44.548 41.081, 42.163 40.263 C 39.777 39.444, 38.202 38.449, 38.663 38.050 C 39.123 37.651, 49.175 36.065, 61 34.526 L 82.500 31.728 91.687 22.697 L 100.874 13.665 138.065 14.761 C 161.486 15.451, 175.650 16.250, 176.318 16.918 C 177.034 17.634, 177.314 29.907, 177.180 54.739 C 177.071 74.958, 177.465 102.975, 178.055 117 L 179.129 142.500 173.157 163.500 C 169.873 175.050, 166.720 184.396, 166.152 184.270 C 165.326 184.086, 132.313 163.530, 131.195 162.504 C 131.028 162.350, 136.145 160.943, 142.567 159.376 C 149.347 157.723, 154.465 155.952, 154.771 155.154 C 155.061 154.398, 152.616 145.616, 149.338 135.639 C 143.493 117.851, 143.392 117.352, 144.127 109.999 C 144.539 105.875, 144.901 93.500, 144.930 82.500 C 144.979 64.406, 144.700 60.975, 142 46.500 C 140.359 37.700, 139.012 30.231, 139.008 29.903 C 138.996 29.019, 109.974 18.693, 109.325 19.342 C 109.019 19.648, 109.233 21.229, 109.800 22.856 L 110.831 25.813 97.790 31.157 L 84.749 36.500 74.375 52.288 C 68.669 60.971, 64 68.335, 64 68.653 C 64 68.971, 66.525 68.915, 69.612 68.529 C 74.158 67.961, 75.072 68.082, 74.422 69.164 C 73.981 69.899, 68.018 77.150, 61.171 85.277 C 54.323 93.405, 48.928 100.261, 49.180 100.513 C 49.678 101.011, 83.019 95.315, 83.722 94.612 C 83.957 94.377, 84.638 89.345, 85.237 83.429 L 86.324 72.673 94.169 88.337 L 102.013 104.001 91.756 122.945 L 81.500 141.888 62.673 157.778 L 43.846 173.669 36.697 174.775 C 32.765 175.384, 29.411 175.744, 29.243 175.577 C 29.076 175.409, 38.144 166.829, 49.397 156.510 C 69.007 138.526, 69.813 137.640, 68.845 135.124 C 68.289 133.681, 65.574 126.200, 62.811 118.500 C 60.048 110.800, 57.673 104.375, 57.533 104.223 C 57.393 104.070, 49.943 106.660, 40.978 109.978 C 32.012 113.296, 24.573 115.896, 24.445 115.755 C 24.317 115.615, 25.445 111.359, 26.951 106.298 C 29.097 99.090, 29.405 96.986, 28.375 96.590 C 27.462 96.240, 26.421 98.291, 24.975 103.293 C 23.828 107.257, 22.241 112.489, 21.448 114.920 C 20.655 117.350, 20.209 119.542, 20.457 119.790 C 20.705 120.038, 28.610 117.429, 38.024 113.991 C 47.473 110.541, 55.484 108.135, 55.907 108.621 C 56.837 109.688, 66.009 135.067, 66.004 136.558 C 66.001 137.399, 34.174 167.394, 22.191 177.848 L 19.500 180.196 24 179.574 C 26.475 179.232, 32.325 178.257, 37 177.408 L 45.500 175.864 64.500 159.808 L 83.500 143.752 92.839 126.626 C 97.976 117.207, 102.499 109.162, 102.890 108.749 C 103.282 108.336, 108.944 118.811, 115.472 132.028 C 122.001 145.244, 127.683 155.707, 128.100 155.279 C 128.715 154.646, 132.575 144.823, 140.914 122.670 C 141.384 121.421, 143.282 125.985, 146.888 137.034 C 149.794 145.941, 151.796 153.567, 151.336 153.981 C 150.876 154.396, 145.325 155.981, 139 157.505 C 123.887 161.146, 123.788 161.210, 128.584 164.233 C 160.827 184.555, 168.246 189.088, 168.633 188.701 C 168.884 188.449, 172.026 177.726, 175.615 164.872 L 182.140 141.500 181.070 121.750 C 180.482 110.888, 179.997 85.013, 179.993 64.250 C 179.989 43.488, 179.705 23.529, 179.362 19.897 L 178.738 13.294 160.119 12.660 C 149.879 12.311, 132.050 11.752, 120.500 11.416 L 99.500 10.806 90.500 19.861 M 113.247 24.250 C 113.500 24.938, 119.961 44.838, 127.604 68.474 L 141.500 111.448 142 88.474 C 142.484 66.213, 142.406 64.973, 139.486 48.500 L 136.472 31.500 125.486 27.315 C 113.210 22.638, 112.596 22.484, 113.247 24.250 M 97.257 46.337 C 89.423 55.692, 83.123 63.453, 83.257 63.583 C 83.391 63.714, 90.579 62.877, 99.231 61.724 C 107.883 60.572, 115.245 59.912, 115.592 60.259 C 116.332 60.999, 108.397 95.911, 106.344 100.945 C 104.948 104.368, 105.013 104.541, 116.234 127.325 L 127.529 150.259 133.764 133.806 C 137.194 124.756, 140 116.988, 140 116.542 C 140 115.441, 112.933 31.780, 112.135 30.413 C 111.784 29.814, 105.117 36.949, 97.257 46.337 M 95.169 35.332 L 85.838 39.500 77.472 52.470 C 72.872 59.604, 69.196 65.509, 69.304 65.593 C 69.412 65.677, 71.503 65.465, 73.951 65.123 C 78.226 64.525, 78.910 63.906, 91.215 49.500 C 104.034 34.491, 106.756 30.928, 105.285 31.082 C 104.853 31.128, 100.301 33.040, 95.169 35.332 M 97.536 64.656 C 92.055 65.448, 87.350 66.317, 87.079 66.588 C 86.808 66.858, 90.390 74.728, 95.038 84.076 C 101.305 96.680, 103.677 100.610, 104.217 99.286 C 104.618 98.304, 106.548 90.525, 108.507 82 C 110.465 73.475, 112.307 65.713, 112.601 64.750 C 113.251 62.619, 111.705 62.609, 97.536 64.656 M 67.658 81.750 C 60.804 89.862, 55.490 96.603, 55.849 96.729 C 56.207 96.856, 62.125 95.950, 69 94.716 L 81.500 92.473 82.134 86.487 C 84.336 65.711, 84.336 67, 82.139 67 C 80.766 67, 76.124 71.728, 67.658 81.750" stroke="none" fill="black" fill-rule="evenodd"/>
</svg>