<svg xmlns="http://www.w3.org/2000/svg" width="200" height="200" viewBox="0 0 200 200" version="1.1">
	<path d="M 52.720 24.256 C 33.040 30.340, 17.065 35.672, 17.220 36.107 C 17.374 36.541, 22.419 40.857, 28.432 45.698 C 34.444 50.539, 39.804 55.229, 40.344 56.119 C 41.128 57.414, 38.392 61.159, 26.662 74.845 C 18.598 84.253, 12 92.200, 12 92.503 C 12 92.806, 18.736 101.920, 26.968 112.756 L 41.936 132.457 39.584 134.979 C 36.506 138.279, 12.916 167.964, 13.246 168.122 C 13.386 168.188, 26.100 168.585, 41.500 169.004 L 69.500 169.764 79.821 173.882 C 85.497 176.147, 90.736 178, 91.464 178 C 92.191 178, 100.827 172.678, 110.656 166.173 L 128.525 154.347 136.994 115.705 C 141.652 94.452, 145.753 77.386, 146.107 77.782 C 147.778 79.646, 156.138 107.311, 155.630 109.294 C 155.319 110.507, 149.243 125.225, 142.127 142 C 133.174 163.109, 129.546 172.726, 130.345 173.235 C 131.650 174.065, 173 174.292, 173 173.469 C 173 173.176, 175.022 155.640, 177.494 134.498 L 181.988 96.058 173.209 73.266 L 164.430 50.473 154.608 38.236 C 149.206 31.506, 144.491 26, 144.132 26 C 143.772 26, 135.846 33.641, 126.519 42.981 L 109.560 59.962 113.872 91.115 C 116.243 108.250, 117.790 122.546, 117.309 122.884 C 106.306 130.634, 100.850 133.913, 103.261 131.328 L 106.022 128.368 105.348 97.618 L 104.675 66.869 99.588 64.314 C 96.789 62.909, 94.343 61.619, 94.150 61.446 C 93.861 61.188, 97.243 38.567, 98.431 32.815 C 98.622 31.888, 98.211 30.911, 97.517 30.645 C 95.394 29.830, 78.174 55.855, 79.460 57.935 C 79.738 58.386, 82.444 59.760, 85.474 60.989 C 90.137 62.882, 90.907 63.553, 90.493 65.362 C 90.225 66.538, 88.868 74.673, 87.479 83.440 C 86.089 92.208, 84.851 99.453, 84.726 99.541 C 84.372 99.792, 47.680 104.019, 46 104.002 C 45.175 103.994, 50.992 100.430, 58.927 96.082 C 71.922 88.961, 73.833 87.561, 78.177 81.971 C 80.830 78.557, 83 75.368, 83 74.882 C 83 72.667, 80.628 74.476, 76.407 79.912 C 72.224 85.298, 70.247 86.686, 54.158 95.535 C 44.446 100.877, 36.305 105.424, 36.067 105.640 C 35.828 105.856, 36.063 106.463, 36.587 106.987 C 37.192 107.592, 45.210 107.041, 58.521 105.478 C 70.059 104.123, 80.115 103.012, 80.866 103.008 C 81.940 103.002, 82.105 104.339, 81.635 109.250 C 79.789 128.564, 79.715 132, 81.148 132 C 82.221 132, 83.809 124.137, 87.859 98.751 C 90.777 80.465, 93.315 65.352, 93.499 65.168 C 93.683 64.984, 95.896 65.745, 98.417 66.860 L 103 68.888 103 98.394 L 103 127.900 89.250 139.605 C 81.688 146.043, 75.181 151.581, 74.792 151.913 C 74.402 152.245, 74.412 153.049, 74.815 153.700 C 75.308 154.498, 82.810 149.885, 97.833 139.548 C 110.091 131.114, 120.350 123.983, 120.631 123.703 C 120.912 123.422, 119.310 110.173, 117.071 94.260 C 114.832 78.348, 113 64.237, 113 62.902 C 113 61.105, 116.959 56.523, 128.262 45.238 C 136.656 36.857, 143.779 30, 144.092 30 C 144.405 30, 148.571 34.916, 153.350 40.924 C 162.004 51.804, 162.074 51.939, 170.581 74.035 L 179.122 96.222 174.828 133.611 L 170.534 171 151.660 171 C 136.950 171, 132.901 170.724, 133.307 169.750 C 133.593 169.063, 139.530 155.054, 146.499 138.620 C 161.168 104.033, 160.579 111.008, 151.196 83.014 C 146.678 69.534, 145.193 66.097, 144.712 68.014 C 144.370 69.381, 140.241 87.986, 135.536 109.359 C 130.832 130.731, 126.724 149.253, 126.406 150.519 C 126.005 152.118, 120.733 156.205, 109.135 163.910 C 99.954 170.010, 91.908 175, 91.255 175 C 90.602 175, 85.440 173.195, 79.784 170.990 L 69.500 166.979 44.250 166.329 C 30.362 165.972, 19 165.505, 19 165.290 C 19 164.561, 40.759 137.509, 42.884 135.595 C 44.048 134.547, 45 133.285, 45 132.790 C 45 132.296, 38.268 123.069, 30.039 112.287 L 15.078 92.684 18.943 88.092 C 21.068 85.566, 27.759 77.678, 33.811 70.562 L 44.816 57.625 42.318 54.350 C 40.944 52.549, 35.738 47.851, 30.748 43.909 L 21.675 36.743 52.077 27.444 C 68.797 22.329, 82.568 18.235, 82.678 18.344 C 82.972 18.638, 43.502 72.641, 41.611 74.532 C 39.697 76.446, 39.486 79.023, 41.250 78.943 C 41.938 78.912, 51.500 66.470, 62.500 51.295 C 90.065 13.269, 90.262 12.988, 89.329 13.098 C 88.873 13.152, 72.399 18.173, 52.720 24.256 M 90.337 43.339 C 86.415 49.144, 83 55.240, 83 56.437 C 83 57.316, 90.257 60.076, 90.894 59.439 C 91.455 58.879, 95.088 37.749, 94.691 37.363 C 94.586 37.261, 92.627 39.950, 90.337 43.339" stroke="none" fill="black" fill-rule="evenodd"/>
</svg>