<svg xmlns="http://www.w3.org/2000/svg" width="200" height="200" viewBox="0 0 200 200" version="1.1">
	<path d="M 61.959 5.250 C 61.936 5.388, 61.335 12.074, 60.625 20.110 L 59.332 34.719 48.145 53.173 C 39.076 68.133, 34.696 74.169, 25.008 85.063 C 13.916 97.536, 11.652 100.998, 15.125 100.174 C 15.881 99.995, 24.611 95.602, 34.523 90.413 L 52.547 80.977 67.722 65.739 L 82.897 50.500 85.200 41.242 L 87.503 31.983 101.302 45.242 L 115.101 58.500 113.886 74.092 L 112.671 89.683 81.086 90.358 C 63.713 90.729, 46.902 91.314, 43.727 91.659 L 37.955 92.284 52.477 100.223 C 60.465 104.589, 67 108.748, 67 109.464 C 67 110.180, 63.826 119.031, 59.946 129.133 L 52.892 147.500 36.696 163.854 L 20.500 180.208 25 179.631 C 27.475 179.314, 32.362 178.754, 35.860 178.386 L 42.220 177.717 60.831 162.608 L 79.442 147.500 86.471 129.304 L 93.500 111.109 105.301 101.939 C 111.792 96.896, 117.235 92.934, 117.396 93.135 C 117.557 93.336, 119.141 100.925, 120.917 110 C 122.693 119.075, 124.369 127.442, 124.642 128.593 C 125.019 130.183, 122.354 133.907, 113.551 144.093 C 102.141 157.295, 101.853 157.540, 94.732 160.117 C 90.754 161.556, 87.500 162.996, 87.500 163.317 C 87.500 163.985, 125.109 187.273, 125.434 186.806 C 125.551 186.638, 130.841 178.175, 137.189 168 L 148.732 149.500 150.916 128.653 L 153.101 107.806 148.417 93.653 C 145.840 85.869, 143.262 78.907, 142.687 78.182 C 142.113 77.457, 140.210 76.107, 138.460 75.182 C 136.709 74.257, 131.375 69.865, 126.606 65.422 L 117.935 57.344 118.619 47.623 C 118.995 42.276, 119.664 38.264, 120.105 38.705 C 120.547 39.147, 122.530 44.007, 124.511 49.504 C 126.493 55.002, 129.201 61.075, 130.530 63 C 131.858 64.925, 138.962 72.498, 146.316 79.830 L 159.687 93.160 172.714 82.129 C 179.879 76.062, 185.975 70.204, 186.261 69.111 C 186.719 67.359, 184.389 66.108, 166.634 58.569 L 146.488 50.015 132.561 36.061 C 124.902 28.387, 118.347 22.286, 117.995 22.503 C 117.644 22.720, 107.564 21.152, 95.597 19.017 L 73.837 15.136 68.479 10.068 C 63.748 5.595, 62.103 4.379, 61.959 5.250 M 64 12 C 64 13.381, 64.667 14, 66.155 14 C 68.247 14, 68.257 13.941, 66.500 12 C 65.505 10.900, 64.535 10, 64.345 10 C 64.155 10, 64 10.900, 64 12 M 63.553 18.250 C 63.341 18.938, 62.906 23.100, 62.586 27.500 L 62.004 35.500 50.845 54 C 40.808 70.640, 35.816 77.326, 22.569 91.870 C 19.672 95.050, 20.229 94.857, 32.500 88.426 C 50.750 78.862, 49.410 79.851, 65.755 63.872 L 80.577 49.381 82.837 39.539 L 85.098 29.697 81.799 26.285 C 78.750 23.132, 67.706 17, 65.076 17 C 64.450 17, 63.764 17.563, 63.553 18.250 M 83.809 21.131 C 88.705 23.143, 89.094 23.544, 88.809 26.287 C 88.533 28.948, 89.872 30.559, 101.487 41.544 C 108.629 48.299, 114.758 53.650, 115.106 53.434 C 116.048 52.852, 117.266 31.486, 116.545 28.203 C 115.928 25.397, 115.782 25.347, 100.211 22.585 C 77.843 18.618, 77.654 18.601, 83.809 21.131 M 120 28.515 C 120 29.057, 122.674 36.669, 125.943 45.430 L 131.885 61.359 145.679 75.180 C 153.266 82.781, 159.704 88.991, 159.987 88.980 C 160.269 88.969, 165.819 84.467, 172.321 78.975 L 184.142 68.990 179.321 66.919 C 176.669 65.779, 167.975 62.123, 160 58.794 L 145.500 52.741 132.750 40.135 C 125.737 33.202, 120 27.972, 120 28.515 M 117.868 61.025 C 117.453 62.518, 115.349 89.567, 115.622 89.893 C 115.803 90.108, 116.648 89.707, 117.500 89 C 118.352 88.293, 119.183 87.892, 119.348 88.107 C 119.513 88.323, 121.374 97.500, 123.484 108.500 C 125.593 119.500, 127.478 129.175, 127.672 130 C 127.976 131.298, 105.737 158.176, 102.634 160.262 C 102.010 160.680, 99.553 161.530, 97.174 162.150 C 93.680 163.059, 93.103 163.511, 94.174 164.498 C 96.262 166.422, 124.050 183.285, 124.450 182.871 C 124.648 182.667, 129.533 175.046, 135.306 165.936 L 145.803 149.372 148.053 128.893 L 150.303 108.413 145.552 94.156 C 140.950 80.347, 140.670 79.819, 136.650 77.340 C 134.368 75.932, 129.238 71.579, 125.250 67.665 C 121.263 63.752, 117.941 60.764, 117.868 61.025 M 56 93.936 L 47.500 94.500 59.250 100.817 C 65.713 104.292, 71 107.303, 71 107.510 C 71 107.716, 67.402 117.240, 63.004 128.675 L 55.009 149.464 41.754 162.849 L 28.500 176.233 34.866 175.620 L 41.233 175.006 57.965 161.499 C 67.168 154.070, 75.399 147.206, 76.257 146.246 C 77.115 145.286, 80.814 136.625, 84.478 127 L 91.138 109.500 101.715 101.250 L 112.292 93 88.396 93.186 C 75.253 93.289, 60.675 93.626, 56 93.936" stroke="none" fill="black" fill-rule="evenodd"/>
</svg>