<svg xmlns="http://www.w3.org/2000/svg" width="200" height="200" viewBox="0 0 200 200" version="1.1">
	<path d="M 36.533 20.593 C 36.990 23.024, 35.427 26.102, 27 39.377 C 21.456 48.109, 17.099 55.433, 17.318 55.651 C 17.734 56.068, 54.859 59.947, 58.750 59.981 C 59.987 59.991, 60.988 60.337, 60.973 60.750 C 60.957 61.163, 54.621 70.050, 46.890 80.500 C 39.160 90.950, 30.786 102.343, 28.281 105.818 L 23.727 112.136 27.281 115.818 C 30.671 119.331, 30.977 120.257, 33.942 136 C 35.652 145.075, 37.300 153.738, 37.605 155.250 C 37.911 156.770, 38.825 158, 39.647 158 C 40.581 158, 40.955 157.349, 40.651 156.250 C 40.385 155.287, 38.706 146.625, 36.920 137 C 34 121.267, 33.349 119.096, 30.479 115.500 L 27.285 111.500 46.755 85.196 C 57.463 70.728, 66.005 58.672, 65.736 58.403 C 65.467 58.134, 55.332 56.961, 43.212 55.797 L 21.177 53.679 23.450 50.090 C 24.701 48.115, 29.004 41.325, 33.014 35 C 37.023 28.675, 40.311 22.938, 40.319 22.250 C 40.339 20.552, 46.869 20.621, 111.320 23.005 L 165.140 24.995 171.575 30.679 L 178.010 36.364 177.399 87.432 L 176.788 138.500 165.800 159 C 159.756 170.275, 154.437 179.894, 153.980 180.376 C 153.286 181.107, 120.831 158.153, 119.490 155.984 C 119.255 155.603, 126.361 151.356, 135.281 146.544 C 144.202 141.733, 152.001 137.280, 152.614 136.648 C 153.316 135.925, 154.165 125.283, 154.905 107.924 L 156.082 80.347 149.043 60.481 C 144.397 47.366, 142.373 40.387, 143.089 39.945 C 143.684 39.577, 147.568 39.019, 151.719 38.705 C 159.023 38.152, 162.324 36.936, 160.155 35.596 C 159.065 34.922, 56.617 22, 52.365 22 C 47.677 22, 50.490 24.317, 65.066 32.458 C 73.005 36.892, 80.361 41.025, 81.413 41.641 C 83.266 42.727, 83.189 43.344, 79.012 61.066 C 73.663 83.758, 73.258 82.637, 90.355 92.500 L 93.822 94.500 88.736 110.750 C 85.938 119.688, 83.332 127, 82.945 127 C 82.558 127, 76.996 121.991, 70.585 115.869 C 64.174 109.747, 58.807 104.909, 58.657 105.119 C 58.508 105.328, 59.585 120.350, 61.050 138.500 C 62.515 156.650, 63.602 171.639, 63.465 171.809 C 63.328 171.978, 56.114 174.119, 47.435 176.565 C 38.755 179.012, 31.461 181.205, 31.227 181.440 C 30.992 181.675, 31.062 182.291, 31.382 182.809 C 31.881 183.617, 65.393 175.083, 66.355 173.904 C 66.536 173.682, 65.634 160.675, 64.349 145 C 63.065 129.325, 62.123 115.512, 62.257 114.304 C 62.463 112.440, 64.174 113.677, 73.585 122.493 L 84.669 132.877 90.497 114.189 C 93.702 103.910, 96.510 94.977, 96.736 94.337 C 96.962 93.697, 93.852 91.274, 89.824 88.951 C 81.152 83.950, 78 81.277, 78 78.922 C 78 77.971, 79.844 69.489, 82.098 60.073 C 84.352 50.657, 85.983 42.399, 85.723 41.721 C 85.464 41.044, 79.154 37.120, 71.703 33.001 C 64.251 28.882, 58.232 25.435, 58.327 25.341 C 58.574 25.097, 144.060 35.853, 145.384 36.295 C 145.988 36.496, 137.603 37.495, 126.752 38.514 C 115.901 39.534, 106.573 40.646, 106.023 40.986 C 105.368 41.390, 105.475 43.995, 106.332 48.551 C 107.343 53.925, 107.444 60.940, 106.778 79.500 L 105.916 103.500 95.918 130.559 C 82.998 165.530, 78.609 179.913, 80.621 180.685 C 81.427 180.994, 82.179 181.062, 82.293 180.837 C 82.407 180.611, 91.374 171.443, 102.221 160.463 L 121.942 140.500 127.931 114.500 C 131.225 100.200, 135.376 79.162, 137.156 67.750 C 138.935 56.337, 140.641 47.006, 140.946 47.013 C 141.251 47.020, 144.145 54.557, 147.377 63.763 L 153.254 80.500 152.119 105 C 151.495 118.475, 150.988 130.696, 150.992 132.158 C 150.999 134.575, 149.387 135.696, 133.250 144.490 C 123.488 149.810, 115.149 154.500, 114.719 154.912 C 114.290 155.324, 122.985 162.320, 134.043 170.457 C 145.100 178.595, 154.509 184.858, 154.951 184.376 C 155.394 183.894, 160.946 173.902, 167.290 162.171 L 178.825 140.841 179.381 131.671 C 179.687 126.627, 180.146 102.921, 180.402 78.991 L 180.867 35.483 173.649 28.868 L 166.432 22.253 121.966 20.625 C 97.510 19.729, 68.160 18.701, 56.744 18.341 L 35.987 17.686 36.533 20.593 M 121.554 41.653 C 114.434 42.426, 108.497 43.170, 108.360 43.306 C 108.224 43.443, 108.580 45.567, 109.152 48.027 C 109.828 50.940, 109.948 61.524, 109.495 78.383 L 108.799 104.266 99.359 129.376 C 90.918 151.826, 84 172.024, 84 174.214 C 84 174.651, 91.987 166.857, 101.750 156.896 L 119.500 138.783 125.177 114.142 C 128.299 100.589, 132.490 79.150, 134.491 66.500 C 136.491 53.850, 138.355 42.712, 138.632 41.750 C 139.224 39.689, 139.632 39.691, 121.554 41.653" stroke="none" fill="black" fill-rule="evenodd"/>
</svg>