<svg xmlns="http://www.w3.org/2000/svg" width="200" height="200" viewBox="0 0 200 200" version="1.1">
	<path d="M 58.380 18.750 C 58.708 24.113, 59.261 33.337, 59.608 39.250 L 60.239 50 38.244 50 C 15.802 50, 10 50.466, 10 52.267 C 10 53.277, 61.503 52.831, 62.522 51.811 C 62.781 51.552, 62.559 43.750, 62.028 34.472 C 61.497 25.195, 61.201 17.465, 61.371 17.296 C 61.541 17.126, 67.571 24.526, 74.772 33.740 C 86.941 49.312, 87.752 50.617, 86.277 52.246 C 84.834 53.841, 82.069 54, 55.845 54 C 29.644 54, 27 54.152, 27 55.659 C 27 57.179, 29.306 57.266, 54.500 56.706 C 69.625 56.370, 82 56.468, 82 56.925 C 82 57.382, 81.286 58.348, 80.414 59.072 C 79.363 59.944, 79.012 61.311, 79.375 63.123 C 80.001 66.255, 79.458 66.458, 67.500 67.562 C 61.077 68.155, 27.850 75.357, 25.859 76.587 C 25.386 76.879, 25 91.221, 25 108.458 L 25 139.797 30.541 166.107 C 33.589 180.577, 36.217 192.550, 36.381 192.715 C 36.546 192.879, 39.790 186.599, 43.590 178.758 C 58.755 147.472, 63.050 139.385, 62.581 143 C 60.650 157.885, 58.701 177.034, 59.079 177.412 C 59.331 177.665, 67.517 175.583, 77.269 172.787 L 95 167.702 95.058 153.601 C 95.089 145.845, 95.427 137.766, 95.808 135.647 L 96.500 131.793 111.855 149.397 C 120.301 159.079, 127.580 167, 128.032 167 C 128.484 167, 128.999 166.355, 129.177 165.567 C 129.381 164.662, 134.425 168.553, 142.863 176.121 C 150.212 182.714, 156.429 187.904, 156.678 187.655 C 156.927 187.406, 160.700 174.219, 165.062 158.351 L 172.993 129.500 172.882 111.500 C 172.822 101.600, 172.486 87.673, 172.136 80.551 L 171.500 67.603 155.500 63.798 C 139.285 59.943, 133.974 59.605, 122.145 61.675 C 118.968 62.231, 118.850 62.148, 119.930 60.131 C 121.013 58.107, 121.796 58, 135.578 58 L 150.085 58 165.543 49.914 C 174.387 45.287, 181 41.223, 181 40.414 C 181 39.636, 180.887 39.001, 180.750 39.002 C 180.613 39.003, 169.033 41.448, 155.017 44.436 C 141.001 47.423, 129.418 49.751, 129.276 49.609 C 129.134 49.467, 134.468 42.936, 141.129 35.095 C 148.303 26.650, 152.872 20.472, 152.339 19.939 C 151.806 19.406, 144.323 26.164, 133.980 36.520 L 116.521 54 109.177 54 C 105.138 54, 101.983 53.641, 102.167 53.203 C 102.350 52.764, 107.394 44.630, 113.375 35.128 C 119.872 24.806, 123.885 17.485, 123.344 16.944 C 122.803 16.403, 116.014 22.472, 106.481 32.019 C 97.704 40.809, 90.249 48, 89.913 48 C 89.577 48, 82.451 39.225, 74.076 28.500 C 65.702 17.775, 58.610 9, 58.317 9 C 58.024 9, 58.053 13.387, 58.380 18.750 M 102.560 39.940 C 93.174 49.355, 91.835 51.096, 92.950 52.440 C 95.319 55.294, 98.335 54.297, 101.088 49.750 C 102.503 47.413, 105.990 41.788, 108.837 37.250 C 111.684 32.712, 113.890 29, 113.740 29 C 113.589 29, 108.558 33.923, 102.560 39.940 M 148 48.615 C 136.725 51.042, 126.825 53.340, 126 53.720 C 125.175 54.101, 129.900 54.699, 136.500 55.050 L 148.500 55.687 159.500 49.861 C 165.550 46.657, 170.050 44.072, 169.500 44.118 C 168.950 44.163, 159.275 46.187, 148 48.615 M 84.052 58.445 C 82.334 60.274, 81.921 61.551, 82.415 63.516 C 82.973 65.741, 83.489 66.060, 85.787 65.603 C 87.279 65.306, 94.125 64.536, 101 63.893 C 107.875 63.249, 113.625 62.622, 113.778 62.500 C 113.931 62.378, 113.605 61.090, 113.053 59.639 C 112.115 57.173, 111.636 57, 105.765 57 C 100.453 57, 99.277 57.327, 98.162 59.112 L 96.843 61.224 94.117 58.612 C 90.702 55.340, 87.026 55.279, 84.052 58.445 M 116 58 C 116 58.550, 116.450 59, 117 59 C 117.550 59, 118 58.550, 118 58 C 118 57.450, 117.550 57, 117 57 C 116.450 57, 116 57.450, 116 58 M 126 63.680 C 123.525 63.926, 121.131 64.490, 120.680 64.934 C 120.228 65.378, 123.749 73.510, 128.502 83.005 L 137.145 100.268 136.514 107.384 C 135.891 114.410, 135.978 114.760, 143.399 134.967 C 148.412 148.617, 150.550 155.660, 149.818 156.113 C 149.214 156.486, 145.295 157.091, 141.110 157.458 C 131.934 158.262, 129.980 158.768, 130.066 160.317 C 130.124 161.360, 153.007 182.104, 154.816 182.754 C 155.204 182.893, 158.788 170.968, 162.781 156.254 L 170.040 129.500 170.020 99.841 L 170 70.183 156.750 66.995 C 143.516 63.812, 134.490 62.838, 126 63.680 M 94.250 67.248 C 88.530 67.842, 84.998 68.645, 84.995 69.354 C 84.988 70.725, 91.011 86.160, 91.993 87.290 C 92.574 87.958, 95.672 84.564, 109.836 67.750 C 111.202 66.128, 111.024 66.011, 107.405 66.144 C 105.257 66.223, 99.338 66.720, 94.250 67.248 M 104.288 78.585 L 93.217 91.500 94.609 94.872 C 95.575 97.215, 96.008 102.710, 96.025 112.872 L 96.050 127.500 109.105 142.250 C 116.286 150.363, 122.687 156.993, 123.330 156.985 C 126.726 156.940, 127.358 154.829, 130.072 134.489 L 132.835 113.787 125.306 93.143 C 121.166 81.790, 117.234 70.963, 116.568 69.085 L 115.358 65.670 104.288 78.585 M 66.500 70.433 C 61.550 71.087, 50.862 73.150, 42.750 75.016 L 28 78.409 27.985 109.455 L 27.970 140.500 32.696 162.885 L 37.423 185.270 42.474 174.885 C 45.252 169.173, 51.250 156.738, 55.804 147.250 C 61.319 135.759, 64.607 130, 65.653 130 C 66.873 130, 67.097 130.724, 66.659 133.250 C 65.412 140.450, 61.881 173.214, 62.307 173.640 C 62.558 173.891, 69.291 172.222, 77.271 169.930 L 91.778 165.764 92.503 146.928 L 93.228 128.091 85.864 119.627 C 81.814 114.972, 78.050 111.152, 77.500 111.139 C 76.950 111.126, 72.244 116.246, 67.043 122.518 C 61.842 128.789, 57.487 133.821, 57.366 133.700 C 57.245 133.579, 55.526 127.047, 53.547 119.185 L 49.947 104.890 52.365 98.187 L 54.783 91.483 52.259 85.174 C 47.900 74.281, 50.549 75.647, 64.451 91.463 C 71.478 99.458, 77.341 106, 77.479 106 C 77.618 106, 80.520 102.628, 83.930 98.506 L 90.129 91.012 85.868 80.006 C 80.976 67.370, 82.811 68.277, 66.500 70.433 M 124.315 82 C 124.544 82.825, 126.704 88.900, 129.115 95.500 C 133.029 106.211, 133.533 107.107, 133.805 103.840 C 134.040 101.019, 132.940 97.925, 129.004 90.340 C 126.196 84.928, 124.086 81.175, 124.315 82 M 56.520 88.029 C 57.639 91.508, 57.596 91.826, 55.057 99.037 L 52.780 105.500 55.677 116.898 L 58.573 128.296 66.887 118.631 C 71.460 113.316, 74.969 108.412, 74.685 107.733 C 73.530 104.972, 55.775 85.713, 56.520 88.029 M 85.115 101.246 C 82.302 104.681, 80.018 107.943, 80.039 108.496 C 80.061 109.048, 82.914 112.608, 86.380 116.407 L 92.680 123.313 93.348 112.327 C 93.985 101.834, 93.066 95, 91.017 95 C 90.584 95, 87.928 97.811, 85.115 101.246 M 134.614 122.107 C 133.942 124.266, 129.996 155.329, 130.348 155.681 C 130.766 156.099, 146.209 154.125, 146.749 153.585 C 147.115 153.218, 136.234 122.164, 135.369 121.107 C 135.192 120.891, 134.852 121.341, 134.614 122.107" stroke="none" fill="black" fill-rule="evenodd"/>
</svg>