<svg xmlns="http://www.w3.org/2000/svg" width="200" height="200" viewBox="0 0 200 200" version="1.1">
	<path d="M 64.915 6.780 C 63.587 8.309, 57.671 15.012, 51.768 21.676 L 41.036 33.793 31.462 59.473 L 21.887 85.154 26.970 125.827 C 29.766 148.197, 32.297 168.139, 32.596 170.141 L 33.139 173.782 46.820 174.432 C 60.854 175.099, 102.626 173.707, 103.800 172.533 C 104.160 172.173, 104.874 165.494, 105.387 157.689 C 106.264 144.347, 106.174 142.873, 103.878 133 C 101.565 123.054, 101.510 122.118, 102.840 115.250 C 103.612 111.263, 104.758 108, 105.386 108 C 106.014 108, 110.515 119.989, 115.388 134.642 L 124.247 161.285 130.374 149.756 C 133.743 143.415, 138.505 134.126, 140.956 129.113 C 143.406 124.101, 145.684 120, 146.017 120 C 146.641 120, 156.104 152.712, 155.998 154.500 C 155.965 155.050, 151.916 158.200, 147 161.500 C 133.044 170.868, 134.090 171.194, 160.388 165.678 C 171.710 163.303, 181.148 161.166, 181.361 160.930 C 181.574 160.693, 181.366 142.500, 180.899 120.500 C 180.433 98.500, 180.377 65.762, 180.775 47.749 C 181.349 21.828, 181.239 14.998, 180.250 14.999 C 179.563 15, 179 15.900, 179 17 C 179 18.100, 178.472 19, 177.827 19 C 177.182 19, 152.181 15.625, 122.269 11.500 C 92.357 7.375, 67.759 4, 67.607 4 C 67.455 4, 66.244 5.251, 64.915 6.780 M 66.614 8.874 C 64.995 10.663, 65.136 10.909, 69.709 14.309 L 74.500 17.869 74.816 15.435 C 75.317 11.583, 77.625 12.597, 78.949 17.250 C 80.111 21.333, 81.065 22.116, 103.282 37.214 C 116 45.856, 126.581 52.752, 126.796 52.538 C 127.010 52.323, 125.099 44.862, 122.549 35.956 C 119.998 27.051, 118.046 19.363, 118.209 18.872 C 118.373 18.381, 125.143 22.733, 133.253 28.542 L 148 39.105 148.026 77.302 L 148.053 115.500 153.895 135.733 L 159.737 155.967 152.875 160.656 C 149.100 163.235, 146.127 165.461, 146.268 165.602 C 146.555 165.889, 178.231 159.103, 178.674 158.659 C 178.829 158.505, 178.601 140.405, 178.167 118.439 C 177.734 96.472, 177.640 65.900, 177.960 50.500 C 178.279 35.100, 178.503 22.397, 178.457 22.271 C 178.387 22.075, 70.115 7, 68.782 7 C 68.523 7, 67.547 7.843, 66.614 8.874 M 53.278 24.216 L 43.292 35.500 33.995 60.500 L 24.698 85.500 28.859 118 C 31.147 135.875, 33.546 155.097, 34.189 160.716 L 35.360 170.931 39.867 171.607 C 45.303 172.422, 100.228 171.142, 101.148 170.179 C 101.504 169.805, 102.223 163.879, 102.746 157.008 C 103.632 145.362, 103.530 143.806, 101.233 134.008 C 98.682 123.123, 98.682 123.200, 101.346 107.596 C 101.431 107.100, 97.225 105.671, 92 104.422 L 82.500 102.150 78.931 105.601 C 75.469 108.949, 75.217 109.718, 70.439 131.526 C 67.731 143.887, 65.287 153.999, 65.007 153.999 C 64.728 153.998, 60.929 146.302, 56.565 136.895 L 48.631 119.793 49.761 114.646 C 50.383 111.816, 51.782 106.471, 52.870 102.768 L 54.848 96.036 51.174 95.118 C 49.153 94.614, 46.263 93.922, 44.750 93.581 C 41.060 92.750, 41.105 90, 44.809 90 C 49.093 90, 50.636 88.087, 51.943 81.153 C 52.601 77.662, 52.995 74.700, 52.819 74.571 C 52.644 74.442, 51.397 73.593, 50.049 72.684 L 47.598 71.030 50.770 70.396 C 54.406 69.669, 54.017 70.664, 57.555 53 C 59.042 45.575, 60.591 39.132, 60.997 38.682 C 61.403 38.232, 65.899 42.620, 70.988 48.432 C 76.076 54.245, 80.416 59, 80.632 59 C 82.216 59, 78.467 47.630, 71.730 32 C 67.344 21.825, 63.645 13.372, 63.510 13.216 C 63.375 13.059, 58.771 18.009, 53.278 24.216 M 72.750 27.487 C 75.285 33.255, 77.512 37.822, 77.697 37.636 C 77.883 37.450, 77.571 33.969, 77.004 29.899 C 76.097 23.391, 75.583 22.172, 72.737 19.777 C 70.956 18.279, 69.194 17.042, 68.820 17.027 C 68.446 17.012, 70.214 21.719, 72.750 27.487 M 122.032 24.156 C 122.050 24.345, 127.194 42.275, 133.464 64 L 144.863 103.500 144.931 71.943 L 145 40.386 138.750 35.834 C 127.686 27.776, 121.999 23.804, 122.032 24.156 M 82.196 27.121 C 82.477 27.880, 85.040 35.530, 87.893 44.121 L 93.080 59.742 107.024 56.251 L 120.968 52.759 117.234 50.088 C 102.809 39.768, 81.775 25.980, 82.196 27.121 M 80.484 34.500 C 80.738 36.700, 81.211 40.750, 81.534 43.500 C 82.280 49.851, 86.790 61, 88.613 61 C 89.376 61, 90 60.651, 90 60.224 C 90 59.797, 87.755 52.934, 85.010 44.974 C 82.121 36.592, 80.216 32.184, 80.484 34.500 M 59.870 55.500 C 57.693 65.982, 57.510 68, 58.742 68 C 60.058 68, 64.716 66.909, 76.268 63.896 L 80.035 62.913 71.413 52.957 C 66.671 47.481, 62.719 43, 62.629 43 C 62.540 43, 61.298 48.625, 59.870 55.500 M 110.500 58.241 C 101.700 60.470, 94.388 62.377, 94.252 62.478 C 94.047 62.631, 97.623 73.747, 99.545 78.929 C 99.922 79.945, 101.646 78.806, 105.513 74.988 C 108.503 72.034, 111.148 69.816, 111.390 70.059 C 111.632 70.301, 110.541 76.874, 108.966 84.665 L 106.101 98.830 115.364 126.600 L 124.628 154.370 129.696 144.935 C 132.484 139.746, 137.089 130.854, 139.929 125.175 L 145.093 114.851 136.405 84.425 C 131.627 67.691, 127.444 54.042, 127.109 54.094 C 126.774 54.146, 119.300 56.012, 110.500 58.241 M 89.611 63.820 C 88.989 64.826, 95.336 80.702, 97.056 82.444 C 98.139 83.541, 92.117 64.914, 90.984 63.663 C 90.567 63.202, 89.949 63.273, 89.611 63.820 M 69.316 68.460 C 62.614 70.132, 56.821 71.818, 56.442 72.207 C 56.063 72.596, 57.408 73.704, 59.431 74.669 C 62.319 76.046, 62.996 76.862, 62.578 78.462 C 62.285 79.583, 61.176 83.503, 60.115 87.174 L 58.185 93.847 69.726 96.531 L 81.268 99.215 88.142 92.341 L 95.017 85.466 90.879 75.983 C 86.436 65.798, 85 63.471, 85 66.455 C 85 68.105, 84.807 68.151, 83.250 66.865 C 81.707 65.591, 80.059 65.780, 69.316 68.460 M 55.544 77.207 C 55.309 77.918, 54.475 81.763, 53.689 85.750 C 52.325 92.674, 52.345 93, 54.130 93 C 55.159 93, 56 92.661, 56 92.247 C 56 91.833, 56.869 88.457, 57.930 84.745 C 59.840 78.066, 59.840 77.985, 57.915 76.955 C 56.472 76.182, 55.860 76.247, 55.544 77.207 M 103.746 80.736 L 100.991 83.618 102.688 88.559 L 104.385 93.500 105.715 87 C 107.490 78.327, 107.133 77.190, 103.746 80.736 M 90.058 94.441 L 84.684 99.883 87.592 100.544 C 89.191 100.908, 92.956 101.816, 95.957 102.562 C 98.959 103.308, 101.619 103.714, 101.869 103.465 C 102.456 102.877, 96.881 89, 96.057 89 C 95.713 89, 93.014 91.449, 90.058 94.441 M 54.310 107.990 L 51.296 118.981 57.333 131.990 C 60.654 139.146, 63.640 145, 63.968 145 C 64.297 145, 66.446 136.602, 68.744 126.338 C 72.462 109.729, 73.256 107.331, 75.962 104.539 L 79.002 101.403 69.241 99.201 C 63.872 97.991, 58.995 97, 58.402 97 C 57.810 97, 55.968 101.946, 54.310 107.990" stroke="none" fill="black" fill-rule="evenodd"/>
</svg>