<svg xmlns="http://www.w3.org/2000/svg" width="200" height="200" viewBox="0 0 200 200" version="1.1">
	<path d="M 87.825 15.865 C 81.954 17.314, 76.891 18.763, 76.574 19.085 C 76.063 19.603, 79.293 47.152, 80.508 52.639 C 80.942 54.596, 80.029 55.039, 69.741 57.869 C 58.705 60.904, 58.212 60.949, 42.750 60.325 C 28.686 59.758, 27 59.862, 27 61.297 C 27 62.695, 29.114 62.943, 43.250 63.202 C 59.059 63.492, 59.831 63.409, 71.702 60.137 C 83.687 56.833, 83.897 56.726, 83.452 54.137 C 82.083 46.161, 79.070 21.597, 79.418 21.249 C 79.777 20.890, 89.610 18.318, 97.138 16.615 C 99.516 16.077, 100.199 16.666, 104.048 22.573 L 108.319 29.129 107.167 45.238 C 106.533 54.098, 106.165 61.498, 106.349 61.682 C 106.533 61.866, 110.677 62.350, 115.558 62.758 L 124.433 63.500 115.216 68.390 C 110.147 71.079, 105.348 73.779, 104.551 74.390 C 103.577 75.136, 102.407 80.751, 100.985 91.500 L 98.868 107.500 91.727 121.230 C 86.025 132.195, 82.638 137.236, 74.911 146.259 C 66.191 156.442, 63.865 158.465, 51.367 166.734 C 42.520 172.588, 35.881 176.268, 33.027 176.899 C 30.567 177.443, 28.421 177.754, 28.258 177.591 C 28.095 177.429, 32.387 173.291, 37.794 168.398 C 45.692 161.251, 49.330 156.942, 56.284 146.500 C 63.794 135.223, 65.619 131.578, 70.055 119 C 74.267 107.055, 82.794 72.459, 81.777 71.444 C 81.625 71.292, 76.325 69.781, 70 68.085 C 59.258 65.206, 57.363 65.003, 41.250 65.002 C 26.280 65, 24 65.206, 24 66.562 C 24 67.922, 26.159 68.100, 40.750 67.947 C 56.064 67.785, 58.424 68.005, 68.276 70.515 C 76.993 72.735, 78.967 73.570, 78.607 74.880 C 78.362 75.771, 76.965 82.350, 75.504 89.500 C 74.043 96.650, 70.597 109.025, 67.847 117 C 63.420 129.836, 61.818 133.050, 53.886 145 C 45.817 157.157, 43.592 159.691, 31.520 170.474 C 24.146 177.059, 18.240 182.573, 18.394 182.727 C 18.548 182.881, 23.135 182.007, 28.587 180.783 C 38.012 178.668, 39.214 178.084, 53 168.930 C 66.234 160.142, 68.330 158.322, 77 148.092 C 84.131 139.678, 88.331 133.468, 93.843 123.191 L 101.187 109.500 103.508 93.168 C 104.785 84.186, 105.981 76.710, 106.165 76.556 C 107.349 75.566, 125.418 66, 126.104 66 C 126.704 66, 142.242 73.882, 146.642 76.418 C 146.720 76.463, 145.502 83.700, 143.936 92.500 C 141.665 105.260, 141.080 111.558, 141.044 123.600 L 141 138.700 130.815 146.600 C 125.214 150.945, 120.121 154.814, 119.498 155.197 C 118.875 155.581, 113.671 154.802, 107.933 153.465 C 95.641 150.603, 96 150.638, 96 152.317 C 96 153.979, 118.301 172.866, 123 175.184 C 124.925 176.134, 130.129 178.453, 134.565 180.338 L 142.631 183.766 154.306 171.474 L 165.980 159.182 169.099 144.341 C 171.581 132.531, 172.388 125.620, 173.052 110.500 C 173.608 97.845, 174.560 88.494, 175.904 82.500 C 177.013 77.550, 177.939 72.455, 177.961 71.178 C 178 68.851, 164.357 48, 162.794 48 C 162.341 48, 156.496 50.744, 149.807 54.097 L 137.644 60.194 123.611 60.052 C 115.893 59.975, 109.429 59.762, 109.247 59.580 C 109.064 59.398, 109.438 52.276, 110.076 43.754 L 111.236 28.260 106.088 20.630 C 103.256 16.433, 100.390 13.052, 99.720 13.115 C 99.049 13.178, 93.696 14.415, 87.825 15.865 M 150.064 57.024 C 140.137 62.212, 137.895 63.003, 133.064 63.026 L 127.500 63.051 138.788 69.117 C 147.409 73.750, 149.961 75.575, 149.589 76.842 C 149.321 77.754, 147.953 85.157, 146.551 93.292 C 144.547 104.913, 144 111.479, 144 123.913 L 144 139.742 131.541 149.409 L 119.082 159.076 113.291 157.642 C 110.106 156.854, 106.183 155.908, 104.573 155.541 C 102.326 155.028, 104.113 156.918, 112.279 163.687 C 120.696 170.664, 124.789 173.281, 131.933 176.250 C 136.896 178.312, 141.317 180, 141.756 180 C 142.196 180, 147.292 174.937, 153.082 168.750 L 163.608 157.500 166.829 141.500 C 169.530 128.081, 170.052 123.242, 170.068 111.500 C 170.083 100.129, 170.613 94.929, 172.892 83.813 L 175.698 70.126 169.099 60.597 C 165.470 55.356, 162.275 51.063, 162 51.057 C 161.725 51.052, 156.354 53.736, 150.064 57.024" stroke="none" fill="black" fill-rule="evenodd"/>
</svg>