<svg xmlns="http://www.w3.org/2000/svg" width="200" height="200" viewBox="0 0 200 200" version="1.1">
	<path d="M 161 17.918 L 137.500 24.694 115.500 22.893 C 103.400 21.903, 93.442 21.072, 93.371 21.047 C 93.301 21.021, 92.683 19.650, 92 18 C 90.760 15.006, 88.707 14.266, 86.147 15.888 C 85.060 16.577, 85.032 17.192, 86.004 19.008 C 87.144 21.138, 87.062 21.232, 84.608 20.616 C 82.655 20.126, 82 20.343, 82 21.481 C 82 22.385, 82.911 23.006, 84.250 23.015 C 87.588 23.038, 88.440 23.899, 91.867 30.713 L 94.991 36.925 90.746 38.064 C 88.410 38.690, 86.212 39.378, 85.860 39.592 C 85.508 39.807, 83.933 36.304, 82.360 31.810 C 79.329 23.149, 77 20.589, 77 25.917 C 77 27.613, 76.638 29, 76.195 29 C 75.752 29, 64.851 26.776, 51.970 24.057 C 39.090 21.339, 28.480 19.202, 28.392 19.307 C 28.161 19.585, 21 62.694, 21 63.804 C 21 64.314, 25.904 71.559, 31.897 79.902 C 38.399 88.953, 42.632 95.763, 42.392 96.786 C 42.171 97.729, 39.714 109.525, 36.932 123 C 32.810 142.961, 30.585 151.102, 24.924 166.938 C 20.312 179.839, 18.310 186.710, 18.971 187.371 C 19.519 187.919, 20.146 188.172, 20.365 187.933 C 26.190 181.603, 58.200 140.266, 66.239 128.693 C 72.278 119.999, 77.336 113.024, 77.480 113.193 C 77.623 113.362, 76.489 123.175, 74.959 135 C 72.447 154.413, 71.732 157.706, 67.595 168.923 C 65.075 175.756, 63.122 181.452, 63.256 181.582 C 64.006 182.307, 102.590 159.804, 103.171 158.303 C 103.555 157.311, 105.070 148.400, 106.538 138.500 C 108.007 128.600, 109.298 120.401, 109.408 120.279 C 109.518 120.158, 112.231 126.785, 115.436 135.007 C 118.642 143.228, 121.606 149.744, 122.022 149.486 C 122.439 149.229, 126.092 143.177, 130.140 136.038 C 134.188 128.900, 137.834 123.046, 138.243 123.029 C 138.652 123.013, 142.102 129.219, 145.910 136.820 C 151.792 148.561, 152.547 150.630, 150.927 150.570 C 149.513 150.518, 147.243 153.597, 142.133 162.500 L 135.246 174.500 137.915 174.798 C 141.424 175.189, 179.012 171.322, 179.851 170.483 C 180.208 170.126, 180.604 144.784, 180.732 114.167 C 180.951 61.654, 181.108 57.282, 183.509 37 C 184.908 25.175, 186.275 14.488, 186.546 13.250 C 186.858 11.822, 186.574 11.026, 185.769 11.071 C 185.071 11.110, 173.925 14.191, 161 17.918 M 164 19.956 C 154.925 22.562, 144.962 25.437, 141.859 26.344 L 136.219 27.992 139.609 44.088 C 142.986 60.115, 143 60.298, 143 87.369 C 143 110.127, 142.751 114.910, 141.473 116.735 C 140.035 118.788, 140.473 119.965, 149.020 137.039 C 156.445 151.873, 157.721 155.058, 156.046 154.582 C 154.921 154.262, 153.213 153.791, 152.250 153.534 C 150.903 153.176, 149.310 155.191, 145.332 162.283 C 142.490 167.351, 140.324 171.657, 140.519 171.853 C 141.349 172.682, 176.565 168.604, 177.235 167.600 C 177.639 166.995, 177.978 142.200, 177.989 112.500 C 178.007 60.895, 178.119 57.635, 180.500 39 C 183.364 16.590, 183.449 14.961, 181.750 15.108 C 181.063 15.168, 173.075 17.349, 164 19.956 M 27.080 43.455 L 23.734 63.910 34.711 79.140 L 45.688 94.370 40.227 120.935 C 36.146 140.785, 33.421 151.287, 29.446 162.480 C 26.520 170.719, 24.266 177.599, 24.436 177.769 C 25.242 178.575, 54.894 140.378, 66 124.228 C 77.730 107.171, 81.020 103.553, 80.985 107.750 C 80.977 108.713, 79.666 119.850, 78.070 132.500 C 75.675 151.500, 74.560 157.237, 71.659 165.490 C 69.728 170.985, 68.239 175.572, 68.350 175.683 C 68.556 175.889, 99.759 158.581, 100.445 157.881 C 101.569 156.735, 107.204 113.901, 106.632 110.854 C 105.472 104.667, 104.733 104.303, 87.500 101.440 C 78.700 99.979, 70.853 98.588, 70.063 98.351 C 69.099 98.061, 70.304 96.452, 73.725 93.459 C 76.529 91.007, 81.997 85.020, 85.876 80.156 L 92.929 71.311 88.238 57.160 C 83.991 44.348, 83.355 43.068, 81.523 43.629 C 80.411 43.970, 79.366 44.364, 79.202 44.505 C 79.038 44.647, 78.545 53.371, 78.106 63.894 C 77.667 74.416, 77.126 83.185, 76.904 83.380 C 76.301 83.910, 36.124 54.581, 36.656 54 C 36.907 53.725, 45.750 51.010, 56.306 47.968 L 75.500 42.435 75.799 37.301 C 76.046 33.064, 75.784 32.074, 74.299 31.637 C 70.498 30.520, 33.813 23, 32.164 23 C 30.679 23, 29.939 25.978, 27.080 43.455 M 97.400 28.804 C 98.809 31.584, 100.354 34.101, 100.833 34.397 C 101.311 34.692, 107.732 33.216, 115.102 31.116 C 130.035 26.860, 129.962 26.487, 114 25.545 C 108.225 25.204, 101.551 24.660, 99.169 24.337 L 94.839 23.749 97.400 28.804 M 117.500 33.212 C 109.800 35.446, 103.302 37.447, 103.061 37.659 C 102.819 37.871, 104.372 41.635, 106.511 46.022 C 109.450 52.050, 110.118 54.282, 109.246 55.154 C 108.374 56.026, 111.782 63.640, 123.192 86.315 C 136.780 113.319, 138.427 116.137, 139.645 114.470 C 140.695 113.035, 141.003 107.200, 141.014 88.559 C 141.028 64.703, 140.997 64.350, 137.351 46.750 C 135.259 36.646, 133.206 29.032, 132.587 29.075 C 131.989 29.116, 125.200 30.978, 117.500 33.212 M 79.076 36.250 C 79.019 39.839, 79.367 41, 80.500 41 C 82.296 41, 82.296 39.664, 80.500 35 L 79.152 31.500 79.076 36.250 M 89.500 41.216 C 87.850 41.798, 86.409 42.341, 86.297 42.424 C 85.632 42.913, 94.931 67.415, 95.637 67.035 C 96.112 66.779, 98.422 64.210, 100.771 61.326 L 105.043 56.083 100.771 48.061 C 96.223 39.518, 95.522 39.092, 89.500 41.216 M 59.330 49.898 C 50.436 52.433, 42.944 54.731, 42.680 55.004 C 42.417 55.277, 49.469 60.761, 58.351 67.192 L 74.500 78.883 75.260 64.692 C 75.678 56.886, 75.903 49.328, 75.760 47.894 L 75.500 45.289 59.330 49.898 M 101.400 64.921 C 98.705 68.391, 96.500 71.533, 96.500 71.902 C 96.500 72.271, 98.750 79.193, 101.500 87.283 C 105.900 100.227, 106.763 101.993, 108.691 101.996 C 111.644 102.001, 111.903 102.702, 111.036 108.331 C 110.393 112.506, 110.798 114.541, 114.019 123.331 C 118.856 136.533, 121.158 142.333, 121.904 143.204 C 122.236 143.590, 125.700 138.388, 129.602 131.643 L 136.696 119.379 121.498 88.995 L 106.299 58.612 101.400 64.921 M 87.491 82.469 C 84.345 86.577, 80.247 91.100, 78.385 92.520 C 76.523 93.940, 75 95.446, 75 95.866 C 75 96.551, 102.125 101.209, 102.709 100.624 C 103.193 100.141, 94.530 75, 93.880 75 C 93.513 75, 90.638 78.361, 87.491 82.469" stroke="none" fill="black" fill-rule="evenodd"/>
</svg>