<svg xmlns="http://www.w3.org/2000/svg" width="200" height="200" viewBox="0 0 200 200" version="1.1">
	<path d="M 95 14.619 L 79.500 21.057 50.750 20.451 C 25.828 19.925, 22 20.041, 22 21.317 C 22 22.385, 26.250 23.837, 37.500 26.612 C 46.025 28.714, 53 30.708, 53 31.042 C 53 31.376, 47.534 33.822, 40.853 36.476 L 28.707 41.302 35.904 47.901 C 54.723 65.154, 66.840 76.552, 66.916 77.073 C 66.962 77.387, 57.100 78.480, 45 79.500 C 28.358 80.903, 23 81.677, 23 82.677 C 23 83.735, 27.558 84, 45.787 84 L 68.575 84 78.276 95.717 C 84.823 103.625, 87.574 107.655, 86.738 108.116 C 86.057 108.491, 78.613 110.905, 70.196 113.482 C 56.176 117.773, 53.619 118.239, 39.696 119.050 C 31.338 119.536, 22.138 119.949, 19.250 119.967 C 15.396 119.991, 14 120.378, 14 121.420 C 14 123, 16.584 123.334, 42 125.044 C 53.316 125.805, 61.539 127.032, 72.462 129.589 C 80.691 131.515, 87.549 133.215, 87.700 133.367 C 87.852 133.519, 86.632 144.798, 84.988 158.431 C 83.345 172.065, 82 184.262, 82 185.536 C 82 187.824, 82.226 187.778, 99.640 181.953 C 109.343 178.708, 117.424 175.909, 117.599 175.734 C 117.774 175.560, 116.814 164.410, 115.467 150.958 C 114.119 137.506, 113.013 126.318, 113.009 126.095 C 113.004 125.872, 122.338 125.975, 133.750 126.324 L 154.500 126.957 167.797 120.729 C 175.111 117.303, 181.069 114.050, 181.038 113.500 C 180.980 112.455, 179.325 112.432, 152 113.098 C 142.925 113.319, 130.260 113.121, 123.856 112.658 L 112.211 111.816 116.624 98.658 C 119.051 91.421, 121.444 84.855, 121.941 84.066 C 122.722 82.829, 126.309 82.938, 148.173 84.866 C 162.103 86.094, 174.557 87.322, 175.848 87.593 C 177.139 87.865, 178.039 87.651, 177.848 87.117 C 177.299 85.587, 157.589 63.150, 156.724 63.071 C 156.297 63.032, 147.111 67.277, 136.311 72.504 C 125.510 77.730, 116.581 81.893, 116.468 81.754 C 116.355 81.614, 115.965 72.950, 115.602 62.500 L 114.942 43.500 122.572 34.500 C 126.769 29.550, 130.926 25.336, 131.810 25.137 C 132.693 24.937, 134.448 24.097, 135.708 23.272 C 136.969 22.446, 137.998 22.159, 137.995 22.635 C 137.992 23.111, 135.314 30.580, 132.044 39.233 L 126.099 54.966 129.243 62.233 C 133.013 70.947, 132.787 70.613, 134.050 69.350 C 134.738 68.662, 134.102 66.185, 132.078 61.673 L 129.089 55.012 135.171 38.756 C 138.516 29.815, 141.584 22.134, 141.989 21.687 C 142.394 21.240, 147.926 23.463, 154.282 26.627 L 165.839 32.379 156.598 42.940 C 146.170 54.856, 145.607 55.639, 146.884 56.428 C 147.614 56.879, 162.750 40.587, 168.804 32.834 C 169.968 31.344, 168.677 30.482, 156.557 24.654 C 145.447 19.311, 143.127 17.832, 143.665 16.430 C 144.210 15.009, 144.009 14.895, 142.475 15.754 C 141.191 16.473, 139.897 16.455, 138.231 15.695 C 136.089 14.720, 135.495 15.004, 132.667 18.356 L 129.500 22.109 121.500 21.804 L 113.500 21.500 113.204 14.750 C 113.007 10.252, 112.507 8.030, 111.704 8.091 C 111.042 8.141, 103.525 11.079, 95 14.619 M 98.014 16.306 L 87.527 20.500 98.514 21 C 104.556 21.275, 109.770 21.275, 110.100 21 C 110.883 20.349, 109.989 11.983, 109.145 12.056 C 108.790 12.087, 103.781 14, 98.014 16.306 M 135.500 19 C 135.160 19.550, 135.359 20, 135.941 20 C 136.523 20, 137 19.550, 137 19 C 137 18.450, 136.802 18, 136.559 18 C 136.316 18, 135.840 18.450, 135.500 19 M 47.431 26.098 L 59.363 29.023 65.232 26.761 L 71.102 24.500 65.301 23.859 C 62.110 23.506, 54.100 23.207, 47.500 23.195 L 35.500 23.174 47.431 26.098 M 72.500 26.669 C 65.482 29.587, 63.632 31, 66.831 31 C 68.059 31, 69.321 31.673, 69.637 32.495 C 69.952 33.318, 69.714 43.519, 69.108 55.165 C 68.502 66.811, 68.177 76.510, 68.385 76.718 C 68.593 76.926, 71.854 77.324, 75.632 77.602 L 82.500 78.108 96.500 61.407 C 104.200 52.221, 110.882 44.057, 111.349 43.265 C 111.816 42.472, 111.881 37.813, 111.493 32.912 L 110.788 24 94.644 24.087 C 79.813 24.167, 78.012 24.377, 72.500 26.669 M 114.100 29.250 C 114.295 39.513, 114.796 39.711, 121.191 32.047 L 126.883 25.227 123.816 24.613 C 122.130 24.276, 119.231 24, 117.375 24 L 114 24 114.100 29.250 M 46.074 37.269 L 33.648 42.361 37.726 45.931 C 39.969 47.894, 47.033 54.402, 53.424 60.394 C 59.816 66.386, 65.210 71.111, 65.411 70.894 C 65.613 70.677, 66.103 62.323, 66.501 52.328 L 67.224 34.156 63.362 33.083 C 61.238 32.494, 59.275 32.048, 59 32.094 C 58.725 32.139, 52.908 34.468, 46.074 37.269 M 97.386 64.451 L 83.500 80.964 74 80.517 C 68.775 80.271, 65.720 80.392, 67.212 80.785 C 69.038 81.266, 73.532 85.820, 80.962 94.717 C 87.033 101.986, 92 108.326, 92 108.804 C 92 110.306, 55.678 121, 50.578 121 C 47.702 121, 46.121 121.388, 46.500 122 C 46.840 122.550, 49.261 123, 51.881 123 C 55.971 123, 89.528 130.194, 90.644 131.311 C 90.861 131.528, 89.682 142.909, 88.023 156.603 C 86.365 170.296, 85.006 182.030, 85.004 182.679 C 85.002 183.413, 90.518 182.009, 99.644 178.952 C 107.698 176.254, 114.443 173.890, 114.634 173.699 C 114.825 173.508, 113.861 162.360, 112.492 148.926 C 111.122 135.492, 110.001 124.121, 110.001 123.659 C 110 123.196, 119.787 123.134, 131.750 123.522 L 153.500 124.226 162.767 119.963 C 167.863 117.618, 171.868 115.535, 171.666 115.332 C 171.464 115.130, 166.169 115.417, 159.899 115.971 C 148.382 116.986, 112.421 115.496, 109.831 113.895 C 108.992 113.377, 110.111 109.027, 113.768 98.583 C 118.226 85.856, 118.619 84.134, 116.853 85.079 C 115.740 85.675, 114.577 85.910, 114.269 85.602 C 113.960 85.294, 113.402 76.935, 113.028 67.028 C 112.653 57.120, 112.105 48.772, 111.810 48.476 C 111.514 48.181, 105.024 55.370, 97.386 64.451 M 141.500 72.948 C 127.980 79.504, 127.620 79.758, 131 80.360 C 134.877 81.049, 166.459 84, 169.966 84 C 171.838 84, 170.958 82.604, 164.343 75.080 C 160.029 70.174, 156.275 66.160, 156 66.160 C 155.725 66.160, 149.200 69.215, 141.500 72.948" stroke="none" fill="black" fill-rule="evenodd"/>
</svg>