<svg xmlns="http://www.w3.org/2000/svg" width="200" height="200" viewBox="0 0 200 200" version="1.1">
	<path d="M 146 20.269 L 125.500 31.307 96 32.581 C 79.775 33.281, 55.587 34.178, 42.250 34.573 C 22.964 35.144, 18 35.566, 18 36.636 C 18 37.739, 26.393 38.027, 64.750 38.240 L 111.500 38.500 97.750 45.794 C 90.188 49.806, 84 53.321, 84 53.606 C 84 53.891, 86.813 55.408, 90.250 56.979 C 94.630 58.981, 96.018 60.025, 94.890 60.471 C 93.001 61.217, 82.946 61.663, 63.500 61.864 L 49.500 62.009 41.250 69.077 L 33 76.145 33.012 97.823 C 33.018 109.745, 33.692 126.700, 34.508 135.500 C 35.324 144.300, 35.994 152.287, 35.996 153.250 C 35.998 154.213, 36.675 155, 37.500 155 C 38.325 155, 38.995 154.662, 38.988 154.250 C 38.982 153.838, 38.308 146.300, 37.492 137.500 C 36.676 128.700, 36.006 111.542, 36.004 99.372 L 36 77.244 42.685 71.372 L 49.370 65.500 63.435 64.894 C 71.171 64.560, 77.628 64.389, 77.785 64.512 C 77.942 64.636, 73.554 65.998, 68.035 67.539 L 58 70.342 58 93.671 L 58 117 70.458 117 L 82.916 117 80.085 110.750 C 78.527 107.313, 74.259 98.010, 70.598 90.078 C 66.938 82.146, 64.294 75.354, 64.722 74.984 C 65.741 74.103, 98.663 62, 100.040 62 C 100.623 62, 102.378 62.661, 103.941 63.469 L 106.782 64.939 107.519 82.609 C 108.192 98.764, 108.022 101.962, 105.538 119.890 C 104.043 130.675, 102.690 139.634, 102.529 139.798 C 102.369 139.961, 95.898 135.983, 88.149 130.956 L 74.060 121.818 62.504 132.083 C 55.152 138.613, 51.295 142.695, 51.904 143.304 C 52.512 143.912, 56.759 140.793, 63.577 134.731 L 74.293 125.203 85.897 132.742 C 103.780 144.361, 105 145.088, 105 144.131 C 105 143.639, 106.355 133.870, 108.011 122.421 C 110.841 102.859, 110.983 100.446, 110.356 82.360 L 109.690 63.114 106.754 61.898 C 104.539 60.981, 104.166 60.486, 105.237 59.887 C 106.769 59.030, 130.798 50, 131.547 50 C 131.796 50, 132 66.067, 132 85.704 C 132 118.601, 131.798 122.866, 129.425 139.946 C 128.008 150.142, 126.771 158.556, 126.675 158.644 C 126.579 158.733, 117.612 157.811, 106.750 156.597 C 95.887 155.382, 87 154.497, 87 154.629 C 87 154.829, 114.749 180.159, 121.619 186.230 C 123.709 188.077, 123.962 188.013, 140.444 181.418 C 153.006 176.392, 157.345 174.209, 157.932 172.617 C 158.362 171.453, 159.300 160.787, 160.018 148.916 C 161.274 128.136, 160.936 74.313, 159.436 56.500 L 158.847 49.500 174.489 38.616 C 185.170 31.183, 189.806 27.406, 189.106 26.706 C 188.407 26.007, 179.864 28.745, 162.172 35.341 C 147.921 40.653, 135.978 45, 135.631 45 C 135.284 45, 135 42.975, 135 40.500 L 135 36 128.750 35.985 C 124.346 35.974, 122.943 35.683, 124 35 C 124.825 34.467, 128.929 34.024, 133.120 34.015 L 140.740 34 153.120 23.908 C 168.511 11.362, 168.647 11.231, 167.457 10.122 C 166.880 9.585, 158.361 13.613, 146 20.269 M 142.500 25.079 L 131.500 30.948 135.822 30.974 C 139.620 30.997, 140.985 30.308, 147.072 25.301 C 150.882 22.166, 154 19.466, 154 19.301 C 154 18.910, 155.051 18.382, 142.500 25.079 M 155.393 40.760 L 135.286 48.375 134.726 64.437 C 134.418 73.272, 134.386 89.500, 134.656 100.500 C 135.107 118.886, 134.909 122.138, 132.203 140.787 C 130.584 151.945, 129.060 161.273, 128.816 161.517 C 128.573 161.761, 121.005 161.078, 112 160 C 102.995 158.922, 95.491 158.176, 95.325 158.341 C 95.018 158.649, 120.022 181.560, 122.954 183.657 C 124.256 184.588, 127.582 183.594, 140.036 178.553 L 155.500 172.294 157 151.393 C 158.140 135.514, 158.343 122.204, 157.848 95.996 C 157.489 77.023, 156.907 58.537, 156.554 54.916 L 155.912 48.332 166.456 40.984 C 172.255 36.942, 177 33.493, 177 33.318 C 177 32.649, 174.927 33.363, 155.393 40.760 M 107.750 35.723 C 109.537 35.945, 112.463 35.945, 114.250 35.723 C 116.037 35.502, 114.575 35.320, 111 35.320 C 107.425 35.320, 105.963 35.502, 107.750 35.723 M 114.500 40.082 C 112.300 41.252, 105.812 44.702, 100.083 47.749 L 89.665 53.288 94.083 55.599 C 96.512 56.870, 99.175 57.934, 100 57.964 C 100.825 57.994, 108.312 55.486, 116.639 52.390 L 131.777 46.761 132.358 43.183 C 132.677 41.215, 132.813 39.480, 132.661 39.327 C 132.508 39.175, 129.259 38.803, 125.441 38.502 C 119.604 38.042, 117.864 38.293, 114.500 40.082 M 61 95.333 L 61 114 69.500 114 C 74.175 114, 78 113.750, 78 113.444 C 78 112.756, 61.993 77.661, 61.416 77.083 C 61.187 76.854, 61 85.067, 61 95.333" stroke="none" fill="black" fill-rule="evenodd"/>
</svg>