<svg xmlns="http://www.w3.org/2000/svg" width="200" height="200" viewBox="0 0 200 200" version="1.1">
	<path d="M 80.131 25.813 C 75.127 32.941, 70.313 39.050, 69.434 39.387 C 68.555 39.724, 62.545 40, 56.078 40 C 31.750 40, 11 41.223, 11 42.657 C 11 43.396, 11.563 44.007, 12.250 44.016 C 17.980 44.092, 79.290 48.956, 79.702 49.368 C 80.248 49.915, 65.535 67.013, 63.581 68.103 C 62.986 68.434, 54.737 70.853, 45.250 73.477 L 28 78.248 28 110.897 L 28 143.547 35.999 167.523 C 45.342 195.530, 44.936 194.398, 45.439 193.893 C 45.655 193.677, 48.771 179.073, 52.364 161.441 L 58.896 129.382 58.293 102.793 L 57.689 76.204 71.595 75.807 C 79.243 75.589, 85.587 75.443, 85.694 75.483 C 85.801 75.522, 84.800 82.967, 83.470 92.027 C 82.140 101.087, 81.040 109.050, 81.026 109.721 C 81.012 110.393, 79.537 111.314, 77.750 111.769 C 74.665 112.553, 74.305 113.162, 70.643 123.797 L 66.787 135 76.533 150.527 C 81.894 159.067, 86.642 166.279, 87.086 166.553 C 87.530 166.827, 94.120 165.186, 101.732 162.905 L 115.571 158.758 125.536 144.221 C 131.016 136.226, 135.630 129.365, 135.789 128.976 C 135.948 128.586, 132.455 125.564, 128.027 122.261 L 119.975 116.255 129.670 107.299 C 142.886 95.089, 140.266 94.162, 126.641 106.226 C 120.881 111.327, 116.130 115.815, 116.084 116.199 C 116.038 116.584, 119.600 119.502, 124 122.685 C 128.400 125.867, 132 128.794, 132 129.189 C 132 129.706, 117.192 152.128, 114.388 155.857 C 114.180 156.133, 89.075 163.973, 88.326 163.995 C 88.230 163.998, 84.008 157.386, 78.944 149.302 L 69.736 134.604 73.118 124.776 C 76.936 113.681, 74.750 115.273, 92.064 110.974 C 96.775 109.805, 101.240 108.470, 101.988 108.008 C 103.126 107.304, 103.144 104.623, 102.095 91.496 C 101.406 82.876, 100.991 75.698, 101.172 75.544 C 101.352 75.390, 105.385 75.033, 110.134 74.750 L 118.769 74.236 120.934 78.868 L 123.100 83.500 119.970 91 C 112.925 107.881, 112.828 108.182, 114.551 107.826 C 115.513 107.628, 118.083 102.797, 121.110 95.500 C 125.964 83.795, 126.048 83.419, 124.543 80.216 C 123.694 78.410, 123 76.680, 123 76.371 C 123 76.063, 128.625 82.557, 135.500 90.804 C 142.375 99.050, 148 106.542, 148 107.454 C 148 108.366, 144.811 120.449, 140.914 134.306 L 133.829 159.500 136.479 172.500 C 137.937 179.650, 139.328 186.104, 139.569 186.842 C 139.817 187.602, 147.589 179.088, 157.504 167.193 L 175 146.202 175 113.760 L 175 81.317 161.250 74.959 C 146.331 68.060, 115.829 51.838, 116.505 51.162 C 116.735 50.932, 131.382 49.275, 149.054 47.479 C 178.072 44.531, 184.962 43.331, 182.303 41.687 C 180.554 40.607, 152.272 33, 150.002 33 C 148.716 33, 138.191 35.052, 126.613 37.560 C 102.175 42.855, 105.555 43.887, 97.934 28.802 C 95.239 23.469, 92.179 17.698, 91.133 15.978 L 89.231 12.851 80.131 25.813 M 80.482 30.090 C 76.199 36.189, 72.201 41.358, 71.597 41.575 C 70.994 41.792, 64.425 42.323, 57 42.754 L 43.500 43.538 64.780 44.928 C 76.485 45.692, 85.935 46.659, 85.780 47.076 C 85.626 47.493, 81.046 52.935, 75.603 59.168 C 68.218 67.624, 64.792 70.791, 62.103 71.645 C 58.996 72.633, 60.385 72.805, 72.205 72.895 L 85.909 73 86.467 69.750 C 86.774 67.963, 87.708 61.799, 88.543 56.053 C 89.378 50.307, 90.160 45.546, 90.281 45.472 C 90.401 45.399, 93.088 44.781, 96.252 44.098 L 102.004 42.856 95.922 30.928 C 92.578 24.368, 89.487 19, 89.055 19 C 88.622 19, 84.764 23.990, 80.482 30.090 M 128.583 39.880 C 117.078 42.423, 107.523 44.954, 107.349 45.502 C 106.328 48.721, 108.754 48.731, 139.671 45.628 C 156.815 43.908, 171.111 42.229, 171.440 41.898 C 171.923 41.411, 165.269 39.382, 150.633 35.551 C 150.010 35.388, 140.087 37.336, 128.583 39.880 M 95.425 47.073 C 92.387 47.956, 92.335 48.085, 91.101 57.733 C 90.414 63.105, 89.612 68.513, 89.318 69.750 C 88.878 71.601, 89.204 72, 91.155 72 C 93.159 72, 93.757 71.187, 95.021 66.750 C 95.966 63.430, 97.064 61.500, 98.008 61.500 C 99.103 61.500, 99.580 62.897, 99.802 66.750 L 100.105 72 108.552 72 C 113.199 72, 117 71.823, 117 71.607 C 117 71.391, 114.039 65.541, 110.419 58.607 C 103.252 44.876, 103.181 44.821, 95.425 47.073 M 114.553 60.750 C 119.577 70.073, 120.568 71.500, 122.018 71.500 C 122.523 71.500, 129.405 79.274, 137.312 88.775 L 151.689 106.049 144.297 132.275 C 136.256 160.804, 136.340 160.006, 139.798 174.865 L 141.512 182.230 156.770 163.882 L 172.027 145.535 171.764 114.076 L 171.500 82.618 156.379 75.559 C 148.062 71.677, 134.481 64.787, 126.200 60.250 C 117.919 55.712, 110.850 52, 110.491 52 C 110.132 52, 111.960 55.938, 114.553 60.750 M 96.500 71 C 96.160 71.550, 96.359 72, 96.941 72 C 97.523 72, 98 71.550, 98 71 C 98 70.450, 97.802 70, 97.559 70 C 97.316 70, 96.840 70.450, 96.500 71 M 41.500 77.323 L 30.500 80.500 30.856 112.952 L 31.213 145.403 37.974 164.930 L 44.736 184.457 45.914 178.979 C 54.248 140.219, 56 129.560, 55.997 117.650 C 55.991 96.037, 54.775 73.994, 53.593 74.073 C 52.992 74.113, 47.550 75.576, 41.500 77.323 M 88.684 75.750 C 88.445 76.162, 87.935 79.200, 87.551 82.500 C 87.166 85.800, 86.656 89.625, 86.416 91 C 86.176 92.375, 87.335 89.695, 88.990 85.045 C 90.646 80.395, 92 76.233, 92 75.795 C 92 74.786, 89.263 74.749, 88.684 75.750 M 89.800 92.250 C 86.746 101.737, 84.350 109.621, 84.476 109.769 C 84.602 109.918, 88.265 109.086, 92.616 107.922 L 100.527 105.804 99.330 92.652 C 98.672 85.418, 98.104 78.487, 98.067 77.250 C 98.030 76.013, 97.404 75, 96.676 75 C 95.844 75, 93.292 81.401, 89.800 92.250" stroke="none" fill="black" fill-rule="evenodd"/>
</svg>