<svg xmlns="http://www.w3.org/2000/svg" width="200" height="200" viewBox="0 0 200 200" version="1.1">
	<path d="M 17.643 22.750 C 16.518 37.813, 15.845 116.692, 16.692 134.367 L 17.500 151.235 30.718 140.617 C 37.988 134.778, 44.334 130, 44.819 130 C 45.305 130, 49.609 132.531, 54.385 135.624 L 63.067 141.248 73.283 133.464 C 78.903 129.183, 84.541 124.747, 85.813 123.606 L 88.127 121.532 87.813 82.564 L 87.500 43.595 90.653 42.944 L 93.806 42.292 94.516 47.896 C 94.907 50.978, 95.063 79.987, 94.863 112.359 L 94.500 171.218 108.500 175.599 C 116.200 178.009, 123.054 179.985, 123.732 179.990 C 124.666 179.998, 125.029 174.297, 125.232 156.432 L 125.500 132.865 141.890 147.492 C 150.904 155.538, 158.609 161.756, 159.012 161.310 C 159.415 160.865, 164.033 150.955, 169.276 139.289 L 178.807 118.079 176.737 96.051 L 174.666 74.023 177.942 50.954 C 179.744 38.265, 180.933 27.599, 180.585 27.251 C 180.236 26.903, 168.045 28.415, 153.492 30.611 C 129.845 34.180, 126.872 34.443, 125.516 33.088 C 124.161 31.733, 124 31.749, 124 33.240 C 124 34.343, 122.897 35.098, 120.750 35.464 C 114.393 36.550, 98.488 38.992, 97.750 38.996 C 97.338 38.998, 97 36.525, 97 33.500 C 97 29.984, 97.420 28, 98.164 28 C 98.804 28, 106.661 28.934, 115.623 30.075 L 131.919 32.150 150.059 25.642 C 160.036 22.062, 168.462 18.871, 168.783 18.550 C 169.104 18.229, 168.947 17.558, 168.433 17.058 C 167.321 15.975, 67.026 14.392, 64.358 15.416 C 62.653 16.070, 62.698 16.264, 64.955 17.966 L 67.396 19.808 63.948 21.255 C 46.566 28.553, 36 33.352, 36 33.949 C 36 35.936, 38.180 35.341, 50.565 29.972 C 57.954 26.769, 64 24.354, 64 24.605 C 64 24.857, 61.975 28.081, 59.500 31.771 C 56.154 36.759, 55 39.443, 55 42.239 C 55 45.531, 54.704 46, 52.625 46 C 51.319 46, 48.793 46.291, 47.013 46.647 C 43.947 47.261, 43.802 47.488, 44.268 50.962 C 45.507 60.197, 55.408 105.981, 56.015 105.283 C 56.391 104.853, 57.818 101.350, 59.187 97.500 L 61.676 90.500 60.333 73 C 59.594 63.375, 59.104 53.711, 59.245 51.526 L 59.500 47.551 70.500 45.840 C 76.550 44.899, 82.184 44.100, 83.020 44.065 C 84.352 44.008, 84.570 48.775, 84.777 82.409 L 85.012 120.818 74.020 129.395 L 63.028 137.973 54.533 132.493 C 49.861 129.479, 45.655 126.897, 45.188 126.756 C 44.720 126.615, 39.459 130.325, 33.495 135 C 27.532 139.675, 21.765 144.134, 20.680 144.909 C 18.720 146.310, 18.711 145.912, 19.384 84.409 C 19.757 50.359, 20.320 20.587, 20.636 18.250 C 21.084 14.932, 20.891 14, 19.754 14 C 18.639 14, 18.144 16.054, 17.643 22.750 M 72.409 18.750 C 72.817 19.163, 76.380 21.332, 80.325 23.570 L 87.500 27.640 87.210 33.820 L 86.921 40 90.460 40 L 94 40 94 32.500 C 94 27.173, 94.362 24.996, 95.250 24.988 C 95.938 24.981, 104.460 25.927, 114.189 27.090 L 131.878 29.204 145.479 24.352 L 159.080 19.500 145.290 18.872 C 125.262 17.960, 71.538 17.870, 72.409 18.750 M 64.054 29.919 C 59.953 36.019, 58 39.903, 58 41.962 C 58 43.633, 58.337 44.992, 58.750 44.982 C 59.163 44.972, 64.900 44.080, 71.500 43 C 78.100 41.920, 83.838 41.028, 84.250 41.018 C 84.662 41.008, 85 38.408, 85 35.241 C 85 30.825, 84.592 29.234, 83.250 28.423 C 82.287 27.842, 78.937 25.914, 75.804 24.140 L 70.109 20.915 64.054 29.919 M 152.500 33.541 C 140.950 35.370, 131.058 36.897, 130.518 36.934 C 129.978 36.970, 134.162 41.642, 139.817 47.317 L 150.099 57.633 149.397 82.235 L 148.695 106.838 137.837 118.631 C 127.584 129.768, 127.078 130.516, 128.740 132.071 C 129.708 132.976, 135.225 137.909, 141 143.032 C 146.775 148.156, 152.889 153.637, 154.587 155.212 L 157.674 158.076 166.860 137.757 L 176.046 117.437 173.909 95.733 L 171.771 74.030 174.428 55.265 C 175.888 44.944, 177.340 35.038, 177.653 33.250 C 178.359 29.224, 179.860 29.207, 152.500 33.541 M 112 39.582 C 107.325 40.341, 102.150 41.194, 100.500 41.479 L 97.500 41.998 97.503 105.706 L 97.506 169.414 101.503 170.582 C 103.701 171.224, 109.258 172.908, 113.850 174.324 L 122.200 176.900 121.918 125.200 C 121.763 96.765, 122.003 65.513, 122.452 55.750 C 123.134 40.892, 123.041 38.017, 121.883 38.102 C 121.122 38.158, 116.675 38.824, 112 39.582 M 125.986 42.018 C 125.978 44.483, 125.508 54.150, 124.942 63.500 C 124.351 73.255, 124.203 90.661, 124.594 104.342 L 125.277 128.183 134.388 118.430 C 139.400 113.066, 144.043 107.914, 144.706 106.982 C 145.515 105.846, 146.125 97.586, 146.561 81.894 L 147.210 58.500 136.605 48.018 L 126 37.536 125.986 42.018 M 50.750 48.728 C 48.688 48.944, 46.992 49.431, 46.982 49.810 C 46.972 50.190, 49.074 60.983, 51.653 73.796 C 56.084 95.810, 56.414 96.921, 57.647 93.989 C 58.727 91.420, 58.698 87.664, 57.482 72.193 C 56.674 61.912, 56.010 52.263, 56.007 50.750 C 56.003 49.237, 55.663 48.076, 55.250 48.168 C 54.837 48.261, 52.813 48.513, 50.750 48.728" stroke="none" fill="black" fill-rule="evenodd"/>
</svg>