<svg xmlns="http://www.w3.org/2000/svg" width="200" height="200" viewBox="0 0 200 200" version="1.1">
	<path d="M 124.500 18.544 C 111.609 25.482, 107.660 26.869, 81.500 33.651 C 68.317 37.069, 32.515 45, 30.272 45 C 30.057 45, 30.138 45.414, 30.450 45.920 C 30.967 46.756, 39.743 52, 40.626 52 C 41.744 52, 40.769 48.849, 39.500 48.362 C 36.818 47.332, 37.910 46.190, 42.250 45.486 C 50.835 44.094, 72.998 38.880, 91.500 33.900 C 107.830 29.504, 112.375 27.820, 123.844 21.911 L 137.187 15.037 145.594 22.195 L 154 29.353 154 34.541 L 154 39.728 149.360 40.364 C 146.809 40.714, 140.099 41, 134.450 41 L 124.180 41 117.635 48.313 L 111.089 55.626 110.945 72.063 L 110.801 88.500 122.651 91.235 L 134.500 93.969 125.327 93.454 C 117.129 92.994, 116.101 93.129, 115.656 94.720 C 115.382 95.699, 114.156 101.225, 112.932 107 C 110.877 116.696, 110.756 119.146, 111.351 139 C 111.706 150.825, 112.258 162.975, 112.579 166 L 113.162 171.500 104.713 178.250 C 100.066 181.963, 95.993 185, 95.662 185 C 95.332 185, 92.860 181.737, 90.169 177.750 L 85.277 170.500 85.762 142 L 86.247 113.500 83.491 104.500 C 81.976 99.550, 80.492 94.859, 80.194 94.076 C 79.808 93.062, 80.144 92.841, 81.364 93.310 C 83.643 94.184, 83.773 93.689, 85.396 78.031 L 86.792 64.563 82.216 54.704 C 77.705 44.984, 77.597 44.852, 74.570 45.357 C 72.882 45.638, 65.763 46.642, 58.750 47.587 C 49.578 48.824, 46 49.684, 46 50.653 C 46 52.306, 44.738 52.361, 61.471 49.984 C 69.155 48.893, 75.588 48, 75.767 48 C 75.945 48, 77.862 51.849, 80.025 56.554 L 83.958 65.108 82.925 75.804 C 81.580 89.722, 81.223 91.300, 79.558 90.661 C 78.811 90.374, 66.425 89.576, 52.033 88.887 L 25.866 87.635 23.420 90.568 C 17.305 97.897, 15.246 97.388, 48.358 96.729 L 77.957 96.139 80.960 105.872 L 83.964 115.604 83.057 143.052 L 82.149 170.500 88.325 179.710 C 91.721 184.776, 94.840 188.825, 95.256 188.708 C 95.672 188.592, 100.551 184.907, 106.100 180.521 C 116.055 172.650, 116.180 172.499, 115.583 169.023 C 115.250 167.085, 114.698 154.475, 114.357 141 C 113.784 118.356, 113.899 115.763, 115.869 106.767 C 117.041 101.415, 118 96.847, 118 96.617 C 118 96.387, 130.768 96.446, 146.372 96.748 L 174.745 97.298 176.745 91.899 C 180.641 81.383, 181.595 82.709, 167.532 79.087 C 160.654 77.315, 154.458 76.211, 153.763 76.633 C 153.069 77.055, 148.352 80.379, 143.282 84.020 L 134.064 90.640 123.782 88.501 L 113.500 86.362 113.556 83.181 C 113.586 81.432, 113.699 74.703, 113.806 68.229 L 114 56.457 119.750 50.207 L 125.500 43.958 141.250 43.324 L 157 42.689 156.983 35.595 L 156.965 28.500 147.527 20.250 C 142.337 15.713, 137.732 12.019, 137.295 12.043 C 136.858 12.066, 131.100 14.992, 124.500 18.544 M 144.543 86.296 C 139.067 90.252, 135.242 93.577, 136.043 93.684 C 136.845 93.791, 145.475 94.061, 155.221 94.284 L 172.943 94.688 174.573 89.779 C 175.470 87.079, 176.045 84.718, 175.852 84.532 C 175.321 84.022, 156.649 78.994, 155.500 79.052 C 154.950 79.079, 150.020 82.339, 144.543 86.296 M 25.667 91.667 C 23.697 93.636, 26.761 93.999, 45.250 93.985 C 68.321 93.967, 74.351 92.649, 55.899 91.657 C 40.198 90.812, 26.516 90.817, 25.667 91.667" stroke="none" fill="black" fill-rule="evenodd"/>
</svg>