<svg xmlns="http://www.w3.org/2000/svg" width="200" height="200" viewBox="0 0 200 200" version="1.1">
	<path d="M 72.500 33.157 L 52.500 51.052 38.250 50.672 C 26.744 50.365, 24 50.552, 24 51.646 C 24 52.702, 26.692 53.035, 36.250 53.160 C 42.987 53.248, 47.038 53.502, 45.250 53.723 C 43.397 53.953, 42 54.704, 42 55.469 C 42 56.566, 45.625 56.711, 61.802 56.261 L 81.603 55.710 82.806 71.105 C 83.468 79.572, 84.007 87.354, 84.004 88.397 C 84 90.214, 83.180 90.271, 64.750 89.741 C 46.524 89.217, 44.651 89.342, 29.538 92.094 C 20.759 93.692, 13.447 95, 13.288 95 C 13.130 95, 13 95.688, 13 96.528 C 13 97.792, 14.080 97.965, 19.250 97.528 C 29.601 96.655, 64.208 94.872, 64.491 95.197 C 64.636 95.364, 65.651 101.530, 66.745 108.900 L 68.736 122.300 59.384 136.548 L 50.032 150.797 37.460 158.584 C 30.546 162.867, 24.691 166.690, 24.450 167.081 C 24.209 167.471, 31.033 170.605, 39.614 174.046 L 55.216 180.301 73.358 175.011 C 83.336 172.101, 99.825 166.362, 110 162.256 C 120.175 158.150, 129.514 154.398, 130.754 153.918 C 132.802 153.126, 133.933 154.279, 143.127 166.523 C 148.692 173.935, 153.646 180, 154.136 180 C 155.614 180, 183 166.041, 183 165.288 C 183 164.903, 178.387 156.850, 172.750 147.392 L 162.500 130.195 139.588 120.593 C 126.986 115.312, 116.543 111.124, 116.380 111.287 C 116.217 111.449, 119.230 117.362, 123.075 124.425 C 126.920 131.488, 129.910 137.423, 129.720 137.614 C 129.529 137.804, 123.915 140.219, 117.244 142.980 L 105.114 148 88.557 148 C 79.451 148, 72 147.779, 72 147.509 C 72 145.473, 98.445 115.618, 108.153 106.696 L 120.191 95.632 139.345 97.386 C 149.880 98.350, 160.357 99.386, 162.627 99.689 L 166.753 100.238 172.317 89.893 C 175.377 84.203, 177.784 79.451, 177.665 79.332 C 177.546 79.213, 169.777 81.043, 160.401 83.399 L 143.353 87.683 127.677 85.678 C 113.036 83.805, 112.005 83.535, 112.079 81.586 C 112.122 80.439, 113.814 73.652, 115.839 66.504 L 119.521 53.509 123.510 53.797 C 125.705 53.955, 135.995 55.208, 146.378 56.582 C 156.760 57.955, 165.447 58.886, 165.681 58.652 C 166.065 58.269, 162.014 32.930, 161.451 32.191 C 161.321 32.021, 152.698 36.145, 142.288 41.356 L 123.360 50.830 118.430 37.309 L 113.500 23.788 107.500 21.321 C 104.200 19.964, 99.475 18.046, 97 17.057 L 92.500 15.261 72.500 33.157 M 73.291 35.750 C 62.761 44.963, 54.113 52.768, 54.073 53.096 C 54.033 53.423, 60.750 53.475, 69 53.210 C 77.250 52.945, 84.006 52.902, 84.013 53.114 C 84.020 53.326, 84.686 61.150, 85.493 70.500 C 86.299 79.850, 86.968 88.737, 86.979 90.250 L 87 93 77.063 93 L 67.126 93 67.624 96.250 C 67.897 98.038, 68.925 104.781, 69.906 111.236 L 71.691 122.972 61.455 138.236 L 51.219 153.500 40.558 159.898 C 34.694 163.417, 30.257 166.641, 30.698 167.063 C 31.841 168.156, 54.142 177, 55.756 177 C 59.765 177, 97.131 164.673, 113.728 157.875 C 124.304 153.544, 133.304 150.016, 133.728 150.037 C 134.153 150.057, 137.988 154.894, 142.251 160.787 C 146.514 166.679, 151.034 172.787, 152.295 174.361 L 154.588 177.221 167.213 170.861 L 179.838 164.500 170.195 148.435 L 160.551 132.370 141.526 124.315 C 131.062 119.885, 122.366 116.373, 122.202 116.512 C 122.038 116.650, 124.613 121.644, 127.924 127.610 C 131.235 133.575, 133.619 138.769, 133.222 139.151 C 132.825 139.533, 126.875 142.082, 120 144.815 L 107.500 149.785 87.250 150.142 C 76.112 150.339, 67 150.138, 67 149.695 C 67 149.253, 72.870 141.732, 80.044 132.983 C 94.437 115.432, 117.450 93, 121.064 93 C 122.248 93, 132.663 93.930, 144.208 95.067 C 155.753 96.204, 165.302 96.992, 165.428 96.817 C 167.670 93.710, 172.750 82.877, 171.801 83.227 C 171.085 83.491, 164.338 85.212, 156.807 87.052 L 143.113 90.397 125.845 88.154 C 116.347 86.920, 108.440 85.773, 108.272 85.605 C 108.104 85.438, 110.112 77.360, 112.734 67.656 C 115.931 55.821, 117.947 50.009, 118.857 50.005 C 119.603 50.002, 120 49.438, 119.737 48.750 C 119.475 48.063, 117.519 42.679, 115.389 36.786 L 111.517 26.072 103.009 22.521 C 98.329 20.568, 94.036 18.977, 93.468 18.985 C 92.901 18.993, 83.821 26.537, 73.291 35.750 M 143.500 43.727 L 128.500 51.350 145.445 53.647 C 154.765 54.910, 162.470 55.844, 162.569 55.722 C 162.991 55.198, 159.567 36.005, 159.060 36.053 C 158.752 36.082, 151.750 39.535, 143.500 43.727 M 46.250 92.728 C 48.313 92.944, 51.688 92.944, 53.750 92.728 C 55.813 92.513, 54.125 92.336, 50 92.336 C 45.875 92.336, 44.188 92.513, 46.250 92.728" stroke="none" fill="black" fill-rule="evenodd"/>
</svg>