<svg xmlns="http://www.w3.org/2000/svg" width="200" height="200" viewBox="0 0 200 200" version="1.1">
	<path d="M 49.340 35.304 C 36.443 54.603, 17.051 91.296, 19.085 92.553 C 19.662 92.909, 20.278 93.043, 20.454 92.850 C 20.631 92.658, 25.132 83.781, 30.455 73.125 C 38.598 56.827, 55.680 28.791, 61.692 21.857 C 63.001 20.347, 64.243 20.587, 76.974 24.807 L 90.831 29.400 93.396 38.386 C 94.807 43.328, 95.839 47.495, 95.689 47.645 C 95.539 47.795, 92.060 48.414, 87.958 49.022 C 80.701 50.097, 79.975 50.479, 61 63.228 C 50.275 70.434, 41.305 76.488, 41.067 76.681 C 40.828 76.875, 41.093 77.493, 41.654 78.054 C 42.349 78.749, 48.543 77.013, 61.030 72.625 L 79.384 66.174 90.942 68.778 C 97.299 70.211, 102.610 71.444, 102.744 71.519 C 103.129 71.734, 110.723 98, 110.400 98 C 110.241 98, 105.423 95.519, 99.694 92.487 L 89.277 86.974 61.389 108.116 C 46.050 119.744, 32.829 129.762, 32.008 130.379 C 30.410 131.580, 34.989 125.812, 46.837 111.697 C 50.901 106.855, 54.063 102.749, 53.863 102.574 C 52.714 101.564, 29.001 93.333, 28.547 93.786 C 27.177 95.157, 28.669 96.036, 38.494 99.645 C 44.266 101.765, 48.991 103.790, 48.994 104.144 C 48.999 104.656, 29.025 129.330, 22.176 137.274 C 21.197 138.409, 20.993 139.393, 21.609 140.009 C 22.225 140.625, 34.612 131.835, 56.035 115.582 L 89.500 90.193 100.490 96.051 C 120.346 106.635, 118.588 108.523, 81.877 116.044 C 67.618 118.966, 56.075 121.679, 56.226 122.073 C 56.377 122.468, 59.331 126.228, 62.791 130.429 C 66.753 135.241, 69.529 137.807, 70.291 137.362 C 70.956 136.974, 79.825 131.394, 90 124.962 C 100.175 118.530, 109.900 113.006, 111.611 112.686 L 114.722 112.106 116.906 119.622 C 119.981 130.204, 119.557 130.983, 110.683 131.071 C 106.732 131.110, 100.125 131.457, 96 131.841 L 88.500 132.539 65.250 147.881 C 52.462 156.319, 42 163.878, 42 164.679 C 42 165.595, 42.649 165.944, 43.750 165.620 C 44.712 165.336, 60.350 161.007, 78.500 156 C 96.650 150.993, 112.245 146.677, 113.157 146.410 C 114.068 146.143, 115.578 144.029, 116.512 141.712 C 120.617 131.539, 120.041 131.751, 122.543 139.500 C 124.615 145.918, 124.666 146.578, 123.151 147.442 C 122.243 147.960, 107.325 154.560, 90 162.107 C 56.741 176.597, 57.069 176.390, 55.501 183.850 C 54.881 186.801, 55.017 187.133, 56.649 186.642 C 57.667 186.336, 75.590 182.214, 96.477 177.482 C 117.364 172.751, 134.518 168.794, 134.595 168.690 C 134.673 168.585, 139.057 159.574, 144.337 148.665 L 153.937 128.830 138.606 129.543 C 128.358 130.019, 123.064 129.912, 122.636 129.219 C 122.022 128.227, 127.469 112.390, 129.016 110.668 C 129.427 110.211, 141.947 113.248, 156.839 117.418 C 171.731 121.588, 184.159 125, 184.457 125 C 184.756 125, 185 124.412, 185 123.693 C 185 122.694, 157.063 98.949, 148.196 92.411 C 147.008 91.534, 149.198 89.800, 159.403 83.540 C 166.379 79.260, 171.917 75.250, 171.710 74.629 C 171.248 73.245, 172.245 73.228, 156.212 74.885 C 148.903 75.639, 142.641 75.974, 142.295 75.628 C 141.948 75.282, 143.947 64.761, 146.736 52.249 C 149.524 39.737, 151.663 29.351, 151.488 29.169 C 151.313 28.986, 142.672 29.904, 132.285 31.208 C 113.476 33.570, 113.372 33.572, 106.949 31.689 C 101.784 30.174, 99.346 28.700, 94.701 24.281 C 91.511 21.247, 88.707 18.960, 88.468 19.199 C 88.229 19.437, 88.457 21.106, 88.973 22.906 C 89.733 25.556, 89.646 26.078, 88.517 25.645 C 87.106 25.103, 65.768 18.322, 63 17.535 C 61.968 17.241, 57.708 22.782, 49.340 35.304 M 94.376 31.749 C 94.657 32.712, 95.637 36.200, 96.554 39.500 C 97.471 42.800, 98.565 45.870, 98.984 46.323 C 99.631 47.021, 118.042 44.332, 126 42.377 C 129.878 41.424, 115.899 36.793, 109.580 36.937 C 105.626 37.027, 104.154 36.566, 102.080 34.588 C 100.661 33.235, 98.232 31.648, 96.682 31.063 C 94.206 30.127, 93.927 30.210, 94.376 31.749 M 132 33.914 L 119.500 35.573 128 38.410 C 132.675 39.971, 136.838 41.553, 137.252 41.926 C 137.665 42.298, 136.378 46.630, 134.391 51.552 C 132.405 56.473, 128.123 69.275, 124.876 80 C 121.628 90.725, 118.768 100.061, 118.519 100.746 C 118.051 102.032, 123.901 105.502, 128.129 106.447 C 129.433 106.739, 140.811 109.908, 153.414 113.491 C 166.017 117.073, 176.487 119.846, 176.680 119.653 C 176.874 119.460, 169.375 113.083, 160.016 105.484 C 150.657 97.884, 143 91.393, 143 91.060 C 143 90.726, 147.736 87.543, 153.524 83.985 C 159.313 80.427, 163.673 77.391, 163.214 77.238 C 162.754 77.085, 157.006 77.584, 150.439 78.347 C 143.873 79.109, 138.373 79.629, 138.219 79.502 C 138.064 79.375, 140.202 69.087, 142.969 56.640 C 145.736 44.193, 148 33.557, 148 33.005 C 148 31.803, 147.854 31.811, 132 33.914 M 116.256 46.922 C 107.871 48.426, 100.758 49.908, 100.449 50.217 C 99.868 50.798, 104.523 67.857, 105.540 68.874 C 106.130 69.464, 119.607 72.883, 121.638 72.958 C 122.807 73.001, 127.565 61.750, 130.500 52 C 131.410 48.975, 132.331 45.938, 132.546 45.250 C 132.761 44.563, 132.614 44.042, 132.219 44.094 C 131.823 44.146, 124.640 45.419, 116.256 46.922 M 88.615 51.711 C 81.215 52.989, 79.905 53.633, 67.342 62.180 C 59.979 67.190, 54.110 71.443, 54.298 71.632 C 54.487 71.820, 60.168 70.027, 66.924 67.646 L 79.206 63.318 90.098 65.830 C 96.089 67.212, 101.194 68.139, 101.443 67.891 C 101.850 67.483, 97.392 50.932, 96.763 50.521 C 96.618 50.426, 92.952 50.961, 88.615 51.711 M 106.452 73.871 C 106.732 74.767, 108.539 80.871, 110.467 87.436 C 112.395 94.001, 114.355 99.755, 114.821 100.221 C 115.288 100.688, 117.320 95.580, 119.336 88.869 C 121.353 82.159, 122.869 76.535, 122.706 76.372 C 122.542 76.209, 118.704 75.213, 114.175 74.158 C 106.732 72.425, 105.991 72.398, 106.452 73.871 M 117 107.107 C 117 108.617, 117.448 109.042, 118.582 108.607 C 119.452 108.273, 120.914 107.984, 121.832 107.965 C 123.023 107.939, 122.786 107.521, 121 106.500 C 117.603 104.558, 117 104.650, 117 107.107 M 120.750 110.716 C 119.237 110.945, 118 111.579, 118 112.124 C 118 114.292, 120.280 122, 120.921 122 C 121.297 122, 122.481 119.650, 123.552 116.778 C 124.624 113.906, 125.650 111.206, 125.833 110.778 C 126.173 109.986, 125.615 109.979, 120.750 110.716 M 80.166 119.007 C 70.082 121.112, 61.638 123.029, 61.400 123.267 C 60.810 123.857, 68.957 134, 70.022 134 C 70.704 134, 98.383 116.756, 99.917 115.375 C 100.586 114.772, 99.430 114.985, 80.166 119.007 M 129.750 132.739 C 126.588 132.937, 124 133.366, 124 133.692 C 124 134.018, 124.932 137.413, 126.071 141.238 C 127.210 145.062, 127.997 148.323, 127.821 148.484 C 127.644 148.645, 112.706 155.215, 94.625 163.084 C 76.545 170.953, 61.132 178.011, 60.375 178.767 C 59.619 179.524, 59 180.806, 59 181.617 C 59 183.412, 56.278 183.920, 98.970 174.155 L 132.441 166.500 140.649 150 C 145.163 140.925, 148.889 133.162, 148.928 132.750 C 148.998 132.018, 141.312 132.013, 129.750 132.739 M 92.500 134.928 C 89.750 135.394, 82.951 139.312, 70.745 147.465 C 60.980 153.987, 53.160 159.493, 53.368 159.701 C 53.575 159.909, 67.049 156.376, 83.309 151.851 L 112.872 143.624 114.436 139.529 C 115.296 137.276, 116 135.111, 116 134.717 C 116 133.835, 97.996 133.997, 92.500 134.928" stroke="none" fill="black" fill-rule="evenodd"/>
</svg>