<svg xmlns="http://www.w3.org/2000/svg" width="200" height="200" viewBox="0 0 200 200" version="1.1">
	<path d="M 143.754 16.593 C 143.448 17.092, 139.711 35.050, 135.451 56.500 C 131.191 77.950, 127.435 95.803, 127.103 96.174 C 126.771 96.545, 118.625 96.221, 109 95.454 C 99.375 94.687, 90.906 94.047, 90.180 94.030 C 89.449 94.013, 90.565 92.032, 92.680 89.590 L 96.500 85.180 97 88.163 C 97.476 91.004, 98.069 90.421, 109.557 75.822 C 121.387 60.789, 121.698 60.491, 125.993 60 L 130.372 59.500 126.936 56.958 C 125.046 55.559, 118.662 51.358, 112.750 47.622 C 106.838 43.886, 102 40.510, 102 40.120 C 102 39.729, 109.313 36.433, 118.250 32.796 C 127.884 28.875, 134.500 25.636, 134.500 24.841 C 134.500 24.103, 133.825 23.576, 133 23.669 C 132.175 23.762, 120.588 24.866, 107.250 26.123 C 89.240 27.821, 83 28.743, 83 29.705 C 83 31.378, 84.866 31.326, 106 29.058 C 115.625 28.025, 123.601 27.278, 123.725 27.398 C 123.848 27.518, 117.998 30.004, 110.725 32.922 C 103.451 35.841, 97.100 38.599, 96.612 39.052 C 96.123 39.505, 101.067 43.325, 107.612 47.550 C 114.150 51.771, 119.859 55.555, 120.298 55.960 C 120.738 56.365, 115.563 56.483, 108.798 56.221 L 96.500 55.746 96.810 68.536 L 97.119 81.326 90.810 87.703 C 85.780 92.786, 84.044 93.967, 82.250 93.521 C 79.605 92.864, 79.579 93.079, 80.966 104.526 C 81.786 111.302, 81.511 115.694, 79.136 133.750 C 77.368 147.190, 76.719 155, 77.371 155 C 77.938 155, 85.633 153.572, 94.471 151.826 L 110.541 148.652 113.571 144.576 C 121.458 133.964, 123.244 130.870, 124.345 125.913 L 125.530 120.576 131.515 119.332 C 134.807 118.647, 138.795 118.068, 140.378 118.044 C 143.880 117.991, 165.954 131.742, 165.991 134 C 166.013 135.332, 156.895 181.108, 156.477 181.762 C 156.385 181.906, 147.703 178.378, 137.183 173.922 L 118.055 165.820 94.745 173.811 L 71.434 181.802 64.656 167.574 L 57.878 153.347 47.865 144.480 C 42.358 139.603, 37.147 135.097, 36.286 134.467 C 34.930 133.476, 36.360 130.668, 46.900 113.620 L 59.081 93.919 57.041 91.325 C 55.215 89.004, 55 87.306, 55 75.226 L 55 61.721 49.750 62.255 C 45.743 62.662, 49.236 61.204, 64.500 56.100 C 75.500 52.422, 85.139 49.182, 85.919 48.900 C 86.700 48.618, 77.414 44.138, 65.285 38.944 L 43.232 29.500 58.116 29.224 C 70.438 28.995, 73 28.694, 73 27.474 C 73 26.227, 70.064 26, 53.927 26 C 28.982 26, 28.986 26.570, 54 37.143 C 64.175 41.444, 74.075 45.703, 76 46.608 L 79.500 48.252 54.197 56.512 C 40.281 61.055, 28.611 65.056, 28.264 65.403 C 26.450 67.216, 30.422 67.620, 38.500 66.443 C 53.492 64.259, 52 63.082, 52 77.092 C 52 87.486, 52.269 89.526, 53.913 91.616 L 55.825 94.048 43.413 114.101 C 36.586 125.131, 31 134.352, 31 134.592 C 31 134.833, 32.413 135.889, 34.141 136.939 C 35.868 137.990, 41.335 142.371, 46.290 146.675 L 55.299 154.500 62.590 169.750 C 66.600 178.137, 70.099 185, 70.365 185 C 70.631 185, 81.458 181.355, 94.424 176.900 L 118 168.800 138.185 177.382 C 149.286 182.102, 158.441 185.860, 158.529 185.732 C 158.947 185.125, 169.030 134.293, 169.016 132.863 C 168.994 130.641, 144.451 114.989, 141.061 115.035 C 139.652 115.054, 135.651 115.681, 132.168 116.428 C 125.891 117.775, 125.841 117.768, 126.361 115.643 C 126.649 114.464, 127.439 110.463, 128.115 106.750 C 129.276 100.383, 129.499 100, 132.052 100 C 136.040 100, 151.675 87.076, 169.833 68.769 L 185.166 53.311 174.333 52.090 C 160.023 50.477, 157 49.934, 157 48.980 C 157 46.972, 144.247 15.791, 143.754 16.593 M 137.610 59.750 C 133.904 78.313, 130.646 94.287, 130.369 95.250 C 128.315 102.387, 147.325 88.210, 166.205 68.524 L 178.910 55.277 167.296 53.889 L 155.682 52.500 150.591 39.258 C 147.791 31.975, 145.241 26.013, 144.924 26.008 C 144.607 26.004, 141.315 41.188, 137.610 59.750 M 99.088 63.250 C 99.136 65.588, 99.473 69.651, 99.838 72.280 L 100.500 77.061 109.479 68.030 L 118.458 59 108.729 59 L 99 59 99.088 63.250 M 102.004 79.496 C 100.714 80.869, 99.880 82.213, 100.150 82.484 C 100.421 82.754, 101.636 81.631, 102.851 79.988 C 105.542 76.348, 105.166 76.130, 102.004 79.496 M 83.079 97.583 C 83.127 98.748, 83.364 98.985, 83.683 98.188 C 83.972 97.466, 83.936 96.603, 83.604 96.271 C 83.272 95.939, 83.036 96.529, 83.079 97.583 M 86.250 98.750 C 85.388 100.946, 85.278 123.610, 86.125 124.458 C 86.856 125.189, 121.085 119.005, 122.364 117.911 C 123.926 116.575, 126.894 99.884, 125.634 99.522 C 124.305 99.140, 93.798 96.997, 89.719 96.999 C 87.999 96.999, 86.675 97.668, 86.250 98.750 M 103.134 124.767 C 88.807 127.479, 84.598 127.968, 83.993 126.989 C 83.480 126.158, 83.025 126.710, 82.649 128.617 C 81.560 134.139, 79.659 150.992, 80.078 151.410 C 80.475 151.805, 109.157 146.285, 109.489 145.750 C 109.574 145.612, 112.159 142.010, 115.235 137.744 C 118.810 132.784, 121.074 128.523, 121.512 125.926 C 121.890 123.693, 122.041 121.736, 121.849 121.578 C 121.657 121.419, 113.235 122.855, 103.134 124.767" stroke="none" fill="black" fill-rule="evenodd"/>
</svg>