<svg xmlns="http://www.w3.org/2000/svg" width="200" height="200" viewBox="0 0 200 200" version="1.1">
	<path d="M 81.417 16.778 C 72.113 22.705, 62.815 28.590, 60.755 29.856 C 57.456 31.883, 55.166 32.246, 41.510 32.907 C 32.985 33.320, 25.753 33.913, 25.441 34.226 C 25.128 34.539, 22.489 41.096, 19.577 48.797 L 14.282 62.798 13.591 89.149 L 12.900 115.500 17.972 137.438 C 20.761 149.504, 23.259 159.592, 23.522 159.855 C 24.111 160.444, 22.588 162.452, 36.421 142.846 L 48.171 126.192 55.421 129.495 C 59.408 131.313, 65.040 134, 67.935 135.467 C 70.830 136.934, 73.334 137.992, 73.499 137.817 C 73.664 137.643, 76.682 124.900, 80.206 109.500 L 86.613 81.500 95.880 79.657 C 100.977 78.643, 105.375 78.042, 105.654 78.321 C 106.261 78.928, 101.112 122.976, 100.260 124.464 C 99.934 125.034, 93.808 133.600, 86.647 143.500 C 78.881 154.238, 69.625 165.603, 63.705 171.668 C 58.247 177.261, 54.059 182.286, 54.398 182.835 C 54.759 183.418, 62.603 180.287, 73.258 175.308 C 83.291 170.618, 93.076 166.131, 95.003 165.336 C 97.962 164.115, 100.729 160.479, 112.819 141.931 C 120.691 129.853, 127.949 117.616, 128.948 114.736 C 131.259 108.077, 131.306 108.265, 134.010 135 C 135.150 146.275, 136.319 156.711, 136.608 158.190 C 137.046 160.437, 139.637 162.318, 152.316 169.594 C 160.667 174.386, 167.891 178.523, 168.370 178.787 C 168.861 179.057, 168.916 172.138, 168.496 162.905 L 167.751 146.544 152.376 126.583 L 137 106.623 137.099 95.561 C 137.153 89.478, 137.495 82.025, 137.858 79 L 138.518 73.500 139.878 82.500 C 140.626 87.450, 141.521 92.003, 141.869 92.618 C 142.258 93.307, 148.880 89.139, 159.136 81.750 L 175.772 69.765 171.258 56.132 C 168.776 48.635, 166.430 42.150, 166.045 41.723 C 165.661 41.296, 153.906 44.058, 139.923 47.861 C 125.940 51.663, 114.366 54.654, 114.202 54.506 C 114.038 54.358, 117.081 44.889, 120.964 33.464 C 124.848 22.039, 127.809 12.475, 127.544 12.211 C 127.280 11.947, 120.019 15.635, 111.408 20.408 C 102.798 25.181, 95.558 28.891, 95.319 28.652 C 95.081 28.414, 95.820 23.378, 96.962 17.462 C 98.103 11.545, 98.879 6.546, 98.686 6.353 C 98.493 6.160, 90.722 10.851, 81.417 16.778 M 78.066 22.076 L 62.633 32 67.728 32 L 72.824 32 73.500 36 C 73.872 38.200, 74.699 39.977, 75.338 39.950 C 75.977 39.922, 79.867 37.954, 83.982 35.577 L 91.464 31.255 93.186 22.877 C 95.159 13.282, 95.288 11.971, 94.250 12.076 C 93.838 12.118, 86.555 16.618, 78.066 22.076 M 108.613 25.029 C 100.976 29.268, 94.401 33.359, 94.003 34.119 C 93.605 34.878, 92.742 38.425, 92.085 42 C 90.284 51.792, 75.758 95, 74.266 95 C 73.570 95, 73 94.650, 73 94.223 C 73 93.796, 76.175 84.008, 80.055 72.473 C 83.935 60.938, 87.945 47.769, 88.965 43.209 L 90.820 34.918 83.160 39.091 C 78.947 41.386, 75.408 43.333, 75.296 43.419 C 75.183 43.505, 76.188 48.283, 77.528 54.038 C 80.403 66.383, 80.367 66, 78.652 66 C 77.753 66, 76.534 62.492, 74.993 55.470 C 73.722 49.678, 72.398 45.065, 72.051 45.220 C 64.821 48.431, 44.035 60.876, 44.025 62 C 44.017 62.825, 45.781 74.499, 47.945 87.943 C 52.888 118.654, 52.541 120.144, 44.170 104.136 L 39.011 94.273 38.362 69.386 L 37.714 44.500 45.107 39.680 L 52.500 34.860 47.610 35.430 C 44.921 35.744, 39.244 36, 34.993 36 L 27.266 36 21.962 49.750 L 16.659 63.500 16.230 89.327 L 15.801 115.153 20.069 134.077 C 22.417 144.484, 24.674 153, 25.084 153 C 25.494 153, 30.631 146.250, 36.500 138 C 42.369 129.750, 47.469 123.004, 47.835 123.009 C 48.201 123.014, 53.629 125.497, 59.899 128.527 C 66.168 131.557, 71.423 133.910, 71.577 133.757 C 71.730 133.603, 74.645 121.333, 78.054 106.489 C 81.464 91.645, 84.402 79.331, 84.585 79.125 C 85.492 78.099, 108.545 74.456, 108.872 75.287 C 109.077 75.807, 107.996 87.093, 106.470 100.366 L 103.695 124.500 89.637 144 C 81.905 154.725, 72.636 166.580, 69.040 170.345 L 62.500 177.189 68 174.710 C 71.025 173.347, 78.727 169.817, 85.116 166.866 L 96.731 161.500 110.728 140 C 121.299 123.762, 125.427 116.481, 127.595 110.250 C 130.260 102.592, 132.793 99.629, 133.152 103.750 C 133.652 109.483, 134.784 89.529, 134.883 73.250 C 134.982 56.968, 135.228 54, 136.481 54 C 138.197 54, 138.241 54.174, 141.007 72 C 142.160 79.425, 143.417 86.268, 143.801 87.206 C 144.387 88.638, 146.517 87.460, 157 79.907 C 163.875 74.954, 170.115 70.293, 170.866 69.549 C 172.019 68.408, 171.649 66.431, 168.491 56.849 C 166.434 50.607, 164.469 45.216, 164.125 44.870 C 163.781 44.523, 151.575 47.496, 137 51.476 C 122.425 55.456, 110.341 58.580, 110.146 58.419 C 109.951 58.257, 112.811 49.069, 116.500 38 C 120.189 26.931, 123.049 17.750, 122.854 17.597 C 122.659 17.445, 116.251 20.789, 108.613 25.029 M 62.395 34.913 C 58.670 35.341, 55.094 36.853, 49.174 40.500 L 41.058 45.500 41.029 52.302 L 41 59.105 49.750 54.348 C 71.095 42.745, 71.525 42.444, 71.215 39.347 C 70.799 35.205, 70.224 33.980, 68.781 34.163 C 68.077 34.253, 65.203 34.590, 62.395 34.913 M 41.116 78 C 41.006 90.995, 41.112 91.734, 43.958 97.750 C 45.585 101.188, 47.097 104, 47.319 104 C 47.715 104, 46.749 97.522, 43.068 75.500 L 41.230 64.500 41.116 78 M 134.298 112 C 134.604 114.475, 135.860 126.070, 137.089 137.767 L 139.323 159.035 151.879 166.267 C 158.785 170.245, 164.787 173.650, 165.218 173.833 C 166.155 174.233, 166.233 163.114, 165.358 153.849 L 164.729 147.199 150.287 128.349 C 142.344 117.982, 135.372 109.050, 134.793 108.500 C 134.061 107.804, 133.910 108.869, 134.298 112" stroke="none" fill="black" fill-rule="evenodd"/>
</svg>