<svg xmlns="http://www.w3.org/2000/svg" width="200" height="200" viewBox="0 0 200 200" version="1.1">
	<path d="M 80.068 19.115 C 76.947 28.052, 76.351 28.918, 58.380 50.605 C 48.216 62.871, 38.460 74.116, 36.700 75.595 C 34.940 77.074, 30.389 81.162, 26.588 84.680 C 15.213 95.204, 18.706 94.657, 44.120 81.938 L 66.500 70.737 87.500 72.409 C 99.050 73.329, 110.412 74.339, 112.750 74.654 L 117 75.227 117 66.582 C 117 60.054, 116.654 57.804, 115.586 57.395 C 114.808 57.096, 105.560 58.940, 95.034 61.492 C 84.507 64.044, 75.465 65.988, 74.938 65.813 C 74.412 65.637, 80.623 58.905, 88.741 50.852 L 103.500 36.209 123.250 59.055 C 134.113 71.620, 143 82.485, 143 83.200 C 143 83.915, 141.208 90.125, 139.019 97 C 136.830 103.875, 135.030 109.968, 135.019 110.540 C 135.009 111.111, 138.105 113.256, 141.899 115.305 L 148.798 119.032 155.120 137.266 C 158.597 147.295, 161.338 155.725, 161.211 156 C 161.084 156.275, 156.016 162.703, 149.949 170.284 L 138.918 184.068 126.209 177.388 C 119.219 173.714, 113.114 170.365, 112.642 169.946 C 112.170 169.527, 112.800 165.760, 114.042 161.576 C 115.285 157.391, 116.121 153.820, 115.900 153.640 C 115.680 153.460, 105.695 148.209, 93.711 141.971 L 71.922 130.630 72.567 127.565 C 72.921 125.879, 73.549 124.136, 73.963 123.692 C 74.377 123.248, 82.914 122.614, 92.934 122.285 C 108.919 121.759, 111.102 121.490, 110.747 120.093 C 110.525 119.217, 109.269 114.360, 107.956 109.299 C 106.642 104.239, 105.778 99.925, 106.034 99.713 C 106.290 99.501, 113.138 94.731, 121.250 89.115 C 129.363 83.498, 136 78.219, 136 77.384 C 136 76.403, 135.380 76.052, 134.250 76.392 C 133.287 76.682, 121.475 79.602, 108 82.881 C 85.575 88.337, 81.773 88.973, 63.113 90.391 C 51.900 91.244, 42.480 92.187, 42.179 92.487 C 40.309 94.358, 46.591 94.460, 71.500 92.965 C 86.900 92.040, 99.802 91.558, 100.172 91.892 C 100.542 92.226, 101.114 94.075, 101.443 96 L 102.042 99.500 87.107 109.750 L 72.172 120 64.242 120 L 56.311 120 47.656 132.994 C 42.895 140.140, 39.002 146.553, 39.005 147.244 C 39.012 148.872, 49.722 191.056, 50.268 191.601 C 50.496 191.829, 61.153 185.927, 73.950 178.486 L 97.218 164.957 117.960 175.979 C 129.368 182.040, 138.979 187, 139.317 187 C 140.437 187, 164 157.112, 164 155.691 C 164 154.558, 154.102 125.358, 151.462 118.701 C 151.069 117.711, 148.084 115.557, 144.828 113.913 C 141.572 112.270, 138.698 110.378, 138.442 109.708 C 138.185 109.039, 139.957 102.581, 142.380 95.357 L 146.786 82.221 142.315 77.111 C 139.857 74.300, 137.992 72.003, 138.172 72.006 C 138.353 72.009, 148.382 74.240, 160.461 76.962 C 172.539 79.685, 182.552 81.782, 182.711 81.622 C 182.871 81.463, 178.036 75.024, 171.967 67.314 L 160.932 53.296 138.417 42.984 C 121.864 35.403, 115.220 31.855, 113.324 29.586 C 106.300 21.178, 95.708 10.892, 94.902 11.698 C 94.381 12.219, 98.420 17.326, 104.648 24.017 L 115.284 35.446 137.230 45.418 L 159.176 55.390 167.588 66.112 C 172.215 72.009, 176 77.021, 176 77.249 C 176 77.477, 166.696 75.602, 155.325 73.082 L 134.650 68.500 121.206 48.188 L 107.761 27.876 105.541 29.962 L 103.320 32.048 94.016 21.274 C 88.899 15.348, 84.389 10.371, 83.994 10.213 C 83.600 10.055, 81.833 14.061, 80.068 19.115 M 81.960 21.957 C 79.735 28.533, 77.793 31.299, 61.668 50.864 C 51.861 62.764, 40.611 75.548, 36.668 79.273 L 29.500 86.045 47 77.380 C 56.625 72.614, 65.405 68.441, 66.511 68.107 C 67.617 67.773, 75.888 59.968, 84.892 50.763 L 101.262 34.025 97.728 29.763 C 95.785 27.418, 91.995 23.067, 89.307 20.092 L 84.420 14.685 81.960 21.957 M 106.243 33.228 C 105.473 34.173, 106.746 36.172, 111.190 41 L 117.174 47.500 113.453 41.500 C 107.458 31.831, 107.420 31.787, 106.243 33.228 M 94.500 64.479 C 85.150 66.841, 78.175 68.830, 79 68.899 C 79.825 68.968, 87.925 69.689, 97 70.500 C 106.075 71.311, 113.725 71.982, 114 71.989 C 114.275 71.997, 114.348 69.303, 114.161 66.002 C 113.948 62.234, 113.390 60.034, 112.661 60.093 C 112.023 60.143, 103.850 62.117, 94.500 64.479 M 111 85.052 C 103.025 87.178, 97.811 88.823, 99.413 88.708 C 101.857 88.534, 102.473 88.983, 103.242 91.500 C 103.746 93.150, 104.347 95.097, 104.577 95.826 C 104.859 96.720, 108.172 94.964, 114.748 90.433 C 125.029 83.349, 128.052 80.939, 126.464 81.094 C 125.934 81.146, 118.975 82.927, 111 85.052 M 90.829 110.321 C 84.410 114.819, 78.785 118.897, 78.329 119.383 C 77.446 120.325, 105.752 119.581, 106.695 118.639 C 107.299 118.034, 104.106 103.894, 103.122 102.821 C 102.780 102.447, 97.248 105.822, 90.829 110.321 M 49.536 135.133 L 41.573 147.228 46.413 166.510 C 49.076 177.116, 51.534 186.245, 51.877 186.798 C 52.233 187.374, 61.197 182.755, 72.823 176.006 C 84.001 169.517, 92.776 163.990, 92.323 163.723 C 91.870 163.456, 85.650 161.555, 78.500 159.500 C 71.350 157.444, 65.088 155.381, 64.583 154.914 C 63.701 154.098, 64.007 152.267, 67.460 137.727 L 68.830 131.954 64.796 129.896 C 62.096 128.518, 61.094 127.506, 61.766 126.834 C 62.438 126.162, 63.831 126.378, 65.978 127.489 C 69.628 129.376, 69.496 129.428, 70.378 125.750 L 71.038 123 64.269 123.019 L 57.500 123.038 49.536 135.133 M 69.021 143.138 C 67.841 148.164, 67.241 152.611, 67.688 153.021 C 68.135 153.430, 77.147 156.301, 87.716 159.401 C 98.285 162.501, 107.594 165.291, 108.403 165.601 C 109.484 166.016, 110.287 164.773, 111.437 160.901 C 112.297 158.006, 113 155.533, 113 155.405 C 113 154.997, 72.704 134, 71.921 134 C 71.506 134, 70.201 138.112, 69.021 143.138" stroke="none" fill="black" fill-rule="evenodd"/>
</svg>