<svg xmlns="http://www.w3.org/2000/svg" width="200" height="200" viewBox="0 0 200 200" version="1.1">
	<path d="M 80.462 16.250 C 73.601 34.584, 72.614 36.268, 57.742 55.035 C 45.191 70.873, 41.318 74.994, 30.523 84 C 23.601 89.775, 16.979 95.305, 15.808 96.290 C 14.442 97.439, 14.025 98.425, 14.644 99.044 C 15.264 99.664, 23.555 96.518, 37.812 90.254 L 60.016 80.500 76.929 64.250 C 86.231 55.312, 94.396 48, 95.073 48 C 96.011 48, 96.149 50.532, 95.652 58.656 C 95.293 64.516, 95 72.177, 95 75.680 C 95 81.715, 94.856 82.103, 92.250 83.068 C 81.210 87.157, 72 91.495, 72 92.606 C 72 93.659, 74.326 93.802, 83.500 93.310 L 95 92.694 95 96.200 C 95 98.129, 94.711 102.473, 94.358 105.853 L 93.715 112 88.310 112 C 83.772 112, 82.551 112.406, 80.702 114.532 L 78.500 117.065 62.674 111.974 C 53.969 109.175, 46.319 107.060, 45.674 107.275 C 44.910 107.529, 43.910 114.453, 42.813 127.083 L 41.127 146.500 44.074 166 C 45.696 176.725, 47.273 186.717, 47.581 188.205 L 48.139 190.909 65.942 180.062 C 75.734 174.097, 84.621 168.938, 85.691 168.598 C 86.760 168.259, 95.930 169.607, 106.068 171.593 C 123.961 175.100, 156.083 179.996, 156.908 179.341 C 157.132 179.163, 158.303 167.886, 159.510 154.280 L 161.704 129.543 154.261 117.521 C 150.168 110.910, 144.611 102.950, 141.913 99.832 C 139.214 96.715, 137.434 94.015, 137.957 93.832 C 138.481 93.650, 133.280 84.950, 126.400 74.500 C 119.520 64.050, 112.600 53.412, 111.022 50.860 L 108.153 46.219 111.179 45.614 C 112.844 45.281, 114.592 45.248, 115.064 45.540 C 115.537 45.832, 122.033 55.055, 129.499 66.035 C 136.966 77.016, 143.171 85.998, 143.288 85.997 C 144.346 85.979, 183.293 78.041, 183.542 77.792 C 183.953 77.380, 165.080 54.612, 163.984 54.197 C 161.079 53.098, 163.253 56.889, 170.486 65.534 C 177.312 73.693, 178.522 75.629, 177.162 76.210 C 176.248 76.600, 169.425 78.098, 162 79.537 C 154.575 80.977, 147.580 82.371, 146.455 82.635 C 144.738 83.037, 142.164 79.823, 130.455 62.658 L 116.500 42.201 111.363 42.729 L 106.226 43.256 102.613 37.892 C 99.385 33.099, 99 31.835, 99 26.042 L 99 19.558 105.250 25.664 C 110.266 30.565, 149.491 58, 151.481 58 C 151.767 58, 152 57.379, 152 56.620 C 152 55.861, 143.563 49.722, 133.250 42.977 C 119.587 34.042, 112.152 28.411, 105.844 22.222 L 97.188 13.729 96.467 20.461 L 95.746 27.193 89.903 18.097 C 86.690 13.094, 83.861 9, 83.617 9 C 83.374 9, 81.954 12.262, 80.462 16.250 M 82.669 18.250 C 81.922 20.038, 80.034 24.935, 78.473 29.133 C 76.084 35.557, 73.283 39.749, 60.802 55.585 C 48.584 71.086, 43.989 76.070, 34.735 83.863 C 28.556 89.066, 24.011 93.138, 24.635 92.911 C 25.260 92.685, 33.022 89.359, 41.884 85.519 L 57.998 78.539 75.655 61.769 C 85.366 52.546, 93.917 45, 94.656 45 C 95.635 45, 96 43.334, 96 38.858 C 96 33.125, 95.628 32.127, 90.411 23.858 C 87.336 18.986, 84.642 15, 84.424 15 C 84.206 15, 83.416 16.462, 82.669 18.250 M 99.015 40.750 C 99.003 43.357, 99.403 44, 101.035 44 C 102.688 44, 102.882 43.672, 102.069 42.250 C 99.410 37.605, 99.031 37.419, 99.015 40.750 M 101.872 46.783 C 99.705 47.052, 99.137 47.758, 98.633 50.805 C 97.729 56.270, 97.870 80, 98.806 80 C 99.249 80, 103.610 78.388, 108.497 76.417 L 117.383 72.834 124.692 80.667 L 132.001 88.500 118.533 67.616 C 111.127 56.131, 104.939 46.671, 104.783 46.594 C 104.627 46.518, 103.317 46.603, 101.872 46.783 M 107.252 79.808 L 98.005 83.500 98.002 87.250 L 98 91 114.090 91 L 130.180 91 123.467 83.500 C 119.775 79.375, 116.698 76.026, 116.627 76.058 C 116.557 76.090, 112.339 77.778, 107.252 79.808 M 88.123 87.437 L 82.747 89.699 85.998 90.350 C 87.787 90.707, 90.544 91, 92.125 91 C 94.653 91, 95 90.638, 95 88 C 95 84.496, 95.094 84.504, 88.123 87.437 M 97.672 93.661 C 97.302 94.031, 97 98.308, 97 103.167 L 97 112 118 112 C 136 112, 139 112.214, 139 113.500 C 139 114.325, 138.764 115, 138.476 115 C 137.607 115, 97.511 121.198, 97.366 121.355 C 97.292 121.435, 97.067 126.208, 96.866 131.962 L 96.500 142.425 115.369 153.607 C 128.964 161.665, 133.715 164.943, 132.369 165.339 C 131.341 165.641, 123.849 166.199, 115.719 166.580 C 107.590 166.961, 101.084 167.417, 101.261 167.594 C 102.712 169.045, 153.351 176.993, 154.393 175.933 C 154.627 175.695, 155.729 165.402, 156.843 153.059 C 158.335 136.514, 158.582 130.078, 157.784 128.559 C 153.483 120.375, 141.289 102.688, 137.317 98.872 L 132.500 94.243 115.422 93.616 C 106.029 93.272, 98.041 93.292, 97.672 93.661 M 47.010 110.643 C 47.015 111.114, 46.314 119.600, 45.453 129.500 L 43.886 147.500 46.867 166.341 C 48.506 176.703, 50.051 185.385, 50.300 185.633 C 50.778 186.111, 75.697 171.499, 77.632 169.607 C 78.471 168.786, 77.113 163.978, 72.382 151.014 C 68.872 141.397, 66 133.289, 66 132.996 C 66 132.704, 68.239 129.772, 70.975 126.482 C 73.711 123.192, 75.961 120.182, 75.975 119.793 C 75.989 119.404, 70.075 117.224, 62.833 114.947 C 55.591 112.671, 49.066 110.579, 48.333 110.297 C 47.600 110.016, 47.004 110.172, 47.010 110.643 M 82.626 116.532 C 81.832 118.600, 86.494 120.318, 90.740 119.521 C 93.100 119.078, 94 118.370, 94 116.955 C 94 115.257, 93.292 115, 88.607 115 C 84.686 115, 83.054 115.418, 82.626 116.532 M 97 116.500 C 97 118.328, 99.725 118.335, 110 116.532 L 117.500 115.215 107.250 115.108 C 98.758 115.018, 97 115.257, 97 116.500 M 74.110 126.736 L 68.848 133.164 74.674 149.630 L 80.500 166.095 85 165.585 C 87.475 165.305, 96.072 164.790, 104.105 164.441 C 127.992 163.403, 127.669 164.029, 109.798 153.403 L 94.500 144.306 94.216 133.044 L 93.932 121.783 90.716 122.261 C 88.947 122.525, 85.671 122.193, 83.436 121.524 L 79.371 120.308 74.110 126.736" stroke="none" fill="black" fill-rule="evenodd"/>
</svg>