<svg xmlns="http://www.w3.org/2000/svg" width="200" height="200" viewBox="0 0 200 200" version="1.1">
	<path d="M 74.167 11.852 C 74.350 12.320, 76.934 18.184, 79.908 24.883 L 85.317 37.062 80.082 49.781 C 77.203 56.777, 73.989 64.638, 72.939 67.250 L 71.029 72 91.015 72 C 102.007 72, 111 71.778, 111 71.507 C 111 71.236, 108.998 63.938, 106.550 55.290 C 104.103 46.642, 102.300 39.367, 102.544 39.123 C 103.066 38.601, 102.920 38.480, 119 52.732 L 131.500 63.811 130.674 83.403 C 129.850 102.953, 129.856 103.041, 133.424 125.083 C 135.391 137.232, 137 147.735, 137 148.424 C 137 149.438, 112.758 167.642, 109.822 168.833 C 109.370 169.017, 109.006 158.217, 109.014 144.833 C 109.025 124.442, 107.269 78.257, 106.442 77.182 C 106.139 76.788, 79.758 88.851, 78.828 89.808 C 78.231 90.423, 81.006 95.851, 91.066 113.750 C 92.689 116.637, 93.723 119, 93.364 119 C 93.004 119, 88.050 114.415, 82.355 108.810 C 74.922 101.496, 71.998 99.168, 71.993 100.560 C 71.989 101.627, 73.150 112.902, 74.572 125.615 L 77.158 148.730 69.341 167.815 C 65.041 178.311, 61.238 186.360, 60.888 185.700 C 60.539 185.040, 58.140 175.636, 55.556 164.803 L 50.859 145.106 44.179 141.432 L 37.500 137.759 31.056 139.852 C 27.512 141.003, 24.539 141.845, 24.451 141.723 C 24.362 141.600, 29.400 130.257, 35.645 116.515 C 41.890 102.774, 47 90.985, 47 90.319 C 47 89.652, 42.276 86.532, 36.502 83.384 C 30.729 80.237, 26.256 77.400, 26.563 77.081 C 26.870 76.761, 33.933 72.450, 42.259 67.500 C 50.584 62.550, 57.341 58.080, 57.274 57.568 C 57.206 57.055, 50.126 53.719, 41.539 50.154 C 32.952 46.590, 26.280 43.341, 26.713 42.934 C 27.146 42.528, 36.050 38.700, 46.500 34.429 C 56.950 30.157, 65.695 26.506, 65.933 26.315 C 66.172 26.123, 65.921 25.521, 65.377 24.977 C 64.723 24.323, 56.925 27.076, 42.443 33.074 C 30.374 38.072, 20.152 42.496, 19.727 42.904 C 19.301 43.313, 26.386 46.764, 35.470 50.573 C 44.554 54.383, 51.989 57.729, 51.993 58.010 C 51.997 58.290, 45.154 62.565, 36.786 67.510 C 28.418 72.454, 21.682 76.950, 21.817 77.500 C 21.952 78.050, 26.885 81.151, 32.781 84.392 C 38.676 87.632, 43.668 90.425, 43.873 90.598 C 44.078 90.771, 38.741 103.108, 32.013 118.013 C 25.284 132.918, 20.001 145.334, 20.271 145.604 C 20.542 145.875, 24.362 144.855, 28.762 143.338 L 36.761 140.579 42.621 143.724 L 48.481 146.868 54.061 170.184 C 57.130 183.008, 59.859 194.138, 60.126 194.918 C 60.393 195.698, 64.972 185.700, 70.302 172.701 L 79.992 149.067 77.587 127.783 C 76.265 116.077, 75.318 106.361, 75.483 106.192 C 75.647 106.023, 81.250 111.156, 87.934 117.600 C 95.042 124.453, 100.446 128.938, 100.956 128.408 C 101.459 127.883, 97.642 119.944, 91.907 109.590 C 86.451 99.739, 82.252 91.414, 82.576 91.090 C 83.281 90.383, 103.418 81.108, 103.689 81.365 C 104.706 82.329, 106.132 120.765, 106.044 144.859 L 105.934 175.219 110.717 171.747 C 117.572 166.772, 136.283 153.549, 137.689 152.687 C 138.397 152.252, 144.829 156.214, 153.618 162.500 C 161.725 168.298, 168.675 172.695, 169.063 172.271 C 169.452 171.847, 172.014 162.050, 174.758 150.500 L 179.747 129.500 179.078 105.500 C 178.711 92.300, 178.698 71.150, 179.051 58.500 C 179.404 45.850, 179.570 35.345, 179.419 35.156 C 179.269 34.967, 170.231 36.922, 159.335 39.501 C 143.265 43.304, 138.956 44.002, 136.512 43.194 C 134.856 42.646, 125.217 39.207, 115.092 35.552 C 96.331 28.779, 91.788 28.009, 95.782 32.276 C 97.669 34.293, 107 64.415, 107 68.492 C 107 69.728, 105.331 69.999, 97.750 69.993 C 92.662 69.989, 85.523 69.705, 81.885 69.361 L 75.271 68.736 80.752 55.618 C 89.225 35.343, 89.065 38.328, 82.459 23.713 C 78.962 15.977, 76.149 11, 75.273 11 C 74.481 11, 73.983 11.383, 74.167 11.852 M 104.281 35.695 C 105.261 36.683, 112.461 41.318, 120.281 45.996 L 134.500 54.500 134.500 58.586 C 134.500 60.833, 135.053 63.343, 135.729 64.163 C 136.405 64.983, 139.290 76.329, 142.141 89.377 L 147.325 113.100 143.969 131.523 C 142.123 141.656, 140.813 150.110, 141.057 150.309 C 141.300 150.509, 147.328 154.811, 154.451 159.870 L 167.403 169.069 171.747 151.784 L 176.091 134.500 176.295 86.378 C 176.430 54.667, 176.159 38.358, 175.500 38.556 C 174.950 38.721, 166.544 40.721, 156.819 43 L 139.138 47.143 131.819 44.477 C 105.151 34.765, 102.532 33.930, 104.281 35.695 M 125.500 54.522 C 130.330 59.071, 131.571 59.821, 131.865 58.369 C 132.242 56.506, 130.859 55.306, 123.585 51.186 C 119.693 48.982, 119.783 49.139, 125.500 54.522 M 133.701 79 C 132.577 97.677, 132.862 104.186, 135.551 121.281 C 136.954 130.202, 138.374 138.175, 138.707 139 C 139.039 139.825, 140.492 134.425, 141.934 127 L 144.557 113.500 140.841 96.500 C 138.797 87.150, 136.510 76.800, 135.759 73.500 L 134.393 67.500 133.701 79" stroke="none" fill="black" fill-rule="evenodd"/>
</svg>