<svg xmlns="http://www.w3.org/2000/svg" width="200" height="200" viewBox="0 0 200 200" version="1.1">
	<path d="M 155.335 17.049 C 152.784 18.149, 134.899 21.216, 109.198 24.959 L 67.227 31.073 44.863 26.625 C 32.564 24.179, 22.366 22.309, 22.202 22.470 C 21.644 23.018, 19.907 144.442, 20.204 162.163 L 20.500 179.826 39.517 172.482 L 58.534 165.138 85.517 163.753 L 112.500 162.369 132.366 171.684 C 143.293 176.808, 152.518 180.999, 152.866 180.997 C 153.215 180.996, 157.887 174.173, 163.250 165.836 L 173 150.677 173 144.190 C 173 140.622, 172.517 127.983, 171.926 116.102 C 170.982 97.101, 171.096 91.312, 172.871 68.028 C 173.981 53.468, 174.697 41.363, 174.462 41.129 C 174.227 40.894, 165.265 41.756, 154.545 43.045 C 143.826 44.335, 134.899 45.189, 134.707 44.945 C 134.515 44.700, 132.206 41.815, 129.577 38.532 C 124.888 32.682, 124.841 32.553, 127.147 31.934 C 128.441 31.587, 134.900 29.021, 141.500 26.232 C 150.358 22.489, 155.803 20.850, 162.297 19.970 C 168.018 19.195, 170.958 18.381, 170.706 17.640 C 170.472 16.952, 168.651 16.635, 166.120 16.840 C 163.811 17.027, 161.377 16.746, 160.711 16.215 C 159.906 15.574, 158.104 15.854, 155.335 17.049 M 111 27.547 L 89.500 30.863 107.976 30.284 C 125.441 29.737, 126.782 29.554, 132.476 26.927 C 140.442 23.252, 138.479 23.309, 111 27.547 M 23.499 99.250 C 23.091 139.538, 22.924 173.233, 23.128 174.129 C 23.440 175.495, 26.323 174.665, 41 168.982 L 58.500 162.207 86 160.965 C 110.312 159.866, 113.906 159.900, 117 161.253 C 118.925 162.094, 127.605 166.195, 136.288 170.366 L 152.076 177.948 160.438 165.096 C 165.037 158.027, 169.226 151.401, 169.747 150.372 C 170.352 149.176, 170.218 138.941, 169.376 122.051 C 168.166 97.777, 168.215 93.502, 169.974 70.079 C 171.028 56.042, 171.723 44.390, 171.520 44.186 C 170.981 43.648, 139.024 47.643, 138.331 48.336 C 138.010 48.657, 139.503 51.075, 141.650 53.710 C 143.797 56.344, 146.103 59.221, 146.776 60.101 C 147.726 61.347, 147.783 68.349, 147.030 91.601 C 146.153 118.704, 145.774 122.949, 142.977 137 C 141.280 145.525, 139.683 153.123, 139.426 153.883 C 139.026 155.073, 132.256 147.231, 123.989 136 L 122.149 133.500 121.155 136.103 L 120.162 138.705 101.154 135.526 L 82.146 132.346 74.965 126.423 C 71.016 123.165, 66.727 119.600, 65.436 118.500 C 63.093 116.505, 63.086 116.424, 62.521 86.571 L 61.955 56.643 54.381 47.321 C 47.168 38.445, 46.620 38, 42.903 38 C 40.258 38, 39 37.557, 39 36.625 C 39 35.124, 41.229 34.522, 50.784 33.444 C 54.240 33.053, 56.843 32.510, 56.569 32.236 C 55.922 31.589, 29.155 26.099, 26.371 26.043 L 24.242 26 23.499 99.250 M 105.784 33.738 C 108.689 33.941, 113.189 33.939, 115.784 33.734 C 118.378 33.528, 116 33.363, 110.500 33.365 C 105 33.368, 102.878 33.536, 105.784 33.738 M 59.500 35 C 57.458 35.520, 59.375 35.769, 65.500 35.782 C 71.397 35.794, 73.638 35.525, 72 35 C 68.877 34, 63.431 34, 59.500 35 M 81.750 34.737 C 84.638 34.939, 89.362 34.939, 92.250 34.737 C 95.138 34.535, 92.775 34.370, 87 34.370 C 81.225 34.370, 78.862 34.535, 81.750 34.737 M 91.330 37.413 C 78.036 38.011, 66.907 38.754, 66.599 39.064 C 66.290 39.375, 76.267 41.992, 88.769 44.880 C 101.271 47.768, 112.287 50.356, 113.250 50.633 C 114.358 50.950, 115 50.589, 115 49.647 C 115 48.062, 117.052 47.474, 126.234 46.427 L 131.968 45.774 128.234 40.929 C 124.705 36.351, 124.253 36.092, 120 36.206 C 117.525 36.272, 104.623 36.816, 91.330 37.413 M 52 39.576 C 52 39.858, 55.473 44.344, 59.718 49.545 C 64.700 55.648, 68.156 59.024, 69.468 59.069 C 70.586 59.107, 80.142 59.899, 90.705 60.830 L 109.911 62.523 111.561 58.201 C 112.469 55.823, 113.052 53.738, 112.856 53.566 C 112.660 53.394, 99.450 50.253, 83.500 46.586 C 67.550 42.919, 53.938 39.726, 53.250 39.491 C 52.563 39.255, 52 39.294, 52 39.576 M 126.500 49.172 C 116.196 50.520, 115.757 51.062, 123.500 52.878 L 130.500 54.520 131.657 62.510 C 132.294 66.904, 133.360 76.125, 134.027 83 L 135.240 95.500 129.140 112.914 L 123.040 130.329 128.770 137.741 C 131.921 141.817, 135.213 146.065, 136.083 147.181 C 137.576 149.094, 137.825 148.445, 140.431 135.855 C 142.876 124.036, 143.307 119.026, 144.178 92.297 L 145.161 62.093 139.468 55.047 C 136.337 51.171, 133.713 48.058, 133.637 48.128 C 133.562 48.198, 130.350 48.668, 126.500 49.172 M 115.742 55.220 C 115.470 55.924, 111.546 66.073, 107.021 77.773 C 101.400 92.306, 99.097 99.435, 99.753 100.273 C 100.282 100.948, 105.083 107.125, 110.423 114 C 115.763 120.875, 120.448 126.615, 120.833 126.755 C 121.218 126.896, 124.034 119.471, 127.092 110.255 L 132.652 93.500 130.408 75.500 C 129.173 65.600, 128.126 57.405, 128.082 57.289 C 128.037 57.172, 126.088 56.583, 123.750 55.979 C 121.412 55.375, 118.766 54.669, 117.868 54.411 C 116.971 54.152, 116.014 54.516, 115.742 55.220 M 65 88.286 L 65 114.738 74.056 122.224 L 83.112 129.710 99.306 132.374 C 118.586 135.545, 118.691 135.549, 119.501 132.998 C 119.985 131.473, 117.600 127.723, 109.481 117.248 C 103.621 109.687, 98.454 103.363, 97.998 103.195 C 97.543 103.027, 96.853 103.888, 96.466 105.108 C 96.079 106.328, 95.080 108.940, 94.248 110.913 L 92.733 114.500 90.961 108 C 89.986 104.425, 88.223 97.884, 87.043 93.465 C 85.100 86.190, 84.044 84.344, 75.894 73.965 C 70.942 67.659, 66.466 62.350, 65.945 62.167 C 65.367 61.963, 65 72.099, 65 88.286 M 77.253 71.442 C 81.239 76.635, 84.785 80.910, 85.132 80.942 C 85.480 80.974, 90.145 77.400, 95.500 73 C 100.855 68.600, 105.070 64.994, 104.868 64.988 C 104.665 64.981, 97.075 64.311, 88 63.500 C 78.925 62.689, 71.164 62.019, 70.753 62.012 C 70.342 62.006, 73.267 66.249, 77.253 71.442 M 97 75.165 C 91.775 79.575, 87.624 83.627, 87.776 84.169 C 88.414 86.450, 96.369 96.024, 97.021 95.296 C 97.412 94.858, 99.783 89.100, 102.289 82.500 C 104.794 75.900, 107.153 69.713, 107.529 68.750 C 108.710 65.732, 106.786 66.905, 97 75.165 M 90 93.596 C 90 93.924, 90.747 96.736, 91.659 99.846 L 93.318 105.500 94.547 102.536 C 95.647 99.881, 95.514 99.229, 93.269 96.286 C 90.816 93.069, 90 92.398, 90 93.596" stroke="none" fill="black" fill-rule="evenodd"/>
</svg>