<svg xmlns="http://www.w3.org/2000/svg" width="200" height="200" viewBox="0 0 200 200" version="1.1">
	<path d="M 74.538 6.250 C 74.262 7.488, 72.952 16.739, 71.626 26.809 C 70.300 36.879, 68.945 45.388, 68.615 45.719 C 68.284 46.049, 57.998 48.192, 45.757 50.479 C 27.985 53.801, 23.437 54.972, 23.183 56.288 C 22.904 57.736, 24.362 57.972, 35.115 58.219 L 47.365 58.500 51.372 70.656 L 55.378 82.813 35.570 106.454 C 24.676 119.457, 15.928 130.242, 16.131 130.421 C 16.334 130.600, 21.170 128.985, 26.877 126.834 C 32.585 124.682, 37.404 123.071, 37.587 123.253 C 37.769 123.436, 39.032 130.924, 40.393 139.893 C 41.754 148.862, 43.092 156.425, 43.367 156.700 C 45.788 159.122, 44.738 146.583, 40.486 122.289 L 39.924 119.078 31.764 122.087 C 25.125 124.535, 23.890 124.761, 25.141 123.298 C 31.354 116.033, 56.755 85.257, 57.346 84.279 C 57.751 83.607, 56.195 77.004, 53.887 69.605 C 49.368 55.118, 49.394 55.150, 42 54.917 C 40.075 54.857, 45.700 53.468, 54.500 51.831 C 63.300 50.195, 70.798 48.551, 71.162 48.178 C 71.527 47.805, 72.845 39.536, 74.093 29.803 C 75.340 20.069, 76.672 12.297, 77.052 12.532 C 77.432 12.767, 81.793 20.056, 86.743 28.729 C 93.117 39.897, 96.231 46.506, 97.414 51.374 C 98.333 55.155, 98.870 58.463, 98.608 58.726 C 98.345 58.988, 95.818 59.494, 92.990 59.851 L 87.850 60.500 77.946 78 L 68.041 95.500 68.132 120.500 C 68.210 142.219, 65.997 181.337, 64.611 182.723 C 64.391 182.942, 59.153 180.586, 52.970 177.485 C 38.462 170.209, 37 169.657, 37 171.456 C 37 172.626, 64.685 187, 66.939 187 C 68.429 187, 71.219 137.512, 70.862 117.418 L 70.500 97.011 80 80.073 L 89.500 63.136 94.314 62.465 C 96.962 62.096, 99.316 61.983, 99.546 62.213 C 99.776 62.443, 102.372 72.560, 105.315 84.695 L 110.666 106.759 93.779 107.480 C 79.740 108.081, 76.944 108.449, 77.196 109.665 C 77.364 110.475, 84.867 114.413, 94 118.484 C 103.075 122.530, 110.453 126.214, 110.395 126.670 C 110.338 127.127, 108.327 136.550, 105.927 147.612 L 101.564 167.724 86.782 170.001 C 64.471 173.436, 66.728 174.544, 97.662 175.340 C 130.279 176.179, 153.570 176.180, 163.477 175.342 L 171.256 174.685 170.766 165.314 C 170.496 160.159, 170.007 155.674, 169.679 155.346 C 169.351 155.017, 162.201 156.893, 153.791 159.514 C 145.381 162.134, 137.825 164.328, 137 164.389 C 135.736 164.483, 135.336 160.958, 134.460 142 C 133.888 129.625, 133.663 119.192, 133.960 118.815 C 134.257 118.438, 142.150 116.724, 151.500 115.007 C 172.997 111.057, 173 111.057, 173 109.392 C 173 108.626, 172.662 107.990, 172.250 107.977 C 171.838 107.964, 165.650 107.075, 158.500 106 C 151.350 104.925, 144.990 104.036, 144.367 104.023 C 143.743 104.010, 141.551 97.158, 139.483 88.750 C 137.419 80.362, 135.423 73.154, 135.047 72.732 C 134.671 72.309, 129.323 70.485, 123.163 68.677 C 113.069 65.715, 107.697 62.970, 109.150 61.516 C 110.619 60.048, 127.174 59.059, 150.750 59.031 C 165.188 59.014, 177 58.743, 177 58.430 C 177 57.910, 164.611 39.592, 162.968 37.682 C 162.581 37.232, 151.362 41.427, 138.038 47.005 C 124.714 52.582, 113.690 57, 113.542 56.823 C 113.393 56.645, 111.567 50.650, 109.484 43.500 L 105.697 30.500 97.151 21.781 C 92.450 16.986, 88.489 13.177, 88.349 13.317 C 88.209 13.457, 88.996 17.089, 90.097 21.388 C 91.198 25.686, 91.940 29.679, 91.747 30.260 C 91.553 30.842, 87.874 25.171, 83.573 17.659 C 79.271 10.146, 75.591 4, 75.395 4 C 75.199 4, 74.813 5.012, 74.538 6.250 M 93.359 23.500 C 93.665 24.600, 94.915 29.537, 96.136 34.471 C 98.350 43.415, 104.880 56.633, 107.601 57.677 C 110.680 58.859, 110.567 56.850, 106.863 44.500 C 103.171 32.189, 102.695 31.235, 97.883 26.500 C 94.562 23.232, 92.995 22.193, 93.359 23.500 M 143.076 47.846 L 124.770 55.500 136.328 55.781 C 142.684 55.936, 153.320 55.936, 159.963 55.781 L 172.041 55.500 166.711 47.846 L 161.382 40.192 143.076 47.846 M 101.051 55 C 101.027 56.786, 102.691 59.642, 103.364 58.970 C 103.624 58.710, 103.214 57.373, 102.454 55.998 C 101.652 54.550, 101.062 54.130, 101.051 55 M 103.487 62.250 C 103.240 62.938, 105.472 73.618, 108.447 85.986 C 112.416 102.485, 113.542 108.670, 112.678 109.220 C 112.030 109.632, 106.100 109.983, 99.500 110 C 92.900 110.017, 86.959 110.375, 86.297 110.795 C 85.567 111.259, 90.775 114.059, 99.547 117.918 C 107.496 121.415, 114 124.365, 114 124.474 C 114 125.393, 103.914 169.419, 103.641 169.693 C 103.444 169.889, 100.407 170.601, 96.892 171.275 C 91.299 172.347, 95.303 172.533, 128.905 172.762 C 150.027 172.906, 167.485 172.848, 167.701 172.632 C 167.916 172.417, 167.959 169.093, 167.796 165.245 L 167.500 158.248 150.381 163.466 L 133.261 168.683 132.662 161.092 C 131.811 150.305, 130.623 116.001, 131.101 115.996 C 132.373 115.985, 162.339 109.995, 162.642 109.691 C 162.844 109.490, 158.490 108.727, 152.968 107.996 C 147.445 107.265, 142.331 106.179, 141.604 105.583 C 140.877 104.988, 139.070 99.257, 137.588 92.848 C 132.862 72.415, 134.820 75.002, 121.049 70.992 C 110.050 67.789, 108.914 67.231, 107.302 64.250 C 105.448 60.820, 104.231 60.182, 103.487 62.250" stroke="none" fill="black" fill-rule="evenodd"/>
</svg>