<svg xmlns="http://www.w3.org/2000/svg" width="200" height="200" viewBox="0 0 200 200" version="1.1">
	<path d="M 125 19.593 L 81.500 26.011 53.162 21.927 C 37.576 19.681, 24.612 18.054, 24.355 18.312 C 24.097 18.570, 22.379 33.117, 20.537 50.640 C 17.435 80.149, 17.162 85.482, 16.844 122.909 L 16.500 163.318 35.480 169.659 L 54.460 176 97.373 176 L 140.286 176 158.137 166.750 L 175.988 157.500 175.994 114.894 L 176 72.288 170.981 44.996 C 168.221 29.986, 166.083 17.586, 166.231 17.442 C 166.379 17.298, 168.075 16.773, 170 16.276 C 173.878 15.275, 174.326 13.590, 170.781 13.337 C 169.526 13.248, 148.925 16.063, 125 19.593 M 137.176 24.357 L 112.852 30.529 128.013 40.877 C 136.352 46.569, 143.528 50.837, 143.959 50.363 C 145.190 49.010, 164 19.138, 164 18.537 C 164 17.618, 162.174 18.015, 137.176 24.357 M 116.500 23.564 C 88.383 27.770, 88.595 27.712, 101 27.816 C 110.026 27.893, 113.676 27.363, 127 24.046 C 135.525 21.924, 141.600 20.207, 140.500 20.231 C 139.400 20.254, 128.600 21.754, 116.500 23.564 M 23.203 52.250 C 20.287 80.754, 19.983 86.919, 19.753 122.406 L 19.500 161.312 36.978 167.156 L 54.457 173 96.721 173 L 138.985 173 156.414 164.303 L 173.843 155.605 173.381 114.053 L 172.918 72.500 168.728 48.750 C 166.423 35.688, 164.301 25, 164.013 25 C 163.724 25, 159.529 31.186, 154.689 38.746 L 145.889 52.492 148.105 54.286 C 149.323 55.272, 150.940 56.427, 151.698 56.851 C 152.868 57.506, 152.856 64.451, 151.613 102.903 C 150.808 127.807, 149.960 148.373, 149.729 148.605 C 149.497 148.836, 146.693 147.870, 143.498 146.457 C 137.733 143.907, 136.920 143.993, 135.756 147.280 C 134.949 149.558, 76.969 150.478, 65.870 148.389 C 63.271 147.900, 63.225 147.738, 62.053 135.197 L 60.867 122.500 66.910 100.116 C 70.233 87.805, 72.752 77.407, 72.506 77.009 C 72.260 76.611, 67.074 76.050, 60.981 75.761 C 54.888 75.472, 49.663 74.997, 49.371 74.704 C 49.079 74.412, 52.363 69.453, 56.670 63.684 C 62.428 55.971, 65.294 52.967, 67.500 52.334 C 69.972 51.625, 71.319 49.898, 75.150 42.520 C 77.708 37.596, 80.262 33.413, 80.826 33.225 C 81.390 33.037, 91.898 35.800, 104.176 39.366 C 135.044 48.331, 134.159 48.324, 121.133 39.509 C 110.281 32.166, 109.489 31.808, 103.633 31.604 C 97.108 31.375, 37.069 34.717, 30.750 35.659 C 28.688 35.967, 27 35.810, 27 35.309 C 27 33.264, 29.656 32, 33.950 32.001 C 38.577 32.002, 69.250 27.917, 68.705 27.372 C 68.430 27.097, 28.605 21, 27.081 21 C 26.707 21, 24.962 35.063, 23.203 52.250 M 78.546 42.076 C 77.046 45.418, 76.007 48.340, 76.235 48.569 C 76.464 48.798, 81.251 47.436, 86.873 45.543 L 97.094 42.101 102.797 49.920 C 105.934 54.221, 110.712 60.830, 113.415 64.607 L 118.330 71.474 119.415 68.469 C 120.012 66.816, 122.459 61.956, 124.854 57.669 C 127.249 53.383, 129.049 49.737, 128.854 49.567 C 128.418 49.188, 82.740 35.989, 81.887 35.995 C 81.549 35.998, 80.046 38.734, 78.546 42.076 M 84.445 49.175 L 73.389 53.081 70.196 59.557 L 67.003 66.032 70.251 69.479 L 73.500 72.925 94.750 73.607 C 106.438 73.982, 116 73.952, 116 73.541 C 116 72.804, 96.016 44.873, 95.675 45.134 C 95.579 45.208, 90.525 47.026, 84.445 49.175 M 127.766 58.276 C 119.911 72.451, 119.753 72.982, 122.233 76.899 C 124.773 80.911, 124.495 81.172, 134.356 65.559 C 142.590 52.524, 142.456 53.846, 135.965 49.679 L 133.431 48.052 127.766 58.276 M 65.338 57.250 C 62.327 60.619, 54 71.764, 54 72.424 C 54 72.741, 57.428 73, 61.619 73 L 69.237 73 66.588 69.527 L 63.939 66.054 66.470 61.060 C 67.861 58.314, 69 55.827, 69 55.533 C 69 54.312, 67.216 55.148, 65.338 57.250 M 135.584 68.683 C 130.812 76.182, 127.126 82.887, 127.393 83.582 C 127.660 84.277, 132.003 90.519, 137.045 97.453 L 146.211 110.060 142.554 123.780 C 140.542 131.326, 138.664 138.290, 138.379 139.256 C 137.985 140.594, 138.969 141.486, 142.514 143.006 C 145.072 144.103, 147.283 145, 147.427 145 C 147.570 145, 147.985 133.637, 148.349 119.750 C 148.713 105.862, 149.299 86.590, 149.651 76.922 L 150.291 59.344 147.275 57.196 L 144.259 55.048 135.584 68.683 M 77.677 78.293 C 88.976 92.506, 90.589 94.060, 97.250 97.157 L 104 100.296 104 105.089 C 104 107.725, 104.351 110.099, 104.780 110.364 C 105.209 110.629, 109.520 104.588, 114.360 96.940 L 123.161 83.035 121.123 80.173 C 119.125 77.367, 118.851 77.299, 106.886 76.656 C 100.176 76.295, 90.449 76, 85.270 76 L 75.855 76 77.677 78.293 M 78.194 84.723 C 80.562 88.146, 82.853 90.959, 83.285 90.973 C 84.496 91.014, 82.452 87.951, 77.965 83 L 73.887 78.500 78.194 84.723 M 72.996 88.139 C 72.368 90.537, 70.031 99.244, 67.802 107.486 C 64.001 121.541, 63.790 123.023, 64.417 131.324 C 64.784 136.192, 65.338 141.439, 65.647 142.983 L 66.208 145.791 84.354 146.505 C 108.458 147.452, 133.357 146.137, 133.785 143.893 C 133.995 142.790, 132.510 141.605, 129.052 140.118 C 124.921 138.340, 122.348 135.958, 114.790 126.909 C 105.119 115.331, 105.608 115.576, 102.309 120.663 C 101.312 122.201, 101.108 121.541, 101.059 116.611 C 101.002 110.960, 100.769 110.439, 95.250 103.678 C 91.108 98.603, 88.227 96.092, 84.948 94.702 C 81.847 93.386, 79.399 91.337, 77.267 88.274 L 74.137 83.777 72.996 88.139 M 116.274 98.943 C 111.750 106.045, 107.925 112.300, 107.774 112.843 C 107.623 113.385, 111.550 118.744, 116.500 124.750 C 123.171 132.845, 126.538 136.102, 129.511 137.336 C 131.716 138.251, 133.980 139, 134.541 139 C 135.914 139, 143.298 111.295, 142.342 109.732 C 140.094 106.058, 125.771 86.464, 125.187 86.265 C 124.809 86.136, 120.798 91.841, 116.274 98.943 M 98.220 103.093 C 100.095 105.636, 100.564 105.869, 100.859 104.409 C 101.056 103.432, 100.408 102.040, 99.418 101.316 C 96.358 99.079, 95.834 99.856, 98.220 103.093" stroke="none" fill="black" fill-rule="evenodd"/>
</svg>