<svg xmlns="http://www.w3.org/2000/svg" width="200" height="200" viewBox="0 0 200 200" version="1.1">
	<path d="M 110.778 22.498 L 91.216 35.989 90.072 42.245 C 87.979 53.699, 80.207 100.420, 79.484 105.900 L 78.771 111.300 85.136 110.681 C 88.636 110.341, 95.100 109.790, 99.500 109.458 L 107.500 108.854 99 113.525 C 94.325 116.094, 86.114 120.406, 80.753 123.106 C 75.392 125.806, 71.117 128.549, 71.253 129.202 C 71.389 129.854, 64.525 134.066, 56 138.562 L 40.500 146.735 32.570 145.854 C 28.209 145.370, 24.516 144.850, 24.365 144.698 C 24.213 144.547, 26.999 132.008, 30.556 116.835 L 37.022 89.246 33.011 80.524 C 30.805 75.726, 29.002 70.833, 29.005 69.650 C 29.011 67.160, 37.740 25.926, 38.402 25.265 C 38.645 25.021, 43.168 27.225, 48.453 30.161 L 58.062 35.500 65.576 48.411 C 69.709 55.512, 72.895 61.812, 72.655 62.411 C 72.415 63.010, 69.245 66.972, 65.610 71.215 L 59 78.931 59 97.312 C 59 118.641, 59.917 134, 61.190 134 C 61.693 134, 62.025 122.217, 61.951 106.978 L 61.822 79.956 68.911 71.538 C 72.810 66.907, 76 62.618, 76 62.005 C 76 61.392, 72.419 54.727, 68.042 47.193 L 60.084 33.496 48.496 27.127 C 42.123 23.624, 36.711 20.955, 36.470 21.197 C 35.934 21.733, 26.020 67.901, 25.991 70 C 25.979 70.825, 27.802 75.573, 30.041 80.551 L 34.112 89.602 27.556 117.528 C 23.950 132.887, 21 145.983, 21 146.631 C 21 147.412, 24.491 148.045, 31.392 148.516 L 41.785 149.224 68.575 135.128 C 83.310 127.375, 95.565 121.232, 95.809 121.476 C 96.525 122.192, 92.848 158.450, 92.003 159 C 91.581 159.275, 83.542 165.337, 74.138 172.470 C 63.072 180.865, 57.384 185.784, 58.012 186.412 C 58.641 187.041, 68.424 183.604, 85.742 176.669 L 112.500 165.954 123.969 149.029 C 130.277 139.721, 135.501 132.194, 135.578 132.302 C 135.703 132.479, 149.779 163.514, 157.143 179.848 L 160.005 186.197 170.589 172.455 C 176.410 164.897, 181.377 158.181, 181.627 157.529 C 181.889 156.846, 173.814 151.081, 162.567 143.922 C 151.834 137.090, 143.043 131.275, 143.031 131 C 143.019 130.725, 154.108 128.022, 167.674 124.992 C 181.239 121.963, 192.502 118.995, 192.701 118.396 C 193.163 117.012, 177.392 116, 155.344 116 C 146.355 116, 139 115.684, 139 115.297 C 139 114.910, 141.991 110.073, 145.646 104.547 C 151.720 95.363, 153.187 93.858, 162.712 87.023 C 173.785 79.078, 175.690 77.356, 174.607 76.273 C 174.234 75.900, 162.389 78.929, 148.285 83.003 L 122.642 90.412 112.884 79.977 C 107.517 74.237, 103.291 69.376, 103.493 69.174 C 104.304 68.363, 157.494 56.078, 171.732 53.413 C 180.109 51.846, 186.634 50.281, 186.232 49.937 C 185.829 49.593, 176.461 46.238, 165.413 42.483 L 145.326 35.656 133.913 40.737 C 127.636 43.531, 122.369 45.690, 122.208 45.534 C 122.048 45.377, 123.934 37.217, 126.400 27.400 C 128.866 17.583, 130.761 9.428, 130.612 9.278 C 130.462 9.129, 121.537 15.077, 110.778 22.498 M 110.900 25.617 C 102.430 31.456, 95.109 36.595, 94.631 37.036 C 93.172 38.382, 81.352 106.685, 82.397 107.730 C 82.635 107.968, 90.145 107.438, 99.086 106.553 C 111.354 105.337, 115.607 105.225, 116.421 106.096 C 117.119 106.843, 117.147 107.395, 116.500 107.661 C 115.950 107.888, 111.900 109.969, 107.500 112.286 L 99.500 116.500 97.500 137.500 C 96.400 149.050, 95.161 159.021, 94.748 159.658 C 94.334 160.296, 88.484 164.979, 81.748 170.066 C 75.011 175.153, 69.085 179.682, 68.579 180.129 C 68.072 180.576, 77.332 177.076, 89.157 172.350 L 110.656 163.758 123.078 145.479 C 131.003 133.816, 135.877 127.507, 136.542 128.049 C 137.449 128.789, 177.753 120.580, 178.914 119.419 C 179.145 119.189, 169.085 119, 156.560 119 C 136.740 119, 133.861 118.806, 134.361 117.502 C 134.677 116.678, 138.283 110.871, 142.373 104.597 C 148.907 94.576, 150.824 92.435, 158.155 86.976 C 162.745 83.557, 165.600 80.979, 164.500 81.245 C 163.400 81.512, 153.354 84.371, 142.176 87.598 L 121.853 93.467 109.974 80.983 C 103.440 74.118, 98.074 68.260, 98.048 67.966 C 97.994 67.363, 148.387 55.342, 165.996 51.757 L 177.492 49.416 161.496 44.043 L 145.500 38.670 132.225 44.477 C 124.924 47.670, 118.762 50.096, 118.533 49.866 C 118.303 49.636, 120.063 41.698, 122.444 32.224 C 124.824 22.751, 126.666 15, 126.536 15 C 126.407 15, 119.370 19.778, 110.900 25.617 M 139.416 133.734 C 139.751 134.790, 144.679 145.857, 150.367 158.328 L 160.709 181.002 169.517 169.449 C 177 159.634, 178.113 157.698, 176.913 156.578 C 176.136 155.853, 169.650 151.527, 162.500 146.965 C 155.350 142.403, 147.094 137.128, 144.153 135.242 C 139.747 132.418, 138.914 132.153, 139.416 133.734" stroke="none" fill="black" fill-rule="evenodd"/>
</svg>