<svg xmlns="http://www.w3.org/2000/svg" width="200" height="200" viewBox="0 0 200 200" version="1.1">
	<path d="M 43.713 11.683 C 43.445 12.133, 39.602 23.878, 35.173 37.784 L 27.121 63.068 28.568 72.284 C 29.364 77.353, 30.377 92.300, 30.818 105.500 L 31.621 129.500 22.303 150.909 C 17.179 162.685, 13.153 172.486, 13.358 172.691 C 13.713 173.047, 61.187 145.790, 63.717 143.778 C 64.642 143.042, 64.189 141.338, 61.823 136.655 L 58.712 130.500 59.815 106.625 C 60.421 93.493, 61.105 82.561, 61.335 82.332 C 61.683 81.984, 72.843 86.510, 73.667 87.334 C 74.262 87.928, 77.979 130.118, 79.541 154 C 80.458 168.025, 81.318 179.618, 81.451 179.763 C 81.584 179.908, 93.914 181.223, 108.852 182.687 L 136.012 185.348 160.756 180.073 C 174.365 177.172, 185.825 174.497, 186.221 174.128 C 186.807 173.583, 176.446 130.298, 175.459 129.168 C 175.300 128.986, 165.620 136.483, 153.949 145.830 L 132.729 162.824 117.003 149.410 L 101.278 135.996 102.616 127.748 C 103.352 123.212, 105.177 111.750, 106.672 102.278 C 108.167 92.806, 109.497 85.164, 109.628 85.294 C 109.758 85.425, 110.848 92.898, 112.048 101.901 L 114.230 118.269 122.634 131.385 C 127.256 138.598, 131.629 144.900, 132.351 145.389 C 133.197 145.962, 136.394 145.223, 141.354 143.308 C 148.501 140.549, 150.139 139.297, 164.522 125.591 L 180 110.843 180 81.421 L 180 52 177.748 52 C 176.509 52, 170.773 52.900, 165 54 C 150.398 56.782, 151.316 57.046, 150.801 49.921 C 150.316 43.217, 149.340 42.039, 144.250 42.015 L 141 42 140.985 27.750 C 140.971 14.792, 140.171 9.496, 138.483 11.184 C 138.138 11.528, 137.594 18.648, 137.273 27.006 L 136.689 42.202 125.094 41.506 L 113.500 40.810 111.130 51.655 C 109.826 57.620, 108.443 63.090, 108.056 63.810 C 107.644 64.579, 103.930 56.416, 99.071 44.060 C 94.516 32.477, 90.671 23, 90.527 23 C 90.384 23, 86.986 32.563, 82.978 44.250 C 78.969 55.938, 75.521 65.701, 75.315 65.946 C 75.016 66.303, 61.911 62.392, 56.250 60.257 C 55.563 59.998, 55 60.469, 55 61.304 C 55 63.005, 75.933 70.544, 77.050 69.246 C 77.404 68.836, 80.554 60.065, 84.051 49.755 C 87.548 39.445, 90.692 31.345, 91.037 31.755 C 91.383 32.165, 95.407 42.048, 99.980 53.718 L 108.295 74.937 104.539 98.218 C 102.473 111.023, 100.220 124.977, 99.533 129.228 L 98.284 136.955 114.392 150.774 C 123.251 158.375, 131.075 164.944, 131.777 165.373 C 132.618 165.885, 139.899 160.625, 153.093 149.975 C 164.114 141.078, 173.347 134.013, 173.610 134.276 C 173.873 134.539, 176.269 143.168, 178.935 153.451 C 182.207 166.071, 183.411 172.262, 182.641 172.501 C 180.052 173.306, 138.129 182.112, 136.389 182.217 C 135.350 182.279, 123.164 181.272, 109.310 179.978 L 84.119 177.627 83.557 171.564 C 83.247 168.229, 82.548 158.300, 82.002 149.500 C 81.457 140.700, 80.030 122.747, 78.832 109.604 L 76.653 85.708 68.429 81.854 C 63.906 79.734, 59.709 78, 59.103 78 C 58.477 78, 58 79.785, 58 82.122 C 58 84.389, 57.503 96.164, 56.896 108.289 L 55.792 130.335 58.574 136.156 C 60.105 139.357, 61.164 142.144, 60.928 142.349 C 59.142 143.903, 19.793 166.127, 19.445 165.778 C 19.200 165.533, 22.437 157.509, 26.639 147.947 L 34.278 130.561 33.578 106.031 C 33.194 92.539, 32.225 77.374, 31.425 72.331 L 29.972 63.163 37.103 40.831 C 41.024 28.549, 44.338 18.380, 44.466 18.234 C 44.594 18.087, 47.968 25.400, 51.963 34.484 C 56.327 44.406, 59.780 51, 60.613 51 C 61.376 51, 62 50.847, 62 50.660 C 62 50.151, 44.953 11.619, 44.549 11.215 C 44.357 11.024, 43.981 11.234, 43.713 11.683 M 115.504 45.250 C 115.266 45.938, 113.694 52.542, 112.012 59.926 C 109.846 69.428, 109.278 73.554, 110.069 74.043 C 110.684 74.423, 112.486 84.318, 114.074 96.033 L 116.962 117.333 124.646 129.417 C 128.872 136.062, 132.669 141.891, 133.085 142.370 C 133.500 142.848, 137.138 141.956, 141.170 140.387 C 147.890 137.771, 149.686 136.375, 162.750 123.614 L 177 109.694 177 82.236 L 177 54.777 173.750 55.340 C 154.234 58.717, 152 59.271, 152 60.730 C 152 62.960, 154.905 94.857, 155.509 99.250 L 156.024 103 152.159 103 C 150.033 103, 145.460 102.704, 141.998 102.342 L 135.702 101.684 136.405 73.488 L 137.108 45.291 131.804 44.654 C 123.090 43.608, 115.983 43.868, 115.504 45.250 M 141 51.631 L 141 58.262 144.624 57.674 C 146.617 57.350, 148.360 56.954, 148.498 56.793 C 148.636 56.632, 148.524 53.913, 148.250 50.750 L 147.752 45 144.376 45 L 141 45 141 51.631 M 142.500 60.877 L 139.500 61.518 139.227 79.936 C 139.018 94.001, 139.254 98.544, 140.227 99.161 C 140.927 99.606, 144.076 99.976, 147.225 99.985 C 152.916 100, 152.947 99.983, 152.501 97.250 C 152.253 95.737, 151.584 88.875, 151.014 82 C 150.443 75.125, 149.714 67.362, 149.394 64.750 C 148.775 59.692, 148.575 59.580, 142.500 60.877" stroke="none" fill="black" fill-rule="evenodd"/>
</svg>