<svg xmlns="http://www.w3.org/2000/svg" width="200" height="200" viewBox="0 0 200 200" version="1.1">
	<path d="M 41.735 27.141 C 31.037 39.382, 26 45.893, 26 47.484 C 26 48.771, 26.667 54.926, 27.481 61.162 C 28.296 67.398, 29.372 84.425, 29.873 99 L 30.782 125.500 34.431 135.410 C 36.438 140.861, 38.316 145.702, 38.604 146.169 C 38.893 146.635, 47.080 141.644, 56.799 135.077 C 66.518 128.510, 74.641 123.308, 74.850 123.517 C 75.059 123.726, 68.654 137.814, 60.615 154.824 C 52.577 171.834, 46 186.032, 46 186.375 C 46 189.212, 52.740 183.817, 82.368 157.259 C 86.063 153.947, 86.585 152.650, 94.012 128.336 C 98.288 114.335, 101.947 102.733, 102.143 102.554 C 102.340 102.375, 106.205 107.689, 110.733 114.364 C 118.276 125.484, 118.915 126.807, 118.365 130.166 C 117.914 132.924, 113.459 139.348, 100.387 156.087 C 90.829 168.328, 83.169 178.502, 83.364 178.698 C 83.560 178.893, 87.270 177.753, 91.610 176.163 C 99.224 173.375, 100.339 173.250, 123.500 172.614 C 145.839 171.999, 188.084 167.697, 187.958 166.049 C 187.935 165.747, 180.315 159.316, 171.024 151.757 L 154.132 138.014 167.623 113.441 C 175.042 99.927, 181.337 88.285, 181.611 87.570 C 181.963 86.654, 176.282 84.269, 162.305 79.467 C 151.412 75.725, 142.297 72.499, 142.049 72.297 C 141.801 72.096, 143.378 70.151, 145.554 67.975 L 149.510 64.019 168.005 60.990 C 178.177 59.324, 186.913 57.832, 187.418 57.674 C 187.923 57.517, 180.632 53.817, 171.215 49.453 L 154.093 41.518 143.296 25.827 C 132.780 10.543, 132.483 10.219, 131.857 13.318 C 131.504 15.068, 129.485 31.920, 127.371 50.766 C 124.996 71.938, 123.140 84.895, 122.514 84.672 C 121.956 84.474, 110.194 81.218, 96.377 77.437 L 71.253 70.564 69.042 63.699 C 67.826 59.924, 67.044 56.622, 67.305 56.362 C 67.565 56.102, 78.450 61.539, 91.494 68.444 C 104.538 75.350, 115.586 81, 116.046 81 C 118.980 81, 116.846 78.571, 109.463 73.504 C 104.808 70.309, 101 67.151, 101 66.484 C 101 65.818, 102.750 60.613, 104.889 54.916 L 108.778 44.559 112.639 44.904 C 120.292 45.588, 122.311 45.481, 122.695 44.371 C 122.945 43.650, 120.722 42.989, 116.543 42.542 C 112.944 42.156, 110 41.725, 110 41.583 C 110 41.441, 112.198 35.424, 114.884 28.213 C 119.406 16.071, 119.855 14, 117.964 14 C 117.578 14, 115.122 19.738, 112.507 26.750 C 109.892 33.763, 107.380 39.905, 106.925 40.401 C 106.437 40.933, 100.653 40.653, 92.799 39.716 L 79.500 38.130 72.500 45.013 C 66.567 50.847, 65.217 51.736, 63.647 50.841 C 61.973 49.887, 61.858 50.076, 62.456 52.797 C 62.835 54.523, 62.678 56.081, 62.088 56.446 C 60.573 57.382, 60.241 54.671, 58.972 31 C 58.338 19.175, 57.741 9.418, 57.645 9.319 C 57.549 9.219, 50.390 17.239, 41.735 27.141 M 41.275 31.800 L 28.282 46.599 30.070 59.550 C 31.056 66.689, 32.256 84.390, 32.744 99 L 33.630 125.500 36.895 134.208 L 40.159 142.917 61.080 128.947 C 72.586 121.263, 82 115.216, 82 115.508 C 82 115.801, 75.252 130.283, 67.004 147.690 C 58.756 165.098, 52.146 179.480, 52.315 179.649 C 52.485 179.818, 59.571 173.838, 68.062 166.360 L 83.500 152.764 92.111 124.854 C 96.848 109.503, 100.899 96.768, 101.114 96.553 C 101.329 96.338, 105.323 101.734, 109.990 108.544 C 114.657 115.353, 118.748 120.604, 119.083 120.212 C 120.140 118.973, 123.165 88.764, 122.314 87.949 C 121.302 86.980, 73.729 73.938, 73.186 74.480 C 72.970 74.697, 74.414 79.741, 76.396 85.689 C 78.378 91.637, 80 97.108, 80 97.846 C 80 98.860, 78.840 99.048, 75.250 98.618 C 72.638 98.304, 67.463 97.759, 63.750 97.407 L 57 96.767 57 81.884 C 57 73.698, 57.378 67, 57.841 67 C 58.304 67, 60.779 67.631, 63.341 68.402 C 65.903 69.173, 68 69.703, 68 69.580 C 68 69.031, 64.673 59.456, 64.351 59.079 C 64.154 58.848, 62.871 59.712, 61.500 61 C 60.129 62.288, 58.812 63.145, 58.573 62.906 C 58.333 62.667, 57.572 52.240, 56.881 39.735 C 56.190 27.231, 55.319 17, 54.946 17 C 54.573 17, 48.421 23.660, 41.275 31.800 M 133.582 21.750 C 133.255 23.813, 131.643 37.650, 130 52.500 C 128.356 67.350, 126.778 80.887, 126.492 82.582 C 125.984 85.598, 126.097 85.698, 131.736 87.229 C 156.207 93.873, 161.047 95.359, 160.784 96.147 C 160.620 96.640, 151.157 105.957, 139.755 116.852 C 122.769 133.082, 116.500 139.890, 105.053 154.539 C 97.370 164.371, 91.262 172.595, 91.481 172.814 C 91.700 173.033, 93.818 172.521, 96.189 171.676 C 99.421 170.524, 106.882 169.986, 126 169.524 C 144.095 169.087, 155.971 168.268, 166.895 166.704 L 182.291 164.500 167.137 152.141 C 158.802 145.344, 151.758 139.417, 151.482 138.971 C 151.207 138.525, 157.068 127.016, 164.507 113.396 C 171.946 99.776, 177.687 88.302, 177.266 87.900 C 176.845 87.497, 168.400 84.373, 158.500 80.958 C 148.600 77.544, 139.487 74.367, 138.249 73.899 C 136.118 73.094, 136.335 72.736, 142.301 67.185 L 148.603 61.322 163.302 58.964 C 171.386 57.666, 177.998 56.356, 177.995 56.052 C 177.992 55.749, 172.231 52.868, 165.193 49.652 L 152.396 43.804 143.509 30.902 C 138.622 23.806, 134.522 18, 134.399 18 C 134.276 18, 133.908 19.688, 133.582 21.750 M 74.526 46.974 C 71.275 50.259, 68.814 53.130, 69.057 53.352 C 69.301 53.575, 75.684 56.999, 83.243 60.962 L 96.986 68.167 98.095 65.334 C 102.339 54.492, 105.848 43.999, 105.232 43.992 C 104.829 43.988, 99.117 43.313, 92.538 42.492 C 85.959 41.671, 80.545 41, 80.507 41 C 80.469 41, 77.777 43.688, 74.526 46.974 M 60 82.086 C 60 95.632, 59.006 94.390, 70.670 95.412 L 76.839 95.953 73.291 85.226 C 71.339 79.327, 69.342 74.064, 68.852 73.531 C 68.363 72.998, 66.170 72.033, 63.981 71.386 L 60 70.211 60 82.086 M 125.620 91.750 C 125.324 93.263, 124.303 101.593, 123.353 110.262 C 122.070 121.961, 121.915 126.315, 122.752 127.152 C 123.589 127.989, 128.022 124.329, 139.952 112.952 C 148.792 104.522, 155.682 97.306, 155.263 96.915 C 154.516 96.221, 128.766 89, 127.036 89 C 126.554 89, 125.916 90.237, 125.620 91.750" stroke="none" fill="black" fill-rule="evenodd"/>
</svg>