<svg xmlns="http://www.w3.org/2000/svg" width="200" height="200" viewBox="0 0 200 200" version="1.1">
	<path d="M 124 19.686 C 98.095 24.180, 89.495 25.270, 75.581 25.825 C 63.430 26.310, 58.545 26.852, 58.247 27.750 C 57.976 28.569, 58.983 29.042, 61.167 29.121 C 63 29.188, 57.075 30.487, 48 32.009 C 38.925 33.531, 31.341 34.630, 31.146 34.451 C 30.951 34.272, 33.314 30.257, 36.396 25.528 C 39.478 20.800, 42 16.497, 42 15.966 C 42 12.939, 38.839 16.857, 28.185 33.090 L 16.313 51.180 15.726 93.598 L 15.139 136.016 22.164 158.758 C 26.028 171.266, 29.570 181.900, 30.034 182.389 C 30.522 182.903, 45.361 180.262, 65.189 176.131 C 90.131 170.935, 101.545 168.986, 106.987 168.992 C 113.252 168.999, 119.266 170.320, 143.817 177.087 C 159.955 181.535, 173.461 184.873, 173.829 184.504 C 174.481 183.853, 176.991 31.892, 176.363 31.108 C 176.031 30.693, 170.949 34.871, 154.331 49.220 C 148.738 54.049, 143.936 58, 143.660 58 C 143.385 58, 142.840 54.962, 142.450 51.250 C 142.060 47.538, 141.629 43.600, 141.492 42.500 C 139.688 28.022, 139.684 28.316, 141.734 27.780 C 145.216 26.869, 160 16.852, 160 15.404 C 160 13.465, 159.580 13.515, 124 19.686 M 126.500 22.033 L 104.500 25.833 122.531 25.917 L 140.563 26 146.281 22.423 C 149.427 20.456, 152 18.656, 152 18.423 C 152 17.712, 149.302 18.094, 126.500 22.033 M 118.762 28.707 C 120.006 28.946, 121.806 28.937, 122.762 28.687 C 123.718 28.437, 122.700 28.241, 120.500 28.252 C 118.300 28.263, 117.518 28.468, 118.762 28.707 M 72 31.022 L 62.500 32.810 70.500 32.312 C 74.900 32.039, 86.600 31.241, 96.500 30.541 L 114.500 29.267 98 29.250 C 86.302 29.239, 78.735 29.755, 72 31.022 M 86.500 34.049 C 64.500 35.588, 46.383 36.882, 46.241 36.924 C 45.620 37.106, 56.098 57, 56.815 57 C 57.253 57, 70.636 52.902, 86.555 47.893 L 115.500 38.786 124.500 39.463 C 129.450 39.835, 134.512 40.382, 135.750 40.678 C 137.686 41.142, 137.998 40.818, 137.986 38.358 C 137.979 36.786, 137.701 34.487, 137.370 33.250 C 136.617 30.440, 138.518 30.410, 86.500 34.049 M 24.346 43.943 L 19.193 51.694 18.478 93.597 L 17.764 135.500 24.493 157 C 28.194 168.825, 31.539 178.844, 31.926 179.265 C 32.313 179.686, 44.055 177.661, 58.018 174.765 L 83.407 169.500 70.434 169.223 L 57.461 168.945 48.174 141.691 L 38.886 114.437 39.938 84.968 C 40.517 68.761, 40.992 51.280, 40.995 46.121 L 41 36.742 35.843 37.426 C 32.837 37.825, 30.439 37.710, 30.093 37.151 C 29.767 36.623, 27.181 39.679, 24.346 43.943 M 159 48.727 L 144.500 61.181 144.695 66.840 C 144.803 69.953, 145.129 73.737, 145.420 75.250 L 145.950 78 135.225 78.029 L 124.500 78.059 104.804 94.779 C 93.971 103.976, 85.083 111.799, 85.054 112.165 C 85.024 112.530, 88.365 113.623, 92.479 114.593 C 96.592 115.562, 100.479 116.678, 101.115 117.071 C 101.878 117.543, 97.441 124.678, 88.108 137.986 L 73.943 158.185 77.722 157.582 C 79.800 157.251, 95.645 155.177, 112.932 152.974 C 130.220 150.771, 144.454 148.863, 144.564 148.734 C 144.673 148.605, 141.216 140.656, 136.881 131.069 C 132.547 121.481, 129.011 113.156, 129.024 112.569 C 129.052 111.359, 150.944 96.611, 151.656 97.322 C 151.909 97.576, 151.430 106.944, 150.590 118.141 C 149.751 129.339, 148.827 142.100, 148.537 146.500 C 148.247 150.900, 147.724 157.537, 147.376 161.250 L 146.742 168 135.204 168 C 128.859 168, 123.856 168.189, 124.088 168.421 C 124.595 168.928, 171.343 182.013, 171.570 181.711 C 171.793 181.416, 173.893 36.547, 173.676 36.396 C 173.579 36.328, 166.975 41.877, 159 48.727 M 44.030 42 C 44.027 43.375, 43.541 60.475, 42.950 80 L 41.875 115.500 45.828 126.500 C 48.002 132.550, 50.084 137.421, 50.454 137.325 C 50.825 137.228, 56.807 132.278, 63.747 126.325 C 70.688 120.371, 77.019 115.012, 77.817 114.416 C 78.985 113.543, 76.029 110.728, 62.633 99.957 C 53.485 92.601, 46 86.297, 46 85.949 C 46 85.601, 49.825 83.612, 54.500 81.529 C 59.175 79.446, 63 77.379, 63 76.936 C 63 76.493, 58.733 67.889, 53.518 57.815 C 47.595 46.376, 44.033 40.439, 44.030 42 M 89.264 49.770 C 75.934 54.021, 65.022 57.731, 65.014 58.013 C 65.006 58.295, 71.412 59.819, 79.250 61.400 C 87.088 62.980, 93.821 64.556, 94.214 64.901 C 94.607 65.246, 89.207 68.171, 82.214 71.402 C 75.221 74.632, 69.065 77.670, 68.534 78.153 C 67.499 79.094, 81.793 109, 83.278 109 C 83.735 109, 92.166 102.138, 102.013 93.750 L 119.917 78.500 115.510 78.197 L 111.102 77.895 123.186 62.197 C 129.833 53.564, 135.724 45.927, 136.278 45.226 C 136.832 44.525, 137.108 43.776, 136.893 43.562 C 136.677 43.348, 131.325 42.917, 125 42.606 L 113.500 42.039 89.264 49.770 M 127.640 60.909 L 116.892 75 120.487 75 C 123.504 75, 125.428 73.843, 132.469 67.794 L 140.857 60.588 140.280 55.544 C 139.155 45.696, 139.286 45.640, 127.640 60.909 M 61.988 67.975 L 65.998 75.951 73.249 72.642 C 84.754 67.393, 86.710 66.227, 85 65.635 C 83.124 64.987, 59.953 60, 58.815 60 C 58.354 60, 59.782 63.589, 61.988 67.975 M 133.500 70.485 L 127.500 75.922 135.155 75.961 L 142.810 76 142.323 71.750 C 141.714 66.445, 141.274 64.993, 140.281 65.024 C 139.852 65.038, 136.800 67.495, 133.500 70.485 M 57.250 83.274 C 53.813 85.008, 51.020 86.669, 51.045 86.964 C 51.084 87.428, 70.381 102.985, 77.621 108.388 C 79.708 109.946, 78.822 107.622, 72.569 95.138 C 68.399 86.812, 64.653 80.027, 64.244 80.060 C 63.835 80.093, 60.688 81.539, 57.250 83.274 M 140.197 107.547 C 135.688 110.565, 132 113.178, 132 113.354 C 132 113.529, 135.145 120.609, 138.988 129.087 C 142.832 137.564, 145.985 143.600, 145.995 142.500 C 146.005 141.400, 146.682 131.985, 147.500 121.577 C 148.318 111.170, 148.854 102.521, 148.690 102.357 C 148.527 102.193, 144.705 104.529, 140.197 107.547 M 69.179 125.250 C 62.582 130.887, 57.288 135.607, 57.413 135.737 C 57.787 136.127, 85.432 125.922, 86.307 125.071 C 87.161 124.240, 83.105 115, 81.886 115 C 81.493 115, 75.775 119.612, 69.179 125.250 M 88.550 121.099 C 89.972 123.904, 90.946 126.387, 90.716 126.618 C 90.486 126.848, 81.595 130.188, 70.960 134.040 C 60.324 137.893, 51.476 141.191, 51.297 141.370 C 51.118 141.549, 52.890 147.196, 55.236 153.919 L 59.500 166.142 83 165.623 C 95.925 165.338, 107.175 165.112, 108 165.122 C 108.825 165.131, 117.202 165.361, 126.617 165.633 L 143.733 166.128 144.353 163.814 C 145.441 159.751, 145.091 152, 143.820 152 C 143.171 152, 126.685 154.046, 107.185 156.547 C 87.685 159.048, 71.117 160.961, 70.368 160.797 C 69.504 160.609, 74.155 153.121, 83.092 140.312 C 90.840 129.209, 97.165 119.766, 97.149 119.329 C 97.123 118.651, 89.023 116.077, 86.733 116.019 C 86.311 116.009, 87.129 118.295, 88.550 121.099" stroke="none" fill="black" fill-rule="evenodd"/>
</svg>