<svg xmlns="http://www.w3.org/2000/svg" width="200" height="200" viewBox="0 0 200 200" version="1.1">
	<path d="M 133 21.567 C 112.894 27.869, 106.417 29.258, 48.750 39.633 C 43.051 40.659, 40 41.661, 40 42.506 C 40 43.340, 44.099 44.758, 51.459 46.469 L 62.918 49.134 60.847 54.317 C 59.708 57.168, 58.340 60.717, 57.806 62.204 C 57.116 64.127, 54.479 66.235, 48.668 69.507 C 41.822 73.362, 40.003 74.947, 37.429 79.303 C 35.739 82.161, 31.409 89.257, 27.805 95.072 L 21.253 105.644 32.005 118.915 C 40.323 129.182, 43.380 133.806, 45.510 139.343 C 47.024 143.279, 48.766 147.018, 49.381 147.651 C 49.997 148.284, 58.713 153.173, 68.750 158.517 C 78.788 163.860, 87 168.532, 87 168.898 C 87 169.264, 71.205 171.431, 51.901 173.715 C 32.596 175.998, 16.538 178.128, 16.217 178.449 C 15.896 178.771, 16.053 179.436, 16.567 179.928 C 17.673 180.988, 79.756 183.028, 109 182.965 C 128.427 182.923, 183.196 179.137, 184.594 177.739 C 186.475 175.859, 181.968 175.184, 163.152 174.529 C 151.664 174.129, 140.842 173.509, 139.104 173.151 C 136.756 172.667, 133.512 169.823, 126.475 162.080 C 121.268 156.349, 117.118 151.551, 117.254 151.418 C 117.389 151.285, 131.900 150.436, 149.500 149.531 C 167.100 148.626, 182.766 147.574, 184.314 147.193 C 186.823 146.575, 185.081 145.482, 168.193 137.085 L 149.259 127.671 166.166 113.360 L 183.072 99.049 168.036 91.518 C 159.766 87.376, 153.033 83.653, 153.074 83.244 C 153.115 82.835, 160.107 76.255, 168.612 68.621 C 177.117 60.988, 183.917 54.583, 183.723 54.389 C 183.529 54.195, 174.220 55.603, 163.036 57.518 C 151.852 59.433, 142.131 61, 141.435 61 C 140.531 61, 141.289 56.766, 144.075 46.250 C 146.224 38.138, 147.987 30.829, 147.991 30.009 C 147.996 29.189, 138.792 37.718, 127.537 48.963 C 116.283 60.207, 107.170 69.498, 107.287 69.609 C 107.404 69.720, 111.071 69.187, 115.436 68.424 C 119.801 67.662, 123.531 67.197, 123.725 67.391 C 123.919 67.585, 113.147 73.808, 99.789 81.220 L 75.500 94.697 73.275 92.098 C 69.824 88.067, 65.659 81.999, 66.101 81.645 C 66.321 81.470, 84.617 67.526, 106.760 50.657 C 137.427 27.294, 148.089 19.701, 151.510 18.786 C 153.979 18.126, 156 17.004, 156 16.293 C 156 14.407, 155.414 14.541, 133 21.567 M 124 27.173 C 115.554 29.863, 101.123 33.031, 79.500 36.944 L 47.500 42.734 55.699 44.526 C 60.208 45.512, 64.459 46.666, 65.145 47.090 C 66.088 47.672, 65.472 50.187, 62.626 57.378 L 58.859 66.895 50.680 71.529 L 42.500 76.164 33.750 90.449 C 28.938 98.306, 25 105.031, 25 105.394 C 25 105.758, 29.472 111.555, 34.937 118.278 C 42.285 127.315, 45.737 132.542, 48.187 138.338 L 51.500 146.176 74.245 158.338 C 94.626 169.236, 96.704 170.577, 94.245 171.238 C 92.735 171.643, 79.350 173.371, 64.500 175.077 C 49.650 176.783, 37.380 178.296, 37.233 178.440 C 37.085 178.584, 45.635 179, 56.233 179.364 C 86.286 180.397, 132.134 180.049, 147 178.675 L 160.500 177.428 148 176.690 L 135.500 175.951 132.500 172.613 C 130.850 170.778, 125.326 164.755, 120.225 159.230 L 110.950 149.184 114.725 148.634 C 116.801 148.331, 129.525 147.571, 143 146.945 C 156.475 146.319, 169.664 145.513, 172.310 145.154 L 177.120 144.500 161.053 136.521 C 152.216 132.133, 145.101 128.257, 145.243 127.907 C 145.384 127.557, 152.864 121.046, 161.864 113.438 L 178.228 99.606 163.114 92.068 C 154.801 87.922, 148.008 84.298, 148.019 84.015 C 148.029 83.732, 154.322 77.905, 162.003 71.067 C 169.683 64.229, 175.862 58.538, 175.734 58.420 C 175.605 58.302, 167.348 59.588, 157.384 61.278 L 139.269 64.351 133.491 86.290 L 127.714 108.229 128.607 125.617 C 129.098 135.180, 129.186 142.891, 128.803 142.752 C 128.420 142.614, 120.072 133.050, 110.252 121.500 C 86.862 93.989, 88.748 94.164, 80.594 118.750 C 77.264 128.787, 74.012 137, 73.366 137 C 72.579 137, 71.988 133.460, 71.571 126.250 C 71.229 120.338, 70.688 111.563, 70.369 106.750 C 69.863 99.141, 69.997 98, 71.394 98 C 73.944 98, 73.358 96.670, 67.419 88.984 C 64.350 85.011, 62.213 81.416, 62.669 80.993 C 63.126 80.571, 79.925 67.738, 100 52.477 C 120.075 37.215, 136.928 24.340, 137.450 23.864 C 138.926 22.522, 137.508 22.870, 124 27.173 M 128.643 51.857 L 114.792 65.734 125.524 63.906 C 131.426 62.900, 136.466 61.867, 136.723 61.611 C 137.429 60.905, 143.036 39.613, 142.746 38.740 C 142.607 38.322, 136.261 44.225, 128.643 51.857 M 130 65.889 C 127.181 66.667, 127.433 65.518, 125.708 85.500 L 124.500 99.500 110.258 100 L 96.017 100.500 109.561 116.500 C 117.010 125.300, 123.802 133.175, 124.653 134 C 126.051 135.353, 126.134 134.169, 125.508 121.917 L 124.813 108.335 130.407 87.176 C 133.483 75.539, 136 65.789, 136 65.509 C 136 64.842, 133.137 65.024, 130 65.889 M 106.996 80.304 C 97.918 85.362, 89.894 89.887, 89.164 90.360 C 88.132 91.027, 88.454 91.865, 90.605 94.110 L 93.374 97 107.687 97 C 118.910 97, 122 96.714, 122 95.674 C 122 94.944, 122.484 89.535, 123.076 83.653 C 123.668 77.771, 124.006 72.542, 123.826 72.033 C 123.647 71.524, 116.073 75.246, 106.996 80.304 M 81.815 94.084 C 76.718 96.708, 76.496 97.601, 81.049 97.167 C 83.837 96.901, 85.106 96.241, 85.556 94.823 C 86.442 92.032, 85.979 91.941, 81.815 94.084 M 73.346 108.250 C 73.699 112.787, 73.991 119.162, 73.994 122.417 C 73.997 125.671, 74.235 128.098, 74.523 127.810 C 74.811 127.522, 77.006 121.147, 79.401 113.643 L 83.755 100 78.229 100 L 72.704 100 73.346 108.250" stroke="none" fill="black" fill-rule="evenodd"/>
</svg>