<svg xmlns="http://www.w3.org/2000/svg" width="200" height="200" viewBox="0 0 200 200" version="1.1">
	<path d="M 150.940 13.210 C 149.115 16.119, 147.492 18.677, 147.335 18.893 C 147.177 19.108, 146.403 18.749, 145.613 18.094 C 143.676 16.486, 142.585 18.362, 144.072 20.743 C 145.038 22.290, 143.110 26.012, 131.406 45.202 C 120.750 62.673, 117.361 67.521, 116.550 66.453 C 115.720 65.360, 110.993 65.037, 94 64.915 L 72.500 64.759 71 71.801 C 70.175 75.675, 69.262 79.079, 68.971 79.367 C 68.680 79.656, 64.405 76.778, 59.471 72.973 C 54.537 69.168, 50.359 66.466, 50.186 66.968 C 49.944 67.674, 57.648 104.247, 60.672 116.750 C 60.972 117.987, 61.794 119, 62.500 119 C 63.806 119, 65.251 113.622, 68.547 96.500 C 69.500 91.550, 70.616 87.124, 71.026 86.664 C 71.687 85.923, 93.132 101.786, 94.532 104.052 C 94.837 104.545, 91.242 111.266, 86.543 118.987 C 81.844 126.708, 78 133.247, 78 133.518 C 78 133.789, 86.100 129.956, 96 125 C 105.900 120.044, 114 115.814, 114 115.601 C 114 115.387, 110.618 112.621, 106.484 109.455 C 99.468 104.081, 99.056 103.558, 100.294 101.599 C 101.024 100.445, 104.294 95.076, 107.561 89.669 L 113.500 79.838 114 84.091 C 114.275 86.431, 114.959 88.495, 115.519 88.679 C 116.080 88.862, 120.577 80.895, 125.514 70.972 L 134.489 52.932 147.108 48.966 C 154.048 46.785, 160.238 45, 160.863 45 C 162.814 45, 162.191 43.644, 155.343 32.982 L 148.687 22.617 151.558 17.309 C 153.138 14.389, 154.671 12.027, 154.965 12.059 C 155.584 12.128, 185.370 47.668, 185.760 48.805 C 185.904 49.221, 176.113 55.398, 164.004 62.531 L 141.988 75.500 148.244 76.133 C 151.685 76.481, 157.988 76.819, 162.250 76.883 L 170 77 170 80.123 C 170 81.840, 169.291 90.405, 168.424 99.156 L 166.847 115.066 173.094 124.783 L 179.341 134.500 182.187 152.400 C 183.753 162.245, 184.880 170.453, 184.693 170.641 C 184.505 170.828, 176.597 167.835, 167.118 163.991 C 157.640 160.146, 149.422 157, 148.858 157 C 148.293 157, 139.431 160.649, 129.165 165.110 C 118.899 169.570, 109.825 173.456, 109 173.745 C 108.175 174.034, 112.310 169.372, 118.189 163.385 L 128.877 152.500 131.555 122.199 C 133.027 105.534, 133.985 91.651, 133.683 91.349 C 132.151 89.818, 130.746 93.993, 124.977 117.232 C 121.526 131.129, 118.634 142.598, 118.550 142.719 C 118.465 142.839, 110.375 143.775, 100.572 144.799 L 82.749 146.661 75.597 154.081 C 71.663 158.161, 64.281 165.984, 59.191 171.464 L 49.937 181.428 54.896 169.464 C 57.624 162.884, 63.662 148.387, 68.315 137.250 C 72.968 126.112, 76.559 117, 76.296 117 C 76.033 117, 65.509 123.964, 52.909 132.475 L 30 147.951 29.990 131.225 C 29.985 122.026, 29.355 104.150, 28.590 91.500 C 27.246 69.275, 27.272 68.002, 29.350 53.719 L 31.500 38.937 42.480 32.532 C 48.519 29.009, 53.637 26.304, 53.854 26.521 C 54.071 26.738, 55.430 33.571, 56.875 41.707 L 59.502 56.500 62.501 56.287 C 64.150 56.169, 75.085 55.536, 86.799 54.880 L 108.098 53.686 119.194 40.093 C 125.296 32.617, 130.979 25.702, 131.821 24.726 C 132.823 23.566, 133.013 22.613, 132.371 21.971 C 131.728 21.328, 127.154 26.176, 119.137 35.995 C 110.276 46.846, 106.277 51.015, 104.692 51.053 C 103.486 51.083, 93.500 51.695, 82.500 52.413 C 71.500 53.132, 62.324 53.569, 62.110 53.386 C 61.895 53.202, 60.513 46.296, 59.039 38.039 C 57.565 29.781, 56.093 22.760, 55.770 22.436 C 55.446 22.112, 49.311 25.323, 42.137 29.570 C 31.647 35.782, 28.996 37.803, 28.593 39.897 C 28.317 41.328, 27.313 48.435, 26.360 55.689 C 24.766 67.838, 24.743 70.875, 26.065 94.189 C 26.854 108.110, 27.345 127.084, 27.156 136.352 C 26.869 150.387, 27.040 153.062, 28.174 152.352 C 28.924 151.884, 38.304 145.621, 49.018 138.435 C 71.188 123.567, 71.510 123.361, 70.756 124.595 C 68.040 129.041, 45.025 186.622, 45.485 187.821 C 46.175 189.620, 45.123 190.634, 68.106 166 L 83.500 149.500 102 147.500 L 120.500 145.500 124.891 128.224 C 127.306 118.722, 129.389 111.072, 129.520 111.224 C 129.652 111.376, 128.953 120.380, 127.968 131.233 L 126.178 150.966 113.839 163.995 C 103.061 175.375, 99.461 180, 101.382 180 C 101.673 180, 112.165 175.500, 124.699 170 C 137.232 164.500, 148.055 160, 148.750 160 C 149.445 160, 158.418 163.368, 168.690 167.484 C 178.962 171.600, 187.581 174.752, 187.844 174.489 C 188.107 174.226, 186.907 164.951, 185.178 153.879 L 182.033 133.747 175.894 124.175 L 169.755 114.603 171.532 95.289 C 172.509 84.667, 172.977 75.643, 172.572 75.238 C 172.167 74.832, 167.072 74.275, 161.249 74 L 150.661 73.500 170.300 62 C 181.102 55.675, 189.953 50.197, 189.970 49.827 C 190.006 49.017, 156.071 8.624, 155.005 8.210 C 154.595 8.050, 152.766 10.300, 150.940 13.210 M 131.626 50.030 C 119.537 69.892, 117.009 74.706, 117.053 77.780 C 117.100 81.111, 117.924 79.879, 124.936 65.995 L 132.767 50.491 145.383 46.596 C 152.322 44.453, 158 42.575, 158 42.421 C 158 41.515, 147.596 26, 146.989 26 C 146.583 26, 139.670 36.814, 131.626 50.030 M 74.592 68.101 C 73.881 70.263, 72 79.938, 72 81.429 C 72 82.161, 74.362 84.552, 77.250 86.744 C 80.138 88.935, 85.724 93.259, 89.664 96.354 L 96.829 101.980 105.414 87.968 C 111.136 78.629, 114 72.963, 114 70.978 L 114 68 104.250 67.995 C 98.888 67.992, 90.124 67.700, 84.776 67.346 C 76.912 66.825, 74.964 66.969, 74.592 68.101 M 54 72.989 C 54 74.408, 62.021 110.355, 62.429 110.763 C 63.196 111.529, 68.281 85.176, 67.673 83.590 C 66.993 81.818, 54 71.744, 54 72.989 M 91.293 116.316 C 87.927 121.917, 85.308 126.636, 85.472 126.802 C 85.898 127.233, 109.006 115.646, 108.969 115.020 C 108.939 114.520, 100.962 108.225, 98.573 106.816 C 97.837 106.382, 95.175 109.854, 91.293 116.316" stroke="none" fill="black" fill-rule="evenodd"/>
</svg>