<svg xmlns="http://www.w3.org/2000/svg" width="200" height="200" viewBox="0 0 200 200" version="1.1">
	<path d="M 85.564 19.194 C 83.747 27.542, 82.968 42.304, 83.587 56.704 L 84.283 72.908 80.102 79.945 C 75.831 87.134, 72.462 89.458, 69.669 87.140 C 68.732 86.362, 63.514 86.385, 51.146 87.221 C 36.689 88.198, 33.974 88.628, 34.220 89.903 C 34.712 92.456, 40.682 92.883, 57.392 91.559 C 66.194 90.861, 74.172 90.494, 75.121 90.742 C 76.155 91.012, 78.312 94.607, 80.509 99.720 L 84.172 108.247 83.501 125.374 C 83.105 135.474, 83.276 147.808, 83.918 155.439 C 84.686 164.566, 84.694 168.571, 83.945 169.034 C 83.360 169.395, 78.497 170.915, 73.138 172.412 C 63.511 175.101, 63.204 175.122, 47.447 174.152 L 31.500 173.170 23.750 176.158 C 16.427 178.981, 14.860 180.178, 16.866 181.417 C 17.342 181.712, 52.024 182.050, 93.936 182.170 L 170.141 182.387 176.615 177.282 L 183.089 172.176 174.295 166.749 C 169.458 163.764, 163.601 160.237, 161.281 158.911 L 157.062 156.500 150.281 163.012 C 146.551 166.594, 141.698 171.190, 139.495 173.226 L 135.490 176.927 124.460 173.384 L 113.430 169.840 113.633 138.981 C 113.836 108.186, 113.842 108.105, 116.624 99.561 C 119.855 89.639, 117.612 90.430, 138 92.020 C 149.636 92.927, 164.655 91.904, 175.790 89.447 C 177.775 89.009, 176.443 87.580, 165.788 78.721 C 159.027 73.099, 152.647 67.831, 151.610 67.014 C 149.854 65.629, 149.062 66.239, 140.019 75.930 L 130.312 86.332 121.406 81.519 C 116.508 78.871, 112.420 76.654, 112.322 76.591 C 112.224 76.529, 112.544 69.057, 113.033 59.989 C 113.660 48.357, 114.680 40.294, 116.495 32.617 C 117.909 26.631, 118.899 21.566, 118.694 21.360 C 118.489 21.155, 112.961 20.317, 106.410 19.497 C 99.860 18.678, 92.602 17.755, 90.283 17.447 C 86.477 16.942, 86.017 17.112, 85.564 19.194 M 86.993 30.058 C 86.133 37.074, 85.960 45.597, 86.443 57.019 L 87.150 73.720 83.075 80.378 C 80.834 84.039, 79 87.500, 79 88.069 C 79 88.637, 80.795 93.319, 82.988 98.473 L 86.977 107.843 86.375 126.172 C 86.037 136.469, 86.243 150.178, 86.845 157.458 C 87.434 164.586, 87.757 170.577, 87.562 170.772 C 87.366 170.967, 82.098 172.656, 75.853 174.526 L 64.500 177.926 47.974 176.917 C 34.350 176.085, 30.862 176.154, 28.114 177.310 C 24.995 178.621, 25.827 178.759, 41.005 179.439 C 49.929 179.839, 74.109 179.837, 94.739 179.436 L 132.247 178.706 121.421 175.317 C 115.466 173.453, 110.399 171.732, 110.161 171.494 C 109.922 171.255, 110.136 163.959, 110.636 155.280 C 111.136 146.601, 111.287 133.200, 110.971 125.500 C 110.403 111.627, 110.429 111.393, 113.917 99.644 L 117.437 87.789 122.718 88.227 C 125.623 88.467, 128 88.554, 128 88.419 C 128 88.283, 123.722 85.867, 118.494 83.048 L 108.989 77.924 109.458 74.212 C 109.716 72.170, 110.193 64.200, 110.519 56.500 C 111.033 44.352, 112.437 35.558, 115.561 24.924 C 115.949 23.604, 114.192 23.142, 104.762 22.080 C 98.568 21.383, 92.319 20.585, 90.875 20.306 L 88.250 19.800 86.993 30.058 M 141.091 78.777 L 132.062 88.500 139.781 89.338 C 147.473 90.173, 169.549 88.538, 170.459 87.066 C 170.694 86.685, 166.214 82.477, 160.503 77.714 L 150.120 69.054 141.091 78.777 M 147.499 169.250 L 137.637 178.500 142.569 179.162 C 145.281 179.527, 152.450 179.851, 158.500 179.883 L 169.500 179.940 173.905 176.133 L 178.309 172.325 168.108 166.163 C 162.498 162.773, 157.784 160, 157.634 160 C 157.484 160, 152.923 164.162, 147.499 169.250" stroke="none" fill="black" fill-rule="evenodd"/>
</svg>