<svg xmlns="http://www.w3.org/2000/svg" width="200" height="200" viewBox="0 0 200 200" version="1.1">
	<path d="M 44.361 14.617 C 38.961 29.613, 33.531 41.997, 27.359 53.390 C 21.934 63.403, 20.177 67.492, 21.064 68.040 C 21.740 68.458, 28.865 71.153, 36.897 74.030 C 44.929 76.907, 51.838 79.563, 52.252 79.932 C 52.666 80.302, 52.217 84.068, 51.254 88.302 C 50.023 93.718, 49.060 95.997, 48.002 95.990 C 47.176 95.985, 40 94.873, 32.055 93.519 C 24.110 92.165, 17.527 91.157, 17.427 91.279 C 17.327 91.400, 21.264 98.687, 26.176 107.472 L 35.107 123.444 29.905 135.725 L 24.702 148.007 30.102 153.753 C 33.072 156.914, 40.625 165.012, 46.887 171.750 C 53.149 178.488, 58.635 184, 59.078 184 C 59.522 184, 65.598 174.438, 72.580 162.750 C 79.563 151.063, 85.782 140.948, 86.400 140.274 C 87.254 139.342, 90.939 145.354, 101.751 165.317 C 109.575 179.765, 116.643 192.467, 117.457 193.543 C 118.922 195.481, 118.937 195.481, 118.973 193.500 C 118.993 192.400, 120.582 175.160, 122.505 155.189 C 124.427 135.218, 126.011 118.118, 126.024 117.189 C 126.037 116.260, 127.837 119.491, 130.025 124.369 L 134.002 133.239 130.853 159.638 C 129.121 174.158, 127.907 186.240, 128.155 186.488 C 128.584 186.917, 178.443 174.462, 179.900 173.562 C 180.282 173.326, 179.526 161.290, 178.219 146.816 L 175.843 120.500 167.979 103.006 C 160.951 87.370, 159.685 85.214, 156.058 82.702 C 153.826 81.155, 152 79.558, 152 79.151 C 152 78.745, 160.045 67.632, 169.878 54.456 C 184.675 34.628, 187.456 30.385, 186.012 29.832 C 182.674 28.553, 122.985 16.891, 122.245 17.374 C 121.835 17.641, 115.650 25.029, 108.500 33.792 L 95.500 49.725 87.129 52.464 L 78.758 55.203 76.724 53.168 L 74.690 51.134 80.678 42.317 C 83.972 37.468, 86.961 32.991, 87.319 32.369 C 87.726 31.664, 82.511 28.181, 73.470 23.119 C 65.495 18.654, 58.624 15, 58.202 15 C 57.780 15, 57.609 18.262, 57.823 22.250 L 58.211 29.500 51.625 21.117 C 46.185 14.191, 44.922 13.061, 44.361 14.617 M 42 28.649 C 40.075 33.955, 35.237 44.401, 31.250 51.862 C 27.263 59.323, 24 65.673, 24 65.972 C 24 66.271, 30.862 68.940, 39.250 71.903 C 47.638 74.866, 54.879 77.626, 55.342 78.037 C 56.722 79.261, 51.913 99, 50.234 99 C 49.445 99, 43.192 98.053, 36.338 96.895 C 29.485 95.737, 23.638 95.029, 23.345 95.321 C 23.053 95.614, 26.259 102.015, 30.471 109.546 L 38.129 123.239 33.004 135.181 L 27.879 147.123 31.625 151.312 C 43.408 164.487, 58.357 179.897, 58.981 179.512 C 59.378 179.266, 65.733 168.938, 73.102 156.560 C 80.471 144.182, 86.802 134.042, 87.172 134.027 C 87.542 134.012, 94.005 145.363, 101.536 159.250 C 115.546 185.088, 116.996 187.499, 117.005 184.950 C 117.007 184.152, 118.567 167.322, 120.470 147.548 C 122.373 127.775, 123.833 111.527, 123.715 111.442 C 123.597 111.356, 118.112 109.657, 111.526 107.665 L 99.551 104.043 96.400 107.097 C 94.667 108.776, 87.006 117.069, 79.375 125.525 C 67.178 139.039, 65.420 140.633, 64.840 138.700 C 64.477 137.490, 62.920 113.593, 61.380 85.597 L 58.579 34.693 52.759 27.097 C 49.558 22.918, 46.615 19.388, 46.219 19.251 C 45.824 19.114, 43.925 23.343, 42 28.649 M 60.848 26.318 C 61.239 33.227, 61.442 33.716, 66.845 40.735 C 69.920 44.731, 72.723 48, 73.072 48 C 73.591 48, 82.785 35.029, 83.791 32.878 C 84.028 32.369, 70.660 24.426, 62.472 20.211 C 60.510 19.201, 60.457 19.401, 60.848 26.318 M 109.981 36.212 L 96.500 52.425 88.750 54.916 C 84.487 56.286, 81 57.766, 81 58.205 C 81 58.644, 84.609 63.568, 89.020 69.148 L 97.041 79.294 83.770 89.112 C 76.472 94.512, 70.162 98.946, 69.750 98.965 C 66.880 99.099, 70.720 95.284, 81.066 87.723 C 91.870 79.828, 92.946 78.767, 91.788 77.164 C 85.673 68.702, 77.524 59, 76.532 59 C 75.861 59, 72.768 59.876, 69.657 60.946 C 66.545 62.017, 64 62.685, 64 62.431 C 64 62.177, 65.633 59.510, 67.628 56.505 C 71.684 50.396, 71.713 50.552, 65.131 43 L 62.081 39.500 62.029 43.500 C 61.957 48.956, 65.151 102.407, 65.576 102.875 C 65.764 103.082, 79.888 100.644, 96.963 97.459 C 123.460 92.516, 128.354 91.851, 130.361 92.925 C 134.506 95.144, 158.512 119.893, 157.468 120.872 C 156.879 121.425, 151.056 120.053, 142.604 117.370 C 134.960 114.944, 128.593 113.081, 128.455 113.230 C 128.316 113.378, 130.146 117.905, 132.521 123.290 L 136.840 133.080 133.880 157.666 C 132.252 171.189, 131.106 182.439, 131.333 182.667 C 131.882 183.215, 176.324 172.070, 177.112 171.186 C 177.449 170.809, 176.686 159.355, 175.417 145.734 L 173.110 120.969 165.469 104.061 C 158.570 88.792, 157.431 86.889, 153.729 84.439 L 149.630 81.727 147.320 84.613 L 145.010 87.500 145.005 82.898 L 145 78.295 130.499 68.448 C 122.524 63.032, 116.337 58.305, 116.749 57.943 C 117.162 57.581, 124.657 51.511, 133.405 44.453 L 149.309 31.620 148.754 54.360 C 148.419 68.096, 148.565 76.978, 149.123 76.792 C 151.191 76.103, 182.780 32.478, 181.660 31.858 C 180.618 31.282, 125.939 20, 124.187 20 C 123.789 20, 117.396 27.296, 109.981 36.212 M 133.171 48.182 C 126.390 53.715, 121.215 58.576, 121.671 58.983 C 124.418 61.437, 145.190 75.143, 145.577 74.756 C 145.835 74.498, 145.923 66.150, 145.773 56.204 L 145.500 38.121 133.171 48.182 M 71.177 56.087 C 69.971 58.020, 70.046 58.122, 72.187 57.463 C 75.144 56.553, 75.338 56.356, 74.541 55.067 C 73.560 53.479, 72.630 53.761, 71.177 56.087 M 113.500 97.084 C 105.250 98.643, 91.011 101.329, 81.857 103.051 L 65.215 106.183 65.587 109.842 C 65.792 111.854, 66.234 118.293, 66.570 124.151 L 67.179 134.801 82.649 117.901 C 91.158 108.605, 98.430 101.004, 98.810 101.009 C 99.189 101.015, 110.953 104.599, 124.952 108.975 C 138.950 113.350, 150.522 116.811, 150.668 116.665 C 150.814 116.520, 145.885 111.416, 139.716 105.325 L 128.500 94.249 113.500 97.084" stroke="none" fill="black" fill-rule="evenodd"/>
</svg>