<svg xmlns="http://www.w3.org/2000/svg" width="200" height="200" viewBox="0 0 200 200" version="1.1">
	<path d="M 142.500 28.060 L 127.500 34.846 110.356 35.557 L 93.212 36.268 87.759 33.148 C 84.759 31.432, 82.064 30.270, 81.768 30.565 C 81.472 30.861, 79.811 29.392, 78.076 27.301 L 74.922 23.500 75.660 28 C 77.293 37.954, 77.680 37.500, 67.555 37.500 L 58.609 37.500 56.055 30.252 C 54.650 26.266, 53.045 23.003, 52.489 23.002 C 51.933 23.001, 43.957 30.538, 34.766 39.750 L 18.053 56.500 20.009 94 C 21.085 114.625, 21.973 131.550, 21.983 131.612 C 21.992 131.674, 32.012 129.274, 44.250 126.280 C 72.421 119.387, 72.342 119.397, 82.374 121.502 L 90.772 123.265 91.322 127.363 C 91.624 129.617, 91.732 131.601, 91.562 131.771 C 91.392 131.941, 77.685 134.875, 61.102 138.290 C 37.907 143.067, 31.014 144.826, 31.225 145.913 C 31.418 146.907, 39.904 149.173, 59.796 153.543 C 75.359 156.962, 88.253 159.926, 88.450 160.130 C 88.646 160.333, 75.800 165.631, 59.903 171.903 C 40.246 179.657, 31 183.777, 31 184.780 C 31 185.919, 31.856 186.127, 34.750 185.691 C 51.470 183.176, 63.174 182.828, 99 183.784 L 136.500 184.784 160.910 179.899 C 174.335 177.212, 185.518 174.815, 185.760 174.573 C 186.002 174.331, 185.907 173.659, 185.549 173.080 C 185.101 172.354, 173.868 172.228, 149.449 172.675 C 129.952 173.032, 114 173.074, 114 172.769 C 114 172.464, 121.875 165.843, 131.500 158.057 C 141.125 150.270, 149 143.732, 149 143.527 C 149 143.323, 147.313 142.616, 145.250 141.957 C 143.188 141.299, 131.135 136.314, 118.467 130.880 C 105.799 125.446, 94.939 121, 94.333 121 C 93.104 121, 91.816 117.216, 92.844 116.624 C 93.205 116.416, 101.006 115.674, 110.180 114.975 C 119.354 114.276, 127.441 113.345, 128.151 112.907 C 131.310 110.955, 126.806 110.777, 110.253 112.200 C 100.489 113.040, 92.368 113.619, 92.207 113.487 C 92.046 113.356, 91.659 111.675, 91.347 109.753 L 90.780 106.259 105.366 105.820 C 113.389 105.578, 120.146 105.183, 120.383 104.940 C 120.620 104.698, 119.933 93.311, 118.856 79.635 C 117.779 65.959, 117.091 54.576, 117.327 54.339 C 117.564 54.103, 122.260 56.630, 127.764 59.955 C 133.268 63.280, 138.191 66, 138.705 66 C 139.219 66, 141.080 59.813, 142.842 52.250 C 144.604 44.688, 146.306 37.513, 146.625 36.306 C 147.159 34.281, 146.806 34.088, 142.039 33.806 L 136.874 33.500 146.488 29.301 C 152.949 26.480, 156.225 25.496, 156.476 26.301 C 156.681 26.961, 158.300 35.600, 160.073 45.500 C 162.256 57.690, 165.512 70.732, 170.160 85.905 C 173.934 98.228, 176.905 108.424, 176.761 108.563 C 176.488 108.827, 142.004 113, 140.096 113 C 139.493 113, 139 113.675, 139 114.500 C 139 115.325, 139.338 115.996, 139.750 115.991 C 141.741 115.969, 180.273 111.053, 180.474 110.795 C 180.601 110.633, 177.473 100.120, 173.522 87.434 C 168.137 70.145, 165.387 59.126, 162.541 43.434 C 160.452 31.920, 158.463 22.224, 158.121 21.887 C 157.780 21.550, 150.750 24.328, 142.500 28.060 M 36.221 42.275 L 20.943 57.581 22.688 92.790 C 23.804 115.306, 24.806 127.984, 25.467 127.956 C 28.800 127.814, 65.059 118.239, 63.903 117.806 C 63.131 117.518, 58.112 116.461, 52.750 115.457 C 47.388 114.454, 43.005 113.153, 43.012 112.567 C 43.019 111.980, 46.169 104.531, 50.012 96.013 C 53.855 87.495, 57 80.369, 57 80.179 C 57 79.988, 55.248 81.220, 53.106 82.916 C 44.956 89.371, 45.931 86.981, 61.545 62.229 C 68.994 50.419, 74.957 40.636, 74.795 40.490 C 74.633 40.344, 70.675 40.595, 66 41.049 C 52.481 42.361, 41.759 42.226, 42.246 40.750 C 42.508 39.957, 45.118 39.391, 49.382 39.203 C 56.897 38.871, 56.729 39.253, 53.105 30.739 L 51.500 26.970 36.221 42.275 M 85.733 36.124 C 86.412 36.808, 87.219 37.115, 87.526 36.807 C 87.834 36.499, 87.279 35.940, 86.293 35.564 C 84.868 35.022, 84.753 35.136, 85.733 36.124 M 122.250 40.089 C 116.797 42.635, 116.002 43.357, 116.015 45.753 C 116.024 47.264, 116.361 48.987, 116.765 49.582 C 117.678 50.927, 136.934 62.425, 137.376 61.889 C 137.553 61.675, 139.063 55.987, 140.731 49.250 L 143.764 37 136.132 37.086 C 129.910 37.156, 127.345 37.711, 122.250 40.089 M 103.118 38.742 L 97.736 39.114 105.326 43.557 C 109.501 46.001, 113.070 48, 113.257 48 C 113.445 48, 113.426 46.524, 113.216 44.721 C 112.879 41.840, 113.237 41.241, 116.166 39.785 L 119.500 38.128 114 38.249 C 110.975 38.316, 106.078 38.537, 103.118 38.742 M 89.632 39.786 C 89.365 40.218, 93.389 45.731, 98.573 52.036 C 103.758 58.341, 108 63.748, 108 64.052 C 108 64.356, 103.459 69.711, 97.909 75.954 L 87.818 87.304 88.460 91.902 C 88.812 94.431, 89.353 97.963, 89.662 99.750 L 90.223 103 104.183 103 L 118.144 103 117.567 97.750 C 117.250 94.862, 116.306 83.549, 115.468 72.609 C 114.630 61.670, 113.730 52.373, 113.469 51.949 C 112.787 50.847, 92.357 39, 91.137 39 C 90.576 39, 89.899 39.354, 89.632 39.786 M 80.567 41.750 C 80.776 42.712, 82.372 52.625, 84.113 63.777 C 85.854 74.930, 87.374 83.930, 87.491 83.777 C 87.608 83.625, 91.590 79.098, 96.339 73.717 L 104.975 63.934 95.237 52.045 C 87.384 42.456, 84.986 40.140, 82.844 40.078 C 80.816 40.018, 80.277 40.414, 80.567 41.750 M 68.554 56.272 C 63.634 64.098, 58.927 71.625, 58.093 73 C 56.599 75.465, 56.607 75.476, 58.618 73.750 C 60.818 71.862, 63 71.443, 63 72.908 C 63 73.408, 59.400 81.802, 55 91.562 C 50.600 101.322, 47 109.824, 47 110.456 C 47 111.419, 69.107 116.462, 72.500 116.274 C 74.212 116.180, 88.483 113.709, 88.814 113.450 C 88.987 113.315, 88.825 111.583, 88.453 109.602 L 87.777 106 77.811 106 L 67.844 106 71.982 101.250 C 74.257 98.638, 78.073 94.250, 80.462 91.500 L 84.804 86.500 81.462 65.180 C 79.624 53.453, 77.980 43.451, 77.810 42.952 C 77.639 42.453, 73.474 48.447, 68.554 56.272 M 79.180 97.023 L 73.860 103 80.566 103 L 87.272 103 86.636 98.360 C 86.286 95.809, 86 93.109, 86 92.360 C 86 89.967, 84.622 90.909, 79.180 97.023 M 81.550 117.922 C 82.073 118.429, 84.188 119.154, 86.250 119.533 C 89.317 120.097, 90 119.929, 90 118.611 C 90 117.358, 88.955 117, 85.300 117 C 82.411 117, 80.966 117.355, 81.550 117.922 M 94.311 128.975 L 94.900 133.950 91.200 134.897 C 89.165 135.417, 76.825 138.006, 63.778 140.650 C 50.731 143.293, 40.381 145.745, 40.778 146.099 C 41.175 146.452, 53.391 149.319, 67.925 152.468 C 82.459 155.617, 95.234 158.521, 96.313 158.920 C 97.752 159.452, 90.932 162.551, 70.703 170.556 C 55.539 176.556, 43.251 181.584, 43.396 181.730 C 43.542 181.875, 47.224 181.538, 51.580 180.981 C 56.910 180.299, 72.255 180.293, 98.500 180.962 L 137.500 181.956 153.500 178.570 L 169.500 175.183 137.589 175.756 C 116.544 176.134, 105.888 175.990, 106.293 175.334 C 106.631 174.787, 115.233 167.665, 125.407 159.507 L 143.906 144.675 129.203 138.473 C 121.116 135.061, 110.260 130.410, 105.078 128.135 C 99.895 125.861, 95.220 124, 94.688 124 C 94.116 124, 93.962 126.032, 94.311 128.975" stroke="none" fill="black" fill-rule="evenodd"/>
</svg>