<svg xmlns="http://www.w3.org/2000/svg" width="200" height="200" viewBox="0 0 200 200" version="1.1">
	<path d="M 88.519 20.250 C 83.119 36.379, 82.887 38.133, 84.018 54.305 L 85.101 69.793 81.595 79.865 C 79.385 86.214, 78.467 90.171, 79.111 90.569 C 80.595 91.486, 80.703 91.274, 84.466 80.101 L 87.902 69.899 86.820 54.756 C 85.786 40.268, 85.837 39.264, 88.015 31.556 C 89.267 27.125, 90.634 23.114, 91.053 22.643 C 91.949 21.635, 117 24.946, 117 26.073 C 117 26.495, 115.924 31.938, 114.609 38.170 C 113.029 45.656, 112.003 54.690, 111.584 64.796 L 110.950 80.093 120.725 84.684 L 130.500 89.275 121.500 91.732 C 116.550 93.083, 112.176 94.493, 111.781 94.864 C 111.385 95.235, 111.530 102.319, 112.102 110.605 C 112.789 120.545, 112.821 130.727, 112.198 140.525 L 111.252 155.378 115.767 166.215 C 118.250 172.176, 120.060 177.274, 119.789 177.544 C 119.518 177.815, 108.340 177.916, 94.949 177.768 L 70.600 177.500 78.721 172.783 C 83.187 170.188, 87.019 167.713, 87.236 167.283 C 87.453 166.852, 87.286 159.525, 86.865 151 C 86.444 142.475, 86.464 128.751, 86.909 120.502 L 87.718 105.504 81.712 96.502 C 78.408 91.551, 75.644 87.410, 75.569 87.300 C 75.495 87.190, 68.708 87.799, 60.487 88.652 C 50.182 89.722, 42.584 89.967, 36.020 89.442 C 27.468 88.758, 26.856 88.582, 30 87.713 C 31.925 87.181, 41.571 86.666, 51.435 86.569 C 62.973 86.455, 69.495 86.016, 69.721 85.337 C 69.951 84.646, 65.149 84.101, 55.786 83.757 C 44.680 83.349, 38.717 83.657, 29 85.137 C 22.125 86.185, 15.862 87.273, 15.083 87.554 C 11.670 88.786, 16.525 90.195, 29.101 91.623 C 41.941 93.081, 57.245 92.609, 70.678 90.341 C 73.729 89.826, 74.080 90.140, 79.403 98.152 L 84.949 106.500 84.088 122 C 83.615 130.525, 83.383 138.850, 83.574 140.500 C 83.765 142.150, 84.111 148.583, 84.342 154.795 L 84.764 166.089 77.385 170.409 C 70.133 174.654, 69.807 174.739, 58.253 175.390 C 38.158 176.522, 33 177.158, 33 178.506 C 33 179.476, 42.915 179.854, 77.750 180.209 C 102.362 180.461, 127 180.718, 132.500 180.782 C 138 180.846, 147.481 181.174, 153.568 181.510 L 164.636 182.122 167.438 174.981 C 168.979 171.053, 169.848 167.506, 169.370 167.099 C 168.891 166.691, 163.450 164.412, 157.277 162.034 C 147.425 158.239, 145.837 157.881, 144.277 159.103 C 143.300 159.869, 138.275 164.012, 133.110 168.308 C 127.946 172.605, 123.372 175.756, 122.946 175.310 C 122.520 174.865, 120.340 170.078, 118.102 164.673 L 114.033 154.847 114.988 140.673 C 115.599 131.591, 115.593 121.311, 114.970 112.051 C 114.435 104.104, 114.336 97.285, 114.749 96.896 C 115.162 96.508, 119.797 95.057, 125.049 93.672 C 134.463 91.190, 134.839 91.170, 151.816 92.276 L 169.035 93.397 174.517 87.983 C 177.533 85.005, 180 82.328, 179.999 82.034 C 179.999 81.740, 174.592 78.195, 167.985 74.154 L 155.970 66.809 147.422 74.154 C 142.721 78.195, 137.391 82.731, 135.577 84.235 L 132.280 86.969 123.046 82.751 L 113.811 78.533 114.528 63.238 C 115.036 52.406, 116.042 44.375, 117.976 35.721 C 119.479 28.999, 120.632 23.396, 120.540 23.269 C 120.279 22.911, 93.139 19, 90.914 19 C 89.827 19, 88.749 19.563, 88.519 20.250 M 146.489 78.484 C 141.183 83.066, 136.764 87.195, 136.670 87.658 C 136.577 88.121, 143.475 89.004, 152 89.620 L 167.500 90.741 171.797 86.561 L 176.093 82.380 166.116 76.266 L 156.138 70.152 146.489 78.484 M 136.210 169.169 C 131.100 173.615, 127.050 177.358, 127.210 177.487 C 127.369 177.617, 135.428 178.009, 145.118 178.359 L 162.735 178.996 164.829 173.958 L 166.922 168.921 164.711 168.065 C 163.495 167.594, 159.001 165.812, 154.724 164.104 C 150.447 162.397, 146.622 161.019, 146.224 161.043 C 145.826 161.067, 141.319 164.724, 136.210 169.169" stroke="none" fill="black" fill-rule="evenodd"/>
</svg>