<svg xmlns="http://www.w3.org/2000/svg" width="200" height="200" viewBox="0 0 200 200" version="1.1">
	<path d="M 50.430 11.321 C 50.133 12.095, 53.053 17.964, 56.918 24.364 C 60.783 30.764, 63.670 36, 63.333 36 C 62.997 36, 56.097 31.950, 48 27 C 39.903 22.050, 32.991 18, 32.639 18 C 29.653 18, 35.077 23.027, 53.594 37.423 C 68.292 48.850, 75.515 53.885, 76.210 53.190 C 76.905 52.495, 76.715 51.432, 75.616 49.862 C 74.727 48.593, 74 47.222, 74 46.816 C 74 46.409, 78.275 48.645, 83.500 51.784 C 88.725 54.923, 93 57.831, 93 58.246 C 93 59.342, 83.229 59.173, 82.833 58.070 C 82.490 57.112, 29.219 47.448, 28.460 48.206 C 28.227 48.439, 27.584 55.351, 27.030 63.565 C 26.476 71.779, 25.826 80.862, 25.584 83.750 C 25.342 86.637, 25.464 89, 25.854 89 C 26.244 89, 36.899 82.673, 49.532 74.939 L 72.500 60.878 81.779 61.301 C 86.882 61.534, 91.287 61.954, 91.568 62.235 C 91.849 62.516, 91.302 65.542, 90.351 68.960 C 88.734 74.776, 88.459 75.143, 86.062 74.677 C 80.964 73.686, 57.034 71.633, 56.524 72.142 C 55.364 73.303, 44.113 112.504, 44.780 113.060 C 45.176 113.390, 55.063 117.654, 66.750 122.537 C 78.438 127.419, 87.999 131.658, 87.997 131.957 C 87.996 132.256, 76.971 134.972, 63.497 137.994 C 40.487 143.154, 35.650 144.931, 40.750 146.353 C 41.712 146.621, 51.050 147.843, 61.500 149.067 C 71.950 150.291, 80.841 151.590, 81.257 151.954 C 82.245 152.816, 48.655 177.282, 43.560 179.411 C 40.467 180.703, 39.904 181.303, 40.873 182.273 C 42.589 183.989, 168.491 183.909, 170.209 182.191 C 172.520 179.880, 155.125 173.158, 131.026 167.049 L 108.551 161.351 117.526 158.103 C 122.462 156.316, 135.605 151.624, 146.734 147.677 C 173.119 138.319, 173.367 137.531, 150.250 136.531 C 141.037 136.132, 130.835 135.512, 127.578 135.153 L 121.655 134.500 127.454 130.031 C 131.915 126.592, 136.624 120.828, 147.876 105.031 L 162.500 84.500 167.388 67.222 C 170.077 57.719, 172.079 49.746, 171.837 49.504 C 171.596 49.262, 163.439 49.580, 153.711 50.211 C 143.982 50.841, 135.773 51.107, 135.468 50.802 C 135.163 50.496, 138.285 44.093, 142.406 36.573 C 147.866 26.609, 149.531 22.757, 148.544 22.379 C 147.783 22.086, 140.034 27.538, 130.845 34.831 C 121.855 41.966, 114.309 47.619, 114.075 47.394 C 113.842 47.168, 112.614 39.498, 111.348 30.348 C 110.081 21.197, 108.802 13.469, 108.505 13.172 C 107.180 11.847, 105.619 15.870, 100.416 34.024 C 97.358 44.695, 94.650 53.757, 94.399 54.163 C 94.148 54.569, 88.443 51.579, 81.721 47.518 C 69.693 40.251, 69.427 40.011, 64.854 32.317 C 56.081 17.554, 55.583 16.624, 56.871 17.420 C 57.582 17.860, 66.270 23.825, 76.178 30.678 C 95.555 44.078, 97.014 44.933, 96.973 42.857 C 96.959 42.111, 91.221 37.602, 84.223 32.837 C 77.225 28.072, 66.881 20.965, 61.235 17.044 C 53.733 11.834, 50.825 10.293, 50.430 11.321 M 101.632 39.718 C 97.279 55.013, 97.016 56.538, 98.534 57.648 C 100.477 59.070, 106.961 59.710, 127.460 60.506 C 135.688 60.825, 142.609 61.276, 142.841 61.508 C 143.072 61.739, 140.157 65.498, 136.362 69.861 L 129.463 77.793 125.495 94.018 C 123.313 102.942, 121.072 110.415, 120.514 110.624 C 118.833 111.255, 76.553 118.886, 76.276 118.609 C 76.134 118.468, 78.666 109.269, 81.902 98.169 C 85.138 87.068, 87.496 77.818, 87.143 77.612 C 86.047 76.976, 58.998 74.669, 58.498 75.169 C 57.811 75.856, 48 108.632, 48 110.238 C 48 111.012, 52.405 113.445, 58.250 115.901 C 91.965 130.064, 97.046 132.344, 96.311 132.981 C 95.865 133.368, 84.700 136.111, 71.500 139.078 L 47.500 144.472 68.500 147.154 C 80.050 148.629, 89.673 149.873, 89.885 149.918 C 90.097 149.963, 81.547 156.328, 70.885 164.063 C 60.223 171.797, 50.841 178.772, 50.036 179.563 C 48.762 180.813, 55.553 181, 102.161 181 C 131.635 181, 157.207 180.709, 158.987 180.353 L 162.225 179.705 156.565 177.318 C 153.452 176.006, 139.625 172.045, 125.838 168.517 C 112.050 164.989, 100.591 161.924, 100.372 161.705 C 100.153 161.486, 113.119 156.639, 129.186 150.934 C 162.831 138.986, 162.592 139.629, 133.821 138.465 C 123.997 138.068, 115.778 137.450, 115.557 137.092 C 115.335 136.734, 118.853 133.480, 123.374 129.863 C 130.452 124.198, 133.523 120.593, 145.500 103.892 L 159.406 84.500 164.092 68.500 C 166.669 59.700, 168.686 52.396, 168.574 52.268 C 168.462 52.141, 159.849 52.628, 149.435 53.351 C 139.021 54.074, 130.334 54.538, 130.132 54.381 C 129.929 54.225, 132.759 48.618, 136.421 41.921 C 140.083 35.224, 142.935 29.601, 142.759 29.425 C 142.583 29.250, 135.703 34.440, 127.469 40.960 C 119.236 47.479, 112.218 52.518, 111.872 52.157 C 111.527 51.796, 110.442 45.088, 109.460 37.250 C 108.478 29.412, 107.386 23, 107.033 23 C 106.679 23, 104.249 30.523, 101.632 39.718 M 56 35.439 C 56 35.981, 68.841 46, 69.535 46 C 69.853 46, 69.449 45.051, 68.636 43.891 C 67.339 42.039, 56 34.454, 56 35.439 M 29.400 67.513 C 28.649 81.284, 28.726 83.940, 29.858 83.503 C 32.687 82.413, 71.026 58.693, 70.618 58.285 C 70.244 57.910, 32.607 51, 30.941 51 C 30.588 51, 29.894 58.431, 29.400 67.513 M 93.571 67.404 C 92.094 72.486, 91.673 74.923, 92.250 75.059 C 95.631 75.850, 124.703 78.547, 125.186 78.114 C 126.295 77.120, 100.501 62, 97.696 62 C 95.466 62, 94.943 62.686, 93.571 67.404 M 107 62.272 C 107 63.126, 126.996 75.175, 127.825 74.821 C 129.328 74.179, 137 65.245, 137 64.138 C 137 63.355, 133.487 62.997, 125.750 62.989 C 119.563 62.983, 112.813 62.699, 110.750 62.358 C 108.688 62.017, 107 61.979, 107 62.272 M 85.290 96.114 C 82.425 106.179, 80.260 114.593, 80.478 114.812 C 81.050 115.384, 117.338 108.814, 118.327 107.960 C 119.205 107.202, 124.941 85.603, 124.978 82.915 C 124.996 81.615, 122.750 81.111, 112.494 80.117 C 105.616 79.450, 97.854 78.659, 95.244 78.359 L 90.500 77.813 85.290 96.114" stroke="none" fill="black" fill-rule="evenodd"/>
</svg>