<svg xmlns="http://www.w3.org/2000/svg" width="200" height="200" viewBox="0 0 200 200" version="1.1">
	<path d="M 106 26.619 C 106 27.033, 106.935 30.704, 108.077 34.776 C 109.220 38.847, 109.947 42.387, 109.692 42.641 C 109.438 42.895, 100.516 44.435, 89.865 46.063 C 79.214 47.691, 69.150 49.270, 67.500 49.574 C 65.723 49.900, 69.596 47.225, 77 43.011 C 90.370 35.402, 91.755 34.422, 90.669 33.335 C 90.285 32.951, 76.252 34.166, 59.485 36.034 L 29 39.432 28.951 83.466 C 28.916 115.042, 28.390 134.998, 27.094 154 C 26.100 168.575, 25.410 180.651, 25.561 180.835 C 25.835 181.168, 30.719 174.883, 52.238 146.500 L 63.610 131.500 77.055 131.884 C 84.450 132.096, 95.864 132.546, 102.420 132.884 L 114.340 133.500 88.670 143.939 C 74.551 149.680, 63 154.588, 63 154.846 C 63 155.104, 66.042 158.732, 69.759 162.908 C 73.477 167.084, 77.110 171.261, 77.832 172.191 C 79.021 173.720, 78.184 174.186, 69.038 177.085 C 63.226 178.928, 59.086 180.760, 59.298 181.395 C 59.688 182.566, 162 183.593, 162 182.426 C 162 182.100, 157.275 176.529, 151.500 170.046 C 145.725 163.563, 141 158.010, 141 157.705 C 141 157.401, 150.444 150.705, 161.986 142.826 C 173.528 134.947, 182.978 128.235, 182.986 127.912 C 182.994 127.589, 175.797 124.027, 166.994 119.997 C 152.789 113.495, 151.140 112.492, 152.336 111.085 C 153.077 110.213, 160.331 101.939, 168.456 92.698 C 176.581 83.456, 183.065 75.737, 182.864 75.543 C 182.664 75.349, 173.093 69.310, 161.596 62.123 C 149.611 54.631, 141.291 48.838, 142.096 48.545 C 142.868 48.265, 150.700 45.526, 159.500 42.460 C 175.989 36.715, 178.431 35.502, 176.234 34.145 C 175.547 33.720, 160.251 31.905, 142.243 30.110 C 124.234 28.315, 108.713 26.626, 107.750 26.356 C 106.787 26.086, 106 26.204, 106 26.619 M 110.019 30.750 C 110.030 31.163, 110.620 33.750, 111.330 36.500 C 112.389 40.598, 113.062 41.560, 115.061 41.835 C 118.892 42.360, 119.589 43.775, 116.671 45.104 C 114.495 46.095, 114.150 46.755, 114.681 48.902 C 116.284 55.381, 120.808 71.141, 121.169 71.502 C 121.389 71.722, 125.352 70.745, 129.976 69.329 L 138.382 66.756 135.581 65.288 C 133.558 64.229, 133.083 63.517, 133.870 62.730 C 134.657 61.943, 136.356 62.293, 139.980 63.991 C 142.741 65.284, 145 66.644, 145 67.013 C 145 67.383, 140.029 69.183, 133.953 71.014 C 127.877 72.845, 122.690 74.693, 122.426 75.121 C 122.161 75.548, 122.446 77.884, 123.057 80.313 L 124.169 84.729 130.835 85.332 C 134.501 85.664, 142.302 86.239, 148.171 86.610 C 158.729 87.277, 162.197 88.136, 160.638 89.696 C 160.196 90.138, 152.206 90.658, 142.882 90.852 C 127.694 91.166, 125.982 91.375, 126.432 92.852 C 126.708 93.758, 130.368 107.325, 134.565 123 C 138.763 138.675, 142.386 151.695, 142.616 151.934 C 142.846 152.172, 150.949 146.997, 160.622 140.434 L 178.211 128.500 162.876 121.187 C 154.442 117.165, 147.368 113.701, 147.156 113.490 C 146.945 113.278, 153.419 105.544, 161.544 96.302 C 169.669 87.061, 176.937 78.771, 177.695 77.881 C 178.927 76.434, 176.722 74.796, 156.950 62.469 C 142.682 53.574, 135.302 48.424, 136.163 47.965 C 136.899 47.573, 144.363 44.841, 152.750 41.892 C 161.137 38.944, 168 36.295, 168 36.005 C 168 35.518, 115.662 29.903, 111.750 29.970 C 110.787 29.986, 110.009 30.337, 110.019 30.750 M 57.500 39.053 C 44.850 40.581, 33.938 41.870, 33.250 41.916 C 32.272 41.982, 32 50.659, 32 81.739 C 32 107.283, 31.440 129.789, 30.431 144.745 C 29.568 157.541, 29.006 168.911, 29.181 170.010 C 29.412 171.456, 33.931 166.159, 45.500 150.883 C 54.300 139.264, 61.731 129.395, 62.013 128.952 C 62.295 128.510, 75.120 128.775, 90.513 129.542 C 105.906 130.308, 119.063 130.950, 119.750 130.968 C 120.438 130.985, 121 131.619, 121 132.376 C 121 133.239, 111.118 137.764, 94.500 144.509 C 79.925 150.426, 68 155.589, 68 155.983 C 68 156.377, 71.406 160.564, 75.570 165.288 C 79.733 170.012, 83.142 174.230, 83.144 174.662 C 83.147 175.094, 80.303 176.436, 76.825 177.645 L 70.500 179.844 113.250 179.922 C 136.762 179.965, 156 179.746, 156 179.435 C 156 179.125, 151.725 174.192, 146.500 168.474 C 137.492 158.617, 135.709 156, 138 156 C 138.550 156, 139 155.548, 139 154.996 C 139 154.444, 132.888 144.821, 125.417 133.611 L 111.835 113.231 103.917 110.976 C 99.563 109.737, 96 108.421, 96 108.052 C 96 107.684, 95.387 106.544, 94.638 105.520 C 93.334 103.737, 93.054 103.795, 87.998 106.906 L 82.719 110.155 62.848 103.374 C 51.919 99.644, 43.545 96.306, 44.238 95.956 C 44.932 95.607, 53.491 92.886, 63.259 89.910 C 75.498 86.181, 80.869 84.112, 80.540 83.250 C 80.201 82.361, 81.402 82, 84.698 82 C 89.214 82, 118 73.613, 118 72.297 C 118 71.406, 111.855 48.564, 111.519 48.205 C 111.367 48.042, 100.836 52.728, 88.118 58.618 C 75.399 64.507, 65.157 69.490, 65.358 69.691 C 65.693 70.026, 101.877 64.727, 108.250 63.410 C 110.232 63, 111 63.240, 111 64.269 C 111 65.953, 95.119 70.484, 92.296 69.605 C 91.308 69.298, 82.175 70.337, 72 71.913 C 58.795 73.959, 53.301 74.462, 52.804 73.669 C 52.422 73.058, 52.219 72.448, 52.353 72.314 C 52.487 72.180, 65.175 66.178, 80.548 58.978 C 95.922 51.777, 107.150 46.131, 105.500 46.432 C 103.850 46.732, 93.500 48.338, 82.500 50 C 71.500 51.662, 61.263 53.278, 59.750 53.590 C 57.706 54.013, 57 53.768, 57 52.638 C 57 51.732, 62.155 48.210, 69.750 43.928 C 76.763 39.975, 82.688 36.574, 82.917 36.370 C 83.445 35.901, 84.600 35.779, 57.500 39.053 M 106.500 79.512 C 98.151 82.272, 97.078 82.847, 100 82.996 C 101.925 83.094, 107.467 83.477, 112.316 83.847 L 121.133 84.520 120.475 81.018 C 119.333 74.925, 120.116 75.010, 106.500 79.512 M 86.628 85.793 C 86.270 86.373, 87.835 89.811, 90.106 93.433 L 94.235 100.018 97.367 98.158 C 99.090 97.135, 103.259 94.656, 106.631 92.649 C 111.314 89.862, 113.853 89, 117.381 89 C 126.292 89, 121.890 87.288, 111.250 86.615 C 105.338 86.242, 97.525 85.667, 93.890 85.337 C 89.698 84.958, 87.041 85.124, 86.628 85.793 M 68 91.383 C 60.575 93.734, 53.846 95.877, 53.046 96.146 C 52.247 96.415, 58.484 98.976, 66.906 101.837 L 82.219 107.039 87.096 104.223 L 91.973 101.407 87.689 94.521 C 85.333 90.734, 82.977 87.517, 82.453 87.373 C 81.929 87.228, 75.425 89.033, 68 91.383 M 126.250 88.689 C 127.213 88.941, 128.787 88.941, 129.750 88.689 C 130.713 88.438, 129.925 88.232, 128 88.232 C 126.075 88.232, 125.287 88.438, 126.250 88.689 M 104.512 97.029 C 100.118 99.725, 96.395 102.316, 96.237 102.788 C 95.668 104.497, 99.646 106.844, 106.594 108.896 L 113.688 110.992 125.953 129.246 C 132.700 139.286, 138.023 146.825, 137.784 146 C 137.544 145.175, 134.232 132.691, 130.424 118.258 L 123.500 92.016 118 92.072 C 113.218 92.121, 111.458 92.767, 104.512 97.029" stroke="none" fill="black" fill-rule="evenodd"/>
</svg>