<svg xmlns="http://www.w3.org/2000/svg" width="200" height="200" viewBox="0 0 200 200" version="1.1">
	<path d="M 80.547 17.193 C 79.603 19.562, 74.727 30.725, 69.711 42 C 59.194 65.639, 50.880 79.391, 37.064 96 C 24.248 111.406, 24.742 110.723, 25.907 111.443 C 27.506 112.431, 45.510 90.694, 54.559 76.849 C 60.633 67.557, 65.507 58.184, 72.914 41.545 C 78.461 29.085, 83 18.466, 83 17.946 C 83 17.426, 83.539 17, 84.198 17 C 85.778 17, 110.957 27.351, 110.981 28.011 C 110.991 28.292, 107.802 32.496, 103.892 37.353 C 99.983 42.211, 97.171 46.551, 97.642 46.999 C 98.114 47.447, 102.325 48.856, 107 50.131 L 115.500 52.449 111 53.059 C 108.525 53.395, 100.650 56.344, 93.500 59.613 L 80.500 65.556 80.221 74.528 L 79.941 83.500 94.721 89.130 C 107.069 93.834, 109.448 95.068, 109.184 96.630 C 109.011 97.658, 107.499 103.538, 105.825 109.695 L 102.781 120.890 91.640 111.533 C 85.513 106.387, 77.910 99.054, 74.745 95.239 C 64.690 83.116, 67.189 82.917, 51.015 97.133 C 37.423 109.081, 36.636 109.604, 27.785 112.563 C 22.747 114.248, 18.446 116.161, 18.229 116.813 C 17.667 118.499, 18.385 118.368, 28.998 114.849 C 38.187 111.801, 38.924 111.324, 51.402 100.349 C 58.498 94.107, 64.660 89, 65.095 89 C 65.529 89, 68.948 92.603, 72.691 97.007 C 78.328 103.639, 88.654 113.048, 100.307 122.171 C 102.422 123.826, 102.347 123.938, 91.971 134.525 C 77.390 149.401, 60.305 162.140, 40.163 173.153 C 30.998 178.164, 23.305 182.437, 23.067 182.649 C 22.828 182.860, 23.066 183.466, 23.595 183.995 C 24.211 184.611, 27.963 184.554, 34.023 183.838 C 54.729 181.389, 85.569 167.601, 108.587 150.500 C 131.044 133.816, 146.026 114.701, 164.858 78.708 L 172.074 64.915 171.787 55.759 L 171.500 46.603 159.606 43.649 L 147.712 40.696 134.717 46.001 C 120.280 51.896, 122.171 51.814, 106.660 47.210 L 100.820 45.476 107.910 36.613 C 111.809 31.738, 115 27.412, 115 26.999 C 115 26.432, 94.967 17.762, 83.419 13.330 C 82.781 13.086, 81.493 14.820, 80.547 17.193 M 135 48.787 L 123.500 53.480 132.408 54.232 C 137.308 54.645, 141.430 55.100, 141.568 55.242 C 141.706 55.384, 139.697 61.406, 137.102 68.624 C 121.922 110.859, 86.484 151.154, 44.272 174.179 L 31.500 181.145 37.478 180.472 C 46.926 179.409, 69.874 170.800, 84.319 162.901 C 112.018 147.754, 132.089 128.831, 147.856 103 C 152.723 95.025, 159.490 83.182, 162.892 76.683 L 169.079 64.865 168.789 56.743 L 168.500 48.621 159.500 46.335 C 154.550 45.078, 149.600 44.060, 148.500 44.072 C 147.400 44.085, 141.325 46.206, 135 48.787 M 95.250 61.694 L 83 67.326 83 74.530 L 83 81.735 96.904 86.999 C 104.551 89.894, 111.324 92.582, 111.956 92.973 C 112.783 93.484, 112.259 96.719, 110.081 104.537 C 108.418 110.507, 107.207 115.540, 107.389 115.722 C 108.146 116.480, 116.254 104.543, 122.862 92.941 C 128.693 82.704, 138.874 58.495, 137.782 57.465 C 137.627 57.318, 130.750 56.943, 122.500 56.631 L 107.500 56.063 95.250 61.694" stroke="none" fill="black" fill-rule="evenodd"/>
</svg>