<svg xmlns="http://www.w3.org/2000/svg" width="200" height="200" viewBox="0 0 200 200" version="1.1">
	<path d="M 124 13.967 L 98.500 24.586 75 28.895 C 42.953 34.771, 42 34.988, 42 36.430 C 42 37.196, 46.227 38.792, 52.750 40.488 C 65.659 43.843, 65.151 43.767, 65.658 42.401 C 65.899 41.753, 62.462 40.328, 57.283 38.928 C 52.452 37.622, 49.175 36.427, 50 36.273 C 50.825 36.118, 62.300 33.998, 75.500 31.562 L 99.500 27.132 122.500 17.624 C 135.150 12.394, 145.601 8.427, 145.724 8.808 C 145.847 9.189, 143.574 19.396, 140.673 31.491 L 135.399 53.482 131.450 54.136 C 129.277 54.495, 127.361 54.660, 127.191 54.502 C 127.021 54.344, 129.847 48.915, 133.471 42.438 C 138.033 34.285, 139.741 30.341, 139.021 29.621 C 138.301 28.901, 137.555 29.184, 136.595 30.541 C 135.833 31.618, 130.895 38.125, 125.623 45 C 116.457 56.954, 116.150 57.514, 118.598 57.824 C 120.372 58.049, 120.984 58.599, 120.593 59.619 C 120.128 60.831, 92.372 111.155, 87.202 120.161 C 85.693 122.788, 85.779 122.945, 94.011 132.661 C 98.596 138.072, 103.105 143.322, 104.029 144.328 C 105.630 146.068, 106.032 145.602, 112.424 134.594 C 116.116 128.236, 119.556 122.774, 120.068 122.458 C 121.123 121.806, 162.246 114.983, 164.825 115.032 C 165.746 115.049, 161.887 117.561, 156.250 120.613 C 150.613 123.665, 146.006 126.463, 146.012 126.831 C 146.019 127.199, 148.415 135.150, 151.338 144.500 L 156.651 161.500 151.175 169.750 C 148.164 174.287, 145.205 178.013, 144.600 178.029 C 143.995 178.044, 132.372 176.165, 118.771 173.852 L 94.042 169.647 70.771 175.874 C 57.972 179.298, 46.600 182.314, 45.500 182.575 C 44.400 182.837, 47.196 181.127, 51.714 178.775 C 58.592 175.195, 61.554 172.772, 69.927 163.878 L 79.926 153.255 64.027 146.726 C 49.778 140.874, 47.025 139.331, 37.509 131.866 C 31.669 127.285, 27.255 123.415, 27.700 123.267 C 28.146 123.118, 36.761 121.907, 46.846 120.574 C 56.930 119.242, 65.375 117.959, 65.611 117.722 C 66.856 116.477, 94.868 76.534, 94.649 76.316 C 94.507 76.174, 80.251 82.119, 62.970 89.529 C 45.689 96.938, 31.313 102.986, 31.025 102.969 C 30.736 102.951, 34.889 98.789, 40.253 93.719 L 50.007 84.500 46.948 72.593 C 44.801 64.234, 44.221 60.482, 45.002 59.999 C 45.614 59.620, 58.014 56.890, 72.558 53.932 C 90.528 50.276, 99 48.144, 99 47.276 C 99 46.574, 98.733 46, 98.407 46 C 98.082 46, 86.494 48.277, 72.657 51.060 C 48.156 55.988, 42.462 57.444, 41.480 59.032 C 41.218 59.457, 42.310 65.270, 43.908 71.950 L 46.813 84.095 42.157 88.409 C 39.595 90.782, 33.775 96.009, 29.221 100.026 C 21.708 106.654, 19.466 110.022, 23.125 109.186 C 23.881 109.013, 38.563 102.878, 55.750 95.553 C 72.938 88.229, 87 82.424, 87 82.654 C 87 82.884, 81.811 90.398, 75.469 99.353 L 63.939 115.634 42.752 118.367 C 22.967 120.920, 20.015 121.462, 21.083 122.344 C 40.569 138.426, 46.586 142.370, 60.606 148.247 L 74.970 154.269 68.098 161.884 C 58.428 172.601, 59.046 172.166, 41.560 180.550 C 18.019 191.837, 21.213 192.019, 60.173 181.610 C 77.953 176.859, 93.625 172.983, 95 172.996 C 96.375 173.009, 108.069 174.815, 120.988 177.009 C 133.906 179.204, 144.975 181, 145.586 181 C 146.196 181, 149.627 176.731, 153.209 171.514 L 159.723 162.028 154.366 144.843 C 151.419 135.391, 149.119 127.573, 149.254 127.469 C 149.389 127.365, 155.800 123.994, 163.500 119.978 C 179.748 111.503, 178.625 112.225, 177.426 111.026 C 176.666 110.266, 138.628 115.714, 124.960 118.541 L 122.420 119.067 126.960 100.600 C 129.457 90.443, 131.725 81.926, 132 81.672 C 132.275 81.419, 140.825 87.191, 151 94.500 C 161.175 101.809, 169.652 107.647, 169.837 107.474 C 170.458 106.894, 160.645 73.509, 159.659 72.844 C 159.124 72.484, 153.480 70.259, 147.115 67.900 L 135.543 63.612 159.022 59.818 C 187.160 55.270, 187.270 55.246, 186.396 53.832 C 185.905 53.037, 178.929 52.928, 161.761 53.445 C 138.816 54.137, 137.836 54.091, 138.385 52.334 C 139.641 48.319, 150.064 3.737, 149.792 3.549 C 149.631 3.438, 138.025 8.126, 124 13.967 M 123.655 51.829 C 121.840 53.834, 121.540 55, 122.839 55 C 123.301 55, 124.192 53.875, 124.818 52.500 C 126.173 49.527, 125.887 49.362, 123.655 51.829 M 144.750 56.743 C 138.068 57.037, 137 57.333, 137 58.891 C 137 60.631, 137.386 60.633, 147.272 58.949 C 152.922 57.986, 158.660 56.990, 160.022 56.736 C 162.774 56.221, 156.553 56.224, 144.750 56.743 M 122.207 62.764 L 119.135 68.527 124.514 72.286 L 129.893 76.045 130.941 72.273 C 132.568 66.413, 132.275 65.299, 128.750 63.968 L 125.500 62.740 129.750 61.811 C 132.971 61.107, 134 60.413, 134 58.941 C 134 57.316, 133.289 57, 129.639 57 C 125.351 57, 125.227 57.096, 122.207 62.764 M 134.104 70.750 C 133.569 72.813, 132.989 75.285, 132.815 76.245 C 132.587 77.507, 136.926 81.143, 148.500 89.391 C 157.300 95.661, 164.679 100.623, 164.897 100.416 C 165.550 99.797, 158.790 76.594, 157.600 75.367 C 156.562 74.298, 137.623 67, 135.887 67 C 135.442 67, 134.639 68.688, 134.104 70.750 M 110.240 86.115 L 103.054 101.230 108.113 110.615 C 112.241 118.273, 113.596 120, 115.471 120 C 118.974 120, 120.320 116.906, 124.392 99.500 C 126.450 90.700, 128.367 82.530, 128.652 81.344 C 129.065 79.622, 128.056 78.366, 123.627 75.094 C 120.579 72.842, 117.937 71, 117.756 71 C 117.575 71, 114.193 77.802, 110.240 86.115 M 99.380 103.797 C 98.807 104.734, 96.259 109.330, 93.718 114.012 L 89.098 122.523 96.683 131.512 C 100.854 136.455, 104.560 140.618, 104.917 140.761 C 105.275 140.905, 107.876 137.080, 110.697 132.261 C 115.606 123.877, 115.734 123.477, 113.664 122.959 C 112.177 122.587, 109.767 119.238, 105.961 112.256 C 101.350 103.797, 100.247 102.380, 99.380 103.797" stroke="none" fill="black" fill-rule="evenodd"/>
</svg>