<svg xmlns="http://www.w3.org/2000/svg" width="200" height="200" viewBox="0 0 200 200" version="1.1">
	<path d="M 106 18.247 C 106 21.184, 109.848 40.850, 110.772 42.635 C 111.302 43.661, 112.047 46.219, 112.427 48.321 C 112.807 50.423, 113.364 52.785, 113.666 53.571 C 114.297 55.217, 105.159 55.480, 86.661 54.348 L 76.010 53.697 75.044 50.199 C 74.179 47.063, 74.661 45.365, 79.697 33.808 C 87.852 15.096, 85.682 15.050, 73.973 33.689 C 68.855 41.835, 64.617 48.588, 64.555 48.696 C 64.492 48.804, 56.875 46.858, 47.628 44.372 C 38.380 41.886, 30.678 39.998, 30.511 40.176 C 30.345 40.354, 31.957 51.750, 34.095 65.500 L 37.981 90.500 35.241 92.788 C 33.733 94.046, 26.967 99.221, 20.205 104.288 L 7.911 113.500 30.205 114 L 52.500 114.500 63.250 119.978 C 69.162 122.991, 74 125.803, 74 126.227 C 74 126.652, 67.933 134.986, 60.519 144.749 L 47.038 162.500 29.986 172.901 C 20.607 178.621, 13.108 183.796, 13.321 184.401 C 13.812 185.798, 14.006 185.762, 35.500 180.310 L 53.500 175.745 71.664 162.207 L 89.829 148.670 97.508 132.585 L 105.187 116.500 106.940 121 C 107.905 123.475, 111.230 132.025, 114.329 140 L 119.965 154.500 136.386 170.893 L 152.808 187.285 168.479 174.018 C 177.098 166.721, 183.779 160.427, 183.325 160.033 C 182.871 159.638, 175.525 156.765, 167 153.647 C 153.881 148.850, 148.538 146.189, 132.215 136.325 C 121.608 129.915, 113.283 124.351, 113.715 123.960 C 114.147 123.569, 119.071 120.923, 124.658 118.079 L 134.817 112.909 160.158 113.792 C 174.096 114.277, 185.675 114.536, 185.888 114.366 C 186.101 114.196, 181.811 109.207, 176.354 103.279 C 170.897 97.350, 164.535 90.188, 162.216 87.361 L 158 82.222 158 59.004 C 158 37.294, 157.886 35.831, 156.250 36.481 C 155.287 36.863, 146.850 40.018, 137.500 43.493 C 128.150 46.968, 119.719 50.124, 118.764 50.507 C 116.498 51.416, 115.675 49.231, 111.626 31.572 C 109.869 23.912, 107.885 17.462, 107.216 17.239 C 106.547 17.016, 106 17.470, 106 18.247 M 70.719 43.750 C 68.750 46.913, 67.587 49.659, 68.132 49.854 C 68.678 50.049, 69.307 50.027, 69.529 49.804 C 70.182 49.151, 75.007 38, 74.636 38 C 74.450 38, 72.688 40.587, 70.719 43.750 M 136 46.781 C 126.375 50.389, 118.369 53.433, 118.208 53.545 C 118.048 53.658, 119.712 58.532, 121.907 64.376 L 125.899 75.001 114.844 91.929 C 103.759 108.901, 100.242 112.278, 102.076 104.189 C 102.536 102.160, 104.957 91.500, 107.456 80.500 C 109.954 69.500, 111.999 59.712, 111.999 58.750 C 112 57.150, 110.503 57, 94.554 57 L 77.108 57 78.630 62.250 C 79.467 65.138, 81.231 71.068, 82.550 75.429 C 84.467 81.767, 84.706 83.673, 83.740 84.929 C 77.496 93.048, 73.576 96.992, 72.922 95.813 C 72.521 95.091, 70.770 89.550, 69.030 83.500 C 61.766 58.248, 61.961 58.787, 60.526 59.979 C 57.961 62.107, 57.881 59.149, 60.395 55.166 L 62.863 51.257 48.832 47.561 C 41.115 45.528, 34.557 44.110, 34.258 44.408 C 33.784 44.882, 39.305 83.916, 40.656 89.637 C 41.075 91.415, 39.098 93.344, 28.870 101.137 L 16.579 110.500 34.540 111 L 52.500 111.500 65.754 118.259 L 79.007 125.018 69.271 137.759 C 63.916 144.767, 57.120 153.650, 54.169 157.500 C 49.523 163.562, 47.145 165.514, 36.420 172.066 C 29.608 176.227, 23.818 179.849, 23.552 180.115 C 23.286 180.381, 29.861 178.859, 38.164 176.733 L 53.259 172.867 70.208 160.183 L 87.157 147.500 96.095 129.066 C 101.081 118.783, 105.394 111.045, 105.851 111.566 C 106.301 112.080, 107.456 114.638, 108.417 117.250 C 109.379 119.863, 110.425 122, 110.742 122 C 111.059 122, 116.418 119.322, 122.650 116.048 L 133.982 110.096 156.741 110.908 C 169.258 111.354, 179.601 111.644, 179.724 111.552 C 179.848 111.460, 176.248 107.324, 171.724 102.361 C 167.201 97.398, 161.521 90.771, 159.103 87.635 L 154.705 81.933 155.244 60.967 C 155.640 45.571, 155.480 40.029, 154.642 40.111 C 154.014 40.172, 145.625 43.174, 136 46.781 M 72 52.131 C 72 52.865, 70.771 53.062, 68.500 52.694 C 66.575 52.381, 65 52.547, 65 53.063 C 65 53.578, 66.800 54, 69 54 C 71.889 54, 73 53.583, 73 52.500 C 73 51.675, 72.775 51, 72.500 51 C 72.225 51, 72 51.509, 72 52.131 M 64.937 59.700 C 65.392 61.240, 67.658 69.025, 69.973 77 C 72.287 84.975, 74.280 91.601, 74.399 91.725 C 74.519 91.849, 76.260 89.985, 78.268 87.583 L 81.919 83.216 78.153 70.358 L 74.387 57.500 69.249 57.200 L 64.111 56.899 64.937 59.700 M 111.087 76.798 C 108.663 87.634, 106.487 97.400, 106.251 98.500 C 106.015 99.600, 109.645 94.678, 114.317 87.563 L 122.812 74.626 119.845 66.563 C 118.213 62.128, 116.567 58.184, 116.187 57.798 C 115.806 57.411, 113.512 65.961, 111.087 76.798 M 113 128.472 C 113 128.822, 115.063 134.414, 117.583 140.899 L 122.167 152.691 137.477 167.977 C 151.624 182.102, 152.934 183.158, 154.722 181.881 C 161.188 177.267, 178.904 161.518, 178.266 160.951 C 177.844 160.578, 171.425 158.105, 164 155.457 C 153.383 151.671, 147.190 148.628, 135 141.210 C 126.475 136.022, 118.037 130.890, 116.250 129.807 C 114.463 128.723, 113 128.123, 113 128.472" stroke="none" fill="black" fill-rule="evenodd"/>
</svg>