<svg xmlns="http://www.w3.org/2000/svg" width="200" height="200" viewBox="0 0 200 200" version="1.1">
	<path d="M 98.709 20.386 C 85.955 21.821, 79.653 22.932, 79.092 23.844 C 78.502 24.805, 71.761 25.742, 55.423 27.137 C 42.860 28.209, 32.415 29.251, 32.213 29.453 C 32.012 29.655, 34.204 33.062, 37.086 37.024 L 42.326 44.227 62.068 43.839 L 81.811 43.450 82.395 46.975 C 83.552 53.969, 83.259 55, 80.113 55 C 76.513 55, 34.976 62.691, 34.158 63.509 C 33.351 64.315, 14.994 135.327, 15.469 135.802 C 15.675 136.009, 25.892 130.562, 38.172 123.698 C 50.452 116.835, 60.640 111.347, 60.810 111.503 C 60.981 111.660, 55.423 119.740, 48.459 129.459 C 41.495 139.178, 36.027 147.360, 36.307 147.640 C 36.587 147.921, 45.071 149.750, 55.158 151.706 C 65.246 153.662, 73.806 155.541, 74.181 155.881 C 74.556 156.222, 63.643 163.017, 49.931 170.982 C 27.670 183.913, 22.007 188, 26.350 188 C 27.093 188, 42.957 184.925, 61.604 181.167 L 95.507 174.333 124.770 150.516 C 140.864 137.417, 153.897 126.563, 153.731 126.398 C 153.565 126.232, 141.521 124.478, 126.965 122.501 C 112.409 120.523, 100.138 118.806, 99.696 118.685 C 98.183 118.269, 115.189 106.499, 116.846 106.815 C 117.756 106.988, 131.948 110.940, 148.384 115.597 C 164.821 120.254, 178.417 123.916, 178.598 123.735 C 178.779 123.554, 175.281 117.465, 170.824 110.203 C 164.544 99.969, 162.247 97.002, 160.611 97.010 C 159.450 97.016, 148.382 97.916, 136.016 99.010 C 123.650 100.105, 112.265 101, 110.716 101 L 107.898 101 110.636 97.410 L 113.374 93.820 123.578 94.145 L 133.782 94.470 150.783 79.717 C 160.134 71.603, 168.296 64.348, 168.921 63.595 C 169.831 62.499, 167.718 60.361, 158.316 52.863 L 146.575 43.500 151.493 43 C 156.351 42.506, 156.486 42.397, 162.345 34.189 C 165.618 29.606, 167.880 25.526, 167.389 25.092 C 166.431 24.245, 122.817 17.908, 119.500 18.135 C 118.400 18.210, 109.044 19.223, 98.709 20.386 M 117.218 21.868 C 118.714 22.216, 125.014 26.526, 131.218 31.447 C 141.948 39.956, 142.777 40.414, 148.150 40.810 L 153.799 41.226 158.814 34.363 C 161.572 30.588, 163.681 27.352, 163.502 27.171 C 162.762 26.425, 123.150 21.062, 119 21.146 C 115.432 21.218, 115.063 21.367, 117.218 21.868 M 106.750 22.662 C 107.438 22.940, 108.563 22.940, 109.250 22.662 C 109.938 22.385, 109.375 22.158, 108 22.158 C 106.625 22.158, 106.063 22.385, 106.750 22.662 M 96 26.400 L 83.500 27.500 83.705 33.371 C 83.817 36.600, 84.087 39.421, 84.305 39.638 C 84.522 39.856, 96.510 39.914, 110.944 39.767 L 137.187 39.500 127.907 32.250 C 117.311 23.972, 119.344 24.345, 96 26.400 M 55.500 29.750 C 45.600 30.568, 37.334 31.387, 37.130 31.571 C 36.927 31.755, 38.462 34.224, 40.542 37.058 C 44.134 41.950, 44.504 42.179, 47.912 41.616 C 49.885 41.289, 58.138 41.017, 66.250 41.011 L 81 41 80.989 38.250 C 80.983 36.737, 80.699 33.813, 80.358 31.750 C 79.633 27.360, 82.066 27.556, 55.500 29.750 M 85.436 48.232 C 85.818 51.109, 86.284 53.618, 86.473 53.806 C 86.661 53.994, 100.645 52.900, 117.549 51.374 L 148.282 48.599 144.929 45.800 L 141.576 43 113.159 43 L 84.742 43 85.436 48.232 M 125 57.112 C 110.425 60.300, 96.138 63.412, 93.250 64.026 C 88.472 65.041, 88 65.387, 88 67.870 C 88 70.119, 88.659 70.832, 91.750 71.931 C 103.505 76.107, 106 77.270, 106 78.572 C 106 80.348, 106.883 80.509, 97.555 77.025 C 93.185 75.392, 89.465 74.202, 89.288 74.379 C 88.962 74.705, 90.854 89.200, 91.273 89.592 C 91.398 89.708, 96.190 89.960, 101.922 90.152 L 112.344 90.500 121.085 78.500 C 125.892 71.900, 129.682 66.354, 129.506 66.176 C 129.330 65.998, 127.816 66.561, 126.143 67.426 C 122.644 69.236, 121 69.423, 121 68.013 C 121 66.514, 134.795 59.859, 135.508 61.013 C 136.279 62.261, 136.423 62.033, 125.250 77.355 C 120.094 84.425, 116.017 90.326, 116.188 90.467 C 116.360 90.609, 120.119 91.015, 124.542 91.369 L 132.584 92.012 149.292 77.458 C 158.481 69.454, 166 62.755, 166 62.572 C 166 62.279, 157.119 55.315, 153.035 52.407 C 151.873 51.580, 145.058 52.723, 125 57.112 M 125.750 53.662 C 126.438 53.940, 127.563 53.940, 128.250 53.662 C 128.938 53.385, 128.375 53.158, 127 53.158 C 125.625 53.158, 125.063 53.385, 125.750 53.662 M 101.500 55.565 C 94.350 56.272, 88.162 56.884, 87.750 56.925 C 87.338 56.966, 87 58.125, 87 59.500 C 87 62.712, 86.891 62.719, 107.500 58.042 C 126.286 53.779, 124.986 53.243, 101.500 55.565 M 58.333 61.255 L 36.166 65.343 33.121 76.922 C 19.935 127.065, 19.048 131.044, 21.329 129.834 C 22.523 129.200, 33.070 123.353, 44.768 116.841 C 56.465 110.328, 66.253 105, 66.518 105 C 68.511 105, 65.214 110.595, 53.570 126.974 L 40.141 145.864 44.820 146.851 C 47.394 147.393, 57.112 149.288, 66.416 151.061 C 80.017 153.653, 83.019 154.513, 81.739 155.449 C 80.863 156.089, 69.777 162.639, 57.104 170.004 C 44.431 177.369, 34.161 183.487, 34.281 183.600 C 34.401 183.713, 48.046 181.036, 64.602 177.652 L 94.705 171.500 120.915 150.146 C 135.331 138.401, 146.943 128.610, 146.720 128.387 C 146.394 128.061, 97.933 121.014, 95.939 121.003 C 95.631 121.001, 96.204 126.947, 97.214 134.215 C 98.992 147.020, 98.939 151.351, 97.028 149.417 C 95.947 148.322, 88.027 127.062, 88.011 125.210 C 88.005 124.500, 88.931 122.660, 90.068 121.122 C 91.856 118.703, 92.042 117.491, 91.439 112.162 L 90.742 106 85.158 106 C 79.815 106, 79 105.621, 66.307 97.250 C 59.011 92.438, 53.031 88.275, 53.019 88 C 53.008 87.725, 58.286 87.797, 64.749 88.160 C 71.212 88.524, 79.139 88.861, 82.364 88.910 L 88.227 89 87.563 84.250 C 86.006 73.114, 85.903 72.858, 82.401 71.394 C 80.478 70.591, 75.627 70, 70.949 70 C 60.287 70, 60.763 68.214, 72.067 65.799 C 76.705 64.808, 81.436 63.784, 82.580 63.522 C 84.258 63.139, 84.575 62.463, 84.217 60.024 C 83.923 58.022, 83.220 57.028, 82.137 57.083 C 81.236 57.129, 70.525 59.006, 58.333 61.255 M 81.166 66.876 C 80.102 67.551, 80.169 67.851, 81.498 68.361 C 84.085 69.354, 85 69.129, 85 67.500 C 85 65.849, 83.239 65.562, 81.166 66.876 M 63 91.248 C 63 91.516, 67.162 94.436, 72.250 97.737 C 80.673 103.202, 81.882 103.696, 85.770 103.262 L 90.041 102.786 89.385 97.643 C 89.024 94.814, 88.678 92.435, 88.615 92.354 C 88.279 91.929, 63 90.836, 63 91.248 M 92.248 97.233 C 92.503 99.879, 92.888 102.174, 93.105 102.333 C 93.322 102.492, 95.893 102.436, 98.817 102.210 C 103.711 101.831, 104.374 101.468, 107.149 97.649 C 110.588 92.916, 111.226 93.306, 99.143 92.757 L 91.786 92.423 92.248 97.233 M 134.735 101.794 C 124.965 102.625, 117.128 103.462, 117.320 103.654 C 117.956 104.290, 173 119.698, 173 119.241 C 173 118.994, 170.412 114.580, 167.250 109.432 L 161.500 100.072 157 100.178 C 154.525 100.237, 144.506 100.964, 134.735 101.794 M 102.105 109.227 C 99.913 112.101, 98.290 114.624, 98.499 114.832 C 98.813 115.147, 109.198 107.708, 112.450 104.838 C 112.984 104.367, 111.800 104, 109.746 104 C 106.514 104, 105.630 104.605, 102.105 109.227 M 93.393 106.582 C 93.727 107.452, 94 109.477, 94 111.082 C 94 112.687, 94.338 113.990, 94.750 113.979 C 95.533 113.956, 101 106.619, 101 105.590 C 101 105.266, 99.152 105, 96.893 105 C 93.559 105, 92.900 105.298, 93.393 106.582 M 91.547 124.209 C 91.146 125.149, 91.398 127.624, 92.108 129.709 C 93.669 134.292, 94.414 132.017, 93.169 126.472 C 92.502 123.503, 92.092 122.931, 91.547 124.209" stroke="none" fill="black" fill-rule="evenodd"/>
</svg>