<svg xmlns="http://www.w3.org/2000/svg" width="200" height="200" viewBox="0 0 200 200" version="1.1">
	<path d="M 100.500 29.534 C 91.150 42.077, 83.196 52.798, 82.824 53.359 C 82.200 54.300, 63.694 48.757, 61.736 47.042 C 61.155 46.533, 54.055 12.514, 54.005 10 C 54 9.725, 46.749 20.377, 37.893 33.672 L 21.791 57.843 23.286 71.672 C 24.582 83.658, 24.601 88.031, 23.428 104.500 C 22.684 114.950, 22.058 126.387, 22.038 129.915 L 22 136.330 31.122 144.915 L 40.244 153.500 30.122 166.258 C 24.555 173.275, 20 179.202, 20 179.429 C 20 179.656, 33.109 175.469, 49.131 170.125 L 78.262 160.408 81.079 153.454 L 83.895 146.500 83.948 118.250 L 84 90 86.750 90.020 C 88.263 90.030, 95.165 90.676, 102.089 91.454 C 110.385 92.386, 117.377 92.606, 122.589 92.098 C 128.546 91.517, 131.567 91.685, 134.818 92.780 L 139.136 94.234 138.446 98.367 C 138.066 100.640, 137.248 102.831, 136.628 103.235 C 136.007 103.639, 130.470 103.976, 124.322 103.985 L 113.144 104 103.572 123.637 C 98.307 134.437, 94 143.949, 94 144.773 C 94 145.597, 98.388 154.756, 103.750 165.126 C 113.153 183.308, 113.608 183.980, 116.539 183.990 C 125.559 184.020, 155.588 180.830, 156.603 179.735 C 169.681 165.615, 180 153.822, 180 152.994 C 180 146.657, 174.570 99.352, 173.787 98.868 C 173.212 98.513, 168.862 97.456, 164.121 96.519 C 148.320 93.396, 142.010 91.793, 142.485 91.024 C 142.744 90.605, 149.438 89.699, 157.359 89.012 L 171.762 87.763 174.378 79.131 C 175.817 74.384, 177.655 68.342, 178.463 65.705 L 179.931 60.910 163.601 61.600 L 147.270 62.290 151.087 39.395 C 153.187 26.803, 155.179 14.999, 155.514 13.165 C 156.014 10.422, 155.832 9.889, 154.486 10.165 C 153.485 10.370, 147.246 21.379, 138.428 38.500 C 130.497 53.900, 124.006 66.755, 124.004 67.067 C 124.002 67.379, 128.387 67.107, 133.750 66.463 C 139.113 65.819, 143.604 65.369, 143.732 65.462 C 143.966 65.632, 141.401 81.552, 140.464 85.750 C 139.595 89.643, 131.963 88.814, 114.001 82.875 C 105.475 80.057, 98.118 77.402, 97.651 76.976 C 97.184 76.551, 101.797 68.064, 107.901 58.116 L 119 40.030 118.891 29.265 C 118.832 23.344, 118.494 15.851, 118.141 12.614 L 117.500 6.728 100.500 29.534 M 100.500 34.057 C 92.250 45.183, 85.364 54.630, 85.197 55.052 C 85.030 55.473, 86.268 56.120, 87.947 56.488 C 89.626 56.857, 91 57.798, 91 58.579 C 91 60.292, 90.267 60.338, 86.095 58.883 C 82.576 57.657, 83.225 57.173, 77.070 65.614 L 74.070 69.729 82.785 72.498 C 87.578 74.022, 92 75.457, 92.611 75.688 C 93.222 75.918, 98.747 67.900, 104.889 57.869 L 116.055 39.632 115.778 26.730 L 115.500 13.828 100.500 34.057 M 38.172 38.141 L 24.843 58.228 26.106 72.547 C 27.182 84.748, 27.129 90.390, 25.746 110.683 L 24.123 134.500 33.665 143.760 C 38.913 148.853, 42.987 153.578, 42.719 154.260 C 42.451 154.942, 39.022 159.504, 35.098 164.398 C 31.174 169.292, 28.114 173.447, 28.298 173.631 C 28.873 174.206, 74.434 158.819, 75.684 157.628 C 76.335 157.008, 77.858 154.025, 79.069 151 C 81.184 145.717, 81.263 144.333, 81.059 115.960 L 80.846 86.420 99.428 88.361 C 124.677 90.998, 126.785 89.983, 108.488 83.996 C 96.868 80.194, 94.709 79.752, 93.949 81.016 C 91.753 84.668, 91.152 85.212, 90.057 84.536 C 89.203 84.008, 89.329 83.148, 90.526 81.321 C 91.424 79.949, 92.011 78.702, 91.830 78.549 C 91.648 78.397, 87.675 77.020, 83 75.489 C 78.325 73.959, 74.008 72.526, 73.406 72.306 C 72.804 72.086, 70.340 74.514, 67.931 77.703 C 64.067 82.817, 62.830 85.916, 57.437 104 C 52.918 119.153, 50.890 124.584, 49.662 124.823 C 48.352 125.078, 47.990 124.336, 47.951 121.323 C 47.924 119.220, 46.862 104.675, 45.591 89 C 44.319 73.325, 43.415 60.339, 43.580 60.143 C 43.746 59.946, 49.983 61.825, 57.440 64.318 L 70.999 68.850 75.508 62.989 C 77.988 59.766, 79.616 56.881, 79.125 56.577 C 78.635 56.274, 74.243 54.631, 69.367 52.926 C 64.490 51.220, 59.993 49.302, 59.374 48.663 C 58.755 48.023, 56.974 40.862, 55.418 32.750 C 53.861 24.637, 52.343 18.012, 52.044 18.027 C 51.745 18.041, 45.502 27.093, 38.172 38.141 M 140.620 40.250 C 134.847 51.388, 129.810 61.321, 129.427 62.324 C 128.777 64.024, 129.229 64.100, 136.115 63.444 C 140.177 63.056, 143.725 62.537, 144 62.289 C 144.497 61.841, 151.757 20, 151.337 20 C 151.216 20, 146.394 29.113, 140.620 40.250 M 48.414 89.992 C 49.479 104.287, 50.527 115.806, 50.744 115.590 C 50.960 115.373, 53.319 107.930, 55.985 99.050 C 60.010 85.642, 61.543 81.963, 65.021 77.356 C 67.324 74.305, 68.824 71.443, 68.354 70.995 C 67.603 70.280, 48.458 64, 47.029 64 C 46.726 64, 47.349 75.696, 48.414 89.992 M 152.301 64.735 C 146.428 65.148, 146.734 64.677, 145 76 C 144.368 80.125, 143.610 84.349, 143.315 85.387 C 142.805 87.179, 143.295 87.239, 153.139 86.586 C 170.757 85.418, 169.324 86.222, 172.471 75.734 C 173.972 70.734, 175.428 66.048, 175.707 65.321 C 176.108 64.277, 174.256 64.039, 166.857 64.185 C 161.711 64.287, 155.161 64.534, 152.301 64.735 M 141.607 96.582 C 141.273 97.452, 141 99.302, 141 100.692 L 141 103.221 152 102.845 C 158.050 102.638, 163 102.785, 163 103.172 C 163 104.400, 146.797 161.441, 146.059 162.810 C 145.575 163.709, 142.959 161.481, 137.699 155.687 L 130.044 147.256 133.572 127.011 C 135.511 115.876, 136.946 106.613, 136.760 106.427 C 136.574 106.241, 131.569 106.363, 125.639 106.699 L 114.856 107.310 105.872 125.257 C 100.930 135.127, 97.025 143.945, 97.194 144.852 C 97.362 145.758, 101.451 154.262, 106.279 163.750 C 114.771 180.435, 115.159 181, 118.131 181 C 122.388 181, 150.051 178.968, 152.500 178.475 C 153.600 178.253, 159.621 172.403, 165.879 165.474 L 177.258 152.876 174.792 127.434 C 173.435 113.441, 172.099 101.766, 171.822 101.488 C 171.328 100.994, 144.771 95, 143.076 95 C 142.602 95, 141.941 95.712, 141.607 96.582 M 147.812 105.742 L 140.125 106.082 139.085 111.291 C 138.512 114.156, 136.924 123.217, 135.555 131.427 L 133.066 146.354 138.738 152.813 C 141.857 156.366, 144.531 158.874, 144.681 158.387 C 144.830 157.899, 148.126 146.250, 152.005 132.500 C 155.884 118.750, 159.256 106.938, 159.498 106.250 C 159.775 105.461, 159.119 105.074, 157.719 105.201 C 156.498 105.312, 152.041 105.555, 147.812 105.742" stroke="none" fill="black" fill-rule="evenodd"/>
</svg>