<svg xmlns="http://www.w3.org/2000/svg" width="200" height="200" viewBox="0 0 200 200" version="1.1">
	<path d="M 83.578 14.250 C 83.325 15.488, 82.915 18.693, 82.668 21.374 C 82.420 24.054, 81.714 26.558, 81.099 26.939 C 80.484 27.319, 68.060 31.857, 53.490 37.022 C 37.341 42.748, 27 46.919, 27 47.707 C 27 48.716, 30.943 49, 44.969 49 L 62.937 49 51.262 67.250 C 44.841 77.287, 36.517 89.284, 32.764 93.910 C 26.500 101.629, 24.957 104.901, 27.890 104.245 C 28.517 104.105, 38.585 98.882, 50.265 92.639 C 76.781 78.466, 77.476 78.132, 73.051 81.711 C 71.154 83.245, 68.518 85.419, 67.192 86.542 L 64.783 88.584 76.469 102.792 C 82.897 110.606, 88.345 117, 88.577 117 C 88.809 117, 95.089 113.625, 102.533 109.500 C 109.977 105.375, 116.215 102, 116.396 102 C 116.577 102, 117.266 105.487, 117.927 109.750 C 118.588 114.013, 119.355 118.287, 119.632 119.250 C 120.100 120.878, 118.682 120.996, 99.317 120.949 L 78.500 120.897 68.013 115.570 L 57.525 110.243 37.263 120.360 C 26.118 125.925, 17.016 130.707, 17.034 130.989 C 17.053 131.270, 24.036 136.144, 32.551 141.819 C 42.487 148.442, 47.787 152.561, 47.347 153.319 C 46.971 153.969, 41.563 162.461, 35.331 172.191 C 29.099 181.922, 24 190.134, 24 190.441 C 24 192.702, 29.820 188.597, 50.188 171.968 C 67.559 157.786, 78.186 150.006, 91.886 141.437 C 101.998 135.113, 110.420 130.086, 110.600 130.267 C 110.903 130.569, 121.970 192.066, 122.024 193.749 C 122.038 194.162, 127.212 184.542, 133.523 172.371 L 144.997 150.242 162.998 138.946 C 172.899 132.733, 180.993 127.391, 180.985 127.075 C 180.976 126.759, 173.439 123.481, 164.235 119.790 C 152.697 115.164, 144.550 112.563, 138 111.413 C 132.775 110.496, 127.825 109.397, 127 108.971 C 126.175 108.544, 124.724 106.099, 123.775 103.537 L 122.051 98.878 125.019 97.189 C 127.834 95.587, 127.987 95.165, 127.977 89 L 127.968 82.500 121.111 77.687 C 114.267 72.882, 114.254 72.863, 113.243 66.687 C 112.686 63.284, 112.291 60.440, 112.365 60.367 C 112.439 60.294, 113.850 59.954, 115.500 59.611 C 118.325 59.026, 119.901 60.336, 142.500 82.072 L 166.500 105.155 170.207 89.828 C 172.246 81.397, 173.933 73.747, 173.957 72.827 C 173.989 71.585, 170.194 69.673, 159.250 65.419 C 151.137 62.264, 138.913 57.505, 132.084 54.842 C 119.509 49.938, 117 49.281, 117 50.894 C 117 51.860, 119.277 52.813, 149.500 64.507 C 160.500 68.763, 169.860 72.573, 170.301 72.974 C 170.949 73.563, 167.560 90.998, 165.383 98.268 C 164.973 99.637, 159.773 95.125, 142.335 78.268 L 119.815 56.500 115.631 56.821 L 111.447 57.142 108.845 41.321 C 107.413 32.620, 106.311 25.413, 106.397 25.308 C 106.482 25.202, 112.813 29.417, 120.466 34.674 L 134.381 44.233 144.941 44.207 L 155.500 44.182 141.577 46.360 C 133.154 47.678, 127.492 49.025, 127.244 49.769 C 126.676 51.472, 126.436 51.494, 155.249 47.272 C 174.799 44.408, 180.999 43.164, 180.999 42.106 C 181 40.939, 177.291 40.797, 158.250 41.237 L 135.500 41.762 119.650 30.815 C 110.932 24.794, 103.540 20.127, 103.223 20.444 C 102.733 20.934, 107.075 49.030, 108.680 55.750 C 109.100 57.511, 108.783 58, 107.222 58 C 105.194 58, 103.438 54.215, 90.409 21.765 C 86.548 12.148, 84.474 9.867, 83.578 14.250 M 85.624 21.539 C 85.281 22.432, 85 24.410, 85 25.933 C 85 28.644, 84.504 28.878, 61.319 37.101 L 37.639 45.500 52.702 46 L 67.765 46.500 54.132 67.633 C 46.635 79.257, 38.782 90.844, 36.683 93.383 C 34.584 95.923, 33.198 98, 33.603 98 C 34.008 98, 46.526 91.510, 61.420 83.577 C 76.314 75.644, 89.175 69.007, 90 68.827 C 93.756 68.008, 90.646 71.494, 80.500 79.477 C 74.450 84.237, 69.500 88.530, 69.500 89.016 C 69.500 89.502, 73.921 95.339, 79.324 101.986 L 89.148 114.072 92.324 112.172 C 94.071 111.127, 100.112 107.711, 105.750 104.580 C 111.388 101.449, 116 98.770, 116 98.627 C 116 95.510, 113.135 84.680, 110.748 78.773 C 107.787 71.446, 107.245 70.777, 100.286 65.848 C 92.608 60.411, 92.301 59.046, 98.750 59.015 C 100.537 59.007, 102 58.635, 102 58.189 C 102 57.328, 87.182 20.848, 86.593 20.260 C 86.403 20.069, 85.966 20.645, 85.624 21.539 M 100.662 61.750 C 100.411 62.163, 101.285 63.309, 102.603 64.297 C 104.996 66.090, 105.540 65.570, 104.393 62.582 C 103.765 60.945, 101.463 60.432, 100.662 61.750 M 107 61.878 C 107 63.257, 110.074 70.260, 110.494 69.839 C 111.496 68.838, 109.610 61, 108.368 61 C 107.616 61, 107 61.395, 107 61.878 M 115 77.731 C 115 79.759, 118.135 90.359, 119.535 93.067 C 120.836 95.584, 121.367 95.874, 123.034 94.982 C 124.576 94.156, 125 92.878, 125 89.049 C 125 84.594, 124.673 83.914, 121.250 81.252 C 116.391 77.473, 115 76.690, 115 77.731 M 119.052 100.081 C 119.023 100.400, 119.893 105.575, 120.985 111.581 C 122.076 117.586, 122.976 122.838, 122.985 123.250 C 122.993 123.662, 112.988 123.977, 100.750 123.949 L 78.500 123.897 68.004 118.566 L 57.509 113.235 39.648 122.176 L 21.787 131.117 36.818 141.376 L 51.850 151.635 44.140 163.568 C 39.900 170.130, 35.333 177.300, 33.990 179.500 L 31.548 183.500 36.574 179.500 C 39.337 177.300, 48.327 170.005, 56.549 163.288 C 65.904 155.647, 78.968 146.383, 91.452 138.538 C 102.425 131.642, 111.727 126, 112.122 126 C 113 126, 112.896 125.487, 118.498 157.500 C 121.001 171.800, 123.181 183.932, 123.344 184.459 C 123.506 184.987, 127.974 177.090, 133.272 166.911 L 142.906 148.405 159.416 137.993 L 175.927 127.581 163.213 122.191 C 153.816 118.207, 147.069 116.125, 137.349 114.212 L 124.198 111.623 121.651 105.562 C 120.250 102.228, 119.081 99.761, 119.052 100.081" stroke="none" fill="black" fill-rule="evenodd"/>
</svg>