<svg xmlns="http://www.w3.org/2000/svg" width="200" height="200" viewBox="0 0 200 200" version="1.1">
	<path d="M 41 19.772 L 41 29.544 30.102 46.522 L 19.204 63.500 21.706 78 C 23.684 89.460, 24.313 97.227, 24.708 115.046 L 25.208 137.593 37.657 141.936 L 50.107 146.279 47.715 148.889 C 35.626 162.084, 15 186.062, 15 186.921 C 15 187.514, 15.504 188, 16.120 188 C 16.736 188, 27.425 181.745, 39.873 174.100 L 62.505 160.200 78.904 161.115 C 87.923 161.619, 95.509 161.824, 95.762 161.572 C 96.014 161.319, 93.720 150.579, 90.664 137.705 L 85.107 114.298 92.303 90.399 L 99.500 66.500 100.373 75.500 C 101.460 86.698, 101.625 140.287, 100.611 152.685 L 99.860 161.870 113.150 166.047 C 123.085 169.170, 130.110 170.650, 140.970 171.908 L 155.500 173.591 169 164.693 C 176.425 159.800, 182.639 155.665, 182.809 155.506 C 182.979 155.346, 182.417 142.857, 181.559 127.754 C 180.702 112.650, 180 87.159, 180 71.107 L 180 41.921 172.391 32.460 C 168.206 27.257, 164.043 22.995, 163.141 22.988 C 162.238 22.982, 140.800 21.411, 115.500 19.497 C 90.200 17.584, 69.162 16.014, 68.750 16.009 C 68.338 16.004, 68 15.100, 68 14 C 68 12.889, 67.333 12, 66.500 12 C 65.675 12, 65 12.857, 65 13.905 C 65 15.623, 64.387 15.766, 58.750 15.362 C 45.773 14.430, 44 14.018, 44 11.939 C 44 10.872, 43.325 10, 42.500 10 C 41.269 10, 41 11.752, 41 19.772 M 44 23.497 L 44 30.034 33.038 47.031 L 22.075 64.028 24.466 78.764 C 26.107 88.875, 27.078 100.128, 27.561 114.621 L 28.265 135.742 40.695 140.068 C 47.532 142.447, 53.339 144.739, 53.599 145.161 C 53.998 145.806, 39.336 162.996, 26.093 177.410 L 22.500 181.321 26 179.257 C 27.925 178.121, 36.749 172.758, 45.608 167.339 L 61.716 157.485 76.981 158.286 C 85.377 158.727, 92.374 158.955, 92.531 158.794 C 92.688 158.632, 90.426 148.540, 87.504 136.366 L 82.192 114.233 89.569 89.866 C 93.627 76.465, 96.959 64.713, 96.973 63.750 C 96.992 62.531, 96.221 62, 94.431 62 C 91.414 62, 71.819 66.827, 70.807 67.820 C 70.425 68.194, 68.636 79.862, 66.831 93.750 C 65.026 107.638, 63.313 118.988, 63.024 118.973 C 62.736 118.958, 58.755 113.780, 54.177 107.466 L 45.855 95.986 54.894 57.293 C 59.866 36.012, 63.836 18.527, 63.717 18.438 C 63.598 18.349, 59.112 17.980, 53.750 17.618 L 44 16.960 44 23.497 M 67.005 19.750 C 67.007 20.163, 65.829 28.734, 64.386 38.798 C 62.943 48.861, 61.928 57.258, 62.131 57.457 C 62.972 58.282, 90.155 59.204, 94.486 58.554 L 99.183 57.850 98.842 52.175 L 98.500 46.500 114.969 40.910 L 131.438 35.320 143.764 39.401 L 156.090 43.481 155.295 59.490 C 154.858 68.296, 154.543 93.597, 154.595 115.715 L 154.690 155.931 147.913 149.923 C 144.186 146.619, 138.200 141.122, 134.611 137.708 L 128.086 131.500 137.354 100.908 C 145.792 73.058, 151.224 49.891, 149.680 48.346 C 149.182 47.849, 103.245 58.696, 102.166 59.566 C 101.982 59.714, 102.583 70.560, 103.502 83.668 C 105.113 106.644, 105.098 114.548, 103.384 148.174 L 102.788 159.847 115.644 163.830 C 126.762 167.275, 144.622 170.320, 154 170.369 C 155.102 170.375, 177.032 156.848, 179.869 154.412 C 180.072 154.238, 179.446 140.012, 178.478 122.798 C 177.220 100.426, 176.888 84.689, 177.315 67.618 L 177.913 43.736 171.794 36.118 C 168.428 31.928, 165.160 27.928, 164.531 27.230 C 163.735 26.344, 149.614 24.909, 117.944 22.493 C 68.538 18.725, 66.998 18.642, 67.005 19.750 M 116.493 43.306 C 108.247 46.038, 101.343 48.407, 101.151 48.570 C 100.959 48.732, 101.101 50.635, 101.466 52.799 L 102.131 56.733 125.798 50.800 C 138.816 47.537, 149.569 44.764, 149.694 44.639 C 149.820 44.513, 145.775 43.044, 140.705 41.374 L 131.487 38.338 116.493 43.306 M 54.103 72.930 L 48.804 95.860 55.090 104.118 C 58.547 108.659, 61.490 111.953, 61.631 111.437 C 61.771 110.922, 63.052 101.275, 64.476 90 C 67.917 62.767, 67.023 65.362, 73.467 63.920 C 76.472 63.247, 78.695 62.315, 78.406 61.849 C 78.118 61.382, 73.572 61, 68.303 61 L 58.725 61 59.371 55.500 C 59.727 52.475, 59.879 50, 59.709 50 C 59.540 50, 57.017 60.319, 54.103 72.930 M 150.987 61.212 C 150.289 65.770, 145.568 83.340, 140.497 100.255 L 131.277 131.010 141.753 140.711 L 152.228 150.411 151.536 123.456 C 151.131 107.660, 151.285 87.628, 151.908 75.069 C 152.493 63.282, 152.810 53.477, 152.614 53.280 C 152.417 53.084, 151.685 56.653, 150.987 61.212" stroke="none" fill="black" fill-rule="evenodd"/>
</svg>