<svg xmlns="http://www.w3.org/2000/svg" width="200" height="200" viewBox="0 0 200 200" version="1.1">
	<path d="M 38.828 25.843 L 29.157 41.584 27.970 54.042 C 27.317 60.894, 24.210 78.784, 21.064 93.798 C 17.919 108.812, 15.605 121.254, 15.923 121.447 C 16.240 121.641, 23.025 122.986, 31 124.436 C 38.975 125.887, 46.270 127.394, 47.211 127.787 C 48.647 128.385, 46.338 132.425, 32.878 152.866 C 22.850 168.095, 17.185 177.585, 17.774 178.174 C 18.362 178.762, 24.675 175.227, 34.607 168.749 C 43.348 163.048, 50.981 158.095, 51.570 157.744 C 52.158 157.392, 55.983 159.330, 60.070 162.050 C 64.156 164.770, 67.950 166.995, 68.500 166.995 C 69.050 166.995, 74.900 164.929, 81.500 162.403 L 93.500 157.811 104.393 158.468 L 115.285 159.126 127.893 172.219 L 140.500 185.313 141.138 175.907 C 141.489 170.733, 141.827 156.442, 141.888 144.148 L 142 121.797 144.819 127.148 C 155.762 147.921, 170.365 174, 171.054 174 C 171.509 174, 172.094 173.657, 172.353 173.238 C 173.310 171.689, 167.087 123.846, 164.045 109.368 L 160.900 94.400 162.950 89.617 C 164.077 86.986, 165 84.244, 165 83.522 C 165 82.800, 160.050 78.515, 154 74 C 147.950 69.485, 143 65.418, 143 64.963 C 143 64.507, 143.914 63.845, 145.031 63.490 C 146.148 63.136, 154.557 59.200, 163.718 54.746 C 176.864 48.352, 179.965 46.478, 178.436 45.850 C 177.371 45.412, 170.425 43.666, 163 41.969 C 155.575 40.272, 147.866 38.457, 145.868 37.935 C 142.824 37.140, 140.817 35.125, 133.473 25.493 C 128.654 19.172, 124.438 14.004, 124.105 14.008 C 123.772 14.012, 117.771 22.787, 110.770 33.508 L 98.040 53 87.155 53 C 74.110 53, 73.019 52.398, 67.752 42.292 C 64.814 36.657, 63.998 33.669, 62.960 24.750 C 62.081 17.195, 61.320 14, 60.400 14 C 59.262 14, 58.629 16.076, 57.656 23 C 57.540 23.825, 55.675 21.238, 53.512 17.250 C 51.349 13.262, 49.336 10.023, 49.040 10.050 C 48.743 10.078, 44.148 17.185, 38.828 25.843 M 40.028 29.250 L 31.824 42.500 30.482 56 C 29.744 63.425, 26.858 80.186, 24.070 93.247 C 21.281 106.308, 19 117.571, 19 118.277 C 19 119.635, 40.948 124.205, 42.123 123.091 C 42.466 122.766, 43.536 111.475, 44.500 98 C 45.464 84.525, 46.619 73.100, 47.065 72.611 C 47.528 72.105, 50.706 72.925, 54.450 74.516 C 58.065 76.053, 61.333 77, 61.712 76.621 C 63.165 75.168, 65.726 64.990, 65.312 62.311 C 64.151 54.785, 64.337 55, 58.981 55 C 56.241 55, 54 54.736, 54 54.413 C 54 54.090, 54.684 48.273, 55.521 41.486 L 57.042 29.146 53.429 22.573 C 51.442 18.958, 49.460 16, 49.025 16 C 48.589 16, 44.541 21.962, 40.028 29.250 M 111.822 36.767 L 99.387 55.500 89.671 55.433 C 84.327 55.396, 80.078 55.696, 80.228 56.101 C 80.377 56.505, 88.487 63.887, 98.250 72.505 C 108.012 81.122, 116 88.509, 116 88.920 C 116 89.331, 115.753 89.914, 115.450 90.216 C 114.764 90.903, 84.855 78.393, 84.072 77.092 C 83.757 76.569, 81.025 71.621, 78 66.097 C 74.975 60.573, 72.189 56.041, 71.808 56.027 C 71.428 56.012, 70.527 58.087, 69.807 60.637 C 68.832 64.086, 68.734 67.273, 69.421 73.075 L 70.345 80.875 80.853 85.188 L 91.361 89.500 96.165 107 C 98.808 116.625, 100.964 125.175, 100.957 126 C 100.943 127.580, 77.219 141.552, 76.229 140.563 C 75.921 140.255, 73.949 127.290, 71.846 111.751 C 68.804 89.267, 67.675 83.244, 66.315 82.246 C 65.376 81.557, 64.299 81.332, 63.923 81.746 C 63.546 82.161, 61.562 88.350, 59.513 95.500 C 57.464 102.650, 55.393 108.920, 54.910 109.433 C 52.493 112.006, 53.078 107.722, 56.900 94.866 C 59.214 87.079, 60.746 80.399, 60.304 80.022 C 59.862 79.645, 57.138 78.385, 54.250 77.223 C 49.473 75.301, 48.995 75.263, 48.948 76.805 C 48.919 77.737, 48.076 88.625, 47.074 101 C 46.073 113.375, 45.448 123.837, 45.686 124.250 C 45.923 124.662, 47.415 125, 49 125 C 50.585 125, 52.171 125.467, 52.524 126.039 C 52.877 126.610, 47.882 135.048, 41.423 144.789 C 34.964 154.530, 28.156 164.873, 26.294 167.774 L 22.908 173.047 34.704 165.365 C 41.192 161.140, 47.938 156.824, 49.696 155.774 L 52.892 153.866 60.401 158.933 C 64.531 161.720, 68.336 164, 68.857 164 C 69.379 164, 75.137 161.967, 81.653 159.482 L 93.500 154.964 104.500 155.592 L 115.500 156.220 127.250 167.845 L 139 179.469 139.004 159.484 C 139.006 148.493, 139.301 133.088, 139.659 125.250 C 140.398 109.095, 141.725 106.892, 144.370 117.424 C 145.422 121.611, 149.890 130.997, 157.201 144.381 C 163.370 155.675, 168.573 164.760, 168.763 164.571 C 169.674 163.659, 164.507 125.579, 161.466 110.798 L 158.030 94.096 160.015 89.465 C 161.107 86.918, 162 84.490, 162 84.070 C 162 83.650, 156.618 79.300, 150.039 74.403 C 143.461 69.506, 138.061 65.198, 138.039 64.830 C 138.018 64.461, 145.669 60.439, 155.041 55.893 C 165.197 50.966, 171.561 47.349, 170.791 46.942 C 170.081 46.566, 163.049 44.763, 155.165 42.937 L 140.829 39.616 132.543 28.825 L 124.256 18.035 111.822 36.767 M 60.079 28.583 C 60.127 29.748, 60.364 29.985, 60.683 29.188 C 60.972 28.466, 60.936 27.603, 60.604 27.271 C 60.272 26.939, 60.036 27.529, 60.079 28.583 M 58.608 39.577 C 58.241 42.835, 57.690 47.188, 57.383 49.250 L 56.824 53 60.523 53 C 64.145 53, 64.211 52.932, 63.662 49.750 C 63.353 47.962, 62.805 44.383, 62.444 41.795 C 62.082 39.207, 61.221 36.317, 60.530 35.372 C 59.453 33.899, 59.179 34.497, 58.608 39.577 M 66.022 48 C 66.034 51.366, 67.610 53.790, 68.929 52.471 C 69.612 51.788, 69.302 50.490, 67.977 48.479 L 66.013 45.500 66.022 48 M 67.079 56.583 C 67.127 57.748, 67.364 57.985, 67.683 57.188 C 67.972 56.466, 67.936 55.603, 67.604 55.271 C 67.272 54.939, 67.036 55.529, 67.079 56.583 M 76.194 57.500 C 76.728 58.492, 86.209 75.283, 86.492 75.736 C 86.573 75.866, 91.558 78.028, 97.570 80.541 C 103.581 83.054, 107.825 84.491, 107 83.734 C 104.262 81.224, 79.533 59.645, 77.578 58.059 C 76.521 57.202, 75.898 56.950, 76.194 57.500 M 65.574 75.297 C 65.126 76.835, 65.039 78.372, 65.380 78.713 C 66.499 79.833, 67.158 78.235, 66.770 75.341 L 66.389 72.500 65.574 75.297 M 71 84.366 C 71 86.217, 78.041 136.375, 78.344 136.677 C 78.979 137.313, 98 125.918, 98 124.902 C 98 124.168, 91.294 99.101, 89.437 92.893 C 89.172 92.009, 87.278 90.606, 85.228 89.774 C 73.237 84.912, 71 84.062, 71 84.366" stroke="none" fill="black" fill-rule="evenodd"/>
</svg>