<svg xmlns="http://www.w3.org/2000/svg" width="200" height="200" viewBox="0 0 200 200" version="1.1">
	<path d="M 64 0.544 C 64 0.998, 87.768 29.348, 94.397 36.801 L 96.444 39.102 92.076 51.801 C 89.673 58.785, 83.668 74.019, 78.731 85.653 L 69.755 106.806 77.975 116.849 L 86.194 126.892 94.347 121.807 C 98.831 119.011, 105.443 114.831, 109.039 112.518 L 115.579 108.313 118.950 89.406 C 120.804 79.008, 122.339 69.096, 122.361 67.379 L 122.400 64.258 132.450 63.583 C 142.480 62.909, 142.524 62.894, 154.500 56.298 C 161.100 52.663, 166.815 49.521, 167.199 49.316 C 167.847 48.972, 172.127 61.798, 172.385 64.858 C 172.457 65.711, 167.854 68, 160.007 71.013 L 147.513 75.809 141.766 95.155 C 138.605 105.795, 136.015 115.648, 136.009 117.051 C 135.996 120.820, 139.655 136.884, 140.848 138.288 C 141.414 138.955, 148.859 144.450, 157.392 150.500 C 165.926 156.550, 172.928 161.866, 172.954 162.313 C 172.979 162.761, 168.845 167.818, 163.766 173.551 C 155.130 183.300, 154.428 183.863, 152.937 182.238 C 152.060 181.282, 145.815 174.313, 139.059 166.750 C 132.304 159.188, 126.264 153.012, 125.638 153.026 C 125.012 153.041, 118.875 154.323, 112 155.877 C 101.187 158.320, 97.206 159.847, 82.500 167.191 L 65.500 175.681 48.111 178.868 C 38.547 180.621, 30.538 181.871, 30.313 181.647 C 29.155 180.488, 34.351 177.736, 50.115 171.157 L 67.500 163.901 81.750 151.418 C 89.587 144.553, 95.998 138.612, 95.996 138.218 C 95.993 137.823, 89.513 133.772, 81.595 129.216 L 67.199 120.932 51.976 127.009 C 43.604 130.352, 36.645 132.955, 36.511 132.794 C 36.378 132.632, 38.193 125.975, 40.545 118 C 43.521 107.911, 47.297 98.368, 52.956 86.629 C 57.430 77.349, 60.936 69.603, 60.748 69.414 C 60.559 69.226, 55.101 68.418, 48.619 67.619 C 42.136 66.819, 36.639 65.972, 36.402 65.735 C 36.165 65.499, 43.328 63.389, 52.320 61.047 L 68.667 56.789 72.423 38.284 C 75.063 25.282, 75.865 19.465, 75.123 18.723 C 73.729 17.329, 73.696 17.441, 69.927 36.637 C 68.184 45.512, 66.469 53.241, 66.116 53.813 C 65.576 54.686, 34.720 62.881, 25.679 64.552 C 24.070 64.850, 23.030 65.595, 23.259 66.287 C 23.516 67.065, 29.542 68.165, 40.080 69.358 C 49.111 70.379, 56.630 71.334, 56.789 71.480 C 56.948 71.625, 53.676 78.861, 49.519 87.559 C 43.996 99.114, 40.626 107.952, 37.005 120.378 C 34.279 129.730, 32.155 137.488, 32.284 137.618 C 32.414 137.747, 40.276 134.698, 49.755 130.841 L 66.991 123.829 79.510 131.045 C 89.014 136.523, 91.778 138.562, 90.990 139.512 C 90.419 140.201, 84.578 145.429, 78.011 151.132 L 66.072 161.500 47.930 169.139 C 30.654 176.414, 29.671 176.978, 27.297 180.958 C 25.926 183.257, 24.961 185.283, 25.152 185.461 C 25.344 185.638, 34.743 184.082, 46.039 182.003 L 66.579 178.222 83.539 169.735 C 97.961 162.519, 102.254 160.855, 112.213 158.624 C 118.656 157.181, 124.369 156, 124.909 156 C 125.449 156, 132.103 162.933, 139.695 171.407 C 147.288 179.881, 153.950 186.826, 154.500 186.841 C 155.733 186.874, 177.117 162.833, 176.758 161.817 C 176.616 161.414, 168.858 155.549, 159.518 148.784 L 142.535 136.483 140.385 126.530 L 138.235 116.577 143.738 98.039 C 146.764 87.842, 149.749 78.974, 150.370 78.330 C 150.992 77.687, 156.840 75.122, 163.366 72.631 C 169.893 70.139, 175.435 67.898, 175.683 67.650 C 176.069 67.264, 170.208 46.060, 169.476 45.192 C 169.333 45.022, 163.172 48.264, 155.784 52.396 C 143.634 59.191, 141.690 59.964, 135.426 60.489 C 131.617 60.808, 126.439 61.284, 123.921 61.546 L 119.342 62.023 109.706 50.617 L 100.069 39.210 104.535 25.897 C 109.271 11.774, 109.725 9.592, 107.786 10.238 C 107.118 10.461, 104.653 16.011, 102.308 22.571 C 99.963 29.132, 97.908 34.880, 97.741 35.345 C 97.573 35.810, 90.514 28.047, 82.053 18.095 C 68.953 2.686, 64 -2.130, 64 0.544 M 98.562 43.899 C 98.257 44.394, 99.468 48.920, 101.253 53.958 L 104.500 63.117 109.500 62.446 C 112.250 62.076, 114.653 61.635, 114.839 61.465 C 115.175 61.158, 100.020 43, 99.427 43 C 99.257 43, 98.868 43.405, 98.562 43.899 M 95.638 50 C 95.321 50.825, 93.524 55.800, 91.644 61.056 C 89.764 66.313, 84.802 78.613, 80.616 88.392 C 74.202 103.378, 73.202 106.438, 74.253 107.874 C 79.900 115.590, 86.626 122.974, 87.649 122.581 C 88.333 122.319, 94.290 118.677, 100.888 114.489 L 112.884 106.874 113.906 101.687 C 117.117 85.390, 119.985 66.784, 119.426 65.880 C 119.037 65.250, 115.581 64.956, 110.729 65.140 C 101.656 65.484, 102.912 66.537, 98.628 55 C 97.155 51.035, 95.989 49.085, 95.638 50" stroke="none" fill="black" fill-rule="evenodd"/>
</svg>