<svg xmlns="http://www.w3.org/2000/svg" width="200" height="200" viewBox="0 0 200 200" version="1.1">
	<path d="M 77.604 25.086 C 72.279 31.110, 67.667 36.705, 67.354 37.519 C 65.909 41.286, 69.678 38.137, 78.111 28.534 C 83.270 22.659, 87.784 18.348, 88.401 18.707 C 91.327 20.406, 105 32.292, 105 33.136 C 105 33.666, 104.292 35.469, 103.426 37.143 C 101.528 40.814, 101.897 41.370, 105.361 40.053 C 108.597 38.823, 108.580 38.427, 105.863 51.902 C 104.167 60.315, 103.207 62.982, 101.203 64.840 C 99.246 66.654, 98.517 66.879, 97.954 65.840 C 97.555 65.103, 95.076 57.413, 92.445 48.750 C 89.393 38.700, 87.180 33, 86.331 33 C 85.599 33, 85 33.137, 85 33.305 C 85 33.473, 87.942 45.871, 91.539 60.857 L 98.077 88.104 94.858 103.571 C 92.861 113.164, 91.994 119.394, 92.573 119.973 C 93.088 120.488, 100.792 124.248, 109.693 128.329 L 125.878 135.750 127.838 127.125 C 131.829 109.558, 132.307 106.974, 131.682 106.348 C 131.330 105.996, 125.364 105.371, 118.424 104.958 C 111.485 104.545, 105.458 103.823, 105.031 103.353 C 104.605 102.884, 103.487 99.289, 102.548 95.365 C 100.765 87.912, 100.893 86.656, 105.506 66.329 C 105.777 65.135, 110.499 60.196, 115.999 55.352 C 121.500 50.509, 126 46.247, 126 45.881 C 126 45.515, 123.751 43.500, 121.003 41.404 C 118.255 39.309, 116.342 37.308, 116.753 36.959 C 117.485 36.337, 141.870 28.979, 143.153 28.993 C 143.972 29.002, 156 48.494, 156 49.812 C 156 50.345, 148.096 56.984, 138.435 64.565 C 123.932 75.946, 120.957 78.711, 121.363 80.424 C 121.634 81.566, 122.384 85.247, 123.030 88.605 C 123.675 91.964, 124.582 95.323, 125.044 96.071 C 125.625 97.012, 129.212 97.623, 136.692 98.054 C 143.852 98.468, 152.719 99.929, 162.962 102.385 C 171.466 104.423, 178.515 106.183, 178.625 106.295 C 178.736 106.408, 172.192 113.925, 164.084 123 L 149.343 139.500 130.759 151.840 L 112.174 164.181 92.337 170.633 C 75.576 176.084, 69.490 177.544, 53.090 180.049 C 42.414 181.679, 33.515 182.848, 33.313 182.647 C 32.589 181.922, 53.928 173.040, 75.750 164.982 C 87.988 160.463, 98 156.296, 98 155.722 C 98 154.954, 82.704 126.566, 81.609 125.302 C 81.514 125.193, 72.495 128.012, 61.566 131.566 C 50.637 135.120, 41.525 137.858, 41.318 137.651 C 41.110 137.443, 44.216 134.647, 48.220 131.436 C 55.372 125.701, 89.588 97.542, 91.450 95.859 C 92.050 95.316, 92.049 94.649, 91.448 94.048 C 90.846 93.446, 80.397 95.784, 62.998 100.413 C 38.477 106.937, 35.364 107.560, 34.246 106.168 C 33.557 105.310, 33.332 104.281, 33.746 103.881 C 34.366 103.284, 56.035 94.859, 82.803 84.808 C 85.719 83.713, 87.969 82.464, 87.803 82.034 C 87.636 81.603, 81.712 76.411, 74.638 70.496 L 61.776 59.742 48.282 63.432 C 40.861 65.462, 34.657 66.982, 34.496 66.811 C 34.335 66.640, 40.682 61.811, 48.601 56.080 C 56.521 50.349, 63 45.362, 63 44.997 C 63 42.772, 60.171 44.394, 45.175 55.219 C 26.969 68.361, 24.263 70.596, 25.301 71.635 C 25.681 72.014, 33.893 70.179, 43.550 67.557 C 58.981 63.367, 61.315 62.962, 62.805 64.216 C 63.737 65.001, 68.713 69.172, 73.862 73.485 C 82.958 81.103, 83.157 81.360, 80.862 82.500 C 79.563 83.145, 67.365 87.862, 53.755 92.982 L 29.010 102.290 31.302 106.395 C 32.957 109.359, 34.137 110.410, 35.547 110.178 C 36.621 110.001, 47.789 107.164, 60.363 103.875 C 72.938 100.585, 83.386 98.053, 83.580 98.247 C 83.988 98.654, 76.375 105.065, 50.486 126.118 C 40.319 134.386, 32 141.567, 32 142.075 C 32 143.742, 34.685 143.082, 56.713 136 C 68.687 132.150, 78.964 129, 79.550 129 C 80.136 129, 83.811 134.738, 87.717 141.750 C 93.111 151.434, 94.498 154.682, 93.485 155.258 C 92.751 155.674, 82.104 159.780, 69.825 164.381 C 49.182 172.116, 23.743 183.025, 21.583 185.067 C 19.279 187.246, 25.497 186.908, 47.669 183.650 C 69.481 180.445, 73.279 179.575, 92.500 173.376 L 113.500 166.603 132.500 153.941 L 151.500 141.280 167.250 123.503 C 175.912 113.725, 183 105.422, 183 105.052 C 183 103.507, 146.314 95.688, 136.881 95.221 L 127.261 94.745 126.045 89.123 C 125.376 86.030, 124.613 82.569, 124.351 81.430 C 123.958 79.728, 126.988 76.924, 141.394 65.654 C 151.030 58.115, 159.150 51.567, 159.437 51.102 C 160.213 49.846, 145.721 26.079, 144.153 26.036 C 143.412 26.016, 136.052 28.053, 127.798 30.561 C 119.543 33.070, 112.638 34.971, 112.453 34.786 C 112.268 34.601, 112.979 30.636, 114.033 25.975 C 115.086 21.314, 115.960 16.712, 115.974 15.750 C 116.031 11.860, 113.634 14.433, 110.239 21.907 L 106.648 29.813 96.966 21.973 L 87.285 14.133 77.604 25.086 M 107 36.059 C 107 36.641, 107.450 36.840, 108 36.500 C 108.550 36.160, 109 35.684, 109 35.441 C 109 35.198, 108.550 35, 108 35 C 107.450 35, 107 35.477, 107 36.059 M 109.287 48.249 C 108.119 53.885, 107.308 58.642, 107.485 58.818 C 107.960 59.293, 121.500 46.862, 121.500 45.951 C 121.500 45.153, 112.936 38.027, 111.955 38.010 C 111.655 38.004, 110.454 42.612, 109.287 48.249 M 99.178 70.310 C 97.164 72.454, 97.105 72.920, 98.315 77.057 L 99.615 81.500 100.877 75.153 C 101.571 71.662, 101.959 68.626, 101.740 68.407 C 101.521 68.187, 100.368 69.044, 99.178 70.310 M 97.080 106.316 C 95.771 112.760, 94.901 118.234, 95.147 118.480 C 95.393 118.726, 101.966 121.834, 109.754 125.388 C 121.794 130.881, 123.986 131.598, 124.395 130.174 C 124.921 128.347, 129 109.277, 129 108.646 C 129 108.432, 123.120 107.931, 115.932 107.534 C 107.505 107.068, 102.733 106.401, 102.493 105.656 C 102.289 105.020, 101.523 102.272, 100.791 99.549 L 99.461 94.598 97.080 106.316" stroke="none" fill="black" fill-rule="evenodd"/>
</svg>