<svg xmlns="http://www.w3.org/2000/svg" width="200" height="200" viewBox="0 0 200 200" version="1.1">
	<path d="M 110.837 5.512 C 110.521 6.056, 109.954 8.210, 109.577 10.300 C 108.977 13.619, 108.613 14.020, 106.695 13.471 C 105.488 13.125, 103.744 12.632, 102.820 12.375 C 101.895 12.119, 96.270 14.137, 90.320 16.859 L 79.500 21.809 76.791 18.654 L 74.081 15.500 74.009 20 L 73.937 24.500 60.718 30.573 L 47.500 36.646 45.870 45.073 L 44.241 53.500 44.120 35.250 C 44.018 19.748, 43.774 17, 42.500 17 C 41.221 17, 41 19.705, 41 35.349 C 41 57.359, 41.853 69.216, 43.398 68.701 C 44.332 68.389, 45.833 61.670, 49.389 41.889 C 50.016 38.400, 50.426 38.102, 61.383 33.139 C 67.622 30.312, 72.942 28, 73.205 28 C 73.468 28, 73.986 51.513, 74.355 80.250 L 75.028 132.500 71.675 157.255 C 69.831 170.871, 68.130 182.203, 67.896 182.438 C 67.661 182.672, 63.761 174.907, 59.229 165.182 C 51.040 147.608, 50.990 147.451, 50.995 139.404 C 51.003 125.909, 49.815 113, 48.565 113 C 47.940 113, 43.001 127.063, 37.589 144.250 C 32.177 161.438, 27.594 175.674, 27.405 175.886 C 26.787 176.580, 17.810 156.554, 17.819 154.500 C 17.833 151.170, 37.672 103.570, 41.980 96.532 C 44.191 92.920, 46 89.550, 46 89.043 C 46 88.536, 40.038 84.717, 32.750 80.556 C 25.462 76.396, 18.971 72.650, 18.324 72.233 C 17.438 71.661, 17.862 65.077, 20.048 45.487 C 23.395 15.478, 23.440 14.687, 21.750 15.248 C 20.397 15.697, 13.729 71.923, 14.880 73.175 C 15.221 73.547, 21.575 77.319, 29 81.558 C 36.425 85.798, 42.631 89.375, 42.792 89.508 C 42.953 89.642, 41.304 92.619, 39.129 96.125 C 36.954 99.631, 30.428 114.245, 24.627 128.600 L 14.080 154.700 20.762 169.294 C 24.437 177.322, 27.591 183.743, 27.770 183.564 C 27.949 183.384, 32.333 169.850, 37.512 153.488 C 42.691 137.125, 47.170 123.497, 47.464 123.202 C 47.759 122.908, 48 128.315, 48 135.218 L 48 147.769 58.747 170.581 C 64.657 183.127, 69.604 192.742, 69.740 191.946 C 69.876 191.151, 71.758 177.225, 73.923 161 L 77.859 131.500 77.278 78.903 C 76.904 45.088, 77.045 26.090, 77.673 25.702 C 78.492 25.196, 100 51.802, 100 53.320 C 100 53.598, 98.227 56.901, 96.061 60.662 C 92.362 67.083, 91.874 68.934, 88.061 91 C 85.828 103.925, 84.001 115.194, 84 116.042 C 84 116.985, 88.808 120.206, 96.376 124.333 L 108.753 131.083 104.823 146.791 C 101.377 160.569, 100.211 163.649, 95.343 171.846 C 91.882 177.675, 90.146 181.546, 90.732 182.132 C 91.318 182.718, 100.163 177.780, 114.235 169.011 L 136.799 154.951 158.149 168.801 C 183.218 185.062, 182.503 184.622, 181.664 183.266 C 178.968 178.904, 160 135.228, 160 133.382 C 160 132.093, 161.570 121.091, 163.488 108.933 L 166.977 86.827 177.050 67.808 C 182.590 57.348, 186.897 48.564, 186.622 48.289 C 186.347 48.013, 175.256 51.413, 161.975 55.844 L 137.829 63.900 134.915 57.472 C 133.312 53.937, 132.002 50.247, 132.005 49.272 C 132.008 48.297, 133.133 41.672, 134.504 34.549 C 135.876 27.426, 136.661 21.322, 136.249 20.984 C 135.837 20.647, 131.170 19.359, 125.878 18.123 L 116.255 15.875 113.833 10.200 C 112.501 7.079, 111.153 4.969, 110.837 5.512 M 93 18.589 C 88.875 20.562, 84.480 22.578, 83.233 23.069 C 81.060 23.926, 81.367 24.478, 90.549 36.232 C 95.820 42.979, 100.442 48.613, 100.820 48.751 C 101.549 49.018, 108.527 17.190, 107.880 16.552 C 107.671 16.347, 105.925 15.914, 104 15.591 C 101.260 15.131, 98.872 15.782, 93 18.589 M 109.610 23.858 C 108.784 27.511, 107.085 35.529, 105.834 41.675 L 103.560 52.849 110.019 61.175 L 116.478 69.500 117.989 95.171 C 118.820 109.290, 119.734 121.074, 120.020 121.357 C 120.792 122.123, 143.412 85.789, 143.265 84.018 C 143.197 83.183, 141.553 79.030, 139.613 74.789 L 136.086 67.078 130.543 68.985 C 127.494 70.034, 125.024 70.579, 125.053 70.196 C 125.082 69.813, 125.931 65.238, 126.940 60.028 L 128.774 50.557 121.637 34.344 C 113.207 15.194, 111.838 14, 109.610 23.858 M 118 19.328 C 118 19.791, 129.070 44.404, 129.449 44.782 C 129.854 45.187, 133.886 23.602, 133.485 23.173 C 133.242 22.913, 119.199 19.082, 118.250 19.017 C 118.112 19.008, 118 19.148, 118 19.328 M 160.685 58.951 C 149.237 62.716, 139.669 65.997, 139.423 66.244 C 139.177 66.490, 140.789 70.779, 143.007 75.775 L 147.039 84.858 133.366 106.679 C 125.846 118.681, 119.087 129.159, 118.347 129.964 C 117.191 131.220, 117.002 131.007, 117.012 128.464 C 117.019 126.834, 116.284 113.144, 115.379 98.042 L 113.735 70.585 108.254 63.303 C 105.240 59.298, 102.418 56.242, 101.982 56.511 C 101.547 56.780, 99.742 59.568, 97.970 62.707 C 95.172 67.665, 94.234 71.418, 90.815 91.331 C 88.652 103.935, 87.101 114.820, 87.369 115.519 C 87.637 116.217, 93.052 119.560, 99.402 122.948 C 105.752 126.335, 111.156 129.443, 111.410 129.855 C 111.665 130.267, 110.080 137.780, 107.888 146.552 C 104.866 158.645, 102.945 164.169, 99.939 169.404 C 97.759 173.201, 96.108 176.441, 96.271 176.604 C 96.433 176.767, 104.840 171.723, 114.951 165.395 C 125.063 159.067, 134.171 153.444, 135.191 152.898 C 136.709 152.085, 140.417 154.096, 155.651 163.991 C 165.884 170.639, 174.413 175.920, 174.606 175.727 C 174.799 175.535, 170.837 166.279, 165.801 155.160 L 156.647 134.942 160.413 110.721 L 164.179 86.500 173.167 69.250 C 178.110 59.763, 182.007 52.024, 181.827 52.054 C 181.647 52.083, 172.133 55.187, 160.685 58.951 M 130 57.875 C 130 58.906, 129.719 61.156, 129.375 62.875 C 128.852 65.489, 129.057 65.997, 130.625 65.985 C 134.731 65.951, 135.319 64.545, 133.069 60.136 C 130.749 55.587, 130 55.036, 130 57.875" stroke="none" fill="black" fill-rule="evenodd"/>
</svg>