<svg xmlns="http://www.w3.org/2000/svg" width="200" height="200" viewBox="0 0 200 200" version="1.1">
	<path d="M 96.791 18.542 C 96.493 18.840, 98.207 26.828, 100.600 36.292 C 102.993 45.756, 104.962 54.170, 104.975 54.988 C 104.989 55.806, 98.138 49.651, 89.750 41.310 L 74.500 26.145 48.267 36.822 C 33.838 42.695, 22.026 48.032, 22.017 48.683 C 21.993 50.400, 23.746 50.697, 42 52.070 C 51.075 52.753, 59.253 53.579, 60.174 53.906 C 61.512 54.380, 58.136 59.534, 43.410 79.500 C 22.592 107.724, 23.112 105.711, 36.598 105.900 L 43.696 106 49.568 99.750 C 52.797 96.313, 64.065 84.638, 74.607 73.808 L 93.774 54.115 100.761 59.308 C 107.733 64.488, 107.753 64.517, 109.475 71.816 C 110.425 75.840, 110.898 79.440, 110.528 79.816 C 110.157 80.192, 99.906 82.993, 87.747 86.041 C 75.254 89.172, 65.457 92.128, 65.221 92.838 C 64.891 93.826, 70.098 94.060, 89.651 93.935 L 114.500 93.776 115.772 97.533 C 116.471 99.599, 116.817 101.517, 116.540 101.794 C 116.263 102.071, 107.140 104.524, 96.268 107.246 C 77.118 112.039, 75.900 112.215, 57.306 112.874 C 46.750 113.248, 37.787 113.880, 37.390 114.277 C 35.991 115.675, 38.037 116.303, 45.570 116.786 C 49.870 117.062, 52.621 117.616, 51.901 118.061 C 50.874 118.696, 50.878 119.149, 51.926 120.411 C 52.640 121.271, 52.983 122.603, 52.688 123.371 C 52.393 124.139, 45.075 135.732, 36.424 149.134 C 20.869 173.233, 18.761 177, 20.827 177 C 21.411 177, 32.514 170.901, 45.502 163.446 C 58.490 155.992, 69.758 149.646, 70.543 149.345 C 71.549 148.959, 71.112 150.879, 69.062 155.850 L 66.154 162.902 82.468 175.097 C 91.441 181.804, 99.145 187.245, 99.587 187.190 C 100.029 187.134, 102.551 177.506, 105.190 165.794 C 107.829 154.082, 110.923 140.358, 112.066 135.295 C 114.325 125.286, 115.557 123.930, 120.390 126.132 C 122.123 126.921, 123.330 128.542, 123.953 130.913 C 124.471 132.886, 126.503 141.025, 128.468 149 C 130.434 156.975, 132.370 164.269, 132.771 165.209 C 133.410 166.707, 135.478 165.998, 149.500 159.478 C 158.300 155.387, 166.818 151.434, 168.429 150.695 C 171.347 149.357, 171.272 149.306, 149.429 138.084 C 127.559 126.846, 125 125.377, 125 124.057 C 125 123.673, 133.438 121.416, 143.750 119.042 C 154.063 116.667, 162.857 114.407, 163.292 114.020 C 163.728 113.632, 160.353 110.470, 155.792 106.993 C 151.232 103.515, 147.094 100.316, 146.598 99.883 C 146.102 99.450, 146.854 98.568, 148.269 97.923 C 152.032 96.209, 150.754 93.923, 146.684 95.091 C 141.959 96.446, 142.021 96.470, 133.477 89.919 C 126.696 84.720, 118.138 75.208, 118.032 72.752 C 118.015 72.341, 120.603 73.916, 123.785 76.252 C 130.630 81.278, 176.069 109.579, 176.886 109.325 C 177.196 109.229, 177.586 108.743, 177.751 108.246 C 178.160 107.019, 156.506 74.058, 147.863 62.751 C 142.890 56.246, 141.269 53.441, 142.198 52.952 C 142.914 52.575, 150.025 51.976, 158 51.621 C 189.342 50.227, 194 49.790, 194 48.243 C 194 47.033, 192.523 46.891, 185.250 47.399 C 180.438 47.736, 167.275 48.501, 156 49.100 C 144.725 49.698, 135.414 50.269, 135.310 50.368 C 135.205 50.466, 139.073 55.712, 143.905 62.024 C 154.150 75.407, 172.681 103.476, 170.794 102.751 C 170.082 102.478, 160.118 96.354, 148.650 89.143 C 125.227 74.413, 111.715 64.760, 110.123 61.616 C 108.760 58.925, 101.773 30.894, 102.327 30.340 C 102.555 30.112, 105.548 34.667, 108.978 40.463 C 112.408 46.258, 115.792 51, 116.497 51 C 118.835 51, 168.416 30.251, 168.795 29.115 C 168.999 28.502, 168.602 28, 167.911 28 C 167.221 28, 155.698 32.500, 142.304 38 C 128.910 43.500, 117.625 47.989, 117.226 47.976 C 116.827 47.963, 112.509 41.213, 107.632 32.976 C 99.222 18.775, 98.080 17.254, 96.791 18.542 M 50.097 38.995 C 25.552 49.062, 25.425 48.057, 51.500 50.114 C 59.750 50.764, 66.653 51.421, 66.840 51.572 C 67.027 51.723, 59.122 62.794, 49.274 76.173 C 39.426 89.553, 31.034 101.063, 30.625 101.750 C 30.062 102.696, 31.415 103, 36.195 103 L 42.509 103 67.492 77.250 C 81.233 63.087, 92.844 51.341, 93.295 51.147 C 93.747 50.953, 95.102 51.609, 96.308 52.605 C 97.514 53.600, 93.107 48.921, 86.516 42.207 C 79.924 35.493, 73.849 30.049, 73.016 30.109 C 72.182 30.169, 61.869 34.168, 50.097 38.995 M 112.006 70.750 C 112.009 71.162, 112.480 73.188, 113.053 75.250 C 113.802 77.948, 114.642 79, 116.047 79 C 118.553 79, 118.518 78.740, 115.367 73.979 C 112.757 70.035, 111.995 69.303, 112.006 70.750 M 115.006 82.750 C 115.009 83.162, 115.480 85.188, 116.053 87.250 C 117.028 90.763, 117.340 91, 120.988 91 C 123.130 91, 125.167 90.539, 125.516 89.975 C 126.432 88.491, 119.582 82, 117.100 82 C 115.945 82, 115.003 82.338, 115.006 82.750 M 95.500 87.048 L 80.500 90.886 97.329 90.943 L 114.159 91 113.462 87.750 C 112.655 83.987, 112.152 82.959, 111.191 83.105 C 110.811 83.162, 103.750 84.937, 95.500 87.048 M 118.478 96.750 C 118.863 98.813, 119.360 100.685, 119.583 100.911 C 119.993 101.326, 127.556 99.790, 134.386 97.904 L 138.111 96.875 135.648 94.938 C 133.695 93.402, 131.588 93, 125.481 93 L 117.777 93 118.478 96.750 M 132.250 104.778 C 126.612 107.244, 122.009 109.765, 122.019 110.381 C 122.030 110.996, 122.592 113.575, 123.269 116.111 L 124.500 120.721 140.934 116.843 C 149.973 114.711, 157.529 112.804, 157.726 112.607 C 158.012 112.322, 148.055 104.196, 143.500 100.997 C 142.950 100.610, 137.887 102.312, 132.250 104.778 M 127 102.422 C 119.644 104.455, 119.240 104.659, 121.052 105.414 C 121.905 105.771, 125.055 104.949, 128.052 103.589 C 134.069 100.857, 133.789 100.546, 127 102.422 M 100.500 108.968 L 85.500 112.775 96 112.848 C 104.931 112.909, 107.322 112.566, 112 110.551 C 115.025 109.248, 117.645 107.466, 117.823 106.591 C 118.249 104.498, 117.956 104.538, 100.500 108.968 M 113.141 113.023 C 109.955 114.468, 106.590 115.004, 100.641 115.014 C 90.141 115.031, 88.344 115.574, 87.115 119.100 L 86.104 122 103.552 122 L 121 122 120.900 119.250 C 120.761 115.403, 119.624 111.704, 118.472 111.347 C 117.938 111.182, 115.538 111.936, 113.141 113.023 M 59 118.721 C 50.120 120.314, 61.163 122.388, 75.489 121.818 C 82.152 121.553, 83.534 121.210, 83.812 119.750 C 84.116 118.160, 83.109 118.012, 72.823 118.136 C 66.595 118.211, 60.375 118.474, 59 118.721 M 59.558 126.750 C 68.642 140.717, 72.450 145.942, 73.067 145.280 C 73.466 144.851, 75.569 140.155, 77.739 134.843 L 81.683 125.187 78.717 124.593 C 77.085 124.267, 71.704 124, 66.760 124 L 57.770 124 59.558 126.750 M 77.065 143.497 C 72.975 153.653, 69.825 162.129, 70.065 162.332 C 73.817 165.516, 98.141 183.176, 98.381 182.892 C 98.821 182.370, 111 127.594, 111 126.136 C 111 125.344, 106.986 125.005, 97.750 125.016 L 84.500 125.031 77.065 143.497 M 42.500 144.645 C 35.900 154.891, 29.217 165.308, 27.650 167.794 L 24.800 172.316 28.650 170.036 C 30.767 168.782, 40.712 163.050, 50.750 157.298 C 60.788 151.547, 69 146.648, 69 146.412 C 69 145.553, 55.677 126, 55.097 126.009 C 54.769 126.014, 49.100 134.400, 42.500 144.645 M 127.024 130.667 C 127.064 132.043, 134.780 162.113, 135.201 162.534 C 135.728 163.062, 164.004 149.868, 163.985 149.104 C 163.973 148.629, 131.371 131.542, 127.853 130.167 C 127.384 129.983, 127.011 130.208, 127.024 130.667" stroke="none" fill="black" fill-rule="evenodd"/>
</svg>