<svg xmlns="http://www.w3.org/2000/svg" width="200" height="200" viewBox="0 0 200 200" version="1.1">
	<path d="M 29.154 17.750 C 24.549 39.382, 21.794 58.196, 20.210 78.831 L 18.419 102.162 27.209 114.289 C 32.044 120.959, 35.993 126.885, 35.984 127.458 C 35.974 128.031, 32.640 137.950, 28.574 149.500 C 24.508 161.050, 21.320 170.642, 21.490 170.816 C 22.740 172.095, 79.368 150.894, 82.333 148.037 C 82.791 147.595, 81.074 136.044, 78.516 122.367 C 73.247 94.187, 73.203 94, 71.933 94 C 70.448 94, 70.726 96.122, 75.580 121.830 C 78.106 135.212, 80.021 146.283, 79.836 146.432 C 77.525 148.297, 28.522 167, 25.946 167 C 25.583 167, 28.360 158.337, 32.117 147.750 C 35.875 137.162, 38.960 127.928, 38.974 127.229 C 38.989 126.530, 34.995 120.437, 30.099 113.690 L 21.198 101.423 23.058 77.962 C 24.321 62.023, 26.053 48.524, 28.459 35.865 C 30.407 25.615, 32 16.953, 32 16.615 C 32 16.277, 51.168 16, 74.596 16 L 117.192 16 128.346 20.818 C 134.739 23.580, 146.843 30.287, 156.703 36.532 C 166.164 42.525, 173.814 47.500, 173.703 47.587 C 173.591 47.675, 165.400 53.463, 155.500 60.451 C 145.600 67.438, 137.389 73.458, 137.254 73.828 C 137.118 74.197, 144.689 78.100, 154.078 82.500 C 163.468 86.900, 171.495 90.950, 171.918 91.500 C 172.340 92.050, 174.126 103.075, 175.887 116 C 177.648 128.925, 179.237 140.230, 179.418 141.123 C 179.681 142.423, 176.445 143.716, 163.123 147.634 L 146.500 152.522 136.297 165.995 C 130.685 173.406, 125.725 179.592, 125.274 179.742 C 124.823 179.892, 122.476 171.574, 120.059 161.258 C 117.641 150.941, 115.391 142.175, 115.059 141.777 C 114.726 141.379, 105.802 147.582, 95.227 155.561 C 84.652 163.540, 76 169.812, 76 169.498 C 76 169.185, 84.815 156.535, 95.589 141.387 C 106.364 126.239, 114.993 113.660, 114.766 113.432 C 114.538 113.205, 108.569 113.460, 101.500 114 C 94.431 114.540, 88.544 114.873, 88.418 114.740 C 88.292 114.608, 87.870 104.375, 87.481 92 C 87.006 76.876, 87.105 69.828, 87.782 70.500 C 88.337 71.050, 102.538 88.064, 119.339 108.308 L 149.888 145.117 151.447 139.865 C 156.295 123.541, 161.301 104.983, 160.929 104.712 C 160.693 104.541, 150.037 98.177, 137.250 90.570 C 124.463 82.964, 114 76.438, 114 76.067 C 114 75.697, 115.897 74.475, 118.216 73.352 L 122.432 71.310 106.628 66.043 C 96.374 62.625, 91.167 60.433, 91.798 59.802 C 92.334 59.266, 101.234 53.935, 111.577 47.956 C 121.975 41.943, 129.737 36.873, 128.941 36.612 C 128.148 36.353, 116.475 34.278, 103 32 C 89.525 29.722, 77.961 27.689, 77.303 27.481 C 76.589 27.256, 74.833 30.414, 72.953 35.302 C 71.219 39.811, 69.685 43.624, 69.543 43.775 C 69.401 43.926, 65.111 38.976, 60.011 32.775 C 54.910 26.574, 50.056 21.342, 49.223 21.149 C 47.072 20.650, 47.804 22.189, 57.088 37.708 C 61.522 45.120, 64.969 51.364, 64.749 51.585 C 64.528 51.806, 61.533 51.036, 58.093 49.874 C 54.641 48.708, 51.497 48.151, 51.076 48.631 C 50.656 49.109, 48.187 60.143, 45.589 73.152 C 42.990 86.160, 40.607 97.786, 40.293 98.986 C 39.742 101.096, 39.921 101.069, 45.671 98.166 C 48.943 96.514, 52.101 94.564, 52.689 93.832 C 53.277 93.099, 56.829 84.513, 60.584 74.750 C 64.338 64.988, 67.727 57, 68.115 57 C 68.502 57, 71.614 61.522, 75.030 67.049 C 78.446 72.576, 81.897 77.754, 82.699 78.556 C 83.816 79.673, 84.318 84.332, 84.842 98.437 C 85.219 108.570, 85.746 117.075, 86.013 117.338 C 86.281 117.601, 91.662 117.433, 97.972 116.963 C 104.281 116.494, 109.550 116.217, 109.681 116.348 C 109.811 116.478, 100.218 130.224, 88.361 146.894 C 74.990 165.694, 67.159 177.559, 67.739 178.139 C 68.319 178.719, 76.961 172.794, 90.496 162.537 C 102.499 153.442, 112.597 146, 112.937 146 C 113.277 146, 115.793 155.293, 118.528 166.651 L 123.500 187.303 135.172 171.838 C 141.592 163.333, 147.442 155.920, 148.172 155.365 C 148.903 154.811, 157.030 152.186, 166.233 149.533 C 181.646 145.090, 182.928 144.543, 182.491 142.605 C 182.230 141.447, 180.430 129.025, 178.489 115 C 176.549 100.975, 174.633 89.365, 174.231 89.199 C 173.829 89.033, 166.349 85.433, 157.609 81.199 L 141.718 73.500 159.870 60.672 C 169.854 53.617, 177.796 47.479, 177.519 47.031 C 175.811 44.267, 139.912 22.889, 129.251 18.287 L 117.002 13 73.584 13 L 30.166 13 29.154 17.750 M 74.714 38.250 C 73.202 42.237, 71.973 45.901, 71.983 46.392 C 71.992 46.883, 74.030 49.661, 76.512 52.565 C 83.612 60.876, 83.883 60.841, 104.464 48.936 C 114.153 43.332, 121.929 38.595, 121.743 38.410 C 121.237 37.904, 81.900 31, 79.523 31 C 77.884 31, 76.899 32.485, 74.714 38.250 M 63.069 42.500 C 64.301 44.700, 65.914 47.159, 66.654 47.964 C 67.836 49.250, 67.998 49.250, 67.985 47.964 C 67.977 47.159, 66.364 44.700, 64.400 42.500 L 60.830 38.500 63.069 42.500 M 69.665 51.430 C 69.303 52.373, 69.856 53.388, 71.093 54.050 C 74.351 55.794, 75.323 54.652, 72.687 52.176 C 70.645 50.257, 70.161 50.138, 69.665 51.430 M 52.504 53.250 C 51.875 55.897, 44 95.203, 44 95.694 C 44 95.878, 45.609 95.010, 47.575 93.765 C 50.827 91.705, 51.781 89.878, 58.108 73.582 C 61.934 63.728, 64.713 55.350, 64.282 54.965 C 63.629 54.381, 54.299 51, 53.341 51 C 53.174 51, 52.798 52.013, 52.504 53.250 M 73.500 59.104 C 76.445 64.252, 83.276 75, 83.604 75 C 83.822 75, 83.982 72.862, 83.959 70.250 C 83.928 66.564, 83.310 64.790, 81.204 62.330 C 78.393 59.050, 71.918 56.338, 73.500 59.104 M 86.493 63.011 C 85.951 63.889, 147.975 139.358, 148.669 138.665 C 149.037 138.296, 158 107.543, 158 106.646 C 158 106.399, 146.462 99.312, 132.360 90.897 L 106.721 75.598 111.110 73.682 C 113.986 72.426, 114.983 71.578, 114 71.222 C 101.411 66.667, 86.909 62.338, 86.493 63.011" stroke="none" fill="black" fill-rule="evenodd"/>
</svg>