<svg xmlns="http://www.w3.org/2000/svg" width="200" height="200" viewBox="0 0 200 200" version="1.1">
	<path d="M 30.141 22.324 C 23.887 40.398, 23.829 40.665, 19.938 69.866 C 17.786 86.017, 16.333 99.742, 16.708 100.366 C 17.084 100.990, 22.165 107.575, 28 115 C 33.835 122.425, 38.944 129.056, 39.355 129.736 C 39.792 130.461, 35.527 140.534, 29.051 154.073 C 22.973 166.778, 18 177.367, 18 177.602 C 18 177.838, 25.313 174.177, 34.250 169.466 C 43.188 164.755, 52.828 159.722, 55.673 158.280 L 60.845 155.659 72.457 165.962 C 78.843 171.628, 84.224 176.093, 84.414 175.882 C 84.604 175.672, 88.873 164.054, 93.899 150.064 C 98.925 136.075, 103.254 124.412, 103.519 124.148 C 103.784 123.883, 104 137.467, 104 154.333 L 104 185 119.750 184.882 C 128.412 184.817, 141.501 184.479, 148.835 184.132 L 162.170 183.500 171.688 161 L 181.206 138.500 177.091 111 C 174.827 95.875, 172.981 82.375, 172.990 81 C 172.998 79.625, 175.904 67.489, 179.449 54.030 C 182.994 40.572, 185.805 29.496, 185.697 29.417 C 185.589 29.338, 171.577 28.100, 154.559 26.664 L 123.618 24.055 105.757 33.235 C 89.406 41.639, 87.709 42.301, 85.698 41.055 C 84.489 40.307, 73.375 31.969, 61 22.526 C 48.625 13.083, 38.034 5.085, 37.465 4.753 C 36.845 4.390, 33.910 11.431, 30.141 22.324 M 31.790 26.250 C 26.416 42.606, 25.933 44.936, 22.466 71.205 L 18.809 98.910 30.905 114.338 C 37.557 122.823, 43 130.073, 43 130.449 C 43 130.825, 38.706 140.159, 33.458 151.191 C 28.210 162.223, 24.048 171.348, 24.208 171.468 C 24.369 171.588, 32.375 167.494, 42 162.370 C 51.625 157.247, 60.110 153.043, 60.855 153.028 C 61.600 153.012, 66.664 157.050, 72.108 162 C 77.551 166.950, 82.350 171, 82.771 171 C 83.491 171, 101.094 122.467, 101.030 120.659 C 101.013 120.196, 97.529 115.087, 93.286 109.304 C 87.022 100.768, 85.437 99.140, 84.854 100.646 C 84.459 101.666, 82.963 112.154, 81.531 123.954 C 80.098 135.753, 78.710 145.623, 78.446 145.887 C 76.824 147.509, 75.801 140.967, 72.993 111.015 C 71.267 92.598, 69.401 76.983, 68.846 76.314 C 68.074 75.385, 66.344 75.835, 61.488 78.230 C 54.711 81.572, 54.037 82.611, 54.014 89.750 C 54.006 92.088, 53.793 94, 53.541 94 C 53.288 94, 49.611 92.470, 45.369 90.599 L 37.657 87.198 44.829 83.586 C 48.773 81.600, 52.002 79.643, 52.003 79.237 C 52.005 78.832, 52.484 73.404, 53.068 67.176 L 54.128 55.852 50.064 50.469 C 47.829 47.508, 46 44.789, 46 44.427 C 46 44.065, 54.606 44.100, 65.123 44.505 C 78.442 45.017, 84.134 44.919, 83.873 44.182 C 83.451 42.985, 39.321 9, 38.189 9 C 37.787 9, 34.907 16.762, 31.790 26.250 M 108 35.124 C 99.475 39.575, 91.907 43.540, 91.183 43.936 C 90.294 44.421, 93 47.011, 99.492 51.891 C 104.787 55.871, 109.503 58.986, 109.973 58.814 C 110.443 58.641, 114.958 53.325, 120.006 47 C 125.055 40.675, 129.316 35.366, 129.475 35.201 C 129.634 35.037, 133.725 38.637, 138.566 43.201 C 143.407 47.766, 147.114 50.825, 146.805 50 C 146.495 49.175, 144.123 43.943, 141.534 38.374 L 136.827 28.248 132.274 27.624 C 124.633 26.577, 123.992 26.774, 108 35.124 M 140 28.422 C 140 28.602, 142.925 34.920, 146.500 42.462 C 150.075 50.004, 153 56.585, 153 57.087 C 153 59.479, 149.670 57.210, 140.207 48.369 C 134.545 43.080, 129.787 38.921, 129.632 39.127 C 127.672 41.728, 112.359 60.864, 111.398 61.913 C 110.302 63.109, 108.373 62.037, 98.802 54.913 L 87.500 46.500 69.328 47 C 52.177 47.472, 51.228 47.599, 52.451 49.267 C 53.225 50.324, 54.400 50.784, 55.373 50.410 C 56.632 49.927, 57 50.407, 57 52.531 C 57 54.271, 59.047 58.119, 62.592 63.042 C 69.084 72.060, 68.416 71.987, 81.357 65.082 L 89.214 60.889 88.530 67.704 L 87.845 74.520 105.378 78.857 L 122.911 83.193 136.206 75.668 C 143.518 71.529, 149.771 68.448, 150.102 68.821 C 150.433 69.195, 151.262 75.234, 151.945 82.242 L 153.185 94.983 147.917 101.604 L 142.649 108.225 144.958 120.209 C 146.697 129.232, 148.354 134.428, 151.666 141.232 C 154.085 146.202, 155.937 150.387, 155.782 150.531 C 155.627 150.676, 148.075 149.959, 139 148.938 C 129.925 147.918, 122.166 147.064, 121.758 147.041 C 121.350 147.019, 117.859 142.725, 114 137.500 C 110.141 132.275, 106.762 128, 106.492 128 C 106.221 128, 106 140.150, 106 155 L 106 182 125.750 181.869 C 136.613 181.797, 148.860 181.460, 152.966 181.119 L 160.432 180.500 169.141 160 C 173.931 148.725, 177.885 138.375, 177.928 137 C 177.971 135.625, 176.137 122.350, 173.853 107.500 L 169.701 80.500 175.918 56.651 C 179.338 43.534, 181.888 32.555, 181.586 32.252 C 181.283 31.950, 173.940 31.117, 165.268 30.400 C 156.596 29.684, 147.363 28.872, 144.750 28.596 C 142.137 28.320, 140 28.242, 140 28.422 M 55.644 68.470 C 55.271 73.326, 55.153 77.487, 55.383 77.717 C 55.613 77.946, 58.112 76.963, 60.936 75.532 L 66.072 72.930 64.402 70.104 C 63.484 68.549, 61.290 65.560, 59.528 63.460 L 56.323 59.642 55.644 68.470 M 80.500 68.770 L 75.500 71.353 80 72.487 C 84.482 73.617, 84.503 73.610, 85.303 70.718 C 86.539 66.246, 85.892 65.984, 80.500 68.770 M 135.349 79.229 L 123.199 86.073 106.849 81.993 C 97.857 79.749, 89.753 77.690, 88.839 77.417 C 87.435 76.998, 87.051 78.129, 86.360 84.711 C 85.910 88.995, 85.578 92.961, 85.622 93.524 C 85.764 95.329, 102.430 117.210, 102.805 116.084 C 103.004 115.488, 103.804 115, 104.583 115 C 105.537 115, 106 116.150, 106 118.521 C 106 121.367, 107.604 124.209, 114.374 133.359 L 122.748 144.676 136.423 145.956 C 143.943 146.660, 150.330 147.004, 150.614 146.719 C 150.898 146.435, 149.735 143.437, 148.028 140.056 C 145.414 134.877, 140 113.590, 140 108.490 C 140 107.811, 142.289 104.391, 145.087 100.891 L 150.175 94.526 149.473 85.659 C 148.296 70.793, 149.420 71.304, 135.349 79.229 M 72.415 75.638 C 72.760 76.539, 75.162 80.162, 77.753 83.690 C 82.302 89.886, 82.486 90.015, 83.158 87.501 C 83.541 86.069, 83.990 83.020, 84.156 80.725 C 84.450 76.645, 84.368 76.525, 80.479 75.353 C 74.496 73.550, 71.652 73.650, 72.415 75.638 M 73.333 85.500 C 73.642 87.700, 74.687 98.638, 75.655 109.806 C 76.622 120.975, 77.696 129.300, 78.041 128.306 C 78.386 127.313, 79.486 119.274, 80.486 110.443 L 82.304 94.386 77.537 87.943 L 72.770 81.500 73.333 85.500 M 48.250 84.801 C 44.238 86.729, 44.176 87.517, 47.937 88.828 C 50.702 89.792, 50.912 89.677, 51.532 86.854 C 51.894 85.206, 52.035 83.718, 51.845 83.548 C 51.655 83.379, 50.038 83.942, 48.250 84.801" stroke="none" fill="black" fill-rule="evenodd"/>
</svg>