<svg xmlns="http://www.w3.org/2000/svg" width="200" height="200" viewBox="0 0 200 200" version="1.1">
	<path d="M 27.612 11.750 C 26.043 19.631, 21.692 53.904, 19.021 79.425 L 15.993 108.350 25.972 126.047 L 35.950 143.743 28.463 161.086 C 24.345 170.624, 21.094 178.711, 21.238 179.056 C 21.382 179.401, 32.525 173.700, 46 166.387 C 59.475 159.074, 70.867 152.948, 71.316 152.773 C 71.764 152.599, 73.381 146.841, 74.909 139.978 C 78.165 125.351, 78.563 126.005, 79.580 147.639 C 79.946 155.416, 80.555 162.281, 80.935 162.894 C 81.314 163.508, 86.996 165.836, 93.562 168.067 C 105.002 171.954, 106.502 172.204, 129.500 174.040 C 164.459 176.830, 159.265 178.055, 174.500 163.425 L 187.500 150.942 176.858 140.721 L 166.216 130.500 168.048 112 C 169.055 101.825, 170.084 91.846, 170.335 89.823 L 170.790 86.147 164.912 85.323 L 159.033 84.500 170.594 64 C 176.952 52.725, 182.812 42.250, 183.617 40.722 C 185.009 38.080, 184.456 38.258, 172.290 44.369 L 159.500 50.793 157 40.700 L 154.500 30.607 138.500 20.736 C 129.700 15.306, 121.987 10.641, 121.360 10.367 C 120.732 10.094, 114.976 13.274, 108.567 17.435 C 102.159 21.596, 96.288 25, 95.521 25 C 94.754 25, 79.417 21.400, 61.438 17 C 43.459 12.600, 28.616 9, 28.454 9 C 28.292 9, 27.913 10.238, 27.612 11.750 M 27.186 34.731 C 25.469 47.254, 22.889 68.836, 21.452 82.691 L 18.839 107.881 28.925 125.769 L 39.011 143.657 32.492 158.481 C 28.906 166.635, 26.091 173.416, 26.236 173.550 C 26.381 173.684, 36.222 168.571, 48.104 162.186 L 69.708 150.578 73.477 133.539 C 77.096 117.177, 78.206 113.873, 79.611 115.278 C 80.204 115.871, 82.854 149.804, 82.956 158.102 L 83 161.703 95.250 165.773 C 107.186 169.738, 108.116 169.884, 131.500 171.458 C 144.700 172.347, 156.446 173.207, 157.603 173.370 C 159.124 173.584, 162.997 170.529, 171.603 162.328 L 183.500 150.989 173.548 141.557 L 163.596 132.126 165.421 111.313 C 166.424 99.866, 167.302 90.065, 167.372 89.533 C 167.443 89.002, 164.895 88.272, 161.711 87.912 C 158.528 87.551, 155.692 87.025, 155.409 86.743 C 155.127 86.461, 160.062 77.070, 166.375 65.875 C 172.688 54.680, 177.709 45.375, 177.531 45.198 C 177.354 45.020, 173.121 46.928, 168.124 49.438 C 163.128 51.947, 158.626 54, 158.120 54 C 157.615 54, 156.473 50.729, 155.584 46.731 C 152.147 31.285, 153.626 33.164, 136.839 22.901 C 128.531 17.822, 121.199 13.667, 120.545 13.667 C 119.891 13.667, 114.927 16.536, 109.514 20.042 L 99.672 26.418 112.177 29.552 C 119.055 31.275, 125.145 32.972, 125.711 33.321 C 126.277 33.671, 127.047 39.029, 127.422 45.229 C 127.797 51.428, 128.355 57.962, 128.663 59.750 C 129.007 61.747, 128.808 63, 128.148 63 C 127.557 63, 118.175 58.943, 107.300 53.984 C 96.424 49.025, 87.064 45.145, 86.499 45.362 C 85.934 45.579, 84.456 48.910, 83.215 52.766 C 81.326 58.630, 80.471 59.977, 77.979 61.009 C 76.340 61.687, 75 62.683, 75 63.221 C 75 64.296, 87.679 87.986, 88.983 89.347 C 89.430 89.814, 97.332 86.551, 106.544 82.097 C 115.756 77.644, 123.677 74, 124.146 74 C 125.692 74, 125.039 76.165, 122.631 79.027 L 120.261 81.843 129.554 114.665 C 134.665 132.717, 138.746 147.587, 138.623 147.710 C 137.956 148.377, 113.538 140.880, 112.836 139.792 C 112.377 139.082, 107.662 130.400, 102.357 120.500 C 97.053 110.600, 91.616 100.598, 90.276 98.274 L 87.838 94.048 82.883 96.559 L 77.927 99.070 76.359 95.285 C 75.497 93.203, 73.754 89.025, 72.487 86 L 70.184 80.500 60.745 80.216 L 51.305 79.931 46.595 103.716 C 41.064 131.642, 41.229 131, 39.581 131 C 38.635 131, 39.613 124.419, 43.298 105.983 C 46.049 92.224, 48.093 80.760, 47.841 80.508 C 47.589 80.256, 44.131 79.747, 40.157 79.378 C 30.484 78.479, 31.321 76.614, 41.268 76.905 C 48.774 77.124, 48.943 77.075, 49.586 74.512 C 50.111 72.423, 52.230 70.899, 60.121 66.939 C 65.555 64.213, 70 61.771, 70 61.513 C 70 61.255, 68.781 58.559, 67.292 55.522 C 64.549 49.930, 63.340 49.060, 61.237 51.163 C 60.353 52.047, 59.853 51.747, 59.153 49.913 C 58.646 48.586, 55.705 40.940, 52.616 32.923 C 49.527 24.905, 47 17.872, 47 17.294 C 47 16.716, 43.962 15.494, 40.250 14.578 C 36.538 13.662, 32.781 12.699, 31.903 12.438 C 30.534 12.030, 29.861 15.208, 27.186 34.731 M 50.152 17.815 C 51.576 21.508, 64.670 44.973, 65.313 44.985 C 65.761 44.993, 72.061 41.102, 79.313 36.337 L 92.500 27.674 74 23.014 C 63.825 20.451, 54.218 18.029, 52.652 17.633 C 51.050 17.228, 49.956 17.308, 50.152 17.815 M 81.500 38.132 C 73.800 43.136, 67.307 47.409, 67.072 47.627 C 66.447 48.206, 72.228 60, 73.137 60 C 73.560 60, 75.016 59.494, 76.374 58.875 C 78.312 57.992, 79.403 55.953, 81.453 49.375 C 82.890 44.769, 84.337 41, 84.670 41 C 85.003 41, 94.201 45.050, 105.109 50 C 116.017 54.950, 125.200 59, 125.516 59 C 125.832 59, 125.863 57.538, 125.584 55.750 C 125.305 53.962, 124.798 48.602, 124.456 43.837 L 123.835 35.175 111.168 32.083 C 104.200 30.383, 97.825 29.001, 97 29.013 C 96.175 29.025, 89.200 33.128, 81.500 38.132 M 58.116 39.500 C 58.172 41.246, 61.850 48.567, 61.884 47 C 61.902 46.175, 61.054 43.925, 60 42 C 58.946 40.075, 58.098 38.950, 58.116 39.500 M 61.750 69.113 C 50.405 74.822, 49.202 76.953, 57.250 77.088 C 60.138 77.136, 64.725 77.473, 67.446 77.838 L 72.391 78.500 75.471 86.192 C 77.165 90.423, 78.835 94.168, 79.181 94.515 C 79.528 94.861, 81.360 94.325, 83.252 93.322 L 86.692 91.500 79.524 78.262 C 75.582 70.981, 72.164 64.839, 71.928 64.615 C 71.693 64.390, 67.112 66.414, 61.750 69.113 M 104.811 85.818 C 97.282 89.493, 91.095 92.794, 91.061 93.152 C 91.028 93.511, 96.441 103.910, 103.091 116.262 L 115.183 138.718 124.812 141.305 C 130.109 142.727, 134.528 143.803, 134.634 143.696 C 134.739 143.588, 130.867 129.550, 126.030 112.500 C 119.871 90.794, 117.536 81.125, 118.240 80.250 C 119.603 78.554, 120.192 78.310, 104.811 85.818" stroke="none" fill="black" fill-rule="evenodd"/>
</svg>