<svg xmlns="http://www.w3.org/2000/svg" width="200" height="200" viewBox="0 0 200 200" version="1.1">
	<path d="M 23.736 43.251 C 19.466 59.338, 15.978 73.100, 15.986 73.833 C 15.994 74.567, 16.521 74.993, 17.157 74.781 C 17.794 74.569, 21.507 62.417, 25.407 47.777 C 29.308 33.136, 32.789 20.871, 33.143 20.519 C 33.497 20.168, 39.262 26.866, 45.956 35.403 C 57.063 49.571, 58.360 50.884, 60.813 50.457 C 62.291 50.199, 70.135 48.895, 78.244 47.558 L 92.988 45.128 104.744 36.747 C 121.529 24.781, 123.075 23.740, 123.462 24.141 C 123.653 24.338, 124.996 31.025, 126.445 39 C 127.894 46.975, 129.322 54.301, 129.617 55.279 C 130.091 56.853, 129.480 57.043, 124.327 56.923 C 119.074 56.800, 112.635 58.361, 92.868 64.549 C 91.570 64.955, 91.098 64.081, 90.561 60.280 C 89.248 50.982, 89 50.957, 84.957 59.713 C 81.475 67.255, 80.899 67.951, 77.345 68.921 C 75.230 69.497, 68.341 71.451, 62.036 73.262 L 50.571 76.554 40.821 91.777 C 35.458 100.150, 31.284 107, 31.545 107 C 31.806 107, 41.032 102.489, 52.047 96.976 C 71.362 87.310, 72.019 87.062, 70.479 90.040 C 69.065 92.774, 68.964 97.064, 69.593 127.485 L 70.304 161.841 66.402 162.890 C 56.199 165.634, 21.457 173.723, 21.133 173.430 C 20.930 173.248, 23.596 164.308, 27.056 153.564 L 33.346 134.030 26.541 108.765 C 18.838 80.169, 19.097 81, 17.893 81 C 16.318 81, 16.879 83.712, 23.500 108.075 C 27.075 121.231, 30 132.805, 30 133.794 C 30 134.783, 27.046 144.730, 23.435 155.898 C 19.824 167.066, 17.133 176.466, 17.454 176.787 C 17.775 177.108, 30.292 174.462, 45.269 170.908 L 72.500 164.445 72.191 128.472 L 71.882 92.500 74.191 88.654 C 75.850 85.891, 78.407 83.810, 83.274 81.262 C 87 79.311, 90.265 77.932, 90.530 78.197 C 90.921 78.588, 95 99.252, 95 100.841 C 95 101.091, 102.451 101.050, 111.557 100.749 L 128.113 100.202 127.807 102.851 L 127.500 105.500 112.500 105.189 L 97.500 104.879 86.626 131.689 C 80.646 146.435, 75.541 159.046, 75.283 159.713 C 75.011 160.416, 79.738 159.272, 86.538 156.987 C 97.565 153.283, 98.724 152.631, 106.041 146.024 C 110.320 142.161, 114.022 139, 114.268 139 C 114.515 139, 114.949 145.094, 115.233 152.542 C 115.517 159.989, 115.933 166.266, 116.156 166.489 C 117.056 167.389, 176.216 180.118, 176.797 179.536 C 177.479 178.855, 181.196 101.863, 180.577 101.244 C 180.369 101.036, 176.267 99.784, 171.462 98.462 C 166.656 97.140, 162.527 95.860, 162.286 95.619 C 162.044 95.378, 166.015 87.659, 171.109 78.466 L 180.371 61.751 176.935 58.868 C 170.044 53.084, 141.131 30.988, 139.774 30.467 C 138.656 30.038, 137.633 35.159, 134.629 56.216 C 132.566 70.672, 130.648 83.297, 130.365 84.271 C 129.958 85.676, 127.666 83.970, 119.277 76.021 C 113.461 70.509, 108.308 66, 107.826 66 C 107.344 66, 103.820 67.576, 99.995 69.503 L 93.039 73.005 92.400 70.456 C 92.048 69.054, 91.926 67.781, 92.130 67.626 C 92.333 67.472, 99.115 65.468, 107.201 63.173 C 116.619 60.500, 123.934 59, 127.559 59 C 132.924 59, 133.188 58.883, 132.664 56.750 C 132.359 55.513, 130.677 46.625, 128.926 37 C 127.174 27.375, 125.607 19.345, 125.444 19.156 C 125.280 18.967, 117.576 24.189, 108.323 30.760 L 91.500 42.707 77.500 44.936 C 69.800 46.162, 62.575 47.380, 61.444 47.642 C 59.761 48.033, 56.971 45.028, 46.047 31.060 C 38.709 21.677, 32.434 14.001, 32.102 14.001 C 31.771 14.002, 28.006 27.165, 23.736 43.251 M 136.672 61.131 C 134.577 75.504, 133.231 87.599, 133.681 88.010 C 134.132 88.421, 139.225 89.965, 145 91.441 C 150.775 92.916, 156.240 94.336, 157.144 94.596 C 158.653 95.029, 162.138 89.352, 176.603 62.902 C 177.111 61.973, 142.758 35, 141.069 35 C 140.745 35, 138.767 46.759, 136.672 61.131 M 86.204 63.452 C 84.643 66.878, 84.650 66.904, 87 66.290 C 89.156 65.726, 89.238 65.462, 88.133 62.655 C 87.484 61.006, 87.280 61.090, 86.204 63.452 M 84.229 69.651 C 82.888 70.210, 80.728 73.961, 79.551 77.776 L 78.849 80.053 84.469 77.296 C 89.309 74.922, 90.048 74.190, 89.794 72.020 C 89.501 69.509, 87.060 68.470, 84.229 69.651 M 99.899 72.534 L 93.299 75.926 95.399 87.127 L 97.500 98.327 111 98.104 C 128.211 97.820, 128.700 97.695, 129.196 93.446 C 129.564 90.291, 128.866 89.336, 119.029 79.529 C 113.220 73.738, 108.025 69.032, 107.484 69.070 C 106.943 69.109, 103.530 70.668, 99.899 72.534 M 72 73.227 C 68.425 74.280, 62.511 76.014, 58.857 77.081 L 52.214 79.021 45.679 89.249 C 42.084 94.874, 39.309 99.643, 39.512 99.846 C 39.715 100.049, 47.617 96.229, 57.072 91.357 L 74.263 82.500 76.674 77.126 C 78 74.170, 78.953 71.652, 78.792 71.532 C 78.632 71.411, 75.575 72.173, 72 73.227 M 132 93.933 L 132 97 142 97 C 147.500 97, 152 96.824, 152 96.610 C 152 96.395, 148.287 95.241, 143.750 94.045 C 139.213 92.849, 134.713 91.644, 133.750 91.368 C 132.354 90.967, 132 91.487, 132 93.933 M 145.840 99.388 L 131.181 100.275 130.679 102.888 C 130.402 104.324, 130.299 105.624, 130.448 105.776 C 130.597 105.928, 139.557 106.337, 150.360 106.684 C 161.162 107.032, 169.979 107.582, 169.953 107.908 C 169.928 108.234, 165.395 111.875, 159.882 116 C 154.368 120.125, 149.664 123.794, 149.429 124.154 C 149.194 124.513, 151.713 132.579, 155.027 142.077 C 159.215 154.079, 160.734 159.666, 160.009 160.391 C 159.283 161.117, 155.080 157.565, 146.232 148.747 L 133.500 136.059 128.310 140.030 C 125.455 142.213, 122.825 144, 122.466 144 C 121.819 144, 122.653 135.360, 123.673 131.500 C 124.074 129.980, 123.347 130.339, 120.641 133 L 117.081 136.500 117.791 150.477 L 118.500 164.453 146.478 170.666 C 161.865 174.082, 174.523 176.793, 174.607 176.689 C 175.003 176.194, 178.049 103.716, 177.689 103.355 C 177.461 103.128, 173.501 101.943, 168.888 100.721 C 161.112 98.662, 159.430 98.565, 145.840 99.388 M 89.632 131.665 C 84.333 144.681, 80.144 155.477, 80.322 155.656 C 80.501 155.835, 84.365 154.732, 88.909 153.205 C 96.045 150.807, 98.318 149.413, 105.605 142.965 L 114.041 135.500 113.570 123.750 C 113.311 117.287, 113.489 112, 113.966 112 C 114.444 112, 117.070 114.548, 119.802 117.663 L 124.769 123.326 125.438 118.913 C 125.806 116.486, 126.329 113.329, 126.601 111.897 C 127.080 109.372, 126.911 109.276, 120.900 108.647 C 117.494 108.291, 111.233 108, 106.987 108 L 99.267 108 89.632 131.665 M 129.684 109.750 C 129.445 110.162, 128.928 113.152, 128.535 116.394 L 127.820 122.288 134.910 115.940 C 138.810 112.449, 142 109.459, 142 109.296 C 142 108.622, 130.083 109.061, 129.684 109.750 M 144 109.186 C 144 110.236, 147.320 119.561, 147.943 120.260 C 148.316 120.679, 151.935 118.541, 155.986 115.510 L 163.351 110 158.315 110 C 155.545 110, 151.191 109.714, 148.640 109.364 C 146.088 109.014, 144 108.934, 144 109.186 M 134.182 120.181 L 127.863 126.325 130.869 129.330 L 133.874 132.335 139.437 128.135 C 142.497 125.825, 145 123.439, 145 122.834 C 145 120.231, 142.591 114.002, 141.592 114.019 C 140.991 114.029, 137.657 116.802, 134.182 120.181 M 116.585 124.500 C 116.964 128.350, 117.355 131.606, 117.455 131.735 C 117.555 131.864, 119.068 130.493, 120.818 128.688 L 123.999 125.405 119.948 121.453 L 115.897 117.500 116.585 124.500 M 141.121 130.186 L 135.789 134.252 145.593 144.094 C 150.986 149.507, 155.529 153.805, 155.689 153.645 C 155.976 153.357, 147.316 126.983, 146.748 126.414 C 146.586 126.252, 144.054 127.950, 141.121 130.186 M 126.666 130.428 C 126.300 131.382, 126 133.487, 126 135.105 C 126 138.012, 126.029 138.027, 128.500 136.408 C 131.487 134.451, 131.554 133.905, 129.166 130.957 C 127.510 128.912, 127.268 128.860, 126.666 130.428" stroke="none" fill="black" fill-rule="evenodd"/>
</svg>