<svg xmlns="http://www.w3.org/2000/svg" width="200" height="200" viewBox="0 0 200 200" version="1.1">
	<path d="M 107.424 29.449 L 104.500 38.978 101 38.998 C 99.075 39.009, 95.208 39.293, 92.408 39.629 L 87.315 40.241 87.782 34.621 L 88.248 29 77.781 29 C 72.024 29, 61.956 28.731, 55.407 28.401 L 43.500 27.803 30.750 46.303 C 18.508 64.066, 16.838 67, 18.968 67 C 19.501 67, 26.543 62.275, 34.618 56.500 C 42.692 50.725, 50.084 46, 51.043 46 C 52.628 46, 64.092 44.971, 79.346 43.458 C 83.478 43.049, 84.993 43.202, 84.511 43.981 C 84.134 44.592, 86.805 48.408, 90.491 52.527 C 94.175 56.642, 97.007 60.689, 96.826 61.578 C 96.540 62.988, 94.373 63.170, 79.311 63.053 L 62.122 62.918 42.061 86.927 C 31.027 100.132, 22 111.401, 22 111.968 C 22 112.536, 22.526 113, 23.170 113 C 23.813 113, 34.189 107.326, 46.228 100.391 C 58.266 93.457, 68.252 87.944, 68.417 88.141 C 69.590 89.536, 75.838 110.553, 75.246 111.110 C 74.836 111.495, 61.113 117.564, 44.750 124.595 C 28.388 131.627, 15 137.910, 15 138.557 C 15 139.380, 20.188 139.999, 32.250 140.617 L 49.500 141.500 52.459 165.750 C 54.491 182.395, 55.797 190, 56.626 190 C 57.290 190, 67.757 186.225, 79.886 181.610 C 98.277 174.613, 102.130 173.451, 103.091 174.610 C 104.718 176.570, 105.471 176.357, 107 173.500 C 107.736 172.125, 108.907 171, 109.603 171 C 110.299 171, 118.389 173.700, 127.582 177 C 136.775 180.300, 144.830 183, 145.482 183 C 146.153 183, 149.882 172.740, 154.084 159.331 C 160.268 139.592, 162.530 133.821, 167.700 124.581 C 171.110 118.486, 173.585 113.224, 173.200 112.887 C 172.815 112.550, 161.925 109.926, 149 107.056 C 136.075 104.186, 124.526 101.610, 123.336 101.332 C 121.421 100.884, 123.106 98.446, 137.968 80.163 C 147.206 68.798, 154.654 59.374, 154.518 59.219 C 154.382 59.064, 142.879 59.867, 128.956 61.004 C 98.228 63.511, 99.591 63.972, 102.939 52.215 C 104.176 47.868, 105.495 43.817, 105.869 43.211 C 106.704 41.861, 151.996 45.118, 165 47.464 C 175.203 49.304, 179.307 49.421, 178.786 47.857 C 178.576 47.228, 172.728 43.693, 165.790 40.001 C 155.716 34.641, 149.079 32.024, 132.837 27.008 C 121.652 23.553, 112.016 20.545, 111.424 20.323 C 110.812 20.094, 109.085 24.033, 107.424 29.449 M 109.642 31.551 C 107.827 36.950, 107.445 39.207, 108.302 39.470 C 108.961 39.672, 118.050 40.363, 128.500 41.005 C 138.950 41.647, 151.952 42.819, 157.394 43.609 C 162.836 44.399, 167.495 44.839, 167.748 44.586 C 169.002 43.331, 149.426 35.081, 132.833 29.870 C 122.551 26.642, 113.698 24, 113.159 24 C 112.621 24, 111.038 27.398, 109.642 31.551 M 36.500 42.718 C 32.100 49.129, 27.610 55.752, 26.522 57.437 L 24.544 60.500 28.022 57.945 C 29.935 56.540, 35.325 52.668, 40 49.341 L 48.500 43.292 64 42.106 C 85.634 40.450, 85 40.632, 85 36.069 L 85 32.296 76.750 31.654 C 72.213 31.301, 63.100 31.023, 56.500 31.037 L 44.500 31.062 36.500 42.718 M 89.250 42.706 C 88.013 42.944, 87 43.481, 87 43.899 C 87 44.317, 89.564 47.493, 92.699 50.957 L 98.398 57.254 100.699 50.432 C 101.964 46.680, 103 43.248, 103 42.805 C 103 41.986, 93.348 41.916, 89.250 42.706 M 124.008 64.059 C 104.859 65.674, 102.334 65.707, 100.852 64.366 C 99.340 62.998, 99.118 63.162, 98.404 66.181 C 97.464 70.155, 97.107 68.468, 101.380 80.254 L 104.917 90.008 102.208 88.552 C 100.719 87.750, 98.178 86.199, 96.562 85.104 C 93.754 83.201, 92 83.147, 92 84.964 C 92 85.429, 100.388 95.865, 110.639 108.155 L 129.279 130.500 125.889 130.856 L 122.500 131.212 127.220 133.356 L 131.940 135.500 121.497 151.477 C 115.753 160.264, 111.379 167.759, 111.777 168.133 C 112.672 168.973, 144.167 180.170, 144.543 179.781 C 144.692 179.626, 148.088 169.154, 152.090 156.510 C 157.846 138.320, 160.458 131.638, 164.597 124.510 C 167.474 119.554, 169.530 115.221, 169.164 114.880 C 168.799 114.539, 157.025 111.675, 143 108.514 C 128.975 105.354, 117.325 102.608, 117.110 102.411 C 116.896 102.215, 122.971 94.347, 130.610 84.928 C 138.250 75.508, 145.545 66.496, 146.822 64.901 C 148.904 62.301, 148.956 62.013, 147.322 62.123 C 146.320 62.191, 135.828 63.062, 124.008 64.059 M 68.241 65.738 L 62.982 66.105 47.834 84.303 C 39.502 94.311, 31.744 103.586, 30.593 104.914 C 28.202 107.672, 29.127 107.191, 54.887 92.273 C 62.800 87.691, 69.479 84.146, 69.729 84.396 C 69.979 84.646, 72.379 91.255, 75.063 99.083 C 77.746 106.910, 80.179 112.682, 80.468 111.907 C 80.758 111.133, 82.790 105.139, 84.984 98.586 C 88.231 88.891, 88.746 86.377, 87.752 85.086 C 87.081 84.214, 84.541 81.118, 82.108 78.208 C 76.373 71.346, 77.631 69.750, 85.049 74.476 C 88.047 76.386, 90.779 77.960, 91.120 77.974 C 92.260 78.021, 94.210 69.238, 93.533 67.105 C 92.909 65.138, 92.230 65.012, 83.183 65.185 C 77.857 65.287, 71.134 65.535, 68.241 65.738 M 94.630 77.250 C 93.752 80.528, 93.771 80.575, 96.500 81.818 C 99.356 83.119, 99.446 82.876, 97.799 78.321 C 96.395 74.437, 95.468 74.124, 94.630 77.250 M 87.964 80.836 C 88.623 82.120, 89.436 82.897, 89.771 82.562 C 90.107 82.227, 89.568 81.176, 88.574 80.226 C 86.846 78.576, 86.819 78.603, 87.964 80.836 M 90.705 89.736 C 89.867 91.226, 82.881 114.213, 83.188 114.471 C 83.360 114.616, 90.634 117.742, 99.352 121.419 C 111.752 126.649, 116.084 128.039, 119.241 127.803 L 123.277 127.500 107.206 108.236 C 98.367 97.642, 90.941 89.317, 90.705 89.736 M 49.826 125.360 C 35.705 131.452, 24.369 136.787, 24.635 137.218 C 24.900 137.648, 31.166 138, 38.559 138 C 48.786 138, 52 138.305, 52 139.275 C 52 141.470, 57.867 186.202, 58.192 186.484 C 58.514 186.764, 98.167 172.023, 98.949 171.333 C 99.195 171.115, 95.366 166.788, 90.440 161.718 C 85.514 156.648, 79.141 150.025, 76.279 147 L 71.074 141.500 75.037 129 C 77.216 122.125, 79 116.403, 79 116.285 C 79 116.167, 78.213 115.669, 77.250 115.178 C 75.954 114.517, 68.839 117.159, 49.826 125.360 M 81.466 118.267 C 81.214 118.945, 79.440 124.174, 77.524 129.886 L 74.041 140.271 77.949 144.886 C 80.099 147.424, 86.528 154.130, 92.235 159.789 C 101.325 168.802, 102.896 169.974, 104.893 169.235 C 106.311 168.711, 111.084 162.382, 117.520 152.494 L 127.866 136.596 121.683 133.826 C 115.813 131.196, 114.728 131.055, 100.250 131.028 C 87.374 131.004, 85 130.767, 85 129.500 C 85 128.257, 86.929 127.995, 96.250 127.972 L 107.500 127.944 96.500 123.169 C 81.746 116.764, 81.994 116.845, 81.466 118.267" stroke="none" fill="black" fill-rule="evenodd"/>
</svg>