<svg xmlns="http://www.w3.org/2000/svg" width="200" height="200" viewBox="0 0 200 200" version="1.1">
	<path d="M 86.543 18.659 C 86.910 20.772, 87.588 24.288, 88.049 26.473 C 88.510 28.658, 88.663 30.670, 88.389 30.944 C 88.115 31.218, 74.779 32.029, 58.753 32.747 C 42.727 33.465, 29.486 34.181, 29.328 34.339 C 29.170 34.497, 30.729 42.364, 32.791 51.823 L 36.542 69.019 47.021 77.589 C 52.784 82.302, 57.861 86.506, 58.302 86.931 C 58.743 87.356, 53.842 92.373, 47.411 98.079 L 35.717 108.454 42.109 110.282 C 45.624 111.288, 49.501 112.423, 50.725 112.805 C 52.785 113.448, 51.611 115.315, 34.975 137.844 C 25.089 151.234, 17 162.521, 17 162.928 C 17 165.234, 20.261 163.939, 39.894 153.837 L 61.500 142.719 56.750 147.644 C 54.138 150.353, 52 152.891, 52 153.284 C 52 153.678, 64.343 154, 79.429 154 L 106.858 154 108.350 159.250 C 109.171 162.138, 111.957 172.150, 114.541 181.500 C 119.156 198.197, 120.276 201.057, 121.659 199.674 C 122.211 199.122, 115.554 159.027, 113.263 149.104 C 112.728 146.788, 112.866 146.725, 117.337 147.229 C 120.606 147.597, 121.770 147.420, 121.303 146.625 C 120.940 146.006, 118.095 141.675, 114.981 137 C 111.735 132.127, 109.063 126.890, 108.719 124.728 C 107.986 120.121, 106.880 119.498, 124.541 133.637 L 138.583 144.877 163.541 145.070 C 183.359 145.224, 188.500 144.998, 188.500 143.973 C 188.500 143.230, 176.328 137.553, 159.808 130.591 C 144.028 123.941, 131.515 118.358, 132.002 118.185 C 132.490 118.012, 143.148 115.971, 155.688 113.648 C 172.841 110.472, 178.559 109.054, 178.776 107.922 C 178.996 106.780, 177.316 106.122, 171.783 105.184 C 167.777 104.505, 159.019 102.999, 152.321 101.836 L 140.141 99.723 147.114 89.330 C 150.949 83.614, 154.311 78.353, 154.585 77.639 C 154.889 76.846, 153.513 75.633, 151.044 74.520 C 147.717 73.020, 147.216 72.445, 148.199 71.260 C 148.856 70.469, 157.862 62.369, 168.213 53.260 C 178.564 44.152, 186.812 36.479, 186.543 36.210 C 186.273 35.940, 172.123 35.411, 155.098 35.034 L 124.144 34.348 105.009 24.583 L 85.875 14.818 86.543 18.659 M 90 21.077 C 90 21.765, 90.762 26.304, 91.694 31.164 L 93.388 40 110.241 40 L 127.094 40 134.382 44 C 138.391 46.200, 142.870 48, 144.335 48 C 146.050 48, 147 48.541, 147 49.516 C 147 50.350, 148.575 51.783, 150.500 52.701 C 152.425 53.619, 154 54.962, 154 55.685 C 154 57.587, 153.005 57.352, 146.767 53.973 L 141.179 50.947 118.891 52.005 C 106.632 52.587, 96.440 53.226, 96.242 53.425 C 96.043 53.624, 96.473 57.092, 97.196 61.133 L 98.512 68.480 104.745 70.990 C 108.173 72.371, 110.983 73.847, 110.989 74.272 C 110.995 74.697, 109.200 78.624, 107 83 C 104.800 87.376, 103 91.586, 103 92.356 C 103 93.126, 104.013 94.432, 105.250 95.259 C 107.330 96.648, 107.380 96.903, 105.917 98.631 C 104.494 100.311, 104.480 101.308, 105.777 108.500 L 107.221 116.500 123.095 129 L 138.969 141.500 159.735 142.106 C 171.156 142.440, 180.587 142.653, 180.693 142.580 C 180.799 142.507, 167.635 136.873, 151.440 130.060 C 135.246 123.246, 122.145 117.521, 122.329 117.338 C 122.512 117.155, 132.525 115.180, 144.581 112.950 C 156.636 110.720, 167.175 108.634, 168 108.313 C 168.825 107.992, 162.081 106.409, 153.013 104.795 C 143.945 103.180, 136.371 101.705, 136.183 101.516 C 135.994 101.327, 139.045 96.395, 142.963 90.555 C 146.881 84.715, 150.304 79.372, 150.569 78.680 C 150.857 77.931, 149.138 76.494, 146.317 75.123 C 141.631 72.847, 141.604 72.806, 143.708 71.162 C 144.876 70.248, 153.726 62.525, 163.374 54 L 180.917 38.500 151.932 37.748 L 122.948 36.997 106.474 28.412 C 97.203 23.581, 90 20.374, 90 21.077 M 46 36.053 C 38.575 36.444, 32.445 36.817, 32.377 36.882 C 32.310 36.947, 33.054 40.487, 34.031 44.750 C 35.008 49.013, 36.558 55.929, 37.476 60.120 L 39.143 67.741 51.072 77.476 C 57.632 82.830, 63 87.344, 63 87.506 C 63 87.669, 58.275 92.005, 52.500 97.142 C 46.725 102.278, 42 106.748, 42 107.073 C 42 107.399, 45.375 108.506, 49.500 109.533 C 53.625 110.560, 57 111.666, 57 111.991 C 57 112.316, 49.381 122.906, 40.068 135.525 C 30.756 148.145, 23.232 158.566, 23.349 158.683 C 23.467 158.800, 33.298 153.969, 45.197 147.948 L 66.832 137 79.416 123.453 C 86.611 115.708, 92 109.071, 92 107.954 C 92 106.734, 92.681 106, 93.813 106 C 96.239 106, 101 100.911, 101 98.318 C 101 97.178, 100.334 95.693, 99.521 95.017 C 98.525 94.190, 98.328 93.253, 98.920 92.145 C 99.650 90.778, 96.807 71.243, 95.774 70.524 C 95.623 70.419, 89.873 68.089, 82.996 65.346 C 73.830 61.690, 69.802 60.543, 67.908 61.049 C 65.863 61.596, 62.575 60.288, 52.162 54.787 C 44.742 50.868, 39 47.216, 39 46.417 C 39 45.638, 39.138 45, 39.307 45 C 39.475 45, 46.312 47.700, 54.500 51 C 62.688 54.300, 70.004 57, 70.759 57 C 71.514 57, 76.602 55.801, 82.066 54.336 C 91.595 51.781, 92 51.560, 92 48.918 C 92 42.578, 92.972 42.797, 68.368 43.581 C 49.008 44.198, 46 44.095, 46 42.820 C 46 41.751, 49.641 40.498, 59.250 38.260 C 72.369 35.205, 72.436 35.175, 66 35.259 C 62.425 35.305, 53.425 35.663, 46 36.053 M 73 38.021 L 61.500 40.831 71.110 40.916 C 76.396 40.962, 82.809 40.714, 85.360 40.364 C 89.392 39.811, 90 39.418, 90 37.364 C 90 34.284, 87.969 34.362, 73 38.021 M 107.641 42.748 C 93.875 43.056, 93.786 43.073, 94.377 45.279 C 94.705 46.501, 94.979 48.178, 94.986 49.007 C 94.997 50.161, 95.996 50.441, 99.250 50.201 C 101.588 50.028, 110.925 49.575, 120 49.194 L 136.500 48.500 130.878 45.250 C 127.786 43.462, 124.411 42.099, 123.378 42.219 C 122.345 42.340, 115.263 42.578, 107.641 42.748 M 84.830 56.418 C 80.611 57.567, 76.895 58.771, 76.572 59.094 C 76.250 59.417, 79.701 61.148, 84.243 62.941 C 88.784 64.734, 93.114 66.448, 93.865 66.751 C 94.968 67.196, 95.090 66.267, 94.503 61.901 C 94.104 58.930, 93.489 56.011, 93.138 55.414 C 92.697 54.664, 90.129 54.974, 84.830 56.418 M 99.357 73.488 C 99.671 74.306, 100.227 77.231, 100.593 79.988 C 100.958 82.745, 101.537 84.997, 101.879 84.992 C 102.674 84.982, 107 77.441, 107 76.065 C 107 75.494, 105.370 74.346, 103.378 73.513 C 98.898 71.642, 98.648 71.640, 99.357 73.488 M 99.231 106.254 L 97.069 108.555 100.597 111.370 L 104.125 114.185 103.434 110.343 C 102.338 104.243, 101.702 103.624, 99.231 106.254 M 81.812 124.749 C 72.447 134.969, 70.462 137.634, 71.814 138.173 C 74.331 139.176, 108.105 143.229, 108.732 142.602 C 109.029 142.304, 108.742 139.367, 108.095 136.075 C 107.199 131.525, 105.479 127.979, 100.921 121.294 C 97.624 116.457, 94.604 112.387, 94.211 112.249 C 93.818 112.112, 88.238 117.737, 81.812 124.749 M 102.619 119 C 104.075 121.200, 105.389 123, 105.539 123 C 106.290 123, 104.525 118.278, 103.204 116.750 C 100.362 113.465, 99.965 114.991, 102.619 119 M 111.418 138.332 C 111.738 139.339, 112 141.027, 112 142.082 C 112 143.344, 112.696 144, 114.035 144 C 116.245 144, 115.836 142.541, 112.492 138.500 C 111.018 136.719, 110.901 136.701, 111.418 138.332 M 62.168 146.045 L 57.836 151 83.347 151 L 108.858 151 110.429 156.404 C 111.293 159.376, 112 162.376, 112 163.071 C 112 163.765, 112.252 164.082, 112.559 163.774 C 113.044 163.289, 110.397 147.064, 109.723 146.389 C 109.355 146.022, 70.326 140.992, 68.256 141.045 C 67.290 141.070, 64.551 143.320, 62.168 146.045" stroke="none" fill="black" fill-rule="evenodd"/>
</svg>