<svg xmlns="http://www.w3.org/2000/svg" width="200" height="200" viewBox="0 0 200 200" version="1.1">
	<path d="M 108.485 24.411 C 107.118 27.485, 104.891 32.496, 103.535 35.546 L 101.070 41.092 94.785 34.576 L 88.500 28.061 69 32.168 L 49.500 36.276 33.500 46.303 C 24.700 51.818, 17.050 56.763, 16.500 57.293 C 15.858 57.911, 20.876 58.028, 30.500 57.620 C 42.965 57.091, 47.188 56.485, 55.489 54.031 C 60.984 52.407, 65.775 51.399, 66.138 51.789 C 67.267 53.007, 75.871 67.463, 75.617 67.716 C 75.485 67.848, 68.919 65.699, 61.027 62.940 C 51.260 59.526, 46.350 58.250, 45.655 58.945 C 45.093 59.507, 44.828 60.121, 45.067 60.309 C 45.305 60.498, 53.697 64.153, 63.715 68.431 C 73.733 72.709, 82.461 76.851, 83.112 77.634 C 84.007 78.714, 84.016 79.668, 83.149 81.573 L 82.004 84.086 64.149 83.396 L 46.295 82.707 45.590 111.103 L 44.886 139.500 48.943 166.996 C 51.174 182.119, 53.018 194.719, 53.040 194.996 C 53.146 196.324, 56.505 188.683, 64.470 169 C 69.256 157.175, 73.484 147.171, 73.867 146.769 C 74.249 146.366, 82.864 145.394, 93.011 144.607 C 107.253 143.503, 111.970 143.444, 113.701 144.351 C 115.912 145.510, 115.861 145.628, 109.979 153.013 C 106.699 157.131, 104.153 160.925, 104.323 161.445 C 104.645 162.437, 141.852 188, 142.973 188 C 143.329 188, 146.703 175.243, 150.472 159.651 L 157.325 131.303 154.126 107.496 C 152.366 94.403, 150.692 83.310, 150.404 82.845 C 150.117 82.380, 146.421 81.993, 142.191 81.985 C 137.961 81.976, 133.919 81.601, 133.209 81.150 C 132.335 80.596, 140.666 74.714, 158.942 62.982 C 173.805 53.440, 185.812 45.479, 185.624 45.291 C 185.435 45.102, 176.624 43.400, 166.043 41.508 C 144.993 37.743, 148.665 39.173, 119.235 23.284 L 110.969 18.821 108.485 24.411 M 110.006 27.691 C 104.985 38.973, 103.751 42.084, 104.141 42.474 C 104.368 42.702, 113.317 43.196, 124.027 43.574 C 134.737 43.952, 144.069 44.561, 144.765 44.929 C 145.538 45.337, 142.343 47.717, 136.550 51.048 C 131.259 54.091, 127.064 57.163, 127.056 58 C 127.043 59.424, 131.682 76.035, 132.237 76.552 C 132.639 76.926, 177.975 47.580, 177.988 46.936 C 177.995 46.626, 170.912 45.140, 162.250 43.633 L 146.500 40.895 130.091 32.197 C 121.066 27.414, 113.336 23.361, 112.914 23.191 C 112.491 23.021, 111.183 25.046, 110.006 27.691 M 68.897 34.964 C 59.215 37.019, 50.665 39.057, 49.897 39.494 C 49.129 39.930, 43.377 43.485, 37.115 47.394 L 25.730 54.500 33.829 54.790 C 40.514 55.029, 43.811 54.532, 52.714 51.944 C 58.646 50.220, 63.656 48.658, 63.847 48.474 C 64.039 48.289, 63.382 46.762, 62.388 45.079 C 59.559 40.291, 61.996 39.139, 64.925 43.879 L 67.295 47.714 76.898 44.805 C 83.845 42.700, 88.090 41.979, 92.252 42.198 C 95.415 42.364, 98.003 42.260, 98.002 41.966 C 97.999 41.241, 87.558 30.971, 86.969 31.114 C 86.711 31.177, 78.579 32.909, 68.897 34.964 M 76.683 47.675 C 69.073 50.080, 68.903 50.204, 70.269 52.323 C 71.041 53.520, 73.884 57.982, 76.585 62.239 C 80.042 67.686, 82.360 70.278, 84.411 70.993 C 86.013 71.552, 87.396 71.894, 87.483 71.755 C 87.727 71.362, 98.173 47.666, 98.726 46.250 C 99.610 43.985, 85.462 44.899, 76.683 47.675 M 105 47.071 C 105 47.660, 106.893 55.131, 109.206 63.674 C 113.975 81.287, 113.728 81, 124.145 81 L 130.159 81 129.553 78.250 C 129.220 76.737, 127.661 71.225, 126.090 66 C 124.518 60.775, 123.409 56.199, 123.625 55.831 C 123.841 55.463, 127.051 53.438, 130.759 51.331 L 137.500 47.500 131 46.867 C 119.840 45.780, 105 45.896, 105 47.071 M 97.055 56.754 C 94.697 62.114, 92.159 67.914, 91.415 69.643 L 90.063 72.785 100.174 76.417 C 105.735 78.414, 110.388 79.925, 110.515 79.774 C 110.800 79.434, 102.237 47.904, 101.718 47.385 C 101.511 47.177, 99.412 51.394, 97.055 56.754 M 84.500 75 C 84.840 75.550, 85.316 76, 85.559 76 C 85.802 76, 86 75.550, 86 75 C 86 74.450, 85.523 74, 84.941 74 C 84.359 74, 84.160 74.450, 84.500 75 M 87.765 77.790 C 87.508 78.775, 88.368 81.137, 89.677 83.040 L 92.057 86.500 87.822 87 L 83.587 87.500 78.424 99 C 75.584 105.325, 73.369 110.630, 73.502 110.789 C 73.636 110.948, 85.302 107.823, 99.428 103.846 L 125.110 96.613 124.452 92.557 C 124.090 90.326, 123.483 88.165, 123.102 87.755 C 122.233 86.819, 91.362 76, 89.561 76 C 88.831 76, 88.023 76.806, 87.765 77.790 M 124.624 84.765 C 125.243 85.169, 126.064 87.075, 126.449 89 C 127.571 94.607, 128.098 96.057, 128.846 95.595 C 129.231 95.357, 129.576 98.493, 129.612 102.565 C 129.665 108.539, 129.365 110.067, 128.062 110.480 C 126.918 110.843, 125.401 115.219, 122.855 125.496 L 119.263 140 121.680 140 C 123.858 140, 123.292 140.995, 115.976 150.030 C 111.508 155.546, 107.999 160.498, 108.178 161.034 C 108.507 162.020, 141.195 184.139, 141.650 183.683 C 142.593 182.741, 153.990 132.372, 153.950 129.327 C 153.922 127.222, 152.664 116.500, 151.154 105.500 L 148.408 85.500 142.454 84.859 C 134.021 83.950, 123.291 83.894, 124.624 84.765 M 48.659 100.250 C 47.378 128.258, 47.819 139.241, 51.168 162.748 C 52.911 174.984, 54.585 184.748, 54.888 184.446 C 55.190 184.143, 59.130 174.807, 63.644 163.698 L 71.850 143.500 86.372 142.334 C 94.358 141.692, 101.667 141.017, 102.613 140.834 C 103.560 140.650, 95.484 136.969, 84.667 132.654 C 73.850 128.339, 65 124.255, 65 123.579 C 65 122.902, 68.540 114.450, 72.867 104.798 L 80.733 87.247 75.617 86.632 C 72.802 86.294, 65.732 86.013, 59.906 86.009 L 49.311 86 48.659 100.250 M 102.320 105.805 C 91.221 108.922, 82.221 111.555, 82.321 111.654 C 82.586 111.920, 124.245 108.090, 124.556 107.771 C 124.702 107.622, 125.137 105.813, 125.522 103.750 C 126.130 100.496, 125.976 100.009, 124.361 100.068 C 123.338 100.105, 113.419 102.687, 102.320 105.805 M 104 112.554 C 96.575 113.270, 88.138 114.117, 85.250 114.437 C 81.080 114.898, 80 114.721, 80 113.579 C 80 112.441, 79.342 112.328, 76.858 113.041 C 75.129 113.537, 73.408 113.752, 73.033 113.520 C 72.011 112.889, 67.758 122.174, 68.693 122.995 C 71.060 125.072, 111.172 140.109, 113.586 139.824 C 116.228 139.512, 116.470 138.968, 120.077 125.250 L 123.824 111 120.662 111.126 C 118.923 111.196, 111.425 111.839, 104 112.554" stroke="none" fill="black" fill-rule="evenodd"/>
</svg>