<svg xmlns="http://www.w3.org/2000/svg" width="200" height="200" viewBox="0 0 200 200" version="1.1">
	<path d="M 90.026 23.537 C 83.715 32.041, 77.996 39, 77.317 39 C 76.637 39, 66.545 36.975, 54.890 34.500 C 43.235 32.025, 33.173 30, 32.530 30 C 31.382 30, 22.422 75.756, 23.383 76.716 C 23.630 76.963, 32.586 70.153, 43.286 61.583 L 62.739 46 89.798 46 L 116.857 46 137.624 50 C 149.046 52.200, 158.528 54, 158.696 54 C 158.863 54, 159 53.387, 159 52.638 C 159 50.704, 128.825 44.993, 113 43.932 C 106.125 43.471, 91.893 43.073, 81.373 43.047 L 62.246 43 44.873 56.908 C 35.318 64.558, 27.361 70.682, 27.191 70.516 C 26.691 70.030, 33.192 34.572, 33.933 33.745 C 34.306 33.330, 44.126 35.017, 55.757 37.495 C 67.388 39.973, 77.500 42, 78.228 42 C 78.957 42, 84.425 35.475, 90.380 27.500 C 96.335 19.525, 101.532 13, 101.929 13 C 102.326 13, 108.238 19.560, 115.066 27.577 L 127.481 42.155 133.990 41.584 C 148.204 40.338, 175.846 38.782, 176.991 39.164 C 177.685 39.395, 173.393 45.339, 166.975 53.034 L 155.744 66.500 134.622 73.132 C 121.077 77.386, 113.397 80.280, 113.212 81.200 C 112.983 82.338, 116.086 82.997, 128.212 84.384 C 138.449 85.555, 147.630 87.325, 156 89.740 C 162.875 91.725, 168.703 93.511, 168.952 93.709 C 169.200 93.908, 162.983 100.503, 155.135 108.364 L 140.867 122.658 162.380 138.079 C 174.212 146.561, 183.917 153.754, 183.946 154.065 C 184.008 154.718, 141.025 157.358, 140.406 156.739 C 140.180 156.513, 135.446 143.317, 129.887 127.414 L 119.779 98.500 105.218 85.722 C 96.117 77.735, 90.304 73.296, 89.715 73.885 C 89.127 74.473, 94.066 84.602, 102.887 100.897 C 112.842 119.286, 117 127.930, 116.999 130.234 C 116.997 133.617, 112.072 183.283, 111.707 183.599 C 111.511 183.768, 75.391 169.880, 71.818 168.262 C 70.503 167.666, 72.955 165.344, 83.068 157.609 C 90.181 152.168, 96 147.106, 96 146.359 C 96 145.611, 95.710 145, 95.355 145 C 95 145, 81.554 149.275, 65.474 154.500 C 49.394 159.725, 35.960 164, 35.619 164 C 35.279 164, 35 163.097, 35 161.993 C 35 160.468, 42.320 155.163, 65.539 139.860 C 92.987 121.771, 99.284 116.792, 93.396 117.836 C 92.353 118.021, 84.075 120.194, 75 122.665 C 59.049 127.008, 32.829 133.163, 32.344 132.677 C 32.213 132.547, 45.358 122.813, 61.553 111.046 C 86.851 92.666, 93.629 87, 90.317 87 C 89.737 87, 60.987 96.008, 47.200 100.509 L 42.899 101.913 46.854 96.946 C 50.721 92.090, 50.825 91.747, 51.515 81.619 C 51.903 75.922, 52.511 70.792, 52.865 70.219 C 53.241 69.610, 60.364 68.908, 70.004 68.529 C 86.972 67.861, 141.768 61.413, 143.433 59.888 C 143.947 59.418, 144.084 58.751, 143.739 58.405 C 143.393 58.060, 130.598 59.445, 115.305 61.484 C 95.689 64.100, 82.011 65.353, 68.863 65.740 L 50.226 66.289 49.645 71.894 C 49.325 74.977, 48.773 80.698, 48.417 84.606 C 47.786 91.540, 47.617 91.893, 41.472 99.106 C 38.008 103.173, 35.301 106.628, 35.455 106.784 C 35.609 106.941, 45.739 103.873, 57.966 99.966 C 70.193 96.060, 80.367 93.034, 80.575 93.242 C 80.783 93.450, 68.364 102.791, 52.977 113.999 C 37.590 125.208, 25 134.968, 25 135.689 C 25 136.410, 25.163 137, 25.362 137 C 27.646 137, 54.245 130.972, 67.404 127.472 C 76.702 124.999, 84.478 123.145, 84.685 123.352 C 84.892 123.559, 73.146 131.552, 58.583 141.114 L 32.105 158.500 32.052 163.317 C 32.003 167.866, 32.126 168.095, 34.250 167.425 C 41.434 165.160, 82.986 151.800, 85.477 150.956 C 89.093 149.729, 89.122 149.703, 75.699 159.970 C 69.758 164.513, 65.044 168.377, 65.223 168.556 C 66.296 169.630, 112.602 186.983, 113.487 186.643 C 114.137 186.394, 115.697 174.413, 117.391 156.674 L 120.212 127.121 109.234 106.810 C 95.690 81.753, 95.817 82, 96.439 82 C 96.719 82, 101.572 86.131, 107.224 91.180 L 117.500 100.359 127.847 129.930 C 133.537 146.193, 138.329 159.642, 138.495 159.815 C 138.802 160.135, 189.767 157.089, 191.372 156.655 C 191.851 156.525, 181.635 148.787, 168.670 139.459 L 145.097 122.500 160.032 107.500 L 174.966 92.500 160.733 88.244 C 152.126 85.671, 141.757 83.384, 134.500 82.458 C 127.900 81.617, 122.109 80.814, 121.630 80.674 C 121.152 80.535, 129.027 77.790, 139.130 74.575 L 157.500 68.729 170.888 52.615 C 183.842 37.022, 184.185 36.489, 181.490 36.169 C 179.959 35.988, 167.441 36.569, 153.673 37.462 C 129.720 39.015, 128.569 39.008, 126.978 37.293 C 126.063 36.307, 120.003 29.313, 113.512 21.750 C 107.020 14.188, 101.661 8.016, 101.604 8.037 C 101.547 8.057, 96.337 15.032, 90.026 23.537" stroke="none" fill="black" fill-rule="evenodd"/>
</svg>