<svg xmlns="http://www.w3.org/2000/svg" width="200" height="200" viewBox="0 0 200 200" version="1.1">
	<path d="M 105.723 12.611 C 105.325 13.008, 105 18.883, 105 25.667 C 105 32.450, 104.859 38, 104.688 38 C 104.516 38, 100.353 36.616, 95.438 34.925 L 86.500 31.850 64.096 32.529 L 41.693 33.208 27.884 43.261 C 20.290 48.790, 14.329 53.724, 14.639 54.225 C 15.507 55.629, 16.914 54.795, 29.645 45.330 L 41.500 36.516 50.500 35.852 C 55.450 35.487, 65.574 35.146, 72.998 35.094 C 85.704 35.006, 87.052 35.189, 95.998 38.227 L 105.500 41.454 95 42.137 C 89.225 42.513, 75.667 43.133, 64.872 43.515 L 45.243 44.209 33.042 61.725 C 25.053 73.192, 21.179 79.579, 21.822 80.222 C 22.808 81.208, 23.394 80.447, 39.500 57.302 L 46.500 47.242 56.500 46.644 C 62 46.314, 75.095 45.751, 85.600 45.391 L 104.700 44.736 105.402 52.483 C 105.788 56.743, 105.877 60.456, 105.600 60.734 C 105.322 61.011, 97.761 60.776, 88.797 60.212 L 72.500 59.185 57.771 68.842 C 49.670 74.154, 43.033 78.739, 43.021 79.030 C 43.010 79.322, 49.457 86.300, 57.350 94.537 C 71.024 108.808, 71.732 109.748, 72.388 114.507 C 72.766 117.253, 73.295 120.625, 73.563 122 L 74.051 124.500 53.386 124.159 L 32.721 123.818 33.329 129.659 C 33.664 132.872, 34.696 147.200, 35.623 161.500 C 36.550 175.800, 37.399 187.623, 37.510 187.773 C 37.621 187.923, 46.712 184.011, 57.713 179.080 L 77.714 170.114 103.607 171.070 C 122.564 171.771, 133.877 172.713, 145.840 174.590 C 154.827 175.999, 162.309 177.006, 162.466 176.826 C 162.792 176.454, 165.979 117.645, 165.689 117.357 C 165.585 117.254, 160.325 118.237, 154 119.543 C 137.457 122.958, 138.677 123.319, 136.569 114.379 C 134.507 105.631, 134.543 105.570, 142.277 104.654 C 145.065 104.323, 147.647 103.704, 148.013 103.277 C 148.380 102.849, 151.280 92.825, 154.459 81 L 160.239 59.500 170.552 45.516 C 176.225 37.825, 180.783 31.450, 180.682 31.349 C 180.581 31.248, 168.124 32.918, 152.999 35.060 C 137.875 37.202, 124.746 38.965, 123.824 38.977 C 122.712 38.992, 119.924 35.011, 115.539 27.144 C 107.835 13.321, 106.697 11.637, 105.723 12.611 M 108 29.162 L 108.500 39.329 112 40.589 C 115.867 41.980, 120 42.367, 120 41.337 C 120 40.718, 108.004 19.003, 107.659 18.998 C 107.571 18.996, 107.725 23.571, 108 29.162 M 155 37.480 C 146.475 38.709, 135.450 40.342, 130.500 41.108 L 121.500 42.500 139.348 43 L 157.196 43.500 143.702 54.250 C 130.954 64.406, 129.954 65, 125.604 65 C 123.008 65, 121 65.465, 121 66.067 C 121 66.654, 121.835 66.870, 122.855 66.546 C 124.517 66.018, 125.173 67.863, 129.142 84.229 L 133.573 102.500 139.036 102.170 C 142.041 101.988, 144.893 101.460, 145.374 100.996 C 145.855 100.532, 148.837 90.707, 152.002 79.163 L 157.756 58.173 166.372 46.586 C 173.753 36.660, 174.667 35.018, 172.744 35.122 C 171.510 35.189, 163.525 36.250, 155 37.480 M 108 52.893 C 108 61.599, 108.293 62, 114.654 62 L 118.144 62 117.510 56.250 C 116.261 44.933, 116.294 45, 111.921 45 L 108 45 108 52.893 M 119.490 50.750 C 120.693 61.653, 120.737 61.749, 124.807 62.245 C 128.192 62.658, 129.355 62.019, 138.742 54.598 L 148.984 46.500 141.742 45.881 C 137.759 45.540, 130.980 45.203, 126.678 45.131 L 118.856 45 119.490 50.750 M 60.237 70.361 C 53.493 74.943, 47.721 78.946, 47.411 79.256 C 47.101 79.566, 52.986 86.130, 60.489 93.844 L 74.130 107.868 75.561 116.684 C 76.348 121.533, 76.994 125.884, 76.996 126.353 C 76.998 126.822, 67.775 127.047, 56.500 126.853 C 45.225 126.659, 36 126.738, 36 127.029 C 36.001 129.458, 40.051 183.380, 40.246 183.561 C 40.386 183.691, 48.825 180.089, 59 175.557 L 77.500 167.317 103 168.192 C 121.431 168.824, 132.785 169.739, 143.958 171.492 C 152.460 172.826, 159.556 173.777, 159.727 173.606 C 160.239 173.094, 162.947 121.614, 162.486 121.153 C 162.252 120.919, 156.861 121.750, 150.506 122.999 C 140.932 124.880, 139.033 125.547, 139.432 126.885 C 139.696 127.773, 140.673 131.582, 141.603 135.349 L 143.293 142.197 130.896 154.435 L 118.500 166.672 90.500 166.086 C 68.315 165.622, 62.500 165.227, 62.500 164.184 C 62.500 163.410, 71.735 159.068, 84.946 153.632 L 107.393 144.397 107.109 129.480 C 106.863 116.507, 106.568 114.203, 104.850 111.789 C 102.796 108.905, 103.079 107, 105.559 107 C 106.560 107, 106.996 105.855, 106.986 103.250 C 106.957 95.223, 107.005 95.259, 95.157 94.474 C 89.296 94.086, 82.792 93.483, 80.705 93.134 L 76.909 92.500 91.205 84.408 L 105.500 76.316 105.795 70.268 L 106.090 64.219 96.795 63.588 C 91.683 63.240, 84.125 62.748, 80 62.493 L 72.500 62.030 60.237 70.361 M 109 68.912 C 109 71.710, 109.168 74, 109.374 74 C 110.954 74, 119 68.545, 119 67.474 C 119 65.708, 118.340 65.370, 113.250 64.527 L 109 63.824 109 68.912 M 122 71.610 C 122 72.678, 122.427 77.141, 122.949 81.526 C 123.471 85.912, 124.033 91.075, 124.199 93 L 124.500 96.500 116.750 96.147 L 109 95.794 109 100.730 C 109 103.445, 109.221 105.888, 109.491 106.158 C 109.938 106.605, 130.109 104.088, 130.793 103.500 C 131.156 103.187, 123.019 70.686, 122.429 70.096 C 122.193 69.860, 122 70.541, 122 71.610 M 113.754 74.816 L 109.008 77.500 109.004 85.250 L 109 93 113.418 93 C 115.848 93, 118.612 93.298, 119.560 93.661 C 121.146 94.270, 121.225 93.580, 120.555 85.014 C 119.500 71.530, 119.517 71.556, 113.754 74.816 M 95.774 84.843 L 86.048 90.500 90.274 91.176 C 92.598 91.548, 97.088 91.885, 100.250 91.926 L 106 92 106 85.500 C 106 81.925, 105.888 79.042, 105.750 79.093 C 105.612 79.143, 101.123 81.731, 95.774 84.843 M 120.250 107.837 L 110 109.379 110 112.244 C 110 113.934, 111.625 117.502, 113.960 120.941 L 117.920 126.773 124.710 125.390 C 128.445 124.630, 132.453 123.787, 133.619 123.518 L 135.738 123.028 133.664 114.514 C 132.524 109.831, 131.345 106.066, 131.045 106.147 C 130.745 106.228, 125.888 106.988, 120.250 107.837 M 109.987 133.750 L 109.973 146.500 90.237 154.500 L 70.500 162.500 93.913 163.332 L 117.326 164.164 128.779 152.711 L 140.231 141.258 138.433 133.629 C 137.444 129.433, 136.154 126.018, 135.567 126.039 C 134.980 126.061, 130.454 126.924, 125.508 127.957 C 120.563 128.990, 116.288 129.505, 116.008 129.102 C 115.729 128.698, 114.451 126.710, 113.168 124.684 C 111.886 122.658, 110.649 121, 110.418 121 C 110.188 121, 109.994 126.737, 109.987 133.750" stroke="none" fill="black" fill-rule="evenodd"/>
</svg>