<svg xmlns="http://www.w3.org/2000/svg" width="200" height="200" viewBox="0 0 200 200" version="1.1">
	<path d="M 97.509 25.750 C 92.683 34.963, 88.290 43.063, 87.745 43.750 C 86.462 45.371, 74 45.478, 74 43.868 C 74 43.128, 75.364 42.920, 77.943 43.266 C 82.522 43.880, 82.162 44.766, 84.051 28.261 C 85.194 18.266, 84.841 13.706, 83.068 15.583 C 82.591 16.087, 80.283 21.225, 77.938 27 C 75.594 32.775, 73.383 37.844, 73.025 38.263 C 72.666 38.683, 63.059 36.926, 51.674 34.359 C 40.290 31.792, 30.703 29.964, 30.370 30.297 C 29.628 31.039, 19.837 76.170, 20.315 76.648 C 20.502 76.836, 30.233 70.467, 41.939 62.495 C 57.554 51.860, 64.014 48, 66.194 48 C 67.829 48, 69.017 48.366, 68.833 48.814 C 68.650 49.262, 66.269 54.959, 63.542 61.475 L 58.583 73.322 53.361 67.576 L 48.139 61.830 46.636 64.736 C 45.217 67.482, 30.126 100.037, 23.850 113.895 L 20.954 120.290 26.727 119.657 C 29.902 119.309, 34.758 118.743, 37.519 118.400 L 42.537 117.776 46.395 135.054 L 50.254 152.331 33.127 168.753 C 18.423 182.852, 13.995 188, 16.572 188 C 17.841 188, 66.617 161.628, 68.134 160.122 C 69.032 159.230, 75.940 147.925, 83.484 135 C 91.028 122.075, 97.390 111.303, 97.621 111.063 C 97.852 110.822, 99.944 111.548, 102.270 112.676 L 106.500 114.727 106.500 146.113 L 106.500 177.500 135.496 180.763 C 151.444 182.557, 164.977 183.839, 165.570 183.611 C 166.488 183.259, 190 141.914, 190 140.652 C 190 140.407, 178.893 144.878, 165.317 150.587 C 151.741 156.296, 140.440 160.774, 140.204 160.538 C 139.746 160.080, 137.094 148.249, 137.035 146.402 C 137.016 145.798, 145.549 137.698, 155.998 128.402 C 166.446 119.106, 174.993 111.275, 174.991 111 C 174.981 110.022, 163.154 65.821, 162.810 65.476 C 162.235 64.902, 111.463 72.703, 98.702 75.327 C 87.521 77.625, 86.590 77.673, 80.913 76.243 C 77.618 75.413, 75.052 74.417, 75.211 74.030 C 75.370 73.642, 78.611 67.402, 82.414 60.162 L 89.327 47 103.469 47 L 117.611 47 133.277 55.583 L 148.943 64.166 167.971 57.853 C 179.370 54.071, 187 51.030, 187 50.270 C 187 49.571, 186.663 49, 186.251 49 C 185.839 49, 177.290 51.737, 167.254 55.082 L 149.007 61.164 133.499 52.610 L 117.991 44.056 104.597 43.778 L 91.202 43.500 98.962 28.697 L 106.721 13.893 117.342 29.947 C 123.183 38.776, 128.308 46.014, 128.731 46.031 C 129.154 46.048, 140.412 43.049, 153.750 39.367 C 169.974 34.888, 178 32.230, 178 31.336 C 178 30.601, 177.824 30, 177.609 30 C 177.394 30, 166.707 32.924, 153.859 36.498 C 141.012 40.072, 130.229 42.997, 129.897 42.998 C 129.565 42.999, 124.212 35.350, 118 26 C 111.788 16.650, 106.611 9, 106.495 9 C 106.378 9, 102.335 16.537, 97.509 25.750 M 78.179 33.282 C 75.537 39.656, 75.537 39.646, 77.885 40.260 C 79.526 40.689, 79.857 39.981, 80.446 34.771 C 80.819 31.481, 80.951 28.618, 80.740 28.407 C 80.530 28.197, 79.377 30.390, 78.179 33.282 M 32 33.274 C 32 33.552, 30.225 42.030, 28.057 52.113 C 25.888 62.197, 24.234 70.567, 24.381 70.714 C 24.528 70.861, 33.243 65.135, 43.748 57.991 C 60.517 46.585, 63.345 45, 66.924 45 C 70.145 45, 71 44.631, 71 43.244 C 71 41.788, 68.054 40.822, 53.750 37.588 C 31.915 32.652, 32 32.668, 32 33.274 M 76.661 47.907 L 71.821 48.500 67.449 59 C 65.044 64.775, 63.059 70.008, 63.038 70.628 C 62.994 71.947, 71.156 74.246, 72.189 73.206 C 72.861 72.529, 86 47.868, 86 47.284 C 86 46.932, 82.965 47.135, 76.661 47.907 M 37.136 91.557 C 30.893 105.066, 25.991 116.325, 26.243 116.576 C 26.495 116.828, 29.806 116.585, 33.600 116.037 C 45.645 114.296, 44.093 112.475, 48.963 134.066 L 53.263 153.133 39.382 166.620 L 25.500 180.107 38 173.599 C 44.875 170.019, 54.094 165.158, 58.487 162.795 L 66.473 158.500 81.140 133.532 C 89.207 119.800, 96.308 108.397, 96.920 108.193 C 97.532 107.989, 100.500 108.845, 103.516 110.095 L 109 112.368 109 143.596 L 109 174.824 112.750 175.398 C 120.848 176.636, 163.224 181.092, 164.105 180.798 C 165.046 180.485, 184.090 146.756, 183.602 146.268 C 183.458 146.125, 173.252 150.244, 160.922 155.422 C 148.591 160.600, 138.345 164.679, 138.153 164.486 C 137.961 164.294, 135.226 151.565, 132.076 136.200 L 126.349 108.264 136.790 95.382 C 146.888 82.925, 150 80.111, 150 83.436 C 150 84.668, 140.574 130.012, 138.605 138.250 C 138.375 139.213, 138.370 140, 138.593 140 C 138.930 140, 164.410 117.518, 170.300 112.024 C 172.027 110.413, 171.876 109.500, 166.598 89.554 C 163.572 78.118, 160.962 68.639, 160.798 68.489 C 160.245 67.983, 109.598 75.840, 98 78.232 C 86.791 80.543, 86.335 80.561, 80 78.923 L 73.500 77.242 71.332 81.371 L 69.165 85.500 71.753 88.233 C 74.324 90.947, 74.328 90.981, 72.421 93.220 C 63.841 103.288, 54.483 113, 53.360 113 C 52.612 113, 52 112.791, 52 112.535 C 52 112.279, 55.113 106.132, 58.917 98.874 L 65.835 85.678 57.721 76.589 C 53.258 71.590, 49.355 67.387, 49.047 67.248 C 48.739 67.109, 43.379 78.048, 37.136 91.557 M 62.620 78.406 C 64.754 80.829, 66.765 82.854, 67.089 82.906 C 67.725 83.007, 70 78.446, 70 77.072 C 70 76.286, 62.504 74, 59.927 74 C 59.274 74, 60.486 75.983, 62.620 78.406 M 63.413 96.182 L 59.732 103.500 64.616 98.075 C 69.480 92.672, 70.585 90.028, 68.297 89.266 C 67.613 89.038, 65.504 92.024, 63.413 96.182 M 137.296 98.997 L 129.222 108.958 132.081 122.229 C 133.653 129.528, 134.953 136.138, 134.970 136.917 C 134.986 137.696, 135.219 138.115, 135.486 137.847 C 136.181 137.152, 146.198 89.865, 145.746 89.412 C 145.539 89.206, 141.737 93.519, 137.296 98.997" stroke="none" fill="black" fill-rule="evenodd"/>
</svg>