<svg xmlns="http://www.w3.org/2000/svg" width="200" height="200" viewBox="0 0 200 200" version="1.1">
	<path d="M 94.828 19.798 L 85.156 32.503 70.828 37.779 C 62.948 40.681, 55.970 43.042, 55.322 43.027 C 54.675 43.012, 48.031 40.808, 40.559 38.128 C 27.351 33.392, 26.961 33.316, 26.531 35.378 C 25.717 39.282, 21.796 81.887, 22.152 82.957 C 22.346 83.537, 27.869 77.708, 34.426 70.003 C 40.983 62.299, 47.057 55.357, 47.924 54.577 C 48.909 53.691, 54.935 52.551, 64 51.536 C 83.484 49.355, 85 49.048, 85 47.282 C 85 46.459, 84.438 46.001, 83.750 46.263 C 83.063 46.526, 74.671 47.568, 65.102 48.579 L 47.704 50.417 36.697 63.220 C 30.643 70.262, 25.580 75.905, 25.445 75.762 C 25.157 75.453, 28.976 37.691, 29.332 37.335 C 29.465 37.202, 35.124 39.097, 41.906 41.546 C 48.688 43.996, 54.848 46, 55.593 46 C 56.339 46, 63.693 43.477, 71.937 40.393 L 86.925 34.785 95.166 23.960 C 99.699 18.005, 103.705 13.318, 104.070 13.543 C 104.434 13.768, 106.436 19.990, 108.518 27.370 C 112.243 40.571, 112.354 40.796, 115.402 41.287 C 117.106 41.561, 131.325 42.806, 147 44.054 C 162.675 45.302, 175.870 46.643, 176.323 47.034 C 177.174 47.770, 161.828 61.571, 144.658 75.510 C 132.513 85.370, 106.764 115.287, 109.971 115.811 C 111.017 115.982, 121.465 115.211, 133.187 114.097 C 147.763 112.711, 157.029 112.297, 162.500 112.785 L 170.500 113.500 158.912 116.750 C 147.633 119.914, 146.802 120, 127.662 120 C 116.848 120, 108.012 120.338, 108.028 120.750 C 108.043 121.162, 109.140 132.050, 110.466 144.945 C 111.792 157.840, 112.691 168.691, 112.463 169.059 C 112.236 169.428, 104.774 172.756, 95.882 176.457 L 79.715 183.184 67.857 171.358 C 61.336 164.853, 56 159.062, 56 158.488 C 56 157.913, 63.757 155.737, 73.237 153.651 C 82.718 151.565, 90.609 149.724, 90.773 149.561 C 90.936 149.397, 88.398 142.116, 85.133 133.382 C 80.099 119.918, 79.447 117.452, 80.848 117.183 C 81.756 117.008, 90.231 107.108, 99.680 95.183 C 116.490 73.968, 116.798 73.493, 113.964 73.189 C 112.371 73.018, 100.601 73.329, 87.809 73.881 C 75.016 74.432, 64.415 74.749, 64.251 74.584 C 64.087 74.420, 64.259 73.488, 64.634 72.512 C 65.269 70.857, 66.825 70.785, 87.907 71.438 L 110.500 72.138 128.994 66.992 C 139.166 64.161, 147.691 61.642, 147.939 61.394 C 148.187 61.146, 145.277 57.806, 141.472 53.972 L 134.554 47 111.777 47 C 91.536 47, 89 47.179, 89 48.605 C 89 50.050, 91.163 50.140, 110.750 49.514 L 132.500 48.818 137.929 54.372 C 141.767 58.298, 142.939 60.075, 141.929 60.437 C 141.143 60.718, 133.750 62.820, 125.500 65.108 L 110.500 69.267 87.385 68.565 L 64.270 67.863 61.547 72.510 C 60.049 75.066, 58.990 77.323, 59.192 77.526 C 59.395 77.728, 69.768 77.438, 82.242 76.881 C 94.717 76.324, 106.300 76.010, 107.982 76.184 L 111.040 76.500 96.270 95.211 L 81.500 113.923 58.500 114.010 L 35.500 114.097 29.285 117.299 C 18.793 122.703, 21.261 123.088, 50 120.536 C 64.025 119.290, 75.814 118.547, 76.198 118.885 C 76.933 119.534, 87 145.689, 87 146.952 C 87 147.357, 79.463 149.357, 70.250 151.398 C 61.037 153.439, 52.715 155.422, 51.756 155.804 C 50.340 156.369, 52.660 159.274, 64.089 171.250 C 71.831 179.363, 78.632 186, 79.201 186 C 80.395 186, 114.149 172.043, 115.196 171.116 C 115.579 170.777, 114.819 159.950, 113.508 147.055 C 112.196 134.160, 111.347 123.248, 111.620 122.805 C 111.894 122.362, 120.766 122, 131.336 122 L 150.555 122 165.831 117.613 C 174.233 115.200, 181.354 112.980, 181.654 112.679 C 181.954 112.379, 181.904 111.653, 181.541 111.067 C 180.541 109.448, 147.837 109.744, 130.005 111.532 C 121.604 112.374, 114.591 112.925, 114.421 112.755 C 114.251 112.585, 119.206 106.383, 125.431 98.973 C 132.791 90.212, 140.275 82.605, 146.831 77.221 C 160.631 65.888, 183.436 46.050, 183.788 45.072 C 183.947 44.631, 176.747 43.702, 167.788 43.007 C 158.830 42.311, 143.185 41.010, 133.022 40.116 L 114.544 38.489 110.084 22.745 C 107.631 14.085, 105.371 7.021, 105.062 7.047 C 104.753 7.072, 100.148 12.810, 94.828 19.798 M 35.500 117.554 C 32.636 118.951, 32.816 118.994, 39.500 118.516 C 43.350 118.240, 47.962 118.011, 49.750 118.007 C 51.538 118.003, 53 117.550, 53 117 C 53 115.432, 38.937 115.877, 35.500 117.554" stroke="none" fill="black" fill-rule="evenodd"/>
</svg>