<svg xmlns="http://www.w3.org/2000/svg" width="200" height="200" viewBox="0 0 200 200" version="1.1">
	<path d="M 107.070 23.601 C 97.496 27.961, 92.843 29.491, 86.820 30.260 C 81.578 30.930, 79 31.688, 79 32.560 C 79 33.275, 79.982 34.005, 81.182 34.180 C 82.643 34.395, 79.649 36.138, 72.109 39.464 C 65.919 42.194, 60.641 44.772, 60.380 45.194 C 59.788 46.151, 56.781 87.114, 57.267 87.600 C 57.462 87.795, 63.219 83.092, 70.061 77.149 C 78.755 69.597, 91.048 60.707, 110.890 47.625 C 126.504 37.330, 139.742 28.815, 140.307 28.703 C 140.872 28.592, 141.778 29.975, 142.320 31.778 C 143.106 34.392, 142.990 35.304, 141.747 36.278 C 137.458 39.641, 136.365 152, 140.621 152 C 141.377 152, 145.154 145.678, 149.078 137.844 L 156.169 123.689 155.461 106.094 C 155.072 96.417, 154.989 88.725, 155.278 89 C 155.566 89.275, 160.364 100.450, 165.940 113.834 L 176.077 138.168 173.033 159.256 C 171.359 170.855, 169.837 180.496, 169.651 180.682 C 169.466 180.868, 161.717 177.383, 152.432 172.938 L 135.551 164.856 118.683 166.502 C 109.405 167.407, 101.659 167.992, 101.469 167.802 C 101.279 167.612, 105.406 157.567, 110.639 145.478 L 120.155 123.500 119.449 92.337 L 118.744 61.175 113.019 59.087 C 109.871 57.939, 106.778 57, 106.147 57 C 105.309 57, 105 65.203, 105 87.422 L 105 117.844 91.835 144.924 C 84.594 159.818, 78.469 171.802, 78.222 171.556 C 77.976 171.309, 77.167 168.271, 76.425 164.804 C 75.148 158.844, 75.318 156.727, 79.545 126 C 82.004 108.125, 84.234 92.534, 84.501 91.354 C 84.792 90.068, 84.424 88.993, 83.582 88.670 C 82.586 88.288, 78.615 94.541, 69.933 110.162 C 57.913 131.787, 57.541 132.646, 49.738 156.846 C 45.366 170.406, 41.499 181.810, 41.144 182.190 C 40.790 182.569, 37.196 176.944, 33.158 169.690 L 25.816 156.500 27.465 139.500 C 30.410 109.130, 36.196 78.149, 43.340 54.500 C 47.563 40.518, 49.318 33.294, 48.592 32.884 C 47.991 32.545, 44.125 31.438, 40 30.425 L 32.500 28.582 58 25.783 C 85.101 22.808, 86.894 22.494, 85.385 20.985 C 84.785 20.385, 73.393 21.231, 54.479 23.279 C 30.010 25.929, 24.469 26.805, 24.226 28.065 C 23.995 29.264, 26.277 30.128, 34.498 31.952 C 40.310 33.243, 45.286 34.653, 45.554 35.087 C 45.822 35.520, 43.313 45, 39.979 56.151 C 33.302 78.487, 27.537 109.915, 24.483 140.627 L 22.880 156.753 31.992 173.096 C 37.004 182.084, 41.260 189.594, 41.450 189.783 C 41.640 189.973, 45.931 177.387, 50.985 161.814 C 59.823 134.585, 60.562 132.801, 70.266 115.262 C 75.816 105.230, 80.461 97.130, 80.589 97.262 C 80.717 97.393, 78.877 111.185, 76.499 127.911 L 72.177 158.322 74.297 169.161 C 75.463 175.122, 76.699 180, 77.044 180 C 77.388 180, 84.361 166.387, 92.539 149.750 L 107.408 119.500 107.819 89.876 L 108.230 60.251 111.961 61.717 L 115.692 63.182 116.343 80.341 C 116.701 89.779, 116.995 103.400, 116.997 110.611 L 117 123.721 106.962 146.989 C 101.441 159.787, 97.148 170.481, 97.421 170.755 C 97.695 171.028, 106.374 170.479, 116.709 169.534 L 135.500 167.817 153.381 176.444 C 163.216 181.189, 171.515 184.819, 171.823 184.510 C 172.132 184.202, 173.853 173.555, 175.648 160.851 L 178.912 137.753 167.029 109.280 L 155.146 80.806 163.005 54.668 C 167.328 40.293, 170.673 28.339, 170.438 28.105 C 170.100 27.766, 152.154 32.892, 147.385 34.690 C 146.757 34.927, 145.448 32.578, 144.385 29.305 L 142.500 23.500 134.500 21.224 C 120.754 17.312, 120.910 17.299, 107.070 23.601 M 112 24.571 C 107.514 26.686, 105.705 27.904, 107.500 27.603 C 109.150 27.326, 114.775 26.588, 120 25.962 C 132.343 24.483, 133.460 24.020, 128.500 22.433 C 122.346 20.465, 120.095 20.757, 112 24.571 M 113 29.587 L 95.500 31.964 79.500 39.130 C 70.700 43.071, 63.279 46.488, 63.008 46.723 C 62.549 47.122, 59.942 81.276, 60.341 81.674 C 60.441 81.774, 65.133 77.853, 70.768 72.961 C 76.882 67.655, 92.104 56.748, 108.507 45.923 C 123.628 35.944, 136 27.604, 136 27.389 C 136 26.678, 130.665 27.187, 113 29.587 M 156 34.741 C 151.325 36.187, 147.393 37.432, 147.262 37.507 C 147.130 37.582, 148.634 43.236, 150.604 50.072 C 152.573 56.907, 154.483 64.242, 154.848 66.372 C 155.471 70.004, 155.775 69.354, 159.766 55.872 C 162.106 47.967, 164.670 39.362, 165.463 36.750 C 167.176 31.106, 167.513 31.178, 156 34.741 M 142.973 39.750 C 142.958 40.163, 142.317 52.541, 141.549 67.259 C 140.179 93.513, 140.475 142.557, 142.008 143.505 C 142.392 143.742, 145.074 139.407, 147.969 133.871 L 153.233 123.806 152.579 94.653 L 151.925 65.500 148.280 52.250 C 146.276 44.962, 144.268 39, 143.818 39 C 143.368 39, 142.988 39.337, 142.973 39.750" stroke="none" fill="black" fill-rule="evenodd"/>
</svg>