<svg xmlns="http://www.w3.org/2000/svg" width="200" height="200" viewBox="0 0 200 200" version="1.1">
	<path d="M 137.737 22.447 L 127.999 29.744 111.749 30.401 C 102.812 30.762, 88.750 31.521, 80.500 32.088 C 72.250 32.655, 58.786 33.429, 50.581 33.809 C 40.113 34.294, 35.539 34.870, 35.251 35.740 C 34.929 36.712, 44.889 37.036, 81.399 37.240 L 127.958 37.500 120.919 47.500 C 117.047 53, 113.344 58.033, 112.689 58.685 C 111.975 59.398, 106.213 60.152, 98.250 60.576 L 85 61.282 85 76.484 L 85 91.687 69.250 92.340 C 60.587 92.699, 47.425 93, 40 93.008 C 32.575 93.016, 24.830 93.298, 22.788 93.636 L 19.076 94.249 25 98.078 L 30.924 101.907 49.060 100.888 L 67.196 99.869 76.598 103.512 L 86 107.155 86 124.929 L 86 142.702 77.250 148.894 C 67.722 155.638, 67.792 155.624, 54 153.306 L 50.500 152.717 52.500 155.086 C 53.600 156.389, 59.427 162.753, 65.448 169.227 L 76.396 181 85.948 180.942 C 91.202 180.911, 97.276 180.569, 99.447 180.184 L 103.394 179.483 110.200 164.713 L 117.007 149.943 115.083 134.222 L 113.159 118.500 118.830 109.143 L 124.500 99.785 131 100.361 C 151.011 102.132, 158.941 102.170, 171.969 100.560 C 179.377 99.644, 185.621 98.712, 185.845 98.489 C 186.068 98.265, 184.957 96.994, 183.376 95.665 C 181.794 94.335, 175.325 88.933, 169 83.659 L 157.500 74.070 152.006 80.285 C 148.985 83.703, 144.631 88.521, 142.331 90.992 L 138.149 95.484 126.325 91.628 C 119.821 89.507, 114.099 87.399, 113.609 86.945 C 113.097 86.469, 114.347 81.439, 116.547 75.123 L 120.377 64.128 134.438 57.510 C 142.172 53.870, 154.265 47.837, 161.311 44.102 L 174.121 37.312 162.311 27.396 C 155.815 21.942, 149.820 16.956, 148.988 16.315 C 147.755 15.365, 145.679 16.496, 137.737 22.447 M 137.500 26.043 L 128.500 32.962 115.500 33.149 C 101.257 33.354, 103.371 33.821, 120.419 34.235 C 127.150 34.398, 131.475 34.916, 131.697 35.584 C 131.894 36.181, 127.878 42.481, 122.770 49.584 L 113.485 62.500 107.992 62.734 C 104.972 62.862, 99.237 63.238, 95.250 63.569 L 88 64.171 87.995 69.835 C 87.992 72.951, 87.699 79.888, 87.344 85.250 L 86.698 95 73.099 95.135 C 65.620 95.210, 52.300 95.547, 43.500 95.885 C 29.573 96.420, 27.799 96.671, 29.810 97.818 C 31.677 98.882, 35.526 98.934, 49.847 98.090 L 67.574 97.046 77.537 100.959 L 87.500 104.872 88.141 110.686 C 88.494 113.884, 88.832 122.655, 88.891 130.177 L 89 143.853 78.884 150.984 L 68.768 158.115 63.137 157.411 L 57.506 156.708 67.650 167.623 L 77.794 178.539 89.147 178.173 C 95.391 177.972, 100.803 177.514, 101.174 177.154 C 101.545 176.794, 104.601 170.474, 107.966 163.110 L 114.083 149.720 112.229 133.635 L 110.375 117.551 116.871 107.167 L 123.366 96.783 129.433 97.355 C 135.310 97.909, 135.097 97.789, 122.610 93.491 C 115.521 91.051, 109.556 88.889, 109.354 88.688 C 109.153 88.486, 111.066 82.430, 113.607 75.230 L 118.226 62.138 128.363 57.369 C 140.747 51.541, 167.222 38.103, 168.243 37.125 C 169.019 36.383, 148.872 18.954, 147.363 19.062 C 146.888 19.096, 142.450 22.237, 137.500 26.043 M 148.780 87.919 C 138.768 99.261, 138.647 98.911, 152.633 99.068 C 159.275 99.142, 178.947 97.328, 179.753 96.566 C 180.013 96.321, 158.290 77.984, 157.782 78.020 C 157.627 78.031, 153.576 82.486, 148.780 87.919" stroke="none" fill="black" fill-rule="evenodd"/>
</svg>