<svg xmlns="http://www.w3.org/2000/svg" width="200" height="200" viewBox="0 0 200 200" version="1.1">
	<path d="M 96.591 26.516 C 98.523 31.308, 99.915 35.418, 99.684 35.650 C 99.452 35.881, 85.366 34.785, 68.381 33.214 C 51.397 31.643, 37.367 30.448, 37.204 30.558 C 37.041 30.669, 38.166 33.350, 39.704 36.517 C 42.083 41.416, 43.090 42.471, 46.459 43.591 C 51.851 45.385, 90.972 63.362, 90.988 64.054 C 90.994 64.358, 88.300 69.174, 85 74.755 C 81.700 80.337, 79 85.058, 79 85.246 C 79 85.435, 81.265 87.316, 84.034 89.428 C 86.802 91.539, 88.898 93.435, 88.692 93.641 C 88.247 94.086, 49.863 85.197, 49.150 84.483 C 48.880 84.213, 49.920 76.553, 51.462 67.462 C 53.003 58.370, 54.050 50.716, 53.788 50.454 C 53.526 50.192, 44.182 59.449, 33.024 71.024 C 21.866 82.599, 12.908 92.236, 13.118 92.438 C 13.328 92.641, 25.613 94.762, 40.417 97.153 L 67.335 101.500 58.828 108.722 L 50.322 115.943 40.411 117.021 C 27.537 118.422, 25.777 118.828, 26.258 120.287 C 26.509 121.048, 29.704 121.686, 34.832 122 L 43.007 122.500 31.343 132.448 C 22.620 139.888, 20.035 142.610, 21.090 143.248 C 21.865 143.717, 28.804 147.566, 36.510 151.801 C 44.215 156.035, 58.030 164.988, 67.209 171.696 C 80.475 181.390, 84 183.544, 84.388 182.196 C 84.657 181.263, 86.507 172.175, 88.500 162 C 90.493 151.825, 92.368 142.659, 92.667 141.630 C 93.156 139.948, 94.054 139.804, 101.592 140.200 C 106.202 140.442, 110.176 140.843, 110.424 141.091 C 110.672 141.338, 111.877 151.657, 113.102 164.021 C 114.327 176.384, 115.647 186.870, 116.036 187.321 C 116.424 187.773, 125.013 183.670, 135.121 178.205 C 145.908 172.372, 153.892 168.625, 154.450 169.134 C 155.961 170.512, 157 170.145, 157 168.234 C 157 166.995, 160.431 164.679, 168.483 160.484 C 174.799 157.193, 179.966 154.050, 179.966 153.500 C 179.965 152.950, 177.117 143.275, 173.637 132 C 169.577 118.846, 164.179 104.381, 158.572 91.633 C 153.766 80.707, 150.208 71.425, 150.667 71.007 C 151.125 70.589, 154.425 69.285, 158 68.108 C 161.575 66.932, 165.153 65.556, 165.951 65.051 C 167.507 64.067, 166.338 63.480, 135.500 49.762 C 126.700 45.848, 119.142 42.345, 118.705 41.977 C 118.267 41.610, 128.167 41.015, 140.705 40.655 C 164.728 39.965, 169 39.502, 169 37.589 C 169 36.655, 133.401 27.352, 95.289 18.326 C 93.143 17.818, 93.182 18.062, 96.591 26.516 M 98 22.348 C 98 22.539, 99.245 25.734, 100.767 29.447 C 104.678 38.990, 105.608 39.260, 132 38.496 C 143.275 38.169, 153.850 37.628, 155.500 37.292 C 157.775 36.829, 151.371 34.919, 129 29.389 C 98.877 21.944, 98 21.745, 98 22.348 M 42 34.453 C 42 34.702, 42.522 36.052, 43.161 37.453 C 44.265 39.877, 44.711 40, 52.411 39.997 C 56.860 39.995, 68.375 39.680, 78 39.296 L 95.500 38.598 72.500 36.368 C 49.009 34.091, 42 33.651, 42 34.453 M 57.222 42.831 C 56.404 43.357, 63.247 46.378, 76.222 51.220 C 93.703 57.743, 96.500 59.075, 96.500 60.875 C 96.500 62.476, 98.151 63.756, 103.575 66.359 C 115.850 72.249, 115.485 72.901, 108.944 56.775 L 103.154 42.500 80.827 42.255 C 68.547 42.120, 57.925 42.379, 57.222 42.831 M 106.167 42.774 C 106.350 43.199, 109.169 50.177, 112.431 58.279 L 118.363 73.010 125.431 76.252 C 129.319 78.034, 135.425 80.889, 139 82.595 L 145.500 85.697 135.750 87.930 C 130.387 89.159, 126 90.501, 126 90.912 C 126 91.324, 127.063 94.324, 128.362 97.580 C 130.359 102.584, 131.369 103.818, 134.891 105.555 C 139.178 107.669, 139.377 109, 135.406 109 C 133.165 109, 133.179 109.085, 136.902 118.250 L 140.660 127.500 150.955 127.125 C 159.364 126.818, 161.167 127.001, 160.795 128.125 C 160.470 129.105, 158.067 129.577, 152.420 129.770 C 148.064 129.918, 143.967 130.230, 143.315 130.463 C 142.526 130.746, 144.307 136.319, 148.662 147.193 C 152.253 156.162, 155.330 163.644, 155.500 163.820 C 155.669 163.996, 160.591 161.586, 166.437 158.464 C 174.542 154.136, 176.946 152.397, 176.557 151.144 C 176.277 150.240, 173.501 141.175, 170.389 131 C 166.772 119.175, 161.351 104.811, 155.365 91.190 C 150.214 79.469, 146 69.777, 146 69.653 C 146 69.529, 149.145 68.337, 152.990 67.004 C 156.834 65.670, 159.643 64.243, 159.231 63.831 C 158.819 63.419, 147.935 58.338, 135.044 52.541 C 114.572 43.334, 105.016 40.102, 106.167 42.774 M 41.492 66.233 C 37.094 70.780, 29.970 78.149, 25.661 82.610 L 17.826 90.719 44.913 95.060 C 59.811 97.447, 72 99.741, 72 100.156 C 72 100.572, 68.444 103.970, 64.098 107.706 C 59.752 111.443, 56.563 114.637, 57.011 114.804 C 57.459 114.972, 65.678 114.184, 75.276 113.054 C 84.873 111.924, 93.425 111, 94.280 111 C 96.596 111, 98.647 100.946, 96.631 99.472 C 95.835 98.890, 84.011 95.815, 70.357 92.638 C 56.702 89.462, 45.468 86.782, 45.392 86.682 C 45.315 86.582, 46.321 80.425, 47.625 73 C 48.930 65.575, 49.883 59.155, 49.743 58.733 C 49.603 58.312, 45.891 61.687, 41.492 66.233 M 93.254 66.299 C 91.731 68.309, 83 83.633, 83 84.295 C 83 85.876, 96.945 95.911, 100.500 96.889 C 105.972 98.394, 106 98.384, 106 95.047 C 106 92.489, 106.502 91.953, 109.750 91.038 C 111.813 90.458, 115.188 89.704, 117.250 89.363 C 119.313 89.023, 121 88.257, 121 87.662 C 121 87.066, 120.002 84.005, 118.782 80.859 C 116.723 75.549, 116.168 74.964, 111.032 72.689 C 107.989 71.341, 102.949 69.082, 99.832 67.668 C 95.558 65.730, 93.940 65.393, 93.254 66.299 M 122.211 82.054 C 124.456 87.455, 124.571 87.500, 132.005 85.906 L 137.108 84.811 130.804 81.807 C 127.337 80.155, 123.523 78.422, 122.328 77.956 L 120.156 77.109 122.211 82.054 M 117.500 91.986 C 115.850 92.430, 113.263 93.073, 111.750 93.415 C 109.688 93.882, 109 94.638, 109 96.436 C 109 98.629, 109.755 99.011, 117.874 100.917 C 122.754 102.063, 126.996 103, 127.299 103 C 127.602 103, 126.685 100.300, 125.261 97 C 122.570 90.763, 122.419 90.665, 117.500 91.986 M 100.642 101.750 C 100.371 102.713, 99.848 104.992, 99.481 106.816 L 98.812 110.132 102.656 109.816 C 106.384 109.510, 106.509 109.376, 106.801 105.380 C 107.063 101.801, 106.800 101.179, 104.801 100.644 C 101.458 99.748, 101.185 99.821, 100.642 101.750 M 110 105.613 C 110 109.163, 110.014 109.174, 113.750 108.617 C 115.813 108.310, 120.200 107.746, 123.500 107.363 L 129.500 106.668 123 105.008 C 109.596 101.585, 110 101.566, 110 105.613 M 118.500 110.674 C 111.295 111.573, 111 111.782, 111 115.983 L 111 119.928 120.669 120.214 C 127.302 120.410, 130.468 120.892, 130.752 121.750 C 131.065 122.692, 128.804 123, 121.583 123 L 112 123 112 126 L 112 129 118.853 129 C 122.623 129, 128.408 128.718, 131.710 128.373 L 137.713 127.745 134.180 118.873 L 130.648 110 126.074 110.150 C 123.558 110.232, 120.150 110.468, 118.500 110.674 M 101.250 112.723 C 99.463 112.945, 97.994 113.661, 97.986 114.313 C 97.979 114.966, 97.701 116.513, 97.370 117.750 C 96.792 119.907, 97.024 120, 102.990 120 C 108.255 120, 109.120 119.756, 108.607 118.418 C 108.273 117.548, 108 115.748, 108 114.418 C 108 111.901, 107.958 111.891, 101.250 112.723 M 69.500 116.447 L 51.500 118.643 72.363 119.448 C 94.434 120.299, 94.946 120.215, 94.985 115.750 C 95.004 113.523, 93.020 113.577, 69.500 116.447 M 36.508 131.448 C 30.463 136.675, 25.410 141.300, 25.280 141.726 C 25.151 142.151, 30.772 145.595, 37.772 149.377 C 44.773 153.160, 57.325 161.199, 65.667 167.242 C 74.008 173.285, 81.205 178.200, 81.659 178.163 C 82.513 178.095, 90.287 140.953, 89.592 140.259 C 89.378 140.044, 81.049 139.516, 71.084 139.084 C 61.119 138.652, 52.666 137.999, 52.300 137.633 C 49.809 135.143, 62.701 132.153, 79.223 131.390 L 91.947 130.802 92.593 127.354 C 92.949 125.458, 92.924 123.590, 92.538 123.203 C 92.151 122.817, 81.860 122.375, 69.668 122.222 L 47.500 121.945 36.508 131.448 M 95.547 126.602 C 95.175 128.583, 95.013 130.282, 95.186 130.376 C 95.358 130.470, 98.796 130.386, 102.824 130.189 C 108.828 129.895, 110.045 129.560, 109.574 128.333 C 109.258 127.510, 109 125.973, 109 124.918 C 109 123.227, 108.243 123, 102.611 123 L 96.223 123 95.547 126.602 M 120.250 131.743 C 113.055 132.085, 113 132.109, 113 134.893 L 113 137.698 122.750 138.344 C 134.643 139.132, 142 139.179, 142 138.468 C 142 138.175, 141.348 136.375, 140.551 134.468 C 138.936 130.601, 140.319 130.787, 120.250 131.743 M 94 134.861 C 94 136.359, 95.024 136.844, 99.250 137.352 C 108.815 138.501, 110 138.297, 110 135.500 C 110 133.042, 109.867 133, 102 133 C 94.866 133, 94 133.201, 94 134.861 M 69.500 134.933 L 61.500 135.500 72.406 136.250 C 88.508 137.357, 91 137.257, 91 135.500 C 91 133.885, 86.119 133.756, 69.500 134.933 M 114.003 143.250 C 114.004 144.488, 114.897 153.825, 115.987 164 C 117.076 174.175, 117.975 182.875, 117.984 183.334 C 117.998 184.064, 142.899 171.465, 150.113 167.077 L 152.782 165.454 147.538 153.977 L 142.293 142.500 135.897 141.867 C 132.378 141.519, 126.013 141.181, 121.750 141.117 C 114.344 141.005, 114 141.100, 114.003 143.250" stroke="none" fill="black" fill-rule="evenodd"/>
</svg>