<svg xmlns="http://www.w3.org/2000/svg" width="200" height="200" viewBox="0 0 200 200" version="1.1">
	<path d="M 96 12.250 C 96 13.709, 99.222 31.812, 100.539 37.750 C 101.017 39.904, 100.761 40, 94.519 40 L 88 40 88 29 C 88 22.950, 87.722 18, 87.383 18 C 87.044 18, 80.727 22.080, 73.346 27.067 L 59.926 36.135 39.213 41.176 C 19.318 46.018, 17.158 46.644, 18.083 47.292 C 18.312 47.453, 22.941 51.111, 28.370 55.420 L 38.239 63.256 41.712 61.600 C 43.622 60.689, 52.599 55.907, 61.660 50.972 C 72.967 44.815, 79.172 42, 81.437 42 C 84.475 42, 84.788 42.299, 85.358 45.750 C 86.819 54.589, 86.345 56.231, 80.750 61.702 L 75.500 66.837 60.250 67.546 C 49.077 68.066, 45 68.591, 45 69.509 C 45 70.198, 46.589 75.203, 48.531 80.631 C 50.473 86.059, 52.292 91.149, 52.574 91.943 C 52.920 92.920, 57.028 89.452, 65.307 81.193 L 77.529 69 83.422 69 C 88.796 69, 89.786 69.363, 94.658 73.122 C 97.596 75.388, 100 77.537, 100 77.897 C 100 78.256, 92.703 82.139, 83.784 86.525 L 67.569 94.500 43.723 116.888 C 28.768 130.930, 20.229 139.629, 20.821 140.221 C 21.413 140.813, 26.548 139.659, 34.592 137.126 C 41.647 134.904, 47.480 133.179, 47.554 133.293 C 47.627 133.407, 48.598 145.103, 49.711 159.284 C 50.824 173.465, 51.946 185.279, 52.205 185.538 C 52.464 185.797, 62.986 184.402, 75.588 182.438 C 89.183 180.320, 108.566 178.147, 123.256 177.094 C 136.872 176.119, 148.178 175.136, 148.381 174.910 C 148.584 174.685, 152.796 164.805, 157.742 152.956 C 166.600 131.736, 172.414 111.941, 170.358 110.010 C 169.886 109.567, 157.833 104.427, 143.574 98.587 C 129.314 92.747, 116.252 86.904, 114.546 85.603 C 111.717 83.445, 111.289 82.331, 109.656 72.869 C 108.672 67.166, 107.058 58.114, 106.070 52.754 L 104.273 43.008 114.387 43.543 C 119.949 43.837, 127.425 44.334, 131 44.647 L 137.500 45.217 130.750 48.622 C 125.434 51.304, 124.002 52.503, 124.009 54.264 C 124.022 57.561, 126.770 79.103, 127.236 79.569 C 127.814 80.147, 162.383 73.988, 163.107 73.178 C 164.010 72.169, 183.118 30.770, 182.786 30.543 C 182.629 30.436, 170.836 31.738, 156.580 33.435 C 139.191 35.505, 130.524 36.929, 130.247 37.760 C 129.689 39.434, 130.565 39.388, 155.530 36.439 C 167.455 35.031, 177.430 34.096, 177.696 34.362 C 178.330 34.996, 162.072 69.716, 160.617 70.835 C 160.003 71.307, 153.650 72.690, 146.500 73.908 C 139.350 75.125, 132.563 76.349, 131.418 76.627 C 129.477 77.098, 129.258 76.491, 128.168 67.625 C 126.318 52.564, 125.746 53.927, 135.937 49.084 C 141.814 46.291, 144.703 44.390, 144.374 43.531 C 144.002 42.562, 139.185 42.035, 125.686 41.488 C 115.684 41.082, 106.625 40.426, 105.555 40.031 C 104.035 39.469, 103.227 37.361, 101.865 30.406 C 100.906 25.508, 100.094 20.882, 100.061 20.127 C 100.027 19.371, 104.690 23.097, 110.423 28.405 C 116.711 34.228, 121.115 37.623, 121.523 36.962 C 121.896 36.360, 122.043 35.782, 121.850 35.679 C 121.658 35.576, 115.763 29.891, 108.750 23.047 C 101.275 15.751, 96 11.284, 96 12.250 M 72.035 31.003 L 60.570 38.927 43.035 43.088 C 33.391 45.377, 25.101 47.483, 24.614 47.768 C 24.127 48.053, 24.650 49.009, 25.777 49.893 C 26.904 50.777, 30.328 53.458, 33.385 55.850 L 38.945 60.201 58.478 49.600 C 72.701 41.882, 78.961 39, 81.505 39 L 85 39 85 31 C 85 26.600, 84.662 23.018, 84.250 23.040 C 83.838 23.062, 78.341 26.646, 72.035 31.003 M 88.087 49.926 L 88.285 58.124 84.439 62.062 L 80.594 66 85.547 66.035 C 90.159 66.068, 91.085 66.544, 99 72.947 C 103.675 76.728, 107.624 79.701, 107.775 79.553 C 107.926 79.405, 106.578 71.120, 104.779 61.142 L 101.507 43 97.879 43 C 95.883 43, 92.819 42.714, 91.070 42.364 L 87.889 41.728 88.087 49.926 M 52.827 70.732 L 48.154 71.103 50.502 78.007 C 54.288 89.137, 53.471 89.076, 63.512 78.988 L 72.458 70 64.979 70.180 C 60.866 70.279, 55.397 70.528, 52.827 70.732 M 85.356 88.803 L 68.212 97.500 47.998 116.464 C 36.880 126.894, 28.182 135.561, 28.669 135.723 C 29.156 135.885, 34.108 134.484, 39.674 132.610 L 49.795 129.201 50.365 134.351 C 50.679 137.183, 51.690 149.175, 52.612 161 C 53.534 172.825, 54.361 182.600, 54.451 182.723 C 54.540 182.846, 64.487 181.396, 76.556 179.501 C 89.433 177.479, 108.210 175.380, 122 174.421 C 134.925 173.523, 145.831 172.482, 146.235 172.109 C 148.470 170.045, 164.325 129.580, 166.150 121.280 C 167.287 116.112, 168.055 111.756, 167.858 111.601 C 167.661 111.446, 156.700 106.930, 143.500 101.567 C 130.300 96.204, 118.037 90.972, 116.250 89.941 C 113.056 88.100, 113 88.101, 113 90.008 C 113 91.075, 117.542 99.670, 123.092 109.108 C 130.855 122.306, 132.875 126.464, 131.842 127.119 C 131.104 127.587, 128.118 127.976, 125.207 127.985 L 119.913 128 120.207 131.616 C 120.499 135.221, 120.446 135.273, 103.623 147.689 C 94.340 154.540, 86.379 159.775, 85.931 159.323 C 84.664 158.043, 72.694 131.670, 72.680 130.127 C 72.670 129.067, 71.452 128.880, 67.333 129.305 C 64.400 129.608, 62 129.546, 62 129.168 C 62 127.920, 101.492 89, 102.759 89 C 103.442 89, 104 89.442, 104 89.983 C 104 90.769, 84.105 119.273, 79.622 124.910 C 78.661 126.118, 81.139 126.234, 96.858 125.719 C 106.954 125.389, 115.451 124.882, 115.739 124.594 C 116.027 124.306, 115.024 117.192, 113.509 108.785 C 111.112 95.479, 110.248 92.626, 106.834 86.750 C 104.677 83.037, 102.819 80.024, 102.706 80.053 C 102.593 80.082, 94.785 84.020, 85.356 88.803 M 115.356 103.750 C 115.626 104.713, 116.609 109.888, 117.541 115.250 L 119.236 125 124.217 125 L 129.198 125 126.983 121.250 C 125.765 119.188, 122.756 114.013, 120.297 109.750 C 115.900 102.131, 114.386 100.292, 115.356 103.750 M 79.500 115 C 67.725 126.806, 67.024 128.173, 73.661 126.393 C 74.940 126.050, 79.119 121.155, 83.895 114.407 C 88.335 108.133, 91.856 103, 91.718 103 C 91.581 103, 86.083 108.400, 79.500 115 M 87.250 128.747 C 77.926 129.011, 76 129.329, 76 130.605 C 76 132.121, 85.620 153.756, 86.974 155.284 C 87.355 155.715, 94.529 151.042, 102.915 144.899 C 115.878 135.403, 118.077 133.413, 117.595 131.615 C 117.283 130.452, 117.021 129.162, 117.014 128.750 C 117.001 128.033, 112.433 128.032, 87.250 128.747" stroke="none" fill="black" fill-rule="evenodd"/>
</svg>