<svg xmlns="http://www.w3.org/2000/svg" width="200" height="200" viewBox="0 0 200 200" version="1.1">
	<path d="M 78.260 25.568 L 60.019 35.886 39.010 36.594 C 21.625 37.179, 18 37.552, 18 38.754 C 18 40.003, 20.993 40.104, 39.250 39.471 L 60.500 38.734 77.075 29.425 C 86.191 24.306, 94.212 19.978, 94.899 19.808 C 96.814 19.336, 104.527 36.940, 103.276 38.927 C 102.446 40.247, 98.525 40.622, 78.906 41.258 L 55.524 42.016 34.859 55.758 C 16.567 67.922, 12.759 71, 16.005 71 C 16.493 71, 25.754 65.113, 36.586 57.918 L 56.280 44.836 79.390 44.005 C 92.100 43.548, 102.563 43.248, 102.639 43.337 C 102.716 43.427, 102.313 46.030, 101.745 49.123 L 100.712 54.745 94.709 55.373 C 91.408 55.718, 86.606 56, 84.039 56 C 80.693 56, 73.794 58.081, 59.670 63.349 C 48.834 67.391, 39.709 70.957, 39.393 71.274 C 39.076 71.590, 46.123 82.019, 55.051 94.449 C 63.980 106.878, 71.108 117.191, 70.893 117.366 C 70.677 117.541, 63.343 119.100, 54.596 120.830 C 45.848 122.560, 38.452 124.214, 38.161 124.506 C 37.869 124.798, 39.244 126.716, 41.217 128.768 C 43.189 130.821, 48.655 139.025, 53.362 147 C 60.926 159.815, 62.449 161.788, 66.461 163.979 C 68.957 165.343, 71 166.720, 71 167.041 C 71 167.361, 58.579 171.421, 43.398 176.062 C 19.589 183.341, 13.343 185.848, 15.126 187.414 C 15.332 187.595, 28.325 186.015, 44 183.904 C 63.514 181.275, 82.905 179.429, 105.500 178.049 L 138.500 176.034 149.742 171.910 C 160.723 167.883, 160.969 167.725, 160.326 165.143 C 159.964 163.690, 157.753 155.750, 155.414 147.500 C 150.457 130.019, 149.455 132.465, 164.745 124.702 C 174.993 119.499, 177.437 116.993, 172.250 117.008 C 170.738 117.012, 157.125 118.583, 142 120.500 C 126.875 122.417, 113.989 123.988, 113.365 123.992 C 112.592 123.998, 112.883 121.399, 114.272 115.868 L 116.314 107.735 128.407 108.394 C 135.058 108.757, 142.984 109.313, 146.019 109.630 L 151.539 110.206 159.443 79.963 L 167.348 49.720 165.165 45.610 C 160.347 36.542, 160.718 36.735, 132.774 28.662 L 107.048 21.229 106.396 24.864 C 105.185 31.614, 104.460 31.436, 101.018 23.542 C 99.194 19.357, 97.431 15.779, 97.100 15.592 C 96.770 15.404, 88.292 19.893, 78.260 25.568 M 108.001 30.493 C 106.238 38.990, 106.919 40, 114.417 40 C 120.139 40, 122.001 40.625, 135.314 47.011 C 154.508 56.220, 154.363 57, 133.452 57 C 125.018 57, 117.870 57.402, 117.566 57.892 C 117.040 58.744, 117.773 60.587, 124.915 76.369 L 128.023 83.238 125.472 82.750 C 123.941 82.457, 123.061 82.683, 123.272 83.315 C 123.465 83.894, 126.858 85.291, 130.811 86.420 C 134.765 87.548, 138 88.742, 138 89.072 C 138 89.403, 134.432 90.488, 130.070 91.484 C 125.709 92.480, 121.637 93.606, 121.022 93.986 C 120.407 94.366, 119.304 96.951, 118.571 99.730 L 117.238 104.783 125.869 105.406 C 130.616 105.749, 137.875 106.281, 142 106.588 L 149.500 107.148 156.759 79.324 C 160.752 64.021, 164.015 50.817, 164.009 49.981 C 164.004 49.146, 162.523 46.276, 160.717 43.602 L 157.434 38.742 133.967 31.898 C 121.060 28.134, 110.194 25.042, 109.821 25.027 C 109.447 25.012, 108.629 27.472, 108.001 30.493 M 105.534 44.250 C 105.312 44.938, 104.705 47.638, 104.186 50.250 L 103.242 55 107.621 55 C 110.030 55, 112 54.829, 112 54.621 C 112 53.750, 106.815 43, 106.395 43 C 106.143 43, 105.756 43.563, 105.534 44.250 M 111.362 46.250 C 112.126 48.038, 113.356 50.795, 114.095 52.378 L 115.438 55.256 122.870 54.628 C 126.957 54.283, 133.261 54, 136.877 54 L 143.453 54 132 48.500 C 122.569 43.971, 119.614 43, 115.260 43 L 109.973 43 111.362 46.250 M 82 58.940 C 78.492 59.465, 44.563 71.335, 43.192 72.518 C 43.022 72.664, 50.336 83.196, 59.444 95.922 C 69.568 110.067, 75.518 119.223, 74.753 119.477 C 74.064 119.707, 67.425 121.071, 60 122.510 C 41.526 126.090, 42.462 125.749, 44.605 128.116 C 45.568 129.180, 50.299 136.642, 55.119 144.699 L 63.882 159.346 71.588 163.579 L 79.294 167.812 69.897 170.784 C 64.729 172.419, 54.927 175.478, 48.116 177.584 C 41.305 179.689, 36.183 181.561, 36.733 181.744 C 37.282 181.927, 46.230 180.920, 56.616 179.505 C 67.002 178.090, 89.784 176.083, 107.243 175.046 L 138.986 173.161 148.415 169.507 C 157.688 165.914, 157.831 165.809, 156.984 163.177 C 154.484 155.399, 147.884 130.782, 148.212 130.455 C 148.421 130.246, 152.846 127.811, 158.046 125.043 C 163.890 121.933, 166.355 120.208, 164.500 120.527 C 161.858 120.980, 112.675 127, 111.613 127 C 111.386 127, 110.647 129.363, 109.971 132.250 C 109.295 135.137, 108.407 138.130, 107.997 138.901 C 107.368 140.082, 83.055 149.436, 82.429 148.737 C 82.312 148.607, 84.219 138.213, 86.666 125.641 C 89.113 113.069, 90.889 102.555, 90.612 102.278 C 90.335 102.001, 87.797 102.329, 84.973 103.006 C 81.251 103.899, 79.537 103.937, 78.743 103.143 C 77.949 102.349, 79.724 101.101, 85.194 98.608 L 92.742 95.168 93.958 88.334 C 94.628 84.575, 95.248 80.883, 95.338 80.128 C 95.445 79.222, 92.468 77.852, 86.572 76.094 C 81.662 74.630, 77.462 72.885, 77.239 72.216 C 76.718 70.653, 77.849 70.684, 87.338 72.500 C 91.649 73.325, 95.528 74, 95.958 74 C 96.388 74, 97.274 71.188, 97.927 67.750 C 98.580 64.313, 99.344 60.712, 99.624 59.750 C 100.078 58.196, 99.371 58.015, 93.317 58.134 C 89.568 58.207, 84.475 58.570, 82 58.940 M 102.527 59.250 C 102.302 59.938, 101.484 63.717, 100.710 67.650 L 99.302 74.799 110.682 77.036 C 116.940 78.266, 122.243 79.090, 122.465 78.868 C 122.687 78.646, 120.798 73.860, 118.266 68.232 L 113.663 58 108.300 58 C 104.895 58, 102.788 58.456, 102.527 59.250 M 97.580 84.250 C 97.208 86.588, 96.652 89.513, 96.344 90.750 C 96.035 91.987, 96.219 93, 96.752 93 C 97.284 93, 101.721 91.145, 106.610 88.877 L 115.500 84.753 107.556 82.377 C 103.187 81.070, 99.307 80, 98.934 80 C 98.561 80, 97.952 81.912, 97.580 84.250 M 112.500 80.868 C 116.067 82.357, 120.571 83.209, 119.500 82.192 C 118.950 81.670, 116.700 80.970, 114.500 80.638 C 111.959 80.253, 111.229 80.337, 112.500 80.868 M 107.500 91.622 C 101.450 94.568, 97.400 96.777, 98.500 96.531 C 114.611 92.934, 117.844 91.760, 118.466 89.280 C 118.813 87.896, 118.963 86.652, 118.799 86.515 C 118.634 86.378, 113.550 88.676, 107.500 91.622 M 121.667 87.667 C 119.890 89.443, 121.096 91.015, 123.750 90.381 C 127.866 89.397, 128.579 88.738, 126.434 87.898 C 123.917 86.912, 122.490 86.843, 121.667 87.667 M 104.500 97.861 L 94.500 100.572 90.296 121.536 C 87.983 133.066, 86.183 143.013, 86.296 143.641 C 86.426 144.371, 89.973 143.532, 96.152 141.309 L 105.804 137.837 106.902 133.476 C 108.343 127.752, 108.423 128, 105.144 128 C 102.325 128, 102.279 127.904, 101.629 120.750 C 101.267 116.763, 100.688 111.312, 100.342 108.638 L 99.713 103.777 106.992 104.138 L 114.272 104.500 115.621 100 C 116.363 97.525, 116.976 95.388, 116.985 95.250 C 117.021 94.660, 113.897 95.314, 104.500 97.861 M 103.448 112.250 C 104.903 124.269, 105.107 125, 107.017 125 C 108.398 125, 109.276 123.562, 110.531 119.250 C 111.451 116.088, 112.442 112.037, 112.733 110.250 L 113.262 107 108.037 107 L 102.812 107 103.448 112.250" stroke="none" fill="black" fill-rule="evenodd"/>
</svg>