<svg xmlns="http://www.w3.org/2000/svg" width="200" height="200" viewBox="0 0 200 200" version="1.1">
	<path d="M 104.561 27.501 C 101.845 38.225, 99.134 47, 98.537 47 C 97.940 47, 95.206 40.215, 92.461 31.922 C 89.716 23.629, 87.101 16.767, 86.650 16.672 C 86.198 16.577, 83.129 22.350, 79.829 29.500 C 76.529 36.650, 73.468 42.877, 73.027 43.338 C 72.585 43.799, 62.946 41.139, 51.607 37.426 C 40.268 33.714, 30.793 30.874, 30.552 31.115 C 29.887 31.780, 22.832 83.166, 23.336 83.670 C 23.578 83.911, 30.381 76.772, 38.455 67.804 L 53.135 51.500 64.317 50.953 C 70.468 50.653, 75.677 50.529, 75.893 50.680 C 76.109 50.830, 73.757 58.756, 70.666 68.293 L 65.045 85.633 45.773 86.863 C 21.162 88.435, 17 88.960, 17 90.491 C 17 91.385, 22.302 92.054, 36.250 92.922 C 46.838 93.580, 56.913 94.430, 58.639 94.810 L 61.778 95.500 49.985 120.500 C 43.499 134.250, 38.298 145.611, 38.426 145.747 C 38.555 145.883, 47.757 144.496, 58.876 142.666 C 69.994 140.836, 79.237 139.600, 79.415 139.919 C 79.594 140.239, 80.048 144.855, 80.425 150.178 L 81.110 159.856 55.805 167.986 C 41.887 172.457, 27.429 177.113, 23.675 178.333 C 19.921 179.552, 16.771 180.989, 16.675 181.525 C 16.568 182.119, 23.202 182.607, 33.632 182.773 L 50.765 183.046 74.058 174.371 L 97.352 165.696 115.926 168.935 C 126.142 170.717, 138.775 172.354, 144 172.574 C 166.760 173.530, 181.999 173.764, 181.993 173.156 C 181.989 172.795, 172.783 165.075, 161.534 156 C 147.746 144.876, 141.069 138.862, 141.041 137.540 C 141.003 135.735, 146.946 100.639, 147.330 100.401 C 147.424 100.343, 155.150 96.806, 164.500 92.540 C 173.850 88.275, 181.888 84.422, 182.363 83.979 C 184.774 81.730, 180.803 81.530, 165.313 83.122 C 156.066 84.073, 139.275 85.138, 128 85.489 L 107.500 86.127 103.500 80.898 C 97.841 73.500, 97.969 73.886, 99.006 67.396 C 99.524 64.153, 100.213 59.250, 100.535 56.500 C 100.858 53.750, 101.463 51.154, 101.880 50.731 C 102.297 50.308, 113.107 50.083, 125.904 50.231 L 149.170 50.500 154.356 61.688 C 157.208 67.841, 159.790 73.124, 160.094 73.427 C 160.397 73.731, 164.825 64.958, 169.932 53.932 C 175.040 42.907, 179.003 33.670, 178.740 33.407 C 178.477 33.143, 166.250 35.932, 151.570 39.604 C 136.348 43.411, 124.537 45.897, 124.081 45.390 C 123.643 44.900, 120.459 36.288, 117.008 26.250 C 113.556 16.212, 110.455 8, 110.116 8.001 C 109.777 8.001, 107.277 16.776, 104.561 27.501 M 106.633 30.443 C 104.635 38.424, 103 45.414, 103 45.977 C 103 46.599, 106.531 47, 112 47 C 116.950 47, 121 46.736, 121 46.412 C 121 45.763, 110.889 16.670, 110.505 16.216 C 110.373 16.060, 108.630 22.462, 106.633 30.443 M 80.615 34.330 C 77.527 40.837, 75 46.591, 75 47.116 C 75 47.954, 92.826 47.302, 93.854 46.427 C 94.049 46.261, 92.413 40.809, 90.219 34.312 L 86.230 22.500 80.615 34.330 M 32.513 35.317 C 31.749 37.744, 26.787 75.120, 27.178 75.511 C 27.401 75.734, 33.175 69.650, 40.009 61.990 L 52.433 48.063 62.781 47.782 L 73.129 47.500 53.007 40.817 C 39.442 36.312, 32.764 34.520, 32.513 35.317 M 153.832 41.830 C 144.115 44.400, 135.827 46.839, 135.415 47.251 C 135.004 47.663, 138.334 48, 142.815 48 L 150.964 48 155.732 58 L 160.500 68.001 167.650 52.500 C 173.196 40.476, 174.430 37.018, 173.150 37.079 C 172.243 37.122, 163.549 39.260, 153.832 41.830 M 80 50.487 C 80 51.611, 93.378 67.885, 93.991 67.506 C 95.286 66.705, 97.144 55.933, 96.496 52.983 L 95.841 50 87.921 50 C 83.564 50, 80 50.219, 80 50.487 M 72.736 70.750 L 67.404 87.500 61.952 88.230 C 58.953 88.631, 52.675 89.319, 48 89.758 L 39.500 90.558 52.750 91.370 C 60.038 91.816, 66 92.355, 66 92.568 C 66 92.781, 60.846 103.878, 54.546 117.228 C 46.880 133.475, 43.522 141.597, 44.390 141.793 C 45.104 141.955, 53.723 140.732, 63.544 139.076 C 73.364 137.420, 81.501 136.167, 81.625 136.292 C 82.153 136.820, 84.079 161.255, 83.628 161.705 C 83.356 161.977, 70.639 166.219, 55.368 171.132 C 40.098 176.044, 27.393 180.274, 27.135 180.532 C 26.877 180.789, 31.579 181, 37.583 181 L 48.500 181 72.819 171.921 L 97.139 162.841 118.319 166.373 C 135.264 169.198, 143.050 169.990, 157.250 170.333 C 167.012 170.568, 175 170.664, 175 170.545 C 175 170.426, 166.685 163.618, 156.522 155.415 C 141.346 143.165, 138.050 140.053, 138.078 138 C 138.096 136.625, 139.567 127.216, 141.347 117.090 L 144.584 98.681 158.795 92.177 C 166.612 88.600, 172.878 85.545, 172.720 85.387 C 172.563 85.229, 165.924 85.734, 157.967 86.510 C 150.010 87.285, 135.930 88.211, 126.679 88.569 L 109.857 89.219 111.803 91.360 C 113.703 93.450, 113.712 93.913, 112.180 111.250 L 110.613 129 106.056 128.901 C 91.274 128.580, 68.626 126.393, 68.247 125.250 C 67.731 123.692, 69.723 123.680, 90.782 125.108 C 99.766 125.718, 107.323 126.011, 107.574 125.759 C 107.825 125.508, 108.691 118.430, 109.497 110.030 C 110.949 94.911, 110.942 94.728, 108.847 91.785 C 106.810 88.925, 106.478 88.825, 100.115 89.156 L 93.500 89.500 93.730 85.500 C 93.863 83.189, 92.367 87.382, 90.187 95.431 C 88.111 103.093, 85.870 109.543, 85.207 109.764 C 83.402 110.366, 83.607 109.165, 88.618 89.863 L 93.235 72.073 86.029 63.037 C 82.066 58.066, 78.653 54, 78.446 54 C 78.238 54, 75.669 61.537, 72.736 70.750 M 97.038 80.668 C 97.017 82.411, 96.727 84.548, 96.393 85.418 C 95.910 86.677, 96.510 87, 99.334 87 C 101.285 87, 103.101 86.645, 103.369 86.212 C 103.637 85.779, 102.330 83.641, 100.465 81.462 L 97.075 77.500 97.038 80.668" stroke="none" fill="black" fill-rule="evenodd"/>
</svg>