<svg xmlns="http://www.w3.org/2000/svg" width="200" height="200" viewBox="0 0 200 200" version="1.1">
	<path d="M 65.413 24.796 L 44.326 32.500 30.493 47 C 20.613 57.356, 17.143 61.594, 18.350 61.827 C 19.280 62.007, 33.194 64.052, 49.269 66.371 L 78.497 70.586 65.998 77.435 C 24.220 100.330, 20.882 102.282, 21.849 103.249 C 22.521 103.921, 33.321 98.509, 54.490 86.895 C 77.931 74.034, 85.658 69.353, 84.314 68.828 C 83.316 68.439, 69.228 66.258, 53.006 63.983 C 36.784 61.707, 23.340 59.673, 23.129 59.462 C 22.918 59.252, 28.011 53.549, 34.447 46.790 C 45.093 35.608, 46.704 34.307, 52.324 32.360 C 55.721 31.183, 63.563 28.418, 69.750 26.216 C 75.938 24.014, 81 22.343, 81 22.502 C 81 22.661, 76.005 26.518, 69.900 31.074 L 58.801 39.358 54.613 37.805 L 50.424 36.253 43.092 42.127 C 38.344 45.929, 36.419 48.002, 37.630 48.005 C 38.658 48.008, 48.050 48.470, 58.500 49.033 C 76.277 49.990, 78.031 50.263, 85.746 53.278 C 90.282 55.050, 93.994 57.074, 93.996 57.776 C 93.998 58.478, 92.618 64.571, 90.929 71.315 L 87.858 83.578 64.429 89.401 C 51.543 92.604, 41 95.597, 41 96.053 C 41 98.065, 43.909 97.603, 64.382 92.336 C 76.319 89.265, 86.271 86.938, 86.498 87.164 C 87.009 87.676, 83.387 101.947, 82.527 102.806 C 82.183 103.151, 70.336 103.579, 56.200 103.758 C 29.419 104.097, 26 104.359, 26 106.070 C 26 106.752, 33.373 107.049, 47.750 106.948 C 59.713 106.863, 72.252 107.117, 75.615 107.511 L 81.730 108.228 80.751 112.083 C 80.213 114.203, 79.036 116.139, 78.136 116.385 C 77.236 116.632, 66.600 118.077, 54.500 119.597 C 42.400 121.118, 32.361 122.456, 32.191 122.573 C 31.940 122.745, 52.695 164.904, 53.449 165.754 C 53.574 165.894, 66.291 163.532, 81.710 160.504 C 97.129 157.477, 110.024 155, 110.366 155 C 110.707 155, 108.965 158.155, 106.493 162.010 C 104.022 165.866, 102 169.361, 102 169.776 C 102 170.690, 146.137 184.196, 146.837 183.496 C 147.108 183.226, 149.751 167.383, 152.711 148.289 C 155.671 129.196, 158.185 113.511, 158.297 113.435 C 158.408 113.360, 166.262 109.077, 175.750 103.919 C 185.238 98.761, 193 94.290, 193 93.984 C 193 93.678, 177.462 87.158, 158.472 79.496 C 136.179 70.501, 124.574 65.349, 125.722 64.955 C 126.700 64.619, 139.313 62.372, 153.750 59.961 C 168.188 57.550, 180 55.271, 180 54.895 C 180 54.520, 174.226 48.653, 167.168 41.857 L 154.336 29.500 129.918 23.734 C 116.488 20.563, 105.213 17.976, 104.862 17.984 C 104.511 17.993, 103.215 22.163, 101.981 27.250 C 100.748 32.337, 99.428 36.847, 99.049 37.270 C 98.451 37.938, 65.049 39.975, 64.174 39.397 C 63.995 39.279, 69.633 34.753, 76.702 29.341 C 83.771 23.928, 89.768 19.050, 90.028 18.500 C 91.185 16.050, 85.073 17.613, 65.413 24.796 M 104.324 29.561 L 102.210 38.242 110.855 37.647 C 115.610 37.321, 126.925 36.769, 136 36.422 C 150.686 35.860, 152.335 35.956, 151 37.295 C 150.175 38.122, 144.247 43.289, 137.826 48.776 L 126.152 58.754 112.326 55.963 C 93.781 52.220, 92.834 53.184, 108.806 59.547 L 118.112 63.255 146.601 58.439 L 175.091 53.624 164.484 42.984 L 153.877 32.344 131.793 27.040 C 119.646 24.123, 108.973 21.544, 108.073 21.309 C 106.760 20.965, 106.022 22.588, 104.324 29.561 M 116.245 39.998 C 108.405 40.372, 101.834 40.862, 101.645 41.088 C 101.206 41.611, 99.034 50.392, 99.301 50.562 C 99.410 50.632, 105.337 51.838, 112.470 53.241 L 125.441 55.793 134.720 47.810 C 139.824 43.420, 144 39.641, 144 39.414 C 144 38.911, 135.191 39.096, 116.245 39.998 M 46.635 42.583 C 45.059 43.969, 43.934 45.248, 44.135 45.425 C 44.336 45.603, 50.032 45.966, 56.792 46.233 L 69.085 46.717 64.933 44.859 C 62.650 43.836, 59.454 43, 57.832 43 C 56.209 43, 55.131 42.597, 55.435 42.105 C 56.051 41.108, 53.735 39.983, 51.168 40.032 C 50.251 40.049, 48.211 41.197, 46.635 42.583 M 75.500 41.939 L 66.500 42.500 71.883 44.750 C 74.844 45.987, 78.444 47.016, 79.883 47.035 C 81.323 47.054, 85.425 47.701, 89 48.471 C 92.575 49.241, 95.802 49.563, 96.172 49.186 C 96.542 48.809, 97.154 46.813, 97.533 44.750 L 98.223 41 91.361 41.189 C 87.588 41.293, 80.450 41.630, 75.500 41.939 M 91 52.383 C 91 52.594, 91.900 53.002, 93 53.290 C 94.100 53.577, 95 53.405, 95 52.906 C 95 52.408, 94.100 52, 93 52 C 91.900 52, 91 52.173, 91 52.383 M 94.595 68.696 C 93.122 74.638, 91.693 80.247, 91.419 81.160 C 90.961 82.690, 91.468 82.680, 97.872 81.033 C 104.580 79.307, 105.428 79.311, 122.161 81.139 C 131.698 82.181, 140.175 82.907, 141 82.751 C 141.825 82.596, 133.857 78.914, 123.292 74.570 C 112.728 70.226, 104.317 66.296, 104.601 65.836 C 104.886 65.376, 106.441 65, 108.059 65 C 112.512 65, 111.598 63.510, 105.750 61.236 C 102.862 60.113, 99.774 58.901, 98.887 58.543 C 97.547 58.001, 96.822 59.716, 94.595 68.696 M 114.609 66.695 C 113.405 67.017, 120.116 70.264, 133.096 75.637 C 144.304 80.277, 153.892 84.492, 154.404 85.004 C 156.489 87.089, 151.222 87.004, 128.380 84.582 C 104.872 82.090, 104.391 82.078, 97.500 83.838 L 90.500 85.626 88.909 91.563 C 88.033 94.828, 87.012 98.737, 86.639 100.250 L 85.962 103 92.407 103 C 95.952 103, 112.820 100.975, 129.890 98.500 C 146.961 96.025, 161.169 94, 161.464 94 C 161.759 94, 162 94.675, 162 95.500 C 162 96.325, 161.662 96.995, 161.250 96.989 C 159.776 96.968, 101.031 107.364, 101.271 107.604 C 101.405 107.739, 110.062 108.845, 120.508 110.063 C 130.953 111.280, 139.811 112.552, 140.192 112.888 C 140.789 113.417, 128.154 133.850, 110.872 160.304 C 108.068 164.596, 105.993 168.327, 106.261 168.595 C 106.529 168.862, 115.315 171.681, 125.786 174.858 L 144.823 180.635 145.295 178.067 C 145.555 176.655, 147.956 161.182, 150.631 143.683 L 155.494 111.866 171.313 103.299 C 180.014 98.588, 186.765 94.384, 186.316 93.958 C 185.389 93.079, 120.306 66.885, 118 66.464 C 117.175 66.313, 115.649 66.417, 114.609 66.695 M 91.750 106.706 C 92.987 106.944, 95.013 106.944, 96.250 106.706 C 97.487 106.467, 96.475 106.272, 94 106.272 C 91.525 106.272, 90.513 106.467, 91.750 106.706 M 83.618 112.160 C 83.270 113.898, 83.128 115.461, 83.302 115.635 C 83.475 115.809, 86.459 115.493, 89.933 114.933 C 93.407 114.374, 96.378 114.048, 96.535 114.208 C 96.891 114.573, 74.549 151.851, 73.114 153.286 C 70.593 155.807, 71.134 150.371, 74.893 135.426 C 77.089 126.696, 78.799 119.482, 78.693 119.395 C 78.534 119.266, 37.070 124.663, 36.245 124.920 C 36.105 124.964, 40.282 133.576, 45.528 144.057 C 53.206 159.395, 55.402 163.014, 56.783 162.602 C 57.728 162.320, 70.537 159.765, 85.250 156.924 C 101.398 153.806, 112 151.311, 112 150.630 C 112 150.009, 109.058 140.674, 105.462 129.885 L 98.924 110.270 93.712 109.643 C 84.753 108.567, 84.315 108.677, 83.618 112.160 M 108.320 129.500 C 111.701 139.675, 114.699 147.999, 114.983 147.997 C 115.949 147.991, 136.184 115.851, 135.594 115.261 C 135.026 114.693, 108.725 111.149, 104.336 111.049 C 102.266 111.002, 102.438 111.799, 108.320 129.500 M 83.179 118.868 C 82.060 119.577, 75.638 141.972, 76.349 142.683 C 76.581 142.914, 90.131 120.607, 90.833 118.839 C 91.266 117.751, 84.903 117.775, 83.179 118.868" stroke="none" fill="black" fill-rule="evenodd"/>
</svg>