<svg xmlns="http://www.w3.org/2000/svg" width="200" height="200" viewBox="0 0 200 200" version="1.1">
	<path d="M 115.618 2.750 C 115.321 4.263, 113.658 12.749, 111.923 21.608 L 108.769 37.717 99.731 38.358 C 94.760 38.711, 89.418 39, 87.861 39 L 85.029 39 87.051 33.870 C 88.163 31.048, 88.918 28.584, 88.728 28.394 C 88.184 27.850, 21.100 39.566, 20.326 40.341 C 18.438 42.229, 23.078 43.029, 39.039 43.564 C 48.643 43.887, 61.675 43.743, 68 43.244 C 74.325 42.745, 79.659 42.458, 79.854 42.606 C 80.049 42.754, 79.782 44.141, 79.261 45.688 L 78.313 48.500 58.601 48.334 C 47.244 48.238, 39.019 48.550, 39.195 49.070 C 39.363 49.566, 45.660 56.665, 53.189 64.845 C 68.923 81.939, 66.881 80.971, 87.250 80.989 C 94.484 80.995, 100 81.404, 100 81.935 C 100 82.449, 99.560 84.027, 99.023 85.440 L 98.045 88.011 57.180 87.346 C 25.395 86.828, 16.147 86.953, 15.558 87.907 C 15.141 88.581, 14.976 89.309, 15.192 89.525 C 15.407 89.741, 30.190 90.828, 48.042 91.940 C 80.543 93.966, 97 96.227, 97 98.666 C 97 99.335, 96.662 100.068, 96.250 100.296 C 95.838 100.523, 83.177 100.310, 68.115 99.823 C 53.054 99.335, 40.531 99.136, 40.287 99.380 C 40.042 99.624, 44.557 108.391, 50.320 118.861 L 60.798 137.897 53.649 140.862 C 49.717 142.492, 42.450 145.490, 37.500 147.524 C 32.550 149.558, 28.297 151.412, 28.050 151.644 C 27.802 151.877, 32.645 157.127, 38.812 163.312 L 50.025 174.556 74.763 170.332 C 88.368 168.008, 101.093 166.083, 103.039 166.053 C 104.986 166.024, 122.084 168.889, 141.036 172.420 C 159.988 175.951, 175.660 178.673, 175.865 178.469 C 176.069 178.265, 172.422 172.113, 167.760 164.799 L 159.285 151.500 156.499 132.657 L 153.713 113.814 167.058 100.442 C 174.398 93.087, 180.200 86.893, 179.951 86.678 C 179.703 86.463, 173.875 82.558, 167 78 C 160.125 73.442, 154.297 69.536, 154.048 69.321 C 153.799 69.105, 160.319 62.195, 168.535 53.965 C 176.752 45.734, 183.256 38.970, 182.987 38.933 C 182.719 38.897, 170.125 36.941, 155 34.587 C 131.122 30.871, 124.019 30.353, 126.148 32.481 C 126.431 32.764, 137.201 34.593, 150.081 36.544 C 162.961 38.496, 174.295 40.410, 175.267 40.797 C 176.707 41.370, 174.636 43.892, 164.046 54.456 L 151.059 67.413 141.779 61.108 L 132.500 54.803 119.686 58.258 L 106.873 61.714 107.552 57.607 C 107.925 55.348, 108.466 53.105, 108.753 52.623 C 109.043 52.135, 114.329 52.056, 120.638 52.445 L 132 53.144 131.904 50.322 C 131.851 48.770, 131.288 45.067, 130.654 42.093 L 129.500 36.685 120.750 36.905 C 115.938 37.025, 112 36.722, 112 36.231 C 112 35.740, 113.575 27.536, 115.500 18 C 117.425 8.464, 119 0.513, 119 0.331 C 119 0.149, 118.361 0, 117.579 0 C 116.798 0, 115.916 1.237, 115.618 2.750 M 56 36.389 C 33.079 40.399, 32.660 40.514, 39 41.082 C 47.965 41.885, 80.232 40.017, 81.565 38.618 C 82.151 38.003, 83.154 36.263, 83.794 34.750 C 84.904 32.126, 84.832 32.006, 82.229 32.139 C 80.728 32.216, 68.925 34.128, 56 36.389 M 117.800 39.740 L 111.100 40.089 110.216 44.295 C 109.729 46.608, 109.508 48.837, 109.725 49.250 C 109.941 49.663, 114.394 50, 119.620 50 L 129.123 50 128.434 45.250 C 127.626 39.681, 127.288 38.933, 125.691 39.196 C 125.036 39.304, 121.485 39.549, 117.800 39.740 M 88.567 41.907 C 84.167 42.436, 83.492 42.851, 82.314 45.750 L 80.994 49 93.997 49 C 105.709 49, 107.001 48.826, 107.014 47.250 C 107.021 46.288, 107.299 44.487, 107.630 43.250 C 108.218 41.056, 108.050 41.004, 100.867 41.157 C 96.815 41.244, 91.280 41.581, 88.567 41.907 M 45 51.621 C 45 51.962, 50.451 58.037, 57.114 65.121 L 69.227 78 84.976 78 L 100.724 78 101.862 72.333 C 102.488 69.217, 102.826 66.492, 102.613 66.280 C 102.400 66.067, 95.199 66.891, 86.611 68.111 C 78.023 69.331, 70.749 70.082, 70.446 69.780 C 70.144 69.477, 71.433 65.417, 73.312 60.757 L 76.729 52.284 67.114 51.647 C 54.857 50.835, 45 50.824, 45 51.621 M 78.449 55.500 C 77.652 57.425, 76.319 60.644, 75.487 62.654 C 74.655 64.663, 74.158 66.492, 74.384 66.717 C 74.609 66.942, 80.880 66.198, 88.320 65.063 C 95.759 63.929, 102.281 63, 102.812 63 C 103.343 63, 104.076 61.313, 104.442 59.250 C 104.808 57.188, 105.338 54.712, 105.621 53.750 C 106.092 52.146, 105.039 52, 93.016 52 L 79.898 52 78.449 55.500 M 118 61.452 L 106.500 64.674 105.330 69.087 C 104.687 71.514, 104.125 74.700, 104.080 76.166 L 104 78.831 121.250 79.208 L 138.500 79.584 143.785 74.496 L 149.070 69.408 140.673 63.704 C 136.054 60.567, 131.651 58.052, 130.888 58.115 C 130.124 58.178, 124.325 59.680, 118 61.452 M 145.950 76.587 L 140.500 82.143 121.795 81.821 L 103.090 81.500 102.496 83.868 C 102.170 85.170, 102.089 86.422, 102.316 86.649 C 102.917 87.250, 166.003 81.702, 165.982 81.049 C 165.972 80.747, 163.835 79.115, 161.232 77.422 C 150.134 70.204, 152.106 70.312, 145.950 76.587 M 138.614 102.878 C 122.727 113.725, 109.892 123.028, 110.091 123.550 C 110.290 124.073, 117.734 127.873, 126.634 131.995 C 135.534 136.117, 142.642 139.770, 142.431 140.112 C 142.219 140.454, 135.448 141.793, 127.383 143.087 L 112.720 145.440 101.610 141.589 C 95.499 139.471, 90.199 137.459, 89.830 137.119 C 89.462 136.778, 89.874 132.949, 90.747 128.609 L 92.333 120.718 89.716 118.812 C 86.565 116.517, 86.981 113.384, 90.207 115.111 C 92.823 116.511, 93.518 115.599, 94.735 109.170 C 95.465 105.312, 95.434 103.745, 94.622 103.498 C 94.005 103.310, 82.527 102.865, 69.116 102.508 C 45.802 101.888, 44.763 101.939, 45.427 103.680 C 45.810 104.681, 50.145 112.796, 55.061 121.713 C 59.978 130.630, 64 138.331, 64 138.827 C 64 139.322, 57.137 142.533, 48.750 145.962 C 40.362 149.391, 33.298 152.392, 33.051 152.630 C 32.805 152.869, 36.764 157.242, 41.849 162.349 L 51.096 171.634 77.533 167.132 L 103.970 162.631 134.735 168.396 C 151.656 171.567, 166.759 174.407, 168.298 174.707 C 171.008 175.234, 170.865 174.883, 163.680 163.376 L 156.266 151.500 153.497 132.150 L 150.728 112.800 163.460 100.041 L 176.191 87.281 172.727 85.141 C 170.822 83.963, 168.867 83.035, 168.382 83.077 C 167.897 83.120, 154.501 92.030, 138.614 102.878 M 127.584 87.615 C 113.330 88.926, 101.581 90.111, 101.475 90.249 C 101.368 90.387, 101.012 91.628, 100.683 93.007 C 100.092 95.480, 100.261 95.555, 113.101 98.507 C 120.260 100.153, 126.203 101.950, 126.309 102.500 C 126.427 103.118, 121.120 103.606, 112.418 103.776 L 98.336 104.053 97.121 110.646 C 96.453 114.273, 96.040 117.355, 96.203 117.497 C 96.366 117.638, 98.461 118.743, 100.858 119.952 L 105.215 122.150 111.858 117.731 C 115.511 115.300, 127.912 106.941, 139.416 99.155 C 157.732 86.760, 159.908 85.014, 156.916 85.115 C 155.037 85.179, 141.838 86.304, 127.584 87.615 M 78 91.084 C 82.125 91.526, 88.075 92.526, 91.221 93.306 C 97.344 94.824, 98 94.681, 98 91.833 C 98 90.138, 96.968 90.011, 84.250 90.140 C 71.363 90.271, 70.971 90.330, 78 91.084 M 99.376 99.200 C 98.405 100.772, 99.582 101.131, 104.643 100.809 L 109.500 100.500 104.727 99.383 C 101.816 98.703, 99.728 98.631, 99.376 99.200 M 99 122.409 C 99 122.599, 99.675 123.315, 100.500 124 C 101.365 124.718, 102 124.815, 102 124.229 C 102 123.671, 101.325 122.955, 100.500 122.638 C 99.675 122.322, 99 122.219, 99 122.409 M 93.330 129.542 C 92.774 132.610, 92.710 135.321, 93.188 135.616 C 93.663 135.910, 98.427 137.606, 103.775 139.387 L 113.500 142.624 123.249 140.979 C 128.611 140.075, 133.214 139.120, 133.477 138.857 C 133.739 138.594, 127.554 135.431, 119.731 131.828 C 106.391 125.684, 105.364 125.370, 103.216 126.778 C 101.118 128.153, 100.734 128.099, 98.648 126.139 C 97.396 124.963, 95.913 124, 95.353 124 C 94.793 124, 93.882 126.494, 93.330 129.542" stroke="none" fill="black" fill-rule="evenodd"/>
</svg>