<svg xmlns="http://www.w3.org/2000/svg" width="200" height="200" viewBox="0 0 200 200" version="1.1">
	<path d="M 95.965 17.720 C 89.109 23.012, 78.896 31.248, 73.269 36.021 L 63.037 44.699 46.388 38.813 C 37.231 35.576, 29.518 33.149, 29.248 33.419 C 28.358 34.308, 18.793 80.126, 19.376 80.709 C 19.689 81.022, 25.695 75.905, 32.723 69.337 L 45.500 57.396 59.500 52.059 C 67.200 49.123, 73.658 46.589, 73.850 46.427 C 74.043 46.265, 73.919 45.677, 73.574 45.120 C 73.166 44.460, 71.478 44.625, 68.724 45.594 C 63.813 47.324, 63.388 47.804, 76.682 36.602 C 93.169 22.709, 106.417 12.987, 107.089 14.288 C 107.434 14.955, 108.733 21.847, 109.976 29.605 L 112.236 43.709 142.368 44.300 C 158.941 44.625, 173.779 45.267, 175.343 45.726 L 178.185 46.560 167.245 57.129 C 154.997 68.962, 149.554 72.286, 121.500 85.062 C 112.700 89.070, 105.171 92.622, 104.769 92.956 C 104.366 93.290, 110.329 97.317, 118.019 101.905 C 125.708 106.493, 132 110.438, 132 110.673 C 132 110.907, 129.406 110.806, 126.235 110.447 L 120.470 109.795 115.799 125.147 C 113.231 133.591, 109.303 149.685, 107.071 160.910 C 104.839 172.136, 102.897 181.431, 102.756 181.566 C 102.615 181.700, 95.365 179.491, 86.644 176.655 L 70.787 171.500 68.394 165.128 C 67.077 161.624, 66 158.444, 66 158.061 C 66 157.679, 72.137 152.518, 79.637 146.593 L 93.274 135.820 85.878 128.160 C 81.811 123.947, 76.364 118.250, 73.774 115.500 L 69.064 110.500 78.415 110.843 L 87.765 111.185 85.047 95.590 C 83.551 87.012, 82.077 79.743, 81.769 79.436 C 81.462 79.129, 76.326 78.311, 70.356 77.619 L 59.500 76.360 73 75.621 C 80.425 75.214, 94.825 75.317, 105 75.848 C 121.014 76.685, 123.822 76.610, 125.899 75.287 C 134.978 69.503, 156.093 52.984, 154.911 52.589 C 154.135 52.330, 146.034 50.908, 136.910 49.431 C 121.284 46.901, 119.175 46.787, 100.660 47.481 C 89.847 47.887, 81 48.619, 81 49.109 C 81 49.602, 90.266 49.992, 101.750 49.982 C 118.353 49.967, 125.142 50.396, 135.719 52.128 C 142.989 53.318, 148.717 54.650, 148.447 55.086 C 148.177 55.523, 142.380 59.963, 135.565 64.952 L 123.174 74.024 103.837 73.059 C 83.585 72.048, 42.458 73.431, 40.508 75.189 C 38.601 76.909, 42.024 77.625, 61.005 79.474 C 71.452 80.492, 80.003 81.589, 80.007 81.912 C 80.010 82.236, 80.907 87.675, 82 94 C 83.093 100.325, 83.990 106.094, 83.993 106.820 C 83.999 107.895, 79.869 108.008, 61.738 107.431 L 39.477 106.722 30.244 110.111 C 25.166 111.975, 21.009 114.063, 21.006 114.750 C 20.998 116.320, 24.971 116.292, 49 114.558 C 65.896 113.339, 67.662 113.365, 69.363 114.861 C 70.388 115.763, 75.213 120.819, 80.084 126.099 L 88.941 135.697 75.555 146.365 L 62.169 157.032 65.443 165.266 L 68.718 173.500 86.417 179.359 C 96.151 182.581, 104.367 184.966, 104.674 184.660 C 104.980 184.353, 107.369 173.616, 109.981 160.801 C 113.797 142.078, 120.963 114.901, 122.543 113.156 C 122.714 112.967, 133.924 114.042, 147.455 115.545 C 160.985 117.049, 172.335 117.999, 172.676 117.657 C 173.355 116.978, 175.298 95.965, 174.735 95.401 C 174.544 95.211, 166.313 98.217, 156.444 102.081 C 146.575 105.945, 137.825 109.156, 137 109.215 C 136.175 109.275, 129.682 105.798, 122.571 101.489 L 109.643 93.654 114.071 91.638 C 116.507 90.530, 127.077 85.451, 137.560 80.353 L 156.620 71.082 171.046 57.197 L 185.472 43.311 163.486 42.097 C 151.394 41.428, 135.449 40.796, 128.054 40.691 L 114.608 40.500 111.907 24.687 C 110.422 15.989, 109.032 8.699, 108.818 8.485 C 108.605 8.272, 102.821 12.427, 95.965 17.720 M 30.495 39.250 C 28.722 46.602, 23.151 73.484, 23.358 73.692 C 23.495 73.828, 28.361 69.566, 34.172 64.220 C 43.951 55.224, 45.428 54.246, 53.988 51.088 L 63.239 47.675 47.995 42.338 C 39.611 39.402, 32.366 37, 31.895 37 C 31.424 37, 30.794 38.013, 30.495 39.250 M 155.736 105.268 C 147.066 108.589, 140.113 111.446, 140.286 111.619 C 140.669 112.002, 165.663 114.978, 168.603 114.991 C 170.503 114.999, 170.769 114.257, 171.354 107.335 C 171.711 103.119, 171.889 99.571, 171.751 99.450 C 171.613 99.330, 164.406 101.948, 155.736 105.268 M 34.500 111.487 C 31.723 112.780, 32.096 112.845, 39.500 112.358 C 43.900 112.068, 51.325 111.480, 56 111.052 C 64.388 110.283, 64.322 110.271, 51 110.181 C 41.375 110.116, 36.639 110.491, 34.500 111.487" stroke="none" fill="black" fill-rule="evenodd"/>
</svg>