<svg xmlns="http://www.w3.org/2000/svg" width="200" height="200" viewBox="0 0 200 200" version="1.1">
	<path d="M 96 26 C 96 37.020, 95.849 38, 94.145 38 C 93.125 38, 85.447 40.700, 77.082 44 C 68.718 47.300, 61.279 50, 60.552 50 C 59.825 50, 57.816 49.406, 56.088 48.679 C 52.947 47.359, 52.949 47.358, 69.034 40.987 C 84.461 34.876, 86.918 33.584, 85.607 32.273 C 85.094 31.761, 23.585 42.205, 18.726 43.630 C 17.277 44.055, 18.456 45.927, 25.149 53.825 C 29.657 59.146, 33.410 63.604, 33.488 63.731 C 33.566 63.859, 36.975 62.671, 41.065 61.092 C 45.154 59.512, 48.644 58.352, 48.819 58.513 C 48.995 58.674, 47.564 66.178, 45.640 75.190 L 42.142 91.575 43.751 98.911 L 45.361 106.247 54.431 105.602 C 62.012 105.063, 64.314 105.270, 68.462 106.864 C 73.572 108.827, 74.501 109.739, 73.234 111.547 C 72.830 112.123, 58.550 118.682, 41.500 126.124 C 21.691 134.769, 10.500 140.167, 10.500 141.077 C 10.500 142.177, 13.536 142.773, 23.869 143.702 C 31.222 144.363, 37.448 145.115, 37.706 145.373 C 37.963 145.630, 37.489 149.139, 36.651 153.170 C 35.479 158.813, 35.401 160.757, 36.314 161.615 C 38.046 163.245, 68.652 181, 69.728 181 C 70.230 181, 71.851 166.037, 73.330 147.750 C 75.618 119.468, 76.277 114.309, 77.741 113.221 C 78.687 112.518, 80.082 112.068, 80.840 112.221 C 81.695 112.394, 85.264 122.177, 90.245 138 C 94.661 152.025, 98.730 163.794, 99.288 164.153 C 99.931 164.566, 99.326 167.444, 97.638 171.998 L 94.972 179.191 99.870 175.596 C 103.229 173.130, 105.826 172.006, 108.134 172.018 C 109.985 172.028, 124.775 173.374, 141 175.008 C 157.225 176.643, 171.235 177.985, 172.134 177.990 C 173.474 177.998, 172.789 175.339, 168.339 163.250 L 162.910 148.500 165.997 120.500 C 168.755 95.478, 169.731 89.864, 175.172 67.713 C 178.520 54.080, 181.041 42.707, 180.773 42.440 C 180.506 42.173, 170.708 40.990, 159 39.813 L 137.712 37.672 117.606 25.838 C 106.548 19.330, 97.162 14.004, 96.750 14.002 C 96.338 14.001, 96 19.400, 96 26 M 99 28.394 L 99 38.834 103.750 39.825 C 106.362 40.370, 120.974 43.210, 136.221 46.137 C 151.467 49.064, 163.609 51.791, 163.203 52.197 C 162.797 52.603, 153.089 57.352, 141.629 62.749 C 130.170 68.147, 120.728 72.994, 120.647 73.520 C 120.566 74.047, 126.553 76.778, 133.950 79.590 C 141.348 82.402, 147.573 85.220, 147.784 85.851 C 148.421 87.763, 146.023 87.194, 133.653 82.498 C 127.137 80.024, 121.555 78, 121.250 78 C 120.562 78, 121.814 100.891, 122.570 102.113 C 122.871 102.601, 125.010 103, 127.323 103 C 131.067 103, 132.272 102.328, 138.327 96.863 C 142.836 92.793, 145.462 91.062, 146.121 91.721 C 146.781 92.381, 144.569 94.996, 139.552 99.486 L 131.988 106.256 126.884 105.579 L 121.781 104.902 122.222 109.201 C 122.588 112.767, 121.310 117.078, 114.721 134.500 C 110.353 146.050, 105.509 158.937, 103.956 163.138 L 101.133 170.776 103.816 169.789 C 105.747 169.079, 115.177 169.664, 137.443 171.875 C 154.462 173.565, 168.593 174.740, 168.847 174.486 C 169.101 174.233, 167.227 168.253, 164.685 161.197 L 160.061 148.369 163.533 118.139 C 166.583 91.589, 167.667 85.270, 172.443 66.228 C 175.434 54.304, 177.795 44.497, 177.690 44.436 C 177.586 44.374, 168.275 43.420, 157 42.316 L 136.500 40.308 120 30.539 C 110.925 25.166, 102.487 20.136, 101.250 19.362 L 99 17.954 99 28.394 M 45.752 41.356 C 33.241 43.635, 23.004 45.881, 23.002 46.346 C 22.999 47.692, 34.127 60, 35.347 60 C 35.954 60, 39.465 58.817, 43.149 57.372 C 48.385 55.318, 49.984 54.200, 50.472 52.254 C 50.816 50.884, 50.963 49.681, 50.799 49.579 C 50.634 49.476, 49.451 48.956, 48.170 48.421 C 46.112 47.563, 47.251 46.880, 57.920 42.574 C 64.564 39.892, 70 37.541, 70 37.349 C 70 36.904, 72.079 36.560, 45.752 41.356 M 78.020 46.497 C 66.162 51.227, 64.838 51.982, 67.020 52.768 C 84.818 59.177, 90.785 61.634, 92.289 63.171 C 96.203 67.173, 97 65.719, 97 54.582 C 97 48.852, 96.727 43.452, 96.393 42.582 C 95.441 40.100, 92.464 40.734, 78.020 46.497 M 99.006 46.250 C 99.009 48.587, 99.298 54.173, 99.647 58.662 L 100.283 66.823 108.538 70.015 C 116.581 73.124, 116.842 73.159, 118.674 71.353 C 119.708 70.334, 128.276 65.900, 137.713 61.500 C 147.151 57.100, 154.564 53.219, 154.186 52.874 C 153.607 52.346, 101.772 42, 99.705 42 C 99.317 42, 99.003 43.913, 99.006 46.250 M 55.250 55.488 C 53.462 56.267, 52 57.227, 52 57.623 C 52 58.019, 50.413 65.898, 48.472 75.132 C 45.159 90.903, 45.026 92.242, 46.279 97.211 L 47.614 102.500 52.057 102.706 L 56.500 102.912 53.250 101.453 C 51.462 100.651, 50 99.298, 50 98.447 C 50 97.164, 50.980 96.999, 55.750 97.477 C 71.875 99.093, 87.199 99.882, 91.823 99.335 C 96.381 98.795, 97 98.446, 97 96.421 C 97 94.493, 95.058 93.117, 85 87.918 C 78.400 84.507, 73.004 81.442, 73.008 81.108 C 73.012 80.773, 75.937 77.216, 79.508 73.203 C 83.079 69.190, 86 65.559, 86 65.133 C 86 64.550, 67.457 57.042, 59.500 54.404 C 58.950 54.222, 57.038 54.710, 55.250 55.488 M 83.188 73.103 C 79.733 77.029, 77.041 80.350, 77.204 80.484 C 77.367 80.618, 81.888 83.078, 87.250 85.950 L 97 91.173 97 79.695 C 97 68.404, 96.961 68.207, 94.593 67.613 C 93.269 67.280, 91.574 66.774, 90.827 66.487 C 90.011 66.174, 86.961 68.816, 83.188 73.103 M 100 81.178 L 100 92.571 106.750 95.988 C 112.083 98.688, 113.028 99.482, 111.250 99.772 C 107.003 100.465, 109.001 102, 114.151 102 L 119.302 102 118.656 92.250 C 118.301 86.888, 118.008 81.139, 118.005 79.476 C 118 76.619, 117.573 76.294, 110.250 73.585 C 105.987 72.007, 101.938 70.507, 101.250 70.251 C 100.296 69.896, 100 72.483, 100 81.178 M 100 97 C 100 97.550, 101.013 97.993, 102.250 97.985 C 104.069 97.972, 104.213 97.784, 103 97 C 101.061 95.747, 100 95.747, 100 97 M 63.250 101.689 C 64.213 101.941, 65.787 101.941, 66.750 101.689 C 67.713 101.438, 66.925 101.232, 65 101.232 C 63.075 101.232, 62.288 101.438, 63.250 101.689 M 73.500 103.916 L 69.500 104.549 73.145 105.817 C 76.018 106.817, 76.682 107.500, 76.279 109.040 C 75.790 110.909, 75.925 110.929, 79.352 109.497 C 81.323 108.674, 83.103 108, 83.308 108 C 83.513 108, 86.790 117.869, 90.590 129.932 L 97.500 151.864 97.769 128.702 C 97.917 115.964, 97.819 104.970, 97.550 104.271 C 97.029 102.912, 81.316 102.680, 73.500 103.916 M 100.677 132.250 C 100.946 147.787, 101.243 160.844, 101.337 161.263 C 101.432 161.683, 105.721 150.779, 110.869 137.031 C 122.081 107.090, 122.207 105.664, 113.730 104.646 C 110.854 104.300, 106.630 104.013, 104.344 104.009 L 100.188 104 100.677 132.250 M 44.288 127.761 C 29.872 134.116, 18.280 139.644, 18.529 140.047 C 18.778 140.450, 23.936 141.104, 29.991 141.499 C 42.614 142.324, 41.987 141.569, 39.539 152.990 C 38.774 156.560, 38.359 159.692, 38.617 159.950 C 39.867 161.200, 67.497 176.837, 67.843 176.490 C 68.167 176.166, 72.902 121.540, 72.978 117.250 C 72.990 116.563, 72.438 116.047, 71.750 116.104 C 71.063 116.161, 58.705 121.407, 44.288 127.761" stroke="none" fill="black" fill-rule="evenodd"/>
</svg>