<svg xmlns="http://www.w3.org/2000/svg" width="200" height="200" viewBox="0 0 200 200" version="1.1">
	<path d="M 129 19.578 L 93.500 25.943 71.782 24.273 C 51.861 22.740, 47.484 22.818, 49.337 24.670 C 49.706 25.039, 56.053 25.837, 63.443 26.443 C 70.833 27.049, 77.122 27.788, 77.418 28.085 C 77.715 28.382, 71.668 29.679, 63.979 30.968 C 54.102 32.624, 50 33.706, 50 34.656 C 50 36.312, 49.385 36.315, 85.500 34.496 C 101.450 33.692, 117.200 33.050, 120.500 33.069 L 126.500 33.103 115.921 38.474 C 105.781 43.623, 104.061 44.123, 74.421 50.539 C 57.415 54.221, 43.080 57.623, 42.567 58.100 C 42.053 58.577, 41.934 59.268, 42.302 59.635 C 42.670 60.003, 57.490 61.123, 75.235 62.124 C 102.329 63.653, 119.980 65.646, 121.705 67.372 C 121.883 67.550, 121.089 68.888, 119.941 70.347 C 117.952 72.877, 117.424 73, 108.583 73 C 103.483 73, 94.509 73.294, 88.640 73.653 L 77.969 74.306 69.985 83.384 C 65.593 88.377, 62 92.808, 62 93.231 C 62 94.998, 64.723 93.727, 70.263 89.375 C 73.516 86.819, 76.515 85.141, 76.966 85.625 C 80.378 89.285, 92 103.238, 92 103.675 C 92 103.976, 90.109 106.535, 87.798 109.361 C 85.487 112.188, 83.541 114.609, 83.473 114.742 C 83.405 114.875, 78.290 114.224, 72.106 113.295 C 62.332 111.826, 60.744 111.795, 59.960 113.053 C 59.464 113.849, 53.565 127.207, 46.851 142.739 C 40.137 158.270, 34.437 170.770, 34.183 170.516 C 33.929 170.262, 33.215 164.980, 32.596 158.777 C 31.580 148.599, 31.782 143.943, 34.669 111 C 37.334 80.579, 37.878 69.545, 37.933 44.750 C 37.970 28.387, 37.614 15, 37.142 15 C 35.679 15, 35 26.351, 35 50.827 C 35 68.901, 34.283 82.494, 31.908 109.430 C 28.740 145.371, 28.677 150.355, 31.129 171.877 C 32.180 181.101, 32.448 181.990, 33.547 179.877 C 34.226 178.570, 40.718 163.775, 47.974 147 C 55.229 130.225, 61.545 116.106, 62.009 115.624 C 62.490 115.124, 66.764 115.338, 71.969 116.124 L 81.087 117.500 67.033 134.500 L 52.979 151.500 61.240 152.151 C 65.783 152.509, 74.225 152.891, 80 153 C 85.775 153.109, 92.840 153.491, 95.699 153.849 L 100.898 154.500 77.466 166.500 C 63.834 173.481, 54.027 179.087, 54.017 179.904 C 54.003 181.083, 57.007 181.203, 72.750 180.657 C 83.063 180.298, 111.188 179.707, 135.250 179.343 C 170.020 178.816, 179 178.415, 179 177.387 C 179 175.936, 177.289 175.400, 158.439 170.949 C 145.713 167.944, 145.161 167.710, 145.978 165.653 C 146.448 164.469, 148.253 160.125, 149.990 156 C 152.066 151.067, 153.335 146.101, 153.699 141.489 L 154.252 134.479 133.376 128.136 C 121.894 124.648, 112.073 121.390, 111.550 120.897 C 110.982 120.360, 112.589 119.987, 115.550 119.967 C 125.279 119.901, 174.136 117.198, 174.636 116.698 C 175.490 115.843, 152.890 85.482, 151.599 85.749 C 150.936 85.885, 143.702 88.694, 135.522 91.991 C 127.343 95.287, 120.478 97.811, 120.266 97.599 C 120.053 97.387, 124.828 94.082, 130.875 90.256 C 138.442 85.467, 147.500 81.006, 159.937 75.943 C 173.855 70.276, 177.895 68.233, 177.530 67.044 C 174.666 57.703, 166.121 17.367, 166.601 15.453 C 167.034 13.729, 166.813 13.032, 165.858 13.107 C 165.111 13.166, 148.525 16.078, 129 19.578 M 141.613 23.060 C 130.675 26.286, 121.225 29.160, 120.613 29.447 C 120.001 29.735, 122.979 29.856, 127.232 29.717 C 132.671 29.538, 135.105 29.832, 135.441 30.707 C 135.747 31.503, 130.374 34.626, 120.502 39.389 C 105.306 46.721, 104.735 46.903, 80.569 52.107 C 67.085 55.010, 56.240 57.573, 56.468 57.801 C 56.696 58.030, 68.005 58.828, 81.599 59.575 C 95.193 60.322, 109.507 61.610, 113.408 62.436 C 117.308 63.262, 121.443 64.064, 122.595 64.219 C 124.247 64.440, 128.747 59.580, 143.845 41.266 C 154.380 28.487, 163 17.799, 163 17.516 C 163 16.750, 163.078 16.730, 141.613 23.060 M 117.500 24.315 C 105.749 26.355, 105.592 26.417, 109.911 27.290 C 113.522 28.020, 116.062 27.691, 123.911 25.477 C 129.185 23.989, 133.688 22.598, 133.917 22.386 C 134.736 21.627, 129.315 22.264, 117.500 24.315 M 146.183 42.692 C 136.739 54.136, 128.982 63.950, 128.945 64.500 C 128.909 65.050, 135.543 66.850, 143.689 68.500 C 151.835 70.150, 158.955 71.798, 159.512 72.162 C 160.787 72.996, 173.240 67.779, 173.770 66.189 C 174.181 64.957, 165.252 25.472, 164.047 23.192 C 163.592 22.331, 157.474 29.010, 146.183 42.692 M 82.500 30.604 L 76.500 31.951 86.500 31.481 C 92 31.222, 99.650 30.945, 103.500 30.864 L 110.500 30.718 105 29.958 C 96.994 28.851, 89.324 29.071, 82.500 30.604 M 123.525 69.973 C 122.510 71.094, 121.895 72.229, 122.160 72.493 C 122.424 72.757, 127.784 72.670, 134.070 72.299 L 145.500 71.625 139.500 70.395 C 126.879 67.808, 125.516 67.772, 123.525 69.973 M 120.373 75.850 C 119.203 76.207, 113.277 82.557, 107.204 89.959 L 96.161 103.418 98.048 105.959 C 99.085 107.357, 101.861 110.583, 104.217 113.128 L 108.500 117.756 139 116.262 C 155.775 115.440, 169.661 114.621, 169.859 114.442 C 170.397 113.953, 152.808 89.863, 151.564 89.386 C 150.973 89.159, 140.384 93.030, 128.033 97.987 C 105.542 107.014, 102.508 107.977, 103.210 105.870 C 103.884 103.847, 139.292 81.522, 147 78.260 L 154.500 75.086 138.500 75.143 C 129.700 75.174, 121.543 75.492, 120.373 75.850 M 81.854 76.706 C 80.399 76.930, 78.519 77.875, 77.677 78.806 C 76.276 80.355, 76.876 81.354, 84.702 90.500 C 89.408 96, 93.576 100.625, 93.965 100.778 C 94.540 101.005, 103.310 90.814, 113.323 78.281 L 115.145 76 99.823 76.150 C 91.395 76.232, 83.309 76.483, 81.854 76.706 M 90.679 110.062 C 88.656 112.426, 87 114.671, 87 115.051 C 87 115.431, 89.362 116.041, 92.250 116.406 C 95.138 116.771, 99.039 117.344, 100.920 117.678 L 104.340 118.286 102.194 115.393 C 101.013 113.802, 98.767 110.984, 97.203 109.132 L 94.358 105.763 90.679 110.062 M 71.642 133.144 C 61.173 145.842, 59.317 148.573, 60.788 149.117 C 61.764 149.478, 73.461 150.107, 86.781 150.514 C 100.101 150.921, 110.992 151.535, 110.983 151.877 C 110.973 152.220, 99.835 158.259, 86.233 165.297 L 61.500 178.094 84.500 177.554 C 97.150 177.257, 120.550 176.711, 136.500 176.341 L 165.500 175.669 153.750 172.718 C 147.287 171.095, 142 169.349, 142 168.837 C 142 168.325, 144.025 163.101, 146.500 157.228 C 149.839 149.305, 151 145.240, 151 141.475 L 151 136.402 130.250 130.110 C 118.838 126.650, 109.050 123.272, 108.500 122.605 C 107.950 121.937, 103.675 120.832, 99 120.149 C 94.325 119.467, 89.098 118.665, 87.385 118.368 C 84.393 117.849, 83.767 118.437, 71.642 133.144" stroke="none" fill="black" fill-rule="evenodd"/>
</svg>