<svg xmlns="http://www.w3.org/2000/svg" width="200" height="200" viewBox="0 0 200 200" version="1.1">
	<path d="M 92 16.484 C 92 16.751, 97.038 23.838, 103.195 32.234 C 112.864 45.418, 114.484 48.182, 115.070 52.500 C 115.443 55.250, 115.633 57.635, 115.491 57.800 C 115.181 58.160, 56.078 56.140, 50.789 55.588 C 47.376 55.232, 44.181 56.848, 45.565 58.231 C 45.866 58.533, 45.132 64.341, 43.933 71.139 C 42.199 80.973, 40.552 86.330, 35.877 97.345 C 32.645 104.959, 30 111.372, 30 111.595 C 30 111.818, 30.601 112, 31.336 112 C 32.098 112, 35.113 106.292, 38.357 98.707 C 42.548 88.908, 44.599 82.435, 46.161 74.081 C 47.704 65.829, 48.531 63.198, 49.207 64.405 C 49.716 65.316, 52.954 72.475, 56.401 80.314 L 62.669 94.567 58.330 101.034 C 49.039 114.880, 34.306 128.927, 20.167 137.420 C 18.564 138.383, 19.483 136.506, 26.899 123.671 C 32.154 114.576, 32.908 112.535, 30.750 113.244 C 28.726 113.910, 12.925 142.325, 13.988 143.388 C 14.569 143.969, 19.100 141.562, 25.936 137.042 C 34.336 131.488, 39.286 127.239, 46.803 119.130 C 52.223 113.284, 58.293 106.057, 60.290 103.071 L 63.923 97.641 66.804 104.071 C 74.843 122.008, 85.942 147.667, 86.204 148.916 C 86.647 151.033, 81.270 152.060, 65.756 152.824 L 52.012 153.500 64.758 164.039 C 73.288 171.092, 81.084 176.499, 88.325 180.383 C 94.277 183.575, 99.270 186.033, 99.420 185.844 C 99.571 185.655, 104.007 179.572, 109.277 172.326 L 118.859 159.152 118.680 110.031 L 118.500 60.911 121.423 61.205 C 123.864 61.451, 125.665 63.308, 132.351 72.470 C 141.668 85.237, 148.263 99.550, 154.942 121.500 C 157.285 129.200, 159.494 135.991, 159.851 136.591 C 160.293 137.334, 164.930 136.469, 174.379 133.879 C 182.013 131.786, 188.395 129.938, 188.562 129.771 C 188.729 129.604, 187.083 122.040, 184.904 112.962 L 180.942 96.456 171.580 85.927 L 162.218 75.398 145.679 66.699 C 136.582 61.914, 128.251 58, 127.164 58 C 124.262 58, 118 48.876, 118 44.649 C 118 42.809, 119.125 36.217, 120.500 30 C 121.875 23.783, 123 18.090, 123 17.349 C 123 16.275, 119.837 16, 107.500 16 C 98.975 16, 92 16.218, 92 16.484 M 99.214 22.250 C 100.561 24.038, 104.520 29.433, 108.010 34.239 C 111.500 39.046, 114.505 42.828, 114.688 42.646 C 114.871 42.463, 115.920 38.080, 117.019 32.906 C 118.119 27.733, 119.248 22.488, 119.528 21.250 C 120.034 19.016, 119.954 19, 108.400 19 L 96.763 19 99.214 22.250 M 118 55.333 C 118 57.397, 118.487 58, 120.155 58 C 122.284 58, 122.287 57.973, 120.416 55.750 C 119.374 54.513, 118.404 53.313, 118.261 53.083 C 118.117 52.854, 118 53.867, 118 55.333 M 66 62.351 L 75.500 65.683 75.129 73.536 C 74.781 80.891, 74.475 81.814, 70.277 88.126 L 65.797 94.864 77.580 121.682 C 84.061 136.432, 89.797 148.792, 90.327 149.149 C 90.858 149.506, 91.047 150.435, 90.749 151.213 C 90.155 152.759, 74.320 155.898, 65.195 156.279 L 59.891 156.500 69.695 164.589 C 75.417 169.309, 83.413 174.692, 88.897 177.516 L 98.294 182.355 100.014 180.231 C 100.960 179.063, 104.943 173.643, 108.867 168.185 L 116 158.263 116 109.736 L 116 61.208 108.250 60.623 C 103.987 60.301, 90.600 59.809, 78.500 59.529 L 56.500 59.020 66 62.351 M 51.284 61.750 C 51.506 62.163, 54.555 69.117, 58.060 77.204 L 64.434 91.907 68.146 86.204 C 71.272 81.400, 71.908 79.492, 72.179 74.108 L 72.500 67.717 62.538 64.358 C 52.159 60.859, 50.614 60.501, 51.284 61.750 M 129.552 63.750 C 130.532 65.263, 133.823 69.875, 136.864 74 C 143.615 83.155, 150.518 98.479, 156.637 117.893 C 159.169 125.927, 161.580 132.871, 161.995 133.324 C 162.409 133.778, 167.908 132.729, 174.215 130.993 L 185.681 127.838 181.956 112.669 L 178.230 97.500 169.365 87.581 C 160.676 77.859, 160.192 77.498, 145 69.383 C 136.475 64.830, 129.111 61.080, 128.635 61.052 C 128.159 61.023, 128.572 62.237, 129.552 63.750" stroke="none" fill="black" fill-rule="evenodd"/>
</svg>