<svg xmlns="http://www.w3.org/2000/svg" width="200" height="200" viewBox="0 0 200 200" version="1.1">
	<path d="M 45.040 36.920 L 35 56.981 34.953 71.740 L 34.906 86.500 27.174 66 C 21.943 52.132, 18.966 45.500, 17.971 45.500 C 16.742 45.500, 16.034 52.749, 13.663 89.640 L 10.826 133.780 20.030 148.640 C 25.092 156.813, 29.308 163.590, 29.400 163.700 C 29.491 163.810, 39.901 160.254, 52.533 155.799 L 75.500 147.698 83.750 140.255 C 88.287 136.161, 91.993 133.417, 91.984 134.156 C 91.975 134.895, 89.791 148.471, 87.132 164.324 C 82.980 189.072, 82.547 192.890, 84.067 191.324 C 85.041 190.321, 93.237 180.340, 102.280 169.145 C 117.892 149.817, 119.043 148.088, 125.099 134.861 C 128.607 127.200, 131.599 121.298, 131.748 121.745 C 131.897 122.192, 129.540 133.497, 126.510 146.867 C 120.565 173.095, 120.286 175, 122.384 175 C 123.146 175, 132.202 176.143, 142.510 177.541 C 152.818 178.939, 161.369 179.951, 161.513 179.791 C 161.657 179.631, 166.934 171.470, 173.239 161.656 L 184.703 143.812 178.957 128.973 C 175.182 119.224, 170.618 109.831, 165.653 101.591 L 158.094 89.050 166.596 82.873 C 171.714 79.155, 174.899 76.180, 174.599 75.398 C 174.325 74.685, 169.296 67.535, 163.423 59.511 C 157.550 51.487, 153.008 44.659, 153.328 44.338 C 153.649 44.018, 160.504 44.287, 168.563 44.938 C 176.621 45.588, 183.367 45.966, 183.555 45.778 C 183.743 45.590, 177.160 39.676, 168.925 32.635 L 153.954 19.834 146.490 20.533 C 140.122 21.130, 138.935 20.995, 138.406 19.616 C 137.579 17.460, 136.346 17.569, 135.749 19.851 C 135.182 22.020, 135.840 21.901, 104 25.605 C 91.075 27.108, 80.180 28.604, 79.790 28.930 C 79.399 29.255, 81.090 35.816, 83.548 43.510 C 86.006 51.205, 88.677 59.682, 89.484 62.349 L 90.951 67.198 88.328 65.479 C 80.526 60.367, 63.359 49.691, 62.266 49.272 C 61.259 48.885, 61 56.268, 61 85.393 C 61 118.265, 61.163 122, 62.598 122 C 64.038 122, 64.162 118.593, 63.848 87.573 L 63.500 53.145 67 55.269 C 70.921 57.648, 87.339 68.088, 87.792 68.491 C 87.952 68.633, 86.039 76.888, 83.542 86.835 C 81.044 96.781, 79 105.615, 79 106.465 C 79 107.583, 83.915 105.544, 96.750 99.103 L 114.500 90.196 120.808 71.756 C 126.902 53.938, 127.234 53.259, 130.640 51.635 L 134.165 49.954 131.955 48.165 C 130.306 46.829, 129.928 45.801, 130.466 44.106 C 131.165 41.904, 131.447 41.856, 139.843 42.509 C 145.999 42.987, 148.789 43.629, 149.500 44.730 C 150.598 46.429, 169.710 72.840, 171.104 74.585 C 171.670 75.293, 169.209 77.648, 164.033 81.354 C 159.667 84.479, 155.822 87.480, 155.487 88.021 C 155.153 88.562, 158.462 94.966, 162.840 102.252 C 169.843 113.906, 181 139.028, 181 143.142 C 181 144.439, 161.392 175.640, 160.059 176.464 C 159.021 177.105, 125.751 172.914, 124.713 172.011 C 124.280 171.634, 127.111 156.999, 131.003 139.488 C 137.446 110.500, 138.572 102.949, 136.059 105.583 C 135.578 106.087, 130.907 115.725, 125.680 127 C 116.178 147.498, 116.175 147.502, 101.907 165.235 C 94.059 174.990, 87.479 182.812, 87.285 182.619 C 87.092 182.425, 88.989 169.992, 91.502 154.989 C 94.015 139.986, 95.942 127.344, 95.785 126.896 C 95.628 126.447, 90.784 130.329, 85.020 135.523 C 76.138 143.524, 73.426 145.371, 67.246 147.625 C 63.234 149.088, 59.686 150.020, 59.361 149.695 C 59.036 149.370, 58.485 119.530, 58.135 83.384 C 57.651 33.322, 57.212 17.569, 56.290 17.262 C 55.557 17.019, 51.121 24.770, 45.040 36.920 M 143.325 23.850 C 141.217 24.480, 141.296 24.749, 145.863 32.500 L 150.577 40.500 163.038 41.632 C 169.892 42.254, 175.618 42.661, 175.763 42.535 C 175.907 42.410, 170.982 37.963, 164.818 32.654 C 154.480 23.748, 153.297 23.008, 149.556 23.100 C 147.325 23.155, 144.521 23.492, 143.325 23.850 M 45.979 41.219 L 37.459 58.500 38.377 100.269 C 38.882 123.242, 39.004 142.329, 38.648 142.686 C 38.292 143.042, 37.701 143.034, 37.335 142.668 C 36.969 142.302, 35.618 129.740, 34.333 114.752 L 31.996 87.500 25.842 70.739 C 22.458 61.520, 19.465 54.201, 19.192 54.474 C 18.678 54.988, 14.120 121.003, 14.043 129.048 C 14.005 133.027, 15.018 135.247, 22.139 146.798 C 26.615 154.059, 30.777 159.998, 31.389 159.996 C 32 159.995, 37.900 158.070, 44.500 155.719 L 56.500 151.446 56.340 147.473 C 56.252 145.288, 55.802 116.599, 55.340 83.719 L 54.500 23.939 45.979 41.219 M 134.695 31.394 L 132.170 38.903 136.362 39.532 C 138.667 39.877, 141.961 40.012, 143.681 39.830 L 146.809 39.500 142.613 32.292 C 140.306 28.328, 138.148 24.815, 137.818 24.485 C 137.489 24.155, 136.083 27.265, 134.695 31.394 M 106.658 28.028 C 94.094 29.581, 83.602 31.065, 83.341 31.326 C 82.509 32.157, 93.377 66.002, 94.461 65.956 C 97.057 65.847, 125.528 50.347, 125.795 48.897 C 125.986 47.861, 123.772 45.784, 119.545 43.029 C 115.945 40.684, 113 38.543, 113 38.272 C 113 38.001, 116.640 37.942, 121.090 38.140 L 129.180 38.500 131.095 33.500 C 134.381 24.921, 134.376 24.989, 131.817 25.102 C 130.543 25.159, 119.221 26.475, 106.658 28.028 M 123.559 42.468 C 125.749 44.125, 128 44.449, 128 43.107 C 128 42.075, 125.565 41, 123.227 41 C 121.899 41, 121.957 41.256, 123.559 42.468 M 108.018 62.529 C 96.726 68.098, 94.857 69.347, 95.297 71.029 C 95.832 73.075, 94.582 73.751, 93.500 72 C 91.639 68.988, 90.178 72.049, 86.696 86.250 C 84.640 94.638, 82.967 101.836, 82.979 102.246 C 82.990 102.656, 89.510 99.745, 97.467 95.778 L 111.934 88.565 116.837 74.532 C 123.223 56.253, 123.296 56, 122.194 56 C 121.677 56, 115.298 58.938, 108.018 62.529" stroke="none" fill="black" fill-rule="evenodd"/>
</svg>