<svg xmlns="http://www.w3.org/2000/svg" width="200" height="200" viewBox="0 0 200 200" version="1.1">
	<path d="M 58.030 3.145 C 58.014 3.499, 55.525 19.553, 52.500 38.820 C 49.475 58.087, 47 74.335, 47 74.926 C 47 75.517, 47.567 76, 48.259 76 C 49.123 76, 50.403 70.266, 52.333 57.750 C 53.881 47.713, 56.093 33.496, 57.248 26.159 L 59.349 12.818 66.191 31.159 C 69.954 41.246, 76.311 60.888, 80.318 74.807 C 84.325 88.725, 87.953 100.125, 88.381 100.140 C 88.808 100.154, 95.456 94.208, 103.154 86.926 L 117.150 73.685 116.488 77.592 C 115.366 84.210, 115.153 84.508, 109.611 87.227 C 104.986 89.495, 102.278 92.246, 90.460 106.684 C 82.890 115.933, 76.289 124.026, 75.793 124.669 C 75.158 125.491, 64.491 177.165, 62.926 187 C 62.882 187.275, 59.587 173.550, 55.604 156.500 C 51.621 139.450, 48.130 124.825, 47.847 124 C 47.564 123.175, 45.454 128.139, 43.157 135.030 L 38.981 147.561 29.912 156.530 L 20.844 165.500 21.532 136 C 21.911 119.775, 22.508 106.209, 22.860 105.854 C 23.212 105.498, 31.037 102.833, 40.250 99.930 C 49.463 97.027, 56.998 94.393, 56.995 94.076 C 56.992 93.759, 47.767 89.459, 36.495 84.520 C 25.223 79.581, 16 75.027, 16 74.401 C 16 71.782, 33.882 22.628, 34.336 24 C 34.810 25.433, 43 72.118, 43 73.388 C 43 73.725, 43.711 74, 44.579 74 C 45.779 74, 46.017 73.339, 45.568 71.250 C 45.243 69.737, 42.961 56.800, 40.496 42.500 C 38.031 28.200, 35.745 15.375, 35.415 14 C 34.967 12.125, 31.965 19.610, 23.414 43.923 C 17.143 61.755, 12.144 76.478, 12.306 76.640 C 12.469 76.802, 20.903 80.610, 31.051 85.101 C 41.198 89.593, 49.651 93.397, 49.837 93.554 C 50.022 93.711, 43.422 96.013, 35.170 98.670 L 20.167 103.500 19.608 110.500 C 19.300 114.350, 18.805 129.875, 18.507 145 L 17.965 172.500 29.776 160.229 C 40.525 149.062, 41.805 147.330, 44.007 140.979 C 45.338 137.140, 46.678 134, 46.985 134 C 47.291 134, 50.648 147.522, 54.445 164.048 C 58.241 180.575, 61.749 194.345, 62.240 194.648 C 62.731 194.952, 63.407 194.927, 63.741 194.592 C 64.076 194.258, 67.308 178.881, 70.925 160.422 L 77.500 126.861 91.500 109.556 C 102.358 96.136, 106.481 91.764, 109.871 90.080 C 112.275 88.886, 114.357 88.042, 114.498 88.204 C 115.206 89.021, 110.624 113.886, 109.854 113.409 C 109.359 113.104, 107.416 110.569, 105.535 107.775 C 102.135 102.727, 102.110 102.713, 101.435 105.404 C 100.928 107.424, 101.294 108.684, 102.878 110.370 C 104.892 112.514, 105 113.627, 105 132.314 C 105 148.372, 105.254 152, 106.378 152 C 107.387 152, 108.347 148.048, 109.962 137.250 C 111.175 129.137, 112.261 122.104, 112.377 121.621 C 112.570 120.811, 134.156 143.254, 134.772 144.905 C 134.922 145.306, 130.925 153.397, 125.889 162.883 C 120.348 173.320, 117.094 180.494, 117.648 181.048 C 118.202 181.602, 126.479 176.682, 138.606 168.591 L 158.649 155.219 167.457 129.484 C 172.301 115.330, 176.317 103.207, 176.382 102.543 C 176.447 101.880, 173.556 98.813, 169.957 95.728 C 165.091 91.557, 159.904 88.530, 149.711 83.914 L 136.007 77.708 154.253 69.221 C 164.289 64.554, 172.651 60.607, 172.835 60.449 C 173.122 60.205, 159.247 28.095, 158.454 27.169 C 157.874 26.490, 125.788 22.879, 125.237 23.430 C 124.921 23.746, 123.823 29.283, 122.797 35.737 C 120.936 47.433, 120.086 49.789, 118.156 48.597 C 117.596 48.250, 113.429 41.146, 108.896 32.809 L 100.654 17.650 93.492 45.575 C 89.554 60.934, 85.998 74.850, 85.592 76.500 C 84.958 79.072, 86.395 77.999, 95.676 68.966 C 103.071 61.769, 108.184 57.666, 111.816 56.014 C 118.494 52.977, 119.344 53.859, 118.501 62.950 L 117.903 69.401 108.202 78.500 C 102.866 83.505, 96.425 89.490, 93.890 91.799 L 89.279 95.997 83.573 75.749 C 77.448 54.017, 58.210 -0.667, 58.030 3.145 M 95.826 47.641 L 90.230 70.115 97.365 63.288 C 101.383 59.444, 106.794 55.412, 109.750 54.060 C 112.638 52.739, 115 51.228, 115 50.703 C 115 49.814, 106.637 33.841, 103.026 27.833 C 101.455 25.220, 101.311 25.618, 95.826 47.641 M 126.036 33.250 C 125.406 37.237, 124.654 41.737, 124.366 43.250 C 123.737 46.547, 123.123 46.511, 138 44.064 C 144.325 43.024, 149.632 42.304, 149.793 42.463 C 149.955 42.623, 144.794 47.756, 138.325 53.870 L 126.563 64.986 129.531 70.498 C 131.601 74.340, 132.954 75.845, 134 75.465 C 140.925 72.948, 168.950 59.257, 168.972 58.380 C 168.987 57.764, 166.172 51.014, 162.715 43.380 L 156.430 29.500 143.965 27.826 C 125.579 25.357, 127.368 24.815, 126.036 33.250 M 132.500 47.663 C 128.100 48.457, 124.221 49.421, 123.880 49.804 C 122.237 51.651, 122.265 57.700, 123.927 59.904 L 125.664 62.206 134.082 54.142 C 138.712 49.708, 142.050 46.110, 141.500 46.148 C 140.950 46.187, 136.900 46.868, 132.500 47.663 M 121 64 C 121 65.867, 121.267 66.133, 122.200 65.200 C 123.133 64.267, 123.133 63.733, 122.200 62.800 C 121.267 61.867, 121 62.133, 121 64 M 122.233 69.252 C 120.938 70.631, 119.754 73.747, 119.211 77.206 L 118.319 82.893 121.410 81.571 C 127.590 78.927, 130 77.667, 129.983 77.089 C 129.974 76.765, 128.705 74.359, 127.164 71.742 L 124.363 66.985 122.233 69.252 M 125.265 82.675 C 120.032 85.105, 117.896 86.653, 117.549 88.268 C 117.285 89.495, 116.147 96.514, 115.019 103.865 L 112.968 117.229 124.734 129.682 C 131.205 136.532, 136.950 142.789, 137.500 143.588 C 138.233 144.652, 137.533 146.841, 134.883 151.770 C 132.894 155.472, 129.105 162.512, 126.463 167.414 C 123.821 172.317, 122.298 175.947, 123.079 175.481 C 123.861 175.014, 131.766 169.790, 140.646 163.871 L 156.792 153.110 165.252 127.751 L 173.712 102.393 167.924 97.420 C 162.612 92.856, 158.180 90.537, 137.500 81.500 L 132.500 79.315 125.265 82.675 M 107.058 118.750 C 107.089 120.263, 107.449 123.300, 107.858 125.500 L 108.600 129.500 109.317 123.682 C 109.711 120.482, 109.774 117.444, 109.458 116.932 C 108.309 115.073, 107.001 116.063, 107.058 118.750" stroke="none" fill="black" fill-rule="evenodd"/>
</svg>