<svg xmlns="http://www.w3.org/2000/svg" width="200" height="200" viewBox="0 0 200 200" version="1.1">
	<path d="M 105.391 12.629 C 104.634 12.932, 105.309 17.518, 107.514 27.058 L 110.745 41.044 84.623 40.405 L 58.500 39.766 52.153 36.280 C 44.571 32.115, 42.294 32.897, 46.385 38.260 C 47.823 40.146, 49 42.135, 49 42.680 C 49 43.226, 46.998 50.342, 44.551 58.495 C 40.420 72.261, 39.375 74.521, 29.896 90.171 C 24.283 99.440, 19.872 107.176, 20.095 107.363 C 20.318 107.550, 24.216 107.256, 28.759 106.708 L 37.018 105.714 53.905 88.453 L 70.792 71.192 80.646 84.617 C 86.066 92.001, 90.634 98.435, 90.798 98.915 C 90.962 99.395, 88.002 100.098, 84.221 100.478 C 80.440 100.858, 76.917 101.468, 76.394 101.834 C 75.870 102.200, 73.786 104.838, 71.762 107.695 L 68.082 112.890 72.791 116.277 C 75.381 118.140, 82.525 123.116, 88.666 127.336 L 99.833 135.007 101.778 131.753 C 102.848 129.964, 106.998 122.476, 111 115.113 L 118.276 101.726 117.710 86.113 L 117.144 70.500 119.033 78 C 120.071 82.125, 122.449 92.111, 124.315 100.191 L 127.710 114.883 114.605 127.763 C 107.397 134.847, 95.425 145.376, 88 151.161 C 74.915 161.355, 73.892 161.935, 54.750 170.001 C 43.887 174.578, 35.002 178.813, 35.005 179.412 C 35.008 180.010, 36.035 181.781, 37.287 183.346 L 39.565 186.192 59.532 181.063 C 76.458 176.716, 82.014 174.774, 96 168.314 C 111.131 161.325, 113.680 159.747, 126.727 149.293 C 138.769 139.643, 167.704 111.301, 168.801 108.079 C 168.966 107.594, 163.931 104.340, 157.611 100.848 L 146.122 94.500 138.646 72.500 C 134.534 60.400, 130.826 49.600, 130.405 48.500 C 129.985 47.400, 131.999 49.200, 134.880 52.500 C 138.605 56.766, 143.004 64.229, 150.099 78.320 C 155.589 89.221, 160.429 97.996, 160.855 97.820 C 184.571 88.036, 187.998 86.438, 187.585 85.360 C 186.915 83.615, 163.951 50, 163.428 50 C 163.189 50, 156.471 48.200, 148.500 46 C 140.529 43.800, 132.907 42, 131.562 42 C 130.218 42, 128.854 41.573, 128.531 41.050 C 128.202 40.518, 125.691 40.368, 122.815 40.708 L 117.686 41.316 118.305 33.408 L 118.924 25.500 112.712 18.842 C 109.295 15.181, 106.001 12.385, 105.391 12.629 M 110.814 29.302 C 112.223 35.736, 113.683 41, 114.058 41 C 114.898 41, 115.985 34.714, 115.959 30 C 115.945 27.394, 114.958 25.363, 112.096 22.052 L 108.251 17.604 110.814 29.302 M 53.700 43.323 C 57.137 49.008, 70.471 65.911, 71.025 65.286 C 71.409 64.854, 74.542 60.900, 77.988 56.500 C 84.483 48.206, 85.453 47.307, 86.350 48.757 C 86.643 49.232, 83.531 53.818, 79.435 58.949 C 74.651 64.941, 72.298 68.676, 72.859 69.389 C 76.623 74.182, 96 101.037, 96 101.461 C 96 101.758, 95.118 102, 94.041 102 C 92.963 102, 88.801 102.496, 84.791 103.101 C 77.897 104.143, 77.346 104.422, 74.672 108.224 C 73.117 110.435, 72.217 112.573, 72.672 112.975 C 73.128 113.376, 79.217 117.612, 86.204 122.388 L 98.908 131.071 100.322 128.785 C 101.100 127.528, 104.778 120.906, 108.497 114.069 L 115.258 101.639 114.704 78.993 C 114.399 66.537, 113.576 53.569, 112.875 50.173 C 111.658 44.279, 111.462 43.995, 108.550 43.888 C 94.240 43.363, 63.997 42.534, 63.998 42.667 C 63.999 42.760, 66.356 44.195, 69.236 45.858 C 73.157 48.122, 74.060 49.040, 72.831 49.511 C 71.839 49.892, 68.343 48.529, 64.005 46.071 C 56.768 41.970, 52.136 40.735, 53.700 43.323 M 117.704 50.265 C 117.184 55.836, 117.967 60.307, 123.977 86.065 L 130.845 115.500 117.172 129.003 C 109.653 136.429, 97.328 147.333, 89.784 153.234 C 76.530 163.602, 75.446 164.224, 57.545 171.731 C 40.605 178.836, 37.312 180.839, 39.918 182.450 C 40.423 182.762, 49.730 180.702, 60.599 177.873 C 77.212 173.549, 82.841 171.563, 95.930 165.404 C 109.908 158.828, 112.971 156.896, 125.884 146.509 C 140.157 135.028, 165.730 109.275, 164.235 107.888 C 163.831 107.513, 159.225 104.857, 154 101.987 C 148.775 99.116, 144.358 96.640, 144.184 96.485 C 144.010 96.329, 139.900 84.568, 135.051 70.351 L 126.233 44.500 122.266 44.200 L 118.299 43.900 117.704 50.265 M 132 44.741 C 132 44.989, 134.422 47.962, 137.383 51.346 C 141.233 55.747, 145.435 62.806, 152.133 76.125 L 161.500 94.750 172.191 90.125 C 178.071 87.581, 183.130 85.241, 183.433 84.925 C 183.736 84.609, 179.103 77.207, 173.139 68.476 L 162.295 52.601 147.148 48.445 C 138.816 46.159, 132 44.492, 132 44.741 M 46.975 59.758 C 42.999 73.160, 41.799 75.818, 33.777 88.992 C 28.925 96.963, 25.442 103.647, 26.040 103.847 C 26.637 104.046, 29.068 103.917, 31.442 103.561 C 35.410 102.966, 37.065 101.587, 51.880 86.531 C 60.746 77.520, 68 69.542, 68 68.803 C 68 67.809, 53.950 47.617, 51.676 45.343 C 51.497 45.163, 49.381 51.650, 46.975 59.758" stroke="none" fill="black" fill-rule="evenodd"/>
</svg>