<svg xmlns="http://www.w3.org/2000/svg" width="200" height="200" viewBox="0 0 200 200" version="1.1">
	<path d="M 80.948 14.472 C 80.919 14.487, 80.806 43.638, 80.698 79.250 C 80.557 125.468, 80.812 144, 81.591 144 C 83.002 144, 84.352 63.242, 83.388 36.462 L 82.704 17.423 97.894 18.587 C 106.248 19.227, 113.233 19.919, 113.415 20.125 C 113.597 20.331, 112.091 26.350, 110.069 33.500 C 106.418 46.405, 106.397 46.587, 107.194 58.500 C 107.635 65.100, 107.885 87.752, 107.748 108.838 L 107.500 147.175 116.395 151.998 L 125.290 156.820 119.395 157.656 C 112.011 158.703, 80.362 158.439, 73 157.270 C 67.588 156.410, 67.680 156.383, 78.750 155.614 C 87.935 154.975, 90 154.545, 90 153.273 C 90 151.974, 89.046 151.814, 84.250 152.313 C 81.088 152.642, 73.749 153.217, 67.942 153.590 L 57.385 154.270 54.192 142.263 C 51.228 131.114, 51 129.100, 51 114.055 C 51 105.144, 51.721 90.193, 52.602 80.829 C 53.486 71.446, 53.822 63.423, 53.352 62.955 C 51.922 61.528, 31.830 52.890, 30.767 53.244 C 30.220 53.427, 27.980 58.284, 25.789 64.038 L 21.806 74.500 21.609 127.250 L 21.412 180 27.456 179.869 C 30.780 179.797, 36.707 179.460, 40.626 179.119 L 47.751 178.500 53.854 171.185 C 57.211 167.162, 60.794 162.806, 61.817 161.506 L 63.677 159.141 79.589 160.680 C 92.910 161.969, 98.104 162.028, 111.500 161.042 C 120.300 160.395, 128.246 159.653, 129.158 159.394 C 130.390 159.044, 132.407 161.564, 137.015 169.212 C 140.424 174.870, 143.367 179.663, 143.553 179.863 C 143.913 180.248, 167.290 177.179, 170.225 176.361 C 171.829 175.915, 171.952 172.398, 171.971 126.489 C 171.990 79.564, 172.090 76.846, 173.981 72.049 C 176.056 66.784, 175.806 66.363, 171.565 67.975 C 169.354 68.816, 169 69.551, 169 73.302 C 169 75.998, 167.256 82.383, 164.418 90.077 C 161.898 96.910, 157.638 109.380, 154.953 117.788 C 150.095 132.997, 150.025 133.134, 141.407 144.119 C 136.642 150.192, 132.143 155.392, 131.408 155.674 C 130.674 155.955, 125.598 153.816, 120.129 150.920 L 110.185 145.654 110.696 112.577 C 110.977 94.385, 110.754 72.104, 110.201 63.065 L 109.195 46.630 113.230 32.281 C 115.449 24.389, 117.093 17.761, 116.882 17.552 C 116.608 17.279, 81.350 14.258, 80.948 14.472 M 30.888 58.751 C 30.305 60.263, 28.682 64.425, 27.283 68 L 24.739 74.500 24.498 125.893 L 24.257 177.285 35.325 176.613 C 41.412 176.243, 46.444 175.842, 46.507 175.720 C 46.570 175.599, 50.112 171.338, 54.379 166.250 L 62.136 157 58.606 157 C 54.639 157, 55.424 158.724, 50.555 139.319 C 47.471 127.029, 47.138 109.877, 49.492 84.500 C 51.488 62.984, 51.642 64.478, 47.250 62.691 C 45.188 61.851, 40.901 60.003, 37.725 58.584 L 31.949 56.003 30.888 58.751 M 167.302 90 C 166.644 91.925, 162.963 102.849, 159.123 114.275 L 152.141 135.050 143.070 146.412 C 138.082 152.661, 134 158.015, 134 158.310 C 134 159.540, 144.465 176.241, 145.480 176.631 C 146.587 177.056, 168.026 174.307, 168.676 173.657 C 168.866 173.467, 168.904 153.779, 168.761 129.906 C 168.549 94.658, 168.275 87.158, 167.302 90" stroke="none" fill="black" fill-rule="evenodd"/>
</svg>