<svg xmlns="http://www.w3.org/2000/svg" width="200" height="200" viewBox="0 0 200 200" version="1.1">
	<path d="M 105.500 14.678 C 102.200 14.843, 83.300 15.681, 63.500 16.540 L 27.500 18.103 21.342 24.801 C 17.352 29.142, 15.521 31.851, 16.140 32.498 C 16.764 33.149, 19.096 31.267, 22.850 27.082 L 28.605 20.668 42.321 20.203 C 54.597 19.787, 55.973 19.906, 55.424 21.337 C 55.087 22.217, 55.789 27.563, 56.984 33.218 C 60.252 48.677, 59.678 47.704, 63.397 44.100 C 65.156 42.395, 66.879 41, 67.225 41 C 67.572 41, 72.428 47.783, 78.017 56.074 C 87.553 70.220, 88.066 71.234, 86.339 72.537 C 85.328 73.301, 82.147 75.630, 79.272 77.713 C 76.396 79.796, 74.054 81.725, 74.066 82 C 74.079 82.275, 78.406 84.521, 83.682 86.991 C 88.959 89.460, 93.894 91.935, 94.650 92.491 C 95.721 93.277, 93.706 95.573, 85.512 102.899 C 79.730 108.068, 75 112.609, 75 112.990 C 75 113.371, 77.864 117.347, 81.364 121.826 C 84.864 126.305, 90.111 133.600, 93.025 138.038 C 97.525 144.893, 98.110 146.302, 96.911 147.405 C 94.347 149.766, 58.078 170, 56.412 170 C 54.888 170, 33.117 166.215, 21.232 163.884 L 15.964 162.851 30.232 147.843 C 38.079 139.588, 44.646 132.433, 44.825 131.942 C 45.004 131.451, 43.460 126.257, 41.395 120.400 C 37.803 110.216, 37.690 109.508, 38.803 104.203 C 39.443 101.152, 41.166 96.924, 42.633 94.808 C 45.165 91.155, 45.393 91.045, 47.156 92.641 C 48.177 93.565, 49.184 94.136, 49.393 93.911 C 50.870 92.319, 64.769 63.103, 64.282 62.615 C 62.972 61.305, 61.997 62.386, 53.523 74.551 L 44.781 87.103 33.640 76.376 C 27.513 70.476, 21.840 65.052, 21.033 64.322 C 19.770 63.179, 20.387 62.167, 25.493 57.007 C 29.435 53.024, 31.085 50.685, 30.421 50.021 C 29.757 49.357, 27.092 51.383, 22.462 56.072 L 15.500 63.121 18 65.160 C 19.375 66.281, 25.578 72.152, 31.784 78.208 L 43.068 89.218 40.131 93.859 C 38.516 96.412, 36.638 101.048, 35.957 104.163 C 34.757 109.658, 34.833 110.142, 38.513 120.470 L 42.305 131.114 38.362 135.307 C 36.194 137.613, 29.063 145.096, 22.515 151.935 C 11.228 163.726, 10.738 164.408, 13.055 165.107 C 14.400 165.513, 25.023 167.505, 36.663 169.536 L 57.826 173.228 78.318 161.544 C 89.588 155.117, 99.599 149.282, 100.564 148.577 C 102.181 147.395, 101.866 146.599, 96.532 138.397 C 93.349 133.504, 87.888 125.832, 84.396 121.349 L 78.046 113.198 89.549 102.870 L 101.051 92.542 89.899 86.949 L 78.747 81.356 83.757 77.678 C 86.513 75.655, 89.041 74, 89.376 74 C 89.710 74, 99.100 87.612, 110.242 104.250 L 130.500 134.500 130.770 112.599 L 131.040 90.697 124.102 79.600 C 120.286 73.497, 117.263 68.403, 117.386 68.281 C 117.508 68.159, 122.534 69.996, 128.554 72.364 L 139.500 76.668 139.763 109.662 L 140.027 142.655 133.540 164.021 C 129.973 175.772, 127.188 185.521, 127.352 185.685 C 127.515 185.849, 136.953 179.212, 148.325 170.936 L 169 155.889 168.967 149.694 C 168.948 146.287, 168.523 129.855, 168.022 113.178 L 167.111 82.855 171.644 70.019 L 176.176 57.182 169.997 37.841 C 166.599 27.204, 163.428 18.091, 162.950 17.591 C 161.011 15.561, 124.686 13.719, 105.500 14.678 M 81 18.294 C 68.075 18.815, 57.349 19.376, 57.165 19.540 C 56.980 19.703, 59.190 23.336, 62.076 27.613 L 67.323 35.388 73.411 28.654 L 79.500 21.919 90.750 22.610 C 96.938 22.990, 102 23.561, 102 23.879 C 102 24.197, 99.699 30.919, 96.887 38.816 C 94.075 46.713, 92.163 53.536, 92.637 53.977 C 93.112 54.418, 96.326 55.794, 99.781 57.035 C 103.235 58.275, 106.254 59.602, 106.489 59.983 C 106.826 60.528, 98.395 67.345, 92.670 71.157 C 92.119 71.524, 99.586 83.587, 109.592 98.491 L 127.500 125.168 128.121 108.834 L 128.742 92.500 120.726 79.500 C 116.316 72.350, 112.035 65.469, 111.212 64.209 L 109.716 61.917 114.608 63.853 C 117.299 64.918, 124.793 67.910, 131.263 70.504 L 143.025 75.218 142.365 110.859 L 141.704 146.500 136.876 162.441 C 134.221 171.209, 132.193 178.527, 132.370 178.703 C 132.546 178.879, 140.185 173.583, 149.345 166.934 L 166 154.844 165.898 142.672 C 165.841 135.977, 165.488 119.700, 165.113 106.500 L 164.432 82.500 168.812 70.124 L 173.193 57.749 171.587 52.124 C 170.703 49.031, 168.013 40.425, 165.608 33 L 161.236 19.500 148.368 18.356 C 133.194 17.008, 113.314 16.989, 81 18.294 M 74.643 31.294 L 68.891 37.846 79.196 53.397 C 84.863 61.950, 89.901 68.960, 90.391 68.974 C 91.501 69.006, 101 61.824, 101 60.952 C 101 60.602, 98.188 59.192, 94.750 57.819 C 90.687 56.196, 88.610 54.828, 88.815 53.911 C 88.988 53.135, 91.185 46.747, 93.697 39.715 C 96.209 32.684, 98.007 26.673, 97.692 26.359 C 97.377 26.044, 93.356 25.551, 88.757 25.264 L 80.395 24.743 74.643 31.294 M 59.326 30.122 C 59.608 31.014, 60.151 33.827, 60.533 36.372 C 61.271 41.295, 61.986 41.927, 64.028 39.466 C 65.028 38.261, 65.045 37.456, 64.106 35.716 C 62.356 32.474, 58.728 28.227, 59.326 30.122 M 49.636 84.804 C 46.887 88.770, 46.453 90, 47.801 90 C 48.241 90, 49.585 87.975, 50.788 85.500 C 51.990 83.025, 52.816 81, 52.623 81 C 52.430 81, 51.086 82.712, 49.636 84.804" stroke="none" fill="black" fill-rule="evenodd"/>
</svg>