<svg xmlns="http://www.w3.org/2000/svg" width="200" height="200" viewBox="0 0 200 200" version="1.1">
	<path d="M 126.500 19.043 L 92.500 24.885 73.899 22.442 C 63.668 21.099, 54.546 20, 53.629 20 C 52.587 20, 48.365 25.442, 42.403 34.468 L 32.846 48.935 33.993 81.718 L 35.141 114.500 28.523 141.858 C 24.883 156.905, 22.039 169.559, 22.203 169.979 C 22.366 170.399, 27 168.236, 32.500 165.172 C 39.612 161.211, 46.915 158.243, 57.787 154.896 C 72.296 150.431, 73.040 150.301, 72.406 152.346 C 72.039 153.531, 68.637 162.567, 64.846 172.427 C 60.164 184.605, 58.281 190.681, 58.973 191.373 C 59.666 192.066, 60.395 191.876, 61.246 190.781 C 68.518 181.437, 109.586 135.196, 110.114 135.758 C 110.499 136.166, 114.047 143.700, 118 152.500 C 121.953 161.300, 125.530 168.863, 125.950 169.306 C 126.369 169.750, 131.290 168.885, 136.885 167.385 L 147.057 164.657 166.118 145.251 C 176.601 134.578, 185.016 125.682, 184.817 125.484 C 184.618 125.285, 176.703 124.572, 167.228 123.900 C 157.752 123.228, 150.012 122.413, 150.028 122.089 C 150.043 121.765, 156.540 113.634, 164.465 104.021 C 172.390 94.407, 178.784 86.451, 178.673 86.340 C 178.562 86.229, 169.703 87.228, 158.986 88.561 C 148.269 89.894, 139.402 90.988, 139.281 90.992 C 138.216 91.031, 143.065 83.677, 159.287 60.651 C 171.714 43.012, 177.864 33.464, 177.216 32.816 C 176.569 32.169, 171.864 37.948, 163.501 49.665 C 148.411 70.806, 149.753 69.226, 147.593 68.397 C 146.346 67.919, 146.020 67.057, 146.445 65.364 C 147.170 62.476, 146.694 62.427, 143.172 65.031 L 140.425 67.062 114.357 62.031 C 100.020 59.264, 87.887 57.009, 87.395 57.019 C 86.903 57.029, 83.351 61.493, 79.503 66.939 C 75.655 72.385, 72.280 76.617, 72.003 76.345 C 71.350 75.703, 68.113 56.619, 68.573 56.122 C 68.766 55.913, 82.253 52.238, 98.545 47.955 C 114.837 43.671, 128.339 39.994, 128.550 39.783 C 128.761 39.572, 127.351 37.174, 125.417 34.454 L 121.900 29.507 144.484 22.213 C 165.009 15.582, 170.680 12.820, 163.191 13.101 C 161.711 13.156, 145.200 15.830, 126.500 19.043 M 123.324 22.361 C 113.328 24.087, 104.875 25.778, 104.540 26.117 C 104.206 26.457, 106.985 27.031, 110.716 27.394 C 116.968 28.001, 118.559 27.705, 131 23.623 C 138.425 21.187, 143.825 19.200, 143 19.208 C 142.175 19.215, 133.321 20.634, 123.324 22.361 M 44.501 36.226 L 35.691 49.452 36.825 81.715 L 37.959 113.979 31.934 139.111 C 28.620 152.933, 26.127 164.460, 26.392 164.726 C 26.658 164.991, 30.390 163.269, 34.685 160.898 C 39.784 158.083, 48.551 154.760, 59.945 151.324 C 69.543 148.430, 77.476 146.160, 77.575 146.281 C 77.674 146.401, 74.655 154.557, 70.865 164.405 C 67.076 174.252, 64.105 182.438, 64.262 182.595 C 64.419 182.752, 74.657 171.168, 87.013 156.851 C 99.369 142.535, 109.766 130.645, 110.117 130.428 C 110.468 130.211, 114.477 138.238, 119.027 148.267 C 123.576 158.295, 127.355 166.586, 127.424 166.692 C 127.494 166.797, 131.364 165.953, 136.025 164.817 L 144.500 162.749 161.750 145.635 C 171.238 136.223, 179 128.237, 179 127.889 C 179 127.541, 173.110 126.931, 165.912 126.533 C 158.713 126.135, 150.877 125.514, 148.497 125.154 L 144.171 124.500 158.077 107.575 C 165.725 98.266, 171.804 90.471, 171.586 90.253 C 170.846 89.513, 135.510 94.175, 134.946 95.087 C 132.435 99.150, 115.390 122.961, 115 122.951 C 114.725 122.944, 113.027 120.982, 111.227 118.591 L 107.954 114.244 94.091 111.622 C 76.957 108.381, 76.823 108.378, 77.466 111.250 C 77.743 112.487, 78.663 117.775, 79.510 123 C 80.357 128.225, 81.300 133.738, 81.605 135.250 C 82.858 141.469, 78.590 137.283, 66.055 120 C 58.875 110.100, 53 101.845, 53 101.655 C 53 101.465, 57.163 102.116, 62.250 103.102 C 67.338 104.088, 71.996 104.918, 72.603 104.947 C 73.379 104.984, 73.285 102.562, 72.283 96.764 C 71.501 92.234, 70.714 88.381, 70.535 88.202 C 70.356 88.023, 68.601 89.289, 66.635 91.016 C 61.180 95.805, 60.427 93.714, 65.180 86.975 L 69.350 81.062 67.505 69.031 C 65.922 58.712, 65.399 57, 63.830 57 C 62.168 57, 62 55.992, 62 46 L 62 35 55.500 35 C 50.601 35, 49 34.656, 49 33.603 C 49 32.174, 49.858 31.978, 71.944 28.346 C 77.688 27.402, 81.963 26.504, 81.444 26.350 C 80.031 25.933, 56.836 23, 54.947 23 C 53.959 23, 49.822 28.239, 44.501 36.226 M 81.500 29.551 C 75.609 30.860, 75.751 30.879, 89.250 30.615 C 99.285 30.418, 103 30.663, 103 31.523 C 103 32.877, 90.235 34, 74.846 34 C 63.505 34, 64.170 33.100, 66.358 45.500 C 67.411 51.463, 67.883 52.475, 69.547 52.334 C 73.814 51.972, 124 38.446, 124 37.658 C 124 37.195, 123.106 35.679, 122.014 34.290 C 120.921 32.901, 120.302 31.320, 120.639 30.775 C 121.004 30.185, 120.475 30.032, 119.330 30.395 C 118.274 30.731, 112.283 30.329, 106.018 29.502 C 92.712 27.747, 89.590 27.754, 81.500 29.551 M 85.349 63.262 C 84.165 65.043, 80.808 69.875, 77.888 74 L 72.579 81.500 80.601 74.314 L 88.623 67.128 98.386 80.152 C 107.210 91.925, 108.309 93.039, 109.824 91.749 C 110.746 90.963, 117.269 85.705, 124.320 80.064 C 131.371 74.423, 136.991 69.658, 136.809 69.476 C 136.415 69.081, 90.078 59.994, 88.553 60.012 C 87.974 60.019, 86.532 61.482, 85.349 63.262 M 124.544 83.450 L 107.654 96.799 98.248 84.400 C 93.075 77.580, 88.374 72, 87.803 72 C 87.231 72, 83.665 75.037, 79.878 78.750 L 72.993 85.500 74.608 95 C 75.496 100.225, 76.510 104.805, 76.861 105.177 C 77.213 105.550, 84.475 107.071, 93 108.556 C 108.210 111.208, 108.560 111.326, 111.705 114.874 C 113.747 117.176, 115.237 118.128, 115.809 117.495 C 116.303 116.948, 121.420 109.750, 127.179 101.500 C 136.057 88.783, 137.990 85.304, 139.882 78.640 C 141.110 74.317, 141.961 70.628, 141.774 70.441 C 141.587 70.254, 133.834 76.108, 124.544 83.450 M 144.697 71.750 C 144.466 72.162, 143.969 73.850, 143.594 75.500 L 142.911 78.500 145.420 75.500 C 148.314 72.038, 148.577 71, 146.559 71 C 145.766 71, 144.929 71.338, 144.697 71.750 M 59.767 106.465 C 61.693 109.685, 77.388 130.945, 77.648 130.685 C 78.074 130.260, 74.395 109.062, 73.791 108.458 C 73.515 108.181, 70.081 107.344, 66.161 106.597 C 60.665 105.550, 59.202 105.519, 59.767 106.465" stroke="none" fill="black" fill-rule="evenodd"/>
</svg>