<svg xmlns="http://www.w3.org/2000/svg" width="200" height="200" viewBox="0 0 200 200" version="1.1">
	<path d="M 87.104 21.500 L 83.765 31 51.941 31 C 29.671 31, 19.912 31.334, 19.431 32.112 C 19.053 32.723, 19.233 33.526, 19.831 33.895 C 20.428 34.265, 30.669 35.645, 42.588 36.964 C 64.111 39.343, 66.124 40.091, 54.816 41.504 C 51.786 41.882, 48.873 42.486, 48.342 42.846 C 47.562 43.374, 39.963 94.255, 39.992 98.750 C 39.998 99.656, 42.684 100.032, 49.750 100.117 C 55.112 100.182, 64 100.520, 69.500 100.867 L 79.500 101.500 52.750 113.477 C 28.336 124.408, 22.081 128.101, 28.250 127.942 C 29.488 127.910, 40.063 126.870, 51.750 125.630 C 70.711 123.619, 72.996 123.544, 72.964 124.938 C 72.944 125.797, 71.932 127.672, 70.714 129.104 C 68.521 131.683, 68.240 131.727, 40.565 133.872 C 25.201 135.063, 12.443 136.224, 12.215 136.452 C 11.987 136.680, 12.096 137.347, 12.459 137.933 C 12.897 138.642, 21.327 139, 37.559 139 C 51.002 139, 62 139.360, 62 139.800 C 62 140.240, 61.487 141.113, 60.861 141.739 C 58.830 143.770, 60.486 174.006, 62.668 174.726 C 63.433 174.979, 65.314 168.888, 68.124 157.056 L 72.413 139 85.359 139 L 98.306 139 97.717 149.750 L 97.129 160.500 112.314 170.758 C 120.666 176.400, 127.950 180.982, 128.500 180.940 C 129.050 180.899, 139.019 170.274, 150.654 157.331 L 171.809 133.797 166.904 121.866 L 162 109.934 162 86.631 L 162 63.328 142.577 54.420 C 131.895 49.521, 123.283 45.384, 123.440 45.227 C 123.674 44.993, 154.577 39, 155.549 39 C 156.067 39, 158.215 31.882, 157.818 31.484 C 157.306 30.973, 102.425 21, 100.121 21 C 98.591 21, 97.472 24.437, 92.891 43.217 L 87.472 65.435 80.718 67.366 C 77.004 68.429, 73.731 69.064, 73.445 68.779 C 73.160 68.493, 75.743 60.551, 79.185 51.130 C 85.235 34.569, 85.535 34, 88.222 34 C 90.025 34, 91 33.473, 91 32.500 C 91 31.667, 90.111 31, 89 31 C 86.433 31, 86.445 30.897, 90 21.663 C 93.370 12.910, 93.533 12, 91.722 12 C 91.008 12, 88.968 16.196, 87.104 21.500 M 95.657 43.636 C 93.062 54.436, 91.131 63.465, 91.367 63.700 C 91.602 63.935, 95.646 62.952, 100.355 61.516 L 108.916 58.905 118.091 61.419 C 123.138 62.802, 127.402 64.068, 127.567 64.234 C 127.733 64.399, 119.010 67.860, 108.184 71.923 C 90.147 78.694, 84.863 81.196, 86.064 82.397 C 86.308 82.641, 92.356 81.757, 99.504 80.431 C 106.652 79.106, 113.459 78.016, 114.631 78.010 C 115.872 78.004, 117.791 79.358, 119.224 81.250 C 122.894 86.095, 133.835 108, 132.583 107.998 C 131.987 107.996, 124.075 106.012, 115 103.589 C 105.925 101.165, 98.475 99.254, 98.445 99.341 C 98.414 99.429, 96.359 101.975, 93.878 105 C 91.397 108.025, 87.730 112.546, 85.729 115.047 L 82.091 119.594 88.796 118.849 C 103.894 117.169, 156 118.401, 156 120.438 C 156 121.057, 150.330 123.269, 143.399 125.353 C 131.752 128.856, 128.677 129.322, 102.749 131.521 C 70.899 134.222, 64.616 136, 86.920 136 L 101.240 136 100.870 147.653 L 100.500 159.307 114 168.613 C 121.425 173.731, 127.760 177.825, 128.078 177.710 C 129.545 177.177, 167.996 133.829, 167.969 132.738 C 167.952 132.057, 166.063 127.225, 163.771 122 L 159.604 112.500 159.052 88.645 L 158.500 64.790 136.335 54.645 C 124.145 49.065, 114.695 44.221, 115.335 43.879 C 115.976 43.537, 124.913 41.743, 135.196 39.891 C 161.751 35.108, 161.484 34.654, 128.601 28.686 C 114.245 26.080, 102.022 23.960, 101.438 23.974 C 100.853 23.988, 98.252 32.836, 95.657 43.636 M 59 36.050 C 66.975 37.054, 74.063 37.903, 74.750 37.937 C 75.989 37.999, 76.588 41, 75.361 41 C 74.080 41, 50.533 45.134, 50.260 45.407 C 49.728 45.939, 42.913 96.246, 43.318 96.651 C 43.541 96.874, 51.793 97.337, 61.655 97.679 L 79.587 98.300 80.811 93 C 81.483 90.086, 81.798 87.465, 81.510 87.177 C 81.222 86.889, 76.020 87.556, 69.949 88.659 C 63.503 89.830, 58.675 90.282, 58.343 89.745 C 57.441 88.286, 58.747 87.605, 72.102 82.569 L 84.705 77.817 85.737 73.307 L 86.769 68.796 84.135 69.359 C 82.686 69.669, 78.463 70.808, 74.750 71.891 C 71.037 72.973, 68 73.741, 68 73.596 C 68 73.452, 71.150 64.859, 75 54.500 C 78.850 44.141, 82 35.291, 82 34.833 C 82 34.375, 73.563 34.051, 63.250 34.113 L 44.500 34.226 59 36.050 M 98.738 64.766 C 90.081 67.345, 89.963 67.423, 88.922 71.289 C 87.278 77.396, 85.750 77.593, 108.955 68.700 L 119.409 64.694 114.955 63.362 C 109.256 61.659, 109.140 61.669, 98.738 64.766 M 97.500 83.570 C 90.900 84.855, 85.459 85.928, 85.409 85.953 C 84.695 86.320, 83.006 97.507, 83.631 97.727 C 84.109 97.895, 85.175 98.484, 86 99.035 C 87.582 100.093, 87.112 100.699, 82.541 103.500 C 80.992 104.449, 76.580 118.913, 77.545 119.879 C 77.795 120.129, 78.144 120.146, 78.320 119.917 C 78.708 119.410, 96.111 97.797, 96.956 96.772 C 97.286 96.371, 104.246 97.844, 112.421 100.046 C 120.597 102.247, 127.475 103.858, 127.706 103.627 C 128.266 103.068, 120.365 87.413, 117.713 83.826 C 115.174 80.392, 113.907 80.376, 97.500 83.570 M 79 83 C 77.831 83.755, 78.107 83.973, 80.250 83.985 C 81.763 83.993, 83 83.550, 83 83 C 83 81.736, 80.957 81.736, 79 83 M 56.316 114.833 C 45.764 119.580, 37.295 123.628, 37.495 123.828 C 37.858 124.191, 73.209 120.876, 73.827 120.421 C 74.006 120.289, 74.974 116.990, 75.977 113.090 C 77.240 108.180, 77.447 106.031, 76.650 106.100 C 76.018 106.155, 66.867 110.085, 56.316 114.833 M 85.543 122.021 C 80.879 122.615, 79.089 123.358, 77.293 125.445 C 74.784 128.363, 74.285 131.011, 76.250 130.981 C 76.938 130.971, 89.650 129.885, 104.500 128.569 C 126.110 126.654, 132.997 125.679, 139 123.687 L 146.500 121.197 119 121.230 C 103.875 121.248, 88.819 121.604, 85.543 122.021 M 69.500 135 C 69.160 135.550, 69.359 136, 69.941 136 C 70.523 136, 71 135.550, 71 135 C 71 134.450, 70.802 134, 70.559 134 C 70.316 134, 69.840 134.450, 69.500 135 M 57.768 135.725 C 59.565 135.947, 62.265 135.943, 63.768 135.715 C 65.271 135.486, 63.800 135.304, 60.500 135.310 C 57.200 135.315, 55.971 135.502, 57.768 135.725 M 64.197 141.477 C 62.495 143.640, 62.306 145.127, 62.705 153.227 C 62.955 158.327, 63.245 162.862, 63.348 163.304 C 63.452 163.746, 64.931 158.459, 66.636 151.554 C 69.498 139.961, 69.598 139, 67.940 139 C 66.953 139, 65.268 140.115, 64.197 141.477" stroke="none" fill="black" fill-rule="evenodd"/>
</svg>