<svg xmlns="http://www.w3.org/2000/svg" width="200" height="200" viewBox="0 0 200 200" version="1.1">
	<path d="M 35 18.385 C 35 19.326, 36.840 19.983, 40.750 20.438 C 43.913 20.805, 47.962 21.357, 49.750 21.664 L 53 22.223 53 28.394 L 53 34.565 46.250 34.297 C 42.538 34.149, 34.916 33.894, 29.314 33.731 L 19.128 33.434 18.573 37.967 C 18.268 40.460, 16.841 56.852, 15.402 74.392 L 12.786 106.285 19.563 135.392 C 23.291 151.402, 26.611 164.824, 26.941 165.221 C 27.272 165.618, 38.108 161.066, 51.021 155.107 C 63.934 149.147, 74.602 144.350, 74.727 144.446 C 74.852 144.543, 74.060 151.317, 72.967 159.500 C 71.575 169.913, 71.294 174.694, 72.031 175.431 C 72.761 176.161, 73.300 176.164, 73.792 175.439 C 74.181 174.865, 79.760 166.732, 86.190 157.366 C 94.660 145.027, 98.274 138.844, 99.311 134.918 C 100.173 131.659, 100.984 130.098, 101.348 131 C 101.681 131.825, 104.615 143.889, 107.869 157.810 C 111.124 171.730, 113.947 183.270, 114.143 183.454 C 114.772 184.043, 173.810 179.523, 174.500 178.833 C 174.865 178.468, 176.070 159.793, 177.178 137.335 C 178.824 103.936, 179.037 91.492, 178.346 69 C 177.814 51.700, 177.129 41.558, 176.500 41.656 C 175.950 41.742, 172.125 53.542, 168 67.878 C 163.875 82.214, 160.040 94.394, 159.478 94.944 C 158.638 95.766, 105.891 116, 104.589 116 C 104.368 116, 104.419 115.115, 104.701 114.034 C 105.018 112.821, 113.972 106.403, 128.067 97.284 C 140.636 89.153, 150.937 82.211, 150.960 81.858 C 151.034 80.673, 116.675 60.924, 115.919 61.717 C 115.508 62.148, 112.381 73.365, 108.970 86.643 C 103.532 107.807, 102.473 110.944, 100.383 112.062 C 98.776 112.922, 98 114.217, 98 116.035 C 98 118.515, 97.300 118.988, 89.351 121.884 C 84.594 123.617, 80.601 124.914, 80.478 124.767 C 80.356 124.620, 81.080 118.200, 82.088 110.500 C 83.490 99.793, 83.930 89.673, 83.960 67.475 L 84 38.449 94.750 38.789 L 105.500 39.128 130.723 48.564 C 144.596 53.754, 156.095 58, 156.277 58 C 156.681 58, 154.168 32.920, 153.618 31.464 C 153.355 30.766, 143.493 31.155, 123.364 32.658 C 106.939 33.884, 91.362 34.912, 88.750 34.943 L 84 35 84 29 C 84 23.948, 84.276 23.002, 85.750 23.013 C 86.713 23.020, 104.375 24.139, 125 25.500 C 169.011 28.404, 169 28.404, 169 26.705 C 169 25.730, 159.082 24.481, 128.750 21.639 C 106.612 19.564, 86.813 17.614, 84.750 17.305 C 81.676 16.846, 81 17.049, 81 18.433 C 81 19.907, 80.145 20.048, 74.250 19.547 C 67.680 18.988, 37.762 17, 35.920 17 C 35.414 17, 35 17.623, 35 18.385 M 56 28.011 L 56 35 68.500 35 L 81 35 81 29.045 C 81 23.095, 80.998 23.090, 77.750 22.599 C 75.963 22.328, 70.338 21.862, 65.250 21.564 L 56 21.022 56 28.011 M 133 34.598 C 113.136 36.193, 109.824 36.653, 116.750 36.850 C 120.683 36.962, 122 37.376, 122 38.500 C 122 39.459, 121.008 40.016, 119.250 40.045 C 116.769 40.086, 121.354 42.006, 147.871 52.032 L 153.242 54.062 152.557 45.281 C 151.820 35.815, 151.254 32.923, 150.183 33.136 C 149.807 33.211, 142.075 33.869, 133 34.598 M 21.590 37.117 C 21.342 37.878, 19.906 53.800, 18.398 72.500 L 15.656 106.500 21.974 133.500 C 25.449 148.350, 28.586 160.837, 28.946 161.249 C 29.628 162.033, 72.659 142.620, 74.633 140.637 C 75.849 139.417, 77.172 129.997, 76.127 130.004 C 75.782 130.006, 68.975 132.479, 61 135.500 C 53.025 138.521, 45.944 140.994, 45.265 140.996 C 44.586 140.998, 41.098 136.616, 37.515 131.258 L 31 121.515 31 80.393 L 31 39.272 42.250 38.294 L 53.500 37.317 42.390 37.159 C 36.279 37.071, 29.200 36.715, 26.659 36.367 C 23.185 35.891, 21.928 36.076, 21.590 37.117 M 61.750 39.739 L 56 40.100 56 66.717 C 56 81.356, 56.209 93.124, 56.465 92.868 C 56.721 92.612, 60.587 81.625, 65.056 68.452 C 69.526 55.278, 73.584 44.080, 74.075 43.567 C 74.565 43.053, 75.312 42.978, 75.733 43.399 C 76.155 43.820, 76.725 62.015, 77 83.832 L 77.500 123.500 79.696 106.500 C 81.645 91.413, 81.825 86.659, 81.296 64.250 L 80.701 39 74.101 39.189 C 70.470 39.293, 64.912 39.541, 61.750 39.739 M 37 41.713 L 33.500 42.090 33.848 81.702 L 34.196 121.314 39.748 129.657 C 42.802 134.246, 45.795 137.973, 46.400 137.940 C 47.005 137.906, 53.502 135.544, 60.838 132.690 L 74.176 127.500 74.054 90.549 C 73.986 70.226, 73.768 53.435, 73.570 53.236 C 72.937 52.604, 58.101 98.291, 57.274 103.420 C 56.838 106.126, 55.992 108.503, 55.394 108.702 C 53.884 109.205, 53 92.835, 53 64.344 L 53 41 46.750 41.168 C 43.313 41.261, 38.925 41.506, 37 41.713 M 173.775 58 C 172.827 61.025, 165.535 86.617, 157.571 114.871 C 149.608 143.125, 142.876 166.457, 142.613 166.721 C 142.349 166.985, 141.653 166.904, 141.067 166.541 C 140.386 166.121, 140 160.335, 140 150.566 L 140 135.250 144.615 125.375 C 154.111 105.054, 156.132 99.821, 154.239 100.455 C 153.283 100.775, 141.475 105.206, 128 110.300 C 105.470 118.819, 103.476 119.766, 103.203 122.081 C 102.964 124.103, 115.390 179.723, 116.279 180.612 C 116.617 180.950, 170.240 177.037, 171.559 176.578 C 173.059 176.056, 176.262 98.553, 175.839 73 L 175.500 52.500 173.775 58 M 115.725 71.750 C 114.811 75.463, 112.312 85.142, 110.171 93.260 L 106.280 108.019 109.008 106.260 C 110.509 105.292, 119.432 99.550, 128.837 93.500 C 138.242 87.450, 145.952 82.267, 145.969 81.983 C 145.997 81.515, 118.536 65, 117.729 65 C 117.541 65, 116.639 68.037, 115.725 71.750 M 150.022 119.802 L 143.607 133.500 143.324 144.500 L 143.041 155.500 150.024 131.087 C 153.864 117.659, 156.878 106.545, 156.722 106.389 C 156.565 106.232, 153.550 112.268, 150.022 119.802 M 90 124.612 C 85.325 126.417, 81.153 128.033, 80.728 128.204 C 80.304 128.375, 79.589 130.840, 79.139 133.683 C 78.389 138.426, 78.494 138.900, 80.411 139.441 C 82.485 140.028, 82.485 140.040, 80.500 141.163 C 79.400 141.786, 78.385 142.381, 78.244 142.487 C 77.752 142.856, 74.905 166.214, 75.232 167.195 C 75.413 167.739, 80.090 161.505, 85.625 153.342 C 94.571 140.150, 95.917 137.582, 97.733 130.240 C 98.856 125.697, 99.489 121.833, 99.138 121.655 C 98.787 121.476, 94.675 122.807, 90 124.612" stroke="none" fill="black" fill-rule="evenodd"/>
</svg>