<svg xmlns="http://www.w3.org/2000/svg" width="200" height="200" viewBox="0 0 200 200" version="1.1">
	<path d="M 54.417 20.152 C 55.889 29.214, 58.196 51.138, 57.726 51.608 C 57.432 51.901, 47.244 51.590, 35.085 50.915 C 14.519 49.774, 10.576 49.909, 12.363 51.696 C 12.936 52.269, 46.528 54.757, 56.250 54.946 C 58.004 54.981, 59 55.543, 59 56.500 C 59 57.325, 59.675 58, 60.500 58 C 61.325 58, 62 57.288, 62 56.417 C 62 55.546, 62.563 55.020, 63.250 55.248 C 64.325 55.604, 66.550 70.784, 65.658 71.675 C 65.503 71.830, 61.044 72.505, 55.749 73.173 C 50.455 73.842, 46.297 74.671, 46.510 75.016 C 46.723 75.361, 55.338 80.561, 65.654 86.572 L 84.410 97.500 61.955 98.121 C 49.605 98.462, 34.213 98.800, 27.750 98.871 C 18.612 98.971, 16 99.300, 16 100.351 C 16 101.294, 22.039 103.030, 36 106.100 C 47 108.518, 56 110.876, 56 111.340 C 56 111.804, 49.138 125.281, 40.750 141.289 C 32.362 157.296, 25.350 170.755, 25.167 171.197 C 24.983 171.639, 28.041 172, 31.962 172 L 39.090 172 63.687 151.414 C 77.216 140.092, 88.896 130.594, 89.642 130.307 C 90.389 130.020, 91 130.325, 91 130.984 C 91 131.643, 92.155 142.086, 93.567 154.191 C 94.979 166.296, 95.991 176.334, 95.817 176.498 C 95.643 176.662, 86.369 177.615, 75.209 178.614 C 64.050 179.614, 54.375 180.785, 53.709 181.216 C 50.210 183.484, 57.647 183.970, 96.089 183.985 C 147.176 184.004, 176 183.114, 176 181.519 C 176 179.172, 157.978 171.065, 138.250 164.536 C 127.112 160.850, 118 157.678, 118 157.487 C 118 157.297, 129.090 149.572, 142.645 140.321 L 167.290 123.500 162.895 123.172 C 158.533 122.847, 106.858 125.516, 97.750 126.536 C 93.788 126.981, 93 126.795, 93 125.419 C 93 123.899, 92.798 123.902, 90.413 125.465 C 84.449 129.373, 87.635 125.557, 98.697 115.542 L 110.500 104.857 143 105.506 C 160.875 105.862, 176.329 106.387, 177.342 106.673 C 178.715 107.061, 179.095 106.731, 178.834 105.378 C 178.368 102.957, 160.045 97.336, 133.656 91.519 C 122.741 89.113, 113.642 86.975, 113.434 86.767 C 113.226 86.560, 125.981 83.541, 141.778 80.058 C 172.961 73.185, 175.801 72.398, 174.413 71.019 C 173.911 70.521, 164.172 69.722, 152.772 69.245 C 141.371 68.768, 131.814 68.147, 131.532 67.865 C 131.251 67.584, 130.903 65.155, 130.760 62.469 L 130.500 57.583 138.500 56.441 C 142.900 55.813, 155.838 54.041, 167.250 52.504 C 182.660 50.428, 188 49.360, 188 48.354 C 188 46.768, 186.284 46.748, 151.500 47.939 C 138.300 48.391, 127.340 48.617, 127.145 48.442 C 126.949 48.266, 131.777 42.610, 137.872 35.872 C 143.968 29.135, 148.765 23.432, 148.533 23.200 C 148.301 22.968, 140.410 23.553, 130.997 24.500 L 113.883 26.222 100.593 33.611 C 93.284 37.675, 86.783 41, 86.147 41 C 85.511 41, 78.580 35.914, 70.745 29.697 C 52.806 15.463, 53.744 16.012, 54.417 20.152 M 58 24.790 C 58 30.651, 61.271 51.553, 62.290 52.200 C 62.955 52.623, 64.260 52.976, 65.189 52.985 C 66.425 52.996, 67.015 54.140, 67.392 57.250 C 68.181 63.771, 68.997 73.993, 68.735 74.063 C 68.606 74.097, 65.205 74.660, 61.178 75.313 L 53.857 76.500 73.433 87.946 C 84.200 94.241, 92.654 99.746, 92.219 100.181 C 91.785 100.615, 77.495 101.090, 60.465 101.235 L 29.500 101.500 41.500 104.343 C 48.100 105.906, 55.135 107.597, 57.133 108.100 L 60.766 109.014 45.882 137.427 C 37.696 153.055, 30.726 166.552, 30.392 167.420 C 29.896 168.713, 30.579 168.996, 34.143 168.980 C 38.330 168.961, 39.392 168.211, 61.421 149.730 C 81.986 132.477, 84.076 130.449, 81.753 130 C 79.373 129.540, 80.388 128.389, 94.332 115.722 L 109.500 101.945 137.500 102.447 L 165.500 102.949 158 100.480 C 153.875 99.122, 141.050 95.956, 129.500 93.444 C 104.147 87.929, 105 88.168, 105 86.595 C 105 85.746, 114.535 83.198, 133.750 78.912 L 162.500 72.500 146.086 71.753 C 137.058 71.342, 129.485 70.818, 129.255 70.589 C 128.605 69.938, 126.595 56.072, 127.080 55.587 C 127.318 55.349, 133.585 54.245, 141.006 53.133 L 154.500 51.112 137.726 51.378 C 128.500 51.525, 121.075 51.286, 121.226 50.849 C 121.377 50.411, 126.395 44.605, 132.378 37.946 L 143.257 25.839 138.878 26.416 C 136.470 26.733, 130.033 27.455, 124.573 28.020 C 114.782 29.034, 114.450 29.157, 100.181 37.007 L 85.716 44.966 71.858 33.993 C 62.067 26.241, 58 23.540, 58 24.790 M 118.750 127.818 L 94 129.327 94 131.755 C 94 133.090, 95.155 144.086, 96.567 156.191 C 97.979 168.296, 98.877 178.456, 98.563 178.770 C 98.250 179.084, 94.957 179.650, 91.246 180.028 C 87.536 180.407, 101.375 180.747, 122 180.784 C 142.625 180.821, 161.491 180.548, 163.925 180.176 L 168.349 179.500 163.425 176.874 C 160.716 175.429, 147.993 170.764, 135.152 166.508 C 115.956 160.145, 112.043 158.539, 113.152 157.482 C 113.893 156.775, 123.950 149.780, 135.500 141.938 C 147.050 134.097, 156.928 127.303, 157.450 126.840 C 158.700 125.735, 148.852 125.984, 118.750 127.818" stroke="none" fill="black" fill-rule="evenodd"/>
</svg>