<svg xmlns="http://www.w3.org/2000/svg" width="200" height="200" viewBox="0 0 200 200" version="1.1">
	<path d="M 76.500 29.016 C 69.350 33.397, 63.111 36.986, 62.636 36.991 C 62.161 36.996, 55.476 34.273, 47.780 30.940 C 40.084 27.606, 33.557 25.109, 33.277 25.390 C 32.996 25.671, 33.099 41.438, 33.506 60.427 L 34.245 94.954 44.258 112.227 C 49.765 121.727, 54.285 129.985, 54.302 130.578 C 54.349 132.193, 43.445 161.836, 37.877 175.234 C 35.195 181.687, 33 187.200, 33 187.484 C 33 189.857, 39.438 184.708, 63.116 163.396 L 90.452 138.791 92.503 145.624 L 94.554 152.457 115.527 170.764 C 127.062 180.833, 137.686 189.949, 139.136 191.022 L 141.771 192.973 166.636 174.923 C 194.904 154.401, 195.001 154.321, 192.839 153.492 C 191.647 153.034, 164.821 157.446, 149.865 160.560 C 147.649 161.021, 146.876 160.535, 145.001 157.502 C 143.775 155.518, 142.936 153.765, 143.136 153.606 C 143.336 153.447, 148.225 151.155, 154 148.513 C 159.775 145.870, 164.849 143.403, 165.275 143.029 C 165.702 142.655, 161.427 140.508, 155.775 138.258 C 150.124 136.007, 145.583 133.791, 145.685 133.333 C 145.787 132.875, 151.750 121.614, 158.935 108.308 C 166.121 95.002, 172 83.752, 172 83.308 C 172 82.864, 164.573 79.800, 155.497 76.500 C 141.829 71.531, 139.270 70.297, 140.597 69.317 C 143.284 67.333, 141.200 65.639, 138.362 67.499 C 135.386 69.448, 133.975 69.091, 123.250 63.677 L 115 59.512 115 55.256 L 115 51 144.083 51 C 161.877 51, 173.037 50.634, 172.833 50.057 C 172.650 49.538, 167.775 43.379, 162 36.371 C 156.225 29.363, 151.037 23.012, 150.472 22.258 C 149.630 21.135, 146.829 21.907, 134.972 26.531 C 127.012 29.635, 118.250 33.025, 115.500 34.064 L 110.500 35.952 110.835 42.476 L 111.171 49 100.541 49 L 89.912 49 90.605 35 C 91.008 26.864, 90.921 21.011, 90.399 21.025 C 89.905 21.039, 83.650 24.635, 76.500 29.016 M 131 30.990 L 113.500 37.773 113.851 43.137 C 114.045 46.087, 114.270 48.500, 114.351 48.500 C 114.433 48.500, 126.552 48.373, 141.283 48.218 L 168.067 47.936 160.891 39.218 C 156.944 34.423, 152.542 29.084, 151.108 27.353 L 148.500 24.207 131 30.990 M 79 30.689 C 74.325 33.582, 68.679 36.924, 66.454 38.115 L 62.408 40.280 50.454 35.038 C 43.879 32.155, 37.866 29.541, 37.092 29.230 C 35.891 28.748, 35.769 33.481, 36.262 61.353 L 36.840 94.041 47.087 111.747 C 52.722 121.486, 57.327 129.915, 57.319 130.477 C 57.299 131.823, 45.003 165.445, 41.099 174.827 L 38.050 182.155 43.775 177.144 C 46.924 174.388, 58.950 163.599, 70.500 153.168 L 91.500 134.203 94.411 142.851 L 97.322 151.500 119.108 170.311 C 131.091 180.657, 141.150 189.207, 141.461 189.311 C 142.211 189.561, 186.022 157.689, 185.562 157.229 C 185.246 156.913, 153.852 162.331, 148.355 163.650 C 146.664 164.055, 145.541 163.194, 143.056 159.582 C 139.917 155.019, 139.890 155.006, 137.001 156.499 C 135.405 157.325, 133.699 158, 133.209 158 C 131.680 158, 119.674 125.926, 120.786 124.814 C 121.446 124.154, 124.914 128.396, 131.085 137.409 C 136.201 144.884, 140.797 151, 141.297 151 C 141.796 151, 146.097 149.165, 150.853 146.922 L 159.500 142.843 150.750 139.317 C 145.938 137.377, 142 135.353, 142 134.817 C 142 133.979, 157.516 104.760, 166.103 89.428 L 168.943 84.356 152.430 78.242 L 135.917 72.128 126.247 78.314 L 116.577 84.500 120.788 85.392 C 126.331 86.566, 126.547 89.017, 121.042 88.279 L 117.085 87.748 117.703 91.624 C 118.042 93.756, 119.596 99.290, 121.155 103.922 C 122.714 108.554, 123.826 112.507, 123.626 112.707 C 123.426 112.907, 109.591 112.381, 92.882 111.539 C 76.172 110.697, 61.712 110.006, 60.750 110.004 C 59.788 110.002, 59 109.389, 59 108.643 C 59 107.755, 64.378 105.696, 74.553 102.690 C 87.196 98.954, 91.673 97.111, 98.482 92.837 C 103.089 89.945, 106.675 87.283, 106.451 86.921 C 106.227 86.559, 102.772 85.956, 98.772 85.581 C 94.772 85.206, 90.778 84.688, 89.896 84.429 C 88.705 84.079, 88.063 84.972, 87.396 87.904 L 86.500 91.850 79 85.784 L 71.500 79.718 78.112 80.373 L 84.724 81.027 85.362 76.374 C 86.186 70.367, 86.175 66, 85.338 66 C 84.974 66, 82.377 66.725, 79.568 67.610 L 74.461 69.220 60.750 60.423 C 53.210 55.585, 47.237 51.429, 47.479 51.188 C 47.720 50.946, 56.594 50.468, 67.197 50.124 L 86.477 49.500 87.272 44 C 87.709 40.975, 87.939 35.559, 87.783 31.964 L 87.500 25.428 79 30.689 M 99.858 51.755 C 89.425 52.096, 89.053 52.336, 89.014 58.750 C 88.997 61.547, 88.831 61.554, 98.440 58.354 C 104.982 56.175, 106.892 55.898, 109.252 56.789 C 112.051 57.845, 112.110 57.799, 111.809 54.762 C 111.451 51.156, 112.229 51.352, 99.858 51.755 M 67.239 52.953 L 54.979 53.500 64.938 59.817 L 74.897 66.135 80.354 64.414 C 86.057 62.617, 87 61.192, 87 54.375 C 87 52.261, 86.588 52.022, 83.250 52.203 C 81.188 52.314, 73.983 52.652, 67.239 52.953 M 96.870 61.754 L 89.240 64.329 88.629 69.414 C 88.292 72.211, 88.013 76.114, 88.009 78.088 L 88 81.675 99.475 82.954 C 105.786 83.658, 111.672 83.956, 112.555 83.617 C 113.947 83.083, 114.071 81.638, 113.490 72.751 C 112.932 64.222, 112.480 62.206, 110.799 60.750 C 108.183 58.485, 106.117 58.633, 96.870 61.754 M 115.775 69.250 C 115.996 72.688, 116.475 76.692, 116.839 78.149 L 117.500 80.797 124.825 76.057 L 132.150 71.316 123.955 67.158 C 119.448 64.871, 115.673 63, 115.566 63 C 115.460 63, 115.554 65.813, 115.775 69.250 M 82.563 85.070 C 84.641 87.366, 85 87.447, 85 85.617 C 85 84.856, 84.059 83.987, 82.908 83.686 C 80.900 83.161, 80.887 83.217, 82.563 85.070 M 102.500 93.509 C 94.903 98.432, 90.097 100.721, 82.500 103.038 C 68.330 107.357, 67.442 107.851, 73.695 107.932 C 76.553 107.970, 87.956 108.484, 99.036 109.075 C 110.117 109.667, 119.368 109.966, 119.594 109.740 C 119.820 109.513, 119.064 106.667, 117.914 103.414 C 116.764 100.161, 115.525 95.287, 115.161 92.582 C 114.798 89.877, 114.050 87.521, 113.500 87.346 C 112.950 87.171, 108 89.944, 102.500 93.509 M 129.006 142 C 133.945 154.640, 134.321 155.241, 136.350 153.745 C 138.100 152.454, 137.944 152.010, 133.434 145.441 C 126.939 135.981, 126.530 135.664, 129.006 142" stroke="none" fill="black" fill-rule="evenodd"/>
</svg>