<svg xmlns="http://www.w3.org/2000/svg" width="200" height="200" viewBox="0 0 200 200" version="1.1">
	<path d="M 108.942 25.250 C 108.911 28.688, 108.544 33.300, 108.127 35.500 C 107.468 38.983, 107.269 38.239, 106.592 29.750 C 106.164 24.387, 105.363 20, 104.813 20 C 104.263 20, 98.763 23.998, 92.592 28.885 L 81.370 37.770 54.935 34.509 C 40.396 32.715, 28.367 31.363, 28.204 31.503 C 28.042 31.643, 28.601 46.211, 29.448 63.876 L 30.987 95.994 26.030 129.200 C 23.303 147.463, 21.206 162.540, 21.370 162.703 C 22.563 163.896, 37.623 169.745, 38.086 169.195 C 38.408 168.813, 43.097 153.155, 48.504 134.400 L 58.337 100.299 64.595 95.150 C 68.037 92.317, 71.332 90, 71.917 90 C 72.502 90, 79.623 95.468, 87.741 102.150 C 102.549 114.340, 105.545 118.137, 101.308 119.343 C 100.314 119.626, 92.750 120.163, 84.500 120.538 C 76.250 120.912, 67.814 121.506, 65.753 121.859 L 62.007 122.500 74.543 141.877 C 81.439 152.534, 86.934 161.399, 86.756 161.578 C 86.283 162.051, 40.907 184.028, 38.269 185.062 C 36.949 185.579, 36.256 186.502, 36.570 187.323 C 36.994 188.426, 43.547 187.066, 68.630 180.669 L 100.158 172.628 127.527 177.915 C 142.580 180.822, 155.364 183.044, 155.936 182.851 C 156.508 182.658, 160.102 176.970, 163.923 170.210 L 170.870 157.921 166.685 153.186 C 152.274 136.882, 153.275 138.691, 147.931 119.295 C 143.946 104.830, 143.279 101.313, 144.363 100.500 C 145.097 99.950, 154.098 92.322, 164.365 83.549 C 178.529 71.446, 182.672 67.396, 181.539 66.762 C 180.718 66.303, 173.046 63.011, 164.489 59.448 L 148.930 52.969 134.279 57.518 L 119.628 62.067 114.814 60.336 L 110 58.605 110 52.433 L 110 46.262 113.750 45.642 C 115.813 45.301, 128.637 45.017, 142.250 45.011 C 169.985 44.999, 171.305 44.602, 161.750 39.153 C 157.831 36.917, 111.210 19, 109.313 19 C 109.141 19, 108.974 21.813, 108.942 25.250 M 111.636 27.640 C 111.286 30.191, 111 34.762, 111 37.796 L 111 43.312 126.159 42.656 C 134.496 42.295, 145.622 42, 150.882 42 C 159.605 42, 160.260 41.870, 158.334 40.522 C 156.793 39.442, 113.744 23, 112.459 23 C 112.356 23, 111.986 25.088, 111.636 27.640 M 91.696 32.991 C 83.084 39.900, 81.503 40.798, 78.696 40.374 C 76.938 40.109, 65.487 38.648, 53.250 37.128 L 31 34.365 31.040 37.932 C 31.062 39.895, 31.674 53.826, 32.401 68.892 L 33.721 96.283 28.931 128.392 C 26.297 146.051, 24.447 160.805, 24.821 161.178 C 25.656 162.013, 36.186 166.185, 36.451 165.787 C 36.556 165.629, 40.611 151.775, 45.462 135 C 50.312 118.225, 54.684 103.150, 55.176 101.500 C 55.757 99.550, 58.667 96.400, 63.491 92.500 C 67.573 89.200, 71.349 86.500, 71.883 86.500 C 72.417 86.500, 79.663 92.061, 87.986 98.857 C 96.310 105.653, 103.255 111.053, 103.420 110.857 C 103.584 110.661, 104.250 100.825, 104.899 89 C 105.547 77.175, 106.315 65.875, 106.604 63.888 L 107.129 60.277 98.855 56.941 C 94.304 55.107, 89.875 53.659, 89.013 53.724 C 88.150 53.789, 79.775 55.903, 70.401 58.421 C 51.700 63.445, 50.988 63.568, 51.027 61.750 C 51.053 60.508, 89.963 38.395, 91.596 38.694 C 94.319 39.192, 91.484 41.326, 78.574 48.500 C 70.656 52.900, 64.309 56.634, 64.471 56.799 C 64.632 56.963, 69.880 55.726, 76.132 54.050 C 82.384 52.374, 88.451 51.002, 89.612 51.002 C 90.774 51.001, 94.937 52.324, 98.862 53.943 L 106 56.887 106 52.110 C 106 49.483, 105.700 47.033, 105.333 46.666 C 104.966 46.300, 104.525 42.106, 104.352 37.347 C 104.032 28.523, 103.401 24.951, 102.183 25.063 C 101.807 25.098, 97.088 28.665, 91.696 32.991 M 133.500 60.577 C 119.581 64.973, 119.475 64.989, 115.189 63.393 C 112.818 62.510, 110.647 62.020, 110.363 62.303 C 109.906 62.761, 112.905 96.114, 113.461 96.759 C 113.584 96.901, 119.718 96.581, 127.092 96.047 C 139.074 95.180, 140.632 95.252, 141.743 96.720 C 142.883 98.227, 143.171 98.196, 145.243 96.342 C 146.484 95.231, 154.250 88.548, 162.500 81.492 C 170.750 74.436, 177.500 68.482, 177.500 68.262 C 177.500 67.745, 149.238 55.975, 148.248 56.078 C 147.836 56.121, 141.200 58.146, 133.500 60.577 M 108.076 83.500 C 107.971 86.250, 107.508 93.675, 107.047 100 C 106.587 106.325, 106.399 111.699, 106.630 111.941 C 107.258 112.602, 138.991 99.627, 138.996 98.708 C 139 97.984, 134.647 98.152, 117.300 99.547 L 111.099 100.046 110.580 96.773 C 110.294 94.973, 109.658 90.125, 109.165 86 C 108.332 79.030, 108.255 78.854, 108.076 83.500 M 123.009 108.839 C 111.623 113.475, 106.414 116.087, 106.185 117.277 C 105.606 120.287, 111.126 119.315, 125.733 113.837 C 133.305 110.997, 140.092 108.672, 140.817 108.670 C 142.142 108.667, 141.669 104.320, 140.179 102.813 C 139.806 102.435, 132.079 105.147, 123.009 108.839 M 128.500 117.977 L 114.500 125.651 109.281 135.075 C 106.410 140.259, 103.519 144.500, 102.855 144.500 C 101.580 144.500, 101.476 134.690, 102.661 126.118 L 103.267 121.736 97.883 122.343 C 94.922 122.676, 86.763 123.246, 79.750 123.610 C 72.738 123.973, 67 124.469, 67 124.712 C 67 124.954, 72.405 133.528, 79.012 143.765 C 85.618 154.001, 90.680 162.683, 90.262 163.057 C 89.843 163.430, 81.092 167.725, 70.816 172.601 C 60.540 177.476, 52.239 181.572, 52.369 181.702 C 52.499 181.832, 63.272 179.194, 76.309 175.840 L 100.013 169.740 126.985 174.942 C 141.820 177.803, 154.368 179.891, 154.868 179.581 C 156.289 178.704, 167.186 159.052, 166.823 158.023 C 166.646 157.518, 162.900 152.957, 158.500 147.886 L 150.500 138.668 146.500 124.485 L 142.500 110.302 128.500 117.977 M 114.500 121 C 113.400 121.473, 111.086 121.891, 109.357 121.930 C 105.588 122.014, 104.990 123.244, 105.030 130.832 L 105.061 136.500 108.491 130.500 C 110.378 127.200, 113.390 123.487, 115.183 122.250 C 118.477 119.977, 118.174 119.421, 114.500 121" stroke="none" fill="black" fill-rule="evenodd"/>
</svg>