<svg xmlns="http://www.w3.org/2000/svg" width="200" height="200" viewBox="0 0 200 200" version="1.1">
	<path d="M 99 13.858 C 99 14.395, 99.900 16.934, 101 19.500 C 103.687 25.768, 103.529 26.513, 100.040 24.028 L 97.080 21.921 72.790 28.117 L 48.500 34.314 36.750 48.352 L 25 62.390 25 95.102 C 25 124.705, 24.715 130.414, 22 155.157 C 20.351 170.196, 18.780 183.770, 18.511 185.321 C 18.124 187.549, 18.367 188.075, 19.666 187.821 C 20.762 187.607, 26.531 175.812, 36.942 152.500 C 50.867 121.321, 60.998 100.652, 60.960 103.500 C 60.953 104.050, 58.061 115.965, 54.534 129.978 C 50.118 147.522, 48.465 155.669, 49.226 156.139 C 49.834 156.515, 52.394 157.130, 54.915 157.506 C 62.786 158.680, 66.110 160.331, 79.671 169.802 C 86.915 174.861, 93.215 179, 93.671 179.001 C 94.127 179.001, 94.354 164.043, 94.176 145.760 C 93.997 127.477, 94.082 112.749, 94.364 113.031 C 94.647 113.313, 98.706 120.249, 103.385 128.444 C 110.965 141.721, 112.625 145.613, 118.627 164.172 L 125.361 185 131.021 185 C 134.134 185, 144.140 184.706, 153.257 184.346 L 169.833 183.692 174.870 157.596 C 179.536 133.415, 180.019 129.471, 181.453 103.849 C 182.304 88.641, 183 74.008, 183 71.333 L 183 66.468 164.250 61.100 C 148.064 56.466, 144.577 55.101, 138.751 51.116 C 135.039 48.577, 132.564 46.385, 133.251 46.244 C 133.938 46.104, 146.800 44.229, 161.834 42.077 C 176.867 39.926, 189.400 37.934, 189.684 37.650 C 191.833 35.500, 186.812 35.173, 160.073 35.720 L 131.185 36.311 116.342 25.361 C 99.108 12.646, 99 12.574, 99 13.858 M 106.241 24.884 C 108.159 29.141, 109.903 30.886, 117.804 36.449 C 125.824 42.096, 127.711 43, 131.474 43 C 135.750 43, 163.529 39.311, 165.500 38.481 C 166.050 38.249, 158.392 38.329, 148.483 38.659 L 130.467 39.257 118.483 30.332 C 102.959 18.769, 103.618 19.062, 106.241 24.884 M 72.268 31.023 C 51.403 36.447, 49.867 37.006, 47.268 40.112 C 45.746 41.932, 40.563 48.081, 35.750 53.776 L 27 64.132 26.982 99.816 C 26.966 130.836, 26.651 138.245, 24.573 156.500 C 23.259 168.050, 22.279 177.599, 22.395 177.720 C 22.512 177.841, 27.710 166.366, 33.947 152.220 C 45.086 126.956, 63.089 90.681, 65.107 89.434 C 65.671 89.085, 66.427 89.094, 66.787 89.454 C 67.147 89.813, 63.910 104.277, 59.595 121.595 C 55.280 138.913, 52.005 153.338, 52.318 153.651 C 52.631 153.964, 55.768 154.824, 59.289 155.563 C 64.556 156.667, 67.801 158.352, 77.595 165.073 C 84.143 169.566, 90.049 173.456, 90.721 173.717 C 91.674 174.088, 91.808 166.248, 91.332 137.846 C 90.997 117.856, 90.953 101.725, 91.234 102 C 92.002 102.754, 115 143.127, 115 143.723 C 115 144.007, 117.767 152.745, 121.150 163.140 L 127.299 182.040 147.385 181.770 L 167.470 181.500 172.156 157.500 C 176.355 135.990, 177.005 130.740, 178.421 106.900 C 179.289 92.270, 180 77.640, 180 74.389 L 180 68.478 168.250 65.090 C 161.787 63.226, 155.669 61.480, 154.654 61.209 C 153.205 60.823, 153.377 61.286, 155.449 63.358 C 156.902 64.811, 158.520 66, 159.045 66 C 160.746 66, 160.059 67.809, 157.632 69.718 C 155.863 71.109, 154.323 74.859, 151.549 84.532 C 149.506 91.656, 147.364 97.775, 146.789 98.130 C 146.214 98.486, 147.960 99.082, 150.669 99.455 C 158.811 100.574, 158.803 101.153, 150.551 107.364 C 146.398 110.490, 143 113.480, 143 114.010 C 143 114.539, 146.600 124.265, 151 135.623 C 155.400 146.982, 159 156.438, 159 156.638 C 159 156.837, 158.372 157, 157.604 157 C 156.708 157, 152.174 146.879, 144.948 128.750 C 138.756 113.213, 133.294 99.986, 132.812 99.359 C 131.275 97.357, 123.274 96.694, 120.882 98.370 C 118.931 99.736, 117.650 99.481, 105.626 95.326 C 98.407 92.831, 92.087 90.402, 91.583 89.928 C 89.385 87.861, 94.450 88.158, 107.939 90.885 L 122.358 93.800 125.593 91.218 L 128.828 88.637 126.807 83.569 C 125.696 80.781, 123.869 76.129, 122.747 73.231 L 120.708 67.962 118.104 69.652 C 116.672 70.582, 113.131 72.909, 110.235 74.823 C 107.339 76.737, 104.811 78.122, 104.617 77.902 C 104.424 77.681, 101.232 71.987, 97.524 65.250 C 93.817 58.513, 90.495 53.018, 90.142 53.040 C 89.789 53.062, 80.950 59.313, 70.500 66.932 C 60.050 74.550, 51.325 80.620, 51.110 80.419 C 50.896 80.218, 53.313 70.817, 56.480 59.527 C 60.976 43.506, 62.598 39.006, 63.870 39.029 C 64.766 39.045, 75.400 39.680, 87.500 40.440 C 99.600 41.200, 109.570 41.749, 109.656 41.661 C 109.741 41.572, 108.841 39.157, 107.656 36.293 C 105.529 31.155, 98.792 24.829, 95.759 25.121 C 95.066 25.188, 84.496 27.844, 72.268 31.023 M 111.211 37.750 C 112.943 41.826, 113.441 42.176, 117.002 41.823 L 120.259 41.500 115.716 38.250 C 110.186 34.294, 109.721 34.242, 111.211 37.750 M 59.865 57.620 C 57.391 66.354, 55.482 73.660, 55.623 73.856 C 55.763 74.051, 63.804 68.488, 73.492 61.492 C 83.179 54.496, 91.277 48.944, 91.487 49.153 C 91.696 49.363, 94.875 54.926, 98.551 61.517 C 102.226 68.108, 105.393 73.674, 105.587 73.887 C 106.140 74.493, 119 65.871, 119 64.894 C 119 62.958, 111.733 46.424, 110.433 45.403 C 109.665 44.800, 102.841 44.007, 95.268 43.643 C 87.696 43.278, 77.644 42.700, 72.931 42.360 L 64.363 41.740 59.865 57.620 M 116.670 51.250 C 118.062 54.688, 119.817 58.985, 120.571 60.801 L 121.940 64.101 129.470 59.020 C 133.612 56.226, 137 53.745, 137 53.507 C 137 53.269, 134.325 51.258, 131.055 49.037 C 125.896 45.534, 124.384 45, 119.625 45 L 114.140 45 116.670 51.250 M 130.489 61.644 C 126.645 64.199, 123.368 66.393, 123.207 66.521 C 123.046 66.648, 124.780 71.271, 127.061 76.793 L 131.208 86.833 141.998 78.412 C 151.918 70.672, 154 68.500, 154 65.896 C 154 64.437, 141.948 57, 139.584 57 C 138.426 57, 134.333 59.090, 130.489 61.644 M 141.362 82.287 C 132.592 89.061, 132.263 89.456, 133.190 92.114 C 134.460 95.758, 135.684 96.639, 140.602 97.450 L 144.704 98.126 147.956 87 C 149.744 80.880, 151.048 75.729, 150.853 75.551 C 150.659 75.374, 146.388 78.405, 141.362 82.287 M 127.028 93.467 C 125.938 94.780, 126.143 95, 128.461 95 C 130.105 95, 131.011 94.534, 130.771 93.813 C 130.150 91.949, 128.420 91.789, 127.028 93.467 M 137 100.917 C 137 101.421, 137.888 103.905, 138.972 106.435 L 140.945 111.036 145.970 107.426 C 148.735 105.440, 151.203 103.481, 151.455 103.072 C 151.708 102.664, 149.069 101.806, 145.592 101.165 C 137.968 99.760, 137 99.732, 137 100.917" stroke="none" fill="black" fill-rule="evenodd"/>
</svg>