<svg xmlns="http://www.w3.org/2000/svg" width="200" height="200" viewBox="0 0 200 200" version="1.1">
	<path d="M 143.500 19.667 L 134.500 25.146 105.250 24.450 C 78.646 23.817, 76 23.901, 76 25.377 C 76 26.833, 78.719 27, 102.500 27 C 117.075 27, 128.980 27.337, 128.955 27.750 C 128.898 28.684, 81.481 56.350, 80.334 56.118 C 79.875 56.026, 78.716 51.574, 77.757 46.225 C 76.799 40.876, 75.821 35.992, 75.585 35.370 C 75.348 34.749, 68.276 30.500, 59.869 25.929 L 44.583 17.617 29.292 33.539 L 14 49.460 14 87.125 L 14 124.789 23.900 130.395 C 29.345 133.478, 34.295 136, 34.900 136 C 35.639 136, 36.023 131.813, 36.070 123.250 C 36.206 98.708, 37.721 106.761, 38.470 136 C 39.445 174.058, 40.235 187.252, 41.563 187.691 C 42.148 187.884, 47.493 177.818, 53.441 165.323 C 63.915 143.322, 64.622 142.152, 75.825 128.331 C 82.187 120.482, 87.462 114.158, 87.548 114.280 C 87.633 114.401, 86.664 123.725, 85.394 135 C 84.124 146.275, 83.066 156.437, 83.042 157.583 C 83.008 159.285, 85.241 160.700, 95.250 165.320 L 107.500 170.975 138 174.987 C 154.775 177.194, 169.444 179, 170.599 179 C 172.687 179, 172.682 178.916, 169.483 161.750 C 167.715 152.263, 165.975 140.450, 165.617 135.500 C 165.259 130.550, 164.703 123.463, 164.381 119.751 L 163.797 113.002 155.149 110.341 L 146.500 107.680 159.457 101.527 C 166.584 98.143, 171.984 95.125, 171.457 94.820 C 170.931 94.516, 166.854 93.712, 162.399 93.034 C 157.943 92.356, 153.743 91.459, 153.066 91.041 C 152.155 90.477, 152.768 88.425, 155.423 83.153 C 158.810 76.426, 159.265 75.962, 163.506 74.894 C 168.609 73.609, 169.400 71.466, 165.118 70.526 L 162.237 69.893 173.188 48.447 C 180.623 33.884, 183.667 27, 182.669 27 C 181.339 27, 129.679 35.238, 122.500 36.595 C 120.361 36.999, 121.713 35.846, 127.208 32.581 C 133.015 29.130, 135.932 28, 139.032 28 C 142.669 28, 143.838 27.342, 149.074 22.348 C 154.725 16.958, 156.463 13.890, 153.750 14.094 C 153.063 14.146, 148.450 16.654, 143.500 19.667 M 31.120 35.551 L 17 50.112 17.001 86.806 L 17.002 123.500 25.001 127.818 L 33 132.136 33.047 128.818 C 33.297 111.030, 35.871 48.796, 36.377 48.290 C 36.738 47.929, 37.410 48.053, 37.870 48.567 C 38.331 49.080, 39.494 77.625, 40.455 112 C 41.416 146.375, 42.495 175.723, 42.851 177.218 C 43.411 179.563, 44.733 177.326, 52.500 160.894 C 61.295 142.287, 61.830 141.443, 76 123.785 C 84.109 113.680, 90.630 106.376, 90.795 107.213 C 90.958 108.035, 89.945 119.179, 88.545 131.977 C 87.145 144.775, 86 155.831, 86 156.546 C 86 157.261, 90.838 160.166, 96.750 163.003 L 107.500 168.160 137.870 172.127 C 154.573 174.309, 168.448 175.885, 168.704 175.629 C 168.959 175.374, 167.803 167.815, 166.134 158.833 C 164.465 149.850, 162.789 136.798, 162.408 129.830 C 162.028 122.861, 161.402 116.650, 161.017 116.028 C 160.633 115.406, 156.206 113.618, 151.181 112.056 L 142.043 109.216 129.485 134.108 C 121.683 149.573, 116.373 159, 115.464 159 C 114.659 159, 114 158.839, 114 158.643 C 114 158.447, 119.001 148.048, 125.114 135.535 C 135.945 113.365, 136.181 112.737, 134.364 110.943 C 131.592 108.206, 91.588 76.002, 90.959 76.001 C 90.661 76, 89.536 79.218, 88.459 83.151 C 87.381 87.084, 85.971 91.021, 85.325 91.901 C 84.290 93.309, 84.035 93.200, 83.191 90.990 C 82.663 89.610, 81.432 83.607, 80.455 77.652 C 79.465 71.618, 77.964 65.942, 77.065 64.832 C 75.476 62.869, 75.348 62.901, 68.226 67.007 C 61.273 71.015, 61 71.315, 61 74.941 C 61 78.897, 62.538 100.427, 63.523 110.250 C 63.986 114.874, 63.815 116, 62.647 116 C 61.849 116, 60.671 114.538, 60.029 112.750 C 55.749 100.831, 48.002 77.526, 48.014 76.608 C 48.022 75.998, 50.304 74.245, 53.085 72.711 C 57.594 70.223, 58.086 69.628, 57.623 67.211 C 57.338 65.720, 56.802 59.775, 56.433 54 C 55.782 43.816, 55.818 43.547, 57.631 45.076 C 65.923 52.066, 75.031 59, 75.921 59 C 76.515 59, 77 58.600, 77 58.110 C 77 57.194, 74.330 42.188, 73.480 38.332 C 73.150 36.833, 70.301 34.709, 64.251 31.452 C 59.438 28.861, 53.192 25.447, 50.370 23.865 L 45.240 20.991 31.120 35.551 M 142.559 23.532 C 141.491 24.339, 141.099 25, 141.686 25 C 142.274 25, 143.315 24.325, 144 23.500 C 145.557 21.624, 145.067 21.634, 142.559 23.532 M 152.500 34.384 C 138.750 36.668, 127.950 38.796, 128.500 39.112 C 129.050 39.429, 137.488 41.418, 147.250 43.534 C 159.021 46.084, 165 47.812, 165 48.662 C 165 49.999, 163.153 50.615, 138.508 57.498 L 123.516 61.685 128.508 62.820 C 140.216 65.483, 159.151 69.178, 159.427 68.853 C 160.178 67.969, 179 31.235, 179 30.655 C 179 30.295, 178.662 30.052, 178.250 30.116 C 177.838 30.180, 166.250 32.101, 152.500 34.384 M 99.016 49.018 C 88.857 54.984, 80.376 60.371, 80.170 60.990 C 79.767 62.198, 87.450 70, 89.042 70 C 89.569 70, 90 69.507, 90 68.904 C 90 65.621, 93.310 57, 94.571 57 C 95.357 57, 95.997 57.112, 95.992 57.250 C 95.988 57.388, 95.092 60.425, 94 64 C 92.908 67.575, 92.012 71.037, 92.008 71.694 C 92.001 72.677, 135.673 108.943, 137.833 109.749 C 138.586 110.030, 147.413 94.080, 146.828 93.495 C 146.490 93.157, 119.060 88, 117.600 88 C 117.270 88, 117 87.342, 117 86.539 C 117 85.662, 118.700 84.629, 121.250 83.957 C 136.012 80.065, 156.528 73.872, 157.335 73.065 C 158.479 71.921, 157.942 71.776, 135.003 67.062 C 121.951 64.380, 117.500 63.093, 117.500 62.003 C 117.500 60.955, 123.098 58.979, 137.250 55.031 C 148.113 52, 156.999 49.291, 156.999 49.010 C 156.998 48.730, 148.366 46.594, 137.816 44.264 C 127.267 41.934, 118.377 39.610, 118.061 39.099 C 117.745 38.588, 109.175 43.051, 99.016 49.018 M 59.623 58.614 C 59.983 63.501, 60.395 67.642, 60.538 67.816 C 60.979 68.351, 72 61.856, 72 61.061 C 72 60.650, 69.862 58.551, 67.250 56.398 C 58.053 48.817, 58.882 48.576, 59.623 58.614 M 82.061 70.215 C 82.095 70.922, 82.696 74.650, 83.396 78.500 L 84.669 85.500 86.419 79.704 C 88.282 73.534, 87.900 72.087, 83.832 69.910 C 82.494 69.194, 82.017 69.276, 82.061 70.215 M 54.742 75.005 C 53.226 75.927, 51.769 76.897, 51.506 77.161 C 51.243 77.424, 53.026 83.458, 55.470 90.570 L 59.913 103.500 59.306 93 C 58.973 87.225, 58.430 80.437, 58.100 77.914 L 57.500 73.329 54.742 75.005 M 140 81.598 C 132.025 83.940, 125.275 85.938, 125 86.038 C 124.267 86.305, 144.109 89.865, 146.736 89.938 C 148.493 89.987, 149.630 88.695, 152.051 83.899 C 153.745 80.543, 154.989 77.695, 154.815 77.569 C 154.642 77.443, 147.975 79.256, 140 81.598 M 147.450 99.099 C 146.028 101.904, 145.043 104.377, 145.261 104.594 C 145.478 104.812, 149.671 103.033, 154.578 100.642 L 163.500 96.294 158.201 95.147 C 150.452 93.470, 150.268 93.537, 147.450 99.099" stroke="none" fill="black" fill-rule="evenodd"/>
</svg>