<svg xmlns="http://www.w3.org/2000/svg" width="200" height="200" viewBox="0 0 200 200" version="1.1">
	<path d="M 52.117 23.250 C 47.835 35.416, 44.374 42.747, 35.002 59.500 C 28.541 71.050, 22.718 81.538, 22.062 82.807 L 20.869 85.114 26.712 84.453 L 32.556 83.792 39.278 93.888 C 42.975 99.440, 46 104.620, 46 105.398 C 46 106.176, 41.925 115.023, 36.944 125.058 L 27.888 143.304 45.694 142.637 C 55.487 142.270, 67.100 141.724, 71.500 141.423 L 79.500 140.876 89.084 151.412 C 97.599 160.772, 99.551 163.677, 106.584 177.458 C 110.938 185.988, 114.774 192.975, 115.109 192.984 C 115.444 192.993, 119.017 184.060, 123.051 173.133 L 130.384 153.265 146.457 148.074 L 162.531 142.883 170.765 135.356 C 175.294 131.216, 179 127.417, 179 126.914 C 179 125.378, 176.538 125.828, 158.875 130.591 C 149.511 133.117, 141.698 135.029, 141.513 134.841 C 140.740 134.057, 125.982 108.923, 125.751 107.999 C 125.613 107.444, 131.710 103.705, 139.300 99.691 C 148.532 94.808, 155.733 90.137, 161.050 85.581 C 167.935 79.682, 170.722 76, 168.305 76 C 167.922 76, 159.838 78.025, 150.339 80.500 C 140.840 82.975, 132.378 85, 131.534 85 C 130.215 85, 130 82.598, 130 67.869 L 130 50.738 155.750 51.453 L 181.500 52.169 176.004 46.335 C 172.981 43.126, 168.102 37.969, 165.161 34.877 L 159.813 29.253 141.772 37.127 C 121.613 45.925, 122.667 45.750, 98.279 44.344 L 87.057 43.698 86.779 31.099 C 86.554 20.945, 86.221 18.500, 85.064 18.500 C 84.057 18.500, 83.011 21.391, 81.564 28.178 C 80.429 33.501, 79.262 38.089, 78.971 38.373 C 78.681 38.658, 73.956 31.954, 68.471 23.476 C 62.987 14.998, 58.271 8.048, 57.992 8.031 C 57.713 8.014, 55.069 14.863, 52.117 23.250 M 53.565 27.250 C 50.083 36.994, 45.810 45.860, 37.415 60.755 C 31.137 71.896, 26 81.291, 26 81.633 C 26 81.975, 27.789 81.970, 29.975 81.620 L 33.950 80.984 41.987 92.980 L 50.023 104.976 41.512 121.977 C 36.830 131.327, 33 139.263, 33 139.611 C 33 139.959, 42.112 139.885, 53.250 139.446 C 64.388 139.007, 75.077 138.614, 77.005 138.574 C 80.210 138.506, 81.391 139.442, 90.789 149.500 C 99.960 159.316, 101.808 161.953, 107.954 174 C 114.248 186.337, 114.922 187.285, 115.782 185 C 116.300 183.625, 119.331 175.398, 122.517 166.719 L 128.311 150.937 144.654 145.741 C 160.210 140.796, 161.274 140.289, 166.749 135.230 C 170.219 132.023, 171.707 130.108, 170.500 130.401 C 169.400 130.668, 162.298 132.563, 154.718 134.611 C 146.392 136.862, 140.583 137.973, 140.043 137.418 C 139.552 136.913, 135.105 129.661, 130.162 121.301 L 121.174 106.103 137.337 97.517 C 147.159 92.299, 155.462 87.123, 158.500 84.322 C 161.487 81.568, 162.670 79.975, 161.438 80.364 C 154.104 82.681, 128.497 88.831, 128.047 88.383 C 127.746 88.083, 127.361 78.841, 127.191 67.845 L 126.882 47.851 150.646 48.578 L 174.410 49.305 171.287 45.402 C 169.570 43.256, 166.118 39.509, 163.616 37.075 L 159.068 32.651 141.224 40.376 L 123.379 48.101 105.189 47.398 L 87 46.695 87 49.011 C 87 50.410, 91.154 56.772, 97.500 65.092 C 103.275 72.664, 108 79.068, 108 79.323 C 108 79.579, 104.021 80.103, 99.157 80.488 C 94.294 80.872, 89.839 81.483, 89.258 81.844 C 88.521 82.301, 88.618 86.438, 89.578 95.500 C 91.785 116.333, 92.641 113.855, 80.414 122.058 C 74.591 125.964, 69.682 129.012, 69.505 128.830 C 69.328 128.649, 69.798 119.050, 70.550 107.500 C 71.301 95.950, 71.935 85.938, 71.958 85.250 C 71.983 84.493, 70.694 84, 68.691 84 C 65.727 84, 64.679 83.105, 58.620 75.396 C 51.230 65.994, 50.084 63.983, 52.143 64.032 C 52.889 64.050, 56.413 67.875, 59.973 72.532 C 65.411 79.646, 66.900 81, 69.284 81 C 72.045 81, 72.107 80.885, 71.557 76.750 C 70.844 71.387, 68 44.441, 68 43.043 C 68 42.469, 68.608 42, 69.351 42 C 70.369 42, 71.127 46.365, 72.431 59.750 C 73.382 69.513, 74.357 78.119, 74.597 78.876 C 74.919 79.891, 76.345 80.125, 80.039 79.770 C 82.792 79.506, 85.147 79.112, 85.272 78.895 C 85.397 78.678, 85.363 72.599, 85.196 65.387 L 84.893 52.274 81.446 48.511 C 79.551 46.442, 78 44.320, 78 43.797 C 78 42.787, 59.337 14, 58.683 14 C 58.472 14, 56.169 19.962, 53.565 27.250 M 82.413 37.292 C 81.774 40.695, 81.698 43.313, 82.229 43.642 C 83.805 44.616, 84.115 43.381, 83.803 37.363 L 83.500 31.500 82.413 37.292 M 88 68.534 L 88 79.069 93.250 78.474 C 104.073 77.248, 103.868 78.105, 95.882 67.480 C 91.963 62.266, 88.586 58, 88.378 58 C 88.170 58, 88 62.740, 88 68.534 M 78.250 82.723 C 76.463 82.945, 74.980 83.211, 74.956 83.313 C 74.756 84.157, 72.265 123.548, 72.401 123.706 C 72.499 123.819, 76.049 121.621, 80.289 118.820 C 85.836 115.157, 88.005 113.134, 88.017 111.614 C 88.026 110.451, 87.488 103.313, 86.820 95.750 C 85.476 80.517, 86.273 81.728, 78.250 82.723" stroke="none" fill="black" fill-rule="evenodd"/>
</svg>