<svg xmlns="http://www.w3.org/2000/svg" width="200" height="200" viewBox="0 0 200 200" version="1.1">
	<path d="M 143.970 19.654 C 140.411 23.863, 137.198 27.770, 136.829 28.335 C 136.460 28.900, 130.385 30.387, 123.329 31.639 C 113.145 33.447, 103.696 34.146, 77.500 35.032 C 35.513 36.451, 25.779 37.144, 25.247 38.750 C 24.927 39.717, 28.679 40, 41.833 40 C 54.525 40, 58.948 39.683, 59.286 38.750 C 59.641 37.769, 60.177 37.758, 61.772 38.697 C 62.890 39.356, 68.349 40.208, 73.902 40.590 L 84 41.286 84 56.874 C 84 71.844, 83.875 72.812, 80.834 81.311 C 77.676 90.141, 77.662 90.159, 74.584 89.636 C 68.286 88.565, 39.095 88.018, 27.167 88.747 L 14.833 89.500 21.437 93.356 L 28.040 97.213 55.437 97.356 C 70.505 97.435, 83.084 97.750, 83.389 98.055 C 84.217 98.884, 84.242 158.547, 83.420 173.250 C 83.008 180.629, 83.085 185.996, 83.604 185.990 C 86.337 185.961, 111.418 182.915, 111.762 182.571 C 112.986 181.347, 113.933 158.643, 113.964 129.750 L 114 97 141.644 97 L 169.288 97 175.598 92.250 C 179.069 89.638, 181.929 87.220, 181.954 86.879 C 181.979 86.537, 176.527 82.985, 169.839 78.986 C 161.626 74.075, 157.267 72.004, 156.412 72.607 C 155.716 73.098, 150.861 77.472, 145.625 82.326 L 136.103 91.151 124.437 88.946 L 112.770 86.740 113.496 71.244 C 114.105 58.263, 114.666 54.429, 116.953 47.624 L 119.684 39.500 136.123 39.859 C 151.678 40.199, 174.579 38.595, 176.284 37.045 C 176.927 36.460, 152.061 12, 150.822 12 C 150.612 12, 147.528 15.444, 143.970 19.654 M 144 23.944 C 140.425 28.286, 136.600 32.067, 135.500 32.344 C 129.630 33.827, 103.928 37.117, 93.500 37.721 C 86.900 38.102, 82.737 38.576, 84.250 38.774 L 87 39.133 87 55.616 C 87 71.512, 86.887 72.428, 83.838 81.300 C 82.099 86.360, 80.335 90.953, 79.917 91.507 C 79.421 92.166, 74.191 92.247, 64.829 91.742 C 56.948 91.317, 44.425 91.088, 37 91.235 C 24.629 91.478, 23.709 91.622, 26 92.958 C 27.996 94.122, 33.541 94.435, 53.500 94.511 C 67.250 94.563, 80.419 94.978, 82.765 95.433 L 87.030 96.260 86.703 139.640 L 86.375 183.019 90.938 182.433 C 93.447 182.110, 98.650 181.543, 102.500 181.173 L 109.500 180.500 110.259 173 C 110.677 168.875, 110.995 149.412, 110.965 129.750 L 110.911 94 122.206 93.900 L 133.500 93.799 127 92.399 C 123.425 91.629, 118.118 90.513, 115.207 89.919 L 109.914 88.840 110.615 72.170 C 111.246 57.162, 111.632 54.557, 114.485 46.039 L 117.654 36.577 131.073 36.882 C 138.454 37.049, 144.848 37.406, 145.282 37.674 C 146.299 38.303, 168.078 35.968, 169.818 35.044 C 170.721 34.565, 168.008 31.462, 161.187 25.172 C 155.715 20.128, 151.072 16.011, 150.869 16.025 C 150.666 16.038, 147.575 19.602, 144 23.944 M 147.500 84.457 L 137.500 93.901 153.053 93.951 L 168.606 94 172.803 90.913 C 175.111 89.216, 177 87.514, 177 87.132 C 177 86.592, 160.695 76.358, 158.078 75.257 C 157.760 75.123, 153 79.263, 147.500 84.457" stroke="none" fill="black" fill-rule="evenodd"/>
</svg>