<svg xmlns="http://www.w3.org/2000/svg" width="200" height="200" viewBox="0 0 200 200" version="1.1">
	<path d="M 136 21.917 C 127.172 25.113, 123.704 25.829, 114.221 26.415 C 103.273 27.091, 102.649 27.015, 92.984 23.847 L 83.026 20.583 71.315 22.865 C 64.652 24.164, 57.857 26.141, 55.552 27.453 C 53.323 28.721, 44.975 32.582, 37 36.034 C 29.025 39.486, 22.144 42.618, 21.710 42.995 C 21.275 43.372, 23.638 50.342, 26.960 58.484 C 30.282 66.626, 33 73.697, 33 74.197 C 33 74.697, 28.950 83.707, 24 94.220 C 19.050 104.732, 15.112 113.418, 15.250 113.522 C 15.387 113.626, 25.672 108.866, 38.105 102.943 L 60.710 92.175 94.374 91.894 L 128.038 91.613 132.515 98.807 L 136.991 106 122.746 106.013 C 114.911 106.019, 94.668 105.489, 77.762 104.834 C 60.856 104.179, 46.726 103.941, 46.362 104.305 C 45.767 104.900, 43.177 150.325, 43.051 162.358 L 43 167.216 52.105 158.858 C 57.113 154.261, 63.387 148.576, 66.046 146.224 L 70.882 141.948 77.263 143.551 L 83.644 145.154 92.969 167.327 C 98.097 179.522, 102.585 189.835, 102.941 190.245 C 103.298 190.655, 106.720 176.542, 110.545 158.883 C 114.370 141.224, 117.633 127.437, 117.796 128.244 C 117.958 129.052, 118.408 135.725, 118.796 143.073 L 119.500 156.434 135.916 161.218 C 144.944 163.849, 152.518 165.815, 152.746 165.587 C 152.974 165.359, 155.113 153.001, 157.498 138.123 C 159.884 123.246, 162.175 110.495, 162.589 109.787 C 163.003 109.079, 167.769 102.113, 173.180 94.307 C 178.592 86.500, 183.287 79.415, 183.615 78.561 C 184.014 77.522, 180.532 72.846, 173.087 64.421 L 161.964 51.833 169.528 43.501 L 177.093 35.169 161.976 26.584 C 153.662 21.863, 146.778 18.026, 146.680 18.058 C 146.581 18.090, 141.775 19.827, 136 21.917 M 137 24.720 C 128.738 27.779, 125.813 28.335, 114.556 28.987 C 101.754 29.729, 101.506 29.702, 92.056 26.562 L 82.500 23.387 74.500 25.079 C 70.100 26.010, 65.600 26.946, 64.500 27.161 C 63.013 27.451, 67.757 31.490, 83 42.913 C 107.355 61.165, 105.077 59.257, 104.205 60.669 C 103.702 61.482, 98.204 60.088, 85.496 55.926 C 75.598 52.684, 67.199 50.025, 66.830 50.016 C 66.462 50.007, 68.408 55.580, 71.155 62.400 L 76.149 74.800 96.074 75.527 C 112.228 76.117, 116 76.522, 116 77.668 C 116 78.859, 112.914 78.975, 96.250 78.405 C 85.388 78.034, 75.825 77.379, 75 76.948 C 74.175 76.518, 71.475 70.954, 69 64.584 C 66.525 58.214, 64.271 53.002, 63.991 53.001 C 63.221 52.999, 50.919 86.253, 51.482 86.815 C 51.751 87.084, 68.540 86.634, 88.791 85.815 L 125.611 84.327 132.806 78.449 C 136.763 75.217, 139.986 72.331, 139.968 72.036 C 139.950 71.741, 134.888 68.148, 128.718 64.051 C 122.548 59.954, 117.305 56.459, 117.067 56.284 C 116.828 56.110, 117.066 55.534, 117.595 55.005 C 118.210 54.390, 123.347 57.236, 131.859 62.906 L 145.162 71.768 135.880 79.384 C 128.426 85.500, 125.900 87.025, 123.049 87.126 C 121.097 87.195, 112.975 87.566, 105 87.950 L 90.500 88.649 110.085 88.825 L 129.669 89 135.335 98.082 C 138.451 103.077, 141 107.648, 141 108.240 C 141 109.303, 113.620 108.973, 66.904 107.349 L 48.308 106.702 47.629 123.101 C 47.255 132.120, 46.663 144.203, 46.314 149.950 L 45.680 160.400 48.252 158.450 C 49.667 157.378, 55.153 152.495, 60.441 147.600 L 70.058 138.701 73.779 139.780 C 75.825 140.373, 79.346 141.340, 81.603 141.928 L 85.705 142.998 94.040 162.715 C 100.789 178.681, 102.499 181.962, 103.027 179.966 C 103.385 178.610, 106.780 163.213, 110.571 145.750 C 114.699 126.734, 117.920 114, 118.601 114 C 120.130 114, 120.950 119.549, 121.113 131 C 121.188 136.225, 121.530 143.622, 121.874 147.437 L 122.500 154.374 136.750 158.567 C 144.588 160.873, 150.997 162.477, 150.993 162.130 C 150.989 161.784, 152.837 149.819, 155.099 135.542 L 159.212 109.583 170.199 93.758 L 181.186 77.933 176.703 72.716 C 174.237 69.847, 169.061 63.900, 165.199 59.500 L 158.179 51.500 165.089 44.357 C 168.890 40.428, 172 36.800, 172 36.295 C 172 35.625, 151.654 23.526, 147 21.428 C 146.725 21.304, 142.225 22.786, 137 24.720 M 60.882 36.510 L 64.500 45.948 79.432 50.959 C 87.644 53.715, 94.483 55.850, 94.630 55.703 C 94.850 55.483, 64.834 32.391, 58.992 28.286 C 57.665 27.354, 58.105 29.266, 60.882 36.510 M 39.750 37.776 C 31.637 41.411, 25 44.917, 25 45.567 C 25 46.217, 27.475 52.712, 30.500 60 C 33.525 67.288, 36 73.688, 36 74.223 C 36 74.758, 32.615 82.417, 28.478 91.243 C 24.341 100.068, 21.079 107.397, 21.228 107.528 C 21.378 107.659, 29.659 103.881, 39.630 99.133 L 57.761 90.500 52.329 90.199 C 47.399 89.925, 46.957 89.711, 47.537 87.883 C 47.889 86.775, 51.287 77.691, 55.088 67.697 C 58.890 57.702, 62.002 48.845, 62.005 48.013 C 62.013 45.958, 55.936 30.979, 55.138 31.083 C 54.787 31.129, 47.862 34.141, 39.750 37.776" stroke="none" fill="black" fill-rule="evenodd"/>
</svg>