<svg xmlns="http://www.w3.org/2000/svg" width="200" height="200" viewBox="0 0 200 200" version="1.1">
	<path d="M 39.587 21.852 L 27.992 41.704 31.988 50.352 C 34.185 55.108, 36.428 59, 36.972 59 C 37.516 59, 44.111 56.323, 51.629 53.052 C 59.146 49.780, 64.758 47.642, 64.099 48.302 C 63.441 48.961, 57.503 53.775, 50.905 59 L 38.907 68.500 26.614 94.068 L 14.321 119.636 23.062 133.822 C 27.870 141.624, 36.909 157.460, 43.149 169.013 C 49.389 180.565, 54.608 189.676, 54.747 189.259 C 54.885 188.841, 55.864 172.750, 56.921 153.500 C 58.487 124.985, 59.443 114.932, 62.082 99.244 C 63.864 88.654, 65.438 80.105, 65.581 80.247 C 65.723 80.390, 66.776 88.726, 67.920 98.773 C 69.633 113.820, 70 123.118, 70 151.520 C 70 170.484, 70.279 186, 70.619 186 C 70.960 186, 80.824 180.600, 92.541 174 C 104.257 167.400, 114.672 162, 115.684 162 C 116.697 162, 129.189 167.168, 143.444 173.485 C 157.700 179.802, 169.476 184.857, 169.614 184.720 C 169.751 184.582, 172.370 173.956, 175.432 161.106 L 181 137.743 181.008 105.121 C 181.014 78.898, 178.686 23.721, 177.510 22.233 C 177.394 22.086, 164.877 24.834, 149.694 28.339 L 122.089 34.713 89.898 26.837 C 72.192 22.505, 57.596 19.082, 57.462 19.230 C 57.328 19.379, 60.764 24, 65.097 29.500 C 69.431 35, 72.982 39.776, 72.988 40.114 C 73.001 40.761, 37.892 56.282, 37.534 55.788 C 37.419 55.629, 35.903 52.412, 34.163 48.639 L 31.001 41.777 42.392 22.447 C 52.832 4.732, 54.106 2, 51.924 2 C 51.515 2, 45.963 10.933, 39.587 21.852 M 65.167 24.830 C 65.350 25.287, 71.575 33.434, 79 42.935 L 92.500 60.211 93.192 56.355 C 93.573 54.235, 93.911 49.688, 93.942 46.250 L 94 40 88.500 40 C 84.278 40, 83 39.652, 83 38.500 C 83 37.227, 85.519 37, 99.667 37 C 108.833 37, 116.068 36.734, 115.743 36.410 C 115.181 35.847, 67.404 24.011, 65.667 24.004 C 65.208 24.002, 64.983 24.374, 65.167 24.830 M 152.648 30.457 C 137.534 33.945, 131.675 35.657, 133.648 36.009 C 136.138 36.453, 137.414 38.232, 143.693 50.009 C 150.606 62.973, 150.801 63.525, 148.693 64.150 C 147.487 64.508, 138.963 64.845, 129.750 64.900 C 120.537 64.955, 113 65.234, 113 65.519 C 113 65.804, 117.750 72.592, 123.557 80.601 L 134.113 95.165 130.307 101.074 C 128.213 104.324, 126.275 106.968, 126 106.949 C 125.725 106.931, 120.608 100.614, 114.630 92.912 C 108.651 85.209, 103.614 79.053, 103.435 79.231 C 103.257 79.410, 103.751 89.892, 104.534 102.525 C 105.760 122.311, 106.203 125.678, 107.729 126.812 C 118.230 134.616, 129.164 142.169, 129.489 141.844 C 129.712 141.621, 133.095 133.802, 137.006 124.469 C 151.793 89.185, 153.167 86.500, 154.511 90.250 C 155.267 92.361, 160.889 158.444, 160.358 158.975 C 160.084 159.250, 151.781 159.882, 141.908 160.382 C 132.034 160.881, 124.166 161.499, 124.423 161.756 C 125.218 162.552, 167.305 181.028, 167.615 180.718 C 167.776 180.557, 170.179 171.050, 172.954 159.591 L 178 138.757 177.985 103.128 C 177.972 73.572, 176.032 26.316, 174.801 25.592 C 174.636 25.495, 164.666 27.684, 152.648 30.457 M 100.750 39.739 C 97.588 39.937, 95 40.342, 95 40.638 C 95 40.934, 98.414 45.862, 102.588 51.588 L 110.175 62 128.683 62 L 147.190 62 144.741 57.750 C 143.394 55.413, 140.596 50.237, 138.522 46.250 L 134.752 39 120.626 39.189 C 112.857 39.293, 103.912 39.541, 100.750 39.739 M 58.584 56.287 L 41.667 69.500 29.834 93.842 C 23.325 107.230, 18 118.677, 18 119.280 C 18 119.882, 21.754 126.478, 26.343 133.938 C 30.931 141.397, 38.694 154.925, 43.593 164 C 50.224 176.283, 52.561 179.861, 52.738 178 C 52.870 176.625, 53.658 162.757, 54.491 147.182 C 55.758 123.469, 56.671 114.850, 60.106 94.182 C 64.002 70.740, 65.031 66.697, 66.681 68.348 C 67.074 68.741, 68.633 79.961, 70.145 93.281 C 72.566 114.607, 72.901 121.341, 72.947 149.658 L 73 181.816 89.569 172.505 C 98.682 167.385, 106.412 162.922, 106.746 162.587 C 107.081 162.253, 105.931 162.264, 104.192 162.612 C 101.973 163.055, 100.878 162.835, 100.518 161.872 C 100.236 161.117, 98.243 148.125, 96.090 133 C 92.295 106.337, 92.192 104.891, 92.719 85.500 L 93.263 65.500 85.506 55.500 C 81.241 50, 77.244 44.954, 76.625 44.287 C 75.762 43.356, 71.565 46.147, 58.584 56.287 M 96 56.389 C 96 63.377, 96.339 65.173, 98.030 67.139 L 100.059 69.500 99.780 66 C 99.517 62.714, 99.699 62.481, 102.750 62.187 C 104.537 62.014, 106 61.628, 106 61.328 C 106 60.696, 96.767 48, 96.307 48 C 96.138 48, 96 51.775, 96 56.389 M 102.625 69.250 C 102.981 71.588, 103.588 73.950, 103.972 74.500 C 107.745 79.897, 125.321 101.997, 125.833 101.988 C 126.200 101.981, 127.465 100.485, 128.645 98.663 L 130.789 95.350 119.834 80.175 C 109.352 65.656, 108.729 65, 105.427 65 L 101.976 65 102.625 69.250 M 95.441 86.639 C 94.686 102.906, 94.790 104.433, 98.399 130 C 100.456 144.575, 102.379 157.339, 102.673 158.365 C 103.139 159.990, 103.859 160.144, 108.270 159.559 C 111.054 159.189, 117.870 158.715, 123.416 158.506 C 128.962 158.296, 139.060 157.808, 145.855 157.421 L 158.210 156.717 157.681 153.109 C 157.390 151.124, 156.131 137.474, 154.883 122.776 C 153.636 108.078, 152.370 96.297, 152.071 96.596 C 151.772 96.895, 146.935 108.021, 141.322 121.320 C 135.135 135.979, 130.602 145.462, 129.808 145.403 C 129.088 145.349, 122.762 141.129, 115.750 136.025 C 105.038 128.227, 102.998 126.325, 102.990 124.122 C 102.985 122.680, 102.305 110.708, 101.480 97.517 C 100.172 76.612, 99.738 73.294, 98.101 71.656 C 96.263 69.819, 96.206 70.143, 95.441 86.639" stroke="none" fill="black" fill-rule="evenodd"/>
</svg>