<svg xmlns="http://www.w3.org/2000/svg" width="200" height="200" viewBox="0 0 200 200" version="1.1">
	<path d="M 41.079 32.109 C 21.548 51.328, 11.993 61.393, 12.654 62.054 C 13.315 62.715, 19.401 59.847, 30.758 53.519 C 40.167 48.278, 48.537 43.731, 49.356 43.417 C 50.257 43.071, 51.300 43.692, 51.994 44.988 C 52.985 46.841, 52.605 47.842, 49.189 52.366 C 47.016 55.245, 39.073 69.132, 31.539 83.227 L 17.840 108.855 22.007 122.678 C 26.848 138.732, 47.837 189, 49.701 189 C 51.396 189, 51.715 187.044, 52.959 169.070 C 53.546 160.584, 54.266 153.400, 54.560 153.107 C 54.853 152.814, 62.835 155.127, 72.297 158.248 C 85.496 162.602, 94.417 164.784, 110.628 167.626 L 131.755 171.328 139.431 165.056 C 146.988 158.881, 147.347 158.718, 162.590 154.522 C 171.106 152.178, 178.272 150.062, 178.514 149.820 C 178.755 149.578, 179.483 133.432, 180.131 113.940 C 181.164 82.833, 181.100 75.142, 179.602 51.031 C 178.663 35.923, 177.748 23.415, 177.570 23.236 C 177.391 23.057, 168.438 24.150, 157.675 25.665 L 138.106 28.420 113.803 25.648 C 100.436 24.123, 88.774 22.667, 87.886 22.413 C 86.605 22.047, 78.315 12.939, 71.500 4.411 C 70.756 3.480, 62.974 10.565, 41.079 32.109 M 45.930 31.232 C 30.033 46.761, 22.722 54.504, 25 53.400 C 26.925 52.467, 33.569 48.871, 39.764 45.408 L 51.028 39.113 52.629 41.556 C 53.509 42.900, 54.577 44, 55 44 C 55.424 44, 59.760 38.794, 64.635 32.432 L 73.500 20.864 77.750 21.413 C 80.088 21.715, 82 21.721, 82 21.426 C 82 21.132, 79.381 17.848, 76.180 14.129 L 70.360 7.367 45.930 31.232 M 65.750 35.369 C 60.938 41.669, 57 47.108, 57 47.457 C 57 47.805, 59.239 51.408, 61.975 55.463 L 66.950 62.835 73.225 63.425 C 76.676 63.749, 81.237 64.123, 83.361 64.257 L 87.221 64.500 87.064 78.704 L 86.907 92.909 97.095 108.204 C 102.698 116.617, 107.346 123.590, 107.425 123.700 C 107.593 123.937, 124.321 118.829, 124.893 118.366 C 125.109 118.191, 122.747 115.155, 119.643 111.620 C 116.539 108.085, 114 104.585, 114 103.842 C 114 103.099, 116.700 96.007, 120 88.083 C 123.300 80.159, 126 73.405, 126 73.075 C 126 72.744, 123.489 70.513, 120.421 68.116 C 117.352 65.720, 115.215 63.427, 115.671 63.021 C 116.127 62.615, 123.138 59.220, 131.250 55.475 L 146 48.668 146.179 42.834 C 146.277 39.625, 146.389 35.987, 146.429 34.750 C 146.490 32.828, 145.844 32.408, 142 31.869 C 136.453 31.092, 124.025 33.030, 109.500 36.938 L 98.500 39.898 95.500 36.695 C 93.850 34.933, 90.893 31.595, 88.930 29.276 C 85.743 25.513, 84.775 24.998, 79.930 24.487 L 74.500 23.914 65.750 35.369 M 93.997 30.997 C 96.298 33.745, 98.478 36.152, 98.841 36.345 C 99.203 36.539, 105.125 35.250, 112 33.481 C 118.875 31.712, 123.825 30.024, 123 29.731 C 121.374 29.152, 94.675 25.962, 91.657 25.986 C 90.174 25.997, 90.631 26.976, 93.997 30.997 M 161 28.042 C 154.675 29.037, 149.387 29.884, 149.250 29.925 C 149.113 29.966, 149 33.811, 149 38.469 C 149 45.585, 149.239 46.845, 150.500 46.362 C 151.325 46.045, 152.007 46.172, 152.017 46.643 C 152.026 47.114, 153.145 65.500, 154.503 87.500 C 155.862 109.500, 156.979 128.063, 156.987 128.750 C 156.994 129.438, 156.373 130, 155.607 130 C 154.738 130, 152.517 125.394, 149.700 117.750 C 147.217 111.013, 144.871 104.713, 144.486 103.750 C 144.009 102.558, 144.256 102, 145.260 102 C 146.193 102, 147.922 105.147, 149.968 110.566 C 151.746 115.278, 153.297 118.990, 153.415 118.816 C 153.533 118.642, 152.647 102.975, 151.447 84 C 149.284 49.816, 149.263 49.649, 149.132 65.750 C 149.021 79.469, 148.766 82, 147.500 82 C 146.233 82, 146 79.667, 146 67 C 146 58.750, 145.800 52, 145.556 52 C 144.727 52, 120 63.867, 120 64.265 C 120 64.483, 122.025 66.115, 124.500 67.893 C 126.975 69.670, 128.998 71.659, 128.995 72.312 C 128.992 72.965, 126.294 80.025, 123 88 C 119.706 95.975, 117.008 102.884, 117.005 103.353 C 117.002 103.823, 119.938 107.729, 123.529 112.034 L 130.057 119.862 121.279 122.480 C 116.450 123.921, 111.195 125.527, 109.601 126.050 C 108.006 126.572, 106.608 127, 106.494 127 C 106.379 127, 102.103 120.694, 96.990 112.986 C 91.878 105.278, 87.556 99.111, 87.385 99.281 C 87.215 99.452, 87.580 110.501, 88.198 123.836 C 89.030 141.818, 89.029 148.371, 88.193 149.207 C 86.659 150.741, 86.897 151.748, 80.891 118.260 C 78.007 102.178, 75.408 89.259, 75.117 89.550 C 74.597 90.070, 57.020 150.416, 57.338 150.587 C 57.427 150.634, 64.925 153.052, 74 155.960 C 85.171 159.539, 96.637 162.334, 109.500 164.615 C 119.950 166.468, 129.175 167.984, 130 167.985 C 130.825 167.986, 134.847 165.319, 138.938 162.061 C 146.019 156.420, 147.070 155.942, 160.806 152.117 C 168.742 149.907, 175.482 147.851, 175.784 147.550 C 176.085 147.248, 176.820 131.601, 177.416 112.779 C 178.343 83.527, 178.260 74.778, 176.849 52.529 C 175.940 38.213, 175.153 26.387, 175.099 26.250 C 174.955 25.885, 173.686 26.046, 161 28.042 M 50.842 54.750 C 48.879 57.362, 41.317 70.648, 34.038 84.274 L 20.803 109.048 24.979 122.774 C 28.753 135.180, 47.881 182.452, 48.768 181.565 C 48.970 181.364, 50.202 167.092, 51.508 149.849 C 53.472 123.899, 58.238 79.779, 60.538 66.250 C 60.866 64.318, 61.683 63, 62.552 63 C 63.546 63, 62.652 60.928, 59.756 56.521 C 57.415 52.957, 55.255 50.032, 54.955 50.021 C 54.656 50.009, 52.805 52.138, 50.842 54.750 M 63 67.118 C 63 67.733, 61.444 80.671, 59.543 95.868 C 56.271 122.022, 54.199 148.272, 55.664 145 C 56.033 144.175, 60.480 129.132, 65.546 111.570 L 74.757 79.641 70.385 72.820 C 66.481 66.730, 63 64.042, 63 67.118 M 76.165 76.657 L 83.500 87.500 84.066 77.500 C 84.377 72, 84.602 67.442, 84.566 67.372 C 84.529 67.301, 80.974 66.922, 76.665 66.528 L 68.830 65.813 76.165 76.657 M 78.012 85.499 C 77.993 87.095, 84.046 120.396, 84.556 121.500 C 84.810 122.050, 84.794 116.013, 84.520 108.085 C 84.039 94.144, 83.924 93.520, 81.023 89.085 C 79.373 86.563, 78.018 84.949, 78.012 85.499" stroke="none" fill="black" fill-rule="evenodd"/>
</svg>