<svg xmlns="http://www.w3.org/2000/svg" width="200" height="200" viewBox="0 0 200 200" version="1.1">
	<path d="M 32.989 35.750 C 24.040 51.563, 16.477 64.923, 16.182 65.441 C 15.887 65.959, 17.188 65.462, 19.073 64.337 C 42.097 50.602, 62.881 39.617, 68.187 38.379 C 71.543 37.596, 74.458 37.125, 74.665 37.332 C 74.872 37.538, 72.894 39.649, 70.270 42.022 C 67.647 44.395, 59.404 52.077, 51.953 59.094 C 44.503 66.110, 37.408 72.671, 36.188 73.675 C 34.527 75.042, 32.553 80.473, 28.327 95.302 L 22.685 115.103 27.475 131.302 C 30.109 140.211, 33.125 150.319, 34.177 153.765 L 36.090 160.031 49.151 166.576 C 56.335 170.176, 62.502 172.831, 62.856 172.477 C 63.210 172.123, 63.644 154.659, 63.820 133.667 C 64.094 101.131, 63.845 92.552, 62.135 75.519 C 61.032 64.529, 60.266 55.401, 60.432 55.235 C 61.060 54.606, 79.223 49.889, 79.592 50.259 C 79.805 50.472, 78.655 51.914, 77.038 53.464 L 74.096 56.282 92.298 69.264 C 102.309 76.405, 110.669 82.398, 110.875 82.582 C 111.082 82.766, 109.026 85.746, 106.306 89.203 C 100.759 96.256, 99.259 96.838, 86.375 96.942 C 77.527 97.014, 73 97.876, 73 99.489 C 73 100.209, 74.989 101.001, 77.750 101.379 C 80.362 101.737, 85.302 102.517, 88.727 103.113 L 94.954 104.197 88.477 112.492 C 84.915 117.055, 82 121.232, 82 121.775 C 82 122.318, 79.975 123.272, 77.500 123.896 C 74.695 124.602, 73 125.588, 73 126.514 C 73 127.681, 74.449 128.001, 79.750 128.006 L 86.500 128.013 98.418 143.005 C 104.973 151.251, 110.525 157.808, 110.757 157.577 C 110.988 157.345, 113.145 150.763, 115.550 142.950 C 117.954 135.137, 120.164 128.502, 120.461 128.206 C 121.983 126.684, 121.751 130.436, 119.111 150.078 C 117.528 161.860, 116.417 171.699, 116.641 171.942 C 117.053 172.387, 153.107 168.316, 153.443 167.786 C 153.543 167.629, 158.721 155.800, 164.949 141.500 C 171.177 127.200, 176.428 115.220, 176.617 114.877 C 176.806 114.534, 174.270 113.273, 170.981 112.073 C 167.691 110.874, 165 109.430, 165 108.865 C 165 108.300, 166.148 98.443, 167.552 86.960 L 170.103 66.082 162.982 42.941 C 159.065 30.213, 155.640 19.225, 155.371 18.523 C 155.081 17.769, 155.928 16.984, 157.440 16.604 C 158.848 16.251, 160 15.570, 160 15.090 C 160 14.030, 153.140 13.112, 152.766 14.122 C 152.475 14.906, 113.734 23.249, 110.500 23.224 C 109.400 23.215, 95.385 19.561, 79.355 15.104 C 63.326 10.647, 49.996 7, 49.735 7 C 49.473 7, 41.937 19.938, 32.989 35.750 M 40.257 28.250 C 34.623 38.287, 28.348 49.422, 26.312 52.992 C 22.894 58.988, 22.798 59.364, 25.055 57.910 C 26.400 57.044, 35.150 52.016, 44.500 46.736 L 61.500 37.137 83 31.948 C 94.825 29.095, 105.031 26.476, 105.680 26.129 C 106.541 25.669, 61.393 12.404, 51.633 10.250 C 51.010 10.112, 45.891 18.212, 40.257 28.250 M 135.750 21.937 C 127.638 23.896, 121 25.778, 121 26.120 C 121 26.461, 125.738 27.996, 131.530 29.531 C 141.445 32.159, 144.257 34.068, 139.296 34.803 C 138.170 34.970, 136.180 36.297, 134.874 37.753 L 132.500 40.399 135 38.888 C 136.375 38.058, 139.179 36.362, 141.232 35.119 C 143.284 33.876, 145.348 33.097, 145.819 33.388 C 146.666 33.912, 151.739 19.309, 150.924 18.695 C 150.691 18.519, 143.863 19.978, 135.750 21.937 M 146.159 44.905 C 139.026 67.667, 138.993 67.825, 140.722 70.839 C 142.694 74.274, 142.085 75.651, 139.263 74.141 C 137.543 73.220, 137.133 73.810, 135.093 80.142 C 133.849 84.005, 132.982 87.297, 133.166 87.458 C 133.350 87.619, 137.738 89.047, 142.919 90.631 C 148.099 92.215, 152.503 94.008, 152.705 94.615 C 153.154 95.963, 146.255 97, 136.836 97 C 129.391 97, 129.378 97.010, 127.655 104.140 C 127.069 106.566, 127.321 106.834, 130.758 107.444 C 140.141 109.106, 140.652 111.164, 132.134 112.972 C 124.511 114.589, 124.274 114.771, 122.610 120.302 C 121.271 124.748, 121.298 125, 123.098 125 C 125.473 125, 125.505 124.198, 122.148 148.750 L 119.380 169 122.440 168.916 C 124.123 168.869, 131.326 168.082, 138.446 167.166 L 151.392 165.500 162.137 141.058 C 168.046 127.615, 172.678 116.287, 172.429 115.885 C 172.180 115.482, 169.732 114.407, 166.988 113.496 C 164.245 112.585, 161.995 111.538, 161.988 111.170 C 161.981 110.801, 163.164 100.581, 164.616 88.458 L 167.257 66.416 160.545 44.458 C 156.853 32.381, 153.721 22.388, 153.584 22.251 C 153.448 22.115, 150.106 32.309, 146.159 44.905 M 111.123 27.943 C 108.824 28.513, 92.685 42.018, 93.421 42.755 C 93.622 42.955, 102.454 40.751, 113.050 37.856 C 127.176 33.998, 131.672 32.419, 129.907 31.938 C 128.583 31.577, 124.350 30.398, 120.500 29.318 C 116.650 28.237, 112.430 27.619, 111.123 27.943 M 90.519 32.838 L 79.538 35.544 84.639 38.683 L 89.740 41.821 96.120 35.958 C 99.629 32.733, 102.275 30.103, 102 30.113 C 101.725 30.123, 96.558 31.349, 90.519 32.838 M 115.500 39.930 C 106.150 42.525, 97.944 44.840, 97.265 45.074 C 96.586 45.308, 102.783 49.487, 111.036 54.359 L 126.041 63.218 128.209 60.462 L 130.376 57.706 133.592 61.536 L 136.807 65.366 141.368 50.980 C 143.876 43.068, 145.778 36.445, 145.594 36.261 C 145.410 36.077, 139.252 39.534, 131.909 43.943 C 123.056 49.258, 118.224 51.624, 117.564 50.964 C 116.904 50.304, 118.404 48.374, 122.016 45.235 C 130.389 37.956, 133.547 35.051, 133 35.135 C 132.725 35.176, 124.850 37.334, 115.500 39.930 M 71.500 44.652 C 67.069 48.750, 65.321 50.896, 66.737 50.499 C 67.968 50.155, 72.850 48.807, 77.587 47.504 C 82.323 46.201, 86.462 44.872, 86.783 44.551 C 87.507 43.826, 86.473 42.896, 82 40.249 L 78.500 38.179 71.500 44.652 M 83.192 51.493 C 80.284 54.278, 78.902 56.273, 79.557 56.743 C 80.138 57.159, 87.642 62.563, 96.231 68.750 C 104.820 74.938, 112.219 79.985, 112.674 79.967 C 114.196 79.905, 124.256 65.855, 123.372 65.024 C 120.149 61.996, 92.904 47, 90.625 47 C 88.740 47, 86.419 48.403, 83.192 51.493 M 46.912 67.371 L 36.323 77.189 31.162 95.401 C 28.323 105.418, 26 114.400, 26 115.361 C 26 116.322, 28.784 126.347, 32.187 137.639 L 38.373 158.170 49.170 163.585 C 55.108 166.563, 60.241 169, 60.577 169 C 61.732 169, 60.148 78.842, 58.803 68.027 L 57.500 57.553 46.912 67.371 M 129.406 63.152 C 128.718 64.265, 130.466 66.031, 134.381 68.179 C 135.795 68.955, 135.580 68.315, 133.513 65.605 C 130.436 61.571, 130.397 61.548, 129.406 63.152 M 121.250 73.954 C 118.362 77.742, 116 81.257, 116 81.764 C 116 83.263, 130.059 87.024, 130.548 85.655 C 131.734 82.328, 134.890 71.569, 134.710 71.467 C 134.594 71.401, 132.872 70.369, 130.882 69.174 C 128.892 67.978, 127.092 67.015, 126.882 67.033 C 126.672 67.052, 124.138 70.166, 121.250 73.954 M 109.722 89.250 C 103.872 96.537, 103.519 96.198, 116.154 95.427 C 122.394 95.046, 127.576 94.680, 127.669 94.615 C 127.762 94.549, 128.128 93.337, 128.484 91.921 C 129.104 89.450, 128.828 89.258, 121.651 87.173 C 117.538 85.978, 113.939 85, 113.653 85 C 113.368 85, 111.599 86.912, 109.722 89.250 M 131.432 92.215 C 131.094 93.280, 130.971 94.229, 131.159 94.325 C 131.346 94.421, 134.200 94.275, 137.500 94 L 143.500 93.500 137.773 91.890 C 132.245 90.336, 132.024 90.348, 131.432 92.215 M 105.826 98.724 C 101.840 99.145, 98.699 101.623, 101.137 102.424 C 105.200 103.759, 123.303 106.084, 123.958 105.355 C 124.381 104.885, 125.215 103.037, 125.811 101.250 L 126.896 98 118.198 98.168 C 113.414 98.261, 107.847 98.511, 105.826 98.724 M 90.500 100 C 90.139 100.583, 91.156 101, 92.941 101 C 94.623 101, 96.326 101.034, 96.725 101.075 C 97.124 101.116, 97.611 100.666, 97.808 100.075 C 98.265 98.704, 91.345 98.633, 90.500 100 M 91.295 113.250 C 87.924 117.787, 85.250 121.584, 85.354 121.687 C 85.457 121.790, 93.715 119.829, 103.705 117.329 C 115.992 114.254, 122.060 112.287, 122.458 111.249 C 122.782 110.404, 122.864 109.530, 122.639 109.306 C 122.162 108.829, 101.225 105.033, 98.962 105.013 C 98.117 105.006, 94.666 108.712, 91.295 113.250 M 125.500 111 C 124.769 112.183, 125.748 112.183, 128.500 111 C 130.428 110.171, 130.421 110.138, 128.309 110.070 C 127.104 110.032, 125.840 110.450, 125.500 111 M 103.500 120.097 C 95.250 122.257, 88.050 124.208, 87.500 124.433 C 86.950 124.658, 93.599 124.878, 102.275 124.921 C 119.746 125.008, 118.145 125.597, 120.434 118.250 C 121.329 115.376, 121.675 115.338, 103.500 120.097 M 91.179 129.750 C 91.998 130.713, 96.365 136.113, 100.883 141.750 C 105.402 147.387, 109.276 152, 109.494 152 C 109.880 152, 117 129.815, 117 128.610 C 117 128.275, 110.855 128, 103.345 128 C 90.440 128, 89.772 128.096, 91.179 129.750" stroke="none" fill="black" fill-rule="evenodd"/>
</svg>