<svg xmlns="http://www.w3.org/2000/svg" width="200" height="200" viewBox="0 0 200 200" version="1.1">
	<path d="M 101 16.196 L 54.500 24.186 36.757 34.093 C 26.998 39.542, 18.673 44.015, 18.257 44.033 C 16.960 44.090, 13 47.764, 13 48.910 C 13 50.258, 13.612 50.278, 15.985 49.008 C 17.674 48.104, 18.034 48.870, 20.028 57.622 L 22.216 67.228 28.373 61.126 L 34.529 55.024 47.279 64.665 C 54.291 69.967, 60.252 74.081, 60.525 73.808 C 60.798 73.535, 61.957 68.179, 63.101 61.906 C 64.245 55.633, 65.267 50.411, 65.372 50.302 C 65.477 50.193, 67.661 50.418, 70.225 50.802 C 74.726 51.476, 75.096 51.802, 80.944 60.246 C 84.275 65.057, 87 69.142, 87 69.325 C 87 69.508, 77.538 71.646, 65.974 74.077 C 49.953 77.444, 45.014 78.833, 45.224 79.913 C 45.414 80.890, 51.800 82.757, 65.750 85.915 L 85.999 90.500 93.250 97.830 L 100.500 105.161 85.500 104.527 C 70.902 103.909, 39.826 101.621, 29.252 100.384 L 24.004 99.770 24.512 102.635 C 24.792 104.211, 26.130 114.447, 27.486 125.383 L 29.952 145.267 33.863 148.615 C 36.015 150.457, 45.091 159.871, 54.033 169.536 C 62.975 179.201, 70.622 186.747, 71.027 186.304 C 71.431 185.862, 74.788 173.125, 78.488 158 C 82.187 142.875, 85.343 130.360, 85.502 130.188 C 85.660 130.017, 90.385 132.182, 96 135 C 101.615 137.818, 106.419 139.914, 106.676 139.658 C 106.932 139.402, 106.435 133.095, 105.571 125.644 C 103.372 106.680, 103.144 108, 108.619 108 L 113.237 108 110.563 111.506 C 109.093 113.434, 108.145 115.426, 108.459 115.933 C 108.772 116.440, 113.371 115.087, 118.679 112.927 C 123.988 110.767, 129.351 109, 130.598 109 C 133.214 109, 132.945 108.288, 136.966 125.875 L 140.025 139.250 134.577 145.375 C 131.580 148.744, 121.683 159.600, 112.582 169.500 C 97.661 185.732, 94.371 190, 96.782 190 C 97.654 190, 162.729 153.470, 164.553 151.956 C 165.972 150.778, 184.444 110.111, 183.836 109.503 C 183.597 109.263, 172.848 108.574, 159.951 107.970 C 147.053 107.366, 136.077 106.760, 135.561 106.623 C 135.044 106.486, 140.444 103.996, 147.561 101.090 C 154.677 98.183, 161.058 95.275, 161.741 94.626 C 163.812 92.657, 182.944 56.719, 182.395 55.829 C 182.113 55.373, 178.773 55, 174.972 55 C 168.923 55, 168.143 54.792, 168.705 53.326 C 169.208 52.015, 168.949 51.806, 167.506 52.359 C 164.735 53.423, 154 54.388, 154 53.574 C 154 53.183, 158.387 50.820, 163.750 48.323 C 169.113 45.826, 173.673 43.621, 173.884 43.424 C 174.095 43.226, 170.523 37.988, 165.945 31.782 C 161.024 25.111, 157.591 19.478, 157.545 18 C 157.491 16.259, 156.937 15.543, 155.720 15.641 C 154.729 15.721, 152.789 14.108, 151.237 11.912 C 149.731 9.784, 148.275 8.080, 148 8.125 C 147.725 8.170, 126.575 11.802, 101 16.196 M 100.775 19.044 L 55.050 26.883 39.497 35.581 C 30.944 40.365, 24.070 44.397, 24.223 44.542 C 24.375 44.686, 32.982 45.365, 43.349 46.050 C 59.096 47.091, 62.336 47.074, 63.033 45.946 C 64.476 43.612, 63.313 43.344, 56.033 44.329 C 49.114 45.266, 46.188 44.738, 48.925 43.047 C 49.676 42.582, 53.263 41.885, 56.896 41.497 C 63.867 40.753, 64.935 40.031, 65.025 36 L 65.081 33.500 67.791 36.580 L 70.500 39.660 93.106 36.535 L 115.713 33.410 133.350 25.455 C 143.051 21.080, 150.976 17.050, 150.961 16.500 C 150.933 15.476, 147.453 10.918, 146.840 11.102 C 146.653 11.158, 125.924 14.732, 100.775 19.044 M 134.967 27.612 C 127.010 31.193, 120.106 34.512, 119.624 34.987 C 118.735 35.865, 121.609 49.786, 122.996 51.319 C 123.404 51.769, 129.691 45.326, 136.967 37 C 144.243 28.675, 150.025 21.692, 149.815 21.482 C 149.605 21.272, 142.923 24.030, 134.967 27.612 M 141.126 36.259 L 127.834 51.500 137.576 52.385 L 147.317 53.271 158.409 47.896 C 164.509 44.939, 169.676 42.415, 169.891 42.286 C 170.205 42.097, 157.559 24.582, 155.071 21.759 C 154.712 21.351, 148.437 27.876, 141.126 36.259 M 106.750 40.360 C 98.915 43.949, 98 44.649, 98 47.055 L 98 49.742 108.081 50.457 C 113.625 50.850, 118.422 50.911, 118.741 50.592 C 119.352 49.982, 117.234 39.267, 116.139 37.426 C 115.726 36.731, 112.407 37.769, 106.750 40.360 M 87 40.058 C 80.125 41.080, 73.922 41.934, 73.215 41.958 C 72.277 41.989, 72.201 42.474, 72.931 43.750 C 75.444 48.140, 75.771 48.275, 85.394 48.896 L 95 49.517 95 46.212 C 95 43.203, 95.469 42.690, 100.250 40.464 C 104.900 38.299, 105.157 38.030, 102.500 38.110 C 100.850 38.160, 93.875 39.037, 87 40.058 M 66.688 43.646 C 66.309 44.024, 66 45.158, 66 46.167 C 66 47.553, 66.761 48, 69.122 48 C 72.112 48, 72.183 47.908, 70.786 45.805 C 69.167 43.365, 67.726 42.607, 66.688 43.646 M 21 48.209 C 21 50.634, 23.425 61, 23.992 61 C 24.317 61, 26.571 58.975, 29 56.500 C 31.429 54.025, 33.791 52, 34.249 52 C 34.707 52, 40.419 56.031, 46.943 60.957 L 58.804 69.914 60.583 60.471 C 61.561 55.277, 62.151 50.818, 61.894 50.561 C 61.637 50.303, 54.243 49.619, 45.463 49.040 C 36.683 48.462, 27.587 47.774, 25.250 47.513 C 22.400 47.195, 21 47.424, 21 48.209 M 83.947 59.843 C 87.396 64.879, 90.507 68.993, 90.859 68.985 C 92.930 68.935, 93.816 66.660, 94.454 59.750 L 95.171 52 90.335 51.989 C 87.676 51.983, 83.739 51.687, 81.587 51.332 L 77.675 50.686 83.947 59.843 M 97.750 53.548 C 97.338 53.980, 97 57.233, 97 60.778 L 97 67.223 100.750 66.533 C 112.815 64.315, 113.587 63.988, 117.327 59.514 C 119.347 57.096, 120.590 54.865, 120.089 54.555 C 118.561 53.610, 98.552 52.708, 97.750 53.548 M 124.303 55.653 C 123.039 58.946, 124.522 60.502, 128.747 60.315 C 133.113 60.121, 143.603 55.914, 141 55.400 C 135.811 54.376, 124.729 54.544, 124.303 55.653 M 147.350 59.429 C 141.768 60.671, 134.648 62.722, 131.528 63.989 C 126.540 66.013, 125.925 66.565, 126.427 68.565 C 126.741 69.816, 127.961 75.021, 129.137 80.131 L 131.276 89.422 140.149 79.961 C 158.079 60.840, 161.307 56.995, 159.353 57.086 C 158.334 57.133, 152.933 58.187, 147.350 59.429 M 152.516 70.692 C 145.429 78.286, 137.889 86.342, 135.761 88.593 L 131.892 92.686 133.094 97.593 C 133.754 100.292, 134.446 102.680, 134.630 102.899 C 135.092 103.449, 158.211 93.952, 159.713 92.596 C 160.818 91.597, 179.055 58.670, 178.667 58.374 C 178.575 58.304, 175.553 57.940, 171.951 57.565 L 165.402 56.884 152.516 70.692 M 119.569 60.923 C 117.660 63.033, 118.377 63.681, 120.872 62.100 C 121.626 61.622, 122.065 60.695, 121.846 60.039 C 121.590 59.269, 120.784 59.582, 119.569 60.923 M 117.354 65.692 C 115.236 66.106, 110.842 70.042, 112.595 69.955 C 113.093 69.930, 115.525 68.825, 118 67.500 C 122.287 65.205, 122.127 64.758, 117.354 65.692 M 101.542 69.128 C 96.730 70.255, 96.044 71.227, 95.984 77 L 95.937 81.500 93.941 78.828 C 92.844 77.358, 91.171 75.219, 90.223 74.075 L 88.500 71.995 71.250 75.687 C 61.762 77.717, 54.002 79.631, 54.004 79.939 C 54.007 80.248, 61.544 82.186, 70.754 84.246 L 87.500 87.991 95.895 96.504 C 103.935 104.657, 104.518 105.043, 109.704 105.653 C 114.986 106.274, 115.218 106.194, 119.145 102.395 C 121.358 100.253, 124.480 96.863, 126.081 94.861 L 128.992 91.222 126.332 79.861 C 124.870 73.613, 123.568 68.359, 123.440 68.187 C 123.312 68.015, 119.570 69.702, 115.126 71.937 C 110.681 74.172, 106.584 76, 106.022 76 C 104.316 76, 104.876 73.422, 107 71.500 C 110.846 68.019, 109.246 67.323, 101.542 69.128 M 92.500 72 C 92.840 72.550, 93.316 73, 93.559 73 C 93.802 73, 94 72.550, 94 72 C 94 71.450, 93.523 71, 92.941 71 C 92.359 71, 92.160 71.450, 92.500 72 M 124.669 100.354 L 119.845 106 124.673 105.985 C 131.811 105.962, 132.473 105.264, 130.841 99.486 L 129.492 94.709 124.669 100.354 M 29.941 123.241 L 32.500 143.579 40.062 151.039 C 44.220 155.143, 52.591 163.882, 58.663 170.460 L 69.703 182.420 76.601 154.160 L 83.500 125.899 93.840 130.963 L 104.180 136.026 103.609 132.263 C 103.295 130.193, 102.568 124.026, 101.993 118.557 C 101.418 113.089, 100.827 108.494, 100.679 108.346 C 100.531 108.198, 91.430 107.610, 80.455 107.039 C 62.103 106.084, 45.166 104.817, 32.441 103.448 L 27.381 102.904 29.941 123.241 M 114.872 110.664 C 113.646 112.151, 113.712 112.218, 115.500 111.299 C 116.600 110.733, 118.175 110.020, 119 109.714 C 120.030 109.332, 119.833 109.133, 118.372 109.079 C 117.202 109.036, 115.627 109.749, 114.872 110.664 M 136.355 111.589 C 136.680 112.640, 138.325 119.492, 140.009 126.816 L 143.072 140.132 128.298 156.316 C 120.172 165.217, 111.268 174.925, 108.512 177.888 C 103.752 183.006, 103.667 183.192, 106.817 181.578 C 114.762 177.509, 161.612 150.774, 162.692 149.693 C 163.348 149.037, 167.516 140.430, 171.955 130.567 C 177.998 117.141, 179.709 112.433, 178.763 111.833 C 178.068 111.391, 174.984 111.024, 171.909 111.015 C 168.834 111.007, 159.443 110.702, 151.040 110.339 C 136.304 109.701, 135.784 109.745, 136.355 111.589" stroke="none" fill="black" fill-rule="evenodd"/>
</svg>