<svg xmlns="http://www.w3.org/2000/svg" width="200" height="200" viewBox="0 0 200 200" version="1.1">
	<path d="M 67.250 18.763 C 37.497 26.381, 26 29.716, 26 30.730 C 26 32.022, 33.915 59.145, 34.476 59.778 C 34.612 59.931, 37.873 57.592, 41.723 54.579 L 48.724 49.102 51.549 52.051 L 54.374 55 49.929 55 L 45.484 55 30.858 84.272 L 16.232 113.544 24.944 125.522 L 33.657 137.500 43.075 163.750 C 48.483 178.823, 53.018 190, 53.727 190 C 55.433 190, 55.447 189.907, 59.538 149.500 C 61.543 129.700, 64.872 103.150, 66.935 90.500 L 70.686 67.500 66.093 62.621 L 61.500 57.743 64.875 58.371 C 66.731 58.717, 71.681 59.007, 75.875 59.015 C 86.156 59.036, 86.617 59.408, 84.658 66.091 C 83.798 69.026, 83.210 71.543, 83.352 71.685 C 83.494 71.827, 85.930 70.381, 88.766 68.472 C 91.601 66.562, 94.112 65, 94.344 65 C 94.577 65, 95.778 67.488, 97.012 70.530 C 99.061 75.578, 99.119 76.211, 97.685 77.796 C 96.820 78.751, 94.501 83.800, 92.531 89.016 C 90.561 94.232, 84.177 110.104, 78.344 124.286 C 72.511 138.468, 68.005 150.339, 68.331 150.665 C 68.657 150.991, 77.508 149.116, 88 146.500 C 98.492 143.884, 107.266 141.933, 107.498 142.164 C 107.730 142.396, 98.976 152.017, 88.045 163.543 C 74.995 177.303, 68.504 184.843, 69.142 185.500 C 69.787 186.163, 77.772 183.909, 92.807 178.822 L 115.500 171.144 148.750 175.383 C 167.037 177.715, 181.991 179.370, 181.980 179.061 C 181.969 178.753, 176.320 172.200, 169.427 164.500 C 158.173 151.929, 156.944 150.194, 157.384 147.500 C 158.961 137.856, 162.169 109.836, 161.745 109.412 C 161.468 109.135, 151.625 107.204, 139.871 105.120 C 128.013 103.019, 119.390 101.066, 120.500 100.735 C 121.600 100.406, 131.389 98.686, 142.254 96.912 L 162.007 93.686 162.955 90.093 C 163.476 88.117, 164.616 83.321, 165.489 79.435 L 167.076 72.371 160.917 54.435 C 157.530 44.571, 154.308 35.938, 153.757 35.250 C 153.206 34.563, 151.822 34, 150.681 34 C 148.835 34, 148.985 33.602, 152.054 30.368 C 155.356 26.888, 155.396 26.760, 153 27.301 C 142.814 29.601, 134.252 30.137, 128.534 28.831 L 122.568 27.469 117.034 17.764 C 113.768 12.037, 110.885 8.088, 110 8.130 C 109.175 8.170, 89.938 12.954, 67.250 18.763 M 69.025 21.150 C 47.313 26.632, 29.398 31.268, 29.214 31.452 C 28.739 31.927, 35.014 53.339, 35.900 54.266 C 36.980 55.396, 46.175 47.899, 45.588 46.368 C 45.273 45.548, 46.341 44.724, 48.485 44.132 C 51.165 43.392, 68.229 30.831, 78.122 22.318 C 79.576 21.066, 80.079 21.755, 82.990 28.975 C 84.775 33.404, 86.612 37.260, 87.072 37.545 C 87.532 37.829, 88.974 37.794, 90.278 37.466 C 92.251 36.971, 92.953 35.669, 94.471 29.686 C 95.474 25.734, 96.449 22.213, 96.636 21.863 C 96.824 21.513, 101.551 22.307, 107.141 23.628 C 112.730 24.949, 117.501 25.833, 117.742 25.592 C 118.311 25.022, 109.972 10.971, 109.136 11.091 C 108.786 11.141, 90.736 15.667, 69.025 21.150 M 98.041 27.393 C 97.540 28.710, 96.838 31.344, 96.481 33.248 L 95.832 36.710 107.666 34.790 C 122.658 32.357, 122.771 32.321, 120.928 30.572 C 119.736 29.441, 102.976 25, 99.900 25 C 99.378 25, 98.541 26.077, 98.041 27.393 M 67.308 34.267 C 61.702 38.767, 57.221 42.554, 57.350 42.683 C 57.577 42.911, 83.254 38.851, 83.748 38.509 C 84.211 38.188, 78.676 26, 78.086 26.043 C 77.764 26.066, 72.914 29.767, 67.308 34.267 M 144.500 32 C 144.160 32.550, 144.332 33, 144.882 33 C 145.432 33, 146.160 32.550, 146.500 32 C 146.840 31.450, 146.668 31, 146.118 31 C 145.568 31, 144.840 31.450, 144.500 32 M 130.250 33.723 C 126.614 34.175, 126.346 34.753, 128.468 37.559 C 129.276 38.626, 129.951 39.832, 129.968 40.238 C 129.986 40.645, 124.265 44.807, 117.256 49.488 L 104.512 58 109.006 58.014 C 111.478 58.021, 114.422 58.275, 115.549 58.578 C 117.151 59.008, 120.360 56.500, 130.237 47.094 L 142.876 35.060 139.188 34.035 C 137.160 33.472, 135.050 33.081, 134.500 33.166 C 133.950 33.251, 132.037 33.502, 130.250 33.723 M 107.565 37.379 L 94.630 39.503 93.294 44.502 C 91.509 51.181, 92.885 56.503, 96.641 57.446 C 98.813 57.991, 101.419 56.674, 111.765 49.802 C 118.640 45.236, 124.742 41.195, 125.326 40.822 C 126.969 39.771, 124.397 34.975, 122.271 35.127 C 121.297 35.197, 114.679 36.210, 107.565 37.379 M 133.696 47.401 L 121.892 58.800 132.582 59.529 L 143.272 60.257 142.636 67.780 C 142.286 71.917, 142 76.584, 142 78.151 C 142 80.074, 141.489 81, 140.429 81 C 139.094 81, 138.906 79.657, 139.179 72.073 L 139.500 63.145 136.625 62.573 C 135.044 62.258, 130.319 62.021, 126.125 62.046 L 118.500 62.093 110.605 69.411 L 102.711 76.729 107.105 87.858 C 109.522 93.979, 111.950 98.983, 112.500 98.978 C 114.943 98.957, 159.075 91.258, 159.565 90.768 C 159.866 90.467, 161.026 86.348, 162.141 81.616 L 164.170 73.011 158.460 55.755 C 155.320 46.265, 152.455 38.171, 152.094 37.769 C 151.733 37.367, 150.102 36.805, 148.469 36.520 C 145.781 36.052, 144.381 37.083, 133.696 47.401 M 88.775 40.558 C 88.021 41.312, 89.038 45, 90 45 C 90.422 45, 90.982 43.875, 91.245 42.500 C 91.685 40.195, 90.260 39.074, 88.775 40.558 M 67.817 43.860 C 59.191 45.312, 51.887 46.754, 51.585 47.065 C 51.283 47.376, 52.797 49.349, 54.949 51.451 L 58.862 55.271 72.651 56.115 C 80.494 56.595, 86.818 56.582, 87.316 56.084 C 89.416 53.984, 86.693 40.742, 84.237 41.110 C 83.831 41.171, 76.443 42.409, 67.817 43.860 M 33.661 84.667 C 26.147 99.705, 20 112.468, 20 113.028 C 20 113.588, 23.562 118.923, 27.915 124.884 C 35.616 135.428, 36.056 136.349, 44.165 158.874 C 49.696 174.237, 52.726 181.433, 53.172 180.263 C 53.542 179.293, 55.236 164.550, 56.938 147.500 C 58.639 130.450, 61.744 105.605, 63.837 92.289 L 67.642 68.078 62.571 63.149 C 58.113 58.817, 56.885 58.167, 52.411 57.773 L 47.321 57.324 33.661 84.667 M 88.476 62.075 C 88.114 63.217, 88.040 64.373, 88.311 64.645 C 89.110 65.443, 93 62.635, 93 61.259 C 93 59.156, 89.184 59.845, 88.476 62.075 M 98.240 62.250 C 97.545 63.114, 97.855 65.115, 99.243 68.729 L 101.252 73.957 103.876 72.060 C 105.319 71.016, 108.506 68.101, 110.958 65.581 L 115.416 61 107.331 61 C 102.065 61, 98.894 61.436, 98.240 62.250 M 99.210 80.247 C 98.619 80.959, 96.119 86.932, 93.654 93.521 C 91.189 100.109, 85.308 114.818, 80.586 126.208 C 75.864 137.597, 72 147.107, 72 147.341 C 72 147.576, 81.732 145.326, 93.626 142.343 C 105.521 139.360, 115.484 137.151, 115.768 137.434 C 116.051 137.718, 108.232 146.410, 98.391 156.750 C 88.551 167.091, 79.193 176.986, 77.597 178.740 L 74.693 181.930 94.811 175.242 L 114.930 168.554 142.215 171.898 C 157.222 173.738, 171.075 175.488, 173 175.788 L 176.500 176.333 168.055 166.916 C 163.410 161.737, 158.378 156.150, 156.873 154.500 L 154.137 151.500 156.655 131.669 C 158.039 120.762, 159.021 111.699, 158.836 111.528 C 158.029 110.782, 114.473 103.418, 114.230 103.986 C 114.082 104.334, 117.300 112.761, 121.382 122.712 C 130.420 144.746, 130.505 145.002, 128.817 144.993 C 127.162 144.984, 109.629 106.409, 110.385 104.439 C 110.689 103.647, 110.501 103, 109.969 103 C 109.436 103, 109 102.243, 109 101.318 C 109 99.966, 101.437 80.237, 100.531 79.226 C 100.396 79.075, 99.801 79.534, 99.210 80.247" stroke="none" fill="black" fill-rule="evenodd"/>
</svg>