<svg xmlns="http://www.w3.org/2000/svg" width="200" height="200" viewBox="0 0 200 200" version="1.1">
	<path d="M 80.145 20.166 L 76.789 25.295 74.796 22.148 C 73.700 20.416, 72.479 19, 72.082 19 C 71.686 19, 67.597 27.438, 62.995 37.750 C 58.394 48.063, 53.286 58.413, 51.645 60.750 L 48.661 65 39.115 65 L 29.568 65 35.034 70.559 L 40.500 76.118 31.225 94.309 C 23.503 109.452, 21.367 114.702, 18.475 125.640 C 14.811 139.494, 14.421 142, 15.929 142 C 16.870 142, 17.789 139.166, 22.442 121.906 C 24.237 115.247, 27.646 107.216, 33.583 95.656 C 38.288 86.495, 42.502 79, 42.946 79 C 44.969 79, 45.998 82.740, 48.833 100.390 L 51.868 119.280 41.934 131.079 C 32.597 142.168, 30.758 145, 32.892 145 C 33.382 145, 38.552 139.323, 44.382 132.385 C 52.393 122.848, 54.862 119.248, 54.498 117.635 C 54.232 116.461, 52.683 107.458, 51.054 97.630 C 49.212 86.516, 47.508 79.113, 46.546 78.051 C 44.432 75.715, 44.575 74.911, 47.750 71.275 L 50.500 68.126 67.961 68.813 L 85.423 69.500 86.237 73 C 86.685 74.925, 86.754 84.375, 86.391 94 C 86.028 103.625, 85.633 115.249, 85.513 119.830 L 85.296 128.161 73.577 141.644 C 64.372 152.233, 61.571 154.889, 60.524 154.020 C 59.596 153.249, 59.945 155.884, 61.678 162.706 C 63.045 168.091, 64.259 172.592, 64.375 172.708 C 64.491 172.824, 72.496 175.187, 82.164 177.959 L 99.742 183 119.213 183 L 138.685 183 147.098 173.750 C 151.726 168.662, 156.066 163.786, 156.743 162.913 C 157.751 161.614, 156.958 157.884, 152.390 142.413 C 149.318 132.011, 146.626 123.315, 146.409 123.090 C 146.191 122.864, 143.042 128.939, 139.411 136.590 C 135.780 144.240, 132.702 150.612, 132.573 150.749 C 132.067 151.281, 93.831 154.165, 93.372 153.705 C 93.103 153.437, 91.947 147.591, 90.802 140.714 L 88.721 128.211 111.512 101.855 C 124.048 87.360, 135.305 74.441, 136.529 73.146 L 138.754 70.791 145.127 82.646 L 151.500 94.500 154.037 115.500 C 155.433 127.050, 157.008 136.440, 157.537 136.367 C 158.067 136.293, 165.137 134.515, 173.250 132.414 C 184.338 129.543, 187.988 128.210, 187.952 127.047 C 187.926 126.196, 186.227 117.221, 184.177 107.103 L 180.450 88.706 163.136 78.991 C 153.613 73.648, 144.678 68.132, 143.280 66.735 L 140.738 64.193 138.619 66.625 C 136.743 68.778, 135.964 68.982, 131.827 68.403 C 126.276 67.626, 126.761 68.978, 124.379 47.674 C 123.406 38.970, 122.135 31.245, 121.555 30.508 C 120.498 29.166, 86.662 14.984, 84.598 15.018 C 83.994 15.028, 81.990 17.344, 80.145 20.166 M 82.110 22.165 C 80.400 24.491, 79 26.799, 79 27.295 C 79 27.790, 82.797 33.705, 87.438 40.439 L 95.876 52.682 108.688 57.964 C 115.735 60.869, 121.981 63.433, 122.570 63.661 C 123.269 63.932, 122.922 58.491, 121.570 47.956 L 119.500 31.836 104 25.417 C 95.475 21.887, 87.762 18.759, 86.860 18.467 C 85.749 18.107, 84.218 19.299, 82.110 22.165 M 71.170 26 C 70.632 27.375, 68.817 31.538, 67.137 35.250 C 65.458 38.962, 64.255 42, 64.465 42 C 64.793 42, 72.315 31.551, 74.257 28.397 C 74.630 27.791, 74.309 26.441, 73.543 25.397 C 72.202 23.572, 72.112 23.595, 71.170 26 M 67.750 42.463 C 62.938 49.300, 59 55.143, 59 55.447 C 59 55.751, 63.163 56.004, 68.250 56.009 C 73.338 56.013, 79.812 56.295, 82.638 56.635 L 87.776 57.252 88.402 61.972 L 89.028 66.693 101.764 67.342 C 108.769 67.700, 116.750 67.956, 119.500 67.912 L 124.500 67.831 120.500 66.010 C 118.300 65.009, 111.436 62.075, 105.246 59.491 L 93.992 54.793 85.448 42.397 C 80.749 35.579, 76.814 30.007, 76.702 30.016 C 76.591 30.025, 72.563 35.626, 67.750 42.463 M 54.356 61.600 C 52.907 63.500, 51.896 65.210, 52.111 65.401 C 52.325 65.592, 60.037 65.967, 69.250 66.234 L 86 66.721 86 63.329 C 86 61.464, 85.438 59.763, 84.750 59.550 C 84.063 59.337, 77.535 58.934, 70.245 58.654 L 56.991 58.145 54.356 61.600 M 39.502 71.002 C 42.461 74.091, 42.602 74.059, 45.069 69.750 C 45.962 68.189, 45.560 68, 41.348 68 L 36.626 68 39.502 71.002 M 146.530 79.615 C 149.711 85.602, 152.738 91.051, 153.257 91.723 C 153.776 92.396, 155.257 101.785, 156.548 112.587 C 157.839 123.390, 159.101 132.434, 159.353 132.686 C 159.745 133.078, 183.913 127.146, 184.828 126.432 C 185.641 125.799, 177.860 90.527, 176.748 89.807 C 176.062 89.362, 169.650 85.774, 162.500 81.834 C 155.350 77.894, 147.530 73.334, 145.123 71.700 L 140.746 68.729 146.530 79.615 M 89.315 76.250 C 89.641 79.688, 89.437 91.646, 88.861 102.824 C 88.286 114.002, 88.035 123.369, 88.305 123.638 C 88.574 123.908, 99.053 112.287, 111.590 97.814 L 134.386 71.500 121.443 70.864 C 114.324 70.514, 104.050 70.177, 98.611 70.114 L 88.722 70 89.315 76.250 M 139.725 142.520 C 134.957 152.100, 133.636 154, 131.746 154 C 130.500 154, 120.971 154.690, 110.570 155.534 C 97.484 156.595, 91.460 156.745, 91.011 156.019 C 90.655 155.441, 89.552 149.801, 88.562 143.485 C 87.571 137.168, 86.465 132, 86.103 132 C 85.742 132, 80.444 137.796, 74.331 144.880 L 63.217 157.760 64.874 163.812 C 65.785 167.140, 66.805 170.139, 67.142 170.475 C 67.478 170.812, 74.896 173.087, 83.627 175.532 L 99.500 179.977 118.593 179.989 L 137.685 180 146.398 170.526 L 155.111 161.052 150.890 146.776 C 148.569 138.924, 146.393 132.171, 146.055 131.770 C 145.717 131.368, 142.868 136.206, 139.725 142.520" stroke="none" fill="black" fill-rule="evenodd"/>
</svg>