<svg xmlns="http://www.w3.org/2000/svg" width="200" height="200" viewBox="0 0 200 200" version="1.1">
	<path d="M 57.515 8.975 C 56.838 10.071, 57.512 10.700, 77.731 27.841 L 91.686 39.673 100.843 40.924 C 105.879 41.613, 110 42.367, 110 42.601 C 110 43.608, 95.932 71, 95.415 71 C 94.905 71, 58.050 52.114, 57.122 51.378 C 56.914 51.213, 59.551 46.744, 62.982 41.449 C 71.756 27.905, 69.457 26.803, 60.421 40.221 C 56.615 45.875, 53.388 50.950, 53.251 51.500 C 53.114 52.050, 61.352 56.775, 71.558 62 C 81.764 67.225, 89.488 71.631, 88.723 71.791 C 87.959 71.952, 79.059 72.402, 68.946 72.791 L 50.559 73.500 39.762 90.318 C 33.824 99.567, 29.198 107.512, 29.483 107.973 C 29.768 108.433, 36.030 112.071, 43.400 116.056 L 56.799 123.302 57.970 129.252 C 58.614 132.525, 59.337 135.719, 59.578 136.351 C 59.819 136.983, 50.112 146.663, 38.008 157.863 C 25.903 169.062, 16 178.550, 16 178.946 C 16 181.049, 18.640 180.116, 34.832 172.297 C 57.861 161.175, 86.301 147.950, 86.526 148.258 C 86.624 148.391, 89.095 159.075, 92.017 172 C 94.939 184.925, 97.612 195.834, 97.958 196.243 C 98.303 196.652, 102.345 185.852, 106.940 172.243 C 114.484 149.899, 116.163 145.967, 124.255 131.691 C 129.184 122.997, 133.385 116.051, 133.591 116.257 C 133.797 116.463, 135.307 122.543, 136.947 129.767 L 139.929 142.903 135.451 157.605 C 132.989 165.691, 131.092 172.408, 131.237 172.531 C 131.527 172.779, 173.219 153.100, 173.963 152.364 C 174.498 151.836, 177.849 111.803, 177.940 104.866 L 178 100.232 156.987 105.503 C 138.624 110.110, 135.864 110.579, 135.106 109.224 C 134.379 107.925, 134.124 108.034, 133.533 109.895 C 133.043 111.440, 132.176 112.023, 130.688 111.808 C 128.969 111.561, 127.680 109.276, 124.144 100.213 C 121.723 94.005, 119.925 88.741, 120.150 88.517 C 120.375 88.292, 130.219 90.312, 142.027 93.006 C 153.835 95.700, 163.779 97.588, 164.126 97.202 C 164.704 96.558, 175 51.050, 175 49.138 C 175 48.678, 165.446 47.979, 153.769 47.586 C 142.092 47.193, 132.367 46.701, 132.159 46.492 C 131.950 46.283, 132.798 43.273, 134.043 39.802 L 136.306 33.491 131.484 22.067 L 126.662 10.644 123.113 17.822 C 121.160 21.770, 119.211 25, 118.782 25 C 118.352 25, 118 22.525, 118 19.500 C 118 15.591, 117.615 14, 116.670 14 C 115.740 14, 114.789 17.595, 113.507 25.955 C 112.498 32.531, 111.409 38.335, 111.087 38.854 C 110.730 39.427, 106.886 39.151, 101.278 38.149 L 92.057 36.500 76.832 23.500 C 58.469 7.820, 58.305 7.697, 57.515 8.975 M 122.662 24.725 L 119 31.950 119 49.975 C 119 61.701, 119.361 68, 120.032 68 C 120.600 68, 124.681 66.606, 129.100 64.901 C 133.520 63.197, 137.311 61.977, 137.524 62.191 C 137.738 62.405, 134.359 67.768, 130.015 74.109 L 122.118 85.638 140.309 89.770 C 150.314 92.043, 159.357 94.037, 160.404 94.201 C 162.107 94.468, 162.813 92.233, 167.091 73.020 C 169.722 61.206, 171.766 51.433, 171.635 51.301 C 171.503 51.170, 162.108 50.754, 150.756 50.376 C 139.405 49.999, 129.661 49.408, 129.103 49.064 C 128.463 48.668, 128.993 45.948, 130.545 41.673 C 131.895 37.953, 132.969 34.142, 132.932 33.205 C 132.895 32.267, 131.393 28.350, 129.594 24.500 L 126.324 17.500 122.662 24.725 M 106.648 55.882 C 101.822 65.297, 98.353 73, 98.937 73 C 100.795 73, 100.081 74.746, 98 75.290 C 96.900 75.577, 96 76.298, 96 76.892 C 96 77.535, 98.120 77.126, 101.250 75.878 C 104.138 74.728, 108.814 72.890, 111.642 71.796 L 116.784 69.805 116.310 55.152 C 116.049 47.094, 115.742 40.109, 115.628 39.632 C 115.515 39.155, 111.473 46.467, 106.648 55.882 M 125.500 69.175 C 122.750 70.256, 120.194 71.446, 119.819 71.820 C 119.445 72.194, 119.445 74.896, 119.819 77.823 L 120.500 83.147 125.824 75.481 C 128.752 71.264, 131.002 67.678, 130.824 67.512 C 130.646 67.346, 128.250 68.094, 125.500 69.175 M 104.719 77.322 L 93.938 81.500 83.915 101.133 C 72.949 122.612, 71.569 124.902, 70.332 123.665 C 69.874 123.207, 75.042 112.070, 81.816 98.916 L 94.131 75 86.724 75 C 82.650 75, 73.161 75.295, 65.638 75.656 L 51.959 76.312 42.480 91.083 C 37.266 99.207, 33.007 106.224, 33.015 106.677 C 33.023 107.130, 38.845 110.586, 45.952 114.357 L 58.873 121.214 60.876 129.857 C 62.754 137.965, 62.774 138.599, 61.189 140.104 C 60.260 140.987, 52.525 148.140, 44 156 C 35.475 163.860, 27.600 171.153, 26.500 172.206 C 25.400 173.259, 29.900 171.562, 36.500 168.436 C 71.347 151.931, 86.426 145, 87.485 145 C 88.197 145, 90.629 153.543, 93.648 166.651 L 98.634 188.303 105.912 166.901 C 112.159 148.531, 114.380 143.415, 121.595 130.777 C 126.218 122.679, 130 115.831, 130 115.558 C 130 115.286, 129.393 115.296, 128.651 115.580 C 127.705 115.944, 126.185 113.171, 123.565 106.299 C 121.509 100.910, 119.255 95.150, 118.554 93.500 C 115.022 85.178, 114.845 84.552, 115.920 84.193 C 117.120 83.793, 117.442 72.957, 116.250 73.072 C 115.838 73.112, 110.649 75.025, 104.719 77.322 M 155.500 108.603 C 146.150 111.045, 137.998 113.221, 137.384 113.439 C 136.622 113.709, 137.309 118.485, 139.551 128.507 C 141.974 139.335, 142.595 143.876, 141.925 145.839 C 141.425 147.303, 139.718 152.851, 138.131 158.169 L 135.247 167.837 142.373 164.533 C 172.139 150.731, 171.999 150.809, 172.013 148.087 C 172.020 146.664, 172.686 137.850, 173.493 128.500 C 175.323 107.276, 175.358 103.977, 173.750 104.081 C 173.063 104.126, 164.850 106.160, 155.500 108.603" stroke="none" fill="black" fill-rule="evenodd"/>
</svg>