<svg xmlns="http://www.w3.org/2000/svg" width="200" height="200" viewBox="0 0 200 200" version="1.1">
	<path d="M 52.324 19 C 30.074 64.992, 25.768 74.098, 26.119 74.415 C 26.328 74.604, 32.309 72.110, 39.409 68.872 C 46.509 65.634, 52.497 63.164, 52.716 63.383 C 52.934 63.601, 51.176 70.467, 48.809 78.640 C 45.032 91.677, 43.800 94.539, 38.769 101.967 C 35.063 107.437, 33.377 110.777, 34.003 111.403 C 34.630 112.030, 35.907 111.511, 37.611 109.937 C 39.986 107.742, 40.189 107.699, 39.647 109.500 C 31.675 136.009, 16.020 189.824, 16.012 190.750 C 15.977 194.420, 20.062 189.773, 35.384 168.710 L 52.268 145.500 52.079 134.165 C 51.903 123.664, 52.022 122.868, 53.694 123.348 C 54.687 123.633, 60.295 124.631, 66.155 125.564 L 76.809 127.262 79.444 136.758 C 80.893 141.981, 81.948 146.351, 81.789 146.468 C 81.630 146.585, 76.775 148.385, 71 150.469 C 65.225 152.552, 60.394 154.342, 60.265 154.447 C 59.780 154.839, 65.277 182.534, 65.997 183.324 C 66.573 183.956, 121.678 186.824, 136.106 186.973 L 138.711 187 141.356 167.723 C 142.810 157.121, 144 147.515, 144 146.377 C 144 144.422, 142.460 144.742, 116.306 152.126 C 101.074 156.426, 88.556 159.845, 88.487 159.722 C 88.419 159.600, 87.676 156.947, 86.836 153.827 L 85.310 148.154 103.654 141.430 L 121.997 134.707 132.749 136.434 L 143.500 138.162 161.730 156.301 C 172.914 167.429, 180.299 174.065, 180.838 173.470 C 181.706 172.510, 164.529 118.007, 163.041 117 C 162.634 116.725, 165.854 101.014, 170.195 82.087 C 175.597 58.538, 177.743 47.459, 176.994 46.996 C 176.392 46.624, 168.003 44.618, 158.353 42.539 L 140.807 38.758 109.930 39.168 L 79.054 39.579 73.881 26.289 C 71.036 18.980, 68.581 13, 68.425 13 C 68.269 13, 67.357 15.587, 66.398 18.750 L 64.654 24.500 63.304 17 C 60.340 0.535, 61.345 0.352, 52.324 19 M 44.831 40.538 C 37.312 56.192, 31.519 69, 31.956 69 C 32.393 69, 37.645 66.771, 43.626 64.046 L 54.500 59.092 58.684 45.060 L 62.867 31.028 61.222 21.514 C 60.317 16.281, 59.334 12.017, 59.038 12.038 C 58.742 12.058, 52.349 24.883, 44.831 40.538 M 67.003 26.490 C 65.831 30.674, 66.056 33.055, 69.480 52.795 C 71.551 64.733, 73.598 74.886, 74.029 75.357 C 74.461 75.828, 79.828 72.063, 85.957 66.991 C 92.086 61.918, 97.224 57.932, 97.374 58.134 C 97.524 58.335, 99.751 61.278, 102.323 64.674 C 104.896 68.070, 107 71.055, 107 71.307 C 107 71.560, 100.299 77.426, 92.108 84.343 L 77.217 96.918 78.586 104.103 C 79.339 108.055, 80.078 111.386, 80.227 111.506 C 80.377 111.626, 92.412 103.258, 106.971 92.911 C 123.989 80.817, 133.693 74.504, 134.145 75.235 C 134.587 75.950, 125.516 82.990, 109.674 94.225 C 95.828 104.045, 84.377 112.432, 84.226 112.862 C 84.075 113.292, 89.092 114.525, 95.375 115.602 L 106.798 117.560 123.149 98.618 C 132.142 88.200, 140.139 78.670, 140.920 77.440 C 142.189 75.440, 141.988 73.945, 139.021 63.351 C 135.120 49.420, 135.197 49.863, 136.591 49.345 C 137.240 49.104, 139.293 54.548, 141.662 62.791 L 145.642 76.643 132.256 92.071 C 124.895 100.557, 117.469 109.242, 115.756 111.371 L 112.640 115.242 135.765 114.843 C 148.483 114.624, 159.202 114.131, 159.585 113.749 C 160.422 112.912, 174.994 49.661, 174.471 49.138 C 174.270 48.936, 167.219 47.225, 158.802 45.334 L 143.500 41.897 110.378 42.006 L 77.256 42.115 73.548 32.807 C 71.509 27.688, 69.491 23.138, 69.065 22.695 C 68.639 22.253, 67.711 23.960, 67.003 26.490 M 59.780 51.012 L 56.203 63.066 58.256 69.381 L 60.309 75.695 53.036 86.243 C 49.036 92.045, 45.947 97.342, 46.172 98.015 C 46.513 99.040, 51.492 95.284, 70.902 79.359 C 71.465 78.897, 64.824 40.674, 64.017 39.729 C 63.654 39.305, 61.748 44.382, 59.780 51.012 M 85.395 70.988 L 74.302 79.990 75.262 85.745 C 75.790 88.910, 76.532 91.837, 76.911 92.250 C 77.741 93.154, 103.016 72.134, 102.962 70.585 C 102.942 69.988, 101.477 67.809, 99.707 65.743 L 96.489 61.986 85.395 70.988 M 52.227 76.603 C 51.044 80.896, 50.202 84.535, 50.356 84.690 C 50.991 85.324, 57 75.803, 57 74.162 C 57 73.183, 56.410 71.575, 55.689 70.589 C 54.528 69.002, 54.130 69.693, 52.227 76.603 M 60.500 91.242 C 54.450 96.200, 48.235 101.319, 46.688 102.616 C 44.205 104.699, 42.537 109.506, 32.446 143.662 C 26.159 164.940, 21.144 182.478, 21.302 182.635 C 21.460 182.793, 27.938 174.259, 35.697 163.670 L 49.806 144.417 49.268 133.873 C 48.735 123.442, 48.704 123.334, 46.365 123.781 C 41.336 124.742, 44.426 121.105, 58.937 108.980 C 75.204 95.389, 74.898 95.881, 72.654 86.863 L 71.500 82.226 60.500 91.242 M 62.697 109.203 C 56.205 114.716, 51.030 119.361, 51.197 119.525 C 51.364 119.689, 56.377 118.683, 62.338 117.289 L 73.177 114.756 72.543 111.378 C 71.870 107.788, 73.388 106.788, 75.819 109.219 C 76.777 110.177, 76.892 109.696, 76.354 106.969 C 74.665 98.387, 75.615 98.232, 62.697 109.203 M 77.006 116.750 C 77.009 117.162, 77.465 119.132, 78.019 121.128 C 78.835 124.066, 79.618 124.874, 82.138 125.378 C 88.354 126.621, 88.518 126.095, 83.500 121 C 78.834 116.262, 76.993 115.058, 77.006 116.750 M 87.401 121.115 C 92.785 127.118, 93.363 127.435, 100.635 128.375 L 105.771 129.038 107.283 125.269 C 108.388 122.514, 108.486 121.334, 107.647 120.881 C 107.016 120.541, 102 119.494, 96.500 118.554 C 91 117.615, 85.616 116.595, 84.536 116.288 C 83.195 115.906, 84.104 117.438, 87.401 121.115 M 66.675 119.061 C 62.920 120.027, 59.660 121.006, 59.430 121.237 C 59.200 121.467, 62.653 122.213, 67.105 122.895 C 71.557 123.576, 75.402 123.931, 75.650 123.683 C 75.898 123.435, 75.516 121.899, 74.800 120.269 L 73.500 117.305 66.675 119.061 M 124 118 C 117.125 118.327, 111.822 118.686, 112.214 118.797 C 112.607 118.909, 112.045 121.062, 110.964 123.583 C 109.884 126.104, 109 128.512, 109 128.935 C 109 129.358, 111.929 130.190, 115.508 130.783 L 122.017 131.861 141.247 124.858 C 151.824 121.007, 160.670 117.663, 160.906 117.428 C 161.443 116.890, 140.506 117.215, 124 118 M 144.780 126.412 C 126.762 132.972, 126.672 133.096, 138.852 134.561 L 144.500 135.240 160.859 151.370 C 169.856 160.241, 176.948 166.600, 176.618 165.500 C 176.288 164.400, 172.751 153.785, 168.759 141.912 L 161.500 120.324 144.780 126.412 M 80.234 129.250 C 80.481 129.938, 81.516 133.762, 82.534 137.750 C 83.552 141.738, 84.861 144.974, 85.443 144.942 C 86.024 144.909, 89.764 143.656, 93.753 142.157 L 101.006 139.431 96.144 134.642 C 92.948 131.494, 89.949 129.544, 87.391 128.950 C 81.939 127.686, 79.707 127.779, 80.234 129.250 M 99.281 133.688 C 101.623 136.057, 102.212 136.263, 103.015 135 C 104.518 132.634, 103.618 131.525, 99.923 131.188 L 96.500 130.876 99.281 133.688 M 106.178 134.508 C 105.530 135.931, 105 137.257, 105 137.455 C 105 137.654, 107.250 137.097, 110 136.217 C 115.337 134.510, 116.549 133, 112.582 133 C 111.252 133, 109.532 132.758, 108.760 132.461 C 107.904 132.133, 106.896 132.932, 106.178 134.508 M 114 155.565 C 99.975 159.610, 88.024 162.937, 87.443 162.959 C 86.861 162.982, 85.575 159.876, 84.585 156.057 L 82.784 149.114 73.198 152.584 C 67.926 154.492, 63.515 156.154, 63.396 156.277 C 63.120 156.561, 67.828 181.187, 68.213 181.472 C 69.146 182.161, 135.441 183.941, 136.010 183.292 C 136.570 182.654, 141.092 151.473, 141.020 148.750 C 140.993 147.727, 142.488 147.350, 114 155.565" stroke="none" fill="black" fill-rule="evenodd"/>
</svg>