<svg xmlns="http://www.w3.org/2000/svg" width="200" height="200" viewBox="0 0 200 200" version="1.1">
	<path d="M 30.903 36.282 C 22.875 51.252, 16.415 63.639, 16.546 63.809 C 16.678 63.979, 24.596 60.215, 34.143 55.444 C 49.805 47.616, 53.161 45.447, 68.500 33.232 C 77.850 25.787, 86.085 19.240, 86.800 18.683 C 88.113 17.662, 87.943 18.154, 81 35.500 C 79.239 39.900, 76.974 45.576, 75.967 48.114 L 74.136 52.728 81.439 57.827 C 87.965 62.383, 90 63.137, 90 61 C 90 60.633, 87.512 58.619, 84.472 56.525 C 81.431 54.431, 78.704 52.330, 78.411 51.856 C 78.118 51.382, 80.705 43.756, 84.160 34.908 C 87.614 26.060, 90.575 19.225, 90.739 19.718 C 90.904 20.211, 95.468 45.788, 100.882 76.557 L 110.726 132.500 100.247 150.813 C 94.342 161.133, 89.274 168.928, 88.635 168.672 C 77.543 164.244, 78.818 166.672, 76.991 146.500 C 75.274 127.550, 74.856 125, 73.465 125 C 72.744 125, 69.426 132.018, 65.844 141.119 L 59.500 157.237 48.500 166.617 C 42.450 171.776, 37.163 175.997, 36.750 175.998 C 36.337 175.999, 35.955 164.863, 35.901 151.250 C 35.847 137.637, 35.509 124.061, 35.151 121.079 L 34.500 115.658 27.183 113.224 C 21.469 111.322, 19.999 110.446, 20.469 109.221 C 21.566 106.362, 51.493 56.202, 51.882 56.570 C 52.092 56.768, 54.514 61.784, 57.264 67.715 L 62.264 78.500 64.435 102 L 66.607 125.500 75.280 108.218 C 80.050 98.713, 85.109 88.965, 86.521 86.555 C 88.260 83.587, 88.730 81.951, 87.978 81.486 C 87.367 81.109, 86.757 80.957, 86.624 81.150 C 84.598 84.066, 77.203 97.755, 73.470 105.500 C 70.372 111.927, 68.542 114.785, 68.347 113.500 C 68.181 112.400, 67.367 104.075, 66.540 95 L 65.035 78.500 58.843 64.750 C 55.438 57.187, 52.393 51, 52.076 51 C 51.015 51.001, 15.899 111.027, 16.443 111.908 C 16.739 112.387, 18.129 113.066, 19.531 113.418 C 20.934 113.771, 24.538 114.978, 27.541 116.101 L 33 118.144 33.099 141.822 C 33.154 154.845, 33.491 169.230, 33.849 173.789 L 34.500 182.077 48 170.594 L 61.500 159.111 66.966 145.306 L 72.433 131.500 73.083 136 C 73.440 138.475, 74.289 146.364, 74.970 153.532 L 76.208 166.564 83.045 169.377 C 86.806 170.925, 90.339 171.909, 90.897 171.564 C 91.454 171.219, 96.315 163.205, 101.698 153.754 C 107.082 144.303, 111.599 137.229, 111.736 138.035 C 116.298 164.776, 121.893 195.226, 122.322 195.656 C 122.634 195.967, 127.254 193.135, 132.590 189.361 L 142.291 182.500 152.143 157.528 L 161.995 132.555 168.516 125.984 L 175.037 119.413 164.768 110.569 C 159.121 105.705, 154.371 101.399, 154.212 100.999 C 154.054 100.600, 155.629 98.793, 157.712 96.984 C 159.796 95.174, 164.560 90.824, 168.301 87.317 L 175.102 80.939 167.301 73.620 C 163.010 69.594, 158.180 65.172, 156.566 63.793 L 153.632 61.286 165.875 53.084 L 178.119 44.881 175.809 43.109 C 167.321 36.596, 146.027 23.074, 135.731 17.659 L 123.500 11.227 88 10.099 C 68.475 9.479, 50.925 8.992, 49 9.018 L 45.500 9.064 30.903 36.282 M 35.094 34.448 C 28.442 46.795, 23 57.160, 23 57.481 C 23 57.802, 29.637 54.662, 37.750 50.503 C 50.725 43.851, 54.686 41.158, 70.670 28.116 L 88.840 13.291 79.170 12.651 C 73.851 12.299, 64.480 12.008, 58.344 12.005 L 47.187 12 35.094 34.448 M 100 13.494 C 100 13.676, 104.050 14.378, 109 15.054 L 118 16.284 117.910 26.392 C 117.861 31.951, 117.493 45.050, 117.092 55.500 C 116.475 71.627, 116.708 77.978, 118.637 97.500 L 120.909 120.500 117.454 126.322 C 115.554 129.524, 114 132.911, 114 133.850 C 114 135.965, 123.722 191.058, 124.173 191.499 C 124.353 191.674, 127.942 189.383, 132.149 186.406 L 139.798 180.995 149.471 156.747 C 158.995 132.876, 159.240 132.403, 165.283 126.261 C 169.112 122.368, 171.060 119.679, 170.461 119.111 C 169.932 118.610, 165.225 114.514, 160 110.010 C 154.775 105.505, 150.500 101.402, 150.500 100.893 C 150.500 100.383, 155 95.863, 160.500 90.849 C 166 85.835, 170.500 81.382, 170.500 80.955 C 170.500 80.527, 166 76.054, 160.500 71.014 C 155 65.974, 150.385 61.540, 150.245 61.160 C 150.105 60.780, 155.211 56.942, 161.592 52.631 C 167.973 48.320, 172.812 44.447, 172.347 44.024 C 168.708 40.717, 144.300 25.217, 135 20.309 L 123.500 14.239 111.750 13.702 C 105.287 13.406, 100 13.313, 100 13.494 M 93.324 17.945 C 93.598 19.350, 97.943 44.125, 102.980 73 C 108.018 101.875, 112.355 126.156, 112.618 126.957 C 112.933 127.918, 113.941 126.997, 115.579 124.250 L 118.062 120.087 115.955 99.793 C 114.188 82.777, 113.901 74.582, 114.174 49.043 L 114.500 18.586 103.664 16.988 L 92.828 15.389 93.324 17.945" stroke="none" fill="black" fill-rule="evenodd"/>
</svg>