<svg xmlns="http://www.w3.org/2000/svg" width="200" height="200" viewBox="0 0 200 200" version="1.1">
	<path d="M 39.265 23.267 C 33.674 33.762, 31.477 38.811, 32.200 39.500 C 32.900 40.167, 33.390 40.167, 33.669 39.500 C 36.290 33.241, 47.989 13.500, 49.076 13.500 C 50.784 13.500, 51.716 21.351, 51.868 37 L 51.970 47.500 29.500 56 C 16.810 60.800, 7.023 65.044, 7.015 65.750 C 7.007 66.438, 7.339 67, 7.754 67 C 8.169 67, 17.732 63.448, 29.004 59.107 C 40.277 54.765, 49.657 51.360, 49.849 51.539 C 50.041 51.718, 43.628 63.437, 35.599 77.581 C 27.570 91.725, 21 103.848, 21 104.520 C 21 105.192, 23.073 110.413, 25.607 116.121 C 29.974 125.958, 30.512 128.223, 35.918 159.500 C 40.186 184.190, 41.971 192.500, 43.006 192.500 C 43.947 192.500, 47.204 183.373, 53.177 164 L 61.964 135.500 61.982 105.250 C 61.996 81.708, 62.277 75.008, 63.250 75.034 C 63.938 75.053, 68.748 76.071, 73.940 77.296 L 83.380 79.523 87.548 103.927 L 91.716 128.331 82.858 142.565 C 77.986 150.394, 74 157.018, 74 157.287 C 74 157.555, 80.354 158.104, 88.120 158.506 C 95.887 158.908, 103.303 159.521, 104.600 159.869 C 106.619 160.409, 104.490 162.092, 89.892 171.500 C 80.504 177.550, 72.587 182.877, 72.299 183.337 C 70.717 185.862, 76.379 185.095, 105 178.905 L 136.500 172.092 159.750 172.046 C 172.537 172.021, 183 171.758, 183 171.461 C 183 171.165, 178.021 164.148, 171.936 155.869 L 160.872 140.815 166.936 120.552 L 173 100.290 173 73.573 L 173 46.856 167.750 47.452 C 158.754 48.472, 129.056 51.005, 127.234 50.907 C 126.280 50.855, 133.825 48.694, 144 46.105 L 162.500 41.396 162.814 37.062 C 162.987 34.678, 162.725 32.325, 162.232 31.832 C 161.392 30.992, 110.043 23.558, 109.522 24.202 C 109.389 24.366, 109.875 29.225, 110.603 35 C 112.626 51.068, 112.677 50.741, 107.977 52.006 C 105.764 52.602, 103.402 52.759, 102.727 52.356 C 98.859 50.044, 88.093 40.658, 88.519 39.970 C 88.796 39.520, 91.309 38.394, 94.102 37.466 C 96.894 36.539, 98.802 35.449, 98.340 35.046 C 96.920 33.806, 52.396 8, 51.676 8 C 51.304 8, 51 8.745, 51 9.655 C 51 11.189, 50.867 11.190, 49.190 9.672 C 47.471 8.117, 46.971 8.802, 39.265 23.267 M 54.168 12.878 C 54.420 13.537, 75.234 30.703, 83.663 37.203 C 84.799 38.080, 92.805 35.472, 91.865 34.531 C 90.532 33.199, 53.891 12.152, 54.168 12.878 M 54.227 32.301 C 54.519 40.985, 54.969 48.302, 55.227 48.560 C 55.870 49.204, 81.032 39.654, 80.736 38.879 C 80.606 38.537, 76.450 34.972, 71.500 30.956 C 66.550 26.941, 60.519 22.048, 58.098 20.083 L 53.696 16.510 54.227 32.301 M 113.779 38.216 C 114.560 44.422, 115.323 49.631, 115.475 49.792 C 115.626 49.952, 124.019 48.016, 134.125 45.491 C 162.834 38.315, 160.167 39.280, 159.811 36.195 L 159.500 33.500 140 30.823 C 129.275 29.350, 118.668 27.872, 116.429 27.538 L 112.358 26.931 113.779 38.216 M 68 47.153 L 52.500 53.103 38.250 78.374 C 30.412 92.273, 24 104.117, 24 104.693 C 24 105.270, 25.995 110.242, 28.434 115.742 C 32.523 124.965, 33.263 128.025, 37.961 155.121 C 40.763 171.279, 43.158 184.846, 43.284 185.269 C 43.410 185.691, 47.222 173.985, 51.756 159.253 L 60 132.470 60 101.869 L 60 71.268 72.742 74.210 C 79.750 75.827, 85.579 77.245, 85.694 77.360 C 86.085 77.752, 94 125.842, 94 127.830 C 94 128.918, 90.590 135.292, 86.423 141.994 C 82.255 148.696, 79.063 154.397, 79.329 154.662 C 79.595 154.928, 87.392 155.632, 96.656 156.226 C 105.920 156.820, 113.846 157.606, 114.269 157.972 C 114.693 158.339, 107.397 163.537, 98.056 169.523 C 88.716 175.509, 81.210 180.543, 81.377 180.711 C 81.545 180.878, 93.341 178.438, 107.591 175.289 L 133.500 169.564 155.664 169.032 L 177.827 168.500 167.914 155.030 C 162.461 147.621, 158.005 141.321, 158.012 141.030 C 158.018 140.738, 160.718 131.538, 164.012 120.585 L 170 100.671 170 75.327 L 170 49.983 164.750 50.538 C 161.863 50.844, 149.905 51.930, 138.178 52.952 C 126.451 53.974, 116.610 55.057, 116.308 55.359 C 116.006 55.661, 116.071 57.841, 116.453 60.204 C 116.947 63.268, 117.994 65.174, 120.101 66.849 L 123.055 69.198 122.400 65.099 C 121.308 58.272, 124.237 59.894, 127.461 67.902 C 129.958 74.106, 130.222 77.873, 128.065 76.540 C 127.408 76.134, 129.363 87.603, 131.510 96.750 C 132.010 98.880, 131.731 99.003, 126.269 99.050 L 120.500 99.099 131.325 109.444 C 137.905 115.732, 141.711 120.060, 141.031 120.481 C 139.786 121.250, 139.163 120.826, 130.250 113.143 L 124 107.756 124.030 111.628 C 124.046 113.758, 124.708 122.025, 125.500 130 C 127.292 148.038, 127.302 149, 125.693 149 C 124.733 149, 123.645 142.704, 121.589 125.250 C 119.202 104.986, 118.487 101.170, 116.721 99.250 C 114.930 97.303, 114.877 97, 116.326 97 C 117.247 97, 118 96.756, 118 96.458 C 118 95.054, 114.878 69.248, 114.485 67.401 C 114.127 65.721, 84.942 40.710, 83.796 41.101 C 83.633 41.156, 76.525 43.880, 68 47.153 M 108 55.927 C 108 56.854, 113.074 61.264, 113.564 60.764 C 113.707 60.619, 113.586 59.263, 113.295 57.750 C 112.895 55.667, 112.189 55, 110.383 55 C 109.073 55, 108 55.417, 108 55.927 M 119.177 82.332 C 120.142 90.124, 120.947 96.612, 120.966 96.750 C 120.985 96.888, 122.575 97, 124.500 97 C 128.731 97, 128.747 96.853, 126.004 83.522 C 123.725 72.442, 123.857 72.747, 120.180 70.128 L 117.421 68.164 119.177 82.332" stroke="none" fill="black" fill-rule="evenodd"/>
</svg>