<svg xmlns="http://www.w3.org/2000/svg" width="200" height="200" viewBox="0 0 200 200" version="1.1">
	<path d="M 50.046 24.165 C 36.167 34.155, 24.613 42.844, 24.372 43.474 C 23.898 44.708, 34.034 62.950, 35.212 62.981 C 35.603 62.992, 45.160 54.974, 56.449 45.164 C 76.190 28.010, 77.188 27.292, 82.537 26.414 C 85.595 25.911, 87.963 25.050, 87.799 24.500 C 87.461 23.371, 79.945 23.680, 76.658 24.959 C 74.952 25.622, 59.067 39.019, 37.734 57.785 C 35.647 59.621, 35.196 59.154, 30.111 49.905 L 26.957 44.168 50.229 27.413 C 63.028 18.197, 74.029 10.257, 74.676 9.768 C 75.430 9.198, 83.677 12.061, 97.658 17.747 L 119.464 26.615 120.113 30.557 C 120.470 32.726, 121.316 39.112, 121.993 44.750 C 122.671 50.388, 123.512 54.989, 123.862 54.975 C 124.213 54.962, 130.964 46.187, 138.865 35.475 C 146.766 24.764, 153.516 16.009, 153.865 16.021 C 154.214 16.032, 157.831 23.570, 161.901 32.771 C 169.189 49.243, 169.318 49.681, 170.295 61.273 C 170.841 67.748, 171.013 73.320, 170.678 73.656 C 170.342 73.991, 161.669 72.164, 151.404 69.596 C 141.139 67.027, 132.590 65.077, 132.405 65.261 C 131.974 65.692, 136.661 96.644, 137.318 97.703 C 137.590 98.141, 144.604 100.975, 152.905 104 C 161.206 107.025, 167.999 109.747, 167.999 110.050 C 168 110.352, 163.162 112.791, 157.250 115.471 C 151.338 118.150, 146.129 120.659, 145.675 121.046 C 145.222 121.433, 147.370 129.568, 150.450 139.125 L 156.048 156.500 166.774 167.276 L 177.500 178.052 170.500 177.467 C 166.650 177.145, 154.066 176.271, 142.536 175.524 L 121.572 174.167 115.518 167.833 C 112.188 164.350, 105.831 157.573, 101.391 152.773 L 93.318 144.046 82.231 159.273 C 76.134 167.648, 70.475 175.399, 69.656 176.497 C 68.292 178.325, 68.236 178.114, 68.990 173.997 C 69.444 171.524, 71.718 159.150, 74.044 146.500 L 78.273 123.500 87.348 107.012 C 95.855 91.555, 96.463 90.719, 97.062 93.646 C 97.413 95.364, 99.205 107.846, 101.045 121.385 C 102.885 134.923, 104.640 145.996, 104.945 145.991 C 105.250 145.987, 108.736 139.124, 112.691 130.741 L 119.882 115.500 118.032 85.174 C 117.015 68.495, 115.964 54.631, 115.697 54.364 C 115.431 54.097, 107.204 59.618, 97.415 66.631 L 79.618 79.383 71.741 76.593 C 67.409 75.058, 63.722 73.960, 63.548 74.151 C 62.225 75.612, 59.588 117.102, 59.095 144.229 L 58.500 176.957 48 168.008 C 38.913 160.263, 37.415 158.549, 36.865 155.279 C 36.516 153.201, 35.901 141.863, 35.499 130.084 C 34.792 109.400, 34.669 108.448, 31.883 102.239 C 30.297 98.704, 29.301 95.291, 29.671 94.655 C 30.658 92.958, 56.151 55.625, 56.897 54.784 C 57.247 54.390, 65.513 53.074, 75.266 51.860 C 88.223 50.248, 93 49.296, 93 48.327 C 93 46.692, 94.061 46.640, 73.131 49.297 L 55.762 51.501 40.796 73.366 L 25.830 95.230 28.856 102.365 C 31.808 109.327, 31.908 110.105, 33 134.500 C 33.745 151.157, 34.516 159.889, 35.309 160.667 C 39.090 164.372, 60.446 182, 61.154 182 C 61.619 182, 62.019 167.713, 62.042 150.250 C 62.083 120.114, 64.422 80.244, 66.258 78.409 C 66.630 78.036, 69.641 78.744, 72.948 79.980 C 76.255 81.217, 79.566 81.997, 80.306 81.713 C 81.047 81.429, 88.723 76.144, 97.365 69.970 C 106.006 63.795, 113.228 58.914, 113.414 59.122 C 113.599 59.330, 114.484 72.202, 115.381 87.726 L 117.012 115.951 111.767 126.498 C 107.485 135.108, 106.413 136.627, 105.926 134.772 C 105.598 133.522, 103.793 121.363, 101.915 107.752 C 100.037 94.140, 98.250 83.003, 97.944 83.002 C 97.639 83.001, 92.504 91.888, 86.533 102.750 L 75.678 122.500 70.002 153.246 C 66.880 170.157, 64.553 184.219, 64.830 184.496 C 66.082 185.749, 67.577 184.040, 78.608 168.750 C 95.280 145.639, 92.507 147.043, 101.707 157.055 C 105.975 161.700, 111.950 168.078, 114.984 171.228 L 120.500 176.957 151.914 178.981 C 169.192 180.094, 183.481 180.853, 183.667 180.667 C 183.852 180.481, 178.226 174.612, 171.165 167.625 L 158.325 154.920 153.564 139.786 C 150.946 131.462, 148.630 124.167, 148.418 123.576 C 148.206 122.984, 154.087 119.800, 161.488 116.500 C 168.888 113.200, 174.955 110.217, 174.971 109.871 C 174.994 109.380, 155.820 101.994, 141.500 96.977 C 139.782 96.375, 139.211 94.352, 137.450 82.638 C 135.632 70.538, 135.575 69.002, 136.950 69.013 C 137.803 69.021, 146.374 71.046, 155.997 73.513 C 165.621 75.981, 173.745 78, 174.051 78 C 174.356 78, 174.030 71.508, 173.325 63.572 L 172.043 49.145 163.926 30.822 C 159.462 20.745, 155.491 11.927, 155.102 11.228 C 154.649 10.411, 149.424 16.683, 140.522 28.728 C 132.892 39.052, 126.333 47.873, 125.946 48.328 C 125.560 48.783, 124.714 44.508, 124.066 38.828 C 123.417 33.148, 122.508 27.567, 122.045 26.427 C 121.421 24.887, 115.381 21.988, 98.610 15.177 C 86.184 10.129, 75.851 6, 75.649 6 C 75.446 6, 63.925 14.174, 50.046 24.165" stroke="none" fill="black" fill-rule="evenodd"/>
</svg>