<svg xmlns="http://www.w3.org/2000/svg" width="200" height="200" viewBox="0 0 200 200" version="1.1">
	<path d="M 73.583 17.729 L 61.667 26.314 59.583 23.856 C 58.438 22.504, 56.345 19.881, 54.932 18.027 C 51.758 13.861, 48.896 14.587, 51.806 18.820 C 52.819 20.294, 54.640 23.149, 55.852 25.164 L 58.056 28.827 47.375 36.334 L 36.695 43.842 33.347 41.171 C 31.506 39.702, 29.688 38.592, 29.306 38.704 C 28.741 38.870, 20.164 72.686, 20.037 75.250 C 20.017 75.662, 20.610 76, 21.355 76 C 22.101 76, 23.113 74.604, 23.605 72.898 C 24.316 70.435, 25.462 69.431, 29.171 68.025 L 33.842 66.253 34.428 74.377 C 35.342 87.046, 36.866 129.522, 37.582 162.333 C 37.940 178.742, 38.572 191.792, 38.986 191.333 C 39.400 190.875, 45.728 179.045, 53.048 165.044 L 66.357 139.588 63.614 103.692 C 62.106 83.948, 61.041 67.625, 61.248 67.418 C 61.455 67.211, 67.374 71.593, 74.400 77.155 L 87.176 87.268 86.576 93.884 C 86.246 97.523, 85.306 110.400, 84.488 122.500 C 83.669 134.600, 82.775 146.152, 82.501 148.171 C 82.007 151.800, 82.125 151.943, 92.751 160.591 C 98.663 165.404, 104.235 169.961, 105.133 170.719 C 106.584 171.945, 108.413 170.240, 121.633 155.333 L 136.500 138.568 139.186 163.034 C 140.664 176.490, 141.901 188.152, 141.936 188.950 C 142.039 191.297, 142.960 189.910, 160.407 161.112 C 170.584 144.314, 177.003 132.713, 177.007 131.112 C 177.015 128.084, 172.141 82.551, 171.466 79.353 C 171.148 77.845, 169.522 76.669, 166.007 75.405 C 163.253 74.415, 161 73.278, 161 72.879 C 161 72.480, 162.042 70.881, 163.316 69.327 C 164.590 67.772, 166.849 64.871, 168.335 62.881 L 171.038 59.262 159.031 54.381 C 152.427 51.696, 147.019 49.254, 147.012 48.954 C 147.005 48.654, 154.425 45.074, 163.500 41 C 172.575 36.926, 180 33.319, 180 32.986 C 180 32.653, 171.563 29.408, 161.250 25.775 C 144.550 19.891, 139.473 18.613, 114.815 14.085 C 99.589 11.288, 86.764 9.032, 86.315 9.072 C 85.867 9.112, 80.138 13.007, 73.583 17.729 M 74.982 20.118 C 68.667 24.583, 63.417 28.304, 63.315 28.387 C 63.065 28.589, 76.967 47, 77.370 47 C 78.070 47, 89.107 43.052, 90.069 42.457 C 90.697 42.069, 90.074 40.475, 88.474 38.378 L 85.849 34.935 97.674 35.218 C 111.919 35.558, 113.211 36.972, 102.769 40.797 L 96.039 43.262 100.019 48.262 L 104 53.261 104 63.802 C 104 72.050, 103.653 74.726, 102.404 76.106 C 100.940 77.724, 100.956 78.066, 102.608 80.256 C 104.293 82.490, 105.922 82.822, 127.954 85.431 C 157.928 88.981, 158 88.994, 158 90.634 C 158 92.011, 147.164 91.971, 119.750 90.493 C 114.938 90.234, 111 90.289, 111 90.616 C 111 91.355, 128.135 114, 128.694 114 C 128.918 114, 128.965 111.910, 128.800 109.355 C 128.635 106.800, 128.955 104.549, 129.511 104.351 C 131.003 103.822, 149.346 141.054, 148.171 142.229 C 147.562 142.838, 144.416 139.491, 139.508 133.010 C 132.636 123.937, 129.572 121.055, 111.214 106.404 C 99.891 97.367, 90.329 90.317, 89.965 90.737 C 89.601 91.156, 88.537 102.975, 87.601 117 C 86.665 131.025, 85.656 144.347, 85.358 146.604 L 84.817 150.708 95.407 159.354 C 101.231 164.109, 106.172 168, 106.386 168 C 106.600 168, 113.637 160.238, 122.023 150.750 C 130.410 141.262, 137.591 133.373, 137.981 133.218 C 138.372 133.063, 139.704 142.738, 140.943 154.718 C 142.181 166.698, 143.489 177.746, 143.850 179.268 C 144.441 181.756, 146.028 179.529, 159.579 157.203 L 174.652 132.370 171.879 107.935 C 170.353 94.496, 169.082 82.548, 169.053 81.384 C 169.011 79.724, 167.707 78.797, 163 77.080 C 159.700 75.877, 157 74.457, 157 73.925 C 157 73.393, 159.220 70.132, 161.934 66.678 L 166.869 60.400 153.434 55.011 C 146.045 52.047, 140.011 49.369, 140.025 49.061 C 140.039 48.752, 147.481 45.164, 156.562 41.086 C 165.643 37.009, 172.719 33.357, 172.286 32.972 C 171.854 32.587, 165.182 30, 157.461 27.224 C 145.866 23.055, 138.610 21.290, 115.783 17.088 C 100.582 14.290, 87.767 12, 87.305 12 C 86.842 12, 81.297 15.653, 74.982 20.118 M 49.502 38.099 C 44.017 41.971, 39.413 45.254, 39.271 45.395 C 38.835 45.831, 51.868 56, 52.862 56 C 53.376 56, 57.651 54.596, 62.362 52.880 L 70.927 49.760 69.505 47.130 C 68.723 45.683, 66.147 41.476, 63.780 37.779 L 59.477 31.059 49.502 38.099 M 93.101 39.529 C 94.463 40.891, 95.006 40.896, 98.065 39.569 L 101.500 38.078 96.536 38.039 C 92.081 38.004, 91.728 38.157, 93.101 39.529 M 27.786 54.250 C 26.362 60.438, 25.334 65.644, 25.501 65.819 C 25.668 65.995, 27.684 65.576, 29.981 64.888 L 34.157 63.636 33.692 54.407 C 32.920 39.053, 31.293 39.009, 27.786 54.250 M 72 46 C 72.589 47.100, 73.295 48, 73.570 48 C 73.845 48, 73.589 47.100, 73 46 C 72.411 44.900, 71.705 44, 71.430 44 C 71.155 44, 71.411 44.900, 72 46 M 84.801 47.348 L 79.103 49.554 88.629 62.027 C 93.868 68.887, 98.570 74.650, 99.077 74.833 C 100.423 75.320, 100.790 73.498, 101.311 63.742 L 101.780 54.985 97.805 49.992 C 95.619 47.247, 93.081 45.032, 92.165 45.070 C 91.249 45.109, 87.936 46.134, 84.801 47.348 M 36.222 53.863 C 36.506 57.828, 36.957 61.290, 37.224 61.557 C 37.491 61.824, 40.319 61.044, 43.509 59.824 L 49.307 57.605 45.404 54.210 C 43.257 52.343, 40.196 49.879, 38.603 48.735 L 35.707 46.655 36.222 53.863 M 76.396 52.590 C 77.462 55.367, 75.826 56.421, 74.069 54.091 L 72.423 51.910 63.486 55.312 L 54.548 58.715 57.524 60.221 C 59.161 61.049, 65 63.199, 70.500 65 C 81.816 68.703, 81.737 68.663, 80.335 70.065 C 79.626 70.774, 77.185 70.300, 72.532 68.548 C 68.809 67.147, 65.544 66, 65.278 66 C 65.012 66, 69.453 69.779, 75.147 74.397 L 85.500 82.794 90 80.264 C 92.475 78.872, 94.871 77.401, 95.323 76.994 C 96.057 76.334, 77.496 51, 76.279 51 C 76.008 51, 76.061 51.716, 76.396 52.590 M 44.186 62.449 C 40.713 63.739, 37.629 65.038, 37.331 65.335 C 37.034 65.633, 37.310 76.817, 37.945 90.188 C 38.580 103.560, 39.450 129.235, 39.878 147.244 C 40.306 165.254, 40.861 180.194, 41.112 180.445 C 41.362 180.696, 46.519 171.500, 52.572 160.011 L 63.576 139.120 60.749 101.810 C 57.946 64.823, 57.900 64.481, 55.405 62.250 C 52.343 59.513, 52.080 59.517, 44.186 62.449 M 96.244 79.664 C 94.484 80.374, 95.726 82, 98.028 82 C 99.314 82, 99.749 81.511, 99.362 80.500 C 98.762 78.937, 98.334 78.822, 96.244 79.664 M 88.432 84.925 C 89.987 86.643, 91.497 87, 97.214 87 C 105.457 87, 105.470 85.412, 97.234 84.517 C 94.080 84.175, 90.387 83.660, 89.027 83.372 C 86.583 82.856, 86.576 82.874, 88.432 84.925 M 108.500 87 C 109.600 87.473, 113.200 87.831, 116.500 87.796 L 122.500 87.733 117.500 86.954 C 114.750 86.526, 111.150 86.167, 109.500 86.158 C 106.948 86.143, 106.799 86.269, 108.500 87 M 96 90.391 C 96 90.606, 100.388 94.289, 105.750 98.577 C 111.112 102.864, 117.504 107.975, 119.954 109.936 C 124.819 113.829, 124.820 113.829, 114.128 99.725 L 106.756 90 101.378 90 C 98.420 90, 96 90.176, 96 90.391 M 132 116.136 C 132 118.237, 137.324 127, 138.601 127 C 138.999 127, 133.222 115.002, 132.381 114.083 C 132.172 113.854, 132 114.778, 132 116.136" stroke="none" fill="black" fill-rule="evenodd"/>
</svg>