<svg xmlns="http://www.w3.org/2000/svg" width="200" height="200" viewBox="0 0 200 200" version="1.1">
	<path d="M 145.942 33.551 L 128.390 51.103 115.641 45.542 C 108.629 42.484, 101.318 39.324, 99.394 38.520 L 95.897 37.059 98.136 34.029 L 100.376 31 118.188 31 C 132.982 31, 136 30.757, 136 29.567 C 136 27.744, 135.372 27.578, 118.194 24.845 L 103.887 22.570 101.371 25.785 L 98.855 29 83.928 29 C 71.325 29, 69 29.234, 69 30.500 C 69 31.699, 70.491 32, 76.418 32 L 83.835 32 76.418 48.453 C 72.338 57.502, 69 65.377, 69 65.953 C 69 68.922, 72.544 65.581, 82.752 52.986 L 94.005 39.104 97.752 40.657 C 99.814 41.511, 101.657 42.357, 101.849 42.537 C 102.041 42.717, 99.877 49.133, 97.041 56.795 L 91.884 70.725 76.192 72.838 C 67.561 74, 57.913 75.248, 54.750 75.613 C 51.588 75.977, 49.017 76.551, 49.038 76.888 C 49.058 77.224, 55.576 80.612, 63.522 84.416 C 74.658 89.747, 77.728 91.623, 76.918 92.599 C 76.138 93.538, 76.547 94.312, 78.498 95.591 C 81.065 97.272, 81.084 97.361, 79.267 99.177 C 77.343 101.101, 39.057 113.390, 38.068 112.402 C 37.765 112.098, 37.351 97.556, 37.148 80.085 L 36.780 48.320 46.513 34.083 C 53.113 24.430, 55.919 19.519, 55.229 18.829 C 54.539 18.139, 50.970 22.591, 44.143 32.656 L 34.074 47.500 34.172 66.500 C 34.226 76.950, 34.547 92.518, 34.885 101.095 L 35.500 116.690 54.375 110.937 L 73.251 105.183 67.910 110.592 C 64.150 114.398, 61.793 116, 59.951 116 C 56.597 116, 55.698 116.931, 57.248 118.798 C 58.281 120.044, 53.789 124.898, 29.165 149.143 C 8.146 169.839, 0.288 178.173, 1.395 178.598 C 2.789 179.133, 15.411 172.930, 43.598 157.856 L 52.697 152.991 68.460 173.495 C 77.130 184.773, 84.764 194, 85.424 194 C 86.343 194, 140.112 175.076, 152.807 170.284 C 154.891 169.498, 153.968 168.673, 143.307 161.791 C 136.813 157.598, 130.375 153.696, 129 153.120 C 127.625 152.543, 117.275 150.020, 106 147.512 L 85.500 142.952 74.044 131.515 C 67.744 125.225, 62.804 119.863, 63.067 119.600 C 63.330 119.337, 70.330 118.806, 78.623 118.419 L 93.701 117.717 94.600 126.793 L 95.500 135.869 108.822 128.570 L 122.144 121.272 119.322 119.088 L 116.500 116.904 123 117.261 C 126.741 117.467, 131.410 118.495, 134 119.683 C 138.435 121.718, 138.681 122.097, 150.996 145.874 C 157.869 159.143, 163.719 169.985, 163.996 169.967 C 164.612 169.926, 188.307 139.580, 188.742 138.274 C 188.913 137.761, 178.177 133.327, 164.884 128.421 C 142.479 120.151, 140.569 119.255, 138.696 116.143 C 136.733 112.880, 136.538 112.804, 131.782 113.434 C 127.554 113.995, 125.331 113.501, 115.422 109.799 C 109.116 107.443, 104.329 105.390, 104.786 105.238 C 105.242 105.086, 114.283 106.320, 124.877 107.981 C 135.471 109.641, 144.942 111, 145.922 111 C 147.110 111, 151.372 105.571, 158.680 94.750 L 169.655 78.500 167.133 47.250 C 165.745 30.063, 164.359 16, 164.052 16 C 163.744 16, 155.595 23.898, 145.942 33.551 M 146.080 37.083 L 130.660 51.931 137.556 55.025 C 145.481 58.581, 145.408 58.530, 144.565 59.895 C 144.160 60.549, 140.966 59.831, 135.785 57.921 L 127.641 54.918 121.820 60.678 C 118.619 63.846, 116 66.698, 116 67.016 C 116 67.334, 121.963 66.799, 129.250 65.827 C 150.389 63.008, 149.422 61.307, 137.730 80.750 C 132.191 89.963, 127.523 97.675, 127.358 97.888 C 127.193 98.101, 118.157 97.579, 107.279 96.727 C 87.594 95.184, 83.581 95.510, 87.447 98.337 C 89.009 99.480, 125.692 105.778, 141.500 107.618 L 146.500 108.200 156.693 92.850 L 166.886 77.500 164.618 50.258 C 163.370 35.275, 162.158 22.840, 161.925 22.626 C 161.691 22.411, 154.561 28.917, 146.080 37.083 M 104 27 C 104 27.580, 106.838 27.950, 110.750 27.882 C 115.966 27.790, 116.818 27.590, 114.500 27 C 110.025 25.861, 104 25.861, 104 27 M 86 31.879 C 86 33.492, 92.106 35.423, 93.809 34.349 C 97.214 32.201, 96.236 31, 91.083 31 C 88.287 31, 86 31.395, 86 31.879 M 83.226 39.786 C 82.121 42.379, 80.048 47.087, 78.621 50.250 C 77.193 53.413, 76.194 56, 76.400 56 C 76.762 56, 87.174 43.423, 89.778 39.840 C 90.891 38.310, 90.678 37.885, 88.147 36.576 L 85.237 35.071 83.226 39.786 M 102.294 50.250 C 101.721 52.038, 99.859 57.264, 98.155 61.863 L 95.057 70.227 101.778 69.531 C 109.415 68.740, 110.107 68.367, 118.940 60.274 L 125.381 54.374 115.115 50.687 C 109.469 48.659, 104.509 47, 104.093 47 C 103.676 47, 102.867 48.462, 102.294 50.250 M 125.009 69.106 L 111.518 70.993 100.657 81.854 L 89.797 92.715 107.459 93.997 C 117.761 94.745, 125.474 94.909, 125.970 94.390 C 126.437 93.900, 130.461 87.537, 134.912 80.250 C 142.167 68.373, 142.772 67.011, 140.753 67.110 C 139.514 67.170, 132.429 68.068, 125.009 69.106 M 97.123 72.882 C 93.960 73.461, 93.563 73.999, 90.848 81.392 C 89.255 85.732, 88.098 89.431, 88.277 89.611 C 88.457 89.790, 92.621 85.901, 97.531 80.969 C 107.213 71.242, 107.202 71.036, 97.123 72.882 M 72.132 76.057 C 64.779 77.073, 58.592 78.075, 58.381 78.285 C 58.171 78.495, 63.873 81.494, 71.051 84.949 C 78.230 88.404, 84.224 91.066, 84.372 90.865 C 84.520 90.664, 86.026 86.787, 87.720 82.250 L 90.799 74 88.150 74.106 C 86.692 74.164, 79.484 75.042, 72.132 76.057 M 80.500 102.972 C 79.400 103.437, 75.814 106.559, 72.531 109.909 L 66.563 116 71.128 116 C 73.638 116, 79.699 115.716, 84.596 115.368 L 93.500 114.737 93.160 110.118 C 92.651 103.194, 87.223 100.130, 80.500 102.972 M 96 110.992 L 96 115 101 115 C 103.750 115, 105.992 114.662, 105.982 114.250 C 105.972 113.838, 103.722 112.034, 100.982 110.242 L 96 106.985 96 110.992 M 103 108.452 C 103 109.848, 112.542 114.073, 115.102 113.811 C 117.707 113.544, 117.060 113.114, 110.570 110.797 C 106.407 109.310, 103 108.255, 103 108.452 M 133.813 116.683 C 134.534 116.972, 135.397 116.936, 135.729 116.604 C 136.061 116.272, 135.471 116.036, 134.417 116.079 C 133.252 116.127, 133.015 116.364, 133.813 116.683 M 98.750 117.689 C 97.334 118.059, 97 119.267, 97 124.014 C 97 127.242, 97.401 130.130, 97.892 130.433 C 98.609 130.876, 114.147 123.049, 115.985 121.320 C 116.252 121.069, 115.352 120.004, 113.985 118.954 C 111.583 117.109, 103.530 116.440, 98.750 117.689 M 35 147.027 C 20.975 160.719, 9.807 171.939, 10.182 171.961 C 10.763 171.994, 48.905 152.279, 49.825 151.469 C 50.004 151.312, 48.919 149.324, 47.415 147.051 C 45.564 144.254, 45.009 142.591, 45.696 141.904 C 46.384 141.216, 52.949 148.983, 66.017 165.944 C 76.634 179.725, 85.687 191, 86.133 191 C 87.095 191, 145.975 170.080, 147.649 169.143 C 148.298 168.780, 144.388 165.679, 138.672 162.023 L 128.545 155.546 106.238 150.473 L 83.931 145.400 72.215 133.766 L 60.500 122.132 35 147.027 M 147.621 133.750 C 163.858 164.600, 164.204 165.196, 165.298 164.102 C 169.096 160.304, 184.717 139.377, 184.169 138.821 C 183.540 138.182, 143.507 123, 142.452 123 C 142.183 123, 144.509 127.838, 147.621 133.750" stroke="none" fill="black" fill-rule="evenodd"/>
</svg>