<svg xmlns="http://www.w3.org/2000/svg" width="200" height="200" viewBox="0 0 200 200" version="1.1">
	<path d="M 148.179 16.486 C 145.253 21.152, 142.455 25.219, 141.962 25.524 C 141.178 26.008, 109.421 24.051, 92.500 22.475 L 86.500 21.917 82.079 27.485 C 79.648 30.547, 77.330 32.929, 76.929 32.776 C 76.527 32.624, 71.792 27.138, 66.405 20.585 C 61.018 14.031, 56.432 9.203, 56.215 9.855 C 55.998 10.507, 56.311 15.549, 56.910 21.059 C 57.510 26.570, 58 32.343, 58 33.888 L 58 36.698 41.750 38.599 C 26.326 40.403, 25.484 40.614, 25.180 42.750 C 24.827 45.237, 23.986 45.430, 19.316 44.091 C 16.918 43.403, 16.017 43.513, 15.623 44.539 C 15.072 45.975, 16.188 46.484, 22.250 47.558 C 24.772 48.005, 26.007 48.759, 26.022 49.861 C 26.034 50.763, 26.666 57.350, 27.427 64.500 C 28.808 77.493, 28.845 80.562, 27.555 75.297 C 25.137 65.421, 22.671 59, 21.296 59 C 20.465 59, 19.996 59.563, 20.254 60.250 C 20.511 60.938, 22.871 68.813, 25.499 77.750 C 28.908 89.342, 30.705 94, 31.768 94 C 32.961 94, 33.141 93.053, 32.673 89.250 C 31.225 77.483, 28.843 49.824, 29.243 49.423 C 29.488 49.179, 36.555 50.422, 44.948 52.185 L 60.209 55.391 59.838 104.946 L 59.467 154.500 51.902 166.041 C 45.850 175.274, 43.109 178.474, 38.198 182.041 C 32.416 186.241, 30.429 189.027, 33.250 188.979 C 33.938 188.967, 40.350 187.223, 47.500 185.102 L 60.500 181.246 61.221 168.873 C 61.618 162.068, 62.346 155.600, 62.839 154.500 C 63.332 153.400, 67.389 146.875, 71.854 140 L 79.974 127.500 79.987 138.350 C 79.994 144.317, 79.512 156.751, 78.915 165.981 C 78.318 175.211, 77.981 183.689, 78.165 184.822 C 78.461 186.643, 81.443 185.157, 104 171.946 C 118.025 163.731, 129.848 157.008, 130.273 157.005 C 130.698 157.002, 141.184 161.927, 153.576 167.950 C 165.968 173.972, 177.004 179.184, 178.099 179.532 C 179.669 180.030, 177.937 175.859, 169.936 159.872 C 158.425 136.872, 158.641 140.060, 167.818 128.696 L 173.312 121.892 172.709 99.567 C 172.313 84.890, 171.021 67.537, 168.938 48.916 L 165.769 20.592 160.207 14.296 C 157.148 10.833, 154.387 8.001, 154.072 8.002 C 153.758 8.003, 151.106 11.821, 148.179 16.486 M 150.076 18.614 C 146.297 24.642, 146.079 25.337, 147.618 26.462 C 149.809 28.065, 148.800 29.590, 145.053 30.339 C 141.604 31.029, 136.516 38.066, 136.803 41.750 C 136.922 43.281, 136.422 44.007, 135.239 44.022 C 134.171 44.036, 131.654 46.979, 128.715 51.651 L 123.930 59.258 124.961 72.879 C 125.528 80.371, 126.001 87.175, 126.011 88 C 126.026 89.118, 126.232 89.184, 126.820 88.257 C 127.341 87.436, 131.647 92.877, 139.483 104.257 C 146.013 113.740, 153.351 124.328, 155.790 127.785 L 160.225 134.070 165.104 127.785 L 169.982 121.500 169.971 102 C 169.962 86.441, 169.269 76.379, 166.545 52.216 L 163.130 21.933 158.972 16.966 C 156.685 14.235, 154.681 12, 154.519 12 C 154.356 12, 152.357 14.976, 150.076 18.614 M 59.489 19.750 C 59.731 21.262, 60.211 25.591, 60.557 29.369 L 61.185 36.237 67.336 35.541 C 70.720 35.159, 73.650 34.684, 73.847 34.486 C 74.214 34.119, 60.086 17, 59.417 17 C 59.215 17, 59.248 18.238, 59.489 19.750 M 84.143 28.992 C 82.297 31.263, 80.967 33.301, 81.188 33.522 C 81.409 33.743, 88.007 33.181, 95.850 32.273 C 109.465 30.698, 110.352 30.705, 115.477 32.448 C 120.806 34.259, 120.908 34.255, 129.422 31.905 C 134.140 30.604, 138 29.282, 138 28.968 C 138 28.654, 129.373 27.833, 118.829 27.145 C 108.285 26.456, 96.923 25.662, 93.579 25.379 L 87.500 24.865 84.143 28.992 M 95.500 35.035 C 87.800 36.022, 81.150 36.869, 80.721 36.915 C 80.293 36.962, 84.343 42.355, 89.721 48.900 C 97.665 58.567, 100.118 60.923, 102.792 61.453 C 105.360 61.963, 106.766 63.214, 109.185 67.147 L 112.287 72.187 121.194 58.478 C 126.093 50.937, 129.828 44.495, 129.494 44.161 C 129.160 43.827, 122.815 43.377, 115.393 43.160 C 103.817 42.821, 101.941 42.543, 102.200 41.200 C 102.388 40.223, 105.135 38.838, 109.501 37.518 L 116.500 35.402 113.101 34.201 C 111.231 33.540, 109.656 33.054, 109.601 33.119 C 109.545 33.185, 103.200 34.047, 95.500 35.035 M 129.525 34.665 L 124.550 36.192 127.890 37.596 C 132.482 39.526, 133.521 39.379, 135.385 36.535 C 138.097 32.397, 137.520 32.213, 129.525 34.665 M 116.470 38.497 L 112.500 39.658 119.809 40.437 C 123.829 40.865, 127.280 41.053, 127.478 40.855 C 127.676 40.657, 126.173 39.785, 124.139 38.916 C 121.094 37.616, 119.737 37.542, 116.470 38.497 M 63.981 38.694 C 61.520 39.079, 61.474 39.237, 62.008 45.597 C 62.540 51.940, 63.681 53.948, 66.776 53.985 C 67.737 53.996, 67.656 53.235, 66.443 50.891 C 64.901 47.908, 64.932 47.673, 67.197 45.141 C 68.495 43.688, 70.402 41.487, 71.434 40.250 L 73.310 38 69.905 38.150 C 68.032 38.232, 65.366 38.477, 63.981 38.694 M 72.360 43.254 C 68.250 48.359, 68.232 48.418, 69.778 51.662 C 71.130 54.496, 72.075 55.076, 76.918 56.044 C 79.988 56.659, 85.197 57.765, 88.494 58.503 C 91.791 59.241, 94.588 59.745, 94.711 59.622 C 95.021 59.312, 77.883 38.545, 77.120 38.306 C 76.779 38.199, 74.637 40.426, 72.360 43.254 M 47 40.637 C 29.181 42.778, 28 43.022, 28 44.561 C 28 45.353, 28.209 46, 28.465 46 C 28.721 46, 35.262 47.350, 43 49 C 50.738 50.650, 57.697 52, 58.463 52 C 59.556 52, 59.736 50.763, 59.301 46.250 C 58.996 43.087, 58.466 40.247, 58.123 39.938 C 57.780 39.629, 52.775 39.944, 47 40.637 M 62.995 91.775 C 62.993 111.424, 62.715 132.675, 62.377 139 L 61.763 150.500 70.783 136.500 L 79.803 122.500 80.512 102.385 L 81.222 82.269 75.452 69.885 C 72.278 63.073, 69.640 57.452, 69.590 57.394 C 69.541 57.335, 68.037 57.009, 66.250 56.669 L 63 56.050 62.995 91.775 M 74.641 61.691 C 75.515 63.786, 77.641 68.200, 79.365 71.500 L 82.500 77.500 83 97.248 L 83.500 116.995 96.363 96.986 C 107.730 79.304, 109.069 76.775, 107.879 75.239 C 107.138 74.282, 104.606 71.195, 102.253 68.378 L 97.975 63.256 87.238 61.052 C 81.332 59.840, 75.724 58.631, 74.776 58.365 C 73.164 57.913, 73.155 58.128, 74.641 61.691 M 103.906 65.824 C 104.513 66.959, 105.503 68.193, 106.105 68.565 C 106.889 69.050, 106.886 68.656, 106.094 67.176 C 105.487 66.041, 104.497 64.807, 103.895 64.435 C 103.111 63.950, 103.114 64.344, 103.906 65.824 M 117.069 69.892 L 113.881 74.861 115.896 78.680 C 117.005 80.781, 117.955 82.275, 118.009 82 C 118.950 77.158, 120.697 65.427, 120.509 65.212 C 120.371 65.054, 118.823 67.160, 117.069 69.892 M 121.459 79.750 C 121.140 81.263, 120.744 83.211, 120.578 84.079 C 120.412 84.947, 120.889 86.496, 121.638 87.520 C 122.841 89.165, 123 88.660, 123 83.191 C 123 76.591, 122.404 75.261, 121.459 79.750 M 97.115 100.822 L 83 122.709 83 133.954 C 83 140.139, 82.510 152.770, 81.912 162.024 C 81.314 171.278, 80.976 179.546, 81.162 180.397 C 81.415 181.555, 87.530 178.418, 105.385 167.973 C 118.522 160.288, 129.643 154, 130.100 154 C 130.557 154, 140.621 158.692, 152.465 164.426 C 164.309 170.160, 173.985 174.548, 173.968 174.176 C 173.950 173.804, 169.967 165.742, 165.116 156.260 C 157.089 140.569, 156.424 138.840, 157.705 137.010 C 158.480 135.905, 158.704 135, 158.203 135 C 157.703 135, 150.649 126.900, 142.528 117 C 134.407 107.100, 127.545 99, 127.280 99 C 127.015 99, 127.118 104.535, 127.508 111.300 L 128.218 123.601 118.859 138.251 C 110.424 151.454, 106.993 155.361, 107.004 151.750 C 107.006 151.063, 110.831 138.379, 115.504 123.564 C 120.177 108.750, 123.998 96.150, 123.995 95.564 C 123.993 94.979, 122.530 92.876, 120.745 90.891 C 118.960 88.906, 116.089 85.404, 114.365 83.108 L 111.230 78.935 97.115 100.822 M 128.030 94.250 C 128.046 94.938, 129.873 97.525, 132.089 100 L 136.118 104.500 132.417 98.750 C 128.566 92.765, 127.980 92.164, 128.030 94.250 M 118.274 123.705 C 115.399 132.877, 113.206 140.539, 113.399 140.733 C 113.593 140.926, 116.395 136.966, 119.626 131.932 L 125.500 122.779 125.174 114.890 C 124.994 110.550, 124.544 107.007, 124.174 107.015 C 123.803 107.022, 121.148 114.533, 118.274 123.705 M 52.691 169.766 C 49.497 174.815, 45.447 180.079, 43.691 181.462 C 41.936 182.846, 40.725 183.972, 41 183.965 C 41.275 183.958, 45.100 182.902, 49.500 181.619 L 57.500 179.286 58.271 173.393 C 58.694 170.152, 58.919 165.944, 58.771 164.042 C 58.504 160.637, 58.411 160.725, 52.691 169.766" stroke="none" fill="black" fill-rule="evenodd"/>
</svg>