<svg xmlns="http://www.w3.org/2000/svg" width="200" height="200" viewBox="0 0 200 200" version="1.1">
	<path d="M 88.500 16.080 C 76.950 18.755, 67.275 20.952, 67 20.964 C 66.725 20.975, 65.375 19.076, 64 16.742 L 61.500 12.500 61 17.486 L 60.500 22.473 50.500 24.794 L 40.500 27.116 27.147 57.155 C 17.587 78.663, 14.101 87.501, 14.874 88.274 C 15.647 89.047, 16.363 88.381, 17.394 85.927 C 21.522 76.099, 42.217 30.402, 42.810 29.805 C 43.189 29.423, 47.392 28.245, 52.149 27.187 L 60.798 25.262 60.243 55.878 L 59.688 86.494 48.516 103.234 L 37.345 119.974 34.588 91.237 C 32.021 64.479, 31.153 59.326, 29.628 61.793 C 29.146 62.573, 34.262 120.584, 35.290 126 C 35.447 126.825, 41.521 118.621, 48.787 107.769 C 60.739 89.921, 62 87.618, 62 83.644 C 62 81.227, 62.289 77.803, 62.643 76.034 L 63.287 72.817 74.942 84.442 L 86.597 96.066 90.469 94.449 L 94.341 92.831 92.764 95.237 C 91.897 96.561, 89.355 100.259, 87.117 103.455 C 84.878 106.651, 83.267 109.622, 83.536 110.058 C 83.805 110.494, 80.639 113.618, 76.500 117 C 72.361 120.382, 69.258 123.608, 69.605 124.170 C 70.026 124.852, 65.015 125.075, 54.468 124.845 L 38.701 124.500 33.327 140.500 C 23.298 170.354, 21.140 177.840, 22.419 178.331 C 23.116 178.598, 28.985 170.291, 36.506 158.394 C 43.597 147.177, 49.647 138.003, 49.949 138.007 C 50.252 138.011, 53.875 148.624, 58 161.591 C 62.125 174.559, 65.725 185.506, 66 185.919 C 66.275 186.332, 82.925 185.642, 103 184.386 C 123.075 183.130, 140.932 182.079, 142.683 182.051 L 145.865 182 139.303 168.250 C 135.693 160.688, 132.446 154.170, 132.086 153.766 C 131.610 153.231, 82.123 145, 79.386 145 C 79.174 145, 79 141.112, 79 136.361 L 79 127.721 83.750 128.288 C 86.695 128.638, 95.074 131.934, 105.796 136.958 C 115.308 141.415, 123.604 144.745, 124.230 144.358 C 124.939 143.920, 122.445 140.986, 117.614 136.577 L 109.859 129.500 119.863 129.815 L 129.866 130.130 140.545 147.815 C 146.418 157.542, 151.315 165.605, 151.428 165.734 C 151.741 166.089, 178.996 151.404, 180.133 150.267 C 180.794 149.606, 176.311 147.157, 166.814 142.989 C 158.941 139.534, 147.792 134.622, 142.038 132.074 L 131.576 127.442 125.846 118.471 C 122.695 113.537, 120.090 109.217, 120.058 108.871 C 120.026 108.526, 121.283 107.711, 122.852 107.061 C 125.399 106.006, 128.833 106.860, 154.930 115.029 C 171.004 120.061, 184.334 124, 184.552 123.782 C 184.770 123.563, 177.535 114.702, 168.474 104.090 C 159.413 93.479, 152 84.576, 152 84.307 C 152 84.038, 159.439 72.834, 168.531 59.409 L 185.063 35 181.781 35.008 C 179.977 35.013, 169.050 35.909, 157.500 37 C 145.950 38.091, 135.949 38.987, 135.277 38.992 C 134.604 38.996, 129.304 32.700, 123.500 25 C 116.712 15.995, 112.332 11.039, 111.223 11.109 C 110.276 11.169, 100.050 13.406, 88.500 16.080 M 88.750 18.790 C 77.888 21.304, 69 23.728, 69 24.178 C 69 24.628, 72.209 30.206, 76.130 36.574 L 83.261 48.151 87.132 44.372 C 89.279 42.274, 93.518 39.653, 96.653 38.483 L 102.304 36.375 119.653 43.521 C 129.195 47.452, 137.261 50.928, 137.578 51.245 C 137.896 51.562, 135.533 52.384, 132.328 53.071 C 129.122 53.757, 125.956 54.592, 125.291 54.927 C 123.623 55.764, 105.019 82.203, 105.009 83.750 C 104.996 85.537, 105.630 85.393, 114.860 81.500 C 119.424 79.575, 123.771 78, 124.520 78 C 127.746 78, 126.368 79.955, 118.925 85.936 C 114.566 89.439, 111 92.654, 111 93.081 C 111 93.507, 112.609 96.557, 114.575 99.858 L 118.149 105.859 122.096 104.466 C 125.943 103.109, 126.675 103.273, 151.231 110.994 C 165.084 115.350, 176.568 118.765, 176.751 118.582 C 176.933 118.400, 170.587 110.674, 162.647 101.413 L 148.211 84.576 163.708 61.724 C 172.232 49.156, 178.967 38.634, 178.675 38.342 C 178.384 38.050, 167.919 38.760, 155.420 39.920 C 142.921 41.080, 132.601 41.910, 132.487 41.764 C 132.372 41.619, 127.717 35.313, 122.142 27.750 C 115.468 18.697, 111.406 14.038, 110.253 14.110 C 109.289 14.171, 99.612 16.277, 88.750 18.790 M 63.512 28.250 C 63.177 30.587, 63.037 41.093, 63.201 51.595 L 63.500 70.690 72.250 60.946 C 77.063 55.587, 81 50.875, 81 50.475 C 81 49.287, 65.561 24.069, 64.811 24.033 C 64.432 24.015, 63.848 25.913, 63.512 28.250 M 97.392 41.128 C 94.660 42.148, 90.696 44.751, 88.585 46.913 L 84.746 50.845 93.623 65.416 C 98.505 73.430, 102.757 79.990, 103.071 79.994 C 103.385 79.997, 107.990 73.758, 113.305 66.128 C 121.559 54.277, 123.443 52.151, 126.233 51.532 L 129.500 50.807 126.500 49.486 C 124.850 48.759, 118.744 46.165, 112.930 43.720 L 102.361 39.275 97.392 41.128 M 74.163 62.822 L 66.109 71.643 76.805 82.236 L 87.500 92.830 92.665 90.509 C 95.506 89.232, 98.589 87.031, 99.515 85.617 C 101.184 83.069, 101.119 82.912, 92.360 68.523 C 87.498 60.535, 83.227 54, 82.868 54 C 82.510 54, 78.592 57.970, 74.163 62.822 M 111.750 85.658 C 109.688 86.514, 108 87.841, 108 88.607 C 108 90.773, 109.674 90.268, 113.234 87.029 C 116.974 83.627, 116.873 83.534, 111.750 85.658 M 101.132 90.265 C 99.829 90.944, 96.270 95.042, 93.222 99.370 C 87.062 108.121, 87.915 108.027, 99.148 98.722 C 105.382 93.557, 106.620 92.073, 105.848 90.693 C 104.724 88.685, 104.244 88.641, 101.132 90.265 M 98.500 102.554 C 93.550 106.655, 89.352 110.452, 89.171 110.991 C 88.991 111.530, 89.988 112.493, 91.387 113.130 C 93.556 114.119, 95.478 113.738, 104.465 110.536 C 110.259 108.471, 115 106.564, 115 106.297 C 115 105.405, 108.540 94.999, 108.016 95.049 C 107.732 95.076, 103.450 98.454, 98.500 102.554 M 106.500 112.692 C 101 114.614, 96.288 116.394, 96.028 116.649 C 95.768 116.903, 98.018 119.316, 101.028 122.012 L 106.500 126.913 117.261 126.957 L 128.022 127 122.928 118.750 C 120.126 114.213, 117.534 110.207, 117.167 109.849 C 116.800 109.490, 112 110.770, 106.500 112.692 M 81.500 116.504 L 77.500 119.978 83.809 117.769 C 89.385 115.816, 89.914 115.410, 88.368 114.279 C 86.014 112.559, 86.059 112.544, 81.500 116.504 M 85.500 119.921 L 80.500 121.687 84.710 123.844 C 87.747 125.399, 90.673 125.988, 95.210 125.957 L 101.500 125.915 97 121.960 C 94.525 119.785, 92.050 118.039, 91.500 118.080 C 90.950 118.121, 88.250 118.950, 85.500 119.921 M 73.813 124.683 C 74.534 124.972, 75.397 124.936, 75.729 124.604 C 76.061 124.272, 75.471 124.036, 74.417 124.079 C 73.252 124.127, 73.015 124.364, 73.813 124.683 M 40.468 128.250 C 38.344 133.915, 28.085 165.419, 28.296 165.630 C 28.445 165.778, 31.466 161.310, 35.010 155.700 C 38.554 150.090, 43.567 142.178, 46.151 138.117 L 50.849 130.734 59.517 157.467 L 68.185 184.199 72.342 183.654 C 74.629 183.354, 90.579 182.312, 107.787 181.340 C 124.995 180.368, 139.553 179.277, 140.137 178.915 C 140.805 178.503, 139.029 174.038, 135.349 166.880 L 129.500 155.500 103 151.319 C 88.425 149.020, 76.388 147.108, 76.250 147.069 C 76.112 147.031, 76 142.794, 76 137.654 L 76 128.307 63.843 127.654 C 45.904 126.689, 41.007 126.814, 40.468 128.250 M 104.874 133.520 C 110.030 135.984, 114.398 138, 114.581 138 C 114.764 138, 112.749 135.975, 110.103 133.500 C 105.745 129.423, 104.832 129.002, 100.396 129.020 L 95.500 129.041 104.874 133.520 M 142.935 146.503 C 147.865 154.604, 152.115 161.448, 152.379 161.712 C 152.915 162.249, 174.969 150.803, 174.988 149.979 C 174.998 149.559, 142.440 135.021, 135.736 132.451 C 134.639 132.031, 137.359 137.340, 142.935 146.503" stroke="none" fill="black" fill-rule="evenodd"/>
</svg>