<svg xmlns="http://www.w3.org/2000/svg" width="200" height="200" viewBox="0 0 200 200" version="1.1">
	<path d="M 117.634 21.504 L 87.769 27.833 60.994 22.607 L 34.218 17.382 33.613 45.941 C 33.279 61.648, 32.816 79.582, 32.583 85.794 L 32.160 97.088 48.330 104.998 C 60.647 111.024, 65.980 113.098, 70.710 113.704 L 76.920 114.500 72.710 119.260 C 68.564 123.948, 68.341 124.052, 58 126.101 C 52.225 127.245, 46.995 128.703, 46.379 129.340 C 45.762 129.978, 39.349 143.077, 32.128 158.450 C 23.405 177.019, 19.334 186.734, 19.996 187.396 C 20.658 188.058, 21.413 187.848, 22.246 186.771 C 22.936 185.879, 33.549 172.560, 45.831 157.173 L 68.162 129.197 75.422 133.810 L 82.681 138.423 79.232 149.462 C 77.336 155.533, 73.634 167.363, 71.007 175.750 C 68.109 185.004, 66.677 191.003, 67.365 191.008 C 70.400 191.030, 156.908 169.514, 156.254 168.900 C 155.839 168.510, 147.612 165.979, 137.971 163.275 C 120.492 158.373, 120.395 158.330, 103.713 148.071 C 94.512 142.413, 86.761 137.423, 86.489 136.982 C 86.216 136.541, 86.253 135.503, 86.571 134.675 C 87.566 132.081, 107.274 131.123, 129.500 132.586 L 138.500 133.179 150.993 153.513 C 157.864 164.697, 163.610 173.723, 163.762 173.571 C 164.501 172.832, 177.998 132.664, 177.630 132.297 C 177.397 132.064, 168.764 131.455, 158.445 130.945 C 148.126 130.434, 139.591 129.900, 139.478 129.758 C 138.480 128.503, 131 116.166, 131 115.776 C 131 115.497, 133.363 115.320, 136.250 115.384 L 141.500 115.500 156.329 100.329 L 171.157 85.157 163.844 50.579 C 159.821 31.560, 156.264 16, 155.940 16 C 155.615 16, 150.509 22.075, 144.592 29.500 C 138.675 36.925, 133.309 42.992, 132.667 42.982 C 130.604 42.950, 84.834 32.167, 84.240 31.573 C 83.173 30.507, 89.831 30.992, 97.022 32.505 C 100.957 33.332, 104.593 33.751, 105.104 33.436 C 106.887 32.334, 104.918 31.110, 100.230 30.407 C 96.466 29.843, 95.912 29.532, 97.504 28.878 C 100.260 27.745, 139.083 19.750, 139.552 20.219 C 139.761 20.428, 136.120 22.801, 131.460 25.494 C 126.054 28.618, 123.336 30.736, 123.948 31.348 C 125.174 32.574, 149.370 18.744, 149.823 16.558 C 150.001 15.701, 149.551 15.040, 148.823 15.088 C 148.095 15.136, 134.060 18.024, 117.634 21.504 M 36.632 34.250 C 36.317 41.538, 35.817 58.305, 35.521 71.511 L 34.983 95.522 50.500 103.261 C 65.384 110.684, 66.300 111, 72.973 111 C 78.906 111, 80.087 110.706, 81 109 C 82.032 107.073, 81.760 107, 73.535 107 C 61.142 107, 62.318 105.285, 78.005 100.482 L 91.010 96.500 105.412 78.500 C 113.333 68.600, 119.706 60.387, 119.573 60.250 C 119.372 60.040, 69.522 88.905, 59.250 95.178 C 53.316 98.802, 54.517 94.939, 64.073 79.654 C 72.147 66.740, 73.079 64.785, 71.896 63.247 C 71.157 62.286, 68.779 59.323, 66.610 56.662 C 64.119 53.606, 63.069 51.575, 63.759 51.149 C 64.360 50.778, 74.785 48.457, 86.926 45.992 C 99.067 43.528, 109 41.227, 109 40.880 C 109 40.534, 107.537 39.969, 105.750 39.626 C 90.846 36.764, 76 32.666, 76 31.414 C 76 30.636, 76.787 29.970, 77.750 29.932 C 81.729 29.778, 74.915 27.962, 57.500 24.535 C 47.600 22.587, 38.984 20.994, 38.352 20.996 C 37.576 20.999, 37.020 25.284, 36.632 34.250 M 146.065 31.871 C 141.425 37.717, 137.626 42.950, 137.621 43.500 C 137.617 44.050, 138.901 44.725, 140.474 45 C 144.907 45.775, 144.884 48, 140.444 48 L 136.721 48 137.352 53.250 C 137.699 56.138, 137.987 59.336, 137.991 60.357 C 137.997 61.652, 138.487 62.027, 139.611 61.596 C 140.854 61.119, 141.050 61.381, 140.470 62.739 C 138.910 66.389, 138.903 69.907, 140.430 84.379 C 141.294 92.563, 142 100.775, 142 102.629 L 142 106 130.026 106 L 118.051 106 116.500 109 L 114.949 112 118.821 112 C 120.950 112, 126.699 112.269, 131.596 112.597 L 140.500 113.194 154.288 98.635 L 168.076 84.076 161.496 52.829 C 157.877 35.643, 154.822 21.506, 154.708 21.412 C 154.594 21.318, 150.704 26.025, 146.065 31.871 M 90.828 47.953 C 78.909 50.454, 68.839 52.819, 68.452 53.210 C 68.064 53.600, 69.604 56.138, 71.873 58.849 C 74.143 61.560, 76 64.253, 76 64.835 C 76 65.416, 72.572 71.338, 68.381 77.994 C 64.191 84.650, 60.929 90.255, 61.131 90.448 C 61.334 90.642, 75.675 82.504, 93 72.363 C 113.480 60.376, 125.664 52.627, 127.828 50.213 C 129.948 47.848, 130.674 46.418, 129.828 46.274 C 111.444 43.139, 114.375 43.013, 90.828 47.953 M 129.859 53.757 C 127.850 55.083, 109.784 76.888, 96.744 93.727 C 95.744 95.017, 102.120 93.401, 110.939 90.130 L 115.378 88.483 117.538 79.891 C 118.726 75.165, 119.967 70.862, 120.297 70.329 C 120.626 69.796, 124.089 68.074, 127.992 66.503 L 135.089 63.646 134.795 58.152 C 134.633 55.130, 134.050 52.513, 133.500 52.336 C 132.950 52.159, 131.312 52.798, 129.859 53.757 M 129 68.969 L 122.500 71.793 120.030 81.376 L 117.559 90.959 104.603 95.229 C 95.193 98.331, 91.251 100.116, 90.202 101.750 L 88.756 104 102.324 104 L 115.891 104 121.574 93.250 C 124.699 87.338, 129.226 78.787, 131.633 74.250 C 134.041 69.713, 135.895 66.033, 135.755 66.072 C 135.615 66.112, 132.575 67.416, 129 68.969 M 127.636 87.596 C 123.436 95.624, 120 102.615, 120 103.132 C 120 103.972, 137.862 103.278, 138.882 102.399 C 139.554 101.819, 136.702 73, 135.973 73 C 135.587 73, 131.836 79.568, 127.636 87.596 M 80.500 102.528 L 76.500 103.846 80.628 103.923 C 83.157 103.970, 85.237 103.419, 86 102.500 C 87.553 100.628, 86.244 100.635, 80.500 102.528 M 99.380 106.746 C 88.208 107.010, 86.014 107.327, 84.611 108.877 C 83.032 110.622, 83.345 110.725, 92.135 111.349 C 108.073 112.480, 111.795 112.251, 112.965 110.066 C 114.177 107.800, 114.318 105.908, 113.250 106.218 C 112.838 106.338, 106.596 106.576, 99.380 106.746 M 77.067 118.066 C 75.270 120.303, 73.957 122.285, 74.150 122.472 C 74.342 122.659, 82.600 121.167, 92.500 119.156 C 109.023 115.800, 110.131 115.445, 106 114.824 C 103.525 114.452, 96.738 114.115, 90.917 114.074 L 80.335 114 77.067 118.066 M 118.942 116.414 C 111.761 118.004, 111.410 118.257, 108.541 123.918 L 106.121 128.695 120.716 129.358 C 128.744 129.723, 135.459 129.874, 135.638 129.695 C 136.387 128.947, 127.334 115.505, 125.979 115.351 C 125.165 115.259, 121.999 115.737, 118.942 116.414 M 103.500 119.509 C 102.950 119.702, 95.412 121.308, 86.750 123.077 C 78.088 124.847, 71 126.616, 71 127.009 C 71 128.207, 82.923 128.803, 93.485 128.133 L 103.470 127.500 105.810 123.250 C 107.964 119.337, 108.005 119.006, 106.325 119.079 C 105.321 119.122, 104.050 119.316, 103.500 119.509 M 57.221 128.964 C 52.667 129.933, 48.694 130.973, 48.391 131.275 C 47.817 131.850, 33.631 161.454, 29.356 171 C 28.001 174.025, 27.302 176.050, 27.801 175.500 C 32.356 170.486, 66.641 126.828, 65.809 127.102 C 65.639 127.158, 61.774 127.996, 57.221 128.964 M 77 131.429 C 77 131.715, 78.410 132.678, 80.133 133.569 C 82.677 134.884, 83.418 134.942, 84.078 133.873 C 84.525 133.150, 84.803 132.492, 84.696 132.412 C 84.015 131.903, 77 131.007, 77 131.429 M 142.161 133.856 C 142.900 135.797, 162.507 167, 162.987 167 C 163.648 167, 174.399 135.047, 173.886 134.608 C 172.931 133.789, 141.855 133.053, 142.161 133.856 M 83.141 146.257 C 82.032 149.691, 78.821 159.925, 76.005 169 C 73.190 178.075, 70.724 186.001, 70.527 186.613 C 70.300 187.317, 73.536 186.918, 79.334 185.529 C 134.165 172.388, 146 169.444, 146 168.945 C 146 168.626, 139.948 166.657, 132.552 164.569 C 120.049 161.042, 118.034 160.112, 103.909 151.346 C 95.552 146.161, 87.915 141.489, 86.937 140.966 C 85.393 140.140, 84.892 140.838, 83.141 146.257" stroke="none" fill="black" fill-rule="evenodd"/>
</svg>