<svg xmlns="http://www.w3.org/2000/svg" width="200" height="200" viewBox="0 0 200 200" version="1.1">
	<path d="M 95.157 27.250 L 84.086 50 79.548 50 L 75.011 50 65.893 31.750 C 60.878 21.713, 56.593 13.305, 56.371 13.067 C 56.149 12.828, 55.574 13.053, 55.095 13.567 C 54.587 14.110, 57.101 21.360, 61.112 30.921 C 64.900 39.952, 68 47.726, 68 48.197 C 68 48.667, 61.186 48.928, 52.858 48.776 C 35.755 48.464, 36.730 48.956, 34.962 39.750 C 34.232 35.947, 33.374 34, 32.429 34 C 31.486 34, 30.996 35.105, 30.989 37.250 C 30.983 39.038, 30.699 42.188, 30.358 44.250 L 29.738 48 20.802 48 C 12.751 48, 11.919 48.173, 12.408 49.750 C 12.706 50.712, 15.673 61.850, 19 74.500 C 22.327 87.150, 25.294 98.287, 25.592 99.250 C 26.297 101.524, 29.003 101.524, 28.989 99.250 C 28.966 95.792, 32.102 55.451, 32.565 53.250 C 34.210 45.426, 34.764 58.194, 35.300 116.250 C 35.631 152.137, 36.274 182.773, 36.728 184.329 C 37.522 187.053, 38.064 186.478, 51.276 168.933 C 62.173 154.463, 64.992 150.069, 64.963 147.604 C 64.942 145.897, 63.868 130.101, 62.576 112.502 L 60.228 80.504 64.625 72.002 L 69.022 63.500 68.391 82.544 L 67.761 101.589 74.880 111.760 L 82 121.930 82 154.574 L 82 187.217 84.750 186.522 C 96.590 183.533, 145.458 174.371, 162.500 171.945 C 174.050 170.301, 184.625 168.681, 186 168.344 C 188.061 167.839, 184.837 165.951, 167.660 157.603 L 146.820 147.474 163.511 136.112 L 180.202 124.751 165.851 116.281 C 157.958 111.623, 151.364 107.681, 151.199 107.521 C 151.033 107.361, 156.433 102.839, 163.199 97.471 C 169.964 92.103, 176.100 87.160, 176.833 86.486 C 177.912 85.496, 175.576 83.756, 164.610 77.381 C 157.154 73.046, 151.154 69.227, 151.277 68.892 C 151.400 68.558, 157.350 63.663, 164.500 58.014 C 171.650 52.365, 178.175 47.087, 179 46.286 C 180.314 45.011, 178.354 44.919, 163.179 45.546 L 145.859 46.262 146.179 30.129 C 146.356 21.257, 146.408 13.998, 146.295 13.999 C 146.182 13.999, 141.490 19.962, 135.868 27.250 C 119.593 48.347, 115.778 53.111, 115.433 52.766 C 115.254 52.588, 113.265 42.105, 111.012 29.471 C 108.759 16.837, 106.761 6.050, 106.572 5.500 C 106.383 4.950, 101.247 14.737, 95.157 27.250 M 95.740 32.500 L 87.007 50 92.254 50.011 C 95.139 50.017, 99.189 50.301, 101.253 50.642 C 104.833 51.234, 105.093 51.544, 106.909 57.381 C 108.534 62.603, 108.827 63.024, 108.906 60.250 C 109.013 56.539, 110.705 55.881, 111.478 59.250 C 113.525 68.173, 116.004 89.396, 115.105 90.295 C 113.793 91.607, 113.437 90.647, 107.489 69.750 L 102.721 53 94.044 53 L 85.368 53 82.520 58.958 C 80.954 62.235, 79.298 64.684, 78.839 64.401 C 78.381 64.117, 78.412 64.924, 78.908 66.193 C 81.686 73.304, 106.243 131.573, 106.621 131.953 C 106.869 132.202, 109.592 129.887, 112.670 126.808 L 118.268 121.210 110.644 110.208 C 105.642 102.991, 103.454 99.040, 104.281 98.722 C 105.033 98.434, 108.856 102.935, 113.748 109.869 L 121.954 121.499 114.949 128.551 L 107.945 135.603 116.120 155.301 C 125.015 176.735, 124.518 176.146, 131.904 174.028 C 133.769 173.493, 145.016 171.655, 156.897 169.943 C 168.779 168.232, 178.649 166.683, 178.830 166.502 C 179.194 166.139, 147.147 150.499, 143.980 149.494 C 142.891 149.148, 142 148.533, 142 148.128 C 142 147.722, 149.200 142.532, 158 136.593 C 166.800 130.655, 174 125.445, 174 125.017 C 174 124.589, 167.667 120.528, 159.927 115.992 C 152.187 111.457, 146.224 107.423, 146.677 107.028 C 147.130 106.633, 153.272 101.694, 160.327 96.053 C 171.890 86.807, 172.974 85.673, 171.327 84.549 C 170.322 83.863, 165 80.685, 159.500 77.487 C 154 74.288, 148.698 71.130, 147.718 70.469 C 146.134 69.400, 147.303 68.177, 158.218 59.487 C 164.973 54.108, 170.950 49.287, 171.500 48.773 C 172.120 48.193, 166.880 48.111, 157.694 48.557 L 142.888 49.275 143.194 35.636 C 143.362 28.134, 143.452 21.997, 143.392 21.998 C 143.333 21.999, 136.893 30.325, 129.080 40.500 C 121.268 50.675, 114.533 59, 114.113 59 C 113.693 59, 111.617 49.100, 109.500 37 C 107.383 24.900, 105.386 15, 105.062 15 C 104.738 15, 100.544 22.875, 95.740 32.500 M 16 51.585 C 16 52.827, 26.066 90.399, 26.520 90.853 C 26.784 91.117, 27.005 90.021, 27.010 88.417 C 27.022 85.110, 28.682 64.185, 29.562 56.250 L 30.144 51 23.072 51 C 19.182 51, 16 51.263, 16 51.585 M 37.770 81.873 C 37.522 114.969, 37.912 144.459, 38.886 166.235 L 39.500 179.971 50.921 164.893 L 62.342 149.815 59.904 115.157 L 57.466 80.500 63.351 68 C 66.587 61.125, 69.741 55.181, 70.359 54.792 C 73.117 53.054, 68.490 52.204, 53.750 51.741 L 38 51.245 37.770 81.873 M 77.035 53.750 C 77.055 54.163, 77.646 55.537, 78.350 56.805 L 79.629 59.110 80.815 56.508 C 82.394 53.041, 82.379 53, 79.500 53 C 78.125 53, 77.016 53.337, 77.035 53.750 M 71.896 66.083 C 71.838 70.162, 71.501 79.575, 71.146 87 L 70.500 100.500 74.889 107 C 77.303 110.575, 80.341 114.932, 81.639 116.683 L 84 119.867 84 151.786 L 84 183.705 102.177 180.071 C 112.174 178.073, 120.512 175.965, 120.704 175.388 C 120.896 174.811, 117.217 166.086, 112.527 155.999 C 107.837 145.912, 104 136.695, 104 135.517 C 104 133.513, 74.043 60.710, 72.642 59.309 C 72.289 58.956, 71.953 62.004, 71.896 66.083" stroke="none" fill="black" fill-rule="evenodd"/>
</svg>