<svg xmlns="http://www.w3.org/2000/svg" width="200" height="200" viewBox="0 0 200 200" version="1.1">
	<path d="M 36 26.500 C 36 35.025, 35.663 41.992, 35.250 41.983 C 34.837 41.973, 31.142 41.094, 27.038 40.028 C 22.934 38.962, 19.476 38.191, 19.353 38.314 C 18.605 39.061, 16.263 87.655, 16.942 88.337 C 18.562 89.967, 18.984 87.008, 20.177 65.618 C 20.840 53.727, 21.696 43.491, 22.079 42.872 C 22.592 42.042, 24.118 42.069, 27.887 42.973 C 33.768 44.384, 34.629 46, 29.500 46 C 25.306 46, 25.478 43.507, 27.500 75 C 28.295 87.375, 28.957 99.188, 28.972 101.250 C 28.992 103.904, 29.438 105, 30.500 105 C 32.289 105, 32.289 106.859, 30.500 79 C 28.474 47.443, 28.375 49.296, 32.125 48.473 C 34.280 47.999, 35.524 48.207, 36.134 49.143 C 36.636 49.913, 36.756 68.673, 36.412 92.500 C 35.946 124.734, 36.172 140.871, 37.383 161.897 C 38.251 176.966, 39.082 189.412, 39.231 189.557 C 39.379 189.701, 45.359 179.579, 52.520 167.064 L 65.539 144.309 63.674 110.434 L 61.809 76.559 64.654 71.283 C 66.219 68.381, 67.725 66.014, 68 66.022 C 68.275 66.030, 72.063 72.419, 76.417 80.219 L 84.335 94.401 83.096 126.329 C 82.414 143.889, 82.226 158.578, 82.678 158.971 C 87.301 162.987, 103.796 176, 104.265 176 C 104.600 176, 111.065 167.012, 118.631 156.027 C 126.196 145.041, 132.552 136.219, 132.755 136.422 C 132.958 136.624, 131.701 141.368, 129.963 146.963 C 128.225 152.558, 126.959 157.288, 127.151 157.475 C 134.608 164.725, 161.654 187.728, 162.122 187.218 C 162.484 186.823, 166.169 172.325, 170.312 155 C 177.360 125.523, 178.012 121.827, 180.468 97.454 L 183.092 71.408 174.127 46.454 C 169.196 32.729, 164.928 22.175, 164.641 23 C 164.355 23.825, 162.657 32.263, 160.867 41.750 C 159.078 51.237, 157.291 59, 156.897 59 C 156.503 59, 153.464 54.613, 150.144 49.250 C 146.824 43.888, 138.816 33.257, 132.349 25.627 L 120.590 11.754 109.045 23.924 L 97.500 36.094 67.021 23.547 C 50.258 16.646, 36.420 11, 36.271 11 C 36.122 11, 36 17.975, 36 26.500 M 38.375 18.125 C 38.719 19.844, 39 26.135, 39 32.106 C 39 42.718, 39.054 42.975, 41.390 43.562 C 42.704 43.892, 48.568 43.450, 54.420 42.581 C 60.272 41.711, 65.269 41, 65.524 41 C 65.778 41, 63.886 36.770, 61.317 31.600 L 56.648 22.199 47.846 18.600 C 43.006 16.620, 38.754 15, 38.397 15 C 38.041 15, 38.031 16.406, 38.375 18.125 M 111.237 25.682 C 106.245 31.078, 102.263 35.597, 102.389 35.722 C 102.514 35.848, 105.459 35.493, 108.933 34.933 C 112.407 34.374, 115.438 34.104, 115.668 34.334 C 115.898 34.564, 115.311 36.377, 114.364 38.364 C 113.416 40.350, 112.835 42.122, 113.071 42.303 C 113.307 42.483, 116.838 44.006, 120.918 45.687 L 128.336 48.744 117.972 54.872 C 112.271 58.242, 107.808 61.011, 108.054 61.024 C 108.299 61.038, 117.725 63.444, 129 66.371 L 149.500 71.693 150.635 79.597 C 151.259 83.944, 151.701 87.583, 151.617 87.685 C 151.533 87.786, 145.172 89.181, 137.482 90.784 L 123.500 93.699 127 95.190 C 128.925 96.011, 136.912 99.288, 144.750 102.472 C 152.588 105.657, 159 108.545, 159 108.891 C 159 109.237, 148.534 114.747, 135.742 121.136 L 112.483 132.753 92.492 93.687 L 72.500 54.620 58 50.821 C 37.164 45.362, 38.850 44.651, 39.198 58.750 C 39.357 65.213, 39.350 85.800, 39.181 104.500 C 38.939 131.303, 40.196 175.942, 41.313 180.214 C 41.416 180.606, 46.293 172.506, 52.152 162.214 L 62.804 143.500 60.900 109.731 L 58.996 75.963 63.349 67.950 C 66.588 61.989, 67.962 60.265, 68.714 61.218 C 69.270 61.923, 73.674 69.629, 78.500 78.342 L 87.276 94.183 86.127 120.842 C 85.496 135.504, 84.993 149.750, 85.011 152.500 L 85.043 157.500 94.043 164.750 C 98.993 168.737, 103.371 171.985, 103.771 171.966 C 104.318 171.941, 131.806 132.690, 136.208 125.650 C 136.703 124.859, 137.233 124.833, 137.967 125.567 C 138.700 126.300, 137.649 131.106, 134.484 141.498 C 130.856 153.410, 130.206 156.607, 131.226 157.516 C 154.092 177.907, 160.150 183.172, 160.400 182.868 C 160.566 182.665, 163.908 169.450, 167.827 153.500 C 174.535 126.196, 175.107 122.962, 177.597 98.192 L 180.242 71.885 173.371 52.444 C 169.592 41.752, 166.258 33.003, 165.963 33.002 C 165.667 33.001, 163.917 40.684, 162.073 50.075 C 159.422 63.576, 158.469 66.872, 157.520 65.825 C 156.859 65.096, 152.862 58.947, 148.637 52.160 C 142.327 42.025, 131.056 27.436, 122 17.685 C 120.390 15.952, 119.901 16.315, 111.237 25.682 M 70.602 32.131 L 77.500 39.110 83.500 38.454 C 86.800 38.093, 89.858 37.462, 90.297 37.052 C 90.735 36.642, 84.931 33.797, 77.399 30.729 L 63.704 25.152 70.602 32.131 M 65.719 34.500 C 68.098 39.350, 68.772 40, 71.424 40 L 74.432 40 69 34.500 C 66.013 31.475, 63.445 29, 63.295 29 C 63.145 29, 64.236 31.475, 65.719 34.500 M 107.038 37.991 L 103.576 38.500 106.440 39.798 C 108.271 40.627, 109.651 40.749, 110.265 40.135 C 111.987 38.413, 110.572 37.472, 107.038 37.991 M 86 40.731 C 81.038 41.314, 80.593 42.236, 83.794 45.303 L 86.602 47.992 90.504 43.996 C 94.811 39.585, 94.943 39.681, 86 40.731 M 92.500 46 L 86.563 52 81.531 47.100 C 77.140 42.824, 76.091 42.266, 73.288 42.709 L 70.076 43.216 72.438 47.878 L 74.800 52.539 86.650 55.392 C 93.168 56.961, 98.895 58.302, 99.377 58.372 C 100.172 58.488, 107.948 45.377, 107.984 43.859 C 108 43.223, 100.661 40, 99.198 40 C 98.780 40, 95.766 42.700, 92.500 46 M 57.500 44.693 C 51.174 45.522, 51.797 46.334, 60.500 48.603 C 65.450 49.894, 69.830 50.962, 70.234 50.975 C 70.637 50.989, 70.217 49.425, 69.299 47.500 C 67.539 43.810, 66.367 43.531, 57.500 44.693 M 106.751 52.453 C 104.697 56.604, 103.187 60, 103.396 60 C 103.604 60, 107.946 57.561, 113.045 54.579 L 122.315 49.159 118.466 47.550 C 110.629 44.276, 110.841 44.187, 106.751 52.453 M 77 56.552 C 77 57.011, 112.837 127.852, 113.553 128.809 C 113.680 128.979, 122.720 124.634, 133.642 119.154 L 153.500 109.190 149 107.240 C 146.525 106.167, 137.870 102.636, 129.766 99.394 C 121.662 96.152, 115.025 93.275, 115.016 93 C 115.008 92.725, 122.304 91, 131.230 89.167 C 140.156 87.334, 147.741 85.660, 148.085 85.447 C 148.754 85.034, 147.418 75.085, 146.582 74.248 C 146.307 73.974, 136.736 71.306, 125.312 68.320 L 104.540 62.890 100.884 64.945 C 96.103 67.632, 95.652 67.542, 97.377 64.250 L 98.818 61.500 88.659 58.759 C 77.873 55.849, 77 55.683, 77 56.552" stroke="none" fill="black" fill-rule="evenodd"/>
</svg>