<svg xmlns="http://www.w3.org/2000/svg" width="200" height="200" viewBox="0 0 200 200" version="1.1">
	<path d="M 32.443 13.439 C 32.251 14.022, 31.652 21.025, 31.112 29 L 30.131 43.500 23.707 58.319 L 17.283 73.138 21.150 86.819 C 23.277 94.344, 25.942 103.875, 27.073 108 C 28.204 112.125, 31.695 133.050, 34.831 154.500 C 39.324 185.233, 40.840 193.500, 41.980 193.500 C 43.100 193.500, 44.867 185.167, 49.825 156.500 L 56.223 119.500 56.862 84 L 57.500 48.500 70.250 60.949 C 77.263 67.796, 83 74.203, 83 75.187 C 83 76.171, 77.375 84.783, 70.500 94.324 C 63.625 103.865, 58 112.129, 58 112.689 C 58 113.248, 61.647 122.646, 66.105 133.571 L 74.209 153.437 73.498 163.866 C 72.823 173.770, 72.881 174.259, 74.644 173.565 C 75.665 173.163, 88.200 168.863, 102.500 164.008 C 116.800 159.154, 130.469 154.466, 132.876 153.591 C 135.282 152.716, 137.803 152, 138.476 152 C 139.150 152, 146.308 156.725, 154.382 162.500 C 162.457 168.275, 169.274 173, 169.532 173 C 169.789 173, 170 163.935, 170 152.855 C 170 134.252, 170.270 131.180, 173.526 112.714 C 175.465 101.717, 176.928 92.603, 176.776 92.462 C 176.624 92.321, 166.588 95.223, 154.474 98.912 L 132.447 105.618 123.974 103.770 C 115.620 101.948, 115.397 101.820, 108.250 94.736 C 104.263 90.784, 101.006 87.314, 101.013 87.025 C 101.020 86.736, 104.508 85.089, 108.763 83.364 L 116.500 80.227 135.762 81.173 L 155.023 82.119 160.959 76.810 C 166.275 72.055, 167.268 70.518, 170.462 62.098 C 172.424 56.926, 173.910 52.606, 173.764 52.498 C 173.619 52.390, 169.900 49.922, 165.500 47.014 C 161.100 44.106, 157.128 41.394, 156.674 40.988 C 156.220 40.581, 162.520 36.782, 170.674 32.546 C 178.828 28.309, 185.868 24.488, 186.318 24.054 C 186.768 23.620, 181.143 22.946, 173.818 22.557 C 158.340 21.735, 156 21.310, 156 19.317 C 156 18.076, 154.571 17.972, 146.750 18.639 C 141.662 19.073, 135.250 19.362, 132.500 19.280 C 127.784 19.139, 43.340 13.365, 36.146 12.692 C 34.302 12.519, 32.635 12.855, 32.443 13.439 M 34.586 20.402 C 34.300 23.206, 33.792 29.664, 33.458 34.753 C 32.901 43.222, 32.341 45.170, 26.841 57.753 C 23.537 65.314, 20.819 72.400, 20.802 73.500 C 20.785 74.600, 23.245 84.275, 26.270 95 C 30.985 111.718, 32.440 119.137, 36.468 147 C 39.053 164.875, 41.419 180.175, 41.727 181 C 42.034 181.825, 44.894 167.200, 48.081 148.500 L 53.876 114.500 53.938 79.534 L 54 44.569 49.288 39.784 C 43.683 34.094, 43.043 34.224, 63 37 C 81.584 39.585, 81 39.612, 81 36.178 C 81 34.626, 81.702 31.296, 82.560 28.778 C 84.371 23.464, 84.334 23.476, 101.278 22.405 C 107.206 22.030, 111.857 21.524, 111.613 21.279 C 111.369 21.035, 96.168 19.770, 77.834 18.467 C 59.500 17.165, 42.386 15.920, 39.803 15.701 L 35.106 15.304 34.586 20.402 M 110.619 24.500 C 87.192 26.469, 86.806 26.538, 85.449 29 C 83.870 31.864, 83.516 40, 84.970 40 C 85.503 40, 90.680 40.704, 96.473 41.565 L 107.007 43.130 119.559 34.479 C 126.862 29.446, 132.719 26.062, 133.566 26.387 C 134.367 26.694, 138.838 29.433, 143.502 32.473 C 148.166 35.513, 152.491 38, 153.112 38 C 154.701 38, 176 26.844, 176 26.012 C 176 25.637, 166.642 24.693, 155.205 23.915 C 135.801 22.595, 132.819 22.634, 110.619 24.500 M 119.957 37.480 L 107.500 45.960 96.185 44.379 C 89.961 43.509, 84.703 42.963, 84.501 43.166 C 84.298 43.368, 84.389 47.827, 84.702 53.073 L 85.271 62.611 89.150 64.844 C 93.243 67.200, 93.274 67.690, 89.632 72.500 C 88.216 74.371, 88.445 74.833, 93.184 79.658 L 98.251 84.817 106.375 81.303 L 114.500 77.789 134.235 78.465 L 153.970 79.141 159.391 74.461 C 163.918 70.553, 165.241 68.603, 167.411 62.640 C 168.840 58.713, 170.007 55.005, 170.005 54.400 C 170.002 53.795, 166.070 50.685, 161.267 47.489 L 152.535 41.677 141.880 47.339 C 136.020 50.452, 130.949 53, 130.612 53 C 130.276 53, 130 52.421, 130 51.714 C 130 51.007, 134.268 48.194, 139.485 45.464 C 144.702 42.734, 148.977 40.219, 148.985 39.876 C 149 39.257, 133.829 29, 132.899 29 C 132.632 29, 126.808 32.816, 119.957 37.480 M 56.979 43.406 C 61.424 47.966, 79.151 60, 81.423 60 C 82.271 60, 82.097 44.695, 81.235 43.381 C 80.831 42.766, 74.875 41.493, 68 40.552 C 61.125 39.611, 54.600 38.604, 53.500 38.314 C 52.202 37.971, 53.425 39.760, 56.979 43.406 M 76.966 63.359 C 79.972 66.462, 82.497 69, 82.577 69 C 82.657 69, 82.502 67.844, 82.231 66.431 C 81.795 64.149, 79.201 61.931, 73 58.539 C 72.175 58.087, 73.960 60.257, 76.966 63.359 M 85 68.965 C 85 72.420, 86.428 72.937, 87.978 70.042 C 88.824 68.461, 88.638 67.876, 87.013 67.007 C 85.201 66.037, 85 66.233, 85 68.965 M 86 83.292 C 86 86.981, 86.243 90, 86.540 90 C 87.239 90, 95 86.044, 95 85.688 C 95 85.539, 92.975 83.429, 90.500 81 L 86 76.584 86 83.292 M 78.182 88.125 C 75.807 91.464, 74.039 94.373, 74.254 94.588 C 74.469 94.803, 76.525 94.240, 78.823 93.338 C 82.926 91.726, 83 91.610, 83 86.848 C 83 84.182, 82.888 82.012, 82.750 82.027 C 82.612 82.041, 80.557 84.785, 78.182 88.125 M 92 90.483 C 86.945 92.606, 84.039 95.951, 87.177 96.036 C 87.905 96.056, 93.404 97.148, 99.399 98.463 L 110.297 100.854 103.928 94.427 C 100.424 90.892, 97.545 88.039, 97.529 88.087 C 97.513 88.135, 95.025 89.213, 92 90.483 M 67.118 103.576 C 63.753 108.190, 61 112.358, 61 112.839 C 61 113.319, 64.619 122.608, 69.042 133.480 L 77.084 153.248 76.391 161.789 C 75.814 168.897, 75.933 170.240, 77.099 169.796 C 83.483 167.362, 138.262 149, 139.141 149 C 139.764 149, 146.260 153.275, 153.577 158.500 C 160.894 163.725, 167.132 168, 167.440 168 C 167.748 168, 168.020 158.887, 168.044 147.750 C 168.083 130.136, 168.452 125.448, 170.883 111.734 C 173.312 98.028, 173.469 96.031, 172.088 96.453 C 130.446 109.186, 132.513 108.774, 122.251 106.403 C 120.108 105.908, 122.761 109.057, 134.250 120.646 C 142.363 128.829, 149 136.081, 149 136.762 C 149 138.698, 146.884 138.317, 130.156 133.371 C 121.545 130.825, 108.073 127.060, 100.217 125.005 C 92.362 122.949, 85.618 120.951, 85.231 120.564 C 84.844 120.177, 84.358 114.938, 84.153 108.921 C 83.780 98.033, 83.766 97.980, 81.139 97.409 C 79.688 97.093, 77.315 96.464, 75.868 96.010 C 73.413 95.242, 72.822 95.754, 67.118 103.576 M 87 108.888 L 87 118.776 96.250 121.036 C 101.338 122.279, 113.792 125.700, 123.927 128.637 C 134.062 131.575, 142.484 133.849, 142.642 133.691 C 142.800 133.533, 136.308 126.852, 128.215 118.843 L 113.500 104.281 101 101.621 C 94.125 100.159, 88.162 98.970, 87.750 98.981 C 87.338 98.991, 87 103.450, 87 108.888" stroke="none" fill="black" fill-rule="evenodd"/>
</svg>