<svg xmlns="http://www.w3.org/2000/svg" width="200" height="200" viewBox="0 0 200 200" version="1.1">
	<path d="M 122.011 16.750 C 122.017 17.163, 122.692 19.709, 123.511 22.409 C 124.330 25.109, 125 27.891, 125 28.591 C 125 30.494, 99.534 38.357, 94 38.163 C 91.525 38.076, 75.780 36.911, 59.011 35.575 C 42.242 34.238, 28.446 33.224, 28.352 33.322 C 28.258 33.420, 27.471 50.517, 26.603 71.316 L 25.025 109.132 31.670 120.609 C 35.324 126.921, 38.625 131.729, 39.006 131.293 C 39.386 130.857, 43.846 111.832, 48.916 89.016 C 53.987 66.200, 58.297 47.369, 58.496 47.171 C 59.053 46.613, 99.001 50.353, 98.996 50.962 C 98.993 51.258, 89.333 54.418, 77.529 57.984 C 65.725 61.550, 56.390 64.740, 56.784 65.072 C 57.178 65.405, 70.465 69.896, 86.311 75.052 C 112.783 83.666, 115.077 84.592, 114.575 86.463 C 114.274 87.583, 114.021 89.284, 114.014 90.242 C 114.006 91.274, 110.136 94.837, 104.511 98.992 C 99.292 102.846, 94.813 106, 94.557 106 C 94.301 106, 93.958 102.982, 93.796 99.294 L 93.500 92.588 75.231 81.646 C 65.183 75.628, 56.814 70.883, 56.633 71.102 C 56.452 71.321, 58.882 82.916, 62.032 96.869 L 67.759 122.239 63.398 121.641 L 59.036 121.043 40.268 141.664 C 15.510 168.865, 15.130 170.303, 36.474 156.018 C 43.855 151.077, 50.379 146.915, 50.970 146.768 C 51.561 146.620, 56.311 155.500, 61.526 166.500 L 71.006 186.500 74.753 186.182 C 76.814 186.008, 95.129 183.645, 115.454 180.932 C 135.778 178.220, 152.855 176, 153.404 176 C 156.117 176, 150.977 173.551, 134.500 166.994 C 119.744 161.122, 112.867 157.638, 96.346 147.666 C 85.261 140.974, 76.293 135.394, 76.416 135.264 C 76.539 135.134, 85.271 137.913, 95.820 141.440 C 106.369 144.967, 115 147.613, 115 147.320 C 115 147.027, 111.999 142.898, 108.331 138.144 C 104.663 133.390, 101.175 128.866, 100.581 128.090 C 99.660 126.889, 100.905 126.788, 109 127.411 C 114.225 127.813, 122.775 128.336, 128 128.573 C 141.196 129.171, 146.673 129.966, 144.947 131.033 C 143.798 131.743, 143.841 132.002, 145.197 132.522 C 146.100 132.869, 147.985 132.400, 149.387 131.482 C 150.789 130.563, 152.497 129.999, 153.183 130.228 C 153.869 130.456, 158.046 143.193, 162.465 158.531 C 166.884 173.870, 170.950 186.319, 171.500 186.196 C 172.482 185.976, 172.328 130.059, 171.343 129.030 C 171.095 128.771, 167.767 128.383, 163.946 128.167 C 160.126 127.951, 157.012 127.488, 157.026 127.137 C 157.040 126.787, 162.777 123.009, 169.776 118.743 C 176.774 114.476, 183.095 110.604, 183.823 110.138 C 185.812 108.866, 171.772 83.258, 160.786 68.120 C 152.900 57.254, 151.783 55.199, 151.651 51.307 L 151.500 46.872 163.500 41.382 C 170.100 38.362, 177.032 35.235, 178.904 34.433 C 180.775 33.630, 182.105 32.771, 181.857 32.524 C 181.311 31.977, 124.390 16, 122.990 16 C 122.445 16, 122.005 16.337, 122.011 16.750 M 126 20.918 C 126 24.441, 127.258 25, 135.190 25 C 145.093 25, 145.271 26.617, 135.686 29.500 C 130.786 30.973, 129.151 31.895, 129.474 33 C 129.715 33.825, 135.612 54.525, 142.578 79 C 149.544 103.475, 155.381 123.655, 155.549 123.844 C 156.003 124.355, 181 108.818, 181 108.025 C 181 105.840, 166.596 80.877, 160.214 72 C 156.062 66.225, 151.868 60.375, 150.893 59 C 149.919 57.625, 148.829 54.003, 148.471 50.951 L 147.820 45.403 160.937 39.528 C 168.151 36.297, 173.704 33.352, 173.277 32.983 C 172.444 32.264, 128.761 20, 127.033 20 C 126.465 20, 126 20.413, 126 20.918 M 110.500 37.278 L 97.500 41.346 64.500 38.756 C 46.350 37.332, 31.336 36.330, 31.136 36.531 C 30.936 36.731, 30.117 53.040, 29.318 72.772 L 27.864 108.650 32.626 116.798 C 35.245 121.279, 37.559 124.774, 37.769 124.565 C 37.978 124.355, 42.169 106.290, 47.081 84.419 C 51.992 62.549, 56.207 44.460, 56.447 44.220 C 57.100 43.567, 106.930 48.339, 108.300 49.185 C 110.521 50.558, 107.627 51.755, 86.750 58.098 C 75.337 61.565, 66 64.654, 66 64.961 C 66 65.517, 112.993 81, 114.680 81 C 115.530 81, 124.573 34.217, 123.854 33.542 C 123.659 33.360, 117.650 35.041, 110.500 37.278 M 126.650 37 C 126.341 37.825, 124.460 47.500, 122.469 58.500 C 120.478 69.500, 118.629 79.433, 118.360 80.573 C 117.957 82.284, 118.581 82.857, 121.936 83.863 C 126.702 85.291, 126.510 83.207, 124.077 107 C 123.092 116.625, 122.560 124.792, 122.894 125.150 C 123.934 126.264, 151.695 127.303, 152.345 126.252 C 152.671 125.723, 147.150 105.088, 140.075 80.396 C 133 55.703, 126.959 36.175, 126.650 37 M 62.075 84.284 C 63.088 88.803, 65.369 99.138, 67.142 107.250 C 69.632 118.644, 70.722 121.994, 71.933 121.974 C 72.795 121.960, 77.550 118.913, 82.500 115.203 L 91.500 108.458 91.500 101.534 L 91.500 94.609 78.500 86.753 C 71.350 82.433, 64.315 78.261, 62.866 77.483 L 60.232 76.069 62.075 84.284 M 116.633 89.891 C 116.065 93.447, 115.063 94.490, 105.006 101.996 L 94 110.209 94 114.994 C 94 122.788, 95.481 123.762, 108.553 124.558 L 119.605 125.232 121.357 106.459 C 123.198 86.730, 123.116 86.055, 118.878 86.015 C 117.762 86.005, 117.061 87.214, 116.633 89.891 M 84.500 117.166 L 77.500 122.500 85 123 C 89.125 123.275, 92.535 123.500, 92.577 123.500 C 92.620 123.500, 92.395 120.875, 92.077 117.666 L 91.500 111.832 84.500 117.166 M 45.031 140.186 C 37.072 149.098, 31.222 155.996, 32.031 155.516 C 32.839 155.035, 37.403 152.034, 42.174 148.847 C 46.945 145.659, 51.380 142.927, 52.030 142.775 C 52.694 142.621, 57.459 151.474, 62.916 163 C 70.804 179.664, 72.983 183.476, 74.560 183.372 C 81.337 182.925, 143 174.429, 143 173.943 C 143 173.614, 137.037 171, 129.750 168.134 C 119.418 164.071, 110.609 159.381, 89.750 146.833 C 75.037 137.983, 63 130.125, 63 129.371 C 63 128.617, 63.225 128, 63.501 128 C 63.776 128, 73.523 131.153, 85.161 135.007 C 96.799 138.860, 106.515 141.818, 106.753 141.580 C 106.991 141.342, 104.600 137.804, 101.438 133.718 L 95.691 126.288 84.740 125.661 C 76.040 125.164, 73.365 125.332, 71.726 126.479 C 69.919 127.745, 69.527 127.735, 68.547 126.395 C 67.933 125.555, 65.646 124.668, 63.465 124.425 L 59.500 123.982 45.031 140.186 M 158.019 132.250 C 158.029 132.938, 160.699 142.500, 163.952 153.500 C 169.739 173.067, 169.869 173.368, 169.934 167.409 C 169.970 164.059, 169.705 154.496, 169.344 146.159 L 168.688 131 163.344 131 C 159.726 131, 158.006 131.404, 158.019 132.250" stroke="none" fill="black" fill-rule="evenodd"/>
</svg>