<svg xmlns="http://www.w3.org/2000/svg" width="200" height="200" viewBox="0 0 200 200" version="1.1">
	<path d="M 86.008 23.261 C 60.987 27.600, 40.347 31.319, 40.142 31.525 C 39.936 31.731, 42.949 35.616, 46.836 40.159 L 53.905 48.419 49.202 51.771 C 46.616 53.615, 38.318 59.484, 30.762 64.812 C 18.247 73.637, 14.800 77, 18.268 77 C 18.965 77, 27.566 75.404, 37.380 73.454 C 47.195 71.504, 55.595 70.041, 56.047 70.204 C 56.499 70.367, 52.165 79.267, 46.416 89.981 C 40.264 101.447, 36.212 110.088, 36.566 110.981 C 37 112.074, 40.909 108.570, 50.493 98.500 C 57.821 90.800, 64.045 84.725, 64.324 85 C 65.406 86.067, 73 102.468, 73 103.739 C 73 104.479, 62.146 117.926, 48.880 133.622 C 33.672 151.615, 25.110 162.510, 25.708 163.108 C 26.306 163.706, 34.016 160.934, 46.573 155.606 C 57.527 150.959, 66.622 147.289, 66.784 147.450 C 67.435 148.101, 49.522 175.757, 46.199 179.232 C 44.236 181.284, 42.850 183.183, 43.119 183.452 C 43.387 183.721, 59.333 182.324, 78.554 180.347 C 109.250 177.191, 117.733 176.695, 148.303 176.271 C 178.827 175.848, 183.069 175.600, 182.803 174.260 C 182.623 173.352, 173.362 168.531, 160 162.389 C 139.010 152.740, 137.459 151.847, 136.885 149.068 C 136.547 147.430, 135.457 140.035, 134.463 132.635 L 132.656 119.181 129.703 118.591 C 128.079 118.266, 125.448 118, 123.856 118 C 120.325 118, 120.145 118.954, 128.088 95.500 C 132.011 83.918, 133.870 79.536, 133.923 81.750 C 133.972 83.840, 134.502 85, 135.407 85 C 136.478 85, 136.959 82.673, 137.423 75.250 C 137.848 68.462, 139.016 62.326, 141.267 55.055 L 144.500 44.609 145.116 52.837 C 145.454 57.362, 145.904 61.198, 146.116 61.361 C 146.327 61.524, 152.125 64.697, 159 68.413 C 165.875 72.128, 171.864 75.517, 172.310 75.944 C 172.755 76.370, 165.834 85.589, 156.931 96.431 C 146.454 109.187, 141.085 116.485, 141.713 117.113 C 142.342 117.742, 148.651 110.808, 159.592 97.461 C 168.892 86.118, 176.500 76.375, 176.500 75.809 C 176.500 75.244, 170.200 71.343, 162.500 67.140 L 148.500 59.500 148.221 46.250 C 148.009 36.199, 147.629 33, 146.644 33 C 145.849 33, 143.440 38.979, 140.423 48.443 C 136.524 60.674, 135.084 64, 133.500 64.430 C 132.400 64.728, 123.542 64.979, 113.816 64.986 L 96.133 65 95.816 62.268 C 95.529 59.790, 94.583 59.203, 85.600 55.933 C 74.199 51.783, 74.602 51, 88.137 51 L 97.111 51 99.609 45.542 L 102.108 40.085 112.612 47.651 C 118.390 51.812, 123.389 54.944, 123.722 54.611 C 124.662 53.672, 132.764 15.961, 132.094 15.647 C 131.767 15.495, 111.028 18.921, 86.008 23.261 M 85.507 26.173 C 63.511 30.012, 45.342 33.325, 45.131 33.536 C 44.920 33.747, 47.741 37.264, 51.400 41.351 L 58.051 48.784 41.525 60.557 C 32.435 67.033, 25.148 72.482, 25.332 72.665 C 25.516 72.849, 33.467 71.424, 43.002 69.500 C 54.744 67.129, 63.090 66, 68.865 66 C 76.755 66, 77.600 65.800, 80.195 63.313 L 83 60.626 83 63.368 C 83 66.015, 83.164 66.099, 87.750 65.805 C 91.615 65.557, 92.553 65.127, 92.783 63.500 C 93.026 61.777, 91.194 60.826, 79.533 56.628 C 63.869 50.989, 62.105 49.003, 72.750 48.994 C 76.463 48.991, 83.166 48.703, 87.647 48.354 L 95.794 47.719 98.340 41.818 L 100.886 35.917 111.193 43.362 C 117.775 48.116, 121.725 50.389, 122.123 49.653 C 122.657 48.666, 129 20.835, 129 19.480 C 129 18.639, 126.280 19.058, 85.507 26.173 M 110.475 67.746 L 96.451 68.052 97.154 75.776 C 97.541 80.024, 97.890 84.513, 97.929 85.750 C 97.999 87.979, 98.140 88, 112.787 88 L 127.575 88 130.787 78.199 C 132.554 72.808, 134 68.083, 134 67.699 C 134 67.314, 131.863 67.099, 129.250 67.220 C 126.638 67.341, 118.189 67.578, 110.475 67.746 M 82.518 69.250 C 82.287 69.938, 81.360 76.800, 80.458 84.500 C 79.556 92.200, 78.440 99.981, 77.978 101.792 C 77.224 104.747, 78.478 107.944, 90.233 133.044 C 97.435 148.423, 103.514 160.819, 103.741 160.592 C 103.969 160.365, 106.984 151.388, 110.441 140.644 C 115.530 124.831, 116.452 121.004, 115.282 120.555 C 114.487 120.250, 110.161 119.955, 105.668 119.900 C 91.233 119.724, 91.162 120.288, 107.528 105 C 115.477 97.575, 121.647 91.419, 121.240 91.321 C 120.833 91.222, 114.809 90.842, 107.853 90.476 L 95.206 89.811 94.494 78.905 L 93.781 68 88.359 68 C 84.912 68, 82.784 68.455, 82.518 69.250 M 61 70.040 C 61 70.612, 61.926 72.895, 63.058 75.114 C 65.384 79.674, 65.809 79.554, 71.122 72.846 L 74.168 69 67.584 69 C 63.693 69, 61 69.425, 61 70.040 M 72.584 75.170 C 69.513 78.564, 67 81.857, 67 82.488 C 67 83.118, 68.941 87.629, 71.313 92.511 L 75.625 101.387 77.612 85.193 C 78.705 76.287, 79.277 69, 78.884 69 C 78.490 69, 75.655 71.777, 72.584 75.170 M 55.761 78.250 C 54.300 81.138, 50.834 87.662, 48.059 92.750 C 45.284 97.838, 43.167 102, 43.353 102 C 43.540 102, 48.056 97.295, 53.389 91.544 L 63.085 81.087 61.022 77.044 C 59.888 74.820, 58.837 73, 58.688 73 C 58.539 73, 57.221 75.362, 55.761 78.250 M 112.235 104.235 C 105.030 110.963, 99.217 116.527, 99.317 116.598 C 99.418 116.670, 103.642 117.029, 108.705 117.397 L 117.910 118.065 121.933 105.344 C 124.146 98.347, 125.817 92.483, 125.646 92.313 C 125.476 92.142, 119.441 97.507, 112.235 104.235 M 52.889 132.896 C 41.003 146.978, 31.376 158.623, 31.496 158.773 C 31.615 158.924, 41.112 155.021, 52.600 150.100 C 64.088 145.179, 73.618 141.285, 73.779 141.446 C 74.128 141.795, 52.356 176.803, 50.377 179.077 C 49.165 180.468, 49.326 180.614, 51.752 180.320 C 78.778 177.044, 111.057 174.616, 140.422 173.649 L 175.344 172.500 155.922 163.621 C 145.240 158.738, 135.997 154.238, 135.381 153.621 C 134.766 153.005, 133.495 146.425, 132.557 139 C 130.092 119.496, 130.693 120.849, 124.651 121.202 L 119.542 121.500 112.021 144.744 C 107.884 157.529, 104.274 167.991, 103.999 167.994 C 103.723 167.997, 97.198 154.462, 89.499 137.916 C 81.799 121.369, 75.275 107.710, 75 107.562 C 74.725 107.413, 64.775 118.814, 52.889 132.896" stroke="none" fill="black" fill-rule="evenodd"/>
</svg>