<svg xmlns="http://www.w3.org/2000/svg" width="200" height="200" viewBox="0 0 200 200" version="1.1">
	<path d="M 49 14.018 C 49 14.578, 51.250 19.520, 54 25 C 56.750 30.480, 59 35.345, 59 35.810 C 59 36.276, 51.913 37.211, 43.250 37.889 C 34.587 38.567, 26.262 39.599, 24.750 40.182 L 22 41.243 22.003 51.871 C 22.010 74.620, 23.270 97, 24.544 97 C 25.467 97, 25.957 90.395, 26.509 70.500 C 27.025 51.945, 27.583 43.999, 28.373 43.996 C 28.993 43.993, 37.524 44.748, 47.331 45.673 L 65.161 47.354 70.991 58.927 C 75.552 67.980, 76.968 70.065, 77.494 68.500 C 79.541 62.419, 79.427 62.432, 82.922 67.878 L 86.237 73.044 81.940 82.518 L 77.643 91.992 73.588 89.597 C 70.558 87.808, 67.759 84.419, 62.516 76.195 C 58.657 70.141, 55.319 65.364, 55.098 65.579 C 54.877 65.794, 55.260 81.839, 55.947 101.235 L 57.198 136.500 43.011 167 C 35.208 183.775, 28.590 198.063, 28.305 198.750 C 27.994 199.500, 28.565 200, 29.733 200 C 31.159 200, 35.633 194.069, 46.464 177.818 L 61.247 155.636 60.561 146.285 L 59.875 136.934 69.089 116.967 C 74.158 105.985, 78.727 97, 79.244 97 C 81.208 97, 104.068 111.813, 102.815 112.274 C 101.947 112.593, 103.136 114.447, 106.315 117.729 L 111.131 122.701 104.919 123.351 C 101.502 123.708, 92.698 124, 85.353 124 C 78.009 124, 72 124.297, 72 124.661 C 72 125.325, 88.196 155.847, 92.726 163.719 L 95.154 167.938 86.577 172.192 C 72.053 179.395, 71.732 179.339, 124.003 178.801 C 149.304 178.541, 170.230 178.104, 170.503 177.830 C 170.777 177.556, 169.201 172.908, 167 167.501 C 164.800 162.093, 163 157.055, 163 156.305 C 163 155.554, 165.436 146.291, 168.414 135.720 L 173.828 116.500 174.434 93.611 L 175.040 70.722 166.770 71.343 C 155.291 72.206, 125.282 73.108, 126.500 72.554 C 127.050 72.303, 134.012 71.167, 141.971 70.029 C 149.929 68.890, 156.733 67.631, 157.089 67.229 C 157.445 66.828, 159.846 57.050, 162.423 45.500 C 165.001 33.950, 167.359 23.488, 167.664 22.250 L 168.217 20 128.147 20 L 88.077 20 86.985 24.250 C 84.328 34.586, 84.434 34.506, 72.374 35.142 L 65.589 35.500 58.545 24.296 C 52.322 14.400, 49 10.822, 49 14.018 M 88.989 27.250 C 88.391 29.587, 87.712 32.065, 87.480 32.755 C 87.161 33.707, 88.444 33.875, 92.779 33.453 C 102.424 32.512, 105.086 31.938, 105.571 30.695 C 105.901 29.848, 110.697 29.448, 122.018 29.320 C 135.291 29.171, 138 29.383, 138 30.570 C 138 31.357, 137.438 32.013, 136.750 32.030 C 136.063 32.046, 129.200 32.712, 121.500 33.509 C 113.800 34.306, 107.368 34.968, 107.208 34.979 C 107.047 34.991, 105.580 37.813, 103.949 41.250 L 100.982 47.500 106.741 48.229 C 109.909 48.630, 115.113 49.228, 118.307 49.558 C 124.946 50.244, 125.947 52.693, 119.395 52.218 C 115.610 51.944, 115.746 52.085, 124.219 57.218 C 129.014 60.123, 132.951 63.063, 132.969 63.750 C 133.021 65.835, 131.405 65.215, 123.191 60 C 118.859 57.250, 114.856 55, 114.294 55 C 113.332 55, 106.954 71.079, 107.602 71.869 C 107.769 72.073, 118.331 70.738, 131.073 68.903 C 151.693 65.934, 154.335 65.344, 155.107 63.534 C 156.120 61.161, 164 26.489, 164 24.408 C 164 23.223, 158.157 23, 127.039 23 L 90.077 23 88.989 27.250 M 96.500 35.675 C 86.947 36.483, 86.392 36.749, 85.071 41.157 C 83.543 46.256, 84.354 46.963, 91.750 46.985 C 94.638 46.993, 97.226 47.112, 97.502 47.250 C 97.778 47.388, 99.334 44.688, 100.959 41.250 C 103.481 35.918, 103.664 35.025, 102.208 35.168 C 101.268 35.261, 98.700 35.488, 96.500 35.675 M 73.750 37.739 C 70.588 37.937, 68 38.345, 68 38.646 C 68 40.843, 71.777 44.905, 74.286 45.407 C 79.992 46.548, 80.852 46.194, 81.947 42.250 C 83.331 37.267, 83.290 36.969, 81.250 37.189 C 80.287 37.293, 76.912 37.541, 73.750 37.739 M 46 40.421 L 35.500 41.553 41.500 42.255 C 53.760 43.689, 63 44.255, 63 43.572 C 63 43.185, 62.534 41.998, 61.965 40.934 C 60.819 38.793, 61.020 38.800, 46 40.421 M 66 43 C 66.589 44.100, 67.295 45, 67.570 45 C 67.845 45, 67.589 44.100, 67 43 C 66.411 41.900, 65.705 41, 65.430 41 C 65.155 41, 65.411 41.900, 66 43 M 69 48.481 C 69 49.763, 75.530 62, 76.215 62 C 77.858 62, 76.881 58.605, 73.750 53.429 C 70.955 48.808, 69 46.772, 69 48.481 M 74 48.487 C 74 48.874, 74.988 50.579, 76.197 52.276 L 78.393 55.361 79.164 52.481 C 79.587 50.897, 79.835 49.502, 79.715 49.382 C 79.020 48.687, 74 47.901, 74 48.487 M 82.138 52.231 C 80.314 58.025, 80.444 58.886, 84 64.521 L 87.500 70.068 92.129 60.284 C 94.675 54.903, 96.700 50.449, 96.629 50.387 C 96.558 50.324, 93.500 49.978, 89.834 49.617 L 83.168 48.961 82.138 52.231 M 94.694 61.250 C 89.114 73.399, 88.826 75.383, 92.750 74.633 C 94.263 74.344, 97.368 73.826, 99.651 73.482 L 103.802 72.858 107.561 62.837 C 111.821 51.480, 111.687 51.041, 103.950 51.015 L 99.401 51 94.694 61.250 M 120.750 73.662 C 121.438 73.940, 122.563 73.940, 123.250 73.662 C 123.938 73.385, 123.375 73.158, 122 73.158 C 120.625 73.158, 120.063 73.385, 120.750 73.662 M 138.500 75.559 C 125.850 76.260, 113.198 76.872, 110.384 76.917 L 105.268 77 103.048 83.089 C 101.671 86.865, 101.071 90.146, 101.467 91.726 C 102.206 94.670, 97.544 94.876, 139.476 90.045 C 158.282 87.878, 165.735 87.355, 166.476 88.151 C 167.153 88.877, 167.161 89.394, 166.500 89.674 C 165.950 89.908, 154.025 94.712, 140 100.351 C 123.152 107.126, 114.500 111.095, 114.500 112.050 C 114.500 113.791, 118.711 116.015, 129.798 120.131 C 134.559 121.898, 137.935 123.699, 137.718 124.356 C 137.494 125.033, 134.438 125.619, 130.229 125.793 L 123.118 126.085 129.686 136.462 C 133.298 142.170, 136.231 147.202, 136.202 147.645 C 136.039 150.161, 133.299 147.876, 124.066 137.525 L 113.784 126 101.642 126.124 C 94.964 126.193, 86.519 126.530, 82.876 126.874 L 76.252 127.500 87.101 147.500 C 93.067 158.500, 97.960 167.980, 97.974 168.566 C 97.988 169.153, 95.265 170.939, 91.922 172.537 C 88.580 174.135, 85.697 175.680, 85.517 175.971 C 85.167 176.536, 166.190 176.144, 166.756 175.578 C 166.940 175.393, 165.425 171.080, 163.389 165.992 L 159.687 156.743 165.384 136.621 L 171.081 116.500 171.699 95.250 L 172.317 74 166.909 74.141 C 163.934 74.219, 151.150 74.857, 138.500 75.559 M 58.579 96 C 58.939 107.825, 59.519 120.108, 59.867 123.295 L 60.500 129.089 68.250 112.181 C 72.513 102.881, 76 95.014, 76 94.700 C 76 94.385, 74.147 93.087, 71.882 91.814 C 69.046 90.220, 66.234 87.166, 62.845 82 L 57.925 74.500 58.579 96 M 96.763 77.892 L 93.026 78.500 95.702 82.971 L 98.377 87.442 99.565 84.471 C 101.593 79.399, 102.168 76.994, 101.317 77.142 C 100.868 77.220, 98.818 77.557, 96.763 77.892 M 83.522 85.659 C 81.576 89.871, 80.155 93.488, 80.364 93.698 C 81.826 95.160, 106.755 109.998, 107.750 109.999 C 109.552 110, 109.380 109.499, 105.512 103.452 C 102.342 98.496, 101.696 98, 98.405 98 C 95.505 98, 94.907 97.683, 95.397 96.407 C 97.262 91.548, 97.029 90.185, 93.315 84.184 C 91.217 80.795, 88.951 78.017, 88.280 78.011 C 87.609 78.005, 85.468 81.446, 83.522 85.659 M 131.500 93.585 C 120.500 94.886, 110.034 96.300, 108.243 96.726 L 104.985 97.500 108.220 102.750 C 109.999 105.638, 111.925 108, 112.501 108 C 113.076 108, 122.986 104.195, 134.523 99.545 C 146.060 94.895, 154.600 91.119, 153.500 91.154 C 152.400 91.189, 142.500 92.283, 131.500 93.585 M 110.477 118.406 C 112.550 120.936, 115.096 123, 116.144 123 C 117.955 123, 117.965 122.877, 116.370 120.442 C 115.449 119.036, 112.899 116.969, 110.704 115.849 L 106.713 113.813 110.477 118.406 M 120.032 121.060 C 120.753 122.407, 122.129 123, 124.535 123 C 126.441 123, 128 122.817, 128 122.594 C 128 122.371, 125.974 121.498, 123.497 120.654 C 119.119 119.162, 119.022 119.173, 120.032 121.060 M 119.885 128.839 C 123.267 133.589, 125.535 134.795, 122.537 130.250 C 120.996 127.912, 119.313 126, 118.799 126 C 118.285 126, 118.773 127.277, 119.885 128.839 M 55.354 147 C 48.942 160.551, 38.001 184.486, 38.004 184.956 C 38.006 185.255, 42.529 178.705, 48.055 170.399 L 58.103 155.299 57.793 148.899 L 57.483 142.500 55.354 147" stroke="none" fill="black" fill-rule="evenodd"/>
</svg>