<svg xmlns="http://www.w3.org/2000/svg" width="200" height="200" viewBox="0 0 200 200" version="1.1">
	<path d="M 148 26.627 C 146.625 26.828, 120.566 28.115, 90.091 29.488 C 59.617 30.861, 34.484 32.182, 34.241 32.425 C 31.903 34.764, 38.254 34.976, 92.313 34.367 C 123.766 34.012, 149.275 33.959, 149 34.248 C 148.046 35.251, 133.392 38.833, 113.041 43.038 L 92.581 47.266 77.144 46.132 C 68.654 45.508, 61.211 45.378, 60.604 45.842 C 59.997 46.307, 53.987 51.081, 47.250 56.451 L 35 66.214 34.974 73.857 C 34.959 78.061, 34.532 93.207, 34.024 107.515 L 33.101 133.529 25.989 158.760 C 19.501 181.773, 18.521 187.032, 21.004 185.498 C 21.480 185.203, 29.846 173.538, 39.594 159.576 L 57.317 134.189 72.261 127.105 C 80.481 123.209, 86.987 120.579, 86.719 121.261 C 86.452 121.942, 78.545 135.302, 69.149 150.949 C 59.752 166.596, 52.260 179.593, 52.499 179.832 C 52.737 180.071, 57.179 179.704, 62.368 179.017 L 71.804 177.769 97.652 156.360 L 123.500 134.952 124.075 152.226 C 124.649 169.439, 126.672 189.813, 127.953 191.263 C 128.324 191.683, 140.232 181.145, 154.417 167.846 C 179.240 144.571, 180.118 143.619, 177.853 142.468 C 176.559 141.810, 166.050 137.300, 154.500 132.445 C 142.950 127.590, 133.344 123.511, 133.154 123.379 C 132.963 123.248, 134.158 121.178, 135.808 118.779 L 138.809 114.417 159.655 110.622 C 185.763 105.869, 185 106.056, 185 104.392 C 185 103.231, 179.565 103.002, 152.250 103.010 C 134.238 103.016, 114.287 103.478, 107.915 104.037 L 96.331 105.054 82.132 96.335 C 72.991 90.723, 68.395 87.359, 69.229 86.892 C 69.942 86.493, 84.920 86.062, 102.513 85.936 C 130.292 85.735, 137.041 86.001, 153.813 87.956 C 164.435 89.194, 173.348 89.985, 173.621 89.713 C 173.893 89.441, 172.385 75.106, 170.270 57.859 L 166.424 26.500 158.462 26.382 C 154.083 26.316, 149.375 26.427, 148 26.627 M 150 29.269 C 116.074 31.200, 112.183 31.777, 136.750 31.232 C 159.034 30.737, 161 30.830, 161 32.378 C 161 33.305, 160.276 34.341, 159.391 34.680 C 158.506 35.020, 156.733 36.243, 155.452 37.399 C 154.171 38.554, 147.807 42.462, 141.311 46.082 L 129.500 52.664 114.500 51.705 C 102.481 50.938, 98.606 51.021, 95 52.124 C 90.730 53.430, 91.381 53.514, 107.750 53.774 C 118.118 53.938, 125 54.437, 125 55.024 C 125 55.630, 116.476 56, 102.514 56 C 82.096 56, 70.984 57.043, 71.006 58.957 C 71.015 59.694, 93.184 70.022, 94.730 70.010 C 95.406 70.004, 108.663 65.275, 124.189 59.500 C 139.715 53.725, 152.774 49, 153.209 49 C 153.644 49, 153.997 49.563, 153.992 50.250 C 153.985 51.513, 96.862 73.137, 94 72.960 C 93.175 72.910, 85.750 69.579, 77.500 65.560 C 63.602 58.788, 62.684 58.173, 65 57.189 C 67.468 56.141, 67.458 56.126, 64.250 56.063 C 62.271 56.025, 61 55.488, 61 54.691 C 61 53.827, 64.490 52.699, 71.250 51.378 L 81.500 49.374 71.828 48.599 L 62.155 47.825 50.078 57.520 C 41.417 64.471, 38 67.821, 37.999 69.357 C 37.999 70.536, 37.519 85.527, 36.933 102.671 L 35.867 133.842 30.003 154.657 C 26.778 166.106, 24.261 175.594, 24.410 175.743 C 24.559 175.892, 31.681 166.060, 40.238 153.895 L 55.795 131.776 74.566 122.890 C 84.890 118.003, 93.501 114.168, 93.702 114.369 C 93.903 114.570, 85.741 128.608, 75.566 145.566 C 65.390 162.523, 57.179 176.513, 57.320 176.653 C 57.461 176.794, 60.591 176.482, 64.275 175.961 L 70.974 175.012 98.237 152.332 L 125.500 129.653 126.141 135.577 C 126.494 138.834, 126.832 146.645, 126.891 152.932 C 126.988 163.110, 128.285 178.408, 129.592 184.799 C 130.007 186.824, 132.745 184.572, 152.605 165.880 C 171.111 148.460, 174.850 144.496, 173.492 143.735 C 172.581 143.226, 162.322 138.776, 150.694 133.847 C 139.066 128.918, 129.387 124.720, 129.186 124.519 C 128.423 123.756, 137.061 112.119, 138.739 111.648 C 139.708 111.377, 146.350 110.107, 153.500 108.827 L 166.500 106.500 147.500 105.915 C 135.611 105.549, 122.363 105.811, 112.104 106.615 L 95.709 107.900 76.604 96.200 L 57.500 84.500 71.500 83.872 C 102.829 82.467, 133.224 82.916, 152.083 85.064 C 162.050 86.199, 170.370 86.963, 170.571 86.763 C 170.913 86.420, 164.247 30.082, 163.736 29 C 163.606 28.725, 157.425 28.846, 150 29.269 M 140.500 40.140 C 129.248 42.766, 112.403 47.359, 111.692 47.994 C 111.248 48.391, 115.073 48.962, 120.192 49.263 L 129.500 49.809 138.250 44.780 C 143.063 42.014, 147 39.582, 147 39.376 C 147 38.842, 145.106 39.065, 140.500 40.140 M 80.813 52.683 C 81.534 52.972, 82.397 52.936, 82.729 52.604 C 83.061 52.272, 82.471 52.036, 81.417 52.079 C 80.252 52.127, 80.015 52.364, 80.813 52.683" stroke="none" fill="black" fill-rule="evenodd"/>
</svg>