<svg xmlns="http://www.w3.org/2000/svg" width="200" height="200" viewBox="0 0 200 200" version="1.1">
	<path d="M 93.337 25.622 C 84.641 39.715, 77.052 51.426, 76.473 51.649 C 75.893 51.871, 65.324 49.367, 52.985 46.085 C 40.646 42.802, 30.408 40.259, 30.234 40.432 C 30.061 40.606, 30.322 51.267, 30.816 64.124 C 31.669 86.362, 31.570 88.887, 28.782 116 C 26.361 139.539, 25.003 148.238, 20.979 165.974 C 17.501 181.304, 16.433 187.650, 17.246 188.152 C 18.410 188.872, 21.347 185.082, 40.500 158.155 C 47.473 148.351, 50.954 144.251, 52 144.611 C 52.825 144.895, 58.815 148.536, 65.312 152.701 C 71.816 156.872, 77.476 159.877, 77.908 159.388 C 78.339 158.900, 84.450 149.050, 91.488 137.500 L 104.284 116.500 100.574 99.500 C 98.533 90.150, 96.431 80.830, 95.903 78.789 L 94.944 75.077 86.293 74.789 L 77.642 74.500 85.736 65.176 C 90.188 60.048, 94.130 55.773, 94.497 55.676 C 94.863 55.579, 98.277 64.050, 102.083 74.500 C 107.804 90.208, 109.848 97.615, 113.876 117.253 L 118.749 141.006 97.875 159.228 C 79.706 175.088, 74.927 180, 77.667 180 C 78.035 180, 85.230 176.846, 93.657 172.992 L 108.978 165.983 145.239 169.992 C 165.183 172.197, 182.219 174.113, 183.097 174.250 C 183.975 174.388, 184.818 174.161, 184.969 173.746 C 185.402 172.563, 183.824 122, 183.354 122 C 183.123 122, 176.087 124.974, 167.717 128.609 C 159.348 132.244, 151.872 135.467, 151.103 135.772 C 150.335 136.077, 155.394 125.140, 162.346 111.467 C 171.088 94.272, 174.621 86.384, 173.806 85.880 C 173.158 85.480, 167.346 83.020, 160.891 80.415 L 149.153 75.677 140.445 78.849 C 133.502 81.379, 132.017 81.667, 133.119 80.269 C 133.878 79.305, 138.523 73.788, 143.440 68.008 L 152.379 57.500 167.662 50.944 C 176.068 47.338, 183.185 44.149, 183.477 43.856 C 184.039 43.294, 145.092 13.356, 142.508 12.365 C 141.201 11.863, 140.998 14.032, 140.985 28.643 C 140.976 37.914, 140.623 46.045, 140.200 46.710 C 139.747 47.424, 137.054 40.750, 133.643 30.460 C 130.459 20.857, 127.708 13, 127.530 13 C 127.351 13, 120.205 21.109, 111.648 31.019 C 98.186 46.611, 95.957 48.789, 95.101 47.189 C 94.273 45.641, 95.325 44.134, 101.556 37.945 C 105.650 33.878, 109 30.201, 109 29.775 C 109 27.349, 105.198 30.327, 93.890 41.609 C 86.940 48.544, 80.985 53.785, 80.657 53.254 C 80.329 52.723, 86.841 41.312, 95.128 27.895 C 113.367 -1.636, 112.459 0, 110.609 0 C 109.776 0, 102.344 11.026, 93.337 25.622 M 143.659 31.250 C 143.301 39.088, 143.006 48.538, 143.004 52.250 C 143.001 57.497, 142.675 59, 141.541 59 C 140.527 59, 138.035 52.729, 133.376 38.451 C 128.008 22.006, 126.423 18.162, 125.438 19.201 C 116.288 28.856, 96.993 52.540, 97.404 53.611 C 107.999 81.221, 112.461 95.984, 116.940 118.254 L 121.718 142.007 104.359 157.094 C 94.811 165.392, 87 172.360, 87 172.578 C 87 172.796, 89.475 171.855, 92.500 170.487 C 95.525 169.119, 100.384 166.921, 103.298 165.602 L 108.596 163.204 145.304 167.263 C 165.493 169.495, 182.167 171.137, 182.356 170.911 C 182.735 170.459, 181.027 126.694, 180.615 126.281 C 180.474 126.141, 172.574 129.416, 163.060 133.560 C 153.546 137.704, 145.564 140.897, 145.323 140.656 C 145.081 140.415, 150.760 128.472, 157.942 114.116 C 165.124 99.760, 171 87.856, 171 87.663 C 171 87.469, 166.069 85.378, 160.043 83.017 L 149.086 78.723 137.011 82.996 C 130.370 85.346, 124.761 87.094, 124.547 86.880 C 124.334 86.667, 130.085 79.472, 137.329 70.892 L 150.500 55.292 159.500 51.460 C 164.450 49.352, 170.915 46.569, 173.867 45.274 L 179.235 42.921 161.948 29.961 C 152.440 22.832, 144.582 17, 144.486 17 C 144.390 17, 144.018 23.412, 143.659 31.250 M 33.580 67.750 C 34.199 89.334, 34.019 93.825, 31.605 117 C 29.693 135.358, 27.811 147.633, 24.886 160.828 C 22.651 170.908, 20.995 179.328, 21.206 179.539 C 21.416 179.750, 28.052 170.957, 35.951 159.999 C 44.455 148.202, 50.759 140.344, 51.407 140.733 C 52.008 141.095, 57.345 144.470, 63.267 148.233 C 69.189 151.997, 74.650 155.312, 75.403 155.601 C 76.334 155.958, 80.524 150.008, 88.493 137.011 C 94.940 126.497, 100.408 117.131, 100.645 116.198 C 100.882 115.264, 99.258 106.448, 97.038 96.608 C 94.817 86.767, 93 78.554, 93 78.358 C 93 78.161, 88.881 78, 83.846 78 L 74.692 78 71.096 82.210 C 69.118 84.526, 67.657 86.889, 67.849 87.460 C 68.509 89.429, 74.059 135.455, 73.780 136.648 C 73.499 137.846, 49 106.119, 49 104.558 C 49 104.100, 51.541 100.750, 54.647 97.113 C 59.397 91.551, 59.993 90.445, 58.397 90.153 C 54.826 89.500, 54.725 88.168, 57.861 83.071 L 60.982 78 53.301 78 L 45.620 78 58.560 69.561 C 71.206 61.313, 76.972 55.629, 73.811 54.527 C 71.372 53.676, 34.506 44.002, 33.700 44.001 C 33.259 44, 33.206 54.688, 33.580 67.750 M 83.064 56.586 C 75.429 61.717, 72.895 64.079, 69.790 68.963 L 65.951 75 69.829 75 C 73.491 75, 74.176 74.458, 82.104 65.287 C 97.084 47.957, 97.179 47.100, 83.064 56.586 M 60.237 71.527 C 57.356 73.466, 55 75.184, 55 75.344 C 55 75.504, 56.821 75.379, 59.046 75.067 C 62.209 74.624, 63.540 73.791, 65.144 71.250 C 67.767 67.096, 66.729 67.154, 60.237 71.527 M 62.771 80.250 C 61.968 81.487, 60.775 83.513, 60.120 84.750 C 59.046 86.779, 59.157 87, 61.253 87 C 62.783 87, 64.861 85.463, 67.338 82.500 L 71.100 78 67.665 78 C 65.202 78, 63.817 78.637, 62.771 80.250 M 58.142 97.155 C 54.545 101.397, 52.365 104.796, 52.787 105.503 C 54.948 109.118, 69.454 127.880, 69.811 127.522 C 70.510 126.823, 65.731 90, 64.940 90 C 64.539 90, 61.479 93.220, 58.142 97.155" stroke="none" fill="black" fill-rule="evenodd"/>
</svg>