<svg xmlns="http://www.w3.org/2000/svg" width="200" height="200" viewBox="0 0 200 200" version="1.1">
	<path d="M 130.500 19.162 L 119.500 26.289 86.696 25.747 C 58.229 25.276, 53.933 25.398, 54.196 26.668 C 54.363 27.474, 57.425 29.440, 61 31.038 C 66.752 33.610, 68.650 33.947, 77.500 33.969 C 95.628 34.015, 125 32.699, 125 31.842 C 125 31.379, 112.063 30.980, 96.250 30.955 C 73.991 30.920, 66.823 30.598, 64.500 29.529 C 61.900 28.333, 65.389 28.226, 90.664 28.733 L 119.827 29.317 129.334 23.159 C 134.563 19.771, 139.003 17, 139.201 17 C 139.399 17, 139.011 22.512, 138.339 29.250 C 137.667 35.987, 137.091 41.804, 137.059 42.177 C 137.026 42.549, 134.570 44.243, 131.601 45.942 C 128.632 47.641, 125.887 49.812, 125.503 50.766 C 122.525 58.152, 116.036 77.369, 116.397 77.730 C 116.645 77.978, 120.385 76.340, 124.709 74.090 C 129.034 71.841, 132.947 70, 133.405 70 C 134.402 70, 133.250 87.973, 131.921 93.134 C 130.423 98.954, 128.962 99.521, 123.112 96.557 C 120.337 95.151, 117.827 94, 117.533 94 C 115.810 94, 117.587 97.160, 121.434 100.935 L 125.868 105.287 117.860 121.279 C 112.977 131.031, 110.467 137.023, 111.426 136.635 C 112.292 136.286, 113.753 135.697, 114.674 135.326 C 116.009 134.789, 116.198 135.041, 115.609 136.576 C 115.202 137.634, 111.254 148.850, 106.835 161.500 C 102.416 174.150, 98.711 184.597, 98.602 184.715 C 98.493 184.833, 89.991 179.608, 79.708 173.105 L 61.012 161.281 73.006 151.912 C 79.603 146.760, 85 142.250, 85 141.892 C 85 141.534, 82.538 139.382, 79.529 137.110 L 74.058 132.979 77.207 124.740 C 80.041 117.323, 80.431 114.952, 81.114 101 C 81.841 86.166, 81.352 82.158, 79.109 84.550 C 78.619 85.073, 73.698 94.140, 68.172 104.699 C 59.239 121.770, 56.373 126.163, 42.313 144.332 C 33.616 155.570, 26.423 164.703, 26.328 164.627 C 25.464 163.933, 33.672 135.260, 40.958 113.521 C 45.931 98.682, 50 86.259, 50 85.914 C 50 85.569, 45.958 82.439, 41.019 78.958 C 36.079 75.477, 32.172 72.494, 32.337 72.330 C 32.502 72.165, 42.233 72.659, 53.960 73.428 L 75.284 74.826 82.071 72.163 C 88.121 69.790, 90.688 67.762, 105.680 53.511 C 121.241 38.719, 124.573 35, 122.261 35 C 121.775 35, 113.599 42.313, 104.093 51.250 C 89.305 65.153, 85.941 67.829, 80.795 69.777 L 74.781 72.055 50.357 70.461 C 36.924 69.584, 25.224 69.009, 24.358 69.183 C 23.441 69.368, 27.843 73.022, 34.892 77.930 C 41.551 82.566, 47 86.401, 47 86.452 C 47 86.503, 43.153 98.009, 38.451 112.022 C 28.483 141.730, 21.205 169.891, 23.180 171.111 C 23.874 171.540, 24.500 171.803, 24.570 171.696 C 24.640 171.588, 32.726 161.150, 42.538 148.500 C 58.244 128.252, 61.445 123.466, 69.293 108.500 C 74.197 99.150, 78.449 91.275, 78.742 91 C 79.036 90.725, 79 95.900, 78.664 102.500 C 78.127 113.018, 77.606 115.671, 74.443 123.980 L 70.834 133.460 73.186 135.480 C 74.480 136.591, 76.836 138.519, 78.422 139.764 C 80.008 141.009, 81.124 142.173, 80.903 142.350 C 80.681 142.527, 75.181 146.854, 68.680 151.966 C 62.179 157.077, 57.229 161.621, 57.680 162.062 C 60.186 164.513, 99.590 188.795, 100.105 188.205 C 100.444 187.817, 104.673 176.137, 109.503 162.250 C 114.333 148.363, 118.632 137, 119.057 137 C 119.482 137, 127.792 141.725, 137.524 147.500 C 147.255 153.275, 156.181 157.977, 157.359 157.950 C 160.350 157.880, 187.707 151.630, 188.143 150.917 C 188.339 150.596, 178.830 140.147, 167.010 127.698 C 155.191 115.248, 145.391 104.674, 145.234 104.201 C 145.076 103.727, 152.609 97.835, 161.973 91.107 C 171.338 84.378, 179 78.542, 179 78.138 C 179 76.947, 154.803 68.965, 151.250 68.983 C 149.463 68.993, 148 68.802, 148 68.561 C 148 68.319, 152.988 58.419, 159.083 46.561 C 165.179 34.702, 169.792 25.014, 169.333 25.031 C 168.875 25.048, 162.213 28.624, 154.530 32.978 C 146.846 37.331, 140.425 40.758, 140.259 40.593 C 139.993 40.326, 141.098 28.167, 142.472 16.250 C 142.741 13.912, 142.633 12.008, 142.231 12.017 C 141.829 12.027, 136.550 15.242, 130.500 19.162 M 152.031 37.497 C 145.723 41.047, 140.252 44.790, 139.873 45.815 C 139.493 46.841, 138.857 52.282, 138.458 57.908 L 137.733 68.137 141.427 67.818 L 145.122 67.500 154.622 49.250 C 159.846 39.212, 163.981 31.010, 163.811 31.022 C 163.640 31.034, 158.339 33.948, 152.031 37.497 M 132.354 48.579 C 128.544 50.878, 127.916 51.896, 124.580 61.182 C 122.584 66.739, 121.143 71.476, 121.376 71.710 C 121.610 71.943, 124.081 70.979, 126.867 69.567 C 129.654 68.155, 132.585 67, 133.381 67 C 134.465 67, 134.992 65.051, 135.474 59.250 C 135.829 54.987, 136.353 50.263, 136.639 48.750 C 137.260 45.463, 137.503 45.473, 132.354 48.579 M 136.991 72.750 C 136.987 73.713, 136.741 76.975, 136.447 80 L 135.911 85.500 139.407 79 C 141.330 75.425, 142.925 72.162, 142.951 71.750 C 142.978 71.338, 141.650 71, 140 71 C 137.813 71, 136.998 71.474, 136.991 72.750 M 140.844 82.277 C 136.959 90.084, 134.965 95.431, 134.475 99.351 C 133.853 104.335, 133.524 104.984, 131.881 104.462 C 128.639 103.433, 129.756 104.927, 138.101 112.777 L 146.203 120.398 132.536 126.949 L 118.869 133.500 137.270 144.250 C 147.391 150.162, 156.525 155, 157.568 155 C 158.611 155, 164.951 153.798, 171.656 152.328 L 183.848 149.656 177.174 142.411 C 173.503 138.426, 163.824 128.172, 155.665 119.624 C 147.506 111.076, 141.093 103.659, 141.413 103.141 C 141.733 102.623, 148.956 97.185, 157.465 91.057 C 165.973 84.929, 173.147 79.571, 173.407 79.151 C 173.951 78.271, 156.474 72.457, 150.500 71.531 L 146.500 70.910 140.844 82.277 M 121.697 119.578 C 115.077 132.877, 114.424 132.491, 130.620 124.852 L 141.268 119.829 135.415 113.914 C 132.196 110.661, 129.089 108, 128.511 108 C 127.933 108, 124.866 113.210, 121.697 119.578" stroke="none" fill="black" fill-rule="evenodd"/>
</svg>