<svg xmlns="http://www.w3.org/2000/svg" width="200" height="200" viewBox="0 0 200 200" version="1.1">
	<path d="M 126.500 19.577 C 117.369 24.081, 105.402 28.952, 95.914 32.026 L 80.329 37.076 62.170 33.038 C 52.183 30.817, 43.836 29, 43.621 29 C 43.406 29, 43.012 51.837, 42.744 79.750 L 42.259 130.500 36.579 147 C 31.383 162.097, 23.811 188.133, 24.433 188.763 C 24.575 188.907, 32.043 182.587, 41.027 174.718 L 57.363 160.411 62.975 143.575 L 68.587 126.740 80.917 122.370 L 93.248 118 111.236 118 L 129.224 118 140.060 126 C 146.020 130.400, 151.140 134, 151.438 134 C 152.368 134, 172.410 122.748, 174.215 121.212 C 175.765 119.894, 175.877 117.854, 175.373 100.126 C 174.870 82.413, 174.522 79.428, 171.806 69.500 C 170.152 63.450, 168.485 58.164, 168.103 57.754 C 167.721 57.344, 159.838 59.257, 150.585 62.004 L 133.761 67 116.321 67 C 106.133 67, 99.115 66.623, 99.443 66.092 C 99.751 65.593, 107.634 60.587, 116.959 54.966 L 133.914 44.748 146.438 43.695 L 158.962 42.643 161.917 35.571 C 163.542 31.682, 165.598 26.772, 166.487 24.659 C 167.376 22.547, 167.742 21.029, 167.301 21.287 C 166.861 21.545, 158.893 26.378, 149.596 32.027 L 132.693 42.299 120.596 42.717 C 108.789 43.126, 108.553 43.092, 110.707 41.318 C 111.921 40.318, 120.118 33.875, 128.924 27 C 137.729 20.125, 144.948 13.938, 144.967 13.250 C 145.028 10.952, 141.602 12.126, 126.500 19.577 M 122.500 24.567 C 116.450 27.533, 104.459 32.223, 95.854 34.990 L 80.209 40.020 64.854 36.511 C 56.409 34.581, 48.600 32.796, 47.500 32.544 C 45.524 32.092, 45.504 32.522, 45.808 67.793 C 45.977 87.432, 45.708 110.025, 45.209 118 C 44.322 132.193, 44.154 132.956, 37.260 154 C 33.386 165.825, 29.923 176.782, 29.564 178.349 L 28.912 181.199 31.706 179.128 C 33.243 177.990, 39.158 172.882, 44.852 167.779 L 55.204 158.500 60.852 141.539 L 66.500 124.579 79.500 119.854 L 92.500 115.130 111.179 115.065 L 129.857 115 139.679 122.297 C 145.080 126.311, 150.024 129.913, 150.665 130.303 C 151.305 130.693, 156.480 128.372, 162.165 125.145 L 172.500 119.278 172.774 101.518 C 173.040 84.235, 172.963 83.459, 169.909 72.629 C 168.184 66.508, 166.610 61.224, 166.412 60.887 C 166.214 60.550, 159.403 62.309, 151.276 64.795 L 136.500 69.316 114.179 69.529 C 83.101 69.826, 83.112 71.521, 114.196 72.376 C 127.563 72.743, 140.719 73.372, 143.432 73.772 L 148.364 74.500 129.432 83.396 C 119.019 88.289, 102.888 96.743, 93.585 102.182 C 84.282 107.621, 76.363 111.717, 75.987 111.285 C 74.867 110, 70.086 86.085, 69.364 78.159 C 68.706 70.925, 68.738 70.783, 71.598 68.445 L 74.500 66.072 70.250 66.036 C 67.912 66.016, 66 65.617, 66 65.149 C 66 64.680, 70.541 59.505, 76.091 53.649 L 86.182 43 95.119 43 L 104.057 43 118.278 31.856 C 133.095 20.247, 134.695 18.943, 133.950 19.087 C 133.703 19.136, 128.550 21.602, 122.500 24.567 M 151.213 34.295 C 145.073 38.027, 141.658 40.640, 142.646 40.851 C 143.549 41.044, 147.171 40.893, 150.694 40.516 L 157.100 39.830 159.563 34.261 C 160.918 31.199, 161.890 28.557, 161.724 28.391 C 161.558 28.225, 156.828 30.882, 151.213 34.295 M 115.268 45.949 L 104.036 46.500 93.059 55 C 87.022 59.675, 82.064 63.775, 82.041 64.110 C 82.019 64.446, 84.587 64.988, 87.750 65.315 L 93.500 65.910 109.500 56.299 C 122.746 48.342, 129.382 44.122, 126.950 45.199 C 126.703 45.309, 121.446 45.647, 115.268 45.949 M 78.692 54.500 C 72.528 61.005, 71.229 62.874, 72.523 63.371 C 75.941 64.682, 77.807 63.725, 88.888 54.984 L 100.275 46 93.388 46.129 L 86.500 46.258 78.692 54.500 M 74.599 69.444 C 71.714 71.803, 71.701 71.861, 72.398 79.658 C 73.245 89.136, 77.390 107.570, 78.618 107.321 C 79.103 107.223, 86.747 102.948, 95.605 97.821 C 104.463 92.695, 117.611 85.800, 124.823 82.500 L 137.936 76.500 133.218 75.637 C 130.623 75.163, 117.588 74.828, 104.250 74.894 C 90.912 74.960, 80 74.804, 80 74.549 C 80 74.293, 82.132 72.835, 84.739 71.307 L 89.477 68.530 85.489 67.823 C 79.163 66.701, 77.685 66.921, 74.599 69.444" stroke="none" fill="black" fill-rule="evenodd"/>
</svg>