<svg xmlns="http://www.w3.org/2000/svg" width="200" height="200" viewBox="0 0 200 200" version="1.1">
	<path d="M 100 27.557 C 83.225 28.821, 63.538 29.888, 56.250 29.928 C 45.669 29.985, 43 30.279, 43 31.384 C 43 32.522, 49.337 32.901, 78.750 33.521 C 98.412 33.936, 122.234 34.014, 131.687 33.694 C 147.992 33.142, 149.008 33.218, 151.489 35.170 C 152.928 36.302, 153.940 37.394, 153.737 37.596 C 153.535 37.799, 139.223 40.283, 121.935 43.118 L 90.500 48.272 62.762 46.457 C 47.506 45.459, 34.878 44.835, 34.699 45.071 C 34.521 45.307, 34.787 62.600, 35.291 83.500 L 36.208 121.500 27.737 155.194 C 21.564 179.752, 19.602 189.017, 20.503 189.363 C 21.264 189.655, 28.357 179.119, 38.979 161.918 C 48.462 146.563, 56.662 134, 57.203 134 C 57.744 134, 64.895 131.115, 73.093 127.590 C 81.292 124.064, 88 121.392, 88 121.653 C 88 121.913, 80.507 132.005, 71.350 144.079 C 62.192 156.154, 54.880 166.202, 55.100 166.409 C 55.320 166.615, 62.025 165.720, 70 164.418 C 77.975 163.116, 85.290 162.040, 86.256 162.026 C 87.497 162.008, 89.543 165.078, 93.234 172.500 C 96.106 178.275, 98.823 183, 99.271 183 C 99.719 183, 109.629 175.445, 121.293 166.212 C 132.957 156.978, 142.955 149.143, 143.512 148.800 C 144.182 148.387, 144.119 153.635, 143.327 164.320 C 142.669 173.199, 142.296 180.629, 142.498 180.831 C 142.700 181.034, 151.446 175.056, 161.933 167.548 C 177.820 156.174, 181 153.487, 181 151.438 C 181 147.456, 174.964 87.630, 174.517 87.184 C 174.292 86.959, 167.775 88.176, 160.035 89.888 C 152.294 91.599, 145.616 93, 145.196 93 C 144.464 93, 141 87.765, 141 86.659 C 141 86.366, 142.426 85.986, 144.169 85.813 C 146.971 85.536, 148.897 83.481, 160.803 68.064 L 174.267 50.628 171.135 47.829 L 168.003 45.031 178.935 36.282 C 184.948 31.470, 189.719 27.386, 189.539 27.205 C 189.206 26.873, 165.177 28.521, 154.920 29.581 C 149.932 30.096, 149.015 29.883, 146.276 27.578 C 142.500 24.401, 141.861 24.401, 100 27.557 M 119 29 L 97.500 30.714 109.500 31.083 C 123.016 31.499, 135.870 31.228, 140.823 30.422 C 143.580 29.974, 143.943 29.636, 142.951 28.441 C 142.293 27.648, 141.473 27.064, 141.128 27.143 C 140.782 27.222, 130.825 28.057, 119 29 M 166.185 31.272 L 152.871 32.233 155.169 34.680 C 156.993 36.621, 158.277 37.062, 161.393 36.813 C 163.881 36.615, 165.473 36.958, 165.742 37.750 C 165.992 38.486, 165.310 39, 164.083 39 C 161.434 39, 161.421 40.157, 164.052 41.800 C 165.893 42.950, 166.861 42.489, 173.506 37.291 C 180.151 32.092, 182.403 29.710, 180.250 30.155 C 179.838 30.241, 173.508 30.743, 166.185 31.272 M 129 46.184 C 106.899 50.674, 99.153 51.872, 94.500 51.522 C 91.200 51.274, 85.350 51.677, 81.500 52.418 L 74.500 53.766 85.500 53.346 C 135.064 51.453, 149.555 51.155, 150.414 52.014 C 150.938 52.538, 151.145 53.188, 150.874 53.459 C 150.604 53.730, 134.975 58.250, 116.143 63.504 L 81.904 73.056 71.611 65.086 C 62.168 57.774, 60.891 57.090, 56.146 56.808 C 50.656 56.481, 49.050 54.730, 53.719 54.162 C 55.249 53.975, 57.043 53.374, 57.706 52.825 C 58.370 52.277, 59.305 52.071, 59.786 52.367 C 60.266 52.664, 64.223 52.308, 68.579 51.575 C 74.013 50.662, 75.401 50.186, 73 50.060 C 71.075 49.960, 62.144 49.330, 53.153 48.662 L 36.806 47.446 37.386 58.973 C 37.704 65.313, 38.210 81.975, 38.510 96 L 39.055 121.500 31.646 150.750 C 27.571 166.838, 24.325 180, 24.433 180 C 24.541 180, 32.665 166.998, 42.486 151.106 L 60.343 122.212 65.102 121.581 C 69.241 121.032, 71.497 119.626, 82.424 110.786 L 94.987 100.623 88.243 96.405 C 71.327 85.825, 63.774 80.904, 64.122 80.690 C 64.330 80.563, 76.478 80.863, 91.118 81.357 L 117.737 82.255 140.368 63.952 C 152.816 53.886, 163 45.309, 163 44.893 C 163 44.477, 161.762 43.294, 160.250 42.265 C 157.515 40.405, 157.349 40.425, 129 46.184 M 143.583 64.779 L 121.665 82.500 127.949 82.801 C 131.404 82.966, 134.436 82.897, 134.685 82.648 C 134.935 82.399, 134.556 81.262, 133.844 80.122 C 132.938 78.672, 132.866 77.734, 133.603 76.997 C 134.339 76.261, 135.225 77.003, 136.555 79.472 C 138.202 82.531, 138.946 83, 142.154 83 C 145.740 83, 146.203 82.546, 157.230 68.222 C 163.488 60.095, 168.965 52.866, 169.401 52.159 C 170.136 50.971, 167.551 46.958, 166.095 47.029 C 165.768 47.045, 155.637 55.032, 143.583 64.779 M 100.202 55.526 C 81.888 56.206, 66.737 56.930, 66.533 57.134 C 66.328 57.339, 69.870 60.316, 74.404 63.752 L 82.647 69.997 109.472 62.517 C 134.805 55.453, 139.909 53.806, 135.417 54.145 C 134.363 54.224, 118.516 54.846, 100.202 55.526 M 85.451 91.448 L 97.281 98.897 105.486 92.198 L 113.691 85.500 105.096 84.856 C 100.368 84.502, 91.352 84.164, 85.060 84.106 L 73.621 84 85.451 91.448 M 109.161 92.606 C 97.256 102.312, 97.751 103.340, 112.843 100.255 C 118.775 99.043, 127.727 97.107, 132.738 95.953 L 141.848 93.856 139.823 90.425 C 138.710 88.538, 137.506 86.827, 137.149 86.623 C 136.792 86.419, 132.450 85.969, 127.500 85.622 L 118.500 84.991 109.161 92.606 M 158.500 93.026 C 151.900 94.554, 146.413 95.848, 146.308 95.902 C 146.202 95.956, 150.125 102.995, 155.025 111.544 C 160.691 121.427, 163.492 127.238, 162.718 127.500 C 162.048 127.727, 150.700 129.515, 137.500 131.473 C 124.300 133.431, 112.686 135.215, 111.692 135.438 C 110.451 135.716, 109.981 135.338, 110.193 134.234 C 110.402 133.151, 116.054 130.589, 127.502 126.388 C 140.249 121.710, 144 119.963, 142.500 119.406 C 141.400 118.997, 135.418 116.713, 129.206 114.331 C 122.994 111.949, 117.144 109.996, 116.206 109.991 C 115.268 109.986, 109.775 112.029, 104 114.531 L 93.500 119.080 77.235 140.691 C 68.289 152.578, 61.121 162.454, 61.306 162.639 C 61.491 162.824, 67.010 162.091, 73.571 161.009 C 80.132 159.927, 86.418 159.032, 87.540 159.021 C 89.136 159.005, 90.650 161.175, 94.500 169 C 97.206 174.500, 99.706 179, 100.055 179 C 100.403 179, 111.208 170.700, 124.066 160.555 C 136.923 150.410, 147.521 142.197, 147.618 142.305 C 147.714 142.412, 147.220 149.925, 146.520 159 C 145.820 168.075, 145.332 175.604, 145.437 175.730 C 145.541 175.857, 152.911 170.712, 161.813 164.296 L 178 152.633 177.935 148.566 C 177.785 139.114, 172.418 90.646, 171.500 90.456 C 170.950 90.341, 165.100 91.498, 158.500 93.026 M 120.614 101.302 C 103.823 105.131, 102.562 105.285, 100.004 103.817 C 97.297 102.264, 97.213 102.308, 86.659 110.812 C 80.817 115.519, 76.141 119.468, 76.269 119.586 C 77.446 120.685, 92.882 116.313, 102.447 112.172 C 109.018 109.328, 115.153 107, 116.079 107 C 117.974 107, 149.053 118.756, 150.307 119.948 C 150.751 120.369, 145.701 122.666, 139.085 125.052 C 132.469 127.437, 127.218 129.552, 127.417 129.750 C 128.099 130.433, 159 125.539, 159 124.748 C 159 124.313, 155.529 117.892, 151.287 110.479 C 144.467 98.562, 143.279 97.013, 141.037 97.111 C 139.642 97.173, 130.452 99.058, 120.614 101.302 M 69 125 C 65.808 127.497, 66.674 127.503, 72.141 125.022 C 75.698 123.408, 76.040 123.044, 74 123.044 C 72.625 123.044, 70.375 123.924, 69 125 M 61 126.500 C 60.306 127.337, 60.197 128, 60.755 128 C 61.305 128, 62.315 127.325, 63 126.500 C 63.694 125.663, 63.803 125, 63.245 125 C 62.695 125, 61.685 125.675, 61 126.500" stroke="none" fill="black" fill-rule="evenodd"/>
</svg>