<svg xmlns="http://www.w3.org/2000/svg" width="200" height="200" viewBox="0 0 200 200" version="1.1">
	<path d="M 135 17.592 L 117.500 24.108 84.045 26.804 L 50.591 29.500 43.881 48.610 L 37.171 67.719 34.544 101.610 C 32.478 128.255, 31.084 140.096, 28.024 157 C 23.170 183.812, 23.208 183.500, 24.788 183.500 C 25.496 183.500, 32.785 172.080, 40.987 158.123 C 53.002 137.675, 55.998 133.207, 56.415 135.123 C 56.699 136.430, 58.085 148.750, 59.495 162.500 C 60.905 176.250, 62.279 188.513, 62.548 189.750 C 63.791 195.458, 65.898 190.702, 74.400 162.999 C 79.295 147.050, 83.599 134, 83.964 134 C 84.330 134, 87.036 139.287, 89.978 145.750 C 92.919 152.213, 97.718 162.597, 100.640 168.826 L 105.954 180.153 124.227 163.920 C 148.939 141.967, 148.538 142.369, 147.326 140.809 C 146.767 140.089, 144.351 135.900, 141.958 131.500 L 137.608 123.500 144.480 129.779 L 151.351 136.057 151.095 163.255 C 150.954 178.214, 150.623 190.801, 150.360 191.227 C 150.097 191.652, 150.251 192, 150.702 192 C 151.518 192, 183.237 139.779, 183.790 137.524 C 184.109 136.229, 168.250 94.079, 166.873 92.560 C 166.185 91.802, 146.881 95.683, 136.825 98.601 C 135.345 99.031, 135.403 98.439, 137.325 93.532 L 139.500 87.977 147.500 85.557 C 151.900 84.226, 161.125 81.473, 168 79.438 C 174.875 77.403, 180.838 75.437, 181.252 75.067 C 181.665 74.698, 175.928 69.519, 168.502 63.557 C 161.076 57.595, 155 52.336, 155 51.870 C 155 51.404, 156.575 47.219, 158.500 42.568 C 160.425 37.918, 162 33.728, 162 33.258 C 162 32.561, 142.453 34.122, 111 37.328 C 107.174 37.718, 110.213 35.927, 131.293 25.368 C 152.775 14.608, 158.599 10.882, 153.691 11.038 C 153.036 11.059, 144.625 14.008, 135 17.592 M 121.117 25.547 C 118.905 26.507, 106.449 27.899, 85.142 29.566 C 67.216 30.969, 52.502 32.203, 52.443 32.308 C 52.385 32.414, 49.537 40.600, 46.115 50.500 L 39.894 68.500 37.425 101 C 35.584 125.223, 34.052 138.556, 31.411 153.350 C 29.462 164.268, 28.024 173.357, 28.216 173.549 C 28.407 173.741, 35.054 162.867, 42.986 149.385 C 53.576 131.385, 57.580 125.354, 58.056 126.686 C 58.412 127.684, 59.984 140.763, 61.550 155.751 C 63.116 170.739, 64.717 182.664, 65.106 182.251 C 65.496 181.838, 69.055 170.925, 73.015 158 C 76.976 145.075, 80.580 133.811, 81.026 132.970 C 81.471 132.128, 87.933 126.301, 95.387 120.022 C 102.840 113.742, 108.825 108.491, 108.687 108.353 C 108.548 108.215, 106.601 108.568, 104.359 109.137 L 100.283 110.171 82.392 97.431 C 72.551 90.424, 64.050 84.281, 63.500 83.781 C 62.895 83.230, 66.549 82.995, 72.752 83.185 C 78.391 83.358, 82.986 83.275, 82.963 83 C 82.939 82.725, 77.017 78.909, 69.801 74.520 C 55.727 65.958, 54 64.638, 54 62.435 C 54 61.608, 59.811 58.102, 67.888 54.056 C 78.984 48.497, 82.203 46.408, 83.899 43.663 C 86.171 39.988, 88.294 39.035, 94.264 39.014 C 96.894 39.004, 101.867 37.055, 110.764 32.545 C 117.769 28.994, 124.175 25.626, 125 25.060 C 127.166 23.573, 125.053 23.838, 121.117 25.547 M 147.500 36.588 C 146.400 36.762, 135.375 37.836, 123 38.975 C 100.528 41.044, 100.489 41.052, 91.959 45.127 C 85.863 48.038, 82.923 50.069, 81.689 52.220 L 79.959 55.233 84.230 54.648 C 86.578 54.326, 101.927 52.615, 118.337 50.845 C 142.810 48.206, 148.536 47.853, 150.185 48.883 C 151.290 49.574, 152.294 49.995, 152.416 49.819 C 152.858 49.182, 158 36.857, 158 36.434 C 158 35.966, 150.771 36.072, 147.500 36.588 M 87.500 43 C 86.718 44.266, 88.042 44.266, 90 43 C 91.293 42.165, 91.266 42.029, 89.809 42.015 C 88.879 42.007, 87.840 42.450, 87.500 43 M 112.166 54.271 C 92.732 56.413, 76.584 57.917, 76.280 57.614 C 75.977 57.311, 76.475 55.923, 77.388 54.531 C 78.300 53.139, 78.801 52, 78.501 52 C 77.821 52, 62 59.930, 62 60.270 C 62 60.407, 75.387 59.756, 91.750 58.823 C 108.113 57.891, 123.884 57.099, 126.798 57.064 L 132.096 57 129.035 61.449 C 127.352 63.896, 125.500 66.191, 124.921 66.549 C 122.971 67.754, 122.715 66.084, 124.444 63.444 C 125.388 62.005, 125.929 60.596, 125.647 60.314 C 125.229 59.895, 68.361 62.560, 61.500 63.320 C 60.400 63.442, 69.063 65.948, 80.750 68.890 C 96.168 72.771, 102 74.637, 102 75.687 C 102 76.599, 101.352 76.941, 100.250 76.611 C 94.744 74.963, 65.702 67.965, 65.443 68.224 C 65.273 68.394, 70.702 71.970, 77.508 76.170 L 89.882 83.806 109.691 84.437 C 120.586 84.784, 131.313 85.291, 133.530 85.562 L 137.559 86.056 144.380 69.462 C 148.132 60.336, 151.044 52.771, 150.851 52.651 C 150.658 52.532, 149.825 51.971, 149 51.405 C 147.941 50.679, 137.112 51.521, 112.166 54.271 M 147.494 69.015 C 144.315 76.733, 141.954 83.287, 142.246 83.579 C 142.829 84.162, 173.992 75.088, 175.333 73.944 C 175.977 73.395, 164.375 63.357, 154.387 55.822 C 153.630 55.251, 151.421 59.480, 147.494 69.015 M 72.500 86.763 C 73.050 87.281, 79.692 92.093, 87.261 97.457 L 101.021 107.210 108.011 105.497 C 111.855 104.555, 115 103.490, 115 103.130 C 115 102.771, 109.263 98.897, 102.250 94.523 L 89.500 86.569 80.500 86.195 C 74.846 85.961, 71.872 86.172, 72.500 86.763 M 96 87.260 C 96 88.211, 119.746 102, 121.384 102 C 122.336 102, 125.080 101.505, 127.481 100.900 C 131.514 99.885, 132.018 99.384, 134.055 94.364 C 135.269 91.374, 136.090 88.774, 135.881 88.586 C 135.292 88.058, 96 86.751, 96 87.260 M 148.167 98.671 L 133.834 102.198 132.047 106.349 C 129.646 111.925, 130.422 113.195, 143.444 125 L 153.923 134.500 153.712 158.751 C 153.595 172.089, 153.554 183.001, 153.620 183.001 C 153.686 183, 159.937 172.643, 167.510 159.984 L 181.279 136.967 173.379 116.245 C 168.280 102.869, 164.951 95.456, 163.990 95.334 C 163.170 95.229, 156.050 96.731, 148.167 98.671 M 126 103.911 L 123.500 104.623 125.877 105.915 C 127.839 106.981, 128.404 106.970, 129.112 105.853 C 130.918 103.003, 130.377 102.665, 126 103.911 M 103.005 117.109 C 95.789 123.219, 90.039 128.372, 90.227 128.560 C 90.415 128.748, 97.923 127.012, 106.912 124.701 L 123.256 120.500 124.761 116.685 C 126.258 112.889, 126.249 112.852, 122.937 109.435 C 121.106 107.546, 118.824 106, 117.866 106 C 116.908 106, 110.221 110.999, 103.005 117.109 M 127.566 116.793 C 127.184 117.997, 127.134 119.408, 127.456 119.928 C 127.777 120.449, 125.706 125.290, 122.852 130.687 C 116.694 142.334, 117.368 141.345, 116.113 140.570 C 115.478 140.178, 116.364 136.925, 118.454 131.970 C 120.302 127.586, 121.622 124, 121.387 124 C 120.761 124, 87.548 132.266, 87.235 132.500 C 86.614 132.962, 106.495 175.002, 107.221 174.760 C 108.859 174.214, 144 142.728, 144 141.806 C 144 140.534, 132.333 119.633, 130.048 116.811 L 128.261 114.604 127.566 116.793" stroke="none" fill="black" fill-rule="evenodd"/>
</svg>