<svg xmlns="http://www.w3.org/2000/svg" width="200" height="200" viewBox="0 0 200 200" version="1.1">
	<path d="M 54.563 14.189 C 55.340 17.110, 55.982 19.765, 55.988 20.089 C 55.995 20.413, 52.204 21.268, 47.565 21.990 C 42.925 22.712, 38.719 23.572, 38.218 23.901 C 37.717 24.230, 33.814 32.150, 29.546 41.500 L 21.785 58.500 30.393 66.634 C 35.127 71.107, 39 75.089, 39 75.483 C 39 75.877, 34.213 84.367, 28.363 94.350 C 22.512 104.332, 17.558 112.801, 17.353 113.170 C 16.999 113.807, 35.990 127.675, 38.572 128.666 C 39.246 128.925, 40.052 128.725, 40.363 128.222 C 40.674 127.718, 36.449 124.200, 30.974 120.403 C 25.499 116.606, 21.015 113.175, 21.010 112.779 C 21.004 112.382, 25.982 103.612, 32.072 93.289 L 43.143 74.520 40.322 72.134 C 38.770 70.821, 34.706 67.084, 31.291 63.829 L 25.081 57.912 32.291 42.020 L 39.500 26.128 46.500 24.990 C 50.350 24.364, 54.215 23.653, 55.088 23.410 C 56.369 23.053, 57.143 25.028, 59.088 33.611 C 60.971 41.918, 61.939 44.444, 63.500 45.119 C 64.600 45.595, 69.385 47.450, 74.133 49.242 L 82.766 52.500 74.892 62.500 C 70.562 68, 65.666 74.372, 64.012 76.660 L 61.004 80.821 69.752 85.528 C 74.563 88.118, 78.633 90.354, 78.797 90.498 C 78.960 90.642, 74.852 99.546, 69.667 110.283 L 60.241 129.807 58.533 154.153 C 57.593 167.544, 56.702 178.624, 56.554 178.775 C 56.405 178.926, 48.344 176.006, 38.639 172.285 L 20.995 165.520 33.058 154.121 C 41.257 146.373, 44.794 142.394, 44.101 141.701 C 43.408 141.008, 38.984 144.642, 30.291 153.045 C 23.256 159.845, 17.500 165.801, 17.500 166.279 C 17.500 167.261, 58.201 183.133, 58.906 182.427 C 59.156 182.178, 60.157 170.392, 61.131 156.237 L 62.902 130.500 70.110 115.880 L 77.317 101.261 86.250 105.330 C 91.163 107.567, 99.440 111.446, 104.643 113.949 L 114.102 118.500 96.017 144.279 C 84.412 160.820, 76.690 172.882, 74.466 177.941 C 72.560 182.277, 71 186.089, 71 186.414 C 71 186.738, 82.673 179.241, 96.939 169.752 L 122.878 152.500 129.157 134.301 C 132.610 124.292, 135.572 116.238, 135.738 116.405 C 135.905 116.571, 138.091 128.132, 140.596 142.096 C 143.101 156.059, 145.250 167.584, 145.372 167.705 C 145.737 168.071, 186.303 174.033, 186.544 173.756 C 186.667 173.615, 180.675 165.668, 173.229 156.096 C 160.800 140.118, 159.051 137.331, 151.886 122.096 C 145.057 107.575, 144.294 105.409, 145.790 104.771 C 146.731 104.371, 156.906 102.240, 168.401 100.037 C 179.897 97.833, 189.542 95.791, 189.835 95.499 C 191.790 93.543, 186.256 93.250, 165.201 94.192 C 152.386 94.765, 141.646 94.979, 141.334 94.668 C 141.023 94.356, 141.093 86.956, 141.490 78.224 L 142.212 62.348 159.356 58.606 C 183.152 53.411, 184 53.162, 184 51.357 C 184 49.961, 181.628 49.869, 162.176 50.517 L 140.351 51.243 138.129 36.871 C 136.907 28.967, 135.658 21.064, 135.353 19.309 C 134.830 16.296, 134.514 16.090, 129.650 15.597 C 126.817 15.309, 117.947 14.810, 109.938 14.486 C 97.134 13.969, 93.521 14.212, 80.024 16.496 L 64.672 19.094 60.586 15.242 C 53.052 8.138, 52.947 8.120, 54.563 14.189 M 58 17.819 C 58 19.027, 59.897 20.436, 60.591 19.743 C 60.842 19.491, 60.362 18.716, 59.524 18.020 C 58.574 17.231, 58 17.155, 58 17.819 M 79.250 19.232 C 73.063 20.379, 68.036 21.583, 68.080 21.909 C 68.124 22.234, 72.836 26.775, 78.551 32 C 84.266 37.225, 92.348 44.650, 96.511 48.500 L 104.081 55.500 109 74.490 C 111.705 84.935, 113.600 93.772, 113.210 94.128 C 112.819 94.485, 106.283 96.222, 98.685 97.989 C 91.086 99.757, 85.043 101.376, 85.254 101.588 C 85.466 101.799, 92.808 105.366, 101.570 109.513 C 110.331 113.660, 117.369 117.546, 117.210 118.147 C 117.050 118.749, 108.663 130.999, 98.571 145.370 C 82.181 168.711, 75.334 179.796, 77.906 178.827 C 78.383 178.647, 88.205 172.216, 99.732 164.536 L 120.690 150.572 127.415 131.036 C 131.113 120.291, 134.724 110.150, 135.438 108.500 L 136.737 105.500 137.416 109 C 137.789 110.925, 140.233 124.425, 142.845 139 L 147.596 165.500 162.548 167.737 C 170.772 168.967, 178.117 169.867, 178.871 169.737 C 179.699 169.594, 175.756 163.756, 168.918 155 C 158.638 141.836, 156.791 138.795, 148.878 122 C 142.985 109.492, 140.541 103.298, 141.331 102.877 C 141.974 102.534, 147.900 101.250, 154.500 100.024 C 161.100 98.797, 166.725 97.563, 167 97.280 C 167.275 96.998, 160.820 97.093, 152.656 97.492 L 137.813 98.217 138.459 81.359 C 138.814 72.086, 139.305 63.525, 139.551 62.332 C 139.931 60.484, 141.433 59.844, 149.748 57.990 C 171.231 53.198, 171.309 53.107, 153.773 53.314 L 138.046 53.500 137.557 51 C 137.288 49.625, 136.086 41.975, 134.887 34 C 133.688 26.025, 132.435 19.202, 132.103 18.837 C 131.772 18.472, 122.275 17.942, 111 17.660 C 93.051 17.210, 89.100 17.406, 79.250 19.232 M 60.359 23.508 C 60.040 24.337, 60.759 28.977, 61.955 33.819 L 64.131 42.622 74.815 46.448 C 80.692 48.552, 85.816 50.550, 86.202 50.889 C 86.589 51.228, 82.165 57.579, 76.371 65.002 C 70.577 72.426, 65.641 78.807, 65.402 79.182 C 65.162 79.557, 68.980 82.021, 73.885 84.658 L 82.804 89.453 80.335 94.326 C 78.977 97.006, 78.037 99.370, 78.246 99.580 C 78.623 99.957, 109.072 92.928, 109.960 92.259 C 110.213 92.069, 108.482 84.075, 106.113 74.497 L 101.805 57.080 82.903 39.540 C 72.507 29.893, 63.312 22, 62.469 22 C 61.627 22, 60.677 22.679, 60.359 23.508" stroke="none" fill="black" fill-rule="evenodd"/>
</svg>