<svg xmlns="http://www.w3.org/2000/svg" width="200" height="200" viewBox="0 0 200 200" version="1.1">
	<path d="M 32.972 9.739 C 32.956 10.157, 32.291 18.600, 31.493 28.500 C 30.695 38.400, 30.033 52.474, 30.021 59.777 C 30.002 71.853, 29.549 75.177, 25.011 96.546 L 20.022 120.040 25.486 134.597 L 30.950 149.155 29.475 167.305 C 28.664 177.287, 28 185.577, 28 185.727 C 28 185.877, 28.637 186, 29.415 186 C 30.194 186, 37.479 175.087, 45.606 161.750 L 60.381 137.500 61.290 110.141 L 62.198 82.782 66.344 75.891 C 68.624 72.101, 70.829 69, 71.245 69 C 71.660 69, 72 75.683, 72 83.852 L 72 98.704 77.500 109.911 L 83 121.117 83 154.559 C 83 179.294, 83.303 188, 84.162 188 C 84.801 188, 96.515 184.399, 110.192 179.997 L 135.060 171.995 162.251 169.477 C 186.185 167.260, 192.555 166.181, 190.933 164.615 C 190.695 164.385, 180.825 161.165, 169 157.461 C 157.175 153.756, 146.883 150.401, 146.128 150.005 C 145.199 149.517, 149.880 145.629, 160.628 137.961 C 169.358 131.734, 177.551 125.837, 178.836 124.858 L 181.171 123.077 165.586 115.304 C 157.014 111.028, 150 107.234, 150 106.872 C 150 106.510, 155.512 101.828, 162.250 96.467 C 168.988 91.106, 175.100 86.167, 175.833 85.491 C 176.914 84.495, 174.793 82.611, 164.583 75.498 C 157.662 70.678, 152 66.453, 152 66.111 C 152 65.768, 157.362 60.540, 163.916 54.494 C 170.470 48.447, 175.870 43.132, 175.916 42.683 C 175.962 42.233, 175.212 42.091, 174.250 42.366 C 173.287 42.641, 165.946 43.172, 157.934 43.545 L 143.369 44.223 144.697 31.362 C 145.428 24.288, 145.907 17.942, 145.763 17.260 C 145.618 16.578, 138.858 23.466, 130.741 32.568 C 122.410 41.909, 115.796 48.547, 115.555 47.808 C 115.320 47.089, 112.796 38.175, 109.947 28 C 107.098 17.825, 104.660 9.377, 104.528 9.227 C 104.396 9.078, 101.030 15.040, 97.049 22.477 C 93.067 29.915, 89.400 36.253, 88.901 36.561 C 88.402 36.870, 80.324 33.192, 70.950 28.387 C 58.439 21.975, 53.462 18.898, 52.233 16.817 C 50.639 14.119, 48.214 13.472, 48.754 15.888 C 48.894 16.515, 45.407 15.216, 41.004 13.002 C 36.602 10.789, 32.987 9.320, 32.972 9.739 M 34.142 29.817 C 33.499 38.993, 32.979 52.234, 32.986 59.243 C 32.999 70.757, 32.511 74.305, 27.935 96.017 L 22.870 120.048 28.307 134.774 L 33.745 149.500 32.548 164 C 31.890 171.975, 31.447 178.637, 31.563 178.804 C 31.679 178.971, 37.632 169.470, 44.792 157.691 L 57.809 136.275 58.512 109.387 L 59.214 82.500 64.629 73.703 L 70.044 64.905 60.272 42.839 L 50.500 20.772 42.906 16.953 L 35.312 13.134 34.142 29.817 M 97.342 27.633 L 91.184 39.075 102.092 44.546 C 108.091 47.555, 113 49.745, 113 49.412 C 113 48.695, 103.964 16.625, 103.689 16.367 C 103.585 16.270, 100.729 21.339, 97.342 27.633 M 57.223 25.075 C 58.404 28.221, 76.677 57.908, 77.311 57.711 C 78.381 57.379, 87.569 40.221, 86.966 39.681 C 85.687 38.535, 56.984 24.440, 57.223 25.075 M 130.074 37.418 C 123.433 44.798, 118 51.224, 118 51.697 C 118 52.170, 122.500 54.939, 128 57.852 C 133.500 60.764, 138 63.337, 138 63.568 C 138 63.800, 132.262 68.550, 125.250 74.123 C 118.237 79.697, 112.353 84.384, 112.174 84.538 C 111.994 84.693, 115.499 86.719, 119.963 89.042 C 126.966 92.685, 129.504 95.020, 126.657 95.200 C 125.478 95.275, 108 85.668, 108 84.946 C 108 84.604, 113.623 79.864, 120.496 74.412 C 127.368 68.961, 132.993 64.261, 132.996 63.969 C 133.001 63.317, 91.656 41.998, 90.401 42.006 C 89.905 42.009, 86.800 46.982, 83.501 53.057 C 77.561 63.994, 77.484 64.082, 75.751 61.941 C 74.013 59.794, 74 59.806, 74.035 63.639 C 74.060 66.410, 78.790 78.167, 90.785 105.276 L 107.500 143.051 115.959 146.983 C 120.612 149.145, 124.561 150.773, 124.734 150.600 C 124.907 150.426, 121.206 139.554, 116.509 126.438 C 111.812 113.322, 108.089 102.271, 108.235 101.879 C 108.623 100.837, 128.442 116.921, 128.823 118.587 C 129.343 120.857, 128.136 120.289, 121.634 115.198 C 118.260 112.557, 114.960 110.069, 114.300 109.670 C 113.640 109.270, 114.919 114.019, 117.142 120.222 C 127.687 149.641, 129.886 156, 129.510 156 C 129.287 156, 123.794 153.570, 117.302 150.601 L 105.500 145.202 90 110.117 L 74.500 75.033 74.215 85.629 L 73.930 96.225 79.715 107.862 L 85.500 119.500 86 152.164 L 86.500 184.827 110.589 177.052 L 134.678 169.277 158.017 167.127 C 170.854 165.944, 181.503 164.830, 181.682 164.651 C 181.861 164.472, 172.893 161.493, 161.754 158.032 C 150.614 154.570, 140.895 151.417, 140.155 151.026 C 138.853 150.337, 143.725 146.537, 167.807 129.459 L 176.113 123.569 160.086 115.534 L 144.058 107.500 157.727 96.496 C 165.245 90.444, 171.380 85.052, 171.359 84.515 C 171.339 83.978, 165.862 79.726, 159.189 75.066 L 147.057 66.593 157.778 56.277 L 168.500 45.961 154.329 46.604 L 140.157 47.248 140.617 43.374 C 141.588 35.192, 142.609 24, 142.383 24 C 142.253 24, 136.714 30.038, 130.074 37.418 M 64.475 45.500 C 65.938 48.800, 68.060 53.638, 69.191 56.250 C 70.321 58.862, 71.593 61, 72.016 61 C 74.304 61, 73.226 57.504, 68.526 49.681 C 61.979 38.783, 61.091 37.867, 64.475 45.500" stroke="none" fill="black" fill-rule="evenodd"/>
</svg>