<svg xmlns="http://www.w3.org/2000/svg" width="200" height="200" viewBox="0 0 200 200" version="1.1">
	<path d="M 25.681 11.793 C 15.895 12.160, 15.703 14.116, 25.329 15.367 C 29.592 15.921, 32 16.691, 32 17.501 C 32 18.198, 30.906 27.033, 29.569 37.134 C 28.231 47.235, 26.645 63.689, 26.043 73.697 C 24.963 91.663, 24.988 92.148, 27.991 111.784 L 31.034 131.673 26.462 158.449 C 23.948 173.175, 22.074 185.407, 22.298 185.631 C 22.522 185.855, 30.606 178.601, 40.263 169.512 L 57.822 152.985 58.392 144.743 C 58.706 140.209, 59.247 124.575, 59.596 110 L 60.229 83.500 63.687 76.631 C 67.616 68.827, 66.481 68.357, 74.285 81.020 L 78.920 88.539 75.262 102.568 L 71.605 116.597 80.447 149.048 C 85.310 166.897, 89.640 181.893, 90.069 182.374 C 90.498 182.855, 91.502 181.055, 92.301 178.374 C 96.212 165.247, 110.414 122.769, 110.622 123.577 C 110.752 124.085, 111.819 138.675, 112.993 156 C 115.346 190.734, 115.497 192.001, 117.269 191.997 C 117.946 191.995, 123.549 180.632, 129.721 166.747 L 140.942 141.500 140.971 148.381 L 141 155.262 144.250 154.740 C 146.037 154.452, 153.462 153.406, 160.750 152.415 L 174 150.613 174.022 120.056 C 174.034 103.250, 174.484 80.087, 175.022 68.583 C 175.559 57.079, 175.832 47.498, 175.626 47.293 C 175.421 47.088, 164.075 52.276, 150.412 58.822 L 125.572 70.724 119.685 68.736 L 113.797 66.748 121.465 59.035 L 129.133 51.322 124.816 49.703 C 122.442 48.812, 119.287 47.635, 117.803 47.087 L 115.107 46.090 118.076 37.954 C 119.709 33.479, 120.923 29.085, 120.773 28.191 C 120.549 26.856, 124.582 25.575, 143.250 21.050 C 168.252 14.990, 171.712 13.101, 158.250 12.863 C 128.185 12.330, 32.039 11.555, 25.681 11.793 M 44.500 15.492 C 45.050 15.675, 50.787 16.589, 57.250 17.521 C 65.862 18.764, 69 19.592, 69 20.620 C 69 21.677, 68.073 21.882, 65.250 21.452 C 63.188 21.138, 56.213 20.076, 49.750 19.093 C 43.287 18.109, 38 17.525, 38 17.795 C 38 18.969, 66.263 63, 67.017 63 C 69.555 63, 67.829 58.342, 61.832 49.005 C 57.634 42.469, 55.444 38.156, 56.028 37.572 C 56.544 37.056, 57.104 36.828, 57.273 37.067 C 57.441 37.305, 60.845 42.502, 64.837 48.616 L 72.096 59.731 70.410 63.267 L 68.724 66.802 74.025 75.447 C 77.117 80.489, 79.616 83.621, 80.023 82.962 C 80.486 82.214, 84.123 81.925, 90.808 82.104 L 100.895 82.375 111.572 77.490 L 122.250 72.606 116.875 70.796 C 113.919 69.801, 110.854 68.746, 110.063 68.453 C 109.063 68.082, 110.993 65.539, 116.424 60.077 L 124.220 52.234 118.860 50.494 C 115.912 49.537, 113.161 48.448, 112.747 48.074 C 112.333 47.700, 113.343 43.401, 114.993 38.521 C 117.799 30.221, 117.885 29.531, 116.335 27.818 C 115.424 26.811, 114.957 25.710, 115.296 25.370 C 115.636 25.031, 124.116 22.775, 134.142 20.358 C 144.168 17.940, 152.587 15.746, 152.852 15.481 C 153.117 15.217, 128.621 15.036, 98.417 15.079 C 68.212 15.122, 43.950 15.308, 44.500 15.492 M 34.614 20.107 C 33.431 23.911, 29.936 56.711, 28.926 73.500 C 27.788 92.413, 27.796 92.589, 30.804 112.057 L 33.826 131.615 29.919 154.557 C 27.771 167.176, 26.122 177.815, 26.256 178.201 C 26.390 178.587, 33.119 172.512, 41.209 164.701 L 55.918 150.500 56.579 117 L 57.241 83.500 61.120 75.772 C 63.254 71.522, 65 67.636, 65 67.136 C 65 65.193, 35.022 18.795, 34.614 20.107 M 151.276 61.395 C 139.603 66.953, 130.045 71.725, 130.036 72 C 130.027 72.275, 137.042 75.200, 145.626 78.500 C 159.337 83.771, 163.340 85.993, 161.837 87.497 C 161.611 87.723, 151.814 87.469, 140.067 86.933 C 128.319 86.398, 118.563 86.104, 118.386 86.281 C 118.209 86.458, 122.212 88.100, 127.282 89.931 C 152.746 99.124, 161.054 102.279, 160.707 102.626 C 160.498 102.835, 151.832 105.420, 141.450 108.370 C 123.599 113.442, 122.355 113.662, 118.537 112.424 C 116.317 111.703, 108.566 109.278, 101.312 107.034 L 88.125 102.953 84.660 97.414 C 82.755 94.368, 80.986 92.241, 80.730 92.687 C 80.473 93.134, 78.991 98.769, 77.436 105.208 L 74.608 116.916 81.963 144.208 C 86.009 159.219, 89.651 172.149, 90.057 172.943 C 90.527 173.862, 91.920 170.778, 93.896 164.443 C 103.789 132.722, 109.919 115.481, 111.414 115.177 C 112.398 114.976, 113.004 115.545, 113.010 116.677 C 113.032 120.846, 117.958 184.291, 118.285 184.619 C 118.481 184.815, 123.785 173.285, 130.071 158.997 C 136.357 144.709, 142.063 133.015, 142.750 133.010 C 143.663 133.003, 144 135.561, 144 142.500 C 144 147.725, 144.228 152, 144.507 152 C 145.517 152, 165.571 148.970, 168.250 148.413 L 171 147.841 171.010 122.171 C 171.016 108.052, 171.484 86.431, 172.051 74.124 C 172.617 61.817, 172.950 51.645, 172.790 51.519 C 172.631 51.393, 162.949 55.838, 151.276 61.395 M 116.008 78.433 L 107.516 82.766 124.508 83.399 C 133.854 83.748, 144.197 84.285, 147.494 84.594 C 150.791 84.902, 153.257 84.924, 152.975 84.641 C 152.140 83.806, 126.766 73.995, 125.584 74.050 C 124.988 74.078, 120.679 76.050, 116.008 78.433 M 82 86.394 C 82 87.304, 83.825 90.938, 86.055 94.470 C 89.755 100.328, 90.565 101.023, 95.305 102.404 C 98.162 103.237, 105.526 105.463, 111.669 107.351 L 122.837 110.784 137.669 106.499 C 151.835 102.407, 152.365 102.161, 149.500 101.024 C 147.850 100.370, 137.950 96.676, 127.500 92.817 L 108.500 85.799 95.250 85.269 C 83.374 84.794, 82 84.911, 82 86.394" stroke="none" fill="black" fill-rule="evenodd"/>
</svg>