<svg xmlns="http://www.w3.org/2000/svg" width="200" height="200" viewBox="0 0 200 200" version="1.1">
	<path d="M 33.376 10.765 C 32.709 11.201, 31.809 17.803, 31.163 27 C 30.564 35.525, 28.620 51.050, 26.844 61.500 L 23.615 80.500 27.253 100.500 L 30.892 120.500 24.577 147 C 19.930 166.499, 18.597 173.580, 19.530 173.804 C 20.653 174.073, 51.017 168.635, 55.090 167.435 C 56.488 167.023, 56.764 162.661, 57.371 131.330 L 58.061 95.694 63.643 79.677 L 69.226 63.659 66.651 53.836 L 64.077 44.012 51.945 28.932 C 45.273 20.638, 39.992 13.675, 40.208 13.458 C 40.655 13.012, 105.175 17.842, 105.694 18.361 C 105.879 18.546, 103.661 20.884, 100.765 23.557 C 97.869 26.229, 91.548 32.106, 86.718 36.616 L 77.936 44.817 75.940 66.158 C 74.841 77.896, 72.818 97.124, 71.442 108.888 C 70.067 120.651, 69.068 130.366, 69.221 130.476 C 69.374 130.587, 86.065 143.809, 106.311 159.859 C 126.556 175.909, 143.458 189.144, 143.869 189.270 C 144.744 189.539, 196.201 153.868, 195.684 153.351 C 195.492 153.159, 182.593 154.149, 167.020 155.551 C 151.446 156.953, 137.907 157.965, 136.933 157.800 C 135.680 157.588, 139.632 153.316, 150.424 143.215 L 165.687 128.930 170.977 109.715 C 173.886 99.147, 177.280 86.821, 178.518 82.323 L 180.770 74.147 168.289 62.823 C 161.425 56.596, 154.885 50.773, 153.757 49.885 C 151.774 48.323, 152.115 48.025, 164.024 40.904 L 176.343 33.538 172.921 32.826 C 168.796 31.968, 116.018 28.649, 115.454 29.212 C 115.237 29.430, 117.467 38.274, 120.412 48.866 C 124.698 64.285, 125.440 67.994, 124.132 67.471 C 123.235 67.112, 119.056 65.536, 114.848 63.970 L 107.195 61.122 105.562 69.811 C 103.698 79.730, 100.667 108, 101.390 108.723 C 101.795 109.128, 127.841 103.935, 133.250 102.371 C 134.293 102.070, 134.989 102.397, 134.972 103.183 C 134.957 103.907, 129.342 107.762, 122.494 111.750 C 110.250 118.880, 109.927 119, 103.022 119 C 98.027 119, 96 119.365, 96 120.265 C 96 121.370, 143.478 138, 146.632 138 C 147.278 138, 145.955 131.607, 143.372 122.250 C 140.980 113.587, 139.018 106.188, 139.012 105.806 C 139.005 105.424, 141.431 103.658, 144.402 101.881 C 151.538 97.613, 150.958 95.839, 142.971 97.506 C 137.709 98.604, 136.999 98.562, 136.566 97.121 C 135.514 93.616, 130 73.634, 130 73.327 C 130 73.147, 130.449 73, 130.998 73 C 131.829 73, 140.497 67.339, 143.321 64.952 C 144.315 64.111, 130.403 36, 128.993 36 C 127.230 36, 127.891 37.811, 134.392 50.785 L 140.784 63.541 135.768 66.860 C 131.621 69.605, 130.537 69.948, 129.512 68.840 C 128.092 67.306, 118.608 33.059, 119.387 32.280 C 119.856 31.811, 143.076 33.127, 160.825 34.629 L 168.149 35.249 158.325 41.105 C 152.921 44.325, 148.500 47.339, 148.500 47.801 C 148.500 48.264, 155.101 54.611, 163.169 61.905 C 176.980 74.391, 177.787 75.323, 176.973 77.833 C 176.497 79.300, 173.581 89.725, 170.493 101 C 167.404 112.275, 164.436 122.915, 163.896 124.645 C 163.226 126.790, 157.221 133.144, 145.017 144.622 C 135.174 153.880, 127.229 161.563, 127.362 161.695 C 127.494 161.828, 139.955 160.811, 155.051 159.436 C 170.148 158.061, 183.266 157.063, 184.201 157.218 C 185.998 157.516, 146.621 185.500, 144.405 185.500 C 143.225 185.500, 73.641 130.847, 72.528 129.045 C 72.236 128.573, 73.328 116.557, 74.954 102.343 C 76.581 88.129, 78.465 69.750, 79.142 61.500 L 80.373 46.500 90.927 36.500 C 96.732 31, 103.947 24.177, 106.962 21.337 L 112.442 16.174 108.971 15.604 C 106.048 15.125, 38.214 9.970, 35.431 10.015 C 34.919 10.024, 33.994 10.361, 33.376 10.765 M 34.633 18.750 C 34.324 21.913, 33.781 28.537, 33.427 33.472 C 33.073 38.406, 31.351 51.006, 29.601 61.472 L 26.419 80.500 30.066 100.241 L 33.714 119.983 27.800 145.101 C 24.547 158.916, 22.049 170.383, 22.249 170.583 C 22.601 170.934, 53.075 165.259, 53.587 164.747 C 53.725 164.608, 54.160 148.971, 54.553 129.997 L 55.267 95.500 60.783 79.603 L 66.299 63.707 63.988 54.603 C 61.687 45.539, 61.621 45.430, 48.746 29.250 C 41.633 20.313, 35.675 13, 35.505 13 C 35.335 13, 34.943 15.588, 34.633 18.750 M 107.655 74.192 C 106.104 83.207, 103.738 105.071, 104.257 105.591 C 104.519 105.853, 133.241 99.872, 133.819 99.436 C 133.995 99.303, 132.453 92.923, 130.393 85.258 L 126.647 71.321 119.074 68.519 C 114.908 66.978, 110.995 65.529, 110.378 65.301 C 109.665 65.036, 108.674 68.272, 107.655 74.192 M 123 114.573 C 116.125 118.643, 109.825 122.013, 109 122.063 C 107.672 122.144, 141.520 134, 143.079 134 C 143.793 134, 137.128 108.841, 136.148 107.837 C 135.791 107.473, 129.875 110.504, 123 114.573" stroke="none" fill="black" fill-rule="evenodd"/>
</svg>