<svg xmlns="http://www.w3.org/2000/svg" width="200" height="200" viewBox="0 0 200 200" version="1.1">
	<path d="M 117.981 9 L 115.461 13.500 74.231 13.761 C 35.844 14.004, 32.998 14.142, 32.970 15.761 C 32.953 16.717, 31.894 26.500, 30.617 37.500 L 28.294 57.500 31.807 66 C 35.898 75.900, 35.746 75.654, 37.011 74.389 C 37.648 73.752, 36.785 70.559, 34.537 65.229 L 31.086 57.046 33.084 39.273 C 34.182 29.498, 35.297 20.488, 35.560 19.250 L 36.038 17 74.519 17 C 95.684 17, 112.993 17.337, 112.985 17.750 C 112.936 20.139, 108.605 21.088, 80 24.977 C 62.675 27.332, 48.340 29.398, 48.145 29.568 C 47.749 29.913, 49.363 31.349, 66.451 45.859 C 73.527 51.869, 79.033 55.831, 79.951 55.576 C 80.803 55.338, 84.425 54.854, 88 54.500 C 91.575 54.146, 95.265 53.640, 96.201 53.376 C 97.165 53.104, 101.274 46.426, 105.692 37.948 C 112.696 24.511, 113.746 23, 116.085 23 L 118.687 23 119.340 38.750 C 119.699 47.413, 119.995 70.975, 119.997 91.110 L 120 127.721 102.823 151.222 L 85.646 174.724 82.073 172.681 C 80.108 171.558, 78.348 170.531, 78.162 170.398 C 77.977 170.266, 84.145 157.653, 91.869 142.369 C 99.593 127.085, 105.754 114.421, 105.560 114.227 C 105.366 114.032, 98.298 116.087, 89.853 118.791 C 81.409 121.496, 74.331 123.568, 74.124 123.396 C 73.918 123.223, 80.389 115.362, 88.504 105.928 C 96.620 96.493, 103.314 88.175, 103.380 87.443 C 103.483 86.298, 65.147 60.441, 64.496 61.216 C 64.365 61.372, 64.589 66.900, 64.993 73.500 C 65.630 83.907, 65.297 88.952, 62.491 111.500 L 59.255 137.500 46.532 158.500 L 33.809 179.500 34.386 163.780 L 34.964 148.060 29.341 134.280 L 23.718 120.500 27.380 105.500 C 31.523 88.533, 31.457 89, 29.694 89 C 28.831 89, 27.117 94.401, 24.640 104.929 L 20.893 120.858 26.491 134.522 L 32.089 148.186 31.393 167.093 C 30.808 182.982, 30.920 185.995, 32.098 185.969 C 32.869 185.952, 39.932 175.155, 47.794 161.976 L 62.088 138.014 65.117 114.257 C 67.402 96.331, 68.067 87.518, 67.823 78.348 C 67.542 67.781, 67.696 66.306, 69 67.033 C 75.561 70.694, 99.500 86.993, 99.500 87.800 C 99.500 88.361, 91.944 97.693, 82.710 108.537 C 73.475 119.381, 66.126 128.459, 66.377 128.711 C 66.730 129.063, 83.499 123.924, 99.735 118.488 C 100.414 118.260, 95.127 129.754, 87.985 144.030 C 80.843 158.305, 75 170.343, 75 170.781 C 75 171.926, 85.938 178.395, 86.657 177.676 C 86.988 177.345, 95.326 166.145, 105.184 152.787 L 123.109 128.500 122.563 78.500 C 122.262 51, 121.737 27.038, 121.395 25.250 C 120.822 22.254, 120.977 22, 123.387 22 C 125.557 22, 126.010 22.467, 126.059 24.750 C 126.092 26.262, 126.484 39.425, 126.930 54 C 127.510 72.952, 127.357 87.478, 126.393 105 C 125.652 118.475, 125.036 132.425, 125.024 136 L 125.003 142.500 139.251 165.704 C 147.088 178.466, 153.725 188.905, 154 188.902 C 154.275 188.900, 162.281 179.358, 171.790 167.699 L 189.080 146.500 183.907 145.843 C 181.062 145.482, 173.056 144.866, 166.117 144.475 C 159.178 144.084, 153.239 143.612, 152.919 143.428 C 152.600 143.243, 152.890 138.683, 153.563 133.296 C 154.236 127.908, 155.092 120.912, 155.465 117.750 L 156.144 112 163.572 112 L 171 112 171 85.991 L 171 59.981 164.642 56.846 L 158.284 53.711 155.468 41.273 L 152.652 28.834 155.826 22.398 C 157.572 18.858, 159 15.521, 159 14.981 C 159 14.374, 151.775 14, 140.055 14 L 121.110 14 120.805 9.250 L 120.500 4.500 117.981 9 M 115.638 18.500 C 115.288 19.414, 115.637 20, 116.531 20 C 117.339 20, 118 19.325, 118 18.500 C 118 17.675, 117.598 17, 117.107 17 C 116.616 17, 115.955 17.675, 115.638 18.500 M 121 18.077 C 121 18.712, 122.537 19.020, 124.750 18.827 L 128.500 18.502 129.124 33.001 C 130.107 55.833, 130.069 92.014, 129.044 109.500 C 128.527 118.300, 127.975 129.100, 127.816 133.500 L 127.526 141.500 139.905 161.500 C 146.714 172.500, 152.821 182.085, 153.478 182.800 C 154.431 183.838, 157.529 180.620, 168.836 166.848 C 176.626 157.359, 183 149.316, 183 148.975 C 183 148.635, 175.509 147.835, 166.353 147.198 C 157.197 146.561, 149.620 145.918, 149.514 145.770 C 149.409 145.621, 150.243 137.550, 151.368 127.834 L 153.414 110.167 156.332 109.584 C 157.937 109.263, 161.219 109, 163.625 109 L 168 109 168.003 102.750 C 168.005 99.313, 168.300 88.747, 168.660 79.271 L 169.313 62.042 162.672 58.934 C 155.221 55.447, 155.995 56.926, 151.957 38.453 L 149.760 28.407 152.380 23.237 C 153.821 20.393, 155 17.827, 155 17.533 C 155 17.240, 147.350 17, 138 17 C 126.527 17, 121 17.350, 121 18.077 M 81 27.565 C 68.075 29.387, 56.652 31.018, 55.616 31.189 C 54.236 31.417, 57.075 34.346, 66.229 42.142 L 78.726 52.784 87.318 51.742 L 95.910 50.700 99.594 43.600 C 101.620 39.695, 104.829 33.688, 106.725 30.250 L 110.172 24 107.336 24.125 C 105.776 24.194, 93.925 25.742, 81 27.565" stroke="none" fill="black" fill-rule="evenodd"/>
</svg>