<svg xmlns="http://www.w3.org/2000/svg" width="200" height="200" viewBox="0 0 200 200" version="1.1">
	<path d="M 114 11.822 L 110.500 15.964 84.500 16.803 C 63.336 17.486, 58.351 17.397, 57.700 16.321 C 56.620 14.537, 54 14.641, 54 16.467 C 54 17.653, 51.845 17.989, 42.764 18.217 L 31.527 18.500 27.773 38.500 L 24.018 58.500 27.339 70.676 L 30.660 82.852 24.793 102.176 C 21.567 112.804, 19.056 122.201, 19.213 123.059 C 19.746 125.956, 34.490 149.957, 35.750 149.979 C 36.438 149.990, 37 149.648, 37 149.217 C 37 148.787, 33.625 142.869, 29.500 136.066 C 25.375 129.263, 22 123.068, 22 122.299 C 22 121.530, 24.475 112.680, 27.500 102.632 C 30.525 92.585, 33 83.600, 33 82.666 C 33 81.731, 31.612 75.967, 29.916 69.857 L 26.832 58.746 29.956 41.623 C 31.674 32.205, 33.318 23.712, 33.608 22.750 C 34.063 21.237, 35.472 21, 43.988 21 L 53.841 21 54.377 23.750 C 54.671 25.263, 55.214 34.263, 55.584 43.750 C 55.953 53.237, 56.661 61, 57.156 61 C 57.652 61, 60.782 59.625, 64.112 57.944 C 74.509 52.695, 74.485 52.698, 76.321 56.547 L 77.936 59.933 66.080 68.068 L 54.225 76.203 55.647 82.352 C 56.429 85.733, 57.476 89.995, 57.974 91.823 C 58.575 94.030, 58.164 104.510, 56.751 123.031 L 54.622 150.915 42.460 166.893 L 30.298 182.870 25.486 170.185 C 18.353 151.382, 17.992 150.608, 16.872 151.728 C 16.218 152.382, 18.140 158.622, 22.535 170.109 C 26.195 179.674, 29.334 187.650, 29.511 187.833 C 29.688 188.016, 36.011 179.954, 43.562 169.918 L 57.291 151.669 59.445 123.587 L 61.599 95.505 59.458 86.425 L 57.316 77.345 67.908 70.165 C 73.734 66.215, 78.804 62.988, 79.175 62.992 C 79.546 62.996, 81.198 65.489, 82.845 68.531 C 85.593 73.603, 85.799 74.660, 85.337 81.281 C 85.060 85.251, 85.272 92.550, 85.809 97.500 C 86.928 107.828, 88.511 104.405, 72.625 126.013 C 67.744 132.652, 63.919 138.252, 64.125 138.458 C 64.331 138.663, 70.125 139.376, 77 140.043 C 83.875 140.710, 89.826 141.546, 90.225 141.903 C 90.624 142.259, 83.939 151.314, 75.369 162.025 C 66.799 172.736, 58.448 183.187, 56.810 185.249 C 54.526 188.126, 54.161 189.125, 55.243 189.540 C 56.019 189.837, 66.958 183.759, 79.569 176.023 L 102.485 161.965 108.561 145.998 C 111.902 137.216, 114.890 129.777, 115.200 129.467 C 115.510 129.157, 123.065 142.313, 131.989 158.702 C 140.913 175.091, 148.513 188.824, 148.877 189.219 C 149.241 189.615, 151.780 177.956, 154.519 163.309 L 159.500 136.679 170.211 130.079 C 176.102 126.448, 181.414 122.986, 182.016 122.384 C 182.808 121.592, 178.819 119.809, 167.555 115.923 C 159 112.971, 152 110.290, 152 109.965 C 152 109.640, 158.945 103.327, 167.432 95.937 C 175.920 88.547, 182.895 82.261, 182.932 81.969 C 182.970 81.677, 177.037 79.909, 169.750 78.040 C 162.463 76.172, 155.005 74.243, 153.178 73.755 L 149.856 72.866 167.410 60.213 C 177.887 52.660, 184.467 47.301, 183.731 46.919 C 183.054 46.568, 177.278 45.271, 170.895 44.038 C 164.512 42.806, 158.876 41.505, 158.372 41.148 C 157.867 40.792, 154.661 34.425, 151.247 27 L 145.040 13.500 141.270 13.547 C 139.196 13.574, 133.143 13.962, 127.817 14.411 L 118.134 15.228 117.817 11.454 L 117.500 7.681 114 11.822 M 127.253 17.225 L 118.007 18.207 118.521 23.354 C 119.373 31.888, 120.997 80.408, 120.998 97.397 C 121 111.109, 120.708 114.095, 118.877 119.117 L 116.754 124.939 132.016 153.030 C 140.411 168.480, 147.611 180.756, 148.016 180.311 C 148.421 179.865, 150.418 170.275, 152.453 159 C 154.488 147.725, 156.370 137.724, 156.635 136.776 C 156.901 135.828, 161.643 132.236, 167.173 128.794 L 177.227 122.536 174.363 121.316 C 172.789 120.644, 165.988 118.236, 159.250 115.965 C 152.512 113.693, 147 111.462, 147 111.007 C 147 110.552, 153.768 104.218, 162.041 96.931 C 170.313 89.644, 176.726 83.362, 176.291 82.970 C 175.856 82.579, 168.750 80.552, 160.500 78.467 C 152.250 76.381, 145.216 74.410, 144.868 74.087 C 144.520 73.764, 151.813 68.100, 161.073 61.500 C 170.333 54.900, 177.930 49.233, 177.955 48.906 C 177.980 48.580, 174.063 47.526, 169.250 46.564 C 155.064 43.728, 156.526 44.964, 149.639 29.971 C 142.502 14.432, 144.237 15.420, 127.253 17.225 M 72.750 19.747 C 65.737 19.919, 60 20.273, 60 20.534 C 60 22.171, 75.431 48.994, 76.358 48.968 C 76.986 48.951, 80.650 47.263, 84.500 45.218 C 90.573 41.992, 92.466 40.242, 98.793 32 C 102.805 26.775, 106.533 21.712, 107.079 20.750 C 108.158 18.846, 108.786 18.864, 72.750 19.747 M 102.503 31.521 C 93.247 43.553, 92.561 44.199, 84.920 48.040 L 76.968 52.038 78.510 55.019 C 79.358 56.659, 80.295 58, 80.592 58 C 80.890 58, 82.608 56.875, 84.411 55.500 C 86.214 54.125, 87.984 53, 88.344 53 C 88.705 53, 89 57.774, 89 63.608 L 89 74.217 101.626 97.358 C 108.570 110.086, 114.393 120.661, 114.567 120.858 C 114.741 121.055, 115.584 119.538, 116.441 117.486 C 118.417 112.758, 118.587 81.153, 116.835 44.250 C 115.747 21.322, 115.476 19, 113.886 19 C 112.825 19, 108.343 23.930, 102.503 31.521 M 57.410 28.500 C 57.701 32.350, 58.221 40.337, 58.566 46.250 C 58.911 52.163, 59.366 57, 59.577 57 C 59.789 57, 62.882 55.560, 66.451 53.800 L 72.941 50.600 67.476 40.412 C 64.471 34.809, 60.857 28.262, 59.446 25.862 L 56.881 21.500 57.410 28.500 M 83.575 59.321 C 81.842 60.589, 81.853 60.801, 83.840 64.571 L 85.912 68.500 85.956 63.250 C 85.980 60.362, 85.861 58, 85.691 58 C 85.521 58, 84.569 58.595, 83.575 59.321 M 88.446 93.328 L 89.074 108.156 79.451 121.220 C 74.159 128.405, 69.620 134.826, 69.366 135.487 C 69.034 136.353, 72.709 137.047, 82.452 137.959 C 89.904 138.657, 96 139.516, 96 139.868 C 96 140.221, 88.344 150.070, 78.986 161.755 C 69.628 173.440, 62.210 183, 62.501 183 C 62.925 183, 98.606 161.433, 99.837 160.433 C 100.579 159.831, 113 126.670, 113 125.293 C 113 123.951, 94.238 88.668, 89.713 81.500 L 87.819 78.500 88.446 93.328" stroke="none" fill="black" fill-rule="evenodd"/>
</svg>