<svg xmlns="http://www.w3.org/2000/svg" width="200" height="200" viewBox="0 0 200 200" version="1.1">
	<path d="M 108.500 22.030 C 95.300 26.361, 80.797 31.353, 76.271 33.122 L 68.043 36.338 59.521 33.948 C 54.835 32.633, 51.002 31.320, 51.005 31.029 C 51.008 30.738, 54.383 28.376, 58.505 25.779 C 65.436 21.414, 67.795 18.884, 64.750 19.081 C 64.063 19.126, 54.050 25.326, 42.500 32.861 L 21.500 46.559 20.882 51.592 C 20.542 54.360, 19.929 68.926, 19.519 83.960 L 18.775 111.295 21.637 110.743 C 23.212 110.439, 36.311 108.246, 50.747 105.869 L 76.993 101.549 79.059 103.614 L 81.124 105.680 57.910 110.325 C 45.143 112.880, 34.457 115.209, 34.165 115.502 C 32.884 116.783, 36.653 118.191, 54.741 123.186 C 65.323 126.109, 73.985 128.778, 73.991 129.118 C 73.996 129.458, 71.239 130.511, 67.865 131.458 C 62.777 132.885, 60.516 134.316, 54.615 139.840 C 50.702 143.503, 47.500 146.905, 47.500 147.401 C 47.500 147.896, 50.200 149.306, 53.500 150.535 L 59.500 152.768 64.158 163.134 C 66.972 169.394, 69.348 173.425, 70.158 173.312 C 70.896 173.208, 82.750 171.059, 96.500 168.536 L 121.500 163.949 155 150.347 C 173.425 142.867, 188.834 136.447, 189.242 136.081 C 189.650 135.715, 178.963 133.915, 165.492 132.080 C 145.007 129.290, 141 128.481, 141 127.132 C 141 126.245, 142.202 119.959, 143.671 113.164 L 146.342 100.808 162.109 86.904 C 170.780 79.257, 178.299 73, 178.816 73 C 179.333 73, 180.433 71.988, 181.261 70.750 C 182.694 68.609, 182.352 67.894, 174.221 56 C 169.521 49.125, 165.607 43.395, 165.522 43.267 C 165.437 43.139, 163.935 43.445, 162.184 43.947 C 158.203 45.089, 158.208 45.377, 161.932 28.500 C 165.968 10.210, 165.486 9.937, 154.422 24.247 C 150.065 29.882, 142.270 38.882, 137.099 44.247 C 131.928 49.611, 127.999 54, 128.366 54 C 128.733 54, 134.237 52.875, 140.597 51.500 C 146.957 50.125, 152.758 49, 153.490 49 C 154.591 49, 154.598 49.952, 153.530 54.546 C 152.821 57.596, 151.967 60.367, 151.632 60.702 C 151.296 61.037, 140.105 58.046, 126.761 54.056 C 113.417 50.065, 95.577 44.728, 87.115 42.195 L 71.729 37.590 102.865 27.212 C 124.176 20.108, 134 16.386, 134 15.417 C 134 14.637, 133.662 14.035, 133.250 14.077 C 132.838 14.120, 121.700 17.698, 108.500 22.030 M 153.230 29.750 C 149.303 34.563, 143.841 41.006, 141.093 44.070 L 136.097 49.640 145.299 47.706 C 150.359 46.642, 154.791 45.486, 155.146 45.136 C 155.741 44.550, 161.039 21, 160.575 21 C 160.462 21, 157.157 24.938, 153.230 29.750 M 35.293 40.889 L 23.243 48.770 22.502 77.932 C 22.094 93.971, 21.927 107.250, 22.130 107.441 C 22.473 107.763, 66.507 100.682, 71.922 99.434 C 74.157 98.919, 73.478 98.008, 63.075 87.575 L 51.807 76.275 53.412 73.171 L 55.016 70.067 65.440 69.784 L 75.864 69.500 72.469 59.046 C 70.603 53.296, 69.171 48.500, 69.288 48.390 C 69.404 48.279, 76.667 48.591, 85.427 49.084 C 94.187 49.577, 101.486 49.848, 101.647 49.686 C 101.808 49.525, 94.049 47.080, 84.405 44.253 L 66.869 39.113 56.976 42.556 C 51.535 44.450, 46.654 46, 46.130 46 C 45.579 46, 45.781 43.413, 46.611 39.855 C 47.399 36.476, 47.886 33.553, 47.693 33.360 C 47.500 33.167, 41.920 36.555, 35.293 40.889 M 50.037 37.828 C 49.496 39.786, 49.238 41.571, 49.462 41.796 C 49.933 42.266, 60.148 39.070, 61.206 38.121 C 61.594 37.773, 59.461 36.764, 56.466 35.879 L 51.020 34.268 50.037 37.828 M 158.266 48.250 C 157.284 49.504, 154.581 61.957, 155.181 62.465 C 156.180 63.313, 178.151 69.183, 178.609 68.724 C 178.912 68.421, 175.964 63.409, 172.058 57.586 C 165.806 48.268, 164.613 47, 162.100 47 C 160.530 47, 158.804 47.563, 158.266 48.250 M 73.421 52.615 C 73.828 53.652, 75.137 57.984, 76.330 62.242 L 78.500 69.985 94.206 69.992 L 109.913 70 112.456 61.948 C 113.855 57.520, 115 53.750, 115 53.570 C 115 53.390, 107.912 52.945, 99.250 52.582 C 90.588 52.220, 81.066 51.654, 78.091 51.326 C 73.082 50.774, 72.737 50.869, 73.421 52.615 M 117.016 56.458 C 116.536 57.719, 115.637 60.635, 115.017 62.938 C 114.397 65.241, 113.637 67.782, 113.329 68.585 C 112.848 69.839, 115.431 70.007, 131.634 69.772 L 150.500 69.500 150.811 66.810 C 151.102 64.286, 150.703 63.996, 144.311 62.090 C 140.565 60.972, 133.087 58.732, 127.694 57.111 L 117.888 54.164 117.016 56.458 M 154 65.918 C 154 66.423, 153.727 67.548, 153.393 68.418 C 152.868 69.787, 153.914 69.989, 161.143 69.919 L 169.500 69.837 162 67.438 C 153.199 64.622, 154 64.774, 154 65.918 M 55.696 74.250 C 55.437 74.938, 60.400 80.732, 66.724 87.127 C 75.254 95.751, 78.711 98.627, 80.112 98.261 C 82.538 97.626, 82.533 97.551, 79.312 84.250 L 76.588 73 66.377 73 C 59.127 73, 56.030 73.362, 55.696 74.250 M 82.588 86.250 C 84.439 93.537, 85.964 99.564, 85.977 99.642 C 85.990 99.719, 84.802 100.084, 83.338 100.451 C 80.698 101.114, 80.692 101.137, 82.624 103.069 C 84.556 105.001, 84.695 104.995, 98.537 102.350 C 106.217 100.883, 112.826 99.405, 113.224 99.067 C 113.623 98.728, 112.966 92.725, 111.765 85.726 L 109.582 73 94.402 73 L 79.222 73 82.588 86.250 M 114.624 86.250 C 115.925 93.537, 116.992 99.977, 116.995 100.559 C 116.998 101.142, 110.196 102.881, 101.879 104.424 L 86.759 107.228 98.565 119.066 C 108.717 129.243, 132.319 148.069, 133.432 146.876 C 133.883 146.392, 136.913 131.579, 136.621 131.287 C 136.499 131.166, 132.657 130.489, 128.082 129.784 L 119.764 128.500 129.479 116.500 C 134.822 109.900, 140.231 103.375, 141.499 102 C 143.160 100.200, 144.533 96.160, 146.403 87.576 C 147.831 81.017, 149 75.055, 149 74.326 C 149 73.273, 145.219 73, 130.629 73 L 112.258 73 114.624 86.250 M 150.077 83.577 C 148.836 89.394, 148.015 94.348, 148.253 94.587 C 148.650 94.983, 165.111 81.084, 170.977 75.400 L 173.455 73 162.894 73 L 152.334 73 150.077 83.577 M 133.591 115.750 L 125.006 126.500 131.073 127.347 C 134.410 127.812, 137.286 128.037, 137.463 127.847 C 137.894 127.385, 142.765 105, 142.435 105 C 142.293 105, 138.314 109.838, 133.591 115.750 M 61.106 112.372 L 40.711 116.539 62.335 122.490 C 74.229 125.763, 83.631 128.738, 83.230 129.102 C 82.828 129.466, 78 131.171, 72.500 132.890 C 63.634 135.662, 61.855 136.627, 56.813 141.406 L 51.127 146.795 56.290 148.651 C 61.437 150.501, 61.466 150.536, 65.700 160.004 C 68.665 166.634, 70.520 169.591, 71.845 169.803 C 72.888 169.969, 84.488 168.061, 97.621 165.562 L 121.500 161.018 150.231 149.324 C 166.033 142.892, 178.732 137.399, 178.451 137.118 C 178.170 136.837, 169.398 135.431, 158.957 133.994 L 139.974 131.382 139.082 134.941 C 138.591 136.898, 137.662 140.975, 137.017 144 C 136.372 147.025, 135.668 150.064, 135.452 150.753 C 134.746 153.011, 113.041 136.382, 97.835 121.934 C 89.769 114.270, 82.794 108.046, 82.335 108.103 C 81.876 108.159, 72.323 110.081, 61.106 112.372" stroke="none" fill="black" fill-rule="evenodd"/>
</svg>