<svg xmlns="http://www.w3.org/2000/svg" width="200" height="200" viewBox="0 0 200 200" version="1.1">
	<path d="M 52.480 14 C 52.846 16.475, 53.369 19.288, 53.640 20.250 C 54.265 22.463, 54.142 22.458, 44.333 19.884 C 37.855 18.184, 36.052 17.306, 35.615 15.638 C 34.784 12.457, 33.025 14.866, 32.402 20.040 C 32.112 22.442, 30.556 31.404, 28.944 39.954 C 27.127 49.592, 25.583 62.340, 24.881 73.500 L 23.748 91.500 27.447 111.086 L 31.145 130.672 25.547 156.508 C 22.467 170.717, 20.072 182.703, 20.224 183.142 C 20.376 183.582, 28.825 178.555, 39 171.973 C 55.374 161.381, 57.586 159.632, 58.245 156.753 C 59.188 152.637, 63.723 97.016, 64.607 78.712 C 64.974 71.129, 65.611 65.054, 66.023 65.212 C 66.435 65.371, 72.691 69.100, 79.927 73.500 L 93.081 81.500 86.769 87.500 C 83.297 90.800, 77.187 96.596, 73.191 100.380 C 69.195 104.163, 66.085 107.419, 66.280 107.613 C 66.474 107.808, 75.716 108.739, 86.817 109.682 C 97.918 110.625, 106.997 111.645, 106.993 111.948 C 106.989 112.252, 99.564 114.701, 90.493 117.392 C 81.422 120.083, 74 122.568, 74 122.916 C 74 123.263, 81.686 127.361, 91.080 132.024 C 103.868 138.370, 107.527 140.578, 105.643 140.810 C 102.709 141.172, 73.626 161.019, 73.860 162.500 C 73.947 163.050, 83.126 166.543, 94.259 170.263 L 114.500 177.025 146.750 177.674 C 167.551 178.093, 179 177.976, 179 177.345 C 179 176.560, 169.511 133.624, 168.692 130.703 C 168.569 130.265, 166.451 131.604, 163.984 133.677 C 160.977 136.206, 162.371 134.293, 168.215 127.868 L 176.930 118.288 169.314 117.644 C 165.125 117.290, 159.968 117, 157.853 117 L 154.007 117 161.503 106.592 C 165.627 100.868, 169 95.984, 169 95.740 C 169 95.496, 161.545 95.050, 152.434 94.749 C 143.323 94.448, 135.746 94.044, 135.597 93.851 C 135.448 93.658, 135.526 90.283, 135.770 86.350 L 136.214 79.200 159.763 58.350 C 172.715 46.883, 183.791 37.187, 184.377 36.804 C 184.963 36.422, 185.230 35.911, 184.971 35.670 C 184.712 35.429, 171.225 34.453, 155 33.502 L 125.500 31.772 118.022 27.636 C 113.909 25.361, 110.209 23.354, 109.801 23.176 C 109.393 22.999, 105.706 25.194, 101.609 28.055 L 94.159 33.256 81.829 30.008 L 69.500 26.760 60.657 18.130 L 51.814 9.500 52.480 14 M 56 19.309 C 56 21.369, 58.270 23.732, 61 24.514 C 63.358 25.189, 63.304 25.025, 60.054 21.615 C 56.203 17.575, 56 17.460, 56 19.309 M 33.502 30.250 C 29.055 54.364, 28.119 61.663, 27.506 77 C 26.861 93.124, 26.928 93.924, 30.414 112.088 L 33.982 130.676 28.927 153.941 C 26.147 166.737, 24.051 177.384, 24.269 177.602 C 24.487 177.820, 31.716 173.434, 40.333 167.855 C 53.923 159.055, 56.002 157.366, 56.014 155.106 C 56.021 153.672, 57.156 139.900, 58.535 124.500 C 59.914 109.100, 61.328 88.287, 61.675 78.250 C 62.023 68.213, 62.492 60, 62.718 60 C 63.128 60, 96.061 79.913, 96.995 80.726 C 97.268 80.963, 91.643 86.727, 84.495 93.533 L 71.500 105.909 75 106.029 C 76.925 106.095, 87.050 106.903, 97.500 107.824 C 122.431 110.023, 122.475 110.631, 98.223 117.948 L 79.945 123.462 98.543 132.771 C 108.993 138.002, 116.973 142.581, 116.759 143.222 C 116.516 143.951, 114.152 144.273, 110.221 144.112 L 104.063 143.861 91.453 152.552 C 84.517 157.332, 79.216 161.582, 79.671 161.997 C 80.127 162.411, 88.375 165.390, 98 168.616 L 115.500 174.481 145.846 174.829 C 174.932 175.163, 176.167 175.101, 175.614 173.339 C 175.296 172.327, 173.225 163.434, 171.011 153.576 C 168.797 143.718, 166.868 135.534, 166.723 135.389 C 166.578 135.245, 159.052 141.384, 149.998 149.032 C 126.102 169.217, 126.651 165.872, 151.280 141.221 C 162.126 130.364, 171 121.163, 171 120.774 C 171 120.384, 166.009 119.938, 159.909 119.783 L 148.817 119.500 156.409 109 L 164.002 98.500 157.251 97.874 C 153.538 97.530, 146.563 97.193, 141.750 97.124 L 133 97 133 87.670 L 133 78.340 155.551 58.488 C 170.407 45.410, 177.658 38.403, 176.801 37.951 C 176.085 37.573, 164.250 36.703, 150.500 36.015 L 125.500 34.766 117.293 30.354 L 109.086 25.942 104.043 29.565 C 101.269 31.557, 99 33.516, 99 33.918 C 99 34.320, 108.312 37.128, 119.694 40.158 C 144.429 46.741, 146.948 48.625, 129.791 47.705 L 118.309 47.090 115.992 60.545 C 114.718 67.945, 113.405 74, 113.075 74 C 112.745 74, 105.956 67.470, 97.988 59.488 C 89.757 51.242, 82.944 45.191, 82.209 45.473 C 81.498 45.746, 76.416 49.182, 70.916 53.109 C 65.416 57.036, 60.751 60.080, 60.550 59.874 C 60.349 59.668, 58.883 51.860, 57.292 42.521 L 54.399 25.542 46.450 23.301 C 34.740 20.001, 35.464 19.612, 33.502 30.250 M 57.982 28.250 C 57.972 28.938, 58.938 35.454, 60.130 42.732 L 62.297 55.964 68.898 51.290 C 72.529 48.719, 76.747 45.710, 78.271 44.604 L 81.042 42.593 74.278 35.776 C 69.963 31.428, 66.244 28.607, 64.007 27.985 C 59.347 26.691, 58.004 26.750, 57.982 28.250 M 78.387 35.822 L 83.274 40.847 87.275 38.200 L 91.275 35.552 85.387 33.803 C 82.149 32.840, 78.150 31.770, 76.500 31.425 C 73.547 30.807, 73.576 30.875, 78.387 35.822 M 90.500 39.224 C 88.300 40.821, 86.386 42.441, 86.246 42.825 C 86.107 43.208, 91.785 49.301, 98.865 56.366 L 111.738 69.210 112.320 65.855 C 112.640 64.010, 113.654 58.295, 114.573 53.155 L 116.243 43.809 120.871 44.498 C 128.605 45.649, 125.239 44.395, 109.500 40.261 L 94.500 36.321 90.500 39.224" stroke="none" fill="black" fill-rule="evenodd"/>
</svg>