<svg xmlns="http://www.w3.org/2000/svg" width="200" height="200" viewBox="0 0 200 200" version="1.1">
	<path d="M 75.500 15.060 C 34.800 18.257, 1.163 20.901, 0.750 20.936 C 0.337 20.971, 0 21.647, 0 22.437 C 0 23.482, 0.887 23.754, 3.250 23.435 C 5.038 23.193, 40.198 20.477, 81.384 17.399 L 156.269 11.804 158.624 14.652 C 159.919 16.218, 162.732 19.750, 164.875 22.500 L 168.772 27.500 170.911 46.500 C 172.087 56.950, 173.151 66.584, 173.275 67.908 C 173.484 70.146, 172.584 70.624, 160.500 74.691 C 149.280 78.466, 145.728 79.195, 134.561 80.011 C 127.445 80.531, 121.518 80.851, 121.389 80.722 C 120.934 80.267, 124.508 45.150, 125.066 44.597 C 125.377 44.288, 128.450 44.532, 131.895 45.138 C 141.054 46.752, 141.743 45.114, 133.846 40.502 C 130.356 38.463, 127.350 36.653, 127.166 36.480 C 126.982 36.306, 131.156 32.914, 136.441 28.941 C 141.727 24.968, 145.877 21.544, 145.664 21.330 C 145.451 21.117, 136.552 21.628, 125.888 22.464 C 115.225 23.301, 105.236 23.989, 103.691 23.993 C 99.751 24.003, 100.981 25.309, 109.023 29.653 C 112.860 31.725, 116 33.699, 116 34.039 C 116 34.380, 113.750 35.712, 111 37 C 108.250 38.288, 106 39.657, 106 40.043 C 106 40.429, 107.860 41.042, 110.134 41.405 C 112.407 41.769, 114.094 42.217, 113.884 42.401 C 113.673 42.586, 110.889 44.845, 107.699 47.422 L 101.897 52.107 74.899 44.025 C 49.954 36.557, 44.964 35.515, 46.567 38.108 C 46.897 38.642, 54.329 44.471, 63.083 51.063 C 71.837 57.654, 79 63.180, 79 63.343 C 79 63.506, 74.612 65.597, 69.250 67.989 C 63.888 70.382, 59.120 72.665, 58.657 73.063 C 58.193 73.461, 59.299 80.996, 61.115 89.808 L 64.417 105.829 56.072 141.164 C 51.482 160.599, 47.427 177.326, 47.060 178.335 C 46.529 179.797, 44.418 177.616, 36.696 167.627 L 27 155.083 27 132.240 C 27 99.129, 29.338 67.139, 33.176 47.731 C 36.057 33.163, 36.291 29.168, 34.123 31.567 C 33.659 32.080, 31.866 39.925, 30.139 49 C 26.408 68.603, 24 102.239, 24 134.749 L 24 155.636 35.712 170.806 C 42.153 179.150, 47.719 185.645, 48.082 185.238 C 48.444 184.832, 52.914 166.776, 58.015 145.114 L 67.291 105.729 64.129 90.680 C 62.390 82.404, 61.312 75.297, 61.734 74.887 C 62.155 74.477, 66.891 72.109, 72.258 69.625 L 82.015 65.109 84.718 67.434 L 87.420 69.758 81.382 76.629 C 72.174 87.108, 71.325 86.312, 90.824 85.479 L 107.895 84.749 112.198 88.097 C 114.564 89.939, 116.860 92.021, 117.300 92.723 C 117.740 93.425, 118.541 94, 119.081 94 C 119.621 94, 123.418 96.525, 127.519 99.612 L 134.975 105.223 127.277 111.172 L 119.580 117.121 117.301 111.810 C 116.048 108.890, 114.650 105.856, 114.195 105.068 C 113.418 103.722, 78.223 95.444, 77.281 96.385 C 77.062 96.604, 82.310 107.628, 88.942 120.884 C 95.574 134.139, 101 145.205, 101 145.476 C 101 145.747, 96.195 148.771, 90.323 152.197 L 79.645 158.425 90.009 168.150 C 98.580 176.193, 100.816 177.803, 102.936 177.456 C 104.346 177.226, 121.700 175.893, 141.500 174.494 C 161.300 173.095, 178.702 171.624, 180.171 171.225 C 182.685 170.543, 181.964 169.821, 167.978 159.019 C 159.803 152.704, 151.963 147.154, 150.557 146.686 C 149.151 146.217, 148 145.438, 148 144.954 C 148 144.470, 155.177 134.045, 163.948 121.787 C 177.099 103.409, 179.599 99.380, 178.198 98.815 C 177.264 98.438, 165.250 96.728, 151.500 95.016 C 116.964 90.716, 119.678 91.358, 120.416 87.670 C 120.754 85.981, 121.504 84.307, 122.083 83.949 C 122.661 83.591, 128.558 83.026, 135.186 82.693 C 145.956 82.151, 148.741 81.590, 161.369 77.419 C 169.141 74.851, 175.774 72.469, 176.108 72.125 C 177.224 70.978, 171.485 26.526, 169.948 24.413 C 169.152 23.318, 166.057 19.402, 163.071 15.711 C 157.912 9.334, 157.438 9.006, 153.571 9.124 C 151.332 9.192, 116.200 11.864, 75.500 15.060 M 126 25.117 C 120.225 25.578, 114.150 26.078, 112.500 26.228 L 109.500 26.500 114.275 29.360 C 118.796 32.067, 120.096 32.217, 124.250 30.506 C 125.499 29.992, 126 30.256, 126 31.428 C 126 32.687, 126.409 32.849, 127.750 32.123 C 129.577 31.133, 137.873 24.011, 137 24.181 C 136.725 24.234, 131.775 24.656, 126 25.117 M 116.133 37.383 C 114.117 38.501, 114.011 38.790, 115.422 39.332 C 117.092 39.972, 121 38.170, 121 36.759 C 121 35.623, 118.800 35.905, 116.133 37.383 M 125 39.893 C 125 40.828, 127.376 42, 129.273 42 C 129.883 42, 129.509 41.339, 128.441 40.532 C 126.204 38.840, 125 38.616, 125 39.893 M 55.500 41.708 C 56.584 42.794, 79.818 60.220, 81.566 61.258 C 82.152 61.606, 86.357 60.159, 90.909 58.042 C 96.798 55.304, 98.654 54.036, 97.343 53.648 C 85.644 50.185, 57.155 41.623, 56 41.224 C 54.999 40.878, 54.833 41.039, 55.500 41.708 M 113.192 46.492 C 106.453 51.793, 92 67.133, 92 68.984 C 92 69.317, 95.713 72.338, 100.251 75.699 C 108.203 81.589, 108.674 81.791, 113.265 81.274 C 118.855 80.644, 118.439 81.745, 119.979 63.500 C 120.582 56.350, 121.323 48.813, 121.626 46.750 C 122.129 43.320, 121.977 43.004, 119.838 43.051 C 118.552 43.080, 115.561 44.628, 113.192 46.492 M 89.653 61.615 C 85.144 63.961, 84.935 64.235, 86.653 65.537 C 89.276 67.525, 89.481 67.443, 93 63 C 96.676 58.359, 96.249 58.183, 89.653 61.615 M 84.722 76.764 C 79.058 83.565, 78.977 83.513, 93.720 82.508 L 104.086 81.802 96.867 76.401 C 92.897 73.430, 89.615 71.006, 89.574 71.014 C 89.533 71.022, 87.350 73.609, 84.722 76.764 M 114 86 C 117.181 88.488, 118 88.488, 118 86 C 118 84.406, 117.341 84.005, 114.750 84.022 L 111.500 84.044 114 86 M 127.352 95.761 C 127.611 96.179, 130.327 98.317, 133.388 100.511 C 136.449 102.705, 138.851 104.813, 138.727 105.195 C 138.497 105.899, 119.296 121, 118.631 121 C 118.433 121, 116.799 117.625, 115 113.500 C 113.201 109.375, 111.533 106, 111.293 106 C 111.052 106, 104.545 104.618, 96.833 102.928 C 89.120 101.239, 82.601 100.065, 82.346 100.320 C 82.092 100.575, 87.065 111.139, 93.397 123.795 L 104.911 146.806 95.206 152.553 C 89.868 155.714, 85.302 158.468, 85.060 158.673 C 84.503 159.146, 93.373 168.257, 98.012 171.976 L 101.525 174.792 138.398 171.927 C 158.678 170.352, 175.384 168.936, 175.522 168.781 C 176.286 167.924, 151.013 149.542, 147.356 148.296 C 144.545 147.338, 143.251 146.401, 143.709 145.656 C 144.100 145.020, 151.303 134.866, 159.717 123.091 C 168.130 111.315, 174.822 101.489, 174.587 101.254 C 174.147 100.813, 131.922 95.089, 128.691 95.032 C 127.696 95.014, 127.094 95.342, 127.352 95.761" stroke="none" fill="black" fill-rule="evenodd"/>
</svg>