<svg xmlns="http://www.w3.org/2000/svg" width="200" height="200" viewBox="0 0 200 200" version="1.1">
	<path d="M 162.575 26.222 C 159.407 34.075, 156.440 40.895, 155.980 41.378 C 155.507 41.874, 152.240 40.897, 148.460 39.128 C 144.783 37.408, 141.422 36, 140.989 36 C 140.557 36, 135.612 41.175, 130 47.500 C 124.217 54.018, 119.027 59, 118.021 59 C 117.044 59, 113.076 58.284, 109.203 57.410 L 102.161 55.819 99.407 47.910 C 96.788 40.385, 96.075 39.259, 94.760 40.573 C 94.142 41.192, 98.740 55.810, 100.103 57.559 C 100.557 58.142, 103.982 59.212, 107.714 59.938 C 121.989 62.712, 119.678 64.181, 102.950 62.966 C 84.826 61.649, 77.744 61.731, 78.247 63.250 C 78.474 63.938, 85.980 68.733, 94.927 73.906 C 105.427 79.977, 110.716 83.565, 109.847 84.025 C 109.106 84.417, 104.239 85.045, 99.031 85.421 C 93.823 85.797, 89.390 86.276, 89.181 86.486 C 88.971 86.695, 89.096 87.347, 89.459 87.933 C 89.879 88.613, 95.594 89, 105.189 89 L 120.261 89 127.131 92.711 C 131.992 95.336, 133.858 96.872, 133.512 97.961 C 133.243 98.807, 129.684 107.825, 125.603 118 C 121.523 128.175, 118.318 136.638, 118.481 136.806 C 118.645 136.974, 121.641 135.358, 125.139 133.214 L 131.500 129.316 131.555 122.148 L 131.611 114.980 137.805 108.061 C 141.212 104.255, 144 100.757, 144 100.286 C 144 99.816, 142.650 98.634, 141 97.659 C 137.746 95.737, 137.455 94.888, 139.035 91.934 C 139.990 90.150, 141.269 90, 155.535 90 C 165.891 90, 171 90.355, 171 91.074 C 171 91.665, 168.744 106.068, 165.987 123.081 L 160.974 154.014 168.585 163.575 C 172.772 168.834, 176.040 173.286, 175.849 173.468 C 175.657 173.651, 165.375 168.909, 153 162.930 C 140.625 156.951, 130.005 152.046, 129.399 152.029 C 128.794 152.013, 117.181 159.200, 103.593 168 C 90.005 176.800, 78.704 184, 78.479 184 C 78.254 184, 81.156 175.094, 84.928 164.209 L 91.785 144.417 83.745 104.209 C 79.323 82.094, 75.434 64.026, 75.102 64.057 C 74.771 64.089, 71.304 68.026, 67.398 72.807 L 60.297 81.500 56.972 115.204 L 53.648 148.907 40.574 159.470 L 27.500 170.032 26.890 131.266 C 26.555 109.945, 25.944 87.550, 25.531 81.500 L 24.781 70.500 30.405 47 C 33.498 34.075, 36.382 22.652, 36.814 21.615 C 37.459 20.067, 39.793 22.704, 49.870 36.365 C 56.619 45.514, 62.391 53, 62.697 53 C 63.003 53, 70.508 45.828, 79.376 37.063 L 95.500 21.126 104.884 25.268 C 110.046 27.547, 113.767 29.578, 113.153 29.782 C 112.540 29.987, 108.606 29.444, 104.412 28.577 C 95.248 26.682, 96 26.701, 96 28.361 C 96 30.102, 127.961 36.439, 129.414 34.986 C 129.938 34.462, 130.172 33.839, 129.933 33.601 C 129.695 33.363, 121.655 29.730, 112.067 25.529 L 94.634 17.889 78.836 33.664 C 69.125 43.361, 62.699 49.065, 62.157 48.469 C 61.673 47.936, 55.764 39.963, 49.026 30.750 C 42.289 21.537, 36.489 14.004, 36.138 14.009 C 35.787 14.015, 32.404 26.952, 28.620 42.760 C 22.853 66.852, 21.864 72.228, 22.506 76 C 22.928 78.475, 23.549 102.002, 23.887 128.282 L 24.500 176.064 40 163.440 C 52.255 153.460, 55.659 150.156, 56.260 147.659 C 56.678 145.921, 58.382 130.571, 60.047 113.547 C 63.361 79.652, 62.565 82.647, 70.820 73 L 73.815 69.500 74.426 72 C 74.762 73.375, 78.163 90.153, 81.984 109.285 L 88.930 144.071 80.971 167.208 C 76.594 179.934, 73.122 190.431, 73.256 190.536 C 73.390 190.641, 85.875 182.700, 101 172.891 C 116.125 163.081, 128.950 155.047, 129.500 155.037 C 130.050 155.028, 141.975 160.604, 156 167.429 C 170.574 174.521, 181.884 179.467, 182.397 178.972 C 183.220 178.177, 180.313 174.028, 167.935 158.334 L 163.861 153.169 169.082 121.069 C 171.953 103.414, 174.043 88.710, 173.727 88.393 C 173.410 88.076, 165.917 87.566, 157.077 87.259 C 143.734 86.796, 141.193 86.472, 142.124 85.351 C 142.777 84.564, 145.224 84, 147.983 84 C 154.582 84, 162 82.890, 162 81.902 C 162 81.447, 162.932 78.583, 164.072 75.538 C 165.601 71.452, 166.649 70, 168.072 70 C 169.132 70, 170 69.325, 170 68.500 C 170 67.675, 169.356 67, 168.570 67 C 167.237 67, 168.609 62.235, 173.590 49.576 C 174.191 48.050, 174.006 47.784, 172.696 48.286 C 171.204 48.859, 171.018 47.168, 170.772 30.792 C 170.594 18.900, 170.128 12.541, 169.417 12.305 C 168.822 12.107, 165.743 18.370, 162.575 26.222 M 163.250 31.814 C 160.912 37.714, 159 42.861, 159 43.251 C 159 44.142, 167.039 48.294, 167.627 47.706 C 167.865 47.468, 167.934 41.381, 167.780 34.180 L 167.500 21.087 163.250 31.814 M 132.112 49.201 C 127.101 54.811, 123.338 59.699, 123.751 60.064 C 124.163 60.428, 126.975 61.208, 130 61.796 C 134.994 62.767, 136.164 62.618, 142.728 60.182 C 146.704 58.707, 150.143 57.050, 150.372 56.500 C 150.601 55.950, 151.716 53.171, 152.851 50.324 L 154.913 45.148 148.344 42.074 C 144.731 40.383, 141.651 39, 141.499 39 C 141.347 39, 137.123 43.590, 132.112 49.201 M 155.609 51.020 C 154.724 53.231, 154 55.233, 154 55.469 C 154 55.705, 155.688 55.192, 157.750 54.330 C 159.813 53.468, 162.625 52.329, 164 51.799 L 166.500 50.836 163 48.960 C 158.065 46.315, 157.419 46.495, 155.609 51.020 M 159.796 56.261 C 153.320 58.812, 151.925 59.777, 151.042 62.310 C 150.464 63.968, 150.106 65.428, 150.245 65.554 C 150.385 65.680, 153.643 65.945, 157.484 66.142 L 164.469 66.500 166.675 60.500 C 169.146 53.780, 169.323 52.952, 168.250 53.112 C 167.838 53.174, 164.033 54.591, 159.796 56.261 M 144.500 62.427 C 141.519 63.670, 141.515 63.683, 143.851 64.438 C 146.279 65.224, 148.511 63.965, 147.863 62.175 C 147.632 61.539, 146.407 61.631, 144.500 62.427 M 120.250 63.689 C 121.213 63.941, 122.787 63.941, 123.750 63.689 C 124.713 63.438, 123.925 63.232, 122 63.232 C 120.075 63.232, 119.287 63.438, 120.250 63.689 M 87.500 66.243 C 88.600 67.045, 95.800 71.342, 103.500 75.791 L 117.500 83.881 127.500 82.976 C 133 82.479, 138.078 82.055, 138.786 82.036 C 140.030 82.001, 143.381 75.315, 144.613 70.407 C 145.210 68.027, 145.133 68, 137.850 68 C 131.487 68, 128.919 68.613, 119 72.500 C 112.684 74.975, 107.175 77, 106.758 77 C 105.132 77, 106.154 74.648, 109.620 70.418 L 113.241 66 109.370 65.995 C 107.242 65.992, 101 65.719, 95.500 65.387 C 86.580 64.850, 85.716 64.942, 87.500 66.243 M 113.924 69.624 L 111.500 72.248 113.996 71.479 C 115.369 71.056, 118.294 69.906, 120.496 68.925 L 124.500 67.141 120.424 67.071 C 117.254 67.016, 115.810 67.583, 113.924 69.624 M 145.703 75.250 C 144.323 78.688, 143.263 81.535, 143.347 81.577 C 143.431 81.619, 147.002 81.457, 151.283 81.216 L 159.066 80.778 160.562 77.197 C 164.044 68.864, 164.124 69, 155.714 69 L 148.212 69 145.703 75.250 M 126.500 86 C 121.933 86.626, 122.210 86.699, 129.691 86.843 C 134.253 86.930, 138.156 86.557, 138.500 86 C 139.182 84.896, 134.546 84.896, 126.500 86 M 129 90.474 C 129 90.735, 130.333 91.638, 131.962 92.480 C 134.737 93.915, 134.991 93.885, 135.997 92.006 C 136.989 90.152, 136.764 90, 133.035 90 C 130.816 90, 129 90.213, 129 90.474 M 134.426 103.281 C 133.367 106.121, 132.356 108.907, 132.180 109.472 C 132.005 110.037, 133.679 108.475, 135.901 106 C 140.525 100.849, 140.664 100.426, 138.176 99.094 C 136.599 98.250, 136.092 98.816, 134.426 103.281 M 125.860 124.585 C 124.408 128.113, 123.508 130.990, 123.860 130.978 C 124.212 130.966, 125.541 130.155, 126.813 129.176 C 128.744 127.690, 129.074 126.635, 128.813 122.783 L 128.500 118.170 125.860 124.585" stroke="none" fill="black" fill-rule="evenodd"/>
</svg>