<svg xmlns="http://www.w3.org/2000/svg" width="200" height="200" viewBox="0 0 200 200" version="1.1">
	<path d="M 139.111 17.289 C 138.617 17.783, 125.321 20.995, 109.565 24.426 L 80.917 30.664 65.939 27.795 L 50.961 24.926 41.869 29.622 L 32.776 34.318 33.431 39.409 C 33.791 42.209, 34.427 76.098, 34.845 114.718 C 35.262 153.338, 35.807 185.140, 36.056 185.389 C 36.305 185.638, 42.807 182.093, 50.504 177.511 L 64.500 169.180 80.500 166.004 L 96.500 162.829 112.210 165.849 C 127.169 168.725, 128.439 169.159, 138.803 174.935 C 144.789 178.271, 150.098 181, 150.601 181 C 151.104 181, 153.259 173.029, 155.391 163.286 L 159.267 145.572 158.561 109.036 C 157.902 74.950, 158 71.364, 160.031 55.567 L 162.207 38.634 152.707 29.271 L 143.207 19.909 146.142 19.322 C 147.757 18.999, 148.918 18.254, 148.723 17.668 C 148.286 16.359, 140.354 16.046, 139.111 17.289 M 131.682 32.389 C 127.457 38.654, 124 44.127, 124 44.552 C 124 44.977, 125.444 47.575, 127.209 50.326 L 130.418 55.327 130.100 67.413 C 129.925 74.061, 129.493 83.427, 129.141 88.226 L 128.500 96.952 116.325 85.976 C 109.628 79.939, 103.770 75, 103.306 75 C 102.842 75, 98.920 80.244, 94.590 86.653 C 86.735 98.280, 86.724 98.305, 89.829 97.684 C 100.686 95.513, 105.325 95.749, 114.947 98.964 C 120.143 100.700, 124.971 102.444, 125.676 102.839 C 126.535 103.319, 123.097 106.852, 115.273 113.528 C 108.845 119.013, 95.766 130.883, 86.207 139.906 L 68.828 156.312 61.356 148.840 L 53.885 141.368 67.046 122.122 C 74.285 111.536, 80.013 102.679, 79.773 102.440 C 79.379 102.046, 71.132 103.251, 65.097 104.584 L 62.694 105.115 63.358 81.308 C 63.724 68.213, 64.304 53.337, 64.648 48.250 L 65.274 39 61.696 39 C 57.861 39, 55.878 37.312, 58.100 35.938 C 58.846 35.477, 62.534 34.550, 66.296 33.878 C 70.058 33.206, 72.543 32.359, 71.818 31.996 C 71.093 31.634, 66.127 30.541, 60.781 29.569 L 51.063 27.800 43.781 31.723 L 36.500 35.646 36.728 41.573 C 36.854 44.833, 37.235 76.975, 37.575 113 C 37.916 149.025, 38.488 179.031, 38.848 179.680 C 39.289 180.476, 43.406 178.545, 51.501 173.744 C 63.464 166.650, 63.550 166.618, 79.876 163.325 L 96.251 160.021 112.255 163.017 C 127.234 165.822, 128.901 166.366, 138.277 171.507 C 143.787 174.528, 148.566 176.998, 148.898 176.996 C 149.229 176.994, 151.151 169.457, 153.169 160.246 L 156.838 143.500 155.903 109 C 155.026 76.673, 155.100 73.405, 157.083 57.119 L 159.199 39.737 149.869 30.369 C 144.738 25.216, 140.275 21, 139.952 21 C 139.628 21, 135.907 26.125, 131.682 32.389 M 113.500 26.337 L 94.500 30.500 103.500 30.816 C 119.031 31.361, 123.815 30.444, 129 25.926 C 131.475 23.770, 133.275 22.044, 133 22.090 C 132.725 22.137, 123.950 24.048, 113.500 26.337 M 127.869 30.131 L 124.239 33.157 100.869 33.678 C 88.016 33.965, 76.150 34.570, 74.500 35.022 C 72.850 35.474, 81.674 35.585, 94.109 35.268 L 116.718 34.692 119.265 38.440 L 121.812 42.188 126.937 34.594 C 129.755 30.417, 131.935 27.024, 131.780 27.053 C 131.626 27.082, 129.866 28.467, 127.869 30.131 M 94 38.055 C 84.375 38.441, 74.322 38.811, 71.660 38.878 L 66.820 39 71.660 42.852 C 74.322 44.971, 81.675 51.334, 88 56.991 C 94.325 62.649, 100.208 67.889, 101.074 68.635 C 102.459 69.829, 103.611 68.580, 110.658 58.246 C 115.063 51.786, 118.947 46.013, 119.289 45.417 C 120.226 43.786, 115.202 36.972, 113.214 37.177 C 112.271 37.275, 103.625 37.670, 94 38.055 M 66.555 70.701 C 66.174 85.440, 65.618 98.351, 65.319 99.392 C 64.812 101.157, 65.201 101.236, 71.138 100.565 C 83.180 99.206, 82.324 99.797, 91.314 86.621 C 95.862 79.954, 99.892 73.997, 100.269 73.383 C 100.966 72.245, 71.139 44.771, 68.587 44.201 C 67.508 43.959, 67.114 49.093, 66.555 70.701 M 113.059 59.594 C 108.007 67.031, 104.996 72.359, 105.559 72.866 C 125.454 90.796, 125.925 91.156, 126.411 88.800 C 126.672 87.535, 127.088 79.545, 127.336 71.044 C 127.818 54.531, 127.884 54.822, 122.055 47.835 C 121.750 47.469, 117.702 52.760, 113.059 59.594 M 94.500 99.706 C 88.992 100.592, 84.870 101.803, 83.876 102.827 C 81.779 104.986, 58 139.945, 58 140.869 C 58 141.253, 60.470 144.008, 63.490 146.990 L 68.980 152.412 72.740 148.960 C 74.808 147.061, 81.675 140.540, 88 134.468 C 94.325 128.396, 104.559 119.092, 110.741 113.793 L 121.983 104.159 113.741 101.433 C 109.209 99.933, 105.050 98.606, 104.500 98.482 C 103.950 98.359, 99.450 98.909, 94.500 99.706" stroke="none" fill="black" fill-rule="evenodd"/>
</svg>