<svg xmlns="http://www.w3.org/2000/svg" width="200" height="200" viewBox="0 0 200 200" version="1.1">
	<path d="M 100 22 C 97.652 28.635, 95.987 34.320, 96.299 34.632 C 97.495 35.828, 98.737 33.855, 101.032 27.115 C 102.339 23.275, 103.706 20.318, 104.069 20.543 C 105.186 21.233, 107.151 32.943, 106.372 34.261 C 105.589 35.585, 87.005 62.222, 86.386 62.908 C 86.183 63.132, 79.826 62.342, 72.259 61.152 C 56.195 58.626, 55.995 58.615, 56.015 60.250 C 56.026 61.214, 68.139 70.142, 76.166 75.103 C 77.777 76.099, 72.819 83.112, 71 82.411 C 70.175 82.093, 66.649 80.751, 63.164 79.429 L 56.828 77.025 57.117 90.553 L 57.406 104.082 42.755 125.041 C 34.696 136.568, 28.642 146.001, 29.301 146.002 C 31.114 146.005, 61.470 142.835, 61.702 142.619 C 61.812 142.515, 61.544 134.121, 61.104 123.965 L 60.306 105.500 66.740 95.880 L 73.174 86.259 77.837 88.026 L 82.500 89.794 83.162 103.147 C 83.525 110.491, 84.080 121.054, 84.394 126.621 L 84.965 136.742 68.823 157.621 C 59.945 169.104, 52.603 178.612, 52.507 178.750 C 52.412 178.887, 44.082 179.298, 33.997 179.664 C 17.925 180.246, 15.731 180.143, 16.236 178.827 C 16.553 178.001, 20.229 165.180, 24.406 150.334 L 32 123.342 32 90.430 C 32 58.665, 32.092 57.084, 34.645 45.010 C 36.099 38.129, 37.833 32.050, 38.497 31.500 C 39.161 30.950, 44.685 29.435, 50.772 28.134 L 61.840 25.767 73.822 38.134 C 80.412 44.935, 86.115 50.196, 86.494 49.825 C 87.638 48.704, 85.992 46.671, 74.044 34.450 L 62.587 22.732 49.823 25.539 C 42.803 27.082, 36.645 28.605, 36.139 28.923 C 35.633 29.240, 33.820 35.934, 32.110 43.797 L 29 58.094 28.963 91.297 L 28.925 124.500 20.572 153.887 L 12.219 183.274 32.856 182.548 C 44.206 182.148, 53.719 181.495, 53.996 181.096 C 54.273 180.697, 61.950 170.725, 71.055 158.935 L 87.610 137.500 86.555 114.249 C 85.975 101.461, 85.545 90.999, 85.601 90.999 C 85.656 91, 87.033 91.464, 88.660 92.031 L 91.618 93.063 90.440 102.281 C 89.793 107.352, 89.316 111.574, 89.381 111.664 C 89.539 111.883, 118.842 117, 119.934 117 C 120.401 117, 119.703 120.487, 118.383 124.750 C 115.122 135.286, 107.820 173.351, 108.196 177.859 L 108.500 181.500 117 181.738 C 121.675 181.868, 139.225 181.418, 156 180.738 C 194.322 179.183, 195.036 178.622, 167.228 171.928 C 156.628 169.377, 147.807 167.112, 147.625 166.895 C 147.443 166.678, 153.038 157.500, 160.057 146.500 C 167.077 135.500, 172.523 126.227, 172.160 125.892 C 171.797 125.558, 166.797 124.305, 161.049 123.108 C 155.300 121.910, 150.436 120.769, 150.239 120.572 C 150.041 120.375, 155.645 113.820, 162.690 106.007 C 169.736 98.193, 175.613 91.282, 175.752 90.650 C 176.228 88.475, 153.700 75.325, 137.709 68.444 L 121.917 61.649 126.209 59.021 C 129.986 56.708, 133.796 55.943, 158 52.636 C 193.072 47.846, 192 48.044, 192 46.351 C 192 44.879, 186.670 44.902, 143.795 46.555 L 130.090 47.084 127.617 38.792 C 126.257 34.231, 124.084 26.907, 122.789 22.515 L 120.435 14.529 114.983 22.338 L 109.530 30.147 107.253 20.395 C 106.001 15.031, 104.817 10.484, 104.623 10.289 C 104.428 10.095, 102.348 15.365, 100 22 M 114.809 27.216 L 110.230 33.767 113.259 47.133 C 114.925 54.485, 116.435 60.673, 116.613 60.885 C 116.792 61.097, 119.764 59.585, 123.219 57.525 C 128.911 54.130, 130.954 53.560, 145 51.454 L 160.500 49.130 144.100 49.315 L 127.699 49.500 123.876 36.078 C 121.772 28.695, 119.903 22.208, 119.720 21.660 C 119.538 21.113, 117.328 23.613, 114.809 27.216 M 98.263 50.750 L 89.216 63.500 93.685 64.432 C 97.977 65.327, 98.133 65.486, 97.630 68.432 C 96.528 74.886, 94.761 91.093, 95.122 91.437 C 95.744 92.029, 122.308 102.030, 122.527 101.754 C 122.960 101.208, 108.464 38.007, 107.905 38.004 C 107.577 38.002, 103.238 43.737, 98.263 50.750 M 64 63.353 C 64 63.921, 77.899 73.002, 78.738 72.983 C 79.157 72.973, 80.507 71.525, 81.737 69.765 C 84.465 65.862, 84.151 65.642, 73.709 64.129 C 65.317 62.913, 64 62.808, 64 63.353 M 117.217 64.750 C 120.018 75.631, 126.206 105.127, 125.778 105.556 C 125.470 105.863, 118.307 103.451, 109.859 100.194 L 94.500 94.274 93.441 101.387 C 92.858 105.299, 92.511 108.778, 92.668 109.117 C 92.825 109.456, 99.496 110.784, 107.491 112.067 C 115.487 113.350, 122.511 114.698, 123.101 115.062 C 123.824 115.509, 123.300 118.461, 121.494 124.113 C 118.332 134.009, 109.916 176.618, 110.713 178.695 C 111.108 179.725, 112.289 179.981, 114.882 179.601 C 116.872 179.309, 129.075 178.772, 142 178.408 C 154.925 178.044, 167.476 177.466, 169.891 177.123 C 174.019 176.537, 173.349 176.270, 158.659 172.649 C 144.731 169.216, 143.138 168.611, 143.964 167.068 C 144.473 166.116, 150.090 157.144, 156.445 147.130 C 162.800 137.116, 168 128.548, 168 128.091 C 168 127.634, 162.825 126.243, 156.500 125 C 150.175 123.757, 145.018 122.461, 145.040 122.120 C 145.062 121.779, 151.137 114.752, 158.540 106.505 C 165.943 98.258, 172 91.223, 172 90.871 C 172 88.995, 151.240 77.423, 135.819 70.704 C 126.094 66.467, 117.829 63, 117.452 63 C 117.075 63, 116.969 63.788, 117.217 64.750 M 84.153 70.889 C 81.117 75.251, 81.093 75.377, 83.025 76.730 C 84.527 77.782, 85 79.268, 85 82.935 C 85 87.362, 85.249 87.860, 88.032 89.013 C 89.700 89.704, 91.313 90.020, 91.618 89.715 C 92.361 88.972, 94.975 68.769, 94.440 67.903 C 94.208 67.528, 92.497 67.043, 90.637 66.826 C 87.587 66.470, 86.951 66.869, 84.153 70.889 M 77.036 80.950 L 74.865 83.998 77.498 84.999 C 81.626 86.569, 82.142 86.249, 81.810 82.327 C 81.411 77.598, 79.761 77.122, 77.036 80.950 M 60 90.732 C 60 100.170, 60.019 100.245, 61.826 97.885 C 66.450 91.845, 70.135 85.801, 69.550 85.217 C 69.197 84.864, 66.904 83.814, 64.454 82.884 L 60 81.193 60 90.732 M 45.740 125.553 C 39.272 134.771, 34.097 142.421, 34.240 142.551 C 34.757 143.023, 57.935 140.399, 58.533 139.800 C 58.871 139.463, 58.776 132.348, 58.323 123.989 L 57.500 108.793 45.740 125.553" stroke="none" fill="black" fill-rule="evenodd"/>
</svg>