<svg xmlns="http://www.w3.org/2000/svg" width="200" height="200" viewBox="0 0 200 200" version="1.1">
	<path d="M 104.500 18.653 C 45.386 24.530, 29.480 26.186, 29.167 26.499 C 28.981 26.685, 31.162 30.294, 34.012 34.519 L 39.196 42.200 35.888 46.850 C 34.068 49.407, 28.626 56.880, 23.794 63.454 C 18.064 71.252, 15.349 75.749, 15.988 76.388 C 16.526 76.926, 17.141 77.172, 17.354 76.933 C 19.446 74.590, 42 43.006, 42 42.418 C 42 41.990, 40.138 38.782, 37.863 35.290 C 35.588 31.798, 33.900 28.786, 34.113 28.598 C 34.326 28.410, 43.500 27.411, 54.500 26.378 L 74.500 24.500 82.817 40.349 C 87.392 49.066, 90.877 56.456, 90.562 56.771 C 90.247 57.086, 85.380 56.852, 79.745 56.251 C 74.110 55.651, 65.675 54.938, 61 54.668 C 56.325 54.397, 49.708 53.856, 46.296 53.464 L 40.093 52.752 41.101 56.626 C 41.655 58.757, 42.273 61.005, 42.474 61.621 C 42.727 62.400, 45.995 62.025, 53.169 60.393 C 58.851 59.100, 64.859 58.033, 66.520 58.021 C 69.962 57.997, 90.513 70.213, 90.480 72.263 C 90.469 72.943, 90.085 77.652, 89.626 82.727 L 88.791 91.953 82.061 99.727 L 75.330 107.500 52.415 110.575 C 39.812 112.266, 29.383 113.574, 29.240 113.482 C 29.097 113.389, 31.193 106.155, 33.897 97.407 C 36.804 88.002, 38.450 81.119, 37.923 80.567 C 37.434 80.053, 36.844 79.828, 36.612 80.067 C 36.044 80.650, 25.013 116.346, 25.309 116.643 C 25.437 116.771, 37.007 115.373, 51.020 113.536 L 76.498 110.197 80.372 105.848 C 91.292 93.593, 91.193 93.782, 92.259 83.229 C 92.800 77.878, 93.372 73.354, 93.530 73.175 C 93.687 72.996, 95.672 74.078, 97.940 75.579 C 100.954 77.574, 103.264 80.511, 106.531 86.505 C 108.989 91.014, 111 95.275, 111 95.975 C 111 96.674, 108.975 100.582, 106.500 104.659 C 104.025 108.735, 102 112.280, 102 112.535 C 102 112.791, 106.044 113, 110.986 113 L 119.971 113 122.995 118.990 L 126.018 124.979 117.259 124.454 C 103.109 123.606, 40.771 121, 34.633 121 C 23.174 121, 28.273 123.319, 55.500 130.491 C 75.452 135.746, 81.998 137.845, 81.993 138.985 C 81.985 140.959, 78.161 163.173, 77.761 163.573 C 77.592 163.741, 67.114 165.523, 54.477 167.532 C 41.840 169.541, 31.339 171.342, 31.142 171.534 C 30.945 171.726, 32.295 172.534, 34.142 173.329 C 35.989 174.124, 42.817 177.071, 49.315 179.877 L 61.130 184.980 108.565 184.327 L 156 183.674 156 178.934 L 156 174.194 140.953 165.347 L 125.905 156.500 133.889 149 L 141.873 141.500 142.291 135 C 142.598 130.240, 143.678 126.426, 146.330 120.750 L 149.950 113 163.520 113 L 177.091 113 176.523 109.750 C 176.210 107.963, 174.666 97.457, 173.091 86.405 C 170.245 66.435, 170.188 66.224, 164.039 52.405 L 157.850 38.500 146.675 30.329 C 140.529 25.836, 133.700 20.856, 131.500 19.263 L 127.500 16.367 104.500 18.653 M 103.341 21.518 C 91.153 22.758, 80.682 23.939, 80.073 24.142 C 79.463 24.346, 81.615 27.764, 84.855 31.739 C 90.402 38.546, 90.848 39.497, 92.513 48.069 C 93.486 53.075, 94.780 57.346, 95.391 57.561 C 97.202 58.199, 115.464 59.843, 115.912 59.409 C 116.138 59.189, 114.274 52.032, 111.770 43.505 C 109.265 34.977, 107.458 28, 107.755 28 C 108.620 28, 154.937 65.396, 154.551 65.782 C 154.359 65.975, 146.788 65.427, 137.727 64.566 C 128.666 63.705, 121.007 63, 120.707 63 C 120.407 63, 121.274 66.621, 122.633 71.047 L 125.105 79.095 122.938 82.600 C 121.747 84.528, 121.068 86.401, 121.430 86.763 C 121.792 87.125, 128.706 91.532, 136.794 96.556 C 148.564 103.866, 151.484 106.120, 151.421 107.845 C 151.344 109.928, 151.716 110, 162.494 110 L 173.647 110 170.505 88.250 C 167.396 66.735, 167.300 66.360, 161.596 53.500 L 155.829 40.500 141.853 30.195 C 134.166 24.527, 127.342 19.749, 126.688 19.576 C 126.035 19.403, 115.528 20.277, 103.341 21.518 M 83 34.264 C 83 34.493, 84.384 37.115, 86.075 40.090 C 88.363 44.115, 88.987 44.749, 88.510 42.567 C 87.999 40.223, 83 32.691, 83 34.264 M 115.811 47.432 L 119.322 59.796 122.911 60.344 C 124.885 60.646, 131 61.207, 136.500 61.592 L 146.500 62.291 130.344 49.263 C 121.458 42.097, 113.764 35.972, 113.244 35.651 C 112.725 35.330, 113.880 40.632, 115.811 47.432 M 44 56.941 C 44 58.636, 45.903 59.109, 49.733 58.367 C 53.251 57.686, 53.335 57.590, 51 56.918 C 47.312 55.858, 44 55.868, 44 56.941 M 83.500 63.354 C 90.941 68.167, 91.748 68.062, 91.930 62.250 C 91.990 60.306, 91.490 59.999, 88.250 59.989 C 86.188 59.983, 82.700 59.719, 80.500 59.402 L 76.500 58.825 83.500 63.354 M 97 61.440 C 97 61.775, 98.586 65.198, 100.523 69.047 C 103.671 75.298, 104.802 76.527, 111.129 80.583 C 115.024 83.079, 118.300 84.982, 118.408 84.811 C 122.235 78.772, 122.156 79.564, 119.771 71.054 C 117.239 62.017, 118.135 62.589, 104.750 61.474 C 100.487 61.120, 97 61.104, 97 61.440 M 94 66.943 C 94 68.838, 94.780 70.433, 96.190 71.420 C 97.394 72.264, 98.550 72.783, 98.759 72.574 C 99.217 72.117, 95.165 64, 94.480 64 C 94.216 64, 94 65.324, 94 66.943 M 108 82.418 C 108 82.775, 109.165 85.365, 110.588 88.174 L 113.176 93.281 115.035 90.447 C 116.773 87.797, 116.784 87.539, 115.197 86.460 C 110.272 83.112, 108 81.836, 108 82.418 M 116.964 92.557 L 114.712 96.203 118.062 103.128 L 121.412 110.054 134.874 109.777 C 143.428 109.601, 148.467 109.104, 148.696 108.415 C 148.894 107.819, 143.306 103.803, 136.278 99.493 C 129.250 95.182, 122.536 91.038, 121.359 90.284 C 119.377 89.015, 119.049 89.185, 116.964 92.557 M 109.743 104.541 C 108.234 107.038, 107 109.288, 107 109.541 C 107 109.793, 109.475 110, 112.500 110 C 115.525 110, 118 109.787, 118 109.527 C 118 108.514, 113.570 100, 113.043 100 C 112.737 100, 111.251 102.043, 109.743 104.541 M 126.731 119.914 C 128.804 123.717, 130.275 127.027, 130 127.269 C 129.725 127.512, 110.396 126.892, 87.046 125.892 C 63.696 124.893, 44.447 124.219, 44.271 124.396 C 44.094 124.573, 53.186 127.103, 64.475 130.018 C 80.312 134.107, 85.004 135.681, 85.018 136.909 C 85.060 140.495, 80.595 165.542, 79.822 166.063 C 79.362 166.373, 70.439 167.909, 59.993 169.475 C 49.547 171.041, 41.004 172.588, 41.010 172.911 C 41.015 173.235, 45.627 175.419, 51.260 177.765 L 61.500 182.031 92 182.012 C 108.775 182.002, 129.588 181.699, 138.250 181.340 C 153.707 180.699, 154 180.645, 154 178.445 C 154 176.608, 151.152 174.530, 138.250 166.957 C 129.588 161.872, 122.283 157.522, 122.018 157.290 C 121.752 157.058, 125.443 153.186, 130.220 148.684 L 138.904 140.500 139.564 134.128 C 139.972 130.194, 141.510 124.935, 143.587 120.378 L 146.950 113 134.956 113 L 122.963 113 126.731 119.914" stroke="none" fill="black" fill-rule="evenodd"/>
</svg>