<svg xmlns="http://www.w3.org/2000/svg" width="200" height="200" viewBox="0 0 200 200" version="1.1">
	<path d="M 78.750 12.748 C 68.663 12.942, 63 13.426, 63 14.095 C 63 14.670, 64.273 17.021, 65.830 19.320 C 67.386 21.619, 69.031 24.132, 69.484 24.905 C 70.474 26.590, 69.963 26.298, 61.262 20.220 L 55.025 15.863 55.640 60.681 C 55.995 86.535, 55.871 106.926, 55.348 108.869 L 54.441 112.238 49.970 104.938 C 45.919 98.323, 43 95.319, 43 97.765 C 43 98.278, 46.303 104.145, 50.341 110.803 L 57.681 122.909 58.320 95.878 C 58.671 81.011, 58.671 58.306, 58.320 45.424 C 57.968 32.541, 58.016 22, 58.427 22 C 60.347 22, 74.635 32.894, 77.004 36.165 L 79.671 39.846 80.327 91.164 L 80.982 142.481 73.757 162.706 C 69.783 173.830, 66.235 182.609, 65.873 182.216 C 65.512 181.822, 63.528 172.050, 61.465 160.500 C 59.402 148.950, 57.581 139.340, 57.418 139.144 C 57.255 138.948, 50.497 142.214, 42.400 146.400 C 34.303 150.586, 27.505 153.839, 27.294 153.627 C 26.353 152.687, 25.070 112.899, 25.112 86 L 25.159 56.500 35.579 46.624 L 46 36.748 46 60.957 C 46 79.880, 46.273 85.076, 47.250 84.750 C 48.199 84.434, 48.564 77.919, 48.766 57.667 C 48.913 43, 48.681 31, 48.252 31 C 47.822 31, 41.740 36.744, 34.736 43.764 L 22 56.528 21.994 81.514 C 21.988 106.267, 23.789 157.037, 24.706 158 C 24.968 158.275, 31.928 154.974, 40.173 150.665 C 48.417 146.355, 55.272 142.980, 55.406 143.165 C 55.540 143.349, 57.581 154.300, 59.942 167.500 C 62.303 180.700, 64.524 192.039, 64.877 192.697 C 65.231 193.356, 69.634 182.331, 74.663 168.197 L 83.805 142.500 83.152 90.344 C 82.719 55.663, 82.835 38.395, 83.500 38.805 C 89.258 42.356, 96.995 48.397, 96.976 49.327 C 96.963 49.972, 96.509 52.300, 95.968 54.500 C 95.078 58.120, 89.018 94.457, 89.005 96.250 C 89.002 96.662, 94.639 97, 101.531 97 C 110.678 97, 114.170 97.338, 114.460 98.250 C 114.679 98.938, 115.307 110.300, 115.856 123.500 L 116.855 147.500 109.167 155 C 104.938 159.125, 96.168 167.624, 89.677 173.887 C 82.919 180.407, 78.249 185.649, 78.751 186.151 C 79.252 186.652, 88.360 181.892, 100.060 175.013 C 111.299 168.406, 120.807 163, 121.190 163 C 121.573 163, 129.857 166.828, 139.599 171.506 L 157.312 180.011 170.732 169.935 L 184.152 159.859 166.826 146.874 C 157.297 139.732, 149.100 133.491, 148.612 133.006 C 148.095 132.493, 152.441 121.739, 158.995 107.312 C 168.510 86.365, 171.153 79.385, 175.958 62.500 C 179.438 50.272, 181.232 42.400, 180.575 42.242 C 179.984 42.100, 169.418 45.587, 157.096 49.992 C 144.774 54.396, 134.241 58, 133.689 58 C 133.030 58, 132.907 51.847, 133.333 40.103 C 133.839 26.136, 133.704 22.100, 132.719 21.722 C 131.925 21.418, 127.785 27.474, 121.563 38.044 L 111.669 54.850 105.978 50.985 L 100.287 47.120 103.615 31.310 C 105.446 22.615, 106.957 14.713, 106.972 13.750 C 106.996 12.244, 106.130 12.031, 100.750 12.223 C 97.313 12.345, 87.412 12.582, 78.750 12.748 M 76.744 15.746 L 66.988 16.073 72.010 23.515 C 76.243 29.787, 78.630 32.063, 87.182 37.981 C 92.763 41.843, 97.480 44.853, 97.663 44.670 C 97.972 44.361, 104 16.620, 104 15.505 C 104 15.013, 96.665 15.078, 76.744 15.746 M 122.246 42.158 C 114.632 55.179, 114.128 56.375, 115.746 57.584 C 116.711 58.304, 123.236 62.109, 130.248 66.039 C 137.259 69.968, 143.256 73.604, 143.573 74.119 C 144.203 75.137, 129.307 122.899, 127.876 124.450 C 127.394 124.973, 127 125.174, 127 124.897 C 127 124.621, 122.744 110.022, 117.542 92.456 C 111.509 72.087, 108.430 60.170, 109.042 59.558 C 110.634 57.966, 110.205 57.335, 104.975 53.577 C 101.587 51.144, 99.813 50.380, 99.531 51.234 C 98.798 53.448, 96.106 68.148, 94.537 78.500 C 93.704 84, 92.772 89.962, 92.466 91.750 L 91.909 95 104.455 95 C 111.355 95, 117.047 95.112, 117.105 95.250 C 117.163 95.388, 117.767 107.425, 118.449 122 L 119.687 148.500 105.094 162.819 C 97.067 170.694, 90.950 176.951, 91.500 176.723 C 92.050 176.495, 98.641 172.639, 106.148 168.154 C 113.654 163.669, 120.314 160, 120.947 160 C 121.580 160, 129.986 163.809, 139.627 168.463 L 157.155 176.927 167.828 168.892 C 173.697 164.472, 178.500 160.483, 178.500 160.025 C 178.500 159.568, 170.963 153.467, 161.750 146.466 C 152.537 139.466, 145 133.216, 145 132.578 C 145 131.940, 150.019 120.411, 156.154 106.959 C 165.094 87.356, 168.340 78.926, 172.504 64.500 C 175.362 54.600, 177.576 46.347, 177.426 46.160 C 177.192 45.869, 154.442 53.731, 137.212 60.058 C 134.304 61.126, 131.423 62, 130.810 62 C 130.006 62, 129.887 57.251, 130.384 45 C 130.764 35.650, 130.945 28.010, 130.787 28.022 C 130.629 28.033, 126.786 34.395, 122.246 42.158 M 111.743 60.250 C 111.113 61.925, 127.191 116.238, 128.029 115.264 C 128.551 114.656, 137.634 86.909, 140.438 77.356 C 140.993 75.466, 139.733 74.473, 129.784 68.958 C 123.578 65.517, 117.306 61.870, 115.846 60.851 C 112.704 58.660, 112.361 58.610, 111.743 60.250" stroke="none" fill="black" fill-rule="evenodd"/>
</svg>