<svg xmlns="http://www.w3.org/2000/svg" width="200" height="200" viewBox="0 0 200 200" version="1.1">
	<path d="M 149.070 16.869 L 134.640 22.620 118.070 48.783 C 108.956 63.173, 101.217 74.958, 100.872 74.973 C 100.527 74.988, 97.655 72.051, 94.491 68.447 L 88.738 61.895 89.886 42.297 C 90.517 31.519, 90.890 22.556, 90.714 22.380 C 90.538 22.205, 87.043 23.364, 82.947 24.957 C 78.851 26.549, 70.936 29.633, 65.358 31.809 L 55.216 35.765 47.441 24.382 C 43.165 18.122, 39.486 13, 39.265 13 C 39.044 13, 33.313 24.422, 26.528 38.383 L 14.192 63.766 13.457 111.210 L 12.723 158.655 22.111 161.993 C 27.275 163.830, 31.725 165.527, 32 165.766 C 32.275 166.005, 30.738 167.730, 28.583 169.600 C 24.106 173.486, 24.523 173.592, 35.624 171.389 L 43.748 169.776 52.196 172.888 C 56.843 174.600, 61.512 176.003, 62.572 176.007 C 63.633 176.011, 76.075 174.137, 90.223 171.842 L 115.946 167.671 117.281 163.086 C 118.016 160.564, 123.315 142.139, 129.058 122.143 C 141.331 79.409, 139.879 78.402, 142.550 131.500 C 143.518 150.750, 144.593 166.830, 144.938 167.232 C 145.283 167.635, 151.041 162.460, 157.734 155.732 L 169.903 143.500 173.850 108 C 176.183 87.016, 177.419 72.265, 176.872 71.925 C 176.363 71.608, 170.221 69.641, 163.224 67.554 C 156.226 65.466, 150.179 63.470, 149.788 63.117 C 149.396 62.764, 157.855 54.425, 168.587 44.587 C 180.959 33.244, 187.749 26.349, 187.145 25.745 C 186.540 25.140, 174.599 30.726, 154.510 41.010 C 137.086 49.931, 123.205 57.546, 123.665 57.933 C 124.124 58.320, 128.100 59.699, 132.500 60.998 C 136.900 62.297, 141.059 63.632, 141.741 63.964 C 142.799 64.480, 126.943 79.597, 97.738 105.915 L 92.839 110.330 90.606 107.531 C 88.410 104.777, 88.396 104.577, 89.758 95.270 C 90.519 90.066, 90.941 85.608, 90.695 85.361 C 90.449 85.115, 87.829 85.833, 84.874 86.957 C 81.918 88.080, 79.032 88.999, 78.460 88.999 C 77.324 89, 57.980 65.615, 58.032 64.305 C 58.050 63.862, 61.416 61.250, 65.512 58.500 C 69.608 55.750, 72.968 53.243, 72.980 52.930 C 72.991 52.616, 67.487 51.810, 60.750 51.139 C 54.013 50.467, 46.362 49.654, 43.750 49.330 L 39 48.742 39 42.371 C 39 38.867, 38.611 36, 38.136 36 C 36.947 36, 35.117 50.650, 36.250 51.099 C 36.388 51.154, 43.250 51.941, 51.500 52.849 L 66.500 54.500 60.250 58.895 C 56.813 61.312, 54 63.480, 54 63.712 C 54 63.944, 55.164 65.659, 56.586 67.524 C 58.008 69.388, 58.880 71.386, 58.523 71.963 C 58.166 72.540, 61.283 77.030, 65.449 81.940 C 69.615 86.850, 72.652 91.097, 72.198 91.378 C 71.744 91.658, 63.976 94.627, 54.936 97.976 C 32.526 106.276, 33 106.068, 33 107.633 C 33 108.672, 33.948 108.883, 36.750 108.468 C 52.484 106.137, 66.815 104.491, 66.467 105.054 C 66.237 105.426, 57.296 111.074, 46.599 117.606 C 35.901 124.138, 27.312 129.646, 27.513 129.846 C 27.713 130.046, 35.892 130.558, 45.688 130.984 C 62.975 131.734, 67.400 132.378, 66.792 134.052 C 66.632 134.495, 59.362 141.375, 50.637 149.341 L 34.773 163.825 28.137 161.378 C 24.487 160.032, 20.206 158.418, 18.624 157.792 L 15.749 156.653 16.241 110.577 L 16.734 64.500 28.150 41.117 L 39.566 17.734 46.940 28.414 C 50.997 34.287, 54.807 38.894, 55.408 38.650 C 60.013 36.782, 81.265 28.531, 84.356 27.411 L 88.211 26.014 87.618 34.757 C 87.292 39.566, 86.748 47.802, 86.408 53.060 L 85.791 62.621 93.145 71.236 C 97.190 75.974, 100.725 79.880, 101 79.915 C 101.275 79.951, 109.375 67.560, 119 52.380 L 136.500 24.779 151.762 18.814 C 160.157 15.533, 166.768 12.433, 166.453 11.924 C 165.541 10.449, 164.292 10.804, 149.070 16.869 M 153.775 44.310 C 140.726 51.015, 130.043 56.725, 130.034 57 C 130.026 57.275, 133.444 58.540, 137.629 59.812 C 145.080 62.075, 145.285 62.084, 147.370 60.253 C 149.135 58.703, 171.984 37.930, 176.964 33.347 C 177.770 32.606, 178.220 32.027, 177.964 32.060 C 177.709 32.093, 166.824 37.606, 153.775 44.310 M 124.397 85.169 C 112.354 96.166, 100.800 106.833, 98.722 108.875 L 94.943 112.586 103.389 122.543 C 108.877 129.012, 111.499 132.848, 110.874 133.494 C 110.245 134.143, 108.105 132.408, 104.706 128.494 C 101.843 125.197, 97.869 120.726, 95.876 118.558 L 92.252 114.616 82.157 123.954 C 76.605 129.089, 72.266 133.621, 72.514 134.023 C 72.763 134.426, 79.724 139.615, 87.983 145.554 C 96.243 151.494, 103 156.611, 103 156.927 C 102.999 157.242, 91.059 159.937, 76.465 162.915 C 61.871 165.893, 50.283 168.651, 50.715 169.043 C 51.147 169.435, 53.886 170.628, 56.803 171.693 L 62.106 173.630 87.530 169.505 C 101.513 167.236, 113.205 165.128, 113.512 164.822 C 113.818 164.515, 119.734 144.517, 126.659 120.382 C 133.583 96.247, 139.635 76.080, 140.108 75.567 C 140.580 75.053, 141.258 74.925, 141.615 75.282 C 141.972 75.638, 143.322 94.935, 144.615 118.164 C 145.908 141.392, 147.088 160.764, 147.238 161.213 C 147.387 161.661, 151.963 157.558, 157.405 152.095 L 167.301 142.162 170.571 112.331 C 172.370 95.924, 174.091 80.603, 174.397 78.285 L 174.952 74.071 161.726 69.979 C 154.452 67.728, 148.004 65.727, 147.397 65.531 C 146.791 65.336, 136.441 74.173, 124.397 85.169 M 82.243 90.665 L 77.986 92.171 79.885 94.836 C 80.930 96.301, 82.711 98.338, 83.845 99.362 C 86.154 101.449, 86.062 101.617, 87.488 92.750 C 88.161 88.563, 88.170 88.567, 82.243 90.665 M 60.293 98.825 C 53.579 101.352, 48.241 103.575, 48.431 103.764 C 48.621 103.954, 53.792 103.410, 59.922 102.555 C 73.400 100.675, 75.008 100.642, 74.972 102.250 C 74.956 102.938, 66.096 108.900, 55.282 115.500 L 35.621 127.500 48.520 128.220 C 56.480 128.665, 61.645 128.574, 62.010 127.983 C 62.704 126.861, 69.025 128.422, 69.968 129.948 C 70.589 130.953, 89.269 114.521, 89.784 112.516 C 89.940 111.909, 88.927 110.341, 87.534 109.032 C 86.140 107.722, 85 106.250, 85 105.759 C 85 104.014, 75.592 94.002, 74.059 94.115 C 73.202 94.178, 67.007 96.298, 60.293 98.825 M 53.551 150.250 L 38.019 164.500 40.881 165.700 C 43.344 166.734, 47.397 166.143, 70.032 161.456 C 84.492 158.461, 96.477 155.857, 96.665 155.668 C 97.042 155.292, 70.530 136, 69.636 136 C 69.332 136, 62.093 142.412, 53.551 150.250 M 34.500 168 C 34.160 168.550, 34.332 169, 34.882 169 C 35.432 169, 36.160 168.550, 36.500 168 C 36.840 167.450, 36.668 167, 36.118 167 C 35.568 167, 34.840 167.450, 34.500 168" stroke="none" fill="black" fill-rule="evenodd"/>
</svg>