<svg xmlns="http://www.w3.org/2000/svg" width="200" height="200" viewBox="0 0 200 200" version="1.1">
	<path d="M 84.071 11.651 C 63.485 12.407, 46.544 13.132, 46.425 13.263 C 46.307 13.393, 45.122 23.314, 43.794 35.308 C 41.684 54.357, 41.644 59.689, 43.625 57.709 C 43.895 57.438, 45.128 48.181, 46.364 37.136 C 47.600 26.092, 48.902 16.765, 49.257 16.410 C 49.612 16.055, 54.874 15.528, 60.951 15.240 C 73.855 14.629, 72.719 12.810, 70.508 30.538 C 68.334 47.970, 68.019 47.420, 75.775 39.723 C 79.501 36.025, 82.866 33, 83.253 33 C 83.970 33, 97.677 52.996, 98.590 55.373 C 98.910 56.208, 92.018 61.546, 79.584 70.092 C 68.854 77.466, 60.059 83.791, 60.038 84.146 C 60.007 84.665, 91.663 125.049, 97.880 132.422 C 100.072 135.023, 98.946 134.362, 85.747 125.310 C 79.833 121.254, 74.392 117.704, 73.655 117.421 C 72.581 117.009, 72.063 121.433, 71.046 139.703 C 70.349 152.242, 69.715 162.539, 69.639 162.586 C 65.515 165.129, 36.001 179.735, 36.003 179.232 C 36.005 178.829, 39.579 167.487, 43.947 154.027 C 48.315 140.567, 51.743 129.409, 51.565 129.232 C 51.387 129.054, 45.999 132.075, 39.591 135.945 C 30.694 141.318, 28.216 142.452, 29.110 140.741 C 29.753 139.508, 34.286 131.175, 39.182 122.222 C 44.309 112.847, 47.778 105.426, 47.363 104.722 C 46.778 103.729, 34.148 88.912, 25.762 79.381 L 23.897 77.262 38.449 74.425 C 46.452 72.864, 53 71.319, 53 70.992 C 53 70.417, 13.513 48, 12.500 48 C 12.225 48, 12 48.592, 12 49.316 C 12 50.040, 19.637 54.867, 28.971 60.043 C 38.567 65.363, 45.412 69.732, 44.721 70.095 C 44.050 70.449, 37.991 71.785, 31.258 73.065 C 20.031 75.198, 19.119 75.535, 20.258 77.126 C 20.941 78.079, 26.795 84.930, 33.268 92.350 L 45.035 105.840 34.184 125.670 C 28.215 136.577, 22.751 146.588, 22.041 147.918 L 20.749 150.337 25.625 147.481 C 28.306 145.910, 34.078 142.475, 38.451 139.847 C 42.824 137.218, 46.571 135.238, 46.778 135.444 C 46.985 135.651, 43.533 146.750, 39.108 160.108 C 34.682 173.466, 31.242 184.576, 31.464 184.797 C 31.796 185.130, 70.504 165.544, 71.957 164.308 C 72.208 164.094, 72.942 154.691, 73.587 143.413 C 74.232 132.134, 75.005 122.661, 75.305 122.362 C 75.604 122.062, 82.451 126.390, 90.519 131.979 C 105.946 142.666, 110.922 144.455, 105.178 137.249 C 75.204 99.656, 64.067 85.371, 64.262 84.770 C 64.565 83.843, 100.052 59, 101.075 59 C 102.938 59, 105.764 65.609, 105.269 68.805 C 104.779 71.964, 104.010 72.485, 87.878 80.561 C 78.595 85.209, 71 89.459, 71 90.006 C 71 90.622, 76.980 91.003, 86.750 91.008 C 100.278 91.014, 118.600 92.267, 119.586 93.253 C 119.756 93.422, 119.196 106.353, 118.342 121.988 L 116.790 150.415 112.145 155.585 C 109.590 158.429, 103.040 165.553, 97.590 171.417 C 91.455 178.018, 88.035 182.435, 88.613 183.013 C 89.191 183.591, 98.654 178.814, 113.455 170.473 C 126.605 163.063, 137.531 157, 137.735 157 C 137.939 157, 147.357 161.979, 158.664 168.064 C 169.971 174.150, 179.857 178.885, 180.634 178.587 C 181.654 178.196, 178.338 172.489, 168.676 158.007 L 155.307 137.968 163.527 110.439 L 171.747 82.910 173.005 63.420 C 173.697 52.700, 174.028 43.695, 173.741 43.408 C 173.454 43.120, 165.717 43.399, 156.548 44.026 C 147.380 44.654, 139.299 44.945, 138.592 44.674 C 137.813 44.375, 137.055 41.483, 136.668 37.340 C 136.318 33.578, 135.512 25.888, 134.878 20.250 L 133.726 10 127.613 10.138 C 124.251 10.214, 104.657 10.895, 84.071 11.651 M 97 14.128 C 87.375 14.474, 78.471 14.811, 77.213 14.878 C 75.015 14.995, 75.090 15.246, 79.118 21.250 C 81.423 24.688, 83.472 27.694, 83.670 27.932 C 83.868 28.169, 85.584 26.857, 87.483 25.016 C 90.022 22.556, 91.068 22.044, 91.436 23.085 C 91.711 23.863, 94 31.025, 96.524 39 C 100.644 52.025, 105.854 63.090, 106.640 60.487 C 107.347 58.145, 115.083 13.766, 114.806 13.640 C 114.638 13.563, 106.625 13.783, 97 14.128 M 118 14.103 C 118 15.667, 134.418 47.276, 134.709 46.271 C 134.832 45.847, 134.147 38.300, 133.188 29.500 L 131.444 13.500 124.722 13.204 C 120.014 12.997, 118 13.266, 118 14.103 M 116.652 21.616 C 116.340 22.652, 114.438 32.794, 112.426 44.153 L 108.767 64.806 124.001 87.403 C 132.379 99.831, 139.405 110, 139.613 110 C 139.821 110, 139.711 99.088, 139.369 85.750 L 138.747 61.500 127.984 40.616 C 120.404 25.909, 117.052 20.289, 116.652 21.616 M 73.322 29.750 C 72.772 34.563, 72.361 38.568, 72.411 38.652 C 72.460 38.735, 74.668 36.835, 77.317 34.429 L 82.133 30.054 79.019 25.527 C 77.306 23.037, 75.548 21, 75.113 21 C 74.678 21, 73.872 24.938, 73.322 29.750 M 87.577 28.915 C 85.916 30.751, 86.037 31.113, 90.508 37.665 C 93.074 41.424, 94.922 43.600, 94.615 42.500 C 92.927 36.450, 89.878 27, 89.615 27 C 89.447 27, 88.530 27.862, 87.577 28.915 M 159 46.603 C 157.625 46.769, 151.678 47.194, 145.785 47.547 L 135.069 48.188 138.464 54.928 L 141.858 61.669 142.179 90.335 C 142.356 106.102, 142.407 119.001, 142.293 119.001 C 142.178 119, 137.927 112.846, 132.845 105.324 C 124.700 93.270, 123.528 91.936, 122.964 94.074 C 122.612 95.408, 121.739 108.875, 121.024 124 L 119.725 151.500 108.112 163.936 C 101.726 170.776, 97.300 176.073, 98.278 175.707 C 99.256 175.341, 108.481 170.243, 118.778 164.380 L 137.500 153.718 143 156.631 C 146.025 158.232, 154.754 162.861, 162.399 166.916 C 170.043 170.972, 175.923 173.662, 175.465 172.895 C 175.007 172.128, 169.765 164.197, 163.816 155.272 C 157.867 146.346, 153 138.342, 153 137.484 C 153 136.626, 156.571 124.045, 160.936 109.527 C 168.615 83.987, 168.907 82.638, 169.936 67.985 C 170.521 59.656, 171 51.302, 171 49.420 L 171 46 166.250 46.150 C 163.637 46.232, 160.375 46.436, 159 46.603 M 107.606 71.435 C 107.076 73.544, 104.444 75.267, 92.980 81.010 C 85.291 84.862, 78.999 88.123, 78.998 88.257 C 78.996 88.391, 82.484 88.339, 86.748 88.143 C 91.011 87.946, 100.484 88.337, 107.798 89.011 C 115.113 89.685, 121.284 90.049, 121.512 89.821 C 121.741 89.592, 118.851 84.783, 115.090 79.134 C 108.830 69.734, 108.196 69.082, 107.606 71.435" stroke="none" fill="black" fill-rule="evenodd"/>
</svg>