<svg xmlns="http://www.w3.org/2000/svg" width="200" height="200" viewBox="0 0 200 200" version="1.1">
	<path d="M 102 22.428 C 84.434 42.608, 77.014 49.594, 75.672 47.216 C 75.450 46.822, 72.443 39.075, 68.991 30 C 65.538 20.925, 62.350 13.095, 61.906 12.599 C 61.229 11.844, 54.267 18.058, 26.263 44.414 L 24.027 46.519 28.568 63.260 L 33.109 80.001 28.990 113.750 C 25.360 143.487, 22.119 166.678, 20.394 175.250 L 19.841 178 45.862 178 C 62.888 178, 72.105 177.639, 72.528 176.954 C 72.884 176.379, 78.068 161.710, 84.049 144.357 L 94.924 112.805 90.899 104.799 C 88.685 100.396, 87.119 96.548, 87.418 96.249 C 88.139 95.528, 105.942 98.098, 106.502 99.004 C 106.741 99.391, 102.451 110.155, 96.969 122.924 C 86.041 148.375, 86.371 146.840, 87.656 166.250 L 88.302 176 111.401 176.009 C 124.105 176.015, 147.732 176.470, 163.905 177.021 C 180.078 177.572, 193.455 177.879, 193.632 177.701 C 193.809 177.524, 183.139 170.059, 169.920 161.111 C 156.701 152.164, 146.024 144.497, 146.193 144.074 C 146.362 143.650, 153.824 136.498, 162.776 128.180 C 171.728 119.862, 179.078 112.706, 179.110 112.278 C 179.142 111.850, 172.608 108.765, 164.590 105.422 C 156.571 102.079, 149.772 99.105, 149.479 98.813 C 149.187 98.521, 152.760 96.583, 157.419 94.507 L 165.890 90.733 169.831 79.616 L 173.772 68.500 148.886 68.233 C 126.042 67.988, 124.001 67.824, 124.015 66.233 C 124.024 65.280, 124.386 63.940, 124.820 63.257 C 125.255 62.573, 132.785 59.378, 141.555 56.157 C 151.979 52.328, 160.090 48.622, 164.979 45.453 L 172.459 40.606 149.979 34.946 C 137.616 31.832, 127.226 29.559, 126.891 29.893 C 126.557 30.227, 125.505 36.350, 124.554 43.500 C 123.603 50.650, 122.615 57.417, 122.357 58.539 C 121.994 60.121, 119.383 61.442, 110.695 64.439 L 99.500 68.301 87.688 62.362 L 75.876 56.422 79.959 51.784 C 83.101 48.214, 87.433 45.372, 98.771 39.440 C 115.803 30.529, 114.386 31.434, 113.517 30.027 C 113.068 29.301, 108.854 31.011, 101.263 34.997 C 94.900 38.339, 90.325 40.270, 91.097 39.287 C 92.792 37.128, 119.302 6.629, 122.855 2.750 C 125.161 0.233, 125.210 0.001, 123.437 0.014 C 122.167 0.023, 114.781 7.746, 102 22.428 M 45.500 30.085 C 37.250 37.800, 29.738 44.874, 28.806 45.806 C 27.215 47.398, 27.377 48.465, 31.498 63.500 L 35.884 79.500 31.506 115.500 C 27.773 146.200, 25.055 165.919, 23.547 173.250 C 23.212 174.878, 24.847 175, 46.924 175 L 70.662 175 81.302 143.923 L 91.943 112.847 87.471 103.942 C 84.220 97.468, 82.385 94.898, 80.749 94.527 C 72.882 92.739, 60.958 91.442, 61.354 92.417 C 61.596 93.012, 63.655 98.289, 65.930 104.142 L 70.065 114.785 58.404 136.142 C 51.991 147.889, 46.676 157.588, 46.593 157.696 C 46.510 157.803, 45.913 157.564, 45.266 157.164 C 43.757 156.232, 53.623 89.962, 55.473 88.601 C 56.419 87.905, 56.296 86.654, 54.928 83.053 L 53.162 78.404 61.581 68.784 C 67.601 61.906, 70 58.409, 70 56.515 C 70 54.401, 70.371 53.983, 71.832 54.447 C 72.997 54.817, 74.363 54.233, 75.582 52.845 C 77.048 51.175, 77.133 50.794, 75.942 51.225 C 74.707 51.673, 72.967 48.083, 67.543 33.895 C 63.780 24.053, 60.656 16.013, 60.600 16.030 C 60.545 16.046, 53.750 22.371, 45.500 30.085 M 128.529 36.250 C 127.266 43.562, 125.239 58.519, 125.476 58.782 C 125.616 58.937, 132.583 56.537, 140.960 53.450 C 155.373 48.137, 166.067 42.756, 164.302 41.705 C 163.248 41.078, 131.580 33, 130.175 33 C 129.578 33, 128.838 34.462, 128.529 36.250 M 73.524 65.250 C 74.045 69.770, 75.627 74.268, 79.237 81.500 C 81.983 87, 84.404 91.688, 84.617 91.918 C 84.830 92.149, 90.257 93.173, 96.677 94.194 C 105.093 95.532, 108.543 95.740, 109.038 94.938 C 109.630 93.981, 111.149 77.682, 110.672 77.415 C 103.300 73.294, 74.832 59, 73.996 59 C 73.123 59, 72.997 60.675, 73.524 65.250 M 63.750 70.323 C 60.038 74.580, 57.001 78.837, 57.002 79.782 C 57.002 80.727, 57.790 83.075, 58.752 85 C 60.474 88.448, 60.647 88.523, 70.500 90.081 C 76 90.951, 80.641 91.561, 80.812 91.436 C 80.984 91.311, 79.010 86.999, 76.425 81.854 C 73.655 76.342, 71.473 70.463, 71.112 67.541 L 70.500 62.581 63.750 70.323 M 114.500 66 L 109.500 67.845 115.133 67.922 C 119.961 67.989, 120.842 67.714, 121.290 66 C 121.922 63.582, 121.053 63.582, 114.500 66 M 140.440 70.748 L 123.381 71.046 121.668 83.773 C 120.726 90.773, 119.965 96.787, 119.977 97.139 C 119.990 97.490, 121.511 98.061, 123.358 98.407 L 126.716 99.037 120.146 119.519 C 115.686 133.420, 113.121 140, 112.160 140 C 111.088 140, 110.885 139.089, 111.321 136.250 C 113.697 120.810, 116.257 100.924, 115.913 100.580 C 115.684 100.350, 114.326 99.869, 112.895 99.510 C 110.334 98.867, 110.136 99.229, 99.736 123.679 L 89.177 148.500 90.025 159.500 C 90.492 165.550, 90.902 171.063, 90.937 171.750 C 90.985 172.701, 95.361 173.004, 109.250 173.019 C 119.287 173.029, 140.290 173.477, 155.922 174.014 C 171.554 174.551, 184.450 174.880, 184.579 174.745 C 184.709 174.610, 174.925 167.798, 162.837 159.606 C 145.194 147.650, 141.119 144.475, 142.179 143.506 C 154.055 132.655, 173.619 114.202, 174 113.493 C 174.275 112.981, 167.438 109.611, 158.808 106.005 C 150.177 102.399, 142.853 99.187, 142.533 98.867 C 142.213 98.547, 146.900 96.122, 152.949 93.478 L 163.946 88.670 166.619 80.585 C 168.090 76.138, 169.500 71.938, 169.754 71.250 C 170.097 70.319, 168.593 70.057, 163.857 70.225 C 160.361 70.348, 149.823 70.584, 140.440 70.748 M 109.484 73.289 L 113.468 75.546 113.196 83.523 C 113.046 87.910, 112.680 92.737, 112.382 94.250 C 111.904 96.679, 112.142 97, 114.421 97 C 115.839 97, 117.012 96.662, 117.026 96.250 C 117.040 95.838, 117.865 89.987, 118.858 83.250 L 120.665 71 113.082 71.016 L 105.500 71.033 109.484 73.289 M 56.984 91.083 C 56.975 91.313, 55.007 104.100, 52.610 119.500 C 50.213 134.900, 48.369 147.635, 48.510 147.801 C 48.652 147.966, 52.862 140.518, 57.866 131.249 L 66.963 114.395 62.671 103.221 C 58.977 93.601, 57.046 89.481, 56.984 91.083 M 118.122 108.541 C 116.425 119.946, 116.859 120.386, 120.052 110.500 C 121.651 105.550, 122.969 101.388, 122.980 101.250 C 122.991 101.112, 122.155 101, 121.122 101 C 119.549 101, 119.061 102.227, 118.122 108.541" stroke="none" fill="black" fill-rule="evenodd"/>
</svg>