<svg xmlns="http://www.w3.org/2000/svg" width="200" height="200" viewBox="0 0 200 200" version="1.1">
	<path d="M 100.580 25.049 C 91.328 36.589, 83.426 46.237, 83.018 46.489 C 80.719 47.909, 53.915 49.983, 37.750 49.991 C 21.754 49.999, 19 50.220, 19 51.500 C 19 52.783, 21.712 52.988, 37.750 52.915 C 48.393 52.867, 62.553 52.110, 70.500 51.165 L 84.500 49.500 98.391 32.224 C 106.031 22.722, 112.492 15.159, 112.749 15.416 C 113.007 15.673, 111.989 22.905, 110.486 31.486 C 108.984 40.068, 107.946 47.279, 108.179 47.512 C 108.412 47.745, 114.880 49.508, 122.551 51.429 L 136.500 54.922 125.500 54.406 L 114.500 53.891 101.620 62.366 L 88.740 70.840 98.521 80.920 L 108.302 91 100.826 91 L 93.350 91 88.557 106.250 C 84.545 119.015, 82.450 123.763, 75.698 135.390 C 67.908 148.807, 67.198 149.675, 54.875 160.842 C 43.890 170.797, 40.823 172.994, 32.808 176.649 C 27.689 178.984, 23.076 180.918, 22.558 180.947 C 22.039 180.976, 26.349 176.162, 32.134 170.250 C 41.640 160.534, 43.402 158.117, 50.447 145.124 C 57.333 132.423, 58.702 128.985, 62.190 115.624 C 66.180 100.343, 72.482 62.031, 71.196 60.872 C 70.813 60.527, 65.100 59.096, 58.500 57.692 C 42.770 54.345, 11 52.818, 11 55.409 C 11 56.798, 13.064 57.002, 27.250 57.013 C 41.491 57.025, 45.015 57.376, 55.754 59.850 C 62.493 61.403, 68.182 62.860, 68.397 63.087 C 69.332 64.080, 62.913 101.799, 59.592 114.819 C 56.399 127.338, 54.978 130.920, 48.285 143.319 C 41.168 156.504, 39.730 158.439, 27.815 170.876 C 16.683 182.496, 13.271 187, 15.601 187 C 15.932 187, 22.344 184.279, 29.851 180.954 C 43.142 175.066, 43.844 174.596, 56.600 163.037 C 69.386 151.450, 69.898 150.824, 78.023 136.840 C 84.870 125.054, 87.115 120.055, 90.677 108.655 C 93.058 101.034, 95.285 94.347, 95.626 93.796 C 96.016 93.166, 100.736 93.003, 108.372 93.356 C 115.043 93.665, 122.529 93.936, 125.008 93.959 L 129.516 94 128.738 107.750 C 128.148 118.163, 126.984 125.737, 123.942 138.955 C 121.732 148.555, 119.716 156.617, 119.462 156.871 C 119.208 157.125, 111.054 156.804, 101.342 156.158 C 91.630 155.512, 83.544 155.122, 83.374 155.293 C 83.204 155.463, 87.437 159.436, 92.782 164.121 C 100.053 170.495, 105.684 174.322, 115.145 179.320 C 122.099 182.994, 128.267 186, 128.850 186 C 129.433 186, 135.250 179.284, 141.777 171.075 L 153.644 156.150 154.913 140.325 C 155.978 127.029, 156.907 121.898, 160.725 108.218 C 163.224 99.263, 165.096 91.803, 164.884 91.641 C 164.673 91.478, 159.859 87.581, 154.186 82.979 L 143.873 74.613 127.924 82.538 L 111.975 90.462 102.447 80.934 L 92.918 71.405 103.875 64.304 L 114.831 57.202 150.050 57.755 C 174.697 58.141, 185.154 57.988, 184.884 57.245 C 184.673 56.661, 179.842 50.948, 174.149 44.550 L 163.797 32.917 160.649 35.276 C 158.917 36.573, 152.928 40.880, 147.341 44.847 L 137.182 52.059 124.341 48.879 C 117.278 47.130, 111.361 45.590, 111.191 45.457 C 111.021 45.324, 112.472 36.081, 114.417 24.917 C 116.361 13.753, 117.827 4.494, 117.676 4.342 C 117.524 4.191, 109.831 13.508, 100.580 25.049 M 150.257 45.963 L 138.014 54.747 143.257 55.265 C 148.993 55.832, 179 54.976, 179 54.246 C 179 53.449, 163.779 36.996, 163.127 37.089 C 162.782 37.138, 156.991 41.131, 150.257 45.963 M 130.534 84.277 L 118.569 90.500 125.550 90.789 L 132.531 91.078 131.376 108.289 C 130.419 122.540, 129.493 128.486, 125.991 142.862 L 121.762 160.225 110.131 159.577 C 103.734 159.221, 96.700 158.705, 94.500 158.430 L 90.500 157.930 97 164.042 C 102.669 169.374, 111.862 174.908, 128.125 182.781 C 128.469 182.947, 133.696 176.877, 139.741 169.292 L 150.733 155.500 152.332 138.500 C 153.625 124.750, 154.717 118.767, 158.043 107.205 L 162.155 92.909 159.827 91.063 C 158.547 90.048, 154.350 86.696, 150.500 83.614 C 146.650 80.533, 143.275 78.021, 143 78.033 C 142.725 78.045, 137.115 80.855, 130.534 84.277" stroke="none" fill="black" fill-rule="evenodd"/>
</svg>