<svg xmlns="http://www.w3.org/2000/svg" width="200" height="200" viewBox="0 0 200 200" version="1.1">
	<path d="M 137.350 23.241 L 108.201 35.305 106.022 42.644 L 103.843 49.984 90.831 58.068 C 83.674 62.514, 77.636 65.969, 77.414 65.747 C 77.191 65.525, 81.103 59.871, 86.107 53.183 L 95.205 41.022 91.181 36.261 C 88.969 33.643, 84.760 29.178, 81.829 26.340 L 76.500 21.181 59.500 18.583 C 39.682 15.555, 41 15.646, 41 17.299 C 41 18.214, 46.086 19.372, 58.149 21.206 L 75.299 23.813 83.673 32.187 L 92.047 40.562 82.959 52.891 C 77.960 59.672, 74.104 65.828, 74.389 66.571 C 74.730 67.461, 70.911 70.411, 63.204 75.211 L 51.500 82.499 42.500 83.156 C 19.880 84.806, 19.760 85.057, 46.887 73.999 C 60.300 68.532, 71.411 63.922, 71.578 63.755 C 72.012 63.321, 45.199 46.479, 44.271 46.602 C 43.847 46.659, 41.838 49.575, 39.807 53.084 C 37.775 56.592, 35.734 59.589, 35.270 59.743 C 34.806 59.898, 33.732 53.720, 32.883 46.015 C 31.390 32.464, 30.766 29.901, 29.313 31.353 C 28.552 32.115, 31.906 65.757, 32.943 67.765 C 33.338 68.530, 35.755 65.276, 39.048 59.546 C 42.778 53.056, 44.950 50.221, 45.926 50.567 C 48.441 51.458, 65 62.233, 65 62.978 C 65 63.373, 53.607 68.300, 39.682 73.927 C 25.757 79.553, 13.723 84.553, 12.940 85.037 C 9.706 87.036, 13.841 87.714, 24.500 86.933 C 41.822 85.663, 46 85.766, 46 87.460 C 46 88.299, 47.719 89.435, 50.046 90.132 L 54.093 91.344 49.796 94.040 C 45.937 96.462, 44.901 98.046, 39.614 109.618 C 34.346 121.146, 18.017 164.918, 18.005 167.542 C 17.998 169.085, 50.994 178.620, 51.827 177.315 C 66.400 154.491, 71.554 146.967, 72.878 146.585 C 89.451 141.801, 88.881 142.091, 88.440 138.675 C 88.215 136.929, 87.581 130.933, 87.030 125.351 C 86.041 115.311, 86.063 115.123, 89.015 107.963 C 90.657 103.982, 92 100.208, 92 99.575 C 92 98.936, 85.262 96.641, 76.823 94.407 L 61.647 90.389 66.838 87.194 C 76.150 81.465, 76.611 81.679, 93.918 99.744 C 102.213 108.403, 108.995 115.940, 108.990 116.494 C 108.984 117.047, 103.185 132.917, 96.102 151.760 C 88.743 171.338, 83.639 186.277, 84.193 186.619 C 85.402 187.367, 87.352 185.513, 107.318 164.639 L 123.445 147.778 131.143 117.639 C 137.431 93.019, 138.866 88.416, 138.976 92.500 C 139.051 95.250, 139.687 107.236, 140.390 119.135 L 141.668 140.770 151.584 164.868 C 157.038 178.122, 162.054 188.974, 162.731 188.983 C 164.472 189.007, 164.611 187.988, 167.553 153.500 L 170.198 122.500 177.216 96.201 C 181.076 81.736, 183.973 69.639, 183.652 69.319 C 183.332 68.999, 171.692 70.069, 157.785 71.697 C 143.878 73.326, 132.359 74.557, 132.188 74.433 C 132.016 74.310, 139.103 64.171, 147.936 51.903 C 157.587 38.499, 163.633 29.233, 163.086 28.686 C 162.539 28.139, 150.545 34.649, 133.032 44.998 C 117.002 54.471, 103.728 62.058, 103.533 61.860 C 103.338 61.662, 103.925 59.272, 104.839 56.549 L 106.500 51.598 136 33.366 C 152.225 23.338, 166.175 14.700, 167 14.170 C 168.003 13.526, 168.169 12.871, 167.500 12.192 C 166.826 11.508, 156.993 15.112, 137.350 23.241 M 129.201 29.459 C 119.686 33.440, 111.528 37.104, 111.072 37.599 C 109.908 38.862, 107.697 46.031, 108.289 46.623 C 108.730 47.063, 145.177 24.959, 147.450 22.872 C 149.243 21.226, 146.555 22.196, 129.201 29.459 M 129.019 50.422 L 101.537 66.745 99.669 73.122 C 98.641 76.630, 97.640 79.667, 97.445 79.871 C 97.250 80.076, 95.037 79.040, 92.527 77.569 L 87.964 74.895 83.232 77.434 L 78.500 79.974 95.651 97.700 L 112.803 115.427 110.811 120.463 C 104.463 136.522, 89.052 178.385, 89.371 178.704 C 89.579 178.912, 96.749 171.764, 105.305 162.820 L 120.861 146.559 128.478 116.029 C 138.489 75.900, 137.886 78, 139.410 78 C 140.905 78, 141.274 81.956, 143.097 117.500 L 144.225 139.500 152.757 160.273 C 157.449 171.698, 161.515 180.818, 161.793 180.540 C 162.071 180.263, 163.561 166.415, 165.104 149.768 L 167.909 119.500 174.312 96 C 177.833 83.075, 180.403 72.375, 180.021 72.221 C 179.640 72.068, 167.483 73.310, 153.006 74.980 C 138.529 76.651, 126.567 77.900, 126.422 77.756 C 126.278 77.611, 133.099 67.858, 141.580 56.083 C 155.778 36.370, 157.474 33.906, 156.750 34.050 C 156.613 34.077, 144.133 41.444, 129.019 50.422 M 90.652 61.263 C 81.647 66.860, 80.962 67.499, 82.652 68.735 C 86.281 71.389, 88.603 71.226, 93.939 67.942 C 96.805 66.179, 99.562 63.651, 100.067 62.324 C 101.697 58.037, 102.238 54.998, 101.358 55.071 C 100.886 55.110, 96.068 57.896, 90.652 61.263 M 68.326 75.189 C 62.921 78.507, 58.275 81.459, 58 81.749 C 57.725 82.039, 60.760 82.016, 64.745 81.697 C 70.817 81.211, 73.050 80.482, 78.548 77.189 L 85.107 73.261 81.629 71.209 L 78.151 69.157 68.326 75.189 M 94.088 71.092 C 90.942 73.006, 90.866 73.184, 92.635 74.524 C 93.661 75.301, 94.793 75.951, 95.152 75.968 C 95.846 76.002, 98.218 69.884, 97.708 69.375 C 97.543 69.209, 95.914 69.982, 94.088 71.092 M 57.831 84.907 C 54.163 85.233, 50.838 85.825, 50.442 86.222 C 49.642 87.025, 54.184 89.002, 56.815 88.996 C 58.532 88.992, 65 85.451, 65 84.515 C 65 84.232, 64.888 84.071, 64.750 84.157 C 64.612 84.244, 61.499 84.581, 57.831 84.907 M 53.001 95.349 C 48.066 98.338, 47.513 99.116, 42.239 110.500 C 37.423 120.895, 20.565 165.933, 21.253 166.567 C 21.389 166.692, 27.781 168.638, 35.457 170.890 C 44.059 173.414, 49.772 174.628, 50.344 174.056 C 50.856 173.544, 55.408 166.726, 60.459 158.904 L 69.645 144.681 77.477 142.352 C 81.785 141.071, 85.392 139.905, 85.493 139.762 C 85.594 139.618, 85.170 133.938, 84.552 127.140 C 83.429 114.792, 83.431 114.774, 86.185 107.695 C 87.701 103.797, 88.842 100.542, 88.721 100.460 C 88.599 100.378, 83.100 98.896, 76.500 97.166 C 69.900 95.437, 63.083 93.611, 61.352 93.110 C 58.669 92.333, 57.433 92.665, 53.001 95.349" stroke="none" fill="black" fill-rule="evenodd"/>
</svg>