<svg xmlns="http://www.w3.org/2000/svg" width="200" height="200" viewBox="0 0 200 200" version="1.1">
	<path d="M 45 23.744 C 38.125 30.132, 29.422 38.233, 25.660 41.746 L 18.820 48.134 26.999 66.680 L 35.179 85.226 28.078 122.363 C 24.172 142.788, 20.982 160.235, 20.989 161.133 C 20.995 162.032, 21.788 162.989, 22.750 163.260 C 23.713 163.532, 26.797 164.677, 29.605 165.805 L 34.709 167.856 47.605 131.780 L 60.500 95.705 60.769 119.058 L 61.038 142.411 55.019 164.013 C 51.709 175.893, 49 185.959, 49 186.380 C 49 189.129, 54.434 183.602, 73.460 161.500 C 85.296 147.750, 94.985 136.009, 94.990 135.408 C 94.996 134.808, 91.848 121.150, 87.997 105.057 L 80.993 75.797 75.064 69.164 C 71.803 65.516, 69.224 62.443, 69.332 62.335 C 69.440 62.227, 77.259 62.400, 86.709 62.720 L 103.890 63.301 103.457 65.901 C 103.219 67.330, 102.093 77.950, 100.955 89.500 C 99.273 106.567, 99.014 113.871, 99.574 128.500 L 100.262 146.500 89.559 167.885 C 83.673 179.646, 79.464 189.036, 80.206 188.751 C 84.662 187.041, 136.950 157.438, 139.055 155.433 C 140.460 154.095, 141.936 153, 142.334 153 C 142.733 153, 152.580 159.756, 164.216 168.013 C 177.930 177.744, 185.716 182.684, 186.347 182.053 C 186.978 181.422, 184.320 177.811, 178.793 171.790 C 174.103 166.681, 166.371 158.227, 161.610 153.005 L 152.954 143.510 160.940 139.551 L 168.926 135.592 168.424 111.046 C 168.147 97.546, 167.722 84.925, 167.479 83 C 167.236 81.075, 167.764 73.748, 168.652 66.718 C 169.541 59.687, 170.003 53.670, 169.679 53.345 C 169.354 53.021, 159.506 54.615, 147.794 56.887 C 136.082 59.160, 126.156 61.015, 125.736 61.009 C 125.316 61.004, 126.499 57.973, 128.364 54.272 L 131.756 47.545 158.117 44.022 C 178.836 41.254, 184.537 40.179, 184.755 39 C 184.975 37.812, 178.050 35.862, 151.473 29.627 C 133.015 25.296, 117.689 21.977, 117.416 22.251 C 117.142 22.525, 118.064 31.202, 119.465 41.535 C 120.866 51.867, 121.828 60.505, 121.604 60.730 C 121.107 61.226, 119.186 56.026, 110.991 32 C 107.521 21.825, 104.366 13.135, 103.980 12.690 C 103.084 11.653, 82.789 45.850, 83.561 47.099 C 84.558 48.713, 85.526 47.402, 93.951 33.023 C 98.471 25.310, 102.486 19, 102.875 19 C 103.263 19, 108.227 32.387, 113.906 48.750 C 125.182 81.245, 127.820 92.909, 126.063 102.500 C 125.559 105.250, 124.873 111.662, 124.537 116.749 L 123.928 125.998 127.421 127.664 C 131.141 129.438, 131.419 130.121, 132.584 140.322 C 133.176 145.511, 133.615 146.382, 136.612 148.322 C 138.462 149.520, 139.981 150.783, 139.988 151.128 C 140.012 152.346, 129.269 158.889, 108.195 170.492 C 96.477 176.944, 86.660 181.993, 86.380 181.713 C 86.099 181.433, 89.744 173.770, 94.478 164.685 L 103.086 148.167 102.431 128.834 C 101.893 112.968, 102.155 105.644, 103.891 88 C 105.055 76.175, 106.118 65.150, 106.253 63.500 L 106.500 60.500 85 59.944 C 73.175 59.637, 63.335 59.502, 63.134 59.643 C 62.933 59.783, 66.285 63.710, 70.583 68.369 L 78.398 76.840 85.148 104.670 C 88.860 119.976, 91.921 133.234, 91.949 134.130 C 92.002 135.827, 55.094 179.428, 54.287 178.621 C 54.035 178.368, 56.117 170.125, 58.914 160.302 L 64 142.442 64 114.221 C 64 90.766, 63.765 86, 62.607 86 C 61.841 86, 60.904 86.787, 60.526 87.750 C 60.148 88.713, 53.981 105.925, 46.823 126 C 39.665 146.075, 33.492 162.837, 33.105 163.249 C 32.074 164.347, 24 160.924, 24 159.388 C 24 158.668, 27.163 141.613, 31.030 121.487 L 38.059 84.894 30.007 66.770 C 25.578 56.802, 22.302 48.322, 22.727 47.927 C 43.706 28.416, 56.534 17.146, 57.085 17.741 C 57.659 18.362, 61.701 28.327, 70.132 49.913 C 70.779 51.570, 71.397 52.003, 72.106 51.294 C 72.814 50.586, 70.885 44.508, 65.943 31.881 C 61.986 21.772, 58.467 13.192, 58.124 12.815 C 57.781 12.438, 51.875 17.356, 45 23.744 M 120.503 28.675 C 121.643 36.588, 124.002 54.390, 124.048 55.424 C 124.075 56.016, 125.432 53.913, 127.064 50.750 C 128.696 47.587, 130.210 45, 130.428 45 C 130.646 45, 140.652 43.650, 152.662 42 C 164.673 40.350, 174.912 39, 175.417 39 C 178.429 38.999, 172.642 37.442, 149.464 32.013 C 135.184 28.668, 122.702 25.688, 121.726 25.391 C 120.183 24.920, 120.024 25.347, 120.503 28.675 M 145.110 60.088 C 134.445 62.211, 125.611 64.072, 125.479 64.224 C 124.648 65.178, 127.601 79.822, 129.997 86.629 C 132.581 93.970, 132.715 94.961, 131.384 96.862 C 130.079 98.725, 130.114 100.594, 131.684 113.066 L 133.459 127.165 136.980 128.587 C 138.916 129.369, 142.833 132.594, 145.683 135.754 L 150.867 141.500 158.183 137.881 L 165.500 134.263 165.500 99.881 C 165.500 80.972, 165.899 63.362, 166.386 60.750 C 167.099 56.926, 167.002 56.022, 165.886 56.115 C 165.124 56.178, 155.774 57.966, 145.110 60.088 M 127.727 114.390 C 126.599 121.978, 126.827 124.720, 128.643 125.417 C 129.547 125.763, 130.359 125.924, 130.447 125.774 C 130.535 125.623, 130.123 121.900, 129.530 117.500 L 128.453 109.500 127.727 114.390 M 134.408 134.250 C 134.682 136.037, 135.158 139.107, 135.465 141.071 C 135.844 143.494, 136.998 145.362, 139.057 146.884 L 142.091 149.127 145.525 146.112 L 148.958 143.098 143.203 137.049 C 136.585 130.095, 133.626 129.153, 134.408 134.250 M 147.670 147.800 L 144.840 150.776 148.170 153.226 C 150.002 154.574, 155.550 158.537, 160.500 162.033 C 165.450 165.530, 171.075 169.538, 173 170.940 C 175.185 172.532, 173.308 169.972, 168 164.123 C 163.325 158.971, 157.475 152.521, 155 149.789 L 150.500 144.823 147.670 147.800" stroke="none" fill="black" fill-rule="evenodd"/>
</svg>