<svg xmlns="http://www.w3.org/2000/svg" width="200" height="200" viewBox="0 0 200 200" version="1.1">
	<path d="M 122.500 19.012 L 105.500 25.792 86.341 25.241 L 67.181 24.690 51.954 30.016 L 36.728 35.342 37.373 50.921 C 39.102 92.631, 39.210 94, 40.769 94 C 42.021 94, 42.160 92.606, 41.645 85.250 C 41.308 80.438, 40.739 67.677, 40.380 56.894 L 39.727 37.288 48.114 34.281 C 66.089 27.835, 65.560 27.928, 82.473 28.224 L 98.272 28.500 73.386 38.135 C 57.730 44.196, 48.500 48.276, 48.500 49.135 C 48.500 49.886, 49.288 50.368, 50.251 50.206 C 53.479 49.664, 80.130 71.449, 79.933 74.469 C 79.764 77.056, 66.346 86.383, 55.379 91.536 C 47.154 95.400, 43.963 97.363, 44.702 98.102 C 45.442 98.842, 47.317 98.366, 50.978 96.511 C 53.849 95.056, 56.364 94.030, 56.565 94.232 C 56.767 94.434, 51.557 99.076, 44.988 104.549 C 38.419 110.022, 33.034 114.809, 33.022 115.187 C 33.010 115.564, 34.404 116.014, 36.119 116.187 C 38.980 116.474, 39.390 116.992, 41.067 122.430 C 42.072 125.692, 42.705 128.669, 42.472 129.045 C 42.239 129.422, 40.201 129.978, 37.942 130.281 C 35.683 130.584, 33.635 131.032, 33.390 131.276 C 33.146 131.521, 36.151 137.296, 40.068 144.110 C 43.984 150.925, 47.597 157.259, 48.096 158.188 C 48.816 159.526, 46.516 162.716, 36.976 173.610 C 26.064 186.071, 24.200 188.791, 26.208 189.325 C 27.243 189.600, 70.655 161.005, 90 147.306 C 99.625 140.490, 107.918 134.820, 108.429 134.707 C 108.940 134.593, 112.132 148, 115.522 164.500 L 121.687 194.500 132.415 172.500 L 143.142 150.500 162.925 139 C 185.054 126.137, 184.954 126.350, 169 126.107 C 164.325 126.036, 158.833 125.702, 156.795 125.366 L 153.091 124.753 147.177 107.041 L 141.263 89.328 152.158 74.095 L 163.054 58.862 157.396 38.181 C 154.284 26.807, 151.401 17.127, 150.990 16.671 C 150.579 16.215, 137.700 26.441, 122.371 39.395 C 107.042 52.348, 93.825 62.952, 93 62.957 C 89.473 62.983, 62.764 54.959, 60.533 53.205 L 58.088 51.281 60.786 50.052 C 62.270 49.376, 74.738 47.442, 88.492 45.755 C 102.246 44.069, 113.886 42.351, 114.357 41.938 C 114.828 41.524, 114.265 38.653, 113.107 35.556 C 111.948 32.459, 111 29.717, 111 29.462 C 111 29.208, 115.216 29, 120.370 29 L 129.740 29 135.620 21.941 C 141.396 15.007, 142.489 12.881, 140.500 12.450 C 139.950 12.330, 131.850 15.283, 122.500 19.012 M 123.500 21.552 L 112.500 25.915 120.630 25.958 L 128.759 26 132.446 21.500 C 134.475 19.025, 135.766 17.042, 135.317 17.094 C 134.868 17.146, 129.550 19.152, 123.500 21.552 M 124.500 41.081 C 110.750 52.644, 98.936 62.661, 98.247 63.341 C 97.249 64.326, 99.949 65.367, 111.497 68.448 C 119.474 70.576, 126 72.608, 126 72.962 C 126 73.316, 121.612 74.661, 116.250 75.950 C 97.776 80.390, 97.628 79.919, 119.059 84.918 C 129.475 87.348, 138.156 89.148, 138.350 88.918 C 138.545 88.688, 143.484 81.708, 149.328 73.406 L 159.952 58.311 154.948 39.906 C 152.195 29.783, 149.843 21.175, 149.722 20.778 C 149.600 20.382, 138.250 29.518, 124.500 41.081 M 90.230 37.175 C 81.282 41.090, 74.082 44.396, 74.230 44.521 C 74.379 44.647, 82.375 43.694, 92 42.405 C 101.625 41.116, 110.055 40.048, 110.733 40.031 C 112.126 39.996, 108.953 30.796, 107.385 30.323 C 106.898 30.176, 99.179 33.260, 90.230 37.175 M 66 44 C 65.175 44.533, 64.950 44.969, 65.500 44.969 C 66.050 44.969, 67.175 44.533, 68 44 C 68.825 43.467, 69.050 43.031, 68.500 43.031 C 67.950 43.031, 66.825 43.467, 66 44 M 71 60.566 C 71 60.768, 73.977 63.186, 77.615 65.940 C 82.703 69.793, 84.625 70.736, 85.947 70.028 C 87.941 68.961, 90.466 66.119, 89.893 65.588 C 89.273 65.014, 71 60.157, 71 60.566 M 90.201 69.904 L 86.902 72.727 90.624 75.713 L 94.346 78.699 103.923 76.312 C 109.190 74.999, 114.175 73.665, 115 73.346 C 116.430 72.794, 98.133 67.055, 95 67.073 C 94.175 67.077, 92.015 68.352, 90.201 69.904 M 79.539 78.957 C 77.804 80.874, 77.830 80.890, 80.822 79.761 C 82.502 79.127, 83.652 78.246, 83.379 77.804 C 82.583 76.516, 81.436 76.860, 79.539 78.957 M 76.354 84.822 C 70.324 87.636, 64.584 91.662, 54.252 100.324 L 40.296 112.025 43.148 120.085 C 47.001 130.974, 46.937 131.472, 41.549 132.582 L 37.099 133.500 44.544 146.500 C 48.639 153.650, 51.992 159.746, 51.995 160.046 C 51.998 160.347, 48.175 164.934, 43.500 170.240 C 38.825 175.547, 35 180.125, 35 180.415 C 35 181.359, 78.086 152.682, 94.500 140.813 C 104.245 133.766, 110.730 129.684, 111.090 130.371 C 111.414 130.992, 114.109 143.537, 117.080 158.250 C 120.050 172.963, 122.710 184.975, 122.990 184.944 C 123.271 184.913, 127.550 176.701, 132.500 166.694 L 141.500 148.500 157.883 138.857 L 174.265 129.214 162.648 128.488 L 151.031 127.762 145.765 111.410 C 142.869 102.416, 140.207 95.044, 139.849 95.029 C 139.490 95.013, 134.090 99.263, 127.849 104.473 C 117.647 112.987, 115.022 114.605, 101.881 120.473 C 93.840 124.063, 86.978 127, 86.631 127 C 84.598 127, 87.056 122.936, 95.421 112.468 L 104.841 100.679 95.703 90.840 C 90.676 85.428, 86.100 81.005, 85.532 81.011 C 84.964 81.017, 80.834 82.732, 76.354 84.822 M 92.772 83.635 C 93.912 85.211, 97.388 88.975, 100.496 92 C 109.215 100.485, 109.241 99.589, 99.939 111.075 C 95.461 116.605, 91.955 121.267, 92.148 121.435 C 92.342 121.603, 97.596 119.436, 103.825 116.620 C 113.118 112.419, 117.197 109.807, 126.555 102.063 C 132.828 96.873, 137.850 92.516, 137.715 92.381 C 137.580 92.246, 127.801 89.836, 115.985 87.026 C 104.168 84.215, 93.645 81.658, 92.600 81.343 C 90.800 80.800, 90.809 80.921, 92.772 83.635" stroke="none" fill="black" fill-rule="evenodd"/>
</svg>