<svg xmlns="http://www.w3.org/2000/svg" width="200" height="200" viewBox="0 0 200 200" version="1.1">
	<path d="M 103 15.036 C 89.525 15.415, 72.939 15.787, 66.143 15.862 C 55.283 15.983, 53.860 16.193, 54.397 17.593 C 54.733 18.469, 55.280 20.266, 55.611 21.586 L 56.213 23.987 51.981 22.493 C 49.653 21.672, 47.195 21, 46.519 21 C 45.746 21, 43.537 28.342, 40.576 40.750 C 37.984 51.613, 35.592 61.175, 35.259 62 C 34.927 62.825, 34.533 64.400, 34.384 65.500 C 34.235 66.600, 32.302 74.925, 30.088 84 C 26.850 97.270, 25.281 107.344, 22.074 135.460 C 19.881 154.688, 18.181 170.515, 18.297 170.631 C 18.413 170.747, 30.319 166.062, 44.754 160.220 L 71 149.598 71.114 137.049 C 71.177 130.147, 71.514 118.749, 71.864 111.720 L 72.500 98.939 80.434 103.954 C 84.798 106.712, 88.768 109.368, 89.256 109.856 C 89.773 110.373, 84.206 123.552, 75.933 141.399 C 68.117 158.260, 61.900 172.233, 62.117 172.451 C 62.335 172.669, 68.940 168.846, 76.794 163.956 C 93.004 153.863, 91.089 153.727, 94.487 165.214 C 95.491 168.609, 97.490 172.025, 100.074 174.763 L 104.097 179.026 141.574 177.154 C 162.187 176.124, 179.330 175.003, 179.670 174.664 C 180.009 174.324, 176.060 164.306, 170.893 152.402 L 161.500 130.757 155.250 127.868 C 151.813 126.280, 148.999 124.422, 148.999 123.740 C 148.998 123.058, 149.515 118.797, 150.147 114.270 C 150.987 108.261, 151.730 105.916, 152.899 105.579 C 153.779 105.325, 158.213 104.339, 162.750 103.388 C 167.726 102.345, 171 101.167, 171 100.418 C 171 99.205, 169.093 98.762, 158.140 97.433 L 152.779 96.782 153.342 93.141 C 153.651 91.138, 154.208 87.145, 154.579 84.267 C 154.950 81.390, 155.847 78.542, 156.572 77.940 C 157.443 77.218, 157.618 76.106, 157.089 74.673 C 156.592 73.330, 157.571 63.903, 159.651 50 C 161.502 37.625, 162.900 26.857, 162.758 26.071 C 162.120 22.540, 160.298 25.815, 156.016 38.185 C 150.724 53.473, 152.648 52.373, 137.250 48.914 C 131.489 47.620, 128 46.353, 128 45.557 C 128 44.763, 122.032 42.577, 112.250 39.789 C 102.207 36.927, 96.500 34.825, 96.500 33.989 C 96.500 33.127, 106.270 29.905, 125 24.589 C 140.675 20.140, 153.389 16.050, 153.253 15.500 C 152.949 14.268, 135.915 14.111, 103 15.036 M 93 18.052 C 80.075 18.427, 66.882 18.793, 63.683 18.867 C 58.139 18.994, 57.897 19.106, 58.545 21.250 C 58.919 22.488, 59.538 23.841, 59.920 24.257 C 60.802 25.218, 84.263 32.001, 86.689 31.996 C 87.685 31.994, 100.200 28.656, 114.500 24.578 L 140.500 17.164 128.500 17.267 C 121.900 17.324, 105.925 17.677, 93 18.052 M 43.244 41.183 C 40.963 50.669, 39.223 58.556, 39.377 58.710 C 39.532 58.865, 43.578 55.633, 48.368 51.528 C 56.216 44.805, 57.389 44.128, 60.207 44.691 C 62.987 45.247, 63.254 45.104, 62.602 43.409 C 62.198 42.359, 60.905 38.230, 59.729 34.233 C 57.667 27.229, 57.450 26.929, 53.732 25.928 C 51.611 25.357, 49.316 24.675, 48.634 24.413 C 47.763 24.079, 46.154 29.083, 43.244 41.183 M 61 28.583 C 61 29.022, 62.218 33.120, 63.706 37.690 C 66.863 47.385, 67.125 47.492, 76.279 42.835 L 82.500 39.669 79.250 38.806 C 75.600 37.837, 74.976 36.081, 78 35.290 C 81.584 34.353, 80.137 33.351, 71.962 31.111 C 67.541 29.899, 63.266 28.656, 62.462 28.347 C 61.658 28.038, 61 28.145, 61 28.583 M 84.500 36.068 C 82.871 36.713, 83.103 36.872, 85.750 36.930 C 89.130 37.003, 89.895 36.550, 87.750 35.745 C 87.063 35.488, 85.600 35.633, 84.500 36.068 M 92.104 37.936 C 91.225 38.479, 91.719 38.905, 93.658 39.278 C 97.145 39.947, 97.796 39.496, 95.282 38.151 C 94.243 37.595, 92.813 37.498, 92.104 37.936 M 103 41 C 103.825 41.533, 105.400 41.945, 106.500 41.914 L 108.500 41.859 106.500 41 C 105.400 40.527, 103.825 40.116, 103 40.086 C 101.667 40.037, 101.667 40.138, 103 41 M 80.038 43.921 C 74.606 46.733, 74.592 46.751, 77.538 47.354 C 85.153 48.910, 106.180 52.103, 106.946 51.819 C 107.419 51.644, 106.312 49.782, 104.488 47.682 C 102.027 44.849, 99.794 43.497, 95.835 42.444 C 88.446 40.477, 86.306 40.677, 80.038 43.921 M 109.813 42.683 C 110.534 42.972, 111.397 42.936, 111.729 42.604 C 112.061 42.272, 111.471 42.036, 110.417 42.079 C 109.252 42.127, 109.015 42.364, 109.813 42.683 M 154.404 51.289 C 152.001 58.648, 151.597 61.053, 152.391 63.250 C 152.938 64.763, 153.649 66, 153.970 66 C 154.556 66, 158.187 42.854, 157.681 42.347 C 157.532 42.199, 156.057 46.222, 154.404 51.289 M 109.053 48.917 C 110.785 51.071, 113.370 53.127, 114.798 53.486 C 116.366 53.879, 116.944 54.417, 116.257 54.841 C 115.499 55.310, 116.184 56.757, 118.309 59.172 L 121.500 62.799 132.265 58.248 C 138.186 55.745, 142.862 53.528, 142.655 53.321 C 142.265 52.932, 108.114 45.042, 106.703 45.015 C 106.264 45.007, 107.322 46.763, 109.053 48.917 M 51.500 52.559 L 45.500 58.070 55 53.362 C 63.450 49.174, 64.224 48.573, 62 47.926 C 57.926 46.742, 57.750 46.819, 51.500 52.559 M 68.476 50.250 C 68.223 50.938, 69.266 55.365, 70.795 60.089 L 73.575 68.678 90.274 62.159 C 99.459 58.574, 106.828 55.494, 106.649 55.316 C 106.369 55.036, 70.818 49, 69.446 49 C 69.166 49, 68.730 49.563, 68.476 50.250 M 50.422 58.705 L 37.343 65.294 33.053 83.357 C 29.674 97.582, 27.980 108.224, 25.080 133.459 C 23.055 151.082, 21.725 165.639, 22.126 165.809 C 22.526 165.979, 32.944 162.016, 45.276 157.003 L 67.697 147.889 68.344 135.194 C 68.701 128.212, 68.973 116.650, 68.950 109.500 L 68.909 96.500 58.054 89.750 C 52.083 86.037, 46.781 83, 46.272 83 C 45.762 83, 44.549 92.112, 43.576 103.250 C 41.956 121.786, 41.070 126.403, 39.445 124.779 C 39.122 124.455, 38.456 117.960, 37.966 110.345 C 37.476 102.730, 36.848 93.673, 36.572 90.217 L 36.069 83.935 39.535 82.282 C 41.441 81.373, 43 80.008, 43 79.247 C 43 78.293, 43.658 78.074, 45.124 78.539 C 47.677 79.350, 68.940 71.321, 69.736 69.246 C 70.445 67.398, 65.752 51.997, 64.500 52.063 C 63.950 52.092, 57.615 55.081, 50.422 58.705 M 136.259 59.334 C 129.527 62.175, 124.014 64.822, 124.009 65.217 C 124.004 65.611, 126.035 68.225, 128.523 71.025 C 131.082 73.907, 132.740 76.612, 132.342 77.256 C 131.900 77.971, 129.556 76.096, 126.044 72.216 L 120.449 66.038 101.927 73.769 C 91.740 78.021, 83.274 81.885, 83.114 82.356 C 82.954 82.827, 86.351 86.137, 90.662 89.711 C 94.973 93.286, 98.623 96.533, 98.774 96.927 C 98.924 97.321, 97.893 100.254, 96.482 103.446 C 95.070 106.637, 94.047 109.354, 94.208 109.482 C 97.037 111.743, 143.255 140.078, 143.581 139.752 C 143.834 139.500, 144.144 136.288, 144.270 132.616 L 144.500 125.940 128.737 118.783 C 120.067 114.847, 113.317 111.320, 113.737 110.945 C 114.157 110.570, 122.263 108.759, 131.750 106.919 C 147.848 103.798, 149 103.428, 149 101.373 C 149 99.364, 148.350 99.110, 141.580 98.475 C 126.382 97.051, 126.449 97.834, 140.570 86.693 C 154.559 75.657, 154.528 75.720, 150.660 66.201 C 149.143 62.468, 148.590 59.747, 149.089 58.470 C 150.109 55.863, 150.178 53.980, 149.250 54.084 C 148.838 54.130, 142.992 56.493, 136.259 59.334 M 92 64.393 L 73.500 71.747 72.849 77.124 C 72.491 80.081, 72.154 85.425, 72.101 89 L 72.003 95.500 80.301 100.704 C 91.954 108.013, 91.484 107.955, 93.942 102.398 C 95.098 99.784, 95.697 97.348, 95.272 96.986 C 94.848 96.624, 90.525 93.023, 85.666 88.985 C 75.278 80.351, 73.599 82.487, 99 72.015 C 108.625 68.047, 116.863 64.460, 117.306 64.044 C 118.269 63.141, 113.327 56.992, 111.661 57.019 C 111.022 57.029, 102.175 60.348, 92 64.393 M 60.177 77.030 C 55.050 79.006, 50.978 81.045, 51.129 81.561 C 51.369 82.386, 67.504 93, 68.518 93 C 69.409 93, 70.095 86.069, 69.808 79.969 L 69.500 73.438 60.177 77.030 M 142.803 88.264 C 138.569 91.660, 135.213 94.547, 135.345 94.678 C 135.476 94.809, 138.802 95.301, 142.735 95.771 L 149.888 96.625 150.510 92.563 C 150.852 90.328, 151.377 87.037, 151.677 85.250 C 151.977 83.463, 151.835 82.020, 151.361 82.044 C 150.888 82.069, 147.036 84.868, 142.803 88.264 M 40.220 84.843 C 39.223 85.476, 39.138 87.733, 39.834 95.077 C 40.326 100.260, 40.817 103.150, 40.926 101.500 C 41.035 99.850, 41.451 95.237, 41.851 91.250 C 42.590 83.870, 42.474 83.412, 40.220 84.843 M 152 101.395 C 152 102.478, 152.799 102.609, 155.579 101.982 C 160.732 100.820, 160.975 100, 156.167 100 C 153.269 100, 152 100.425, 152 101.395 M 133.322 109.357 C 127.724 110.535, 122.885 111.763, 122.570 112.085 C 122.254 112.407, 127.226 115.016, 133.618 117.882 C 140.010 120.749, 145.424 122.909, 145.650 122.683 C 146.142 122.191, 147.986 111.233, 147.994 108.750 C 148.002 106.540, 146.376 106.608, 133.322 109.357 M 80.213 138.623 C 73.455 153.273, 68.066 165.399, 68.236 165.570 C 68.407 165.740, 73.908 162.542, 80.462 158.462 C 87.015 154.381, 92.561 151.228, 92.788 151.454 C 93.014 151.681, 94.392 155.654, 95.850 160.283 C 97.599 165.840, 99.629 169.981, 101.821 172.466 L 105.142 176.232 136.821 174.609 C 154.245 173.716, 170.188 172.989, 172.250 172.993 C 174.313 172.997, 176 172.570, 176 172.044 C 176 171.518, 172.141 162.339, 167.425 151.646 L 158.851 132.205 153.769 130.093 C 150.973 128.931, 148.547 128.120, 148.377 128.290 C 148.206 128.460, 147.489 132.287, 146.784 136.793 L 145.500 144.986 120 128.885 C 105.975 120.030, 94.050 112.605, 93.500 112.386 C 92.950 112.167, 86.971 123.974, 80.213 138.623" stroke="none" fill="black" fill-rule="evenodd"/>
</svg>