<svg xmlns="http://www.w3.org/2000/svg" width="200" height="200" viewBox="0 0 200 200" version="1.1">
	<path d="M 101.500 20.232 C 89.950 23.014, 80.343 25.419, 80.151 25.577 C 79.959 25.736, 80.746 29.889, 81.901 34.806 C 83.055 39.724, 84 43.988, 84 44.281 C 84 44.575, 81.560 44.969, 78.577 45.157 L 73.154 45.500 72.017 37.500 C 69.906 22.639, 69.738 21.887, 68.613 22.271 C 68.001 22.481, 56.813 25.081, 43.750 28.049 C 30.688 31.018, 20 33.691, 20 33.990 C 20 35.095, 63.674 49, 67.144 49 C 70.514 49, 70.776 49.231, 71.338 52.697 C 71.668 54.731, 71.772 56.562, 71.568 56.765 C 71.365 56.969, 63.166 58.719, 53.349 60.654 C 43.532 62.589, 35.359 64.312, 35.187 64.482 C 35.015 64.653, 40.302 75.013, 46.937 87.505 C 53.572 99.996, 59 110.393, 59 110.608 C 59 110.824, 52.220 111, 43.933 111 C 30.066 111, 28.904 111.139, 29.347 112.750 C 29.612 113.712, 30.829 120.350, 32.052 127.500 C 33.945 138.576, 34.984 141.921, 39.070 150.099 L 43.866 159.697 65.183 169.215 L 86.500 178.732 115.500 179.327 L 144.500 179.921 161.709 160.223 L 178.917 140.525 163.760 130.649 L 148.602 120.773 163.535 114.820 C 171.748 111.545, 178.670 108.664, 178.917 108.416 C 180.914 106.419, 174.233 106.329, 146.500 107.979 C 129.450 108.993, 115.174 109.513, 114.775 109.136 C 114.376 108.759, 115.505 106.026, 117.284 103.064 L 120.518 97.677 139.509 92.707 C 149.954 89.974, 158.654 87.605, 158.842 87.443 C 159.030 87.282, 157.568 76.812, 155.592 64.178 C 153.616 51.544, 152 40.336, 152 39.272 C 152 37.785, 154.368 36.272, 162.241 32.730 C 168.066 30.110, 171.839 27.903, 170.991 27.613 C 167.867 26.545, 123.801 15.004, 123.167 15.087 C 122.800 15.135, 113.050 17.451, 101.500 20.232 M 102.500 22.893 C 87.083 26.702, 83.525 27.900, 83.632 29.250 C 83.704 30.165, 84.523 34.014, 85.452 37.803 L 87.140 44.693 91.820 44.323 C 112.697 42.674, 122.620 42.279, 123.433 43.065 C 123.947 43.561, 124.124 44.210, 123.827 44.506 C 123.530 44.803, 115.910 47.590, 106.894 50.699 C 97.877 53.809, 90.358 56.453, 90.184 56.575 C 90.011 56.698, 90.356 58.607, 90.951 60.818 C 91.978 64.631, 92.406 64.979, 99.267 67.578 C 121.638 76.051, 123.497 76.892, 123.213 78.408 C 123.037 79.345, 123.914 80.191, 125.461 80.580 C 126.856 80.930, 130.760 82.692, 134.137 84.497 L 140.278 87.777 136.139 88.389 C 133.862 88.725, 130.235 89.259, 128.078 89.575 C 124.783 90.058, 122.036 92.369, 123.279 93.613 C 123.576 93.909, 155.074 85.995, 155.817 85.438 C 155.991 85.307, 154.382 74.089, 152.241 60.509 C 148.354 35.850, 148.351 35.817, 150.424 34.997 C 151.566 34.546, 155.200 32.957, 158.500 31.466 L 164.500 28.756 144.500 23.393 C 133.500 20.444, 123.825 18.069, 123 18.115 C 122.175 18.162, 112.950 20.312, 102.500 22.893 M 47 30.074 C 37.925 32.241, 30.096 34.145, 29.602 34.306 C 27.851 34.877, 62.848 46, 66.395 46 C 70.512 46, 70.382 46.598, 68.820 34.863 C 67.761 26.909, 67.428 26.007, 65.570 26.067 C 64.431 26.104, 56.075 27.907, 47 30.074 M 94.750 46.742 C 87.718 47.106, 86.980 47.772, 88.820 52.098 C 89.415 53.496, 90.877 53.224, 100.500 49.927 C 112.650 45.763, 112.734 45.810, 94.750 46.742 M 74.190 51.750 L 74.500 55.500 79.464 55.236 C 85.319 54.925, 86.479 54.044, 85.608 50.573 C 85.011 48.196, 84.539 48, 79.421 48 L 73.879 48 74.190 51.750 M 79.696 58.226 C 75.224 59.166, 74.928 59.417, 75.401 61.868 C 77 70.158, 79.268 91.066, 78.636 91.697 C 77.209 93.124, 76.417 89.983, 74.551 75.496 C 73.518 67.477, 72.366 60.726, 71.992 60.495 C 71.382 60.118, 39.877 65.842, 39.236 66.446 C 39.090 66.583, 44.576 77.226, 51.426 90.098 L 63.880 113.500 48.440 113.775 C 34.473 114.025, 33 114.219, 33 115.811 C 33 116.779, 33.937 122.700, 35.082 128.968 C 36.690 137.771, 38.150 142.329, 41.496 148.992 L 45.828 157.618 66.664 166.765 L 87.500 175.912 115.500 176.521 L 143.500 177.129 158.750 159.590 C 167.137 149.944, 173.998 141.702, 173.996 141.276 C 173.994 140.849, 167.040 136.001, 158.543 130.503 C 150.046 125.005, 143.410 120.248, 143.797 119.932 C 144.184 119.616, 149.625 117.364, 155.889 114.929 C 162.253 112.454, 166.463 110.339, 165.429 110.136 C 164.412 109.936, 154.337 110.291, 143.040 110.925 C 131.743 111.558, 120.147 112.118, 117.272 112.169 L 112.044 112.260 108.896 117.838 L 105.748 123.416 107.168 129.458 L 108.588 135.500 113.294 135.258 C 115.882 135.124, 118 135.375, 118 135.816 C 118 136.256, 116.215 137.940, 114.034 139.558 C 111.684 141.301, 110.239 143.111, 110.489 144 C 112.488 151.127, 113.142 155.252, 112.385 155.974 C 111.898 156.438, 104.324 159.110, 95.552 161.911 C 84.472 165.450, 79.286 166.686, 78.561 165.961 C 77.835 165.235, 77.846 164.701, 78.596 164.208 C 84.133 160.575, 107 141.348, 107 140.325 C 107 139.278, 103.533 139, 90.500 139 C 80.380 139, 74 138.621, 74 138.019 C 74 136.888, 75.117 136.578, 87.973 134.146 L 97.446 132.354 100.148 127.754 L 102.851 123.154 99.279 108.490 L 95.707 93.826 88.604 94.615 C 78.829 95.699, 75.548 95.671, 75.217 94.500 C 75.062 93.950, 79.380 92.470, 84.812 91.212 L 94.689 88.924 90.995 73.212 C 88.472 62.479, 86.857 57.455, 85.900 57.358 C 85.130 57.280, 82.338 57.670, 79.696 58.226 M 93.312 71.081 C 93.660 72.412, 94.721 76.787, 95.668 80.805 L 97.392 88.110 100.946 87.497 C 102.901 87.160, 108.715 85.898, 113.867 84.692 L 123.235 82.500 109.424 76.145 C 91.279 67.794, 92.556 68.196, 93.312 71.081 M 116 87.039 L 108.500 88.884 115 88.326 C 118.575 88.018, 122.159 87.144, 122.964 86.383 C 123.770 85.623, 124.220 85.044, 123.964 85.097 C 123.709 85.150, 120.125 86.024, 116 87.039 M 127 86 C 127 86.550, 127.675 87, 128.500 87 C 129.325 87, 130 86.550, 130 86 C 130 85.450, 129.325 85, 128.500 85 C 127.675 85, 127 85.450, 127 86 M 106.146 92.241 L 98.793 93.213 99.407 96.284 C 99.744 97.972, 100.173 99.506, 100.359 99.692 C 100.544 99.878, 104.591 98.996, 109.352 97.732 C 115.454 96.112, 118.466 94.780, 119.561 93.217 C 121.086 91.040, 121.045 91.002, 117.307 91.134 C 115.213 91.208, 110.191 91.706, 106.146 92.241 M 108.258 100.848 L 103.015 102.500 106.956 104.750 C 109.123 105.987, 111.100 107, 111.349 107 C 111.823 107, 116 100.213, 116 99.443 C 116 98.706, 113.768 99.111, 108.258 100.848 M 102.828 111.500 C 103.683 115.075, 104.738 118, 105.171 118 C 105.978 118, 110.398 109.991, 109.820 109.577 C 108.334 108.510, 102.158 105, 101.768 105 C 101.496 105, 101.973 107.925, 102.828 111.500 M 101.680 130.544 C 100.757 132.480, 98.989 134.471, 97.751 134.968 C 95.958 135.689, 96.546 135.886, 100.644 135.937 L 105.787 136 104.839 131.779 C 104.317 129.457, 103.771 127.437, 103.624 127.291 C 103.478 127.145, 102.603 128.609, 101.680 130.544 M 96.438 153.574 C 90.422 158.334, 86.422 161.950, 87.549 161.610 C 88.676 161.271, 94.076 159.480, 99.549 157.631 L 109.500 154.270 109.229 151.009 C 108.667 144.247, 108.078 144.365, 96.438 153.574" stroke="none" fill="black" fill-rule="evenodd"/>
</svg>