<svg xmlns="http://www.w3.org/2000/svg" width="200" height="200" viewBox="0 0 200 200" version="1.1">
	<path d="M 117 17.024 C 113.975 18.050, 105.517 20.769, 98.204 23.065 C 90.891 25.362, 85.180 27.513, 85.513 27.846 C 85.846 28.179, 88.559 29.362, 91.543 30.476 C 94.527 31.589, 97.088 32.805, 97.234 33.178 C 97.454 33.738, 75.613 50, 74.640 50 C 74.472 50, 75.162 44.304, 76.176 37.342 C 77.189 30.381, 77.901 24.584, 77.759 24.460 C 77.430 24.175, 28.242 55.358, 26.896 56.704 C 26.229 57.371, 26.892 61.670, 28.884 69.602 C 36.142 98.496, 44.230 137.334, 47.501 159 C 51.875 187.974, 51.658 187.008, 53.769 186.964 C 54.721 186.944, 67.738 184.131, 82.695 180.714 L 109.891 174.500 132.195 175.603 C 144.463 176.210, 154.725 176.591, 155 176.450 C 155.275 176.308, 154.994 163.662, 154.375 148.346 L 153.251 120.500 161.160 100.337 L 169.070 80.175 169.285 63.359 L 169.500 46.544 166 44.886 C 164.075 43.975, 152.490 38.626, 140.256 33.001 L 118.012 22.774 122.044 19.853 C 124.262 18.247, 125.807 16.498, 125.479 15.966 C 124.681 14.675, 123.484 14.824, 117 17.024 M 102.500 24.495 C 91.648 28.063, 91.809 27.682, 99.931 30.568 C 101.102 30.984, 115 22.470, 115 21.337 C 115 20.607, 112.095 21.341, 102.500 24.495 M 109.539 28.688 L 104.578 32.326 108.039 33.520 C 116.686 36.504, 116 36.758, 116 30.567 C 116 27.505, 115.662 25.011, 115.250 25.025 C 114.838 25.038, 112.268 26.687, 109.539 28.688 M 119 32.259 L 119 37.518 125.750 39.903 C 141.219 45.368, 143 46.171, 143 47.679 C 143 48.738, 142.458 48.999, 141.250 48.520 C 135.401 46.202, 120.619 41, 119.881 41 C 119.396 41, 119 44.375, 119 48.500 L 119 56 128.583 56 C 135.804 56, 138.065 56.308, 137.754 57.250 C 137.481 58.076, 134.148 58.689, 127.920 59.059 C 120.223 59.515, 119.620 59.652, 124.625 59.809 C 127.994 59.914, 132.196 60.289, 133.962 60.642 L 137.175 61.285 128.361 70.139 L 119.548 78.994 126.040 85.747 C 137.996 98.183, 139.441 99.959, 138.428 100.972 C 137.599 101.801, 131.800 97.901, 120.250 88.746 C 119.268 87.968, 119 89.818, 119 97.378 L 119 107 123.750 107.007 C 126.362 107.011, 131.537 107.301, 135.250 107.652 C 143.813 108.460, 144.255 110.398, 136.250 112.031 C 133.088 112.675, 128.025 113.754, 125 114.428 L 119.500 115.653 119.210 123.826 C 118.967 130.646, 119.174 132, 120.460 132 C 121.307 132, 122 132.675, 122 133.500 C 122 134.325, 121.325 135, 120.500 135 C 119.291 135, 119 136.563, 119 143.071 L 119 151.142 104.750 157.988 L 90.500 164.834 89.424 161.667 C 88.832 159.925, 86.830 152.573, 84.975 145.328 L 81.603 132.157 72.051 131.531 C 58.765 130.661, 55 130.016, 55 128.609 C 55 127.833, 66.017 124.907, 85.500 120.508 C 114.083 114.055, 116 113.485, 116 111.439 C 116 109.305, 115.611 109.240, 98.750 108.584 C 89.263 108.215, 79.635 107.664, 77.356 107.359 L 73.212 106.805 67.997 94.494 C 63.558 84.013, 61.808 81.115, 56.228 75.001 C 52.621 71.049, 50.118 67.523, 50.661 67.160 C 59.921 60.971, 71.056 52.357, 71.408 51.110 C 72.216 48.242, 74.302 30.969, 73.890 30.557 C 73.525 30.192, 31.558 56.207, 29.700 57.950 C 29.259 58.363, 30.464 64.956, 32.376 72.600 C 39.831 102.400, 47.124 137.531, 50.508 159.940 C 52.454 172.832, 54.229 183.563, 54.453 183.786 C 54.676 184.010, 67.153 181.380, 82.180 177.942 L 109.500 171.692 131 172.735 C 142.825 173.309, 152.527 173.716, 152.561 173.639 C 152.594 173.563, 152.185 161.320, 151.650 146.433 L 150.679 119.365 158.840 98.603 L 167 77.840 167 63.065 L 167 48.290 143.748 37.645 C 130.959 31.790, 120.159 27, 119.748 27 C 119.337 27, 119 29.367, 119 32.259 M 88.006 43.871 C 80.546 49.237, 74.352 54.411, 74.153 55.444 C 73.817 57.189, 74.346 57.269, 82.147 56.662 C 86.741 56.305, 96.237 56.009, 103.250 56.006 L 116 56 116 47.592 L 116 39.184 110.250 37.200 C 107.088 36.109, 103.825 34.980, 103 34.691 C 102.117 34.383, 95.945 38.162, 88.006 43.871 M 60.226 63.645 L 53.952 68.152 56.877 71.826 C 58.485 73.847, 60.858 76.479, 62.150 77.675 C 64.475 79.826, 64.525 79.829, 66.849 77.934 C 69.017 76.167, 69.144 75.547, 68.492 69.932 C 67.135 58.236, 67.437 58.465, 60.226 63.645 M 110.762 59.707 C 112.006 59.946, 113.806 59.937, 114.762 59.687 C 115.718 59.437, 114.700 59.241, 112.500 59.252 C 110.300 59.263, 109.518 59.468, 110.762 59.707 M 70.502 64.644 C 72.119 74.501, 71.921 74.098, 74.358 72.501 C 76.317 71.218, 78.377 71.335, 92.396 73.531 C 106.680 75.767, 108.603 76.309, 112.112 79.089 L 116 82.168 116 72.651 C 116 64.441, 115.760 63.067, 114.250 62.644 C 113.287 62.375, 102.908 61.847, 91.185 61.471 L 69.870 60.788 70.502 64.644 M 119 69.219 L 119 75.437 125 69.500 C 128.300 66.234, 131 63.436, 131 63.281 C 131 63.127, 128.300 63, 125 63 L 119 63 119 69.219 M 74.404 75.535 C 72.240 77.088, 72.251 78.804, 74.507 91.463 L 75.035 94.427 71.537 91.036 L 68.038 87.645 71.689 96.208 L 75.340 104.771 92.920 105.434 C 102.589 105.798, 111.737 106.336, 113.250 106.628 L 116 107.159 116 96.201 L 116 85.244 110.750 81.729 C 106.166 78.660, 104.040 78.004, 94 76.562 C 87.675 75.653, 81.150 74.712, 79.500 74.471 C 77.769 74.218, 75.613 74.668, 74.404 75.535 M 67.975 80.530 C 66.870 81.862, 67.008 82.452, 68.857 84.301 L 71.049 86.493 70.381 82.997 C 69.544 78.617, 69.554 78.627, 67.975 80.530 M 119 83.812 C 119 84.259, 120.463 85.677, 122.250 86.963 L 125.500 89.303 122.563 86.151 C 119.450 82.811, 119 82.516, 119 83.812 M 119 111.475 C 119 112.604, 119.763 112.800, 122.250 112.311 C 129.886 110.809, 130.600 110.173, 124.750 110.086 C 120.310 110.020, 119 110.336, 119 111.475 M 99 120.186 C 91.575 121.856, 85.159 123.535, 84.743 123.918 C 84.327 124.301, 91.226 126.089, 100.075 127.892 C 108.924 129.695, 116.343 130.991, 116.562 130.772 C 116.781 130.553, 116.679 127.365, 116.335 123.687 C 115.844 118.427, 115.368 117.016, 114.105 117.075 C 113.222 117.116, 106.425 118.516, 99 120.186 M 71.500 126.430 C 67.123 127.473, 66.812 127.706, 69 128.297 C 70.375 128.669, 73.595 128.979, 76.156 128.986 C 80.323 128.999, 80.758 128.790, 80.290 127 C 79.707 124.773, 78.719 124.708, 71.500 126.430 M 83.245 128.250 C 83.496 129.011, 85.779 129.577, 89.079 129.696 L 94.500 129.892 89 128.488 C 85.975 127.716, 83.350 127.066, 83.167 127.042 C 82.983 127.019, 83.019 127.563, 83.245 128.250 M 85 133.372 C 85 134.821, 91.161 158.356, 91.871 159.620 C 92.286 160.358, 96.676 158.761, 104.750 154.936 L 117 149.134 117 142.067 C 117 138.180, 116.888 134.972, 116.750 134.939 C 113.288 134.089, 85 132.694, 85 133.372" stroke="none" fill="black" fill-rule="evenodd"/>
</svg>