<svg xmlns="http://www.w3.org/2000/svg" width="200" height="200" viewBox="0 0 200 200" version="1.1">
	<path d="M 131.954 22.181 C 127.601 24.178, 126.330 24.213, 75.804 23.695 L 24.107 23.166 23.081 28.333 C 22.516 31.175, 19.778 46.446, 16.995 62.268 L 11.937 91.036 16.107 128.768 C 18.401 149.521, 20.418 166.665, 20.588 166.866 C 20.758 167.067, 30.483 159.393, 42.199 149.813 C 60.760 134.635, 65.909 131.019, 82.228 121.697 C 92.528 115.814, 101.176 111, 101.445 111 C 101.715 111, 93.738 118.730, 83.718 128.178 C 73.698 137.626, 65.364 145.685, 65.197 146.087 C 65.030 146.489, 67.869 150.886, 71.505 155.859 L 78.117 164.901 105.280 179.200 C 120.219 187.065, 132.711 193.623, 133.040 193.773 C 133.597 194.027, 175.376 150.285, 179.255 145.388 L 181.009 143.173 164.005 133.357 C 154.652 127.958, 147 123.099, 147 122.560 C 147 122.020, 148.012 118.949, 149.250 115.736 L 151.500 109.893 164.750 105.745 C 172.037 103.464, 178 101.342, 178 101.029 C 178 100.716, 173.994 97.459, 169.098 93.792 L 160.196 87.124 170.636 59.883 C 176.379 44.899, 180.804 31.935, 180.471 31.071 C 179.944 29.704, 179.733 29.737, 178.841 31.326 C 175.556 37.178, 155.385 86.994, 156.024 87.677 C 157.065 88.790, 150.349 106.180, 148.271 107.750 C 144.220 110.812, 143.618 109.690, 140.090 92.500 C 138.228 83.425, 136.305 76, 135.816 76 C 135.327 76, 125.231 78.062, 113.380 80.583 C 101.529 83.103, 91.660 84.994, 91.450 84.784 C 91.240 84.573, 91.823 80.036, 92.746 74.701 C 94.351 65.418, 94.533 65, 96.962 65.006 C 98.358 65.010, 110.075 66.357, 123 68 C 135.925 69.643, 147.550 70.990, 148.833 70.994 C 152.876 71.004, 150.630 68.653, 145.432 67.432 C 114.486 60.166, 77.097 50.519, 77.717 49.961 C 78.147 49.573, 83.855 46.852, 90.399 43.913 L 102.299 38.570 111.425 41.766 L 120.551 44.962 131.515 41.996 C 145.413 38.236, 145.573 38.173, 144.328 36.928 C 143.653 36.253, 139.578 36.940, 131.946 39.015 C 121.120 41.958, 120.376 42.035, 116.535 40.595 C 105.452 36.442, 105.006 37.085, 121.500 33.437 C 129.750 31.612, 137.440 30.092, 138.589 30.059 C 140.387 30.008, 146.844 37.668, 153.208 47.400 C 153.708 48.164, 154.229 48.171, 154.979 47.421 C 155.728 46.672, 154.118 43.810, 149.510 37.701 L 142.980 29.043 145.740 28.429 C 151.243 27.203, 152 26.841, 152 25.433 C 152 24.337, 150.483 24, 145.557 24 C 140.324 24, 138.859 23.637, 137.761 22.069 C 136.427 20.165, 136.346 20.166, 131.954 22.181 M 20.581 57.967 L 14.737 91.099 18.433 124.799 C 20.466 143.335, 22.350 159.271, 22.620 160.213 C 23.003 161.549, 27.398 158.406, 42.550 145.959 C 60.517 131.200, 63.787 128.975, 85.755 116.556 C 98.827 109.166, 110.305 102.820, 111.261 102.453 C 116.238 100.543, 110.973 106.406, 90.588 125.474 L 68.175 146.437 70.290 149.469 C 79.721 162.988, 78.264 161.888, 105.991 176.438 C 120.205 183.897, 132.255 190, 132.767 190 C 133.659 190, 175.265 146.434, 176.098 144.628 C 176.611 143.516, 147.955 126.866, 146.153 127.229 C 145.400 127.381, 140.374 139.093, 134.752 153.799 C 129.222 168.263, 124.339 179.738, 123.901 179.299 C 122.429 177.823, 108.972 136.627, 109.741 135.950 C 110.158 135.582, 117.475 133.149, 126 130.542 C 134.525 127.936, 141.862 125.463, 142.305 125.046 C 142.748 124.630, 139.711 122.344, 135.555 119.966 C 131.400 117.589, 128 115.340, 128 114.970 C 128 114.600, 130.959 113.496, 134.575 112.517 C 140.390 110.943, 141.093 110.492, 140.654 108.619 C 140.381 107.453, 138.917 100.425, 137.401 93 C 135.885 85.575, 134.576 79.389, 134.491 79.252 C 134.347 79.019, 90.615 88.048, 90.398 88.356 C 90.342 88.435, 89.424 93.672, 88.358 99.994 C 86.931 108.453, 86.015 111.566, 84.888 111.783 C 83.699 112.012, 82.938 109.948, 81.479 102.525 C 80.446 97.271, 79.303 92.490, 78.939 91.901 C 78.351 90.949, 71.757 92.001, 56.306 95.512 C 54.589 95.902, 53.620 97.586, 51.848 103.255 C 50.602 107.240, 49.484 110.656, 49.362 110.846 C 48.984 111.437, 29 99.835, 29 99.024 C 29 98.604, 34.175 97.243, 40.500 96 C 46.825 94.757, 52 93.630, 52 93.496 C 52 93.361, 54.465 85.235, 57.478 75.437 C 60.490 65.639, 62.763 57.430, 62.528 57.195 C 62.294 56.960, 54.766 60.129, 45.801 64.236 C 36.835 68.343, 29.379 71.612, 29.231 71.500 C 28.598 71.020, 42.987 42, 43.859 42 C 44.388 42, 49.175 43.159, 54.495 44.575 C 59.815 45.991, 64.736 46.932, 65.429 46.666 C 66.122 46.400, 67.271 44.103, 67.983 41.562 C 68.694 39.022, 69.500 37.167, 69.774 37.441 C 70.048 37.715, 70.788 40.225, 71.417 43.019 C 72.046 45.813, 72.910 48.134, 73.337 48.176 C 75.057 48.347, 97.874 37.595, 97.694 36.698 C 97.587 36.167, 99.750 35.189, 102.500 34.526 C 105.250 33.863, 110.425 31.978, 114 30.336 L 120.500 27.350 76.500 26.637 C 52.300 26.244, 31.133 25.678, 29.463 25.379 L 26.426 24.835 20.581 57.967 M 123.500 29.041 C 119.214 31.068, 120.180 31.004, 130.500 28.577 L 136.500 27.167 132 27.157 C 129.525 27.152, 125.700 28, 123.500 29.041 M 39.737 55.121 C 37.136 60.742, 35.119 65.447, 35.254 65.577 C 35.525 65.837, 61.751 53.974, 63.750 52.687 C 64.438 52.244, 65 51.508, 65 51.051 C 65 50.349, 57.054 47.902, 46.983 45.500 C 44.617 44.936, 44.180 45.516, 39.737 55.121 M 68.086 53.926 C 66.927 54.660, 54.616 91.949, 55.305 92.639 C 55.659 92.993, 77.121 88.212, 77.678 87.655 C 77.965 87.369, 76.579 79.701, 74.600 70.616 C 72.620 61.531, 71 53.851, 71 53.549 C 71 52.739, 69.694 52.908, 68.086 53.926 M 74.034 54.125 C 74.089 56.393, 80.734 86.068, 81.318 86.651 C 81.614 86.948, 83.197 86.896, 84.835 86.536 C 88.147 85.809, 87.991 86.215, 90.527 71.750 L 92.236 62 95.368 62.032 C 97.091 62.049, 103.225 62.710, 109 63.500 C 114.775 64.290, 119.950 64.919, 120.500 64.898 C 121.391 64.864, 83.650 54.917, 76.750 53.368 C 74.777 52.924, 74.009 53.138, 74.034 54.125 M 83.750 89.689 C 81.755 90.211, 81.705 91.493, 83.406 98.500 L 84.621 103.500 85.810 98.201 C 87.175 92.120, 87.329 88.949, 86.250 89.116 C 85.838 89.180, 84.713 89.438, 83.750 89.689 M 156.210 97.725 C 154.572 102.001, 153.363 105.646, 153.523 105.824 C 154.213 106.590, 172.026 100.579, 171.727 99.681 C 171.545 99.135, 168.649 96.723, 165.292 94.319 L 159.188 89.950 156.210 97.725 M 42.319 98.362 C 39.470 98.988, 36.895 99.750, 36.597 100.055 C 36.299 100.361, 38.581 102.061, 41.667 103.833 C 44.753 105.606, 47.438 106.895, 47.635 106.698 C 47.832 106.501, 48.626 104.238, 49.399 101.670 C 51.011 96.312, 51.217 96.408, 42.319 98.362 M 145.677 111.772 C 144.540 112.023, 144.069 112.738, 144.427 113.669 C 144.742 114.491, 145.018 115.914, 145.039 116.832 C 145.061 117.749, 145.743 116.969, 146.554 115.099 C 148.215 111.272, 148.200 111.213, 145.677 111.772 M 137.500 114.439 L 133.500 115.575 137.962 118.242 C 140.416 119.709, 142.560 120.773, 142.727 120.606 C 142.895 120.439, 142.687 118.727, 142.266 116.802 L 141.500 113.303 137.500 114.439 M 126.500 133.226 C 119.350 135.465, 113.292 137.476, 113.037 137.695 C 112.782 137.914, 115.210 146.047, 118.433 155.768 C 122.706 168.657, 124.492 172.909, 125.031 171.471 C 125.438 170.387, 129.197 160.579, 133.385 149.675 C 137.573 138.771, 141 129.659, 141 129.425 C 141 128.732, 140.088 128.971, 126.500 133.226" stroke="none" fill="black" fill-rule="evenodd"/>
</svg>