<svg xmlns="http://www.w3.org/2000/svg" width="200" height="200" viewBox="0 0 200 200" version="1.1">
	<path d="M 66 23.829 L 50.500 36.605 50.200 49.108 L 49.901 61.612 55.027 64.013 C 61.232 66.919, 62.522 65.725, 39.272 78.584 C 29.702 83.876, 22.036 88.369, 22.234 88.568 C 22.433 88.767, 29.729 89.613, 38.448 90.448 C 47.167 91.283, 54.395 92.087, 54.511 92.233 C 54.627 92.380, 46.740 103.525, 36.983 117 C 27.227 130.475, 19.555 141.622, 19.934 141.771 C 20.313 141.919, 26.843 139.317, 34.446 135.988 C 42.048 132.659, 48.391 130.062, 48.542 130.217 C 48.693 130.373, 49.303 141.483, 49.898 154.907 C 50.493 168.330, 51.195 179.528, 51.458 179.791 C 51.721 180.054, 61.579 178.858, 73.365 177.134 C 85.151 175.410, 96.378 174, 98.314 174 C 100.413 174, 104.496 175.412, 108.431 177.500 C 112.060 179.425, 115.247 181, 115.514 181 C 115.781 181, 116 180.070, 116 178.933 C 116 177.434, 116.482 177.007, 117.750 177.380 C 121.472 178.475, 143.229 182.105, 143.635 181.698 C 143.871 181.462, 145.375 169.908, 146.978 156.022 C 148.580 142.136, 150.097 130.570, 150.348 130.319 C 150.599 130.068, 159.061 127.370, 169.152 124.323 C 179.243 121.276, 187.802 118.494, 188.172 118.142 C 188.542 117.789, 178.338 111.879, 165.498 105.008 C 152.657 98.137, 142.326 92.340, 142.541 92.126 C 142.755 91.911, 151.384 90.458, 161.715 88.897 C 187.201 85.045, 187 85.088, 187 83.565 C 187 82.556, 184.070 82.044, 175.250 81.510 C 168.787 81.119, 155.400 80.282, 145.500 79.650 L 127.500 78.500 136.500 72.171 C 141.450 68.690, 149 63.830, 153.278 61.371 C 157.867 58.733, 160.783 56.458, 160.390 55.822 C 159.722 54.741, 122.871 55.360, 111.250 56.648 C 108.362 56.969, 106.001 56.841, 106.003 56.365 C 106.005 55.889, 114.218 52.608, 124.253 49.074 C 139.301 43.774, 170.294 30.977, 171.933 29.387 C 172.172 29.156, 171.947 28.547, 171.433 28.033 C 170.665 27.265, 126.771 33.333, 117.230 35.526 C 115.407 35.945, 113.045 34.229, 105.230 26.806 C 99.879 21.723, 93.982 16.200, 92.126 14.532 L 88.752 11.500 89.370 18 L 89.987 24.500 86.480 17.750 C 84.551 14.037, 82.641 11.012, 82.236 11.026 C 81.831 11.040, 74.525 16.801, 66 23.829 M 67 26.383 L 53.500 37.630 53.218 48.784 L 52.935 59.938 58.968 62.984 C 62.285 64.658, 64.995 66.360, 64.989 66.764 C 64.984 67.169, 57.241 71.761, 47.785 76.968 C 28.080 87.819, 28.062 87.198, 48.122 88.508 C 54.105 88.899, 59 89.644, 59 90.164 C 59 90.684, 51.811 101.071, 43.024 113.246 C 34.237 125.420, 27.195 135.528, 27.375 135.708 C 27.554 135.888, 32.768 133.777, 38.961 131.017 C 45.154 128.258, 50.569 126, 50.993 126 C 51.417 126, 52.096 137.285, 52.502 151.077 C 53.012 168.397, 53.595 176.291, 54.386 176.595 C 55.482 177.015, 94.886 171.447, 95.556 170.777 C 95.734 170.599, 91.359 168.004, 85.834 165.010 C 70.962 156.950, 71.787 158.490, 77.448 149.358 C 80.127 145.036, 83.094 140.150, 84.041 138.500 L 85.762 135.500 77.378 116.586 C 72.767 106.184, 69.108 97.585, 69.247 97.477 C 69.386 97.369, 76.649 99.256, 85.386 101.671 C 94.123 104.086, 101.479 105.854, 101.733 105.600 C 102.368 104.966, 99.898 86.685, 99.049 85.733 C 98.673 85.311, 94.683 84.682, 90.183 84.335 C 83.936 83.853, 82 83.356, 82 82.234 C 82 80.999, 83.375 80.878, 90.598 81.480 C 98.663 82.151, 99.164 82.081, 98.668 80.348 C 98.376 79.332, 97.593 74.338, 96.927 69.250 C 96.072 62.719, 95.317 60, 94.358 60 C 92.779 60, 92.505 57.332, 94.031 56.823 C 94.716 56.595, 94.516 52.806, 93.436 45.531 C 92.048 36.192, 91.087 33.145, 86.896 24.792 C 84.193 19.406, 81.648 15.031, 81.241 15.068 C 80.833 15.105, 74.425 20.197, 67 26.383 M 93.495 26.750 C 94.521 33.634, 99.218 45.054, 103.798 51.802 C 104.491 52.822, 108.746 51.663, 123.449 46.452 C 142.351 39.752, 160.781 32.060, 158 32.032 C 157.175 32.024, 148.175 33.330, 138 34.934 C 127.825 36.539, 118.270 37.997, 116.767 38.176 C 114.494 38.445, 112.276 36.859, 103.592 28.750 C 97.849 23.387, 92.968 19, 92.745 19 C 92.522 19, 92.860 22.487, 93.495 26.750 M 96.601 48 C 97.380 54.195, 97.710 55, 99.469 55 C 101.574 55, 101.329 53.274, 98.472 48 L 96.035 43.500 96.601 48 M 119.750 58.747 C 113.287 58.921, 108 59.281, 108 59.546 C 108 59.811, 110.925 65.866, 114.500 73 C 118.075 80.134, 121 86.247, 121 86.584 C 121 86.921, 118.300 86.883, 115 86.500 C 111.700 86.117, 109 86.163, 109 86.603 C 109 87.043, 111.063 92.974, 113.585 99.783 C 116.107 106.592, 117.917 112.417, 117.606 112.727 C 117.296 113.037, 114.558 112.584, 111.521 111.720 C 108.485 110.856, 105.997 110.453, 105.993 110.825 C 105.975 112.636, 115.248 173.556, 115.597 173.916 C 116.079 174.415, 141.253 179.106, 141.527 178.748 C 141.632 178.612, 142.988 167.140, 144.540 153.255 L 147.362 128.011 155.431 125.573 C 159.869 124.232, 167.670 121.897, 172.767 120.384 C 177.863 118.871, 181.688 117.314, 181.267 116.924 C 180.845 116.533, 171.950 111.621, 161.500 106.008 C 138.905 93.872, 133.732 90.935, 134.174 90.492 C 134.357 90.310, 142.933 88.915, 153.232 87.393 C 163.531 85.870, 171.843 84.510, 171.703 84.370 C 171.563 84.230, 160.210 83.388, 146.474 82.500 C 132.738 81.612, 121.159 80.797, 120.742 80.690 C 119.763 80.438, 140.742 65.478, 147.962 61.280 L 153.500 58.061 142.500 58.245 C 136.450 58.347, 126.213 58.573, 119.750 58.747 M 99.227 62.250 C 100.028 63.487, 102.166 68.662, 103.979 73.750 C 106.421 80.605, 107.724 83, 109.012 83 C 109.968 83, 112.191 83.288, 113.953 83.641 L 117.156 84.281 111.071 72.141 L 104.985 60 101.377 60 C 97.871 60, 97.811 60.063, 99.227 62.250 M 101.067 77.500 C 101.027 80.773, 102.488 83.845, 103.570 82.764 C 103.943 82.391, 103.540 80.379, 102.676 78.293 L 101.103 74.500 101.067 77.500 M 102.298 87.250 C 102.582 88.487, 103.379 93.441, 104.069 98.258 L 105.325 107.017 109.169 108.169 C 111.283 108.802, 113.212 109.122, 113.455 108.878 C 114.157 108.177, 105.933 86.580, 104.653 85.765 C 102.584 84.447, 101.774 84.958, 102.298 87.250 M 75.374 105.250 C 76.145 107.037, 78.451 112.325, 80.500 117 C 82.549 121.675, 84.881 127.024, 85.683 128.887 L 87.142 132.275 94.645 121.045 C 98.772 114.869, 101.939 109.606, 101.683 109.350 C 101.071 108.738, 76.873 102.021, 75.237 102.009 C 74.247 102.002, 74.277 102.705, 75.374 105.250 M 91.227 132.285 C 85.027 142.303, 79.080 151.869, 78.011 153.541 L 76.068 156.583 90.284 164.341 C 104.426 172.059, 111.974 174.941, 112.026 172.644 C 112.091 169.797, 103.553 114.004, 103.058 114.035 C 102.751 114.055, 97.427 122.267, 91.227 132.285" stroke="none" fill="black" fill-rule="evenodd"/>
</svg>