<svg xmlns="http://www.w3.org/2000/svg" width="200" height="200" viewBox="0 0 200 200" version="1.1">
	<path d="M 124.500 22.014 C 112.504 24.315, 104.358 25.456, 104.146 24.864 C 103.951 24.319, 103.037 24.561, 102.104 25.406 C 98.629 28.551, 90.585 28.356, 65.652 24.526 C 52.536 22.511, 41.551 21.116, 41.241 21.426 C 40.726 21.941, 42.184 57.990, 43.655 81.108 L 44.266 90.717 50.883 89.482 C 54.522 88.802, 63.462 87.227, 70.750 85.980 C 80.768 84.266, 84 83.352, 84 82.232 C 84 81.150, 83.258 80.897, 81.250 81.296 C 66.866 84.149, 47.759 87.093, 47.207 86.541 C 46.432 85.765, 43.402 25.264, 44.104 24.563 C 44.352 24.315, 54.218 25.595, 66.027 27.407 C 90.079 31.098, 89.806 30.541, 69.750 34.998 C 56.335 37.979, 56.857 39.307, 72.250 41.366 C 78.987 42.268, 84.883 43.004, 85.352 43.003 C 85.821 43.001, 80.308 49.285, 73.102 56.966 C 65.896 64.648, 60 71.317, 60 71.787 C 60 72.256, 65.513 73.202, 72.250 73.889 C 90.491 75.747, 92.933 76.158, 92.707 77.331 C 92.559 78.094, 126.634 89.391, 137 92.016 C 137.275 92.086, 131.875 93.705, 125 95.614 L 112.500 99.085 78 97.926 C 44.425 96.799, 43.366 96.821, 38.500 98.764 C 29.872 102.209, 31.242 103.579, 44.701 104.968 C 64.266 106.987, 63.802 104.231, 48.578 128 L 35.448 148.500 29.628 166.321 C 26.427 176.122, 23.970 184.303, 24.169 184.502 C 24.367 184.700, 34.117 177.665, 45.836 168.867 L 67.141 152.871 70.321 155.309 C 72.069 156.649, 81.375 164.146, 91 171.967 L 108.500 186.187 118 185.628 C 123.225 185.321, 139.105 184.521, 153.288 183.851 C 172.296 182.953, 179 182.318, 178.788 181.436 C 178.630 180.778, 174.416 175.573, 169.424 169.870 L 160.348 159.500 136.178 153.037 C 122.885 149.483, 112.569 146.274, 113.254 145.905 C 113.939 145.537, 127.100 141.539, 142.500 137.021 C 157.900 132.502, 170.946 128.381, 171.492 127.861 C 173.292 126.147, 170.317 125.415, 152.242 123.125 C 142.484 121.889, 133.713 120.650, 132.750 120.371 C 131.319 119.958, 131 118.702, 131 113.494 L 131 107.123 135.250 106.581 C 137.588 106.283, 151.650 105.243, 166.500 104.269 L 193.500 102.500 178.397 92.165 L 163.294 81.830 162.647 71.260 C 162.291 65.446, 162 56.226, 162 50.771 C 162 42.062, 161.797 40.893, 160.338 41.177 C 159.095 41.418, 157.705 45.288, 154.836 56.500 C 152.724 64.750, 150.883 71.842, 150.745 72.260 C 150.607 72.678, 148.769 71.848, 146.662 70.417 C 143.297 68.130, 139.046 67.216, 111.710 62.907 C 94.593 60.208, 80.006 58, 79.294 58 C 78.582 58, 78 58.576, 78 59.280 C 78 60.035, 86.382 63.622, 98.425 68.021 C 109.659 72.125, 118.712 75.621, 118.544 75.790 C 118.185 76.148, 70.620 71.183, 67.147 70.424 C 64.548 69.856, 63.458 71.242, 82.295 51.149 L 89.186 43.798 99.097 45.061 C 104.549 45.756, 109.226 46.108, 109.491 45.843 C 109.756 45.578, 109.058 42.060, 107.940 38.027 C 106.822 33.993, 106.266 30.385, 106.704 30.009 C 107.382 29.427, 121.362 26.206, 141.750 21.934 C 145.096 21.233, 147 20.320, 147 19.417 C 147 17.619, 148.044 17.498, 124.500 22.014 M 96.196 35.995 C 93.828 38.646, 92.253 41.022, 92.696 41.276 C 93.138 41.530, 96.313 42.044, 99.750 42.418 C 106.794 43.186, 106.778 43.207, 104.626 36 C 103.887 33.525, 102.656 31.427, 101.891 31.337 C 101.126 31.248, 98.563 33.344, 96.196 35.995 M 82.750 34.824 C 76.287 36.268, 71 37.718, 71 38.045 C 71 38.373, 74.713 39.109, 79.250 39.681 L 87.500 40.722 91.987 36.361 C 94.455 33.963, 96.030 32.045, 95.487 32.099 C 94.944 32.154, 89.213 33.380, 82.750 34.824 M 156 63 C 154.625 68.775, 153.500 73.856, 153.500 74.290 C 153.500 74.725, 154.963 76.007, 156.750 77.139 L 160 79.196 159.901 71.348 C 159.847 67.032, 159.509 61.025, 159.151 58 L 158.500 52.500 156 63 M 111.500 69.843 C 121.400 73.546, 130.363 76.912, 131.417 77.321 C 132.806 77.860, 133.033 78.367, 132.240 79.160 C 131.447 79.953, 126.821 79.792, 115.459 78.575 C 106.831 77.650, 99.609 77.058, 99.409 77.258 C 99.209 77.458, 109.208 80.680, 121.630 84.418 C 140.498 90.096, 144.421 90.991, 145.473 89.857 C 146.166 89.111, 147.414 85.700, 148.247 82.278 L 149.763 76.056 146.242 73.371 C 143.128 70.996, 139.996 70.245, 119.111 66.869 C 106.125 64.770, 95.050 63.065, 94.500 63.080 C 93.950 63.096, 101.600 66.139, 111.500 69.843 M 150.766 83.250 C 149.947 86.138, 149.412 88.661, 149.579 88.858 C 149.746 89.054, 152.158 88.632, 154.941 87.919 C 161.226 86.308, 161.765 83.659, 156.502 80.250 C 154.591 79.013, 152.854 78, 152.642 78 C 152.430 78, 151.586 80.362, 150.766 83.250 M 163 86.833 C 163 88.421, 161.682 89.107, 155.920 90.520 C 151.981 91.485, 148.593 92.897, 148.284 93.702 C 147.909 94.679, 146.933 94.949, 145.276 94.533 C 143.807 94.165, 136.351 95.575, 126.685 98.050 L 110.547 102.182 92.523 101.553 C 82.611 101.207, 73.038 100.695, 71.250 100.416 C 68.464 99.982, 68 100.206, 68 101.986 C 68 104.649, 68.203 104.709, 82.811 106.380 C 89.582 107.155, 95.244 107.949, 95.392 108.144 C 96.017 108.968, 83.260 159.222, 82.270 159.833 C 81.656 160.213, 87.274 165.429, 95.241 171.876 L 109.297 183.249 135.398 181.999 C 149.754 181.312, 164.365 180.468, 167.868 180.125 L 174.235 179.500 166.624 170.799 C 161.285 164.696, 158.040 161.832, 155.756 161.210 C 153.965 160.723, 141.124 157.239, 127.220 153.468 C 113.316 149.698, 102.516 146.306, 103.220 145.931 C 103.924 145.555, 116.941 141.595, 132.147 137.130 C 147.352 132.665, 160.771 128.650, 161.967 128.208 C 163.460 127.656, 158.454 126.659, 145.977 125.025 L 127.814 122.645 128.157 113.905 C 128.346 109.097, 128.735 104.930, 129.021 104.644 C 129.308 104.358, 141.458 103.349, 156.021 102.402 C 170.585 101.454, 182.850 100.379, 183.278 100.012 C 183.706 99.645, 179.318 96.090, 173.528 92.113 C 164.890 86.180, 163 85.232, 163 86.833 M 42.034 100.482 C 39.979 101.582, 41.092 101.879, 51.437 102.993 C 61.952 104.126, 63.338 104.091, 64.776 102.652 C 65.659 101.770, 66.183 100.871, 65.940 100.656 C 65.698 100.440, 60.745 100.032, 54.933 99.749 C 47.519 99.388, 43.670 99.606, 42.034 100.482 M 51.748 127.871 C 38.919 147.711, 38.018 149.442, 33.522 162.934 C 30.921 170.739, 28.952 177.268, 29.146 177.441 C 29.341 177.615, 37.600 171.698, 47.500 164.293 C 57.400 156.888, 66.043 150.602, 66.707 150.324 C 67.370 150.047, 70.468 151.900, 73.590 154.443 C 76.712 156.987, 79.456 158.877, 79.689 158.644 C 80.309 158.024, 66.696 107, 65.911 107 C 65.544 107, 59.171 116.392, 51.748 127.871 M 70.019 108.750 C 70.030 109.162, 72.672 119.400, 75.890 131.500 C 81.622 153.050, 81.763 153.418, 82.812 149.500 C 85.651 138.894, 92.161 110.830, 91.851 110.533 C 91.452 110.151, 74.418 108.007, 71.750 108.003 C 70.787 108.001, 70.009 108.338, 70.019 108.750" stroke="none" fill="black" fill-rule="evenodd"/>
</svg>