<svg xmlns="http://www.w3.org/2000/svg" width="200" height="200" viewBox="0 0 200 200" version="1.1">
	<path d="M 122.500 16.716 C 98.768 18.898, 94.290 19.058, 85.500 18.036 C 80 17.397, 74.487 16.628, 73.250 16.328 C 71.375 15.874, 71 16.197, 71 18.261 C 71 20.347, 70.407 20.836, 67.250 21.358 C 65.188 21.699, 61.475 21.990, 59 22.004 C 56.525 22.019, 53.935 22.389, 53.244 22.828 C 52.554 23.266, 43.779 22.174, 33.744 20.399 C 23.710 18.625, 15.369 17.303, 15.209 17.461 C 15.049 17.619, 14.638 50.655, 14.297 90.874 C 13.688 162.437, 13.716 164, 15.588 163.987 C 21.273 163.949, 58.487 159.899, 59.051 159.257 C 59.418 158.841, 61.423 146.575, 63.508 132 C 67.078 107.044, 67.999 103, 70.114 103 C 70.602 103, 70.696 117.046, 70.330 135 C 69.775 162.199, 69.889 166.998, 71.088 166.988 C 74.072 166.962, 100.259 161.137, 100.975 160.340 C 101.389 159.878, 103.398 152.975, 105.439 145 C 110.034 127.039, 115.027 109.736, 115.889 108.781 C 116.246 108.385, 119.280 119.828, 122.631 134.209 L 128.724 160.356 126.862 168.877 C 125.838 173.564, 125 177.668, 125 177.996 C 125 178.571, 181.070 170.054, 181.914 169.350 C 182.283 169.043, 174.642 114.696, 173.475 109.334 C 173.104 107.626, 171.154 106.543, 164.252 104.209 C 159.438 102.582, 155.556 100.856, 155.625 100.375 C 155.694 99.894, 156.789 94.020, 158.059 87.323 L 160.366 75.146 163.933 76.945 C 165.895 77.934, 168.512 79.056, 169.750 79.439 L 172 80.135 171.993 56.317 C 171.985 29.869, 171.287 19, 169.596 19 C 168.935 19, 166.503 29.264, 163.614 44.250 C 160.937 58.138, 158.571 69.807, 158.356 70.183 C 158.141 70.558, 153.810 68.893, 148.733 66.483 L 139.500 62.100 139 53.539 C 138.717 48.694, 138.066 45.037, 137.500 45.111 C 135.529 45.372, 86.915 88.336, 87.340 89.442 C 87.578 90.064, 84.674 92.180, 80.887 94.145 L 74 97.717 74 74.489 L 74 51.262 77.750 50.642 C 79.813 50.301, 85.127 50.017, 89.559 50.011 L 97.619 50 102.309 44.567 C 106.838 39.321, 107.998 37, 106.090 37 C 105.590 37, 103.227 39.223, 100.840 41.941 L 96.500 46.882 85.250 47.569 L 74 48.257 74 39.283 L 74 30.309 81.225 31.675 C 85.199 32.426, 89.053 32.810, 89.789 32.528 C 92.553 31.467, 89.783 30.211, 82.018 29.003 C 75.317 27.960, 74 27.450, 74 25.897 C 74 23.778, 75.370 23.379, 85.620 22.509 C 90.831 22.067, 98.738 22.730, 115.120 24.983 C 127.429 26.676, 138.216 28.212, 139.092 28.396 C 139.968 28.580, 145.107 25.416, 150.513 21.365 L 160.342 14 154.921 14.116 C 151.940 14.180, 137.350 15.350, 122.500 16.716 M 129 19 C 118.825 19.946, 110.275 20.835, 110 20.975 C 109.725 21.114, 116.250 22.256, 124.500 23.511 L 139.500 25.793 143 23.388 C 144.925 22.065, 147.625 20.097, 149 19.014 C 151.981 16.665, 154.085 16.667, 129 19 M 74 20.094 C 74 20.592, 74.900 21, 76 21 C 77.100 21, 78 20.827, 78 20.617 C 78 20.406, 77.100 19.998, 76 19.710 C 74.900 19.423, 74 19.595, 74 20.094 M 17.661 39.750 C 17.301 50.063, 17.004 81.624, 17.003 109.888 L 17 161.275 22.250 160.672 C 25.137 160.340, 33.800 159.538, 41.500 158.889 C 49.200 158.241, 55.859 157.394, 56.298 157.008 C 57.213 156.201, 64.187 110.347, 63.773 107.859 C 63.557 106.563, 59.755 108.208, 45.644 115.704 C 23.124 127.667, 21.328 127.225, 35.331 113.169 L 45.094 103.370 40.047 83.876 C 37.271 73.155, 35 63.619, 35 62.686 C 35 61.753, 36.649 58.351, 38.665 55.126 L 42.330 49.262 49.284 48.679 C 53.108 48.359, 56.446 47.887, 56.701 47.632 C 57.254 47.079, 54.286 31.391, 53.072 28.450 C 52.345 26.689, 49.993 26.018, 36.363 23.678 C 27.638 22.181, 20.009 20.966, 19.408 20.978 C 18.682 20.993, 18.096 27.287, 17.661 39.750 M 63 25 C 61.810 25.769, 62.017 25.975, 64 25.998 C 65.375 26.014, 67.513 26.299, 68.750 26.630 C 70.404 27.074, 71 26.805, 71 25.617 C 71 23.772, 65.551 23.352, 63 25 M 56.344 28.651 C 56.641 29.668, 57.647 34.438, 58.579 39.250 L 60.274 48 65.637 48 L 71 48 71 39.067 C 71 29.219, 71.415 29.802, 63.500 28.534 C 61.300 28.182, 58.668 27.648, 57.651 27.348 C 56.217 26.925, 55.924 27.217, 56.344 28.651 M 165.168 50.539 C 163.335 59.868, 161.605 68.671, 161.322 70.103 C 160.869 72.403, 161.300 72.903, 165.029 74.395 C 167.350 75.324, 169.344 75.952, 169.458 75.792 C 169.573 75.631, 169.404 66.068, 169.083 54.539 L 168.500 33.578 165.168 50.539 M 114.500 67.952 C 102.950 77.980, 93.340 86.624, 93.144 87.161 C 92.948 87.698, 95.342 86.695, 98.464 84.934 L 104.140 81.730 107.820 85.169 C 113.774 90.733, 114.349 90.993, 124.139 92.554 C 129.288 93.375, 137.691 95.433, 142.813 97.127 C 147.935 98.821, 152.289 100.045, 152.487 99.846 C 152.685 99.648, 153.951 93.708, 155.299 86.646 L 157.751 73.806 147.125 68.653 L 136.500 63.500 136 56.610 L 135.500 49.720 114.500 67.952 M 41.211 56.299 C 39.445 59.213, 38 62.310, 38 63.182 C 38 64.053, 40.237 73.460, 42.971 84.086 C 48.607 105.991, 48.990 102.776, 39.537 112.888 L 34.500 118.275 49.724 110.388 L 64.947 102.500 65.634 98 C 66.263 93.877, 64.203 81.065, 58.841 55.750 L 57.834 51 51.128 51 L 44.423 51 41.211 56.299 M 61 51.821 C 61 52.272, 62.826 61.610, 65.058 72.571 C 67.769 85.883, 68.940 93.897, 68.583 96.709 C 68.148 100.144, 68.321 100.814, 69.525 100.352 C 70.769 99.875, 71 95.971, 71 75.393 L 71 51 66 51 C 63.250 51, 61 51.369, 61 51.821 M 100.982 86.813 L 98.663 88.691 103.062 89.282 C 105.482 89.606, 107.581 89.752, 107.727 89.606 C 107.873 89.461, 106.937 88.350, 105.647 87.138 C 103.340 84.971, 103.264 84.966, 100.982 86.813 M 83.504 95.807 C 75.912 99.827, 74.408 101.034, 73.872 103.536 C 73.523 105.166, 73.183 119.468, 73.118 135.317 C 73.007 162.321, 73.110 164.103, 74.750 163.625 C 75.713 163.345, 81.562 162.127, 87.749 160.918 L 98.998 158.720 99.929 155.110 C 104.598 136.994, 107.826 125.202, 111.691 112.153 C 117.041 94.087, 117.146 94.441, 105.828 92.416 C 94.689 90.423, 93.260 90.640, 83.504 95.807 M 133.500 107.774 L 148.500 120.841 150.204 112.670 C 151.142 108.177, 151.929 104.185, 151.954 103.800 C 152.030 102.648, 130.965 96.236, 124.500 95.443 L 118.500 94.707 133.500 107.774 M 117.285 99.080 C 117.608 100.411, 120.897 114.540, 124.593 130.479 L 131.313 159.458 130.077 166.816 C 129.397 170.863, 129.047 174.380, 129.300 174.633 C 129.860 175.194, 177.800 167.533, 178.574 166.759 C 178.876 166.457, 177.223 153.409, 174.900 137.764 L 170.676 109.318 162.841 106.750 C 158.532 105.337, 154.837 104.478, 154.631 104.841 C 154.425 105.203, 153.441 109.888, 152.445 115.250 C 151.449 120.612, 150.294 125, 149.878 125 C 149.463 125, 141.828 118.623, 132.911 110.830 C 120.865 100.302, 116.849 97.282, 117.285 99.080" stroke="none" fill="black" fill-rule="evenodd"/>
</svg>