<svg xmlns="http://www.w3.org/2000/svg" width="200" height="200" viewBox="0 0 200 200" version="1.1">
	<path d="M 113.762 25.823 L 101.237 38.103 93.013 36.003 C 88.490 34.848, 84.384 34.039, 83.889 34.204 C 83.394 34.369, 86.969 39.461, 91.834 45.519 L 100.679 56.535 101.839 65.585 C 102.478 70.563, 103 75.120, 103 75.712 C 103 76.304, 97.825 80.445, 91.500 84.915 C 85.175 89.384, 80 93.625, 80 94.339 C 80 95.053, 76.287 98.137, 71.750 101.192 C 64.258 106.237, 63.110 106.703, 59.250 106.269 L 55 105.790 55 109.353 C 55 112.746, 54.526 113.237, 45.029 119.678 C 35.724 125.988, 35.145 126.575, 36.366 128.470 C 37.085 129.586, 41.453 136.330, 46.071 143.455 L 54.469 156.410 55.158 151.955 C 55.537 149.505, 56.150 140.062, 56.520 130.972 L 57.193 114.443 60.822 112.065 L 64.452 109.686 84.476 110.978 C 95.489 111.689, 104.795 112.435, 105.156 112.636 C 105.517 112.837, 105.577 113.902, 105.289 115.001 C 104.867 116.616, 103.925 117, 100.383 117 L 96 117 95.995 131.750 C 95.992 139.863, 95.699 150.887, 95.344 156.250 L 94.698 166 83.599 166.052 L 72.500 166.104 49.500 174.453 C 29.520 181.706, 26.412 182.585, 25.829 181.151 C 24.511 177.907, 21.994 133.979, 21.437 104.500 L 20.871 74.500 32.476 65.500 C 40.594 59.205, 46.352 53.720, 51.638 47.250 C 55.793 42.163, 59.373 38, 59.591 38 C 59.810 38, 57.414 43.174, 54.266 49.498 C 49.433 59.207, 48.418 60.658, 47.741 58.828 C 47.140 57.203, 46.653 56.947, 45.797 57.803 C 44.940 58.660, 44.944 59.581, 45.811 61.486 C 46.806 63.668, 46.533 64.909, 43.869 70.312 L 40.769 76.599 50.634 90.262 C 59.307 102.274, 63 106.114, 63 103.121 C 63 102.637, 60.039 93.750, 56.420 83.371 L 49.840 64.500 59.139 45.769 C 71.394 21.087, 70.433 19.884, 54.305 39.715 C 44.205 52.134, 40.336 56.020, 30.126 64 L 17.971 73.500 18.531 102.500 C 18.965 124.934, 22.442 185.772, 23.341 186.656 C 23.429 186.742, 34.525 182.788, 48 177.869 L 72.500 168.927 102.523 169.408 C 119.036 169.672, 133.323 170.187, 134.273 170.551 C 135.223 170.916, 136 171.814, 136 172.548 C 136 174.760, 138.219 175.421, 139.548 173.604 C 140.712 172.011, 141.684 172.069, 154.646 174.506 C 162.266 175.938, 169.204 177.314, 170.065 177.564 C 171.455 177.967, 171.768 173.127, 172.861 134.259 C 173.539 110.191, 174.360 84.649, 174.686 77.498 L 175.280 64.495 160.582 60.573 C 145.200 56.469, 144 55.736, 144 50.443 C 144 48.148, 143.777 47.940, 142.476 49.020 C 141.638 49.716, 140.714 50.048, 140.424 49.757 C 140.006 49.339, 134.218 34.540, 127.034 15.521 C 126.383 13.798, 124.666 15.131, 113.762 25.823 M 113.414 30.075 L 102.338 41.151 96.462 39.616 C 93.230 38.772, 90.413 38.253, 90.203 38.464 C 89.993 38.674, 91.988 41.554, 94.637 44.865 C 97.394 48.310, 99.737 50.426, 100.115 49.814 C 101.184 48.085, 103 49.901, 103 52.698 C 103 54.339, 105.034 57.796, 108.586 62.193 L 114.172 69.106 117.336 66.748 C 119.076 65.452, 124.425 61.581, 129.223 58.147 L 137.946 51.903 135.393 45.201 C 133.988 41.516, 131.188 34.116, 129.170 28.758 C 127.151 23.400, 125.272 19.012, 124.994 19.008 C 124.716 19.004, 119.505 23.984, 113.414 30.075 M 132.405 59.298 L 126.370 63.500 128.070 70.232 C 129.428 75.606, 130.781 78.126, 134.784 82.732 C 140.905 89.773, 145.001 93.661, 144.996 92.424 C 144.994 91.916, 144.317 84.167, 143.493 75.205 C 142.316 62.420, 141.610 58.498, 140.217 57.002 C 138.479 55.137, 138.309 55.187, 132.405 59.298 M 145 60.020 C 145 60.455, 145.707 68.946, 146.572 78.888 C 147.436 88.831, 147.999 97.837, 147.822 98.903 C 147.575 100.390, 145.154 98.245, 137.405 89.670 C 128.773 80.119, 127.130 77.746, 126.067 73.299 L 124.824 68.097 121.424 70.299 C 119.555 71.509, 118.019 72.764, 118.012 73.087 C 118.006 73.410, 120.852 77.294, 124.337 81.717 L 130.674 89.761 131.979 103.630 C 132.696 111.259, 133.725 118.063, 134.264 118.750 C 134.846 119.491, 137.585 120, 140.997 120 C 144.161 120, 148.093 120.269, 149.734 120.597 L 152.717 121.193 146.810 144.758 C 142.786 160.810, 141.251 168.537, 141.995 168.997 C 143.388 169.858, 167.995 174.338, 168.509 173.824 C 168.721 173.613, 169.365 157.253, 169.941 137.470 C 170.517 117.686, 171.283 93.582, 171.644 83.905 L 172.301 66.310 169.400 65.692 C 167.805 65.352, 161.662 63.759, 155.750 62.151 C 149.838 60.544, 145 59.585, 145 60.020 M 104.601 66.599 C 105.406 73.860, 106.173 74.796, 109.300 72.336 L 111.743 70.415 107.845 65.556 L 103.947 60.698 104.601 66.599 M 45.889 72.858 L 44.278 76.696 50.785 85.598 C 54.364 90.494, 57.070 93.825, 56.798 93 C 53.367 82.576, 48.391 69.012, 48 69.016 C 47.725 69.018, 46.775 70.747, 45.889 72.858 M 110.632 77.777 C 106.801 80.402, 106.769 80.477, 107.310 85.713 C 107.934 91.764, 109.134 91.022, 94.839 93.418 C 87.095 94.715, 85.267 95.475, 77.579 100.591 C 72.850 103.738, 69.145 106.478, 69.346 106.679 C 69.652 106.986, 103.793 109.916, 107.795 109.979 C 108.732 109.994, 108.909 110.967, 108.436 113.489 C 107.639 117.738, 107.425 117.652, 120.805 118.469 L 131.109 119.099 130.580 115.800 C 130.289 113.985, 129.536 107.487, 128.908 101.360 L 127.765 90.221 121.770 82.860 C 118.473 78.812, 115.488 75.416, 115.137 75.314 C 114.787 75.212, 112.759 76.320, 110.632 77.777 M 97.079 87.086 C 94.098 89.238, 92.124 91, 92.693 91 C 94.353 91, 104.311 89.022, 104.722 88.611 C 105.305 88.028, 103.863 82.989, 103.142 83.086 C 102.789 83.133, 100.061 84.933, 97.079 87.086 M 57 109.969 C 57 110.501, 57.675 110.678, 58.500 110.362 C 59.325 110.045, 60 109.609, 60 109.393 C 60 109.177, 59.325 109, 58.500 109 C 57.675 109, 57 109.436, 57 109.969 M 47.124 121.563 C 43.617 123.922, 40.317 126.283, 39.791 126.809 C 39.181 127.419, 41.314 131.495, 45.667 138.038 L 52.500 148.309 53.271 137.904 C 53.695 132.182, 53.920 125.199, 53.771 122.387 L 53.500 117.273 47.124 121.563 M 98.116 136.250 L 98.233 152.500 100.532 141 C 101.797 134.675, 103.137 127.362, 103.510 124.750 L 104.188 120 101.094 120 L 98 120 98.116 136.250 M 107 120.805 C 107 121.327, 105.188 131.547, 102.974 143.517 C 100.760 155.488, 99.207 165.540, 99.523 165.857 C 99.940 166.274, 134.526 167.893, 135.658 167.548 C 135.768 167.515, 131.371 124.596, 131.026 122.330 C 131.012 122.236, 127.963 121.885, 124.250 121.550 C 120.537 121.215, 115.138 120.696, 112.250 120.398 C 109.225 120.086, 107 120.258, 107 120.805 M 134.327 126.798 C 134.642 129.384, 135.672 139.111, 136.617 148.414 C 137.561 157.717, 138.639 164.467, 139.012 163.414 C 140.562 159.032, 149.290 123.961, 148.912 123.633 C 148.685 123.437, 145.182 123.011, 141.128 122.686 L 133.755 122.096 134.327 126.798" stroke="none" fill="black" fill-rule="evenodd"/>
</svg>