<svg xmlns="http://www.w3.org/2000/svg" width="200" height="200" viewBox="0 0 200 200" version="1.1">
	<path d="M 120.500 23.646 L 95.500 32.136 69.500 25.917 C 55.200 22.497, 42.873 19.468, 42.106 19.187 C 40.926 18.754, 40.793 23.124, 41.245 47.588 L 41.778 76.500 37.935 107.500 C 35.822 124.550, 33.794 139.946, 33.429 141.714 L 32.765 144.927 56.569 136.977 C 69.661 132.604, 79.952 129.407, 79.437 129.871 C 78.922 130.336, 70.625 135.393, 61 141.108 L 43.500 151.500 57.500 152.266 C 65.200 152.687, 74.328 153.362, 77.784 153.766 L 84.069 154.500 71.433 165.914 L 58.798 177.328 42.149 178.738 C 27.472 179.981, 22.576 180.966, 24.067 182.377 C 24.305 182.602, 51.275 183.104, 84 183.492 L 143.500 184.197 164.369 178.646 C 175.847 175.593, 185.492 172.842, 185.802 172.531 C 187.876 170.457, 181.413 170.477, 155.598 172.625 C 139.702 173.948, 126.534 174.868, 126.336 174.669 C 126.138 174.471, 128.122 169.215, 130.746 162.989 L 135.517 151.668 151.414 145.845 C 160.158 142.642, 167.512 139.822, 167.756 139.577 C 168 139.333, 167.865 138.591, 167.456 137.928 C 166.889 137.012, 160.705 136.881, 141.606 137.383 C 126.557 137.778, 117.101 137.680, 118 137.139 C 118.825 136.643, 129.079 132.291, 140.787 127.469 L 162.073 118.701 140.927 107.823 L 119.781 96.945 98.776 108.024 C 87.223 114.118, 77.502 118.836, 77.174 118.507 C 76.846 118.179, 74.263 111.406, 71.435 103.455 L 66.292 89 95.396 88.978 C 123.894 88.957, 124.891 88.887, 143.265 85.629 C 153.586 83.800, 162.287 82.046, 162.600 81.733 C 163.083 81.250, 161.225 21.039, 160.655 18.687 C 160.547 18.240, 147.192 29.876, 130.979 44.545 C 114.766 59.214, 101.633 71.678, 101.795 72.243 C 101.957 72.808, 103.463 75.267, 105.142 77.706 C 106.820 80.145, 107.983 82.350, 107.726 82.607 C 107.470 82.863, 97.189 79.895, 84.880 76.010 C 72.571 72.126, 62.145 68.841, 61.712 68.711 C 61.278 68.581, 66.662 64.093, 73.677 58.737 L 86.431 49 99.250 49 L 112.069 49 111.325 43.750 C 110.917 40.862, 110.564 37.211, 110.541 35.635 L 110.500 32.769 129.925 27.109 C 140.609 23.996, 149.534 20.898, 149.758 20.225 C 150.322 18.534, 148.800 18.677, 140.762 21.071 C 131.635 23.789, 131.035 23.027, 140.023 20.132 C 144.395 18.724, 147 17.346, 147 16.442 C 147 15.649, 146.662 15.035, 146.250 15.078 C 145.838 15.121, 134.250 18.976, 120.500 23.646 M 44 52.280 C 44 79.731, 43.780 83.339, 40.475 110.030 C 38.537 125.688, 36.768 139.017, 36.545 139.650 C 36.322 140.282, 48.821 136.566, 64.320 131.391 C 90.570 122.627, 97.700 120.937, 93.928 124.374 C 93.142 125.089, 83.839 130.743, 73.252 136.937 C 62.666 143.131, 54.221 148.549, 54.486 148.977 C 54.750 149.405, 62.849 150.084, 72.483 150.485 C 82.118 150.887, 90 151.541, 90 151.941 C 90 152.866, 62.377 178.094, 59.589 179.715 C 57.926 180.681, 66.336 180.936, 100.780 180.965 L 144.061 181 154.747 178.322 C 160.625 176.850, 164.870 175.457, 164.182 175.227 C 163.493 174.998, 153.897 175.554, 142.856 176.463 C 131.815 177.372, 122.598 177.931, 122.372 177.706 C 122.147 177.480, 124.494 171.042, 127.587 163.398 L 133.212 149.500 145.856 144.739 L 158.500 139.977 133.500 140.239 C 113.146 140.451, 108.500 140.251, 108.500 139.161 C 108.500 138.354, 117.637 134.062, 131.446 128.381 C 144.067 123.189, 154.571 118.763, 154.789 118.545 C 155.007 118.327, 150.081 115.595, 143.842 112.474 C 137.604 109.353, 129.704 105.240, 126.287 103.335 L 120.074 99.869 97.973 111.537 C 85.817 117.954, 75.736 123.046, 75.570 122.852 C 74.999 122.184, 63 87.928, 63 86.965 C 63 86.376, 71.486 85.977, 84.750 85.940 L 106.500 85.880 94.500 82.018 C 87.900 79.894, 76.537 76.273, 69.250 73.972 C 61.962 71.671, 56.023 69.498, 56.052 69.144 C 56.081 68.790, 61.787 64.225, 68.732 59 L 81.359 49.500 67.430 49 C 48.188 48.309, 48.599 47.193, 70.721 40.056 C 80.192 37, 87.954 34.264, 87.971 33.976 C 87.998 33.495, 46.456 22.922, 44.750 22.976 C 44.337 22.989, 44 36.176, 44 52.280 M 137 42.737 C 125.725 52.936, 113.827 63.663, 110.560 66.575 L 104.619 71.869 109.230 78.803 C 112.668 83.972, 114.561 85.883, 116.670 86.314 C 118.227 86.631, 128.385 85.340, 139.244 83.445 C 150.104 81.550, 159.261 80, 159.593 80 C 160.287 80, 159.050 37.748, 158.118 29.600 L 157.500 24.193 137 42.737 M 100.598 38.063 C 97.901 40.259, 94.526 42.929, 93.098 43.996 L 90.500 45.937 99.687 45.968 L 108.874 46 108.372 42.250 C 107.548 36.091, 107.002 33.998, 106.231 34.036 C 105.829 34.055, 103.294 35.868, 100.598 38.063 M 78 40.500 L 62.500 45.842 74.249 45.921 L 85.997 46 92.021 41.323 C 96.250 38.038, 97.665 36.405, 96.772 35.838 C 94.926 34.666, 94.924 34.667, 78 40.500" stroke="none" fill="black" fill-rule="evenodd"/>
</svg>