<svg xmlns="http://www.w3.org/2000/svg" width="200" height="200" viewBox="0 0 200 200" version="1.1">
	<path d="M 60.007 12.783 C 60.011 13.177, 63.407 22.257, 67.554 32.961 C 73.415 48.092, 75.026 53.344, 74.796 56.565 L 74.500 60.708 63.500 57.604 L 52.500 54.500 52.228 35.822 L 51.956 17.143 32.388 29.322 L 12.819 41.500 13.477 81.500 C 14.222 126.741, 15.461 165.795, 16.176 166.509 C 16.852 167.186, 58.988 157.427, 59.959 156.369 C 60.398 155.891, 64.412 147.231, 68.879 137.124 C 75.416 122.332, 77 117.798, 77 113.874 C 77 111.193, 77.398 109, 77.884 109 C 78.779 109, 98.198 116.906, 98.858 117.539 C 99.055 117.728, 97.368 124.449, 95.108 132.475 C 90.522 148.764, 90.482 149, 92.296 149 C 93.495 149, 117.051 124.086, 117.361 122.489 C 117.437 122.096, 114.350 120.514, 110.500 118.974 C 104.106 116.417, 103.518 115.940, 103.705 113.465 C 103.818 111.976, 104.043 110.632, 104.205 110.480 C 104.525 110.181, 136.316 116.023, 136.787 116.469 C 136.944 116.618, 130.697 126.729, 122.905 138.938 C 114.929 151.435, 109.122 161.502, 109.618 161.974 C 120.317 172.131, 137.564 186.829, 138.112 186.258 C 138.513 185.841, 143.863 172.900, 150.002 157.500 C 156.140 142.100, 164.930 121.715, 169.535 112.201 C 175.050 100.808, 177.497 94.747, 176.704 94.449 C 176.042 94.200, 167.625 91.332, 158 88.075 L 140.500 82.154 155.750 82.077 C 164.137 82.035, 171 81.803, 171 81.562 C 171 81.321, 167.063 76.203, 162.250 70.189 C 157.438 64.175, 152.040 57.215, 150.256 54.722 L 147.011 50.189 156.074 43.662 C 164.995 37.237, 165.100 37.113, 162.818 35.705 C 158.035 32.754, 128.861 17, 128.194 17.009 C 127.813 17.014, 124.125 29.164, 120 44.009 C 113.934 65.840, 112.174 71, 110.795 71 C 109.741 71, 104.998 65.274, 98.368 56 C 92.471 47.750, 87.275 41, 86.823 41 C 84.882 41, 86.493 43.968, 94.556 55.250 C 99.262 61.834, 102.909 67.424, 102.661 67.673 C 102.413 67.921, 96.762 66.676, 90.105 64.905 L 78 61.687 78 56.916 C 78 53.453, 76.355 47.948, 71.998 36.829 C 68.697 28.405, 66.109 21.208, 66.248 20.834 C 66.387 20.461, 76.175 27.305, 88 36.043 C 107.637 50.553, 112.767 53.775, 111.833 51.014 C 111.406 49.750, 59.998 11.827, 60.007 12.783 M 122.522 45.250 C 118.772 58.587, 115.511 70.215, 115.277 71.089 C 114.953 72.298, 116.926 73.435, 123.527 75.839 C 131.944 78.906, 132.693 79, 148.602 79 C 157.621 79, 165 78.687, 165 78.305 C 165 77.922, 163.921 76.460, 162.602 75.055 C 161.282 73.650, 156.335 67.386, 151.606 61.135 L 143.009 49.770 151.204 43.853 C 155.710 40.598, 159.559 37.774, 159.756 37.577 C 160.101 37.232, 130.781 21, 129.814 21 C 129.554 21, 126.273 31.913, 122.522 45.250 M 33 32.294 L 16.500 42.684 16.735 85.092 C 16.864 108.416, 17.314 135.643, 17.735 145.596 L 18.500 163.692 37 159.518 C 47.175 157.223, 56.091 155.145, 56.813 154.901 C 57.535 154.657, 61.698 146.425, 66.063 136.608 C 72.999 121.009, 74 118.030, 74 112.989 L 74 107.220 63.550 103.020 C 57.802 100.710, 52.691 99.073, 52.190 99.382 C 51.690 99.692, 50.978 107.269, 50.607 116.222 C 49.803 135.656, 49.159 141, 47.621 141 C 46.948 141, 43.728 130, 39.864 114.500 C 36.230 99.925, 33.363 88, 33.491 88 C 33.620 88, 36.999 89.350, 41 91 C 45.001 92.650, 48.438 94, 48.638 94 C 48.837 94, 49.045 92.537, 49.100 90.750 C 49.155 88.963, 49.492 86.559, 49.850 85.410 L 50.500 83.320 60.500 85.612 C 76.393 89.255, 75.111 90.138, 74.781 75.771 L 74.500 63.543 65 60.856 C 51.193 56.952, 51.839 56.758, 52.009 64.750 C 52.087 68.463, 52.118 71.942, 52.076 72.483 C 51.967 73.894, 30 51.788, 30 50.267 C 30 48.597, 30.084 48.607, 40.462 51.462 C 45.383 52.816, 49.554 53.779, 49.731 53.602 C 49.908 53.426, 49.928 46.221, 49.776 37.593 L 49.500 21.904 33 32.294 M 42.500 59.898 L 49.500 67.074 49.810 62.397 C 49.981 59.825, 49.756 57.395, 49.310 56.996 C 48.865 56.598, 46.420 55.769, 43.879 55.154 C 41.337 54.539, 38.412 53.740, 37.379 53.379 C 36.345 53.017, 38.650 55.951, 42.500 59.898 M 77.500 69.250 C 77.158 71.588, 77.018 77.060, 77.189 81.411 L 77.500 89.323 90 92.103 C 96.875 93.632, 103.214 94.910, 104.086 94.942 C 105.189 94.982, 106.179 93.177, 107.336 89.015 C 108.251 85.723, 109 82.798, 109 82.515 C 109 82.232, 105.175 82, 100.500 82 C 89.700 82, 89.267 80.415, 98.750 75.600 C 103.066 73.409, 104.959 71.974, 104 71.621 C 100.977 70.509, 80.464 65.013, 79.311 65.007 C 78.657 65.003, 77.842 66.912, 77.500 69.250 M 103 76.532 L 98.500 78.974 104.500 78.737 C 109.876 78.525, 110.533 78.266, 110.820 76.250 C 111.243 73.270, 108.854 73.356, 103 76.532 M 113.554 76.720 C 112.700 78.945, 113.203 79.156, 118.524 78.809 L 123.263 78.500 118.709 76.827 C 114.600 75.317, 114.096 75.306, 113.554 76.720 M 111.006 86.190 C 110.399 88.561, 109.498 91.735, 109.005 93.244 C 108.228 95.620, 108.403 96.056, 110.304 96.488 C 116.874 97.981, 131.050 101, 131.489 101 C 131.770 101, 132 101.675, 132 102.500 C 132 103.756, 129.901 104, 119.107 104 C 108.070 104, 106.123 104.237, 105.583 105.643 C 105.237 106.547, 105.076 107.389, 105.226 107.514 C 105.377 107.639, 113.366 109.178, 122.979 110.933 C 132.593 112.689, 140.632 114.299, 140.844 114.510 C 141.310 114.977, 139.932 117.252, 124.424 141.627 L 112.254 160.754 124.639 171.927 C 134.892 181.177, 137.136 182.791, 137.673 181.300 C 143.250 165.835, 161.876 121.229, 167.170 110.661 C 170.992 103.030, 173.981 96.687, 173.810 96.565 C 173.640 96.443, 164.725 93.261, 154 89.494 C 135.121 82.863, 134.143 82.632, 123.305 82.263 L 112.109 81.881 111.006 86.190 M 52.008 91.162 L 52.017 95.500 62.561 99.676 L 73.106 103.852 74.102 101.232 C 74.650 99.792, 74.963 97.021, 74.799 95.075 C 74.501 91.554, 74.465 91.529, 67.228 89.853 C 63.228 88.926, 58.165 87.866, 55.978 87.496 L 52 86.824 52.008 91.162 M 77 97.081 L 77 102.201 90.037 101.850 C 100.153 101.579, 103.278 101.170, 103.983 100.029 C 104.482 99.220, 104.768 98.434, 104.617 98.283 C 104.466 98.132, 99.203 96.887, 92.921 95.516 C 86.639 94.145, 80.487 92.785, 79.250 92.493 C 77.141 91.995, 77 92.282, 77 97.081 M 41.880 111.613 C 46.482 130.152, 46.503 130.205, 47.133 124.863 C 47.482 121.914, 48.048 114.499, 48.393 108.387 L 49.019 97.274 43.876 95.137 C 41.048 93.962, 38.402 93, 37.997 93 C 37.592 93, 39.339 101.376, 41.880 111.613 M 107 100 C 107 100.550, 109.138 100.947, 111.750 100.882 C 115.990 100.776, 116.178 100.681, 113.500 100 C 109.077 98.874, 107 98.874, 107 100 M 95 105.589 C 100.659 106.996, 103 106.833, 103 105.031 C 103 104.414, 100.292 104.044, 96.250 104.111 L 89.500 104.221 95 105.589 M 80.166 106.499 C 80.440 106.774, 84.997 108.761, 90.292 110.915 C 99.565 114.689, 99.942 114.758, 100.559 112.815 C 101.462 109.969, 100.571 109.486, 91 107.639 C 82.219 105.944, 79.304 105.638, 80.166 106.499 M 101.696 119.709 C 101.437 120.144, 100.035 124.887, 98.581 130.249 C 97.127 135.612, 95.662 140.787, 95.325 141.749 C 94.751 143.387, 112.126 125.655, 112.819 123.895 C 113.370 122.498, 102.478 118.399, 101.696 119.709" stroke="none" fill="black" fill-rule="evenodd"/>
</svg>