<svg xmlns="http://www.w3.org/2000/svg" width="200" height="200" viewBox="0 0 200 200" version="1.1">
	<path d="M 123.500 19.054 C 100.950 22.282, 82.162 24.940, 81.750 24.961 C 81.338 24.983, 81 24.325, 81 23.500 C 81 21.302, 79.320 21.669, 78.710 24 C 78.295 25.587, 77.290 26.024, 73.844 26.118 C 68.553 26.263, 72.999 26.349, 42.914 25.515 L 17.329 24.805 16.689 86.594 C 16.337 120.578, 16.228 148.561, 16.446 148.779 C 17.209 149.542, 43.513 158.977, 44.910 158.988 C 46.649 159.003, 75.710 142.264, 76.734 140.659 C 77.140 140.021, 79.101 136.018, 81.091 131.762 L 84.709 124.024 85.354 131.663 C 85.709 135.864, 86 147.784, 86 158.151 C 86 168.838, 86.395 177, 86.912 177 C 87.414 177, 92.333 175.934, 97.844 174.632 C 104.502 173.059, 108.198 172.598, 108.861 173.261 C 109.523 173.923, 110.730 173.571, 112.458 172.212 C 118.266 167.643, 121.219 168.080, 145.100 177.037 C 157.177 181.568, 167.323 185.010, 167.646 184.688 C 167.969 184.365, 169.517 169.600, 171.088 151.877 L 173.943 119.652 165.828 108.380 L 157.713 97.108 152.106 96.499 C 149.023 96.164, 145.613 95.802, 144.530 95.695 C 143.446 95.588, 150.151 92.125, 159.430 88 L 176.300 80.500 175.652 56 C 175.296 42.525, 175.003 27.755, 175.002 23.177 C 175 16.069, 174.766 14.901, 173.395 15.177 C 172.311 15.395, 166.662 28.131, 156.012 54.369 C 147.334 75.746, 139.619 93.627, 138.867 94.103 C 136.981 95.298, 133 95.221, 133 93.989 C 133 93.434, 137.061 84.867, 142.024 74.952 L 151.049 56.924 142.811 47.462 C 138.280 42.258, 134.244 38, 133.842 38 C 133.439 38, 125.140 49.741, 115.400 64.091 C 105.660 78.441, 97.198 90.341, 96.595 90.536 C 95.993 90.731, 85.637 89.903, 73.582 88.695 C 58.579 87.193, 51.532 86.106, 51.248 85.250 C 51.020 84.563, 51.617 84, 52.575 84 C 54.201 84, 54.276 82.280, 53.708 58 C 53.374 43.700, 53.190 31.969, 53.300 31.932 C 54.843 31.405, 77.616 28.345, 77.920 28.623 C 78.151 28.834, 77.855 39.468, 77.262 52.253 C 76.668 65.039, 76.355 75.675, 76.565 75.890 C 77.189 76.527, 102 73.783, 102 73.077 C 102 72.720, 98.130 63.444, 93.401 52.464 C 88.671 41.484, 84.382 31.421, 83.869 30.102 L 82.937 27.704 110.004 28.427 L 137.070 29.149 150.785 23.453 C 167.201 16.634, 170 15.253, 170 13.974 C 170 12.483, 167.476 12.759, 123.500 19.054 M 129.500 20.978 C 115.200 23.037, 102.600 24.957, 101.500 25.244 C 100.400 25.532, 108.120 25.820, 118.656 25.884 L 137.812 26 148.156 21.535 C 153.845 19.079, 157.825 17.107, 157 17.152 C 156.175 17.198, 143.800 18.919, 129.500 20.978 M 157.751 57.418 C 150.189 76.072, 144.114 91.432, 144.251 91.551 C 144.388 91.670, 150.912 88.836, 158.750 85.253 L 173 78.739 172.876 58.119 C 172.807 46.779, 172.470 34.350, 172.126 30.500 L 171.500 23.500 157.751 57.418 M 19.500 87.559 L 19.500 147.159 31.443 151.579 C 38.011 154.011, 43.972 156, 44.689 156 C 45.407 156, 52.361 152.315, 60.144 147.811 L 74.295 139.623 79.647 128.231 C 83.849 119.290, 85 115.781, 85 111.920 C 85 107.443, 85.209 107, 87.316 107 C 89.187 107, 90.100 105.894, 92.066 101.250 C 93.405 98.087, 94.500 95.050, 94.500 94.500 C 94.500 93.931, 85.562 92.625, 73.750 91.468 C 60.133 90.134, 53.002 89.790, 53.006 90.468 C 53.009 91.035, 54.356 96.450, 56 102.500 C 57.644 108.550, 58.991 114.066, 58.994 114.758 C 58.999 115.872, 43.051 124, 40.860 124 C 40.387 124, 40 115.268, 40 104.595 L 40 85.190 44 85.727 C 46.821 86.105, 48 85.895, 48 85.012 C 48 84.324, 45.750 75.456, 43 65.305 C 37.710 45.777, 37.314 43.605, 39.153 44.218 C 39.787 44.429, 42.419 50.450, 45.002 57.598 C 47.585 64.745, 49.980 71.247, 50.326 72.047 C 50.671 72.846, 50.850 63.375, 50.724 51 L 50.495 28.500 34.998 28.229 L 19.500 27.958 19.500 87.559 M 80.609 43.706 C 80.258 50.193, 79.700 59.507, 79.368 64.405 L 78.763 73.310 85.028 72.655 C 88.474 72.295, 92.240 71.993, 93.397 71.985 C 98.520 71.947, 98.368 71.034, 89.976 51.443 C 85.524 41.051, 81.738 32.405, 81.563 32.230 C 81.388 32.055, 80.959 37.219, 80.609 43.706 M 117.195 66.183 C 108.227 79.442, 101.252 90.613, 101.695 91.007 C 102.529 91.750, 128.913 94.442, 129.464 93.840 C 129.635 93.653, 133.831 85.382, 138.788 75.459 L 147.801 57.418 141.341 49.959 C 137.788 45.857, 134.571 42.405, 134.191 42.288 C 133.811 42.172, 126.163 52.925, 117.195 66.183 M 43 104.201 C 43 112.890, 43.238 120, 43.529 120 C 43.819 120, 46.789 118.621, 50.128 116.935 C 54.640 114.658, 56.077 113.438, 55.725 112.185 C 55.464 111.258, 53.973 105.700, 52.411 99.834 C 49.583 89.210, 49.560 89.167, 46.286 88.785 L 43 88.402 43 104.201 M 95.621 99.910 C 94.116 103.262, 93.125 106.394, 93.418 106.868 C 93.712 107.342, 101.500 108.034, 110.726 108.404 C 119.952 108.775, 128.746 109.323, 130.268 109.623 C 132.835 110.127, 133.219 109.753, 135.560 104.459 C 136.949 101.320, 137.910 98.577, 137.696 98.363 C 137.482 98.149, 134.750 99.105, 131.625 100.487 C 128.500 101.869, 125.719 103, 125.446 103 C 125.172 103, 125.636 101.671, 126.476 100.046 L 128.004 97.091 124.752 96.593 C 122.963 96.320, 118.575 95.841, 115 95.529 C 111.425 95.218, 106.218 94.704, 103.428 94.388 L 98.357 93.814 95.621 99.910 M 139.006 103.484 L 136.784 108.959 144.892 122.069 C 149.351 129.279, 153 135.549, 153 136.002 C 153 136.454, 145.350 143.455, 136 151.558 C 126.650 159.662, 119 166.409, 119 166.553 C 119 166.696, 119.851 166.590, 120.891 166.318 C 122.522 165.892, 131.783 169.046, 159.586 179.499 L 165.673 181.787 168.390 150.982 L 171.106 120.178 163.803 110.088 C 159.747 104.484, 155.611 99.805, 154.500 99.563 C 153.400 99.323, 149.964 98.875, 146.864 98.568 L 141.228 98.009 139.006 103.484 M 89.413 113.553 C 88.022 116.883, 87.913 120.941, 88.549 145.705 C 89.201 171.098, 89.444 173.997, 90.888 173.566 C 91.775 173.301, 96.325 172.138, 101 170.980 L 109.500 168.875 120.751 141.187 C 126.939 125.959, 132.002 113.223, 132.001 112.884 C 132.001 112.546, 125.362 111.967, 117.250 111.597 C 109.138 111.227, 99.914 110.659, 96.753 110.333 L 91.006 109.742 89.413 113.553 M 133.684 116.756 C 117.131 157.311, 113.268 167, 113.655 167 C 113.908 167, 122.203 159.966, 132.087 151.369 C 149.076 136.593, 149.985 135.622, 148.716 133.619 C 147.977 132.454, 144.968 127.545, 142.027 122.711 C 139.087 117.876, 136.351 113.717, 135.947 113.467 C 135.543 113.217, 134.524 114.698, 133.684 116.756" stroke="none" fill="black" fill-rule="evenodd"/>
</svg>