<svg xmlns="http://www.w3.org/2000/svg" width="200" height="200" viewBox="0 0 200 200" version="1.1">
	<path d="M 93.685 15.597 L 73.871 20.007 69.562 17.043 C 67.193 15.413, 64.972 14.361, 64.627 14.706 C 64.282 15.051, 64 16.812, 64 18.620 C 64 22.501, 65.518 21.952, 39.250 27.573 C 29.212 29.720, 21.024 31.708, 21.054 31.989 C 21.084 32.270, 24.885 35.395, 29.501 38.934 C 34.648 42.881, 37.624 45.814, 37.197 46.521 C 36.813 47.154, 32.585 52.809, 27.801 59.086 L 19.102 70.500 24.049 100.500 C 26.769 117, 28.996 131.256, 28.998 132.180 C 28.999 133.105, 28.125 134.005, 27.055 134.180 C 25.352 134.460, 26.553 137.244, 36.679 156.500 C 43.043 168.600, 48.434 178.704, 48.660 178.952 C 48.886 179.201, 55.981 172.505, 64.427 164.073 L 79.783 148.741 81.304 154.121 C 82.140 157.079, 84.051 163.887, 85.549 169.250 C 87.047 174.613, 88.594 179, 88.985 179 C 89.377 179, 97.078 171.891, 106.099 163.201 C 124.165 145.799, 153.679 119.800, 152.798 122.063 C 152.491 122.853, 146.938 135.990, 140.458 151.256 C 133.979 166.521, 128.873 179.206, 129.110 179.444 C 129.348 179.682, 140.783 177.658, 154.521 174.947 C 168.260 172.236, 179.607 170.014, 179.738 170.009 C 179.869 170.004, 179.738 153.463, 179.447 133.250 C 178.922 96.785, 178.945 96.244, 182.305 63.500 C 184.168 45.350, 185.523 30.299, 185.317 30.054 C 184.873 29.527, 130.233 19.011, 127.902 19.005 C 127.002 19.002, 125.515 20.749, 124.500 23 C 123.508 25.200, 122.386 27, 122.006 27 C 121.626 27, 119.626 23.400, 117.561 19 C 115.496 14.600, 113.738 11.042, 113.654 11.094 C 113.569 11.146, 104.583 13.172, 93.685 15.597 M 93.704 18.457 C 85.566 20.273, 78.682 21.985, 78.406 22.260 C 78.130 22.536, 81.998 25.393, 87 28.610 C 93.960 33.084, 95.780 34.697, 94.751 35.479 C 85.462 42.533, 76 50.320, 76 50.909 C 76 51.317, 77.096 52.681, 78.435 53.939 L 80.871 56.227 97.093 51.364 L 113.316 46.500 116.827 38.686 L 120.338 30.871 116.469 22.936 C 113.455 16.755, 112.146 15.017, 110.550 15.077 C 109.422 15.120, 101.842 16.641, 93.704 18.457 M 67 20.031 C 67 20.564, 67.675 21, 68.500 21 C 69.325 21, 70 20.823, 70 20.607 C 70 20.391, 69.325 19.955, 68.500 19.638 C 67.675 19.322, 67 19.499, 67 20.031 M 126.020 25.960 C 124.909 28.138, 124 30.631, 124 31.500 C 124 32.720, 127.344 40.421, 128.447 41.741 C 128.558 41.874, 132.602 40.836, 137.435 39.435 C 142.267 38.034, 146.396 37.062, 146.609 37.276 C 147.065 37.731, 141.251 67.680, 140.209 70.245 C 139.695 71.511, 137.852 68.430, 133.500 59.025 C 129.732 50.882, 126.942 46.054, 126 46.045 C 125.175 46.037, 122.475 46.629, 120 47.360 C 116.427 48.417, 115.056 49.494, 113.343 52.595 L 111.185 56.500 119.756 69.867 L 128.326 83.235 138.163 82.537 C 143.573 82.154, 147.998 82.213, 147.994 82.670 C 147.988 83.610, 140.036 104.297, 139.458 104.875 C 139.253 105.081, 136.284 100.872, 132.861 95.523 L 126.638 85.797 123.069 86.388 C 121.106 86.712, 117.199 86.983, 114.387 86.989 L 109.275 87 108.793 109.511 C 108.528 121.892, 108.099 132.234, 107.840 132.493 C 107.305 133.029, 66.668 136.935, 66.190 136.498 C 66.020 136.341, 74.505 125.563, 85.047 112.547 C 95.588 99.530, 103.979 88.646, 103.694 88.360 C 103.076 87.742, 62.916 90.751, 62.198 91.469 C 61.925 91.742, 61.307 96.810, 60.824 102.732 C 60.341 108.655, 59.820 113.914, 59.667 114.420 C 59.513 114.926, 54.789 109.751, 49.169 102.920 C 37.563 88.812, 37.507 89.392, 50.500 89.103 C 53.800 89.030, 57.033 88.630, 57.685 88.216 C 58.337 87.802, 59.182 85.108, 59.564 82.231 C 60.302 76.669, 59.836 76.180, 55.500 77.963 C 53.904 78.619, 52.540 77.855, 48.750 74.180 C 46.138 71.647, 44 69.015, 44 68.330 C 44 67.249, 55.798 63, 58.799 63 C 59.395 63, 60.153 62.562, 60.483 62.027 C 60.984 61.217, 64.006 25.854, 63.619 25.330 C 63.411 25.049, 27.875 32.791, 27.457 33.210 C 27.244 33.423, 30.204 36.041, 34.035 39.027 C 37.866 42.014, 41 44.845, 41 45.319 C 41 45.793, 36.730 51.752, 31.512 58.561 L 22.024 70.941 27.337 103.471 C 31.581 129.461, 32.368 136, 31.251 136 C 29.171 136, 29.672 137.202, 39.979 156.902 L 49.458 175.019 65.101 159.399 C 73.705 150.807, 80.981 144.166, 81.270 144.639 C 81.559 145.113, 83.467 151.575, 85.510 159 C 87.552 166.425, 89.631 172.936, 90.130 173.469 C 90.696 174.073, 96.387 169.153, 105.269 160.378 C 113.096 152.646, 126.475 140.326, 135 133.001 C 143.525 125.675, 151.740 118.541, 153.257 117.148 C 159.592 111.323, 158.324 116.133, 145.629 146.094 C 138.776 162.267, 133.319 175.650, 133.502 175.834 C 133.685 176.018, 143.616 174.265, 155.572 171.940 L 177.309 167.712 176.677 133.106 C 176.051 98.857, 176.079 98.159, 179.383 65.500 C 181.220 47.350, 182.617 32.370, 182.489 32.212 C 182.195 31.847, 130.931 22.018, 129.270 22.007 C 128.594 22.003, 127.132 23.782, 126.020 25.960 M 69 23.894 C 66.517 24.583, 66.492 24.707, 65.232 42.442 C 64.534 52.262, 64.120 60.454, 64.312 60.645 C 64.673 61.006, 74.889 58.159, 76.300 57.305 C 76.740 57.038, 75.945 55.306, 74.534 53.455 L 71.967 50.090 81.534 42.395 C 86.796 38.163, 90.741 34.376, 90.300 33.979 C 88.171 32.057, 73.376 23.017, 72.500 23.102 C 71.950 23.156, 70.375 23.512, 69 23.894 M 119.284 40 C 118.123 42.750, 117.471 44.997, 117.836 44.994 C 118.201 44.991, 120.186 44.521, 122.247 43.948 L 125.994 42.908 123.976 38.954 C 122.867 36.779, 121.833 35, 121.678 35 C 121.523 35, 120.446 37.250, 119.284 40 M 135.500 42.789 C 132.750 43.667, 130.352 44.484, 130.172 44.604 C 129.992 44.724, 131.748 48.919, 134.074 53.926 C 136.400 58.933, 138.516 62.818, 138.774 62.559 C 139.354 61.980, 142.906 45.169, 142.961 42.750 C 143.007 40.675, 142.102 40.679, 135.500 42.789 M 97 54.226 C 89.575 56.412, 83.311 58.382, 83.079 58.604 C 82.317 59.337, 87.316 64, 88.865 64 C 89.699 64, 94.166 62.767, 98.792 61.261 C 106.489 58.754, 107.371 58.194, 109.171 54.664 C 110.254 52.542, 110.996 50.682, 110.820 50.529 C 110.644 50.377, 104.425 52.041, 97 54.226 M 70.594 62.035 C 67.345 63.054, 64.315 64.475, 63.859 65.194 C 62.822 66.829, 62.739 71.993, 63.750 72.020 C 64.162 72.031, 69.090 70.613, 74.700 68.868 L 84.900 65.696 82.700 62.903 C 80.133 59.645, 78.572 59.533, 70.594 62.035 M 109 72.766 L 109 84.700 116.750 84.224 C 121.013 83.962, 124.637 83.630, 124.805 83.485 C 125.385 82.987, 111.326 61.609, 110.164 61.221 C 109.322 60.941, 109 64.134, 109 72.766 M 98.699 64.004 C 95.509 65.005, 92.213 66.088, 91.375 66.409 C 90.223 66.851, 91.734 69.194, 97.571 76.019 C 101.816 80.983, 105.389 84.922, 105.512 84.772 C 105.634 84.622, 106.043 79.438, 106.421 73.250 C 107.197 60.529, 107.731 61.168, 98.699 64.004 M 54.310 66.848 C 51.455 67.757, 48.872 68.758, 48.570 69.073 C 48.268 69.388, 49.325 70.895, 50.919 72.422 C 53.302 74.706, 54.366 75.078, 56.909 74.520 C 58.609 74.147, 60 73.258, 60 72.546 C 60 71.833, 60.281 69.844, 60.625 68.125 C 61.332 64.591, 61.374 64.600, 54.310 66.848 M 74.500 71.688 C 68.450 73.620, 63.389 75.304, 63.252 75.431 C 63.116 75.558, 62.715 78.438, 62.360 81.831 L 61.715 88 64.608 87.950 C 71.464 87.832, 100.027 85.306, 100.562 84.771 C 101.217 84.116, 87.294 67.949, 86.195 68.088 C 85.813 68.136, 80.550 69.756, 74.500 71.688 M 133.323 85.718 L 130.145 86.116 134.218 92.612 C 136.459 96.185, 138.620 98.747, 139.022 98.304 C 139.706 97.552, 144 86.474, 144 85.462 C 144 84.956, 138.327 85.091, 133.323 85.718 M 49.208 91.739 L 43.915 92.107 47.708 96.866 C 54.163 104.967, 57.069 108.266, 57.404 107.876 C 57.581 107.669, 58.023 103.787, 58.386 99.250 C 59.038 91.107, 59.017 91.002, 56.773 91.185 C 55.523 91.287, 52.118 91.536, 49.208 91.739 M 88.877 112.062 C 79.735 123.303, 72.398 132.663, 72.573 132.862 C 73.080 133.439, 103.814 130.733, 104.987 130.008 C 105.687 129.575, 105.953 122.971, 105.773 110.489 L 105.500 91.623 88.877 112.062" stroke="none" fill="black" fill-rule="evenodd"/>
</svg>