<svg xmlns="http://www.w3.org/2000/svg" width="200" height="200" viewBox="0 0 200 200" version="1.1">
	<path d="M 121.261 23.684 L 85.023 32.209 72.065 26.218 C 64.938 22.922, 58.858 20.475, 58.554 20.780 C 57.229 22.105, 58.540 23.156, 67.695 28.105 C 75.688 32.427, 77.048 33.490, 75.445 34.161 C 74.375 34.609, 64.828 36.997, 54.229 39.467 C 41.915 42.337, 32.220 45.224, 27.374 47.463 L 19.790 50.967 22.264 55.233 C 23.625 57.580, 30.693 70.188, 37.971 83.250 C 45.249 96.313, 51.720 106.989, 52.352 106.975 C 54.127 106.936, 90.505 84.453, 90.463 83.421 C 90.442 82.920, 83.147 76.207, 74.252 68.504 C 61.568 57.523, 58.447 54.347, 59.789 53.792 C 60.730 53.402, 70.008 51.465, 80.408 49.486 C 96.451 46.433, 99.757 46.071, 102.228 47.095 C 104.475 48.025, 105.021 48.781, 104.614 50.401 C 102.981 56.911, 92 108.484, 92 109.645 C 92 110.408, 98.443 105.670, 106.318 99.118 L 120.635 87.204 128.343 85.961 C 132.582 85.277, 136.229 84.895, 136.446 85.113 C 137.143 85.809, 142.788 118.480, 142.302 119 C 142.044 119.275, 116.334 119.632, 85.167 119.793 C 53.125 119.959, 28.364 120.474, 28.188 120.979 C 27.806 122.073, 28.745 122.334, 63.178 130.703 C 78.421 134.408, 90.804 137.529, 90.695 137.638 C 90.492 137.841, 34.431 148, 33.511 148 C 33.230 148, 33 148.675, 33 149.500 C 33 150.325, 33.130 151, 33.289 151 C 34.920 151, 87.289 158.956, 87.581 159.248 C 87.797 159.464, 76.392 164.049, 62.237 169.436 C 48.082 174.824, 36.125 179.577, 35.666 180 C 35.207 180.422, 38.672 181.339, 43.365 182.037 C 49.955 183.018, 65.855 183.150, 113.199 182.620 C 146.914 182.243, 176.208 181.672, 178.295 181.352 C 186.245 180.134, 181.182 178.481, 162.921 176.334 C 152.789 175.143, 143.482 174.131, 142.238 174.084 C 139.993 174.001, 137.555 170.808, 130.678 158.943 L 128.036 154.386 142.768 151.225 C 150.871 149.487, 159.863 147.562, 162.750 146.949 C 169.810 145.450, 169.612 143.474, 162.250 141.956 C 159.088 141.304, 147.725 138.862, 137 136.530 C 114.598 131.658, 113.912 132.241, 146 128.888 C 157.275 127.710, 166.594 126.672, 166.708 126.582 C 166.823 126.491, 168.923 117.436, 171.375 106.458 C 176.028 85.628, 176.310 82.476, 178.297 29.051 L 178.500 23.602 168.500 19.324 C 163 16.971, 158.275 15.071, 158 15.103 C 157.725 15.134, 141.193 18.995, 121.261 23.684 M 126 25.421 C 109.225 29.399, 94.163 32.990, 92.529 33.401 C 89.679 34.119, 89.899 34.310, 97.909 38.075 C 102.502 40.234, 106.395 42, 106.560 42 C 106.726 42, 107.005 40.998, 107.180 39.774 C 107.456 37.857, 110.260 36.543, 127.461 30.274 C 138.440 26.273, 147.954 23, 148.605 23 C 149.333 23, 150.627 27.716, 151.969 35.250 C 153.168 41.987, 154.327 48.063, 154.543 48.750 C 154.760 49.438, 154.307 50, 153.536 50 C 151.849 50, 151.641 49.315, 149.338 36.233 C 148.306 30.372, 147.095 26.129, 146.515 26.347 C 145.957 26.556, 137.508 29.601, 127.740 33.114 C 110.263 39.398, 109.965 39.554, 109.028 42.906 C 108.504 44.780, 108.279 46.643, 108.529 47.047 C 109.049 47.889, 145.471 68, 146.474 68 C 147.085 68, 137.116 48.511, 132.848 41.362 C 131.279 38.733, 131.208 38.134, 132.414 37.672 C 133.457 37.271, 136.589 42.253, 143.814 55.810 C 149.292 66.089, 153.633 74.655, 153.459 74.846 C 153.285 75.036, 142.873 69.528, 130.321 62.607 C 117.770 55.686, 107.410 50.356, 107.300 50.762 C 106.138 55.054, 95.991 103.319, 96.209 103.522 C 96.369 103.670, 100.775 100.197, 106 95.803 C 119.063 84.818, 119.100 84.798, 129.638 82.926 C 134.787 82.012, 139 81.335, 139 81.423 C 139 81.511, 140.587 90.516, 142.526 101.433 C 144.465 112.350, 145.875 121.458, 145.660 121.673 C 145.446 121.888, 122.050 122.162, 93.670 122.282 C 65.290 122.402, 43.292 122.832, 44.785 123.237 C 46.278 123.642, 58.750 126.726, 72.500 130.089 C 96.533 135.967, 100.176 137.158, 98.686 138.647 C 98.312 139.021, 85.992 141.495, 71.307 144.145 C 56.623 146.796, 44.156 149.115, 43.603 149.299 C 43.049 149.484, 55.062 151.390, 70.298 153.535 C 85.534 155.680, 98 157.715, 98 158.057 C 98 158.399, 86.412 163.099, 72.250 168.502 C 58.087 173.905, 46.139 178.636, 45.698 179.015 C 44.312 180.206, 108.424 181.049, 132.762 180.160 C 145.556 179.692, 156.263 179.070, 156.557 178.777 C 156.850 178.484, 153.132 177.919, 148.295 177.521 C 143.458 177.123, 138.929 176.331, 138.230 175.760 C 136.724 174.529, 123.636 152.998, 124.148 152.592 C 124.341 152.438, 132.566 150.581, 142.424 148.464 C 152.283 146.348, 159.933 144.487, 159.424 144.329 C 158.916 144.171, 147.925 141.765, 135 138.983 C 122.075 136.201, 110.713 133.687, 109.750 133.395 C 107.660 132.762, 107.392 130, 109.421 130 C 111.586 130, 164.325 124.012, 164.566 123.739 C 164.682 123.608, 166.619 115.175, 168.871 105 C 172.590 88.190, 173.055 84.490, 173.963 64.500 C 174.513 52.400, 175.223 38.651, 175.541 33.946 L 176.119 25.392 167.082 21.696 C 162.112 19.663, 157.697 18.043, 157.272 18.095 C 156.848 18.147, 142.775 21.444, 126 25.421 M 57.500 41.473 C 36.914 46.413, 23.420 51.011, 24.174 52.829 C 24.491 53.595, 52.101 103.211, 52.533 103.791 C 52.652 103.952, 60.477 99.380, 69.923 93.633 L 87.096 83.184 69.548 67.985 C 59.897 59.625, 52 52.657, 52 52.501 C 52 52.344, 61.923 50.304, 74.051 47.968 L 96.103 43.720 88.989 39.860 C 85.077 37.737, 81.341 36.044, 80.688 36.097 C 80.034 36.150, 69.600 38.570, 57.500 41.473 M 98.733 42.124 C 99.412 42.808, 100.219 43.115, 100.526 42.807 C 100.834 42.499, 100.279 41.940, 99.293 41.564 C 97.868 41.022, 97.753 41.136, 98.733 42.124" stroke="none" fill="black" fill-rule="evenodd"/>
</svg>