<svg xmlns="http://www.w3.org/2000/svg" width="200" height="200" viewBox="0 0 200 200" version="1.1">
	<path d="M 96 14.495 C 96 14.768, 99.005 23.178, 102.678 33.186 C 107.122 45.297, 108.961 51.513, 108.178 51.774 C 106.273 52.409, 106.830 55, 108.870 55 C 110.296 55, 111.379 56.797, 113.422 62.552 C 114.896 66.706, 116.322 70.675, 116.590 71.373 C 116.890 72.155, 115.696 73.065, 113.475 73.746 C 110.322 74.714, 107.861 74.311, 93.687 70.504 C 84.784 68.113, 75.588 65.654, 73.250 65.040 C 68.585 63.814, 67.309 60.671, 71 59.500 C 73.386 58.743, 73.533 57.206, 71.499 54.302 C 70.408 52.745, 70.210 51.142, 70.772 48.437 C 71.517 44.850, 71.846 44.605, 79.772 41.727 C 84.618 39.968, 88 38.177, 88 37.370 C 88 35.649, 89.312 35.600, 49.583 38.827 C 27.057 40.656, 16.541 41.877, 16.269 42.693 C 15.738 44.287, 19.585 44.806, 37 45.487 C 61.427 46.442, 63.427 46.761, 65.343 50.004 C 66.254 51.547, 67 53.939, 67 55.321 C 67 57.678, 66.023 58.157, 51.250 63.042 C 42.587 65.906, 35.153 68.563, 34.729 68.946 C 34.090 69.523, 40.692 128.872, 41.497 129.793 C 41.638 129.954, 48.133 128.912, 55.931 127.478 C 63.729 126.043, 70.509 125.011, 70.999 125.185 C 71.488 125.358, 60.248 136.746, 46.020 150.492 C 31.792 164.238, 20.294 175.627, 20.469 175.802 C 21.450 176.783, 51.040 167.779, 66.720 161.728 C 76.777 157.848, 85.157 154.859, 85.342 155.086 C 85.527 155.314, 90.777 164.162, 97.008 174.748 C 103.239 185.335, 108.443 193.885, 108.574 193.748 C 108.704 193.612, 109.769 179.550, 110.941 162.500 C 112.113 145.450, 113.328 129.925, 113.640 128 C 114.180 124.678, 114.668 125.418, 123.217 142.500 C 128.171 152.400, 132.323 160.611, 132.442 160.746 C 132.755 161.101, 185.244 171, 186.813 171 C 188.892 171, 148.394 137.196, 137.695 130 C 132.379 126.425, 128.023 123.231, 128.015 122.902 C 128.007 122.574, 136.379 118.749, 146.619 114.402 C 156.859 110.056, 165.440 105.982, 165.688 105.349 C 166.262 103.881, 159.410 54.077, 158.510 53.175 C 158.140 52.804, 150.111 52.333, 140.669 52.128 L 123.500 51.756 140.844 48.451 C 150.383 46.633, 158.319 45, 158.479 44.823 C 159.706 43.459, 167.853 26.001, 167.260 26.006 C 166.842 26.009, 155.282 28.934, 141.571 32.506 C 127.861 36.077, 116.531 39, 116.395 39 C 116.259 39, 112.230 33.375, 107.441 26.500 C 102.652 19.625, 98.119 14, 97.367 14 C 96.615 14, 96 14.223, 96 14.495 M 106.938 36.750 C 112.370 51.809, 112.070 51.215, 113.995 50.712 C 114.941 50.464, 124.944 48.554, 136.224 46.466 L 156.733 42.671 159.857 36.336 C 161.575 32.851, 162.766 30, 162.504 30 C 162.241 30, 151.738 32.700, 139.163 36 C 126.588 39.300, 116.018 42, 115.673 42 C 115.327 42, 112.522 38.400, 109.439 34 C 106.356 29.600, 103.659 26, 103.447 26 C 103.234 26, 104.805 30.837, 106.938 36.750 M 52 41.428 L 39.500 42.556 52 43.355 C 63.108 44.065, 64.692 44.396, 66.228 46.327 L 67.956 48.500 67.978 45.886 C 67.995 43.814, 68.778 42.952, 71.750 41.733 L 75.500 40.194 70 40.247 C 66.975 40.276, 58.875 40.807, 52 41.428 M 114 55.593 C 114 57.303, 119.376 71, 120.047 71 C 120.480 71, 122.960 70.089, 125.559 68.975 C 128.157 67.861, 130.557 67.222, 130.892 67.555 C 131.623 68.283, 135.004 83.329, 134.540 83.793 C 134.361 83.972, 131.730 83.470, 128.693 82.677 L 123.171 81.235 126.686 90.867 C 134.186 111.418, 135.337 114.997, 134.663 115.670 C 133.405 116.929, 132.302 114.680, 126.417 98.851 C 121.066 84.458, 120.434 83.265, 118.549 83.987 C 117.422 84.419, 106.717 88.893, 94.760 93.930 L 73.020 103.088 66.892 98.926 C 63.406 96.559, 61.230 94.476, 61.846 94.095 C 62.869 93.463, 65.971 71.178, 65.991 64.325 L 66 61.150 52.250 65.703 C 44.688 68.207, 38.156 70.564, 37.737 70.941 C 37.013 71.591, 43.184 125.554, 44.077 126.377 C 44.309 126.592, 52.375 125.314, 62 123.537 C 71.625 121.761, 79.667 120.442, 79.871 120.608 C 80.253 120.917, 40.858 159.640, 33.224 166.460 C 30.872 168.561, 29.108 170.442, 29.305 170.639 C 30.194 171.527, 52.115 164.513, 68.291 158.165 C 86.051 151.196, 86.078 151.189, 87.413 153.343 C 88.149 154.529, 92.725 162.194, 97.583 170.376 C 102.441 178.558, 106.515 184.858, 106.636 184.376 C 106.757 183.894, 107.808 169.325, 108.972 152 C 110.136 134.675, 111.406 119.236, 111.794 117.691 C 112.422 115.192, 113.703 117.298, 123.370 136.716 L 134.240 158.550 155.370 162.427 C 166.991 164.560, 177.175 166.538, 178 166.823 C 181.452 168.017, 147.442 140.063, 135.255 131.690 C 127.971 126.685, 122.346 122.281, 122.755 121.903 C 123.165 121.525, 132.275 117.491, 143 112.939 C 153.725 108.386, 162.675 104.525, 162.888 104.359 C 163.102 104.193, 161.776 93.019, 159.943 79.529 L 156.610 55 135.305 55 C 123.587 55, 114 55.267, 114 55.593 M 68.566 68.250 C 67.858 70.633, 66.004 91.337, 66.458 91.791 C 66.935 92.268, 102.916 78.213, 104.287 77.014 C 105.243 76.178, 84.397 70.532, 81.298 70.788 C 80.086 70.888, 77.011 70.077, 74.465 68.985 C 68.999 66.642, 69.042 66.647, 68.566 68.250 M 124.201 72.266 C 119.408 73.793, 120.139 77.029, 125.711 78.956 C 128.027 79.756, 130.172 80.162, 130.477 79.857 C 131.322 79.011, 129.576 71.677, 128.471 71.431 C 127.937 71.312, 126.016 71.688, 124.201 72.266 M 116 76 C 116 76.550, 116.450 77, 117 77 C 117.550 77, 118 76.550, 118 76 C 118 75.450, 117.550 75, 117 75 C 116.450 75, 116 75.450, 116 76 M 88.759 86.353 C 77.352 90.915, 67.765 94.901, 67.457 95.210 C 67.148 95.519, 68.414 96.711, 70.271 97.858 L 73.647 99.945 96.385 90.297 C 110.256 84.411, 118.612 80.363, 117.812 79.916 C 113.038 77.248, 109.641 78.001, 88.759 86.353" stroke="none" fill="black" fill-rule="evenodd"/>
</svg>