<svg xmlns="http://www.w3.org/2000/svg" width="200" height="200" viewBox="0 0 200 200" version="1.1">
	<path d="M 53.373 22.750 L 54.003 27.500 39.796 26.788 C 31.983 26.397, 25.406 26.260, 25.182 26.485 C 24.957 26.710, 25.179 34.455, 25.676 43.697 C 26.489 58.827, 26.303 63.275, 23.811 88.380 C 22.289 103.714, 21.342 116.764, 21.708 117.380 C 22.074 117.996, 24.064 120.757, 26.130 123.515 L 29.886 128.530 34.254 158.243 C 36.657 174.586, 38.941 188.274, 39.328 188.662 C 39.716 189.049, 40.436 188.947, 40.928 188.433 C 41.420 187.920, 45.543 175.800, 50.090 161.500 L 58.358 135.500 58.929 120 L 59.500 104.500 61.933 124.750 C 63.271 135.887, 64.735 145, 65.186 145 C 65.637 145, 72.589 143.183, 80.633 140.963 C 88.678 138.743, 95.458 137.124, 95.699 137.366 C 95.941 137.608, 90.439 148.231, 83.472 160.972 C 76.506 173.714, 70.962 184.285, 71.153 184.464 C 71.746 185.020, 114.455 159.227, 115.265 157.825 C 115.685 157.096, 118.504 139.656, 121.530 119.068 C 124.555 98.481, 127.288 81.381, 127.603 81.068 C 127.918 80.756, 127.921 84.100, 127.609 88.500 C 127.296 92.900, 126.770 107.092, 126.440 120.038 L 125.839 143.576 134.491 162.538 C 139.250 172.967, 143.461 181.827, 143.849 182.227 C 144.237 182.627, 147.375 174.454, 150.822 164.064 L 157.090 145.173 168.972 131.737 L 180.854 118.301 181.570 81.400 L 182.286 44.500 166.668 37.230 C 158.078 33.232, 149.750 29.700, 148.161 29.382 C 145.627 28.875, 145.113 28.141, 143.977 23.402 C 143.264 20.431, 142.340 18, 141.923 18 C 141.506 18, 140.392 20.025, 139.447 22.500 C 138.388 25.273, 137.109 26.997, 136.114 26.993 C 135.226 26.989, 125.743 25.458, 115.040 23.591 L 95.580 20.195 91.621 24.693 L 87.662 29.191 73.081 28.470 C 64.301 28.036, 58.221 27.310, 57.799 26.645 C 57.414 26.038, 56.812 23.844, 56.461 21.770 C 56.047 19.317, 55.286 18, 54.283 18 C 53.023 18, 52.857 18.866, 53.373 22.750 M 94.218 25.919 L 92.094 28.791 94.297 29.382 C 95.509 29.707, 99.425 29.981, 103 29.992 C 116.491 30.031, 129 31.262, 129 32.551 C 129 33.567, 123.139 36.428, 110.250 41.702 C 109.563 41.984, 109 41.534, 109 40.703 C 109 39.814, 111.265 38.252, 114.500 36.912 C 117.525 35.658, 120 34.265, 120 33.816 C 120 33.098, 110.801 32.651, 93.677 32.536 L 88.354 32.500 77.677 44.500 C 71.805 51.100, 67.563 56.619, 68.250 56.763 C 68.938 56.908, 75.125 56.004, 82 54.753 C 94.235 52.527, 94.507 52.421, 94.816 49.740 C 95.220 46.241, 97 46.148, 97 49.625 C 97 51.951, 97.313 52.189, 99.750 51.716 C 101.263 51.423, 108.432 50.167, 115.681 48.925 L 128.863 46.669 132.457 38.693 C 134.434 34.307, 135.880 30.546, 135.670 30.337 C 135.461 30.128, 127.462 28.607, 117.895 26.959 C 108.328 25.310, 99.564 23.756, 98.421 23.504 C 96.969 23.186, 95.699 23.915, 94.218 25.919 M 140.638 26.500 C 140.322 27.325, 140.499 28, 141.031 28 C 141.564 28, 142 27.325, 142 26.500 C 142 25.675, 141.823 25, 141.607 25 C 141.391 25, 140.955 25.675, 140.638 26.500 M 28.515 46.229 C 29.118 61.132, 28.847 67.098, 26.543 89.743 L 23.872 115.985 28.256 121.743 L 32.640 127.500 36.501 154.236 C 38.624 168.940, 40.531 180.802, 40.738 180.595 C 40.945 180.388, 44.466 169.560, 48.563 156.532 L 56.012 132.845 56.667 105.893 C 57.123 87.169, 57.655 79.052, 58.411 79.304 C 59.054 79.518, 60.995 92.267, 63.146 110.396 C 65.151 127.297, 66.951 141.268, 67.146 141.442 C 67.341 141.617, 75.150 139.626, 84.500 137.019 C 93.850 134.412, 101.613 132.366, 101.751 132.473 C 101.888 132.580, 96.627 142.519, 90.059 154.559 C 83.491 166.599, 78.282 176.615, 78.484 176.817 C 78.686 177.019, 86.524 172.588, 95.903 166.971 C 111.272 157.766, 113.009 156.448, 113.504 153.629 C 113.805 151.908, 116.277 135.425, 118.996 117 C 123.921 83.624, 127.530 65, 129.071 65 C 129.517 65, 130.124 65.392, 130.420 65.871 C 130.716 66.350, 130.468 84.013, 129.867 105.121 L 128.775 143.500 136.282 159.851 L 143.789 176.203 149.067 160.264 L 154.345 144.325 166.043 130.951 L 177.741 117.576 178.360 99.038 C 178.701 88.842, 179.083 72.853, 179.210 63.508 L 179.440 46.515 173.970 43.840 C 159.415 36.724, 147.937 31.730, 147.390 32.276 C 147.057 32.609, 147.369 35.162, 148.084 37.950 L 149.383 43.018 154.191 42.380 C 156.836 42.029, 159.003 42.138, 159.007 42.621 C 159.011 43.105, 158.298 48.469, 157.423 54.542 L 155.832 65.584 159.814 79.352 L 163.796 93.120 156.777 105.810 C 147.302 122.939, 146.997 123.397, 145.824 122.224 C 145.171 121.571, 146.229 111.784, 148.933 93.465 L 153.032 65.695 150.352 56.098 C 148.878 50.819, 147.633 46.430, 147.586 46.345 C 147.324 45.873, 131.526 49.085, 130.940 49.730 C 130.555 50.153, 127.234 57.475, 123.559 66 C 119.884 74.525, 111.842 90.255, 105.689 100.955 L 94.500 120.409 94.214 108.955 C 94.056 102.655, 94.056 88.162, 94.214 76.749 C 94.492 56.568, 94.445 55.998, 92.500 56.003 C 89.870 56.010, 62.809 60.858, 62.243 61.424 C 62.002 61.664, 62.406 66.055, 63.141 71.181 C 64.766 82.516, 64.761 82.246, 63.382 82.706 C 62.732 82.923, 60.587 78.188, 58.263 71.411 C 54.534 60.534, 54.390 59.711, 56.132 59.255 C 57.159 58.987, 58.001 58.032, 58.001 57.133 C 58.004 53.821, 54.687 31.479, 54.104 30.877 C 53.772 30.535, 47.721 29.963, 40.658 29.606 L 27.816 28.958 28.515 46.229 M 59.293 33.011 C 59.582 34.116, 60.848 39.291, 62.106 44.511 C 63.364 49.730, 64.668 54, 65.004 54 C 65.339 54, 69.951 49.108, 75.251 43.128 L 84.889 32.257 80.305 31.628 C 77.784 31.283, 71.906 31, 67.244 31 C 59.244 31, 58.796 31.113, 59.293 33.011 M 135.646 38.181 C 133.799 42.206, 132.357 45.596, 132.441 45.713 C 132.585 45.916, 146.272 43.845, 146.709 43.554 C 146.824 43.478, 146.124 40.734, 145.154 37.458 C 143.764 32.764, 142.924 31.432, 141.196 31.181 C 139.342 30.911, 138.482 31.997, 135.646 38.181 M 151.476 46.038 C 150.651 47.374, 153.158 57.266, 154.067 56.259 C 154.444 55.841, 155.048 53.138, 155.410 50.250 C 156.010 45.466, 155.893 45, 154.093 45 C 153.007 45, 151.829 45.467, 151.476 46.038 M 60.079 51.583 C 60.127 52.748, 60.364 52.985, 60.683 52.188 C 60.972 51.466, 60.936 50.603, 60.604 50.271 C 60.272 49.939, 60.036 50.529, 60.079 51.583 M 113.500 52.040 C 108 53.058, 102.037 54.161, 100.250 54.491 L 97 55.091 97.003 82.795 L 97.007 110.500 105.137 96.500 C 111.942 84.780, 124.204 59.236, 126.507 51.978 C 127.275 49.559, 126.887 49.561, 113.500 52.040 M 61.158 56 C 61.158 57.375, 61.385 57.938, 61.662 57.250 C 61.940 56.563, 61.940 55.438, 61.662 54.750 C 61.385 54.063, 61.158 54.625, 61.158 56 M 154.656 75 C 154.181 76.246, 149 110.906, 149 112.834 C 149 113.922, 151.588 109.688, 156.232 101 L 160.776 92.500 158.001 83 C 156.475 77.775, 154.970 74.175, 154.656 75" stroke="none" fill="black" fill-rule="evenodd"/>
</svg>