<svg xmlns="http://www.w3.org/2000/svg" width="200" height="200" viewBox="0 0 200 200" version="1.1">
	<path d="M 64.623 12.540 C 64.280 13.433, 64 23.352, 64 34.582 L 64 55 66.250 54.956 C 67.487 54.932, 70.412 54.543, 72.750 54.091 C 75.702 53.520, 76.999 53.609, 76.996 54.384 C 76.994 54.998, 75.268 62.039, 73.161 70.031 L 69.329 84.562 74.664 97.482 C 77.599 104.588, 80 110.641, 80 110.932 C 80 111.224, 75.500 106.979, 70 101.500 C 62.787 94.314, 60.007 92.090, 60.026 93.519 C 60.040 94.608, 62.057 109.900, 64.509 127.500 L 68.967 159.500 61.733 166.282 C 57.755 170.012, 51.476 175.783, 47.781 179.108 L 41.061 185.152 41.564 178.826 C 42.442 167.783, 44.997 119.663, 44.720 119.386 C 44.573 119.240, 38.451 122.942, 31.114 127.614 C 23.777 132.285, 17.585 135.919, 17.355 135.689 C 17.125 135.459, 21.194 125.521, 26.397 113.605 L 35.857 91.939 29.929 77.408 C 26.668 69.415, 24.009 62.342, 24.019 61.688 C 24.030 61.035, 28.329 54.717, 33.572 47.650 L 43.106 34.799 42.416 25.400 C 41.892 18.259, 41.384 16, 40.303 16 C 39.129 16, 38.990 17.619, 39.512 25.250 L 40.145 34.500 30.573 47.264 C 25.308 54.284, 21 60.609, 21 61.320 C 21 62.031, 23.661 69.216, 26.914 77.287 L 32.828 91.960 21.888 117.121 C 15.872 130.960, 11.130 142.464, 11.352 142.686 C 11.574 142.907, 18.448 138.842, 26.628 133.652 C 34.808 128.462, 41.587 124.291, 41.692 124.383 C 41.798 124.476, 41.054 139.390, 40.038 157.526 C 39.022 175.662, 38.347 190.661, 38.537 190.859 C 38.728 191.056, 46.305 184.326, 55.376 175.904 C 69.725 162.582, 71.810 160.260, 71.424 158.046 C 71.179 156.646, 69.399 143.575, 67.468 129 C 65.537 114.425, 63.762 101.628, 63.523 100.562 C 63.284 99.496, 67.787 103.306, 73.528 109.028 C 80.127 115.605, 84.311 119.077, 84.900 118.466 C 85.482 117.863, 83.300 111.311, 79.085 101.014 L 72.338 84.528 75.223 73.014 C 80.145 53.371, 79.979 53.849, 81.726 54.187 C 82.717 54.379, 85.562 59.500, 89.093 67.452 L 94.845 80.404 90.986 83.242 L 87.127 86.079 98.199 99.790 C 104.288 107.330, 109.958 114.943, 110.799 116.707 C 112.275 119.800, 112.099 120.684, 105.821 141.707 L 99.314 163.500 84.688 174 C 76.644 179.775, 70.048 185.115, 70.031 185.867 C 69.987 187.801, 70.543 187.590, 98.869 174.965 L 124.237 163.658 144.076 173.538 C 154.988 178.972, 164.083 183.211, 164.288 182.959 C 164.796 182.333, 180.115 153.671, 180.329 152.946 C 180.423 152.628, 176.787 145.589, 172.250 137.304 C 167.713 129.019, 164 121.795, 164 121.252 C 164 120.709, 167.419 111.174, 171.599 100.064 C 175.778 88.954, 179.041 79.728, 178.849 79.561 C 178.657 79.394, 169.500 77.095, 158.500 74.453 C 147.500 71.811, 138.162 69.368, 137.749 69.024 C 137.335 68.679, 147.413 63.492, 160.144 57.497 C 172.875 51.502, 182.663 46.385, 181.895 46.125 C 181.128 45.866, 174.882 44.494, 168.015 43.077 L 155.530 40.500 151.515 31.293 C 149.307 26.229, 147.235 21.839, 146.912 21.538 C 146.588 21.237, 136.510 26.651, 124.516 33.571 C 104.128 45.333, 102.160 46.247, 94.257 47.626 C 89.608 48.438, 85.334 48.945, 84.760 48.753 C 84.185 48.562, 80.066 40.136, 75.607 30.030 C 71.148 19.925, 66.993 11.489, 66.373 11.286 C 65.753 11.082, 64.966 11.646, 64.623 12.540 M 66.819 34.542 C 66.620 43.869, 66.551 51.658, 66.664 51.851 C 66.921 52.292, 81 49.949, 81 49.465 C 81 49.271, 77.890 42.018, 74.090 33.348 L 67.179 17.584 66.819 34.542 M 123.853 37.013 C 105.212 47.787, 102.491 49.061, 95.853 50.115 C 91.809 50.757, 88.170 51.571, 87.767 51.924 C 87.364 52.277, 95.014 54.524, 104.767 56.917 C 114.520 59.310, 123.099 61.583, 123.831 61.969 C 124.704 62.429, 120.528 65.871, 111.665 71.996 L 98.168 81.323 100.418 86.412 C 101.655 89.210, 104.625 96, 107.018 101.500 C 109.411 107, 112.420 112.904, 113.704 114.619 C 114.987 116.335, 115.794 118.373, 115.497 119.148 C 115.199 119.923, 115.528 121.296, 116.228 122.199 C 117.363 123.663, 118.938 122.807, 130.837 114.258 C 140.615 107.234, 143.787 104.460, 142.722 103.864 C 139.030 101.798, 108.432 91, 106.269 91 C 103.581 91, 103.579 88.711, 106.266 88.190 C 107.538 87.943, 148.667 102.334, 149.731 103.397 C 150.057 103.723, 117.443 127.337, 115.982 127.833 C 115.442 128.017, 115 127.379, 115 126.417 C 115 122.467, 113.197 127.105, 107.473 145.776 L 101.447 165.435 93.182 171.343 C 88.637 174.592, 85.082 177.415, 85.282 177.616 C 85.483 177.817, 94.346 174.087, 104.978 169.329 L 124.308 160.677 143.592 170.304 L 162.875 179.931 169.938 166.767 C 173.822 159.526, 177 153.177, 177 152.658 C 177 152.138, 173.400 145.092, 169 137 C 164.600 128.908, 161.003 121.885, 161.006 121.393 C 161.010 120.902, 164.157 112.175, 168 102 C 171.843 91.825, 174.990 82.978, 174.994 82.339 C 174.997 81.652, 166.123 79.051, 153.250 75.966 C 141.287 73.099, 130.900 70.433, 130.168 70.041 C 128.792 69.305, 131.890 67.704, 160.370 54.430 L 175.240 47.500 169.870 46.338 C 166.916 45.699, 162.025 44.674, 159 44.061 L 153.500 42.946 149.860 34.260 C 147.858 29.482, 145.833 25.462, 145.360 25.326 C 144.887 25.190, 135.209 30.449, 123.853 37.013 M 87 55.544 C 87 56.314, 96.778 78.138, 97.200 78.309 C 97.761 78.537, 119.094 63.761, 118.729 63.396 C 118.289 62.955, 87 55.212, 87 55.544 M 93.257 84.818 L 91.043 86.500 97.182 94.256 C 100.558 98.522, 103.480 101.853, 103.676 101.658 C 104.019 101.315, 96.757 84.423, 95.896 83.562 C 95.662 83.328, 94.474 83.894, 93.257 84.818" stroke="none" fill="black" fill-rule="evenodd"/>
</svg>