<svg xmlns="http://www.w3.org/2000/svg" width="200" height="200" viewBox="0 0 200 200" version="1.1">
	<path d="M 95.610 26.050 L 77.720 47.500 72.610 47.644 C 69.800 47.723, 60.155 47.835, 51.177 47.894 C 36.791 47.987, 34.892 48.190, 35.177 49.597 C 35.451 50.954, 50.559 58, 53.193 58 C 54.530 58, 54.099 55.006, 52.750 54.926 C 52.063 54.885, 49.700 54.018, 47.500 53 L 43.500 51.148 56 51.153 L 68.500 51.157 77.712 61.329 C 82.779 66.923, 87.017 71.950, 87.131 72.500 C 87.244 73.050, 82.190 76.707, 75.898 80.626 L 64.458 87.752 48.479 86.922 C 24.747 85.689, 19 85.763, 19 87.299 C 19 88.151, 22.867 89.385, 30.250 90.888 C 40.971 93.071, 65.168 99.526, 67.690 100.876 C 68.480 101.298, 65.205 107.343, 57.949 118.853 C 48.266 134.215, 45.306 137.993, 32.009 151.958 C 23.754 160.627, 17 167.925, 17 168.174 C 17 168.691, 34.493 166.408, 36.534 165.625 C 37.270 165.343, 45.950 158.787, 55.824 151.056 L 73.775 137 79.387 137 L 85 137 85 141.563 C 85 146.631, 83.283 173.111, 82.524 179.750 C 81.919 185.040, 81.829 185.035, 99.500 180.661 L 112.500 177.443 113.238 159.472 C 113.644 149.587, 113.704 132.613, 113.372 121.750 C 113.040 110.887, 113.008 102, 113.301 102 C 113.594 102, 115.735 107.738, 118.059 114.750 C 122.160 127.129, 122.643 127.998, 134.643 144.593 L 147.004 161.685 164.219 158.792 C 173.687 157.201, 181.643 155.690, 181.899 155.434 C 182.155 155.178, 179.205 150.391, 175.343 144.797 L 168.320 134.624 149.410 123.820 L 130.500 113.017 127.353 102.508 C 125.623 96.729, 124.498 92.004, 124.853 92.009 C 125.209 92.013, 136.506 93.119, 149.958 94.467 C 163.410 95.814, 174.493 96.823, 174.585 96.708 C 174.826 96.412, 171.885 72.555, 171.569 72.237 C 171.425 72.092, 163.615 75.422, 154.214 79.636 L 137.121 87.298 123.113 81.476 L 109.104 75.654 119.802 65.441 L 130.500 55.227 146.500 54.492 C 165.018 53.640, 171.199 52.902, 171.671 51.487 C 172.024 50.429, 144.404 36.990, 141.924 37.013 C 141.141 37.020, 134.875 38.814, 128 41 C 121.125 43.186, 115.172 44.980, 114.771 44.987 C 114.370 44.994, 113.920 35.910, 113.771 24.800 L 113.500 4.599 95.610 26.050 M 94.500 31.499 C 80.461 48.512, 78.110 50.926, 75.316 51.194 L 72.131 51.500 82.022 62 C 87.462 67.775, 91.933 72.812, 91.957 73.193 C 91.980 73.574, 86.085 77.561, 78.855 82.053 L 65.709 90.219 51.972 89.842 L 38.235 89.464 55.269 94.217 C 64.638 96.831, 72.494 99.160, 72.726 99.393 C 72.959 99.625, 67.886 108.190, 61.454 118.424 C 51.499 134.265, 47.850 139.071, 36.927 150.731 C 29.870 158.265, 24.214 164.547, 24.359 164.693 C 24.504 164.838, 27.188 164.539, 30.323 164.029 C 35.621 163.166, 37.332 162.077, 54.622 148.551 L 73.222 134 80.611 134 L 88 134 87.937 139.250 C 87.902 142.137, 87.290 152.600, 86.576 162.500 C 85.862 172.400, 85.374 180.620, 85.490 180.767 C 85.606 180.914, 90.988 179.813, 97.450 178.320 C 107.948 175.896, 109.305 175.334, 110.194 173.053 C 110.816 171.455, 111.050 155.822, 110.820 131.270 C 110.537 101.209, 110.734 91.932, 111.661 91.576 C 112.449 91.274, 114.169 95.027, 116.580 102.306 C 123.905 124.423, 125.228 127.078, 136.960 143.224 L 148.176 158.662 161.838 156.355 C 169.352 155.087, 176.090 153.925, 176.811 153.774 C 177.642 153.600, 175.944 150.386, 172.177 145 L 166.231 136.500 147.152 125.652 C 136.658 119.685, 127.861 114.060, 127.602 113.152 C 127.344 112.243, 125.753 106.950, 124.066 101.389 C 122.380 95.828, 121 90.738, 121 90.079 C 121 89.192, 122.895 89.059, 128.250 89.570 C 132.238 89.950, 135.275 90.038, 135 89.767 C 134.725 89.495, 127.842 86.460, 119.705 83.022 C 111.568 79.584, 105.043 76.478, 105.205 76.120 C 105.367 75.762, 110.692 70.469, 117.039 64.358 C 130.231 51.655, 128.115 52.465, 151 51.367 L 165.500 50.671 153.604 44.955 L 141.709 39.240 127.142 44.120 C 119.130 46.804, 112.161 49, 111.655 49 C 111.111 49, 110.924 41.436, 111.198 30.500 C 111.453 20.325, 111.400 12.025, 111.081 12.055 C 110.761 12.085, 103.300 20.835, 94.500 31.499 M 153.806 82.833 C 145.725 86.500, 138.867 89.757, 138.568 90.072 C 138.268 90.387, 144.205 91.196, 151.761 91.870 C 159.318 92.544, 166.865 93.331, 168.533 93.618 L 171.565 94.141 170.640 85.071 C 170.131 80.082, 169.441 76.038, 169.107 76.083 C 168.773 76.129, 161.888 79.167, 153.806 82.833" stroke="none" fill="black" fill-rule="evenodd"/>
</svg>