<svg xmlns="http://www.w3.org/2000/svg" width="200" height="200" viewBox="0 0 200 200" version="1.1">
	<path d="M 75.638 16.250 C 74.812 19.138, 72.686 26.562, 70.916 32.750 L 67.697 44 52.504 44 C 31.535 44, 15.846 45.037, 16.298 46.393 C 16.497 46.990, 24.949 48.688, 35.080 50.166 C 45.211 51.644, 53.612 52.886, 53.750 52.926 C 53.888 52.967, 54 59.005, 54 66.345 C 54 78.663, 53.837 79.837, 51.886 81.595 C 44.247 88.477, 15.952 119.114, 16.466 119.946 C 16.843 120.555, 22.705 118.156, 31.035 113.983 L 44.973 107 46.374 110.250 C 47.145 112.038, 49.366 117.172, 51.311 121.660 L 54.847 129.819 52.919 156.072 C 51.859 170.511, 51.120 182.453, 51.276 182.610 C 51.433 182.766, 58.044 181.192, 65.968 179.111 C 77.039 176.204, 80.554 174.885, 81.149 173.414 C 81.575 172.361, 83.280 163.448, 84.938 153.607 C 86.596 143.766, 88.141 135.525, 88.372 135.295 C 88.603 135.064, 98.504 136.803, 110.374 139.159 C 122.244 141.516, 131.628 143.753, 131.228 144.131 C 130.828 144.508, 125.325 147.137, 119 149.973 C 112.675 152.808, 107.118 155.503, 106.651 155.963 C 105.958 156.644, 133.876 186.791, 136.136 187.802 C 136.507 187.968, 142.504 181.218, 149.462 172.802 L 162.113 157.500 161.481 137 C 161.134 125.725, 160.686 115.971, 160.485 115.325 C 160.285 114.679, 160.625 104.223, 161.241 92.090 C 161.858 79.956, 162.154 69.821, 161.900 69.567 C 161.646 69.313, 153.577 70.196, 143.969 71.529 C 130.798 73.356, 121.990 73.958, 108.171 73.976 L 89.841 74 90.548 70.750 C 91.798 65.003, 92.704 63.621, 99.817 56.623 L 106.807 49.745 130.653 51.952 L 154.500 54.159 167.250 47.409 C 179.420 40.966, 182.715 38, 177.700 38 C 170.015 38, 145.677 40.494, 128.540 43.038 C 117.562 44.667, 107.720 46, 106.670 46 C 104.854 46, 104.778 45.208, 105.130 29.844 C 105.377 19.080, 105.148 13.567, 104.444 13.326 C 103.828 13.114, 100.605 23.277, 96.705 37.731 L 90.022 62.500 82.761 69.249 L 75.500 75.997 80.750 75.999 C 83.638 75.999, 86 76.210, 86 76.466 C 86 76.723, 82.850 88.438, 79 102.500 C 75.150 116.562, 72 128.691, 72 129.454 C 72 130.423, 73.959 131.051, 78.500 131.537 C 84.077 132.134, 85 132.514, 85 134.213 C 85 136.404, 79.055 172.278, 78.620 172.713 C 78.022 173.311, 54.782 179.116, 54.423 178.757 C 54.212 178.545, 54.688 169.626, 55.481 158.936 C 57.845 127.088, 58.077 129.920, 51.970 116.119 C 49.021 109.453, 46.238 104, 45.786 104 C 45.334 104, 40.359 106.297, 34.732 109.105 L 24.500 114.209 28 110.373 C 29.925 108.263, 37.237 100.583, 44.250 93.307 L 57 80.077 57 65.211 L 57 50.344 46.250 48.806 L 35.500 47.268 52.711 47.134 L 69.923 47 71.035 42.750 C 74.540 29.361, 78.046 18.485, 78.957 18.181 C 79.531 17.990, 80 16.296, 80 14.417 C 80 9.014, 77.397 10.108, 75.638 16.250 M 98.522 41.254 C 96.422 49.089, 94.479 56.175, 94.204 57 C 93.930 57.825, 95.510 56.781, 97.716 54.680 L 101.727 50.860 102.255 39.180 C 102.546 32.756, 102.684 27.389, 102.562 27.254 C 102.440 27.118, 100.622 33.418, 98.522 41.254 M 158 42.091 C 152.775 42.540, 141.322 43.932, 132.549 45.184 C 114.481 47.763, 114.659 47.897, 139 50.015 L 153.500 51.277 162.750 46.628 C 167.838 44.072, 172 41.759, 172 41.490 C 172 40.930, 171.027 40.972, 158 42.091 M 84.655 70.829 C 82.483 73.229, 82.567 74, 85 74 C 86.100 74, 87 73.587, 87 73.082 C 87 72.577, 87.273 71.452, 87.607 70.582 C 88.430 68.436, 86.688 68.582, 84.655 70.829 M 145.752 73.959 C 139.290 74.896, 133.787 75.879, 133.523 76.143 C 133.259 76.407, 134.159 80.790, 135.522 85.884 C 136.885 90.977, 138 95.488, 138 95.908 C 138 96.328, 135.189 97.454, 131.754 98.409 L 125.508 100.145 131.504 103.560 C 134.802 105.438, 137.838 106.981, 138.250 106.987 C 138.662 106.994, 139 107.393, 139 107.872 C 139 109.494, 118.994 136.476, 117.369 137.046 C 116.482 137.357, 121.477 138.648, 128.469 139.916 C 135.460 141.183, 140.802 142.581, 140.340 143.023 C 139.596 143.734, 126.390 149.841, 114.139 155.138 L 109.777 157.024 122.568 170.262 C 129.603 177.543, 135.659 183.627, 136.026 183.782 C 136.393 183.937, 141.598 178.094, 147.591 170.796 L 158.490 157.528 158.495 114.764 C 158.498 91.244, 158.275 72.057, 158 72.127 C 157.725 72.197, 152.213 73.021, 145.752 73.959 M 87.920 80.351 C 87.314 82.633, 84.175 94.168, 80.943 105.984 C 77.712 117.800, 75.390 127.739, 75.784 128.071 C 76.996 129.092, 117.374 134.034, 118.045 133.243 C 119.877 131.087, 134.205 110.624, 134.567 109.647 C 135.054 108.329, 124.057 101.993, 121.321 102.014 C 120.319 102.022, 113.457 103.816, 106.070 106.001 C 98.684 108.186, 92.460 109.793, 92.239 109.572 C 91.930 109.263, 101.273 90.868, 102.624 89.126 C 102.783 88.921, 107.076 90.903, 112.164 93.530 L 121.414 98.308 127.957 96.567 C 131.556 95.609, 134.591 94.736, 134.703 94.627 C 134.814 94.517, 134.001 90.898, 132.896 86.583 C 131.791 82.269, 131.078 78.235, 131.312 77.619 C 131.617 76.818, 125.671 76.458, 110.380 76.351 L 89.022 76.203 87.920 80.351 M 100.253 99.441 L 97.077 105.881 101.789 104.443 C 104.380 103.651, 109.147 102.252, 112.382 101.333 L 118.264 99.662 111.882 96.380 C 108.372 94.574, 105.034 93.075, 104.465 93.049 C 103.895 93.022, 102 95.898, 100.253 99.441 M 111.750 136.662 C 112.438 136.940, 113.563 136.940, 114.250 136.662 C 114.938 136.385, 114.375 136.158, 113 136.158 C 111.625 136.158, 111.063 136.385, 111.750 136.662" stroke="none" fill="black" fill-rule="evenodd"/>
</svg>