<svg xmlns="http://www.w3.org/2000/svg" width="200" height="200" viewBox="0 0 200 200" version="1.1">
	<path d="M 107.586 14.861 C 107.293 15.335, 108.842 22.191, 111.027 30.097 C 115.626 46.736, 115.307 45.065, 113.816 44.750 C 113.124 44.604, 112.190 46.649, 111.566 49.681 C 110.980 52.530, 110.187 55.168, 109.804 55.543 C 109.422 55.918, 105.916 53.361, 102.013 49.862 L 94.917 43.500 75.209 41.397 L 55.500 39.294 38.750 42.337 C 28.438 44.210, 22 45.826, 22 46.542 C 22 47.933, 33.271 48.942, 50.500 49.093 C 57.100 49.151, 64.837 49.491, 67.694 49.849 L 72.889 50.500 49.944 69.449 C 37.325 79.871, 27 88.785, 27 89.259 C 27 89.733, 28.509 92.096, 30.353 94.511 L 33.706 98.903 57.942 84.951 C 71.272 77.278, 82.305 71, 82.460 71 C 82.615 71, 87.618 76.697, 93.578 83.660 L 104.415 96.321 105.558 91.841 C 106.186 89.378, 107.757 81.880, 109.047 75.181 C 110.338 68.481, 111.670 63, 112.007 63 C 112.344 63, 114.914 65.137, 117.719 67.750 C 122.620 72.315, 122.938 72.944, 125.901 83.925 C 127.596 90.209, 128.874 95.442, 128.741 95.553 C 128.609 95.665, 115 96.953, 98.500 98.416 C 61.185 101.725, 60 101.884, 60 103.598 C 60 104.722, 65.188 105.017, 88.731 105.235 L 117.463 105.500 103.951 114.087 L 90.440 122.674 69.470 127.384 C 57.743 130.019, 41.569 132.871, 32.776 133.855 C 17.491 135.565, 14.860 136.192, 16.415 137.750 C 16.827 138.162, 31.943 138.725, 50.007 139 L 82.850 139.500 73.839 149.239 L 64.828 158.977 76.025 173.489 C 82.184 181.470, 87.510 187.983, 87.861 187.963 C 88.212 187.943, 94.087 178.899, 100.915 167.866 C 107.991 156.434, 114.227 147.430, 115.415 146.931 C 116.562 146.449, 125.706 144.498, 135.736 142.596 C 153.365 139.252, 154.472 138.896, 168.986 131.908 C 178.097 127.521, 184 124.110, 184 123.231 C 184 122.246, 183.280 121.945, 181.750 122.289 C 173.326 124.185, 127.875 132.208, 127.528 131.861 C 127.291 131.624, 128.202 127.821, 129.553 123.409 L 132.008 115.388 141.581 107.444 C 146.846 103.075, 151.907 98.903, 152.827 98.174 C 154.345 96.970, 154.146 96.537, 150.685 93.512 C 146.098 89.500, 144.237 90.251, 170.500 85.517 C 181.500 83.534, 191.175 81.675, 192 81.386 C 192.825 81.097, 182.526 76.299, 169.112 70.723 C 142.738 59.760, 143.454 60.260, 141.587 51.488 L 140.946 48.477 154.223 46.200 C 181.412 41.538, 185 40.757, 185 39.502 C 185 38.238, 181.341 37.879, 153.250 36.392 C 142.333 35.814, 141 35.920, 141 37.372 C 141 38.735, 142.345 39.020, 149.250 39.124 C 153.787 39.193, 160.650 39.530, 164.500 39.874 L 171.500 40.500 154.207 43.418 C 143.245 45.268, 137.065 46.732, 137.325 47.418 C 137.550 48.013, 138.747 51.651, 139.985 55.503 L 142.235 62.506 162.619 70.952 C 173.830 75.597, 182.665 79.709, 182.252 80.089 C 181.838 80.470, 173.021 82.331, 162.659 84.225 L 143.818 87.668 140.094 82.584 C 138.046 79.788, 132.737 72.100, 128.296 65.500 C 120.639 54.122, 120.034 52.811, 116.611 40.207 C 114.625 32.896, 113.007 26.596, 113.015 26.207 C 113.023 25.818, 116.440 31.285, 120.609 38.356 C 125.704 46.998, 128.518 50.882, 129.196 50.204 C 129.874 49.526, 126.811 43.433, 119.852 31.615 C 114.159 21.946, 109.189 14.027, 108.809 14.017 C 108.429 14.008, 107.879 14.387, 107.586 14.861 M 45 43.972 L 36.500 45.754 45 45.995 C 49.675 46.128, 59.575 46.521, 67 46.868 L 80.500 47.500 56.500 67.386 C 43.300 78.323, 31.948 87.779, 31.273 88.398 C 30.316 89.278, 30.549 90.155, 32.336 92.396 L 34.625 95.267 58.250 81.634 C 71.244 74.135, 82.279 68, 82.771 68 C 83.264 68, 87.896 72.936, 93.064 78.969 C 98.233 85.002, 102.746 89.615, 103.093 89.219 C 103.441 88.824, 104.974 82.075, 106.502 74.222 L 109.279 59.944 102.976 54.222 C 99.510 51.075, 95.922 47.964, 95.003 47.309 C 93.695 46.378, 56.959 41.689, 54.156 42.095 C 53.795 42.148, 49.675 42.992, 45 43.972 M 113.447 54.508 C 112.846 58.509, 113.066 59.443, 115.128 61.648 C 116.433 63.042, 118.243 64.584, 119.150 65.074 C 120.674 65.895, 120.686 65.526, 119.318 60.284 C 118.502 57.161, 117.003 53.547, 115.986 52.255 L 114.137 49.904 113.447 54.508 M 123.328 64.500 C 123.610 65.600, 124.126 67.494, 124.475 68.709 C 124.824 69.924, 126.946 72.373, 129.191 74.151 L 133.272 77.384 129.796 72.442 C 127.883 69.724, 125.530 66.375, 124.567 65 C 123.145 62.972, 122.912 62.877, 123.328 64.500 M 127 76.887 C 127 77.514, 128.188 82.309, 129.639 87.541 C 131.091 92.774, 131.984 97.350, 131.624 97.710 C 131.264 98.070, 122.764 99.085, 112.735 99.965 C 95.241 101.502, 94.784 101.595, 101.500 102.276 C 105.350 102.666, 112.513 102.989, 117.419 102.993 L 126.337 103 108.982 114.069 L 91.626 125.138 69.892 130.069 C 57.938 132.781, 46.660 135.100, 44.829 135.223 C 42.998 135.345, 52.222 135.683, 65.326 135.973 L 89.152 136.500 79.098 147.500 C 73.568 153.550, 69.034 158.875, 69.022 159.333 C 69.005 159.965, 82.807 178.352, 86.997 183.280 C 87.362 183.709, 93.172 175.159, 99.908 164.280 L 112.155 144.500 132.248 140.601 C 149.270 137.299, 153.844 136.011, 162.166 132.180 C 167.570 129.693, 171.849 127.516, 171.676 127.343 C 171.503 127.170, 160.596 129.013, 147.439 131.439 C 134.281 133.864, 123.353 135.686, 123.154 135.487 C 122.955 135.289, 124.427 130.260, 126.424 124.313 L 130.055 113.500 140.189 105.089 L 150.323 96.677 146.911 93.852 C 145.035 92.298, 141.925 89.502, 140 87.639 C 132.314 80.199, 127 75.804, 127 76.887" stroke="none" fill="black" fill-rule="evenodd"/>
</svg>