<svg xmlns="http://www.w3.org/2000/svg" width="200" height="200" viewBox="0 0 200 200" version="1.1">
	<path d="M 95.301 19.604 C 95.633 21.747, 96.209 25.862, 96.581 28.750 L 97.258 34 88.379 34.084 C 68.773 34.271, 71.802 32.706, 43.175 57.440 L 17.851 79.322 29.815 91.411 L 41.780 103.500 45.001 134.500 C 46.773 151.550, 48.510 165.780, 48.861 166.123 C 49.213 166.465, 57.150 169.287, 66.500 172.394 C 83.428 178.020, 83.630 178.059, 114.290 181.648 C 131.225 183.631, 145.305 185.029, 145.578 184.755 C 145.952 184.381, 150.986 125.855, 150.998 121.750 C 150.999 121.338, 151.823 121, 152.829 121 C 154.300 121, 156.555 115.990, 164.375 95.342 C 169.720 81.231, 173.897 69.193, 173.658 68.592 C 173.419 67.992, 168.724 62.550, 163.225 56.500 L 153.227 45.500 123.962 30.604 L 94.698 15.708 95.301 19.604 M 98.301 22.599 C 98.593 23.644, 99.118 26.607, 99.467 29.182 L 100.102 33.863 109.226 33.907 C 114.244 33.930, 118.667 34.299, 119.056 34.725 C 119.657 35.385, 129 75.611, 129 77.539 C 129 77.909, 124.838 77.889, 119.750 77.494 C 114.662 77.100, 110.725 76.998, 111 77.268 C 111.275 77.539, 117.118 80.162, 123.985 83.097 C 137.993 89.085, 138.038 88.717, 123 91.148 L 115.500 92.360 122.500 93.570 C 126.896 94.331, 129.931 94.432, 130.660 93.843 C 131.442 93.211, 132.348 93.654, 133.438 95.202 C 135.007 97.430, 134.967 97.515, 132.159 98 C 130.305 98.320, 126.128 101.472, 120.564 106.750 C 112.481 114.418, 112.066 115.001, 114.684 115.013 C 116.233 115.020, 125.339 115.693, 134.920 116.509 C 144.502 117.325, 152.514 117.819, 152.727 117.606 C 153.132 117.201, 169.251 75.020, 170.379 71.411 C 170.898 69.752, 169.139 67.178, 161.833 58.911 L 152.634 48.500 126.738 35.188 C 96.234 19.508, 97.607 20.115, 98.301 22.599 M 52.280 53.156 C 41.951 62.042, 30.919 71.553, 27.765 74.293 L 22.031 79.273 33.199 91.213 L 44.367 103.152 47.602 133.195 C 49.382 149.718, 51.212 163.563, 51.669 163.961 C 52.126 164.360, 59.250 167.042, 67.500 169.923 C 82.281 175.085, 82.923 175.211, 111.500 178.563 C 127.450 180.435, 141.201 181.973, 142.057 181.983 C 143.381 181.997, 143.943 177.698, 145.805 153.331 C 147.009 137.562, 147.803 124.470, 147.570 124.236 C 147.216 123.883, 113.798 125.966, 113.357 126.369 C 113.278 126.441, 114.109 132.943, 115.205 140.819 C 116.300 148.694, 117.039 155.269, 116.848 155.430 C 116.657 155.591, 107.588 158.683, 96.696 162.302 C 80.722 167.609, 76.785 168.602, 76.337 167.437 C 75.835 166.129, 79.329 162.073, 102.445 137.124 L 106.500 132.748 90.831 140.910 C 79.884 146.613, 74.942 148.715, 74.430 147.887 C 73.971 147.144, 77.398 143.183, 83.599 137.289 L 93.500 127.878 87.750 128.367 C 83.723 128.709, 82.005 128.503, 82.017 127.678 C 82.026 127.030, 83.108 123.575, 84.423 120 L 86.812 113.500 97.748 113.810 L 108.683 114.120 107.251 104.310 C 106.464 98.915, 105.669 94.347, 105.486 94.159 C 105.302 93.972, 99.753 93.570, 93.153 93.266 L 81.155 92.713 76.932 95.818 L 72.709 98.924 64.355 91.339 C 59.760 87.167, 56 83.406, 56 82.981 C 56 82.556, 58.360 80.699, 61.245 78.854 L 66.491 75.500 63.245 75.187 C 58.144 74.694, 59.456 73, 64.939 73 C 69.468 73, 70.859 72.332, 81.706 64.954 L 93.535 56.908 97.391 58.519 L 101.247 60.130 100.658 56.815 C 100.335 54.992, 99.771 51.138, 99.406 48.250 C 99.041 45.362, 98.426 43, 98.039 43 C 97.652 43, 87.031 50.029, 74.435 58.621 C 61.840 67.212, 51.010 74.443, 50.368 74.689 C 49.727 74.935, 48.943 74.718, 48.627 74.206 C 48.311 73.694, 59.274 65.676, 72.989 56.388 C 86.704 47.099, 97.942 38.938, 97.963 38.250 C 97.991 37.310, 94.659 37, 84.530 37 L 71.060 37 52.280 53.156 M 109 38.288 C 109 39.060, 110.121 45.723, 111.490 53.096 C 112.860 60.468, 113.985 67.040, 113.990 67.701 C 113.997 68.523, 112.658 68.298, 109.750 66.990 C 105.509 65.082, 105.499 65.082, 105.167 67.140 C 104.984 68.275, 105.095 70.242, 105.414 71.512 C 105.942 73.616, 106.730 73.881, 114.334 74.515 C 118.921 74.897, 123.344 75.050, 124.162 74.855 C 125.409 74.557, 124.978 71.512, 121.492 56 L 117.334 37.500 113.167 37.193 C 110.112 36.967, 109 37.259, 109 38.288 M 102.655 39.263 C 101.037 40.446, 101.025 41.179, 102.463 50.757 C 103.309 56.383, 104 61.171, 104 61.396 C 104 61.719, 109.691 64, 110.499 64 C 110.609 64, 109.925 59.837, 108.978 54.750 C 108.031 49.663, 106.954 43.813, 106.583 41.750 C 105.853 37.686, 105.295 37.333, 102.655 39.263 M 84.235 66.411 L 74.969 72.698 84.138 73.349 C 89.181 73.707, 95.493 74, 98.165 74 L 103.024 74 102.428 69.750 C 101.544 63.436, 101.396 63.192, 97.421 61.532 C 95.405 60.689, 93.698 60.028, 93.628 60.061 C 93.558 60.095, 89.331 62.952, 84.235 66.411 M 64.987 79.727 L 59.500 83.453 71.718 85.412 L 83.935 87.371 91.077 82.447 C 97.578 77.965, 98.006 77.464, 95.859 76.861 C 94.561 76.497, 88.319 76.155, 81.987 76.100 L 70.473 76 64.987 79.727 M 95.207 82.671 C 91.746 85.188, 89.149 87.482, 89.436 87.770 C 90.057 88.390, 104.360 90.936, 104.812 90.506 C 105.657 89.703, 103.601 78.006, 102.621 78.047 C 102.004 78.073, 98.668 80.154, 95.207 82.671 M 107.118 82.143 C 107.183 83.989, 107.521 86.636, 107.868 88.025 L 108.500 90.551 117.970 89.017 L 127.441 87.484 118.470 83.650 C 113.537 81.542, 108.938 79.585, 108.250 79.301 C 107.384 78.944, 107.036 79.817, 107.118 82.143 M 68.500 91.449 C 73.092 95.440, 73.040 95.422, 75.368 93.721 C 76.915 92.589, 76.387 92.182, 70.809 90.207 L 64.500 87.973 68.500 91.449 M 109.462 99.648 C 109.837 102.866, 110.449 106.945, 110.822 108.710 L 111.500 111.920 119.064 104.519 L 126.627 97.118 119.564 95.985 C 115.679 95.361, 111.663 94.614, 110.640 94.323 C 108.926 93.837, 108.833 94.255, 109.462 99.648 M 87.513 119.622 C 85.097 125.405, 85.333 125.716, 91.750 125.223 C 96.701 124.843, 98.029 124.275, 101.306 121.141 L 105.113 117.500 102.306 116.868 C 100.763 116.521, 97.144 116.183, 94.263 116.118 C 89.151 116.003, 88.991 116.086, 87.513 119.622 M 111.999 119.168 C 112.001 123.620, 112.032 123.625, 130.190 122.317 C 139.621 121.638, 148.049 120.935, 148.919 120.755 C 149.788 120.576, 141.837 119.770, 131.249 118.964 C 113.356 117.603, 111.999 117.618, 111.999 119.168 M 105.502 120.998 L 102.626 124 106.313 124 C 109.164 124, 109.997 123.603, 109.985 122.250 C 109.950 118.333, 108.455 117.916, 105.502 120.998 M 91.635 133.750 C 87.590 137.463, 84.372 140.617, 84.483 140.759 C 84.711 141.052, 108.917 128.416, 109.778 127.555 C 110.084 127.250, 107.781 127, 104.661 127 C 99.051 127, 98.908 127.074, 91.635 133.750 M 96.292 147.845 C 88.477 156.409, 82.208 163.541, 82.360 163.693 C 82.629 163.962, 113.152 154.013, 113.847 153.430 C 114.343 153.014, 111.846 134.725, 111.111 133.387 C 110.767 132.760, 104.292 139.077, 96.292 147.845" stroke="none" fill="black" fill-rule="evenodd"/>
</svg>