<svg xmlns="http://www.w3.org/2000/svg" width="200" height="200" viewBox="0 0 200 200" version="1.1">
	<path d="M 124 24.496 L 113.500 42.975 102.176 47.515 L 90.853 52.055 78.676 50.370 C 71.979 49.443, 66.415 48.634, 66.312 48.571 C 66.209 48.509, 64.910 39.467, 63.427 28.479 C 61.943 17.490, 60.453 8.198, 60.115 7.830 C 59.777 7.461, 54.620 12.861, 48.655 19.830 C 40.627 29.210, 35.381 36.654, 28.454 48.498 C 22.650 58.421, 19.452 64.852, 20.032 65.432 C 21.211 66.611, 20.166 68.128, 31.006 49.500 C 37.701 37.994, 42.866 30.583, 49.397 23.113 L 58.479 12.727 61.027 31.318 C 62.428 41.542, 63.819 50.152, 64.117 50.450 C 64.415 50.748, 70.568 51.898, 77.790 53.005 L 90.921 55.018 103.083 50.167 L 115.246 45.315 124.580 28.965 C 129.806 19.811, 134.126 13.250, 134.395 14.057 C 134.658 14.851, 136.285 22.025, 138.010 30 C 139.734 37.975, 141.341 45.204, 141.581 46.064 C 141.937 47.341, 145.178 47.856, 159.233 48.872 C 168.702 49.556, 176.567 50.233, 176.710 50.377 C 176.854 50.521, 174.339 56.604, 171.120 63.895 L 165.268 77.153 154.384 67.826 C 148.398 62.697, 142.768 57.929, 141.874 57.231 C 140.578 56.219, 140.965 58.755, 143.778 69.731 L 147.307 83.500 147.709 112.085 L 148.111 140.669 154.805 143.006 C 167.605 147.474, 174.534 150.661, 180.280 154.723 L 186.059 158.809 170.780 169.585 C 162.376 175.511, 154.109 181.403, 152.410 182.677 L 149.320 184.994 136.910 165.010 C 130.084 154.018, 124.253 145.020, 123.951 145.013 C 123.648 145.006, 119.373 148.298, 114.451 152.328 C 107.369 158.126, 93.930 166.782, 79.500 174.841 C 78.950 175.148, 79.662 173.847, 81.081 171.950 C 82.501 170.052, 87.868 162.686, 93.009 155.580 L 102.356 142.660 109.296 118.580 L 116.236 94.500 114.978 74.250 C 114.286 63.112, 113.521 54, 113.278 54 C 113.035 54, 106.222 60.018, 98.139 67.374 L 83.441 80.748 79.817 77.624 C 77.824 75.906, 73.206 71.841, 69.555 68.591 C 65.508 64.989, 62.557 63.043, 61.996 63.604 C 61.434 64.166, 66.276 72.522, 74.401 85.013 C 81.730 96.281, 87.653 105.598, 87.562 105.718 C 87.471 105.838, 82.749 104.134, 77.069 101.931 C 71.388 99.728, 66.563 98.103, 66.346 98.320 C 66.129 98.537, 65.175 102.942, 64.226 108.107 C 62.741 116.186, 62.588 121.416, 63.128 145.500 C 63.474 160.900, 63.616 173.658, 63.443 173.852 C 62.893 174.469, 38.811 176.144, 38.269 175.603 C 37.983 175.317, 38.914 162.373, 40.339 146.839 C 41.763 131.305, 42.772 118.439, 42.582 118.249 C 42.391 118.058, 36.927 121.744, 30.439 126.439 C 23.951 131.134, 18.505 134.838, 18.336 134.669 C 18.167 134.501, 21.690 125.236, 26.164 114.082 L 34.298 93.801 32.993 74.401 C 31.989 59.470, 31.379 55, 30.344 55 C 28.681 55, 28.689 56.954, 30.429 77.306 L 31.781 93.113 21.905 117.737 C 16.473 131.281, 12.134 142.456, 12.264 142.572 C 12.394 142.687, 18.575 138.370, 26 132.979 C 33.425 127.588, 39.543 123.250, 39.595 123.338 C 39.648 123.427, 38.590 135.792, 37.244 150.815 C 35.898 165.838, 35.018 178.351, 35.288 178.622 C 35.985 179.319, 65.384 176.972, 66.051 176.166 C 66.353 175.800, 66.290 162.450, 65.909 146.500 C 65.359 123.438, 65.506 115.977, 66.627 110.065 C 67.403 105.975, 68.244 102.422, 68.497 102.169 C 68.750 101.916, 74.430 103.812, 81.118 106.382 C 87.806 108.953, 93.461 110.872, 93.685 110.648 C 93.910 110.424, 88.986 102.424, 82.744 92.870 C 76.503 83.317, 70.990 74.825, 70.494 74 C 69.520 72.381, 78.877 79.942, 80.974 82.469 C 81.673 83.311, 82.553 84, 82.930 84 C 83.307 84, 89.632 78.606, 96.986 72.012 C 104.341 65.419, 110.565 60.231, 110.818 60.484 C 111.071 60.737, 111.797 68.269, 112.432 77.222 L 113.586 93.500 106.716 117.500 L 99.846 141.500 92.235 152 C 74.854 175.977, 72.747 179.147, 73.610 180.009 C 74.871 181.268, 104.298 163.883, 114.248 156 C 118.761 152.425, 122.822 149.500, 123.272 149.500 C 123.723 149.500, 129.392 158.050, 135.869 168.500 C 142.347 178.950, 148.170 187.500, 148.809 187.500 C 150.243 187.500, 189.924 159.789, 189.968 158.757 C 190.056 156.693, 172.347 146.547, 161.901 142.676 L 150.500 138.451 150.834 113.975 C 151.166 89.661, 151.148 89.418, 148.162 77.006 C 146.508 70.134, 145.319 64.348, 145.518 64.149 C 145.717 63.949, 150.422 67.719, 155.974 72.526 C 161.525 77.333, 166.239 81.094, 166.449 80.883 C 166.659 80.672, 169.990 73.300, 173.852 64.500 C 180.672 48.957, 180.810 48.481, 178.686 47.843 C 177.484 47.482, 169.316 46.673, 160.535 46.045 C 151.754 45.417, 144.431 44.764, 144.262 44.595 C 144.093 44.426, 142.052 35.674, 139.727 25.146 C 137.402 14.617, 135.275 6.006, 135 6.010 C 134.725 6.014, 129.775 14.332, 124 24.496" stroke="none" fill="black" fill-rule="evenodd"/>
</svg>