<svg xmlns="http://www.w3.org/2000/svg" width="200" height="200" viewBox="0 0 200 200" version="1.1">
	<path d="M 146.430 16.015 C 144.829 17.616, 138.947 19.067, 118.499 22.904 L 92.596 27.766 77.752 23.262 C 69.588 20.785, 62.655 19.012, 62.345 19.322 C 60.773 20.893, 59.078 45.130, 59.011 67 C 58.969 80.475, 58.523 98.250, 58.019 106.500 C 57.205 119.842, 56.592 123.267, 52.471 137.483 L 47.838 153.466 37.286 168.300 C 30.469 177.884, 27.078 183.478, 27.704 184.104 C 28.331 184.731, 33.861 182.297, 43.328 177.226 L 57.981 169.377 68.057 154.938 C 73.598 146.997, 81.526 134.978, 85.673 128.229 L 93.215 115.958 112.221 116.229 L 131.227 116.500 135.461 129.647 L 139.694 142.794 126.097 148.081 C 118.619 150.989, 112.192 153.623, 111.815 153.934 C 111.438 154.245, 113.942 158.325, 117.381 163 L 123.632 171.500 138.918 177.814 C 147.326 181.287, 154.434 183.899, 154.714 183.619 C 154.995 183.339, 158.054 175.153, 161.512 165.428 L 167.799 147.747 166.888 117.123 C 166.270 96.382, 166.331 79.239, 167.075 64 L 168.175 41.500 161.734 29.715 L 155.294 17.930 140.501 36.715 C 132.365 47.047, 125.422 55.830, 125.072 56.232 C 124.722 56.635, 118.720 53.148, 111.735 48.482 C 104.750 43.817, 98.644 40, 98.166 40 C 97.688 40, 95.277 44.388, 92.807 49.750 L 88.318 59.500 87.594 46.260 C 87.196 38.978, 87.176 32.525, 87.549 31.920 C 88.007 31.180, 90.491 31.047, 95.149 31.515 C 98.955 31.897, 109.573 31.879, 118.746 31.474 L 135.422 30.739 141.052 25.369 C 144.148 22.416, 147.150 20, 147.724 20 C 148.586 20, 149.296 18.478, 150.047 15.025 C 150.344 13.656, 148.203 14.241, 146.430 16.015 M 62.916 33.195 C 62.081 40.164, 61.671 51.980, 61.846 64 C 62.003 74.725, 61.635 92.050, 61.029 102.500 C 59.979 120.621, 59.706 122.268, 55.127 138.110 L 50.327 154.719 41.764 166.610 C 37.055 173.149, 33.353 178.659, 33.538 178.854 C 33.724 179.049, 38.862 176.543, 44.957 173.286 L 56.039 167.363 64.736 154.932 C 69.519 148.094, 77.528 135.975, 82.533 128 L 91.632 113.500 97.387 113 L 103.141 112.500 92.552 107.247 C 83.155 102.585, 82.018 101.741, 82.446 99.747 C 82.711 98.511, 83.913 89.919, 85.117 80.654 C 86.629 69.026, 86.978 63.605, 86.246 63.152 C 85.587 62.745, 85.055 55.989, 84.842 45.328 L 84.500 28.160 75.571 25.480 C 70.661 24.006, 66.109 22.595, 65.457 22.345 C 64.631 22.028, 63.860 25.320, 62.916 33.195 M 122 25.048 C 114.025 26.604, 106.600 28.105, 105.500 28.383 C 104.400 28.661, 110.475 28.667, 119 28.397 L 134.500 27.905 137.481 24.952 C 141.190 21.279, 141.314 21.278, 122 25.048 M 141 40.319 C 133.575 49.744, 127.500 57.780, 127.500 58.175 C 127.500 58.571, 129.677 60.443, 132.338 62.334 C 134.998 64.226, 136.798 65.998, 136.338 66.272 C 135.877 66.546, 131.051 68.025, 125.614 69.560 L 115.728 72.350 109.364 80.398 C 105.864 84.825, 103 88.706, 103 89.024 C 103 89.341, 111.996 93.853, 122.992 99.050 C 133.988 104.248, 142.988 108.756, 142.992 109.070 C 142.996 109.383, 138.162 110.193, 132.250 110.869 C 113.430 113.021, 112.255 113.437, 123.416 114 L 133.332 114.500 138.166 128.974 C 140.825 136.934, 143 143.718, 143 144.049 C 143 144.380, 136.731 147.046, 129.070 149.973 L 115.140 155.296 119.312 161.212 C 121.607 164.466, 124.163 167.718, 124.992 168.438 C 127.865 170.934, 153.122 180.851, 153.545 179.649 C 153.767 179.017, 156.274 171.975, 159.115 164 L 164.281 149.500 164.442 95.500 L 164.603 41.500 160.197 33 C 157.773 28.325, 155.500 24.203, 155.145 23.841 C 154.790 23.478, 148.425 30.893, 141 40.319 M 94.517 52.526 C 92.428 57.215, 90.932 61.265, 91.193 61.527 C 91.454 61.788, 96.665 63.784, 102.773 65.963 L 113.877 69.924 117.939 65.073 C 120.172 62.405, 121.989 59.835, 121.976 59.361 C 121.949 58.418, 100.538 44, 99.165 44 C 98.698 44, 96.607 47.837, 94.517 52.526 M 122.100 64.079 C 118.727 68.641, 119.487 68.767, 129.953 65.377 C 130.992 65.041, 130.563 64.351, 128.453 62.960 C 124.674 60.468, 124.783 60.449, 122.100 64.079 M 89.974 65.250 C 89.960 65.388, 88.871 73.374, 87.555 82.997 C 86.239 92.621, 85.238 100.557, 85.331 100.633 C 85.424 100.708, 90.203 103.122, 95.952 105.995 L 106.403 111.221 117.282 109.967 C 136.428 107.762, 136.482 108.590, 116.584 99.097 C 106.913 94.482, 99 90.301, 99 89.804 C 99 89.308, 101.953 85.244, 105.561 80.775 C 110.300 74.905, 111.758 72.448, 110.811 71.928 C 107.068 69.874, 90.060 64.423, 89.974 65.250" stroke="none" fill="black" fill-rule="evenodd"/>
</svg>