<svg xmlns="http://www.w3.org/2000/svg" width="200" height="200" viewBox="0 0 200 200" version="1.1">
	<path d="M 106.941 15.569 L 71.383 17.875 43.691 28.164 C 28.461 33.822, 16.016 38.688, 16.035 38.976 C 16.054 39.264, 20.892 42.474, 26.785 46.109 L 37.500 52.719 37.310 59.609 C 37.130 66.102, 36.565 67.649, 27.527 86.384 C 22.251 97.320, 18.061 106.386, 18.217 106.531 C 18.601 106.890, 59.272 109.085, 59.483 108.759 C 59.735 108.367, 76.220 87.617, 76.996 86.714 C 77.367 86.282, 83.933 87.687, 91.586 89.835 C 99.238 91.984, 105.639 93.623, 105.809 93.478 C 105.979 93.333, 102.240 85.468, 97.500 76 C 92.760 66.532, 89.065 58.601, 89.290 58.376 C 89.515 58.152, 97.529 64.939, 107.100 73.460 C 116.670 81.980, 124.725 88.960, 125 88.970 C 125.275 88.981, 128.650 79.767, 132.500 68.497 C 136.350 57.226, 139.822 48.003, 140.216 48.002 C 140.609 48.001, 143.872 49.617, 147.467 51.593 C 151.626 53.879, 153.745 55.606, 153.293 56.343 C 152.903 56.979, 147.470 65.310, 141.220 74.855 C 134.970 84.400, 129.648 92.754, 129.393 93.418 C 129.138 94.083, 133.447 100.336, 138.969 107.313 C 144.491 114.291, 148.669 119.996, 148.254 119.991 C 147.840 119.987, 140.817 118.212, 132.649 116.048 L 117.798 112.114 91.649 118.477 C 66.367 124.629, 64.848 124.875, 45.836 125.920 C 35.020 126.514, 25.008 127, 23.586 127 C 20.369 127, 20.109 129.572, 23.250 130.315 C 24.487 130.608, 34.500 132.744, 45.500 135.062 C 56.500 137.380, 65.802 139.552, 66.171 139.888 C 66.708 140.377, 50.030 153.570, 13.244 181.754 C 12.177 182.571, 11.948 183.348, 12.586 183.986 C 13.224 184.624, 23.123 180.969, 41.032 173.484 C 56.140 167.170, 69.021 162.003, 69.658 162.002 C 70.295 162.001, 77.161 168.596, 84.916 176.659 C 92.671 184.721, 99.247 191.087, 99.529 190.804 C 99.811 190.522, 103.272 179.201, 107.220 165.646 C 111.168 152.091, 114.726 141, 115.128 141 C 115.530 141, 122.957 148.657, 131.632 158.016 C 140.307 167.375, 147.697 174.912, 148.056 174.766 C 148.414 174.620, 158.208 171.132, 169.819 167.015 C 181.431 162.899, 190.609 159.226, 190.215 158.853 C 189.822 158.480, 173.996 152.623, 155.047 145.838 L 120.595 133.500 147.047 133 L 173.500 132.500 173.718 123 C 173.838 117.775, 174.668 95.130, 175.562 72.677 C 176.456 50.224, 177.032 31.699, 176.843 31.510 C 174.970 29.637, 145.474 13.032, 144.195 13.131 C 143.263 13.203, 126.499 14.300, 106.941 15.569 M 105.500 18.446 L 71.500 20.635 48 29.425 C 35.075 34.260, 23.889 38.550, 23.141 38.959 C 22.221 39.462, 24.901 41.604, 31.450 45.601 L 41.118 51.500 40.446 59.346 C 39.832 66.520, 39.028 68.744, 31.038 85.346 C 22.658 102.759, 22.391 103.525, 24.489 104.120 C 25.692 104.461, 33.808 104.911, 42.524 105.120 L 58.372 105.500 64.936 97.483 C 68.546 93.074, 72.669 87.971, 74.097 86.142 L 76.693 82.818 87.830 85.909 C 93.956 87.609, 99.427 89, 99.989 89 C 100.551 89, 96.952 80.892, 91.991 70.982 L 82.971 52.964 79.876 54.564 C 78.173 55.445, 76.987 55.791, 77.240 55.333 C 79.995 50.342, 95.593 25.155, 96.597 24.075 C 97.733 22.852, 99.266 23.348, 107.351 27.554 L 116.780 32.458 126.640 26.405 C 132.063 23.076, 137.501 19.721, 138.725 18.951 C 140.182 18.034, 141.289 17.889, 141.932 18.532 C 142.575 19.175, 138.986 21.930, 131.538 26.507 C 125.281 30.353, 120.463 33.801, 120.831 34.169 C 122.141 35.477, 136.522 42.972, 137.750 42.986 C 138.438 42.994, 139 42.288, 139 41.417 C 139 40.546, 139.563 40.033, 140.250 40.277 C 140.938 40.521, 141.396 41.665, 141.269 42.818 C 141.084 44.506, 142.706 45.825, 149.565 49.564 L 158.091 54.212 156.360 56.856 C 155.408 58.310, 149.498 67.249, 143.226 76.719 L 131.823 93.939 143.857 109.190 C 150.476 117.579, 155.775 124.559, 155.631 124.702 C 155.488 124.845, 146.891 122.697, 136.526 119.928 L 117.681 114.893 92.590 121.128 C 69.277 126.922, 66.261 127.439, 50 128.432 L 32.500 129.500 46 132.349 C 69.446 137.297, 72.999 138.193, 72.481 139.031 C 72.203 139.480, 61.294 148.051, 48.238 158.077 C 35.182 168.104, 24.050 176.715, 23.500 177.213 C 22.201 178.389, 21.807 178.545, 48.146 167.444 L 70.500 158.021 84.188 172.240 C 91.716 180.060, 98.049 186.242, 98.262 185.979 C 98.474 185.716, 101.712 174.925, 105.457 162 C 109.201 149.075, 112.574 137.656, 112.951 136.624 C 113.515 135.083, 116.713 138.055, 130.875 153.280 L 148.114 171.810 160.807 167.296 C 167.788 164.814, 175.750 161.974, 178.500 160.986 L 183.500 159.190 180.500 158.028 C 178.850 157.389, 162.881 151.609, 145.014 145.183 C 120.632 136.415, 112.443 133.063, 112.190 131.750 C 111.876 130.115, 113.793 130, 141.275 130 L 170.697 130 171.354 110.750 C 171.716 100.162, 172.531 78.539, 173.167 62.697 C 174.152 38.127, 174.115 33.697, 172.911 32.557 C 172.135 31.823, 165.635 27.797, 158.467 23.611 C 149.501 18.375, 144.508 16.040, 142.467 16.128 C 140.835 16.199, 124.200 17.242, 105.500 18.446 M 91.533 37.019 C 87.816 43.118, 84.938 48.262, 85.137 48.449 C 85.337 48.637, 92.016 45.520, 99.980 41.524 L 114.459 34.257 106.980 30.386 C 102.866 28.258, 99.228 26.385, 98.896 26.223 C 98.563 26.062, 95.250 30.920, 91.533 37.019 M 101.750 43.559 C 93.638 47.659, 87 51.224, 87 51.481 C 87 52.761, 123.350 84.041, 124.009 83.329 C 124.735 82.544, 137 48.008, 137 46.749 C 137 46.113, 118.125 35.964, 117.106 36.053 C 116.773 36.082, 109.862 39.459, 101.750 43.559" stroke="none" fill="black" fill-rule="evenodd"/>
</svg>