<svg xmlns="http://www.w3.org/2000/svg" width="200" height="200" viewBox="0 0 200 200" version="1.1">
	<path d="M 60.996 18.750 C 60.994 24.663, 60.702 35.190, 60.347 42.144 L 59.702 54.787 70.351 55.513 C 78.563 56.073, 81 56.565, 81 57.664 C 81 58.448, 79.181 66.326, 76.957 75.169 C 74.734 84.013, 73.143 91.476, 73.422 91.755 C 74.127 92.460, 94.796 79.335, 98.664 75.726 C 100.713 73.814, 102.298 73.056, 103.164 73.574 C 103.899 74.013, 110.203 78.340, 117.174 83.189 C 124.145 88.037, 130.568 92.281, 131.446 92.618 C 132.879 93.168, 132.977 91.902, 132.395 80.365 C 131.970 71.940, 132.085 67.845, 132.728 68.500 C 133.863 69.656, 151.276 92.914, 152.329 94.681 C 152.716 95.331, 152.267 97.469, 151.331 99.431 L 149.630 103 130.565 103.014 C 114.953 103.026, 107.101 102.460, 87.210 99.887 C 73.851 98.160, 62.646 97.020, 62.311 97.355 C 61.976 97.690, 62.218 104.835, 62.848 113.232 L 63.993 128.500 57.370 157 C 53.727 172.675, 50.450 185.831, 50.087 186.236 C 49.724 186.641, 46.774 175.616, 43.530 161.736 C 40.287 147.856, 37.529 136.350, 37.401 136.167 C 37.272 135.984, 32.838 136.379, 27.545 137.045 C 22.253 137.712, 17.726 138.060, 17.486 137.819 C 17.245 137.578, 21.031 124.902, 25.899 109.650 L 34.750 81.918 31.931 71.411 L 29.112 60.905 36.981 40.202 C 41.308 28.816, 45.156 18.712, 45.532 17.750 C 45.994 16.565, 45.737 16, 44.737 16 C 43.732 16, 40.523 23.164, 34.711 38.378 L 26.163 60.756 28.997 71.319 L 31.831 81.883 22.358 111.551 C 17.149 127.869, 13.040 141.374, 13.229 141.562 C 13.417 141.750, 18.221 141.214, 23.904 140.371 C 29.587 139.527, 34.580 139.211, 34.999 139.668 C 35.418 140.126, 38.612 152.777, 42.096 167.782 C 47.034 189.046, 48.755 195.001, 49.901 194.781 C 50.961 194.576, 53.512 185.380, 59.051 161.797 L 66.731 129.096 65.725 115.022 C 65.172 107.281, 64.968 100.699, 65.272 100.394 C 65.577 100.090, 76.553 101.272, 89.663 103.021 C 110.651 105.820, 115.562 106.152, 130.750 105.793 C 140.238 105.569, 148 105.690, 148 106.063 C 148 106.436, 146.585 109.946, 144.854 113.863 L 141.709 120.985 138.640 116.992 C 136.953 114.797, 134.881 113.012, 134.036 113.027 C 132.141 113.059, 88.964 122.679, 88.571 123.156 C 88.107 123.719, 91.912 186.245, 92.442 186.776 C 92.710 187.044, 97.185 186.279, 102.387 185.078 C 107.588 183.876, 112.891 182.769, 114.172 182.619 C 115.452 182.468, 117.175 182.073, 118 181.741 C 118.825 181.409, 124.675 179.965, 131 178.531 C 142.208 175.991, 157.602 171.927, 171.250 167.905 C 176.329 166.408, 178 165.472, 178 164.125 C 178 163.141, 175.731 150.672, 172.957 136.418 C 169.422 118.252, 167.320 109.677, 165.927 107.750 L 163.940 105 170.598 105 L 177.256 105 176.674 101.250 C 176.354 99.188, 175.780 93.963, 175.399 89.640 C 174.760 82.409, 174.396 81.424, 170.852 77.329 C 168.733 74.881, 167.021 72.568, 167.046 72.189 C 167.071 71.810, 171.304 62.275, 176.451 51 C 181.599 39.725, 185.689 30.374, 185.541 30.219 C 185.393 30.064, 176.777 30.627, 166.396 31.469 C 156.014 32.311, 146.747 33, 145.803 33 C 144.733 33, 147.332 29.862, 152.705 24.667 C 158.467 19.096, 161.064 15.913, 160.539 15.064 C 159.984 14.166, 157.664 15.871, 152.618 20.883 L 145.482 27.971 113.868 28.236 L 82.254 28.500 91.551 41.492 C 96.665 48.638, 100.740 54.594, 100.606 54.727 C 100.299 55.035, 72.949 53.129, 67.136 52.394 L 62.772 51.843 63.503 29.922 C 64.164 10.097, 64.079 8, 62.617 8 C 61.228 8, 60.999 9.518, 60.996 18.750 M 88 31.492 C 88 31.763, 92.050 37.616, 97 44.500 C 101.950 51.384, 106 57.251, 106 57.539 C 106 57.827, 101.162 57.767, 95.250 57.406 C 88.162 56.973, 84.841 57.086, 85.500 57.738 C 86.050 58.281, 89.815 61.026, 93.867 63.836 C 99.509 67.748, 101.617 68.719, 102.867 67.981 C 103.765 67.451, 112.825 58.929, 123 49.043 L 141.500 31.067 114.750 31.034 C 100.037 31.015, 88 31.222, 88 31.492 M 161.170 34.545 C 152.738 35.250, 145.572 36.095, 145.246 36.421 C 144.919 36.747, 145.716 40.407, 147.017 44.553 C 148.992 50.851, 150.543 53.449, 156.441 60.332 C 160.323 64.864, 163.950 68.562, 164.500 68.550 C 165.411 68.529, 181 35.712, 181 33.815 C 181 32.872, 181.294 32.861, 161.170 34.545 M 134.498 41.769 C 131.198 44.921, 123.008 52.744, 116.299 59.154 L 104.102 70.807 116.560 79.404 C 123.411 84.132, 129.306 88, 129.658 88 C 130.010 88, 129.984 81.588, 129.599 73.750 C 128.998 61.470, 129.096 59.707, 130.310 61 C 131.085 61.825, 136.830 69.227, 143.078 77.449 L 154.437 92.397 158.667 83.449 C 160.994 78.527, 162.921 73.973, 162.949 73.330 C 162.977 72.686, 159.386 67.961, 154.969 62.830 C 147.639 54.315, 146.707 52.736, 144.291 44.750 C 142.835 39.938, 141.386 36.009, 141.072 36.019 C 140.757 36.029, 137.799 38.617, 134.498 41.769 M 80.325 73.330 C 78.607 80.574, 77.268 86.560, 77.350 86.634 C 77.433 86.707, 81.325 84.331, 86 81.353 C 94.192 76.135, 99.878 71.455, 98.947 70.697 C 97.974 69.904, 85.436 61.274, 84.475 60.735 C 83.857 60.388, 82.211 65.383, 80.325 73.330 M 162.200 82.385 C 156.379 94.826, 156.315 95.236, 159.553 99.480 C 162.390 103.201, 162.449 103.223, 167.904 102.581 C 170.925 102.226, 173.522 101.812, 173.674 101.660 C 173.826 101.508, 173.451 97.135, 172.841 91.942 C 171.934 84.210, 171.259 81.924, 169.116 79.322 C 167.677 77.574, 166.205 76.112, 165.844 76.072 C 165.484 76.032, 163.844 78.873, 162.200 82.385 M 154.079 99.852 C 152.553 102.703, 152.688 103, 155.500 103 C 158.326 103, 158.545 102.303, 156.548 99.667 C 155.210 97.902, 155.119 97.909, 154.079 99.852 M 147.954 113.600 C 145.779 118.329, 144 122.575, 144 123.034 C 144 123.493, 146.764 127.347, 150.142 131.598 C 154.359 136.904, 156.004 139.724, 155.392 140.596 C 154.901 141.294, 146.907 150.018, 137.627 159.982 C 125.758 172.726, 121.457 177.941, 123.127 177.564 C 144.732 172.682, 173.392 164.941, 174.698 163.635 C 175.016 163.317, 173.006 151.382, 170.230 137.112 C 164.368 106.971, 163.511 105, 156.266 105 L 151.908 105 147.954 113.600 M 111.604 120.557 C 100.661 122.978, 91.599 125.080, 91.467 125.229 C 90.683 126.109, 94.655 183.499, 95.500 183.495 C 96.050 183.492, 100.618 182.627, 105.652 181.574 L 114.804 179.658 127.530 151.817 L 140.256 123.977 137.492 119.988 C 135.972 117.795, 134.002 116.035, 133.114 116.078 C 132.226 116.121, 122.547 118.136, 111.604 120.557 M 131.986 148.803 C 126.315 161.286, 121.491 171.950, 121.266 172.500 C 120.781 173.684, 130.855 163.283, 143.686 149.351 L 152.873 139.377 147.585 132.741 L 142.297 126.106 131.986 148.803" stroke="none" fill="black" fill-rule="evenodd"/>
</svg>