<svg xmlns="http://www.w3.org/2000/svg" width="200" height="200" viewBox="0 0 200 200" version="1.1">
	<path d="M 66.500 22.207 C 46.700 28.309, 30.345 33.427, 30.154 33.580 C 29.964 33.733, 30.814 41.202, 32.043 50.179 L 34.277 66.500 26.638 98.033 C 22.437 115.376, 19.021 130.226, 19.046 131.033 C 19.071 131.840, 22.411 135.096, 26.467 138.269 C 32.726 143.165, 35.997 147.060, 48.088 164.019 C 55.923 175.008, 62.558 183.775, 62.832 183.501 C 63.106 183.227, 63.649 165.434, 64.038 143.962 C 64.428 122.489, 64.989 104.678, 65.285 104.382 C 65.581 104.086, 69.013 104.994, 72.912 106.400 C 77.811 108.167, 80.006 108.578, 80.019 107.729 C 80.030 107.053, 80.927 97.725, 82.013 87 C 83.098 76.275, 83.990 67.076, 83.993 66.558 C 84 65.569, 96.755 82.542, 97.709 84.810 C 98.012 85.530, 96.992 87.443, 95.443 89.060 L 92.626 92 97.202 92 C 100.106 92, 102.535 92.640, 103.847 93.750 C 105.649 95.274, 123 118.503, 123 119.390 C 123 119.573, 121.987 119.532, 120.750 119.299 C 111.740 117.604, 75.004 112.499, 75.019 112.944 C 75.029 113.250, 83.354 122.666, 93.519 133.870 C 103.683 145.073, 111.979 154.523, 111.953 154.870 C 111.927 155.216, 104.106 161.575, 94.574 169 C 85.041 176.425, 77.385 182.660, 77.560 182.855 C 77.735 183.051, 96.243 182.682, 118.689 182.035 L 159.500 180.858 171.250 169.195 C 177.713 162.780, 183 157.278, 183 156.967 C 183 156.657, 177.375 153.090, 170.500 149.040 C 163.625 144.990, 158 141.514, 158 141.317 C 158 141.119, 163.153 134.104, 169.450 125.729 L 180.901 110.500 170.200 109.877 C 164.315 109.535, 151.689 109.197, 142.143 109.127 C 126.037 109.009, 124.837 108.874, 125.495 107.250 C 125.885 106.287, 126.670 104.150, 127.239 102.500 C 127.808 100.850, 128.612 99.122, 129.027 98.659 C 129.442 98.197, 133.510 99.435, 138.067 101.409 C 142.624 103.384, 146.781 105, 147.305 105 C 147.879 105, 147.988 102.611, 147.580 99 L 146.901 93 164.950 93 C 174.878 93, 183 92.726, 183 92.391 C 183 92.056, 179.863 86.757, 176.029 80.615 L 169.058 69.448 172.600 56.628 C 174.548 49.577, 175.997 43.670, 175.821 43.500 C 175.644 43.330, 170.566 41.757, 164.536 40.004 C 152.092 36.387, 144 32.648, 144 30.518 C 144 29.721, 145.661 26.047, 147.691 22.354 C 149.915 18.308, 150.809 15.854, 149.941 16.178 C 149.148 16.474, 143.884 18.145, 138.242 19.890 L 127.984 23.063 118.802 17.998 C 113.693 15.179, 108.947 13.190, 108.103 13.514 C 106.560 14.106, 106.746 14.237, 119.476 21.507 C 122.213 23.070, 124.013 24.484, 123.476 24.649 C 120.566 25.544, 84.288 37.142, 83.137 37.546 C 82.269 37.850, 87.400 43.923, 97.277 54.282 L 112.779 70.539 106.951 77.020 C 101.157 83.463, 101.114 83.489, 99.215 81.500 C 98.165 80.400, 88.855 67.880, 78.525 53.679 C 66.617 37.308, 59.394 28.206, 58.790 28.810 C 58.185 29.415, 62.128 36.204, 69.561 47.358 L 81.285 64.953 79.498 84.726 C 78.514 95.602, 77.612 104.625, 77.493 104.778 C 77.374 104.931, 74.025 103.884, 70.050 102.450 C 66.075 101.016, 62.667 100, 62.476 100.191 C 62.285 100.382, 61.762 117.705, 61.314 138.687 L 60.500 176.837 48.105 159.452 C 38.106 145.427, 34.392 141.045, 28.894 136.783 C 25.146 133.877, 22.061 130.931, 22.039 130.235 C 22.018 129.539, 25.415 114.775, 29.588 97.427 L 37.177 65.884 34.954 50.910 C 33.731 42.674, 32.904 35.782, 33.115 35.595 C 33.327 35.408, 49.438 30.360, 68.918 24.377 C 88.398 18.395, 104.523 12.938, 104.751 12.250 C 104.980 11.563, 104.567 11.025, 103.833 11.056 C 103.100 11.087, 86.300 16.105, 66.500 22.207 M 137.750 22.771 C 135.137 23.640, 133 24.639, 133 24.991 C 133 25.344, 134.723 26.600, 136.830 27.784 L 140.660 29.937 142.554 26.218 C 143.596 24.173, 144.610 22.163, 144.807 21.750 C 145.329 20.661, 143.144 20.977, 137.750 22.771 M 107.589 32.539 C 96.639 36.086, 87.498 39.169, 87.276 39.390 C 87.055 39.611, 93.598 46.702, 101.816 55.147 L 116.757 70.501 109.878 77.845 C 98.922 89.541, 99.462 90, 124.200 90 L 143 90 142.970 87.750 C 142.954 86.513, 141.675 76.789, 140.127 66.142 C 137.570 48.551, 137.434 46.269, 138.641 41.142 C 139.371 38.039, 139.975 34.825, 139.982 34 C 139.992 32.847, 131.997 27.669, 128.084 26.295 C 127.763 26.182, 118.540 28.992, 107.589 32.539 M 142.558 36.250 C 139.990 44.705, 140.021 46.910, 143.006 67.539 C 144.653 78.923, 146 88.634, 146 89.119 C 146 89.603, 153.248 90, 162.107 90 C 175.516 90, 178.124 89.765, 177.676 88.598 C 177.380 87.826, 174.660 83.354, 171.632 78.660 L 166.126 70.125 168.916 59.813 C 170.450 54.141, 172.007 48.552, 172.375 47.393 C 172.989 45.458, 172.245 45.059, 163.272 42.522 C 157.897 41.002, 151.377 38.688, 148.783 37.379 C 143.327 34.627, 143.065 34.579, 142.558 36.250 M 99.500 89 C 99.160 89.550, 99.359 90, 99.941 90 C 100.523 90, 101 89.550, 101 89 C 101 88.450, 100.802 88, 100.559 88 C 100.316 88, 99.840 88.450, 99.500 89 M 108 93.486 C 108 94.467, 120.127 110.494, 120.740 110.323 C 121.089 110.226, 122.159 108.148, 123.119 105.705 C 124.078 103.262, 125.535 99.656, 126.355 97.692 L 127.847 94.121 136.064 97.586 C 140.584 99.492, 144.472 100.861, 144.705 100.628 C 144.938 100.395, 144.825 98.583, 144.453 96.602 L 143.777 93 125.889 93 C 116.050 93, 108 93.219, 108 93.486 M 122 112.929 C 122 113.440, 123.463 115.398, 125.250 117.282 C 128.071 120.254, 129.359 120.802, 135 121.429 C 144.621 122.500, 147 123.112, 147 124.514 C 147 125.795, 144.693 126.400, 135.269 127.591 C 130.384 128.209, 129.855 128.059, 127.269 125.327 C 124.624 122.533, 123.629 122.278, 105 119.621 C 94.275 118.091, 84.417 116.584, 83.093 116.272 C 81.370 115.866, 85.628 121.154, 98.093 134.901 C 107.667 145.460, 115.500 154.497, 115.500 154.985 C 115.500 155.472, 108.765 161.188, 100.533 167.686 C 88.245 177.385, 85.980 179.559, 87.877 179.832 C 89.148 180.014, 105.545 179.688, 124.314 179.106 L 158.439 178.049 168.809 167.680 L 179.178 157.310 166.839 150.045 C 160.053 146.050, 154.348 142.641, 154.163 142.470 C 153.978 142.299, 158.643 135.770, 164.530 127.961 C 172.727 117.087, 174.913 113.559, 173.866 112.896 C 171.997 111.712, 122 111.743, 122 112.929 M 130 124.173 C 130 124.628, 131.350 125, 133 125 C 134.650 125, 136 124.826, 136 124.613 C 136 124.401, 134.650 124.029, 133 123.787 C 131.350 123.545, 130 123.718, 130 124.173" stroke="none" fill="black" fill-rule="evenodd"/>
</svg>