<svg xmlns="http://www.w3.org/2000/svg" width="200" height="200" viewBox="0 0 200 200" version="1.1">
	<path d="M 59 10.645 C 59 11.549, 60.588 21.297, 62.529 32.306 C 64.471 43.315, 65.909 52.774, 65.725 53.326 C 65.541 53.877, 59.829 46.363, 53.032 36.627 C 46.235 26.892, 40.379 19.280, 40.019 19.713 C 39.659 20.146, 36.525 29.465, 33.053 40.423 L 26.742 60.346 27.885 77.893 L 29.029 95.439 25.389 115.200 L 21.749 134.961 29.094 147.525 L 36.439 160.090 50.970 171.461 C 62.778 180.702, 65.559 182.478, 65.817 180.937 C 65.991 179.895, 65.414 161.872, 64.534 140.887 C 63.655 119.901, 63.139 102.528, 63.388 102.279 C 63.637 102.030, 66.748 103.546, 70.302 105.648 L 76.764 109.471 77.308 114.985 C 77.607 118.018, 78.885 133.887, 80.148 150.250 C 81.411 166.613, 82.851 180, 83.348 180 C 84.304 180, 107.353 158.210, 108.207 156.500 C 108.481 155.950, 108.434 149.312, 108.103 141.749 C 107.771 134.186, 107.662 127.998, 107.860 127.999 C 108.057 127.999, 114.902 134.300, 123.070 142 C 131.238 149.700, 138.113 156, 138.347 156 C 138.582 156, 141.626 144.536, 145.111 130.524 C 148.597 116.512, 151.740 105.375, 152.097 105.774 C 152.454 106.173, 153.390 110.156, 154.177 114.625 L 155.608 122.751 147.937 151.125 C 143.055 169.182, 140.672 179.592, 141.383 179.754 C 142.876 180.093, 181.116 169.309, 182.015 168.295 C 182.402 167.858, 182.270 152.200, 181.721 133.500 C 180.793 101.905, 180.886 97.290, 183.034 68.257 C 184.306 51.073, 185.039 36.705, 184.662 36.329 C 184.286 35.953, 175.996 33.938, 166.239 31.852 C 151.530 28.707, 143.888 27.717, 121.500 26.054 C 106.650 24.951, 92.231 23.820, 89.457 23.540 L 84.414 23.031 81.111 29.729 L 77.808 36.427 75.388 32.463 C 74.056 30.284, 70.387 24.121, 67.233 18.768 C 61.859 9.645, 59 6.825, 59 10.645 M 63.032 18.527 C 63.105 20.778, 68.776 52.110, 69.184 52.518 C 69.430 52.763, 71.126 49.874, 72.953 46.098 L 76.274 39.232 70.967 30.366 C 64.385 19.372, 62.991 17.293, 63.032 18.527 M 40.586 26.083 C 40.322 26.862, 37.763 34.853, 34.898 43.839 L 29.689 60.178 30.724 78.339 L 31.758 96.500 28.379 114.339 C 26.521 124.151, 25 132.858, 25 133.689 C 25 134.519, 28.038 140.374, 31.750 146.700 C 38.357 157.958, 38.755 158.402, 50.500 167.605 C 59.069 174.318, 62.595 176.564, 62.832 175.457 C 63.015 174.604, 62.436 156.769, 61.545 135.824 C 60.654 114.879, 60.107 97.560, 60.329 97.338 C 60.551 97.115, 64.956 99.373, 70.117 102.354 L 79.500 107.775 82.119 140.245 C 83.560 158.103, 84.910 173.183, 85.119 173.754 C 85.329 174.326, 90.107 170.380, 95.738 164.984 L 105.976 155.174 104.427 120.337 C 102.771 83.061, 102.712 82.441, 100.594 79.698 C 99.013 77.650, 77.539 71.410, 78.668 73.327 C 79.047 73.972, 80.491 76.008, 81.874 77.851 L 84.391 81.201 77.445 80.551 C 65.884 79.469, 62.878 78.865, 63.266 77.703 C 63.630 76.610, 72.633 76.552, 76.250 77.619 C 78.581 78.306, 78.405 77.070, 75.714 73.854 C 74.054 71.870, 71.164 70.575, 64.158 68.679 C 59.020 67.287, 54.557 65.891, 54.241 65.575 C 52.589 63.922, 55.815 63.825, 62.263 65.333 C 66.243 66.264, 69.818 67.020, 70.207 67.013 C 70.811 67.002, 44.297 28.186, 41.908 25.583 C 41.411 25.042, 40.869 25.247, 40.586 26.083 M 83.017 31.966 C 81.358 35.253, 80 38.451, 80 39.071 C 80 40.325, 98.429 71.485, 100.806 74.250 C 103.849 77.790, 104.682 75.773, 105.451 63 C 105.852 56.354, 106.651 48.434, 108.498 32.815 L 109.052 28.130 104.776 27.611 C 102.424 27.326, 97.245 26.844, 93.267 26.541 L 86.034 25.989 83.017 31.966 M 110.500 28.448 C 111.050 28.696, 123.200 31.647, 137.500 35.006 C 151.800 38.364, 164.287 41.342, 165.250 41.623 C 167.741 42.351, 167.417 44.863, 164.750 45.495 C 163.512 45.789, 151.502 48.508, 138.060 51.538 C 124.618 54.567, 113.490 57.176, 113.331 57.336 C 113.172 57.495, 123.607 60.027, 136.521 62.962 C 167.601 70.028, 167.610 70.436, 136.754 73.652 C 122.128 75.176, 119.933 75.634, 119.413 77.274 C 119.085 78.306, 119.027 79.361, 119.284 79.618 C 119.541 79.874, 123.133 81.004, 127.266 82.127 L 134.782 84.170 135.486 107.335 C 136.566 142.874, 137.427 141.767, 125.049 120.748 C 119.301 110.987, 114.312 103.339, 113.961 103.751 C 113.611 104.163, 112.320 109.118, 111.092 114.762 L 108.860 125.024 117.176 132.762 C 121.750 137.018, 128.054 142.904, 131.183 145.842 L 136.873 151.184 137.866 147.342 C 138.412 145.229, 141.381 133.600, 144.463 121.500 C 151.349 94.471, 150.932 95.811, 152.306 96.269 C 153.516 96.672, 157.875 116.315, 157.953 121.716 C 157.979 123.485, 154.850 136.438, 151 150.500 C 147.150 164.562, 144 176.218, 144 176.403 C 144 176.676, 178.944 167.001, 179.736 166.508 C 179.865 166.428, 179.486 151.768, 178.892 133.931 C 177.885 103.661, 177.966 99.420, 180.108 70.285 C 181.370 53.116, 182.168 38.835, 181.882 38.548 C 180.446 37.113, 143.237 30.164, 134 29.606 C 128.225 29.258, 120.350 28.753, 116.500 28.485 C 112.650 28.217, 109.950 28.200, 110.500 28.448 M 110.158 43.177 C 109.532 49.324, 109.182 54.515, 109.379 54.712 C 109.576 54.909, 120.707 52.580, 134.114 49.535 C 147.522 46.491, 158.906 44, 159.412 44 C 162.402 44, 156.894 42.470, 136.137 37.533 C 123.344 34.490, 112.521 32, 112.086 32 C 111.652 32, 110.784 37.030, 110.158 43.177 M 73.288 51.384 L 69.130 59.767 72.298 64.319 C 75.401 68.777, 75.676 68.923, 85.860 71.474 C 91.577 72.907, 96.382 73.949, 96.538 73.789 C 96.938 73.382, 78.622 43, 77.976 43 C 77.684 43, 75.575 46.773, 73.288 51.384 M 108.545 61.250 C 108.330 61.938, 107.869 65.738, 107.521 69.697 L 106.889 76.893 110.968 77.991 C 115.719 79.271, 117 78.756, 117 75.566 C 117 72.788, 117.504 72.662, 135.757 70.896 C 143.048 70.191, 148.673 69.300, 148.257 68.917 C 147.530 68.248, 112.128 60, 109.982 60 C 109.408 60, 108.761 60.563, 108.545 61.250 M 106.406 81.385 C 106.080 82.235, 107.303 85.533, 109.124 88.715 L 112.435 94.500 113.640 90.500 C 115.058 85.797, 115.300 82.295, 114.250 81.677 C 113.838 81.434, 112.037 80.921, 110.249 80.538 C 107.786 80.010, 106.855 80.215, 106.406 81.385 M 116.522 90.544 L 114.844 98.087 123.672 113.137 L 132.500 128.187 132.830 121.344 C 133.011 117.580, 132.854 108.131, 132.481 100.347 L 131.802 86.193 125.445 84.597 C 121.949 83.719, 118.889 83, 118.645 83 C 118.401 83, 117.446 86.395, 116.522 90.544 M 106.117 97.750 C 106.181 102.013, 106.519 108.425, 106.867 112 L 107.500 118.500 109.664 108.532 L 111.829 98.564 109.319 94.282 C 107.939 91.927, 106.628 90, 106.405 90 C 106.182 90, 106.053 93.487, 106.117 97.750" stroke="none" fill="black" fill-rule="evenodd"/>
</svg>