<svg xmlns="http://www.w3.org/2000/svg" width="200" height="200" viewBox="0 0 200 200" version="1.1">
	<path d="M 57 12.500 C 57 13.738, 55.167 14, 46.500 14 L 36 14 36 24.408 C 36 34.317, 35.764 35.486, 31.084 48.763 L 26.167 62.709 25.100 87.503 C 24.097 110.810, 24.150 112.754, 25.982 119.929 C 27.798 127.043, 38.496 157.830, 39.501 158.834 C 39.750 159.083, 40.219 158.594, 40.543 157.747 C 40.868 156.901, 38.693 149.299, 35.710 140.854 C 26.448 114.632, 26.650 115.990, 27.842 87.908 L 28.881 63.446 33.940 48.973 C 38.510 35.901, 39 33.665, 39 25.872 L 39 17.245 48.250 16.770 C 53.337 16.509, 57.568 16.342, 57.651 16.398 C 57.735 16.454, 58.860 24.817, 60.151 34.982 L 62.500 53.464 77.500 57.709 C 85.750 60.043, 92.776 61.964, 93.112 61.977 C 93.449 61.990, 95.216 56.150, 97.038 49 C 98.869 41.817, 100.865 36, 101.498 36 C 102.129 36, 106.709 37.978, 111.676 40.396 L 120.708 44.791 121.396 73.146 L 122.084 101.500 115.485 124.500 C 111.856 137.150, 108.014 150.465, 106.949 154.090 L 105.011 160.679 90.408 170.408 C 82.376 175.760, 75.663 179.994, 75.491 179.819 C 75.318 179.644, 82.831 166.757, 92.187 151.182 C 101.542 135.606, 108.949 122.615, 108.646 122.312 C 108.343 122.010, 101.521 122.537, 93.485 123.485 C 85.449 124.432, 78.665 124.999, 78.410 124.743 C 78.154 124.487, 83.574 116.011, 90.455 105.907 C 100.351 91.375, 102.707 87.281, 101.732 86.312 C 99.563 84.157, 63.642 60.024, 63.225 60.441 C 63.005 60.662, 65.789 69.827, 69.412 80.808 C 73.035 91.789, 76 101.061, 76 101.412 C 76 101.764, 71.912 99.303, 66.916 95.943 C 61.919 92.584, 57.553 90.113, 57.213 90.454 C 56.873 90.794, 57.868 107.018, 59.423 126.507 L 62.252 161.942 48.692 176.221 C 39.624 185.771, 35.466 190.831, 36.139 191.500 C 37.079 192.435, 51.719 177.948, 61.561 166.345 L 65.085 162.190 62.415 129.056 C 60.946 110.833, 59.995 95.671, 60.303 95.364 C 60.610 95.057, 65.192 97.825, 70.485 101.515 C 75.778 105.205, 80.284 108.049, 80.499 107.834 C 80.714 107.620, 77.993 98.490, 74.453 87.547 C 70.913 76.604, 68.199 67.468, 68.423 67.244 C 69.205 66.462, 98.499 87.176, 98.386 88.432 C 98.324 89.129, 92.336 98.366, 85.080 108.959 C 77.824 119.553, 72.035 128.369, 72.217 128.550 C 72.398 128.731, 79.488 128.021, 87.971 126.971 C 96.455 125.922, 103.574 125.241, 103.791 125.458 C 104.008 125.675, 96.195 139.177, 86.430 155.463 C 75.283 174.052, 69.025 185.425, 69.618 186.018 C 70.212 186.612, 77.441 182.374, 89.041 174.635 L 107.518 162.306 115.979 132.903 L 124.440 103.500 124.104 75.250 C 123.919 59.712, 124.074 47, 124.449 47 C 124.825 47, 126.016 47.473, 127.097 48.052 C 129.029 49.086, 129.050 50.123, 128.370 109.992 L 127.678 170.881 130.089 171.409 C 134.607 172.399, 180.497 177.836, 180.903 177.430 C 181.126 177.208, 179.551 171.282, 177.404 164.263 L 173.500 151.500 161.750 138.858 C 155.287 131.905, 150 125.942, 150 125.608 C 150 125.274, 155.400 125, 162 125 C 168.600 125, 174 124.690, 174 124.310 C 174 123.931, 171.256 115.900, 167.903 106.464 L 161.805 89.308 170.740 68.904 C 175.982 56.933, 179.210 48.383, 178.551 48.218 C 177.933 48.063, 171.144 49.247, 163.464 50.849 C 155.784 52.451, 149.396 53.673, 149.268 53.565 C 149.140 53.457, 153.138 44.272, 158.153 33.153 C 163.167 22.033, 166.997 12.664, 166.665 12.332 C 166.333 11.999, 142.985 12.139, 114.780 12.642 C 73.722 13.374, 62.962 13.302, 60.800 12.278 C 57.364 10.652, 57 10.673, 57 12.500 M 128.500 15.051 C 112.550 15.420, 92.525 15.825, 84 15.951 L 68.500 16.179 83.500 23.493 L 98.500 30.806 99.811 26.153 C 100.532 23.594, 101.338 20.851, 101.603 20.059 C 102.202 18.263, 124 39.695, 124 42.081 C 124 42.993, 125.708 44.466, 127.920 45.464 L 131.840 47.232 131.263 108.116 C 130.771 160.049, 130.893 169.003, 132.093 169.022 C 132.867 169.035, 143.400 170.332, 155.500 171.905 C 167.600 173.477, 177.548 174.705, 177.606 174.632 C 177.665 174.559, 176.090 169.411, 174.106 163.191 L 170.500 151.881 157.250 138.021 C 149.963 130.398, 144 123.950, 144 123.692 C 144 123.434, 149.850 122.898, 157 122.500 C 164.150 122.102, 170 121.503, 170 121.168 C 170 120.833, 167.485 113.522, 164.410 104.921 L 158.820 89.283 166.910 70.767 C 171.360 60.583, 175 52.022, 175 51.742 C 175 51.463, 168.469 52.601, 160.487 54.271 C 152.506 55.942, 145.718 57.052, 145.405 56.738 C 145.091 56.424, 148.922 47.052, 153.917 35.911 C 158.913 24.769, 163 15.282, 163 14.827 C 163 14.372, 161.762 14.085, 160.250 14.190 C 158.738 14.294, 144.450 14.681, 128.500 15.051 M 61.036 18.750 C 61.108 24.208, 64.838 50.236, 65.659 51.012 C 66.122 51.449, 70.100 52.785, 74.500 53.982 C 78.900 55.179, 84.591 56.760, 87.148 57.495 L 91.795 58.831 94.439 48.166 C 95.893 42.300, 97.315 36.728, 97.598 35.784 C 98.013 34.404, 94.579 32.298, 80.067 25.034 C 70.142 20.065, 61.791 16, 61.511 16 C 61.230 16, 61.016 17.238, 61.036 18.750 M 102.489 28.067 C 102.111 30.304, 101.959 32.277, 102.151 32.452 C 102.343 32.626, 106.775 34.887, 112 37.476 L 121.500 42.183 112.521 33.092 C 107.582 28.091, 103.459 24, 103.359 24 C 103.258 24, 102.867 25.830, 102.489 28.067" stroke="none" fill="black" fill-rule="evenodd"/>
</svg>