<svg xmlns="http://www.w3.org/2000/svg" width="200" height="200" viewBox="0 0 200 200" version="1.1">
	<path d="M 170.595 18.801 C 170.317 19.735, 166.461 37.150, 162.027 57.500 C 157.593 77.850, 153.851 94.865, 153.712 95.311 C 153.573 95.758, 148.450 92.495, 142.329 88.061 C 136.207 83.628, 130.591 79.999, 129.849 79.997 C 128.472 79.995, 114.506 64.161, 115.236 63.430 C 115.457 63.210, 123.021 63.706, 132.045 64.534 C 147.895 65.989, 151.001 65.947, 150.999 64.281 C 150.999 63.852, 144.704 60.575, 137.012 57 C 129.319 53.425, 123.024 50.275, 123.022 50 C 123.021 49.725, 131.453 46.159, 141.760 42.075 C 169.813 30.960, 167.978 31.834, 165 31.009 C 159.046 29.361, 103.006 19.660, 102.480 20.187 C 101.838 20.829, 83.988 70.341, 84.303 70.605 C 84.412 70.695, 93.275 73.098, 104 75.945 C 114.725 78.791, 124.251 81.337, 125.168 81.602 C 126.965 82.120, 138.361 94.972, 137.653 95.681 C 137.418 95.916, 124.371 95.322, 108.661 94.362 L 80.096 92.616 79.574 87.558 C 79.287 84.776, 78.770 76.763, 78.425 69.750 C 77.914 59.348, 77.522 57, 76.295 57 C 75.037 57, 74.887 58.262, 75.374 64.750 C 75.694 69.013, 76.238 77.524, 76.582 83.664 L 77.207 94.828 82.854 95.413 C 85.959 95.734, 100.381 96.728, 114.903 97.620 C 141.265 99.241, 141.309 99.247, 143.621 101.872 C 144.895 103.317, 145.951 104.783, 145.968 105.128 C 145.986 105.474, 142.287 107.356, 137.750 109.310 C 126.604 114.109, 126.908 115.424, 139.250 115.786 C 144.613 115.944, 149 116.310, 149 116.601 C 149 117.340, 137.988 168.086, 137.338 170.342 C 136.950 171.688, 137.266 172.092, 138.510 171.842 C 139.642 171.615, 144.043 163.295, 151.607 147.083 C 157.873 133.653, 163 122.121, 163 121.455 C 163 120.790, 162.325 119.685, 161.500 119 C 160.675 118.315, 160 117.360, 160 116.878 C 160 116.395, 165.778 116, 172.840 116 L 185.679 116 176.752 146.750 C 171.842 163.662, 167.694 177.633, 167.533 177.796 C 167.373 177.959, 156.512 176.473, 143.399 174.495 C 119.085 170.828, 118.817 170.749, 112.044 165.289 C 111.794 165.087, 115.154 157.747, 119.511 148.978 C 125.086 137.757, 127.120 132.720, 126.375 131.975 C 125.629 131.229, 119.183 135.668, 104.616 146.958 C 93.232 155.781, 83.745 163, 83.536 163 C 83.326 163, 88.452 154.338, 94.926 143.750 L 106.697 124.500 98.067 124.215 L 89.438 123.931 81.166 106.715 C 75.304 94.515, 72.656 89.937, 72.077 91 C 70.333 94.202, 63.853 126.836, 59.468 154.500 C 56.940 170.450, 54.635 184.175, 54.345 185 C 54.055 185.825, 50.465 174.594, 46.367 160.042 C 42.270 145.490, 38.748 133.415, 38.541 133.208 C 38.334 133.001, 33.767 133.534, 28.391 134.391 C 23.016 135.249, 18.548 135.849, 18.463 135.725 C 18.378 135.601, 22.299 122.900, 27.177 107.500 C 32.054 92.100, 37.670 73.334, 39.656 65.798 L 43.268 52.097 50.384 45.720 C 54.298 42.213, 59.147 37.905, 61.160 36.147 L 64.820 32.950 72.545 45.541 C 77.631 53.831, 80.606 57.794, 81.257 57.143 C 81.907 56.493, 79.584 51.774, 74.455 43.328 C 70.171 36.272, 66.332 30.114, 65.924 29.642 C 65.517 29.169, 59.614 33.778, 52.807 39.882 L 40.432 50.982 37.701 62.241 C 36.199 68.433, 30.402 88.014, 24.820 105.752 C 19.238 123.491, 14.932 138.266, 15.251 138.585 C 15.570 138.904, 20.426 138.434, 26.042 137.542 C 31.657 136.649, 36.393 136.059, 36.565 136.232 C 36.737 136.404, 39.846 147.110, 43.474 160.022 C 47.101 172.935, 50.741 185.863, 51.562 188.750 C 52.495 192.029, 53.608 194, 54.528 194 C 55.338 194, 56 193.781, 56 193.514 C 56 193.247, 58.478 177.609, 61.507 158.764 C 66.166 129.780, 70.269 108.085, 72.710 99.535 C 73.118 98.105, 75.244 101.511, 80.512 112.035 L 87.753 126.500 94.720 127 L 101.687 127.500 89.362 147.500 C 78.396 165.294, 75.694 170.885, 78.327 170.332 C 79.054 170.179, 107.450 148.457, 117.781 140.151 C 121.853 136.876, 122.015 136.831, 121.109 139.214 C 120.585 140.591, 117.432 147.154, 114.102 153.797 L 108.047 165.875 113.500 169.744 L 118.953 173.612 144.059 177.390 C 157.868 179.468, 169.315 181.018, 169.497 180.834 C 169.903 180.426, 189 114.691, 189 113.703 C 189 113.317, 181.665 113, 172.700 113 C 161.356 113, 156.035 112.635, 155.200 111.800 C 153.273 109.873, 153.719 105.224, 155.897 104.533 C 156.941 104.201, 161.956 98.214, 167.041 91.227 L 176.288 78.525 174.992 48.311 C 174.011 25.435, 173.381 17.976, 172.399 17.600 C 171.686 17.326, 170.874 17.867, 170.595 18.801 M 103.493 24.250 C 103.248 24.938, 99.630 35.105, 95.451 46.844 C 91.273 58.582, 88.053 68.386, 88.296 68.629 C 88.925 69.258, 122.242 78.092, 122.607 77.726 C 122.773 77.560, 119.728 73.706, 115.839 69.161 C 111.950 64.617, 109.023 60.644, 109.334 60.333 C 109.851 59.816, 134.096 61.534, 140 62.505 C 141.375 62.732, 136.427 59.978, 129.004 56.386 C 119.560 51.816, 115.957 49.621, 117.004 49.074 C 117.827 48.644, 127.428 44.752, 138.339 40.426 C 149.251 36.099, 157.801 32.447, 157.339 32.310 C 155.469 31.755, 106.502 23, 105.268 23 C 104.536 23, 103.737 23.563, 103.493 24.250 M 163.604 63.272 C 159.879 80.447, 156.757 95.261, 156.666 96.191 C 156.284 100.088, 158.758 97.909, 165.964 88 L 173.601 77.500 172.550 55.331 C 171.973 43.137, 171.247 32.910, 170.939 32.603 C 170.630 32.296, 167.330 46.097, 163.604 63.272 M 137.849 90.816 C 142.112 95.744, 143.787 97, 146.099 97 C 147.695 97, 149 96.814, 149 96.588 C 149 96.178, 137.034 87.352, 134.057 85.566 C 133.201 85.052, 134.907 87.415, 137.849 90.816 M 147.500 102 C 148.495 103.100, 149.674 104, 150.120 104 C 150.565 104, 151.411 103.100, 152 102 C 152.980 100.168, 152.760 100, 149.380 100 C 145.753 100, 145.721 100.034, 147.500 102 M 155 101.059 C 155 101.641, 155.450 101.840, 156 101.500 C 156.550 101.160, 157 100.684, 157 100.441 C 157 100.198, 156.550 100, 156 100 C 155.450 100, 155 100.477, 155 101.059 M 142 110.502 L 136.500 112.920 143.320 112.960 C 149.760 112.998, 150.121 112.879, 149.820 110.828 C 149.373 107.791, 148.274 107.745, 142 110.502 M 152 116.210 C 152 116.402, 149.979 125.738, 147.510 136.956 C 145.040 148.174, 143.149 157.482, 143.307 157.640 C 143.465 157.798, 147.357 149.822, 151.956 139.916 L 160.319 121.904 158.309 119.202 C 156.689 117.024, 152 114.801, 152 116.210" stroke="none" fill="black" fill-rule="evenodd"/>
</svg>