<svg xmlns="http://www.w3.org/2000/svg" width="200" height="200" viewBox="0 0 200 200" version="1.1">
	<path d="M 33.691 27.750 C 32.063 36.683, 30.578 49.796, 29.927 61 C 28.993 77.094, 28.082 83.275, 22.926 108.527 C 19.667 124.492, 17 138.136, 17 138.848 C 17 139.559, 20.712 144.586, 25.250 150.020 C 33.364 159.736, 33.708 160.006, 46.179 166.449 C 53.152 170.052, 59.286 173, 59.810 173 C 60.405 173, 60.571 159.038, 60.252 135.750 C 59.972 115.262, 59.962 98.725, 60.232 99 C 60.501 99.275, 61.978 108.050, 63.515 118.500 C 65.052 128.950, 66.578 137.803, 66.905 138.173 C 67.232 138.543, 71.100 136.219, 75.500 133.008 C 79.900 129.796, 83.627 127.513, 83.783 127.933 C 83.939 128.354, 82.271 138.761, 80.078 151.061 C 77.885 163.360, 76.265 173.598, 76.479 173.812 C 76.693 174.026, 84.615 169.788, 94.084 164.394 L 111.300 154.588 110.671 137.044 L 110.042 119.500 117.021 131.907 C 120.859 138.731, 123.994 144.806, 123.987 145.407 C 123.980 146.008, 121.571 153.025, 118.634 161 C 115.698 168.975, 113.579 175.617, 113.926 175.760 C 114.273 175.902, 117.368 174.517, 120.803 172.682 L 127.049 169.345 154.031 173.833 C 168.870 176.302, 181.217 178.117, 181.467 177.866 C 181.718 177.615, 177.601 165.172, 172.319 150.213 L 162.715 123.015 172.858 89.037 C 178.436 70.349, 182.990 54.483, 182.977 53.779 C 182.957 52.647, 147.066 19.959, 145.009 19.199 C 144.561 19.034, 143.420 21.284, 142.474 24.199 C 141.528 27.115, 140.472 29.794, 140.127 30.153 C 139.782 30.513, 131.850 29.465, 122.500 27.826 C 109.604 25.565, 103.229 23.898, 96.092 20.923 C 90.918 18.765, 86.305 17, 85.842 17 C 85.379 17, 85 17.900, 85 19 C 85 20.100, 84.438 20.995, 83.750 20.989 C 83.063 20.983, 72.150 19.183, 59.500 16.989 C 46.850 14.795, 36.473 13, 36.441 13 C 36.408 13, 35.171 19.637, 33.691 27.750 M 38.476 17.385 C 36.588 23.267, 33.780 44.491, 32.573 62 C 31.279 80.771, 30.388 86.863, 25.557 110 C 22.514 124.575, 20.025 137.175, 20.027 138 C 20.028 138.825, 23.445 143.550, 27.619 148.500 C 34.551 156.719, 36.134 157.997, 45.855 163.230 C 51.710 166.382, 56.833 168.969, 57.241 168.980 C 57.648 168.991, 57.687 147.625, 57.328 121.500 C 56.765 80.628, 56.874 74, 58.107 74 C 59.216 74, 60.527 80.492, 63.911 102.750 C 66.315 118.563, 68.570 132.055, 68.922 132.733 C 69.358 133.576, 72.402 131.937, 78.527 127.563 C 83.459 124.042, 87.628 121.295, 87.793 121.459 C 87.957 121.624, 86.242 132.209, 83.982 144.982 C 81.722 157.755, 80.029 168.362, 80.221 168.554 C 80.412 168.746, 86.964 165.277, 94.780 160.846 L 108.990 152.790 108.534 149.145 C 108.283 147.140, 107.813 138.338, 107.491 129.584 L 106.905 113.669 100.242 101.834 L 93.580 90 87.415 90 C 73.773 90, 70.299 87.240, 83.373 86.789 L 91.747 86.500 86.624 77.500 L 81.502 68.500 80.501 76.500 C 79.420 85.140, 77.510 87.131, 75.705 81.500 C 71.645 68.827, 54.580 20.318, 53.934 19.611 C 52.529 18.073, 38.885 16.109, 38.476 17.385 M 61.508 26.750 C 76.312 53.823, 79.498 58.969, 80.079 56.742 C 81.122 52.741, 84.351 25.018, 83.834 24.501 C 83.246 23.912, 62.361 20.037, 59.658 20.015 C 58.054 20.002, 58.293 20.871, 61.508 26.750 M 144.504 26.983 C 144.143 28.624, 143.770 30.301, 143.674 30.711 C 143.578 31.120, 146.640 31.970, 150.479 32.599 L 157.457 33.744 152.159 28.872 C 149.245 26.192, 146.478 24, 146.010 24 C 145.542 24, 144.864 25.343, 144.504 26.983 M 85.108 41.654 C 83.898 50.919, 82.701 59.625, 82.448 61 C 82.121 62.773, 83.849 66.845, 88.388 75 L 94.789 86.500 100.144 87.245 C 103.090 87.654, 109.183 88.345, 113.685 88.780 L 121.869 89.571 122.959 83.035 C 123.559 79.441, 124.285 75.324, 124.574 73.887 L 125.099 71.274 115.549 71.773 C 107.833 72.177, 106.002 72.006, 106.010 70.886 C 106.015 70.124, 108.873 61.400, 112.359 51.500 L 118.699 33.500 113.600 31.184 C 107.492 28.409, 100.221 26.421, 92.781 25.492 L 87.307 24.808 85.108 41.654 M 120.403 31.230 C 121.449 32.036, 122.022 33.156, 121.674 33.718 C 121.327 34.279, 118.377 42.465, 115.118 51.908 L 109.192 69.078 117.311 68.789 L 125.430 68.500 127.965 53.509 C 130.040 41.238, 130.818 38.457, 132.250 38.186 C 133.603 37.929, 134 38.537, 134 40.868 C 134 45.836, 135.555 45.252, 137.332 39.617 C 138.249 36.706, 139 34.088, 139 33.799 C 139 33.511, 135.512 32.727, 131.250 32.058 C 126.987 31.389, 122.375 30.599, 121 30.302 C 118.629 29.790, 118.598 29.838, 120.403 31.230 M 139.086 43.171 L 135.940 52.500 139.211 71.750 C 142.320 90.046, 142.593 91, 144.722 91 C 147.403 91, 146.965 92.740, 151.521 64 C 153.483 51.625, 155.317 40.317, 155.597 38.871 C 156.076 36.395, 155.827 36.203, 151.303 35.550 C 148.661 35.168, 145.540 34.628, 144.366 34.349 C 142.453 33.894, 141.905 34.810, 139.086 43.171 M 158.604 37.762 C 158.302 39.268, 156.230 51.975, 154 66 C 148.920 97.953, 149.123 97, 147.401 97 C 146.368 97, 146.113 96.224, 146.496 94.250 C 146.830 92.529, 146.448 92.996, 145.475 95.500 C 144.453 98.127, 144.144 100.837, 144.572 103.396 C 145.157 106.888, 145.028 107.241, 143.321 106.794 C 141.662 106.360, 140.608 108.526, 135.115 123.652 C 129.419 139.339, 128.879 141.487, 129.500 146.003 C 130.077 150.196, 129.931 151, 128.594 151 C 127.717 151, 127 150.460, 127 149.800 C 127 147.258, 125.173 150.776, 122.223 159 C 120.546 163.675, 118.854 168.309, 118.462 169.298 C 117.822 170.912, 118.226 170.864, 122.420 168.827 L 127.090 166.558 152.263 170.727 C 166.108 173.021, 177.545 174.788, 177.679 174.655 C 177.812 174.521, 173.849 162.860, 168.872 148.740 L 159.823 123.069 169.912 89.199 C 175.460 70.571, 180 54.915, 180 54.409 C 180 53.903, 175.310 49.335, 169.577 44.257 C 159.290 35.145, 159.146 35.060, 158.604 37.762 M 63.467 37.500 C 63.900 38.600, 67.232 48.275, 70.873 59 L 77.492 78.500 78.334 71.313 L 79.175 64.126 71.471 50.313 C 63.881 36.703, 61.922 33.567, 63.467 37.500 M 130.989 50.750 C 130.983 51.712, 130.753 54.300, 130.477 56.500 L 129.976 60.500 131.412 57 C 133.116 52.847, 133.398 49, 132 49 C 131.450 49, 130.995 49.788, 130.989 50.750 M 131.571 64.691 C 130.589 67.808, 129.249 70.894, 128.594 71.549 C 127.457 72.686, 124.341 88.727, 125.124 89.409 C 125.331 89.588, 128.537 89.968, 132.250 90.253 L 139 90.770 138.957 88.135 C 138.903 84.875, 134.473 60.139, 133.827 59.494 C 133.569 59.236, 132.554 61.574, 131.571 64.691 M 98 91.547 C 98 92.411, 106.204 107.133, 106.500 106.799 C 106.646 106.635, 106.534 103.013, 106.251 98.750 L 105.737 91 101.868 91 C 99.741 91, 98 91.246, 98 91.547 M 109.279 102.750 L 109.858 113.500 117.179 126.692 C 121.206 133.948, 124.600 139.573, 124.721 139.192 C 124.843 138.811, 123.460 132.014, 121.649 124.086 C 118.498 110.296, 118.411 109.365, 119.625 102.586 C 121.628 91.409, 121.895 92, 114.850 92 L 108.700 92 109.279 102.750 M 123.999 93.250 C 123.998 93.388, 123.353 97.162, 122.565 101.638 C 121.161 109.617, 121.191 110.027, 124.097 122.585 C 125.727 129.630, 127.200 135.533, 127.370 135.703 C 127.540 135.873, 130.705 127.652, 134.403 117.435 C 139.462 103.461, 140.968 98.133, 140.484 95.929 L 139.841 93 131.921 93 C 127.564 93, 123.999 93.112, 123.999 93.250" stroke="none" fill="black" fill-rule="evenodd"/>
</svg>