<svg xmlns="http://www.w3.org/2000/svg" width="200" height="200" viewBox="0 0 200 200" version="1.1">
	<path d="M 57.262 23.297 C 34.580 30.559, 16.019 36.725, 16.014 37 C 16.009 37.275, 22.304 39.289, 30.003 41.475 L 44 45.450 44 52.484 L 44 59.517 30.519 78.009 C 23.104 88.179, 17.029 96.730, 17.019 97.011 C 17.008 97.292, 25.558 99.065, 36.017 100.951 L 55.035 104.380 62.938 113.548 L 70.841 122.716 59.171 123.367 C 24.713 125.289, 25.914 125.154, 26.512 127.039 C 26.818 128.002, 30.378 136.150, 34.424 145.145 L 41.781 161.500 71.439 172.868 C 87.751 179.120, 101.316 184.018, 101.582 183.752 C 101.848 183.485, 104.751 173.870, 108.033 162.384 C 111.315 150.898, 114.113 141.174, 114.250 140.776 C 114.388 140.377, 128.183 148.834, 144.907 159.568 C 166.379 173.350, 175.627 178.773, 176.378 178.022 C 177.128 177.272, 171.597 171.110, 157.555 157.056 L 137.670 137.152 143.085 135.621 C 172.649 127.265, 175.506 126.324, 175.789 124.856 C 176.049 123.506, 173.368 123.205, 155.581 122.587 L 135.073 121.875 117.504 112.572 C 107.841 107.455, 99.748 103.082, 99.520 102.854 C 99.293 102.626, 108.429 103.302, 119.825 104.356 L 140.543 106.272 162.521 101 C 174.610 98.100, 184.612 95.639, 184.750 95.531 C 184.887 95.422, 183.446 91.771, 181.548 87.417 C 178.298 79.964, 178.210 79.481, 180.048 79.180 C 183.106 78.680, 182.436 76.001, 179.250 75.992 C 176.694 75.985, 176.147 75.160, 171.500 64.308 L 166.500 52.631 165.951 37.850 C 165.649 29.720, 165.135 22.802, 164.808 22.475 C 164.482 22.148, 153.929 25.074, 141.357 28.977 C 128.786 32.879, 117.777 36.291, 116.894 36.558 C 115.707 36.917, 113.120 33.516, 106.977 23.522 C 102.405 16.085, 98.628 10.021, 98.583 10.047 C 98.537 10.073, 79.943 16.035, 57.262 23.297 M 59.818 25.362 C 40.742 31.488, 25.442 36.765, 25.818 37.090 C 26.193 37.414, 30.100 38.679, 34.500 39.899 C 47.464 43.496, 46.707 42.834, 46.213 50.147 C 45.711 57.549, 45.313 57.812, 54.943 44.393 L 62.197 34.286 71.252 33.643 C 76.232 33.289, 86.124 33, 93.233 33 L 106.159 33 105.632 35.750 C 105.343 37.263, 104.816 40.850, 104.463 43.723 C 103.820 48.946, 103.820 48.946, 107.374 50.642 C 110.801 52.276, 111.178 52.252, 117.835 49.986 L 124.740 47.635 127.743 51.067 C 140.782 65.976, 148 74.587, 148 75.235 C 148 75.656, 153.625 76, 160.500 76 C 167.375 76, 173 75.650, 173 75.222 C 173 74.793, 170.928 69.736, 168.396 63.983 C 163.822 53.588, 163.789 53.436, 163.248 39.761 C 162.899 30.941, 162.317 26, 161.627 26 C 161.035 26, 150.245 29.189, 137.648 33.087 C 118.713 38.947, 114.534 39.943, 113.519 38.837 C 112.845 38.102, 109.046 32.213, 105.079 25.750 C 100.261 17.903, 97.306 14.037, 96.182 14.112 C 95.257 14.173, 78.893 19.235, 59.818 25.362 M 55.175 48.637 L 46 61.275 46 68.530 C 46 74.224, 46.341 75.917, 47.582 76.393 C 48.452 76.727, 54.650 77, 61.357 77 C 72.819 77, 74.490 76.730, 89.227 72.500 C 97.849 70.025, 105.375 68, 105.952 68 C 108.099 68, 106.834 70.581, 103.500 73 C 101.605 74.375, 100.043 75.832, 100.028 76.238 C 100.005 76.849, 142.959 76.146, 143.757 75.521 C 144.175 75.193, 111.155 56, 110.171 56 C 109.675 56, 97.877 60.283, 83.953 65.518 C 67.055 71.871, 58.303 74.703, 57.635 74.035 C 57.084 73.484, 56.828 72.873, 57.067 72.677 C 57.407 72.397, 79.068 64.309, 104.938 54.803 L 107.376 53.907 104.178 51.962 C 101.038 50.052, 100.991 49.915, 101.574 44.259 C 101.900 41.091, 102.340 37.938, 102.552 37.250 C 102.851 36.280, 98.617 36, 83.644 36 L 64.350 36 55.175 48.637 M 118.188 52.683 C 115.816 53.522, 114.016 54.345, 114.188 54.511 C 114.579 54.891, 134.760 66.801, 137.460 68.246 C 139.323 69.243, 139.356 69.179, 137.975 67.240 C 134.465 62.309, 124.414 51.135, 123.500 51.146 C 122.950 51.152, 120.559 51.844, 118.188 52.683 M 32.693 79.591 C 27.300 87.038, 22.674 93.687, 22.413 94.366 C 22.076 95.245, 26.474 96.417, 37.720 98.443 C 46.399 100.007, 54.311 101.578, 55.303 101.935 C 57.209 102.620, 76.120 124.210, 75.425 124.907 C 75.202 125.131, 65.100 125.858, 52.977 126.523 C 40.854 127.188, 30.734 127.932, 30.489 128.177 C 30.244 128.422, 33.172 135.570, 36.995 144.060 L 43.946 159.498 71.723 170.077 C 89.456 176.831, 99.719 180.266, 100.105 179.578 C 100.437 178.985, 103.329 169.050, 106.531 157.500 C 109.733 145.950, 112.481 136.330, 112.637 136.123 C 112.794 135.915, 123.627 142.620, 136.711 151.022 C 149.795 159.424, 161.625 167.012, 163 167.885 C 164.375 168.758, 158.187 161.840, 149.249 152.513 L 132.998 135.553 149.208 130.941 L 165.417 126.329 159.062 125.664 C 155.567 125.299, 148.701 125, 143.805 125 L 134.903 125 113.202 113.391 C 101.266 107.006, 91.305 101.599, 91.067 101.374 C 90.828 101.150, 91.067 100.533, 91.597 100.003 C 92.216 99.384, 101.185 99.825, 116.637 101.235 L 140.713 103.431 160.606 98.587 C 171.548 95.923, 180.626 93.637, 180.780 93.508 C 181.136 93.209, 175.904 80.781, 174.956 79.675 C 174.347 78.963, 130.569 80.622, 98.036 82.589 C 88.486 83.166, 87.688 83.081, 88.908 81.611 C 90.120 80.151, 89.429 80, 81.522 80 C 74.742 80, 70.453 80.683, 62.267 83.068 C 55.008 85.182, 51.414 85.814, 50.701 85.101 C 49.548 83.948, 49.900 83.757, 57 81.685 L 61.500 80.372 53.067 79.703 C 48.429 79.335, 44.222 78.622, 43.719 78.119 C 43.215 77.615, 42.960 74.682, 43.152 71.600 C 43.343 68.519, 43.275 66.009, 43 66.024 C 42.725 66.038, 38.087 72.144, 32.693 79.591 M 90.500 75 L 84.500 76.837 89.342 76.919 C 92.762 76.976, 94.931 76.413, 96.727 75 C 99.803 72.581, 98.401 72.581, 90.500 75" stroke="none" fill="black" fill-rule="evenodd"/>
</svg>