<svg xmlns="http://www.w3.org/2000/svg" width="200" height="200" viewBox="0 0 200 200" version="1.1">
	<path d="M 111.500 25.070 C 97.750 30.544, 84.925 35.266, 83 35.564 C 81.075 35.862, 65.418 36.702, 48.206 37.430 C 30.994 38.159, 16.757 38.922, 16.568 39.127 C 16.378 39.332, 18.755 51.313, 21.849 65.750 C 25.600 83.254, 27.895 92, 28.737 92 C 29.432 92, 30 91.580, 30 91.066 C 30 90.552, 27.750 79.767, 25 67.098 C 22.250 54.430, 20 43.433, 20 42.660 C 20 41.525, 23.695 41.129, 39.250 40.598 C 49.838 40.237, 61.425 39.729, 65 39.470 L 71.500 38.999 62.216 42.040 C 55.776 44.149, 53.148 45.452, 53.636 46.291 C 54.024 46.956, 63.504 61.566, 74.704 78.757 C 85.905 95.948, 95.326 110.686, 95.641 111.507 C 96.123 112.762, 94.791 113, 87.278 113 L 78.342 113 68.431 105.573 C 62.980 101.489, 58.450 98.226, 58.365 98.323 C 58.280 98.421, 57.168 117.063, 55.894 139.750 C 54.620 162.438, 53.324 181, 53.013 181 C 52.703 181, 45.577 167.162, 37.179 150.250 C 22.048 119.778, 18.752 113.914, 17.477 115.189 C 16.863 115.804, 53.166 189.366, 55.113 191.450 C 55.638 192.012, 56.016 190.380, 56.040 187.450 C 56.116 177.970, 60.675 104.992, 61.225 104.441 C 61.530 104.137, 65.419 106.675, 69.868 110.082 L 77.956 116.276 88.233 115.587 L 98.509 114.899 100.339 117.996 C 102.621 121.860, 102.908 121.498, 88.357 133.114 C 82.109 138.103, 77.179 142.480, 77.403 142.842 C 77.627 143.204, 84.357 148.675, 92.359 155 C 100.360 161.325, 106.928 166.748, 106.954 167.050 C 106.979 167.353, 101.824 170.053, 95.498 173.050 C 87.966 176.619, 84.255 178.888, 84.748 179.623 C 85.543 180.811, 168.905 184.179, 170.143 183.074 C 170.845 182.447, 178.338 136, 177.819 135.492 C 177.643 135.321, 171.200 133.322, 163.500 131.050 C 148.026 126.485, 124.222 116.113, 126.255 114.821 C 126.940 114.386, 133.375 114.024, 140.556 114.015 L 153.612 114 164.493 95.750 L 175.373 77.500 176.630 61 C 177.321 51.925, 177.912 42.470, 177.943 39.989 L 178 35.477 157.494 25.239 C 146.215 19.607, 136.878 15.027, 136.744 15.060 C 136.610 15.092, 125.250 19.597, 111.500 25.070 M 115.500 26.473 C 96.966 33.890, 95.003 34.884, 98.779 34.939 C 101.411 34.976, 105.268 36.116, 108.802 37.900 L 114.548 40.801 128.524 39.949 C 148.379 38.740, 151 38.779, 151 40.284 C 151 41.003, 141.873 45.464, 130.250 50.427 C 118.838 55.299, 108.825 59.698, 108 60.201 C 107.039 60.788, 108.655 60.930, 112.500 60.597 C 119.924 59.953, 139.210 62.095, 139.711 63.619 C 139.919 64.250, 131.889 68.306, 121.290 72.925 L 102.500 81.113 109 80.591 C 112.575 80.303, 124.841 79.307, 136.258 78.376 C 166.716 75.892, 166.157 77.018, 132 86.946 C 118.525 90.863, 107.050 94.248, 106.500 94.469 C 105.950 94.690, 116.862 94.603, 130.750 94.277 C 163.179 93.514, 163.516 94.098, 135.727 102.924 C 124.602 106.458, 115.117 109.675, 114.649 110.075 C 112.703 111.737, 119.284 112.189, 135.401 111.500 L 152.500 110.770 162.600 93.635 L 172.699 76.500 173.853 60.500 C 174.487 51.700, 175.004 42.815, 175.003 40.755 L 175 37.010 156.010 27.505 C 145.565 22.277, 136.903 18.015, 136.760 18.034 C 136.617 18.053, 127.050 21.850, 115.500 26.473 M 85.500 38.690 C 82.904 39.027, 58.059 45.947, 57.179 46.578 C 57.003 46.704, 59.458 50.713, 62.635 55.487 L 68.410 64.166 72.455 63.627 C 74.680 63.332, 81 62.794, 86.500 62.433 C 96.920 61.748, 98.985 61.008, 139.500 43.439 C 142.073 42.323, 140.438 42.220, 127.998 42.712 C 113.761 43.275, 113.402 43.237, 108.282 40.643 C 103.930 38.438, 101.860 38.025, 95.783 38.150 C 91.777 38.232, 87.150 38.475, 85.500 38.690 M 104 63.994 C 98.374 64.513, 94.127 65.739, 87 68.902 C 81.775 71.221, 76.794 73.181, 75.931 73.258 C 74.834 73.356, 78.139 79.190, 86.931 92.675 L 99.500 111.952 104.941 111.976 C 109.633 111.997, 110.139 111.822, 108.613 110.707 C 107.073 109.580, 109.212 108.613, 125.172 103.217 L 143.500 97.021 118.750 97.571 C 97.020 98.053, 94 97.935, 94 96.599 C 94 95.689, 95.508 94.666, 97.750 94.054 C 113.549 89.743, 141.049 81.107, 139.129 81.059 C 136.687 80.998, 106.117 83.550, 97.864 84.503 C 94.456 84.897, 93.088 84.672, 92.697 83.653 C 92.311 82.647, 97.834 79.831, 112.833 73.384 L 133.500 64.500 127.500 63.859 C 120.062 63.063, 113.686 63.100, 104 63.994 M 78.250 65.737 C 72.872 66.113, 72.099 66.699, 74.200 68.800 C 75.887 70.487, 77.019 70.329, 83.122 67.558 C 88.737 65.007, 88.729 65.004, 78.250 65.737 M 103 117 C 104.289 119.408, 104.892 119.464, 107.780 117.442 C 109.894 115.961, 110.060 116.023, 111.113 118.692 C 113.009 123.494, 119 141.350, 119 142.196 C 119 145.024, 115.688 141.710, 110.544 133.734 C 107.269 128.655, 104.486 124.342, 104.359 124.148 C 104.233 123.955, 99.510 127.555, 93.862 132.148 C 88.215 136.742, 83 140.952, 82.274 141.504 C 81.272 142.265, 84.712 145.521, 96.476 154.949 C 105.014 161.791, 112 167.673, 112 168.019 C 112 168.365, 107.518 170.621, 102.041 173.032 C 96.563 175.442, 92.241 177.574, 92.435 177.768 C 92.956 178.289, 167.426 180.889, 167.921 180.404 C 168.260 180.072, 174.889 140.117, 174.976 137.887 C 174.989 137.549, 169.262 135.605, 162.250 133.566 C 154.933 131.438, 142.646 126.693, 133.415 122.429 C 117.819 115.226, 117.096 115, 109.630 115 C 102.240 115, 101.973 115.080, 103 117 M 107.271 121.129 C 106.433 121.967, 106.805 123.259, 108.717 126.149 C 110.134 128.290, 111.451 129.883, 111.643 129.690 C 111.975 129.358, 109.042 120, 108.606 120 C 108.493 120, 107.892 120.508, 107.271 121.129" stroke="none" fill="black" fill-rule="evenodd"/>
</svg>