<svg xmlns="http://www.w3.org/2000/svg" width="200" height="200" viewBox="0 0 200 200" version="1.1">
	<path d="M 108.780 24.819 C 103.051 32.344, 98.071 38.997, 97.712 39.605 C 97.166 40.532, 98.721 57.874, 100.420 69.797 C 100.859 72.881, 99.854 74.229, 84.763 90.797 C 75.893 100.533, 68.322 108.632, 67.938 108.793 C 67.554 108.955, 67.041 107.735, 66.799 106.082 C 66.553 104.410, 66.849 102.888, 67.465 102.652 C 68.074 102.418, 69.130 98.913, 69.812 94.864 C 70.493 90.814, 71.306 86.532, 71.617 85.348 C 72.169 83.244, 71.865 83.179, 58.182 82.474 L 44.182 81.753 39.514 77.015 L 34.847 72.276 47.700 61.294 L 60.553 50.312 71.307 60.326 C 77.637 66.220, 82.416 69.961, 82.925 69.420 C 83.423 68.889, 80.884 63.425, 76.920 56.500 C 73.143 49.900, 70.040 44.021, 70.026 43.437 C 70.012 42.852, 75.433 37.732, 82.074 32.060 C 90.497 24.866, 93.831 21.431, 93.099 20.699 C 92.367 19.967, 87.340 20.636, 76.470 22.911 C 67.900 24.704, 60.294 25.943, 59.566 25.664 C 58.839 25.385, 57.826 25.574, 57.316 26.084 C 56.668 26.732, 18.315 34.859, 15.281 34.991 C 15.161 34.996, 15.297 35.610, 15.583 36.356 C 16.008 37.464, 18.235 37.279, 27.763 35.343 C 34.175 34.040, 39.752 33.092, 40.156 33.237 C 40.559 33.382, 34.811 44.460, 27.383 57.855 C 19.955 71.251, 14.030 82.363, 14.217 82.550 C 14.404 82.737, 20.919 83.205, 28.696 83.590 L 42.835 84.290 50.644 92.145 L 58.453 100 50.382 100 C 35.908 100, 21 101.230, 21 102.424 C 21 103.039, 26.197 104.850, 32.550 106.448 C 38.902 108.045, 44.265 109.620, 44.468 109.948 C 44.670 110.276, 37.448 118.727, 28.418 128.729 C 19.388 138.731, 12 147.277, 12 147.719 C 12 148.162, 24.038 151.393, 38.750 154.900 C 53.463 158.408, 65.782 161.552, 66.127 161.889 C 66.472 162.225, 64.832 167.337, 62.483 173.250 C 60.135 179.162, 58.361 184, 58.542 184 C 59.056 184, 98.256 160.318, 100.475 158.667 C 102.269 157.333, 102.638 154.569, 104.507 128.526 C 106.041 107.144, 106.333 97.702, 105.656 91.387 C 105.156 86.729, 105.013 82.654, 105.337 82.330 C 106.399 81.267, 125.507 88.720, 125.394 90.153 C 125.335 90.894, 119.793 110.333, 113.077 133.350 C 106.362 156.368, 101.062 175.396, 101.300 175.634 C 101.723 176.057, 123.927 161.212, 127.107 158.380 C 127.999 157.586, 132.439 144.039, 137.090 127.926 C 141.698 111.962, 145.588 99.265, 145.736 99.709 C 145.884 100.153, 148.011 118.231, 150.462 139.884 C 152.912 161.536, 155.049 179.379, 155.209 179.535 C 155.369 179.691, 161.246 174.347, 168.270 167.659 L 181.040 155.500 176.149 145.500 C 173.459 140, 165.616 123.933, 158.720 109.796 L 146.181 84.093 152.146 81.796 C 157.152 79.869, 159.348 78.134, 165.805 71.007 C 170.037 66.336, 175.186 60.663, 177.246 58.400 L 180.991 54.286 159.069 44.643 C 147.012 39.339, 136.775 35, 136.320 35 C 135.864 35, 130.117 40.921, 123.548 48.157 C 116.979 55.393, 111.464 60.893, 111.293 60.379 C 111.122 59.865, 113.395 48.792, 116.345 35.773 C 120.367 18.019, 121.394 11.981, 120.452 11.620 C 119.717 11.338, 114.887 16.799, 108.780 24.819 M 108.155 30.092 L 99.901 41.108 101.535 55.304 C 102.433 63.112, 103.283 69.615, 103.424 69.756 C 103.564 69.897, 104.369 69.222, 105.212 68.256 C 106.574 66.696, 117.538 20.204, 116.733 19.400 C 116.555 19.222, 112.695 24.034, 108.155 30.092 M 72.828 26.381 C 67.509 27.547, 62.853 28.806, 62.481 29.180 C 61.794 29.873, 67.027 39.997, 68.074 39.999 C 68.496 40, 82.964 28.009, 86.917 24.382 C 87.830 23.544, 82.009 24.370, 72.828 26.381 M 52.500 30.491 C 51.950 30.675, 50.201 31.113, 48.614 31.466 L 45.728 32.106 48.614 35.147 C 50.201 36.819, 53.632 39.982, 56.237 42.176 L 60.975 46.165 63.375 44.277 L 65.776 42.388 62.297 36.194 C 59.355 30.957, 58.407 30.012, 56.159 30.079 C 54.696 30.122, 53.050 30.308, 52.500 30.491 M 31.139 56.690 C 24.344 69.025, 19.095 79.429, 19.474 79.809 C 19.853 80.189, 24.514 80.651, 29.832 80.834 L 39.500 81.169 35.164 76.708 L 30.827 72.248 44.414 60.592 C 51.886 54.182, 58 48.556, 58 48.091 C 58 47.626, 54.736 44.324, 50.747 40.753 L 43.493 34.262 31.139 56.690 M 123.597 52.088 C 109.935 67.078, 108.470 69.206, 107.460 75.524 L 106.817 79.547 117.530 83.010 C 123.423 84.914, 128.420 86.930, 128.635 87.490 C 128.849 88.050, 123.690 106.731, 117.169 129.004 C 110.647 151.277, 105.403 169.624, 105.515 169.776 C 105.844 170.223, 124.560 157.245, 125.654 155.811 C 126.204 155.090, 130.389 141.450, 134.954 125.500 C 139.518 109.550, 143.864 95.001, 144.610 93.168 C 145.771 90.316, 145.753 89.422, 144.483 86.968 C 143.667 85.390, 143.001 83.739, 143.003 83.300 C 143.005 82.860, 146.150 81.211, 149.992 79.635 C 156.289 77.053, 157.919 75.733, 166.519 66.248 C 171.766 60.461, 175.851 55.517, 175.595 55.262 C 175.062 54.729, 140.289 39.231, 137.967 38.491 C 136.948 38.167, 132.123 42.732, 123.597 52.088 M 64.679 46.802 C 63.145 48.497, 63.443 48.991, 69.659 55.052 L 76.270 61.500 71.885 53.251 C 69.473 48.714, 67.232 45.002, 66.905 45.001 C 66.578 45, 65.576 45.811, 64.679 46.802 M 104.079 74.583 C 104.127 75.748, 104.364 75.985, 104.683 75.188 C 104.972 74.466, 104.936 73.603, 104.604 73.271 C 104.272 72.939, 104.036 73.529, 104.079 74.583 M 84.612 94.786 C 72.791 107.750, 69.072 112.426, 70.085 113.053 C 70.834 113.515, 74.609 114.650, 78.473 115.575 C 82.338 116.499, 85.864 117.584, 86.308 117.986 C 86.753 118.388, 81.924 131.689, 75.577 147.544 C 69.231 163.399, 64.221 176.554, 64.445 176.778 C 65.051 177.384, 99.158 156.772, 99.571 155.550 C 99.766 154.973, 100.797 141.900, 101.862 126.500 C 103.500 102.831, 103.615 96.921, 102.605 88.289 C 101.948 82.673, 101.206 77.916, 100.955 77.720 C 100.705 77.523, 93.350 85.203, 84.612 94.786 M 55 92.500 C 59.097 96.625, 63.217 100, 64.154 100 C 65.431 100, 66.141 98.559, 66.988 94.250 C 67.610 91.088, 68.281 87.994, 68.480 87.375 C 68.907 86.045, 62.373 85, 53.635 85 L 47.550 85 55 92.500 M 148.493 98 C 148.774 99.925, 150.814 117.674, 153.027 137.441 C 155.239 157.209, 157.239 173.572, 157.471 173.804 C 157.703 174.036, 162.274 169.963, 167.630 164.753 L 177.367 155.281 175.247 150.390 C 168.968 135.904, 148.044 94.931, 148.493 98 M 33.083 103.400 C 33.313 103.619, 40.323 105.595, 48.662 107.790 C 63.699 111.748, 63.828 111.764, 64.378 109.663 C 64.683 108.498, 64.262 106.522, 63.443 105.272 C 62.007 103.080, 61.436 103, 47.310 103 C 39.256 103, 32.854 103.180, 33.083 103.400 M 48 119.331 C 48.275 124.010, 48.783 128.120, 49.128 128.464 C 49.474 128.808, 52.756 125.807, 56.422 121.795 L 63.087 114.500 58.794 113.231 C 56.432 112.533, 52.925 111.706, 51 111.392 L 47.500 110.823 48 119.331 M 30.327 130.629 L 16.154 146.500 39.692 152.301 C 52.639 155.492, 63.414 157.920, 63.637 157.696 C 63.860 157.473, 63.921 148.435, 63.772 137.613 L 63.500 117.936 55.590 126.718 C 51.240 131.548, 47.302 135.650, 46.840 135.833 C 46.378 136.017, 45.961 133.542, 45.912 130.333 C 45.864 127.125, 45.527 122.308, 45.162 119.629 L 44.500 114.758 30.327 130.629 M 67 138.167 C 67 150.358, 67.182 160.146, 67.404 159.917 C 68.145 159.153, 83 121.570, 83 120.459 C 83 119.576, 70.594 115.939, 67.750 115.987 C 67.338 115.994, 67 125.975, 67 138.167" stroke="none" fill="black" fill-rule="evenodd"/>
</svg>