<svg xmlns="http://www.w3.org/2000/svg" width="200" height="200" viewBox="0 0 200 200" version="1.1">
	<path d="M 89.488 88.250 C 89.733 125.788, 89.612 161.225, 89.217 167 L 88.500 177.500 82.037 177.500 L 75.575 177.500 72.367 166.286 L 69.160 155.072 70.133 113.286 C 70.668 90.304, 71.194 69.475, 71.303 67 L 71.500 62.500 55.500 61.411 C 46.700 60.812, 39.438 60.362, 39.362 60.411 C 38.769 60.794, 38.729 131.911, 39.315 144.500 L 40.060 160.500 30.586 170.500 L 21.113 180.500 97.307 181.047 C 139.213 181.347, 173.610 181.538, 173.744 181.470 C 174.305 181.184, 177.368 165.035, 176.942 164.608 C 176.685 164.352, 170.834 163.611, 163.938 162.963 L 151.402 161.784 138.095 168.453 C 130.776 172.120, 124.596 174.930, 124.363 174.696 C 123.114 173.448, 121.082 147.638, 120.946 131.289 L 120.789 112.500 125.045 103.233 C 129.238 94.101, 129.346 93.973, 132.400 94.472 C 140.993 95.875, 172.170 99.163, 172.620 98.713 C 173.039 98.294, 164.598 77.264, 163.616 76.283 C 163.461 76.128, 157.412 77.777, 150.172 79.948 L 137.010 83.895 128.005 82.787 C 120.886 81.910, 119.006 81.345, 119.028 80.089 C 119.044 79.215, 119.709 70.400, 120.507 60.500 C 122.073 41.058, 122.337 29.672, 121.358 23.750 L 120.738 20 104.889 20 L 89.040 20 89.488 88.250 M 92.247 83.249 C 92.944 139.458, 92.670 166.951, 91.334 174.750 L 90.777 178 105.889 178 C 123.541 178, 121.778 180.202, 119.500 161 C 118.685 154.125, 118.013 140.135, 118.009 129.911 L 118 111.323 122.992 101.115 L 127.984 90.906 131.242 91.438 C 133.034 91.730, 140.575 92.654, 148 93.490 C 155.425 94.327, 163.197 95.275, 165.271 95.597 L 169.043 96.183 167.105 91.342 C 166.039 88.679, 164.470 84.864, 163.618 82.864 L 162.069 79.229 149.557 83.021 L 137.046 86.813 126.942 85.492 C 121.385 84.766, 116.628 83.961, 116.370 83.703 C 116.111 83.445, 116.597 74.294, 117.449 63.367 C 118.301 52.440, 118.998 38.888, 118.999 33.250 L 119 23 105.250 22.999 L 91.500 22.999 92.247 83.249 M 41.585 91.805 C 41.097 111.291, 41.268 127.013, 42.118 140.794 L 43.368 161.088 34.956 169.544 L 26.544 178 49.648 178 L 72.752 178 69.552 166.750 L 66.352 155.500 67.170 114.500 C 67.620 91.950, 68.259 71.634, 68.589 69.353 L 69.190 65.205 58.345 64.570 C 52.380 64.221, 46.331 63.749, 44.902 63.523 L 42.303 63.111 41.585 91.805 M 138.500 171.423 L 125.500 177.678 147.473 178.414 C 159.558 178.818, 169.878 179.228, 170.405 179.324 C 171.406 179.508, 174.420 168.086, 173.590 167.256 C 172.959 166.626, 159.436 165.077, 155 165.128 C 152.821 165.152, 146.592 167.529, 138.500 171.423" stroke="none" fill="black" fill-rule="evenodd"/>
</svg>