<svg xmlns="http://www.w3.org/2000/svg" width="200" height="200" viewBox="0 0 200 200" version="1.1">
	<path d="M 68.743 13.750 C 68.448 14.800, 58.961 20.496, 45.008 28 L 21.763 40.500 22.409 64.500 C 23.449 103.109, 23.299 106.707, 19.052 145 C 16.826 165.075, 15.003 181.838, 15.002 182.250 C 14.992 185.719, 19.608 179.869, 31.373 161.500 C 38.947 149.675, 45.377 140, 45.662 140 C 45.948 140, 48.567 142.038, 51.483 144.529 L 56.785 149.059 61.996 167.779 C 64.862 178.076, 67.530 186.847, 67.925 187.271 C 68.319 187.695, 75.291 172.223, 83.418 152.890 C 93.319 129.337, 97.824 117.509, 97.072 117.044 C 96.454 116.662, 85.497 115.324, 72.724 114.070 C 59.951 112.816, 49.410 111.709, 49.300 111.611 C 49.023 111.365, 60.382 105.423, 80.268 95.412 L 97.036 86.971 95.492 83.985 C 94.643 82.343, 94.326 81, 94.786 81 C 95.247 81, 100.666 89.357, 106.829 99.571 L 118.035 118.143 116.165 120.821 C 113.946 124, 92.666 179.999, 93.398 180.732 C 93.676 181.009, 101.168 179.352, 110.047 177.049 L 126.190 172.862 154.596 173.181 C 170.219 173.357, 183.001 173.383, 183.001 173.241 C 183 173.098, 178.340 163.648, 172.644 152.241 L 162.287 131.500 169.620 107.500 C 173.653 94.300, 176.963 83.185, 176.976 82.800 C 176.989 82.415, 174.584 81.965, 171.631 81.800 L 166.263 81.500 171.556 69.226 L 176.850 56.953 166.740 38.976 L 156.630 21 152.365 21 C 149.448 21, 147.809 20.480, 147.180 19.357 C 146.437 18.030, 145.706 17.904, 143.380 18.704 C 141.242 19.440, 131.998 18.715, 107.500 15.892 C 68.744 11.425, 69.384 11.461, 68.743 13.750 M 71.500 16.154 C 70.950 16.733, 60.375 22.737, 48 29.495 L 25.500 41.783 25.768 74.642 C 26.032 106.932, 25.971 108.092, 22.229 141.750 C 20.134 160.588, 18.506 176, 18.610 176 C 18.715 176, 24.323 167.337, 31.073 156.750 C 37.824 146.162, 43.698 137.093, 44.127 136.596 C 44.979 135.609, 49.147 138.541, 55.561 144.639 C 59.374 148.265, 59.886 149.463, 63.956 164.305 C 66.340 172.998, 68.611 179.748, 69.003 179.305 C 70.365 177.768, 94.296 119.963, 93.783 119.450 C 93.499 119.166, 81.282 117.740, 66.634 116.280 C 51.985 114.821, 40 113.369, 40 113.055 C 40 112.740, 51.925 106.525, 66.500 99.244 C 81.075 91.962, 93 85.640, 93 85.194 C 93 84.747, 92.438 83.627, 91.750 82.705 C 90.705 81.303, 87.546 80.891, 72.500 80.199 C 62.600 79.743, 54.163 79.538, 53.750 79.744 C 53.337 79.950, 53 82.566, 53 85.559 C 53 89.429, 52.615 91, 51.665 91 C 49.606 91, 47.759 77.869, 49.611 76.390 C 50.525 75.659, 51 73.180, 51 69.137 C 51 64.071, 50.482 62.162, 48.047 58.250 C 46.423 55.641, 45.411 53.232, 45.797 52.896 C 46.184 52.561, 51.563 50.578, 57.750 48.489 C 63.938 46.399, 69 44.646, 69 44.592 C 69 44.538, 68.108 41.375, 67.018 37.562 C 65.928 33.750, 65.233 30.433, 65.475 30.192 C 66.636 29.030, 69.059 31.359, 71.956 36.424 C 73.711 39.491, 75.445 42, 75.810 42 C 77.253 42, 132 22.514, 132 22.001 C 132 21.549, 74.609 14.757, 73 15.019 C 72.725 15.063, 72.050 15.574, 71.500 16.154 M 119.500 33.096 C 107.950 38.638, 98.450 43.245, 98.390 43.336 C 98.329 43.426, 99.293 48, 100.531 53.500 C 101.770 59, 103.552 66.987, 104.492 71.250 C 105.996 78.073, 106.466 79, 108.418 79 C 110.352 79, 111.956 75.993, 120.974 55.462 C 126.661 42.516, 131.583 31.758, 131.912 31.555 C 132.241 31.351, 138.358 42.387, 145.505 56.078 C 161.696 87.092, 161.086 86.751, 168.651 69.053 L 173.758 57.106 165.038 41.512 C 160.242 32.935, 155.866 25.466, 155.314 24.914 C 154.761 24.361, 151.202 23.710, 147.405 23.465 L 140.500 23.021 119.500 33.096 M 98.500 37.063 C 89.150 40.333, 80.498 43.442, 79.274 43.972 C 77.113 44.907, 77.349 45.437, 87.272 61.968 C 96.540 77.409, 97.752 79, 100.248 79 C 101.761 79, 103 78.638, 103 78.195 C 103 77.501, 99.235 59.901, 96.143 46.142 L 95.164 41.783 106.332 36.448 C 112.474 33.513, 117.050 31.113, 116.500 31.115 C 115.950 31.116, 107.850 33.793, 98.500 37.063 M 130.692 40.142 C 129.908 41.989, 125.817 51.323, 121.602 60.885 C 117.387 70.448, 114.183 78.517, 114.484 78.817 C 115.183 79.516, 154.029 81.304, 154.667 80.667 C 155.032 80.301, 133.830 38.824, 132.418 37.142 C 132.252 36.945, 131.476 38.295, 130.692 40.142 M 74.774 49.250 C 75.840 51.038, 79.772 57.675, 83.512 64 C 91.039 76.728, 92.077 78.257, 92.738 77.595 C 93.375 76.958, 74.695 46, 73.674 46 C 73.213 46, 73.709 47.462, 74.774 49.250 M 59.283 50.883 L 49.065 54.568 51.501 58.534 C 53.483 61.759, 53.943 63.854, 53.969 69.750 L 54 77 60.250 77.005 C 63.688 77.007, 71.582 77.302, 77.794 77.660 L 89.088 78.311 79.794 62.685 C 74.682 54.091, 70.275 47.091, 70 47.129 C 69.725 47.167, 64.902 48.856, 59.283 50.883 M 100.380 83.660 C 101.219 85.222, 102.870 87.850, 104.050 89.500 C 106.093 92.358, 106.167 92.382, 105.611 90 C 105.290 88.625, 105.014 86.825, 104.998 86 C 104.955 83.745, 103.759 82.350, 101.178 81.544 C 98.902 80.834, 98.886 80.877, 100.380 83.660 M 107 83.559 C 107 84.416, 107.450 84.840, 108 84.500 C 108.550 84.160, 109 83.459, 109 82.941 C 109 82.423, 108.550 82, 108 82 C 107.450 82, 107 82.702, 107 83.559 M 109.644 88.034 L 106.942 94.265 113.085 104.644 C 116.464 110.352, 119.585 115.243, 120.021 115.513 C 120.457 115.782, 127.114 109.453, 134.814 101.447 C 143.082 92.852, 149.093 87.341, 149.494 87.990 C 150.265 89.237, 149.828 89.860, 141.435 99.500 C 138.083 103.350, 132.370 110.690, 128.738 115.811 C 122.547 124.542, 122.063 124.987, 120.975 122.953 C 120.098 121.315, 119.532 121.067, 118.657 121.938 C 116.884 123.704, 97.059 176.456, 98.033 176.815 C 98.504 176.988, 105.101 175.469, 112.694 173.439 L 126.500 169.748 152.727 170.317 L 178.953 170.887 169.156 151.311 L 159.358 131.736 166.308 108.830 C 170.130 96.232, 173.087 85.776, 172.879 85.595 C 172.670 85.414, 170.836 84.965, 168.803 84.597 C 165.200 83.946, 165.059 84.038, 163.220 88.215 L 161.333 92.500 159.198 88.351 L 157.062 84.201 145.281 83.579 C 138.801 83.237, 128.740 82.698, 122.923 82.381 L 112.346 81.804 109.644 88.034 M 123.494 117.006 C 122.496 118.110, 121.915 119.249, 122.204 119.537 C 122.493 119.826, 123.475 118.923, 124.388 117.531 C 126.381 114.490, 125.983 114.256, 123.494 117.006" stroke="none" fill="black" fill-rule="evenodd"/>
</svg>