<svg xmlns="http://www.w3.org/2000/svg" width="200" height="200" viewBox="0 0 200 200" version="1.1">
	<path d="M 50.206 11.964 C 48.571 14.812, 48.196 14.938, 40.517 15.214 L 32.528 15.500 37.764 18.854 C 40.644 20.699, 43 22.430, 43 22.701 C 43 22.971, 38.029 30.869, 31.953 40.252 C 25.071 50.878, 21.130 57.895, 21.500 58.861 C 22.110 60.451, 23.458 58.568, 38.733 34.773 L 45.620 24.046 53.560 29.562 C 57.927 32.595, 61.615 35.622, 61.756 36.288 C 61.897 36.955, 50.555 45.790, 36.553 55.922 C 22.551 66.054, 11.344 74.747, 11.648 75.240 C 11.953 75.733, 12.753 75.925, 13.427 75.666 C 14.101 75.408, 25.570 67.242, 38.915 57.521 C 52.260 47.799, 63.316 39.992, 63.485 40.173 C 64.693 41.465, 69.729 57.961, 68.741 57.389 C 68.058 56.994, 64.907 54.876, 61.737 52.682 C 58.568 50.487, 55.829 48.874, 55.652 49.096 C 55.474 49.318, 48.590 60.406, 40.354 73.736 L 25.379 97.972 27.108 109.401 C 28.060 115.688, 29.807 133.357, 30.991 148.666 C 32.175 163.975, 33.449 177.228, 33.822 178.118 C 34.417 179.537, 37.187 178.984, 56.387 173.618 L 78.274 167.500 89.521 151.025 L 100.768 134.549 101.493 109.414 L 102.218 84.279 112.356 83.720 C 117.932 83.413, 122.546 83.238, 122.610 83.331 C 122.673 83.424, 119.217 98.138, 114.930 116.029 L 107.135 148.558 98.140 167.264 C 89.459 185.316, 88.120 190.418, 93.518 184.873 C 94.789 183.568, 105.553 171.035, 117.437 157.021 C 132.224 139.587, 139.333 130.431, 139.956 128.021 C 143.572 114.022, 142.484 111.659, 150.895 151.768 C 157.396 182.773, 158.688 187.780, 159.797 186.268 C 161.895 183.406, 178.520 151.585, 178.288 150.875 C 178.171 150.518, 171.260 137.510, 162.931 121.970 L 147.786 93.714 150.470 82.357 L 153.153 71 166.577 71 C 178.710 71, 179.996 70.832, 179.958 69.250 C 179.927 67.991, 175.757 65.535, 165.098 60.500 L 150.280 53.500 144.992 36.250 C 142.084 26.762, 139.429 19, 139.092 19 C 138.754 19, 121.894 46, 101.625 79 C 81.355 112, 64.538 139, 64.253 139 C 63.969 139, 62.220 138.063, 60.368 136.918 C 57.390 135.078, 57.008 134.354, 57.066 130.668 C 57.178 123.585, 59.731 103.085, 59.871 108.143 C 60.125 117.283, 62.204 114.758, 70.630 95.075 L 78.643 76.359 76.882 71.179 C 75.914 68.331, 75.336 66, 75.599 66 C 75.861 66, 80.860 69.389, 86.707 73.531 C 92.554 77.673, 97.659 80.711, 98.050 80.281 C 98.442 79.851, 103.730 66.225, 109.801 50 C 115.872 33.775, 121.128 19.765, 121.482 18.866 C 122.064 17.386, 119.317 17.162, 92.334 16.487 L 62.543 15.743 58.128 12.371 C 55.699 10.517, 53.306 9, 52.810 9 C 52.313 9, 51.142 10.334, 50.206 11.964 M 52.446 13.087 C 51.665 14.351, 51.867 14.557, 54.750 15.443 C 57.517 16.294, 57.703 14.920, 55.046 13.261 C 53.717 12.431, 52.886 12.375, 52.446 13.087 M 42.800 19.200 C 43.733 20.133, 44.267 20.133, 45.200 19.200 C 46.133 18.267, 45.867 18, 44 18 C 42.133 18, 41.867 18.267, 42.800 19.200 M 48.251 19.970 C 47.138 21.753, 47.591 22.327, 53.027 26.018 C 56.331 28.262, 59.489 29.816, 60.046 29.472 C 60.603 29.127, 67.008 31.328, 74.279 34.362 C 81.551 37.395, 89.300 40.622, 91.500 41.531 C 96.853 43.745, 96.066 43.082, 77.361 29.617 L 61.222 18 55.352 18 C 50.594 18, 49.248 18.373, 48.251 19.970 M 68.500 19.751 C 69.050 20.303, 78.038 26.891, 88.473 34.390 C 104.448 45.870, 107.555 47.746, 108.132 46.262 C 114.077 30.971, 117.881 20.547, 117.612 20.279 C 117.428 20.095, 106.077 19.674, 92.389 19.345 C 75.715 18.943, 67.830 19.077, 68.500 19.751 M 135.837 28.504 C 126.479 43.465, 105.003 78.830, 104.537 80.043 C 104.049 81.313, 105.474 81.426, 114.735 80.849 C 120.656 80.481, 125.643 80.319, 125.818 80.491 C 125.992 80.662, 122.466 96.173, 117.980 114.960 C 110.212 147.499, 109.519 149.767, 103.354 162.809 C 99.795 170.339, 97.762 175.600, 98.836 174.500 C 99.910 173.400, 108.875 162.964, 118.758 151.308 C 136.123 130.829, 136.784 129.887, 138.415 123.308 C 141.710 110.019, 142.074 109, 143.539 109 C 144.342 109, 145 109.181, 145 109.403 C 145 110.379, 159.094 177.653, 159.577 178.982 C 160.084 180.378, 174.905 153.857, 174.971 151.436 C 174.987 150.851, 168.217 137.662, 159.927 122.127 L 144.854 93.882 147.485 82.691 C 148.932 76.536, 150.346 70.713, 150.626 69.750 C 151.069 68.226, 152.577 67.988, 162.317 67.906 L 173.500 67.811 160.751 61.656 L 148.002 55.500 144.947 45.500 C 143.267 40, 141.092 33.027, 140.114 30.004 L 138.336 24.508 135.837 28.504 M 66.792 35.216 C 67.754 36.400, 67.784 36.905, 66.907 37.198 C 66.096 37.468, 66.922 41.210, 69.562 49.234 L 73.395 60.878 83.947 68.254 C 89.751 72.310, 95.003 75.927, 95.617 76.292 C 96.339 76.720, 98.426 72.355, 101.515 63.958 C 104.145 56.811, 106.117 50.819, 105.898 50.643 C 105.556 50.369, 71.216 35.864, 67 34.213 C 65.745 33.721, 65.711 33.885, 66.792 35.216 M 42.357 75.739 L 28.213 98.500 29.544 106.500 C 30.276 110.900, 32.051 128.211, 33.489 144.969 C 34.927 161.726, 36.271 175.604, 36.475 175.809 C 36.898 176.232, 73.828 166.166, 75.765 165.100 C 76.460 164.717, 81.742 157.536, 87.501 149.141 L 97.972 133.878 98.578 111.189 C 99.184 88.510, 99.183 88.501, 97.254 91.500 C 96.193 93.150, 88.677 105.300, 80.554 118.500 C 72.430 131.700, 65.614 142.681, 65.407 142.902 C 65.200 143.122, 62.548 141.655, 59.515 139.641 C 54.694 136.441, 54.004 135.572, 54.031 132.740 C 54.084 127.148, 59.696 73.971, 60.296 73.371 C 62.331 71.336, 63.002 75.373, 63.029 89.809 L 63.058 105.500 69.440 90.753 L 75.821 76.007 73.682 69.428 C 71.710 63.362, 71.059 62.504, 65.330 58.416 C 61.912 55.977, 58.527 53.756, 57.808 53.480 C 56.956 53.154, 51.569 60.914, 42.357 75.739" stroke="none" fill="black" fill-rule="evenodd"/>
</svg>