<svg xmlns="http://www.w3.org/2000/svg" width="200" height="200" viewBox="0 0 200 200" version="1.1">
	<path d="M 96 17.152 C 58.559 21.695, 55.298 21.949, 52.819 20.517 C 50.230 19.021, 48.166 19.841, 49.418 21.868 C 49.713 22.345, 42.765 23.545, 33.977 24.533 L 18 26.331 18.052 31.915 C 18.081 34.987, 19.120 52.833, 20.362 71.573 L 22.621 105.645 33.381 123.419 C 39.299 133.195, 43.963 141.370, 43.746 141.587 C 43.529 141.804, 36.191 139.993, 27.439 137.561 C 18.687 135.129, 11.368 133.298, 11.175 133.492 C 10.890 133.777, 40.537 176.411, 43.057 179.340 C 43.589 179.958, 81.414 151.245, 88.381 144.935 C 88.867 144.496, 86.679 140.404, 83.506 135.819 L 77.750 127.500 84.848 134.447 L 91.947 141.394 101.975 141.998 C 107.491 142.331, 112.379 143.030, 112.838 143.552 C 113.297 144.073, 115.311 149.700, 117.314 156.056 L 120.955 167.611 139.594 173.356 C 149.846 176.515, 158.352 178.965, 158.498 178.800 C 159.338 177.845, 179.317 119.238, 179.223 118 C 179.161 117.175, 176.192 108.330, 172.624 98.344 C 168.789 87.609, 166.362 79.333, 166.686 78.094 C 166.987 76.942, 166.815 76, 166.304 76 C 164.366 76, 106.546 69.880, 106.317 69.650 C 106.185 69.518, 112.123 65.830, 119.514 61.455 C 126.904 57.080, 132.959 53.275, 132.968 53 C 132.978 52.725, 131.235 51.375, 129.095 50 C 125.376 47.610, 107.504 31.039, 108.176 30.605 C 109.694 29.625, 149.578 20.918, 150.930 21.272 C 151.900 21.525, 156.319 24.058, 160.750 26.901 L 168.807 32.069 169.883 38.284 C 170.476 41.703, 171.500 47.987, 172.159 52.250 C 172.956 57.399, 173.802 60, 174.679 60 C 176.358 60, 176.410 60.891, 173.778 44.577 L 171.532 30.653 163.016 25.139 L 154.500 19.626 158.927 18.533 C 164.339 17.197, 166.173 14.286, 160.884 15.426 C 151.787 17.386, 150.343 17.305, 146.385 14.616 C 144.130 13.083, 141.286 12.049, 139.518 12.119 C 137.858 12.184, 118.275 14.449, 96 17.152 M 96.500 19.789 C 75.600 22.290, 58.318 24.481, 58.095 24.656 C 57.604 25.044, 66.405 32.952, 69.481 34.886 C 71.450 36.125, 75.702 35.327, 109.363 27.406 C 146.155 18.748, 146.988 18.499, 144.771 16.792 C 141.722 14.446, 140.513 14.521, 96.500 19.789 M 35.660 27.034 C 27.498 28.031, 20.724 28.994, 20.606 29.173 C 20.489 29.353, 21.485 46.375, 22.820 67 L 25.246 104.500 37.623 125.154 C 44.430 136.513, 50 146.014, 50 146.266 C 50 146.518, 43.138 144.776, 34.750 142.394 C 26.363 140.013, 18.954 138.050, 18.287 138.033 C 17.264 138.005, 39.794 170.950, 43.412 174.773 C 44.374 175.789, 48.686 172.860, 64.758 160.273 C 75.836 151.598, 84.922 144.099, 84.950 143.608 C 84.977 143.117, 80.267 135.999, 74.483 127.790 C 68.699 119.581, 64.256 112.395, 64.610 111.822 C 64.967 111.244, 71.545 117.016, 79.377 124.779 L 93.500 138.779 104 139.447 C 109.775 139.814, 114.645 140.426, 114.822 140.807 C 114.999 141.188, 117.024 146.886, 119.322 153.469 L 123.500 165.439 132 168.118 C 136.675 169.591, 144.165 171.917, 148.645 173.285 L 156.791 175.774 166.582 147.637 C 171.967 132.162, 176.324 118.825, 176.265 118 C 176.126 116.061, 163.972 81.740, 163.072 80.744 C 162.696 80.328, 155.343 81.651, 146.732 83.683 L 131.075 87.378 146.538 97.698 C 155.042 103.375, 162 108.526, 162 109.147 C 162 110.250, 148.715 109.693, 141.740 108.298 C 138.997 107.749, 139.142 108.133, 148.592 126.446 C 155.037 138.935, 157.913 145.487, 157.244 146.156 C 156.576 146.824, 150.468 140.349, 138.871 126.675 L 121.500 106.193 115 105.486 C 108.486 104.778, 50.131 92.464, 49.286 91.620 C 49.039 91.373, 49.366 87.681, 50.013 83.416 C 51.893 71.010, 50.861 66.500, 43.439 54.687 L 37.038 44.500 49.584 41.500 C 56.484 39.850, 62.213 38.197, 62.315 37.826 C 62.609 36.754, 52.609 25.003, 51.500 25.118 C 50.950 25.174, 43.822 26.037, 35.660 27.034 M 87.250 35.298 C 79.963 37.017, 74.025 38.666, 74.056 38.962 C 74.087 39.258, 76.787 41.747, 80.056 44.493 C 85.984 49.472, 86 49.501, 86.016 54.993 L 86.032 60.500 98.144 74.750 C 104.806 82.588, 110.987 88.991, 111.878 88.981 C 112.770 88.970, 115.750 88.367, 118.500 87.642 C 122.087 86.695, 123.461 85.852, 123.361 84.661 C 123.197 82.696, 123.468 82.645, 126.229 84.122 C 127.896 85.015, 131.301 84.557, 142.828 81.890 C 160.281 77.852, 160.958 78.127, 124.500 74.442 C 110.200 72.997, 98.382 71.700, 98.237 71.561 C 98.092 71.421, 103.492 68.004, 110.237 63.967 C 116.982 59.930, 123.730 55.786, 125.234 54.757 L 127.968 52.887 122.234 48.053 C 119.080 45.394, 114.040 40.694, 111.034 37.609 C 107.101 33.573, 104.858 32.024, 103.034 32.087 C 101.640 32.134, 94.537 33.580, 87.250 35.298 M 71.861 43.750 C 73.526 45.813, 76.695 49.525, 78.902 52 L 82.915 56.500 82.957 53.500 C 82.992 51.047, 81.891 49.543, 76.914 45.250 C 69.787 39.101, 67.576 38.445, 71.861 43.750 M 52.130 43.561 C 46.977 44.851, 42.533 46.134, 42.254 46.412 C 41.976 46.691, 44.090 50.607, 46.952 55.115 C 53.245 65.027, 54.556 70.888, 52.928 81.835 C 52.328 85.870, 51.995 89.328, 52.187 89.521 C 52.579 89.912, 84.435 96.953, 84.561 96.676 C 84.605 96.579, 84.384 88.612, 84.071 78.971 L 83.500 61.442 74.646 51.221 C 68.285 43.878, 65.187 41.030, 63.646 41.108 C 62.466 41.168, 57.284 42.271, 52.130 43.561 M 86.830 80.245 C 87.011 88.082, 87.292 94.626, 87.455 94.788 C 88.063 95.396, 106.500 90.342, 106.500 89.567 C 106.500 88.679, 87.806 66.134, 87 66.049 C 86.725 66.021, 86.648 72.409, 86.830 80.245 M 119 90.133 C 117.075 90.657, 114.895 91.294, 114.155 91.548 C 113.244 91.861, 114.459 93.913, 117.922 97.910 C 122.766 103.502, 123.305 103.830, 128.266 104.215 C 131.145 104.439, 133.635 104.534, 133.800 104.428 C 133.965 104.321, 132.403 100.806, 130.330 96.617 C 126.281 88.433, 125.947 88.242, 119 90.133 M 133.689 97.423 C 137.094 104.304, 137.662 104.929, 140.942 105.403 C 149.128 106.585, 155.467 107.195, 155 106.757 C 154.725 106.498, 148.986 102.613, 142.248 98.122 L 129.995 89.957 133.689 97.423 M 97.500 95.461 C 92.550 96.735, 88.845 97.827, 89.267 97.889 C 89.690 97.950, 94.190 98.866, 99.267 99.924 C 114.025 102.999, 118.344 103.425, 117.342 101.708 C 115.235 98.098, 109.893 93.007, 108.281 93.072 C 107.301 93.112, 102.450 94.187, 97.500 95.461 M 127.172 108.750 C 127.987 109.713, 132.628 115.225, 137.484 121 C 150.578 136.570, 150.842 136.636, 143.488 122.500 C 139.767 115.350, 136.025 108.938, 135.171 108.250 C 134.317 107.563, 131.834 107, 129.654 107 C 125.981 107, 125.799 107.128, 127.172 108.750" stroke="none" fill="black" fill-rule="evenodd"/>
</svg>