<svg xmlns="http://www.w3.org/2000/svg" width="200" height="200" viewBox="0 0 200 200" version="1.1">
	<path d="M 121.624 13.062 C 117.696 28.309, 119.126 26.501, 108.153 30.098 L 98.369 33.304 74.211 24.060 C 60.924 18.976, 49.593 14.970, 49.032 15.158 C 48.471 15.346, 41.259 24.946, 33.006 36.491 L 18 57.482 18 102.574 C 18 127.375, 18.205 147.872, 18.456 148.123 C 18.707 148.374, 25.120 147.547, 32.706 146.286 C 40.293 145.025, 47.002 144.107, 47.616 144.246 C 48.317 144.406, 46.740 150.818, 43.373 161.500 C 40.426 170.850, 38.011 178.613, 38.007 178.750 C 38.003 178.887, 38.645 179, 39.434 179 C 40.223 179, 47.065 170.225, 54.640 159.500 C 65.026 144.795, 68.915 140.013, 70.456 140.053 C 71.904 140.091, 76.146 144.951, 84.997 156.710 L 97.494 173.315 107.790 152.071 C 115.928 135.281, 118.361 131.055, 119.396 131.914 C 120.116 132.511, 122.788 135.652, 125.335 138.893 L 129.964 144.786 111.454 162.531 C 101.273 172.291, 93.117 180.450, 93.329 180.662 C 93.709 181.042, 177.292 177.029, 177.719 176.611 C 177.839 176.493, 175.476 168.233, 172.469 158.256 C 167.325 141.194, 166.852 138.702, 164.495 116.308 C 163.117 103.214, 161.756 91.087, 161.470 89.360 L 160.950 86.219 150.975 84.948 C 145.489 84.249, 141 83.577, 141 83.456 C 141 82.707, 153.285 58, 153.657 58 C 153.910 58, 160.052 62.574, 167.308 68.164 C 174.564 73.754, 181.043 78.743, 181.706 79.250 C 185.853 82.420, 183.869 76.748, 173.736 56.456 C 167.567 44.105, 162.291 34.004, 162.010 34.009 C 161.730 34.014, 159.801 37.727, 157.724 42.259 C 152.100 54.531, 153.096 54.045, 145.674 48.138 L 139.163 42.957 125.704 62.729 C 118.302 73.603, 112.312 82.584, 112.393 82.687 C 112.474 82.789, 117.629 83.538, 123.850 84.350 C 130.071 85.162, 135.361 86.027, 135.606 86.272 C 135.851 86.517, 134.438 90.298, 132.466 94.674 L 128.880 102.629 115.835 104.409 C 108.659 105.388, 102.463 105.809, 102.065 105.344 C 101.667 104.880, 99.636 102.362, 97.550 99.750 C 95.465 97.138, 93.138 95, 92.380 95 C 91.621 95, 91.005 95.112, 91.011 95.250 C 91.017 95.388, 91.692 97.709, 92.511 100.409 C 93.330 103.109, 94 105.834, 94 106.465 C 94 107.180, 89.041 108.289, 80.869 109.404 C 66.494 111.365, 66.046 111.255, 66.015 105.750 C 66.007 104.237, 65.704 103, 65.342 103 C 64.980 103, 61.135 106.205, 56.797 110.122 C 52.459 114.039, 48.749 117.076, 48.553 116.872 C 48.170 116.472, 45.200 47.696, 45.545 47.207 C 45.659 47.046, 53.345 46.040, 62.626 44.971 C 75.958 43.436, 81.485 42.316, 88.955 39.636 L 98.411 36.244 104.955 38.707 C 108.555 40.061, 111.621 41.290, 111.769 41.437 C 111.917 41.584, 97.742 47.705, 80.269 55.037 C 62.796 62.370, 48.299 68.525, 48.053 68.715 C 47.292 69.303, 51.335 80.195, 52.449 80.559 C 53.027 80.747, 60.025 81.302, 68 81.792 L 82.500 82.683 95.477 76.284 C 102.614 72.765, 108.750 69.404, 109.113 68.817 C 109.476 68.230, 111.251 62.137, 113.059 55.277 C 114.988 47.953, 116.927 42.581, 117.756 42.263 C 118.696 41.903, 118.805 41.497, 118.081 41.050 C 117.320 40.580, 117.476 38.751, 118.600 34.940 C 119.483 31.948, 120.377 29.319, 120.587 29.098 C 120.798 28.878, 129.168 25.904, 139.188 22.490 C 149.208 19.076, 157.577 15.769, 157.786 15.141 C 158.451 13.148, 155.540 13.858, 138.010 19.968 C 123.414 25.055, 120.973 25.659, 121.481 24.059 C 122.954 19.419, 126 7.928, 126 7.013 C 126 6.456, 125.425 6, 124.721 6 C 123.976 6, 122.685 8.944, 121.624 13.062 M 35.235 37.950 L 21 57.899 21 101.450 C 21 133.319, 21.305 145, 22.137 145 C 22.763 145, 29.287 144.041, 36.636 142.870 L 49.998 140.739 51.082 137.120 L 52.167 133.500 75.098 125.509 C 91.859 119.668, 97.889 117.154, 97.510 116.166 C 97.225 115.422, 96.717 113.720, 96.381 112.383 C 95.856 110.292, 95.333 110.027, 92.636 110.489 C 84.524 111.876, 68.761 114, 66.570 114 C 64.570 114, 64.070 113.436, 63.813 110.893 L 63.500 107.786 55.002 115.311 C 50.327 119.450, 46.315 122.648, 46.085 122.418 C 45.574 121.908, 43.118 66.068, 43.049 53.420 L 43 44.341 59.750 42.529 C 74.599 40.924, 90.865 37.333, 93.209 35.144 C 93.780 34.611, 51.793 17.945, 49.985 17.988 C 49.701 17.995, 43.064 26.977, 35.235 37.950 M 110.250 32.347 C 106.813 33.468, 104 34.643, 104 34.958 C 104 35.616, 114.030 39.314, 114.488 38.824 C 114.926 38.355, 116.988 30.641, 116.723 30.460 C 116.600 30.377, 113.688 31.226, 110.250 32.347 M 158.415 47.215 C 156.315 51.458, 154.800 55.104, 155.048 55.317 C 159.068 58.764, 178.220 73.107, 178.461 72.851 C 178.642 72.658, 175.065 65.075, 170.512 56 L 162.234 39.500 158.415 47.215 M 81.500 57.533 C 65.550 64.339, 52.148 70.045, 51.719 70.214 C 51.120 70.449, 52.508 76.411, 53.469 77.737 C 53.563 77.867, 60.017 78.430, 67.811 78.986 L 81.981 79.999 94.413 73.807 L 106.844 67.615 109.465 58.057 C 110.906 52.801, 112.322 47.712, 112.610 46.750 C 112.929 45.686, 112.618 45.031, 111.817 45.079 C 111.093 45.123, 97.450 50.727, 81.500 57.533 M 128.219 63.869 L 116.938 80.500 120.719 81.154 C 122.799 81.513, 127.547 82.122, 131.270 82.507 L 138.041 83.207 144.563 69.480 C 148.151 61.930, 150.954 55.667, 150.793 55.562 C 150.632 55.458, 148.475 53.783, 146 51.841 C 143.525 49.899, 141.050 48.069, 140.500 47.774 C 139.950 47.479, 134.424 54.721, 128.219 63.869 M 139.227 87.430 C 138.860 88.019, 137.095 91.552, 135.304 95.281 L 132.048 102.062 137.274 101.407 C 140.148 101.046, 142.950 100.695, 143.500 100.626 C 144.050 100.557, 144.500 101.113, 144.500 101.862 C 144.500 102.625, 141.205 104.530, 137 106.198 C 132.875 107.835, 129.011 109.578, 128.414 110.073 C 127.817 110.567, 125.636 114.771, 123.567 119.415 L 119.805 127.857 126.403 136.029 C 130.031 140.523, 133 144.510, 133 144.888 C 133 145.267, 125.554 152.701, 116.454 161.409 C 107.353 170.116, 100.060 177.394, 100.247 177.580 C 100.756 178.089, 173.052 174.282, 173.617 173.717 C 173.885 173.448, 171.882 165.860, 169.166 156.855 C 164.585 141.666, 164.031 138.636, 161.510 114.990 C 160.015 100.971, 158.603 89.302, 158.372 89.060 C 158.142 88.818, 153.890 88.112, 148.924 87.491 C 142.526 86.690, 139.700 86.673, 139.227 87.430 M 96.695 104.943 C 96.991 106.074, 97.631 107, 98.117 107 C 99.465 107, 99.170 105.386, 97.579 104.065 C 96.412 103.097, 96.254 103.255, 96.695 104.943 M 113.500 107.545 C 109.100 108.262, 105.309 108.884, 105.076 108.925 C 104.842 108.966, 105.643 110.056, 106.855 111.346 L 109.059 113.692 117.280 110.788 C 130.906 105.974, 129.664 104.907, 113.500 107.545 M 99.465 110.057 C 99.106 110.638, 99.088 112.213, 99.425 113.557 C 100.037 115.995, 101.462 116.527, 104.380 115.408 C 105.705 114.899, 105.619 114.403, 103.774 111.908 C 101.472 108.795, 100.502 108.378, 99.465 110.057 M 117.500 113.582 C 115.300 114.375, 112.908 115.241, 112.184 115.506 C 111.238 115.852, 111.782 117.262, 114.116 120.512 C 115.903 123, 117.671 124.690, 118.046 124.268 C 118.421 123.845, 119.890 120.912, 121.309 117.750 C 124.108 111.512, 123.895 111.278, 117.500 113.582 M 103.902 118.246 L 101.303 119.279 103.574 126.640 C 104.823 130.688, 105.768 134.050, 105.673 134.112 C 105.578 134.174, 98.684 135.411, 90.354 136.862 L 75.208 139.500 86.104 153.876 L 96.999 168.252 106.500 148.527 C 111.725 137.678, 116 128.455, 116 128.032 C 116 126.923, 107.959 116.979, 107.165 117.106 C 106.799 117.165, 105.331 117.678, 103.902 118.246 M 76.601 127.888 C 58.685 134.174, 54.554 135.973, 53.884 137.785 C 52.929 140.367, 52.570 140.308, 60.614 138.907 C 65.477 138.060, 67.254 137.261, 68.499 135.361 C 70.101 132.916, 70.110 132.914, 71.803 134.931 L 73.500 136.952 87.438 134.664 C 95.103 133.405, 101.521 131.937, 101.699 131.402 C 101.878 130.866, 101.231 128.128, 100.262 125.317 L 98.500 120.206 76.601 127.888 M 62.500 141.500 C 61.950 141.689, 59.375 142.129, 56.778 142.478 L 52.055 143.114 48.071 155.767 C 45.879 162.726, 44.212 168.545, 44.365 168.699 C 44.519 168.852, 48.662 163.283, 53.572 156.324 C 62.618 143.503, 64.340 140.937, 63.800 141.079 C 63.635 141.122, 63.050 141.312, 62.500 141.500" stroke="none" fill="black" fill-rule="evenodd"/>
</svg>