<svg xmlns="http://www.w3.org/2000/svg" width="200" height="200" viewBox="0 0 200 200" version="1.1">
	<path d="M 57.020 13.867 C 57.030 14.765, 57.714 21.350, 58.539 28.500 C 59.363 35.650, 60.292 50.050, 60.602 60.500 C 60.912 70.950, 61.344 80.076, 61.563 80.780 C 61.863 81.746, 62.939 81.562, 65.940 80.030 C 68.129 78.914, 70.206 78, 70.555 78 C 71.398 78, 65.979 87.293, 64.587 88.235 C 63.989 88.639, 62.544 88.976, 61.375 88.985 C 59.125 89.001, 58 92.105, 58 98.294 C 58 101.636, 33.284 147.938, 31.479 147.977 C 30.320 148.003, 13 165.148, 13 166.270 C 13 168.484, 16.411 166.131, 23.420 159.080 C 30.551 151.907, 31.526 151.250, 33.769 152.102 C 36.014 152.956, 36.190 152.836, 35.661 150.813 C 35.233 149.175, 38.058 143.209, 46.289 128.369 L 57.500 108.155 57.775 122.903 L 58.050 137.650 71.892 140.869 C 82.504 143.337, 86.250 144.637, 87.943 146.439 L 90.152 148.791 70.826 158.746 C 60.197 164.221, 45.088 171.331, 37.250 174.545 C 29.177 177.856, 23 180.955, 23 181.694 C 23 182.412, 23.222 183, 23.494 183 C 27.106 183, 86.389 155.188, 92.500 150.626 C 94.455 149.167, 94.415 149.046, 90.714 145.238 C 87.160 141.581, 86.136 141.168, 73.964 138.492 L 61 135.642 61.009 118.571 L 61.019 101.500 64.030 96.250 C 65.686 93.362, 67.144 90.976, 67.270 90.947 C 67.397 90.918, 73.125 89.905, 80 88.697 L 92.500 86.500 94.207 74.541 C 95.146 67.963, 95.755 62.422, 95.561 62.228 C 95.366 62.033, 91.513 63.731, 86.999 66.001 C 82.484 68.270, 78.950 69.728, 79.145 69.240 C 79.340 68.752, 84.386 59.553, 90.357 48.798 C 105.668 21.222, 104.882 20.189, 105.227 68.345 C 105.377 89.314, 105.123 115.926, 104.662 127.485 L 103.824 148.500 111.190 164.500 L 118.557 180.500 133.028 180.813 C 140.988 180.985, 151.260 180.828, 155.855 180.465 L 164.209 179.803 174.768 169.584 L 185.327 159.364 181.098 140.949 C 178.771 130.821, 176.725 122.392, 176.551 122.218 C 176.377 122.044, 170.726 129.582, 163.994 138.968 C 157.261 148.355, 151.371 156.271, 150.904 156.559 C 150.438 156.848, 145.922 151.462, 140.869 144.590 L 131.683 132.097 131.907 112.798 C 132.031 102.184, 132.468 93.157, 132.879 92.737 C 133.290 92.317, 141.232 89.334, 150.529 86.107 L 167.432 80.240 172.584 67.620 C 175.418 60.679, 177.449 55, 177.098 55 C 176.747 55, 169.265 57.636, 160.471 60.858 C 143.342 67.133, 131 69.570, 131 66.675 C 131 65.859, 133.022 55.586, 135.493 43.846 C 137.964 32.106, 139.989 22.027, 139.993 21.450 C 139.997 20.857, 133.580 19.493, 125.250 18.316 C 117.138 17.170, 109.542 15.917, 108.372 15.531 C 106.561 14.935, 105.772 15.654, 103.086 20.351 L 99.927 25.871 95.214 24.442 C 92.621 23.656, 82.963 20.588, 73.750 17.624 C 59.815 13.140, 57.003 12.509, 57.020 13.867 M 60.009 16.781 C 60.013 17.177, 60.650 22.900, 61.424 29.500 C 62.197 36.100, 63.153 49.632, 63.546 59.572 L 64.262 77.643 69.173 75.072 C 73.936 72.577, 74.447 71.845, 86.176 50.718 C 92.827 38.737, 98.095 28.763, 97.884 28.554 C 97.673 28.344, 89.625 25.641, 80 22.547 C 70.375 19.453, 61.938 16.728, 61.250 16.492 C 60.563 16.256, 60.004 16.386, 60.009 16.781 M 104.937 22.602 C 103.098 25.577, 102.954 26.357, 104.106 27.086 C 104.873 27.572, 106.063 27.976, 106.750 27.985 C 107.733 27.997, 107.979 37.971, 107.900 74.750 C 107.846 100.463, 107.508 127.324, 107.150 134.441 L 106.500 147.382 113.431 162.691 L 120.362 178 141.450 178 L 162.538 178 172.367 168.133 L 182.197 158.267 178.891 143.619 C 177.072 135.563, 175.260 129.091, 174.863 129.236 C 174.467 129.381, 168.875 136.842, 162.437 145.816 C 155.999 154.790, 150.398 161.765, 149.988 161.316 C 149.579 160.867, 144.690 154.352, 139.122 146.837 L 129 133.175 129.007 118.337 C 129.011 110.177, 129.297 100.502, 129.644 96.837 L 130.273 90.173 148.004 84.026 L 165.734 77.879 168.967 69.689 C 170.745 65.185, 172.413 60.978, 172.673 60.339 C 172.933 59.700, 166.700 61.540, 158.823 64.427 C 147.328 68.639, 142.768 69.807, 135.729 70.345 C 126.991 71.012, 126.960 71.007, 127.486 68.757 C 129.632 59.578, 136.802 23.469, 136.533 23.199 C 136.137 22.804, 111.281 19.057, 108.832 19.023 C 107.914 19.010, 106.161 20.621, 104.937 22.602 M 83.281 70.763 C 76.723 74.073, 75.762 74.960, 72.781 80.450 C 70.976 83.775, 69.372 86.766, 69.217 87.098 C 69.061 87.429, 73.496 86.930, 79.073 85.988 C 89.283 84.263, 90.947 83.357, 90.993 79.500 C 91.007 78.400, 91.301 75.138, 91.648 72.250 C 91.995 69.362, 91.878 67.027, 91.389 67.059 C 90.900 67.092, 87.251 68.759, 83.281 70.763 M 61 93.500 C 61 94.325, 61.177 95, 61.393 95 C 61.609 95, 62.045 94.325, 62.362 93.500 C 62.678 92.675, 62.501 92, 61.969 92 C 61.436 92, 61 92.675, 61 93.500" stroke="none" fill="black" fill-rule="evenodd"/>
</svg>