<svg xmlns="http://www.w3.org/2000/svg" width="200" height="200" viewBox="0 0 200 200" version="1.1">
	<path d="M 119 20.575 C 93.705 27.869, 93.403 27.928, 81.436 27.964 C 70.019 27.998, 68.625 28.235, 55.436 32.387 L 41.500 36.774 35.941 63.117 C 30.443 89.176, 30.398 89.524, 31.797 95.480 C 33.151 101.238, 33.014 102.869, 28.671 132.981 C 26.173 150.296, 24.315 164.649, 24.543 164.876 C 24.770 165.104, 32.954 161.990, 42.728 157.958 L 60.500 150.625 84.500 150.309 L 108.500 149.993 96.180 154.400 C 89.404 156.824, 83.684 158.982, 83.470 159.197 C 82.843 159.824, 118.976 189.178, 119.938 188.823 C 122.462 187.890, 162.365 150.304, 167.476 144.044 L 173.452 136.725 168.976 132.848 C 166.514 130.715, 161.263 126.390, 157.307 123.235 C 153.351 120.081, 150.201 117.172, 150.307 116.772 C 150.413 116.372, 158.575 107.654, 168.444 97.400 L 186.389 78.755 172.194 79.490 L 158 80.225 158.053 76.862 C 158.082 75.013, 159.341 62.617, 160.851 49.316 C 162.361 36.014, 163.273 25.331, 162.877 25.576 C 162.482 25.820, 155.527 33.671, 147.423 43.021 C 139.319 52.372, 132.478 59.811, 132.220 59.554 C 131.963 59.296, 132.314 53.872, 133 47.500 C 133.686 41.128, 133.997 35.664, 133.691 35.357 C 132.103 33.770, 131.215 37.133, 130.031 49.206 C 129.315 56.518, 128.380 63.400, 127.953 64.500 C 127.527 65.600, 123.291 70.888, 118.540 76.250 L 109.901 86 91.550 86 L 73.199 86 72.297 82.250 L 71.395 78.500 82.448 70.778 C 88.956 66.231, 96.467 59.859, 100.717 55.278 L 107.935 47.500 104.909 46.864 C 99.824 45.796, 59.999 44.704, 60.009 45.634 C 60.013 46.110, 61.809 53.250, 64 61.500 C 66.191 69.750, 67.987 76.756, 67.991 77.069 C 67.996 77.382, 64.162 80.272, 59.470 83.491 C 50.754 89.473, 50.143 90.951, 56.375 90.985 C 58.969 90.999, 59.199 91.269, 58.729 93.750 C 57.589 99.760, 53.599 138.933, 54.078 139.411 C 54.359 139.692, 62.190 141.524, 71.481 143.481 C 80.772 145.439, 88.590 147.256, 88.854 147.520 C 89.117 147.784, 82.737 148, 74.675 148 L 60.016 148 44.075 154.500 C 35.308 158.075, 27.957 161, 27.741 161 C 27.524 161, 29.291 147.436, 31.667 130.857 C 35.764 102.272, 35.914 100.431, 34.560 95.246 C 33.167 89.914, 33.256 89.172, 38.105 65.639 C 40.840 52.362, 43.421 40.865, 43.842 40.089 C 45.048 37.861, 70.610 30.111, 76.950 30.051 C 82.983 29.995, 82.726 31.030, 76.250 32.872 C 73.904 33.539, 72 34.695, 72 35.452 C 72 36.592, 76.669 36.740, 99.750 36.332 C 115.013 36.062, 128.091 35.655, 128.813 35.428 C 129.536 35.200, 129.805 34.493, 129.411 33.856 C 128.886 33.006, 122.681 32.849, 106.097 33.266 C 86.382 33.762, 84.010 33.664, 87.500 32.494 C 90.291 31.559, 97.708 31.130, 112.038 31.077 L 132.576 31 136.072 26.750 C 145.509 15.277, 147.139 13.008, 145.870 13.111 C 145.117 13.172, 133.025 16.531, 119 20.575 M 121.114 22.829 L 104.728 27.500 117.614 28.137 L 130.500 28.774 134.712 24.137 C 138.795 19.641, 139.803 17.916, 138.250 18.079 C 137.838 18.122, 130.126 20.260, 121.114 22.829 M 145.211 49.644 L 130.922 66.069 129.775 77.034 L 128.629 88 120.502 88 C 112.788 88, 112.229 88.152, 109.519 90.981 L 106.663 93.961 110.081 95.368 C 111.962 96.142, 119.256 99.133, 126.291 102.014 C 137.814 106.732, 138.943 107.413, 137.678 108.876 C 136.905 109.769, 129.871 118.600, 122.046 128.500 L 107.819 146.500 112.472 146.807 C 116.206 147.054, 117.060 147.447, 116.800 148.799 C 116.572 149.986, 112.278 151.923, 102.280 155.352 L 88.084 160.220 103.792 173.054 L 119.500 185.888 122 183.588 C 123.375 182.323, 132.375 174.161, 142 165.449 C 157.405 151.505, 169 139.282, 169 136.985 C 169 136.379, 154.389 123.939, 147.058 118.302 C 145.722 117.275, 147.213 115.350, 157.512 104.802 C 164.119 98.036, 171.769 90.097, 174.512 87.160 L 179.500 81.821 166.930 82.520 L 154.359 83.220 157.131 58.394 C 158.655 44.740, 159.812 33.490, 159.701 33.394 C 159.591 33.297, 153.070 40.610, 145.211 49.644 M 63.263 48.254 C 63.524 48.939, 65.214 55.237, 67.018 62.250 C 68.822 69.263, 70.598 75, 70.965 75 C 73.938 75, 102 52.293, 102 49.888 C 102 49.517, 94.463 48.926, 85.250 48.576 C 76.037 48.225, 67.215 47.729, 65.645 47.473 C 63.641 47.147, 62.930 47.379, 63.263 48.254 M 120.785 77.794 L 114.150 85.500 119.689 85.803 C 122.735 85.970, 125.382 85.951, 125.572 85.762 C 125.939 85.395, 127.856 70.643, 127.582 70.294 C 127.493 70.180, 124.435 73.555, 120.785 77.794 M 66.090 82.123 C 64.765 83.199, 62.965 84.504, 62.090 85.022 C 60.687 85.853, 60.677 86.081, 62 86.966 C 62.825 87.518, 65.196 87.976, 67.269 87.985 C 70.875 87.999, 71.010 87.881, 70.384 85.250 C 69.229 80.393, 68.698 80.006, 66.090 82.123 M 92.083 88.408 C 92.313 88.633, 95.082 89.686, 98.239 90.749 C 103.592 92.552, 104.079 92.570, 105.489 91.012 C 106.320 90.094, 107 89.040, 107 88.671 C 107 88.302, 103.550 88, 99.333 88 C 95.117 88, 91.854 88.184, 92.083 88.408 M 61.587 93.184 C 60.835 96.782, 57 131.554, 57 134.777 L 57 137.649 79.989 142.390 C 92.633 144.998, 103.355 146.899, 103.815 146.614 C 105.506 145.569, 134.207 108.874, 133.717 108.383 C 133.438 108.104, 126.975 105.247, 119.355 102.033 L 105.500 96.190 101.250 100.537 C 98.912 102.927, 97 105.319, 97 105.850 C 97 106.382, 101.998 109.626, 108.106 113.060 C 115.320 117.114, 118.737 119.548, 117.856 120.006 C 117.110 120.392, 109.975 121.248, 102 121.906 C 94.025 122.565, 85.049 123.377, 82.053 123.713 L 76.606 124.322 83.803 116.154 C 87.761 111.663, 90.998 107.653, 90.997 107.244 C 90.993 106.483, 65.632 91.756, 63.339 91.184 C 62.642 91.010, 61.854 91.910, 61.587 93.184 M 70.186 91.472 C 70.359 91.619, 74.325 93.876, 79 96.488 C 83.675 99.100, 88.896 102.079, 90.602 103.108 L 93.704 104.980 97.888 100.018 L 102.071 95.057 98.786 93.684 C 96.134 92.577, 69.018 90.480, 70.186 91.472 M 88.689 114.640 C 86.081 117.742, 84.071 120.365, 84.223 120.469 C 84.887 120.923, 108.918 118.436, 109.490 117.854 C 110.122 117.211, 96.076 109, 94.342 109 C 93.841 109, 91.297 111.538, 88.689 114.640" stroke="none" fill="black" fill-rule="evenodd"/>
</svg>