<svg xmlns="http://www.w3.org/2000/svg" width="200" height="200" viewBox="0 0 200 200" version="1.1">
	<path d="M 77.303 29.136 L 64.500 48.500 56 53.749 C 51.325 56.636, 40.525 63.265, 32 68.480 C 11.899 80.776, 13.346 79.751, 14.508 80.880 C 15.145 81.498, 20.698 81.389, 30 80.576 C 41.956 79.531, 44.966 79.541, 47.157 80.632 L 49.814 81.955 37.407 103.563 C 30.583 115.447, 25 125.506, 25 125.915 C 25 127.160, 41.015 130.224, 42.320 129.228 C 44.153 127.830, 82.387 96.820, 83.396 95.913 C 83.889 95.470, 78.721 92.496, 71.911 89.304 C 63.679 85.445, 60.250 83.397, 61.680 83.192 C 63.842 82.881, 91 95.254, 91 96.549 C 91 96.931, 84.637 103.950, 76.860 112.148 C 69.083 120.346, 62.895 127.189, 63.110 127.356 C 63.324 127.522, 72.162 130.977, 82.750 135.032 C 93.338 139.088, 102 142.681, 102 143.017 C 102 143.354, 95.813 148.136, 88.250 153.644 C 75.010 163.288, 73.619 164.023, 50.750 173.458 C 36.049 179.523, 27 183.778, 27 184.628 C 27 185.382, 27.186 186, 27.412 186 C 27.639 186, 37.473 184.675, 49.265 183.055 L 70.706 180.110 95.982 169.349 L 121.259 158.588 140.977 139.874 L 160.694 121.160 161.397 106.963 C 161.783 99.155, 161.952 92.618, 161.771 92.438 C 161.590 92.257, 158.305 91.627, 154.471 91.037 C 142.584 89.208, 142.442 89.151, 140.665 85.423 C 139.749 83.503, 139 81.832, 139 81.709 C 139 81.586, 140.913 81.638, 143.250 81.824 C 146.542 82.085, 151.674 80.651, 166 75.464 C 176.175 71.781, 184.695 68.587, 184.933 68.367 C 185.172 68.147, 184.926 67.526, 184.387 66.987 C 183.747 66.347, 175.825 67.389, 161.551 69.991 L 139.695 73.975 136.304 71.879 C 133.918 70.404, 131.753 67.476, 128.996 61.992 L 125.078 54.200 130.789 53.202 C 133.930 52.652, 144.262 50.936, 153.750 49.388 C 163.238 47.840, 171 46.304, 171 45.975 C 171 44.477, 108.327 22.340, 107.220 23.447 C 107.033 23.634, 110.046 30.108, 113.917 37.833 C 121.709 53.388, 121.791 52.280, 112.750 53.557 C 110.138 53.925, 108.013 54.513, 108.030 54.864 C 108.046 55.214, 113.154 59.023, 119.382 63.328 C 127.612 69.018, 131.164 72.120, 132.387 74.685 L 134.070 78.214 118.285 77.394 C 97.256 76.302, 94.746 76.318, 94.327 77.546 C 94.130 78.121, 95.889 79.555, 98.235 80.734 L 102.500 82.876 97.500 82.876 C 85.594 82.877, 64.458 80.338, 61 78.491 C 59.075 77.463, 55.824 76.370, 53.777 76.061 L 50.053 75.500 58.277 62.815 C 62.799 55.838, 66.791 50.100, 67.146 50.065 C 67.502 50.029, 72.002 56.613, 77.146 64.695 C 84.553 76.330, 86.558 78.880, 86.777 76.945 C 87.386 71.576, 90.721 10.476, 90.424 10.136 C 90.249 9.936, 84.344 18.486, 77.303 29.136 M 77.686 33.468 L 68.872 46.766 76.186 58.338 C 80.209 64.703, 83.770 69.930, 84.100 69.955 C 84.754 70.004, 87.504 21.170, 86.882 20.550 C 86.672 20.341, 82.534 26.154, 77.686 33.468 M 117.735 39.500 C 121.952 47.971, 123.948 51, 125.313 51 C 127.594 51, 157.923 46.065, 160 45.356 C 160.896 45.050, 159.084 43.849, 155.500 42.373 C 147.222 38.964, 115.110 28, 113.403 28 C 112.465 28, 113.876 31.748, 117.735 39.500 M 40.161 66.504 C 30.074 72.742, 21.674 77.992, 21.494 78.172 C 21.313 78.353, 26.753 78.050, 33.583 77.500 L 46 76.500 51.331 68.500 C 59.806 55.785, 60.278 54.995, 59.365 55.082 C 58.889 55.127, 50.247 60.267, 40.161 66.504 M 115.889 55.820 C 114.671 56.334, 115.953 57.664, 121.135 61.264 L 127.992 66.028 125.288 60.514 C 122.512 54.855, 120.527 53.864, 115.889 55.820 M 151.055 74.552 C 141.196 76.428, 138.299 76.669, 137.117 75.710 C 135.874 74.702, 135.740 74.806, 136.313 76.332 C 136.691 77.339, 137 78.352, 137 78.582 C 137 78.812, 139.555 79, 142.678 79 C 146.546 79, 151.086 78.003, 156.928 75.869 C 169.881 71.139, 169.474 71.048, 151.055 74.552 M 53.269 79.693 C 54.242 79.947, 55.592 79.930, 56.269 79.656 C 56.946 79.382, 56.150 79.175, 54.500 79.195 C 52.850 79.215, 52.296 79.439, 53.269 79.693 M 103.358 79.770 C 104.681 81.911, 115.110 85.058, 126.750 86.830 C 133.488 87.856, 139 88.554, 139 88.381 C 139 88.209, 138.262 86.520, 137.360 84.629 L 135.720 81.190 122.110 80.538 C 114.625 80.180, 107.206 79.639, 105.625 79.337 C 103.867 79, 102.986 79.168, 103.358 79.770 M 40.574 103.476 C 34.208 114.640, 29 123.989, 29 124.251 C 29 124.513, 31.663 125.292, 34.918 125.983 L 40.836 127.238 60.016 111.487 L 79.196 95.735 70.848 91.777 C 66.257 89.601, 60.171 86.775, 57.324 85.498 L 52.149 83.176 40.574 103.476 M 84.879 89.874 L 96.257 95.646 82.130 110.573 C 74.360 118.783, 68.005 125.725, 68.007 126 C 68.009 126.275, 75.771 129.476, 85.255 133.113 C 96.743 137.519, 102.710 139.355, 103.129 138.613 C 103.474 138.001, 106.313 127.375, 109.436 115 C 112.560 102.625, 115.344 91.713, 115.625 90.751 C 115.981 89.526, 115.335 88.698, 113.470 87.989 C 111.329 87.175, 78.500 83.855, 74.539 84.052 C 73.967 84.080, 78.620 86.700, 84.879 89.874 M 118.448 91.163 C 116.928 95.953, 106.110 139.444, 106.374 139.707 C 106.530 139.863, 108.369 138.714, 110.461 137.154 C 113.255 135.070, 117.549 128.768, 126.633 113.417 C 133.435 101.921, 139 92.243, 139 91.909 C 139 91.334, 124.393 88.996, 120.817 88.999 C 119.892 88.999, 118.826 89.973, 118.448 91.163 M 129.500 113.918 L 116.500 135.952 96.500 150.869 C 76.551 165.748, 76.454 165.806, 58.760 173.070 C 49.003 177.076, 41.222 180.556, 41.469 180.802 C 41.716 181.049, 48.124 180.448, 55.709 179.467 L 69.500 177.683 94.855 166.834 L 120.210 155.984 138.855 138.267 L 157.500 120.550 158.126 114.025 C 158.470 110.436, 158.807 104.520, 158.876 100.879 L 159 94.258 153.750 93.594 C 150.863 93.229, 147.150 92.695, 145.500 92.407 C 142.529 91.889, 142.374 92.098, 129.500 113.918" stroke="none" fill="black" fill-rule="evenodd"/>
</svg>