<svg xmlns="http://www.w3.org/2000/svg" width="200" height="200" viewBox="0 0 200 200" version="1.1">
	<path d="M 119.268 27.890 C 114.263 44.815, 112.199 50.248, 108.392 56.519 L 103.693 64.259 96.655 63.605 C 92.784 63.245, 89.451 62.784, 89.247 62.580 C 88.866 62.199, 90.659 24.218, 91.458 15.750 C 91.796 12.160, 91.569 11, 90.525 11 C 88.939 11, 88.650 13.070, 86.492 39.911 C 85.678 50.036, 84.784 58.549, 84.506 58.827 C 84.228 59.106, 84 58.601, 84 57.706 C 84 56.128, 63.242 22.990, 60.398 20.028 C 59.175 18.755, 59.057 19.363, 59.523 24.528 C 60.798 38.680, 62.991 79.138, 63.531 98.500 L 64.117 119.500 59.712 131.362 L 55.306 143.224 54.686 135.362 C 52.983 113.780, 52.905 99.430, 54.380 79.050 C 55.235 67.253, 55.768 57.434, 55.565 57.231 C 55.030 56.697, 37.334 55.059, 31.750 55.027 L 27 55 27.116 82.750 C 27.180 98.013, 27.518 117.250, 27.866 125.500 C 28.215 133.750, 27.969 150.619, 27.319 162.986 C 26.670 175.353, 26.316 185.650, 26.533 185.866 C 26.750 186.083, 44.771 177.427, 66.580 166.630 C 88.388 155.834, 106.348 147, 106.489 147 C 106.630 147, 108.903 152.063, 111.539 158.250 C 114.176 164.438, 116.651 169.870, 117.039 170.323 C 117.428 170.775, 127.275 174.219, 138.923 177.975 L 160.100 184.805 172.090 168.881 C 178.684 160.123, 184.303 152.374, 184.576 151.663 C 184.977 150.616, 176.825 136.689, 174.083 133.737 C 173.694 133.318, 166.681 137.021, 158.500 141.967 C 150.319 146.912, 143.512 150.845, 143.373 150.707 C 143.235 150.568, 142.177 139.680, 141.022 126.511 L 138.922 102.567 140.952 101.034 C 142.068 100.190, 148.352 95.225, 154.915 90 L 166.849 80.500 172.889 67.548 C 176.211 60.424, 178.778 54.445, 178.593 54.260 C 178.408 54.075, 170.299 58.041, 160.574 63.074 C 150.849 68.107, 142.655 71.988, 142.365 71.698 C 142.075 71.409, 142.360 63.454, 142.999 54.021 L 144.159 36.870 135.330 21.958 C 130.473 13.757, 126.263 7.037, 125.973 7.024 C 125.683 7.011, 122.666 16.400, 119.268 27.890 M 121.166 31.223 C 116.737 46.344, 114.907 50.986, 110.386 58.562 L 104.940 67.688 99.220 66.862 C 85.703 64.912, 86.996 64.758, 87.035 68.313 C 87.136 77.479, 89.625 83.474, 102.826 106.350 C 110.072 118.907, 115.995 129.477, 115.988 129.840 C 115.974 130.665, 89.082 144.416, 88.542 143.875 C 88.325 143.658, 87.822 132.572, 87.425 119.240 C 86.873 100.718, 86.984 95, 87.897 95 C 89.449 95, 88.443 89.058, 85.886 83.123 C 84.849 80.715, 83.984 76.440, 83.964 73.623 C 83.917 66.738, 81.702 57.878, 78.877 53.272 C 77.605 51.198, 73.515 44.775, 69.788 39 C 61.806 26.632, 62.327 24.780, 64.434 58 C 65.219 70.375, 66.167 88.969, 66.542 99.320 L 67.222 118.139 61.361 134.563 C 58.138 143.597, 54.958 150.990, 54.295 150.994 C 52.651 151.002, 52.266 147.769, 51.021 123.500 C 50.136 106.248, 50.223 98.684, 51.506 81.118 C 52.366 69.357, 52.941 59.613, 52.784 59.462 C 52.628 59.312, 47.363 58.859, 41.085 58.455 L 29.670 57.721 30.306 104.111 C 30.664 130.217, 30.528 157.251, 29.995 165.940 C 29.474 174.433, 29.161 181.494, 29.299 181.633 C 29.438 181.771, 47.232 173.151, 68.841 162.477 L 108.131 143.069 109.499 146.285 C 110.252 148.053, 112.665 153.775, 114.862 159 L 118.857 168.500 138.178 174.757 C 148.805 178.198, 158.037 180.898, 158.694 180.757 C 159.350 180.616, 164.886 173.841, 170.995 165.703 L 182.103 150.906 177.802 143.994 C 175.436 140.192, 173.189 137.063, 172.808 137.041 C 172.428 137.018, 165.290 141.108, 156.947 146.130 C 146.786 152.246, 141.543 154.879, 141.066 154.108 C 140.675 153.474, 139.583 143.178, 138.641 131.228 C 137.698 119.277, 136.697 107.700, 136.415 105.500 L 135.903 101.500 150.415 90.012 C 164.875 78.566, 164.941 78.495, 168.565 70.512 C 170.566 66.106, 172.443 61.905, 172.737 61.177 C 173.030 60.449, 165.559 63.714, 156.135 68.432 C 142.380 75.319, 138.999 76.665, 138.997 75.256 C 138.996 74.290, 139.511 65.361, 140.141 55.413 L 141.288 37.326 134.015 25.163 C 130.015 18.473, 126.688 13.002, 126.621 13.004 C 126.555 13.007, 124.100 21.205, 121.166 31.223 M 90.667 94.667 C 89.826 95.507, 89.805 127.728, 90.640 134.679 L 91.262 139.858 101.631 134.701 C 107.334 131.865, 112 129.131, 112 128.627 C 112 127.348, 92.678 94, 91.937 94 C 91.605 94, 91.033 94.300, 90.667 94.667" stroke="none" fill="black" fill-rule="evenodd"/>
</svg>