<svg xmlns="http://www.w3.org/2000/svg" width="200" height="200" viewBox="0 0 200 200" version="1.1">
	<path d="M 141 23.144 L 123.500 32.993 80.500 32.859 C 40.779 32.735, 24.484 33.331, 25.211 34.884 C 25.370 35.223, 29.162 42.700, 33.637 51.500 L 41.775 67.500 33.318 83 C 28.666 91.525, 21.887 104.098, 18.254 110.941 L 11.647 123.381 15.573 120.999 C 17.733 119.688, 24 115.864, 29.500 112.500 C 35 109.137, 40.044 106.058, 40.710 105.658 C 41.512 105.177, 44.982 109.509, 51.009 118.514 C 56.009 125.984, 60.327 132.688, 60.604 133.411 C 60.898 134.176, 52.086 144.046, 39.535 157.010 C 27.669 169.266, 18.141 179.474, 18.361 179.694 C 18.970 180.303, 44.216 172.975, 46.500 171.526 C 49.194 169.817, 81.287 140.076, 82.308 138.343 C 82.752 137.589, 86.900 127.693, 91.524 116.352 C 96.149 105.012, 100.165 95.501, 100.449 95.218 C 100.732 94.935, 103.028 95.782, 105.551 97.101 L 110.139 99.500 109.590 104.500 C 108.228 116.928, 105.883 149.995, 106.176 152.655 C 106.432 154.988, 109.669 158.571, 121.668 169.802 C 130.011 177.611, 137.597 184, 138.527 184 C 141.977 184, 187 168.540, 187 167.356 C 187 165.957, 177.325 129.991, 176.810 129.477 C 176.623 129.289, 168.745 134.938, 159.305 142.029 C 142.364 154.755, 142.135 154.887, 141.584 152.211 C 138.428 136.870, 133.102 103.503, 133.715 102.908 C 134.147 102.489, 143.500 98.467, 154.500 93.972 C 165.500 89.476, 174.651 85.655, 174.836 85.479 C 175.086 85.243, 161.760 65.166, 159.280 62.041 C 159.079 61.789, 153.825 64.116, 147.604 67.213 L 136.292 72.844 135.056 65.672 C 134.376 61.727, 133.613 57.592, 133.360 56.483 C 132.977 54.803, 134.731 53.421, 143.828 48.233 C 149.839 44.805, 155.771 42, 157.010 42 C 159.393 42, 179 28.585, 179 26.955 C 179 25.064, 176.473 26.107, 165.211 32.647 L 153.765 39.293 140.080 38.147 C 132.554 37.516, 125.519 36.912, 124.448 36.804 C 123.376 36.697, 127.189 36.359, 132.920 36.054 C 139.729 35.692, 143.478 35.083, 143.738 34.295 C 144.019 33.446, 141.978 33.003, 136.818 32.795 L 129.500 32.500 140.831 26.300 C 147.063 22.890, 151.605 20.771, 150.924 21.592 C 150.101 22.583, 150.020 23.420, 150.680 24.080 C 151.341 24.741, 153.076 23.557, 155.838 20.560 C 159.935 16.115, 160.730 14.518, 159.250 13.707 C 158.838 13.481, 150.625 17.728, 141 23.144 M 34.250 35.732 C 31.913 35.943, 30 36.545, 30 37.070 C 30 37.595, 33.329 44.671, 37.397 52.794 L 44.794 67.564 32.033 91.032 C 25.015 103.939, 19.412 114.663, 19.582 114.863 C 19.753 115.062, 24.774 112.250, 30.742 108.613 C 36.709 104.976, 41.892 102, 42.259 102 C 42.626 102, 47.903 109.291, 53.985 118.203 L 65.044 134.405 58.279 141.453 C 54.558 145.329, 45.661 154.489, 38.507 161.808 C 24.474 176.167, 24.494 175.755, 38.030 171.622 C 45.098 169.463, 45.907 168.866, 62.648 153.445 L 79.958 137.500 89.080 115 C 94.097 102.625, 98.543 92.136, 98.960 91.691 C 99.377 91.246, 102.726 92.536, 106.403 94.557 L 113.088 98.232 112.548 102.366 C 112.251 104.640, 111.327 115.725, 110.494 127 C 109.662 138.275, 108.802 148.879, 108.584 150.564 C 108.217 153.393, 109.297 154.655, 122.696 167.064 C 130.676 174.454, 137.842 180.647, 138.621 180.827 C 139.746 181.087, 182.614 167.463, 183.817 166.463 C 183.991 166.318, 182.191 158.951, 179.817 150.091 C 176.744 138.626, 175.131 134.124, 174.218 134.472 C 173.514 134.741, 165.727 140.421, 156.916 147.095 C 148.104 153.768, 140.638 158.972, 140.325 158.658 C 139.579 157.912, 129.856 102.932, 130.257 101.728 C 130.427 101.219, 139.213 97.274, 149.781 92.961 C 160.350 88.649, 169.453 84.838, 170.011 84.493 C 171.033 83.862, 159.348 66, 157.912 66 C 157.499 66, 151.988 68.431, 145.666 71.401 L 134.171 76.802 133.048 70.151 C 132.431 66.493, 131.667 62.038, 131.351 60.250 C 131.036 58.462, 130.312 57, 129.744 57 C 129.176 57, 111.281 67.125, 89.978 79.500 C 68.675 91.875, 50.740 102, 50.123 102 C 47.536 102, 49.623 99.593, 60.992 89.466 C 67.588 83.591, 72.736 78.382, 72.433 77.892 C 72.130 77.401, 70.896 76.983, 69.691 76.962 C 68.486 76.942, 63.450 76.147, 58.500 75.195 L 49.500 73.466 60.250 67.573 C 66.162 64.332, 71 61.340, 71 60.923 C 71 60.506, 68.960 59.386, 66.467 58.434 C 63.974 57.482, 61.724 56.363, 61.467 55.947 C 61.210 55.530, 69.628 50.985, 80.174 45.845 L 99.349 36.500 87.425 35.886 C 74.423 35.216, 41.054 35.119, 34.250 35.732 M 84.602 46.717 L 66.973 55.435 70.237 57.175 C 72.031 58.133, 74.042 58.935, 74.704 58.958 C 75.975 59.002, 109.821 40.570, 111.450 38.947 C 112.048 38.351, 110.517 38, 107.316 38 C 102.940 38, 99.773 39.216, 84.602 46.717 M 98.183 49.692 C 76.955 61.490, 77.298 61.039, 86.796 64.666 L 91.265 66.373 109.882 60.181 C 123.443 55.671, 131.171 52.453, 138.336 48.332 C 144.765 44.635, 147.709 42.428, 146.836 41.961 C 146.101 41.568, 141.225 40.945, 136 40.576 C 130.775 40.208, 124.475 39.692, 122 39.431 C 117.778 38.986, 116.305 39.621, 98.183 49.692 M 107.096 64.065 C 104.123 65.120, 99.083 66.715, 95.896 67.609 L 90.100 69.235 83.438 66.118 C 79.774 64.403, 76.151 63, 75.388 63 C 73.548 63, 59 71.163, 59 72.195 C 59 72.638, 59.723 73, 60.607 73 C 61.490 73, 66.248 73.738, 71.179 74.640 L 80.145 76.281 74.829 80.890 C 71.905 83.426, 67.935 87.008, 66.007 88.852 L 62.500 92.204 66 90.220 C 73.053 86.221, 113.513 62.688, 113.917 62.350 C 114.824 61.588, 112.243 62.237, 107.096 64.065" stroke="none" fill="black" fill-rule="evenodd"/>
</svg>