<svg xmlns="http://www.w3.org/2000/svg" width="200" height="200" viewBox="0 0 200 200" version="1.1">
	<path d="M 99 11.681 C 83.945 13.597, 79.080 13.901, 77.658 13.015 C 76.206 12.111, 75.571 12.190, 74.658 13.386 C 73.789 14.525, 65.765 15.828, 42.500 18.608 C 25.450 20.645, 11.153 22.611, 10.729 22.977 C 10.305 23.342, 17.826 30.223, 27.441 38.267 L 44.923 52.892 39.296 60.196 C 36.201 64.213, 29.918 72.069, 25.334 77.653 L 17 87.806 17.001 122.153 L 17.003 156.500 35.004 167.176 L 53.006 177.852 82.950 180.145 C 99.419 181.407, 113.066 182.228, 113.276 181.969 C 113.486 181.711, 120.554 164.282, 128.982 143.237 C 137.411 122.192, 144.494 105.161, 144.723 105.390 C 144.952 105.619, 147.143 119.687, 149.591 136.653 C 152.040 153.619, 154.175 167.924, 154.335 168.442 C 154.628 169.385, 169.252 152.798, 171.915 148.502 C 173.221 146.395, 172.200 143.205, 158.622 106.986 C 150.533 85.408, 144.046 67.621, 144.207 67.461 C 144.368 67.300, 152.338 68.725, 161.917 70.626 C 171.497 72.527, 179.913 73.951, 180.619 73.791 C 181.326 73.631, 174.613 66.691, 165.702 58.369 C 151.650 45.246, 147.842 40.976, 137 26.189 C 125.592 10.629, 124.238 9.142, 121.500 9.170 C 119.850 9.187, 109.725 10.317, 99 11.681 M 99.726 14.363 C 90.501 15.460, 83.081 16.742, 83.237 17.211 C 83.394 17.681, 88.908 22.298, 95.491 27.473 L 107.461 36.880 112.273 24.816 C 114.920 18.181, 116.954 12.666, 116.793 12.560 C 116.632 12.455, 108.952 13.266, 99.726 14.363 M 114.477 41.402 L 108.531 70.805 117.688 82.753 L 126.845 94.702 113.672 134.835 C 106.428 156.908, 100.245 174.976, 99.933 174.984 C 98.901 175.013, 89.026 140.643, 87.851 132.933 C 86.738 125.626, 86.804 125.052, 89.772 116.202 L 92.846 107.037 79.829 102.946 C 72.669 100.696, 66.695 99, 66.553 99.177 C 66.411 99.355, 64.394 102.788, 62.070 106.806 C 57.886 114.044, 57.826 114.285, 55.728 132.556 C 54.205 145.821, 53.249 151, 52.324 151 C 51.617 151, 50.797 149.987, 50.502 148.750 C 49.775 145.698, 43.261 108.475, 36.721 70 C 36.574 69.139, 32.960 72.746, 28.233 78.470 L 20 88.441 19.997 101.470 C 19.996 108.637, 19.709 123.500, 19.361 134.500 L 18.727 154.500 36.252 164.800 L 53.777 175.101 82.508 177.355 L 111.239 179.609 112.944 175.555 C 113.882 173.325, 121.576 154.295, 130.042 133.268 C 138.508 112.240, 145.717 95.365, 146.061 95.768 C 146.405 96.170, 148.823 111.350, 151.435 129.500 C 154.047 147.650, 156.295 162.614, 156.430 162.754 C 156.887 163.228, 170 147.095, 170 146.059 C 170 145.493, 163.231 126.967, 154.959 104.890 C 146.686 82.812, 140.152 64.515, 140.438 64.228 C 140.873 63.794, 148.668 65.159, 171.363 69.643 C 173.669 70.098, 171.744 67.900, 161.478 58.354 C 151.356 48.942, 146.084 42.947, 135.883 29.250 C 128.817 19.762, 122.448 12, 121.730 12 C 120.820 12, 118.622 20.911, 114.477 41.402 M 64.228 31.677 C 58.118 39.830, 53.544 46.651, 54.063 46.835 C 55.162 47.224, 99.956 38.091, 101.615 37.140 C 102.804 36.457, 80.100 18.100, 77.095 17.315 C 75.774 16.969, 72.571 20.545, 64.228 31.677 M 42 21.481 C 27.975 23.275, 16.357 24.801, 16.182 24.871 C 15.238 25.253, 44.654 49, 46.069 49 C 47.452 49, 56.078 38.377, 69.807 19.771 C 71.436 17.563, 73.734 17.421, 42 21.481 M 99.133 65.137 C 91.231 84.916, 84.931 101.241, 85.133 101.415 C 85.335 101.588, 87.862 102.502, 90.750 103.446 C 93.638 104.389, 96 105.486, 96 105.884 C 96 106.282, 94.513 111.083, 92.695 116.554 C 89.456 126.305, 89.416 126.637, 90.669 133.500 C 92.128 141.497, 99.144 166, 99.974 166 C 100.440 166, 118.768 111.983, 122.596 99.328 L 123.858 95.155 114.740 83.382 L 105.622 71.609 109.793 50.620 C 112.088 39.077, 113.861 29.529, 113.733 29.404 C 113.605 29.278, 107.035 45.358, 99.133 65.137 M 78.709 44.953 C 60.871 48.656, 51.603 51.013, 50.974 52.007 C 49.927 53.664, 49.658 58, 50.603 58 C 50.934 58, 55.024 56.211, 59.691 54.024 C 64.358 51.837, 68.879 49.924, 69.737 49.774 C 70.868 49.575, 71.765 51.154, 72.990 55.500 L 74.681 61.500 81.341 61.500 C 85.004 61.500, 88 61.924, 88 62.442 C 88 62.960, 86.200 66.414, 84 70.117 C 81.800 73.820, 80.003 77.446, 80.006 78.175 C 80.009 78.904, 81.025 82.823, 82.263 86.884 L 84.515 94.269 95.374 67.085 C 101.347 52.133, 106.068 39.786, 105.867 39.646 C 105.665 39.506, 93.444 41.894, 78.709 44.953 M 58.250 57.546 C 53.163 59.955, 49 62.442, 49 63.072 C 49 63.909, 52.041 64.024, 60.250 63.498 C 66.438 63.101, 71.627 62.663, 71.782 62.523 C 72.503 61.874, 69.462 53.010, 68.543 53.082 C 67.969 53.128, 63.337 55.136, 58.250 57.546 M 44.167 58.988 L 41.958 61.976 44.479 60.828 C 45.865 60.196, 47 58.851, 47 57.839 C 47 55.390, 46.753 55.490, 44.167 58.988 M 44.500 64 C 44.160 64.550, 44.359 65, 44.941 65 C 45.523 65, 46 64.550, 46 64 C 46 63.450, 45.802 63, 45.559 63 C 45.316 63, 44.840 63.450, 44.500 64 M 79.204 64.727 C 76.676 65.039, 76.024 65.526, 76.406 66.817 C 76.681 67.743, 77.212 69.785, 77.588 71.356 L 78.270 74.212 81.135 69.609 C 84.140 64.780, 84.483 63.897, 83.250 64.160 C 82.838 64.248, 81.017 64.503, 79.204 64.727 M 68.500 65.507 C 67.950 65.699, 63.205 66.148, 57.955 66.506 L 48.410 67.156 46.640 79.828 C 45.667 86.798, 44.644 93.287, 44.368 94.250 C 43.911 95.841, 44.849 95.998, 54.683 95.976 L 65.500 95.952 70.750 87.049 C 73.638 82.152, 76 77.519, 76 76.754 C 76 75.989, 75.308 73.031, 74.461 70.182 C 72.975 65.178, 71.888 64.325, 68.500 65.507 M 41.788 67.813 C 39.438 68.084, 39.142 68.485, 39.572 70.813 C 39.845 72.291, 40.644 76.650, 41.347 80.500 L 42.625 87.500 43.903 78.840 C 45.458 68.302, 45.287 67.409, 41.788 67.813 M 73.215 88.105 C 70.897 91.959, 69 95.445, 69 95.852 C 69 96.685, 82.166 101.168, 82.787 100.546 C 83.122 100.211, 78.214 81.897, 77.628 81.299 C 77.520 81.188, 75.534 84.251, 73.215 88.105 M 44.991 100.250 C 44.960 104.278, 51.553 138.726, 52.075 137.267 C 52.423 136.295, 53.249 130.550, 53.910 124.500 C 54.996 114.567, 55.495 112.853, 59.056 106.825 C 61.225 103.154, 63 99.892, 63 99.575 C 63 99.259, 58.950 99, 54 99 C 47.472 99, 44.997 99.343, 44.991 100.250" stroke="none" fill="black" fill-rule="evenodd"/>
</svg>