<svg xmlns="http://www.w3.org/2000/svg" width="200" height="200" viewBox="0 0 200 200" version="1.1">
	<path d="M 134 9.787 C 134 12.105, 122.895 89.899, 122.257 92.054 L 121.500 94.608 114.500 91.877 C 108.017 89.347, 107.685 89.076, 110 88.211 L 112.500 87.276 113.514 55.888 C 114.071 38.625, 114.426 24.330, 114.303 24.123 C 114.180 23.915, 96.174 21.786, 74.289 19.391 C 41.023 15.751, 33.868 14.691, 30.642 12.927 C 28.439 11.721, 26.409 11.191, 25.909 11.691 C 25.410 12.190, 29.464 19.629, 35.361 29.033 C 41.040 38.090, 45.542 45.678, 45.365 45.895 C 45.188 46.112, 39.071 47.960, 31.772 50 L 18.500 53.711 13.278 51.161 C 7.806 48.489, 5.412 48.782, 8.433 51.754 C 9.408 52.714, 11.623 56.200, 13.353 59.500 L 16.500 65.500 34 69.580 C 45.261 72.206, 51.740 73.299, 52.174 72.645 C 52.882 71.576, 61.314 73.807, 60.770 74.919 C 56.296 84.067, 51.197 91.758, 39.335 107.250 C 31.393 117.622, 24.663 126.715, 24.378 127.458 C 23.560 129.590, 33.142 176.003, 34.396 175.979 C 35.003 175.967, 40.872 172.586, 47.438 168.464 L 59.375 160.970 59.178 145.735 C 59.070 137.356, 58.704 124.618, 58.365 117.429 L 57.749 104.358 64.489 92.167 C 68.196 85.462, 71.578 79.761, 72.004 79.498 C 72.700 79.067, 92.540 86.084, 95.825 87.922 C 96.641 88.379, 93.717 89.576, 88.332 90.989 C 83.475 92.264, 79.162 93.598, 78.750 93.954 C 78.337 94.310, 77.016 107.469, 75.815 123.197 L 73.630 151.793 83.423 164.896 C 89.161 172.575, 93.907 178, 94.887 178 C 95.807 178, 108.246 175.559, 122.530 172.576 C 141.798 168.552, 151.780 166.969, 161.209 166.443 L 173.917 165.734 174.457 161.617 C 175.046 157.119, 180.007 103.213, 180.003 101.352 C 180.001 100.553, 174.240 99.982, 161.109 99.478 C 150.720 99.079, 141.692 98.428, 141.048 98.030 C 139.567 97.114, 151.241 68.286, 154.088 65.830 C 155.152 64.912, 161.710 61.098, 168.661 57.354 C 181.035 50.690, 181.228 50.534, 177.899 49.891 C 176.030 49.530, 166.421 48.940, 156.547 48.581 C 146.673 48.221, 138.495 47.828, 138.374 47.707 C 138.253 47.586, 137.829 38.828, 137.431 28.244 C 136.862 13.080, 136.422 9, 135.354 9 C 134.609 9, 134 9.354, 134 9.787 M 33.198 20.250 C 33.984 21.488, 37.073 26.522, 40.063 31.438 C 45.289 40.029, 45.525 40.262, 46.132 37.438 C 46.479 35.822, 46.817 32.879, 46.882 30.897 C 46.993 27.504, 46.592 27.022, 40.012 22.647 C 32.109 17.392, 31.175 17.063, 33.198 20.250 M 39.796 19.052 C 40.183 19.359, 42.188 20.846, 44.250 22.356 L 48 25.102 48 22.152 C 48 19.379, 47.731 19.180, 43.546 18.847 C 41.097 18.652, 39.410 18.744, 39.796 19.052 M 51.190 23.617 C 51.474 26.932, 52.240 27.741, 60.365 33.309 L 69.230 39.384 76.182 37.593 C 80.006 36.608, 83.361 36.028, 83.637 36.304 C 83.914 36.580, 83.208 38.632, 82.070 40.863 C 80.931 43.095, 80 45.316, 80 45.800 C 80 46.285, 81.549 47.783, 83.443 49.131 L 86.887 51.580 80.443 63.336 C 76.899 69.802, 74.001 75.409, 74.002 75.796 C 74.003 76.183, 80.339 78.896, 88.082 81.824 C 99.627 86.191, 102.845 87.033, 105.965 86.506 L 109.770 85.863 110.410 62.682 C 110.762 49.932, 111.300 36.551, 111.607 32.946 L 112.164 26.392 83.832 23.187 C 68.249 21.423, 54.460 19.985, 53.190 19.990 C 51.146 19.999, 50.915 20.417, 51.190 23.617 M 129.697 61.363 C 127.055 79.988, 125.091 95.424, 125.333 95.666 C 125.574 95.908, 128.035 96.966, 130.801 98.017 L 135.830 99.927 139.259 91.714 C 141.145 87.196, 144.446 79.153, 146.594 73.840 L 150.500 64.180 161.246 58.340 C 173.602 51.625, 174.701 52.354, 150.500 51.209 L 135.500 50.500 135 39 L 134.500 27.500 129.697 61.363 M 49.531 34.198 C 49.166 36.564, 48.623 39.962, 48.323 41.750 C 47.661 45.693, 47.891 45.714, 58.326 42.668 L 66.152 40.384 60.826 36.863 C 57.897 34.927, 54.306 32.567, 52.847 31.620 L 50.193 29.897 49.531 34.198 M 74.697 40.700 C 73.266 41.071, 73.136 41.459, 74.069 42.584 C 75.626 44.459, 77.640 44.382, 78.393 42.418 C 79.407 39.775, 78.997 39.585, 74.697 40.700 M 45.500 48.927 C 34.500 52.064, 24.825 54.868, 24 55.158 C 23 55.509, 24.001 56.454, 27 57.992 C 31.849 60.478, 62.131 72.238, 62.500 71.778 C 63.527 70.498, 75 48.097, 75 47.372 C 75 46.024, 69.531 42.979, 67.346 43.112 C 66.331 43.173, 56.500 45.790, 45.500 48.927 M 71.220 61.034 L 64.940 73.027 67.535 74.013 C 68.962 74.556, 70.287 75, 70.478 75 C 70.669 75, 73.628 69.971, 77.054 63.824 L 83.282 52.647 81.030 50.824 C 79.792 49.821, 78.491 49.009, 78.139 49.021 C 77.788 49.032, 74.674 54.438, 71.220 61.034 M 16 58.809 C 16 61.544, 19.392 63.324, 28.872 65.565 C 34.539 66.904, 39.474 67.982, 39.838 67.960 C 41.880 67.836, 19.155 58, 16.828 58 C 16.373 58, 16 58.364, 16 58.809 M 59.571 83.127 C 57.425 87.101, 49.159 98.873, 41.203 109.287 L 26.737 128.221 30.988 150.172 C 34.559 168.612, 35.488 172.027, 36.796 171.525 C 38.770 170.767, 55.946 159.899, 56.435 159.098 C 56.636 158.769, 56.450 146.125, 56.022 131 L 55.243 103.500 62.246 90.707 C 66.097 83.672, 69.079 77.746, 68.872 77.539 C 68.665 77.332, 67.366 76.879, 65.985 76.532 C 63.694 75.957, 63.132 76.535, 59.571 83.127 M 92.321 92.901 C 86.723 94.330, 81.780 95.868, 81.337 96.318 C 80.893 96.768, 79.617 109.227, 78.500 124.004 L 76.469 150.873 85.212 162.686 C 90.021 169.184, 94.591 174.636, 95.368 174.802 C 96.145 174.968, 107.743 172.803, 121.140 169.989 C 136.511 166.762, 150.297 164.493, 158.500 163.840 C 165.650 163.271, 171.557 162.737, 171.627 162.653 C 171.758 162.494, 177.017 105.002, 177.006 103.849 C 177.003 103.490, 171.713 102.914, 165.250 102.569 C 158.787 102.223, 150.350 101.724, 146.500 101.459 L 139.500 100.977 144 102.868 C 147.960 104.531, 148.583 105.222, 149.192 108.629 C 149.573 110.758, 149.911 115.527, 149.942 119.227 L 150 125.953 138.666 146.568 C 132.432 157.906, 126.919 167.144, 126.416 167.099 C 125.912 167.053, 123.093 162.624, 120.151 157.258 L 114.803 147.500 118.213 122.620 L 121.623 97.741 118.062 96.242 C 116.103 95.417, 111.800 93.744, 108.500 92.522 L 102.500 90.302 92.321 92.901 M 120.972 122.754 L 117.643 146.508 121.952 154.790 C 124.322 159.346, 126.380 162.944, 126.525 162.786 C 126.670 162.629, 131.337 154.206, 136.895 144.069 L 147 125.639 147 116.423 L 147 107.208 136.410 103.104 C 130.586 100.847, 125.479 99, 125.061 99 C 124.643 99, 122.803 109.689, 120.972 122.754" stroke="none" fill="black" fill-rule="evenodd"/>
</svg>