<svg xmlns="http://www.w3.org/2000/svg" width="200" height="200" viewBox="0 0 200 200" version="1.1">
	<path d="M 45.519 30.858 C 38.614 41.490, 11.065 87.398, 11.394 87.727 C 11.605 87.938, 16.778 85.873, 22.889 83.137 C 29 80.402, 34 78.525, 34 78.966 C 34 79.408, 36.481 80.080, 39.513 80.458 L 45.026 81.147 43.439 83.824 C 39.347 90.726, 39.590 90.618, 33.991 87.996 C 30.331 86.281, 28.661 85.939, 27.860 86.740 C 27.059 87.541, 28.154 88.441, 31.880 90.044 C 34.696 91.255, 36.984 92.528, 36.965 92.873 C 36.945 93.218, 36.286 94.625, 35.500 96 C 34.714 97.375, 34.055 98.736, 34.035 99.025 C 34.016 99.314, 38.050 99.138, 43 98.633 C 47.950 98.128, 52 97.419, 52 97.058 C 52 96.697, 50.516 95.865, 48.703 95.210 C 46.890 94.554, 44.602 93.429, 43.619 92.711 C 41.938 91.481, 42.027 91.089, 45.128 86.101 L 48.424 80.799 52.962 81.372 C 55.458 81.687, 62.787 82.249, 69.250 82.619 C 75.713 82.990, 81 83.627, 81 84.035 C 81 84.443, 72.563 93.739, 62.250 104.692 C 51.938 115.646, 42.681 125.554, 41.679 126.711 C 40.102 128.533, 17.779 178.119, 18.304 178.634 C 18.412 178.739, 28.400 176.167, 40.500 172.917 C 52.600 169.668, 67.900 166.260, 74.500 165.345 L 86.500 163.681 104.355 166.402 C 114.175 167.899, 122.373 168.961, 122.572 168.761 C 122.772 168.562, 118.009 160.192, 111.988 150.161 C 105.968 140.131, 101.617 132.279, 102.319 132.712 C 103.022 133.145, 109.181 137.325, 116.007 142 C 126.852 149.428, 186.114 185.100, 186.730 184.571 C 186.856 184.462, 184.227 177.427, 180.888 168.937 C 177.548 160.447, 169.523 139.775, 163.053 123 C 155.311 102.925, 148.887 88.056, 144.260 79.500 C 137.331 66.686, 137.265 66.495, 139.694 66.176 C 141.979 65.875, 169.875 44.008, 170.181 42.277 C 170.257 41.850, 165.184 40.543, 158.909 39.374 C 149.119 37.550, 142.462 37.174, 112 36.727 L 76.500 36.205 62.192 31.711 L 47.885 27.217 45.519 30.858 M 33.205 56.128 C 24.793 69.942, 18.080 81.413, 18.288 81.621 C 18.496 81.829, 26.892 78.299, 36.948 73.777 C 52.485 66.790, 55.591 65.026, 57.634 62.028 L 60.039 58.500 55.519 58.195 C 53.034 58.028, 51 57.521, 51 57.070 C 51 56.174, 55.873 55, 59.595 55 C 61.393 55, 63.103 53.274, 66.940 47.589 C 69.690 43.513, 72.066 39.650, 72.220 39.004 C 72.461 37.994, 52.592 31.004, 49.500 31.011 C 48.950 31.012, 41.617 42.315, 33.205 56.128 M 70.714 46.653 C 68.082 50.837, 66.064 54.398, 66.231 54.564 C 66.397 54.731, 79.801 54.057, 96.017 53.067 C 112.233 52.077, 125.227 51.206, 124.892 51.133 C 108.531 47.546, 87.940 42.587, 83 41.045 C 79.425 39.929, 76.275 39.022, 76 39.030 C 75.725 39.038, 73.346 42.468, 70.714 46.653 M 89 39.776 C 89.825 40.115, 102.389 43.117, 116.921 46.447 C 131.559 49.800, 143.517 53.032, 143.735 53.693 C 143.996 54.483, 142.092 55.117, 138.096 55.569 C 132.372 56.216, 132.121 56.357, 133.179 58.334 C 134.388 60.593, 138.003 63.913, 139.313 63.967 C 140.215 64.004, 165.200 43.862, 164.770 43.444 C 164.622 43.299, 159.341 42.240, 153.035 41.090 C 143.142 39.286, 137.867 39.011, 114.535 39.079 C 99.666 39.122, 88.175 39.436, 89 39.776 M 87.500 57.171 C 64.391 58.003, 63.438 58.118, 61.818 60.253 C 60.894 61.472, 60.251 62.584, 60.391 62.724 C 60.530 62.864, 62.981 61.991, 65.836 60.785 L 71.028 58.591 101.193 60.783 C 117.784 61.988, 131.547 62.787, 131.777 62.557 C 132.007 62.327, 131.379 60.757, 130.382 59.069 C 128.279 55.509, 130.703 55.616, 87.500 57.171 M 64.383 64.413 C 58.783 67.040, 56.589 68.736, 54.087 72.373 L 50.908 76.994 78.204 76.462 C 93.217 76.169, 109.154 75.685, 113.619 75.386 C 121.614 74.851, 121.804 74.776, 126.021 70.478 C 131.310 65.090, 133.233 65.634, 101.500 63.537 C 88.300 62.665, 76.150 61.754, 74.500 61.513 C 72.482 61.218, 69.170 62.168, 64.383 64.413 M 127.989 72.487 L 122.500 77.974 94.500 78.705 C 70.247 79.339, 67.704 79.545, 75.500 80.249 C 83.207 80.944, 109.785 87.637, 113.628 89.850 C 114.420 90.307, 113.860 93.478, 111.748 100.500 C 108.767 110.411, 108.754 110.553, 110.330 116.490 C 111.391 120.489, 111.587 122.813, 110.918 123.482 C 110.250 124.150, 109.681 124.138, 109.208 123.445 C 104.736 116.891, 83.618 87.882, 83.075 87.546 C 82.679 87.302, 73.363 96.685, 62.373 108.398 L 42.390 129.694 32.649 151.967 C 27.291 164.218, 23.041 174.343, 23.204 174.467 C 23.367 174.592, 32.201 172.347, 42.836 169.480 C 53.471 166.613, 67.646 163.478, 74.336 162.515 C 86.302 160.792, 86.727 160.798, 100.500 162.911 C 108.200 164.093, 115.280 165.227, 116.233 165.432 C 118.362 165.889, 118.884 166.904, 105.914 145.356 C 100.415 136.221, 95.822 128.241, 95.708 127.623 C 95.244 125.118, 99.202 127.209, 113.500 137.025 C 128.027 146.999, 180.046 178.287, 180.818 177.516 C 181.027 177.306, 177.597 167.992, 173.194 156.817 C 168.792 145.643, 161.588 127.050, 157.186 115.500 C 150.362 97.594, 135.746 67.043, 133.989 67.010 C 133.708 67.004, 131.008 69.469, 127.989 72.487 M 44.500 73.518 L 37.500 76.899 42.797 76.700 C 47.590 76.519, 48.288 76.191, 50.145 73.250 C 51.273 71.463, 52.040 70.031, 51.848 70.068 C 51.657 70.105, 48.350 71.658, 44.500 73.518 M 85 84.503 C 85 85.207, 104.372 112.537, 106.262 114.500 C 106.884 115.146, 106.983 114.701, 106.543 113.243 C 106.132 111.885, 106.907 107.352, 108.489 101.852 C 109.934 96.828, 110.753 92.368, 110.308 91.942 C 109.864 91.516, 104.672 89.770, 98.772 88.061 C 92.872 86.352, 87.359 84.691, 86.522 84.370 C 85.685 84.049, 85 84.109, 85 84.503 M 39.473 95.044 C 39.148 95.570, 39.809 96, 40.941 96 C 43.356 96, 43.599 95.444, 41.532 94.651 C 40.725 94.341, 39.798 94.518, 39.473 95.044" stroke="none" fill="black" fill-rule="evenodd"/>
</svg>