<svg xmlns="http://www.w3.org/2000/svg" width="200" height="200" viewBox="0 0 200 200" version="1.1">
	<path d="M 102.511 7.031 C 100.321 10.039, 98.183 12.950, 97.760 13.500 C 97.336 14.050, 94.895 17.650, 92.335 21.500 C 83.486 34.807, 82.823 35.397, 67.104 43.943 C 53.958 51.091, 51.679 52.008, 46.893 52.074 C 43.927 52.115, 39.555 52.452, 37.177 52.824 L 32.854 53.500 35.913 56.423 L 38.971 59.346 33.871 62.259 C 31.066 63.860, 29.160 65.542, 29.636 65.995 C 30.111 66.448, 35.225 69.381, 41 72.513 C 46.775 75.645, 51.667 78.365, 51.871 78.558 C 52.075 78.751, 48.222 84.667, 43.310 91.704 C 32.460 107.246, 32.555 107.092, 34.198 106.539 C 36.605 105.729, 82.035 93, 82.520 93 C 83.183 93, 82.943 105.326, 82.151 111.947 L 81.500 117.394 72 119.584 C 66.775 120.788, 54.963 123.470, 45.750 125.543 L 29 129.312 29.106 140.906 C 29.164 147.283, 29.502 156.358, 29.856 161.073 L 30.500 169.646 51.500 151.865 C 63.050 142.086, 72.828 134.065, 73.229 134.042 C 73.630 134.019, 75.966 136.993, 78.420 140.652 L 82.883 147.304 80.691 148.976 C 79.486 149.896, 74 153.738, 68.500 157.513 C 63 161.289, 57.509 165.128, 56.299 166.045 C 54.161 167.663, 54.819 167.980, 79.052 177.019 C 92.776 182.139, 104.149 186.141, 104.325 185.914 C 104.500 185.686, 107.263 174.036, 110.465 160.025 L 116.286 134.551 115.095 122.270 C 112.700 97.564, 112.440 97.932, 118.940 116.829 L 124.900 134.158 135.700 145.745 C 141.640 152.118, 149.430 160.463, 153.010 164.289 L 159.521 171.246 170.260 155.128 C 176.167 146.263, 181 138.665, 181 138.244 C 181 137.822, 169.300 132.105, 155 125.538 C 140.700 118.972, 129.016 113.352, 129.036 113.050 C 129.056 112.747, 137.944 106.786, 148.786 99.801 C 159.629 92.817, 169.353 86.475, 170.397 85.708 C 172.144 84.422, 171.434 83.856, 161.397 78.524 C 155.403 75.340, 149.073 71.880, 147.329 70.835 L 144.159 68.935 131.329 79.879 C 124.273 85.899, 118.356 90.682, 118.179 90.508 C 118.003 90.334, 119.314 82.906, 121.092 74 L 124.326 57.808 133.913 58.377 C 139.186 58.691, 151.825 59.071, 162 59.223 C 184.084 59.554, 185.144 58.810, 171 52.910 C 159.565 48.140, 121.597 28.996, 114.250 24.297 C 109.101 21.003, 107.638 19, 110.383 19 C 111.144 19, 120.481 21.246, 131.133 23.992 C 141.785 26.737, 150.838 28.987, 151.250 28.992 C 151.662 28.996, 152 28.375, 152 27.611 C 152 26.634, 145.610 24.635, 130.460 20.874 C 111.951 16.280, 108.863 15.244, 108.515 13.514 C 108.293 12.406, 107.747 9.264, 107.302 6.531 L 106.492 1.562 102.511 7.031 M 103.157 10.707 C 101.634 13.553, 101.664 13.679, 104 14.290 C 106.114 14.842, 106.394 13.869, 105.087 10.522 C 104.332 8.589, 104.288 8.594, 103.157 10.707 M 97.176 21.945 C 96.051 25.275, 95.384 28, 95.694 28 C 97.270 28, 106.998 21.690, 106.985 20.677 C 106.957 18.523, 105.532 17.258, 102.360 16.570 C 99.258 15.898, 99.197 15.960, 97.176 21.945 M 100.062 28.860 L 93.625 32.529 90.096 43.264 L 86.568 54 79.852 54 C 73.580 54, 72.999 54.192, 71.068 56.904 C 69.931 58.502, 69 60.019, 69 60.276 C 69 60.533, 73.275 61.308, 78.500 62 C 84.076 62.738, 88.008 63.720, 88.019 64.379 C 88.106 69.374, 84.597 118.650, 84.117 119.174 C 83.778 119.544, 71.912 122.438, 57.750 125.603 L 32 131.360 32 147.680 C 32 156.656, 32.220 164, 32.490 164 C 32.759 164, 42.067 156.350, 53.175 147 C 64.283 137.650, 73.670 130, 74.035 130 C 74.854 130, 86 146.639, 86 147.862 C 86 148.347, 80.080 152.838, 72.846 157.844 C 64.919 163.328, 60.249 167.147, 61.096 167.454 C 61.868 167.734, 71.416 171.308, 82.314 175.396 C 95.292 180.265, 102.265 182.427, 102.525 181.665 C 104.356 176.287, 113 135.743, 113 132.530 C 113 130.266, 112.100 119.677, 111 109 C 109.900 98.323, 109 88.555, 109 87.293 C 109 84.137, 110.834 84.411, 112.054 87.750 C 112.607 89.263, 113.333 91.175, 113.666 92 C 114 92.825, 116.006 84.993, 118.124 74.596 C 120.242 64.199, 122.093 55.617, 122.237 55.524 C 122.382 55.432, 133.525 55.682, 147 56.081 C 160.475 56.479, 171.626 56.685, 171.780 56.539 C 171.934 56.392, 167.441 54.356, 161.795 52.013 L 151.530 47.752 131.515 48.785 C 120.507 49.352, 111.346 49.667, 111.158 49.483 C 110.970 49.300, 110.116 44.053, 109.261 37.825 C 108.406 31.596, 107.435 26.206, 107.103 25.846 C 106.771 25.486, 103.603 26.842, 100.062 28.860 M 110.344 27.555 C 110.667 29.175, 111.453 34.239, 112.089 38.809 L 113.247 47.117 123.874 46.526 C 129.718 46.202, 137.415 45.678, 140.977 45.364 L 147.453 44.792 131.477 36.646 C 122.690 32.166, 114.207 27.625, 112.628 26.555 L 109.755 24.610 110.344 27.555 M 90 29.500 C 89.293 30.352, 88.940 31.273, 89.215 31.548 C 89.490 31.823, 90.293 31.352, 91 30.500 C 91.707 29.648, 92.060 28.727, 91.785 28.452 C 91.510 28.177, 90.707 28.648, 90 29.500 M 86.296 36.505 C 84.194 37.978, 74.611 50.952, 75.201 51.527 C 75.366 51.687, 77.558 51.585, 80.074 51.299 L 84.648 50.780 87.234 42.890 C 88.657 38.550, 89.511 35, 89.133 35 C 88.755 35, 87.478 35.677, 86.296 36.505 M 73.500 43.451 C 71.300 44.702, 67.025 47.142, 64 48.872 L 58.500 52.018 64.937 51.759 L 71.374 51.500 74.811 46.707 C 76.702 44.072, 78.080 41.749, 77.874 41.546 C 77.668 41.343, 75.700 42.200, 73.500 43.451 M 39.500 56 C 40.281 57.264, 43.044 57.264, 45 56 C 46.113 55.280, 45.519 55.027, 42.691 55.015 C 40.403 55.006, 39.129 55.399, 39.500 56 M 50.128 56.386 L 47.756 57.701 50.628 58.274 C 52.208 58.589, 56.229 59.155, 59.564 59.532 C 65.342 60.184, 65.709 60.093, 67.337 57.608 L 69.046 55 60.773 55.035 C 55.871 55.056, 51.534 55.607, 50.128 56.386 M 38.623 62.618 L 33.746 65.167 36.623 66.897 C 43.169 70.833, 53.968 76.359, 54.302 75.945 C 54.500 75.700, 56.549 72.824, 58.855 69.553 C 63.640 62.768, 63.536 62.579, 54.500 61.582 C 51.200 61.217, 47.375 60.728, 46 60.494 C 44.541 60.246, 41.469 61.131, 38.623 62.618 M 61.634 70.127 C 58.945 74.020, 57.156 77.541, 57.634 78 C 59.046 79.356, 83.067 92.270, 83.431 91.868 C 83.615 91.666, 84.086 85.806, 84.478 78.848 C 85.291 64.410, 86.036 65.604, 75.500 64.477 C 72.200 64.125, 68.825 63.667, 68 63.461 C 67.052 63.224, 64.709 65.677, 61.634 70.127 M 129.357 85.099 L 115.214 97.180 121.119 114.840 L 127.025 132.500 142.384 148.957 C 150.832 158.009, 158.173 165.558, 158.699 165.733 C 159.617 166.039, 177.031 140.805, 176.970 139.256 C 176.954 138.840, 168.066 134.454, 157.220 129.508 C 146.374 124.562, 134.194 118.931, 130.154 116.995 L 122.807 113.474 143.654 100.068 C 155.119 92.695, 165.051 86.171, 165.725 85.570 C 166.646 84.749, 164.264 83.056, 156.112 78.739 C 150.151 75.583, 144.875 73.004, 144.387 73.009 C 143.899 73.014, 137.136 78.455, 129.357 85.099 M 47.209 90.674 C 43.198 96.491, 40.078 101.411, 40.274 101.607 C 40.633 101.967, 74.973 92.361, 75.612 91.722 C 75.899 91.434, 57.031 80.915, 55.123 80.299 C 54.780 80.189, 51.219 84.858, 47.209 90.674" stroke="none" fill="black" fill-rule="evenodd"/>
</svg>