<svg xmlns="http://www.w3.org/2000/svg" width="200" height="200" viewBox="0 0 200 200" version="1.1">
	<path d="M 23.422 12.126 C 22.969 12.859, 20.530 13.076, 16.424 12.746 C 11.779 12.373, 9.990 12.584, 9.619 13.550 C 9.132 14.820, 11.418 15.541, 22.232 17.530 C 25.801 18.186, 26.316 18.829, 33.948 32.153 C 38.998 40.970, 41.484 46.234, 40.715 46.482 C 40.047 46.699, 31.211 48.705, 21.081 50.940 C 10.950 53.176, 2.511 55.156, 2.327 55.340 C 2.143 55.523, 11.692 58.527, 23.547 62.014 C 35.401 65.501, 45.277 68.638, 45.492 68.987 C 45.707 69.335, 40.059 72.504, 32.941 76.029 C 25.824 79.554, 20 82.763, 20 83.160 C 20 85.072, 22.995 84.519, 40.055 79.457 C 50.168 76.455, 58.577 74, 58.742 74 C 59.312 74, 55.106 81.600, 44.073 100.500 C 34.042 117.683, 32.500 121.007, 27.946 135.256 L 22.910 151.013 36.542 170.506 C 44.040 181.228, 50.523 190, 50.949 190 C 51.374 190, 51.963 186.063, 52.257 181.250 C 52.551 176.438, 54.037 154.950, 55.559 133.500 L 58.326 94.500 63.993 82.500 L 69.660 70.500 85.080 66.085 C 93.561 63.656, 100.992 61.498, 101.593 61.288 C 102.193 61.078, 103.797 63.515, 105.156 66.703 C 107.568 72.361, 107.610 72.896, 106.917 89 C 106.526 98.075, 106.160 118.887, 106.103 135.250 C 106.047 151.613, 105.643 165, 105.207 165 C 104.770 165, 95.677 165.900, 85 167 C 74.323 168.100, 65.005 169, 64.293 169 C 63.582 169, 63 169.675, 63 170.500 C 63 171.796, 66.847 172.013, 91.250 172.094 C 106.787 172.146, 128.950 172.525, 140.500 172.935 L 161.500 173.682 170.972 164.363 C 177.271 158.165, 180.109 154.709, 179.446 154.046 C 178.783 153.383, 171.807 155.072, 158.622 159.088 C 147.717 162.410, 138.665 164.987, 138.507 164.814 C 137.617 163.845, 136.004 121.611, 136.025 99.877 L 136.051 74.500 139.779 61.647 L 143.507 48.793 166.195 42.026 C 193.607 33.850, 192.612 34.212, 191.302 32.902 C 190.591 32.191, 183.749 32.839, 169.384 34.977 C 140.957 39.207, 143.474 38.476, 142.154 42.880 L 141.020 46.664 122.962 51.984 C 112.307 55.122, 104.544 56.934, 104.027 56.402 C 103.314 55.669, 95 37.496, 95 36.671 C 95 36.540, 105.012 36.612, 117.250 36.831 L 139.500 37.229 150.014 28.364 C 155.797 23.489, 160.668 19.151, 160.839 18.725 C 161.706 16.564, 160.163 16.142, 155.991 17.400 C 152.087 18.577, 143.278 18.387, 90.371 15.984 C 53.105 14.292, 28.455 12.778, 27.196 12.105 C 24.623 10.728, 24.285 10.730, 23.422 12.126 M 34 16.355 C 34 16.596, 40.525 18.019, 48.500 19.517 C 56.475 21.015, 63 22.532, 63 22.888 C 63 23.244, 61.875 25.191, 60.500 27.215 C 59.125 29.238, 58 31.102, 58 31.357 C 58 31.612, 60.924 33.668, 64.499 35.925 C 70.836 39.928, 71.110 40.001, 75.537 38.886 C 78.034 38.258, 80.318 37.984, 80.612 38.279 C 80.907 38.573, 80.472 40.121, 79.646 41.718 L 78.145 44.621 84.537 48.561 C 88.052 50.727, 90.945 53.111, 90.964 53.857 C 91.010 55.588, 89.405 54.960, 82.513 50.552 L 77.021 47.038 75.652 49.269 C 71.152 56.604, 65.079 69.147, 66.189 68.815 C 66.910 68.600, 68.963 65.403, 70.750 61.711 C 72.581 57.933, 74.645 55, 75.476 55 C 77.083 55, 76.563 57.077, 73.448 63.100 C 72.571 64.797, 72.011 66.345, 72.206 66.539 C 72.848 67.181, 101 58.625, 101 57.788 C 101 57.337, 99.034 52.760, 96.630 47.617 L 92.261 38.266 87.380 37.576 C 80.576 36.614, 78.833 36.002, 79.259 34.724 C 79.520 33.941, 88.274 33.698, 109.251 33.893 L 138.874 34.167 146.473 27.834 L 154.071 21.500 147.786 21.261 C 120.294 20.215, 47.069 16.926, 41.250 16.477 C 37.263 16.169, 34 16.114, 34 16.355 M 32.923 24.584 C 42.421 41.606, 44.399 44.872, 44.989 44.507 C 45.344 44.287, 47.482 41.474, 49.741 38.254 L 53.847 32.400 43.941 26.111 C 38.492 22.652, 33.041 19.562, 31.828 19.245 C 29.735 18.697, 29.791 18.972, 32.923 24.584 M 42.062 21.355 C 42.371 21.686, 45.474 23.800, 48.958 26.051 C 55.528 30.298, 55.458 30.299, 58.015 25.850 C 58.835 24.423, 58.051 24.044, 52.232 23.056 C 48.529 22.428, 44.600 21.652, 43.500 21.332 C 42.400 21.013, 41.753 21.023, 42.062 21.355 M 52.588 38.880 C 50.615 41.568, 49 43.996, 49 44.276 C 49 44.555, 52.712 43.944, 57.250 42.917 C 61.788 41.891, 65.926 41.040, 66.446 41.026 C 67.226 41.005, 63.502 38.415, 57.338 34.693 C 56.634 34.267, 54.764 35.915, 52.588 38.880 M 155.512 39.855 C 147.344 41.200, 145.459 41.837, 145.169 43.350 C 144.743 45.573, 146.062 45.363, 159.500 41.065 C 169.857 37.753, 169.300 37.584, 155.512 39.855 M 57.774 45.494 C 52.424 46.745, 47.249 48.116, 46.274 48.542 C 45.298 48.967, 44.023 49.244, 43.440 49.158 C 42.857 49.071, 35.657 50.512, 27.440 52.361 L 12.500 55.722 21.500 58.447 C 30.451 61.156, 48.719 66.616, 52.459 67.700 C 53.955 68.133, 52.417 69.306, 45.959 72.659 C 36.650 77.492, 36.961 77.516, 51.500 73.085 L 61.500 70.038 67.899 57.864 C 73.944 46.364, 74.196 45.617, 72.458 44.346 C 70.169 42.672, 69.691 42.709, 57.774 45.494 M 122.554 54.908 C 113.784 57.531, 106.445 60.166, 106.245 60.764 C 106.046 61.361, 106.775 63.600, 107.866 65.737 C 109.791 69.511, 109.829 71.034, 109.174 118.562 L 108.500 167.500 103 168.087 L 97.500 168.674 103 168.860 C 106.025 168.962, 120.200 169.474, 134.500 169.996 L 160.500 170.946 166.723 164.779 C 170.145 161.387, 172.787 158.454, 172.595 158.261 C 172.402 158.068, 164.098 160.346, 154.142 163.322 L 136.041 168.734 135.571 165.617 C 134.464 158.281, 132.989 119.717, 133.003 98.500 L 133.018 75.500 136.500 63 C 138.415 56.125, 139.986 50.388, 139.991 50.250 C 140.009 49.746, 138.197 50.230, 122.554 54.908 M 60.579 77.251 C 58.973 80.138, 52.694 91.050, 46.627 101.500 C 36.882 118.285, 35.033 122.249, 30.774 135.500 L 25.953 150.500 32.183 159.500 C 49.274 184.191, 48.431 183.163, 49.163 180.191 C 49.528 178.711, 51.016 159.725, 52.469 138 C 53.923 116.275, 55.323 97.088, 55.580 95.361 C 55.838 93.635, 58.274 87.673, 60.994 82.111 C 66.153 71.562, 65.833 67.810, 60.579 77.251" stroke="none" fill="black" fill-rule="evenodd"/>
</svg>