<svg xmlns="http://www.w3.org/2000/svg" width="200" height="200" viewBox="0 0 200 200" version="1.1">
	<path d="M 131.467 17.250 C 132.160 22.242, 136 58.653, 136 60.228 C 136 60.972, 132.250 61.117, 123.876 60.696 C 117.208 60.361, 111.575 59.909, 111.358 59.691 C 111.141 59.474, 113.948 52.906, 117.595 45.095 C 121.243 37.285, 123.959 30.626, 123.631 30.297 C 123.153 29.819, 28.461 15.026, 25.750 15.006 C 23.689 14.990, 25.365 17.871, 27.750 18.442 C 29.262 18.805, 35.858 20.505, 42.407 22.221 L 54.314 25.340 43.652 29.508 C 37.788 31.800, 32.734 33.933, 32.420 34.247 C 31.673 34.994, 32.529 35.221, 52.500 39.569 C 61.850 41.605, 69.659 43.406, 69.854 43.573 C 70.049 43.739, 69.327 46.491, 68.249 49.688 C 66.541 54.757, 65.984 55.471, 63.895 55.273 C 60.471 54.948, 13.878 48.059, 11.594 47.539 C 10.278 47.240, 10.975 48.418, 13.844 51.341 C 16.130 53.670, 18 55.784, 18.001 56.038 C 18.001 56.292, 13.951 56.343, 9.001 56.151 C 0.111 55.805, -0 55.830, 0 58.160 C 0 60.240, 2.802 61.919, 23.635 72.325 C 38.738 79.868, 47.617 83.783, 48.231 83.169 C 48.844 82.556, 45.095 78.212, 37.845 71.137 L 26.500 60.065 35.500 60.132 C 40.450 60.168, 48.197 60.491, 52.714 60.849 L 60.929 61.500 48.032 88.500 C 40.169 104.961, 35.492 115.864, 36.051 116.433 C 36.554 116.947, 37.148 117.172, 37.370 116.933 C 37.591 116.695, 43.073 105.362, 49.552 91.749 C 56.030 78.136, 61.490 67.156, 61.684 67.351 C 61.878 67.545, 59.550 74.944, 56.510 83.792 L 50.983 99.880 52.488 129.690 C 53.316 146.086, 53.994 160.512, 53.996 161.750 C 54 163.957, 53.773 164, 42.148 164 L 30.296 164 29.654 155.750 C 29.301 151.213, 29.009 143.179, 29.006 137.897 C 28.998 125.183, 27.981 115.840, 26.653 116.282 C 26.070 116.477, 25.677 118.840, 25.773 121.567 C 25.870 124.280, 26.243 135.612, 26.602 146.750 L 27.255 167 42.127 167 C 53.355 167, 57.002 166.694, 57.007 165.750 C 57.011 165.063, 56.287 150.001, 55.398 132.281 L 53.782 100.062 60.565 80.423 L 67.348 60.783 71.256 61.308 C 73.406 61.596, 75.358 62.024, 75.593 62.260 C 75.829 62.495, 74.478 67.770, 72.593 73.981 L 69.164 85.274 72.088 100.387 C 73.696 108.699, 76.826 129.880, 79.045 147.456 C 81.263 165.031, 83.173 179.482, 83.289 179.568 C 83.618 179.812, 143.871 182.034, 149.684 182.016 L 154.869 182 172.400 162.799 C 182.042 152.238, 189.822 143.489, 189.690 143.357 C 189.558 143.224, 181.436 145.129, 171.642 147.589 L 153.835 152.063 126.945 149.531 C 112.155 148.139, 99.209 147, 98.176 147 C 96.434 147, 96.770 144.639, 102.835 114.307 C 106.430 96.326, 109.491 82.039, 109.638 82.557 C 109.952 83.668, 113 123.733, 113 126.746 C 113 128.655, 113.797 128.862, 123.750 129.543 C 134.222 130.260, 169.423 127.709, 171.220 126.103 C 171.972 125.431, 184.188 56.854, 183.651 56.318 C 183.482 56.149, 173.929 55.278, 162.422 54.382 C 150.915 53.486, 141.328 52.599, 141.118 52.411 C 140.908 52.223, 139.460 44.741, 137.902 35.785 C 136.343 26.828, 134.807 18.038, 134.489 16.250 C 134.135 14.267, 133.318 13, 132.393 13 C 131.184 13, 130.997 13.860, 131.467 17.250 M 54.813 22.683 C 55.534 22.972, 56.397 22.936, 56.729 22.604 C 57.061 22.272, 56.471 22.036, 55.417 22.079 C 54.252 22.127, 54.015 22.364, 54.813 22.683 M 60 23.966 C 62.472 24.725, 62.458 24.752, 58.849 26.339 C 56.842 27.221, 51.892 29.267, 47.849 30.884 C 43.626 32.573, 41.138 34.042, 42 34.336 C 42.825 34.618, 49.974 36.244, 57.888 37.950 C 65.801 39.656, 72.646 41.281, 73.099 41.561 C 73.553 41.842, 72.643 45.689, 71.078 50.111 C 67.971 58.893, 68.146 59.404, 74.054 58.820 L 77.299 58.500 81.795 43.229 C 84.268 34.830, 86.049 27.715, 85.752 27.419 C 85.083 26.749, 62.237 23.006, 59.500 23.118 C 57.868 23.184, 57.960 23.340, 60 23.966 M 90.006 32.280 C 91.081 35.151, 93.949 42.450, 96.378 48.500 C 100.708 59.279, 100.864 59.506, 104.194 59.798 L 107.592 60.096 113.898 46.484 C 117.366 38.996, 120.024 32.690, 119.804 32.470 C 119.583 32.250, 113.575 31.161, 106.452 30.051 C 99.328 28.940, 92.274 27.813, 90.775 27.546 L 88.051 27.060 90.006 32.280 M 83.750 46.250 C 81.775 52.983, 80.235 58.544, 80.329 58.607 C 80.423 58.671, 84.422 58.987, 89.215 59.310 L 97.931 59.898 96.066 55.199 C 89.971 39.834, 87.799 34.473, 87.584 34.254 C 87.450 34.119, 85.725 39.517, 83.750 46.250 M 20.674 54.060 C 23.496 56.807, 23.528 56.812, 41.500 57.348 C 60.920 57.927, 60.550 57.755, 33.674 53.698 L 17.848 51.309 20.674 54.060 M 138.427 56.670 C 138.742 57.491, 139 58.802, 139 59.582 C 139 61.334, 144.690 61.474, 152.020 59.902 C 154.835 59.299, 157.348 59.015, 157.605 59.272 C 158.579 60.245, 144.607 115, 143.386 115 C 141.753 115, 141.468 113.237, 138.838 86.885 L 136.581 64.270 127.637 63.635 C 122.718 63.286, 116.589 63, 114.017 63 C 109.378 63, 109.324 63.039, 106.969 68.066 C 105.664 70.852, 104.290 73.321, 103.915 73.552 C 103.541 73.784, 102.226 71.279, 100.995 67.987 L 98.756 62 88.939 62 L 79.121 62 76.511 70.750 C 75.075 75.563, 73.475 80.799, 72.955 82.387 C 72.242 84.560, 72.846 89.751, 75.398 103.387 C 77.262 113.349, 80.253 133.650, 82.045 148.500 C 83.837 163.350, 85.572 175.814, 85.901 176.198 C 86.414 176.796, 116.856 178.339, 144.955 179.192 L 153.410 179.449 167.621 163.974 C 175.436 155.463, 181.685 148.353, 181.506 148.173 C 181.327 147.994, 175.131 149.438, 167.738 151.383 L 154.296 154.920 124.114 152.092 C 107.513 150.537, 93.763 149.093, 93.557 148.882 C 93.028 148.342, 108.577 71.090, 109.376 70.291 C 111.148 68.518, 111.949 73.585, 113.810 98.330 C 114.919 113.087, 116.127 125.462, 116.494 125.830 C 118.733 128.078, 166.887 125.694, 169.098 123.226 C 169.602 122.664, 179.508 66.877, 180.323 60.010 C 180.468 58.790, 177.694 58.309, 165 57.355 C 156.475 56.714, 146.880 55.962, 143.677 55.683 C 138.793 55.258, 137.946 55.417, 138.427 56.670 M 21 68 C 30.625 72.892, 38.814 76.918, 39.197 76.947 C 39.580 76.976, 35.755 72.962, 30.697 68.027 L 21.500 59.054 12.500 59.080 L 3.500 59.106 21 68 M 150.500 63.069 C 148.850 63.451, 145.557 63.817, 143.183 63.882 C 139.582 63.980, 138.945 64.291, 139.348 65.750 C 139.614 66.713, 140.626 75.713, 141.596 85.750 C 142.567 95.787, 143.617 103.998, 143.931 103.996 C 144.637 103.990, 154.528 63.155, 153.932 62.702 C 153.694 62.521, 152.150 62.686, 150.500 63.069 M 102.710 65 C 102.998 66.100, 103.578 67, 104 67 C 104.422 67, 105.002 66.100, 105.290 65 C 105.671 63.543, 105.320 63, 104 63 C 102.680 63, 102.329 63.543, 102.710 65" stroke="none" fill="black" fill-rule="evenodd"/>
</svg>