<svg xmlns="http://www.w3.org/2000/svg" width="200" height="200" viewBox="0 0 200 200" version="1.1">
	<path d="M 99 16.052 C 75.625 16.418, 48.963 16.780, 39.750 16.858 C 29.142 16.948, 23 17.373, 23 18.018 C 23 18.774, 35.571 41.796, 41.755 52.366 C 42.036 52.847, 34.415 53.061, 24.631 52.848 C 8.686 52.500, 4.220 52.996, 8.500 54.638 C 11.504 55.791, 9.885 56.492, 5.001 56.153 C 0.676 55.854, 0.002 56.056, 0.016 57.653 C 0.028 59.022, 6.115 62.866, 23.527 72.500 C 36.450 79.649, 46.846 85.949, 46.630 86.500 C 46.414 87.050, 39.173 97.839, 30.538 110.476 L 14.838 133.452 27.645 163.299 C 37.856 187.098, 40.596 192.675, 41.165 190.823 C 41.558 189.545, 43.288 177.700, 45.010 164.500 C 46.732 151.300, 50.827 126.666, 54.110 109.757 C 58.791 85.645, 59.842 78.574, 58.986 76.974 C 58.083 75.286, 58.516 73.912, 61.506 68.990 C 63.492 65.721, 65.436 62.849, 65.826 62.608 C 66.216 62.367, 71.581 62.469, 77.748 62.835 L 88.961 63.500 77.557 77 C 70.423 85.445, 66.501 90.858, 67.083 91.457 C 68.179 92.584, 67.443 93.339, 81.416 76.750 L 92.155 64 100.577 64 C 106.637 64, 109.006 64.351, 109.022 65.250 C 109.034 65.938, 107.160 76.528, 104.857 88.785 C 101.943 104.294, 100.988 111.388, 101.716 112.116 C 102.444 112.844, 107.232 106.606, 117.466 91.600 L 132.171 70.039 135.951 72.214 L 139.731 74.390 137.423 81.445 C 136.153 85.325, 132.135 97.612, 128.495 108.750 L 121.876 129 117.093 129 C 114.463 129, 107.629 129.283, 101.906 129.628 L 91.500 130.256 80.265 121.628 C 74.085 116.883, 68.798 113, 68.515 113 C 68.232 113, 68 113.610, 68 114.355 C 68 115.101, 73.078 119.582, 79.284 124.314 L 90.569 132.918 106.306 132.303 C 115.214 131.955, 122.647 131.213, 123.434 130.594 C 124.198 129.992, 128.289 118.709, 132.524 105.520 C 136.759 92.331, 140.670 80.406, 141.215 79.020 L 142.206 76.500 143.070 78.747 C 143.887 80.873, 142.511 133.493, 141.398 142.711 C 140.900 146.831, 140.557 147.166, 125.364 158.364 C 110.870 169.045, 110.026 169.843, 112.669 170.373 C 120.794 172.001, 166.290 178.043, 166.775 177.558 C 167.086 177.247, 167.707 166.307, 168.154 153.246 C 168.601 140.186, 169.643 111.725, 170.470 90 L 171.972 50.500 168.992 37.044 C 167.354 29.643, 166.347 23.300, 166.756 22.949 C 167.165 22.598, 170.313 21.286, 173.750 20.033 C 177.291 18.743, 180 17.159, 180 16.378 C 180 14.848, 176.829 14.835, 99 16.052 M 78.767 18.993 C 53.615 19.344, 32.820 19.847, 32.557 20.110 C 32.294 20.373, 36.089 26.293, 40.990 33.266 C 46.652 41.320, 49.496 46.193, 48.790 46.630 C 47.707 47.299, 46.229 45.889, 37.122 35.496 L 32.743 30.500 35.260 35 C 36.644 37.475, 39.408 42.474, 41.402 46.109 L 45.028 52.717 56.253 53.427 L 67.478 54.138 69.623 51.449 C 70.802 49.970, 72.748 47.014, 73.947 44.880 L 76.128 41 71.064 41 C 67.229 41, 66 40.636, 66 39.500 C 66 38.623, 66.934 37.984, 68.250 37.961 C 69.487 37.940, 83.554 37.111, 99.509 36.119 L 128.518 34.316 145.340 27.941 C 155.603 24.051, 162.534 20.870, 163.116 19.783 C 164.202 17.754, 166.088 17.772, 78.767 18.993 M 165 19 C 165 20.174, 165.769 20.174, 168.500 19 C 170.272 18.238, 170.187 18.133, 167.750 18.070 C 166.238 18.032, 165 18.450, 165 19 M 156.519 34.548 C 152.746 40.022, 147.261 47.973, 144.329 52.218 C 141.398 56.463, 139 60.329, 139 60.810 C 139 61.291, 140.747 65.918, 142.881 71.092 L 146.763 80.500 145.438 112 C 144.710 129.325, 144.088 144.464, 144.057 145.643 C 144.016 147.196, 140.424 150.457, 131 157.500 C 123.850 162.843, 118 167.526, 118 167.906 C 118 168.286, 127.338 169.853, 138.750 171.387 C 150.162 172.922, 160.666 174.405, 162.091 174.682 L 164.683 175.187 165.344 154.843 C 165.708 143.654, 166.687 115.375, 167.521 92 L 169.036 49.500 166.208 37.048 L 163.379 24.596 156.519 34.548 M 144.500 31.086 C 137.350 33.811, 130.962 36.233, 130.305 36.468 C 129.484 36.761, 130.393 40.072, 133.200 47.016 C 136.464 55.090, 137.534 56.871, 138.492 55.819 C 141.080 52.976, 159.022 26.004, 158.284 26.065 C 157.853 26.101, 151.650 28.360, 144.500 31.086 M 85.571 40.896 C 84.042 41.495, 86.296 43.037, 96.428 48.326 C 108.361 54.555, 109.647 55, 115.691 55 C 120.349 55, 122.052 55.343, 121.759 56.222 C 121.535 56.895, 120.260 57.706, 118.926 58.025 C 116.642 58.570, 116.764 58.759, 121 61.229 C 130.036 66.499, 130.954 66.707, 133.071 63.953 C 134.107 62.604, 134.976 61.050, 135.002 60.500 C 135.027 59.950, 133.350 55.112, 131.276 49.750 L 127.504 40 107.502 40.070 C 96.501 40.109, 86.632 40.481, 85.571 40.896 M 75.330 47.699 C 73.406 50.706, 72.033 53.367, 72.279 53.612 C 72.524 53.857, 78.974 53.933, 86.612 53.779 L 100.500 53.500 89.664 47.866 L 78.827 42.231 75.330 47.699 M 14.572 55.957 C 15.082 56.459, 22.250 57.179, 30.500 57.556 C 40.437 58.011, 45.162 57.907, 44.500 57.249 C 43.950 56.702, 36.782 55.983, 28.572 55.649 C 19.559 55.284, 14.011 55.405, 14.572 55.957 M 48.031 57.538 C 49.661 59.502, 65.090 59.251, 65.753 57.250 C 66.065 56.307, 63.780 56, 56.461 56 C 47.840 56, 46.898 56.172, 48.031 57.538 M 68.459 58.067 C 68.096 58.653, 67.970 59.303, 68.178 59.511 C 69.256 60.589, 94.252 59.923, 100 58.663 C 106.495 57.239, 106.486 57.238, 87.809 57.119 C 75.525 57.041, 68.892 57.366, 68.459 58.067 M 6 59.233 C 6.275 59.508, 11.900 62.772, 18.500 66.488 C 25.100 70.203, 30.837 73.439, 31.250 73.680 C 31.663 73.921, 32 73.939, 32 73.720 C 32 73.502, 28.143 70.266, 23.429 66.531 C 16.274 60.860, 14.086 59.655, 10.179 59.236 C 7.606 58.960, 5.725 58.959, 6 59.233 M 108 60.040 C 104.730 60.609, 104.664 60.690, 107 61.285 C 108.375 61.636, 110.217 62.052, 111.093 62.211 C 112.492 62.465, 112.218 64.944, 108.854 82.500 C 106.746 93.500, 105.139 102.867, 105.282 103.315 C 105.561 104.184, 129.014 70.441, 128.980 69.221 C 128.969 68.825, 125.031 66.459, 120.230 63.965 C 113.028 60.224, 110.888 59.537, 108 60.040 M 20 60.224 C 20.275 60.501, 26.747 65.744, 34.382 71.876 C 49.227 83.800, 49.185 83.786, 52.440 77.741 L 54.211 74.453 50.514 67.726 C 46.996 61.327, 46.639 61, 43.158 60.995 C 41.146 60.992, 35 60.704, 29.500 60.356 C 24 60.007, 19.725 59.948, 20 60.224 M 50.342 61.821 C 50.547 62.194, 51.967 64.672, 53.498 67.328 L 56.281 72.155 59.278 67.548 C 60.926 65.015, 62.100 62.792, 61.887 62.609 C 61.093 61.927, 49.984 61.168, 50.342 61.821 M 135.033 65.938 C 134.122 67.640, 134.399 68.155, 136.931 69.464 L 139.895 70.997 138.849 67.997 C 137.487 64.089, 136.351 63.476, 135.033 65.938 M 45.347 93.276 C 39.763 101.649, 31.323 114.191, 26.591 121.147 L 17.987 133.794 27.588 156.147 C 32.870 168.441, 37.651 179.625, 38.214 181 C 38.778 182.375, 39.396 183.050, 39.589 182.500 C 39.781 181.950, 41.305 171.375, 42.974 159 C 44.644 146.625, 48.480 123.900, 51.500 108.500 C 57.282 79.014, 57.442 77.985, 56.250 78.026 C 55.837 78.040, 50.931 84.903, 45.347 93.276" stroke="none" fill="black" fill-rule="evenodd"/>
</svg>