<svg xmlns="http://www.w3.org/2000/svg" width="200" height="200" viewBox="0 0 200 200" version="1.1">
	<path d="M 21.682 9.705 C 21.318 10.295, 26.698 18.140, 33.637 27.139 C 48.834 46.844, 47.762 45.638, 48.979 44.421 C 49.618 43.782, 48.875 39.360, 46.840 31.693 C 45.125 25.231, 43.897 19.822, 44.111 19.673 C 44.325 19.523, 59.800 19.949, 78.500 20.618 C 97.200 21.288, 116.737 21.873, 121.917 21.918 C 136.549 22.046, 132.229 22.793, 114.750 23.159 C 104.603 23.371, 99 23.862, 99 24.540 C 99 25.119, 95.832 28.428, 91.961 31.895 C 84.647 38.443, 84.673 38.435, 77.862 36.421 C 76.639 36.059, 75.778 37.175, 74.468 40.820 L 72.711 45.704 50.606 49.442 C 38.448 51.497, 26.870 53.591, 24.877 54.094 C 22.309 54.742, 19.012 54.545, 13.550 53.415 C 9.312 52.539, 5.696 51.974, 5.515 52.161 C 4.868 52.825, 32.047 85.506, 33.510 85.823 C 35.505 86.256, 35.517 86.334, 31.398 72.217 C 29.417 65.427, 27.954 59.721, 28.148 59.537 C 28.769 58.947, 60 65.410, 60 66.129 C 60 66.509, 55.682 75.074, 50.403 85.160 C 42.899 99.502, 38.762 109.143, 31.428 129.386 C 26.270 143.623, 22.234 155.570, 22.459 155.933 C 23.047 156.885, 56.959 172.380, 57.405 171.901 C 57.610 171.680, 57.116 155.590, 56.309 136.145 L 54.841 100.789 61.166 83.869 L 67.491 66.949 70.495 67.580 C 72.148 67.927, 73.790 68.501, 74.144 68.855 C 74.498 69.210, 75 80.975, 75.260 95 L 75.732 120.500 67.936 151 C 63.648 167.775, 59.996 182.353, 59.820 183.396 C 58.911 188.782, 63.339 183.840, 79.861 161.028 C 93.562 142.111, 98 135.265, 98 133.050 C 98 125.775, 100.136 130.968, 107.458 156.044 C 114.756 181.040, 115.465 182.926, 117.408 182.493 C 118.559 182.236, 134.125 179.308, 152 175.986 C 169.875 172.664, 185.322 169.610, 186.327 169.199 C 187.896 168.558, 186.807 166.875, 178.653 157.334 L 169.151 146.217 151.826 140.483 C 142.297 137.330, 134.137 134.421, 133.694 134.019 C 133.104 133.484, 173.825 102.979, 183.388 96.792 C 184.160 96.293, 184.170 95.770, 183.423 95.023 C 182.676 94.276, 175.008 96.183, 157.463 101.481 C 143.768 105.617, 132.044 109, 131.411 109 C 130.339 109, 130.004 107.012, 128.467 91.500 C 127.982 86.606, 128.084 86.376, 133.286 80.649 L 138.600 74.799 153.372 77.774 L 168.145 80.749 168.898 78.625 C 169.312 77.456, 172.073 65.591, 175.034 52.258 C 178.635 36.043, 180.085 27.685, 179.413 27.013 C 178.742 26.342, 171.638 33.625, 157.955 49.011 C 146.705 61.662, 137.050 71.848, 136.500 71.647 C 135.950 71.446, 128.102 69.777, 119.060 67.939 C 106.198 65.323, 103.260 64.445, 105.560 63.903 C 107.177 63.522, 116.150 61.784, 125.500 60.041 C 145.936 56.232, 146 56.215, 146 54.516 C 146 53.587, 139.321 51.540, 124.599 47.955 L 103.199 42.744 102.599 39.747 C 102.270 38.099, 102 34.400, 102 31.527 L 102 26.304 124.750 25.641 C 168.273 24.372, 177 23.822, 177 22.352 C 177 21.608, 176.213 20.997, 175.250 20.993 C 169.274 20.971, 52.144 16.964, 41.500 16.418 L 28.500 15.751 25.422 12.192 C 23.578 10.060, 22.079 9.063, 21.682 9.705 M 31.725 20.250 C 41.329 32.631, 45 37.152, 45 36.600 C 45 36.230, 44.045 32.119, 42.877 27.464 L 40.754 19 35.755 19 C 31.905 19, 30.978 19.287, 31.725 20.250 M 93.573 33.916 C 90.106 37.443, 89.069 39.070, 90.073 39.409 C 93.799 40.667, 99.429 41.904, 99.790 41.543 C 100.012 41.321, 99.812 38.387, 99.347 35.023 L 98.500 28.906 93.573 33.916 M 158.076 52.864 L 140.653 72.443 151.576 74.675 C 157.584 75.902, 163.419 76.928, 164.542 76.953 C 166.389 76.996, 167.045 74.955, 171.445 55.487 C 174.119 43.655, 176.125 33.819, 175.903 33.629 C 175.682 33.439, 167.659 42.095, 158.076 52.864 M 76.613 42.407 C 76.280 43.731, 75.714 45.644, 75.354 46.657 C 74.930 47.851, 75.986 47.286, 78.350 45.054 C 82.622 41.021, 82.876 40, 79.608 40 C 77.916 40, 77.040 40.704, 76.613 42.407 M 81.661 45.706 L 77 50.110 77 57.948 C 77 63.411, 77.389 65.935, 78.285 66.279 C 81.535 67.526, 100.070 70.263, 100.738 69.595 C 101.735 68.599, 101.257 49.869, 100.159 46.902 C 99.487 45.084, 97.885 44.220, 92.811 42.939 L 86.322 41.302 81.661 45.706 M 103.632 53.250 C 103.987 57.237, 104.411 60.659, 104.575 60.853 C 104.738 61.047, 112.660 59.689, 122.179 57.835 L 139.486 54.465 121.993 50.219 C 112.372 47.884, 104.159 45.979, 103.743 45.987 C 103.327 45.994, 103.277 49.263, 103.632 53.250 M 48.500 52.545 C 38.050 54.377, 29.275 55.948, 29 56.037 C 28.725 56.125, 34.575 57.437, 42 58.952 C 49.425 60.467, 56.941 62.029, 58.703 62.422 C 61.861 63.128, 61.954 63.040, 65.465 56.069 C 67.423 52.181, 68.682 49.048, 68.263 49.107 C 67.843 49.166, 58.950 50.713, 48.500 52.545 M 71.175 57.250 C 68.454 64.998, 68.454 65, 71.500 65 C 73.929 65, 74 64.800, 74 58 C 74 54.150, 73.858 51, 73.685 51 C 73.512 51, 72.382 53.813, 71.175 57.250 M 13.148 57.765 C 16.350 62.251, 29.395 77.938, 29.684 77.649 C 29.858 77.475, 28.763 73.127, 27.250 67.987 C 24.273 57.868, 24.695 58.283, 15.648 56.591 C 12.005 55.910, 11.869 55.974, 13.148 57.765 M 65.624 61.539 C 64.659 64.053, 64.943 64.702, 66.122 62.675 C 66.706 61.671, 66.973 60.639, 66.715 60.382 C 66.458 60.124, 65.966 60.645, 65.624 61.539 M 53.485 85.231 C 45.852 99.933, 41.350 110.356, 34.372 129.481 C 29.351 143.242, 25.301 154.557, 25.372 154.626 C 25.907 155.151, 54.380 167.952, 54.573 167.754 C 54.709 167.614, 54.200 152.425, 53.440 134 L 52.060 100.500 55.631 91 C 63.731 69.453, 64.916 66, 64.210 66 C 63.803 66, 58.976 74.654, 53.485 85.231 M 103.459 69.067 C 102.420 70.747, 103.323 71.122, 113.203 73.111 C 127.875 76.064, 127 75.689, 127 79.019 C 127 80.659, 127.417 82, 127.927 82 C 128.904 82, 135.163 74.830, 134.641 74.308 C 134.276 73.942, 106.413 68, 105.064 68 C 104.544 68, 103.821 68.480, 103.459 69.067 M 77.808 95.692 L 78.215 122.500 71.107 149.921 C 67.198 165.003, 64 177.555, 64 177.816 C 64 178.780, 92.958 138.391, 94.339 135.500 C 95.128 133.850, 96.050 128.225, 96.389 123 C 96.728 117.775, 97.670 105.850, 98.482 96.500 C 99.294 87.150, 99.968 78.125, 99.979 76.444 L 100 73.388 90.750 71.632 C 85.662 70.667, 80.578 69.653, 79.451 69.380 C 77.417 68.888, 77.405 69.077, 77.808 95.692 M 103 75.431 C 103 76.239, 102.303 84.851, 101.452 94.569 C 100.601 104.287, 100.098 112.431, 100.334 112.668 C 100.571 112.904, 106.218 107.038, 112.882 99.631 C 122.393 89.061, 124.997 85.554, 124.985 83.332 C 124.961 78.884, 123.930 78.142, 115.453 76.480 C 111.079 75.621, 106.487 74.704, 105.250 74.441 C 103.721 74.115, 103 74.432, 103 75.431 M 112.750 103.797 C 105.737 111.627, 100 118.691, 100 119.495 C 100 120.710, 116.910 179.277, 117.356 179.606 C 117.844 179.967, 182.500 167.304, 182.500 166.848 C 182.500 166.539, 179.350 162.421, 175.500 157.698 L 168.500 149.110 148.500 142.430 C 137.500 138.756, 128.140 135.424, 127.700 135.025 C 127.260 134.627, 137.385 126.739, 150.200 117.498 C 175.017 99.601, 176.365 98.577, 174 99.410 C 165.947 102.247, 128.629 112.963, 128.222 112.555 C 127.929 112.262, 127.197 106.969, 126.595 100.791 L 125.500 89.560 112.750 103.797" stroke="none" fill="black" fill-rule="evenodd"/>
</svg>