<svg xmlns="http://www.w3.org/2000/svg" width="200" height="200" viewBox="0 0 200 200" version="1.1">
	<path d="M 73.817 24.223 L 58.134 34.097 46.567 48.522 C 40.205 56.456, 35 63.389, 35 63.928 C 35 64.468, 38.790 74.267, 43.423 85.704 C 51.833 106.469, 51.852 106.502, 55.520 107.547 C 60.671 109.016, 59.374 109.782, 40.307 116.525 L 24.113 122.252 31.108 136.216 L 38.103 150.180 30.045 163.109 C 21.517 176.794, 20.913 178.034, 22.500 178.619 C 23.050 178.821, 36.325 170.042, 52 159.108 C 67.675 148.174, 80.613 139.328, 80.751 139.449 C 80.889 139.570, 79.185 144.595, 76.965 150.616 L 72.928 161.564 80.076 174.532 C 84.008 181.664, 87.310 187.598, 87.413 187.718 C 87.517 187.837, 93.654 178.622, 101.051 167.240 L 114.500 146.545 115 130.280 L 115.500 114.014 128.385 142.757 C 135.472 158.566, 141.590 171.858, 141.980 172.295 C 142.593 172.981, 185.446 160.913, 188.685 159.142 C 189.336 158.785, 180.277 153.564, 168.553 147.539 L 147.236 136.584 163.868 124.142 C 173.016 117.299, 180.695 111.535, 180.933 111.333 C 181.172 111.132, 180.903 110.503, 180.336 109.936 C 179.628 109.228, 172.050 110.776, 156.152 114.875 L 133 120.846 126.587 111.673 C 123.060 106.628, 120.302 102.371, 120.458 102.212 C 120.614 102.054, 129.394 100.398, 139.969 98.531 C 150.544 96.665, 159.380 94.953, 159.606 94.727 C 160.082 94.251, 162.772 32.693, 162.342 32.110 C 162.183 31.896, 153.043 32.925, 142.030 34.397 C 118.609 37.528, 118.052 37.432, 117.901 30.215 C 117.847 27.622, 117.509 23.025, 117.151 20 L 116.500 14.500 112.678 20.750 C 110.575 24.188, 108.602 27, 108.292 27 C 107.982 27, 104.077 24.392, 99.614 21.205 C 95.151 18.018, 91.050 15.171, 90.500 14.879 C 89.950 14.587, 82.443 18.792, 73.817 24.223 M 74.109 27.226 C 59.754 36.306, 59.692 36.362, 49.284 49.415 C 43.545 56.612, 38.628 63.016, 38.357 63.647 C 38.087 64.278, 41.533 73.796, 46.016 84.797 C 54.145 104.746, 54.177 104.802, 57.485 105.188 C 60.636 105.556, 61.014 105.232, 65.020 98.740 C 67.340 94.980, 68.996 91.663, 68.702 91.368 C 68.407 91.073, 66.328 90.585, 64.083 90.284 C 61.483 89.936, 60 89.222, 60 88.319 C 60 87.183, 61.149 87.031, 65.773 87.554 L 71.546 88.207 79.859 74.551 C 88.036 61.119, 88.162 60.814, 87.499 55.996 L 86.826 51.097 90.229 51.650 C 93.617 52.200, 93.661 52.156, 99.566 42.388 C 102.830 36.990, 105.855 32.003, 106.289 31.306 C 106.831 30.434, 104.505 28.152, 98.862 24.019 C 94.343 20.708, 90.163 18.028, 89.573 18.062 C 88.983 18.096, 82.024 22.220, 74.109 27.226 M 112.602 26.074 C 110.738 29.252, 110.738 29.335, 112.602 30.708 C 114.327 31.979, 114.529 31.873, 114.818 29.540 C 114.993 28.128, 114.993 26.042, 114.818 24.905 C 114.539 23.090, 114.268 23.233, 112.602 26.074 M 107.631 34.250 C 106.853 35.487, 103.954 40.190, 101.189 44.700 L 96.161 52.899 103.330 54.453 C 125.041 59.160, 123.772 59.058, 132.812 56.800 C 137.383 55.658, 140.758 54.399, 140.312 54.002 C 139.865 53.605, 135.320 50.243, 130.210 46.531 C 123.119 41.379, 120.335 39.894, 118.445 40.255 C 116.433 40.640, 115.848 40.245, 115.321 38.141 C 114.716 35.731, 111.426 32.109, 109.773 32.033 C 109.373 32.015, 108.409 33.013, 107.631 34.250 M 139.616 37.373 L 124.732 39.500 135.904 47.439 C 143.150 52.589, 146.622 55.625, 145.787 56.078 C 145.079 56.463, 141.912 57.350, 138.750 58.048 C 135.588 58.747, 133 59.654, 133 60.065 C 133 60.476, 135.249 61.122, 137.999 61.500 C 140.748 61.878, 143.208 62.528, 143.465 62.944 C 143.723 63.360, 142.036 65.309, 139.717 67.274 C 137.397 69.239, 128.855 76.530, 120.733 83.476 L 105.967 96.105 97.825 94.914 L 89.683 93.724 77.852 99.573 C 71.346 102.790, 66.355 105.712, 66.761 106.065 C 67.168 106.418, 73.125 107.502, 80 108.473 C 86.875 109.444, 92.876 110.583, 93.336 111.005 C 93.795 111.426, 90.077 122.883, 85.073 136.464 L 75.976 161.158 81.566 171.579 C 84.640 177.310, 87.458 181.985, 87.828 181.967 C 88.197 181.948, 93.900 173.530, 100.500 163.258 L 112.500 144.583 112.144 124.792 C 111.854 108.622, 112.037 105.003, 113.144 105.015 C 113.953 105.024, 120.317 118.025, 128.930 137.265 C 136.866 154.994, 143.410 169.593, 143.471 169.707 C 143.708 170.151, 181.999 158.555, 181.986 158.044 C 181.979 157.745, 173.204 153.034, 162.486 147.575 C 151.769 142.116, 143 137.389, 143 137.070 C 143 136.752, 149.518 131.574, 157.484 125.563 C 165.451 119.553, 171.807 114.474, 171.610 114.277 C 171.413 114.079, 162.318 116.160, 151.400 118.900 C 140.482 121.640, 131.505 123.796, 131.452 123.691 C 131.399 123.586, 127.862 118.401, 123.592 112.170 C 119.321 105.938, 116.050 100.617, 116.321 100.346 C 116.592 100.074, 125.744 98.271, 136.657 96.337 C 147.571 94.404, 156.693 92.632, 156.929 92.399 C 157.165 92.166, 157.701 83.543, 158.121 73.238 C 158.541 62.932, 159.093 50.112, 159.348 44.750 L 159.811 35 157.156 35.123 C 155.695 35.190, 147.802 36.202, 139.616 37.373 M 92.504 58.991 C 91.573 60.792, 91.213 63.002, 91.600 64.544 C 92.340 67.489, 91.680 67.548, 108.125 63.073 C 118.331 60.296, 118.435 60.238, 114.500 59.513 C 112.300 59.107, 107.433 58.151, 103.685 57.388 C 94.527 55.523, 94.280 55.558, 92.504 58.991 M 107.500 66.064 C 99.250 68.199, 92.006 69.958, 91.403 69.973 C 90.799 69.988, 89.872 69.027, 89.341 67.838 C 88.479 65.907, 87.625 66.910, 81.329 77.238 L 74.282 88.799 81.662 89.896 L 89.042 90.994 101.771 84.549 C 108.772 81.004, 114.251 78.081, 113.946 78.052 C 113.642 78.023, 108.716 79.575, 103 81.500 C 92.322 85.096, 89 85.703, 89 84.057 C 89 83.538, 99.012 79.839, 111.250 75.837 C 131.520 69.209, 137.881 66.602, 137.969 64.888 C 138.006 64.152, 127.528 61.962, 124.583 62.091 C 123.437 62.141, 115.750 63.929, 107.500 66.064 M 108.500 84.244 L 94.500 91.384 99.782 92.273 L 105.063 93.163 113.548 85.959 C 120.988 79.643, 123.868 76.873, 122.809 77.052 C 122.639 77.081, 116.200 80.318, 108.500 84.244 M 70.365 95.214 C 65.976 102.166, 66.295 102.335, 75.334 97.852 C 80.059 95.509, 83.774 93.440, 83.589 93.255 C 83.404 93.071, 80.912 92.549, 78.052 92.097 L 72.851 91.275 70.365 95.214 M 60.807 110.843 C 60.043 111.919, 53.310 114.840, 44.615 117.867 C 36.428 120.717, 29.353 123.282, 28.891 123.567 C 28.430 123.852, 31.019 130.038, 34.645 137.313 L 41.237 150.541 34.089 161.860 C 28.266 171.079, 27.456 172.821, 29.720 171.250 C 31.249 170.189, 42.737 162.233, 55.250 153.569 C 67.763 144.905, 78 137.626, 78 137.395 C 78 135.950, 63.811 109, 63.050 109 C 62.535 109, 61.525 109.829, 60.807 110.843 M 68.052 110.750 C 68.081 111.162, 71.146 117.510, 74.862 124.856 L 81.620 138.212 86.164 125.624 L 90.707 113.036 87.604 112.534 C 85.897 112.258, 81.830 111.575, 78.566 111.016 C 71.525 109.810, 67.981 109.720, 68.052 110.750" stroke="none" fill="black" fill-rule="evenodd"/>
</svg>