<svg xmlns="http://www.w3.org/2000/svg" width="200" height="200" viewBox="0 0 200 200" version="1.1">
	<path d="M 26 16.236 C 26 17.094, 29.925 18.875, 36.502 21.001 C 42.279 22.868, 46.666 24.720, 46.252 25.116 C 45.839 25.513, 42.188 27.625, 38.140 29.810 L 30.780 33.783 37.640 37.766 C 41.413 39.956, 47.087 43.198, 50.250 44.969 C 53.412 46.741, 56 48.414, 56 48.686 C 56 48.958, 51.941 54.962, 46.980 62.028 L 37.960 74.876 25.998 67.188 C 19.419 62.959, 13.758 58.667, 13.419 57.649 C 13.007 56.416, 12.468 56.132, 11.801 56.799 C 9.642 58.958, 12.537 61.824, 24.883 69.750 C 31.951 74.287, 37.992 78, 38.307 78 C 38.623 78, 42.803 72.487, 47.598 65.750 C 52.393 59.013, 56.676 53.091, 57.117 52.590 C 58.062 51.519, 48.514 89.341, 46.916 93 C 46.315 94.375, 38.368 107.641, 29.256 122.479 L 12.688 149.459 32.594 168.703 C 43.542 179.288, 52.882 187.959, 53.348 187.974 C 53.815 187.988, 53.938 185.412, 53.622 182.250 C 53.307 179.088, 52.528 162.957, 51.891 146.405 L 50.734 116.310 60.367 85.223 C 65.665 68.125, 70 53.909, 70 53.632 C 70 53.355, 68.200 52.116, 66 50.880 C 63.132 49.268, 62 47.976, 62 46.316 C 62 43.917, 59.486 43.041, 58.770 45.190 C 58.519 45.944, 54.459 44.202, 47.703 40.440 C 41.835 37.173, 37.034 34.275, 37.034 34 C 37.034 33.237, 50.752 26.001, 52.216 25.992 C 54.321 25.978, 95 38.417, 95 39.075 C 95 39.408, 93.218 40.268, 91.039 40.987 C 86.459 42.499, 87.238 39.325, 83.545 71.500 C 81.560 88.796, 79.712 98.584, 73.067 126.989 C 68.630 145.958, 65 161.971, 65 162.573 C 65 163.858, 82.798 172.536, 83.661 171.672 C 83.984 171.350, 88.468 156.329, 93.626 138.293 C 98.783 120.257, 103.134 105.106, 103.294 104.624 C 103.453 104.143, 108.581 111.515, 114.688 121.008 L 125.792 138.266 126.467 151.383 C 127.185 165.324, 127.599 168, 129.035 168 C 129.530 168, 130.062 162.937, 130.217 156.750 L 130.500 145.500 147 171.165 C 156.075 185.281, 163.774 196.531, 164.109 196.165 C 164.702 195.517, 186 141.357, 186 140.497 C 186 140.259, 182.063 138.860, 177.250 137.388 C 172.438 135.916, 168.111 134.365, 167.636 133.942 C 167.161 133.519, 162.360 123.346, 156.968 111.336 C 146.265 87.499, 146.833 88.165, 139.587 90.953 C 135.285 92.609, 137.655 94.664, 142.086 93.120 C 143.867 92.499, 145.392 92.106, 145.474 92.245 C 145.557 92.385, 149.815 101.950, 154.937 113.500 C 160.059 125.050, 164.756 135.009, 165.375 135.631 C 165.994 136.254, 169.650 137.772, 173.500 139.005 C 177.350 140.238, 180.899 141.613, 181.386 142.060 C 181.886 142.519, 178.186 153.325, 172.886 166.882 C 167.724 180.087, 163.193 190.579, 162.818 190.196 C 162.444 189.813, 154.915 178.334, 146.088 164.687 L 130.039 139.874 129.769 118.187 C 129.540 99.696, 129.279 96.500, 128 96.500 C 125.753 96.500, 125.032 94.964, 125.015 90.135 L 125 85.770 143.250 86.407 C 153.287 86.757, 164.980 87.305, 169.233 87.625 L 176.966 88.205 171.125 75.853 C 167.912 69.059, 163.661 60.281, 161.678 56.347 L 158.073 49.194 141.408 56.097 C 132.242 59.894, 124.296 63, 123.749 63 C 121.930 63, 124.974 60.265, 136.305 51.718 C 146.032 44.381, 149.041 42.711, 159.250 38.984 C 165.712 36.626, 171 34.391, 171 34.018 C 171 33.646, 159.637 30.727, 145.750 27.532 C 131.863 24.337, 119.867 21.485, 119.094 21.195 C 117.922 20.754, 117.796 22.152, 118.336 29.583 C 118.692 34.487, 119.273 43.450, 119.626 49.500 L 120.268 60.500 114.059 65.375 C 106.726 71.133, 107.117 73.107, 114.976 70.009 C 117.882 68.864, 120.368 68.056, 120.500 68.213 C 120.632 68.371, 121.055 71.804, 121.439 75.842 L 122.139 83.184 109.914 82.454 L 97.689 81.724 98.344 87.112 C 100.574 105.454, 100.923 102.965, 91.489 136 C 86.699 152.775, 82.438 166.869, 82.020 167.319 C 81.222 168.182, 68 162.628, 68 161.430 C 68 161.048, 71.593 145.382, 75.984 126.618 C 82.844 97.304, 84.358 89.130, 86.734 68.564 L 89.500 44.629 96.786 41.683 C 100.793 40.064, 103.940 38.606, 103.779 38.445 C 103.560 38.227, 58.313 24.504, 27.750 15.387 C 26.681 15.068, 26 15.398, 26 16.236 M 121.543 37.250 C 121.939 43.987, 122.541 51.438, 122.881 53.806 L 123.500 58.112 134.328 49.750 C 142.998 43.054, 146.974 40.713, 154.273 38.008 C 159.287 36.150, 162.965 34.495, 162.445 34.330 C 160.179 33.611, 122.656 25, 121.788 25 C 121.183 25, 121.092 29.566, 121.543 37.250 M 60.514 52.215 C 60.267 52.922, 57.804 62.580, 55.041 73.678 L 50.018 93.855 33.088 121.416 L 16.157 148.976 33.251 165.482 C 42.653 174.561, 50.438 181.878, 50.552 181.744 C 50.665 181.610, 50.108 166.791, 49.313 148.812 L 47.868 116.125 57.416 85.378 C 62.668 68.467, 66.860 54.578, 66.732 54.513 C 66.605 54.448, 65.254 53.615, 63.732 52.662 C 61.601 51.329, 60.860 51.226, 60.514 52.215 M 139.652 59.742 L 123.803 66.333 124.155 74.087 C 124.349 78.352, 124.753 82.086, 125.052 82.385 C 125.629 82.962, 171.177 85.156, 171.701 84.632 C 172.245 84.088, 157.017 52.997, 156.245 53.075 C 155.835 53.117, 148.368 56.116, 139.652 59.742 M 101.498 91.111 C 101.898 94.625, 102.363 97.651, 102.532 97.836 C 102.700 98.021, 107.409 97.848, 112.995 97.452 L 123.151 96.732 122.462 91.616 C 122.084 88.802, 121.607 86.319, 121.402 86.099 C 121.198 85.878, 116.472 85.478, 110.901 85.209 L 100.771 84.722 101.498 91.111 M 126.310 104.500 C 126.315 107.800, 126.502 109.029, 126.725 107.232 C 126.947 105.435, 126.943 102.735, 126.715 101.232 C 126.486 99.729, 126.304 101.200, 126.310 104.500 M 106.893 100.820 C 105.579 101.376, 106.967 104.101, 114.525 115.798 C 119.605 123.662, 124.095 130.412, 124.501 130.798 C 125.206 131.469, 124.600 117.925, 123.380 105.750 L 122.804 100 115.652 100.070 C 111.718 100.109, 107.777 100.446, 106.893 100.820" stroke="none" fill="black" fill-rule="evenodd"/>
</svg>