<svg xmlns="http://www.w3.org/2000/svg" width="200" height="200" viewBox="0 0 200 200" version="1.1">
	<path d="M 25.653 15.681 C 24.306 17.027, 25.199 17.873, 32.950 22.593 C 37.322 25.256, 40.766 27.567, 40.604 27.730 C 40.441 27.892, 35.981 26.459, 30.693 24.545 C 24.562 22.325, 20.847 21.439, 20.439 22.099 C 20.087 22.668, 19.984 23.318, 20.210 23.543 C 20.588 23.921, 56.925 37.244, 72 42.532 C 75.575 43.786, 79.710 45.283, 81.188 45.858 L 83.877 46.904 82.287 50.952 L 80.697 55 69.965 55 C 60.330 55, 59.183 55.191, 58.745 56.867 C 58.327 58.466, 56.554 58.906, 46.378 59.935 C 32.380 61.352, 10 67.395, 10 69.759 C 10 71.007, 13.203 71.167, 32 70.854 C 44.100 70.652, 53.995 70.715, 53.990 70.994 C 53.984 71.272, 47.637 83.650, 39.886 98.500 L 25.793 125.500 27.918 154 C 29.086 169.675, 30.033 183.063, 30.021 183.750 C 30.010 184.438, 30.650 185, 31.444 185 C 32.446 185, 35.062 178.193, 39.997 162.750 C 43.907 150.512, 47.729 138.590, 48.491 136.255 C 49.252 133.921, 51.985 118.396, 54.565 101.755 C 57.144 85.115, 59.579 71.140, 59.976 70.701 C 60.373 70.261, 63.668 70.036, 67.299 70.201 L 73.899 70.500 65.829 89.500 L 57.759 108.500 62.002 125.810 L 66.245 143.121 78.873 164.553 C 85.818 176.341, 91.771 185.989, 92.103 185.993 C 92.435 185.997, 93.013 166.762, 93.388 143.250 L 94.068 100.500 97.203 87 C 98.927 79.575, 100.432 73.367, 100.547 73.205 C 100.926 72.672, 110.023 75.228, 110.501 76.001 C 110.757 76.416, 107.320 87.144, 102.863 99.842 C 98.405 112.539, 94.993 123.540, 95.281 124.289 C 95.568 125.037, 102.567 130.538, 110.833 136.512 L 125.863 147.374 123.682 149.974 C 122.482 151.404, 115.926 159.209, 109.113 167.317 C 102.301 175.426, 96.923 182.256, 97.163 182.496 C 97.732 183.066, 178.875 175.459, 179.562 174.771 C 179.852 174.482, 175.559 167.176, 170.023 158.536 L 159.958 142.828 170.914 110.664 C 176.940 92.974, 182.136 77.807, 182.462 76.960 C 182.930 75.739, 178.327 73.533, 160.276 66.326 C 147.749 61.324, 134.441 56.189, 130.702 54.914 C 124.149 52.680, 123.914 52.486, 124.202 49.548 L 124.500 46.500 156.668 43.999 C 174.360 42.623, 189.180 41.153, 189.601 40.732 C 190.022 40.311, 189.947 39.578, 189.433 39.104 C 188.920 38.630, 173.875 34.337, 156 29.566 C 138.125 24.794, 122.734 20.666, 121.797 20.393 C 120.235 19.936, 120.144 20.906, 120.703 32.023 L 121.313 44.152 114.406 43.522 C 110.608 43.176, 103.675 42.438, 99 41.883 C 94.325 41.327, 88.773 40.894, 86.663 40.920 C 84.552 40.946, 79.994 40.566, 76.533 40.076 C 70.462 39.216, 61.156 34.642, 31.403 17.897 C 28.599 16.319, 26.012 15.322, 25.653 15.681 M 123.332 33.650 C 123.681 38.957, 124.086 43.404, 124.233 43.531 C 124.840 44.058, 178 39.554, 178 38.975 C 178 38.391, 125.599 23.951, 123.599 23.985 C 123.083 23.993, 122.969 28.126, 123.332 33.650 M 88 44.761 C 88 45.180, 91.938 46.868, 96.750 48.511 C 103.663 50.872, 105.438 51.867, 105.206 53.250 C 104.946 54.798, 105.858 55, 113.123 55 C 117.639 55, 121.146 54.832, 120.917 54.628 C 120.008 53.815, 91.073 44, 89.588 44 C 88.714 44, 88 44.343, 88 44.761 M 107 46.408 C 107 46.858, 118.903 51, 120.194 51 C 122.097 51, 120.837 47.190, 118.750 46.630 C 116.220 45.952, 107 45.778, 107 46.408 M 85.161 50.547 C 84.522 51.948, 84 53.523, 84 54.047 C 84 54.580, 87.963 55, 93 55 C 97.950 55, 102 54.610, 102 54.134 C 102 53.402, 88.673 47.981, 86.911 47.995 C 86.586 47.998, 85.799 49.146, 85.161 50.547 M 124.215 66.250 L 124.500 76.500 135.500 79.667 C 141.550 81.408, 148.412 83.327, 150.750 83.931 C 153.350 84.603, 155 85.606, 155 86.514 C 155 87.331, 154.698 88, 154.330 88 C 153.961 88, 147.211 89.428, 139.330 91.173 L 125 94.347 125 105.673 C 125 111.903, 125.321 117, 125.714 117 C 126.107 117, 129.976 115.154, 134.312 112.898 C 139.456 110.222, 142.537 109.137, 143.176 109.776 C 143.814 110.414, 140.565 112.687, 133.827 116.314 L 123.500 121.874 122.868 119.187 C 122.521 117.709, 122.183 108.048, 122.118 97.719 C 121.991 77.546, 122.156 78.137, 116.531 77.713 C 113.706 77.501, 113.663 77.589, 105.900 99.500 C 101.613 111.600, 98.081 122.027, 98.053 122.670 C 98.024 123.314, 104.975 128.906, 113.500 135.096 C 122.025 141.286, 129 146.694, 129 147.113 C 129 147.532, 123.098 154.901, 115.883 163.488 C 108.669 172.075, 102.932 179.223, 103.133 179.374 C 103.335 179.525, 118.575 178.182, 137 176.391 C 155.425 174.599, 171.727 173.103, 173.227 173.067 C 175.909 173.001, 175.796 172.748, 166.491 158.038 L 157.028 143.076 168.113 110.437 C 174.209 92.485, 178.816 77.438, 178.349 76.999 C 176.513 75.272, 127.293 56.001, 124.715 56 C 124.283 56, 124.058 60.612, 124.215 66.250 M 62.704 57.647 C 63.572 58, 63.311 59.366, 61.765 62.546 C 60.587 64.972, 59.831 67.164, 60.085 67.418 C 60.339 67.672, 63.921 67.625, 68.045 67.313 L 75.544 66.746 77.252 62.745 C 78.192 60.545, 78.718 58.352, 78.421 57.872 C 78.125 57.393, 74.196 57.036, 69.691 57.079 C 65.186 57.122, 62.042 57.378, 62.704 57.647 M 80.685 61.534 C 79.758 63.478, 79 65.445, 79 65.905 C 79 66.366, 82.487 66.990, 86.750 67.292 C 91.013 67.595, 95.450 68.139, 96.611 68.501 C 98.454 69.077, 98.867 68.586, 99.861 64.637 C 100.487 62.150, 101 59.639, 101 59.057 C 101 58.390, 97.564 58, 91.685 58 L 82.370 58 80.685 61.534 M 102.736 63.995 L 101.226 69.990 106.309 71.499 C 109.104 72.329, 111.743 72.657, 112.173 72.227 C 112.993 71.407, 117 60.298, 117 58.843 C 117 58.380, 114.130 58, 110.623 58 L 104.246 58 102.736 63.995 M 117.730 65.672 C 114.805 73.805, 115.035 74.951, 119.600 74.985 C 121.590 74.999, 121.677 74.595, 121.272 67.250 C 121.037 62.987, 120.766 59.159, 120.670 58.742 C 120.573 58.325, 119.250 61.443, 117.730 65.672 M 40 63.543 C 34.775 64.265, 28.475 65.533, 26 66.361 C 21.635 67.821, 22.016 67.868, 38.715 67.933 C 54.749 67.995, 56.001 67.867, 56.965 66.066 C 57.534 65.002, 58 63.652, 58 63.066 C 58 61.711, 52.141 61.866, 40 63.543 M 76.078 72.250 C 75.598 73.487, 72.009 82.028, 68.103 91.229 C 64.196 100.430, 61.006 108.530, 61.013 109.229 C 61.021 109.928, 62.737 117.522, 64.828 126.105 L 68.629 141.710 79.065 159.428 L 89.500 177.146 90.118 161.823 C 90.457 153.395, 90.795 136.139, 90.868 123.475 C 90.994 101.489, 91.137 99.887, 94.029 87.975 C 95.696 81.114, 97.292 74.740, 97.578 73.810 C 98.273 71.546, 92.692 70.013, 83.725 70.006 C 77.622 70.001, 76.864 70.223, 76.078 72.250 M 41.958 100.581 L 28.718 126.298 29.347 135.899 C 31.050 161.867, 32.399 176.035, 33.055 174.831 C 33.454 174.099, 36.768 164.104, 40.418 152.619 C 46.428 133.715, 47.476 129.083, 51.499 103.674 C 53.943 88.238, 55.775 75.441, 55.570 75.237 C 55.366 75.032, 49.240 86.437, 41.958 100.581 M 124.775 85.250 C 125.040 88.138, 125.412 90.675, 125.601 90.889 C 125.790 91.103, 130.887 90.220, 136.926 88.926 C 142.965 87.632, 147.763 86.430, 147.587 86.254 C 147.096 85.763, 126.651 80, 125.399 80 C 124.671 80, 124.458 81.793, 124.775 85.250" stroke="none" fill="black" fill-rule="evenodd"/>
</svg>