<svg xmlns="http://www.w3.org/2000/svg" width="200" height="200" viewBox="0 0 200 200" version="1.1">
	<path d="M 125.038 13.159 C 121.964 15.606, 119.544 16.897, 119.157 16.296 C 118.569 15.381, 44.079 11.931, 26.003 11.982 L 19.506 12 24.397 15.477 C 27.087 17.389, 29.560 19.249, 29.894 19.609 C 30.227 19.970, 27.439 20.030, 23.698 19.743 C 12.057 18.851, 15.068 21.311, 39.271 32.465 L 61.026 42.491 52.763 45.191 C 48.218 46.676, 40.504 49.085, 35.621 50.545 L 26.742 53.200 27.466 70.850 C 27.865 80.557, 28.361 88.676, 28.570 88.891 C 28.893 89.225, 34.548 85.155, 51.842 72.137 L 55.185 69.622 53.734 73.061 C 45.327 92.993, 42.160 99.004, 29.338 119.359 C 21.407 131.951, 15.049 142.571, 15.209 142.960 C 16.146 145.237, 51.518 191.946, 51.758 191.225 C 51.919 190.743, 51.646 177.332, 51.151 161.424 L 50.251 132.500 56.107 100.619 C 62.296 66.924, 63.750 62.359, 69.489 58.599 C 72.009 56.948, 72.049 56.960, 71.516 59.207 C 69.873 66.135, 65.217 90.548, 65.487 90.819 C 65.662 90.995, 73.949 85.506, 83.902 78.622 C 93.856 71.738, 102 66.324, 102 66.591 C 102 66.858, 97.084 73.439, 91.076 81.217 L 80.152 95.358 82.489 101.568 L 84.827 107.779 75.414 139.502 C 70.236 156.949, 66 171.624, 66 172.112 C 66 172.601, 70.393 173, 75.763 173 L 85.526 173 101.013 141.941 C 111.143 121.626, 116.588 111.680, 116.755 113.191 C 116.895 114.461, 117.378 120.459, 117.828 126.520 L 118.647 137.540 133.028 165.206 L 147.409 192.872 169.955 169.796 C 189.934 149.347, 196.287 141.623, 191.838 143.190 C 168.765 151.316, 159.743 154.126, 159.086 153.393 C 157.738 151.891, 147.868 106.729, 148.711 105.924 C 149.145 105.509, 156.700 101.240, 165.500 96.439 C 174.300 91.637, 182.091 87.167, 182.813 86.506 C 183.842 85.563, 179.418 85.028, 162.313 84.028 C 150.316 83.327, 137.655 82.471, 134.178 82.127 L 127.856 81.500 151.417 65.500 C 164.375 56.700, 174.982 48.938, 174.989 48.250 C 175.003 46.661, 174.229 46.676, 158.698 48.574 C 151.613 49.440, 145.693 50.003, 145.544 49.824 C 145.395 49.646, 142.250 40.388, 138.554 29.250 C 134.858 18.113, 131.480 9, 131.047 9 C 130.615 9, 127.911 10.872, 125.038 13.159 M 120.500 19.909 L 111.500 26.716 105.500 42.349 C 102.200 50.947, 98.938 57.985, 98.250 57.991 C 96.458 58.004, 96.518 57.774, 101.916 44 C 104.610 37.125, 106.662 31.343, 106.475 31.152 C 106.289 30.960, 99.184 36.083, 90.686 42.535 L 75.235 54.267 72.210 69.383 C 70.547 77.697, 69.323 84.642, 69.491 84.814 C 69.658 84.987, 78.668 78.986, 89.512 71.479 C 102.283 62.637, 109.571 58.171, 110.201 58.801 C 110.831 59.431, 106.221 66.118, 97.114 77.784 L 83.054 95.794 85.402 101.565 L 87.751 107.337 85.865 113.918 C 84.827 117.538, 80.694 131.525, 76.680 145 L 69.381 169.500 76.440 170.110 C 80.323 170.446, 83.604 170.642, 83.732 170.545 C 83.859 170.449, 91.663 154.729, 101.074 135.611 C 110.486 116.494, 118.327 100.998, 118.499 101.176 C 118.672 101.354, 119.360 109.375, 120.029 119 L 121.246 136.500 134.204 161.500 C 141.331 175.250, 147.485 186.837, 147.879 187.248 C 148.274 187.660, 157.273 178.997, 167.877 167.998 C 178.482 156.999, 186.993 148, 186.792 148 C 186.590 148, 179.812 150.215, 171.730 152.923 L 157.036 157.846 156.065 154.173 C 154.493 148.228, 144.999 106.339, 145.006 105.379 C 145.010 104.895, 151.540 100.928, 159.518 96.561 C 167.495 92.195, 173.680 88.316, 173.261 87.942 C 172.843 87.568, 162.150 86.703, 149.500 86.022 C 136.850 85.340, 125.073 84.493, 123.329 84.141 C 120.292 83.527, 121.187 82.801, 144.456 67 C 157.821 57.925, 168.690 50.417, 168.609 50.315 C 168.529 50.213, 163.108 50.789, 156.563 51.596 C 150.018 52.403, 144.361 52.712, 143.991 52.282 C 143.621 51.852, 140.483 43.175, 137.018 33 C 133.552 22.825, 130.443 14.185, 130.108 13.801 C 129.774 13.416, 125.450 16.164, 120.500 19.909 M 31 16.977 C 35.582 20.520, 37.364 20.829, 61.730 22.308 L 85.960 23.778 96.730 21.024 C 104.649 18.998, 106.838 18.121, 105 17.709 C 102.632 17.179, 42.575 14.924, 33 15.006 L 28.500 15.044 31 16.977 M 106.321 21.346 C 101.822 22.531, 97.810 23.837, 97.404 24.250 C 96.999 24.663, 99.554 24.987, 103.083 24.972 C 108.628 24.948, 110.034 24.541, 113.428 21.972 C 118.003 18.511, 117.314 18.450, 106.321 21.346 M 31 25.614 C 44.817 32.133, 51.421 35.036, 50.500 34.185 C 49.950 33.678, 46.287 30.953, 42.360 28.131 C 36.099 23.632, 34.622 23.001, 30.360 23.010 L 25.500 23.020 31 25.614 M 42.550 24.878 C 43.072 25.360, 48.388 29.210, 54.361 33.433 C 63.673 40.015, 65.636 41.019, 68.117 40.474 C 71.448 39.743, 71.522 39.348, 66.066 51.410 C 61.316 61.911, 62.958 61.572, 69.336 50.734 C 73.679 43.355, 75.363 39.323, 76.418 33.776 C 77.179 29.774, 77.718 26.408, 77.614 26.297 C 77.343 26.002, 49.137 24.022, 45.050 24.010 C 43.016 24.004, 41.990 24.360, 42.550 24.878 M 81.750 27.689 C 80.723 27.958, 80.033 29.046, 80.079 30.323 C 80.122 31.520, 80.385 31.938, 80.662 31.250 C 81.174 29.982, 84 29.465, 84 30.639 C 84 30.991, 82.651 33.471, 81.003 36.150 C 78.523 40.179, 75.522 48.855, 76.328 49.661 C 76.447 49.780, 82.928 45.067, 90.730 39.189 C 102.927 29.999, 104.606 28.409, 102.708 27.850 C 100.207 27.113, 84.418 26.992, 81.750 27.689 M 46.949 49.820 L 29.399 55.308 29.800 64.404 C 30.021 69.407, 30.494 75.907, 30.851 78.848 L 31.500 84.196 44.628 74.138 C 51.848 68.605, 57.991 63.499, 58.279 62.790 C 58.567 62.080, 60.400 57.800, 62.351 53.278 C 64.303 48.756, 65.585 44.893, 65.200 44.695 C 64.815 44.496, 56.602 46.802, 46.949 49.820 M 71.667 51.667 C 71.300 52.033, 71 52.798, 71 53.367 C 71 53.993, 71.466 53.934, 72.183 53.217 C 72.834 52.566, 73.134 51.801, 72.850 51.517 C 72.566 51.233, 72.033 51.300, 71.667 51.667 M 52.611 82.784 C 48.334 92.917, 43.144 102.375, 32.744 118.990 C 25.002 131.359, 18.667 141.960, 18.667 142.546 C 18.667 143.506, 44.321 178.417, 47.634 181.966 C 48.793 183.207, 48.910 179.309, 48.399 156.466 L 47.795 129.500 53.390 99.576 C 56.468 83.118, 58.854 69.521, 58.693 69.360 C 58.533 69.199, 55.796 75.240, 52.611 82.784" stroke="none" fill="black" fill-rule="evenodd"/>
</svg>