<svg xmlns="http://www.w3.org/2000/svg" width="200" height="200" viewBox="0 0 200 200" version="1.1">
	<path d="M 33.750 10.749 C 6.597 11.063, 4.595 11.595, 14 16 C 16.750 17.288, 19 18.823, 19 19.410 C 19 19.998, 26.533 28.021, 35.739 37.239 C 54.469 55.994, 54.324 55.016, 38 52.500 C 25.388 50.556, 26 50.454, 26 54.500 C 26 56.425, 25.663 57.992, 25.250 57.983 C 24.837 57.973, 21.125 57.081, 17 56 C 12.875 54.919, 8.972 54.027, 8.327 54.017 C 7.266 54.002, 27.540 89.940, 29.953 92.353 C 32.075 94.475, 32.287 91.559, 31.031 77.469 C 30.319 69.473, 29.908 62.758, 30.119 62.548 C 30.610 62.056, 52.750 67.417, 53.555 68.222 C 53.888 68.555, 48.979 81.153, 42.645 96.219 C 29.874 126.598, 30.060 126.086, 31.598 126.658 C 32.230 126.892, 37.745 114.919, 44.598 98.437 C 55.453 72.326, 57.915 67.581, 59.685 69.351 C 60.014 69.680, 57.308 85.373, 53.672 104.225 C 50.036 123.076, 45.450 148.160, 43.480 159.967 C 41.511 171.774, 39.769 181.565, 39.609 181.724 C 39.450 181.883, 35.372 168.398, 30.547 151.757 C 25.722 135.115, 21.405 120.825, 20.954 120 C 20.236 118.686, 20.058 118.698, 19.520 120.094 C 19.059 121.289, 35.330 180.142, 38.550 188.928 C 40.010 192.912, 42.062 185.480, 45.986 162 C 50.103 137.358, 62.627 71.040, 63.288 70.379 C 63.466 70.200, 65.275 70.513, 67.306 71.074 L 71 72.094 70.990 101.797 C 70.985 118.134, 70.320 142.048, 69.514 154.940 C 68.707 167.832, 68.202 178.536, 68.392 178.725 C 68.581 178.914, 77.412 169.829, 88.016 158.535 C 98.620 147.241, 107.476 138, 107.696 138 C 107.916 138, 101.946 149.962, 94.430 164.582 C 78.725 195.129, 78.146 198.162, 90.263 186.399 C 105.765 171.349, 133.750 145, 134.232 145 C 134.511 145, 141.790 153.325, 150.406 163.500 C 159.023 173.675, 166.731 182, 167.536 182 C 168.341 182, 169 181.858, 169 181.684 C 169 181.510, 166.975 174.452, 164.500 166 C 162.025 157.548, 160 149.995, 160 149.216 C 160 148.438, 164.510 141.691, 170.023 134.223 C 175.536 126.756, 179.698 120.319, 179.273 119.918 C 178.848 119.518, 174 117.807, 168.500 116.117 C 160.702 113.720, 156.358 111.607, 148.772 106.522 C 143.422 102.935, 138.612 100, 138.084 100 C 137.556 100, 130.481 102.460, 122.362 105.467 C 114.244 108.474, 107.458 110.792, 107.283 110.617 C 107.108 110.442, 113.415 106.277, 121.298 101.363 C 130.577 95.577, 146.077 87.512, 165.257 78.488 C 181.551 70.821, 194.726 64.393, 194.535 64.201 C 194.344 64.010, 183.949 62.316, 171.436 60.436 C 158.923 58.556, 148.576 56.902, 148.443 56.759 C 148.309 56.617, 152.125 49.075, 156.922 40 C 161.719 30.925, 165.346 23.374, 164.981 23.220 C 164.404 22.976, 122.305 42.605, 121.013 43.720 C 120.745 43.952, 122.045 46.985, 123.902 50.460 C 127.249 56.724, 127.323 56.785, 132.389 57.425 C 135.200 57.779, 138.916 58.320, 140.646 58.627 L 143.792 59.184 137.235 71.842 C 133.628 78.804, 130.540 84.672, 130.373 84.883 C 130.205 85.093, 125.215 83.674, 119.284 81.728 C 113.353 79.783, 100.513 76.300, 90.750 73.989 L 73 69.786 73 65.605 L 73 61.424 90.964 46.962 L 108.927 32.500 136.964 22.550 C 154.205 16.432, 165 12.100, 165 11.300 C 165 10.024, 114.823 9.813, 33.750 10.749 M 19.777 13.868 C 17.451 14.408, 19.907 15.806, 36.586 23.441 C 55.541 32.118, 57.888 33.446, 56.579 34.754 C 56.044 35.289, 50.665 33.251, 29.500 24.497 C 26.025 23.060, 27.598 24.956, 41.500 38.954 C 50.300 47.815, 58.539 55.331, 59.810 55.656 C 61.139 55.996, 61.911 56.790, 61.628 57.526 C 61.358 58.230, 61.767 59.637, 62.537 60.653 C 63.307 61.669, 63.951 63.737, 63.968 65.250 C 63.986 66.763, 64.563 68.006, 65.250 68.014 C 65.938 68.021, 67.513 68.299, 68.750 68.630 C 70.856 69.195, 71.001 68.923, 71.015 64.367 L 71.031 59.500 89.265 44.842 L 107.500 30.184 130.500 21.999 C 143.150 17.497, 153.687 13.631, 153.917 13.407 C 154.607 12.733, 22.717 13.186, 19.777 13.868 M 152.500 31.551 C 148.650 33.421, 140.679 37.265, 134.787 40.092 L 124.074 45.232 126.287 49.181 C 129.098 54.198, 130.061 54.694, 138.531 55.494 L 145.500 56.151 152.817 42.076 C 156.841 34.334, 159.991 28.034, 159.817 28.075 C 159.643 28.116, 156.350 29.680, 152.500 31.551 M 29 56.436 C 29 58.373, 29.641 59.108, 31.750 59.590 C 33.263 59.935, 38.857 61.293, 44.181 62.609 C 49.506 63.924, 54.271 65, 54.771 65 C 56.108 65, 58.232 59.832, 57.284 58.884 C 56.838 58.438, 51.754 57.387, 45.987 56.549 C 40.219 55.711, 34.038 54.774, 32.250 54.467 C 29.294 53.960, 29 54.138, 29 56.436 M 13.291 58.750 C 18.196 67.746, 28.389 84.945, 28.656 84.677 C 28.854 84.479, 28.571 80.083, 28.026 74.908 C 27.481 69.734, 27.027 64.542, 27.017 63.372 C 27.003 61.592, 25.943 60.978, 20.544 59.622 C 13.190 57.774, 12.729 57.719, 13.291 58.750 M 139.574 73.250 C 135.788 80.537, 132.298 87.012, 131.816 87.638 C 131.183 88.461, 128.805 87.970, 123.221 85.861 C 116.760 83.422, 76.799 73, 73.906 73 C 73.382 73, 72.973 88.696, 72.936 110.250 C 72.901 130.738, 72.502 152.900, 72.049 159.500 C 71.597 166.100, 71.326 171.613, 71.448 171.752 C 71.570 171.890, 80.776 162.328, 91.906 150.502 C 109.552 131.752, 115.101 126.758, 114.966 129.750 C 114.947 130.162, 108.706 142.780, 101.095 157.788 C 93.343 173.077, 88.175 184.290, 89.342 183.288 C 90.488 182.305, 101.038 172.359, 112.785 161.187 C 128.078 146.644, 134.482 141.155, 135.333 141.861 C 135.987 142.404, 142.587 150.050, 150 158.852 C 157.413 167.654, 163.628 174.705, 163.811 174.522 C 163.994 174.339, 162.537 168.813, 160.572 162.241 C 158.607 155.670, 157 149.619, 157 148.794 C 157 147.969, 161.272 141.505, 166.494 134.430 L 175.988 121.565 165.744 118.031 C 158.544 115.547, 153.025 112.789, 147.170 108.749 C 142.589 105.587, 138.413 103, 137.890 103 C 137.367 103, 127.181 106.600, 115.253 111 C 103.325 115.400, 93.213 119, 92.783 119 C 89.356 119, 94.937 114.663, 112.722 103.508 C 128.419 93.663, 139.718 87.549, 159.377 78.265 C 173.645 71.527, 185.467 65.866, 185.649 65.685 C 186.001 65.333, 150.538 59.971, 147.978 59.989 C 147.043 59.996, 143.802 65.109, 139.574 73.250 M 59.336 63.567 C 59.005 64.429, 59.244 65.644, 59.867 66.267 C 60.711 67.111, 61 66.711, 61 64.700 C 61 61.691, 60.251 61.182, 59.336 63.567" stroke="none" fill="black" fill-rule="evenodd"/>
</svg>