<svg xmlns="http://www.w3.org/2000/svg" width="200" height="200" viewBox="0 0 200 200" version="1.1">
	<path d="M 71.908 27.710 C 65.634 39.651, 60.369 49.718, 60.209 50.082 C 59.975 50.616, 81.575 46.666, 90.704 44.506 C 92.808 44.009, 92.744 44.338, 89.293 51.742 C 87.304 56.009, 85.326 59.901, 84.897 60.392 C 84.467 60.883, 81.854 59.390, 79.086 57.072 L 74.057 52.861 70.846 57.415 C 67.323 62.414, 66.375 62.775, 68 58.500 C 68.581 56.972, 68.855 55.522, 68.609 55.276 C 68.363 55.030, 61.276 57.558, 52.860 60.893 C 44.443 64.228, 37.289 66.629, 36.961 66.229 C 35.921 64.958, 24.758 28.909, 25.251 28.415 C 25.511 28.156, 33.319 29.287, 42.603 30.930 C 53.161 32.798, 59.836 33.564, 60.425 32.975 C 60.943 32.457, 61.172 31.850, 60.933 31.626 C 59.701 30.467, 16.475 10, 15.260 10 C 11.651 10, 15.764 12.572, 31.623 20.231 C 41.041 24.779, 48.641 28.626, 48.511 28.779 C 48.381 28.933, 42.359 28.074, 35.129 26.871 C 27.899 25.668, 21.730 24.937, 21.421 25.246 C 21.112 25.554, 23.764 34.839, 27.314 45.877 L 33.768 65.947 26.134 70.105 C 17.055 75.050, 17.389 74.789, 18.591 75.991 C 19.445 76.845, 25.589 74.614, 61.227 60.510 L 64.954 59.034 62.651 65.381 C 61.154 69.504, 56.827 76.593, 50.301 85.614 C 43.495 95.020, 35.821 107.686, 26.511 124.874 L 12.768 150.248 31.087 168.587 C 41.163 178.674, 49.583 186.750, 49.800 186.534 C 50.016 186.318, 49.652 170.472, 48.992 151.320 L 47.791 116.500 55.333 94.764 C 62.013 75.512, 63.527 72.117, 68.588 65.049 C 71.899 60.423, 74.764 57.343, 75.401 57.722 C 78.072 59.310, 83 63.571, 83 64.294 C 83 64.730, 79.173 73.256, 74.496 83.240 C 64.846 103.841, 64.632 106.925, 73.513 97.432 L 79.063 91.500 76.031 97.721 C 74.364 101.143, 73 104.367, 73 104.885 C 73 105.404, 76.037 107.508, 79.750 109.561 C 83.463 111.614, 86.639 113.404, 86.808 113.539 C 86.978 113.673, 81.967 125.982, 75.673 140.892 C 69.380 155.801, 64.598 168, 65.047 168 C 65.496 168, 71.681 164.850, 78.792 161 C 85.902 157.150, 92.121 154.002, 92.610 154.005 C 93.100 154.007, 99.794 162.356, 107.486 172.559 C 118.548 187.228, 121.624 190.730, 122.197 189.304 C 122.595 188.312, 125.203 175.575, 127.993 161 C 130.783 146.425, 133.301 133.834, 133.590 133.019 C 133.949 132.006, 134.997 132.954, 136.907 136.019 C 138.443 138.484, 142.679 145.102, 146.320 150.728 L 152.940 160.955 164.970 153.731 C 171.586 149.757, 176.996 146.280, 176.991 146.003 C 176.986 145.726, 170.461 138.528, 162.491 130.006 C 154.521 121.485, 148.009 114.285, 148.019 114.006 C 148.030 113.728, 153.512 109.900, 160.202 105.500 C 168.318 100.163, 171.723 97.417, 170.433 97.251 C 169.370 97.114, 160.454 97.575, 150.621 98.276 L 132.742 99.550 114.949 85.460 L 97.157 71.370 105.252 62.435 C 109.704 57.521, 113.646 53.374, 114.011 53.221 C 114.376 53.067, 115.927 55.886, 117.456 59.485 C 118.986 63.084, 120.577 66.238, 120.992 66.495 C 122.046 67.146, 180.365 82, 181.869 82 C 182.543 82, 176.763 74.942, 169.024 66.316 L 154.954 50.631 158.712 46.566 C 160.778 44.330, 166.748 38.107, 171.979 32.737 L 181.489 22.974 146.180 23.237 L 110.872 23.500 101.320 44 C 96.066 55.275, 91.458 64.839, 91.080 65.254 C 90.702 65.668, 89.580 65.413, 88.587 64.687 C 86.887 63.445, 87.081 62.733, 91.897 52.523 C 94.710 46.559, 96.793 41.460, 96.525 41.192 C 96.257 40.924, 89.167 42.079, 80.769 43.759 C 72.371 45.439, 65.410 46.728, 65.299 46.623 C 65.188 46.517, 69.801 37.559, 75.549 26.715 C 81.297 15.871, 86 6.774, 86 6.500 C 86 6.225, 85.396 6, 84.658 6 C 83.920 6, 78.182 15.770, 71.908 27.710 M 102.876 46.782 C 92.811 68.450, 91.798 73.112, 98.811 65.492 C 100.840 63.288, 105.312 58.386, 108.749 54.599 L 114.998 47.713 118.837 56.026 L 122.676 64.340 148.876 71.043 C 170.309 76.527, 174.841 77.419, 173.788 75.945 C 173.080 74.954, 167.887 68.987, 162.250 62.686 C 156.613 56.385, 152 50.826, 152 50.333 C 152 49.841, 154.735 46.751, 158.078 43.469 C 161.420 40.186, 166.415 34.913, 169.177 31.750 L 174.198 26 143.349 26.032 L 112.500 26.064 102.876 46.782 M 82.784 71.750 C 81.385 74.912, 78.610 81.100, 76.618 85.500 L 72.995 93.500 78.415 87.678 C 84.944 80.667, 90.044 69.962, 88.018 67.522 C 86.053 65.154, 85.506 65.596, 82.784 71.750 M 90.583 72.643 C 89.665 75.037, 90.381 75.221, 91.796 72.955 C 92.468 71.880, 92.611 71, 92.115 71 C 91.620 71, 90.930 71.739, 90.583 72.643 M 89.863 79.250 C 86.199 83.507, 75.268 103.775, 76.239 104.509 C 76.383 104.617, 79.537 106.386, 83.250 108.439 C 86.963 110.492, 90 112.556, 90 113.026 C 90 113.495, 85.499 124.556, 79.998 137.604 C 74.497 150.653, 70.185 161.518, 70.416 161.749 C 70.647 161.980, 75.982 159.429, 82.271 156.079 L 93.707 149.990 107.082 167.608 L 120.456 185.225 126.355 155.025 C 131.096 130.757, 132.497 125.088, 133.493 126.163 C 134.175 126.898, 138.893 134.025, 143.979 142 C 149.064 149.975, 153.380 156.668, 153.569 156.873 C 153.758 157.078, 158.227 154.672, 163.499 151.527 C 171.970 146.471, 172.934 145.614, 171.793 144.153 C 171.083 143.244, 164.651 136.287, 157.501 128.693 C 150.350 121.099, 144.378 114.545, 144.229 114.129 C 144.079 113.712, 148.226 110.497, 153.445 106.985 C 158.663 103.473, 162.835 100.524, 162.716 100.433 C 162.597 100.342, 157.775 100.632, 152 101.078 C 130.524 102.734, 133.916 103.899, 114 88.032 C 104.375 80.365, 96.023 74.071, 95.441 74.046 C 94.858 74.021, 92.348 76.362, 89.863 79.250 M 49.214 91.750 C 45.377 97.112, 36.370 112.300, 29.198 125.500 L 16.159 149.500 31.282 164.714 C 39.599 173.082, 46.593 179.741, 46.823 179.511 C 47.052 179.281, 46.710 165.010, 46.062 147.796 L 44.884 116.500 50.908 99.250 C 54.221 89.763, 56.765 82, 56.561 82 C 56.356 82, 53.050 86.388, 49.214 91.750" stroke="none" fill="black" fill-rule="evenodd"/>
</svg>