<svg xmlns="http://www.w3.org/2000/svg" width="200" height="200" viewBox="0 0 200 200" version="1.1">
	<path d="M 30.250 11.745 C 25.162 11.927, 21 12.237, 21 12.435 C 21 12.633, 24.457 19.870, 28.683 28.518 C 34.369 40.154, 36.541 43.756, 37.039 42.371 C 37.409 41.342, 38.546 35.438, 39.566 29.250 L 41.419 18 46.460 17.944 C 49.232 17.914, 59.150 17.518, 68.500 17.066 C 77.850 16.613, 85.657 16.383, 85.849 16.554 C 86.167 16.837, 80.406 32.495, 79.337 34.253 C 79.085 34.667, 78.021 34.547, 76.973 33.986 C 75.435 33.163, 74.770 33.421, 73.520 35.329 C 72.669 36.629, 70.217 38.218, 68.071 38.860 C 64.625 39.893, 64.096 40.473, 63.527 43.842 L 62.883 47.655 48.191 49.325 C 35.917 50.721, 31.064 50.821, 18.689 49.934 C 10.544 49.351, 3.444 49.019, 2.913 49.196 C 1.797 49.568, 31.581 82.500, 33.034 82.500 C 35.109 82.500, 33.958 80.386, 25.602 68.857 C 20.838 62.284, 17.175 56.525, 17.463 56.060 C 18.988 53.593, 60 53.777, 60 56.251 C 60 56.818, 55.493 64.592, 49.984 73.527 C 41.479 87.320, 38.066 94.281, 27.377 119.636 C 20.452 136.061, 14.568 150.246, 14.301 151.158 C 13.950 152.354, 18.930 157.057, 32.157 168.022 L 50.500 183.228 51.065 142.364 L 51.629 101.500 57.565 79 L 63.500 56.500 67.383 56.182 C 70.794 55.902, 71.179 56.084, 70.544 57.682 C 66.255 68.476, 64.841 73.241, 65.681 74.081 C 66.291 74.691, 70.421 71.770, 77.069 66.025 C 87.789 56.763, 88.312 56.533, 96.228 57.618 L 100.734 58.235 87.360 79.072 C 80.004 90.533, 73.567 101.009, 73.056 102.353 C 72.545 103.697, 71.573 109.232, 70.897 114.653 C 69.725 124.042, 69.848 125.950, 73.494 155.004 C 75.599 171.777, 77.630 185.859, 78.008 186.297 C 78.631 187.021, 130.660 174.174, 135.583 172.081 C 136.729 171.594, 143.516 166.622, 150.667 161.033 L 163.668 150.870 173.492 125.393 C 179.268 110.415, 182.942 99.565, 182.408 99.063 C 181.909 98.593, 171.037 91.160, 158.250 82.543 L 135 66.877 135 62.086 L 135 57.295 125.269 56.611 C 119.412 56.200, 114.634 55.335, 113.269 54.441 C 110.572 52.673, 110.230 48.105, 112.533 44.590 C 113.958 42.414, 113.923 42.213, 112.033 41.719 C 110.911 41.425, 110.004 40.361, 110.010 39.344 C 110.021 37.130, 123.221 24.934, 125.817 24.739 C 126.900 24.657, 136.710 32.725, 149.905 44.551 C 162.149 55.523, 172.691 64.500, 173.333 64.500 C 173.975 64.500, 174.500 64.011, 174.500 63.413 C 174.500 62.816, 169.325 50.788, 163 36.684 L 151.500 11.041 95.500 11.228 C 64.700 11.331, 35.337 11.564, 30.250 11.745 M 25.051 14.750 C 25.079 15.162, 27.487 20.194, 30.401 25.930 L 35.699 36.361 36.991 27.930 C 39.094 14.207, 38.113 15.117, 51.213 14.747 C 59.100 14.524, 56.852 14.363, 43.750 14.214 C 33.438 14.096, 25.023 14.338, 25.051 14.750 M 87.225 21.750 C 82.084 35.257, 82.071 34.862, 87.601 33.050 C 89.195 32.527, 94.438 30.925, 99.250 29.489 L 108 26.879 108 22.439 C 108 19.998, 108.450 18, 109 18 C 109.550 18, 110 19.800, 110 22 C 110 24.200, 110.338 26, 110.750 26 C 111.162 26, 115.079 24.895, 119.453 23.546 L 127.406 21.092 131.453 24.464 C 133.679 26.319, 142.925 34.568, 152 42.795 C 161.075 51.022, 168.651 57.620, 168.836 57.457 C 169.020 57.295, 164.789 47.450, 159.433 35.581 L 149.694 14 119.935 14 L 90.175 14 87.225 21.750 M 113.250 28.247 C 111.126 28.928, 110 29.932, 110 31.145 C 110 33.761, 111.186 33.459, 114.500 30 C 116.081 28.350, 117.177 27.046, 116.937 27.102 C 116.697 27.158, 115.037 27.673, 113.250 28.247 M 94.657 33.751 L 82.815 37.319 88.657 40.647 C 91.871 42.477, 95.319 43.981, 96.321 43.987 C 97.322 43.994, 100.359 42.130, 103.071 39.843 C 106.846 36.660, 108 35.021, 108 32.843 C 108 31.280, 107.662 30.041, 107.250 30.091 C 106.838 30.142, 101.171 31.788, 94.657 33.751 M 72.411 42.527 C 69.448 46.413, 69.774 47.884, 73.246 46.291 C 75.965 45.043, 78.633 39, 76.464 39 C 75.715 39, 73.891 40.587, 72.411 42.527 M 79.107 43.123 C 78.018 46.246, 78.018 46.246, 81.134 45.623 C 82.848 45.280, 85.656 44.998, 87.375 44.995 L 90.500 44.990 86.500 42.526 C 81.283 39.313, 80.411 39.384, 79.107 43.123 M 105 41.500 C 103.960 42.753, 104.104 43, 105.878 43 C 107.098 43, 108 42.362, 108 41.500 C 108 40.675, 107.605 40, 107.122 40 C 106.640 40, 105.685 40.675, 105 41.500 M 67.582 42.316 C 66.592 43.040, 65.944 44.388, 66.141 45.311 C 66.414 46.588, 66.907 46.273, 68.203 43.995 C 70.132 40.605, 70.087 40.485, 67.582 42.316 M 100 46.385 C 100 46.597, 101.155 47.527, 102.567 48.452 C 104.582 49.772, 105.442 49.878, 106.567 48.944 C 108.991 46.933, 108.177 46, 104 46 C 101.800 46, 100 46.173, 100 46.385 M 83.569 48.018 C 79.727 48.508, 77.185 49.394, 76.351 50.534 C 74.397 53.207, 75.592 54, 81.574 54 C 86.417 54, 87.449 53.610, 90.765 50.527 C 95.033 46.559, 95.030 46.558, 83.569 48.018 M 69.335 49.695 C 68.144 49.927, 66.920 50.766, 66.616 51.558 C 66.202 52.637, 66.906 53, 69.415 53 C 71.926 53, 72.898 52.498, 73.290 51 C 73.818 48.981, 73.512 48.880, 69.335 49.695 M 93.686 51.539 C 90.301 54.516, 91.422 55.270, 98.549 54.810 C 104.245 54.442, 105.097 53.079, 101.105 50.721 C 97.392 48.528, 97.068 48.563, 93.686 51.539 M 54 51.391 C 54 52.191, 61.141 52.581, 61.620 51.806 C 61.894 51.363, 60.291 51, 58.059 51 C 55.827 51, 54 51.176, 54 51.391 M 11 55.500 C 14.898 59.522, 15.792 59.968, 13.557 56.777 C 11.484 53.819, 11.586 53.219, 14.250 52.706 C 15.488 52.467, 14.499 52.211, 12.054 52.136 L 7.608 52 11 55.500 M 74 56.310 C 74 56.481, 72.905 59.415, 71.566 62.831 L 69.133 69.041 71.381 67.270 C 72.618 66.297, 75.737 63.644, 78.314 61.375 L 82.998 57.250 79.874 56.625 C 76.494 55.949, 74 55.815, 74 56.310 M 89.886 80.177 L 75.584 102.354 73.907 112.799 L 72.231 123.244 76.101 153.274 C 78.229 169.790, 80.090 183.420, 80.235 183.562 C 80.381 183.704, 92.908 180.574, 108.074 176.606 L 135.649 169.391 148.502 159.270 L 161.356 149.149 170.708 124.938 C 175.851 111.621, 179.934 100.607, 179.780 100.460 C 178.841 99.569, 137.281 71.696, 136.314 71.309 C 135.457 70.967, 135.248 72.317, 135.561 76.167 C 136.481 87.478, 138.435 121.715, 139.579 146.579 L 140.272 161.657 128.386 162.866 C 121.849 163.531, 114.588 164.335, 112.250 164.651 L 108 165.227 108 137.324 L 108 109.421 99.053 106.461 L 90.106 103.500 99.010 94 L 107.913 84.500 107.957 71.250 C 108.018 52.392, 107.704 52.548, 89.886 80.177 M 111.049 69.750 L 111.097 80.500 118.516 72.554 L 125.934 64.607 120.807 61.804 C 117.987 60.262, 114.627 59, 113.340 59 C 111.029 59, 111.001 59.132, 111.049 69.750 M 124.333 60.615 C 125.891 61.460, 127.916 61.843, 128.833 61.468 C 130.309 60.863, 130.271 60.691, 128.500 59.963 C 127.400 59.511, 125.375 59.127, 124 59.110 L 121.500 59.080 124.333 60.615 M 119.685 75.384 L 111 84.827 111.008 96.163 L 111.015 107.500 122.758 111.093 C 132.365 114.032, 134.563 114.419, 134.846 113.224 C 135.532 110.331, 130.715 68.478, 129.552 67.220 C 128.613 66.204, 126.580 67.887, 119.685 75.384 M 49.686 79.250 C 43.087 90.023, 33.772 110.581, 17.349 150.608 C 17 151.461, 35.211 167.462, 47.031 176.686 C 48.387 177.744, 48.516 174.003, 48.223 142.186 L 47.894 106.500 52.798 86.750 C 55.495 75.888, 57.586 67, 57.445 67 C 57.304 67, 53.812 72.513, 49.686 79.250 M 101.750 94.818 C 98.588 98.136, 96 101.253, 96 101.743 C 96 102.723, 106.899 106.434, 107.630 105.703 C 107.880 105.453, 107.953 101.544, 107.792 97.016 L 107.500 88.784 101.750 94.818 M 111 136.152 L 111 162.069 115.750 161.518 C 118.362 161.215, 124.284 160.528, 128.908 159.992 C 133.533 159.455, 137.385 158.900, 137.469 158.758 C 138.066 157.741, 135.144 118.756, 134.420 118.075 C 133.914 117.600, 128.438 115.641, 122.250 113.723 L 111 110.234 111 136.152" stroke="none" fill="black" fill-rule="evenodd"/>
</svg>