<svg xmlns="http://www.w3.org/2000/svg" width="200" height="200" viewBox="0 0 200 200" version="1.1">
	<path d="M 19.664 17.433 C 19.282 18.428, 26.151 23.840, 42.152 35.151 C 68.479 53.761, 67.994 52.181, 47.924 53.953 C 36.634 54.951, 33.952 54.849, 21.686 52.957 C 14.172 51.797, 7.411 50.995, 6.661 51.174 C 5.034 51.563, 25.245 79.328, 27.517 79.823 C 29.583 80.274, 29.539 80.120, 24.500 69.338 C 22.025 64.041, 20 59.596, 20 59.460 C 20 59.324, 23.938 58.927, 28.750 58.578 C 35.106 58.117, 40.720 58.458, 49.267 59.822 C 55.739 60.855, 61.227 61.894, 61.463 62.130 C 61.699 62.366, 56.687 71.545, 50.326 82.529 L 38.760 102.500 30.314 136.850 C 25.668 155.743, 22.077 171.411, 22.334 171.668 C 22.918 172.251, 51.181 164.968, 52.364 163.930 C 52.840 163.512, 54.680 147.270, 56.453 127.836 C 59.531 94.111, 59.746 92.660, 61.179 96 C 62.004 97.925, 69.757 117.298, 78.407 139.050 C 87.058 160.803, 94.537 179.251, 95.028 180.045 C 95.793 181.283, 96.106 181.254, 97.211 179.845 C 103.529 171.784, 131.533 141.155, 132.048 141.743 C 132.412 142.159, 134.383 151.050, 136.428 161.500 C 141.077 185.253, 143.078 194.255, 143.597 193.736 C 143.820 193.514, 149.411 178.604, 156.023 160.604 C 166.721 131.476, 168.712 124.995, 174.124 101.688 L 180.204 75.500 168.864 55.198 C 160.298 39.861, 157.346 35.337, 156.794 36.698 C 156.392 37.689, 154.221 45.475, 151.970 54 C 149.719 62.525, 147.724 69.985, 147.536 70.577 C 147.293 71.347, 144.952 71.345, 139.348 70.570 L 131.500 69.486 129.809 54.493 C 126.926 28.932, 126.937 29, 125.531 29 C 124.734 29, 123.107 32.585, 121.446 38 C 119.927 42.950, 118.137 47, 117.467 47 C 116.798 47, 114.895 47.271, 113.239 47.602 C 110.357 48.179, 110.157 47.990, 108.556 43.169 L 106.884 38.134 99.692 36.529 C 95.736 35.647, 91.090 34.474, 89.366 33.923 L 86.232 32.922 87.396 27.711 L 88.560 22.500 123.442 22.500 C 150.456 22.500, 158.419 22.218, 158.745 21.250 C 158.977 20.562, 159.017 19.990, 158.833 19.977 C 154.361 19.673, 34.900 16.039, 28.857 16.023 C 22.261 16.005, 20.084 16.339, 19.664 17.433 M 49.921 19.918 C 51.802 20.238, 53.549 21.128, 53.803 21.896 C 54.175 23.022, 53.221 23.179, 48.882 22.704 C 45.922 22.380, 52.050 24.326, 62.500 27.029 C 72.950 29.733, 82 31.957, 82.612 31.972 C 83.540 31.995, 86.518 21.078, 85.750 20.468 C 85.612 20.359, 76.725 20.059, 66 19.802 C 55.275 19.546, 48.039 19.597, 49.921 19.918 M 28 21.509 C 28 21.700, 37.563 28.560, 49.250 36.753 C 70.330 51.531, 70.538 51.646, 75.199 51.228 L 79.898 50.807 81.033 45.153 C 81.657 42.044, 82.403 38.487, 82.692 37.250 C 82.981 36.013, 82.831 34.992, 82.358 34.983 C 81.886 34.974, 69.463 31.860, 54.750 28.064 C 40.038 24.268, 28 21.318, 28 21.509 M 85.575 37.146 C 84.495 40.450, 83.005 49.338, 83.455 49.789 C 84.084 50.417, 105.812 48.521, 106.561 47.772 C 106.867 47.466, 106.479 45.690, 105.700 43.824 C 104.380 40.665, 103.742 40.305, 96.391 38.580 C 92.051 37.561, 87.941 36.517, 87.258 36.260 C 86.576 36.003, 85.818 36.402, 85.575 37.146 M 123.205 41.522 C 121.804 46.760, 121.942 47.343, 124.357 46.417 C 126.043 45.770, 126.307 43.305, 125.138 39.138 C 124.564 37.094, 124.304 37.416, 123.205 41.522 M 156.964 46.077 C 151.567 65.869, 150.169 71.502, 150.556 71.889 C 150.933 72.266, 173.841 75.896, 176.331 75.974 C 177.129 75.999, 173.909 69.788, 163.162 50.577 L 158.170 41.654 156.964 46.077 M 121.360 49.765 C 120.733 50.169, 119.092 54.181, 117.713 58.679 L 115.205 66.859 119.353 67.483 C 121.634 67.826, 124.667 68.328, 126.094 68.599 L 128.688 69.090 127.366 60.295 C 126.638 55.458, 126.033 50.938, 126.022 50.250 C 125.998 48.886, 123.179 48.593, 121.360 49.765 M 112.045 51.750 C 112.070 52.712, 112.680 54.850, 113.400 56.500 L 114.710 59.500 115.850 55.500 C 117.386 50.105, 117.360 50, 114.500 50 C 112.769 50, 112.014 50.538, 112.045 51.750 M 91.818 52.266 L 82.137 53.233 81.469 57.184 C 81.102 59.357, 80.959 61.291, 81.151 61.482 C 81.501 61.830, 113.350 66.862, 113.671 66.620 C 113.765 66.549, 112.640 63.006, 111.171 58.746 C 108.099 49.839, 109.943 50.457, 91.818 52.266 M 11.668 55.345 C 12.497 56.779, 18.023 64.143, 19.288 65.500 C 19.801 66.050, 19.271 64.605, 18.110 62.290 C 15.456 56.994, 15.455 57, 18.700 57 C 22.725 57, 20.214 55.342, 15.250 54.721 C 12.200 54.340, 11.188 54.516, 11.668 55.345 M 71 55.566 C 71 60.626, 77.154 63.285, 78.370 58.750 C 79.505 54.513, 79.141 54, 75 54 C 72.036 54, 71 54.406, 71 55.566 M 55 55.922 C 48.876 56.586, 50.058 57.419, 58.670 58.511 C 63.253 59.091, 63.968 58.929, 64.956 57.083 C 66.204 54.751, 66.011 54.729, 55 55.922 M 67 59 C 67 59.550, 67.450 60, 68 60 C 68.550 60, 69 59.550, 69 59 C 69 58.450, 68.550 58, 68 58 C 67.450 58, 67 58.450, 67 59 M 53.294 82.940 L 41.192 103.889 33.478 135.494 C 29.235 152.876, 25.988 167.321, 26.262 167.595 C 26.734 168.067, 49.860 162.557, 50.417 161.840 C 50.563 161.653, 52.154 144.625, 53.953 124 C 55.752 103.375, 57.624 86.072, 58.112 85.550 C 58.673 84.950, 59.318 84.950, 59.863 85.550 C 60.338 86.072, 64.207 95.500, 68.461 106.500 C 76.948 128.444, 94.740 172.692, 95.955 174.876 C 96.499 175.853, 101.394 170.949, 112.860 157.942 C 121.737 147.872, 129 139.334, 129 138.967 C 129 138.601, 122.642 135.277, 114.871 131.579 C 107.101 127.882, 101.138 124.508, 101.621 124.082 C 102.105 123.655, 108.013 119.574, 114.750 115.013 C 121.487 110.452, 126.997 106.445, 126.994 106.110 C 126.990 105.774, 115.433 102.777, 101.310 99.449 C 84.969 95.598, 75.468 92.905, 75.181 92.042 C 74.803 90.910, 80.248 90.804, 108.240 91.398 L 141.751 92.110 143.876 84.237 C 146.174 75.720, 146.406 73.994, 145.250 74.011 C 144.838 74.017, 130.185 71.898, 112.688 69.302 C 88.225 65.673, 80.701 64.866, 80.118 65.809 C 79.701 66.484, 78.773 69.987, 78.056 73.594 C 77.339 77.201, 76.414 79.781, 76 79.326 C 75.586 78.872, 74.236 75.350, 73 71.500 C 70.502 63.719, 70.353 63.481, 67.448 62.608 C 65.647 62.066, 63.915 64.553, 53.294 82.940 M 74.070 65.250 C 74.166 66.954, 75.839 70.749, 75.943 69.500 C 75.990 68.950, 76.299 67.487, 76.630 66.250 C 77.074 64.596, 76.805 64, 75.617 64 C 74.727 64, 74.032 64.563, 74.070 65.250 M 149 75.399 C 149 75.744, 148.122 79.193, 147.049 83.064 L 145.099 90.103 147.131 89.458 C 148.249 89.104, 154.103 86.431, 160.140 83.519 L 171.117 78.226 164.809 77.170 C 153.364 75.254, 149 74.765, 149 75.399 M 160.181 86.556 C 151.756 90.542, 144.649 94.018, 144.388 94.279 C 144.127 94.540, 141.509 103.665, 138.572 114.558 C 134.614 129.230, 133.446 135.027, 134.065 136.931 C 134.523 138.344, 136.767 148.950, 139.049 160.500 C 141.332 172.050, 143.504 182.051, 143.876 182.725 C 144.248 183.399, 149.348 170.799, 155.209 154.725 C 164.024 130.551, 166.750 121.637, 170.982 103.146 C 173.795 90.852, 175.963 80.459, 175.799 80.050 C 175.634 79.641, 168.607 82.569, 160.181 86.556 M 112.750 99.175 C 124.438 102.036, 133.983 104.629, 133.962 104.938 C 133.942 105.247, 127.658 109.731, 119.999 114.903 L 106.072 124.306 117.613 129.743 C 123.961 132.732, 129.455 134.878, 129.822 134.511 C 130.548 133.785, 141 95.666, 140.586 95.253 C 140.447 95.114, 129.346 94.769, 115.917 94.487 L 91.500 93.974 112.750 99.175" stroke="none" fill="black" fill-rule="evenodd"/>
</svg>