<svg xmlns="http://www.w3.org/2000/svg" width="200" height="200" viewBox="0 0 200 200" version="1.1">
	<path d="M 22 14.312 C 22 15.348, 24.424 16.558, 29.538 18.076 C 33.684 19.307, 37.293 20.665, 37.559 21.095 C 37.824 21.525, 36.457 25.704, 34.521 30.382 C 32.584 35.059, 31 39.062, 31 39.276 C 31 39.490, 45.288 36.826, 62.750 33.356 C 80.213 29.886, 95.682 27.037, 97.128 27.024 C 99.452 27.003, 102.925 29.467, 101.893 30.405 C 101.677 30.601, 98.575 31.462, 95 32.319 C 91.425 33.176, 84.132 35.200, 78.794 36.816 C 73.456 38.433, 68.860 39.526, 68.580 39.247 C 68.300 38.967, 66.452 39.507, 64.473 40.446 C 61.270 41.966, 60.944 42.467, 61.501 45.004 C 62.650 50.237, 59.824 53.413, 45.471 63.020 L 31.992 72.041 22.532 66.020 C 17.329 62.709, 12.831 60, 12.536 60 C 12.241 60, 12 60.601, 12 61.335 C 12 62.069, 15.658 65.781, 20.130 69.585 C 25.948 74.534, 28.924 76.420, 30.596 76.217 C 31.974 76.051, 35.305 77.471, 38.716 79.681 C 41.897 81.742, 44.615 83.484, 44.756 83.553 C 44.897 83.623, 42.598 88.814, 39.647 95.090 C 35.371 104.182, 32.424 113.226, 25.140 139.604 C 20.113 157.811, 16 173.449, 16 174.354 C 16 175.259, 16.563 176, 17.250 176.001 C 17.938 176.001, 32.450 177.826, 49.500 180.057 L 80.500 184.112 109.250 183.437 C 135.354 182.825, 138 182.912, 138 184.381 C 138 185.272, 138.675 186, 139.500 186 C 140.325 186, 141 185.369, 141 184.599 C 141 183.513, 143.647 183.052, 152.750 182.552 C 159.213 182.197, 165.619 181.815, 166.987 181.703 C 169.427 181.504, 169.508 181.220, 171.181 167 L 172.886 152.500 169.443 123.151 C 166.153 95.105, 166 92.270, 166 59.317 C 166 32.319, 165.731 24.923, 164.760 25.247 C 164.078 25.474, 163.205 27.649, 162.820 30.080 C 162.436 32.511, 159.781 49.012, 156.921 66.750 L 151.721 99 142.611 98.998 C 137.600 98.996, 123.057 98.700, 110.294 98.339 L 87.089 97.683 77.544 75.424 C 72.295 63.181, 68 52.763, 68 52.273 C 68 51.318, 88.926 36.569, 89.451 37.153 C 89.623 37.344, 91.658 42.675, 93.974 49 C 96.290 55.325, 98.480 61.003, 98.842 61.617 C 99.282 62.364, 103.977 60.800, 113 56.903 C 127.018 50.847, 129 50.252, 129 52.105 C 129 52.713, 122.475 60.796, 114.500 70.068 C 106.525 79.339, 100 87.391, 100 87.962 C 100 88.533, 100.505 89, 101.123 89 C 101.740 89, 112.325 83.263, 124.644 76.250 L 147.042 63.500 143.763 60.500 C 141.959 58.850, 138.997 56.268, 137.181 54.763 L 133.878 52.026 136.489 48.603 C 139.776 44.294, 138.449 43.281, 132.495 45.555 L 128.037 47.257 120.911 41.379 C 116.991 38.145, 112.652 34.575, 111.268 33.445 L 108.752 31.391 113.126 30.163 C 130.933 25.163, 156.998 16.304, 156.999 15.250 C 156.999 14.563, 156.722 14, 156.383 14 C 156.043 14, 147.381 16.651, 137.133 19.892 C 126.885 23.133, 115.705 26.562, 112.288 27.513 L 106.076 29.242 102.961 26.621 C 101.248 25.179, 98.847 24, 97.626 24 C 96.405 24, 81.948 26.700, 65.500 30 C 49.052 33.300, 35.476 36, 35.331 36 C 35.186 36, 36.627 32.301, 38.533 27.780 C 40.440 23.260, 42 19.449, 42 19.313 C 42 19.176, 38.063 17.865, 33.250 16.400 C 28.438 14.935, 23.938 13.522, 23.250 13.261 C 22.563 13, 22 13.473, 22 14.312 M 99.127 34.108 C 95.622 35.100, 92.630 36.044, 92.477 36.206 C 92.234 36.462, 99.932 57.966, 100.573 58.824 C 100.832 59.171, 125 48.953, 125 48.497 C 125 48.348, 120.612 44.643, 115.250 40.265 L 105.500 32.304 99.127 34.108 M 72.570 41.426 C 68.952 42.545, 65.827 46.160, 67.249 47.582 C 67.763 48.096, 79 41.188, 79 40.358 C 79 39.764, 76.718 40.142, 72.570 41.426 M 152.230 113.504 C 146.582 148.702, 141.969 178.118, 141.980 178.873 C 141.996 179.984, 144.287 180.165, 153.970 179.820 C 160.554 179.585, 166.166 179.168, 166.441 178.892 C 166.717 178.617, 167.663 172.481, 168.543 165.258 L 170.144 152.125 166.893 125.813 C 164.360 105.320, 163.514 93.971, 163.070 74.504 L 162.500 49.507 152.230 113.504 M 64.657 55.598 C 63.614 59.053, 56 86.986, 56 87.359 C 56 87.560, 62.435 91.826, 70.300 96.839 L 84.601 105.953 104.884 104.059 C 116.040 103.018, 125.430 101.903, 125.751 101.583 C 126.071 101.262, 118.271 100.947, 108.417 100.882 C 98.562 100.817, 89.227 100.479, 87.672 100.132 C 85.066 99.549, 84.076 97.706, 75.038 76.598 C 68.412 61.122, 65.045 54.312, 64.657 55.598 M 123.287 63.810 C 118.770 69.140, 113.145 75.741, 110.787 78.480 L 106.500 83.460 110 81.422 C 111.925 80.301, 119.696 75.866, 127.269 71.566 C 134.841 67.267, 141.243 63.416, 141.494 63.010 C 141.885 62.377, 132.715 53.893, 131.821 54.060 C 131.644 54.093, 127.804 58.481, 123.287 63.810 M 54.506 70.160 L 48.685 82.326 51.063 84.252 C 52.371 85.311, 53.553 85.800, 53.690 85.339 C 55.972 77.643, 60.887 58.554, 60.647 58.314 C 60.471 58.138, 57.707 63.468, 54.506 70.160 M 46.492 65.627 C 40.997 69.271, 36.111 72.608, 35.636 73.041 C 35.161 73.474, 37.305 75.510, 40.401 77.566 C 43.497 79.621, 46.136 81.122, 46.266 80.902 C 47.313 79.119, 56.931 59, 56.736 59 C 56.598 59, 51.988 61.982, 46.492 65.627 M 42.136 96.184 C 38.209 104.648, 34.830 115.045, 27.958 139.816 C 22.996 157.702, 19.288 172.635, 19.718 173.001 C 20.148 173.367, 34.225 175.384, 51 177.482 L 81.500 181.298 109.405 180.661 C 124.752 180.311, 137.541 179.793, 137.823 179.510 C 138.337 178.997, 142.873 130.171, 142.934 124.500 C 142.957 122.359, 138.999 129.234, 129.116 148.500 C 120.488 165.320, 114.641 175.624, 113.609 175.828 C 112.228 176.101, 112.039 175.517, 112.477 172.328 C 113.457 165.191, 117.134 117.930, 116.816 116.557 C 116.642 115.806, 109.750 127.743, 101.500 143.083 C 93.250 158.422, 86.148 170.979, 85.719 170.986 C 84 171.016, 84.005 167.288, 85.761 139.944 C 87.407 114.324, 87.435 111.379, 86.044 110.282 C 82.198 107.248, 81.694 108.267, 72.579 137.500 C 67.691 153.175, 63.424 165.990, 63.096 165.977 C 62.768 165.965, 57.687 158.162, 51.804 148.637 L 41.109 131.321 46.918 110.131 L 52.727 88.941 50.010 87.007 L 47.293 85.072 42.136 96.184 M 53.564 96.250 C 52.743 99.138, 50.264 108.108, 48.053 116.184 L 44.035 130.867 53.235 145.661 L 62.435 160.454 67.787 143.477 C 70.731 134.140, 74.612 121.918, 76.411 116.317 L 79.682 106.134 67.976 98.567 C 61.538 94.405, 55.997 91, 55.663 91 C 55.329 91, 54.384 93.362, 53.564 96.250 M 135 103.996 C 131.425 104.400, 119.725 105.524, 109 106.495 L 89.500 108.260 89.824 112.380 C 90.002 114.646, 89.446 126.819, 88.588 139.430 C 87.729 152.042, 87.168 162.501, 87.340 162.673 C 87.512 162.845, 94.368 150.561, 102.576 135.375 C 115.744 111.012, 119.114 105.678, 120.424 107.126 C 120.610 107.332, 119.683 120.100, 118.365 135.500 C 117.046 150.900, 116.087 164.306, 116.233 165.291 C 116.380 166.277, 122.734 154.892, 130.354 139.993 C 138.326 124.404, 144.695 113.075, 145.354 113.309 C 145.984 113.532, 146.444 114.416, 146.375 115.273 C 146.307 116.130, 145.990 121.706, 145.671 127.665 L 145.092 138.500 148.015 121.500 C 149.622 112.150, 150.952 104.162, 150.969 103.750 C 151.006 102.864, 144.090 102.971, 135 103.996 M 144.158 142 C 144.158 143.375, 144.385 143.938, 144.662 143.250 C 144.940 142.563, 144.940 141.438, 144.662 140.750 C 144.385 140.063, 144.158 140.625, 144.158 142" stroke="none" fill="black" fill-rule="evenodd"/>
</svg>