<svg xmlns="http://www.w3.org/2000/svg" width="200" height="200" viewBox="0 0 200 200" version="1.1">
	<path d="M 115.917 11.374 C 115.688 11.580, 98.175 12.083, 77 12.492 C 55.825 12.902, 31.525 13.521, 23 13.868 L 7.500 14.500 13 17.635 C 16.025 19.359, 24.286 24.025, 31.359 28.005 L 44.217 35.240 47.237 41.692 C 48.931 45.313, 49.871 48.501, 49.378 48.958 C 48.895 49.405, 43.253 51.483, 36.840 53.574 L 25.179 57.376 21.030 64.795 C 18.748 68.875, 17.020 72.346, 17.190 72.508 C 17.361 72.669, 24.475 71.261, 33 69.378 C 41.525 67.495, 49.072 66.077, 49.771 66.227 C 50.594 66.404, 47.099 74.601, 39.847 89.500 L 28.653 112.500 25.948 141.500 C 24.460 157.450, 23.380 170.654, 23.548 170.843 C 23.922 171.264, 57.298 161.052, 59.014 159.992 C 59.690 159.573, 60.076 158.797, 59.872 158.265 C 59.667 157.734, 52.193 159.563, 43.262 162.329 C 34.331 165.095, 26.861 167.165, 26.662 166.929 C 26.463 166.693, 27.372 154.800, 28.683 140.500 L 31.066 114.500 41.702 92.253 C 47.552 80.016, 52.447 70.116, 52.579 70.253 C 52.768 70.446, 43.173 119.403, 40.429 132.250 C 40.003 134.243, 40.235 135, 41.273 135 C 42.356 135, 44.344 126.754, 49.411 101.250 C 53.098 82.688, 56.378 66.607, 56.699 65.516 C 58.435 59.618, 59.166 72.276, 59.325 111 L 59.500 153.500 76.351 164.849 C 85.620 171.090, 93.575 175.815, 94.031 175.349 C 94.975 174.382, 107.427 142.411, 122.599 102 C 128.278 86.875, 132.941 75.331, 132.962 76.348 C 132.983 77.364, 132.036 86.364, 130.858 96.348 C 128.708 114.578, 128.867 124.081, 131.665 144.561 L 132.220 148.621 104.860 168.449 C 89.812 179.355, 77.305 188.447, 77.067 188.655 C 76.828 188.863, 77.074 189.474, 77.612 190.012 C 78.250 190.650, 92.493 184.571, 118.545 172.541 L 158.500 154.092 167.299 131.452 L 176.097 108.811 167.570 90.218 C 162.879 79.992, 159.182 71.485, 159.353 71.314 C 159.524 71.143, 163.593 75.944, 168.396 81.982 C 177.581 93.530, 178.479 94.440, 179.854 93.591 C 180.323 93.300, 177.698 80.150, 174.021 64.368 L 167.334 35.673 157.417 27.755 C 151.963 23.401, 146.375 18.854, 145 17.651 C 137.824 11.373, 136.772 11, 126.262 11 C 120.801 11, 116.146 11.168, 115.917 11.374 M 90.358 14.962 L 74.216 15.500 88.204 24.500 C 95.898 29.450, 102.994 33.881, 103.973 34.348 C 105.287 34.974, 108.986 33.437, 118.126 28.467 C 140.494 16.304, 139.598 16.911, 137.477 15.359 C 135.517 13.926, 124.301 13.832, 90.358 14.962 M 41.832 15.941 C 29.364 16.248, 18.937 16.727, 18.660 17.005 C 18.383 17.283, 24.593 21.104, 32.460 25.495 L 46.764 33.480 49.537 39.990 C 51.063 43.570, 52.603 46.840, 52.961 47.256 C 53.457 47.832, 62.848 45.410, 63.040 44.656 C 63.691 42.085, 66.615 16.273, 66.314 15.750 C 66.076 15.338, 65.571 15.086, 65.191 15.191 C 64.811 15.295, 54.299 15.633, 41.832 15.941 M 68.079 27.250 C 67.382 33.438, 66.576 39.724, 66.287 41.219 L 65.762 43.938 75.040 40.826 C 83.938 37.842, 84.373 37.790, 85.659 39.548 C 86.397 40.557, 87 41.971, 87 42.691 C 87 44.562, 88.428 44.328, 93.783 41.580 C 103.274 36.710, 103.745 37.642, 86.042 26.250 C 77.281 20.612, 69.940 16, 69.729 16 C 69.518 16, 68.775 21.063, 68.079 27.250 M 140.741 22.168 C 139.996 24.001, 134.012 38.882, 127.443 55.238 C 119.831 74.193, 114.995 84.980, 114.107 84.988 C 112.968 84.998, 112.828 83.220, 113.340 75.250 C 113.684 69.887, 114.258 60.950, 114.616 55.390 L 115.267 45.280 110.703 42.140 C 108.193 40.413, 105.736 39, 105.243 39 C 104.750 39, 100.591 41.025, 96 43.500 C 91.409 45.975, 87.310 48, 86.891 48 C 86.472 48, 85.556 46.413, 84.854 44.474 C 84.153 42.534, 83.111 41.118, 82.540 41.327 C 81.968 41.536, 78.350 42.733, 74.500 43.987 C 65.596 46.886, 65 47.405, 65 52.256 C 65 55.579, 67.471 60.617, 79.391 81.598 L 93.783 106.930 88.828 111.564 C 84.130 115.958, 83.929 116.356, 84.937 119.248 C 86.263 123.052, 86.266 123, 84.716 123 C 83.398 123, 80 118.041, 80 116.119 C 80 115.088, 64.725 80.072, 62.935 77 C 62.425 76.125, 62.048 91.424, 62.030 113.734 L 62 151.968 77.090 162.060 C 85.390 167.611, 92.396 171.937, 92.660 171.673 C 93.419 170.915, 110.958 125.387, 123.160 92.500 C 129.283 76, 134.676 62.073, 135.146 61.550 C 137.519 58.911, 137.394 64.691, 134.555 89 C 131.302 116.851, 131.299 119.187, 134.478 145.177 L 135.050 149.855 113.525 165.517 C 101.686 174.131, 92 181.322, 92 181.498 C 92 181.741, 142.979 158.387, 154.510 152.861 C 155.943 152.174, 158.908 145.722, 164.829 130.404 L 173.137 108.912 161.917 84.407 C 154.350 67.882, 151.026 59.574, 151.709 58.891 C 152.391 58.209, 156.388 62.471, 163.985 71.981 C 170.181 79.737, 175.432 85.902, 175.654 85.680 C 175.876 85.458, 173.569 74.612, 170.529 61.578 C 167.488 48.544, 165 37.733, 165 37.553 C 165 37.373, 161.738 34.613, 157.750 31.421 C 153.762 28.228, 148.609 24.091, 146.297 22.227 L 142.095 18.837 140.741 22.168 M 128.965 25.650 C 124.309 28.154, 117.648 31.776, 114.162 33.700 L 107.823 37.197 112.993 40.348 L 118.162 43.500 117.547 54.500 C 117.209 60.550, 116.672 67.750, 116.353 70.500 C 116.035 73.250, 116.007 75.275, 116.292 75 C 117.026 74.291, 138.020 21.686, 137.697 21.364 C 137.551 21.217, 133.621 23.146, 128.965 25.650 M 61 49.059 C 61 49.641, 61.450 49.840, 62 49.500 C 62.550 49.160, 63 48.684, 63 48.441 C 63 48.198, 62.550 48, 62 48 C 61.450 48, 61 48.477, 61 49.059 M 56.750 49.757 C 54.876 50.174, 54.529 51.710, 55.842 53.778 C 56.427 54.700, 56.991 54.316, 57.864 52.399 C 59.238 49.383, 59.169 49.219, 56.750 49.757 M 37.800 55.786 C 27.210 59.362, 27.074 59.448, 24.466 64.240 L 21.831 69.080 24.166 68.516 C 25.450 68.206, 32.319 66.689, 39.431 65.146 C 54.171 61.947, 55.756 60.823, 53.380 55.250 C 52.535 53.269, 51.312 52.034, 50.247 52.087 C 49.286 52.135, 43.685 53.799, 37.800 55.786 M 58.968 56.171 C 58.035 58.219, 58.097 59.308, 59.276 61.558 L 60.754 64.378 61.158 60.143 C 61.672 54.750, 60.546 52.708, 58.968 56.171 M 63.624 62.537 C 62.110 66.484, 63.550 71.242, 72.163 90.748 C 77.203 102.162, 81.710 111.935, 82.180 112.467 C 82.702 113.059, 84.429 112.037, 86.634 109.832 L 90.235 106.231 78.440 85.366 C 63.823 59.508, 64.429 60.441, 63.624 62.537" stroke="none" fill="black" fill-rule="evenodd"/>
</svg>