<svg xmlns="http://www.w3.org/2000/svg" width="200" height="200" viewBox="0 0 200 200" version="1.1">
	<path d="M 19.588 9.746 C 18.336 10.997, 19.160 12.009, 23.500 14.553 C 25.975 16.003, 28 17.312, 28 17.461 C 28 17.610, 25.234 17.093, 21.854 16.312 C 17.142 15.224, 15.450 15.168, 14.604 16.071 C 13.898 16.825, 13.860 17.385, 14.500 17.626 C 15.050 17.832, 26.496 23.180, 39.935 29.510 C 57.130 37.608, 64.589 40.665, 65.107 39.827 C 65.591 39.044, 62.017 36.121, 54.672 31.295 C 48.527 27.257, 44.625 24.194, 46 24.488 C 60.857 27.664, 83.116 32.799, 83.360 33.108 C 85.321 35.582, 93.017 51.317, 92.514 51.824 C 91.825 52.517, 65 60.921, 65 60.444 C 65 60.299, 66.342 57.341, 67.983 53.873 C 69.841 49.943, 70.612 47.212, 70.027 46.627 C 69.442 46.042, 63.964 49.536, 55.495 55.894 C 48.018 61.508, 41.361 66.296, 40.701 66.535 C 40.040 66.774, 32.427 66.164, 23.783 65.178 C 10.993 63.721, 7.972 63.630, 7.564 64.694 C 7.288 65.412, 7.208 66, 7.386 66 C 7.563 66, 13.703 66.919, 21.030 68.042 C 28.358 69.165, 38.879 70.305, 44.410 70.576 C 49.942 70.847, 54.783 71.390, 55.167 71.784 C 55.551 72.178, 51.575 81.275, 46.333 92 L 36.800 111.500 31.066 142 C 27.913 158.775, 25.452 172.657, 25.598 172.848 C 25.744 173.040, 32.624 167.928, 40.887 161.490 C 55.324 150.239, 55.930 149.621, 56.424 145.641 C 56.707 143.364, 57.219 126.200, 57.561 107.500 C 57.904 88.800, 58.511 73.154, 58.911 72.732 C 59.310 72.309, 65.906 72.672, 73.568 73.538 C 93.098 75.745, 91.629 75.205, 91.171 80.002 L 90.783 84.077 101.315 83.396 L 111.848 82.715 111.298 87.108 C 110.995 89.523, 110.467 91.785, 110.124 92.134 C 109.781 92.483, 101.400 96.944, 91.500 102.047 C 81.600 107.151, 73.398 111.393, 73.274 111.473 C 72.819 111.767, 82.141 189.556, 82.846 191.356 C 83.434 192.856, 87.838 188.082, 105.787 166.487 L 128 139.761 127.946 144.630 C 127.916 147.309, 127.340 156.372, 126.667 164.772 C 125.677 177.118, 125.687 179.951, 126.715 179.556 C 127.415 179.287, 137.696 173.370, 149.560 166.407 L 171.133 153.747 170.611 150.123 C 170.324 148.130, 169.544 132.010, 168.878 114.300 L 167.667 82.101 165.084 81.763 C 163.663 81.578, 168.012 81.055, 174.750 80.603 C 184.144 79.971, 187 79.455, 187 78.389 C 187 77.625, 186.438 76.997, 185.750 76.994 C 183.370 76.981, 141.783 70.117, 141.328 69.661 C 141.076 69.409, 147.987 65.358, 156.685 60.658 C 165.383 55.959, 173.330 51.501, 174.344 50.752 C 176.078 49.471, 175.645 48.473, 167.039 33.945 C 162.007 25.450, 157.352 18.645, 156.695 18.822 C 156.038 18.999, 146.871 23.218, 136.325 28.197 C 119.558 36.113, 116.700 37.166, 113.575 36.580 C 111.421 36.176, 110 35.331, 110 34.455 C 110 33.337, 108.553 33, 103.750 33.002 C 99.742 33.003, 86.559 30.606, 67 26.319 L 36.500 19.634 28.338 14.396 C 23.848 11.515, 19.911 9.422, 19.588 9.746 M 30 21.653 C 30.825 22, 34.538 23.800, 38.250 25.654 C 41.962 27.508, 45 28.833, 45 28.598 C 45 27.511, 34.982 22.171, 31.927 21.630 C 30.042 21.297, 29.175 21.307, 30 21.653 M 147.500 25.959 C 143.100 28.053, 135.450 31.676, 130.500 34.010 C 121.688 38.165, 121.563 38.273, 124.500 39.174 C 126.150 39.680, 129.623 39.870, 132.218 39.598 C 136.559 39.141, 137.104 39.338, 139.036 42.051 C 140.997 44.805, 141.016 45, 139.311 45 C 138.308 45, 136.113 44.606, 134.434 44.124 C 132.173 43.476, 129.581 43.810, 124.447 45.413 L 117.514 47.577 116.899 52.039 C 116.561 54.492, 115.992 60.809, 115.634 66.075 L 114.984 75.650 130.742 77.419 C 143.029 78.798, 149.143 79.001, 158.500 78.342 L 170.500 77.497 151.273 74.526 C 140.698 72.892, 132.373 71.241, 132.773 70.859 C 133.173 70.476, 141.600 65.783, 151.500 60.429 C 161.400 55.075, 170.131 50.117, 170.902 49.410 C 172.087 48.323, 171.103 46.104, 164.537 35.062 C 160.265 27.878, 156.484 22.034, 156.135 22.076 C 155.786 22.118, 151.900 23.865, 147.500 25.959 M 91.677 42.750 C 93.679 46.462, 95.624 49.856, 96 50.292 C 96.376 50.727, 100.692 49.806, 105.592 48.245 C 114.093 45.537, 114.500 45.275, 114.500 42.518 C 114.500 39.721, 114.243 39.571, 106.500 37.845 C 102.100 36.865, 96.146 36.048, 93.269 36.031 L 88.038 36 91.677 42.750 M 117.459 42.067 C 116.397 43.785, 117.548 44.175, 121.497 43.435 C 124.084 42.949, 124.792 42.483, 123.849 41.885 C 121.959 40.687, 118.246 40.793, 117.459 42.067 M 104.789 51.354 C 101.098 52.534, 97.660 53.950, 97.149 54.500 C 96.637 55.050, 95.907 59.395, 95.527 64.157 C 94.733 74.099, 94.088 73.408, 105.191 74.493 L 111.882 75.147 112.403 71.823 C 112.689 69.995, 113.208 64.112, 113.555 58.750 C 114.277 47.603, 114.893 48.122, 104.789 51.354 M 55.146 59.633 C 49.529 63.832, 45.061 67.369, 45.217 67.493 C 45.372 67.618, 47.862 67.987, 50.750 68.313 C 55.992 68.905, 56 68.901, 56 66.061 C 56 63.864, 56.567 63.075, 58.492 62.591 C 60.185 62.166, 61.792 60.370, 63.509 56.983 C 64.897 54.242, 65.882 52, 65.697 52 C 65.511 52, 60.764 55.435, 55.146 59.633 M 78 59.566 C 64.437 63.737, 60.457 65.858, 61.317 68.460 C 61.506 69.032, 66.125 70.017, 71.581 70.649 C 77.036 71.282, 83.827 72.069, 86.670 72.399 L 91.841 72.999 92.472 66.249 C 92.818 62.537, 93.313 58.487, 93.570 57.250 C 93.828 56.013, 93.692 55.024, 93.269 55.054 C 92.846 55.084, 85.975 57.114, 78 59.566 M 94 78.412 C 94 80.737, 94.380 80.999, 97.750 80.991 C 103.710 80.977, 112 79.793, 112 78.955 C 112 78.533, 109.638 77.902, 106.750 77.552 C 103.862 77.203, 99.813 76.671, 97.750 76.370 C 94.242 75.859, 94 75.991, 94 78.412 M 115 79.201 C 115 79.640, 117.138 79.964, 119.750 79.921 C 124.978 79.834, 124.555 79.349, 118.750 78.773 C 116.688 78.569, 115 78.761, 115 79.201 M 46.731 97.748 L 39.132 113.500 34.556 138.500 C 32.039 152.250, 29.795 164.313, 29.569 165.307 C 29.280 166.574, 29.508 166.840, 30.329 166.197 C 30.973 165.693, 36.507 161.397, 42.627 156.650 L 53.753 148.020 54.493 115.460 C 54.900 97.552, 55.030 82.697, 54.781 82.448 C 54.533 82.200, 50.910 89.085, 46.731 97.748 M 119.250 82.737 C 114.003 83.104, 114 83.106, 114 86.552 C 114 90.511, 114.059 90.538, 118.165 88.415 C 120.265 87.329, 121.554 87.154, 122.259 87.859 C 123.248 88.848, 122.272 89.905, 114.724 96.024 C 110.365 99.559, 113.422 99.628, 127.702 96.318 C 129.689 95.857, 128.935 98.224, 119.985 120.537 C 114.530 134.139, 109.819 145.515, 109.516 145.817 C 107.478 147.855, 107.218 142.838, 108.515 126.494 C 110.508 101.391, 110.610 102.928, 107 103.650 C 102.923 104.465, 103.028 102.315, 107.241 98.718 L 110.500 95.936 107.500 97.218 C 105.850 97.923, 98.042 101.788, 90.149 105.807 L 75.799 113.114 76.351 116.307 C 76.655 118.063, 78.519 133.675, 80.494 151 C 82.469 168.325, 84.305 183.538, 84.575 184.806 C 84.991 186.758, 88.288 183.247, 106.077 161.908 C 117.632 148.046, 127.974 135.577, 129.058 134.200 C 130.141 132.822, 131.227 131.893, 131.469 132.136 C 131.712 132.378, 131.237 140.885, 130.413 151.038 C 129.590 161.192, 129.047 170.754, 129.208 172.286 L 129.500 175.072 148.500 163.891 C 158.950 157.742, 167.588 152.650, 167.695 152.577 C 167.803 152.503, 167.252 138.730, 166.472 121.971 C 165.692 105.212, 165.041 89.894, 165.027 87.930 L 165 84.360 154.750 83.174 C 145.140 82.063, 131.325 81.893, 119.250 82.737 M 117.879 101.203 L 113.259 102.169 112.668 108.335 C 111.507 120.439, 110.747 134.492, 111.278 134 C 111.705 133.606, 116.925 120.887, 124.718 101.250 C 125.278 99.839, 124.427 99.834, 117.879 101.203" stroke="none" fill="black" fill-rule="evenodd"/>
</svg>