<svg xmlns="http://www.w3.org/2000/svg" width="200" height="200" viewBox="0 0 200 200" version="1.1">
	<path d="M 157.661 35.250 L 149.862 61.500 141.431 69.332 C 136.794 73.639, 133 77.483, 133 77.875 C 133 78.266, 135.411 79.405, 138.357 80.407 L 143.714 82.228 142.232 87.364 C 141.416 90.189, 140.600 92.668, 140.417 92.874 C 140.054 93.283, 111.182 98.977, 109.400 98.991 C 108.600 98.998, 91.800 87.778, 83.269 81.540 C 83.142 81.447, 84.405 78.117, 86.077 74.140 L 89.115 66.908 87.501 61.204 C 86.613 58.067, 85.651 54.693, 85.362 53.707 C 84.866 52.010, 85.877 51.951, 104.169 52.598 L 123.500 53.283 130.500 46.965 C 134.350 43.490, 137.630 40.338, 137.788 39.960 C 138.089 39.240, 135.195 38.667, 99.750 32.427 C 85.819 29.974, 78 28.172, 78 27.414 C 78 26.762, 81.320 25.327, 85.378 24.224 L 92.756 22.218 112.947 27.207 C 124.052 29.951, 133.378 31.956, 133.671 31.663 C 134.169 31.164, 130.170 10.960, 129.405 10.110 C 129.212 9.896, 120.930 11.883, 111.002 14.527 L 92.950 19.334 81.991 16.806 L 71.032 14.278 71.662 16.889 C 72.009 18.325, 72.677 20.542, 73.146 21.815 C 73.616 23.088, 74 24.298, 74 24.504 C 74 24.709, 71.977 25.181, 69.504 25.552 C 66.357 26.024, 59.678 25.290, 47.254 23.109 C 25.731 19.330, 24.500 19.197, 24.500 20.642 C 24.500 22.137, 41.977 35.007, 43.967 34.977 C 44.810 34.965, 50.289 33.659, 56.141 32.075 C 65.188 29.628, 67.471 29.343, 71.374 30.175 C 75.524 31.060, 76.059 31.507, 76.954 34.827 C 77.498 36.847, 78.627 40.750, 79.461 43.500 C 80.296 46.250, 80.983 48.669, 80.989 48.875 C 80.995 49.082, 77.171 49.050, 72.490 48.804 L 63.981 48.358 63.043 51.929 C 62.527 53.893, 61.275 58.838, 60.261 62.917 C 58.606 69.574, 56.123 73.457, 54.536 71.869 C 54.228 71.561, 56.470 64.192, 59.518 55.494 C 62.566 46.796, 64.932 39.297, 64.777 38.831 C 64.531 38.093, 17.721 75.043, 12.576 80.036 C 10.677 81.879, 10.677 81.898, 12.576 81.479 C 19.395 79.976, 48.205 75.871, 48.671 76.337 C 48.983 76.650, 47.227 82.890, 44.767 90.203 C 40.232 103.685, 22.343 173.676, 23.210 174.544 C 23.586 174.920, 60.305 154.831, 61.933 153.359 C 62.172 153.143, 61.947 152.553, 61.433 152.047 C 60.862 151.484, 54.098 154.743, 44 160.446 C 34.925 165.572, 27.370 169.429, 27.211 169.016 C 27.052 168.604, 30.742 153.019, 35.410 134.383 C 45.082 95.775, 51.512 76.095, 54.859 74.856 C 56.307 74.321, 57.003 74.459, 57.011 75.282 C 57.016 75.952, 54.265 87.886, 50.896 101.802 C 45.276 125.019, 44.499 130.008, 46.906 127.433 C 47.386 126.920, 50.594 114.800, 54.036 100.500 C 57.479 86.200, 60.791 74.169, 61.397 73.765 C 62.004 73.361, 63.292 73.024, 64.260 73.015 C 66.502 72.996, 78.952 81.127, 78.979 82.629 C 78.991 83.249, 73.849 95.550, 67.554 109.963 L 56.108 136.168 69.804 154.541 C 77.337 164.646, 83.731 172.933, 84.012 172.957 C 84.294 172.981, 89.624 167.348, 95.856 160.440 C 106.152 149.027, 107.358 148, 109.062 149.190 C 110.094 149.911, 115.380 153.940, 120.810 158.145 L 130.682 165.790 142.289 154.861 L 153.897 143.932 154.440 147.216 C 154.740 149.022, 155.888 157.700, 156.993 166.500 C 159.825 189.050, 160.007 190, 161.505 190 C 162.368 190, 168.118 174.147, 177.917 144.750 C 186.213 119.862, 193 99.005, 193 98.400 C 193 97.795, 182.642 93.562, 169.982 88.994 C 151.504 82.326, 147.061 80.373, 147.454 79.094 C 147.723 78.217, 148.895 74.350, 150.057 70.500 C 151.800 64.731, 153.128 62.524, 157.609 57.947 L 163.047 52.394 165.509 32.447 C 168.381 9.172, 168.390 9, 166.729 9 C 165.932 9, 162.553 18.782, 157.661 35.250 M 112.500 16.944 L 98.500 20.730 102.500 21.815 C 116.252 25.545, 131.059 28.590, 130.699 27.615 C 130.472 27.002, 129.690 23.462, 128.960 19.750 C 128.230 16.038, 127.378 13.036, 127.067 13.079 C 126.755 13.123, 120.200 14.862, 112.500 16.944 M 75 18.328 C 75 18.626, 75.418 19.970, 75.930 21.315 C 76.810 23.629, 77.076 23.702, 80.930 22.673 C 85.943 21.335, 86.088 20.427, 81.429 19.553 C 79.465 19.184, 77.215 18.636, 76.429 18.334 C 75.643 18.033, 75 18.030, 75 18.328 M 36.500 27.349 C 39.800 29.878, 43.400 31.943, 44.500 31.938 C 45.600 31.934, 49.425 31.106, 53 30.100 L 59.500 28.270 54 27.171 C 50.975 26.566, 45.575 25.575, 42 24.969 C 38.425 24.362, 34.375 23.615, 33 23.308 C 31.209 22.909, 32.202 24.055, 36.500 27.349 M 159.638 38.227 C 158.181 43.327, 156.309 49.733, 155.479 52.462 L 153.968 57.423 157.282 54.212 C 160.411 51.178, 160.661 50.408, 161.788 40.324 C 162.444 34.452, 162.825 29.491, 162.634 29.300 C 162.443 29.109, 161.094 33.126, 159.638 38.227 M 79.024 32.250 C 79.037 32.388, 80.097 36.100, 81.379 40.500 L 83.710 48.500 90.105 49.157 C 93.622 49.518, 102.457 49.923, 109.737 50.056 L 122.975 50.297 127.945 45.649 C 130.678 43.092, 132.733 41, 132.511 41 C 132.290 41, 120.760 38.975, 106.890 36.500 C 83.260 32.283, 78.965 31.628, 79.024 32.250 M 39.765 61.253 C 29.460 69.563, 21.201 76.535, 21.412 76.745 C 21.622 76.955, 28.301 76.126, 36.254 74.902 L 50.714 72.677 55.319 59.338 C 57.853 52.002, 59.604 46.032, 59.213 46.072 C 58.821 46.111, 50.069 52.943, 39.765 61.253 M 65.092 54.750 C 64.550 56.813, 63.463 61.336, 62.675 64.803 L 61.243 71.105 63.899 70.522 C 65.989 70.063, 68.083 70.992, 73.725 74.878 L 80.895 79.817 83.540 73.076 L 86.184 66.335 84.092 59.310 L 82 52.285 75.853 51.642 C 66.126 50.626, 66.179 50.610, 65.092 54.750 M 142.500 72 C 139.816 74.725, 137.851 77.185, 138.133 77.467 C 138.415 77.748, 139.982 78.246, 141.614 78.573 C 144.484 79.147, 144.641 78.979, 146.370 73.495 C 147.353 70.376, 147.983 67.649, 147.769 67.435 C 147.555 67.221, 145.184 69.275, 142.500 72 M 145.062 87.188 C 144.402 89.392, 144.092 91.425, 144.373 91.707 C 144.655 91.988, 147.499 91.759, 150.693 91.198 C 154.111 90.597, 156.884 90.546, 157.433 91.072 C 158.652 92.240, 158.593 92.283, 151 95.758 L 144.500 98.732 138.007 115.866 C 134.351 125.512, 130.964 133, 130.257 133 C 129.566 133, 129 132.716, 129 132.369 C 129 132.023, 131.270 124.095, 134.045 114.753 C 136.819 105.411, 138.957 97.455, 138.795 97.074 C 138.633 96.693, 132.425 97.550, 125 98.979 C 112.990 101.290, 111.748 101.714, 113.750 102.823 C 116.823 104.526, 116.578 105.478, 112.750 106.713 C 110.963 107.289, 105.858 109.127, 101.406 110.798 L 93.311 113.835 86.038 109.522 C 77.800 104.638, 77.501 104.994, 92 102.432 C 97.225 101.508, 102.089 100.438, 102.810 100.053 C 103.669 99.594, 100.576 96.884, 93.810 92.169 C 88.139 88.217, 83.075 84.875, 82.555 84.742 C 82.036 84.609, 79.950 88.325, 77.921 93 C 75.892 97.675, 70.869 109.187, 66.760 118.581 L 59.288 135.663 71.728 152.470 C 83.786 168.761, 84.223 169.218, 85.945 167.388 C 86.923 166.350, 92.076 160.685, 97.398 154.800 L 107.074 144.100 118.653 153.076 C 128.566 160.762, 130.462 161.869, 131.836 160.776 C 132.718 160.074, 138.397 154.862, 144.455 149.194 C 153.649 140.592, 155.585 139.187, 156.161 140.694 C 156.541 141.687, 157.821 150.600, 159.006 160.500 C 160.191 170.400, 161.420 179.400, 161.736 180.500 C 162.103 181.773, 167.340 167.432, 176.137 141.065 C 183.741 118.275, 189.814 99.480, 189.632 99.298 C 189.363 99.030, 166.939 90.678, 149.881 84.493 L 146.262 83.181 145.062 87.188 M 96.273 104.346 L 86.045 106.500 89.774 108.637 L 93.503 110.774 101.798 107.777 C 106.568 106.054, 109.932 104.296, 109.714 103.640 C 109.139 101.913, 107.390 102.005, 96.273 104.346" stroke="none" fill="black" fill-rule="evenodd"/>
</svg>