<svg xmlns="http://www.w3.org/2000/svg" width="200" height="200" viewBox="0 0 200 200" version="1.1">
	<path d="M 65.811 12.166 L 39.123 21.928 30.543 17.964 C 25.825 15.784, 21.747 14, 21.482 14 C 19.252 14, 23.270 18.790, 37 32.500 C 45.800 41.287, 53 48.752, 53 49.090 C 53 49.427, 44.338 50.693, 33.750 51.903 C 9.325 54.696, 9.312 54.698, 9.468 56.813 C 9.538 57.763, 14.974 63.447, 21.548 69.444 C 28.121 75.440, 34.924 81.669, 36.664 83.286 C 38.516 85.006, 40.322 85.919, 41.022 85.487 C 41.808 85.001, 38.336 80.816, 30.858 73.239 C 24.611 66.909, 20.175 61.949, 21 62.218 C 40.652 68.611, 51.662 72.396, 52.308 72.983 C 52.752 73.386, 48.202 84.017, 42.196 96.608 L 31.276 119.500 29.451 149.229 C 28.447 165.581, 27.942 179.276, 28.329 179.663 C 28.717 180.050, 29.442 179.947, 29.942 179.433 C 30.442 178.920, 35.201 167.925, 40.518 155 C 45.835 142.075, 54.982 122.131, 60.843 110.679 L 71.500 89.858 72.122 108.179 C 72.465 118.256, 72.802 134.680, 72.872 144.677 L 73 162.854 76.668 165.878 L 80.336 168.902 83.918 166.108 C 85.888 164.572, 95.964 156.690, 106.309 148.594 C 120.205 137.718, 124.723 134.634, 123.610 136.788 C 122.781 138.391, 117.173 148.513, 111.148 159.281 C 101.161 177.130, 99.898 180, 102.034 180 C 102.419 180, 108.302 171.258, 115.107 160.573 C 121.912 149.889, 127.572 141.239, 127.684 141.351 C 127.797 141.463, 129.514 150.543, 131.501 161.528 C 135.720 184.853, 135.756 185, 137.375 185 C 138.301 185, 137.677 178.215, 134.916 158.250 C 132.882 143.537, 131.333 131.372, 131.475 131.216 C 131.618 131.060, 143.796 143.335, 158.539 158.494 C 174.851 175.265, 185.705 185.695, 186.264 185.136 C 186.824 184.576, 180.350 173.310, 169.727 156.358 C 150.288 125.339, 149.683 124.298, 150.747 123.695 C 151.161 123.461, 159.375 120.672, 169 117.498 C 178.625 114.324, 186.657 111.593, 186.849 111.431 C 187.648 110.754, 157.440 55.224, 154.597 52.143 C 151.235 48.498, 114.106 19.544, 113.555 20.138 C 113.370 20.337, 113.869 25.183, 114.664 30.908 C 115.691 38.310, 115.795 41.509, 115.023 41.986 C 114.427 42.354, 108.340 43.243, 101.497 43.961 C 91.443 45.015, 88.470 45.023, 86.002 44.001 C 83.917 43.137, 83.107 42.223, 83.449 41.118 C 85.770 33.607, 93.023 4.441, 92.793 3.545 C 92.611 2.837, 82.371 6.109, 65.811 12.166 M 65.216 15.219 C 52.960 19.682, 43.285 23.622, 43.716 23.976 C 45.210 25.203, 80.091 41.242, 80.460 40.872 C 80.978 40.352, 89 9.659, 89 8.195 C 89 7.538, 88.662 7.024, 88.250 7.053 C 87.838 7.082, 77.472 10.757, 65.216 15.219 M 30.646 22.012 C 31.826 23.235, 33.401 24.031, 34.146 23.779 C 34.963 23.504, 34.112 22.622, 32 21.556 L 28.500 19.789 30.646 22.012 M 36 25.991 C 34.793 26.765, 36.673 29.128, 45.626 38.096 L 56.751 49.240 68.126 47.870 C 75.991 46.923, 79.500 46.105, 79.500 45.219 C 79.500 44.061, 40.873 25.045, 38.500 25.035 C 37.950 25.033, 36.825 25.463, 36 25.991 M 117.441 31.122 C 118.846 42.490, 118.554 42.023, 123.806 41.303 L 128.465 40.664 124.217 45.491 C 120.652 49.540, 120.054 50.814, 120.500 53.408 C 120.791 55.109, 121.698 61.412, 122.514 67.415 C 123.330 73.419, 124.119 78.452, 124.267 78.600 C 124.415 78.749, 127.003 77.334, 130.018 75.458 C 139.906 69.302, 140.253 70.717, 131.948 83.318 L 125.896 92.500 127.102 101.333 L 128.307 110.165 131.403 109.649 C 133.106 109.365, 136.318 108.854, 138.541 108.513 L 142.582 107.895 145.511 114.197 C 147.121 117.664, 148.521 120.643, 148.620 120.817 C 148.882 121.277, 181.345 110.833, 182.325 109.973 C 183.549 108.900, 156.300 58.150, 152.095 53.671 C 149.050 50.427, 122.300 29.075, 118.139 26.565 C 117.027 25.895, 116.899 26.731, 117.441 31.122 M 119.500 45 C 119.160 45.550, 119.359 46, 119.941 46 C 120.523 46, 121 45.550, 121 45 C 121 44.450, 120.802 44, 120.559 44 C 120.316 44, 119.840 44.450, 119.500 45 M 103.500 46.433 L 94.500 47.604 102.933 51.795 L 111.366 55.986 114.142 52.743 C 115.669 50.959, 116.937 48.487, 116.959 47.250 C 117.006 44.667, 117.059 44.671, 103.500 46.433 M 83.750 48.716 C 82.237 48.945, 80.997 49.665, 80.994 50.316 C 80.991 50.967, 80.521 53.184, 79.950 55.242 L 78.911 58.984 72.984 55.992 C 69.724 54.346, 66.815 53, 66.520 53 C 65.964 53, 58 69.770, 58 70.942 C 58 71.306, 69.433 75.351, 83.407 79.931 L 108.814 88.258 114.907 84.556 C 121.937 80.286, 121.693 81.387, 119.318 64.588 L 117.634 52.676 114.891 55.961 L 112.148 59.247 100.176 53.623 C 93.591 50.531, 87.820 48.067, 87.352 48.150 C 86.883 48.232, 85.263 48.487, 83.750 48.716 M 69 50.480 C 69 51.387, 76.753 54.914, 77.376 54.290 C 77.719 53.947, 78 52.842, 78 51.833 C 78 50.327, 77.197 50, 73.500 50 C 71.025 50, 69 50.216, 69 50.480 M 59.158 52.065 C 57.869 52.582, 56.479 52.796, 56.069 52.542 C 55.301 52.068, 16.012 56.655, 15.373 57.294 C 15.177 57.490, 23.822 60.485, 34.583 63.950 C 45.730 67.540, 54.520 69.874, 55.013 69.376 C 55.487 68.894, 57.683 64.563, 59.892 59.750 C 63.908 51, 63.831 50.193, 59.158 52.065 M 51.631 83.149 C 49.213 88.292, 44.286 98.663, 40.684 106.195 L 34.135 119.890 32.488 144.532 C 31.582 158.085, 30.995 169.328, 31.184 169.517 C 31.372 169.706, 34.855 161.679, 38.924 151.680 C 47.208 131.320, 71.876 81.793, 73.469 82.322 C 74.142 82.545, 74.674 96.232, 75 121.727 C 75.469 158.345, 75.619 160.923, 77.405 162.895 C 78.453 164.053, 79.690 165, 80.155 165 C 80.748 165, 122.488 133, 127.839 128.444 C 128.169 128.163, 126.126 113.752, 125.709 113.416 C 125.594 113.323, 118.525 114.326, 110 115.644 C 101.475 116.962, 93.994 117.919, 93.375 117.770 C 92.756 117.622, 99.191 111.477, 107.675 104.116 C 122.602 91.165, 123.079 90.632, 122.433 87.616 C 122.066 85.902, 121.620 84.339, 121.442 84.142 C 121.263 83.945, 118.409 85.429, 115.099 87.440 L 109.081 91.095 83.791 82.916 C 69.881 78.418, 57.944 74.526, 57.264 74.267 C 56.495 73.974, 54.371 77.322, 51.631 83.149 M 127.750 79.758 C 125.584 81.101, 125.005 82.210, 125.022 84.982 L 125.044 88.500 126.915 86.066 C 129.894 82.190, 132.184 77.998, 131.307 78.027 C 130.863 78.041, 129.262 78.820, 127.750 79.758 M 111.602 104.192 C 105.799 109.248, 101.223 113.556, 101.434 113.767 C 101.644 113.977, 107.033 113.366, 113.408 112.407 C 124.759 110.701, 125 110.611, 124.991 108.082 C 124.974 103.051, 123.710 95, 122.937 95 C 122.506 95, 117.405 99.136, 111.602 104.192 M 133.739 111.959 C 131.670 112.361, 129.721 112.946, 129.406 113.260 C 128.676 113.991, 129.942 124.289, 130.967 125.947 C 131.568 126.920, 133.174 126.693, 138.121 124.939 C 141.630 123.694, 144.793 122.412, 145.152 122.088 C 145.511 121.765, 144.749 119.138, 143.459 116.250 C 140.973 110.686, 140.770 110.596, 133.739 111.959 M 139.742 127.165 L 133.983 129.172 155.151 151.086 C 166.793 163.139, 176.443 173, 176.595 173 C 176.746 173, 170.375 162.588, 162.435 149.862 C 154.496 137.136, 148 126.336, 148 125.862 C 148 124.621, 146.248 124.897, 139.742 127.165" stroke="none" fill="black" fill-rule="evenodd"/>
</svg>