<svg xmlns="http://www.w3.org/2000/svg" width="200" height="200" viewBox="0 0 200 200" version="1.1">
	<path d="M 121 13.616 C 104.775 14.346, 76.739 15.578, 58.699 16.356 C 40.658 17.133, 25.673 17.994, 25.398 18.268 C 25.124 18.543, 26.834 22.700, 29.200 27.507 L 33.500 36.246 50.500 35.690 C 62.965 35.283, 66.433 35.404, 63.500 36.144 C 61.300 36.700, 58.901 37.345, 58.169 37.577 C 57.397 37.822, 61.093 41.641, 66.959 46.660 C 72.525 51.423, 76.724 55.668, 76.290 56.093 C 75.855 56.518, 68.750 59.363, 60.500 62.414 L 45.500 67.962 38.326 62.981 C 34.380 60.241, 30.766 58, 30.294 58 C 29.822 58, 25.947 62.275, 21.682 67.500 C 17.417 72.725, 14.333 77, 14.830 77 C 15.326 77, 21.703 75.875, 29 74.500 C 36.297 73.125, 42.384 72, 42.527 72 C 42.671 72, 43.103 75.982, 43.488 80.849 L 44.188 89.697 30.208 124.341 L 16.227 158.984 19.863 159.961 C 32.827 163.445, 53.326 168.007, 53.816 167.518 C 54.137 167.197, 52.754 149.602, 50.744 128.419 L 47.088 89.904 50.246 81.836 C 53.299 74.037, 53.341 73.723, 51.525 72.394 C 50.491 71.639, 49.838 70.871, 50.073 70.688 C 50.308 70.506, 58.696 68.872, 68.714 67.059 L 86.929 63.761 94.214 70.022 C 98.221 73.466, 101.624 76.593, 101.776 76.971 C 101.929 77.349, 99.556 79.648, 96.504 82.079 C 91.653 85.944, 76 106.194, 76 108.605 C 76 109.030, 78.513 114.728, 81.585 121.267 L 87.169 133.157 82.154 140.751 L 77.139 148.345 94.712 166.422 C 104.377 176.365, 112.784 184.353, 113.393 184.174 C 114.457 183.861, 171.082 152.137, 171.900 151.396 C 172.120 151.197, 165.848 147.969, 157.963 144.222 L 143.626 137.411 155.813 129.579 C 162.516 125.272, 168 121.512, 168 121.225 C 168 120.937, 164.512 117.443, 160.250 113.459 L 152.500 106.216 162.500 96.787 C 168 91.601, 174.053 85.985, 175.950 84.306 L 179.401 81.253 175.071 49.876 C 172.689 32.619, 170.574 18.313, 170.370 18.083 C 169.832 17.477, 170.429 16.421, 156.012 43.500 C 148.692 57.250, 142.611 68.621, 142.499 68.769 C 142.387 68.916, 136.364 66.104, 129.113 62.519 C 121.863 58.933, 115.159 56.003, 114.215 56.007 C 113.272 56.011, 106.875 57.104, 100 58.436 C 87.713 60.817, 87.467 60.826, 85.556 58.957 C 84.486 57.911, 83.811 56.902, 84.056 56.713 C 84.973 56.007, 143.561 34.749, 144.925 34.627 C 145.878 34.542, 146.883 36.628, 147.958 40.928 C 148.842 44.463, 150.113 47.538, 150.783 47.761 C 151.452 47.984, 151.992 47.567, 151.983 46.833 C 151.951 44.384, 148.142 30.742, 147.237 29.837 C 146.713 29.313, 137.404 32.204, 124.714 36.831 L 103.083 44.718 101.983 39.109 C 101.377 36.024, 100.709 32.969, 100.499 32.319 C 100.251 31.555, 103.539 30.380, 109.808 28.993 C 133.355 23.784, 169.405 14.285, 169.768 13.195 C 170.262 11.715, 161.636 11.790, 121 13.616 M 87 17.750 C 55.375 19.117, 29.366 20.355, 29.201 20.500 C 29.037 20.645, 30.372 23.745, 32.169 27.388 L 35.435 34.011 39.967 33.526 C 42.460 33.260, 54.400 32.548, 66.500 31.945 C 87.158 30.915, 89.842 30.546, 110.500 25.906 C 122.600 23.187, 137.450 19.662, 143.500 18.072 C 157.071 14.506, 161.448 14.531, 87 17.750 M 156.627 48.173 C 149.460 61.488, 145.169 70.482, 145.801 70.865 C 146.376 71.214, 151.803 74.192, 157.859 77.481 C 163.915 80.771, 168.743 83.590, 168.587 83.746 C 168.286 84.048, 138.320 87.997, 136.319 87.999 C 135.670 87.999, 130.619 96.448, 125.095 106.774 C 114.055 127.410, 112.527 129.860, 111.402 128.736 C 110.682 128.016, 125.262 89.841, 127.224 87.309 C 127.731 86.655, 129.351 85.980, 130.823 85.809 C 133.005 85.557, 134.182 84.206, 137.190 78.500 L 140.879 71.500 128.690 65.302 C 121.985 61.893, 115.375 59.082, 114 59.055 C 111.176 59, 92.098 62.569, 91.381 63.286 C 91.124 63.542, 94.309 66.607, 98.457 70.096 C 102.606 73.585, 106 76.747, 106 77.123 C 106 77.500, 103.260 79.988, 99.911 82.654 C 92.096 88.873, 78.640 107.268, 79.613 110.402 C 79.971 111.556, 81.927 115.875, 83.960 120 C 90.895 134.070, 90.805 132.814, 85.460 140.852 L 80.764 147.913 96.594 164.457 C 105.300 173.555, 112.777 181, 113.209 181 C 114.733 181, 165.944 151.718, 165.546 151.074 C 165.323 150.714, 159.272 147.738, 152.097 144.460 C 144.923 141.182, 139.041 138.209, 139.026 137.853 C 139.012 137.497, 144.706 133.514, 151.681 129.001 L 164.361 120.796 156.431 113.528 L 148.500 106.261 158 97.335 C 163.225 92.426, 169.505 86.568, 171.955 84.318 L 176.411 80.227 173.037 55.363 C 171.181 41.689, 169.401 29.513, 169.081 28.308 C 168.629 26.600, 165.873 30.995, 156.627 48.173 M 77.588 36.058 C 69.936 37.671, 63.514 39.153, 63.316 39.351 C 63.118 39.549, 66.963 43.137, 71.860 47.326 L 80.764 54.941 90.880 51.251 C 98.479 48.480, 100.889 47.181, 100.567 46.031 C 100.331 45.189, 99.625 41.913, 98.998 38.750 C 97.893 33.173, 97.762 33.002, 94.679 33.063 C 92.931 33.097, 85.239 34.445, 77.588 36.058 M 69.787 61.760 C 64.444 63.766, 60.195 65.529, 60.344 65.678 C 60.493 65.826, 65.898 64.924, 72.355 63.672 C 83.534 61.505, 84.006 61.315, 82.219 59.698 C 81.187 58.764, 80.153 58.026, 79.921 58.057 C 79.690 58.088, 75.129 59.755, 69.787 61.760 M 25.435 67.186 L 20.610 73.328 24.055 72.628 C 25.950 72.244, 30.538 71.403, 34.250 70.761 C 37.962 70.118, 41 69.256, 41 68.844 C 41 68.213, 35.224 63.919, 31.381 61.692 C 30.741 61.321, 28.192 63.677, 25.435 67.186 M 45.871 77.749 L 46.242 83.500 48.361 79.162 C 50.448 74.888, 50.451 74.803, 48.549 73.412 C 47.487 72.635, 46.366 71.999, 46.059 71.999 C 45.751 71.998, 45.667 74.585, 45.871 77.749 M 140 79 C 138.164 82.637, 137.443 85, 138.168 85 C 140.417 85, 157.497 82.839, 158.963 82.369 C 159.816 82.095, 157.012 80.045, 152.235 77.450 C 147.731 75.002, 143.816 73, 143.537 73 C 143.257 73, 141.666 75.700, 140 79 M 127.124 94.157 C 124.344 100.846, 124.957 101.332, 128.338 95.120 C 131.217 89.830, 131.461 89, 130.133 89 C 129.657 89, 128.302 91.321, 127.124 94.157 M 32.783 125.351 C 26.339 141.383, 20.939 155.116, 20.783 155.869 C 20.578 156.859, 24.719 158.268, 35.750 160.964 L 51 164.691 51 162.219 C 51 159.239, 45.031 96.690, 44.719 96.403 C 44.598 96.292, 39.227 109.318, 32.783 125.351" stroke="none" fill="black" fill-rule="evenodd"/>
</svg>