<svg xmlns="http://www.w3.org/2000/svg" width="200" height="200" viewBox="0 0 200 200" version="1.1">
	<path d="M 113.392 12.750 C 115.402 19.421, 120.088 41.245, 119.613 41.721 C 119.120 42.213, 105.223 38.951, 90.750 34.944 C 87.017 33.911, 87 33.882, 87 28.589 L 87 23.272 82.750 22.722 C 80.412 22.420, 70.268 21.365, 60.207 20.378 L 41.915 18.584 36.503 24.542 C 33.527 27.819, 31.071 30.767, 31.046 31.093 C 31.021 31.419, 36.598 36.369, 43.441 42.093 C 50.283 47.817, 55.345 52.623, 54.691 52.774 C 54.036 52.924, 42.475 52.404, 29 51.618 C 15.525 50.832, 4.364 50.320, 4.197 50.480 C 4.031 50.641, 5.526 51.780, 7.520 53.013 C 9.514 54.245, 11.523 56.246, 11.985 57.460 C 12.512 58.847, 17.179 62.144, 24.543 66.333 C 30.988 70, 36.626 73, 37.072 73 C 39.728 73, 38.249 70.785, 33.480 67.618 C 30.466 65.617, 28 63.793, 28 63.564 C 28 63.117, 52.957 69.624, 53.562 70.229 C 53.762 70.429, 50.184 77.331, 45.611 85.566 L 37.297 100.540 29.648 136.295 C 25.442 155.961, 22 172.715, 22 173.526 C 22 177.013, 25.108 174.110, 34.500 161.848 C 40 154.667, 45.249 147.601, 46.164 146.146 C 47.091 144.672, 50.960 127.823, 54.901 108.096 C 58.792 88.623, 62.097 72.570, 62.246 72.421 C 62.985 71.682, 75.261 75.799, 76.054 77.053 C 76.557 77.849, 76.976 81.695, 76.985 85.599 C 76.993 89.504, 77.296 96.203, 77.658 100.487 C 78.276 107.789, 78.501 108.375, 81.268 109.887 C 88.407 113.788, 88.292 113.392, 85.363 124 C 82.993 132.587, 82.834 134.221, 83.717 141 L 84.693 148.500 75.787 166.358 C 70.889 176.179, 67.081 184.414, 67.324 184.657 C 67.567 184.900, 82.970 177.830, 101.553 168.945 L 135.339 152.791 156.717 162.048 C 170.147 167.863, 178.447 170.953, 179.041 170.359 C 179.957 169.443, 160.359 144.145, 152.245 135.768 C 150.257 133.716, 148.826 131.883, 149.065 131.694 C 149.304 131.506, 153.212 128.767, 157.748 125.608 C 162.639 122.203, 166.206 118.977, 166.513 117.683 C 170.605 100.428, 178.872 58.501, 178.282 58 C 177.852 57.635, 171.884 55.882, 165.021 54.105 C 158.157 52.329, 152.356 50.689, 152.129 50.462 C 151.902 50.236, 152.666 49.251, 153.826 48.275 C 154.986 47.299, 161.310 41.775, 167.880 36 C 177.218 27.791, 179.462 25.344, 178.162 24.786 C 176.450 24.051, 115.545 11, 113.826 11 C 113.298 11, 113.102 11.787, 113.392 12.750 M 117.046 15.429 C 117.071 16.018, 118.551 22.559, 120.334 29.964 L 123.576 43.428 133.538 46.139 C 139.017 47.630, 144.724 48.884, 146.221 48.925 C 149.889 49.026, 175.576 26.730, 172.466 26.144 C 171.385 25.940, 158.463 23.205, 143.750 20.065 C 127.765 16.654, 117.018 14.788, 117.046 15.429 M 38.810 26.227 C 36.575 28.896, 34.988 31.322, 35.284 31.617 C 39.951 36.284, 60.936 52.960, 62.164 52.977 C 63.255 52.992, 65.624 49.643, 69.047 43.250 C 75.920 30.411, 75.296 31.034, 80.064 32.244 C 82.268 32.804, 84.227 33.090, 84.417 32.881 C 84.607 32.671, 84.540 31.033, 84.267 29.240 C 83.667 25.306, 84.753 25.589, 61.187 23.217 L 42.874 21.373 38.810 26.227 M 71.944 43.698 C 69.136 48.908, 66.987 53.298, 67.169 53.453 C 67.621 53.839, 123.430 56.900, 123.774 56.559 C 123.924 56.409, 123.741 55.490, 123.368 54.516 C 122.738 52.876, 121.358 52.798, 104.480 53.461 L 86.272 54.175 85.569 45.192 L 84.866 36.209 80.959 35.217 L 77.051 34.226 71.944 43.698 M 88.011 40.354 C 88.017 42.084, 88.312 45.255, 88.666 47.401 L 89.311 51.301 105.301 50.672 C 114.096 50.325, 121.547 49.786, 121.860 49.473 C 122.173 49.160, 121.954 48.138, 121.373 47.202 C 120.667 46.064, 114.959 44.125, 104.158 41.354 L 88 37.207 88.011 40.354 M 125 48.421 C 125 49.667, 126.106 49.987, 130.250 49.937 C 135.695 49.871, 134.981 49.019, 128.250 47.550 C 125.656 46.984, 125 47.160, 125 48.421 M 131.687 52.741 C 126.864 53.042, 125.929 53.393, 126.199 54.802 C 126.601 56.903, 131.977 57.570, 155 58.377 L 171.500 58.954 158.500 55.504 C 151.350 53.606, 143.700 52.126, 141.500 52.216 C 139.300 52.305, 134.884 52.541, 131.687 52.741 M 17.239 56.361 C 21.114 58.744, 54.176 67.638, 55.660 66.697 C 56.880 65.923, 61.498 57.160, 60.957 56.645 C 60.410 56.124, 25.628 53.980, 18.500 54.028 L 13.500 54.062 17.239 56.361 M 64.115 62.677 C 63.450 66.287, 63.040 69.343, 63.203 69.469 C 63.366 69.596, 66.313 70.392, 69.750 71.238 L 76 72.777 76 66.388 L 76 60 97.667 60 C 109.583 60, 119.146 59.828, 118.917 59.617 C 118.687 59.407, 107.700 58.713, 94.500 58.075 C 81.300 57.437, 69.336 56.735, 67.912 56.515 C 65.446 56.134, 65.268 56.422, 64.115 62.677 M 174 61 C 174 61.636, 166.194 62, 152.582 62 C 140.802 62, 130.531 62.243, 129.757 62.540 C 127.607 63.365, 130.803 77, 133.146 77 C 134.553 77, 134.869 78.492, 135.212 86.750 C 135.609 96.310, 134.839 100.637, 132.950 99.469 C 132.427 99.146, 132.015 97.221, 132.033 95.191 C 132.052 93.161, 130.589 85.089, 128.783 77.253 L 125.500 63.006 116.191 63.003 C 111.071 63.001, 107.106 63.363, 107.381 63.807 C 107.894 64.637, 103.475 80.859, 102.458 81.875 C 102.146 82.188, 97.234 81.219, 91.542 79.722 C 85.851 78.225, 80.749 77, 80.205 77 C 79.232 77, 79.486 93.616, 80.598 102.718 C 81.067 106.556, 81.559 107.179, 86.057 109.627 C 88.775 111.107, 91 112.721, 91 113.213 C 91 113.705, 89.875 118.110, 88.500 123 C 85.940 132.104, 85.536 137.454, 86.876 144.500 C 87.576 148.180, 87.013 149.754, 79.838 164.200 L 72.039 179.899 85.269 173.612 C 92.546 170.154, 106.729 163.370, 116.787 158.535 L 135.074 149.746 153.787 157.766 C 164.079 162.178, 172.642 165.655, 172.816 165.495 C 173.306 165.040, 152.649 139.921, 148.604 136.054 C 146.622 134.158, 145 132.316, 145 131.960 C 145 131.603, 149.181 128.348, 154.290 124.727 L 163.580 118.141 169.357 90.821 C 172.535 75.794, 175.359 62.712, 175.635 61.750 C 175.910 60.788, 175.654 60, 175.067 60 C 174.480 60, 174 60.450, 174 61 M 79 68.377 L 79 73.753 89.627 76.416 C 95.472 77.881, 100.437 78.897, 100.659 78.674 C 101.125 78.208, 105 64.888, 105 63.753 C 105 63.339, 99.150 63, 92 63 L 79 63 79 68.377 M 59.624 65.539 C 59.281 66.432, 59.029 67.689, 59.063 68.332 C 59.098 68.974, 59.558 68.422, 60.085 67.105 C 60.612 65.787, 60.864 64.531, 60.645 64.312 C 60.426 64.093, 59.966 64.645, 59.624 65.539 M 56.263 72.250 C 55.724 72.938, 51.799 79.896, 47.543 87.714 L 39.804 101.928 32.902 134.098 C 29.106 151.791, 26 166.712, 26 167.256 C 26 168.068, 42.073 147.958, 44.219 144.461 C 44.924 143.314, 59 74.714, 59 72.429 C 59 70.667, 57.580 70.573, 56.263 72.250" stroke="none" fill="black" fill-rule="evenodd"/>
</svg>