<svg xmlns="http://www.w3.org/2000/svg" width="200" height="200" viewBox="0 0 200 200" version="1.1">
	<path d="M 100 15.568 C 70.575 16.838, 43.800 18.017, 40.501 18.188 L 34.501 18.500 31.617 25.783 C 30.030 29.788, 28.938 33.271, 29.189 33.523 C 29.441 33.774, 40.864 33.609, 54.573 33.155 C 68.283 32.701, 79.635 32.429, 79.801 32.549 C 79.966 32.670, 77.942 37.116, 75.302 42.430 L 70.503 52.092 66.813 51.468 C 63.352 50.884, 62.971 51.086, 60.675 54.723 L 58.227 58.600 46.200 60.800 C 38.980 62.121, 30.165 63, 24.146 63 C 14.872 63, 11.538 63.881, 13.488 65.817 C 13.867 66.192, 23.137 66.363, 34.088 66.196 C 46.581 66.006, 54 66.257, 54 66.869 C 54 67.406, 46.751 81.678, 37.891 98.585 L 21.781 129.325 33.141 157.750 C 43.069 182.593, 45.945 188.451, 47.441 186.874 C 48.221 186.051, 53.311 105.977, 52.627 105.293 C 52.222 104.889, 51.558 105.096, 51.152 105.754 C 50.745 106.413, 49.333 123.166, 48.015 142.984 C 46.696 162.803, 45.296 178.676, 44.903 178.259 C 44.510 177.841, 39.828 166.700, 34.498 153.500 L 24.807 129.500 41.310 98 C 56.272 69.441, 58.065 66.469, 60.515 66.173 C 62.002 65.993, 63.056 66.233, 62.859 66.706 C 62.662 67.179, 59.913 72.578, 56.750 78.703 C 53.588 84.828, 51 90.325, 51 90.920 C 51 94.175, 53.601 90.647, 59.604 79.250 C 63.297 72.237, 66.496 66.288, 66.714 66.029 C 67.605 64.966, 68.802 69, 74.948 93.791 L 81.385 119.755 87.339 120.378 C 90.614 120.720, 96.715 121.049, 100.897 121.109 C 105.079 121.168, 111.200 121.532, 114.500 121.917 C 122.889 122.896, 120.094 123.443, 91.036 126.512 C 77.580 127.933, 66.447 129.219, 66.296 129.371 C 66.145 129.522, 71.304 141.522, 77.760 156.037 L 89.500 182.428 95 182.158 C 121.810 180.845, 185.419 176.914, 185.785 176.548 C 186.039 176.294, 180.567 168.454, 173.624 159.127 C 166.681 149.800, 161 141.518, 161 140.723 C 161 139.928, 165.724 127.627, 171.499 113.389 C 177.273 99.150, 181.998 87.115, 181.999 86.645 C 182.002 84.388, 159.492 16.123, 158.956 16.764 C 158.616 17.169, 155.295 25.825, 151.575 36 C 147.855 46.175, 144.689 54.628, 144.539 54.784 C 144.388 54.940, 133.074 54.355, 119.396 53.483 C 105.718 52.612, 93.395 51.969, 92.013 52.055 C 90.631 52.142, 87.058 52.164, 84.074 52.106 L 78.648 52 91.074 43.512 C 97.908 38.844, 104.187 35.019, 105.027 35.012 C 105.868 35.005, 107.443 35.597, 108.527 36.327 C 109.612 37.056, 114.828 39.965, 120.117 42.790 L 129.735 47.927 136.617 39.300 C 140.403 34.555, 143.878 30.039, 144.340 29.264 C 145.051 28.073, 142.767 27.906, 129.471 28.178 L 113.762 28.500 116.835 26 C 119.258 24.029, 123.569 22.748, 137.200 19.948 C 150.906 17.132, 154.561 16.043, 154.820 14.698 C 155 13.764, 154.776 13.058, 154.323 13.129 C 153.870 13.200, 129.425 14.297, 100 15.568 M 84 19.055 C 61.725 20.039, 41.855 20.879, 39.844 20.922 C 36.407 20.995, 36.093 21.279, 34.597 25.670 C 33.722 28.238, 33.155 30.488, 33.336 30.670 C 33.518 30.852, 44.506 30.704, 57.753 30.342 L 81.839 29.685 83.571 25.842 C 84.524 23.729, 85.761 22, 86.319 22 C 86.877 22, 90.199 23.575, 93.701 25.500 C 102.441 30.304, 105.990 30.184, 113.584 24.827 C 118.100 21.641, 121.393 20.246, 127.500 18.929 L 135.500 17.204 130 17.235 C 126.975 17.252, 106.275 18.071, 84 19.055 M 86.574 26.668 C 85.728 28.873, 86.261 29.194, 90.154 28.818 L 93.500 28.495 90.347 26.772 C 87.465 25.197, 87.142 25.188, 86.574 26.668 M 149.500 49.565 C 144.550 63.057, 140.352 74.519, 140.171 75.035 C 139.990 75.552, 141.471 76.936, 143.463 78.111 C 148.191 80.900, 147.533 82.586, 141.872 82.189 L 137.439 81.879 135.560 87.189 C 134.527 90.110, 133.480 93.063, 133.234 93.750 C 132.932 94.593, 133.895 95, 136.194 95 C 139.242 95, 139.832 94.525, 141.788 90.500 C 142.990 88.025, 144.655 86, 145.487 86 C 146.319 86, 147 86.168, 147 86.374 C 147 87.957, 143.689 95.702, 142.672 96.500 C 141.552 97.377, 130 118.396, 130 119.555 C 130 119.800, 133.573 120, 137.941 120 C 145.046 120, 148.324 121.009, 146.651 122.682 C 146.349 122.984, 141.764 123.742, 136.463 124.366 L 126.824 125.500 117.454 143.500 C 112.301 153.400, 107.503 161.500, 106.792 161.500 C 105.073 161.500, 104.970 161.870, 111.929 143.089 C 115.274 134.062, 117.896 126.596, 117.755 126.497 C 117.465 126.291, 70.633 131.208, 70.251 131.484 C 70.114 131.583, 74.806 142.566, 80.678 155.890 L 91.353 180.116 94.927 179.602 C 96.892 179.319, 116.725 178.099, 139 176.890 C 161.275 175.681, 179.809 174.424, 180.186 174.096 C 180.564 173.768, 175.553 166.306, 169.051 157.513 C 159.488 144.580, 157.386 141.142, 158.048 139.513 C 169.848 110.476, 179 87.348, 179 86.565 C 179 84.807, 159.605 24.999, 159.041 25.017 C 158.743 25.027, 154.450 36.073, 149.500 49.565 M 108.226 31.839 C 107.378 32.377, 110.385 34.460, 117.226 38.074 C 122.877 41.058, 127.950 43.623, 128.500 43.773 C 129.351 44.005, 136.070 36.169, 138.381 32.250 C 138.957 31.273, 135.886 31.003, 124.309 31.015 C 116.164 31.024, 108.927 31.394, 108.226 31.839 M 83.237 33.250 C 81.838 34.985, 73.802 51.150, 74.187 51.455 C 74.719 51.876, 100.987 33.547, 100.993 32.750 C 101.005 31.416, 84.337 31.886, 83.237 33.250 M 63.638 55.500 C 63.033 57.078, 64.643 57.458, 67.418 56.393 C 69.812 55.474, 69.312 54, 66.607 54 C 65.291 54, 63.955 54.675, 63.638 55.500 M 80.261 57.078 C 69.448 59.174, 69.023 59.372, 69.711 62.001 C 70.215 63.928, 71.078 64, 93.777 64 L 117.320 64 126.595 69 C 131.696 71.750, 136.248 74, 136.709 74 C 137.753 74, 143.388 59.055, 142.629 58.296 C 142.325 57.992, 133.847 57.371, 123.788 56.915 C 113.730 56.460, 101.900 55.907, 97.500 55.687 C 92.348 55.430, 86.211 55.925, 80.261 57.078 M 61.750 60.689 C 59.446 61.291, 59.487 64, 61.800 64 C 63.655 64, 66 62.213, 66 60.800 C 66 59.960, 64.673 59.925, 61.750 60.689 M 50.500 63 C 48.888 63.693, 49.216 63.873, 52.191 63.930 C 54.221 63.968, 56.160 63.550, 56.500 63 C 57.246 61.793, 53.308 61.793, 50.500 63 M 71.014 66.607 C 71.033 67.826, 83.814 117.158, 84.195 117.486 C 84.363 117.629, 92.660 118.064, 102.632 118.452 L 120.765 119.157 123.745 111.329 C 128.802 98.044, 128.746 98.644, 124.859 99.328 C 123.012 99.653, 118.730 100.216, 115.345 100.578 L 109.190 101.237 94.592 89.455 C 86.563 82.975, 80.108 77.581, 80.247 77.468 C 80.386 77.356, 88.600 77.626, 98.500 78.068 C 123.276 79.174, 136 79.174, 136 78.068 C 136 77.556, 131.838 74.891, 126.750 72.146 L 117.500 67.156 94.250 66.435 C 80.728 66.015, 71.006 66.087, 71.014 66.607 M 88.500 80.834 C 89.050 81.378, 94 85.498, 99.500 89.989 L 109.500 98.155 116 97.537 C 130.022 96.203, 129.315 96.567, 131.903 89.349 C 133.178 85.795, 134.056 82.722, 133.854 82.521 C 133.652 82.319, 124.715 81.873, 113.994 81.530 C 103.272 81.187, 92.925 80.667, 91 80.375 C 88.688 80.025, 87.839 80.180, 88.500 80.834 M 131.569 98.889 C 131.267 99.378, 129.425 103.955, 127.477 109.060 C 124.782 116.123, 124.235 118.527, 125.189 119.117 C 125.878 119.543, 126.495 119.803, 126.560 119.696 C 126.624 119.588, 129.249 114.662, 132.393 108.750 L 138.109 98 135.113 98 C 133.466 98, 131.871 98.400, 131.569 98.889 M 119.662 130.177 C 117.503 135.674, 118.306 136.281, 120.930 131.137 C 123.233 126.623, 123.381 126, 122.152 126 C 121.685 126, 120.565 127.880, 119.662 130.177" stroke="none" fill="black" fill-rule="evenodd"/>
</svg>