<svg xmlns="http://www.w3.org/2000/svg" width="200" height="200" viewBox="0 0 200 200" version="1.1">
	<path d="M 131.687 15 C 130.847 16.925, 126.156 27.837, 121.262 39.248 L 112.363 59.997 101.872 46.717 C 91.530 33.625, 91.277 33.393, 83.941 30.301 C 79.848 28.576, 72.739 25.549, 68.142 23.574 L 59.783 19.983 60.499 29.991 C 60.893 35.496, 60.934 40, 60.590 40 C 60.245 40, 55.514 37.767, 50.074 35.037 C 43.339 31.657, 40.028 30.461, 39.691 31.287 C 39.418 31.954, 33.726 45.502, 27.041 61.393 C 20.355 77.284, 15.249 90.603, 15.693 90.990 C 16.137 91.378, 23.643 94.796, 32.373 98.585 C 41.102 102.374, 48.466 106.051, 48.736 106.754 C 49.006 107.458, 42.139 116.829, 33.475 127.578 C 23.904 139.455, 18.084 147.484, 18.642 148.042 C 19.200 148.600, 25.511 144.456, 34.725 137.480 C 43.066 131.166, 50.140 126, 50.445 126 C 51.629 126, 50.924 130.338, 49.570 131.390 C 47.554 132.955, 15.832 179.166, 16.391 179.724 C 16.643 179.977, 25.546 176.409, 36.175 171.795 C 55.078 163.591, 55.499 163.343, 55.453 160.454 C 55.428 158.829, 55.058 152.213, 54.631 145.750 L 53.856 134 62.348 134 C 70.819 134, 70.842 134.007, 71.368 136.750 C 71.657 138.263, 73.103 151.650, 74.580 166.500 C 77.066 191.503, 77.936 196.398, 79.595 194.738 C 80.181 194.152, 86.930 147.569, 86.978 143.777 C 86.995 142.445, 89.637 143.648, 98.642 149.086 C 106.123 153.604, 110.628 155.772, 111.249 155.151 C 112.341 154.059, 112.309 154.037, 96.500 144.583 L 85.500 138.006 84.848 140.753 C 84.489 142.264, 83.169 151.495, 81.915 161.268 C 80.661 171.040, 79.337 178.690, 78.972 178.268 C 78.607 177.845, 77.549 169.625, 76.620 160 C 75.692 150.375, 74.671 140.588, 74.353 138.250 L 73.773 134 104.699 134 L 135.625 134 154.269 147.210 C 164.523 154.476, 172.802 160.531, 172.667 160.666 C 172.532 160.802, 166.031 159.163, 158.220 157.026 C 147.367 154.055, 141.028 151.594, 131.327 146.586 C 124.346 142.981, 118.508 140.159, 118.353 140.314 C 118.069 140.598, 123.683 182.579, 124.563 186.750 C 124.824 187.987, 125.617 189, 126.324 189 C 127.322 189, 126.989 184.575, 124.835 169.250 C 123.309 158.387, 122.047 148.484, 122.030 147.242 C 122.002 145.096, 122.535 145.252, 132.761 150.380 C 145.060 156.548, 179.534 166.866, 181.448 164.952 C 182.162 164.238, 182.149 163.697, 181.407 163.208 C 180.815 162.819, 170.425 155.420, 158.318 146.767 L 136.305 131.034 110.444 130.767 L 84.583 130.500 94.089 126.739 L 103.594 122.978 120.497 100.945 L 137.400 78.912 143.741 95.206 C 147.229 104.168, 152.427 117.518, 155.292 124.873 C 158.156 132.228, 160.950 138.199, 161.500 138.142 C 163.156 137.972, 163.923 122.207, 163.867 89.500 C 163.831 68.495, 164.292 54.148, 165.297 45 C 167.498 24.959, 166.533 24.902, 156.762 44.500 C 152.785 52.475, 149.285 59, 148.983 59 C 148.681 59, 146.023 51.250, 143.077 41.778 C 140.130 32.306, 136.705 21.618, 135.466 18.028 L 133.214 11.500 131.687 15 M 125.545 36.250 C 121.745 45.188, 117.359 55.373, 115.799 58.885 L 112.963 65.270 106.450 56.885 C 89.300 34.805, 90.724 36.082, 76.628 30.128 C 69.633 27.174, 63.671 24.996, 63.379 25.288 C 63.086 25.581, 63.166 29.484, 63.557 33.961 L 64.267 42.103 69.759 44.880 L 75.251 47.657 70.627 50.579 C 67.644 52.464, 66.004 54.209, 66.004 55.500 C 66.004 59.103, 71.077 105.410, 71.520 105.853 C 71.989 106.322, 82.010 96.919, 102.707 76.587 C 113.055 66.422, 116.054 63.976, 116.558 65.290 C 116.988 66.412, 111.240 77.147, 99.186 97.733 C 89.277 114.655, 81.284 128.615, 81.424 128.755 C 81.563 128.895, 86.247 127.127, 91.833 124.825 L 101.990 120.641 119.745 97.376 C 129.510 84.581, 137.725 74.089, 138 74.060 C 138.275 74.031, 141.153 80.868, 144.396 89.253 C 147.638 97.639, 152.588 110.350, 155.396 117.500 L 160.500 130.500 161.123 90.500 C 161.466 68.500, 162.046 47.800, 162.412 44.500 L 163.078 38.500 156.011 52.292 C 152.124 59.877, 148.619 65.883, 148.222 65.637 C 147.825 65.391, 144.350 55.028, 140.500 42.608 C 136.650 30.188, 133.265 20.020, 132.978 20.013 C 132.691 20.006, 129.346 27.313, 125.545 36.250 M 30.217 60.789 C 24.048 75.523, 19 88.056, 19 88.640 C 19 89.503, 48.045 103.173, 48.693 102.614 C 48.798 102.523, 48.243 93.685, 47.458 82.974 C 45.671 58.609, 45.654 56, 47.277 56 C 48.049 56, 49.729 60.248, 51.527 66.750 L 54.500 77.500 54.786 67.740 L 55.073 57.980 59.106 55.311 C 62.238 53.239, 63.015 52.179, 62.583 50.571 C 62.278 49.432, 62.021 47.492, 62.014 46.259 C 62.002 44.427, 60.181 43.105, 52.018 39.009 C 46.528 36.254, 41.901 34, 41.735 34 C 41.570 34, 36.387 46.055, 30.217 60.789 M 65 48.535 C 65 50.760, 65.244 50.940, 67 50 C 69.407 48.712, 69.565 47.431, 67.418 46.607 C 65.083 45.711, 65 45.777, 65 48.535 M 60.250 57.731 C 58.092 59.182, 58 59.828, 58 73.563 C 58 82.626, 57.608 88.124, 56.933 88.541 C 55.368 89.508, 55.028 88.891, 52.395 80.313 L 49.997 72.500 50.586 86.500 C 50.951 95.187, 51.696 101.572, 52.548 103.326 C 53.589 105.466, 53.650 106.588, 52.799 107.949 C 52.025 109.190, 51.959 111.332, 52.588 114.859 L 53.500 119.970 60.750 114.368 C 67.423 109.212, 67.997 108.477, 67.962 105.133 C 67.912 100.454, 63.359 57.017, 62.870 56.563 C 62.667 56.374, 61.487 56.899, 60.250 57.731 M 102 81.280 C 97.875 85.266, 89.378 93.385, 83.118 99.321 L 71.737 110.115 72.618 120.299 C 73.298 128.155, 73.849 130.549, 75.025 130.772 C 76.073 130.970, 80.350 124.549, 88.674 110.280 C 95.341 98.851, 102.860 86.013, 105.381 81.750 C 107.903 77.487, 109.861 74.007, 109.733 74.016 C 109.605 74.025, 106.125 77.293, 102 81.280 M 60.750 117.667 C 55.154 121.818, 53 124.029, 53 125.626 C 53 130.613, 53.693 131, 62.616 131 L 71.017 131 70.378 125.250 C 70.026 122.088, 69.459 117.794, 69.119 115.710 L 68.500 111.920 60.750 117.667 M 42.118 121.093 C 27.788 139.004, 27.357 139.595, 30.149 137.494 C 31.606 136.397, 36.668 132.595, 41.399 129.044 L 50 122.589 50 117.794 C 50 115.157, 49.663 113.026, 49.250 113.058 C 48.837 113.090, 45.628 116.706, 42.118 121.093 M 36.846 153.694 C 29.337 164.587, 23.328 173.642, 23.494 173.815 C 23.660 173.988, 30.365 171.331, 38.393 167.910 L 52.990 161.690 52.364 151.595 C 52.019 146.043, 51.459 139.787, 51.119 137.694 L 50.500 133.889 36.846 153.694" stroke="none" fill="black" fill-rule="evenodd"/>
</svg>