<svg xmlns="http://www.w3.org/2000/svg" width="200" height="200" viewBox="0 0 200 200" version="1.1">
	<path d="M 47.666 6.750 C 47.417 7.162, 44.187 17.850, 40.489 30.500 C 36.790 43.150, 33.061 54.625, 32.201 56 C 31.341 57.375, 27.543 62.427, 23.761 67.226 L 16.884 75.953 26.388 91.726 L 35.892 107.500 27.506 143 C 22.261 165.202, 19.472 178.856, 20.060 179.450 C 20.654 180.050, 21.310 180.050, 21.841 179.450 C 22.507 178.698, 48.051 145.913, 48.407 145.354 C 48.458 145.274, 55.902 147.869, 64.949 151.121 C 73.996 154.373, 81.720 156.914, 82.113 156.767 C 82.507 156.620, 77.923 143.450, 71.927 127.500 C 65.931 111.550, 61.019 98.382, 61.012 98.239 C 61.006 98.095, 64.528 99.751, 68.839 101.919 C 76.280 105.660, 77.310 105.898, 89.089 106.585 C 108.216 107.702, 107.457 106.728, 98.677 118.888 L 91.210 129.228 103.062 143.824 C 109.580 151.852, 114.682 158.651, 114.400 158.933 C 114.118 159.216, 103 163.508, 89.693 168.473 C 76.387 173.438, 65.612 177.950, 65.750 178.500 C 65.908 179.137, 79.341 179.612, 102.750 179.808 L 139.500 180.116 162.250 175.884 C 174.762 173.557, 185 171.392, 185 171.074 C 185 170.755, 174.919 166.670, 162.598 161.997 C 150.276 157.324, 140.358 153.234, 140.558 152.909 C 140.758 152.584, 150.183 147.016, 161.503 140.535 C 172.823 134.054, 181.953 128.625, 181.792 128.471 C 181.631 128.317, 169.668 127.622, 155.207 126.928 C 137.230 126.064, 129.043 125.323, 129.320 124.582 C 129.543 123.987, 130.562 120.237, 131.584 116.250 L 133.443 109 149.471 108.888 C 158.287 108.827, 169.561 108.489, 174.525 108.138 L 183.551 107.500 177.364 77.659 C 172.439 53.904, 170.413 46.102, 167.430 39.409 C 165.370 34.784, 163.335 31, 162.910 31 C 162.484 31, 155.300 40.485, 146.944 52.077 C 133.401 70.868, 131.503 73.092, 129.449 72.577 C 127.697 72.137, 126.591 72.707, 124.823 74.961 C 123.545 76.590, 118 80.777, 112.500 84.265 C 99.344 92.607, 99.604 92.456, 100.228 91.405 C 100.523 90.907, 104.447 81.773, 108.948 71.108 C 113.723 59.792, 119.135 48.755, 121.941 44.608 C 126.571 37.766, 127.036 37.392, 134.376 34.618 C 148.250 29.372, 146.336 29, 105.500 29 C 85.425 29, 69.004 29.337, 69.009 29.750 C 69.014 30.163, 73.401 33.164, 78.759 36.420 C 84.117 39.676, 90.219 43.414, 92.320 44.727 L 96.140 47.113 77.957 59.611 C 67.957 66.485, 59.524 71.857, 59.217 71.550 C 58.718 71.051, 60.035 51.001, 61.667 34.250 C 62.163 29.164, 62.005 28, 60.819 28 C 59.637 28, 58.975 32.676, 57.315 52.750 C 56.189 66.363, 55.387 77.642, 55.532 77.815 C 55.968 78.334, 100 47.759, 100 46.938 C 100 46.521, 95.388 43.365, 89.750 39.925 C 84.112 36.485, 79.073 33.294, 78.550 32.835 C 78.028 32.376, 89.953 32.038, 105.050 32.084 L 132.500 32.169 128.392 34.060 C 122.117 36.950, 115.803 47.605, 104.517 74.354 C 99.213 86.923, 95.077 97.410, 95.324 97.658 C 96.137 98.470, 123.433 80.717, 126.209 77.571 C 132.270 70.701, 128.382 77.810, 118.876 90.977 C 110.202 102.993, 108.369 105, 106.076 105 C 104.604 105, 97.388 104.518, 90.040 103.929 C 76.895 102.875, 76.519 102.777, 66.735 97.867 C 61.265 95.122, 56.674 93.017, 56.533 93.188 C 56.391 93.360, 61.160 106.550, 67.131 122.500 C 73.101 138.450, 77.877 151.777, 77.743 152.116 C 77.609 152.455, 70.767 150.324, 62.537 147.379 C 54.307 144.435, 47.294 142.358, 46.951 142.763 C 46.609 143.168, 41.470 149.800, 35.530 157.500 C 29.591 165.200, 24.375 171.894, 23.940 172.376 C 23.505 172.857, 23.575 171.507, 24.096 169.376 C 24.617 167.244, 28.147 152.279, 31.940 136.120 L 38.838 106.739 29.497 91.417 L 20.156 76.096 27.903 66.298 L 35.650 56.500 42.825 32.258 C 46.771 18.924, 50 7.562, 50 7.008 C 50 5.835, 48.329 5.651, 47.666 6.750 M 155.690 44.554 C 145.562 58.318, 145.873 55.574, 152.337 74.147 C 155.439 83.062, 157.780 90.554, 157.538 90.795 C 157.296 91.037, 153.651 89.343, 149.437 87.030 C 145.223 84.717, 141.442 83.202, 141.036 83.662 C 140.277 84.522, 135 103.164, 135 104.986 C 135 105.641, 142.961 106, 157.500 106 C 171.690 106, 180 105.634, 180 105.009 C 180 104.465, 177.362 91.299, 174.138 75.751 C 169.684 54.273, 167.556 46.058, 165.274 41.546 L 162.272 35.609 155.690 44.554 M 138.048 69.048 C 135.705 72.388, 133.948 75.258, 134.144 75.425 C 134.340 75.592, 135.519 76.259, 136.765 76.908 C 139.323 78.239, 138.999 78.728, 141.546 69.676 C 142.448 66.473, 142.988 63.654, 142.746 63.413 C 142.505 63.172, 140.391 65.707, 138.048 69.048 M 145.769 65.565 C 145.211 66.467, 142 78.187, 142 79.319 C 142 79.611, 144.475 81.190, 147.500 82.829 C 150.525 84.467, 153 85.496, 153 85.116 C 153 82.989, 146.261 64.769, 145.769 65.565 M 121.985 91.181 C 116.768 98.430, 112.350 104.730, 112.167 105.181 C 111.983 105.631, 116.300 106, 121.760 106 L 131.687 106 134.843 94.128 C 136.580 87.599, 138 81.821, 138 81.289 C 138 80.385, 133.785 78, 132.188 78 C 131.793 78, 127.202 83.931, 121.985 91.181 M 104.794 115.127 C 95.282 128.111, 94.755 128.993, 95.738 130.285 C 96.247 130.953, 101.689 137.722, 107.831 145.326 C 113.974 152.930, 119 159.466, 119 159.851 C 119 160.236, 109.274 164.140, 97.386 168.526 L 75.771 176.500 105.136 177.331 L 134.500 178.162 155.213 174.377 C 166.605 172.295, 175.749 170.415, 175.533 170.200 C 175.317 169.984, 166.083 166.318, 155.013 162.053 C 143.942 157.789, 134.873 153.942, 134.859 153.506 C 134.845 153.069, 143.276 147.843, 153.595 141.893 C 163.914 135.942, 171.714 130.871, 170.928 130.622 C 170.143 130.374, 159.917 129.736, 148.204 129.206 C 136.491 128.675, 126.666 128, 126.371 127.705 C 126.076 127.410, 126.952 123.081, 128.318 118.084 L 130.801 109 125.040 109 C 121.871 109, 117.235 108.720, 114.737 108.377 L 110.196 107.755 104.794 115.127" stroke="none" fill="black" fill-rule="evenodd"/>
</svg>