<svg xmlns="http://www.w3.org/2000/svg" width="200" height="200" viewBox="0 0 200 200" version="1.1">
	<path d="M 33.002 9.974 C 33.003 10.263, 36.137 15.204, 39.966 20.953 C 43.795 26.702, 46.775 31.558, 46.588 31.745 C 46.401 31.932, 43.251 31.332, 39.588 30.412 C 35.925 29.492, 32.787 28.910, 32.615 29.119 C 32.072 29.779, 19.999 73.439, 19.999 74.740 C 20 75.421, 23.133 82.542, 26.963 90.564 L 33.927 105.149 25.818 143.629 C 20.316 169.739, 18.037 182.437, 18.728 183.128 C 19.419 183.819, 26.236 176.327, 39.936 159.823 C 51.537 145.846, 61.387 134.885, 63.093 134.054 C 66.604 132.344, 66.454 132.949, 68.551 112 C 69.460 102.925, 70.308 95.386, 70.437 95.247 C 70.566 95.108, 72.602 100.283, 74.960 106.747 C 77.318 113.211, 81.257 123.991, 83.713 130.702 L 88.179 142.904 95.781 147.702 C 99.963 150.341, 103.818 152.795, 104.348 153.155 C 104.943 153.560, 104.403 158.240, 102.933 165.405 L 100.555 177 90.337 177 C 81.206 177, 77.539 177.872, 79.294 179.627 C 79.565 179.899, 84.639 180.797, 90.569 181.624 C 100.308 182.981, 101.434 182.975, 102.225 181.563 C 102.994 180.188, 107.722 180, 141.550 180 C 174.257 180, 180 179.786, 180 178.567 C 180 176.778, 179.422 176.616, 163.280 173.889 C 156.009 172.660, 149.583 171.360, 148.999 170.999 C 148.415 170.638, 147.271 162.774, 146.458 153.524 C 145.254 139.835, 144.655 136.467, 143.240 135.424 C 141.600 134.217, 141.610 134.100, 143.405 133.405 C 144.615 132.936, 148.674 125.704, 154.530 113.584 L 163.750 94.500 157.625 93.801 C 154.256 93.417, 145.283 92.807, 137.684 92.445 C 127.138 91.944, 123.983 91.488, 124.354 90.520 C 124.622 89.822, 125.160 85.595, 125.549 81.126 C 125.939 76.657, 126.538 73.005, 126.879 73.012 C 127.221 73.018, 129.231 75.516, 131.346 78.563 C 133.461 81.610, 135.711 83.911, 136.346 83.676 C 136.981 83.442, 137.452 82.856, 137.393 82.375 C 137.333 81.894, 136.235 75.537, 134.952 68.250 C 133.231 58.478, 132.242 55, 131.182 55 C 130.053 55, 129.889 54.096, 130.418 50.788 C 131.229 45.718, 131.793 45.001, 133.332 47.087 C 144.327 61.998, 171.407 96.926, 171.726 96.608 C 172.121 96.213, 174.891 53.336, 174.967 46.450 C 174.998 43.622, 174.423 43.119, 167.053 39.526 C 160.952 36.551, 157.295 33.821, 151.303 27.766 L 143.500 19.880 150.442 20.114 C 154.755 20.259, 157.522 19.935, 157.747 19.259 C 158.245 17.764, 155.791 17.549, 86.500 13.022 C 61.200 11.369, 38.813 9.888, 36.750 9.732 C 34.688 9.575, 33.001 9.684, 33.002 9.974 M 41.726 18.927 C 51.590 34.416, 49.959 33.176, 66.103 37.471 C 74.021 39.577, 81.175 41.501, 82 41.746 C 82.825 41.990, 80.355 39.277, 76.511 35.716 L 69.522 29.241 75.011 28.144 C 79.886 27.170, 123.471 19.191, 125.642 18.875 C 127.217 18.646, 49.588 13.148, 43.726 13.073 L 37.951 13 41.726 18.927 M 107.500 24.965 C 90.450 28.085, 76.571 30.991, 76.657 31.424 C 76.743 31.856, 79.783 34.846, 83.413 38.068 C 87.751 41.918, 91.467 44.305, 94.256 45.033 C 96.590 45.641, 102.024 47.088, 106.330 48.248 C 111.322 49.593, 114.404 49.997, 114.830 49.362 C 121.449 39.520, 133.551 24, 134.608 24 C 136.313 24, 136.312 24.078, 134.520 31.500 C 133.723 34.800, 133.055 38.533, 133.036 39.795 C 133.013 41.258, 139.612 50.815, 151.250 66.175 L 169.500 90.260 170.136 81.880 C 170.486 77.271, 171.094 67.116, 171.487 59.313 L 172.202 45.127 164.851 41.471 C 159.423 38.773, 155.015 35.393, 148 28.555 L 138.500 19.293 107.500 24.965 M 129.702 33.332 C 128.835 34.656, 128.515 36.215, 128.962 36.939 C 129.868 38.404, 130.453 37.632, 131.381 33.750 C 132.185 30.387, 131.709 30.269, 129.702 33.332 M 28.716 52.750 C 25.544 64.162, 22.961 74.013, 22.975 74.641 C 22.989 75.268, 26.109 82.320, 29.910 90.310 L 36.820 104.839 29.410 140.027 C 25.334 159.380, 22 175.672, 22 176.232 C 22 176.792, 30.149 167.406, 40.109 155.375 C 50.069 143.344, 59.455 132.886, 60.966 132.136 L 63.715 130.772 65.977 109.136 C 67.222 97.236, 68.786 82.384, 69.452 76.131 L 70.664 64.762 64.009 56.131 C 60.349 51.384, 55.720 44.935, 53.722 41.801 C 50.620 36.933, 49.463 35.941, 45.795 35.002 C 43.433 34.397, 40.195 33.474, 38.601 32.951 C 37.006 32.428, 35.427 32, 35.092 32 C 34.756 32, 31.887 41.337, 28.716 52.750 M 55.083 39.155 C 55.666 40.244, 59.972 46.168, 64.653 52.318 L 73.163 63.500 72.511 72.500 C 72.153 77.450, 71.603 82.625, 71.289 84 C 70.976 85.375, 70.947 86.275, 71.225 86 C 71.612 85.618, 86.154 53.388, 88.647 47.386 C 88.901 46.773, 87.847 45.999, 86.305 45.665 C 84.762 45.332, 76.868 43.284, 68.761 41.116 C 55.252 37.503, 54.111 37.339, 55.083 39.155 M 121.745 44.420 L 117.045 50.953 121.772 52.352 L 126.500 53.751 127.673 50.125 C 129.249 45.256, 129.265 41.745, 127.722 39.635 C 126.572 38.062, 125.975 38.540, 121.745 44.420 M 91.488 48.019 C 91.211 48.468, 86.737 58.360, 81.546 70.002 L 72.108 91.168 81.269 116.084 L 90.429 140.999 98.170 145.927 C 104.640 150.044, 105.991 150.578, 106.398 149.177 C 107.621 144.958, 118.102 94.769, 117.819 94.488 C 117.644 94.313, 110.525 93.851, 102 93.460 C 93.475 93.070, 85.991 92.469, 85.369 92.125 C 84.669 91.739, 89.524 84.246, 98.085 72.500 C 105.702 62.050, 111.949 53.270, 111.967 52.988 C 112.028 52.049, 92.001 47.189, 91.488 48.019 M 101.814 71.797 L 89.129 89.500 95.314 90.133 C 98.716 90.481, 105.389 90.819, 110.142 90.883 C 118.316 90.994, 118.814 90.878, 119.347 88.750 C 120.437 84.399, 126 57.920, 126 57.084 C 126 56.245, 118.321 53.957, 115.807 54.047 C 115.088 54.072, 108.791 62.060, 101.814 71.797 M 127.953 62.319 C 126.738 67.749, 126.755 67.832, 130.032 72.395 C 131.850 74.926, 133.440 76.885, 133.565 76.748 C 133.932 76.350, 130.243 57.910, 129.685 57.352 C 129.406 57.073, 128.627 59.308, 127.953 62.319 M 123.992 95.135 C 123.988 95.336, 123.313 100.883, 122.492 107.462 C 120.221 125.669, 119.620 123.912, 129.841 128.922 C 138.374 133.104, 138.768 133.198, 141.192 131.610 C 142.870 130.511, 146.298 124.495, 151.522 113.486 C 155.822 104.423, 159.151 96.831, 158.920 96.615 C 158.378 96.109, 124.003 94.653, 123.992 95.135 M 120.158 99 C 120.158 100.375, 120.385 100.938, 120.662 100.250 C 120.940 99.563, 120.940 98.438, 120.662 97.750 C 120.385 97.063, 120.158 97.625, 120.158 99 M 114.289 125.616 C 111.472 138.752, 109.242 149.562, 109.334 149.637 C 109.625 149.877, 133.187 136.213, 134.160 135.240 C 134.737 134.663, 131.838 132.819, 126.555 130.404 C 116.833 125.958, 117.318 127.106, 119.081 112.734 C 119.672 107.912, 119.988 103.465, 119.783 102.850 C 119.578 102.235, 117.106 112.480, 114.289 125.616 M 124 144.560 C 116.025 149.175, 109.223 153.074, 108.885 153.225 C 108.547 153.376, 107.145 158.787, 105.770 165.250 L 103.269 177 132.885 176.880 L 162.500 176.759 154 175.129 C 145.729 173.543, 145.491 173.419, 145.155 170.500 C 144.966 168.850, 144.291 161.028, 143.655 153.118 C 142.072 133.405, 142.760 133.705, 124 144.560" stroke="none" fill="black" fill-rule="evenodd"/>
</svg>