<svg xmlns="http://www.w3.org/2000/svg" width="200" height="200" viewBox="0 0 200 200" version="1.1">
	<path d="M 35.135 26.839 C 35.953 29.147, 61.581 57.249, 64.016 58.508 C 66.057 59.564, 67.464 62.080, 70.322 69.783 C 72.345 75.237, 74 79.977, 74 80.315 C 74 80.654, 71.740 81.231, 68.978 81.597 C 66.215 81.964, 63.641 82.767, 63.258 83.382 C 62.640 84.372, 58.005 121.173, 58.429 121.716 C 58.522 121.834, 64.136 119.247, 70.905 115.966 C 77.674 112.685, 83.781 110, 84.476 110 C 85.171 110, 86.321 112.074, 87.031 114.609 L 88.321 119.219 82.911 124.066 C 77.143 129.233, 76.367 129.427, 67 128.039 C 61.787 127.267, 61.341 127.376, 58.452 130.112 C 55.502 132.908, 55.080 133, 45.202 133 L 35 133 35.034 130.250 C 35.052 128.738, 35.486 122.859, 35.997 117.188 C 37.317 102.549, 35.174 81.713, 31.444 72.913 C 29.950 69.386, 28.082 64.978, 27.295 63.118 C 26.279 60.719, 25.553 60.047, 24.794 60.806 C 24.036 61.564, 24.913 64.724, 27.814 71.687 C 31.513 80.565, 32.008 82.787, 33.009 95 C 33.797 104.614, 33.814 111.810, 33.067 120 C 31.431 137.927, 30.324 135.993, 42.250 136.043 L 52.500 136.086 36.237 151.793 C 24.877 162.765, 20.228 167.886, 20.815 168.781 C 21.467 169.774, 24.664 169.011, 35.078 165.375 L 48.500 160.689 57.429 152.094 L 66.358 143.500 73.420 158.250 C 77.304 166.363, 80.750 173, 81.077 173 C 81.404 173, 84.993 168.725, 89.052 163.500 C 93.594 157.654, 97.136 154, 98.261 154 C 99.267 154, 107.249 155.800, 116 158 C 124.751 160.200, 132.155 162, 132.455 162 C 132.755 162, 133 161.367, 133 160.594 C 133 159.616, 128.704 158.142, 118.855 155.741 C 106.218 152.661, 104.561 152.010, 103.317 149.635 C 101.998 147.119, 102.153 146.684, 106.212 141.485 L 110.500 135.993 116 136.549 C 128.257 137.789, 126.664 136.639, 146.211 158.371 C 156.168 169.442, 165.646 179.850, 167.272 181.500 L 170.230 184.500 169.673 162.641 C 169.366 150.619, 168.914 140.580, 168.667 140.333 C 168.420 140.086, 159.731 138.898, 149.359 137.692 L 130.500 135.500 144 134.868 C 151.425 134.521, 163.800 134.172, 171.500 134.093 L 185.500 133.950 181 129.794 C 178.525 127.509, 171.912 121.217, 166.305 115.812 L 156.111 105.986 163.155 91.243 L 170.199 76.500 169.762 61.246 C 169.522 52.856, 169.062 45.728, 168.739 45.406 C 168.417 45.084, 159.456 44.434, 148.827 43.963 C 132.692 43.247, 80.397 38.657, 62.604 36.395 C 56.937 35.674, 56.997 34.762, 61.860 47.750 C 63.560 52.288, 64.756 56, 64.518 56 C 64.281 56, 58.167 49.362, 50.931 41.250 C 39.468 28.399, 33.881 23.302, 35.135 26.839 M 62.189 40.137 C 62.459 40.887, 63.922 44.945, 65.439 49.156 L 68.199 56.811 83.836 63.868 L 99.474 70.924 103.583 66.212 C 105.843 63.620, 108.819 60.182, 110.198 58.571 L 112.704 55.643 129.350 63.024 C 138.505 67.083, 145.659 70.697, 145.248 71.053 C 144.836 71.410, 130.325 74.048, 113 76.914 C 95.675 79.780, 80.770 82.434, 79.877 82.812 C 78.456 83.414, 78.768 84.841, 82.377 94.248 C 84.686 100.268, 87.071 104.997, 87.798 104.998 C 88.512 104.999, 90.087 103.946, 91.298 102.658 C 92.509 101.370, 94.963 100.032, 96.750 99.683 C 99.483 99.151, 100 99.347, 100 100.918 C 100 104.761, 103.103 104.109, 108.961 99.034 C 112.124 96.293, 115.283 93.364, 115.979 92.525 C 116.675 91.686, 117.618 91, 118.073 91 C 118.997 91, 139.448 119.920, 138.868 120.405 C 138.665 120.574, 130.775 117.689, 121.334 113.995 L 104.167 107.277 98.020 113.480 L 91.873 119.682 94.245 125.591 L 96.616 131.500 103.593 131.789 L 110.569 132.079 113.970 127.539 C 115.841 125.043, 117.569 123, 117.810 123 C 118.051 123, 120.030 125.025, 122.209 127.500 L 126.170 132 145.335 131.993 C 155.876 131.989, 167.530 131.700, 171.234 131.350 L 177.969 130.714 165.393 118.607 L 152.817 106.500 159.934 91.587 L 167.052 76.673 166.776 62.087 L 166.500 47.500 149 46.778 C 133.894 46.156, 77.065 41.104, 65.600 39.365 C 62.562 38.904, 61.808 39.075, 62.189 40.137 M 106.963 66.465 C 103.435 70.609, 100.379 74, 100.170 74 C 99.962 74, 93.250 71.063, 85.255 67.474 C 77.260 63.885, 70.572 61.095, 70.393 61.273 C 69.788 61.879, 76.768 79.423, 77.744 79.748 C 78.836 80.112, 131.188 71.330, 134.887 70.162 C 136.933 69.516, 135.719 68.721, 126.387 64.595 C 120.399 61.947, 115.022 59.589, 114.439 59.356 C 113.855 59.122, 110.491 62.321, 106.963 66.465 M 67.381 84.689 C 65.434 85.071, 65.123 86.310, 63.532 100.005 C 62.580 108.200, 61.964 115.393, 62.163 115.990 C 62.374 116.622, 66.898 114.938, 73.012 111.949 C 78.781 109.130, 83.613 106.713, 83.750 106.578 C 83.888 106.443, 82.129 101.308, 79.841 95.166 C 75.739 84.158, 75.637 84.002, 72.590 84.136 C 70.891 84.211, 68.547 84.460, 67.381 84.689 M 111.686 99.927 C 108.845 102.637, 106.741 105.045, 107.011 105.278 C 107.868 106.021, 131.372 114.962, 131.673 114.660 C 132.173 114.160, 118.542 95.029, 117.676 95.014 C 117.222 95.006, 114.527 97.217, 111.686 99.927 M 91.668 106.110 C 89.026 107.504, 88.018 108.606, 88.423 109.659 C 88.745 110.499, 89.280 112.269, 89.613 113.593 C 89.945 114.917, 90.522 116, 90.896 116 C 91.270 116, 93.713 113.830, 96.325 111.178 L 101.075 106.355 98.490 105.178 C 97.069 104.530, 95.815 104.020, 95.703 104.044 C 95.591 104.069, 93.776 104.998, 91.668 106.110 M 84.653 125.843 L 80.877 129.710 86.580 130.380 C 89.716 130.749, 92.446 130.887, 92.645 130.688 C 93.273 130.061, 90.384 122.628, 89.383 122.294 C 88.858 122.119, 86.730 123.716, 84.653 125.843 M 115.703 129.531 L 113.907 132 118 132 L 122.093 132 120.297 129.531 C 119.309 128.174, 118.275 127.063, 118 127.063 C 117.725 127.063, 116.691 128.174, 115.703 129.531 M 60.953 131.556 C 59.928 132.792, 60.809 133, 67.078 133 C 75.275 133, 75.427 131.582, 67.326 130.685 C 63.490 130.260, 61.842 130.486, 60.953 131.556 M 76.397 135.686 C 74.310 136.097, 67.241 142.611, 68.068 143.361 C 68.738 143.968, 96.102 150.248, 96.348 149.851 C 96.468 149.658, 97.126 148.764, 97.811 147.863 C 98.827 146.529, 98.669 145.189, 96.957 140.613 L 94.856 135 86.678 135.136 C 82.180 135.211, 77.554 135.459, 76.397 135.686 M 98 135.532 C 98 135.825, 98.709 137.737, 99.576 139.782 L 101.153 143.500 104.076 140.038 C 105.684 138.134, 107 136.221, 107 135.788 C 107 135.354, 104.975 135, 102.500 135 C 100.025 135, 98 135.239, 98 135.532 M 41.486 150.149 C 33.500 157.932, 27.112 164.445, 27.291 164.624 C 27.469 164.803, 31.894 163.540, 37.123 161.817 C 46.555 158.711, 46.725 158.596, 58.565 147.383 L 70.500 136.081 63.254 136.040 L 56.008 136 41.486 150.149 M 134.643 141.250 C 137.128 144.059, 163.862 173.962, 165.700 175.989 C 166.837 177.243, 167.006 174.725, 166.775 159.989 L 166.500 142.500 153 140.827 C 145.575 139.906, 137.959 139.119, 136.076 139.077 L 132.651 139 134.643 141.250 M 76.037 157.113 C 78.893 162.826, 81.359 167.643, 81.517 167.818 C 81.964 168.315, 93 154.396, 93 153.336 C 93 152.818, 88.612 151.342, 83.250 150.056 C 77.888 148.770, 72.902 147.495, 72.172 147.222 C 71.442 146.949, 73.181 151.400, 76.037 157.113" stroke="none" fill="black" fill-rule="evenodd"/>
</svg>