<svg xmlns="http://www.w3.org/2000/svg" width="200" height="200" viewBox="0 0 200 200" version="1.1">
	<path d="M 62.912 13.663 C 62.305 15.224, 60.256 20.928, 58.358 26.341 C 55.572 34.289, 52.766 39.386, 43.772 52.841 C 34.006 67.452, 32.464 70.340, 31.231 76.330 C 30.458 80.086, 30.037 83.371, 30.295 83.629 C 30.864 84.197, 62.373 64.231, 62.803 63.030 C 63.743 60.403, 60.069 62.121, 47.617 70.134 L 33.733 79.068 34.387 74.982 C 34.848 72.097, 38.287 66.038, 46.086 54.372 C 55.589 40.155, 57.704 36.218, 61.236 26.174 C 63.494 19.753, 65.441 14.362, 65.561 14.193 C 65.884 13.741, 117.020 20.686, 117.593 21.259 C 117.861 21.527, 116.037 30.185, 113.540 40.499 C 111.043 50.813, 109 59.817, 109 60.510 C 109 61.202, 114.513 64.113, 121.250 66.979 C 127.987 69.845, 134.005 72.829, 134.622 73.611 C 135.239 74.392, 136.963 78.375, 138.454 82.462 L 141.164 89.893 128.629 106.467 L 116.094 123.042 125.297 133.456 L 134.500 143.870 153.358 150.012 L 172.216 156.155 171.510 162.828 C 171.121 166.497, 170.706 169.603, 170.589 169.729 C 170.471 169.856, 164.008 171.482, 156.226 173.343 L 142.078 176.726 127.621 163.872 L 113.165 151.017 99.832 152.188 L 86.500 153.359 73 161.532 C 65.575 166.027, 58.375 170.302, 57 171.032 C 54.655 172.276, 27 179.033, 27 178.361 C 27 178.191, 28.462 177.299, 30.250 176.380 C 35.046 173.914, 69.215 152.922, 71.225 151.208 C 72.173 150.398, 76.561 143.941, 80.975 136.858 L 89.001 123.981 80 106.001 C 72.854 91.726, 71.003 87.143, 71.014 83.761 C 71.027 79.660, 71.394 80.167, 80.764 97.230 C 87.433 109.375, 90.932 114.805, 91.871 114.465 C 94.471 113.526, 115 99.781, 115 98.980 C 115 98.539, 108.225 85.691, 99.944 70.430 L 84.888 42.682 89.494 38.006 L 94.100 33.330 82.901 26.114 C 75.832 21.559, 71.352 19.248, 70.752 19.848 C 70.153 20.447, 71.868 24.527, 75.401 30.910 C 78.481 36.471, 81 41.403, 81 41.868 C 81 42.334, 77.372 45.991, 72.938 49.995 C 67.187 55.187, 65.183 57.583, 65.950 58.350 C 66.717 59.117, 69.169 57.295, 74.500 52 C 79.238 47.294, 82.319 44.927, 82.916 45.537 C 84.051 46.700, 112.109 98.251, 111.751 98.518 C 108.201 101.164, 92.854 110.997, 92.288 110.988 C 91.855 110.981, 86.760 102.377, 80.968 91.868 C 75.175 81.358, 70 72.701, 69.468 72.630 C 68.935 72.558, 68.369 75.956, 68.209 80.179 L 67.918 87.858 76.889 105.779 L 85.860 123.700 78.180 136.231 L 70.500 148.763 54.530 158.631 C 45.746 164.059, 33.856 171.200, 28.107 174.500 C 17.891 180.365, 14.972 182.994, 18.667 183.006 C 19.675 183.009, 28.548 181.151, 38.383 178.878 L 56.267 174.744 71.883 165.425 L 87.500 156.106 99.756 154.954 L 112.011 153.801 121.756 162.332 C 127.115 167.023, 133.712 172.829, 136.415 175.232 L 141.330 179.602 156.854 176.010 C 174.459 171.938, 173.193 173.045, 174.531 160.553 L 175.212 154.193 158.856 149.038 C 149.860 146.203, 141.150 143.442, 139.500 142.904 C 137.675 142.308, 133.367 138.375, 128.500 132.861 C 124.100 127.876, 120.375 123.468, 120.222 123.065 C 120.069 122.661, 125.356 115.224, 131.972 106.537 C 138.587 97.850, 143.984 90.238, 143.965 89.621 C 143.946 89.005, 142.258 84.470, 140.215 79.545 L 136.500 70.589 124.814 65.545 C 118.387 62.770, 112.858 60.221, 112.527 59.880 C 112.019 59.356, 119.649 25.047, 120.457 24.217 C 120.609 24.061, 124.709 30.136, 129.568 37.717 C 137.429 49.982, 161.926 83.443, 162.547 82.764 C 162.679 82.619, 166.035 75.300, 170.002 66.500 C 173.970 57.700, 177.391 50.209, 177.603 49.853 C 177.816 49.498, 170.513 43.493, 161.374 36.508 L 144.757 23.809 132.629 21.274 C 125.958 19.880, 120.349 18.345, 120.165 17.863 C 119.980 17.382, 119.432 17.233, 118.948 17.532 C 118.227 17.978, 82.082 13.657, 67.758 11.413 C 64.341 10.878, 63.920 11.073, 62.912 13.663 M 123.564 23.143 C 136.280 44.336, 160.553 77.847, 162.081 76.319 C 163.421 74.979, 174.137 50.905, 173.804 49.984 C 173.637 49.522, 166.735 43.986, 158.467 37.682 C 143.533 26.296, 143.378 26.209, 134.967 24.544 C 130.310 23.622, 125.656 22.625, 124.625 22.327 C 123.240 21.927, 122.962 22.140, 123.564 23.143 M 76 25.600 C 76 25.963, 77.673 29.358, 79.718 33.144 L 83.435 40.026 86.433 37.029 C 88.317 35.145, 89.072 33.693, 88.465 33.123 C 86.551 31.322, 76 24.954, 76 25.600" stroke="none" fill="black" fill-rule="evenodd"/>
</svg>