<svg xmlns="http://www.w3.org/2000/svg" width="200" height="200" viewBox="0 0 200 200" version="1.1">
	<path d="M 98.500 23.415 L 63.500 29.637 42 44.369 C 30.175 52.472, 20.400 59.416, 20.277 59.801 C 20.154 60.185, 25.442 62.934, 32.027 65.910 C 42.172 70.494, 44 71.663, 44 73.569 C 44 79.756, 35.632 143.542, 32.994 157.456 C 31.331 166.231, 30.090 173.725, 30.235 174.108 C 30.381 174.491, 40.625 164.291, 53 151.441 L 75.500 128.077 88.750 128.038 C 96.037 128.017, 102 128.403, 102 128.896 C 102 129.389, 100.379 133.207, 98.397 137.379 L 94.794 144.966 85.857 137.323 C 80.594 132.822, 76.561 130.054, 76.046 130.590 C 74.463 132.238, 45 179.262, 45 180.141 C 45 183.083, 49.306 178.647, 63.500 161.083 L 79.500 141.283 80 159.645 C 80.303 170.753, 80.895 178.057, 81.500 178.134 C 82.050 178.205, 85.421 171.904, 88.992 164.131 C 92.563 156.359, 95.754 150, 96.083 150 C 96.413 150, 101.540 154.125, 107.477 159.166 L 118.272 168.331 117.536 153.066 L 116.800 137.802 119.150 138.542 C 120.442 138.948, 125.395 141.063, 130.155 143.240 L 138.811 147.198 133.866 159.227 C 131.147 165.843, 129.052 171.367, 129.211 171.504 C 129.370 171.640, 139.512 171.520, 151.750 171.237 L 174 170.722 174.021 168.111 C 174.033 166.675, 174.698 155.825, 175.500 144 C 177.734 111.047, 179.281 116.367, 163.258 101.904 C 142.731 83.376, 132 72.879, 132 71.329 C 132 69.742, 137.764 58, 138.543 58 C 138.826 58, 141.790 59.379, 145.130 61.065 C 148.470 62.751, 151.321 63.989, 151.465 63.815 C 152.213 62.917, 157 47.234, 157 45.681 C 157 42.895, 151.762 24, 150.990 24 C 150.615 24, 147.253 30.698, 143.520 38.884 L 136.732 53.769 122.147 46.832 C 114.125 43.017, 107.449 39.783, 107.311 39.644 C 107.173 39.506, 113.325 35.011, 120.982 29.654 C 130.689 22.864, 134.735 19.474, 134.345 18.458 C 134.038 17.656, 133.722 17.044, 133.643 17.097 C 133.564 17.150, 117.750 19.993, 98.500 23.415 M 95.627 26.661 L 64.754 32.102 44.813 45.777 L 24.872 59.452 35.078 64.226 C 40.691 66.852, 45.670 69, 46.142 69 C 46.614 69, 47 70.081, 47 71.402 C 47 77.168, 38.754 141.702, 36.517 153.442 C 35.161 160.560, 34.152 166.467, 34.276 166.569 C 34.399 166.671, 43.500 157.358, 54.500 145.875 L 74.500 124.997 89.193 125.421 C 99.863 125.729, 103.994 125.524, 104.284 124.672 C 104.504 124.028, 101.740 121.518, 98.142 119.095 L 91.600 114.690 78.727 118.938 C 71.646 121.275, 65.633 122.967, 65.364 122.698 C 65.095 122.429, 66.975 118.028, 69.541 112.918 L 74.208 103.627 71.604 101.730 C 68.050 99.141, 68.230 97, 72 97 C 73.650 97, 75.003 96.662, 75.006 96.250 C 75.009 95.838, 73.804 88.412, 72.328 79.750 L 69.644 64 65.447 64 C 59.544 64, 55 62.954, 55 61.595 C 55 60.954, 61.335 58.736, 69.218 56.618 C 86.219 52.048, 90.116 49.706, 94.906 41.176 L 98.313 35.110 101.273 36.641 C 104.133 38.120, 104.406 38.052, 109.367 34.621 C 120.190 27.135, 128.406 21.004, 127.473 21.111 C 126.938 21.171, 112.607 23.669, 95.627 26.661 M 149.209 33 C 148.643 34.375, 146.129 39.887, 143.623 45.250 L 139.066 55 144.132 57.567 C 146.919 58.979, 149.386 59.948, 149.614 59.720 C 149.842 59.491, 151.065 56.233, 152.332 52.478 C 154.629 45.667, 154.630 45.635, 152.814 39.075 C 150.333 30.114, 150.371 30.178, 149.209 33 M 97.959 41.076 C 96.943 42.975, 97.025 43.057, 98.924 42.041 C 100.066 41.430, 101 40.495, 101 39.965 C 101 38.248, 99.102 38.942, 97.959 41.076 M 98.934 45.226 C 95.945 47.374, 92.842 50.212, 92.038 51.533 C 91.235 52.854, 89.267 54.222, 87.667 54.573 C 84.212 55.332, 75.225 61.417, 77.159 61.688 C 77.897 61.791, 88.625 62.385, 101 63.008 C 122.711 64.100, 123.590 64.225, 126.055 66.570 C 127.460 67.906, 128.840 69, 129.121 69 C 130.344 69, 135.317 56.919, 134.439 56.079 C 133.923 55.584, 126.945 52.061, 118.934 48.250 L 104.367 41.320 98.934 45.226 M 69 59.500 L 64.500 60.804 68.628 60.902 C 71.178 60.962, 73.231 60.427, 74 59.500 C 75.450 57.753, 75.029 57.753, 69 59.500 M 73.016 66.263 C 73.037 69.096, 76.615 88.949, 77.213 89.546 C 77.458 89.792, 79.614 87.294, 82.003 83.996 C 84.392 80.698, 86.644 78, 87.007 78 C 89.001 78, 88.480 80.074, 84.498 88.004 L 80.094 96.774 98.096 97.504 C 107.998 97.906, 116.234 98.069, 116.399 97.867 C 116.564 97.665, 119.260 91.902, 122.391 85.061 L 128.083 72.621 125.247 69.786 C 122.439 66.977, 122.247 66.941, 104.956 66.006 C 95.355 65.487, 84.237 64.828, 80.250 64.544 C 73.253 64.044, 73.001 64.103, 73.016 66.263 M 125.600 84.449 C 118.733 99.144, 118.578 98, 127.433 98 C 138.444 98, 137.664 100.017, 125.149 103.905 L 115.297 106.966 111.739 114.733 L 108.180 122.500 111.126 124.371 C 113.614 125.951, 116.780 126.322, 131.535 126.766 C 143.485 127.124, 149 127.645, 149 128.414 C 149 129.032, 147.595 132.881, 145.879 136.966 L 142.758 144.395 145.585 146.650 C 147.942 148.528, 148.141 149.008, 146.785 149.529 C 145.889 149.873, 144.290 149.690, 143.231 149.124 C 141.327 148.105, 139.882 150.808, 133.274 167.750 C 132.894 168.723, 136.998 169, 151.813 169 L 170.841 169 171.427 162.750 C 172.405 152.314, 174 126.173, 174 120.583 L 174 115.324 158.396 100.912 C 149.813 92.985, 139.929 83.887, 136.430 80.693 L 130.068 74.887 125.600 84.449 M 77 95 C 76.411 96.100, 76.155 97, 76.430 97 C 76.705 97, 77.411 96.100, 78 95 C 78.589 93.900, 78.845 93, 78.570 93 C 78.295 93, 77.589 93.900, 77 95 M 78.667 100.667 C 77.352 101.981, 78.096 102.770, 84.926 107.312 L 91.852 111.918 102.176 108.451 C 112.786 104.888, 116.709 102.199, 113.277 100.843 C 110.998 99.942, 79.551 99.782, 78.667 100.667 M 117.459 102.067 C 116.421 103.745, 117.235 103.832, 121 102.443 L 124.500 101.152 121.309 101.076 C 119.554 101.034, 117.821 101.480, 117.459 102.067 M 73.205 111.538 C 71.442 115.113, 70 118.223, 70 118.450 C 70 118.677, 73.487 117.731, 77.750 116.348 C 82.013 114.965, 86.143 113.630, 86.928 113.380 C 88.300 112.944, 87.088 111.925, 78.955 106.680 L 76.410 105.039 73.205 111.538 M 101.707 111.430 L 94.914 113.659 100.397 117.300 L 105.880 120.941 108.440 115.350 C 109.848 112.274, 111 109.588, 111 109.379 C 111 108.653, 108.456 109.214, 101.707 111.430 M 103.550 132.750 C 102.550 134.813, 100.689 138.823, 99.417 141.662 L 97.103 146.824 106.161 154.528 L 115.220 162.232 114.487 147.586 L 113.755 132.939 121.378 136.413 C 125.570 138.323, 129 139.744, 129 139.569 C 129 139.395, 125.486 136.945, 121.192 134.126 C 115.075 130.110, 112.516 129, 109.377 129 C 105.737 129, 105.204 129.343, 103.550 132.750 M 129 135.901 C 134.775 139.804, 139.725 142.994, 140 142.991 C 140.275 142.987, 141.710 140.063, 143.189 136.492 L 145.878 130 140.090 130 C 136.906 130, 130.746 129.731, 126.401 129.403 L 118.500 128.806 129 135.901 M 75.180 136.795 C 72.126 141.160, 61.037 159, 61.377 159 C 61.859 159, 80 136.349, 80 135.747 C 80 135.454, 79.341 134.961, 78.536 134.652 C 77.652 134.313, 76.322 135.163, 75.180 136.795 M 83 154.610 C 83 163.258, 83.159 170.146, 83.353 169.917 C 83.548 169.687, 85.965 164.504, 88.725 158.398 L 93.743 147.295 90.169 144.398 C 82.289 138.009, 83 136.997, 83 154.610" stroke="none" fill="black" fill-rule="evenodd"/>
</svg>