<svg xmlns="http://www.w3.org/2000/svg" width="200" height="200" viewBox="0 0 200 200" version="1.1">
	<path d="M 101.058 26.037 C 80.761 48.488, 83.727 46.446, 75.438 43.678 L 68.500 41.362 60.408 27.173 C 55.958 19.369, 52.114 12.781, 51.866 12.532 C 51.618 12.284, 49.890 16.226, 48.026 21.291 C 46.163 26.356, 44.043 31.952, 43.315 33.727 L 41.992 36.955 34.368 31.977 C 30.174 29.240, 26.351 27, 25.872 27 C 23.229 27, 26.016 29.704, 34.194 35.074 L 43.387 41.111 47.444 30.628 C 49.675 24.863, 51.752 19.898, 52.060 19.596 C 52.368 19.294, 55.743 24.523, 59.560 31.218 L 66.500 43.389 74 46.143 C 78.125 47.657, 82.009 48.919, 82.631 48.948 C 83.253 48.977, 90.529 41.599, 98.801 32.554 L 113.840 16.109 114.417 23.304 C 114.735 27.262, 115.333 35.961, 115.747 42.636 L 116.500 54.772 143.264 47.018 C 169.255 39.488, 170.042 39.325, 170.526 41.382 C 170.800 42.547, 172.798 51.246, 174.967 60.713 L 178.911 77.927 177.484 105.213 L 176.058 132.500 165.954 155.500 C 160.396 168.150, 155.546 178.762, 155.175 179.083 C 154.804 179.403, 144.825 175.723, 133 170.905 C 112.760 162.658, 111.668 162.081, 114.359 161.056 C 115.931 160.457, 123.919 157.852, 132.109 155.268 C 140.299 152.684, 147.002 150.104, 147.004 149.535 C 147.007 148.966, 148.777 135.022, 150.939 118.549 C 153.101 102.076, 154.647 88.239, 154.376 87.799 C 154.104 87.360, 153.565 87, 153.178 87 C 152.791 87, 141.680 102.019, 128.487 120.376 L 104.500 153.752 95.617 157.409 C 90.731 159.421, 86.601 160.934, 86.439 160.772 C 86.277 160.610, 93.037 151.286, 101.462 140.051 L 116.779 119.625 124.532 92.562 C 133.360 61.747, 132.862 63.884, 131.342 63.322 C 130.689 63.081, 127.099 68.479, 123.111 75.697 C 116.909 86.924, 114.056 90.716, 99.936 106.500 C 91.079 116.400, 82.914 125.400, 81.791 126.500 C 80.667 127.600, 84.112 120.064, 89.444 109.752 L 99.140 91.005 100.903 76.752 C 101.872 68.914, 102.581 62.378, 102.479 62.230 C 102.377 62.081, 95.302 65.189, 86.758 69.135 C 71.786 76.050, 71.183 76.444, 70.112 80.021 C 68.756 84.546, 68.727 90.335, 70.013 99.231 C 70.815 104.778, 70.461 110.498, 68.002 131.731 C 66.361 145.904, 65.014 158.271, 65.009 159.213 C 65.004 160.205, 60.832 164.084, 55.103 168.422 L 45.207 175.916 44.649 172.708 C 44.342 170.944, 43.124 159.600, 41.941 147.500 C 39.890 126.509, 39.669 125.362, 37.115 122.500 C 30.108 114.647, 29.955 118.192, 38.538 89.535 C 42.763 75.428, 46.058 63.725, 45.860 63.528 C 45.662 63.331, 39.052 68.346, 31.171 74.673 C 23.291 81, 16.624 85.957, 16.357 85.690 C 16.089 85.423, 16.800 73.782, 17.935 59.822 C 19.071 45.861, 20 34.116, 20 33.720 C 20 33.324, 19.325 33, 18.500 33 C 17.665 33, 17 33.890, 17 35.007 C 17 36.111, 16.072 48.509, 14.937 62.559 C 13.803 76.609, 13.015 89.036, 13.187 90.175 C 13.454 91.941, 15.456 90.673, 26.828 81.534 C 34.159 75.643, 40.361 71.028, 40.611 71.278 C 40.862 71.528, 38.060 81.657, 34.385 93.786 L 27.704 115.839 32.241 121.025 C 37.455 126.986, 37.011 124.981, 40.149 156.750 C 41.412 169.537, 42.805 180, 43.244 180 C 43.835 180, 66.637 163.377, 67.074 162.628 C 67.115 162.557, 68.618 149.900, 70.413 134.500 C 73.486 108.135, 73.603 105.895, 72.430 96.136 C 71.178 85.722, 71.681 81.137, 74.381 78.343 C 75.847 76.826, 98.077 66.743, 98.662 67.329 C 98.911 67.577, 98.586 72.667, 97.942 78.640 C 96.782 89.388, 96.687 89.660, 88.746 105 C 84.332 113.525, 78.524 124.610, 75.837 129.634 C 72.152 136.524, 71.291 138.898, 72.330 139.296 C 74.368 140.079, 117.584 91.385, 121.950 83.386 C 123.847 79.910, 125.533 77.200, 125.697 77.364 C 125.861 77.528, 123.312 86.951, 120.032 98.306 L 114.069 118.950 96.019 142.975 C 86.091 156.189, 78.334 167, 78.780 167 C 80.360 167, 104.522 156.754, 106 155.458 C 106.825 154.734, 117.175 140.666, 129 124.196 C 140.825 107.726, 150.646 94.631, 150.824 95.097 C 151.124 95.881, 145.451 141.952, 144.487 146.565 C 144.126 148.287, 140.731 149.690, 124.028 155.016 C 113.014 158.528, 104.339 161.726, 104.751 162.121 C 106.459 163.762, 156.346 183.044, 156.972 182.305 C 157.346 181.862, 162.443 170.475, 168.297 157 L 178.941 132.500 180.274 105 L 181.608 77.500 176.927 57.207 C 174.353 46.046, 172.040 36.706, 171.786 36.453 C 171.532 36.199, 159.714 39.380, 145.522 43.522 C 131.331 47.664, 119.488 50.821, 119.204 50.537 C 118.920 50.253, 118.235 41.016, 117.683 30.010 C 117.131 19.005, 116.414 10.014, 116.089 10.032 C 115.765 10.049, 109.001 17.252, 101.058 26.037" stroke="none" fill="black" fill-rule="evenodd"/>
</svg>