<svg xmlns="http://www.w3.org/2000/svg" width="200" height="200" viewBox="0 0 200 200" version="1.1">
	<path d="M 127.500 31.446 L 113.500 36.944 76 36.364 L 38.500 35.783 33.279 39.642 C 30.408 41.764, 28.046 43.736, 28.029 44.024 C 27.993 44.673, 60.904 44.155, 66.750 43.415 C 69.087 43.119, 71 42.410, 71 41.840 C 71 41.149, 65.174 40.919, 53.584 41.151 C 39.735 41.429, 36.381 41.244, 37.207 40.250 C 37.978 39.322, 43.717 39, 59.506 39 C 80.701 39, 80.769 39.007, 81.396 41.250 C 81.742 42.487, 82.317 56.511, 82.675 72.412 L 83.326 101.324 65.413 100.677 L 47.500 100.030 41.188 104.079 C 34.606 108.301, 33.609 110.668, 38.584 110.262 C 40.188 110.132, 49.541 109.323, 59.369 108.465 C 69.197 107.606, 77.359 107.038, 77.506 107.202 C 77.654 107.366, 78.951 112.771, 80.388 119.213 C 82.699 129.575, 83 133.107, 83 149.815 L 83 168.704 70.750 173.367 C 60.620 177.223, 57.359 178.028, 51.908 178.015 C 36.254 177.979, 18 179.321, 18 180.508 C 18 181.770, 72.457 183.023, 130 183.084 L 157.500 183.114 170.349 179.624 C 177.416 177.705, 183.393 175.941, 183.630 175.704 C 184.053 175.280, 158.098 158.321, 156.194 157.778 C 155.659 157.625, 148.881 162.561, 141.131 168.747 C 127.185 179.880, 127.028 179.971, 125.628 177.747 C 124.850 176.511, 121.916 171.792, 119.107 167.261 L 114 159.022 114.005 138.261 L 114.009 117.500 124.255 113.716 C 133.807 110.188, 135.775 109.837, 153.350 108.533 C 163.718 107.763, 172.375 106.958, 172.589 106.744 C 172.803 106.530, 166.334 101.820, 158.214 96.278 L 143.450 86.201 129.975 95.204 L 116.500 104.207 114.797 86.502 L 113.095 68.798 116.065 55.715 C 117.698 48.519, 119.196 42.471, 119.392 42.275 C 119.722 41.944, 148.358 44.434, 155.770 45.438 C 158.997 45.875, 159.099 45.762, 163.582 36.836 C 166.081 31.862, 167.953 27.619, 167.742 27.409 C 167.532 27.198, 161.541 26.784, 154.430 26.487 L 141.500 25.949 127.500 31.446 M 128.360 34.278 L 113.500 40.057 98.778 39.605 L 84.056 39.153 84.778 50.326 C 85.175 56.472, 85.500 70.874, 85.500 82.331 L 85.500 103.162 66.500 103.081 C 49.010 103.006, 47.301 103.157, 45 104.978 C 41.960 107.383, 41.256 107.364, 62.238 105.450 C 71.585 104.597, 79.397 104.064, 79.599 104.265 C 79.800 104.467, 81.332 110.653, 83.003 118.013 C 85.906 130.801, 86.029 132.262, 85.770 150.947 L 85.500 170.500 74.062 175 L 62.623 179.500 92.463 179.765 C 108.875 179.911, 122.502 179.831, 122.745 179.589 C 122.988 179.346, 120.436 174.670, 117.073 169.199 L 110.960 159.251 111.230 137.422 L 111.500 115.593 122.500 111.406 C 132.673 107.534, 134.663 107.131, 148.975 106.051 C 157.486 105.409, 164.592 104.741, 164.766 104.567 C 165.544 103.789, 143.742 89.885, 142.495 90.364 C 141.725 90.659, 134.999 94.981, 127.548 99.968 C 120.097 104.955, 113.987 108.465, 113.970 107.768 C 113.954 107.070, 113.117 97.965, 112.111 87.533 L 110.281 68.565 113.550 54.206 C 115.348 46.309, 117.028 39.638, 117.284 39.383 C 117.702 38.965, 145.216 41.282, 154.046 42.478 C 157.544 42.952, 157.634 42.873, 160.786 36.479 C 162.544 32.916, 163.648 29.955, 163.241 29.900 C 162.833 29.845, 158.162 29.507, 152.860 29.150 L 143.221 28.500 128.360 34.278 M 143.603 170.250 L 131.850 179.500 141.953 180.359 C 151.510 181.172, 152.759 181.044, 165.068 177.983 C 172.225 176.203, 177.950 174.646, 177.790 174.522 C 175.870 173.032, 156.485 161, 156.005 161 C 155.648 161, 150.067 165.162, 143.603 170.250" stroke="none" fill="black" fill-rule="evenodd"/>
</svg>