<svg xmlns="http://www.w3.org/2000/svg" width="200" height="200" viewBox="0 0 200 200" version="1.1">
	<path d="M 57.336 7.792 C 56.583 8.258, 59.418 13.056, 65.583 21.751 C 76.058 36.523, 76.204 35.532, 63.750 34.147 L 57 33.396 57 60.198 C 57 74.939, 57.153 87, 57.340 87 C 57.655 87, 84.837 55.618, 87.857 51.767 C 89.043 50.255, 88.751 49.393, 85.538 44.921 C 83.517 42.106, 82.093 39.573, 82.376 39.291 C 82.658 39.009, 90.589 39.553, 100 40.500 C 109.411 41.447, 117.394 41.939, 117.739 41.594 C 119.105 40.229, 115.833 39.115, 99.500 35.384 L 82.500 31.500 97.833 30.652 C 112.126 29.862, 114.044 29.510, 126.121 25.460 L 139.076 21.114 141.372 26.307 C 142.634 29.163, 145.566 35.831, 147.888 41.125 L 152.108 50.750 158.083 52.018 C 161.370 52.715, 164.266 53.622, 164.520 54.033 C 164.774 54.444, 157.561 61.660, 148.491 70.068 C 139.421 78.477, 132 85.726, 132 86.178 C 132 86.630, 141.787 87.014, 153.750 87.030 C 167.417 87.050, 174.918 87.401, 173.934 87.977 C 173.072 88.482, 166.547 90.995, 159.434 93.564 C 152.320 96.132, 146.350 98.369, 146.166 98.534 C 145.982 98.699, 151.950 106.470, 159.428 115.802 L 173.025 132.769 169.509 148.134 C 167.575 156.585, 165.646 164.322, 165.223 165.326 C 164.649 166.687, 161.667 161.020, 153.514 143.076 C 147.472 129.778, 141.998 119, 141.287 119 C 139.672 119, 139.679 119.346, 141.474 127.876 L 142.948 134.883 134.414 160.137 C 129.721 174.027, 125.539 186.001, 125.122 186.746 C 124.685 187.528, 122.319 178.458, 119.528 165.300 C 116.867 152.760, 114.557 142.334, 114.393 142.131 C 114.229 141.927, 106.330 145.905, 96.840 150.969 C 83.912 157.869, 78.103 160.417, 73.668 161.131 C 70.414 161.655, 67.556 161.890, 67.319 161.652 C 67.082 161.415, 75.698 149.592, 86.467 135.378 L 106.046 109.536 91.981 102.490 L 77.916 95.445 100.405 88.540 C 112.773 84.743, 122.714 81.347, 122.496 80.993 C 122.277 80.639, 114.856 77.268, 106.005 73.502 L 89.912 66.655 84.206 72.066 C 81.068 75.043, 72.356 83.509, 64.847 90.879 L 51.193 104.280 64.597 115.187 C 71.968 121.186, 78 126.278, 78 126.503 C 78 126.727, 69.524 133.430, 59.166 141.399 L 40.331 155.887 29.916 152.045 C 21.870 149.077, 19.570 147.823, 19.809 146.535 C 19.979 145.617, 23.662 135.147, 27.994 123.268 L 35.869 101.669 33.433 80.585 C 32.093 68.988, 30.323 54.344, 29.498 48.042 C 28.674 41.739, 28 36.049, 28 35.396 C 28 34.637, 30.889 33.952, 36 33.500 C 42.065 32.963, 44 32.435, 44 31.316 C 44 30.098, 42.823 29.952, 37.250 30.481 C 24.539 31.687, 24.676 31.620, 25.324 36.356 C 25.636 38.635, 27.507 54.225, 29.481 71 L 33.070 101.500 24.535 124.841 C 19.841 137.678, 16 148.543, 16 148.984 C 16 149.914, 16.110 149.961, 30.168 155.033 L 40.836 158.882 61.668 142.895 C 73.126 134.102, 82.500 126.735, 82.500 126.524 C 82.500 126.314, 76.369 121.183, 68.876 115.123 L 55.252 104.106 70.876 88.770 C 79.469 80.336, 87.472 72.629, 88.660 71.644 C 90.766 69.898, 91.119 69.983, 102.968 75.068 C 109.650 77.936, 114.754 80.604, 114.309 80.998 C 113.864 81.391, 104.275 84.533, 93 87.980 C 81.725 91.426, 72.112 94.473, 71.639 94.751 C 71.165 95.028, 77.797 98.685, 86.376 102.878 L 101.974 110.500 81.496 137.500 C 70.233 152.350, 61.014 164.762, 61.009 165.083 C 61.004 165.403, 65.370 165.026, 70.711 164.245 C 79.819 162.912, 81.409 162.297, 96.304 154.338 C 105.038 149.670, 112.299 145.997, 112.439 146.176 C 112.578 146.354, 115.069 157.750, 117.973 171.500 C 120.877 185.250, 123.490 196.905, 123.778 197.400 C 124.626 198.854, 145.991 135.153, 145.301 133.228 C 143.382 127.875, 146.824 134.868, 155.034 153 C 160.139 164.275, 164.650 173.883, 165.058 174.351 C 165.983 175.409, 166.017 175.290, 170.942 154 C 173.168 144.375, 175.210 135.552, 175.478 134.393 C 175.843 132.817, 172.819 128.316, 163.483 116.538 C 156.617 107.877, 151 100.500, 151 100.145 C 151 99.790, 158.425 96.820, 167.500 93.545 C 176.575 90.269, 184 87.218, 184 86.763 C 184 85.298, 181.856 85.079, 159.746 84.283 L 137.993 83.500 153.996 68.623 C 162.798 60.441, 170 53.392, 170 52.958 C 170 52.525, 166.574 51.363, 162.386 50.375 C 157.108 49.131, 154.380 47.954, 153.497 46.540 C 152.797 45.418, 149.640 38.538, 146.481 31.250 C 143.323 23.962, 140.441 18, 140.078 18 C 139.714 18, 133.382 20.024, 126.007 22.498 C 113.193 26.796, 111.839 27.039, 95.548 27.983 C 86.172 28.526, 77.530 28.977, 76.344 28.985 C 74.741 28.996, 72.332 26.373, 66.945 18.750 C 58.080 6.205, 58.721 6.936, 57.336 7.792 M 78.302 34.409 C 78.631 35.398, 89.441 37.345, 91.264 36.743 C 91.684 36.604, 88.857 35.777, 84.983 34.905 C 80.333 33.857, 78.063 33.689, 78.302 34.409 M 60 58.202 L 60 79.955 63.802 75.728 C 65.893 73.402, 71.757 66.683, 76.833 60.796 L 86.061 50.092 81.790 44.164 L 77.520 38.237 68.760 37.343 L 60 36.449 60 58.202" stroke="none" fill="black" fill-rule="evenodd"/>
</svg>