<svg xmlns="http://www.w3.org/2000/svg" width="200" height="200" viewBox="0 0 200 200" version="1.1">
	<path d="M 43.047 22.441 C 31.798 26.444, 22.448 30.156, 22.270 30.689 C 22.092 31.223, 24.209 36.736, 26.973 42.940 C 29.738 49.145, 32 55.003, 32 55.957 C 32 56.912, 28.642 65.294, 24.537 74.583 C 19.842 85.208, 17.425 91.825, 18.020 92.420 C 18.541 92.941, 19.133 93.172, 19.337 92.933 C 20.535 91.533, 35 57.377, 35 55.950 C 35 55, 32.765 49.205, 30.033 43.074 L 25.066 31.926 27.383 31.044 C 28.658 30.560, 37.499 27.411, 47.030 24.047 C 61.887 18.803, 64.559 18.130, 65.760 19.331 C 66.961 20.532, 66.151 24.014, 60.080 43.739 C 56.186 56.393, 53 67.388, 53 68.172 C 53 69.225, 56.587 70.195, 66.750 71.888 C 74.313 73.148, 81.427 74.391, 82.560 74.650 C 84.338 75.057, 85.473 73.380, 90.865 62.376 L 97.110 49.630 103.185 55.705 L 109.260 61.780 107.380 64.394 C 106.346 65.832, 95.802 72.667, 83.949 79.583 L 62.399 92.158 59.598 102.573 L 56.797 112.987 63.850 123.349 C 67.730 129.048, 71.038 134.221, 71.202 134.844 C 71.524 136.069, 24.061 164.395, 23.174 163.507 C 22.879 163.212, 25.944 147.340, 29.985 128.236 C 38.912 86.031, 38.638 87.621, 36.899 88.200 C 35.983 88.506, 32.982 100.668, 27.798 125.078 C 23.544 145.110, 19.766 163.461, 19.402 165.858 L 18.741 170.216 21.120 168.713 C 22.429 167.886, 35.200 160.365, 49.500 152 C 63.800 143.635, 75.614 136.687, 75.752 136.560 C 75.891 136.433, 72.352 131.016, 67.889 124.522 L 59.772 112.715 62.017 104.108 C 63.252 99.373, 64.689 94.960, 65.211 94.301 C 65.733 93.641, 75.490 87.695, 86.892 81.086 C 100.567 73.161, 108.086 68.207, 108.981 66.535 C 109.727 65.141, 110.618 64, 110.961 64 C 111.303 64, 113.457 65.912, 115.747 68.250 L 119.910 72.500 110.458 77.500 C 97.697 84.250, 97.917 85.464, 111.750 84.606 C 117.662 84.239, 124.300 83.711, 126.500 83.432 C 130.391 82.939, 130.760 83.169, 140 91.850 L 149.500 100.775 145 101.372 C 142.525 101.700, 131.950 102.663, 121.500 103.511 C 111.050 104.359, 100.155 105.315, 97.289 105.636 L 92.078 106.221 94.539 109.842 C 96.933 113.365, 97.004 113.999, 97.132 132.982 C 97.204 143.717, 97.541 157.669, 97.882 163.987 L 98.500 175.474 112.891 177.262 C 120.806 178.246, 127.460 178.873, 127.678 178.656 C 127.895 178.438, 127.696 163.914, 127.235 146.380 C 126.773 128.846, 126.520 114.324, 126.672 114.109 C 126.874 113.824, 140.779 123.796, 146.827 128.563 C 147.006 128.704, 145.099 138.166, 142.588 149.588 C 140.077 161.011, 138.186 170.520, 138.386 170.719 C 138.586 170.919, 147.356 165.434, 157.875 158.531 C 174.981 147.304, 177.001 145.689, 177.008 143.239 C 177.018 140.137, 173.154 103.632, 172.473 100.383 C 172.228 99.218, 169.547 96.351, 166.514 94.011 C 163.481 91.671, 161 89.436, 161 89.043 C 161 88.651, 165.774 82.830, 171.610 76.108 C 177.445 69.386, 182.057 63.748, 181.860 63.580 C 181.662 63.412, 171.307 55.668, 158.849 46.372 C 139.482 31.921, 134.296 28.576, 123.077 23.300 L 109.955 17.130 105.362 26.315 C 102.836 31.367, 100.642 35.642, 100.487 35.814 C 100.331 35.987, 92.083 31.375, 82.157 25.564 C 72.231 19.754, 63.972 15.036, 63.805 15.081 C 63.637 15.126, 54.296 18.438, 43.047 22.441 M 107.958 27.083 C 102.304 38.284, 102.085 37.199, 111.039 42.401 C 115.392 44.931, 119.117 47, 119.316 47 C 119.865 47, 131 31.375, 131 30.605 C 131 30.049, 112.525 21, 111.389 21 C 111.191 21, 109.647 23.737, 107.958 27.083 M 62.673 44.721 C 59.026 56.668, 56.370 66.729, 56.771 67.080 C 57.172 67.431, 62.450 68.487, 68.500 69.426 C 74.550 70.365, 80.271 71.353, 81.214 71.623 C 82.566 72.009, 84.223 69.529, 89.048 59.904 L 95.167 47.697 82.849 35.348 C 76.073 28.557, 70.254 23, 69.917 23 C 69.579 23, 66.320 32.775, 62.673 44.721 M 86.500 35.256 C 96.061 44.344, 96.553 44.668, 97.715 42.631 C 99.690 39.165, 99.315 38.608, 92.250 34.523 C 75.726 24.969, 75.685 24.975, 86.500 35.256 M 137.684 40.082 C 140.455 45.262, 146.455 56.700, 151.017 65.500 C 155.579 74.300, 159.727 82.038, 160.234 82.696 C 161.052 83.758, 166.417 78.289, 176.758 65.849 C 177.987 64.371, 175.892 62.529, 156.816 48.309 C 145.092 39.569, 134.858 32.024, 134.073 31.541 C 133.288 31.058, 134.913 34.901, 137.684 40.082 M 127.054 41.377 C 124.609 44.868, 122.767 48.123, 122.961 48.612 C 123.155 49.100, 124.783 50.625, 126.578 52 C 128.374 53.375, 135.362 59.675, 142.109 66 L 154.375 77.500 148.687 66.750 C 135.909 42.597, 131.836 35.001, 131.672 35.015 C 131.578 35.024, 129.499 37.887, 127.054 41.377 M 99.965 44.084 C 98.711 47.112, 98.797 47.277, 104.737 53.217 L 110.787 59.267 114.311 54.410 L 117.836 49.553 110.668 45.288 C 106.726 42.942, 102.992 41.017, 102.371 41.011 C 101.751 41.005, 100.668 42.388, 99.965 44.084 M 116.440 56.081 L 112.721 61.148 117.515 66.015 L 122.308 70.882 126.876 68.560 L 131.444 66.239 139.712 72.694 C 144.260 76.245, 148.729 79.004, 149.645 78.825 C 150.785 78.603, 147.081 74.523, 137.905 65.896 C 130.532 58.964, 123.523 52.779, 122.330 52.153 C 120.369 51.125, 119.801 51.503, 116.440 56.081 M 127.500 71.178 C 126.400 71.792, 125.306 72.460, 125.068 72.662 C 124.831 72.865, 126.157 74.598, 128.015 76.515 C 130.822 79.411, 132.105 80, 135.614 80 C 143.200 80, 143.465 79.230, 137.540 74.403 C 131.827 69.749, 130.704 69.388, 127.500 71.178 M 114.500 78.578 L 108.500 82.130 114 81.574 C 117.025 81.268, 121.497 81.013, 123.937 81.009 L 128.374 81 125.500 78 C 123.919 76.350, 122.148 75.006, 121.563 75.013 C 120.978 75.019, 117.800 76.624, 114.500 78.578 M 154.500 84.477 C 159.600 88.873, 160.451 88.879, 157.867 84.500 C 156.327 81.889, 155.129 81.004, 153.151 81.015 C 150.541 81.030, 150.561 81.083, 154.500 84.477 M 136.713 82.846 C 135.236 83.430, 136.649 85.246, 144.836 93.289 C 153.320 101.624, 154.440 103.090, 152.623 103.473 C 150.432 103.934, 101.945 108, 98.631 108 C 96.883 108, 96.868 108.149, 98.385 110.465 C 99.773 112.583, 100.002 116.837, 100.014 140.715 C 100.021 155.997, 100.288 169.472, 100.607 170.660 C 101.111 172.540, 102.306 172.966, 109.843 173.948 C 114.604 174.568, 119.999 175.311, 121.831 175.598 L 125.162 176.121 124.435 142.561 C 124.035 124.102, 124.017 109, 124.394 109 C 124.898 109, 140.914 120.695, 149.834 127.577 C 150.018 127.719, 148.362 136.079, 146.156 146.156 C 143.949 156.232, 142.297 164.630, 142.485 164.818 C 142.672 165.006, 149.986 160.468, 158.736 154.734 L 174.646 144.309 172.375 124.405 C 171.126 113.457, 170.081 103.543, 170.052 102.373 C 170.016 100.884, 166.546 97.507, 158.493 91.123 C 147.965 82.776, 146.626 82.006, 142.743 82.070 C 140.409 82.109, 137.696 82.458, 136.713 82.846" stroke="none" fill="black" fill-rule="evenodd"/>
</svg>