<svg xmlns="http://www.w3.org/2000/svg" width="200" height="200" viewBox="0 0 200 200" version="1.1">
	<path d="M 144.343 23.250 L 137.493 35.500 123.497 36.655 C 115.798 37.290, 96.787 38.382, 81.250 39.081 C 65.712 39.781, 53 40.694, 53 41.110 C 53 41.526, 49.640 41.784, 45.532 41.683 C 41.247 41.578, 37.944 41.926, 37.782 42.500 C 37.610 43.111, 46.195 44.149, 59.835 45.168 C 72.119 46.086, 82.469 47.136, 82.835 47.501 C 83.201 47.867, 83.500 58.120, 83.500 70.287 L 83.500 92.408 71.762 94.631 C 47.386 99.246, 48.845 98.752, 49.193 102.279 L 49.500 105.393 66.500 108.948 L 83.500 112.503 83.458 117.252 C 83.435 119.863, 83.323 129.860, 83.208 139.466 L 83 156.933 73.002 165.804 L 63.004 174.676 40.002 174.202 C 19.180 173.773, 17 173.883, 17 175.364 C 17 176.264, 17.377 177, 17.837 177 C 18.298 177, 24.710 178.104, 32.087 179.453 C 45.339 181.877, 46.309 181.910, 112.750 182.203 C 149.738 182.367, 180.001 182.328, 180 182.118 C 180 181.379, 166.743 157.959, 166.125 157.606 C 165.781 157.409, 157.056 161.640, 146.736 167.009 L 127.972 176.769 126.133 174.135 C 125.122 172.686, 121.543 167.152, 118.181 161.838 L 112.067 152.177 112.692 130.588 L 113.317 109 116.158 109 C 119.387 109, 119.355 108.937, 117.975 112.565 C 116.967 115.217, 117.003 115.249, 120.225 114.565 C 129.284 112.644, 129.889 112.678, 133.310 115.287 L 136.647 117.832 133.315 141.166 C 131.483 154, 130.100 165.523, 130.242 166.774 C 130.471 168.796, 132.637 167.451, 149.823 154.617 C 160.451 146.680, 169.359 139.975, 169.618 139.716 C 169.877 139.456, 163.319 134.214, 155.044 128.066 C 139.604 116.593, 139.385 116.323, 140.615 110.173 C 141.194 107.279, 141.530 107.079, 146.277 106.798 L 151.324 106.500 155.142 95.750 C 157.242 89.837, 158.556 85, 158.063 85 C 157.569 85, 154.991 85.943, 152.333 87.096 C 142.985 91.150, 143.336 91.107, 143.717 88.154 C 145.275 76.063, 149.911 44.776, 150.172 44.595 C 150.352 44.470, 156.774 44.723, 164.443 45.157 C 172.112 45.592, 178.511 45.822, 178.664 45.669 C 178.896 45.437, 159.713 29.294, 152.783 23.889 C 150.778 22.325, 150.765 22.137, 152.359 17.461 C 154.358 11.593, 154.380 11, 152.597 11 C 151.825 11, 148.111 16.512, 144.343 23.250 M 142.563 32.061 C 141.045 34.851, 138.835 37.526, 137.651 38.007 C 135.672 38.810, 92.504 41.756, 75 42.282 L 67.500 42.507 76.614 43.372 L 85.729 44.237 86.452 68.573 C 86.849 81.957, 86.915 93.328, 86.599 93.840 C 86.282 94.352, 78.368 96.223, 69.012 97.998 C 59.655 99.772, 52 101.615, 52 102.093 C 52 103.079, 51.508 102.950, 70.952 107.035 C 78.901 108.705, 85.609 110.275, 85.858 110.524 C 86.506 111.172, 86.067 149.656, 85.353 154.809 C 84.805 158.756, 83.906 159.867, 74.628 168.051 L 64.500 176.986 50.500 177.111 C 41.863 177.189, 37.649 177.529, 39.500 178 C 41.150 178.420, 61.264 178.817, 84.198 178.882 L 125.896 179 117.948 166.479 L 110 153.959 110 129.979 L 110 106 114.941 106 C 119.623 106, 122.380 104.528, 120.302 103.138 C 119.339 102.494, 107.643 70.363, 107.694 68.502 C 107.709 67.951, 111.410 61.370, 115.918 53.879 L 124.114 40.258 132.812 40.754 L 141.511 41.250 143.728 34.431 C 144.947 30.680, 145.805 27.472, 145.634 27.301 C 145.463 27.130, 144.081 29.272, 142.563 32.061 M 151.554 32.766 C 151.184 35.920, 150.666 39.245, 150.403 40.155 C 149.985 41.602, 151.218 41.859, 160.213 42.195 C 165.871 42.407, 170.604 42.533, 170.732 42.475 C 170.936 42.382, 160.412 33.546, 154.405 28.766 C 152.229 27.035, 152.226 27.039, 151.554 32.766 M 146.679 34.350 C 144.651 40.782, 144.641 41, 146.362 41 C 147.273 41, 147.945 39.129, 148.388 35.359 C 148.752 32.256, 148.895 29.561, 148.704 29.371 C 148.514 29.180, 147.602 31.421, 146.679 34.350 M 117.936 55.739 L 110.372 68.541 115.878 84.279 C 118.906 92.935, 121.666 99.675, 122.012 99.258 C 122.879 98.212, 140.233 44.893, 139.827 44.523 C 139.647 44.358, 136.350 43.935, 132.500 43.581 L 125.500 42.937 117.936 55.739 M 134.637 70.568 C 129.778 85.180, 126.021 97.354, 126.288 97.621 C 126.555 97.888, 129.862 96.620, 133.637 94.804 L 140.500 91.500 143.705 68.500 C 145.467 55.850, 146.930 45.163, 146.955 44.750 C 146.980 44.337, 146.206 44, 145.236 44 C 143.816 44, 141.746 49.189, 134.637 70.568 M 147.539 92.006 C 143.139 94.055, 142.174 95.701, 142.070 101.329 C 142 105.135, 142.020 105.155, 145.250 104.462 C 149.737 103.500, 149.642 103.600, 151.569 97.738 C 152.516 94.857, 153.499 91.938, 153.753 91.250 C 154.381 89.547, 152.269 89.804, 147.539 92.006 M 131.113 98.942 C 125.658 101.330, 121.949 104.368, 123.158 105.458 C 123.346 105.627, 126.987 105.534, 131.250 105.251 C 138.940 104.741, 139 104.715, 139 101.950 C 139 100.418, 139.273 98.452, 139.607 97.582 C 140.457 95.367, 138.598 95.664, 131.113 98.942 M 122.459 109.067 C 121.369 110.830, 122.619 111.199, 126.270 110.191 C 129.271 109.363, 130.156 109.571, 132.963 111.768 C 135.602 113.834, 136.360 114.042, 137.083 112.900 C 137.571 112.130, 137.976 110.713, 137.985 109.750 C 137.998 108.239, 136.985 108, 130.559 108 C 126.368 108, 122.830 108.466, 122.459 109.067 M 138.972 121.191 C 138.957 121.911, 137.634 131.489, 136.032 142.476 C 134.429 153.462, 133.281 162.614, 133.479 162.813 C 133.813 163.147, 160.809 143.293, 163.855 140.473 C 164.968 139.443, 163.098 137.630, 153.355 130.297 C 139.151 119.607, 139.008 119.516, 138.972 121.191 M 147.006 169.877 L 130.512 178.500 152.006 179.246 C 163.828 179.656, 173.996 179.881, 174.602 179.746 C 175.936 179.448, 165.922 161.024, 164.500 161.159 C 163.950 161.211, 156.078 165.134, 147.006 169.877" stroke="none" fill="black" fill-rule="evenodd"/>
</svg>