<svg xmlns="http://www.w3.org/2000/svg" width="200" height="200" viewBox="0 0 200 200" version="1.1">
	<path d="M 49 12.022 C 49 12.585, 45.200 15.496, 40.555 18.493 C 33.753 22.881, 31.936 24.579, 31.215 27.220 C 30.722 29.024, 28.372 38.389, 25.993 48.031 L 21.666 65.562 28.328 76.784 L 34.989 88.006 29.765 108.996 L 24.542 129.986 29.337 139.640 C 33.532 148.085, 34.688 151.928, 38.566 170.313 C 41.004 181.874, 43.143 191.476, 43.319 191.652 C 43.494 191.828, 49.420 179.040, 56.487 163.236 C 63.554 147.431, 69.719 134.064, 70.187 133.531 C 70.662 132.990, 70.754 133.982, 70.394 135.781 C 69.865 138.426, 71.317 142.635, 78.559 159.440 L 87.368 179.882 122.434 179.324 C 146.502 178.940, 157.862 178.410, 158.656 177.633 C 159.291 177.010, 164.804 168.720, 170.906 159.210 L 182.001 141.920 178.478 104.764 C 176.192 80.658, 174.502 67.061, 173.666 66.054 C 172.958 65.199, 169.758 61.456, 166.555 57.736 C 159.652 49.718, 158.040 44.529, 158.016 30.250 C 158.003 22.701, 157.724 21, 156.500 21 C 155.675 21, 155 21.266, 155 21.591 C 155 22.535, 139.697 81.456, 139.333 81.915 C 139.151 82.143, 134.867 82.593, 129.812 82.915 L 120.620 83.500 119.782 86.750 C 119.320 88.538, 118.618 89.982, 118.221 89.959 C 117.825 89.937, 116.018 88.650, 114.206 87.100 L 110.913 84.282 117.580 70.201 C 122.613 59.573, 124.090 55.493, 123.605 53.561 C 122.758 50.186, 121 50.273, 121 53.689 C 121 56.135, 110.925 79.234, 108.902 81.426 C 108.389 81.982, 107.236 81.618, 106.017 80.516 C 104.901 79.506, 103.712 78.955, 103.374 79.293 C 102.448 80.219, 96.136 108.387, 96.661 109.250 C 97.791 111.105, 99.064 109.270, 104.111 98.506 C 107.075 92.185, 109.725 87.026, 110 87.044 C 110.275 87.061, 112.264 88.585, 114.421 90.431 L 118.341 93.786 112.691 120.081 C 109.584 134.543, 107.188 146.522, 107.367 146.701 C 107.546 146.880, 111.196 145.430, 115.478 143.478 C 119.760 141.527, 123.459 140.126, 123.697 140.364 C 123.936 140.603, 122.010 148.943, 119.417 158.899 L 114.702 177 101.960 177 L 89.218 177 85.178 167.750 C 82.957 162.662, 79.286 154.225, 77.021 149 L 72.903 139.500 76.029 101.652 L 79.155 63.803 82.716 60.652 C 84.675 58.918, 86.670 57.246, 87.149 56.935 C 87.628 56.624, 88.739 50.774, 89.617 43.935 C 90.496 37.096, 91.344 31.360, 91.501 31.189 C 91.659 31.018, 97.269 33.626, 103.967 36.984 L 116.146 43.089 127.823 32.134 C 134.245 26.109, 141.051 19.564, 142.946 17.590 L 146.392 14 140.446 13.981 C 137.176 13.971, 116.275 13.304, 94 12.500 C 45.169 10.737, 49 10.778, 49 12.022 M 53 14.942 C 53 15.459, 55.001 24.347, 57.447 34.692 C 59.892 45.036, 63.961 65.650, 66.488 80.500 C 69.015 95.350, 71.417 108.333, 71.826 109.351 C 72.241 110.384, 73.394 100.526, 74.433 87.060 L 76.297 62.918 80.975 58.709 L 85.654 54.500 87.218 41.192 C 88.079 33.873, 89.009 27.658, 89.285 27.382 C 89.561 27.105, 95.617 29.800, 102.741 33.370 L 115.694 39.861 127.391 28.807 C 133.824 22.728, 138.868 17.534, 138.600 17.267 C 138.177 16.844, 70.810 14.157, 57.750 14.042 C 55.138 14.019, 53 14.424, 53 14.942 M 41.878 20.884 L 34.317 25.729 29.658 44.346 C 27.096 54.585, 25 63.599, 25 64.376 C 25 65.153, 27.945 70.767, 31.545 76.852 L 38.090 87.914 32.682 108.750 L 27.273 129.586 32.096 139.193 C 36.095 147.159, 37.461 151.424, 40.091 164.150 C 41.835 172.593, 43.560 180.313, 43.924 181.307 C 44.384 182.563, 48.652 174.058, 57.922 153.412 L 71.257 123.710 65.065 88.105 C 59.500 56.113, 51.618 18.687, 50.040 16.770 C 49.710 16.368, 46.037 18.220, 41.878 20.884 M 148.935 56.500 L 142.369 81.500 147.649 81.799 C 153.791 82.146, 152.865 79.696, 156.035 104 C 157.147 112.525, 158.715 124.450, 159.520 130.500 C 160.325 136.550, 160.987 141.758, 160.992 142.072 C 160.996 142.387, 151.733 150.037, 140.407 159.072 L 119.814 175.500 138.098 175.773 C 151.919 175.980, 156.664 175.736, 157.536 174.773 C 158.171 174.073, 163.286 166.224, 168.903 157.332 L 179.116 141.163 176.053 107.832 C 174.367 89.499, 172.744 73.026, 172.444 71.225 C 172.093 69.114, 169.610 65.323, 165.459 60.564 C 157.698 51.665, 156.862 49.784, 156.096 39.500 L 155.500 31.500 148.935 56.500 M 103.628 87.750 C 103.283 89.813, 102.759 92.625, 102.464 94 C 102.169 95.375, 103.069 94.080, 104.464 91.122 C 107.373 84.953, 107.529 84, 105.628 84 C 104.820 84, 103.997 85.543, 103.628 87.750 M 145.457 84.797 L 141.413 85.095 139.003 94.696 L 136.593 104.297 140.046 107.189 C 148.176 113.996, 155 119.074, 155.001 118.316 C 155.006 115.206, 150.663 85.399, 150.147 85 C 149.791 84.725, 147.681 84.633, 145.457 84.797 M 128.519 85.744 C 123.295 86.147, 122.041 87.095, 122.015 90.657 C 122 92.752, 130.021 100.491, 132.930 101.188 C 133.793 101.395, 134.977 98.729, 136.452 93.250 L 138.674 85 136.087 85.180 C 134.664 85.279, 131.259 85.533, 128.519 85.744 M 120.543 97.186 C 119.368 100.672, 111.027 141.360, 111.409 141.743 C 111.651 141.984, 114.920 140.678, 118.674 138.841 L 125.500 135.500 129.196 121.500 C 131.229 113.800, 132.917 106.964, 132.946 106.308 C 133.031 104.423, 121.070 95.625, 120.543 97.186 M 132.202 120.620 C 130.388 127.559, 129.051 133.384, 129.230 133.563 C 129.691 134.024, 154.006 122.701, 153.971 122.042 C 153.939 121.444, 137.585 108.695, 136.303 108.268 C 135.861 108.122, 134.016 113.680, 132.202 120.620 M 141.500 131.269 C 134.350 134.640, 128.342 137.504, 128.149 137.633 C 127.594 138.006, 119.011 171.345, 119.377 171.710 C 119.557 171.890, 128.209 165.220, 138.602 156.887 L 157.500 141.736 157.306 137.618 C 157.005 131.244, 155.950 124.993, 155.189 125.070 C 154.810 125.109, 148.650 127.898, 141.500 131.269" stroke="none" fill="black" fill-rule="evenodd"/>
</svg>