<svg xmlns="http://www.w3.org/2000/svg" width="200" height="200" viewBox="0 0 200 200" version="1.1">
	<path d="M 139.977 19.750 C 138.813 22.363, 136.215 28.274, 134.204 32.886 L 130.546 41.273 128.523 38.498 C 123.330 31.375, 123.557 31.526, 120.187 32.923 C 117.205 34.158, 116.438 33.860, 100.293 25.201 C 91.057 20.248, 83.365 16.556, 83.200 16.997 C 83.035 17.438, 84.048 24.239, 85.450 32.109 C 88.649 50.060, 88.645 50.598, 85.331 52.334 C 82.882 53.618, 82.062 53.459, 75.365 50.407 C 70.823 48.337, 67.828 47.469, 67.434 48.107 C 67.085 48.671, 66.957 49.250, 67.150 49.394 C 74.398 54.794, 80.110 58.053, 81.185 57.404 C 82.883 56.378, 71.501 69.202, 65.754 74.791 L 61.341 79.081 64.634 53.291 C 66.444 39.106, 68.156 26.262, 68.438 24.750 C 68.770 22.968, 68.519 22, 67.725 22 C 66.508 22, 20.855 36.967, 20.110 37.611 C 19.895 37.796, 22.085 49.097, 24.976 62.724 L 30.234 87.500 29.545 125.250 L 28.856 163 31.678 162.951 C 33.230 162.924, 41.499 161.681, 50.054 160.189 L 65.608 157.476 76.554 159.988 L 87.500 162.500 92 171.699 C 94.475 176.759, 96.751 181.135, 97.058 181.424 C 97.365 181.713, 103.884 170.968, 111.545 157.545 C 119.206 144.123, 125.672 133.339, 125.913 133.580 C 126.155 133.821, 127.103 145.045, 128.021 158.521 C 128.939 171.998, 129.921 183.254, 130.202 183.536 C 130.637 183.971, 179.322 163.598, 183.691 161.153 C 184.821 160.521, 182.114 158.119, 172.707 151.407 L 160.224 142.500 159.590 137 C 159.241 133.975, 158.703 129.392, 158.393 126.815 L 157.830 122.130 165.997 113.623 L 174.164 105.116 171.013 78.765 L 167.862 52.415 171.931 45.357 C 174.169 41.476, 176 38.014, 176 37.665 C 176 37.039, 143.492 15, 142.569 15 C 142.307 15, 141.141 17.137, 139.977 19.750 M 137.787 31.427 L 132.238 43.854 144.629 61.177 L 157.021 78.500 145.809 78.785 L 134.598 79.069 148.299 85.710 C 156.425 89.649, 162 92.934, 162 93.783 C 162 95.373, 162.310 95.456, 150.836 90.792 L 143.172 87.677 134.836 90.711 L 126.500 93.746 126.739 97.623 C 128.289 122.727, 132.277 179.574, 132.505 179.818 C 132.981 180.327, 178.962 160.569, 178.982 159.848 C 178.992 159.489, 174.104 155.669, 168.119 151.360 L 157.239 143.524 156.221 132.512 L 155.203 121.500 163.263 113.317 L 171.323 105.134 168.164 78.470 L 165.006 51.805 168.976 45.176 C 171.160 41.530, 172.621 38.256, 172.223 37.902 C 171.074 36.876, 144.092 19, 143.694 19 C 143.497 19, 140.838 24.592, 137.787 31.427 M 88.651 34.651 C 89.972 42.206, 91.161 48.494, 91.292 48.625 C 91.658 48.991, 113.972 36.570, 113.973 36 C 113.973 35.630, 91.415 23.315, 86.878 21.208 C 86.532 21.048, 87.330 27.097, 88.651 34.651 M 43 32.716 C 32.275 36.323, 23.360 39.390, 23.189 39.531 C 23.018 39.673, 25.167 50.518, 27.965 63.632 L 33.053 87.476 32.366 123.738 C 31.957 145.351, 32.048 160.008, 32.590 160.019 C 33.091 160.029, 40.854 158.828, 49.842 157.349 L 66.184 154.661 78.034 157.508 L 89.884 160.356 93.517 168.303 C 95.515 172.674, 97.508 175.856, 97.946 175.375 C 98.384 174.894, 104.881 163.807, 112.384 150.738 L 126.025 126.976 115.903 117.238 C 110.336 111.882, 105.464 107.378, 105.076 107.229 C 104.689 107.079, 102.204 111.917, 99.554 117.979 C 96.904 124.040, 94.604 129, 94.442 129 C 94.279 129, 92.682 126.412, 90.892 123.250 C 89.101 120.088, 86.614 115.854, 85.364 113.842 L 83.092 110.185 63.391 117.604 C 52.555 121.684, 43.572 124.905, 43.429 124.761 C 42.799 124.130, 73.279 89.055, 74.046 89.528 C 74.516 89.819, 77.038 93.815, 79.651 98.408 L 84.401 106.759 90.909 104.310 C 94.489 102.962, 97.851 101.592, 98.381 101.264 C 98.911 100.937, 94.534 96.131, 88.653 90.584 C 82.033 84.341, 78.254 80.074, 78.730 79.382 C 79.272 78.594, 83.940 79.548, 94.500 82.603 C 102.750 84.990, 109.603 86.955, 109.730 86.971 C 110.267 87.039, 114.101 78.767, 113.712 78.379 C 113.477 78.144, 110.296 77.672, 106.642 77.331 C 102.521 76.946, 100 76.259, 100 75.521 C 100 74.660, 102.247 74.461, 108.129 74.801 C 114.279 75.157, 116.158 74.973, 115.848 74.043 C 115.622 73.366, 108.596 69.515, 100.235 65.484 L 85.032 58.156 71.766 72.512 C 64.470 80.408, 58.365 86.278, 58.200 85.556 C 58.035 84.835, 59.498 71.901, 61.450 56.815 C 65.465 25.794, 65.452 25.971, 63.750 26.079 C 63.063 26.122, 53.725 29.109, 43 32.716 M 121 35.640 C 121 35.992, 121.648 36.779, 122.440 37.390 C 123.646 38.319, 122.669 40.683, 116.440 51.905 C 112.348 59.278, 109 65.607, 109 65.970 C 109 66.680, 115.517 70, 116.911 70 C 117.375 70, 120.330 64.173, 123.477 57.052 L 129.199 44.104 125.930 39.552 C 122.993 35.462, 121 33.880, 121 35.640 M 102.513 45.782 C 94.820 50.032, 88.395 54.188, 88.235 55.018 C 87.891 56.803, 104.800 65.600, 106.092 64.308 C 108.032 62.368, 119.931 39.698, 119.433 38.891 C 118.423 37.258, 116.590 38.004, 102.513 45.782 M 130.666 47.731 C 130.038 48.747, 122.130 66.620, 120.900 69.801 C 120.106 71.856, 120.465 72.309, 124.255 74.029 C 127.628 75.560, 130.811 75.961, 139.750 75.978 C 145.938 75.990, 151 75.720, 151 75.378 C 151 73.975, 131.137 46.969, 130.666 47.731 M 115.138 82.653 C 112.551 87.977, 112.653 88.117, 120.424 89.982 C 125.374 91.169, 126.135 91.075, 133.355 88.391 L 141.026 85.538 133.763 81.819 C 128.633 79.191, 125.163 78.084, 121.949 78.049 C 117.508 78.001, 117.344 78.112, 115.138 82.653 M 93.458 91.563 C 98.385 96.219, 102.885 99.876, 103.458 99.689 C 104.460 99.364, 109.405 89.977, 108.797 89.555 C 108.173 89.121, 86.085 83.002, 85.313 83.049 C 84.866 83.076, 88.531 86.907, 93.458 91.563 M 110.123 93.629 C 109.464 95.075, 109.135 96.469, 109.392 96.725 C 109.649 96.982, 112.253 96.290, 115.180 95.187 L 120.500 93.182 117.685 92.091 C 113.308 90.395, 111.422 90.778, 110.123 93.629 M 63.386 104.646 C 57.949 111.096, 53.142 116.961, 52.705 117.678 C 51.951 118.916, 53.767 118.323, 74.729 110.486 L 81.958 107.784 79.274 103.142 C 77.799 100.589, 75.844 97.244, 74.931 95.709 L 73.272 92.918 63.386 104.646 M 115.108 98.042 C 111.042 99.605, 107.233 101.367, 106.643 101.957 C 105.879 102.721, 108.294 105.766, 115.030 112.530 C 120.233 117.755, 124.656 121.531, 124.860 120.920 C 125.459 119.124, 123.860 94.991, 123.149 95.100 C 122.792 95.155, 119.173 96.479, 115.108 98.042 M 93.729 106.214 L 85.959 109.185 89.138 114.842 C 94.262 123.961, 93.890 123.982, 98.184 114.335 C 100.322 109.535, 101.942 105.075, 101.785 104.425 C 101.592 103.623, 99.005 104.198, 93.729 106.214" stroke="none" fill="black" fill-rule="evenodd"/>
</svg>