<svg xmlns="http://www.w3.org/2000/svg" width="200" height="200" viewBox="0 0 200 200" version="1.1">
	<path d="M 134.610 26.547 L 112.720 33.938 95.610 32.988 C 64.083 31.238, 25 32.094, 25 34.535 C 25 35.294, 28.044 36.256, 32.975 37.057 L 40.949 38.352 46.619 51.737 L 52.288 65.122 49.059 85.811 C 47.283 97.190, 44.052 115.950, 41.880 127.500 C 37.759 149.410, 32.714 182.047, 33.350 182.683 C 33.946 183.279, 77.390 169.562, 93.981 163.540 C 102.373 160.493, 109.537 158, 109.900 158 C 110.263 158, 115.046 164.059, 120.530 171.465 C 129.421 183.472, 130.825 184.934, 133.500 184.971 C 137.066 185.021, 181.317 179.910, 181.910 179.379 C 182.432 178.913, 183.866 138.640, 183.380 138.093 C 183.182 137.869, 176.164 142.245, 167.785 147.817 C 157.559 154.617, 152.346 157.545, 151.930 156.724 C 151.588 156.051, 149.345 148.123, 146.945 139.107 L 142.582 122.714 144.923 104.607 C 148.765 74.905, 149.073 78.691, 142.077 69.629 C 138.735 65.299, 136 61.668, 136 61.560 C 136 61.452, 139.967 56.722, 144.815 51.049 L 153.630 40.736 160.565 40.618 L 167.500 40.500 168.284 33.500 C 168.715 29.650, 168.940 24.753, 168.784 22.618 L 168.500 18.737 160.500 28.357 C 152.694 37.745, 152.397 37.978, 148.250 37.989 C 145.912 37.995, 144 37.740, 144 37.421 C 144 37.103, 146.780 33.391, 150.177 29.171 C 158.377 18.988, 158.377 18.988, 157.372 19.078 C 156.893 19.120, 146.649 22.481, 134.610 26.547 M 131.500 30.445 L 113.500 36.650 99 35.900 C 80.428 34.939, 38.926 34.915, 41.343 35.866 C 42.510 36.325, 45.371 41.711, 49.141 50.546 L 55.096 64.500 51.950 85 C 50.219 96.275, 46.832 116.075, 44.423 129 C 39.666 154.517, 36.021 179, 36.979 179 C 38.580 179, 80.338 165.514, 93.989 160.589 C 102.507 157.515, 109.990 155, 110.616 155 C 111.242 155, 116.377 161.188, 122.027 168.750 C 127.676 176.313, 132.344 182.545, 132.399 182.600 C 132.650 182.847, 179.167 177.162, 179.440 176.851 C 179.846 176.388, 180.810 143, 180.417 143 C 180.250 143, 173.521 147.308, 165.464 152.574 C 157.407 157.840, 150.676 162.002, 150.505 161.824 C 150.335 161.646, 147.846 152.950, 144.974 142.500 L 139.752 123.500 142.570 100.922 L 145.389 78.345 139.944 71.206 C 136.950 67.279, 134.275 64.075, 134 64.085 C 133.514 64.103, 108.392 93.653, 104.607 98.659 L 102.715 101.162 109.581 108.081 C 113.357 111.887, 116.686 115, 116.979 115 C 117.272 115, 117.210 111.062, 116.843 106.250 C 115.756 92.028, 115.844 89, 117.343 89 C 118.382 89, 119.003 93.820, 120.080 110.250 C 120.846 121.938, 121.479 131.927, 121.486 132.448 C 121.494 132.969, 115.352 138.484, 107.838 144.704 L 94.176 156.012 79.338 150.369 C 71.177 147.266, 64.172 144.437, 63.771 144.084 C 63.370 143.731, 65.427 131.841, 68.342 117.662 L 73.643 91.883 78.317 87.209 L 82.991 82.535 91.266 90.768 C 95.818 95.295, 99.798 99, 100.111 99 C 100.425 99, 103.778 95.300, 107.564 90.777 C 113.618 83.545, 114.830 81.376, 117.620 72.777 C 119.364 67.400, 120.590 63, 120.344 63 C 120.097 63, 112.831 65.901, 104.198 69.447 C 95.564 72.994, 87.881 76.031, 87.125 76.197 C 85.359 76.586, 76.668 40.019, 78.398 39.481 C 80.597 38.798, 135.864 36.731, 137.874 37.257 C 139.511 37.685, 141.095 36.366, 145.513 30.898 C 148.578 27.104, 150.729 24.054, 150.293 24.120 C 149.857 24.185, 141.400 27.032, 131.500 30.445 M 160.565 32.476 L 155.845 38 160.329 38 L 164.812 38 165.509 32.936 C 165.892 30.151, 165.998 27.665, 165.745 27.412 C 165.492 27.158, 163.161 29.437, 160.565 32.476 M 98.054 41.177 C 89.009 41.662, 81.438 42.229, 81.229 42.437 C 80.714 42.953, 87.099 71.305, 87.946 72.260 C 88.316 72.678, 96.243 69.860, 105.560 65.998 C 123.678 58.488, 123.517 58.604, 133.384 46.044 L 138.133 40 126.316 40.148 C 119.817 40.230, 107.099 40.693, 98.054 41.177 M 135.357 47.754 C 129.897 54.639, 129.425 55.580, 131.107 56.218 C 132.148 56.613, 133 57.438, 133 58.051 C 133 58.665, 133.426 59.017, 133.946 58.833 C 134.912 58.493, 150 41.190, 150 40.422 C 150 40.190, 148.088 40.002, 145.750 40.004 C 141.646 40.008, 141.289 40.274, 135.357 47.754 M 126.440 60.136 C 125.048 60.812, 123.525 63.744, 121.742 69.183 C 120.291 73.608, 119.242 77.065, 119.410 76.865 C 119.578 76.664, 122.520 73.216, 125.946 69.202 C 133.198 60.707, 133.414 56.749, 126.440 60.136 M 79.260 90.236 C 76.307 93.288, 75.802 94.965, 71.507 116 C 68.980 128.375, 66.820 139.365, 66.707 140.422 C 66.496 142.383, 67.345 142.792, 87.644 150.498 L 93.789 152.831 106.501 142.324 C 118.615 132.312, 119.185 131.674, 118.607 128.784 C 118.273 127.115, 118 124.294, 118 122.514 L 118 119.279 96.250 125.623 C 84.287 129.112, 74.171 131.862, 73.770 131.733 C 73.368 131.605, 78.656 124.889, 85.520 116.809 C 92.384 108.729, 98 101.909, 98 101.653 C 98 101.068, 84.108 87.594, 83.136 87.236 C 82.741 87.091, 80.997 88.441, 79.260 90.236 M 90.258 115.237 C 85.176 121.349, 81.160 126.493, 81.334 126.668 C 81.679 127.012, 113.214 117.994, 113.944 117.342 C 114.609 116.748, 101.721 103.990, 100.529 104.062 C 99.963 104.096, 95.341 109.125, 90.258 115.237" stroke="none" fill="black" fill-rule="evenodd"/>
</svg>