<svg xmlns="http://www.w3.org/2000/svg" width="200" height="200" viewBox="0 0 200 200" version="1.1">
	<path d="M 158.500 21.487 C 152.969 22.340, 150.292 22.398, 149.826 21.675 C 149.372 20.970, 148.652 21.044, 147.616 21.904 C 146.771 22.605, 135.149 24.751, 121.790 26.673 C 108.430 28.595, 97.354 30.313, 97.176 30.491 C 96.998 30.669, 97.572 32.206, 98.452 33.907 L 100.051 37 93.030 37 L 86.010 37 75.385 29.347 L 64.760 21.695 40.380 29.528 C 26.971 33.837, 16 37.630, 16 37.958 C 16 38.285, 19.150 47.979, 23 59.500 L 30 80.446 30 96.636 L 30 112.826 22.413 143.492 C 18.240 160.359, 15.025 174.358, 15.269 174.602 C 15.650 174.983, 69.265 143.850, 71.200 142.124 C 71.585 141.781, 68.983 134.787, 65.419 126.581 C 61.854 118.376, 59.289 111.370, 59.719 111.013 C 60.922 110.012, 79.001 104.889, 79.797 105.324 C 84.179 107.714, 114.133 126.406, 114.479 126.966 C 114.733 127.378, 108.020 130.315, 99.559 133.494 C 91.099 136.672, 83.575 139.665, 82.838 140.145 C 81.852 140.789, 85.564 144.913, 96.951 155.826 C 105.449 163.970, 111.974 170.879, 111.451 171.178 C 110.928 171.478, 99.588 173.447, 86.250 175.554 C 70.459 178.049, 62 179.797, 62 180.564 C 62 182.023, 79.895 182.934, 113 183.162 C 134.093 183.307, 169.494 181.002, 185.750 178.425 C 188.766 177.947, 190.584 175, 187.863 175 C 186.171 175, 141.715 167.959, 140.177 167.447 C 139.447 167.204, 146.610 160.888, 156.177 153.339 C 165.705 145.821, 173.712 139.495, 173.971 139.281 C 174.812 138.585, 172.205 137.455, 160.506 133.444 C 154.180 131.275, 149.003 129.218, 149.002 128.873 C 149.001 128.528, 152.057 126.015, 155.794 123.288 L 162.589 118.331 172.810 91.798 L 183.032 65.265 175.753 42.961 C 171.749 30.694, 168.029 20.566, 167.487 20.455 C 166.944 20.343, 162.900 20.808, 158.500 21.487 M 157.500 24.377 C 151.398 25.360, 150.532 25.761, 150.749 27.502 C 151.932 36.999, 152.864 64.536, 152.030 65.370 C 151.482 65.918, 150.773 66.106, 150.454 65.787 C 150.135 65.469, 149.516 59.299, 149.078 52.078 C 148.640 44.856, 148.091 38.758, 147.858 38.525 C 147.626 38.293, 138.632 38.372, 127.872 38.702 L 108.309 39.302 110.758 49.069 C 112.105 54.440, 115.073 62.549, 117.353 67.088 L 121.500 75.341 140.419 80.920 C 150.825 83.989, 159.525 87.063, 159.753 87.750 C 160.230 89.191, 150.603 89.284, 124.500 88.093 C 115.560 87.684, 107.982 87.750, 107.326 88.240 C 106.540 88.829, 99.628 83.613, 86.370 72.428 C 75.490 63.249, 66.417 56.248, 66.209 56.872 C 65.874 57.879, 68.156 74.828, 69.639 82.343 C 70.079 84.572, 69.862 85.111, 68.636 84.843 C 67.240 84.537, 45 41.336, 45 38.932 C 45 38.419, 48.712 37.998, 53.250 37.995 C 57.788 37.992, 65.848 37.702, 71.163 37.350 L 80.826 36.710 75.163 32.541 C 63.316 23.821, 66.842 23.959, 43.800 31.319 C 32.635 34.885, 22.547 38.084, 21.381 38.427 C 19.318 39.035, 19.433 39.568, 25.754 58.776 L 32.245 78.500 32.700 95 L 33.155 111.500 26.055 140.395 C 22.151 156.287, 19.078 169.383, 19.228 169.498 C 19.763 169.908, 67.426 141.222, 67.731 140.306 C 67.903 139.792, 65.120 132.676, 61.547 124.493 C 57.974 116.310, 55.206 109.461, 55.395 109.272 C 55.584 109.083, 61.139 107.347, 67.740 105.415 L 79.742 101.901 100.401 114.620 C 111.764 121.616, 120.708 127.692, 120.276 128.124 C 119.844 128.556, 112.342 131.618, 103.604 134.929 C 94.866 138.240, 87.465 141.202, 87.156 141.510 C 86.848 141.819, 93.543 149.030, 102.036 157.536 C 110.528 166.041, 117.256 173.053, 116.988 173.117 C 116.720 173.181, 107.950 174.663, 97.500 176.409 L 78.500 179.585 104.500 180.280 C 126.578 180.869, 133.743 180.670, 152 178.962 C 163.825 177.856, 174.400 176.836, 175.500 176.694 C 176.600 176.553, 168.050 174.924, 156.500 173.074 C 144.950 171.225, 134.890 169.395, 134.145 169.007 C 133.231 168.532, 138.685 163.646, 150.895 154 C 160.853 146.134, 169 139.578, 169 139.432 C 169 139.285, 163.379 137.293, 156.510 135.003 C 149.640 132.714, 143.790 130.469, 143.509 130.015 C 143.229 129.561, 146.937 126.309, 151.750 122.787 L 160.500 116.385 170.322 90.657 L 180.143 64.930 173.259 44.277 C 169.473 32.919, 165.953 23.541, 165.438 23.437 C 164.922 23.334, 161.350 23.757, 157.500 24.377 M 122.500 29.237 C 110.950 30.881, 101.351 32.362, 101.169 32.527 C 100.393 33.234, 103.191 37, 104.082 36.449 C 104.622 36.115, 113.571 35.893, 123.968 35.956 C 147.894 36.100, 148 36.076, 148 30.392 C 148 25.126, 150.571 25.242, 122.500 29.237 M 94.651 39.882 L 90.801 40.500 93.651 42.538 C 95.218 43.659, 98.857 46.281, 101.738 48.364 L 106.976 52.153 104.151 45.826 C 101.174 39.157, 100.765 38.901, 94.651 39.882 M 104.564 40.293 C 104.940 41.279, 105.499 41.834, 105.807 41.526 C 106.115 41.219, 105.808 40.412, 105.124 39.733 C 104.136 38.753, 104.022 38.868, 104.564 40.293 M 54.750 40.739 C 51.587 40.937, 49.024 41.415, 49.053 41.800 C 49.194 43.676, 64.902 73.263, 64.947 71.739 C 64.976 70.771, 64.305 65.657, 63.455 60.375 C 62.605 55.093, 62.055 50.336, 62.232 49.803 C 62.410 49.270, 72.155 56.903, 83.887 66.766 L 105.219 84.697 125.240 85.385 C 136.251 85.764, 145.431 85.903, 145.639 85.694 C 145.848 85.486, 139.908 83.527, 132.440 81.342 L 118.862 77.368 114.239 67.385 L 109.617 57.401 97.558 48.706 L 85.500 40.011 73 40.194 C 66.125 40.296, 57.913 40.541, 54.750 40.739" stroke="none" fill="black" fill-rule="evenodd"/>
</svg>