<svg xmlns="http://www.w3.org/2000/svg" width="200" height="200" viewBox="0 0 200 200" version="1.1">
	<path d="M 123.586 20.519 L 96.673 26.817 74.178 22.856 C 57.353 19.894, 51.498 19.195, 50.949 20.083 C 50.545 20.736, 47.164 29.197, 43.435 38.885 L 36.654 56.500 40.855 81.945 C 43.165 95.939, 45.241 107.574, 45.467 107.800 C 45.852 108.186, 70.347 106.457, 78 105.504 L 81.500 105.068 78.500 106.383 C 76.850 107.105, 66.612 110.965, 55.750 114.959 C 31.340 123.934, 30.355 125.294, 48.943 124.353 L 61.886 123.698 62.431 126.099 C 62.731 127.419, 63.661 133, 64.497 138.500 C 65.334 144, 66.263 149.686, 66.563 151.135 C 67.081 153.640, 65.886 154.536, 42.552 169.130 C 20.321 183.035, 15.076 187.109, 20.604 186.182 C 22.102 185.931, 67.693 173.575, 75.294 171.360 C 76.280 171.073, 84.470 161.015, 93.493 149.009 C 102.516 137.003, 110.311 126.926, 110.814 126.615 C 112.086 125.829, 148.222 139.187, 147.271 140.091 C 146.847 140.494, 137.275 144.953, 126 150 C 114.725 155.047, 105.169 159.490, 104.764 159.874 C 104.359 160.258, 113.969 167.018, 126.118 174.896 C 144.447 186.781, 148.423 188.988, 149.467 187.860 C 150.883 186.331, 183 136.209, 183 135.529 C 183 135.290, 176.076 130.354, 167.613 124.562 L 152.226 114.030 130.363 111.765 L 108.500 109.500 107.919 100.500 C 107.600 95.550, 107.405 91.394, 107.487 91.265 C 107.569 91.136, 119.050 94.842, 133 99.500 C 146.950 104.158, 158.447 107.864, 158.548 107.735 C 158.650 107.606, 162.007 96.277, 166.010 82.560 L 173.287 57.621 163.675 38.368 C 154.877 20.744, 154.230 19.062, 156.032 18.490 C 157.114 18.146, 158 17.232, 158 16.458 C 158 15.427, 157.197 15.211, 155 15.650 C 153.089 16.032, 152 15.842, 152 15.125 C 152 13.731, 155.178 13.127, 123.586 20.519 M 123.813 23.284 C 114.085 25.545, 106.311 27.695, 106.538 28.062 C 106.766 28.430, 108.573 28.994, 110.554 29.315 C 113.325 29.765, 117.547 28.725, 128.829 24.814 C 150.021 17.467, 149.512 17.312, 123.813 23.284 M 131.023 26.738 L 114.545 32.318 105.755 31.074 C 97.774 29.944, 90.099 30.264, 87.500 31.835 C 86.950 32.167, 95.273 34.131, 105.996 36.198 L 125.492 39.956 130.731 36.478 C 133.612 34.565, 136.426 33, 136.985 33 C 138.585 33, 138.177 34.960, 136 37.727 C 134.900 39.126, 134 40.608, 134 41.021 C 134 41.435, 136.083 42.085, 138.628 42.467 C 141.173 42.849, 143.801 43.370, 144.467 43.626 C 145.305 43.947, 146.191 41.005, 147.339 34.090 C 149.198 22.900, 149.333 20.965, 148.250 21.079 C 147.838 21.122, 140.085 23.669, 131.023 26.738 M 52.102 24.172 C 43.459 46.320, 39.997 55.839, 39.985 57.490 C 39.976 58.595, 41.652 69.737, 43.708 82.250 C 47.435 104.931, 47.454 105, 49.973 104.996 C 51.363 104.994, 59.700 104.324, 68.500 103.508 C 88.172 101.683, 93.297 101.609, 92.781 103.156 C 92.569 103.792, 82.294 108.051, 69.948 112.621 C 57.602 117.191, 47.091 121.082, 46.590 121.268 C 46.090 121.454, 49.929 121.421, 55.121 121.194 L 64.562 120.781 67.183 137.640 C 69.162 150.362, 69.522 154.781, 68.653 155.644 C 68.019 156.273, 58.725 162.287, 48 169.008 C 37.275 175.729, 29.400 181.017, 30.500 180.759 C 31.600 180.501, 42.119 177.653, 53.876 174.430 L 75.252 168.569 92.376 145.840 C 101.794 133.339, 109.913 123.085, 110.418 123.055 C 111.470 122.992, 151.502 137.622, 153.807 138.912 C 154.975 139.566, 154.307 140.219, 150.913 141.738 C 148.486 142.825, 138.175 147.442, 128 151.997 C 117.825 156.552, 109.390 160.363, 109.256 160.466 C 108.828 160.796, 146.739 185.001, 147.638 184.972 C 148.563 184.942, 179.013 137.669, 178.981 136.312 C 178.971 135.865, 172.783 131.288, 165.231 126.140 L 151.500 116.781 129.072 114.379 C 116.736 113.058, 106.497 111.830, 106.318 111.652 C 105.845 111.178, 104.274 88.579, 104.679 88.073 C 104.867 87.838, 116.526 91.365, 130.588 95.912 C 144.650 100.458, 156.362 103.972, 156.614 103.719 C 156.866 103.467, 160.064 93.036, 163.719 80.539 L 170.364 57.817 161.475 39.949 C 156.585 30.122, 152.445 22.222, 152.273 22.393 C 152.102 22.565, 149.716 36.609, 146.972 53.603 C 141.011 90.512, 141.331 89, 139.481 89 C 138.237 89, 138 86.522, 138 73.500 C 138 64.975, 137.745 58, 137.433 58 C 136.268 58, 76.220 79.859, 69.336 82.789 C 62.809 85.567, 61 85.837, 61 84.032 C 61 83.683, 74.699 74.207, 91.441 62.974 C 108.184 51.740, 121.742 42.409, 121.570 42.236 C 121.002 41.669, 79.895 34, 77.420 34 C 73.995 34, 74.431 35.025, 79.472 38.822 C 81.945 40.684, 83.664 42.712, 83.385 43.438 C 82.866 44.791, 81.336 44.574, 62.250 40.436 C 53.231 38.480, 52.824 36.735, 60.986 35.003 C 66.551 33.822, 66.929 33.567, 66.377 31.366 C 65.697 28.656, 66.892 28.427, 73.500 30 C 76.944 30.820, 89.833 29.499, 88.769 28.435 C 88.608 28.275, 81.732 26.971, 73.488 25.538 C 65.245 24.105, 57.265 22.688, 55.755 22.388 C 53.540 21.948, 52.835 22.293, 52.102 24.172 M 65 36.936 C 62.884 37.560, 63.421 37.860, 68.500 38.895 C 71.800 39.568, 75.175 40.319, 76 40.564 C 76.825 40.809, 76.237 39.882, 74.694 38.504 C 71.856 35.971, 69.544 35.597, 65 36.936 M 101.758 59.220 C 88.700 68.092, 78.173 75.506, 78.364 75.697 C 78.555 75.888, 89.464 72.161, 102.606 67.414 C 115.748 62.668, 129.510 57.744, 133.188 56.473 L 139.877 54.161 140.630 62.331 L 141.384 70.500 143.132 59.524 C 144.094 53.487, 144.703 48.370, 144.486 48.153 C 144.269 47.936, 139.239 48.681, 133.308 49.808 C 127.376 50.935, 122.329 51.662, 122.091 51.424 C 121.853 51.187, 122.544 49.981, 123.627 48.746 C 124.709 47.511, 126.191 45.712, 126.920 44.750 C 130.081 40.575, 124.361 43.864, 101.758 59.220 M 129.405 46.133 C 127.527 48.235, 127.529 48.258, 129.500 47.720 C 130.600 47.420, 133.300 46.844, 135.500 46.439 C 139.190 45.761, 139.306 45.646, 137 44.952 C 132.808 43.690, 131.390 43.911, 129.405 46.133" stroke="none" fill="black" fill-rule="evenodd"/>
</svg>