<svg xmlns="http://www.w3.org/2000/svg" width="200" height="200" viewBox="0 0 200 200" version="1.1">
	<path d="M 99.449 22.112 L 84.397 29.089 82.124 43.294 C 78.755 64.338, 79.080 63.862, 75.847 52.482 L 73.019 42.531 63.084 32.596 L 53.148 22.660 43.487 37.443 C 37.350 46.832, 34.174 52.574, 34.780 53.180 C 35.387 53.787, 38.976 49.215, 44.618 40.649 L 53.500 27.163 61.825 35.184 L 70.149 43.206 73.924 56.119 C 76 63.221, 77.999 69.332, 78.366 69.699 C 79.911 71.244, 80.950 67.529, 83.850 50.095 C 85.533 39.972, 87.268 31.360, 87.705 30.957 C 89.237 29.545, 111.126 19.793, 111.631 20.298 C 111.912 20.578, 112.556 28.123, 113.064 37.064 C 113.572 46.005, 114.155 53.488, 114.360 53.694 C 115.475 54.809, 142.004 59.122, 151 59.650 C 156.775 59.990, 162.070 60.567, 162.767 60.933 C 163.463 61.299, 159.638 62.638, 154.267 63.910 C 146.219 65.814, 128.909 72.125, 112.371 79.182 L 109.241 80.518 114.584 98.509 C 117.522 108.404, 119.943 116.838, 119.963 117.250 C 119.983 117.662, 118.488 118, 116.640 118 L 113.279 118 112.549 141.610 C 112.148 154.595, 112.197 165.571, 112.660 166.001 C 113.744 167.010, 138.837 176, 140.569 176 C 141.292 176, 148.743 173.534, 157.127 170.519 C 165.511 167.504, 172.467 165.142, 172.584 165.269 C 172.700 165.396, 171.540 168.650, 170.005 172.500 L 167.215 179.500 160.857 179.243 C 157.361 179.102, 127.725 178.877, 95 178.743 C 48.264 178.552, 35.071 178.222, 33.500 177.203 C 31.812 176.107, 32.981 175.987, 41 176.433 C 46.225 176.724, 55.225 177.206, 61 177.504 L 71.500 178.048 80.862 166.388 L 90.223 154.729 85.978 135.114 C 83.643 124.326, 81.321 115.235, 80.817 114.910 C 80.313 114.586, 82.398 107.730, 85.450 99.676 C 88.503 91.622, 91 84.608, 91 84.091 C 91 82.539, 62.920 62.673, 62.069 63.623 C 61.636 64.105, 54.600 72.600, 46.433 82.500 C 38.266 92.400, 31.115 100.831, 30.542 101.235 C 29.306 102.106, 21 102.261, 21 101.413 C 21 101.090, 24.891 91.855, 29.646 80.892 C 34.401 69.928, 37.964 60.631, 37.564 60.231 C 37.164 59.831, 36.294 60.245, 35.631 61.152 C 33.512 64.050, 16.622 103.955, 17.248 104.582 C 17.580 104.913, 21.147 104.866, 25.176 104.477 L 32.500 103.770 47.500 85.447 C 55.750 75.370, 62.849 67.096, 63.276 67.062 C 63.945 67.009, 85.004 81.831, 87.341 84.001 C 87.803 84.430, 85.614 91.541, 82.477 99.802 L 76.772 114.822 55.636 114.661 C 42.248 114.559, 34.405 114.867, 34.241 115.500 C 34.078 116.129, 42.201 116.759, 56.140 117.199 C 68.328 117.584, 78.634 118.259, 79.045 118.699 C 79.455 119.140, 81.462 127.267, 83.506 136.760 L 87.221 154.020 78.861 164.550 L 70.500 175.080 59.500 174.546 C 19.792 172.619, 20.710 172.631, 21.180 174.039 C 21.429 174.786, 24.753 176.740, 28.566 178.382 L 35.500 181.368 95.500 181.464 C 128.500 181.517, 158.468 181.940, 162.095 182.403 L 168.689 183.244 171.449 176.372 C 172.967 172.592, 175.048 167.381, 176.074 164.791 L 177.939 160.082 166.719 164.147 C 160.549 166.384, 152.150 169.360, 148.055 170.763 L 140.610 173.312 127.808 168.906 L 115.006 164.500 115.007 155.500 C 115.008 150.550, 115.303 140.715, 115.664 133.645 L 116.319 120.789 137.660 121.517 L 159 122.244 159.087 119.372 C 159.135 117.792, 159.475 112.563, 159.843 107.750 C 160.210 102.938, 160.335 99, 160.120 99 C 159.904 99, 151.696 102.600, 141.878 107 C 132.060 111.400, 123.649 115, 123.187 115 C 121.921 115, 112.652 82.943, 113.642 81.993 C 116.171 79.568, 146.495 68.616, 159.831 65.312 C 171.662 62.381, 174.993 61.200, 174.767 60.020 C 174.530 58.786, 171.282 58.287, 157.488 57.369 C 140.178 56.216, 118.093 52.535, 116.765 50.581 C 116.361 49.986, 115.976 45.675, 115.909 41 C 115.843 36.325, 115.498 28.593, 115.144 23.818 L 114.500 15.136 99.449 22.112 M 140.741 110.586 C 122.507 118.871, 122.551 119, 143.606 119 C 157.787 119, 157.385 119.308, 156.806 108.922 L 156.500 103.427 140.741 110.586" stroke="none" fill="black" fill-rule="evenodd"/>
</svg>