<svg xmlns="http://www.w3.org/2000/svg" width="200" height="200" viewBox="0 0 200 200" version="1.1">
	<path d="M 53.743 23.384 C 41.227 26.810, 30.604 30.038, 30.137 30.557 C 29.669 31.075, 26.922 43.466, 24.033 58.090 L 18.780 84.681 28.494 98.888 L 38.207 113.096 37.470 148.068 C 36.847 177.639, 36.947 182.964, 38.117 182.548 C 38.878 182.278, 49.787 179.589, 62.361 176.573 L 85.221 171.090 112.861 176.489 C 128.062 179.459, 142.075 182.157, 144 182.485 L 147.500 183.081 158.195 165.504 L 168.891 147.927 164.508 122.932 L 160.125 97.937 172.562 71.790 C 179.403 57.409, 184.998 45.160, 184.995 44.571 C 184.992 43.982, 177.163 39.320, 167.599 34.210 L 150.209 24.921 122.243 27.460 C 106.862 28.857, 94.001 30, 93.664 30 C 93.326 30, 93.488 28.846, 94.025 27.435 C 95.585 23.332, 95.191 22.774, 92.049 24.630 L 89.099 26.373 83.134 21.686 C 79.853 19.109, 77.018 17.035, 76.834 17.077 C 76.651 17.120, 66.260 19.958, 53.743 23.384 M 54.056 26.141 C 42.261 29.394, 32.467 32.200, 32.290 32.377 C 32.114 32.553, 29.657 44.255, 26.830 58.380 L 21.692 84.062 31.416 98.352 L 41.141 112.641 40.271 145.570 C 39.793 163.682, 39.511 178.662, 39.645 178.861 C 39.779 179.060, 50.035 176.767, 62.436 173.766 L 84.983 168.310 107.188 172.625 C 119.401 174.998, 129.508 176.825, 129.649 176.685 C 129.964 176.369, 120.078 144.745, 119.476 144.143 C 119.237 143.904, 109.118 147.206, 96.990 151.481 L 74.938 159.254 65.751 158.076 C 60.698 157.428, 56.450 156.784, 56.312 156.645 C 56.173 156.506, 68.797 148.556, 84.366 138.977 L 112.672 121.562 111.333 117.111 C 110.596 114.663, 109.870 112.537, 109.719 112.386 C 109.568 112.235, 101.639 113.168, 92.098 114.458 L 74.750 116.805 68.476 123.024 C 65.025 126.444, 61.753 128.965, 61.204 128.626 C 60.588 128.245, 61.571 123.607, 63.772 116.507 C 65.734 110.181, 67.106 104.773, 66.822 104.489 C 66.538 104.205, 59.184 102.401, 50.480 100.480 C 41.776 98.559, 34.527 96.861, 34.372 96.705 C 34.217 96.550, 42.828 92.677, 53.508 88.099 C 64.188 83.520, 73.583 79.262, 74.385 78.637 C 75.188 78.012, 76.998 73.690, 78.408 69.033 L 80.971 60.566 77.736 57.171 L 74.500 53.776 61.250 54.304 C 53.962 54.595, 48 54.721, 48 54.584 C 48 54.448, 56.550 48.548, 67 41.474 C 77.450 34.399, 86 28.341, 86 28.011 C 86 27.346, 76.513 19.933, 75.891 20.113 C 75.676 20.175, 65.850 22.888, 54.056 26.141 M 119.546 30.371 L 96.592 32.500 107.046 40.872 C 112.796 45.476, 117.450 49.791, 117.388 50.461 C 117.326 51.131, 113.585 56.950, 109.075 63.393 L 100.875 75.106 102.520 80.061 C 103.505 83.024, 104.593 84.751, 105.230 84.358 C 105.815 83.996, 111.768 78.705, 118.458 72.600 C 140.085 52.865, 152.999 41.883, 153.025 43.207 C 153.038 43.918, 151.155 55.438, 148.840 68.807 L 144.631 93.113 128.808 100.716 C 120.105 104.897, 113.107 108.441, 113.257 108.591 C 113.407 108.741, 119.591 108.025, 127 107 C 134.409 105.975, 140.646 105.312, 140.860 105.527 C 141.221 105.887, 131.871 130.151, 129.751 134.357 C 129.152 135.546, 128.469 135.869, 127.853 135.253 C 127.237 134.637, 127.828 130.597, 129.493 124.027 C 130.924 118.381, 131.948 113.614, 131.768 113.434 C 131.527 113.194, 121.413 119.111, 116.235 122.522 C 116.089 122.618, 117.182 126.607, 118.664 131.387 C 120.812 138.315, 121.677 139.950, 122.929 139.451 C 130.852 136.297, 141.201 132.868, 141.599 133.266 C 141.870 133.537, 139.821 143.096, 137.046 154.508 C 134.271 165.920, 132 175.797, 132 176.456 C 132 177.144, 134.834 178.176, 138.660 178.881 C 144.071 179.879, 145.541 179.864, 146.499 178.804 C 147.958 177.190, 164.790 149.738, 165.471 147.862 C 165.743 147.113, 164.001 135.512, 161.601 122.083 L 157.237 97.666 169.592 71.606 C 176.387 57.274, 181.622 45.244, 181.224 44.873 C 180.826 44.502, 173.716 40.553, 165.424 36.099 C 148.070 26.776, 152.435 27.321, 119.546 30.371 M 71.500 41.609 C 64.350 46.361, 58.159 50.557, 57.742 50.933 C 57.325 51.309, 61.070 51.421, 66.064 51.183 L 75.145 50.748 78.541 54.039 C 81.051 56.472, 82.069 56.961, 82.448 55.915 C 84.200 51.071, 86.969 41.264, 86.942 40 C 86.924 39.175, 86.368 37.256, 85.705 35.735 L 84.500 32.970 71.500 41.609 M 91.219 36.639 C 90.251 39.792, 90.647 41.888, 94.665 54.851 C 97.162 62.908, 99.517 69.835, 99.898 70.245 C 100.279 70.655, 103.785 66.350, 107.690 60.678 L 114.789 50.365 104.645 42.354 C 99.065 37.947, 94.008 34.057, 93.406 33.709 C 92.761 33.335, 91.864 34.536, 91.219 36.639 M 86.316 52.649 L 84.311 59.376 89.906 64.594 C 92.982 67.464, 95.672 69.645, 95.882 69.441 C 96.344 68.992, 89.922 47.827, 88.984 46.711 C 88.620 46.277, 87.419 48.949, 86.316 52.649 M 144.465 52.806 C 142.246 54.838, 132.492 63.640, 122.791 72.366 C 113.089 81.092, 105.307 88.742, 105.497 89.366 C 108.363 98.760, 110.383 104.650, 110.958 105.284 C 111.349 105.715, 118.138 102.909, 126.045 99.047 C 133.952 95.186, 140.798 91.901, 141.257 91.748 C 142.176 91.441, 149.277 52.535, 148.798 50.427 C 148.609 49.592, 147.026 50.461, 144.465 52.806 M 81.084 69.703 C 79.978 73.390, 79.169 76.500, 79.286 76.616 C 79.534 76.859, 91.286 71.991, 91.935 71.375 C 92.475 70.864, 84.878 63, 83.844 63 C 83.432 63, 82.190 66.016, 81.084 69.703 M 87.097 76.471 L 77.694 80.663 74.489 91.082 C 72.727 96.812, 71.385 101.626, 71.507 101.781 C 71.629 101.935, 73.109 102.458, 74.797 102.942 C 77.858 103.820, 77.885 103.792, 87.429 90 C 97.530 75.405, 98.631 73.482, 97.318 72.740 C 96.868 72.486, 92.269 74.165, 87.097 76.471 M 89.814 91.250 C 85.109 97.987, 81.460 103.849, 81.704 104.275 C 82.209 105.155, 86.670 101.652, 95.725 93.266 L 101.950 87.500 100.769 83.250 C 100.119 80.912, 99.313 79, 98.978 79 C 98.643 79, 94.519 84.513, 89.814 91.250 M 58.121 89.038 C 47.729 93.596, 43.352 95.961, 44.621 96.330 C 47.961 97.302, 65.923 101, 67.304 101 C 68.126 101, 69.699 97.475, 71.372 91.884 C 72.873 86.870, 73.966 82.661, 73.801 82.530 C 73.635 82.399, 66.580 85.327, 58.121 89.038 M 94.892 97.633 C 90.826 101.344, 87.376 104.666, 87.225 105.015 C 87.074 105.364, 90.459 106.403, 94.748 107.324 C 108.363 110.250, 108.918 109.882, 105.943 99.896 C 104.732 95.828, 103.413 92.136, 103.012 91.692 C 102.612 91.248, 98.958 93.921, 94.892 97.633 M 68.078 111.967 C 66.915 115.800, 65.680 119.737, 65.336 120.717 C 64.991 121.698, 66.687 120.617, 69.105 118.317 C 73.228 114.392, 74.025 114.065, 82 113.025 C 98.882 110.823, 98.795 110.972, 85 107.900 C 78.125 106.369, 71.981 105.090, 71.347 105.058 C 70.713 105.026, 69.242 108.135, 68.078 111.967 M 121.582 110.390 C 117.226 111.001, 113.493 112.014, 113.284 112.641 C 113.076 113.269, 113.489 115.152, 114.203 116.824 L 115.500 119.865 123.361 114.989 C 127.684 112.306, 131.472 109.862, 131.777 109.556 C 132.433 108.900, 131.918 108.942, 121.582 110.390 M 88.870 139.345 C 71.415 150.085, 64.715 154.698, 65.870 155.180 C 70.451 157.090, 76.610 155.769, 97.347 148.428 L 118.738 140.856 116.373 133.189 C 115.072 128.973, 113.893 125.223, 113.754 124.856 C 113.614 124.490, 102.416 131.009, 88.870 139.345 M 129.500 139.754 C 125.650 141.184, 122.411 142.401, 122.302 142.458 C 122.193 142.516, 123.998 148.551, 126.313 155.870 L 130.522 169.177 134.282 153.839 C 136.350 145.402, 138.033 138.162, 138.021 137.750 C 137.991 136.689, 137.349 136.840, 129.500 139.754" stroke="none" fill="black" fill-rule="evenodd"/>
</svg>