<svg xmlns="http://www.w3.org/2000/svg" width="200" height="200" viewBox="0 0 200 200" version="1.1">
	<path d="M 140.408 18.250 C 140.700 20.587, 141.223 27.812, 141.571 34.305 L 142.204 46.110 156.852 45.438 L 171.500 44.766 156.710 54.899 C 148.576 60.472, 139.475 66.656, 136.486 68.641 L 131.051 72.249 122.775 67.982 C 118.224 65.635, 114.384 63.625, 114.243 63.516 C 114.101 63.408, 115.087 56.170, 116.432 47.432 C 117.778 38.695, 118.686 31.353, 118.450 31.117 C 118.214 30.881, 111.154 31.420, 102.760 32.314 C 88.558 33.829, 87.413 33.826, 86.250 32.280 C 83.637 28.806, 84.688 28, 91.833 28 C 95.592 28, 99.007 27.662, 99.423 27.250 C 101.007 25.680, 81.571 24.511, 58.424 24.783 L 34.349 25.067 27.159 51.783 L 19.969 78.500 29.985 108.481 C 35.493 124.971, 40 139.076, 40 139.827 C 40 140.577, 35.275 150.576, 29.500 162.047 C 23.725 173.517, 19 183.055, 19 183.242 C 19 183.429, 52.188 183.450, 92.750 183.288 L 166.500 182.993 166.782 171.433 C 167.060 160.063, 166.964 159.490, 160.940 136.686 C 157.571 123.934, 154.519 113.209, 154.157 112.854 C 153.796 112.499, 146.525 113.469, 138 115.010 C 129.475 116.550, 122.416 117.732, 122.314 117.636 C 122.211 117.540, 120.537 113.689, 118.592 109.078 L 115.057 100.695 148.958 101.252 C 176.932 101.712, 182.950 101.573, 183.379 100.456 C 183.742 99.509, 176.614 95.438, 159.699 86.932 C 146.390 80.239, 135.188 74.479, 134.807 74.132 C 134.426 73.784, 141.121 68.775, 149.686 63 C 158.251 57.225, 168.687 50.091, 172.879 47.147 L 180.500 41.794 162.888 42.443 L 145.277 43.092 144.649 39.296 C 144.304 37.208, 144.017 33.429, 144.011 30.897 C 143.989 21.540, 142.777 14, 141.296 14 C 140.211 14, 140.002 14.998, 140.408 18.250 M 29.635 53.161 L 22.892 78.322 33.137 109.677 L 43.381 141.031 33.223 160.807 L 23.065 180.583 93.532 180.541 L 164 180.500 164 169.679 C 164 159.722, 163.559 157.209, 158.479 138.179 C 155.443 126.806, 152.785 117.009, 152.572 116.409 C 152.306 115.660, 147.835 116.090, 138.342 117.778 C 130.729 119.131, 124.363 120.359, 124.196 120.506 C 124.029 120.653, 127.541 130.551, 132 142.500 C 136.459 154.449, 139.926 164.407, 139.704 164.629 C 139.483 164.851, 130.692 160.300, 120.170 154.516 C 109.648 148.732, 100.876 144, 100.678 144 C 100.479 144, 99.494 146.813, 98.489 150.250 C 97.484 153.688, 96.397 156.819, 96.072 157.209 C 95.748 157.598, 88.737 156.664, 80.491 155.133 L 65.500 152.349 64.921 147.925 C 64.591 145.405, 60.557 135.536, 55.550 125 C 50.715 114.825, 45.267 103.278, 43.445 99.340 L 40.132 92.180 67.316 92.690 L 94.500 93.199 98.500 87.391 C 100.700 84.197, 102.655 81.211, 102.845 80.756 C 103.117 80.104, 95.482 60.568, 94.401 59.150 C 94.254 58.958, 85.371 64.748, 74.661 72.018 C 63.825 79.373, 54.690 84.926, 54.063 84.539 C 53.369 84.110, 57.757 78.841, 65.509 70.794 C 76.846 59.027, 77.905 57.625, 76.291 56.525 C 75.306 55.855, 68.764 51.822, 61.754 47.564 C 49.917 40.375, 46.670 37.998, 48.691 38.002 C 50.571 38.005, 79.687 34.880, 81.664 34.462 C 83.626 34.048, 83.722 33.725, 82.695 31.003 L 81.562 28 58.970 28 L 36.378 28 29.635 53.161 M 98.500 35.422 C 91.095 36.256, 88.574 36.895, 88.787 37.885 C 88.945 38.620, 90.484 42.580, 92.207 46.685 L 95.340 54.148 103.273 58.137 C 107.637 60.331, 111.308 61.985, 111.431 61.813 C 111.554 61.641, 112.553 55.313, 113.650 47.750 L 115.644 34 112.072 34.148 C 110.107 34.230, 104 34.803, 98.500 35.422 M 74.500 37.991 C 71.200 38.419, 65.434 39.085, 61.687 39.471 L 54.874 40.173 68.187 48.248 C 75.509 52.689, 81.689 56.477, 81.920 56.665 C 82.151 56.853, 78.889 60.554, 74.670 64.889 C 70.452 69.224, 67 73.068, 67 73.433 C 67 73.911, 84.931 62.099, 92.820 56.423 C 92.997 56.296, 91.393 51.987, 89.257 46.846 C 84.900 36.361, 85.285 36.592, 74.500 37.991 M 97.730 59.754 C 100.914 68.129, 107.854 83.036, 108.251 82.355 C 108.526 81.885, 109.065 78.800, 109.449 75.500 C 109.834 72.200, 110.382 68.514, 110.668 67.310 C 111.114 65.426, 110.200 64.622, 104.126 61.564 C 98.588 58.774, 97.209 58.384, 97.730 59.754 M 112.098 76.074 C 111.392 81.064, 110.968 85.279, 111.157 85.440 C 111.346 85.601, 115.219 83.138, 119.765 79.967 L 128.030 74.200 121.480 70.600 C 117.878 68.620, 114.583 67, 114.157 67 C 113.731 67, 112.805 71.083, 112.098 76.074 M 120.742 82.515 C 115.384 86.098, 111 89.436, 111 89.933 C 111 93.782, 111.863 94, 127.107 94 C 139.338 94, 142 94.255, 142 95.427 C 142 96.211, 141.213 97.035, 140.250 97.258 C 136.393 98.149, 150.302 99.096, 163 98.807 L 176.500 98.500 154.356 87.250 C 142.177 81.063, 131.823 76, 131.348 76 C 130.873 76, 126.101 78.932, 120.742 82.515 M 101.131 88.129 L 97.912 92.500 103.202 93.171 C 108.949 93.899, 110.005 93.605, 108.183 91.783 C 107.532 91.132, 107 89.876, 107 88.991 C 107 88.106, 106.404 86.567, 105.675 85.571 C 104.449 83.893, 104.112 84.083, 101.131 88.129 M 45 95.467 C 45 95.897, 50.175 107.229, 56.500 120.650 C 62.825 134.071, 68 146.133, 68 147.455 C 68 149.558, 68.656 149.986, 73.250 150.878 C 76.138 151.438, 81.875 152.564, 86 153.379 C 90.125 154.195, 93.761 154.556, 94.081 154.181 C 94.400 153.806, 95.494 150.575, 96.512 147 C 97.529 143.425, 98.485 140.332, 98.637 140.127 C 98.788 139.922, 106.847 144.120, 116.545 149.455 C 126.244 154.790, 134.363 158.970, 134.588 158.745 C 135.191 158.143, 121.259 121, 120.431 121 C 120.237 121, 108.514 123.039, 94.381 125.531 C 80.248 128.022, 68.320 129.935, 67.876 129.781 C 67.432 129.626, 70.185 125.547, 73.993 120.715 C 77.801 115.883, 83.386 108.345, 86.404 103.965 L 91.890 96 84.195 95.997 C 79.963 95.995, 69.412 95.699, 60.750 95.340 C 52.087 94.981, 45 95.038, 45 95.467 M 88.467 105.711 C 84.672 111.095, 79.849 117.697, 77.750 120.383 C 75.650 123.068, 74.137 125.471, 74.388 125.722 C 75.001 126.334, 117.288 118.938, 118.279 118.045 C 118.707 117.659, 117.099 112.653, 114.707 106.921 L 110.356 96.500 102.862 96.211 L 95.367 95.922 88.467 105.711 M 114 97 C 114 97.550, 115.152 98, 116.559 98 C 118.010 98, 118.851 97.567, 118.500 97 C 118.160 96.450, 117.009 96, 115.941 96 C 114.873 96, 114 96.450, 114 97" stroke="none" fill="black" fill-rule="evenodd"/>
</svg>