<svg xmlns="http://www.w3.org/2000/svg" width="200" height="200" viewBox="0 0 200 200" version="1.1">
	<path d="M 89.480 25.500 C 79.050 40.096, 83.021 38.887, 55 36 C 32.049 33.636, 32 33.634, 32 35.291 C 32 36.243, 38.084 37.167, 55.250 38.820 C 68.037 40.051, 79.220 41.045, 80.100 41.029 C 80.980 41.013, 85.416 35.825, 89.957 29.500 C 94.498 23.175, 98.512 18, 98.878 18 C 99.243 18, 100.579 19.913, 101.847 22.250 L 104.151 26.500 96.620 42.250 C 92.477 50.913, 88.731 58.019, 88.294 58.041 C 81.672 58.385, 58.793 60.874, 58.370 61.297 C 56.830 62.836, 59.983 63.851, 71.480 65.517 C 86.251 67.657, 85.750 65.337, 75.790 85.495 C 69.156 98.922, 68.961 99.519, 71.063 100.015 C 72.405 100.332, 67.873 101.787, 59.377 103.768 C 51.745 105.548, 45.120 107.004, 44.655 107.002 C 44.191 107.001, 43.966 94.625, 44.155 79.500 C 44.400 59.977, 44.181 51.999, 43.401 52 C 42.181 52, 40.638 109.034, 41.830 110.099 C 42.198 110.428, 52.400 108.278, 64.500 105.321 L 86.500 99.944 110.500 102.034 C 145.083 105.045, 143.499 104.161, 128.863 112.295 L 116.637 119.091 85.068 118.276 C 58.513 117.591, 52.587 117.697, 47.750 118.943 C 44.587 119.758, 42 120.669, 42 120.968 C 42 121.266, 52.574 125.558, 65.498 130.505 C 78.423 135.452, 88.997 139.725, 88.998 140 C 88.999 140.275, 75.837 142.702, 59.750 145.393 C 43.662 148.084, 30.054 150.690, 29.508 151.185 C 27.523 152.984, 31.599 153.970, 41.092 153.985 C 46.367 153.993, 56.798 154.293, 64.272 154.652 L 77.860 155.303 67.863 166.002 L 57.866 176.701 41.683 178.940 C 8.757 183.494, 12.305 184.043, 77.016 184.402 L 132.500 184.711 157.500 181.365 C 171.250 179.525, 183.063 178.015, 183.750 178.010 C 184.438 178.004, 185 177.300, 185 176.444 C 185 175.070, 182.803 174.957, 166.250 175.476 C 155.938 175.800, 145.475 176.268, 143 176.516 C 138.595 176.957, 138.246 176.767, 126.511 167.516 C 119.917 162.318, 114.397 157.692, 114.245 157.235 C 114.093 156.779, 127.363 154.899, 143.734 153.056 C 160.105 151.214, 173.920 149.330, 174.433 148.870 C 174.947 148.410, 175.028 147.695, 174.614 147.281 C 174.200 146.867, 163.712 145.979, 151.307 145.307 C 138.901 144.635, 128.588 143.922, 128.389 143.722 C 128.189 143.523, 127.908 139.344, 127.763 134.436 L 127.500 125.512 147.210 123.463 C 158.051 122.335, 167.119 121.208, 167.362 120.956 C 168.227 120.063, 159.257 71.154, 154.487 50.750 C 151.083 36.193, 149.226 30, 148.264 30 C 147.509 30, 140.136 31.800, 131.878 34 C 123.620 36.200, 116.459 38, 115.963 38 C 115.467 38, 113.484 35.535, 111.557 32.521 L 108.052 27.042 110.182 21.477 C 111.684 17.550, 111.999 15.599, 111.250 14.850 C 110.500 14.100, 109.552 15.217, 108.028 18.644 L 105.868 23.500 102.693 18.250 C 100.947 15.362, 99.269 13, 98.965 13 C 98.661 13, 94.393 18.625, 89.480 25.500 M 105.060 34.750 C 104.321 36.813, 103.483 39.126, 103.197 39.892 C 102.782 41.004, 103.459 41.136, 106.581 40.551 C 108.728 40.148, 110.836 39.601, 111.265 39.336 C 112.081 38.832, 108.089 31, 107.017 31 C 106.679 31, 105.798 32.688, 105.060 34.750 M 131.500 36.955 C 123.166 39.216, 117.603 41.212, 117.754 41.888 C 117.894 42.513, 122.506 50.217, 128.004 59.007 C 133.502 67.797, 138 75.207, 138 75.475 C 138 75.743, 135.975 75.684, 133.500 75.345 C 131.025 75.006, 129 75.024, 129 75.386 C 129 75.748, 130.815 79.654, 133.033 84.065 C 135.251 88.476, 136.845 92.442, 136.576 92.877 C 136.307 93.313, 126.729 94.516, 115.293 95.550 C 103.857 96.585, 95.175 97.560, 96 97.717 C 96.825 97.873, 109.146 99.110, 123.380 100.464 C 137.614 101.819, 149.446 103.113, 149.673 103.340 C 149.900 103.567, 142.633 107.855, 133.523 112.868 L 116.959 121.983 84.804 121.040 C 67.118 120.522, 52.048 120.433, 51.314 120.844 C 50.496 121.302, 59.459 125.236, 74.490 131.017 C 87.970 136.201, 99 140.727, 99 141.075 C 99 141.423, 86.963 143.686, 72.250 146.104 C 42.536 150.987, 42.065 151.718, 68.500 151.928 C 75.650 151.984, 82.011 152.361, 82.635 152.765 C 83.354 153.231, 79.202 158.232, 71.291 166.428 L 58.813 179.356 51.689 180.428 C 45.920 181.296, 53.018 181.541, 89.033 181.717 C 122.036 181.878, 135.820 181.588, 142.500 180.593 L 151.500 179.253 144.145 179.126 L 136.790 179 121.895 167.352 C 113.703 160.945, 107 155.404, 107 155.038 C 107 154.672, 116.338 153.336, 127.750 152.068 C 158.266 148.678, 158.861 148.482, 141.336 147.590 C 123.758 146.695, 125.536 148.255, 124.425 132.750 C 123.853 124.772, 123.978 122.996, 125.113 122.978 C 125.876 122.966, 134.375 122.076, 144 121 C 153.625 119.924, 162.224 119.034, 163.110 119.022 C 164.523 119.003, 164.254 116.296, 160.890 96.750 C 156.271 69.907, 147.935 32.970, 146.521 33.079 C 145.960 33.123, 139.200 34.867, 131.500 36.955 M 104.354 43.875 C 98.220 45.444, 98.203 45.459, 95.054 51.845 C 91.933 58.173, 91.924 58.236, 94.200 57.694 C 95.465 57.392, 101.529 56.832, 107.675 56.449 L 118.850 55.752 122.552 63.126 C 126.548 71.083, 127.353 71.961, 130.676 71.985 C 132.596 71.998, 131.770 70.235, 123.676 57.037 C 113.525 40.484, 114.639 41.243, 104.354 43.875 M 103.660 59.477 C 91.188 60.640, 89.063 61.369, 89.015 64.506 C 89.002 65.367, 121.936 71.165, 122.815 70.457 C 123.164 70.176, 117.113 57.916, 116.736 58.140 C 116.606 58.217, 110.722 58.818, 103.660 59.477 M 77 62 C 73.975 62.371, 71.950 62.750, 72.500 62.843 C 84.223 64.821, 85.444 64.901, 86.188 63.731 C 88.050 60.798, 87.560 60.706, 77 62 M 80.532 82.007 C 76.764 89.710, 73.865 96.175, 74.090 96.373 C 74.607 96.826, 132.157 91.177, 132.715 90.618 C 132.941 90.392, 131.313 86.599, 129.096 82.190 C 125.792 75.619, 124.563 74.070, 122.282 73.599 C 119.828 73.093, 88.326 68, 87.648 68 C 87.503 68, 84.301 74.303, 80.532 82.007 M 74.813 99.683 C 75.534 99.972, 76.397 99.936, 76.729 99.604 C 77.061 99.272, 76.471 99.036, 75.417 99.079 C 74.252 99.127, 74.015 99.364, 74.813 99.683" stroke="none" fill="black" fill-rule="evenodd"/>
</svg>