<svg xmlns="http://www.w3.org/2000/svg" width="200" height="200" viewBox="0 0 200 200" version="1.1">
	<path d="M 64.262 19.829 C 52.581 24.598, 43.023 28.725, 43.021 29 C 43.019 29.275, 46.376 31.290, 50.481 33.477 C 54.587 35.664, 57.621 37.725, 57.223 38.056 C 56.825 38.387, 50.425 40.590, 43 42.951 C 24.734 48.759, 24.470 48.870, 25.732 50.132 C 26.476 50.876, 32.386 49.351, 45.645 44.991 C 56.015 41.581, 64.611 38.690, 64.746 38.566 C 64.881 38.443, 61.413 36.370, 57.040 33.960 C 52.667 31.550, 49.226 29.441, 49.393 29.274 C 49.560 29.106, 57.801 25.650, 67.705 21.594 L 85.713 14.218 87.657 28.016 L 89.600 41.814 78.721 56.657 C 72.737 64.821, 67.005 72.656, 65.982 74.069 L 64.122 76.638 74.483 89.569 C 80.181 96.681, 84.541 102.758, 84.172 103.073 C 83.802 103.388, 76.075 106.929, 67 110.942 C 57.925 114.956, 50.190 118.523, 49.812 118.870 C 49.433 119.216, 59.474 125.959, 72.125 133.853 C 84.776 141.747, 94.919 148.414, 94.665 148.668 C 92.868 150.465, 47.425 183.738, 47.142 183.463 C 46.944 183.273, 50.871 175.355, 55.868 165.868 C 60.865 156.381, 64.851 148.543, 64.726 148.450 C 64.602 148.356, 56.513 144.997, 46.750 140.985 C 36.988 136.973, 29 133.372, 29 132.982 C 29 132.593, 35.330 123.172, 43.067 112.046 C 50.803 100.920, 57.356 91.235, 57.629 90.525 C 58.009 89.535, 55.072 89.030, 45.083 88.367 L 32.042 87.500 38.521 77.185 C 44.960 66.934, 46.052 64.483, 43.850 65.217 C 42.873 65.542, 26.683 89.849, 27.288 90.081 C 27.405 90.126, 32.990 90.478, 39.699 90.864 C 46.409 91.250, 52.184 91.851, 52.533 92.200 C 52.882 92.549, 48.041 100.184, 41.776 109.167 C 35.510 118.150, 28.975 127.567, 27.252 130.093 L 24.119 134.687 41.810 141.934 C 51.539 145.920, 59.813 149.478, 60.197 149.841 C 60.580 150.203, 56.395 159.005, 50.897 169.400 C 45.399 179.794, 41.153 188.958, 41.462 189.762 C 41.849 190.770, 42.409 190.920, 43.262 190.246 C 50.058 184.872, 96.411 151.077, 96.653 151.320 C 96.829 151.496, 96.252 156.919, 95.370 163.370 C 94.489 169.822, 93.982 175.315, 94.244 175.578 C 94.507 175.840, 98.272 176.698, 102.611 177.484 C 109.536 178.739, 114.748 178.712, 145.250 177.261 C 164.363 176.352, 180 175.236, 180 174.781 C 180 174.326, 174.600 167.412, 168 159.418 C 161.400 151.424, 156 144.496, 156 144.022 C 156 143.548, 160.076 134.687, 165.057 124.330 L 174.114 105.500 170.797 102.500 C 168.973 100.850, 164.922 97.250, 161.796 94.500 L 156.112 89.500 168.056 75.290 C 174.625 67.474, 180 60.667, 180 60.162 C 180 59.658, 175.582 55.005, 170.183 49.823 C 160.870 40.884, 159.964 40.281, 152.540 38.077 C 144.891 35.806, 144.501 35.531, 135.235 25.877 C 130.021 20.445, 125.369 16, 124.897 16 C 124.426 16, 123.918 25.491, 123.770 37.090 L 123.500 58.181 113.500 35.603 C 108 23.185, 103.274 13.019, 102.997 13.013 C 102.720 13.006, 100.301 18.692, 97.620 25.650 C 94.492 33.770, 92.480 37.798, 92 36.900 C 91.589 36.130, 90.713 31, 90.052 25.500 C 88.553 13.017, 88.071 10.980, 86.642 11.079 C 86.014 11.123, 75.943 15.060, 64.262 19.829 M 102.670 20.725 C 102.378 21.197, 100.986 24.648, 99.576 28.395 C 98.166 32.141, 96.016 36.979, 94.799 39.144 L 92.585 43.082 95.944 67.041 C 97.791 80.219, 99.457 91, 99.648 91 C 99.838 91, 105.395 87.158, 111.997 82.461 C 123.861 74.022, 124 73.877, 124 69.980 C 124 67.154, 121.141 59.590, 113.905 43.269 C 108.352 30.746, 103.672 20.358, 103.505 20.183 C 103.337 20.009, 102.962 20.253, 102.670 20.725 M 127 43.649 C 127 60.850, 127.327 66.538, 128.472 69.279 C 129.768 72.380, 129.768 72.948, 128.472 74.023 C 127.284 75.010, 127 78.461, 127 91.940 L 127 108.635 132.523 110.376 C 135.561 111.333, 137.840 112.450, 137.589 112.857 C 137.337 113.264, 134.852 114.664, 132.066 115.969 L 127 118.342 127 132.171 C 127 139.777, 126.726 146, 126.391 146 C 126.056 146, 120.628 142.802, 114.330 138.894 C 108.031 134.986, 102.746 131.949, 102.585 132.144 C 102.273 132.524, 97 170.787, 97 172.673 C 97 173.312, 100.544 174.309, 105.250 174.995 C 111.946 175.971, 119.233 175.893, 143.939 174.577 C 160.680 173.685, 174.525 172.808, 174.707 172.627 C 174.888 172.446, 169.922 166.055, 163.671 158.426 L 152.306 144.554 160.782 127.027 C 165.443 117.387, 169.461 108.572, 169.709 107.439 C 170.060 105.838, 168.243 103.730, 161.581 98.011 C 156.861 93.960, 153 90.316, 153 89.915 C 153 89.513, 158.363 82.731, 164.918 74.842 L 176.836 60.500 168.168 51.768 C 159.965 43.505, 159.098 42.920, 152 40.863 C 144.981 38.828, 143.939 38.139, 135.750 30.115 L 127 21.542 127 43.649 M 78.560 61.488 C 72.649 69.508, 68.048 76.616, 68.336 77.284 C 68.624 77.953, 73.378 84.115, 78.901 90.978 C 84.424 97.841, 88.619 103.762, 88.222 104.136 C 87.825 104.509, 80.750 107.825, 72.500 111.503 C 64.250 115.182, 56.886 118.533, 56.136 118.949 C 55.219 119.459, 61.707 124.050, 75.942 132.964 C 87.586 140.255, 97.252 146.059, 97.423 145.860 C 97.594 145.662, 98.255 141.920, 98.891 137.544 C 99.528 133.168, 100.463 129.332, 100.969 129.019 C 102.359 128.160, 98.609 103.994, 96.924 102.953 C 96.163 102.483, 93.844 101.812, 91.770 101.461 C 89.697 101.111, 88 100.500, 88 100.105 C 88 99.709, 90.052 97.938, 92.560 96.171 C 95.752 93.921, 96.972 92.437, 96.624 91.228 C 96.351 90.278, 94.911 80.275, 93.424 69 C 91.937 57.725, 90.402 48.142, 90.014 47.704 C 89.625 47.266, 84.471 53.469, 78.560 61.488 M 111.503 86.066 C 105.454 90.421, 100.348 94.457, 100.155 95.035 C 99.962 95.613, 100.074 97.160, 100.404 98.472 C 100.895 100.432, 102.009 101.068, 106.626 102.026 C 109.719 102.668, 114.739 104.050, 117.781 105.097 C 120.824 106.144, 123.468 107, 123.657 107 C 123.845 107, 124 100.475, 124 92.500 C 124 84.525, 123.662 78.033, 123.250 78.074 C 122.838 78.115, 117.551 81.712, 111.503 86.066 M 95.158 97.902 C 94.116 98.546, 94.202 98.864, 95.559 99.384 C 97.619 100.175, 98.750 99.350, 97.425 98.025 C 96.907 97.507, 95.887 97.452, 95.158 97.902 M 101.332 105.618 C 101.634 106.653, 102.438 111.905, 103.119 117.289 C 104.537 128.515, 103.361 128.133, 115.750 121.387 C 123.588 117.120, 124 116.725, 124 113.491 C 124 110.121, 123.921 110.062, 116.226 107.631 C 111.950 106.281, 106.726 104.852, 104.617 104.456 C 101.170 103.809, 100.837 103.927, 101.332 105.618 M 127 113.500 C 127 115.182, 127.184 115.250, 129.412 114.395 C 131.243 113.693, 130.557 112, 128.441 112 C 127.648 112, 127 112.675, 127 113.500 M 114.752 125 C 109.941 127.475, 106.004 129.737, 106.002 130.026 C 105.999 130.818, 123.148 141.185, 123.644 140.690 C 123.880 140.454, 123.944 135.814, 123.786 130.380 L 123.500 120.500 114.752 125" stroke="none" fill="black" fill-rule="evenodd"/>
</svg>