<svg xmlns="http://www.w3.org/2000/svg" width="200" height="200" viewBox="0 0 200 200" version="1.1">
	<path d="M 142.500 22.696 L 128.500 32.169 91.500 31.685 C 59.339 31.263, 52.538 31.445, 39.500 33.076 C 17.964 35.770, 17 35.967, 17 37.673 C 17 38.973, 20.322 39.127, 42.084 38.836 L 67.168 38.500 74.095 50.327 C 77.905 56.832, 80.819 62.484, 80.570 62.887 C 80.321 63.290, 71.681 62.815, 61.370 61.831 C 51.060 60.848, 42.545 60.146, 42.448 60.271 C 41.803 61.111, 39.977 107.932, 39.983 123.500 C 39.988 139.144, 42.553 186.831, 43.439 187.760 C 43.575 187.903, 52.016 183.740, 62.196 178.510 L 80.706 169 101.051 169 L 121.396 169 137.317 177.547 C 146.074 182.248, 153.358 185.961, 153.504 185.797 C 153.649 185.634, 155.396 175.740, 157.384 163.812 C 160.768 143.516, 161 140.724, 160.994 120.312 C 160.988 102.158, 159.383 60.050, 158.669 59.336 C 158.556 59.223, 153.772 60.439, 148.037 62.037 C 142.302 63.636, 137.464 64.798, 137.286 64.619 C 137.108 64.441, 139.676 58.542, 142.995 51.511 L 149.027 38.728 158.764 39.383 C 164.119 39.744, 170.975 40.275, 174 40.565 L 179.500 41.091 167.554 29.635 C 157.013 19.526, 155.766 17.986, 156.961 16.547 C 157.762 15.582, 157.944 14.569, 157.408 14.069 C 156.894 13.590, 150.424 17.334, 142.500 22.696 M 152.012 22.488 C 150.264 24.348, 149.348 24.704, 148.377 23.898 C 147.404 23.091, 145.391 23.909, 140.351 27.160 L 133.623 31.500 137.895 31.812 C 140.998 32.038, 142.024 32.494, 141.647 33.479 C 141.360 34.224, 141.810 35.097, 142.645 35.417 C 146.491 36.893, 147.590 35.940, 151.197 28 C 153.196 23.600, 154.723 20, 154.590 20 C 154.457 20, 153.297 21.119, 152.012 22.488 M 154.038 28.266 C 152.820 31.145, 151.605 34.023, 151.338 34.663 C 151.010 35.449, 153.063 36.023, 157.677 36.435 C 161.429 36.771, 166.247 37.226, 168.382 37.446 L 172.264 37.845 167.882 33.340 C 165.472 30.863, 161.869 27.530, 159.877 25.934 L 156.253 23.032 154.038 28.266 M 46.500 34.950 C 43.616 35.541, 46.109 35.771, 55.431 35.772 C 70.370 35.774, 68.011 34.216, 77.169 50.137 C 80.605 56.112, 83.661 61, 83.958 60.999 C 84.256 60.998, 93.275 55.149, 104 48 L 123.500 35.002 112.412 35.001 C 106.314 35, 89.889 34.804, 75.912 34.565 C 61.935 34.325, 48.700 34.498, 46.500 34.950 M 112.500 47.084 C 105.350 52.615, 98.879 57.745, 98.120 58.486 C 96.956 59.621, 98.444 60.636, 107.608 64.959 L 118.476 70.085 125.488 68.261 L 132.500 66.437 139.280 52.581 C 143.008 44.961, 145.933 38.625, 145.780 38.502 C 145.626 38.379, 141 37.997, 135.500 37.653 L 125.500 37.028 112.500 47.084 M 87.830 61.774 C 85.730 63.159, 85.367 63.905, 86.130 65.267 C 86.970 66.768, 86.622 67, 83.534 67 C 79.705 67, 68.248 73.689, 69.715 75.068 C 70.147 75.474, 80.625 81.904, 93 89.355 L 115.500 102.904 121.346 90.702 C 128.971 74.786, 131.055 70, 130.359 70 C 130.045 70, 127.178 70.676, 123.988 71.503 L 118.187 73.006 104.469 66.503 C 96.923 62.926, 90.694 60.003, 90.625 60.007 C 90.556 60.010, 89.299 60.806, 87.830 61.774 M 44.630 69.250 C 43.103 83.989, 42.714 137.712, 43.980 159.039 C 44.691 171.020, 45.597 181.348, 45.993 181.989 C 46.491 182.794, 51.654 180.681, 62.658 175.171 L 78.602 167.188 101.051 166.949 L 123.500 166.710 137.500 174.323 L 151.500 181.937 154.688 163.219 C 157.642 145.868, 157.880 142.746, 157.934 120.500 C 158.001 93.353, 157.044 65.689, 155.979 63.966 C 155.463 63.131, 152.444 63.610, 145.057 65.699 L 134.848 68.586 126.385 86.420 C 121.730 96.229, 118.052 104.364, 118.211 104.498 C 118.370 104.632, 122.775 107.387, 128 110.621 L 137.500 116.500 124.579 117.218 C 112.538 117.888, 110.083 118.538, 110.015 121.074 C 110.007 121.390, 113.375 122.706, 117.500 124 C 121.625 125.294, 124.984 126.610, 124.965 126.926 C 124.917 127.733, 77.125 160.500, 75.996 160.500 C 75.487 160.500, 73.015 156.276, 70.502 151.113 L 65.933 141.726 66.078 110.613 C 66.157 93.501, 66.432 77.843, 66.688 75.819 C 67.074 72.757, 67.939 71.623, 71.826 69.080 C 74.397 67.399, 76.050 66.009, 75.500 65.991 C 74.950 65.973, 68.200 65.306, 60.500 64.509 C 52.800 63.712, 46.225 63.046, 45.889 63.030 C 45.553 63.013, 44.986 65.813, 44.630 69.250 M 69.986 85.215 C 69.974 90.769, 70.633 92.926, 75.653 103.750 L 81.334 116 85.917 115.995 C 88.438 115.992, 94.829 115.703, 100.120 115.353 L 109.740 114.715 111.927 110.214 C 113.129 107.739, 113.750 105.390, 113.307 104.994 C 112.407 104.192, 75.788 82.014, 72.250 80.129 C 70.029 78.945, 70 79.010, 69.986 85.215 M 68.794 118.737 L 68.440 139.500 72.365 148.250 C 74.524 153.063, 76.495 157, 76.745 157 C 77.439 157, 117.878 129.007, 118.397 128.166 C 118.648 127.761, 115.966 126.394, 112.437 125.128 C 106.781 123.100, 106.139 122.609, 107.011 120.980 C 107.555 119.963, 108 118.809, 108 118.414 C 108 118.019, 101.581 118, 93.735 118.371 L 79.470 119.045 75.030 108.954 C 72.587 103.404, 70.264 98.663, 69.868 98.419 C 69.472 98.174, 68.988 107.317, 68.794 118.737 M 114.685 110.534 C 113.758 112.478, 113 114.278, 113 114.534 C 113 115.216, 123.111 115.077, 125.796 114.358 C 127.861 113.805, 127.527 113.402, 122.496 110.371 C 119.418 108.517, 116.781 107, 116.635 107 C 116.490 107, 115.612 108.590, 114.685 110.534" stroke="none" fill="black" fill-rule="evenodd"/>
</svg>