<svg xmlns="http://www.w3.org/2000/svg" width="200" height="200" viewBox="0 0 200 200" version="1.1">
	<path d="M 65.343 20.250 C 65.699 26.438, 65.993 34.268, 65.995 37.652 C 66 43.429, 66.187 43.922, 69.074 45.750 L 72.148 47.696 69.324 48.819 C 67.771 49.436, 60.875 52.023, 54 54.567 L 41.500 59.193 34.686 57.994 C 30.938 57.335, 27.628 57.038, 27.331 57.335 C 27.034 57.633, 28.910 63.935, 31.499 71.342 L 36.208 84.808 25.122 113.589 C 19.025 129.418, 14.219 142.552, 14.443 142.776 C 14.667 143, 20.841 138.224, 28.163 132.163 C 35.486 126.102, 41.602 121.269, 41.755 121.422 C 41.909 121.575, 41.514 135.956, 40.879 153.379 C 40.243 170.802, 39.970 185.303, 40.271 185.605 C 40.830 186.163, 70.476 166.732, 71.265 165.290 C 71.503 164.856, 70.636 151.900, 69.338 136.500 C 68.040 121.100, 67.096 107.253, 67.239 105.729 L 67.500 102.958 75.340 107.556 C 79.652 110.085, 83.401 111.932, 83.673 111.660 C 83.944 111.389, 82.329 105.140, 80.083 97.773 C 77.837 90.406, 76 83.833, 76 83.167 C 76 82.501, 78.229 78.055, 80.953 73.288 L 85.905 64.621 87 67.560 C 87.602 69.177, 89.370 73.875, 90.930 78 L 93.765 85.500 92.544 110.500 C 91.334 135.260, 91.350 135.753, 94.155 161.911 C 95.713 176.436, 97.116 188.450, 97.273 188.607 C 97.430 188.763, 106.924 183.073, 118.371 175.961 L 139.183 163.031 157.597 173.515 C 167.725 179.282, 176.394 184, 176.862 184 C 178.277 184, 179.026 165.278, 180.021 105 C 180.544 73.375, 181.212 44.800, 181.506 41.500 C 182.735 27.732, 182.728 26, 181.451 26 C 179.942 26, 179.452 30.352, 177.875 57.785 C 177.213 69.298, 176.944 88.541, 177.253 102.285 C 177.718 122.988, 175.948 178.386, 174.784 179.549 C 174.207 180.127, 142.088 161.667, 142.502 160.996 C 142.717 160.649, 147.191 157.706, 152.446 154.455 C 157.701 151.204, 162 148.275, 162 147.945 C 162 147.616, 157.224 139.056, 151.386 128.923 C 145.548 118.790, 140.562 109.969, 140.306 109.320 C 140.041 108.648, 142.999 106.405, 147.170 104.115 C 159.430 97.383, 158.620 100.591, 154.142 76.499 L 150.240 55.504 156.070 48.002 C 159.276 43.876, 161.585 40.187, 161.200 39.804 C 160.210 38.818, 141.296 30.990, 136.533 29.594 L 132.565 28.431 146.998 23.176 L 161.431 17.920 163.078 20.104 C 163.984 21.305, 165.211 21.988, 165.803 21.621 C 167.124 20.806, 164.090 15.016, 162.338 15.006 C 161.699 15.003, 153.260 17.917, 143.584 21.483 L 125.992 27.966 109.890 25.483 C 101.034 24.117, 93.127 23, 92.319 23 C 91.086 23, 90.960 24.411, 91.535 31.763 L 92.221 40.525 87.037 42.390 C 84.114 43.441, 81.503 43.871, 81.049 43.377 C 80.607 42.895, 77.431 34.963, 73.993 25.750 C 69.663 14.151, 67.272 9, 66.218 9 C 64.905 9, 64.784 10.557, 65.343 20.250 M 68.616 30.488 C 69.284 42.748, 69.460 43.247, 74.054 45.947 C 74.913 46.452, 76.217 46.484, 76.970 46.019 C 78.379 45.148, 76.128 37.718, 70.299 24 L 67.962 18.500 68.616 30.488 M 94.261 31.939 C 94.571 35.360, 95.030 38.364, 95.282 38.615 C 95.533 38.866, 100.972 37.165, 107.368 34.835 C 113.764 32.504, 118.661 30.309, 118.249 29.956 C 117.837 29.602, 113.675 28.772, 109 28.111 C 104.325 27.449, 98.969 26.641, 97.098 26.314 L 93.697 25.721 94.261 31.939 M 110.500 36.502 C 102.800 39.462, 96.119 42.038, 95.653 42.225 C 95.187 42.412, 95.321 52.408, 95.951 64.437 L 97.097 86.310 112.220 126.155 C 120.538 148.070, 127.713 166, 128.164 166 C 129.618 166, 158 147.770, 158 146.836 C 158 146.110, 138.561 111.443, 137.418 110.132 C 137.241 109.929, 134.086 111.418, 130.407 113.440 C 126.728 115.463, 123.399 116.754, 123.010 116.309 C 122.621 115.864, 121.759 109.200, 121.094 101.500 C 120.430 93.800, 119.625 85.138, 119.305 82.250 C 118.328 73.415, 120.886 75.631, 129.949 91.471 L 138.229 105.942 144.864 102.219 C 148.514 100.172, 152.293 98.026, 153.262 97.452 C 154.922 96.467, 154.829 95.360, 151.638 78.163 C 149.776 68.129, 148.062 59.729, 147.830 59.497 C 147.598 59.264, 143.220 64.502, 138.102 71.135 C 131.861 79.223, 128.464 82.864, 127.790 82.190 C 127.115 81.515, 129.806 73.709, 135.959 58.492 C 141.005 46.012, 144.992 35.694, 144.817 35.563 C 142.975 34.181, 135.092 32.029, 130.395 31.626 C 125.043 31.166, 123.211 31.614, 110.500 36.502 M 147.402 40.250 C 147.760 42.038, 148.324 45.188, 148.654 47.250 C 148.985 49.313, 149.536 50.981, 149.878 50.957 C 150.220 50.934, 152.200 48.710, 154.277 46.016 L 158.054 41.117 153.400 39.059 C 147.162 36.300, 146.631 36.405, 147.402 40.250 M 85.828 45.627 C 82.347 47.073, 82.210 47.303, 83.177 50.077 C 83.738 51.686, 85.511 53.780, 87.118 54.729 C 89.067 55.880, 89.829 56.961, 89.406 57.977 C 87.922 61.546, 88.089 62.873, 90.915 70 L 93.890 77.500 93.408 68 C 92.457 49.261, 91.855 43.999, 90.665 44.052 C 90.024 44.080, 87.848 44.789, 85.828 45.627 M 139.237 57.687 C 136.379 64.665, 134.212 70.546, 134.423 70.756 C 134.633 70.966, 137.588 67.483, 140.989 63.015 C 147.114 54.969, 147.166 54.844, 146.493 49.946 C 146.118 47.226, 145.502 45, 145.123 45 C 144.743 45, 142.095 50.709, 139.237 57.687 M 78.500 49 C 78.840 49.550, 79.316 50, 79.559 50 C 79.802 50, 80 49.550, 80 49 C 80 48.450, 79.523 48, 78.941 48 C 78.359 48, 78.160 48.450, 78.500 49 M 57.500 56.102 C 42.286 61.809, 41.254 62.057, 36.500 61.143 C 33.750 60.614, 31.323 60.355, 31.106 60.568 C 30.889 60.781, 32.615 66.353, 34.941 72.950 L 39.171 84.945 29.594 109.647 C 24.326 123.234, 20.136 134.469, 20.282 134.616 C 20.429 134.762, 25.937 130.445, 32.523 125.023 C 39.109 119.600, 44.626 115.292, 44.783 115.449 C 44.940 115.606, 44.561 128.957, 43.942 145.117 C 43.322 161.278, 42.969 175.969, 43.157 177.763 L 43.500 181.027 56.235 172.512 L 68.969 163.998 68.397 158.249 C 66.683 141.031, 63.523 98.002, 63.974 98.017 C 64.263 98.026, 67.875 100.008, 72 102.420 C 76.125 104.833, 79.599 106.714, 79.721 106.599 C 79.842 106.485, 78.387 101.466, 76.487 95.446 C 74.588 89.426, 73.026 83.873, 73.017 83.107 C 73.007 82.341, 75.648 77.099, 78.885 71.458 L 84.770 61.202 83.021 57.351 C 81.473 53.941, 76.686 49.912, 74.346 50.050 C 73.881 50.077, 66.300 52.801, 57.500 56.102 M 122.352 86.500 C 122.642 88.150, 123.141 92.650, 123.463 96.500 C 123.784 100.350, 124.302 105.625, 124.614 108.221 L 125.180 112.943 130.090 110.454 C 132.790 109.086, 135 107.465, 135 106.852 C 135 105.750, 125.976 89.363, 123.242 85.500 C 121.913 83.622, 121.858 83.683, 122.352 86.500 M 95.981 96.583 C 95.970 98.737, 95.523 108.375, 94.987 118 C 94.095 134.025, 94.231 137.523, 96.609 159.500 C 98.038 172.700, 99.352 183.655, 99.531 183.844 C 99.982 184.323, 125 168.847, 125 168.089 C 125 167.202, 97.001 93.667, 96.455 93.122 C 96.205 92.872, 95.991 94.429, 95.981 96.583" stroke="none" fill="black" fill-rule="evenodd"/>
</svg>