<svg xmlns="http://www.w3.org/2000/svg" width="200" height="200" viewBox="0 0 200 200" version="1.1">
	<path d="M 104.495 25.250 C 104.855 27.038, 105.371 29.288, 105.642 30.250 C 106.270 32.480, 107.494 32.494, 73.815 29.883 C 47.746 27.861, 42.169 27.847, 43.380 29.805 C 43.658 30.256, 50.225 34.595, 57.974 39.448 C 65.722 44.301, 71.925 48.408, 71.759 48.574 C 71.593 48.741, 61.566 50.275, 49.478 51.984 C 22.974 55.731, 22.999 55.726, 23.006 57.269 C 23.009 57.991, 32.621 61.611, 46.249 66.024 L 69.487 73.547 64.047 75.614 C 58.923 77.561, 56.220 79.993, 59.167 80.005 C 61.713 80.016, 76.120 73.721, 75.312 72.951 C 74.866 72.525, 65.050 69.150, 53.500 65.452 C 41.950 61.753, 32.050 58.462, 31.500 58.140 C 30.950 57.817, 41.750 55.956, 55.500 54.004 L 80.500 50.456 65.709 41.102 C 57.574 35.958, 51.093 31.574, 51.306 31.361 C 51.636 31.031, 106.256 34.983, 106.634 35.365 C 106.708 35.439, 107.891 40.760, 109.262 47.190 C 111.982 59.942, 111.967 60, 106.074 60 C 103.776 60, 101.305 62.289, 91.405 73.587 C 84.857 81.060, 79.032 87.766, 78.460 88.491 C 77.758 89.380, 69.161 90.650, 51.960 92.405 C 16.830 95.989, 17 95.963, 17 97.594 C 17 98.746, 20.013 99, 33.667 99 C 42.833 99, 50.146 99.182, 49.917 99.404 C 49.687 99.627, 43.200 100.586, 35.500 101.536 C 27.800 102.486, 21.395 103.347, 21.268 103.448 C 20.692 103.903, 27.078 176.470, 27.747 177.079 C 28.161 177.456, 36.150 179.364, 45.500 181.319 L 62.500 184.873 106 185.687 C 129.925 186.134, 151.750 186.500, 154.500 186.500 L 159.500 186.500 167.283 170.583 C 171.564 161.829, 174.714 154.369, 174.283 154.005 C 173.853 153.641, 164.500 149.834, 153.500 145.545 C 142.500 141.257, 132.983 137.242, 132.352 136.624 C 131.211 135.507, 123.459 101.207, 124.184 100.483 C 124.393 100.274, 136.165 107.730, 150.344 117.052 C 164.524 126.373, 176.584 134, 177.146 134 C 179.620 134, 176.252 130.521, 159.244 115.504 C 148.420 105.947, 141.605 99.255, 142.314 98.878 C 142.966 98.531, 151.375 97.951, 161 97.589 C 181.830 96.806, 187 96.198, 187 94.533 C 187 93.596, 180.374 93.117, 159.776 92.567 C 144.802 92.168, 132.090 91.550, 131.526 91.196 C 130.962 90.841, 128.517 90.539, 126.093 90.525 C 123.668 90.511, 121.521 90.021, 121.321 89.436 C 121.121 88.851, 131.103 83.484, 143.504 77.509 C 160.696 69.226, 166.155 66.153, 166.491 64.573 C 167.120 61.611, 169.981 36.644, 169.719 36.407 C 169.362 36.086, 105.931 22, 104.840 22 C 104.245 22, 104.106 23.316, 104.495 25.250 M 107.405 26.139 C 107.640 26.887, 108.093 28.693, 108.411 30.151 C 108.983 32.776, 109.101 32.809, 120.366 33.513 C 126.624 33.904, 132.324 34.582, 133.033 35.021 C 134.081 35.668, 134.033 38.003, 132.778 47.459 C 131.929 53.861, 130.992 59.342, 130.696 59.637 C 130.400 59.933, 127.310 60.420, 123.829 60.718 C 120.348 61.017, 117.007 61.540, 116.404 61.881 C 115.640 62.312, 116.052 65.840, 117.761 73.500 C 119.111 79.550, 120.386 84.682, 120.596 84.905 C 121.294 85.647, 164 64.580, 164 63.493 C 164 62.905, 164.664 57.068, 165.476 50.522 C 166.289 43.976, 166.851 38.556, 166.726 38.479 C 166.602 38.401, 153.675 35.492, 138 32.015 C 122.325 28.537, 108.932 25.486, 108.239 25.235 C 107.517 24.973, 107.160 25.360, 107.405 26.139 M 110.027 37.107 C 110.042 37.873, 111.073 43, 112.319 48.500 L 114.583 58.500 121.042 58.154 C 124.594 57.963, 127.778 57.636, 128.118 57.426 C 128.851 56.974, 131.450 38.117, 130.861 37.528 C 130.639 37.305, 125.854 36.806, 120.228 36.419 C 111.809 35.839, 110.005 35.961, 110.027 37.107 M 106.197 62.850 C 104.931 63.207, 98.987 69.125, 92.990 76 L 82.085 88.500 86.042 88.807 C 92.813 89.334, 90.350 92, 83.093 92 C 80.339 92, 78.707 92.692, 76.924 94.617 L 74.500 97.233 77.500 96.659 C 79.150 96.342, 86.800 95.352, 94.500 94.457 C 103.072 93.461, 108.772 92.349, 109.203 91.588 C 109.589 90.905, 111.745 89.517, 113.994 88.503 C 116.243 87.488, 117.888 86.152, 117.650 85.532 C 117.413 84.912, 116.178 79.363, 114.908 73.202 C 112.422 61.149, 112.383 61.103, 106.197 62.850 M 116.813 90.683 C 117.534 90.972, 118.397 90.936, 118.729 90.604 C 119.061 90.272, 118.471 90.036, 117.417 90.079 C 116.252 90.127, 116.015 90.364, 116.813 90.683 M 57.057 94.605 C 50.214 95.351, 44.139 96.160, 43.557 96.402 C 42.976 96.644, 49.029 96.878, 57.009 96.921 C 70.482 96.994, 71.608 96.857, 72.768 95 C 74.253 92.622, 75.053 92.642, 57.057 94.605 M 123.143 95.572 C 124.298 96.726, 125.681 96.963, 128.349 96.462 C 133.282 95.537, 131.958 94, 126.227 94 C 121.994 94, 121.714 94.143, 123.143 95.572 M 103.500 96.138 C 93.213 97.440, 93.254 98.053, 103.599 97.635 C 108.604 97.434, 113.554 96.772, 114.599 96.165 C 116.280 95.188, 116.153 95.072, 113.500 95.157 C 111.850 95.210, 107.350 95.651, 103.500 96.138 M 139.768 95.725 C 141.565 95.947, 144.265 95.943, 145.768 95.715 C 147.271 95.486, 145.800 95.304, 142.500 95.310 C 139.200 95.315, 137.971 95.502, 139.768 95.725 M 129.550 99.870 C 130.424 100.671, 152.892 115.685, 155.750 117.378 C 159.001 119.303, 156.137 116.338, 146.750 108.056 C 137.541 99.932, 136.099 99.014, 132.550 99.007 C 130.248 99.003, 128.996 99.363, 129.550 99.870 M 58.490 115.565 C 50.959 124.126, 45.031 131.364, 45.315 131.649 C 45.600 131.933, 53.633 132.390, 63.166 132.664 L 80.500 133.161 91.500 122.962 C 97.550 117.352, 103.298 111.241, 104.274 109.381 C 105.250 107.522, 105.910 106, 105.742 106 C 105.575 106, 95.564 110.240, 83.497 115.422 C 63.221 124.129, 60 125.187, 60 123.136 C 60 122.725, 69.859 117.693, 81.909 111.952 C 93.959 106.212, 103.608 101.174, 103.350 100.758 C 103.093 100.341, 95.975 100, 87.532 100 L 72.183 100 58.490 115.565 M 108.569 106.862 C 105.258 113.437, 102.406 116.612, 88.049 129.706 L 83.598 133.765 105.342 134.506 C 117.301 134.914, 127.336 134.997, 127.643 134.691 C 127.949 134.385, 126.579 126.701, 124.600 117.616 C 122.620 108.531, 121 100.851, 121 100.549 C 121 100.247, 118.981 100, 116.513 100 L 112.025 100 108.569 106.862 M 42.807 103.390 C 33.076 104.580, 24.874 105.792, 24.582 106.085 C 23.910 106.756, 28.799 169.649, 29.777 172.919 C 30.438 175.131, 31.783 175.612, 45.500 178.538 C 59.896 181.609, 61.729 181.764, 91 182.376 C 107.775 182.727, 129.600 183.286, 139.500 183.619 L 157.500 184.225 164.453 170.149 C 168.278 162.407, 171.186 155.853, 170.917 155.584 C 170.534 155.201, 147.962 146.168, 134.298 140.930 C 132.731 140.329, 132.212 140.434, 132.499 141.293 C 133.597 144.581, 141.021 180.436, 140.764 181.209 C 140.318 182.545, 100.793 151.926, 100.242 149.818 C 99.981 148.818, 99.636 148, 99.476 148 C 99.316 148, 88.131 151.802, 74.620 156.449 C 58.172 162.106, 49.830 164.534, 49.375 163.798 C 48.713 162.727, 51.535 159.816, 68.674 143.893 L 76.848 136.299 64.767 135.650 C 58.122 135.292, 49.569 135, 45.760 135 C 41.950 135, 38.983 134.584, 39.167 134.076 C 39.350 133.569, 45.125 126.737, 52 118.896 C 68.495 100.082, 67.904 100.973, 63.807 101.114 C 61.988 101.176, 52.538 102.201, 42.807 103.390 M 68.679 147.590 C 61.705 153.997, 56 159.398, 56 159.592 C 56 159.786, 66.414 156.358, 79.141 151.973 C 91.869 147.588, 102.461 144, 102.679 144 C 102.897 144, 102.946 145.213, 102.788 146.695 C 102.530 149.109, 104.277 150.769, 119.500 162.572 C 128.850 169.821, 136.643 175.628, 136.817 175.476 C 137.361 175.002, 129.717 140.563, 128.800 139.356 C 128.239 138.618, 121.651 137.992, 110.216 137.590 C 100.472 137.248, 89.993 136.737, 86.929 136.454 L 81.357 135.941 68.679 147.590" stroke="none" fill="black" fill-rule="evenodd"/>
</svg>