<svg xmlns="http://www.w3.org/2000/svg" width="200" height="200" viewBox="0 0 200 200" version="1.1">
	<path d="M 105.349 15.750 C 105.614 16.712, 106.116 19.597, 106.464 22.160 L 107.096 26.820 99.798 27.387 C 95.784 27.698, 85.525 28.195, 77 28.491 C 49.244 29.453, 41 30.137, 41 31.476 C 41 32.601, 63.354 42, 66.029 42 C 66.655 42, 66.985 41.455, 66.763 40.789 C 66.541 40.122, 62.341 37.985, 57.430 36.039 C 49.335 32.831, 48.827 32.479, 52 32.280 C 63.360 31.565, 103.394 30.060, 103.671 30.337 C 103.853 30.520, 97.800 40.081, 90.221 51.584 C 82.641 63.088, 75.360 74.259, 74.041 76.408 L 71.641 80.316 88.571 79.751 C 104.587 79.217, 105.096 79.256, 98 80.469 C 93.875 81.174, 86.563 82.303, 81.750 82.979 C 76.938 83.654, 73.002 84.498, 73.003 84.853 C 73.005 85.209, 76.192 88.988, 80.084 93.250 L 87.162 101 100.093 101 L 113.024 101 112.373 105.250 C 112.015 107.587, 111.612 109.635, 111.477 109.800 C 111.342 109.966, 103.643 114.084, 94.366 118.953 C 85.090 123.822, 77.500 128.411, 77.500 129.152 C 77.500 130.218, 81.006 130.557, 94.250 130.774 C 116.233 131.134, 116.470 132.267, 95.750 137.944 C 87.362 140.243, 78.700 142.693, 76.500 143.389 L 72.500 144.656 70.299 155.078 C 69.088 160.810, 67.956 166.175, 67.784 167 C 67.611 167.825, 62.337 156.027, 56.063 140.781 C 49.790 125.536, 44.397 112.701, 44.078 112.258 C 43.760 111.815, 39.450 109.700, 34.500 107.557 C 29.550 105.415, 25.166 103.381, 24.757 103.038 C 24.348 102.694, 27.319 94.108, 31.360 83.957 L 38.706 65.500 47.103 59.147 C 51.721 55.654, 56.382 52.170, 57.459 51.407 C 58.706 50.524, 59.069 49.673, 58.459 49.070 C 57.565 48.185, 42.072 58.496, 37.825 62.802 C 36.211 64.439, 21 101.290, 21 103.564 C 21 104.178, 25.507 106.627, 31.016 109.007 C 36.525 111.387, 41.424 113.822, 41.902 114.417 C 42.870 115.621, 67 174.261, 67 175.408 C 67 175.806, 60.385 176.034, 52.300 175.916 C 42.307 175.769, 37.482 176.053, 37.233 176.802 C 37.031 177.408, 39.649 179.308, 43.051 181.026 L 49.236 184.148 82.368 184.702 C 110.196 185.168, 120.383 184.913, 146 183.107 C 180.629 180.666, 183 180.382, 183 178.672 C 183 177.788, 176.215 176.779, 159.250 175.139 C 146.188 173.876, 134.937 172.667, 134.248 172.452 C 133.323 172.163, 133.543 170.935, 135.090 167.751 L 137.184 163.441 133.110 148.536 C 130.870 140.338, 129.141 133.549, 129.268 133.449 C 129.396 133.350, 135.771 132.089, 143.436 130.648 C 151.101 129.207, 157.677 127.684, 158.049 127.264 C 158.421 126.844, 163.303 116.861, 168.898 105.080 L 179.071 83.659 178.383 69.759 L 177.695 55.858 170.598 56.407 C 166.694 56.709, 159.069 57.236, 153.653 57.579 L 143.805 58.201 151.013 44.544 C 154.977 37.033, 158.054 30.720, 157.849 30.516 C 157.645 30.311, 148.037 31.575, 136.498 33.324 L 115.519 36.504 115.009 39.382 C 114.628 41.539, 113.906 39.560, 112.126 31.474 C 108.676 15.797, 108.086 14, 106.386 14 C 105.420 14, 105.042 14.639, 105.349 15.750 M 92.259 53.500 C 78.560 74.260, 77.297 76.535, 79.291 76.856 C 80.506 77.052, 88.813 76.892, 97.750 76.500 L 114 75.787 114 63.262 C 114 52.004, 113.772 50.372, 111.750 47.141 C 110.513 45.163, 109.036 40.610, 108.468 37.023 L 107.436 30.500 92.259 53.500 M 136.502 36.048 C 116.308 39.115, 118.315 38.183, 117.771 44.751 L 117.297 50.458 125.399 62.704 C 129.854 69.439, 134.063 74.961, 134.750 74.975 C 135.438 74.989, 136 75.915, 136 77.033 C 136 78.152, 139.119 83.716, 142.932 89.398 L 149.863 99.729 143.785 100.365 C 140.442 100.714, 135.594 101, 133.011 101 L 128.315 101 131.504 114.750 C 133.618 123.863, 135.166 128.586, 136.097 128.754 C 136.868 128.894, 141.663 128.219, 146.752 127.254 L 156.003 125.500 166.110 104.500 L 176.216 83.500 175.568 71.544 C 175.212 64.967, 174.781 59.448, 174.612 59.278 C 174.442 59.108, 166.754 59.446, 157.528 60.028 C 148.302 60.610, 140.534 60.867, 140.266 60.600 C 139.999 60.332, 142.754 54.414, 146.390 47.449 C 150.025 40.484, 153 34.609, 153 34.393 C 153 33.743, 149.106 34.133, 136.502 36.048 M 118.265 58.022 C 118.538 58.859, 119.536 63.021, 120.481 67.272 L 122.201 75 126.215 75 L 130.230 75 128.448 72.250 C 123.453 64.542, 117.825 56.678, 118.265 58.022 M 116.822 70.500 C 116.514 72.700, 116.645 74.920, 117.114 75.433 C 118.725 77.196, 119.292 75.036, 118.338 70.770 L 117.383 66.500 116.822 70.500 M 127.750 78.796 C 123.332 79.179, 123.297 79.377, 125.740 90.250 L 127.482 98 136.356 98 L 145.230 98 143.756 95.750 C 142.946 94.513, 140.186 90.259, 137.624 86.298 C 135.062 82.338, 132.636 78.956, 132.233 78.784 C 131.830 78.611, 129.813 78.617, 127.750 78.796 M 117.250 80.662 C 116.389 81.010, 116 83.786, 116 89.583 L 116 98 120.349 98 L 124.698 98 122.681 89 C 120.760 80.433, 120.148 79.493, 117.250 80.662 M 94.791 83.772 C 82.204 85.695, 78.258 86.635, 78.791 87.580 C 79.181 88.270, 81.708 91.163, 84.407 94.011 C 88.720 98.560, 89.673 99.115, 92.282 98.594 C 93.914 98.267, 99.244 98, 104.125 98 L 113 98 113 89.500 C 113 84.825, 112.662 81.049, 112.250 81.109 C 111.838 81.169, 103.981 82.368, 94.791 83.772 M 115 104.526 L 115 108.051 117.943 106.529 C 119.562 105.692, 121.069 105.343, 121.291 105.754 C 121.514 106.164, 122.958 111.338, 124.501 117.250 C 127.011 126.866, 127.542 128, 129.537 128 L 131.768 128 129.313 117.750 C 127.962 112.112, 126.606 106.037, 126.298 104.250 C 125.748 101.056, 125.645 101, 120.369 101 L 115 101 115 104.526 M 116.797 110.246 C 115.643 111.154, 115.082 113.780, 114.767 119.750 L 114.331 128 119.165 128 C 122.228 128, 124 127.565, 124 126.814 C 124 124.928, 119.880 110.579, 119.099 109.746 C 118.711 109.332, 117.675 109.557, 116.797 110.246 M 97.688 120.293 L 83.876 127.500 97.576 127.779 C 105.110 127.933, 111.459 127.874, 111.684 127.650 C 111.909 127.425, 111.959 124.056, 111.796 120.164 L 111.500 113.087 97.688 120.293 M 114 132 C 114 133.126, 116.077 133.126, 120.500 132 C 123.178 131.319, 122.990 131.224, 118.750 131.118 C 116.138 131.053, 114 131.450, 114 132 M 118.250 135.148 C 114.096 136.096, 113.999 136.212, 113.936 140.309 C 113.777 150.639, 112.291 180.042, 111.908 180.425 C 111.675 180.658, 96.525 180.321, 78.242 179.675 C 59.958 179.029, 44.999 178.601, 45 178.724 C 45 178.848, 46.328 179.635, 47.950 180.474 C 52.165 182.654, 113.739 182.615, 143.238 180.414 C 154.932 179.541, 164.609 178.720, 164.742 178.588 C 164.875 178.457, 157.005 177.563, 147.253 176.602 C 137.501 175.642, 129.383 174.716, 129.213 174.547 C 129.044 174.377, 130.124 171.752, 131.614 168.714 L 134.324 163.189 130.341 148.845 C 125.946 133.010, 126.227 133.329, 118.250 135.148 M 92 141.775 C 82.925 144.303, 75.328 146.498, 75.117 146.653 C 74.574 147.050, 68.774 176.119, 69.172 176.450 C 69.352 176.600, 78.612 177.015, 89.750 177.372 L 110 178.021 110.004 171.760 C 110.006 168.317, 110.301 159.088, 110.659 151.250 C 111.204 139.345, 111.080 137.015, 109.906 137.089 C 109.132 137.137, 101.075 139.246, 92 141.775" stroke="none" fill="black" fill-rule="evenodd"/>
</svg>