<svg xmlns="http://www.w3.org/2000/svg" width="200" height="200" viewBox="0 0 200 200" version="1.1">
	<path d="M 77.140 7.750 C 76.628 8.713, 73.196 16.700, 69.514 25.500 C 60.214 47.725, 61.806 46, 50.590 46 L 41.226 46 33.270 55.750 L 25.315 65.500 26.239 84.500 C 26.748 94.950, 26.920 113.400, 26.622 125.500 C 26.183 143.299, 26.472 151.510, 28.135 168.500 C 29.266 180.050, 30.332 189.647, 30.505 189.826 C 30.678 190.006, 37.498 185.694, 45.660 180.244 L 60.500 170.336 80.500 169.258 L 100.500 168.181 118.500 171.521 C 128.400 173.359, 142.493 176.288, 149.818 178.030 C 157.143 179.772, 163.273 181.041, 163.440 180.849 C 164.493 179.644, 165.816 127.855, 165.161 113.500 C 164.452 97.950, 164.622 94.751, 167.150 76.007 C 168.670 64.736, 169.596 55.218, 169.207 54.856 C 168.818 54.495, 162.896 51.928, 156.047 49.151 L 143.595 44.103 132.660 47.138 C 124.951 49.278, 121.521 49.843, 121.032 49.052 C 120.651 48.435, 118.859 39.734, 117.050 29.715 C 115.240 19.697, 113.629 11.352, 113.469 11.172 C 113.222 10.894, 107.233 19.188, 90.576 42.875 L 87.500 47.250 93.979 53.125 L 100.457 59 79.729 59 C 67.825 59, 59 58.610, 59 58.083 C 59 57.579, 59.884 55.104, 60.964 52.583 L 62.929 48 69.419 48 L 75.909 48 76.431 44.750 C 77.286 39.417, 80 12.227, 80 8.995 C 80 5.673, 78.574 5.053, 77.140 7.750 M 70.323 30.536 L 64.241 45 68.978 45 L 73.716 45 75.212 30.750 C 76.036 22.912, 76.641 16.404, 76.557 16.286 C 76.474 16.168, 73.668 22.581, 70.323 30.536 M 101.275 32.273 L 91.171 46.500 95.838 51.241 L 100.506 55.982 108.503 53.855 C 112.901 52.685, 116.856 51.410, 117.292 51.022 C 118.005 50.387, 112.777 19.443, 111.790 18.457 C 111.564 18.230, 106.832 24.448, 101.275 32.273 M 131.861 50.175 C 121.306 53.157, 121.227 53.202, 121.938 55.841 C 122.618 58.364, 122.978 58.500, 128.981 58.500 C 133.146 58.500, 135.454 58.927, 135.737 59.750 C 136.052 60.667, 134.413 61, 129.583 61 C 123.667 61, 123 61.203, 123 63 C 123 65.432, 124.264 65.528, 127.587 63.351 C 129.354 62.193, 130.417 62.017, 131.159 62.759 C 131.902 63.502, 131.006 64.512, 128.151 66.155 C 125.089 67.918, 124.194 68.989, 124.522 70.497 C 124.762 71.599, 125.883 77.675, 127.013 84 C 131.026 106.470, 130.773 105.668, 134.557 107.901 L 138 109.933 138 118.717 C 138 126.403, 135.266 142.406, 130.452 162.895 L 129.889 165.290 107.195 164.583 C 87.547 163.971, 59.852 161.185, 58.334 159.667 C 58.076 159.409, 66.333 154.125, 76.683 147.924 C 87.032 141.724, 103.244 131.744, 112.709 125.747 C 129.897 114.858, 129.918 114.840, 129.319 111.672 C 128.989 109.927, 128.328 107.999, 127.850 107.386 C 126.758 105.986, 95.578 86.998, 94.382 87.005 C 93.897 87.007, 86.300 91.708, 77.500 97.450 C 68.700 103.192, 61.236 107.578, 60.912 107.195 C 60.589 106.813, 58.837 99.396, 57.019 90.713 C 53.163 72.301, 53.262 64.237, 57.470 53.881 L 59.969 47.732 55.345 48.366 C 52.802 48.715, 48.813 49, 46.481 49 C 42.365 49, 42.033 49.254, 35.068 57.750 L 27.895 66.500 28.619 74 C 29.018 78.125, 29.397 98.375, 29.463 119 C 29.592 159.458, 31.246 185.503, 33.629 184.589 C 34.338 184.317, 40.449 180.374, 47.209 175.827 L 59.500 167.561 80 166.515 L 100.500 165.470 118 168.655 C 127.625 170.407, 141.199 173.157, 148.164 174.766 L 160.829 177.692 161.664 167.096 C 162.124 161.268, 162.407 141.918, 162.294 124.096 C 162.106 94.497, 162.299 90.176, 164.532 74.168 C 165.877 64.530, 166.870 56.582, 166.739 56.507 C 165.483 55.789, 143.377 47.007, 143 47.076 C 142.725 47.127, 137.712 48.521, 131.861 50.175 M 109 56.531 L 101.500 58.852 110.250 58.926 C 118.936 58.999, 119 58.982, 119 56.500 C 119 53.532, 118.685 53.533, 109 56.531 M 88.077 61.750 L 59.654 62.032 76.906 72.529 L 94.159 83.027 107.329 75.333 C 114.573 71.102, 120.655 67.528, 120.845 67.392 C 121.035 67.255, 120.887 65.761, 120.516 64.072 C 120.057 61.983, 119.307 61.075, 118.171 61.234 C 117.252 61.362, 103.710 61.595, 88.077 61.750 M 57 70.589 C 57 78.703, 61.982 103.181, 63.552 102.779 C 65.232 102.348, 90.994 85.577, 90.997 84.912 C 90.999 84.423, 60.249 65.217, 57.783 64.167 C 57.352 63.983, 57 66.873, 57 70.589 M 110.500 76.643 C 104.450 80.192, 98.889 83.456, 98.143 83.897 C 97.207 84.450, 101.427 87.536, 111.754 93.849 C 119.986 98.882, 126.936 103, 127.199 103 C 127.568 103, 123.125 77.080, 121.772 71.345 C 121.617 70.688, 116.761 72.971, 110.500 76.643 M 132.171 113.082 C 132.493 116.311, 132.219 116.563, 119.500 124.720 C 112.350 129.305, 97.414 138.546, 86.310 145.254 C 75.205 151.963, 66.353 157.688, 66.638 157.976 C 68.715 160.073, 128 163.622, 128 161.649 C 128 161.281, 129.593 153.575, 131.539 144.523 C 134.374 131.345, 135.021 126.333, 134.789 119.364 C 134.585 113.220, 134.109 110.532, 133.171 110.221 C 132.206 109.901, 131.933 110.684, 132.171 113.082" stroke="none" fill="black" fill-rule="evenodd"/>
</svg>