<svg xmlns="http://www.w3.org/2000/svg" width="200" height="200" viewBox="0 0 200 200" version="1.1">
	<path d="M 103.188 16.819 C 90.368 22.413, 86.493 24.639, 79.376 30.500 C 74.700 34.350, 70.521 37.627, 70.089 37.783 C 69.657 37.938, 68.167 37.634, 66.778 37.106 C 65.029 36.441, 62.167 32.582, 57.462 24.545 C 53.726 18.164, 50.182 13.125, 49.585 13.347 C 48.073 13.909, 48.137 14.087, 55.457 29.685 C 59.056 37.353, 61.975 44.049, 61.945 44.564 C 61.915 45.079, 51.543 54.050, 38.895 64.500 C 26.248 74.950, 15.250 84.208, 14.454 85.074 C 13.164 86.479, 14.305 87.538, 25.083 94.933 L 37.157 103.218 51.829 96.453 C 59.898 92.732, 69.685 88.230, 73.578 86.447 L 80.656 83.207 88.838 100.854 C 93.337 110.559, 97.015 118.819, 97.009 119.208 C 97.004 119.597, 94.981 121.099, 92.512 122.546 L 88.025 125.175 79.641 120.605 C 70.468 115.605, 70.017 114.882, 69.985 105.125 C 69.976 102.581, 69.606 99.927, 69.161 99.227 C 68.597 98.337, 64.073 102.462, 54.126 112.937 L 39.898 127.920 41.961 158.639 C 43.095 175.534, 44.131 189.436, 44.262 189.533 C 44.393 189.629, 55.339 184.806, 68.587 178.815 L 92.674 167.922 116.759 177.961 C 130.006 183.482, 141.216 188, 141.672 187.999 C 142.791 187.999, 161.013 148.599, 160.952 146.311 C 160.889 143.956, 150.560 101.227, 149.892 100.558 C 149.611 100.278, 138.425 102.517, 125.033 105.533 C 111.642 108.550, 100.521 110.855, 100.321 110.655 C 100.121 110.455, 99.323 106.682, 98.547 102.270 C 97.244 94.856, 97.319 92.678, 99.537 73.490 C 100.857 62.072, 102.094 52.572, 102.287 52.379 C 102.480 52.186, 105.197 63.349, 108.325 77.186 C 111.452 91.023, 114.245 102.579, 114.532 102.865 C 115.142 103.475, 181.452 88.962, 183.270 87.821 C 184.111 87.293, 181.492 84.035, 174.991 77.521 L 165.481 67.994 150.491 63.903 C 142.246 61.653, 135.365 59.681, 135.199 59.522 C 135.034 59.363, 145.492 55.018, 158.438 49.866 C 173.254 43.971, 181.982 39.987, 181.989 39.116 C 182 37.715, 172.646 37.832, 143 39.601 L 133.500 40.168 126.820 25.357 C 123.146 17.211, 119.771 10.455, 119.320 10.342 C 118.869 10.229, 111.610 13.144, 103.188 16.819 M 111.500 16.212 C 108.750 17.392, 106.362 18.452, 106.194 18.568 C 106.026 18.683, 105.502 25.003, 105.029 32.611 L 104.168 46.443 110.161 72.965 C 113.457 87.552, 116.321 99.654, 116.526 99.859 C 116.910 100.243, 178.150 86.940, 178.947 86.299 C 179.192 86.102, 175.919 82.445, 171.673 78.174 L 163.952 70.407 145.911 65.504 C 135.989 62.806, 127.695 60.315, 127.479 59.966 C 127.264 59.618, 137.305 55.221, 149.794 50.195 L 172.500 41.058 156 41.757 C 146.925 42.142, 137.755 42.467, 135.623 42.478 L 131.745 42.500 125.242 28.250 C 121.665 20.412, 118.235 14.015, 117.619 14.033 C 117.004 14.051, 114.250 15.031, 111.500 16.212 M 95.805 22.943 C 90.181 25.315, 76.192 35.543, 75.215 37.996 C 74.929 38.712, 99.103 42.891, 99.945 42.271 C 100.378 41.953, 102.989 20.682, 102.641 20.316 C 102.544 20.215, 99.468 21.397, 95.805 22.943 M 64 41 C 64 41.550, 64.423 42, 64.941 42 C 65.459 42, 66.160 41.550, 66.500 41 C 66.840 40.450, 66.416 40, 65.559 40 C 64.702 40, 64 40.450, 64 41 M 68.462 43.279 L 65.758 45.605 67.899 49.803 C 69.077 52.111, 70.275 54, 70.561 54 C 70.847 54, 76.114 51.864, 82.266 49.253 L 93.452 44.507 86.993 43.351 C 72.554 40.768, 71.387 40.763, 68.462 43.279 M 85.265 50.823 C 77.985 53.945, 72.023 57.075, 72.015 57.779 C 72.007 58.482, 73.326 61.684, 74.947 64.895 L 77.894 70.734 87.032 71.449 C 92.058 71.842, 96.332 72.002, 96.529 71.804 C 96.727 71.607, 97.360 67.407, 97.936 62.472 C 98.512 57.538, 99.240 51.587, 99.553 49.250 C 99.866 46.913, 99.757 45.033, 99.311 45.073 C 98.865 45.114, 92.544 47.701, 85.265 50.823 M 40.192 66.793 L 16.885 86.281 27.287 93.182 L 37.690 100.084 57.595 90.907 C 68.543 85.859, 77.876 81.392, 78.335 80.980 C 78.794 80.567, 78.478 78.890, 77.631 77.253 C 76.073 74.240, 72.709 73.039, 65.750 73.011 C 64.060 73.004, 63 72.458, 63 71.595 C 63 70.482, 64.261 70.304, 69.062 70.739 L 75.124 71.289 71.878 64.708 L 68.633 58.126 65.067 59.650 C 57.625 62.830, 57.187 62.931, 56.673 61.590 C 56.355 60.762, 58.126 59.487, 61.588 58.052 C 64.565 56.818, 66.981 55.289, 66.958 54.654 C 66.935 54.019, 66.148 52.106, 65.208 50.403 L 63.500 47.305 40.192 66.793 M 80.182 76.500 C 80.808 77.875, 81.661 79, 82.078 79 C 83.348 79, 92 75.107, 92 74.536 C 92 74.241, 89.085 74, 85.521 74 L 79.043 74 80.182 76.500 M 89.280 79.093 L 83.060 81.881 86.433 89.191 C 97.730 113.666, 97.848 113.821, 95.609 101.319 C 94.708 96.290, 94.591 92.139, 95.218 87.462 C 95.710 83.790, 95.974 79.778, 95.806 78.546 L 95.500 76.305 89.280 79.093 M 135.500 105.986 C 128.900 107.455, 122.360 108.944, 120.967 109.293 C 119.469 109.669, 115.496 113.396, 111.251 118.408 L 104.070 126.886 115.003 150.142 C 121.016 162.933, 125.838 173.489, 125.718 173.600 C 125.598 173.711, 121.225 172.991, 116 172 C 110.775 171.009, 106.405 170.287, 106.288 170.394 C 106.172 170.502, 113.571 173.720, 122.731 177.545 C 131.892 181.370, 139.683 184.628, 140.045 184.784 C 140.929 185.165, 158 148.762, 158 146.497 C 158 144.316, 148.993 105.931, 148.123 104.407 C 147.692 103.651, 143.811 104.136, 135.500 105.986 M 54.629 115.861 L 42.758 127.772 44.554 156.386 C 45.541 172.124, 46.739 185, 47.214 185 C 48.688 185, 91 165.795, 90.996 165.129 C 90.993 164.783, 83.788 160.061, 74.984 154.636 C 66.180 149.211, 58.776 144.447, 58.530 144.049 C 58.284 143.651, 63.922 139.823, 71.058 135.542 C 78.193 131.260, 84.214 127.463, 84.436 127.104 C 84.658 126.744, 81.054 124.436, 76.426 121.975 C 68.090 117.542, 68.011 117.463, 67.888 113.500 C 67.819 111.300, 67.479 108.251, 67.132 106.725 C 66.515 104.013, 66.226 104.224, 54.629 115.861 M 102.206 113.348 C 98.370 114.377, 98.050 114.684, 99.206 116.229 C 100.411 117.838, 100.844 117.753, 105.500 114.996 C 110.807 111.852, 109.752 111.324, 102.206 113.348 M 105.224 118.155 C 103.236 119.414, 102 121.015, 102 122.332 C 102 124.230, 102.411 124.056, 105.700 120.767 C 110.024 116.442, 109.807 115.253, 105.224 118.155 M 94.794 124.382 L 91.088 126.621 94.148 128.428 C 97.109 130.178, 97.268 130.176, 99.044 128.368 C 100.569 126.817, 100.678 126.131, 99.690 124.322 L 98.500 122.144 94.794 124.382 M 75.728 135.851 C 66.039 141.668, 63.331 143.735, 64.270 144.594 C 65.252 145.491, 92.574 162.480, 97.789 165.436 C 99.291 166.287, 120.177 170.156, 120.660 169.673 C 120.966 169.367, 103.265 130.977, 102.408 130.089 C 102.191 129.864, 101.067 130.534, 99.913 131.579 C 97.842 133.453, 97.747 133.443, 93.115 130.856 L 88.416 128.233 75.728 135.851" stroke="none" fill="black" fill-rule="evenodd"/>
</svg>