<svg xmlns="http://www.w3.org/2000/svg" width="200" height="200" viewBox="0 0 200 200" version="1.1">
	<path d="M 65 11.820 C 65 12.309, 67.901 22.563, 71.446 34.605 L 77.892 56.500 76.868 67.494 C 76.306 73.541, 75.768 78.550, 75.673 78.625 C 75.310 78.913, 43.138 70.473, 42.620 69.954 C 42.320 69.653, 42.533 62.496, 43.094 54.048 C 43.883 42.164, 43.838 38.518, 42.899 37.937 C 42 37.382, 41.849 34.299, 42.318 26.093 C 42.668 19.992, 42.756 15, 42.515 15 C 42.275 15, 35.305 22.919, 27.028 32.598 L 11.979 50.197 12.544 78.848 C 13.051 104.617, 16.680 177, 17.506 177.836 C 17.689 178.021, 26.087 175.830, 36.169 172.968 L 54.500 167.765 74.437 153.869 C 85.402 146.227, 94.689 140.317, 95.075 140.737 C 95.460 141.157, 101.061 150.950, 107.522 162.500 C 113.982 174.050, 119.581 183.851, 119.964 184.280 C 120.347 184.709, 126.953 177.731, 134.644 168.775 C 146.700 154.735, 150.585 150.984, 162.814 141.572 C 170.617 135.567, 177 130.347, 177 129.971 C 177 129.595, 169.912 127.149, 161.250 124.535 C 152.588 121.922, 145.157 119.466, 144.737 119.078 C 144.317 118.691, 150.828 113.474, 159.206 107.485 L 174.438 96.596 157.984 91.345 C 142.375 86.363, 140.305 85.963, 117.670 83.547 C 104.547 82.146, 93.366 81.274, 92.825 81.608 C 92.283 81.943, 93.997 78.972, 96.635 75.006 C 100.970 68.486, 101.519 67.997, 102.368 69.898 C 103.151 71.653, 104.184 72, 108.624 72 C 117.201 72, 170.416 68.918, 170.943 68.390 C 171.441 67.892, 165.375 36.042, 164.643 35.310 C 164.416 35.083, 156.304 38.712, 146.615 43.375 C 131.175 50.805, 129.059 51.584, 129.488 49.676 C 130.010 47.356, 133.665 25.126, 134.188 21.093 C 134.944 15.264, 131.305 19.158, 118.833 37.527 L 105.500 57.165 104.500 48.892 L 103.500 40.620 86 26.772 C 67.649 12.249, 65 10.363, 65 11.820 M 70 18.874 C 70 19.489, 72.406 28.207, 75.347 38.246 C 80.492 55.808, 80.665 56.784, 79.909 64 C 79.477 68.125, 79.096 73.359, 79.062 75.631 C 79.001 79.723, 79.044 79.774, 83.622 80.926 C 86.164 81.566, 88.420 81.913, 88.637 81.696 C 88.854 81.480, 91.949 77.072, 95.515 71.901 L 102 62.500 102 52.754 L 102 43.008 87.250 31.350 C 79.138 24.939, 71.938 19.257, 71.250 18.724 C 70.417 18.079, 70 18.129, 70 18.874 M 27.086 36.641 L 14.751 51.195 15.404 81.348 C 16.017 109.665, 18.436 161.458, 19.573 170.626 L 20.085 174.751 30.293 171.807 C 35.907 170.188, 43.494 167.988, 47.153 166.918 C 52.463 165.366, 57.512 162.387, 72.153 152.168 C 82.244 145.125, 91.681 138.592, 93.125 137.649 L 95.750 135.934 108.117 157.967 C 114.920 170.085, 120.713 180, 120.992 180 C 121.272 180, 127.107 173.423, 133.961 165.386 C 144.003 153.609, 148.801 148.942, 158.678 141.343 C 165.419 136.158, 171.137 131.587, 171.384 131.187 C 171.632 130.787, 164.428 128.259, 155.377 125.569 C 146.325 122.879, 138.717 120.351, 138.470 119.951 C 138.223 119.551, 144.855 114.346, 153.209 108.384 L 168.397 97.544 154.949 93.203 C 143.659 89.560, 138.690 88.556, 124 86.950 C 102.767 84.628, 98.283 84.545, 105.500 86.608 C 108.250 87.394, 111.850 88.095, 113.500 88.164 C 115.150 88.234, 116.725 88.591, 117 88.957 C 117.275 89.323, 119.040 90.052, 120.922 90.576 C 122.804 91.101, 124.540 92.121, 124.781 92.843 C 125.120 93.859, 124.210 94.004, 120.753 93.486 L 116.288 92.816 115.728 96.991 C 115.116 101.554, 114.608 102.494, 113.220 101.636 C 112.715 101.324, 112.618 99.018, 113.002 96.487 C 113.484 93.314, 113.359 92.034, 112.599 92.329 C 111.995 92.564, 106.312 94.870, 99.971 97.452 L 88.441 102.147 84.471 113.742 C 82.287 120.119, 80.350 125.711, 80.167 126.169 C 79.983 126.626, 88.908 127, 100 127 C 115.687 127, 120.075 127.278, 119.753 128.250 C 119.449 129.170, 113.076 129.728, 95.618 130.365 C 82.572 130.841, 71.761 131.066, 71.595 130.865 C 71.428 130.664, 71.691 126.494, 72.178 121.597 C 72.666 116.700, 72.920 112.261, 72.744 111.732 C 72.568 111.203, 67.266 118.451, 60.962 127.839 C 54.658 137.228, 49.260 144.817, 48.967 144.704 C 47.911 144.299, 30 124.813, 30 124.069 C 30 123.650, 39.563 119.363, 51.250 114.543 C 62.938 109.723, 72.802 105.298, 73.170 104.710 C 73.539 104.122, 74.136 99.334, 74.497 94.070 C 74.858 88.807, 75.232 83.871, 75.327 83.102 C 75.451 82.100, 70.827 80.476, 59.052 77.383 C 50.005 75.007, 42.468 73.199, 42.302 73.365 C 42.136 73.531, 41.550 80.342, 41 88.500 C 40.450 96.658, 39.805 103.528, 39.567 103.767 C 38.375 104.959, 37.178 102.589, 37.528 99.732 C 37.747 97.954, 38.450 87.337, 39.091 76.139 C 39.984 60.554, 39.982 55.607, 39.083 55.051 C 38.200 54.506, 38.139 50.379, 38.836 38.413 C 39.346 29.661, 39.686 22.407, 39.592 22.293 C 39.497 22.180, 33.870 28.636, 27.086 36.641 M 117.739 43.995 C 107.660 58.909, 105 63.550, 105 66.220 L 105 69.595 111.250 69.249 C 114.688 69.059, 128.641 68.321, 142.258 67.610 C 155.875 66.899, 167.275 66.059, 167.590 65.743 C 168.137 65.197, 163.413 40.080, 162.614 39.280 C 162.403 39.070, 154.231 42.747, 144.453 47.453 C 134.675 52.158, 126.478 55.811, 126.237 55.570 C 125.996 55.329, 126.921 48.465, 128.293 40.316 C 129.664 32.167, 130.717 25.420, 130.633 25.322 C 130.548 25.225, 124.746 33.627, 117.739 43.995 M 77.623 90.146 C 77.258 94.076, 77.153 97.486, 77.390 97.723 C 77.920 98.254, 86 86.475, 86 85.172 C 86 84.655, 84.987 83.962, 83.750 83.630 C 78.640 82.261, 78.325 82.596, 77.623 90.146 M 83.678 94.179 C 80.569 98.678, 78.219 102.552, 78.455 102.789 C 78.692 103.026, 80.599 102.382, 82.693 101.360 C 85.895 99.795, 86.848 98.547, 88.691 93.500 C 92.500 83.067, 91.241 83.238, 83.678 94.179 M 92.675 90.236 C 90.393 95.698, 89.803 97.999, 90.683 98.015 C 91.132 98.023, 95.527 96.349, 100.449 94.294 L 109.399 90.559 105.021 89.291 C 95.010 86.393, 94.257 86.450, 92.675 90.236 M 79.834 105.625 L 76.167 107.147 75.505 115.824 C 75.141 120.596, 74.623 125.287, 74.354 126.250 C 74.047 127.348, 74.416 128, 75.345 128 C 76.345 128, 78.123 124.117, 80.838 116 C 83.046 109.400, 84.548 104.023, 84.176 104.052 C 83.804 104.080, 81.850 104.788, 79.834 105.625 M 51.268 117.406 C 41.791 121.308, 34.141 124.778, 34.268 125.117 C 34.396 125.456, 37.692 129.138, 41.593 133.299 L 48.685 140.865 58.933 125.856 C 64.569 117.602, 69.028 110.727, 68.840 110.580 C 68.653 110.432, 60.746 113.504, 51.268 117.406" stroke="none" fill="black" fill-rule="evenodd"/>
</svg>