<svg xmlns="http://www.w3.org/2000/svg" width="200" height="200" viewBox="0 0 200 200" version="1.1">
	<path d="M 25.657 23.713 C 24.264 27.996, 20.793 38.919, 17.944 47.988 L 12.763 64.475 13.500 100.822 L 14.236 137.169 22.184 150.834 C 26.555 158.350, 30.440 164.796, 30.816 165.157 C 31.192 165.519, 40.275 166.315, 51 166.927 C 69.995 168.010, 71.063 167.965, 92.236 165.189 L 113.971 162.339 139.736 170.629 C 153.906 175.189, 166.175 178.936, 167 178.956 C 168.008 178.981, 171.043 172.991, 176.250 160.700 C 180.512 150.640, 184 142.122, 184 141.772 C 184 141.263, 156.003 124.260, 148.701 120.333 C 147.119 119.482, 148.369 117.587, 159.063 104.628 C 165.752 96.523, 171.056 89.723, 170.850 89.517 C 170.644 89.311, 163.590 88.323, 155.175 87.321 L 139.874 85.500 164.437 63.724 C 177.947 51.747, 189 41.457, 189 40.857 C 189 40.257, 188.212 39.985, 187.250 40.252 C 186.287 40.519, 170.894 50.003, 153.043 61.328 C 135.192 72.654, 120.401 81.734, 120.174 81.508 C 119.948 81.281, 119.029 75.112, 118.131 67.798 L 116.500 54.500 100.250 51.504 L 84 48.509 84 43.754 L 84 39 88.353 39 C 90.748 39, 95.364 38.722, 98.613 38.383 L 104.519 37.765 116.919 54.633 C 123.739 63.910, 129.480 71.695, 129.676 71.933 C 129.873 72.172, 130.476 71.924, 131.017 71.383 C 131.661 70.739, 127.499 64.307, 118.935 52.715 L 105.869 35.031 96.685 35.577 C 91.633 35.877, 86.713 36.278, 85.750 36.468 C 84.203 36.773, 84 35.904, 84 28.969 L 84 21.126 87.250 21.598 C 89.037 21.857, 102.165 23.392, 116.423 25.007 C 130.680 26.623, 142.649 28.295, 143.020 28.723 C 143.390 29.150, 144.737 34.450, 146.012 40.500 C 148.802 53.737, 149.767 56.636, 150.977 55.413 C 151.873 54.506, 146.484 27.141, 145.159 25.867 C 144.796 25.519, 131.450 23.810, 115.500 22.070 C 99.550 20.330, 85.263 18.667, 83.750 18.374 L 81 17.841 80.840 27.671 C 80.752 33.077, 80.500 36.059, 80.280 34.298 C 80.042 32.393, 79.196 30.900, 78.190 30.611 C 77.261 30.343, 66.375 27.148, 54 23.511 C 41.625 19.874, 30.755 16.679, 29.845 16.412 C 28.535 16.027, 27.660 17.553, 25.657 23.713 M 29.465 20.375 C 29.258 20.994, 26.086 31.152, 22.416 42.949 L 15.743 64.398 16.186 100.032 L 16.628 135.665 24.436 149.229 L 32.244 162.793 38.372 163.377 C 59.670 165.407, 69.337 165.242, 91.370 162.470 C 116.648 159.289, 112.283 158.753, 143.858 168.918 C 156.156 172.877, 166.393 175.940, 166.609 175.724 C 167.223 175.111, 180.985 142.649, 180.728 142.420 C 180.603 142.307, 172.044 137.193, 161.708 131.054 L 142.917 119.893 149.666 111.696 C 153.378 107.188, 158.630 100.896, 161.338 97.714 C 164.046 94.531, 166.090 91.773, 165.880 91.584 C 165.671 91.396, 158.319 90.399, 149.543 89.371 L 133.586 87.500 151.043 72.100 C 173.791 52.033, 175.026 50.802, 168 55.202 C 129.775 79.139, 120.027 85.627, 120.487 86.827 C 120.769 87.562, 121 89.895, 121 92.010 C 121 94.126, 121.625 96.482, 122.389 97.246 C 123.431 98.288, 124.117 105.389, 125.139 125.723 C 125.887 140.621, 126.234 152.646, 125.909 152.445 C 125.584 152.243, 119.996 143.624, 113.490 133.289 C 106.985 122.955, 101.345 114.130, 100.958 113.677 C 100.570 113.224, 96.596 113.388, 92.127 114.042 L 84 115.230 84 121.958 C 84 136.559, 82.697 153, 81.540 153 C 80.872 153, 78.805 146.171, 76.622 136.750 C 71.996 116.785, 72.056 117, 71.017 117 C 70.550 117, 65.087 120.225, 58.877 124.167 C 52.666 128.108, 47.095 131.333, 46.496 131.333 C 45.897 131.333, 42.153 128.898, 38.177 125.922 C 29.610 119.512, 28.341 120.298, 52.683 116.936 C 61.584 115.707, 69.358 114.397, 69.960 114.025 C 70.751 113.536, 70.750 111.932, 69.954 108.221 C 69.144 104.446, 69.161 100.526, 70.018 93.350 C 71.090 84.372, 71.041 83.503, 69.400 82.303 C 68.420 81.586, 66.782 81, 65.760 81 C 64.738 81, 57.123 84.624, 48.838 89.054 C 40.553 93.484, 33.651 96.971, 33.499 96.804 C 33.172 96.443, 38.125 69.682, 38.627 69.097 C 38.817 68.875, 44.603 70.612, 51.486 72.956 C 64.510 77.391, 66.963 77.547, 70.593 74.164 C 72.248 72.623, 72.884 70.065, 73.867 61.002 C 74.538 54.815, 74.955 49.663, 74.793 49.553 C 74.632 49.443, 66.175 47.849, 56 46.011 C 38.903 42.923, 34.855 41.812, 36.113 40.554 C 36.376 40.290, 42.871 39.611, 50.546 39.043 C 76.441 37.130, 77 37.044, 77 34.991 C 77 33.622, 75.639 32.745, 71.750 31.610 C 68.862 30.767, 58.252 27.642, 48.171 24.664 C 36.136 21.110, 29.712 19.637, 29.465 20.375 M 60.829 40.916 C 56.611 41.237, 52.912 41.749, 52.610 42.053 C 52.308 42.357, 56.885 43.427, 62.781 44.430 C 68.676 45.434, 74.063 46.471, 74.750 46.735 C 75.608 47.064, 76 46.082, 76 43.607 C 76 39.520, 76.945 39.688, 60.829 40.916 M 78.850 42.500 C 78.767 43.875, 78.655 45.525, 78.600 46.167 C 78.545 46.808, 79.063 47.521, 79.750 47.750 C 80.614 48.038, 81 46.906, 81 44.083 C 81 39.714, 79.101 38.316, 78.850 42.500 M 77.952 50.667 C 77.926 51.125, 77.332 56.082, 76.633 61.682 L 75.362 71.864 78.218 70.387 L 81.074 68.910 80.787 59.786 C 80.592 53.589, 80.099 50.529, 79.250 50.248 C 78.563 50.020, 77.979 50.208, 77.952 50.667 M 84 59.200 C 84 63.581, 84.338 67.006, 84.750 66.810 C 85.162 66.614, 87.628 65.367, 90.228 64.038 C 92.828 62.710, 95.123 61.820, 95.327 62.061 C 95.532 62.303, 99.647 67.787, 104.472 74.250 C 109.297 80.713, 113.585 86, 114 86 C 114.415 86, 115.309 85.332, 115.987 84.516 C 116.964 83.338, 116.905 80.428, 115.698 70.380 C 114.844 63.272, 113.658 57.407, 112.991 56.994 C 112.338 56.591, 108.810 55.759, 105.152 55.145 C 101.493 54.532, 95.237 53.400, 91.250 52.631 L 84 51.232 84 59.200 M 88.699 67.830 L 83.946 70.500 84.223 77.500 L 84.500 84.500 93.500 87.685 C 104.035 91.413, 106.023 91.611, 108.967 89.228 L 111.156 87.456 102.993 76.734 C 98.504 70.838, 94.520 65.822, 94.141 65.587 C 93.762 65.353, 91.313 66.362, 88.699 67.830 M 40.484 73.319 C 40.264 73.969, 39.585 77.425, 38.975 81 C 38.365 84.575, 37.605 88.581, 37.287 89.902 C 36.750 92.127, 37.597 91.836, 48.806 85.937 C 55.460 82.436, 60.807 79.474, 60.689 79.355 C 60.570 79.237, 56.066 77.565, 50.679 75.639 C 43.922 73.224, 40.760 72.505, 40.484 73.319 M 77.750 73.572 C 76.237 74.393, 75 75.688, 75 76.450 C 75 77.213, 74.747 78.495, 74.439 79.299 C 74.058 80.291, 74.910 81.122, 77.088 81.881 C 81.881 83.552, 82 83.445, 82 77.500 C 82 74.475, 81.662 72.018, 81.250 72.040 C 80.838 72.062, 79.263 72.751, 77.750 73.572 M 70.143 77.907 C 69.137 78.532, 69.090 78.937, 69.960 79.475 C 71.332 80.323, 72.362 79.572, 71.854 78.095 C 71.646 77.489, 70.940 77.412, 70.143 77.907 M 73.347 88.671 C 72.376 94.534, 72.245 109.579, 73.157 110.490 C 74.015 111.348, 79.993 108.249, 80.474 106.698 C 80.678 106.039, 81.128 101.167, 81.474 95.871 C 82.102 86.255, 82.100 86.242, 79.644 85.626 C 78.292 85.286, 76.502 84.746, 75.666 84.425 C 74.492 83.975, 73.964 84.940, 73.347 88.671 M 116.446 88.087 C 116.077 88.685, 116.275 89.675, 116.887 90.287 C 117.704 91.104, 118 90.815, 118 89.200 C 118 86.785, 117.481 86.413, 116.446 88.087 M 84 96.507 L 84 105.014 91.750 100.189 C 96.013 97.535, 100.125 94.992, 100.888 94.537 C 101.841 93.970, 99.821 92.816, 94.444 90.856 C 90.136 89.285, 86.024 88, 85.306 88 C 84.334 88, 84 90.174, 84 96.507 M 110.556 91.583 C 109.490 92.362, 108.874 93, 109.187 93 C 109.500 93, 111.410 93.691, 113.432 94.536 C 116.952 96.007, 117.066 95.993, 116.109 94.204 C 114.285 90.796, 112.673 90.035, 110.556 91.583 M 94.250 101.645 C 86.853 106.410, 84 108.806, 84 110.253 C 84 112.121, 84.427 112.210, 90.250 111.553 C 93.688 111.165, 97.674 110.613, 99.109 110.327 C 101.543 109.841, 102.407 110.888, 111.969 125.903 C 117.607 134.756, 122.453 142, 122.738 142 C 123.262 142, 122.448 122.039, 121.344 107.774 L 120.746 100.049 115.149 97.955 C 105.624 94.391, 105.468 94.419, 94.250 101.645 M 77.460 112.405 C 75.662 113.720, 75.715 113.777, 78.269 113.289 C 79.771 113.002, 81 112.369, 81 111.883 C 81 110.601, 79.658 110.799, 77.460 112.405 M 75 116.911 C 75 118.420, 80.073 139.407, 80.554 139.887 C 80.799 140.133, 81 134.858, 81 128.167 L 81 116 78 116 C 76.350 116, 75 116.410, 75 116.911 M 47.167 120.531 C 42.584 121.246, 38.648 122.019, 38.419 122.248 C 38.190 122.476, 39.937 124.052, 42.300 125.749 L 46.597 128.835 53.470 124.412 C 57.251 121.979, 60.567 119.767, 60.839 119.495 C 61.624 118.710, 56.193 119.121, 47.167 120.531" stroke="none" fill="black" fill-rule="evenodd"/>
</svg>