<svg xmlns="http://www.w3.org/2000/svg" width="200" height="200" viewBox="0 0 200 200" version="1.1">
	<path d="M 51.154 17.085 C 50.100 19.513, 46.753 27.171, 43.717 34.102 L 38.197 46.704 39.685 75.643 L 41.174 104.581 36.587 128.649 C 34.065 141.887, 31.911 153.801, 31.802 155.126 C 31.675 156.659, 33.401 159.966, 36.551 164.226 C 39.273 167.906, 41.782 170.936, 42.127 170.959 C 42.825 171.005, 42.789 171.085, 56.807 137.500 L 66.825 113.500 68.357 90.139 C 69.200 77.290, 70.120 66.547, 70.401 66.265 C 71.096 65.571, 130.726 68.392, 131.489 69.156 C 132.408 70.074, 135.814 84.996, 135.112 85.027 C 134.776 85.042, 120.885 82.495, 104.244 79.366 C 87.603 76.238, 73.818 73.863, 73.610 74.089 C 72.487 75.308, 71.226 127.453, 71.721 152.250 C 72.214 176.990, 72.505 181, 73.806 181 C 74.638 181, 83.070 178.525, 92.544 175.500 C 102.018 172.475, 110.415 170, 111.203 170 C 111.992 170, 114.939 170.684, 117.753 171.519 C 122.828 173.026, 122.864 173.065, 122.303 176.519 C 121.615 180.759, 124.026 181.432, 125.818 177.500 C 126.445 176.125, 127.304 175.009, 127.729 175.020 C 128.153 175.031, 135.450 177.268, 143.944 179.993 C 152.438 182.717, 159.468 184.845, 159.566 184.723 C 159.663 184.600, 162.326 173.925, 165.482 161 L 171.221 137.500 170.010 111.333 L 168.799 85.166 172.483 69.640 L 176.166 54.115 167.910 36.044 C 159.963 18.649, 159.726 17.920, 161.577 16.558 C 166.291 13.088, 159.508 14.310, 142.531 19.989 C 132.648 23.295, 123.892 26, 123.073 26 C 122.254 26, 119.914 24.369, 117.872 22.375 L 114.160 18.750 111.241 20.828 C 109.636 21.971, 107.745 23.603, 107.039 24.453 C 106.016 25.686, 103.393 26.001, 94.128 26.007 C 80.300 26.016, 69 26.966, 69 28.120 C 69 28.577, 76.276 29.074, 85.169 29.225 L 101.338 29.500 85.173 43.500 C 70.626 56.098, 67.030 60, 69.963 60 C 70.493 60, 83.080 54.197, 97.935 47.104 L 124.944 34.208 133.569 43.604 C 138.313 48.772, 141.869 53, 141.470 53 C 141.072 53, 137.463 51.187, 133.449 48.972 C 128.834 46.425, 125.911 45.334, 125.497 46.005 C 125.136 46.589, 129.211 53.869, 134.552 62.184 L 144.264 77.301 142.952 84.400 C 141.707 91.139, 141.306 91.844, 135.070 98.273 L 128.500 105.047 123 98.075 C 119.975 94.240, 117.267 91.080, 116.982 91.051 C 116.698 91.023, 117.114 96.850, 117.907 104 C 118.701 111.150, 119.630 117, 119.972 117 C 120.314 117, 122.322 115.231, 124.433 113.068 L 128.272 109.137 131.636 113.163 C 133.486 115.377, 134.984 117.934, 134.964 118.845 C 134.885 122.531, 132.022 132.370, 130.803 133.143 C 130.087 133.597, 126.308 133.976, 122.406 133.985 C 106.943 134.018, 94 135.246, 94 136.680 C 94 137.804, 96.249 137.954, 106.250 137.502 C 112.987 137.197, 121.313 136.722, 124.750 136.446 C 128.428 136.151, 131 136.340, 131 136.905 C 131 138.359, 123.842 169.439, 123.399 169.910 C 123.186 170.136, 120.338 169.511, 117.069 168.521 L 111.125 166.721 94.313 171.994 C 85.066 174.893, 76.990 177.459, 76.366 177.696 C 74.599 178.365, 73.612 125.936, 74.896 99.601 C 75.484 87.557, 76.127 77.540, 76.325 77.341 C 76.524 77.142, 90.595 79.637, 107.593 82.884 C 124.592 86.132, 138.651 88.648, 138.836 88.476 C 139.279 88.061, 134.886 68.434, 134.046 67.074 C 133.436 66.087, 68.393 62.216, 67.589 63.120 C 67.402 63.329, 66.501 74.750, 65.586 88.500 L 63.922 113.500 53.280 139 C 47.427 153.025, 42.330 164.867, 41.953 165.316 C 41.576 165.765, 39.669 163.955, 37.716 161.294 L 34.164 156.455 39.083 130.478 L 44.001 104.500 42.490 75.834 L 40.978 47.168 48.075 30.970 C 53.032 19.654, 54.854 14.454, 54.121 13.721 C 53.387 12.987, 52.493 14.001, 51.154 17.085 M 142.086 26.180 L 127.671 33.048 130.155 35.774 C 131.521 37.273, 136.176 42.446, 140.500 47.270 C 144.823 52.093, 148.674 55.693, 149.057 55.270 C 149.941 54.291, 157.251 21.198, 156.820 20.118 C 156.644 19.675, 150.014 22.403, 142.086 26.180 M 111.500 24 C 109.720 25.967, 109.753 26, 113.500 26 C 117.247 26, 117.280 25.967, 115.500 24 C 114.505 22.900, 113.605 22, 113.500 22 C 113.395 22, 112.495 22.900, 111.500 24 M 158.995 24.583 C 158.992 25.087, 156.517 36.465, 153.495 49.867 C 150.473 63.268, 148 75.055, 148 76.060 C 148 77.064, 148.964 79.519, 150.141 81.515 L 152.283 85.144 147.797 89.822 C 143.652 94.145, 143.148 95.259, 141.150 104.500 C 139.961 110, 138.991 115.334, 138.994 116.353 C 138.997 117.373, 141.925 121.714, 145.500 126 C 149.075 130.286, 152 134.012, 152 134.280 C 152 134.548, 151.164 134.985, 150.142 135.253 C 147.995 135.814, 128.510 170.955, 129.734 172.059 C 130.668 172.903, 155.043 181, 156.648 181 C 157.311 181, 160.006 171.851, 163.054 159.250 L 168.316 137.500 167.161 111.500 L 166.005 85.500 169.624 69.998 L 173.243 54.495 166.482 39.498 C 159.519 24.052, 159.004 23.025, 158.995 24.583 M 129.744 27.164 C 126.578 28.268, 124.239 29.578, 124.547 30.076 C 125.112 30.990, 129.072 29.643, 134.570 26.666 C 138.489 24.545, 136.742 24.725, 129.744 27.164 M 97.973 35.792 C 93.833 39.481, 87.758 44.871, 84.473 47.768 L 78.500 53.036 86 49.631 C 90.125 47.759, 100.194 43.028, 108.377 39.118 C 121.158 33.011, 123.077 31.798, 122.004 30.505 C 121.085 29.398, 118.739 29.011, 113.128 29.042 L 105.500 29.084 97.973 35.792 M 133.097 54.620 C 140.278 66.400, 144.561 72.984, 145.050 72.991 C 145.352 72.996, 146.173 70.224, 146.874 66.831 C 148.045 61.164, 148.001 60.574, 146.344 59.581 C 145.351 58.987, 141.424 56.740, 137.617 54.589 L 130.695 50.678 133.097 54.620 M 145.757 84.079 C 145.117 88.291, 145.257 88.479, 147.331 86.186 C 148.743 84.627, 148.786 84.090, 147.631 82.509 C 146.382 80.801, 146.237 80.922, 145.757 84.079 M 135.188 102.309 C 132.884 104.656, 131 106.944, 131 107.393 C 131 107.843, 132.126 109.549, 133.501 111.184 C 135.201 113.204, 136.151 113.731, 136.466 112.828 C 137.258 110.559, 139.858 98.525, 139.610 98.277 C 139.481 98.148, 137.491 99.962, 135.188 102.309 M 120.585 103.613 C 121.490 111.177, 121.717 111.566, 124.021 109.481 C 126.579 107.166, 126.550 106.967, 123 102.500 L 120.001 98.726 120.585 103.613 M 136.660 124.550 C 136.298 126.722, 135.723 129.512, 135.384 130.750 C 134.792 132.906, 135.023 133, 140.919 133 C 147.992 133, 147.999 132.805, 141.213 125.050 L 137.320 120.600 136.660 124.550 M 134 136.336 C 134 136.520, 132.448 143.594, 130.552 152.055 C 128.656 160.515, 127.230 167.563, 127.383 167.716 C 127.536 167.870, 130.286 163.159, 133.492 157.248 C 136.699 151.336, 140.643 144.137, 142.257 141.250 L 145.191 136 139.595 136 C 136.518 136, 134 136.151, 134 136.336" stroke="none" fill="black" fill-rule="evenodd"/>
</svg>