<svg xmlns="http://www.w3.org/2000/svg" width="200" height="200" viewBox="0 0 200 200" version="1.1">
	<path d="M 99.487 14.250 C 99.721 14.938, 103.783 29, 108.515 45.500 C 113.246 62, 117.345 76.283, 117.622 77.239 C 117.998 78.530, 116.243 77.873, 110.814 74.692 C 93.266 64.410, 93.758 64.650, 94.344 66.650 C 94.642 67.667, 95.184 70.750, 95.549 73.500 L 96.212 78.500 85.623 68.034 L 75.033 57.569 83.946 54.021 C 88.849 52.070, 93.146 50.188, 93.495 49.838 C 94.086 49.247, 87.394 47.890, 75.501 46.190 L 70.502 45.476 69.501 39.446 L 68.500 33.416 53.250 36.884 C 32.771 41.543, 32.794 42.354, 53.500 45.503 C 68.168 47.733, 68 47.675, 68 50.585 C 68 51.985, 68.412 53.901, 68.915 54.841 C 69.705 56.318, 68.121 57.222, 57.263 61.494 L 44.697 66.437 45.269 100.806 C 45.583 119.708, 45.989 135.298, 46.170 135.450 C 46.352 135.602, 59.416 133.806, 75.202 131.460 C 90.988 129.114, 108.313 126.911, 113.702 126.565 C 119.091 126.219, 125.341 125.709, 127.591 125.431 L 131.683 124.925 133.464 131.506 C 134.444 135.126, 135.062 138.271, 134.838 138.495 C 134.067 139.266, 79.475 141.907, 50.250 142.587 C 16.154 143.381, 13.776 144.190, 32.750 148.542 C 39.213 150.025, 47.833 152.007, 51.907 152.948 L 59.314 154.658 55.907 157.200 C 54.033 158.599, 43.725 165.899, 33 173.425 C 14.643 186.305, 10.778 189.805, 15.500 189.276 C 18.566 188.932, 89.124 170.209, 89.763 169.570 C 90.072 169.261, 88.860 164.024, 87.069 157.931 C 85.278 151.838, 84.042 146.625, 84.322 146.345 C 84.601 146.066, 90.606 146.180, 97.665 146.599 C 108.492 147.241, 109.913 147.504, 106.750 148.280 C 104.688 148.785, 103 149.771, 103 150.472 C 103 151.995, 106.065 152.509, 124.703 154.106 C 132.514 154.776, 139.317 155.588, 139.821 155.912 C 140.324 156.235, 143.242 165.275, 146.306 176 C 152.707 198.406, 153.474 200.682, 154.202 199.421 C 155.029 197.987, 165.233 155.899, 164.845 155.522 C 164.655 155.339, 159.588 154.696, 153.584 154.095 C 147.580 153.494, 142.574 152.889, 142.458 152.751 C 142.343 152.613, 141.937 151.488, 141.557 150.250 C 140.895 148.096, 141.112 148, 146.672 148 C 151.574 148, 155.484 146.801, 171.751 140.311 C 182.350 136.082, 190.680 132.325, 190.261 131.963 C 189.842 131.600, 182.750 129.590, 174.500 127.496 C 166.250 125.402, 158.488 123.320, 157.250 122.869 L 155 122.050 155 91.025 C 155 71.008, 154.645 60, 154 60 C 153.355 60, 153 70.833, 153 90.500 C 153 125.795, 154.500 122.398, 140.466 118.878 L 132.005 116.756 130.502 111.696 C 129.676 108.914, 129 106.546, 129 106.435 C 129 106.324, 129.900 105.998, 131 105.710 C 133.966 104.935, 133.551 102, 130.475 102 C 127.889 102, 126.565 99.991, 125.843 94.973 C 125.539 92.858, 126.016 92.483, 130 91.704 C 132.475 91.219, 134.842 90.499, 135.259 90.103 C 135.676 89.706, 132.849 87.609, 128.977 85.441 L 121.935 81.500 119.537 73.500 C 114.250 55.867, 113.091 51.576, 113.504 51.162 C 113.742 50.925, 122.264 52.003, 132.442 53.558 C 149.176 56.115, 154.694 56.283, 151.207 54.128 C 150.528 53.708, 143.116 52.343, 134.736 51.094 C 126.356 49.846, 119.398 48.724, 119.272 48.601 C 119.147 48.479, 132.151 46.052, 148.169 43.209 C 164.188 40.366, 177.498 37.836, 177.747 37.586 C 177.996 37.337, 177.904 36.653, 177.541 36.067 C 177.107 35.364, 169.474 35, 155.191 34.999 L 133.500 34.998 117 24 C 107.925 17.951, 100.177 13.002, 99.781 13.001 C 99.386 13.001, 99.254 13.563, 99.487 14.250 M 104 19.581 C 104 20.907, 111.316 45.510, 111.904 46.160 C 112.232 46.523, 123.075 44.878, 136 42.506 L 159.500 38.192 146.577 38.096 L 133.654 38 120.161 29.250 C 103.604 18.513, 104 18.750, 104 19.581 M 55.563 39.123 C 51.198 40.178, 47.465 41.202, 47.268 41.399 C 47.071 41.596, 50.643 42.285, 55.205 42.931 C 59.767 43.578, 64.287 44.338, 65.250 44.620 C 66.714 45.051, 67 44.470, 67 41.067 C 67 36.303, 67.138 36.326, 55.563 39.123 M 71 51.135 C 71 54.981, 72.446 55.476, 77.827 53.475 C 84.739 50.904, 84.706 50.436, 77.530 49.364 L 71 48.388 71 51.135 M 59 63.668 L 47.500 68.198 47.767 96.849 C 48.071 129.563, 48.293 132, 50.964 132 C 51.994 132, 64.687 130.224, 79.169 128.053 C 93.651 125.883, 111.026 123.793, 117.780 123.410 C 124.533 123.027, 130.241 122.419, 130.464 122.059 C 131.497 120.387, 128.705 118.723, 121.904 116.957 C 117.832 115.899, 113.532 115.027, 112.350 115.017 C 111.167 115.008, 106.285 116.800, 101.500 119 C 96.715 121.200, 92.371 123, 91.846 123 C 91.322 123, 85.499 118.428, 78.907 112.839 C 66.198 102.064, 65.040 99.765, 73.378 101.865 C 79.037 103.290, 79.048 103.289, 78.396 101.590 C 77.720 99.827, 77.397 99.922, 101 94.937 C 111.725 92.672, 120.642 90.681, 120.814 90.512 C 120.987 90.343, 120.829 88.606, 120.463 86.652 C 119.853 83.401, 118.904 82.579, 109.303 76.978 C 103.532 73.612, 98.618 71.049, 98.384 71.283 C 98.013 71.653, 98.547 74.951, 100.604 85 C 100.981 86.839, 97.330 83.733, 86.795 73.250 C 78.919 65.412, 72.031 59.031, 71.487 59.069 C 70.944 59.107, 65.325 61.176, 59 63.668 M 123.560 87.260 C 124.501 90.321, 124.696 90.443, 126.981 89.407 C 128.858 88.556, 128.793 88.393, 125.926 86.760 C 122.887 85.028, 122.875 85.031, 123.560 87.260 M 107 96.541 C 93.452 99.513, 92.796 99.761, 97 100.322 C 99.475 100.653, 106.734 101.104, 113.132 101.324 L 124.763 101.726 123.789 98.113 C 123.253 96.126, 122.518 94.243, 122.157 93.930 C 121.796 93.616, 114.975 94.791, 107 96.541 M 95.588 107.193 L 111.677 111.359 118.338 108.457 C 122.002 106.861, 125 105.205, 125 104.777 C 125 104.350, 122.372 104, 119.160 104 C 115.948 104, 105.710 103.781, 96.410 103.514 L 79.500 103.028 95.588 107.193 M 81.224 111.169 C 85.226 114.562, 89.274 117.994, 90.220 118.797 C 91.751 120.096, 92.770 119.892, 99.461 116.952 C 103.597 115.134, 106.855 113.521, 106.701 113.368 C 106.344 113.010, 75.759 105.012, 74.724 105.005 C 74.298 105.002, 77.223 107.776, 81.224 111.169 M 120.671 110.374 L 115.843 112.582 121.171 113.933 C 124.102 114.677, 127.023 115.479, 127.662 115.716 C 128.531 116.038, 128.563 115.117, 127.791 112.073 C 127.222 109.833, 126.474 108.037, 126.128 108.083 C 125.783 108.129, 123.327 109.160, 120.671 110.374 M 133 121 C 133 121.550, 134.688 121.955, 136.750 121.900 C 140.097 121.811, 140.231 121.715, 138 121 C 134.425 119.855, 133 119.855, 133 121 M 139.250 124.732 C 136.912 124.943, 135 125.546, 135 126.073 C 135 126.599, 135.755 129.746, 136.678 133.065 L 138.356 139.099 143.678 138.435 C 148.168 137.874, 149 138.020, 149 139.370 C 149 140.433, 147.487 141.352, 144.500 142.104 C 142.025 142.728, 140 143.577, 140 143.991 C 140 144.406, 142.363 144.997, 145.250 145.303 C 150.043 145.813, 151.929 145.283, 166.919 139.223 L 183.337 132.584 166.419 128.320 C 157.113 125.974, 148.150 124.121, 146.500 124.202 C 144.850 124.283, 141.588 124.522, 139.250 124.732 M 112 142.947 L 101.500 143.503 111.500 144.037 C 117.599 144.362, 123.451 144.112, 126.500 143.396 L 131.500 142.221 127 142.306 C 124.525 142.353, 117.775 142.642, 112 142.947 M 134.813 144.683 C 135.534 144.972, 136.397 144.936, 136.729 144.604 C 137.061 144.272, 136.471 144.036, 135.417 144.079 C 134.252 144.127, 134.015 144.364, 134.813 144.683 M 37.648 145.859 C 36.407 146.354, 40.206 147.543, 49.148 149.460 C 56.491 151.035, 63.290 152.598, 64.256 152.936 C 65.550 153.387, 60.231 157.600, 44.025 168.960 C 31.932 177.436, 22.150 184.484, 22.288 184.621 C 22.578 184.911, 86.180 168.153, 86.677 167.657 C 86.859 167.474, 85.529 162.415, 83.721 156.413 L 80.435 145.500 59.967 145.310 C 48.710 145.205, 38.666 145.452, 37.648 145.859 M 118 148.464 C 112.320 149.961, 114.125 150.603, 126.500 151.485 C 131.450 151.838, 136.287 152.354, 137.250 152.631 C 138.521 152.997, 139 152.560, 139 151.036 C 139 149.882, 138.438 148.764, 137.750 148.552 C 134.264 147.477, 121.953 147.422, 118 148.464 M 144 156.969 C 144 158.343, 152.794 189.127, 153.344 189.677 C 153.558 189.892, 155.541 182.848, 157.750 174.023 C 162.360 155.607, 163.168 157.632, 150.750 156.472 C 146.034 156.031, 144 156.181, 144 156.969" stroke="none" fill="black" fill-rule="evenodd"/>
</svg>