<svg xmlns="http://www.w3.org/2000/svg" width="200" height="200" viewBox="0 0 200 200" version="1.1">
	<path d="M 33.339 12.094 C 32.170 13.509, 19.670 65.003, 20.334 65.667 C 20.530 65.863, 23.928 66.356, 27.885 66.762 L 35.080 67.500 40.069 76.727 L 45.057 85.953 35.028 90.986 C 29.513 93.754, 25 96.293, 25 96.630 C 25 96.966, 29.725 103.668, 35.500 111.523 C 41.275 119.378, 46 126.249, 46 126.791 C 46 127.333, 38.826 140.314, 30.058 155.638 C 20.706 171.983, 14.485 183.871, 15.007 184.398 C 15.530 184.927, 22.810 180.334, 32.698 173.235 L 49.500 161.173 59.383 147.086 C 64.819 139.339, 69.559 133, 69.917 133 C 70.275 133, 77.681 139.349, 86.375 147.109 C 96.873 156.479, 102.516 160.884, 103.178 160.222 C 103.839 159.561, 99.423 152.111, 90.029 138.043 C 82.249 126.393, 75.664 116.289, 75.396 115.590 C 74.807 114.053, 96.963 95.517, 97.988 96.690 C 98.377 97.136, 100.139 107.801, 101.905 120.390 C 105.103 143.196, 105.139 143.342, 111.704 159.890 C 115.328 169.026, 118.585 176.835, 118.941 177.244 C 119.297 177.653, 126.768 175.722, 135.544 172.952 C 144.320 170.182, 158.199 166.598, 166.388 164.987 C 174.576 163.376, 181.448 161.885, 181.660 161.673 C 181.872 161.462, 181.536 146.711, 180.914 128.894 C 180.005 102.851, 180.051 91.840, 181.147 72.728 L 182.510 48.955 170.505 41.070 L 158.500 33.184 133.385 30.592 C 119.572 29.167, 107.488 28, 106.532 28 C 104.991 28, 104.835 28.959, 105.147 36.500 C 105.341 41.175, 105.232 45, 104.905 45 C 103.900 45, 101 41.413, 101 40.171 C 101 39.527, 100.050 39, 98.888 39 C 97.726 39, 88.419 33.104, 78.205 25.898 C 67.991 18.692, 59.151 12.612, 58.562 12.386 C 57.901 12.132, 56.054 18.968, 53.737 30.237 C 51.672 40.282, 49.987 48.761, 49.992 49.079 C 49.996 49.398, 59.337 48.172, 70.750 46.355 C 82.162 44.537, 91.882 43.166, 92.350 43.308 C 92.817 43.450, 88.581 46.477, 82.936 50.033 C 77.290 53.590, 72.245 56.783, 71.724 57.128 C 70.941 57.647, 75.927 90.169, 77.483 94.691 C 77.737 95.431, 83.699 92.525, 93.196 87.033 L 108.500 78.183 108.370 64.592 C 108.298 57.116, 108.448 51, 108.702 51 C 109.035 51, 135.556 69.687, 137.756 71.471 C 137.897 71.586, 139.770 84.014, 141.918 99.090 C 145.984 127.633, 149.122 140.195, 152.342 140.823 C 153.797 141.107, 154.008 139.880, 154.065 130.823 C 154.100 125.145, 154.513 110.825, 154.982 99 L 155.835 77.500 148.171 59.624 C 143.956 49.792, 139.990 41.550, 139.358 41.307 C 137.593 40.630, 130 42.938, 130 44.152 C 130 44.849, 131.493 45.005, 134.250 44.594 L 138.500 43.961 145.793 60.832 L 153.087 77.703 152.512 95.102 C 152.195 104.671, 151.668 116.775, 151.339 122 C 150.743 131.466, 150.736 131.486, 149.396 127.672 C 148.656 125.566, 146.443 112.066, 144.479 97.672 C 142.514 83.277, 140.815 71.182, 140.703 70.793 C 140.591 70.404, 133.300 64.976, 124.500 58.731 L 108.500 47.375 108.210 39.188 C 107.973 32.512, 108.191 31, 109.392 31 C 110.202 31, 121.583 32.144, 134.683 33.542 L 158.500 36.083 169.265 43.188 L 180.030 50.293 179.529 54.897 C 177.724 71.482, 176.945 106.335, 177.919 127 C 178.502 139.375, 178.984 151.813, 178.990 154.639 L 179 159.779 165.250 162.401 C 157.688 163.842, 144.625 167.222, 136.223 169.910 L 120.947 174.798 119.632 172.149 C 118.909 170.692, 115.997 163.650, 113.161 156.500 C 108.237 144.082, 107.836 142.337, 104.201 117.500 C 101.976 102.300, 99.956 91.500, 99.338 91.500 C 98.757 91.500, 92.151 96.567, 84.659 102.759 L 71.036 114.018 74.688 119.759 C 76.696 122.917, 81.781 130.675, 85.988 137 C 90.195 143.325, 94.035 149.175, 94.521 150 C 95.007 150.825, 89.732 146.438, 82.798 140.250 C 75.865 134.063, 69.812 129.021, 69.346 129.047 C 68.881 129.073, 63.801 135.850, 58.059 144.106 C 47.046 159.939, 47.977 159.041, 27.147 173.897 C 23.103 176.782, 20.009 178.772, 20.271 178.321 C 28.483 164.160, 49.036 127.852, 49.231 127.160 C 49.379 126.635, 44.860 119.861, 39.189 112.106 C 33.518 104.352, 29.088 97.668, 29.344 97.254 C 29.601 96.839, 33.904 94.495, 38.906 92.044 C 43.908 89.594, 48 87.166, 48 86.649 C 48 84.612, 36.910 65.180, 35.422 64.608 C 34.550 64.274, 31.368 64, 28.351 64 C 23.588 64, 22.936 63.770, 23.404 62.250 C 25.244 56.280, 34.998 13.248, 34.774 12.094 C 34.539 10.887, 34.336 10.887, 33.339 12.094 M 56.375 31.080 C 53.670 44.155, 53.486 45.997, 54.894 45.978 C 57.113 45.947, 92.119 40.216, 92.506 39.820 C 92.773 39.548, 63.953 18.773, 60.614 16.830 C 59.815 16.365, 58.515 20.735, 56.375 31.080 M 86 51.184 C 79.675 55.120, 74.337 58.464, 74.138 58.616 C 73.457 59.133, 79.451 91, 80.228 91 C 80.655 91, 86.628 87.761, 93.502 83.802 L 106 76.604 106 62.853 L 106 49.102 102.656 46.551 C 100.816 45.148, 98.904 44.006, 98.406 44.014 C 97.908 44.021, 92.325 47.248, 86 51.184" stroke="none" fill="black" fill-rule="evenodd"/>
</svg>