<svg xmlns="http://www.w3.org/2000/svg" width="200" height="200" viewBox="0 0 200 200" version="1.1">
	<path d="M 108.505 27.626 C 74.276 39.782, 70.163 41.025, 67.005 40.171 C 65.077 39.650, 53.079 35.603, 40.342 31.179 L 17.183 23.135 16.584 33.318 C 14.501 68.747, 13.945 96.380, 14.578 133 C 14.963 155.275, 15.553 174.226, 15.889 175.113 C 16.413 176.498, 19.195 175.759, 35.500 169.903 C 53.223 163.538, 99.637 150.303, 100.657 151.324 C 100.908 151.575, 91.647 158.467, 80.077 166.640 C 68.507 174.813, 59.031 181.838, 59.020 182.250 C 59.009 182.662, 76.228 183, 97.284 183 L 135.567 183 153.448 177.502 C 163.283 174.478, 171.499 171.834, 171.707 171.626 C 171.915 171.419, 167.453 167.959, 161.792 163.939 C 156.132 159.919, 149.596 155.193, 147.268 153.439 L 143.037 150.248 159.516 140.535 L 175.995 130.823 175.474 127.162 C 175.188 125.148, 174.087 116.188, 173.028 107.251 C 171.747 96.445, 169.597 85.224, 166.607 73.751 C 162.816 59.200, 161.224 54.879, 156.432 46.141 L 150.752 35.783 140.126 46.139 C 134.282 51.835, 123.837 62.041, 116.915 68.818 L 104.330 81.142 89.915 79.913 C 81.987 79.238, 74.985 78.193, 74.356 77.592 C 73.726 76.992, 72.476 73.912, 71.578 70.750 C 70.539 67.094, 69.408 65, 68.472 65 C 66.648 65, 66.612 64.560, 69.003 71.508 C 70.104 74.709, 70.824 77.509, 70.603 77.731 C 70.381 77.952, 62.873 77.436, 53.917 76.583 C 44.961 75.731, 37.417 75.250, 37.152 75.514 C 36.888 75.779, 37.477 79.521, 38.461 83.831 L 40.251 91.668 54.289 103.084 L 68.326 114.500 60.913 115.119 C 56.836 115.460, 48.888 115.797, 43.250 115.869 C 37.612 115.941, 33 116.223, 33 116.496 C 33 117.647, 45.353 143, 45.914 143 C 46.252 143, 52.366 137.150, 59.500 130 L 72.471 117 79.483 117 C 84.690 117, 88.942 117.815, 95.998 120.167 L 105.500 123.335 121.500 122.108 C 145.011 120.304, 144 120.595, 144.001 115.639 L 144.001 111.500 119.251 112.669 C 105.638 113.311, 90.232 113.874, 85.015 113.919 L 75.530 114 87.798 101.702 C 99.096 90.377, 100.602 89.218, 106.834 87.057 L 113.602 84.711 130.996 86.327 C 140.563 87.216, 148.562 87.772, 148.772 87.562 C 149.348 86.985, 138.971 73, 137.967 73 C 137.487 73, 131.652 75.025, 125 77.500 C 113.351 81.834, 109 82.852, 109 81.241 C 109 80.823, 118.158 71.332, 129.351 60.149 L 149.702 39.816 152.226 44.158 C 158.007 54.101, 160 59.360, 164.296 76 C 167.243 87.416, 169.374 98.541, 170.424 108 C 171.310 115.975, 172.260 124.075, 172.536 126 L 173.036 129.500 156.025 139.500 C 146.669 145, 139.011 149.807, 139.007 150.182 C 139.003 150.557, 145.132 155.282, 152.627 160.682 L 166.254 170.500 151.377 175.249 L 136.500 179.998 101.615 179.749 L 66.730 179.500 88.536 164 C 100.530 155.475, 110.529 147.938, 110.755 147.250 C 110.981 146.563, 110.387 146, 109.434 146 C 105.079 146, 52.660 160.820, 36.597 166.593 C 26.750 170.132, 18.580 172.908, 18.440 172.763 C 18.301 172.619, 17.858 155.551, 17.455 134.835 C 16.755 98.822, 18.328 29.488, 19.883 27.849 C 20.222 27.490, 30.625 30.710, 43 35.003 C 55.375 39.296, 64.825 43.073, 64 43.395 C 59.668 45.088, 39.822 52, 39.292 52 C 38.952 52, 41.261 50.148, 44.422 47.884 C 47.904 45.391, 49.808 43.408, 49.252 42.852 C 48.697 42.297, 43.900 44.948, 37.079 49.579 C 29.752 54.554, 26.163 57.563, 26.799 58.199 C 27.435 58.835, 35.182 56.554, 48.990 51.667 L 70.204 44.158 74.526 46.011 C 76.903 47.030, 82.667 50.649, 87.335 54.053 C 92.004 57.457, 96.201 60.209, 96.662 60.169 C 97.123 60.129, 100.719 54.562, 104.653 47.798 L 111.805 35.500 130.381 26 C 140.597 20.775, 148.966 15.938, 148.978 15.250 C 148.990 14.563, 148.438 14.030, 147.750 14.067 C 147.063 14.104, 129.402 20.206, 108.505 27.626 M 100 33.569 C 87.075 38.200, 76.050 42.163, 75.500 42.375 C 74.950 42.588, 75.625 43.223, 77 43.787 C 78.375 44.351, 83.100 47.528, 87.500 50.847 C 92.418 54.556, 95.860 56.525, 96.434 55.957 C 96.947 55.448, 100.154 50.188, 103.560 44.266 L 109.752 33.500 117.626 29.269 C 121.957 26.941, 125.050 25.063, 124.500 25.094 C 123.950 25.125, 112.925 28.939, 100 33.569 M 128 79.305 L 119.500 82.484 127 83.186 C 131.125 83.572, 136.645 84.118, 139.267 84.399 L 144.034 84.910 140.969 80.455 C 139.283 78.005, 137.588 76.028, 137.202 76.063 C 136.816 76.098, 132.675 77.557, 128 79.305 M 40.390 79.733 C 40.685 80.705, 41.365 83.502, 41.901 85.949 C 42.438 88.396, 43.767 91.096, 44.855 91.949 C 45.942 92.802, 52.224 97.888, 58.814 103.250 C 65.403 108.612, 71.186 113, 71.664 113 C 72.142 113, 77.685 107.833, 83.983 101.517 L 95.433 90.035 88.466 90.557 C 84.635 90.845, 80.060 91.255, 78.300 91.469 C 75.199 91.846, 75.052 91.692, 73.522 86.429 C 72.654 83.443, 71.489 81, 70.933 81 C 70.376 81, 65.551 80.556, 60.211 80.013 C 38.123 77.767, 39.801 77.791, 40.390 79.733 M 75.310 82.614 C 77.197 89.315, 76.637 88.883, 82.793 88.382 C 95.815 87.322, 98.915 86.807, 99.979 85.526 C 101.585 83.590, 100.636 83.319, 89.500 82.541 C 84 82.157, 78.438 81.592, 77.139 81.285 C 75.188 80.824, 74.871 81.054, 75.310 82.614 M 116.500 115.412 L 94.500 116.500 100 118.431 C 103.025 119.493, 106.400 120.317, 107.500 120.262 C 108.600 120.206, 116.588 119.611, 125.250 118.940 C 139.498 117.835, 141 117.541, 141 115.859 C 141 114.837, 140.438 114.073, 139.750 114.162 C 139.063 114.251, 128.600 114.814, 116.500 115.412 M 43.887 118.927 L 37.275 119.500 41.887 129.297 L 46.500 139.093 56.982 128.547 L 67.464 118 58.982 118.177 C 54.317 118.274, 47.524 118.611, 43.887 118.927" stroke="none" fill="black" fill-rule="evenodd"/>
</svg>