<svg xmlns="http://www.w3.org/2000/svg" width="200" height="200" viewBox="0 0 200 200" version="1.1">
	<path d="M 147.546 8.480 C 146.885 13.766, 146.731 13.994, 143.181 14.912 C 141.156 15.435, 129.600 18.416, 117.500 21.538 C 103.182 25.231, 84.375 29.077, 63.638 32.551 C 46.115 35.487, 31.520 38.147, 31.205 38.462 C 29.805 39.862, 33.408 40.853, 46 42.531 C 53.425 43.521, 60.495 44.594, 61.710 44.915 C 63.387 45.359, 60.298 47.055, 48.896 51.949 C 40.633 55.495, 33.677 58.713, 33.438 59.100 C 33.200 59.486, 39.302 62.848, 46.999 66.570 C 54.697 70.293, 60.883 73.439, 60.747 73.561 C 60.611 73.684, 50.605 75.665, 38.510 77.965 C 26.416 80.265, 16.392 82.275, 16.235 82.432 C 16.078 82.589, 24.299 86.445, 34.504 91.002 C 44.710 95.559, 53.249 99.594, 53.481 99.969 C 53.713 100.344, 44.881 110.226, 33.856 121.930 C 20.253 136.368, 14.136 143.536, 14.827 144.227 C 15.518 144.918, 22.701 141.526, 37.173 133.676 C 56.948 122.949, 58.526 122.267, 58.858 124.304 C 59.054 125.512, 58.434 139.904, 57.478 156.287 C 56.522 172.670, 55.935 186.268, 56.173 186.506 C 56.411 186.744, 67.808 183.366, 81.500 179 C 95.192 174.634, 106.543 171.210, 106.725 171.392 C 106.907 171.574, 106.611 172.894, 106.066 174.326 C 104.659 178.028, 106.353 178.582, 110.244 175.693 L 113.500 173.275 134.955 181.099 C 146.756 185.402, 156.586 188.747, 156.800 188.533 C 157.015 188.319, 159.012 175.374, 161.239 159.768 L 165.287 131.393 160.320 108.947 L 155.352 86.500 166.676 86.218 C 175.424 86.001, 178 85.627, 178 84.575 C 178 83.033, 177.649 82.866, 166.062 78.893 C 161.422 77.302, 155.726 76, 153.405 76 L 149.185 76 152.748 67.053 L 156.310 58.106 164.543 55.931 C 173.663 53.522, 175.531 52.668, 174.684 51.297 C 174.345 50.749, 171.142 50.688, 166.850 51.146 C 162.856 51.573, 159.489 51.822, 159.367 51.701 C 159.246 51.579, 161.420 45.954, 164.200 39.200 C 166.980 32.446, 169.068 26.735, 168.841 26.507 C 168.613 26.280, 163.960 27.402, 158.500 29 C 153.040 30.598, 148.419 31.753, 148.232 31.565 C 147.879 31.213, 149.657 11.980, 150.572 6.250 C 150.954 3.857, 150.714 3, 149.661 3 C 148.678 3, 148.016 4.714, 147.546 8.480 M 118.500 23.925 C 100.921 28.472, 84.646 31.913, 68.250 34.549 C 54.912 36.693, 44 38.721, 44 39.055 C 44 39.390, 50.525 40.482, 58.500 41.483 C 66.475 42.484, 73 43.589, 73 43.940 C 73 44.291, 65.900 47.622, 57.223 51.342 C 48.545 55.063, 40.880 58.456, 40.188 58.884 C 39.391 59.376, 44.472 62.311, 54.063 66.899 C 62.387 70.880, 68.985 74.348, 68.727 74.607 C 68.468 74.865, 58.861 76.867, 47.378 79.055 C 35.895 81.243, 26.092 83.162, 25.594 83.319 C 25.096 83.476, 29.596 85.791, 35.594 88.464 C 41.592 91.137, 49.361 94.604, 52.858 96.169 L 59.216 99.013 45.858 113.120 C 38.511 120.878, 30.250 129.742, 27.500 132.817 L 22.500 138.408 33 132.770 C 38.775 129.669, 47.550 124.923, 52.500 122.223 L 61.500 117.314 61.852 119.907 C 62.045 121.333, 61.424 135.904, 60.472 152.287 C 59.520 168.670, 58.952 182.285, 59.211 182.544 C 59.469 182.803, 70.215 179.642, 83.091 175.520 C 95.966 171.399, 106.985 168.020, 107.577 168.013 C 108.618 168, 117.033 148.679, 117.011 146.352 C 117.003 145.554, 111.232 144.982, 98.109 144.478 C 80.091 143.787, 75.572 143.095, 77.361 141.304 C 78.019 140.646, 96.516 139.603, 116.500 139.099 C 120.351 139.002, 120.582 138.803, 122.696 133.749 L 124.892 128.500 121.451 125.500 C 110.195 115.688, 102.939 108.963, 102.898 108.305 C 102.768 106.252, 105.147 107.471, 111.033 112.475 C 114.590 115.499, 117.771 117.979, 118.103 117.986 C 118.435 117.994, 122.526 114.426, 127.195 110.057 C 133.390 104.262, 136.161 100.867, 137.448 97.497 C 138.418 94.957, 138.981 92.647, 138.698 92.364 C 138.415 92.082, 127.905 93.903, 115.342 96.412 C 88.755 101.721, 87.500 101.897, 87.500 100.305 C 87.500 99.648, 92.808 95.486, 99.296 91.055 L 111.092 83 125.546 83 C 139.596 83, 140 82.941, 140 80.885 C 140 78.925, 139.614 78.813, 134.750 79.358 C 131.863 79.682, 121.228 80.248, 111.119 80.617 C 95.639 81.181, 92.811 81.067, 93.201 79.893 C 93.742 78.263, 129.170 62.518, 136.498 60.650 C 139.363 59.920, 141.618 58.743, 141.782 57.892 C 142.032 56.595, 139.774 56.635, 123.784 58.211 C 113.728 59.203, 104.744 59.898, 103.819 59.757 C 102.761 59.595, 107.256 55.366, 115.951 48.342 C 128.359 38.317, 130.499 36.975, 137.007 35.133 C 140.990 34.006, 144.413 32.921, 144.612 32.722 C 144.811 32.523, 145.344 28.904, 145.796 24.680 C 146.361 19.409, 146.287 17.031, 145.560 17.100 C 144.977 17.155, 132.800 20.226, 118.500 23.925 M 156.792 32.326 C 152.552 33.522, 148.660 34.950, 148.142 35.500 C 147.625 36.050, 146.884 40.212, 146.497 44.750 L 145.792 53 149.146 52.930 C 155.837 52.790, 155.750 52.904, 163.058 34.750 C 164.110 32.138, 164.865 30.034, 164.735 30.076 C 164.606 30.118, 161.031 31.130, 156.792 32.326 M 136.801 37.974 C 132.683 39.268, 128.189 42.079, 120.606 48.105 C 114.834 52.691, 110.199 56.513, 110.306 56.597 C 110.412 56.681, 117.786 56.046, 126.691 55.186 L 142.881 53.622 143.492 47.061 C 143.828 43.452, 144.313 39.487, 144.570 38.250 C 145.126 35.575, 144.502 35.553, 136.801 37.974 M 148.250 55.723 C 146.463 55.945, 145 56.584, 145 57.143 C 145 58.173, 149.557 57.525, 153.500 55.934 L 155.500 55.127 153.500 55.223 C 152.400 55.277, 150.037 55.502, 148.250 55.723 M 148.309 60.103 C 144.936 61.079, 145.059 60.741, 143.704 72.791 C 143.039 78.707, 146.076 76.015, 149.646 67.523 C 151.491 63.136, 153 59.423, 153 59.273 C 153 58.872, 151.881 59.070, 148.309 60.103 M 136.418 63.412 C 134.173 64.115, 125.652 67.572, 117.482 71.095 C 105.495 76.263, 103.203 77.558, 105.609 77.798 C 109.156 78.153, 139.882 76.475, 140.381 75.899 C 141.155 75.006, 141.998 62.005, 141.278 62.067 C 140.850 62.104, 138.663 62.709, 136.418 63.412 M 150.005 78.894 C 148.633 79.275, 147.363 80.355, 147.182 81.294 C 146.888 82.820, 147.997 82.994, 157.677 82.948 L 168.500 82.896 162 80.464 C 155.179 77.913, 154.057 77.766, 150.005 78.894 M 143 81 C 143 82.100, 143.173 83, 143.383 83 C 143.594 83, 144.002 82.100, 144.290 81 C 144.577 79.900, 144.405 79, 143.906 79 C 143.408 79, 143 79.900, 143 81 M 103.583 91.473 C 99.259 94.484, 95.542 97.125, 95.325 97.342 C 94.993 97.673, 110.452 94.692, 133.663 89.949 C 136.503 89.369, 139.077 88.243, 139.382 87.447 C 139.850 86.226, 137.712 86, 125.692 86 L 111.447 86 103.583 91.473 M 146.269 86.693 C 147.242 86.947, 148.592 86.930, 149.269 86.656 C 149.946 86.382, 149.150 86.175, 147.500 86.195 C 145.850 86.215, 145.296 86.439, 146.269 86.693 M 147.157 89.995 C 142.807 91.024, 142.049 91.881, 141.328 96.586 C 140.999 98.739, 140.064 101.267, 139.250 102.205 C 138.437 103.143, 135.627 109.165, 133.006 115.588 L 128.240 127.265 135.833 133.883 L 143.425 140.500 133.962 141.227 C 120.255 142.281, 120.165 142.561, 133.250 143.446 C 139.713 143.882, 144.968 144.523, 144.930 144.870 C 144.891 145.216, 138.371 151.125, 130.440 158 C 122.509 164.875, 116.024 170.725, 116.028 171 C 116.038 171.625, 154.084 185.249, 154.542 184.792 C 154.726 184.608, 156.576 172.465, 158.653 157.808 L 162.430 131.159 158.646 113.829 C 152.580 86.040, 153.737 88.440, 147.157 89.995 M 126.153 114.766 L 119.806 120.500 122.932 122.802 L 126.059 125.103 127.621 121.302 C 128.479 119.211, 130.016 115.588, 131.035 113.250 C 132.054 110.912, 132.800 109.007, 132.694 109.016 C 132.587 109.025, 129.644 111.613, 126.153 114.766 M 125.525 133.594 C 124.686 135.601, 124 137.639, 124 138.122 C 124 138.605, 126.700 139, 130 139 C 133.300 139, 136 138.645, 136 138.212 C 136 137.778, 133.986 135.740, 131.525 133.683 L 127.051 129.943 125.525 133.594 M 115.269 142.693 C 116.242 142.947, 117.592 142.930, 118.269 142.656 C 118.946 142.382, 118.150 142.175, 116.500 142.195 C 114.850 142.215, 114.296 142.439, 115.269 142.693 M 115.749 157.680 C 113.135 164.088, 111.220 169.553, 111.492 169.826 C 112.051 170.384, 111.514 170.817, 126.750 157.534 C 132.938 152.139, 138 147.337, 138 146.863 C 138 146.388, 134.063 146.007, 129.250 146.014 L 120.500 146.029 115.749 157.680" stroke="none" fill="black" fill-rule="evenodd"/>
</svg>