<svg xmlns="http://www.w3.org/2000/svg" width="200" height="200" viewBox="0 0 200 200" version="1.1">
	<path d="M 64.622 21.141 C 64.914 22.988, 66.836 36.278, 68.892 50.674 L 72.630 76.847 70.485 77.825 C 68.789 78.598, 66.676 78.020, 60.398 75.070 L 52.457 71.337 40.010 83.150 C 32.076 90.679, 27.914 95.305, 28.531 95.908 C 29.144 96.507, 36.573 94.070, 48.761 89.272 C 73.799 79.415, 73 79.194, 73 95.979 C 73 102.590, 72.764 108, 72.475 108 C 72.186 108, 65.869 106.142, 58.437 103.872 C 51.004 101.601, 44.730 99.937, 44.494 100.173 C 44.258 100.409, 41.773 111.154, 38.971 124.051 C 36.170 136.948, 33.636 148.400, 33.341 149.500 C 33.046 150.600, 41.736 142.616, 52.652 131.758 L 72.500 112.016 72.168 135.258 C 71.985 148.041, 71.535 158.767, 71.168 159.093 C 70.091 160.050, 27.847 174.181, 27.400 173.734 C 27.177 173.510, 24.520 162.659, 21.497 149.621 L 16 125.916 16 85.043 L 16 44.171 26.816 38.639 L 37.632 33.106 39.909 42.553 C 42.603 53.727, 44.294 54.747, 46.040 46.250 C 46.689 43.087, 48.048 36.689, 49.059 32.032 C 50.070 27.375, 50.798 23.465, 50.677 23.344 C 50.556 23.223, 42.142 27.501, 31.979 32.850 L 13.500 42.576 13.239 83.663 L 12.978 124.750 19.065 151.118 C 22.413 165.620, 25.232 177.565, 25.330 177.663 C 25.428 177.761, 36.306 174.139, 49.504 169.614 L 73.500 161.386 74.176 156.943 C 74.548 154.499, 74.885 143.357, 74.926 132.183 C 74.995 113.325, 75.126 111.902, 76.750 112.373 C 90.836 116.462, 99.017 119.424, 101.329 121.274 L 104.158 123.538 86.099 146.955 C 76.166 159.834, 68.143 170.452, 68.269 170.549 C 68.396 170.647, 79.750 169.457, 93.500 167.906 L 118.500 165.086 128.114 167.891 L 137.727 170.696 160.981 154.193 L 184.235 137.690 164.558 118.704 C 153.737 108.261, 145.246 99.366, 145.691 98.936 C 146.136 98.506, 152.575 95.808, 160 92.940 C 167.425 90.072, 173.662 87.588, 173.859 87.420 C 174.057 87.252, 169.801 77.348, 164.402 65.411 L 154.586 43.707 157.445 32.603 C 159.018 26.496, 160.520 20.825, 160.784 20 C 161.049 19.175, 152.318 27.335, 141.382 38.133 C 125.451 53.865, 120.571 58.110, 116.823 59.491 C 114.251 60.440, 111.754 61.055, 111.274 60.858 C 109.873 60.283, 89.696 37.970, 90.159 37.507 C 90.391 37.276, 96.789 37.741, 104.377 38.541 L 118.175 39.994 129.090 30.247 L 140.005 20.500 131.784 19.871 C 127.263 19.526, 110.182 18.914, 93.827 18.512 L 64.090 17.782 64.622 21.141 M 71.135 46.624 C 73.218 60.856, 75.052 73.236, 75.211 74.136 C 75.452 75.501, 78.117 74.736, 91.284 69.519 C 99.966 66.079, 107.328 63.005, 107.645 62.689 C 107.961 62.372, 102.580 55.900, 95.686 48.306 C 87.782 39.601, 83.682 34.380, 84.588 34.174 C 85.379 33.995, 93.023 34.574, 101.575 35.461 L 117.125 37.073 120.312 34.414 C 125.648 29.964, 133.150 22.816, 132.815 22.502 C 132.642 22.339, 117.841 21.878, 99.924 21.477 L 67.348 20.748 71.135 46.624 M 42.678 30.150 C 39.987 31.538, 39.135 32.474, 39.797 33.311 C 40.315 33.965, 41.325 36.975, 42.042 40 L 43.346 45.500 45.140 37.500 C 46.127 33.100, 46.837 29.202, 46.717 28.839 C 46.598 28.475, 44.780 29.065, 42.678 30.150 M 142.500 41 C 135.366 48.150, 130.085 54, 130.764 54 C 131.444 54, 132.900 53.100, 134 52 C 135.100 50.900, 136.338 50.002, 136.750 50.004 C 137.501 50.007, 143.044 69.321, 143.015 71.833 C 143.007 72.567, 142.477 72.992, 141.837 72.779 C 141.198 72.566, 139.657 68.662, 138.413 64.105 C 137.169 59.547, 135.976 55.642, 135.761 55.428 C 135.546 55.213, 132.810 56.042, 129.680 57.269 C 124.836 59.168, 121.657 61.835, 108.321 75.186 L 92.652 90.871 98.576 93.530 C 101.834 94.993, 113.950 98.862, 125.500 102.130 C 137.050 105.397, 147.400 108.328, 148.500 108.642 C 149.775 109.007, 148.561 107.225, 145.152 103.727 C 142.211 100.708, 140.191 98, 140.664 97.708 C 141.136 97.416, 147.593 94.831, 155.011 91.964 C 162.430 89.096, 168.912 86.372, 169.416 85.909 C 169.956 85.413, 166.486 76.591, 160.982 64.460 L 151.631 43.853 153.719 35.927 C 154.867 31.567, 155.730 28, 155.638 28 C 155.546 28, 149.634 33.850, 142.500 41 M 114 64.059 C 114 64.641, 114.450 64.840, 115 64.500 C 115.550 64.160, 116 63.684, 116 63.441 C 116 63.198, 115.550 63, 115 63 C 114.450 63, 114 63.477, 114 64.059 M 92.758 71.803 C 78.566 77.480, 76.015 78.819, 76.008 80.598 C 76.002 82.083, 77.171 83.224, 80.007 84.503 C 84.607 86.578, 82.167 87.810, 100.806 74 C 109.969 67.212, 112.408 64.901, 110.250 65.053 C 109.838 65.082, 101.966 68.119, 92.758 71.803 M 96.196 80.490 C 91.628 83.991, 87.835 87.226, 87.767 87.678 C 87.698 88.130, 88.453 88.656, 89.444 88.847 C 90.583 89.066, 93.434 87.043, 97.196 83.347 C 102.142 78.486, 105.967 73.806, 104.785 74.062 C 104.628 74.096, 100.763 76.988, 96.196 80.490 M 44 83.165 C 39.325 87.604, 36.400 90.941, 37.500 90.582 C 43.576 88.598, 63 80.556, 63 80.024 C 63 79.344, 54.404 74.970, 53.223 75.048 C 52.825 75.075, 48.675 78.727, 44 83.165 M 76 89.035 C 76 91.732, 76.217 91.954, 77.944 91.030 C 80.901 89.447, 81.259 88.209, 79.094 87.050 C 76.244 85.525, 76 85.682, 76 89.035 M 80.118 92.760 L 76.812 95.520 78.947 97.452 C 81.075 99.378, 81.095 99.372, 84.791 95.664 C 87.871 92.574, 88.246 91.781, 87 90.987 C 84.696 89.518, 83.692 89.776, 80.118 92.760 M 87.348 97.202 L 83.500 101.190 91.920 109.001 L 100.341 116.812 126.420 124.800 C 140.764 129.194, 152.623 132.675, 152.774 132.537 C 153.205 132.141, 151.325 112.991, 150.804 112.470 C 150.547 112.214, 139.837 109.049, 127.002 105.437 C 114.168 101.824, 100.861 97.597, 97.432 96.042 L 91.196 93.215 87.348 97.202 M 76 101.714 C 76 104.215, 76.127 104.301, 77.618 102.810 C 78.508 101.920, 78.932 100.699, 78.559 100.096 C 77.332 98.110, 76 98.953, 76 101.714 M 42.157 122.112 C 39.856 132.669, 38.113 141.447, 38.284 141.618 C 38.455 141.788, 45.689 134.824, 54.359 126.142 L 70.122 110.355 59.311 107.043 C 53.365 105.221, 48.014 103.547, 47.420 103.323 C 46.753 103.072, 44.744 110.242, 42.157 122.112 M 78.553 105.945 C 77.059 107.505, 76.210 109.007, 76.668 109.284 C 77.739 109.932, 94 114.916, 94 114.597 C 94 114.464, 91.136 111.825, 87.635 108.732 L 81.270 103.109 78.553 105.945 M 154.360 117.658 C 156.091 132.299, 156.214 137.019, 154.852 136.504 C 154.109 136.223, 142.874 132.696, 129.888 128.665 C 111.602 122.990, 106.361 121.694, 106.654 122.919 C 106.871 123.825, 100.048 133.464, 90.669 145.500 C 76.892 163.181, 74.638 166.540, 76.403 166.754 C 77.556 166.894, 87.500 165.940, 98.500 164.634 L 118.500 162.259 127.861 165.025 L 137.222 167.791 158.575 152.645 L 179.928 137.500 168.714 126.184 C 162.546 119.959, 156.665 114.405, 155.643 113.841 C 153.919 112.889, 153.828 113.161, 154.360 117.658" stroke="none" fill="black" fill-rule="evenodd"/>
</svg>