<svg xmlns="http://www.w3.org/2000/svg" width="200" height="200" viewBox="0 0 200 200" version="1.1">
	<path d="M 141.636 19.809 C 141.382 20.739, 140.640 23.862, 139.988 26.750 C 139.335 29.638, 138.347 32, 137.792 32 C 137.238 32, 128.075 30.425, 117.431 28.500 C 98.758 25.123, 97.217 25, 73.627 25 L 49.177 25 40.715 34.172 L 32.252 43.345 36.126 54.876 C 38.257 61.218, 40 67.001, 40 67.727 C 40 68.454, 35.467 75.826, 29.926 84.110 C 23.296 94.024, 20.066 99.729, 20.477 100.801 C 20.919 101.951, 24.306 97.600, 32.027 85.964 C 38.036 76.909, 42.963 68.801, 42.976 67.946 C 42.989 67.092, 41.425 61.716, 39.500 56 C 37.575 50.284, 36 45.022, 36 44.307 C 36 43.591, 39.207 39.630, 43.127 35.503 L 50.254 28 74.877 28.013 C 98.679 28.026, 100.130 28.143, 118.413 31.510 C 128.815 33.426, 137.511 35.178, 137.738 35.405 C 138.807 36.474, 133.996 54.375, 132.097 56.397 C 130.360 58.246, 130.241 58.832, 131.358 60.050 C 132.342 61.122, 132.459 62.577, 131.808 65.636 L 130.927 69.773 127.214 68.910 C 125.171 68.436, 123.048 68.037, 122.496 68.024 C 121.945 68.011, 119.045 71.828, 116.054 76.507 C 113.062 81.186, 110.284 84.674, 109.879 84.257 C 109.475 83.841, 106.872 77.200, 104.096 69.500 C 99.368 56.387, 98.710 55.183, 93.719 50.500 C 85.950 43.211, 74 32.729, 74 33.202 C 74 33.427, 75.368 39.886, 77.040 47.555 C 79.633 59.451, 80.808 62.785, 85.040 70.242 C 87.768 75.050, 90 79.381, 90 79.866 C 90 80.350, 77.616 86.289, 62.480 93.063 C 47.344 99.837, 35.138 105.857, 35.355 106.440 C 35.572 107.023, 36.249 107.390, 36.858 107.256 C 38.845 106.817, 92.475 82.827, 93.380 81.971 C 93.876 81.502, 91.643 76.413, 88.269 70.320 C 83.547 61.795, 81.900 57.637, 80.504 50.718 C 79.529 45.887, 78.912 41.754, 79.133 41.533 C 79.354 41.312, 83.462 44.814, 88.261 49.316 L 96.987 57.500 102.568 73.110 L 108.149 88.720 101.455 99.110 C 97.773 104.825, 94.623 109.654, 94.455 109.842 C 94.018 110.331, 76.419 110.160, 47.250 109.383 C 25.637 108.807, 22 108.917, 22 110.149 C 22 111.071, 25.063 112.585, 30.534 114.367 C 35.227 115.895, 43.806 118.835, 49.597 120.899 L 60.127 124.652 37.564 145.053 C 25.154 156.274, 15 165.699, 15 165.998 C 15 166.297, 24.112 168.507, 35.250 170.910 L 55.500 175.279 77.561 174.592 L 99.622 173.905 129.016 180.453 C 145.182 184.054, 158.917 187, 159.538 187 C 160.745 187, 173.576 131.243, 172.595 130.261 C 172.284 129.950, 160.435 130.588, 146.265 131.677 C 132.094 132.767, 120.386 133.584, 120.246 133.492 C 120.106 133.400, 120.775 129.598, 121.733 125.043 L 123.474 116.762 144.487 117.398 C 156.044 117.748, 168.650 118.132, 172.500 118.252 L 179.500 118.469 179.256 113.484 C 179.122 110.743, 178.549 100.400, 177.984 90.500 L 176.956 72.500 168.728 49.270 C 164.203 36.494, 160.050 25.851, 159.500 25.619 C 158.950 25.387, 154.809 23.604, 150.299 21.657 C 143.071 18.538, 142.043 18.318, 141.636 19.809 M 143.599 23.818 C 143.328 24.743, 142.813 27.159, 142.454 29.186 C 141.808 32.835, 141.841 32.879, 145.651 33.518 C 155.100 35.103, 155.100 34.543, 145.654 45.031 C 140.964 50.239, 136.828 55.625, 136.464 57 C 135.884 59.191, 136.950 60.582, 145.077 68.250 C 155.360 77.952, 155.321 78.039, 142.025 75.033 C 137.364 73.979, 133.380 73.287, 133.172 73.494 C 132.964 73.702, 131.491 79.837, 129.898 87.128 C 126.802 101.299, 126.892 101.953, 131.941 101.985 C 133.284 101.993, 139.472 102.516, 145.691 103.146 C 153.968 103.986, 157 104.656, 157 105.646 C 157 106.391, 156.662 107.001, 156.250 107.002 C 149.654 107.022, 125.427 110.301, 124.820 111.257 C 123.098 113.968, 120.806 113.731, 165.229 115.446 L 176.959 115.899 176.466 110.200 C 176.194 107.065, 175.539 97.203, 175.008 88.285 L 174.044 72.070 166.207 50.285 L 158.370 28.500 153.935 26.299 C 146.011 22.367, 144.154 21.922, 143.599 23.818 M 140.422 38.750 C 140.083 40.263, 139.412 43.050, 138.930 44.944 C 138.448 46.838, 138.196 48.529, 138.369 48.703 C 138.543 48.876, 140.993 46.363, 143.816 43.119 C 148.668 37.539, 148.826 37.187, 146.723 36.623 C 142.426 35.471, 141.053 35.935, 140.422 38.750 M 134.492 66.036 C 134.110 67.775, 134.181 69.556, 134.649 69.993 C 135.392 70.688, 145.381 73.154, 145.531 72.679 C 145.562 72.581, 143.248 70.334, 140.387 67.688 L 135.186 62.875 134.492 66.036 M 117.066 79.982 L 111.072 89.109 113.120 94.305 C 114.246 97.162, 115.318 99.650, 115.501 99.834 C 115.685 100.018, 117.640 100.410, 119.846 100.706 C 123.807 101.237, 123.869 101.196, 124.842 97.372 C 126.806 89.655, 130.195 72.863, 129.852 72.552 C 129.658 72.377, 128.051 71.923, 126.279 71.544 C 123.116 70.866, 122.953 71.015, 117.066 79.982 M 103.732 100.535 C 100.622 105.416, 98.172 109.475, 98.289 109.554 C 98.492 109.692, 122.240 107.312, 122.750 107.103 C 122.888 107.046, 123 106.377, 123 105.617 C 123 104.111, 120.038 103.035, 115.833 103.014 C 113.484 103.002, 112.942 102.326, 111.277 97.330 L 109.386 91.659 103.732 100.535 M 126 105.449 C 126 106.963, 126.774 107.079, 132.750 106.456 C 140.246 105.676, 142.149 105.006, 136.917 104.989 C 135.037 104.983, 131.813 104.699, 129.750 104.358 C 126.637 103.844, 126 104.029, 126 105.449 M 107.739 111.482 C 101.270 112.146, 95.817 112.872, 95.622 113.095 C 94.272 114.634, 74.926 145.244, 75.180 145.439 C 80.113 149.225, 107.303 168, 107.852 168 C 108.990 168, 115.939 142.455, 115.985 138.103 C 115.997 136.975, 114.560 136.828, 108.500 137.341 C 104.375 137.689, 101.021 137.868, 101.046 137.737 C 101.072 137.607, 102.339 132.325, 103.861 126 L 106.629 114.500 114.055 114 C 120.094 113.593, 121.543 113.173, 121.814 111.750 C 122.003 110.755, 121.576 110.059, 120.823 110.137 C 120.095 110.212, 114.207 110.817, 107.739 111.482 M 38.500 113.999 C 41.250 115.099, 48.337 117.611, 54.250 119.582 C 60.163 121.553, 65 123.309, 65 123.485 C 65 123.660, 55.663 132.241, 44.250 142.554 C 32.837 152.866, 22.690 162.058, 21.700 162.980 C 20.002 164.561, 20.883 164.871, 37.200 168.439 L 54.500 172.222 78.500 171.861 C 91.700 171.662, 104.075 171.880, 106 172.343 C 108.560 172.960, 104.347 169.524, 90.306 159.542 L 71.111 145.897 76.406 137.699 C 79.319 133.189, 84.026 125.944, 86.866 121.598 C 89.706 117.253, 91.911 113.598, 91.765 113.476 C 91.619 113.355, 78.450 112.973, 62.500 112.627 L 33.500 111.998 38.500 113.999 M 107.147 124.368 C 105.966 129.076, 105 133.361, 105 133.892 C 105 134.717, 115.803 134.308, 116.835 133.443 C 117.020 133.289, 117.960 129.526, 118.924 125.081 L 120.678 117 117.964 117 C 116.471 117, 113.910 116.732, 112.272 116.404 L 109.294 115.809 107.147 124.368 M 139 134.887 L 119.500 136.500 118.178 142.500 C 117.452 145.800, 115.341 153.900, 113.488 160.500 C 111.635 167.100, 110.429 172.783, 110.809 173.128 C 111.566 173.815, 158.161 184.229, 158.464 183.778 C 158.567 183.625, 160.572 174.725, 162.920 164 C 165.268 153.275, 167.781 141.912, 168.506 138.750 L 169.823 133 164.161 133.137 C 161.048 133.212, 149.725 134, 139 134.887" stroke="none" fill="black" fill-rule="evenodd"/>
</svg>