<svg xmlns="http://www.w3.org/2000/svg" width="200" height="200" viewBox="0 0 200 200" version="1.1">
	<path d="M 65.706 10.627 C 65.361 10.972, 67.761 14.537, 71.040 18.548 C 74.318 22.560, 77 26.256, 77 26.761 C 77 27.266, 75.987 28.141, 74.750 28.706 C 73.281 29.376, 68.358 37.153, 60.564 51.116 C 53.999 62.877, 48.149 73.315, 47.564 74.311 C 46.733 75.726, 46.898 76.417, 48.319 77.472 C 50.058 78.762, 50.047 78.850, 48.069 79.478 C 46.931 79.839, 46 80.667, 46 81.317 C 45.999 84.689, 49.112 136.253, 49.588 140.750 C 49.911 143.797, 50.638 146, 51.322 146.001 C 52.215 146.002, 52.306 140.529, 51.698 123.386 C 51.258 110.947, 51.062 100.605, 51.263 100.403 C 51.465 100.202, 57.814 98.618, 65.373 96.884 C 75.855 94.480, 79.650 93.975, 81.365 94.757 L 83.614 95.781 80.018 126.346 C 78.040 143.157, 76.215 157.114, 75.961 157.363 C 75.364 157.948, 40.747 167, 39.107 167 C 38.421 167, 34.066 159.174, 29.427 149.610 L 20.993 132.220 24.977 111.870 L 28.960 91.521 27.933 63.599 C 27.209 43.920, 27.219 35.483, 27.968 35.020 C 28.553 34.658, 35.886 33.772, 44.265 33.049 C 52.644 32.327, 60.400 31.390, 61.500 30.968 C 63.383 30.245, 63.393 30.157, 61.682 29.467 C 60.225 28.880, 25.130 31.658, 24.264 32.429 C 24.134 32.545, 24.491 46.108, 25.056 62.570 L 26.086 92.500 22.069 112.500 L 18.053 132.500 27.478 151.737 C 33.708 164.454, 37.342 170.821, 38.201 170.522 C 38.915 170.272, 48.275 167.760, 59 164.939 C 69.725 162.117, 78.596 159.718, 78.714 159.607 C 79.490 158.876, 86.062 97.857, 85.645 95.250 C 85.359 93.463, 85.547 92, 86.063 92 C 87.226 92, 87.177 95.997, 85.678 123 C 84.525 143.782, 84.963 176.513, 86.426 178.881 C 86.818 179.514, 87.489 179.816, 87.919 179.550 C 88.348 179.285, 94.494 162.227, 101.577 141.643 C 114.220 104.901, 114.484 104.267, 116.042 106.860 C 116.915 108.312, 119.951 113.810, 122.789 119.077 L 127.950 128.655 108.361 155.914 C 97.498 171.030, 89.157 183.548, 89.636 184.016 C 90.111 184.481, 98.978 180.589, 109.340 175.369 L 128.180 165.877 154.590 171.250 C 169.116 174.205, 181 176.311, 181 175.930 C 181 175.548, 176.050 166.905, 170 156.724 C 163.950 146.542, 159 137.797, 159 137.291 C 159 136.784, 163.242 124.474, 168.427 109.935 C 176.973 85.972, 177.700 83.381, 176.210 82.231 C 175.306 81.533, 167.580 77.033, 159.042 72.231 L 143.517 63.500 158.009 62.785 C 165.979 62.391, 174.209 61.941, 176.297 61.785 L 180.095 61.500 169.602 46.138 C 163.831 37.689, 158.911 30.578, 158.669 30.335 C 157.989 29.655, 124.673 26.994, 124.094 27.573 C 123.812 27.854, 128.174 46.593, 133.786 69.214 C 139.399 91.835, 143.836 110.497, 143.648 110.686 C 143.391 110.942, 130.414 91.963, 123.907 81.814 C 123.565 81.282, 116.667 82.400, 107.676 84.444 C 99.075 86.400, 91.586 88, 91.034 88 C 89.303 88, 91.132 75.796, 93.380 72.354 C 94.960 69.934, 96.766 68.837, 101.202 67.604 C 104.374 66.722, 107.591 66, 108.351 66 C 109.111 66, 111.343 68.067, 113.311 70.593 L 116.890 75.187 118.403 69.843 C 119.235 66.905, 120.196 63.313, 120.538 61.861 L 121.161 59.223 115.656 60.755 L 110.151 62.287 107.607 59.394 C 106.208 57.802, 105.049 56.158, 105.032 55.741 C 105.014 55.323, 107.385 51.273, 110.300 46.741 L 115.601 38.500 110.951 26.550 C 108.393 19.978, 105.865 14.455, 105.333 14.278 C 104.800 14.100, 98.953 16.618, 92.338 19.874 L 80.312 25.793 73.979 17.896 C 67.720 10.092, 66.933 9.400, 65.706 10.627 M 92.750 22.697 C 87.388 25.222, 83 27.704, 83 28.212 C 83 28.970, 97.012 46.809, 101.600 51.892 C 102.643 53.048, 103.632 52.086, 107.428 46.217 C 109.943 42.330, 112 38.661, 112 38.064 C 112 35.567, 104.643 18.004, 103.618 18.054 C 103.003 18.083, 98.112 20.173, 92.750 22.697 M 76.976 30.483 C 75.259 31.398, 70.654 38.645, 62.565 53.163 C 56.027 64.899, 50.540 74.772, 50.370 75.104 C 50.201 75.436, 51.061 76.162, 52.281 76.718 C 54.012 77.506, 58.239 76.695, 71.500 73.030 C 80.850 70.446, 89.668 68.041, 91.095 67.686 C 94.280 66.893, 101.595 56.479, 100.234 54.675 C 98.475 52.343, 81.631 31.472, 80.579 30.320 C 79.752 29.415, 78.911 29.453, 76.976 30.483 M 127.627 32.629 C 128.026 34.208, 129.735 41.114, 131.426 47.975 L 134.500 60.450 152.500 60.156 C 162.400 59.994, 171.502 59.622, 172.727 59.328 C 174.805 58.830, 174.346 57.905, 165.872 45.527 L 156.789 32.259 146.145 31.599 C 140.290 31.236, 133.565 30.673, 131.201 30.349 L 126.901 29.758 127.627 32.629 M 101.381 60.250 C 100.976 60.938, 100.002 62.506, 99.217 63.735 C 97.807 65.942, 97.830 65.956, 101.145 64.896 C 102.990 64.307, 105.124 63.629, 105.886 63.391 C 106.994 63.045, 106.913 62.562, 105.481 60.979 C 103.404 58.684, 102.408 58.507, 101.381 60.250 M 135 62.468 C 135 62.790, 138.170 75.711, 142.045 91.181 C 146.873 110.457, 148.767 119.633, 148.062 120.338 C 146.794 121.606, 148.434 123.736, 134.091 102.198 C 124.714 88.116, 121.511 84.015, 120.202 84.413 C 119.266 84.697, 112.215 86.318, 104.534 88.015 C 96.852 89.711, 90.469 91.198, 90.349 91.318 C 89.404 92.262, 87.264 149.790, 87.816 159.378 L 88.500 171.256 100.945 135.066 C 107.790 115.162, 113.646 98.719, 113.958 98.526 C 114.270 98.333, 118.259 105.083, 122.821 113.526 L 131.117 128.876 113.559 153.348 C 103.901 166.807, 96 178.088, 96 178.416 C 96 178.744, 103.170 175.421, 111.934 171.033 L 127.869 163.054 151.934 167.885 C 165.170 170.542, 176 172.604, 176 172.467 C 176 172.331, 171.893 165.307, 166.874 156.859 C 161.854 148.412, 157.307 140.542, 156.769 139.371 C 155.990 137.679, 157.662 131.966, 164.938 111.456 C 169.970 97.273, 173.887 85.148, 173.643 84.512 C 173.284 83.576, 163.700 77.959, 135.750 62.302 C 135.338 62.071, 135 62.145, 135 62.468 M 114.750 63.757 C 112.621 64.231, 112.476 66.321, 114.459 67.966 C 115.662 68.964, 116.034 68.714, 116.579 66.542 C 117.339 63.513, 117.149 63.224, 114.750 63.757 M 73.220 75.275 C 65.366 77.511, 59.291 79.672, 59.720 80.077 C 60.149 80.483, 64.827 83.114, 70.117 85.925 C 79.469 90.895, 79.840 91.001, 83.617 89.768 L 87.500 88.500 88 81.399 C 88.275 77.494, 89.118 73.556, 89.872 72.649 C 91.067 71.214, 91.002 71.014, 89.372 71.105 C 88.343 71.162, 81.074 73.039, 73.220 75.275 M 50.250 81.662 C 48.920 82.199, 48.536 90.667, 49.653 94.835 C 50.360 97.479, 50.306 97.482, 66.352 93.803 L 75.204 91.774 65.147 86.387 C 55.606 81.276, 53.143 80.495, 50.250 81.662" stroke="none" fill="black" fill-rule="evenodd"/>
</svg>