<svg xmlns="http://www.w3.org/2000/svg" width="200" height="200" viewBox="0 0 200 200" version="1.1">
	<path d="M 63.349 21.493 C 35.946 36.137, 23.682 43.212, 23.772 44.325 C 23.809 44.779, 28.584 50.233, 34.383 56.444 L 44.928 67.738 25.929 71.514 C 13.875 73.910, 7.068 75.694, 7.308 76.395 C 7.765 77.730, 8.880 77.603, 25.770 74.302 C 33.069 72.875, 39.225 71.892, 39.451 72.117 C 39.676 72.343, 38.871 80.171, 37.661 89.514 L 35.461 106.500 24.230 128.311 C 13.595 148.965, 11.895 153, 13.825 153 C 14.279 153, 21.564 147.160, 30.013 140.021 C 38.463 132.883, 45.431 127.145, 45.499 127.271 C 45.566 127.397, 45.077 137.175, 44.413 149 C 43.748 160.825, 43.496 170.797, 43.852 171.160 C 44.562 171.884, 70.856 182, 72.028 182 C 72.427 182, 72.940 165.578, 73.170 145.507 C 73.439 121.900, 73.957 108.643, 74.636 107.964 C 75.370 107.230, 79.537 108.309, 88.457 111.543 C 96.107 114.316, 101.592 115.808, 102.136 115.264 C 102.679 114.721, 97.235 108.170, 88.558 98.928 C 80.591 90.443, 74.056 83.253, 74.036 82.952 C 74.016 82.651, 80.485 79.051, 88.412 74.952 C 96.338 70.853, 102.301 67.223, 101.662 66.885 C 101.023 66.547, 93.525 65.031, 85 63.516 C 76.475 62.001, 69.367 60.645, 69.204 60.502 C 69.041 60.359, 74.728 55.244, 81.841 49.136 C 88.954 43.029, 95.010 37.416, 95.299 36.663 C 95.588 35.911, 97.972 31.966, 100.596 27.897 L 105.368 20.500 111.583 39.778 L 117.797 59.056 113.359 79.778 C 104.641 120.480, 94.545 180.878, 96.185 182.519 C 96.492 182.826, 107.713 176.480, 121.122 168.418 C 134.530 160.356, 145.954 153.582, 146.510 153.365 C 147.065 153.148, 151.790 159.713, 157.010 167.954 C 162.229 176.195, 166.777 182.839, 167.115 182.719 C 168.481 182.232, 192.085 154.761, 191.804 153.985 C 191.089 152.017, 159.423 109.045, 158.671 109.023 C 158.215 109.011, 155.233 111.269, 152.045 114.042 C 146.552 118.820, 145.944 119.831, 140.474 133.292 C 137.298 141.106, 134.389 147.856, 134.009 148.291 C 133.246 149.164, 116 135.282, 116 133.795 C 116 133.284, 120.441 123.288, 125.870 111.583 C 133.188 95.803, 137.715 84.201, 143.382 66.702 L 151.025 43.102 146.941 32.801 C 144.695 27.135, 142.327 21.992, 141.679 21.372 C 141.031 20.751, 128.282 17.777, 113.349 14.763 L 86.199 9.283 63.349 21.493 M 65.186 23.459 C 47.111 33.149, 28.697 43.410, 27.049 44.712 C 26.802 44.908, 31.864 50.347, 38.299 56.799 C 44.735 63.251, 50 68.861, 50 69.265 C 50 69.669, 48.987 70.007, 47.750 70.015 C 43.163 70.047, 42.739 71.162, 40.466 89.166 L 38.278 106.500 28.634 125.750 C 23.330 136.338, 19.222 145, 19.505 145 C 19.788 145, 26.388 139.598, 34.171 132.994 C 41.954 126.391, 48.407 121.104, 48.510 121.244 C 48.613 121.385, 48.106 132.277, 47.382 145.450 C 46.658 158.622, 46.164 169.471, 46.283 169.559 C 46.885 170.003, 68.685 178, 69.292 178 C 69.682 178, 70 167, 70 153.554 C 70 133.296, 71.410 104.293, 72.446 103.228 C 72.592 103.078, 77.791 104.776, 84 107 C 90.209 109.224, 95.418 110.915, 95.575 110.758 C 95.733 110.601, 89.806 104.096, 82.404 96.303 L 68.948 82.133 77.224 77.668 C 81.776 75.212, 87.721 72.094, 90.435 70.739 L 95.371 68.276 80.435 65.555 C 63.061 62.390, 62.357 62.206, 63.583 61.127 C 64.087 60.684, 70.589 55.116, 78.031 48.754 C 90.247 38.311, 92.177 36.198, 97.896 27.009 C 101.380 21.411, 103.842 16.480, 103.366 16.051 C 102.889 15.621, 99.800 14.753, 96.500 14.121 C 93.200 13.488, 89.600 12.760, 88.500 12.502 C 87.224 12.203, 78.780 16.171, 65.186 23.459 M 107.033 16.357 C 107.051 16.436, 110.113 26.126, 113.838 37.892 L 120.610 59.283 116.264 79.392 C 108.263 116.408, 97.984 176.318, 99.393 177.726 C 99.633 177.966, 110.717 171.576, 124.026 163.526 C 137.334 155.476, 148.321 149.027, 148.441 149.195 C 148.561 149.363, 152.846 156.132, 157.963 164.239 L 167.268 178.977 171.384 174.270 C 173.648 171.682, 178.531 166.116, 182.235 161.902 L 188.971 154.240 173.735 133.223 L 158.500 112.207 153.500 116.477 C 148.971 120.345, 147.962 122.055, 142.789 134.624 C 139.648 142.256, 136.624 149.766, 136.069 151.312 L 135.060 154.125 123.594 144.514 L 112.127 134.904 114.947 128.702 C 116.498 125.291, 121.207 115.095, 125.411 106.044 C 130.259 95.607, 135.811 81.161, 140.591 66.544 L 148.127 43.500 144.425 34 C 142.388 28.775, 140.422 24.160, 140.055 23.744 C 139.521 23.138, 106.916 15.845, 107.033 16.357" stroke="none" fill="black" fill-rule="evenodd"/>
</svg>