<svg xmlns="http://www.w3.org/2000/svg" width="200" height="200" viewBox="0 0 200 200" version="1.1">
	<path d="M 56.771 21.013 C 39.591 29.690, 34.937 32.461, 34.543 34.244 C 34.270 35.485, 33.551 39.425, 32.947 43 C 32.343 46.575, 30.035 53.550, 27.819 58.500 C 25.602 63.450, 23.164 68.942, 22.400 70.705 L 21.011 73.910 30.206 81.455 C 36.579 86.684, 39.720 88.680, 40.442 87.958 C 41.164 87.236, 41.161 86.699, 40.432 86.208 C 35.854 83.125, 25 73.537, 25 72.576 C 25 71.916, 27.197 66.554, 29.882 60.658 C 33.266 53.231, 35.151 47.461, 36.021 41.868 L 37.276 33.796 58.593 23.259 L 79.910 12.721 108.657 14.396 C 124.469 15.318, 137.546 16.213, 137.719 16.386 C 137.892 16.558, 138.303 26.105, 138.633 37.600 L 139.233 58.500 142.741 66.500 C 144.670 70.900, 146.530 74.803, 146.874 75.172 C 147.218 75.542, 155.099 73.443, 164.388 70.507 C 176.324 66.734, 180.722 65.687, 179.388 66.936 C 178.349 67.908, 170.637 74.413, 162.250 81.393 C 153.863 88.373, 147 94.281, 147 94.521 C 147 94.762, 151.107 104.305, 156.127 115.729 C 163.912 133.447, 165.897 139.132, 169.635 154.408 C 172.045 164.258, 173.834 172.499, 173.612 172.722 C 173.145 173.188, 146.862 165.043, 145.786 164.099 C 145.210 163.593, 140 106.411, 140 100.600 C 140 99.720, 139.334 99, 138.519 99 C 136.938 99, 136.927 99.033, 134.135 112.005 C 132.341 120.341, 131.985 120.976, 116.058 144.170 L 99.810 167.831 88.870 171.916 C 82.852 174.162, 77.699 176, 77.418 176 C 77.136 176, 83.751 166.960, 92.117 155.910 L 107.328 135.821 111.643 111.660 L 115.958 87.500 115.979 58.909 L 116 30.318 101.893 28.331 L 87.786 26.344 74.918 40.897 C 67.841 48.901, 62.376 55.728, 62.775 56.068 C 63.174 56.408, 69.350 58.149, 76.500 59.938 L 89.500 63.189 98.761 72.336 L 108.023 81.483 95.291 85.742 C 88.288 88.084, 82.275 90, 81.928 90 C 81.582 90, 78.884 86.625, 75.934 82.500 C 71.185 75.859, 68 73.212, 68 75.904 C 68 76.402, 71.579 86.623, 75.952 98.619 C 80.326 110.614, 83.806 120.528, 83.685 120.649 C 83.564 120.770, 78.577 115.031, 72.604 107.896 C 66.631 100.761, 61.603 95.064, 61.430 95.236 C 61.258 95.409, 62.435 107.867, 64.046 122.921 L 66.975 150.293 56.557 168.277 C 44.324 189.395, 45.816 190.844, 43.403 155.500 C 42.502 142.300, 41.610 131.330, 41.422 131.123 C 41.233 130.915, 36.006 133.698, 29.806 137.306 C 23.605 140.913, 18.387 143.720, 18.209 143.543 C 18.032 143.365, 21.345 134.733, 25.571 124.360 C 29.797 113.987, 33.470 104.938, 33.734 104.250 C 33.998 103.563, 33.549 103, 32.737 103 C 31.540 103, 21.191 126.636, 12.272 149.741 C 12.008 150.424, 17.874 147.441, 25.308 143.112 L 38.823 135.241 39.345 138.371 C 39.632 140.092, 40.665 153.313, 41.641 167.750 C 42.617 182.188, 43.721 194, 44.094 194 C 44.468 194, 50.330 184.438, 57.121 172.750 C 67.963 154.092, 69.438 151.012, 69.219 147.500 C 69.082 145.300, 68.054 134.786, 66.933 124.135 C 65.813 113.484, 65.087 104.580, 65.320 104.347 C 65.553 104.114, 70.615 109.742, 76.569 116.854 C 82.667 124.138, 87.938 129.577, 88.638 129.309 C 89.893 128.827, 88.542 124.603, 78.160 96.532 C 75.929 90.499, 74.238 85.429, 74.403 85.264 C 74.568 85.099, 75.956 86.772, 77.487 88.982 C 79.019 91.192, 80.773 93, 81.385 93 C 81.997 93, 89.428 90.690, 97.898 87.867 L 113.299 82.734 101.899 71.586 L 90.500 60.437 78.723 57.548 C 72.246 55.959, 67.071 54.340, 67.223 53.950 C 67.376 53.560, 72.290 47.859, 78.144 41.281 L 88.788 29.321 100.144 30.786 C 106.390 31.591, 111.813 32.531, 112.195 32.875 C 112.577 33.219, 112.963 45.650, 113.052 60.500 L 113.215 87.500 109.006 111 L 104.798 134.500 87.399 157.565 C 77.830 170.251, 70 180.883, 70 181.191 C 70 181.500, 77.067 179.172, 85.705 176.018 L 101.410 170.284 117.887 146.392 C 131.737 126.308, 134.639 121.464, 136.094 116 C 137.132 112.098, 137.887 110.499, 137.982 112 C 138.070 113.375, 139.122 126.152, 140.320 140.394 L 142.500 166.289 159.806 171.755 C 169.324 174.762, 177.274 177.059, 177.473 176.861 C 177.671 176.662, 175.657 167.500, 172.996 156.500 C 169.294 141.198, 166.819 133.446, 162.459 123.500 C 159.325 116.350, 155.254 107.006, 153.412 102.736 L 150.064 94.972 169.438 78.823 C 189.018 62.502, 192.067 58.798, 183.676 61.532 C 170.960 65.675, 150.192 72, 149.303 72 C 148.737 72, 146.976 69.188, 145.390 65.750 C 142.606 59.716, 142.471 58.706, 141.503 36.500 L 140.500 13.500 122 12.398 C 111.825 11.792, 97.875 11.013, 91 10.667 L 78.500 10.038 56.771 21.013" stroke="none" fill="black" fill-rule="evenodd"/>
</svg>