<svg xmlns="http://www.w3.org/2000/svg" width="200" height="200" viewBox="0 0 200 200" version="1.1">
	<path d="M 32 16.171 C 32 17.367, 35.298 17.856, 49.630 18.784 C 59.326 19.412, 67.473 20.140, 67.734 20.400 C 67.994 20.661, 66.361 26.416, 64.104 33.189 C 61.847 39.961, 60.004 45.952, 60.008 46.501 C 60.026 48.538, 72.843 54.064, 83.500 56.630 C 89.550 58.086, 94.845 59.583, 95.267 59.956 C 95.689 60.329, 91.076 64.577, 85.017 69.397 L 74 78.160 74.013 84.830 C 74.021 88.498, 74.685 105.999, 75.489 123.720 L 76.952 155.941 70.365 170.220 C 66.742 178.074, 63.467 184.839, 63.086 185.253 C 62.706 185.667, 59.565 180.588, 56.106 173.966 L 49.817 161.927 50.909 138.205 C 51.509 125.158, 52 106.455, 52 96.643 L 52 78.804 45.750 79.509 C 42.313 79.897, 38.825 80.752, 38 81.408 C 36.239 82.809, 22.542 94.474, 19.185 97.431 L 16.871 99.470 17.821 96.985 C 18.344 95.618, 21.367 88.200, 24.539 80.500 C 28.020 72.049, 32.019 59.762, 34.628 49.500 C 39.427 30.625, 39.527 30, 37.748 30 C 36.954 30, 35.065 36.023, 32.588 46.449 C 29.625 58.919, 26.679 67.808, 20.408 83.199 C 12.468 102.687, 11.371 107.529, 15.726 103.858 C 16.702 103.036, 22.337 98.200, 28.249 93.112 C 38.135 84.604, 42.586 82, 47.243 82 C 48.858 82, 49 83.554, 48.994 101.250 C 48.991 111.838, 48.536 129.954, 47.982 141.508 L 46.976 162.516 54.715 177.231 C 58.971 185.325, 62.776 191.621, 63.171 191.223 C 63.565 190.825, 67.447 182.850, 71.797 173.500 L 79.705 156.500 78.397 127.500 C 77.678 111.550, 77.070 94.162, 77.045 88.859 L 77 79.218 86.500 71.577 C 91.725 67.375, 96 64.303, 96 64.752 C 96 65.201, 93.531 72.946, 90.512 81.963 C 87.494 90.980, 85.209 98.543, 85.435 98.768 C 85.661 98.994, 91.365 95.010, 98.111 89.916 C 107.336 82.950, 112.872 79.600, 120.439 76.406 L 130.500 72.159 130.752 79.330 C 130.891 83.273, 130.666 100.597, 130.252 117.828 L 129.500 149.155 119.029 153.632 C 113.270 156.094, 108.368 158.299, 108.136 158.531 C 107.512 159.155, 131.048 188, 132.183 188 C 132.716 188, 139.261 182.966, 146.728 176.812 L 160.303 165.625 159.740 126.207 L 159.177 86.789 167.085 76.145 L 174.994 65.500 174.997 54.838 L 175 44.177 157.845 52.100 C 148.410 56.458, 140.546 59.880, 140.370 59.703 C 140.194 59.527, 139.828 56.259, 139.558 52.441 C 137.974 30.103, 136.573 15.854, 135.919 15.450 C 135.509 15.196, 129.461 17.102, 122.479 19.684 C 113.399 23.042, 109.529 24.966, 108.888 26.440 C 108.395 27.573, 106.629 34.573, 104.964 41.996 C 103.299 49.418, 101.389 56.037, 100.719 56.704 C 98.313 59.098, 63 48.234, 63 45.100 C 63 44.627, 65.025 38.531, 67.500 31.555 C 69.975 24.578, 72 18.517, 72 18.087 C 72 17.657, 67.162 17.022, 61.250 16.675 C 55.337 16.328, 46.337 15.742, 41.250 15.373 C 33.471 14.807, 32 14.934, 32 16.171 M 121.539 22.953 C 116.061 25.049, 111.373 27.379, 111.121 28.132 C 110.869 28.884, 109.022 36.700, 107.017 45.500 C 104.250 57.640, 103.019 61.442, 101.913 61.258 C 100.860 61.084, 99.025 65.325, 95.312 76.515 C 92.484 85.039, 90.694 91.704, 91.335 91.325 C 91.976 90.946, 96.095 87.917, 100.488 84.592 C 105.950 80.459, 112.397 76.870, 120.874 73.243 C 127.693 70.326, 133.434 68.101, 133.632 68.299 C 133.830 68.497, 133.696 87.145, 133.335 109.739 L 132.678 150.819 122.589 155.077 C 117.040 157.419, 112.361 159.436, 112.191 159.559 C 112.022 159.683, 116.470 165.462, 122.078 172.401 C 128.794 180.715, 132.652 184.726, 133.386 184.161 C 133.999 183.689, 139.624 179.089, 145.887 173.938 L 157.274 164.573 156.790 125.237 L 156.307 85.901 164.186 75.437 L 172.065 64.972 172.681 56.986 C 173.096 51.605, 172.948 49, 172.228 49 C 171.641 49, 163.858 52.375, 154.934 56.500 C 146.010 60.625, 138.324 64, 137.854 64 C 137.384 64, 136.993 61.188, 136.984 57.750 C 136.967 51.004, 135.402 30.157, 134.393 23.250 C 134.052 20.913, 133.262 19.032, 132.636 19.071 C 132.011 19.110, 127.018 20.857, 121.539 22.953" stroke="none" fill="black" fill-rule="evenodd"/>
</svg>