<svg xmlns="http://www.w3.org/2000/svg" width="200" height="200" viewBox="0 0 200 200" version="1.1">
	<path d="M 85 27.567 C 85 41.921, 84.864 43.095, 83.250 42.624 C 76.530 40.665, 41.871 33.836, 40.777 34.255 C 39.336 34.808, 12.807 69.140, 13.378 69.712 C 13.563 69.896, 20.866 67.541, 29.607 64.478 C 38.613 61.322, 46.367 59.148, 47.500 59.462 C 48.600 59.766, 52.413 62.658, 55.973 65.890 L 62.447 71.766 44.973 88.620 C 35.363 97.890, 24.350 108.495, 20.500 112.187 C 15.754 116.739, 13.828 119.228, 14.518 119.918 C 15.208 120.608, 22.451 118.902, 37.018 114.621 L 58.500 108.306 76.282 86.403 C 86.062 74.356, 94.444 64.368, 94.909 64.207 C 95.375 64.047, 97.633 66.048, 99.928 68.656 C 106.937 76.618, 135.586 116.375, 136.777 119.791 L 137.896 123 132.698 123.023 C 129.839 123.035, 109.500 123.699, 87.500 124.497 C 65.500 125.295, 45.362 125.960, 42.750 125.974 C 39.206 125.993, 38 126.381, 38 127.500 C 38 128.325, 38.337 128.997, 38.750 128.993 C 40.667 128.976, 88.536 134.220, 88.800 134.476 C 89.073 134.740, 80.966 178.180, 80.541 178.736 C 80.442 178.867, 66.892 178.081, 50.430 176.991 C 33.969 175.901, 20.163 175.007, 19.750 175.004 C 19.337 175.002, 19 175.675, 19 176.500 C 19 177.325, 19.457 178, 20.016 178 C 20.575 178, 30.137 179.089, 41.266 180.419 C 59.521 182.602, 66.815 182.895, 115.855 183.410 L 170.211 183.980 169.494 174.740 C 169.099 169.658, 168.688 165.399, 168.580 165.275 C 168.473 165.152, 156.935 167.286, 142.942 170.019 C 128.949 172.751, 116.791 174.989, 115.924 174.993 C 114.528 174.999, 114.684 172.386, 117.281 152.250 C 118.894 139.738, 120.284 129.420, 120.368 129.322 C 120.453 129.224, 132.555 128.820, 147.261 128.422 C 161.968 128.025, 174.007 127.430, 174.017 127.100 C 174.026 126.770, 169.260 122, 163.426 116.500 L 152.819 106.500 169.920 99.138 C 179.325 95.089, 187.213 91.464, 187.449 91.082 C 188.108 90.017, 165.167 65.458, 163.837 65.805 C 163.195 65.973, 164.237 64.173, 166.153 61.805 C 168.070 59.437, 173.394 52.610, 177.984 46.634 C 185.837 36.412, 186.159 35.804, 183.416 36.370 C 176.130 37.875, 132.812 44.104, 131.618 43.819 C 130.882 43.644, 124.772 37.043, 118.039 29.151 C 110.093 19.836, 105.456 15.144, 104.824 15.776 C 104.191 16.409, 105.969 23.355, 109.892 35.575 C 113.215 45.928, 115.816 54.518, 115.670 54.663 C 115.525 54.808, 108.713 45.269, 100.533 33.464 C 92.352 21.659, 85.511 12, 85.330 12 C 85.148 12, 85 19.005, 85 27.567 M 87.500 33 C 88.100 43.784, 87.986 46, 86.832 46 C 86.067 46, 76.242 43.975, 65 41.500 C 53.758 39.025, 43.773 37, 42.811 37 C 41.366 37, 32.687 47.526, 21.194 63.216 C 20.194 64.580, 23.140 63.855, 33.729 60.130 L 47.570 55.261 56.716 62.881 C 61.746 67.071, 65.893 70.833, 65.931 71.240 C 65.991 71.884, 53.741 83.992, 27.002 109.717 L 19.500 116.934 31.500 113.356 C 38.100 111.388, 46.650 108.798, 50.500 107.601 L 57.500 105.424 75.617 83.006 C 85.582 70.677, 94.179 60.440, 94.722 60.259 C 96.266 59.745, 107.362 73.066, 120.500 91.207 C 127.100 100.321, 132.592 107.698, 132.705 107.601 C 132.817 107.504, 129.846 97.926, 126.103 86.318 L 119.296 65.212 103.585 42.606 C 94.943 30.173, 87.627 20, 87.325 20 C 87.024 20, 87.102 25.850, 87.500 33 M 109.001 23.083 C 109.002 23.313, 111.890 32.613, 115.420 43.751 L 121.836 64.001 135.668 83.990 C 143.276 94.983, 150.083 103.983, 150.795 103.989 C 152.841 104.006, 182.994 90.594, 182.997 89.665 C 182.999 89.206, 178.390 83.882, 172.756 77.835 L 162.512 66.839 159.506 70.408 L 156.500 73.978 147.928 66.239 C 143.213 61.983, 138.414 57.677, 137.262 56.671 C 135.446 55.084, 135.822 56.939, 140.107 70.671 C 146.296 90.505, 146.731 92.410, 144.929 91.810 C 144.172 91.557, 141.904 85.985, 139.888 79.426 C 129.129 44.419, 131.044 48.628, 119.866 35.416 C 108.301 21.747, 109 22.540, 109.001 23.083 M 154.581 43.564 C 142.525 45.424, 132.314 47.071, 131.889 47.223 C 130.952 47.559, 155.434 69.589, 156.409 69.287 C 157.190 69.046, 179 41.244, 179 40.490 C 179 39.799, 178.903 39.811, 154.581 43.564 M 126.177 77.349 C 127.700 83.703, 136.663 110, 137.306 110 C 137.759 110, 140.346 109.047, 143.055 107.881 L 147.980 105.762 145.167 102.131 C 143.620 100.134, 138.872 93.438, 134.616 87.250 C 127.170 76.426, 125.480 74.443, 126.177 77.349 M 144.296 110.328 C 141.434 111.564, 138.800 112.866, 138.444 113.223 C 138.088 113.579, 138.550 116.139, 139.471 118.913 C 140.392 121.686, 140.817 124.487, 140.415 125.138 C 139.864 126.030, 141.602 126.158, 147.493 125.660 C 151.788 125.297, 158.271 124.986, 161.901 124.970 L 168.500 124.939 159.500 116.510 C 154.550 111.873, 150.275 108.080, 150 108.080 C 149.725 108.080, 147.158 109.092, 144.296 110.328 M 94.500 127.045 C 85.700 127.421, 74.450 127.845, 69.500 127.987 L 60.500 128.244 75.670 129.875 C 84.014 130.773, 91.158 131.825, 91.547 132.214 C 92.123 132.790, 85.110 172.457, 83.434 178.105 C 83.004 179.551, 86.802 179.779, 121.729 180.402 C 143.053 180.783, 161.963 181.348, 163.750 181.658 C 166.968 182.217, 167 182.183, 167 178.236 C 167 176.044, 166.736 172.930, 166.413 171.316 L 165.826 168.382 138.734 173.679 C 123.833 176.592, 111.533 178.867, 111.400 178.734 C 111.137 178.470, 116.561 134.508, 117.506 129.250 C 118.085 126.029, 118.056 126.002, 114.295 126.181 C 112.208 126.280, 103.300 126.669, 94.500 127.045" stroke="none" fill="black" fill-rule="evenodd"/>
</svg>