<svg xmlns="http://www.w3.org/2000/svg" width="200" height="200" viewBox="0 0 200 200" version="1.1">
	<path d="M 76.698 28.468 C 72.407 35.304, 68.132 41.127, 67.198 41.407 C 61.622 43.078, 24.752 51.085, 24.374 50.707 C 24.122 50.456, 31.373 43.816, 40.486 35.952 C 51.212 26.696, 56.712 21.312, 56.083 20.683 C 55.454 20.054, 49.056 24.963, 37.940 34.605 C 28.496 42.797, 19.584 50.478, 18.135 51.673 C 13.214 55.732, 18.211 55.420, 41.121 50.240 C 58.747 46.255, 62.823 45.600, 61.348 46.992 C 60.331 47.951, 53.875 53.803, 47 59.998 C 40.125 66.192, 33.400 72.311, 32.057 73.596 C 29.665 75.882, 29.578 76.536, 27.962 104.216 C 27.053 119.772, 26.473 132.807, 26.672 133.181 C 26.870 133.556, 31.797 136.418, 37.620 139.541 C 46.214 144.151, 47.953 145.450, 46.854 146.441 C 46.109 147.113, 38.830 153.646, 30.678 160.960 C 21.374 169.307, 16.209 174.609, 16.802 175.202 C 17.395 175.795, 27.883 172.001, 44.976 165.010 C 59.953 158.884, 72.319 154.014, 72.457 154.186 C 72.595 154.359, 73.523 161.475, 74.520 170 C 75.517 178.525, 76.617 186.585, 76.964 187.912 C 77.487 189.906, 80.308 185.396, 93.276 161.828 C 107.630 135.741, 108.880 133.070, 108.066 130.229 L 107.176 127.127 121.338 132.166 C 129.127 134.938, 138.109 138.108, 141.297 139.211 C 144.486 140.313, 146.961 141.520, 146.797 141.892 C 146.634 142.265, 140.292 148.361, 132.705 155.440 C 125.118 162.518, 119.268 168.612, 119.705 168.981 C 120.627 169.759, 174.131 176.203, 174.726 175.607 C 175.140 175.194, 167.236 118.903, 166.688 118.354 C 166.517 118.183, 163.705 118.481, 160.438 119.016 C 148.121 121.033, 147.878 121.562, 168.368 101.747 L 187.236 83.500 172.972 66.250 L 158.707 49 153.153 49 C 149.849 49, 147.985 48.638, 148.550 48.106 C 149.073 47.615, 155.939 43.741, 163.808 39.498 C 171.677 35.254, 177.977 31.652, 177.808 31.492 C 177.098 30.823, 109.875 23.834, 108.654 24.302 C 107.919 24.585, 105.818 28.447, 103.986 32.886 C 101.270 39.464, 100.398 40.745, 99.272 39.811 C 97.586 38.412, 99.080 36.947, 76.124 62.500 L 58.156 82.500 69.995 83.356 L 81.834 84.212 78.333 92.356 C 76.408 96.835, 72.958 104.953, 70.666 110.395 C 65.478 122.718, 64.740 120.066, 69.465 106.076 C 71.401 100.343, 72.876 95.577, 72.742 95.487 C 72.609 95.396, 65.305 94.317, 56.512 93.089 C 47.718 91.861, 40.457 90.776, 40.377 90.678 C 40.296 90.580, 48.452 77.675, 58.501 62 C 70.094 43.916, 77.299 33.593, 78.214 33.754 C 79.152 33.920, 80.936 31.163, 83.312 25.882 C 86.637 18.487, 87.117 15.967, 85.191 16.019 C 84.811 16.029, 80.989 21.631, 76.698 28.468 M 106.566 33.750 C 105.033 37.462, 103.580 40.997, 103.338 41.605 C 103.095 42.213, 112.859 50.687, 125.034 60.437 C 137.208 70.187, 147.019 78.300, 146.835 78.467 C 146.651 78.633, 141.775 79.547, 136 80.498 C 130.225 81.449, 124.942 82.528, 124.261 82.897 C 123.580 83.266, 130.468 85.789, 139.568 88.505 C 154.129 92.851, 155.897 93.603, 154.307 94.771 C 153.313 95.501, 142.037 101.974, 129.250 109.156 C 116.463 116.338, 106 122.569, 106 123.003 C 106 123.437, 111.063 125.599, 117.250 127.807 C 123.438 130.016, 133.807 133.716, 140.294 136.031 C 146.780 138.345, 151.955 140.542, 151.794 140.912 C 151.632 141.283, 145.528 147.144, 138.229 153.939 C 130.930 160.733, 125.216 166.549, 125.531 166.864 C 126.094 167.427, 171.271 173.062, 171.710 172.624 C 171.925 172.409, 164.913 121.624, 164.635 121.384 C 164.561 121.320, 160.450 121.853, 155.500 122.568 C 139.788 124.838, 139.313 126.144, 162.305 103.876 C 173.734 92.808, 182.953 83.385, 182.792 82.936 C 182.631 82.486, 176.965 75.382, 170.200 67.149 L 157.901 52.179 148.271 51.457 C 136.989 50.611, 136.498 51.338, 155.337 41.015 C 162.803 36.925, 168.786 33.453, 168.633 33.300 C 168.227 32.894, 115.336 27, 112.098 27 C 109.654 27, 109.051 27.735, 106.566 33.750 M 80.655 61.462 C 71.495 71.617, 64 80.183, 64 80.499 C 64 80.814, 68.385 80.944, 73.745 80.786 L 83.490 80.500 91.160 63 C 98.869 45.410, 99.712 43, 98.155 43 C 97.689 43, 89.814 51.308, 80.655 61.462 M 93.807 63.473 L 86.197 81 90.620 81 C 96.037 81, 95.661 80.243, 101.053 101.988 C 103.302 111.056, 105.307 118.640, 105.509 118.842 C 105.869 119.202, 146.785 96.479, 148.245 95.109 C 148.968 94.430, 141.905 91.950, 123.693 86.486 C 118.289 84.865, 115.033 83.391, 115.269 82.672 C 115.479 82.027, 118.768 80.919, 122.576 80.209 C 126.384 79.499, 132.075 78.374, 135.223 77.709 L 140.946 76.500 122.422 61.699 C 112.233 53.558, 103.339 46.684, 102.657 46.422 C 101.848 46.111, 98.772 52.036, 93.807 63.473 M 47.014 63.618 C 32.894 76.426, 32 77.454, 32 80.886 C 32 84.474, 30.583 109.140, 29.514 124.158 L 28.968 131.817 40.484 137.949 C 46.818 141.322, 51.995 144.400, 51.988 144.791 C 51.982 145.181, 45.913 150.868, 38.501 157.430 C 31.090 163.991, 25.171 169.504, 25.347 169.680 C 25.523 169.856, 36.617 165.500, 50 160 C 63.383 154.500, 74.444 150.112, 74.579 150.250 C 74.714 150.387, 75.605 157.025, 76.559 165 C 77.513 172.975, 78.588 179.838, 78.948 180.252 C 79.308 180.665, 85.556 170.204, 92.831 157.006 C 104.930 135.058, 105.988 132.731, 105.223 129.754 C 104.642 127.491, 103.394 126.026, 101.124 124.942 L 97.861 123.384 100.496 122.184 C 102.308 121.358, 102.966 120.440, 102.605 119.242 C 102.317 118.284, 100.201 109.940, 97.904 100.701 L 93.727 83.902 89.210 84.201 L 84.693 84.500 75.494 106 C 69.778 119.362, 65.767 127.500, 64.898 127.500 C 63.909 127.500, 63.409 125.901, 63.190 122.034 C 62.954 117.866, 63.634 114.463, 66.054 107.698 C 67.799 102.819, 68.838 98.484, 68.363 98.064 C 67.889 97.645, 60.565 96.337, 52.089 95.157 C 43.614 93.977, 36.508 92.841, 36.299 92.632 C 35.964 92.298, 40.026 85.776, 58.334 57.250 C 60.893 53.263, 62.771 50, 62.508 50 C 62.244 50, 55.272 56.128, 47.014 63.618" stroke="none" fill="black" fill-rule="evenodd"/>
</svg>