<svg xmlns="http://www.w3.org/2000/svg" width="200" height="200" viewBox="0 0 200 200" version="1.1">
	<path d="M 101.146 27.032 L 82.792 39.917 72.146 32.638 C 65.054 27.788, 57.676 23.809, 50.044 20.718 C 43.743 18.166, 38.513 16.173, 38.421 16.289 C 36.942 18.149, 13.487 84.762, 14.083 85.409 C 15.152 86.572, 17.939 84.302, 33.376 69.696 L 45.852 57.892 59.386 66.446 C 72.602 74.799, 75.574 76.223, 74.773 73.818 C 74.333 72.499, 47.075 55.051, 45.500 55.080 C 44.950 55.090, 38.659 60.672, 31.519 67.485 C 24.379 74.297, 18.436 79.769, 18.311 79.644 C 17.972 79.306, 39.448 21.219, 40.183 20.483 C 41.602 19.065, 61.076 28.412, 71.725 35.623 L 82.951 43.224 100.046 31.112 C 109.449 24.450, 117.459 19, 117.847 19 C 118.235 19, 120.515 24.175, 122.914 30.500 C 126.016 38.680, 127.740 41.990, 128.887 41.966 C 129.774 41.948, 138.375 40.889, 148 39.614 C 157.625 38.339, 165.641 37.408, 165.813 37.545 C 165.986 37.682, 162.498 39.002, 158.063 40.479 C 152.248 42.416, 150.006 43.629, 150.020 44.832 C 150.031 45.749, 152.010 52.935, 154.417 60.799 L 158.794 75.099 155.147 76.585 C 153.141 77.403, 145.425 80.676, 138 83.858 L 124.500 89.644 120.295 103.072 C 117.982 110.457, 116.069 117.233, 116.045 118.129 C 116.006 119.533, 119.870 118.962, 144 114 C 159.400 110.833, 172 108.369, 172 108.525 C 172 108.680, 168.482 111.064, 164.181 113.823 L 156.363 118.838 132.931 122.432 C 104.034 126.863, 103.374 126.995, 105.031 128.019 C 106.644 129.016, 106.370 129.347, 83.975 153.469 C 74.500 163.675, 65.792 172.247, 64.624 172.519 C 63.456 172.790, 53.959 175.006, 43.520 177.443 C 33.081 179.880, 24.427 181.761, 24.290 181.623 C 24.152 181.485, 32.591 176.419, 43.043 170.364 L 62.046 159.355 71.523 139.530 C 76.735 128.627, 81 119.322, 81 118.853 C 81 118.384, 73.463 117.939, 64.250 117.865 C 47.996 117.735, 47.767 117.704, 56.500 116.841 C 61.450 116.351, 65.988 115.780, 66.585 115.570 C 67.182 115.361, 68.195 111.434, 68.837 106.845 C 70.705 93.475, 71.112 94.361, 62.750 93.588 C 40.241 91.505, 39.985 92.032, 65.531 87.869 L 88.563 84.116 113.779 72.808 C 127.648 66.589, 138.996 60.938, 138.998 60.250 C 139.001 58.572, 138.979 58.573, 119.153 62.001 C 109.612 63.650, 101.172 65, 100.398 65 C 99.600 65, 96.515 60.029, 93.285 53.541 L 87.581 42.082 82.233 51.184 C 78.837 56.964, 77.234 60.634, 77.840 61.240 C 78.446 61.846, 80.359 59.562, 83.080 54.982 L 87.365 47.769 92.298 57.634 C 95.011 63.061, 97.398 67.682, 97.602 67.904 C 97.806 68.125, 103.942 67.330, 111.237 66.135 C 118.532 64.941, 124.950 63.983, 125.500 64.008 C 126.050 64.032, 117.950 67.922, 107.500 72.653 L 88.500 81.255 59.707 86.003 C 43.871 88.615, 30.664 91.003, 30.357 91.310 C 28.664 93.003, 32.610 93.837, 47.935 95.024 C 57.284 95.748, 65.460 96.666, 66.103 97.064 C 67.538 97.950, 65.733 111.929, 64.050 112.969 C 63.463 113.332, 54.549 114.182, 44.241 114.857 C 15.742 116.725, 12 117.147, 12 118.487 C 12 119.382, 20.216 119.868, 44.219 120.396 C 61.940 120.786, 76.573 121.240, 76.738 121.404 C 76.902 121.569, 73.181 129.758, 68.468 139.602 L 59.898 157.500 49.699 163.386 C 20.903 180.005, 14 184.313, 14 185.665 C 14 186.589, 14.650 186.949, 15.750 186.633 C 16.713 186.358, 28.877 183.534, 42.782 180.360 L 68.063 174.588 84.282 157.137 C 93.202 147.539, 101.872 138.114, 103.548 136.194 L 106.597 132.702 115.001 145.764 L 123.405 158.827 148.535 173.413 C 162.357 181.436, 173.906 188, 174.201 188 C 174.936 188, 168.059 159.058, 166.642 156.188 C 165.820 154.524, 158.770 150.644, 141.500 142.353 C 128.300 136.015, 116.425 130.406, 115.111 129.887 C 113.798 129.368, 112.898 128.776, 113.111 128.571 C 113.325 128.365, 123.175 126.746, 135 124.971 L 156.500 121.745 168.500 114.235 C 182.697 105.349, 181.601 106.201, 180.384 104.984 C 179.741 104.341, 169.308 106.072, 150.162 110.001 C 134.080 113.300, 120.548 116, 120.091 116 C 119.634 116, 120.916 110.512, 122.941 103.804 L 126.622 91.608 144.016 84.266 C 153.582 80.228, 161.542 76.792, 161.703 76.630 C 161.865 76.468, 159.934 69.449, 157.412 61.031 C 154.279 50.575, 153.175 45.510, 153.927 45.045 C 154.532 44.671, 160.644 42.370, 167.509 39.933 C 174.447 37.469, 179.992 34.945, 179.995 34.250 C 180.002 32.609, 181.061 32.536, 153.670 36.085 C 140.564 37.784, 129.623 38.956, 129.358 38.691 C 129.092 38.425, 126.765 32.794, 124.187 26.178 L 119.500 14.147 101.146 27.032 M 115.633 141.750 C 119.824 148.213, 123.821 154.316, 124.515 155.313 C 125.524 156.763, 156.864 175.614, 168.082 181.518 L 170.663 182.877 167.537 169.696 L 164.411 156.515 136.955 143.276 C 121.855 135.994, 109.165 130.028, 108.756 130.018 C 108.347 130.008, 111.442 135.287, 115.633 141.750" stroke="none" fill="black" fill-rule="evenodd"/>
</svg>