<svg xmlns="http://www.w3.org/2000/svg" width="200" height="200" viewBox="0 0 200 200" version="1.1">
	<path d="M 144.151 25.182 C 142.050 29.757, 138.168 38.350, 135.524 44.278 C 132.881 50.206, 130.340 55.290, 129.877 55.576 C 129.415 55.862, 126.880 55.329, 124.244 54.393 C 119.463 52.695, 119.432 52.655, 112.023 38.345 C 107.938 30.455, 104.124 23.996, 103.548 23.990 C 102.972 23.985, 94.322 24.706, 84.327 25.592 C 69.194 26.933, 62.720 28.064, 45.636 32.351 L 25.118 37.500 31.719 51.250 C 35.349 58.813, 38.735 65, 39.244 65 C 39.753 65, 47.894 61.831, 57.335 57.959 C 72.701 51.655, 75.714 50.765, 86.085 49.466 L 97.670 48.015 106.085 50.901 C 110.713 52.488, 115.209 54.078, 116.076 54.434 C 116.943 54.789, 119.153 58.183, 120.987 61.974 L 124.322 68.868 120.411 77.919 L 116.500 86.970 103.625 86.985 L 90.750 87 91.375 83.875 C 91.719 82.156, 92 80.182, 92 79.487 C 92 78.792, 97.615 74.911, 104.479 70.862 C 116.147 63.978, 119.405 60.996, 115.250 61.003 C 112.672 61.008, 40.105 75.562, 39.463 76.203 C 39.163 76.504, 40.689 77.459, 42.855 78.325 C 45.021 79.192, 47.764 81.265, 48.951 82.931 L 51.109 85.961 28.926 86.231 L 6.743 86.500 10.621 89.360 C 13.831 91.727, 14.069 92.115, 12 91.609 C 5.171 89.942, 1.739 89.716, 2.154 90.962 C 2.594 92.281, 44.575 114.862, 46.750 114.950 C 49.905 115.077, 47.231 112.016, 39.452 106.594 C 34.792 103.346, 31.140 100.527, 31.337 100.330 C 31.607 100.060, 52.871 105.541, 58.331 107.288 C 58.788 107.434, 50.794 116.539, 40.568 127.522 C 30.341 138.504, 22.158 147.942, 22.383 148.495 C 23.843 152.084, 48.399 186.986, 48.998 186.322 C 49.406 185.870, 53.695 168.625, 58.529 148 C 63.363 127.375, 67.416 110.368, 67.535 110.208 C 67.856 109.774, 80.420 113.024, 81.858 113.912 C 82.820 114.507, 82.540 117.772, 80.600 128.588 C 79.227 136.240, 77.968 143.679, 77.802 145.121 C 77.540 147.392, 79.453 149.415, 92.167 160.311 L 106.834 172.880 139.509 179.282 C 161.141 183.521, 172.312 185.315, 172.562 184.592 C 172.870 183.700, 180 111.999, 180 109.790 C 180 109.426, 176.400 106.343, 172 102.939 C 167.600 99.535, 164 96.356, 164 95.875 C 164 95.394, 163.438 94.986, 162.750 94.968 C 160.825 94.920, 155.806 90.124, 156.501 88.998 C 156.840 88.449, 156.255 88, 155.201 88 C 154.147 88, 147.591 83.495, 140.633 77.989 L 127.983 67.977 129.523 64.290 C 130.371 62.262, 131.204 60.462, 131.376 60.291 C 131.548 60.119, 133.608 60.656, 135.955 61.484 L 140.222 62.990 158.067 52.245 C 167.881 46.335, 175.819 41.184, 175.706 40.797 C 175.501 40.097, 151.092 18.793, 149.046 17.528 C 148.396 17.127, 146.460 20.153, 144.151 25.182 M 147.560 24.165 C 146.785 25.999, 143.192 34.001, 139.575 41.946 C 135.959 49.892, 133 56.679, 133 57.029 C 133 57.378, 134.614 58.160, 136.588 58.765 C 140.085 59.839, 140.574 59.624, 156.110 50.183 L 172.045 40.500 169.621 38.500 C 168.287 37.400, 163.095 32.974, 158.083 28.665 L 148.969 20.831 147.560 24.165 M 80.500 28.563 C 70.843 29.487, 60.714 31.343, 47.847 34.546 L 29.194 39.190 31.597 44.623 C 32.919 47.612, 35.353 52.737, 37.006 56.012 L 40.012 61.966 45.256 59.905 C 48.140 58.771, 55.900 55.642, 62.500 52.950 C 72.636 48.816, 76.359 47.833, 86.471 46.619 L 98.442 45.182 106.394 48.085 C 110.768 49.681, 114.545 50.789, 114.787 50.546 C 115.029 50.304, 112.519 45.020, 109.208 38.803 L 103.188 27.500 98.844 27.362 C 96.455 27.286, 88.200 27.826, 80.500 28.563 M 122.042 57.750 C 122.065 58.163, 122.909 60.049, 123.917 61.942 L 125.750 65.384 127.407 62.180 C 129.047 59.008, 129.038 58.965, 126.467 57.987 C 123.363 56.807, 121.985 56.733, 122.042 57.750 M 77 70.952 C 61.325 74.101, 48.668 77.088, 48.874 77.589 C 49.080 78.090, 50.564 80.412, 52.172 82.750 L 55.096 87 71.477 87 L 87.858 87 88.983 81.582 C 90.089 76.256, 90.230 76.092, 97.304 71.924 C 107.104 66.151, 108.773 64.975, 106.973 65.113 C 106.163 65.175, 92.675 67.803, 77 70.952 M 123.050 78.536 C 121.228 82.680, 120.025 86.358, 120.375 86.708 C 120.726 87.059, 127.197 87.540, 134.756 87.777 C 147.039 88.163, 148.341 88.048, 147 86.691 C 144.811 84.476, 127.601 71.033, 126.931 71.015 C 126.618 71.007, 124.871 74.391, 123.050 78.536 M 16 89.486 C 16 91.558, 26.037 95.600, 41.994 99.954 C 52.165 102.729, 60.828 105, 61.244 105 C 62.822 105, 61.853 102.755, 57.353 95.988 L 52.707 89 34.353 89 C 24.259 89, 16 89.219, 16 89.486 M 57 89.448 C 57 89.861, 58.675 92.912, 60.722 96.228 L 64.443 102.258 68.108 98.129 L 71.772 94 79.386 94 C 86.333 94, 87 93.825, 87 92 C 87 90.255, 86.332 89.999, 81.750 89.995 C 78.862 89.992, 72.112 89.699, 66.750 89.344 C 61.388 88.989, 57 89.036, 57 89.448 M 90 92 C 90 93.884, 90.667 94, 101.465 94 C 111.906 94, 113.025 93.821, 114 92 C 115.044 90.049, 114.760 90, 102.535 90 C 90.667 90, 90 90.106, 90 92 M 117.070 91.869 C 116.520 92.896, 116.355 94.021, 116.702 94.369 C 117.049 94.716, 123.683 95, 131.444 95 C 143.253 95, 145.958 94.715, 148.027 93.256 L 150.500 91.512 146 90.830 C 143.525 90.455, 136.228 90.115, 129.785 90.074 C 119.325 90.008, 117.963 90.200, 117.070 91.869 M 151.559 93.532 C 149.743 94.905, 149.863 95, 153.431 95 C 156.708 95, 157.070 94.789, 156 93.500 C 154.478 91.666, 154.022 91.669, 151.559 93.532 M 16.083 96.381 C 16.313 96.591, 19.425 98.190, 23 99.934 C 27.912 102.331, 28.889 102.588, 27 100.988 C 24.304 98.705, 18.808 96, 16.865 96 C 16.206 96, 15.854 96.172, 16.083 96.381 M 69.764 100.244 C 67.782 102.662, 66.469 105.141, 66.847 105.752 C 67.413 106.668, 80.853 111, 83.127 111 C 83.795 111, 86.366 98.007, 85.800 97.495 C 85.635 97.347, 82.770 96.915, 79.433 96.536 L 73.367 95.846 69.764 100.244 M 88.034 102.750 C 87.425 105.912, 86.765 109.269, 86.567 110.209 C 86.291 111.526, 87.505 112.299, 91.854 113.575 C 102.714 116.761, 102.730 116.753, 107.620 106.250 L 111.926 97 100.534 97 L 89.142 97 88.034 102.750 M 110.475 106.608 C 108.022 111.893, 106.245 116.587, 106.525 117.040 C 106.805 117.493, 109.479 118.411, 112.467 119.080 C 118.661 120.466, 116.638 121.696, 133.856 106.079 L 142.213 98.500 134.856 97.881 C 130.810 97.540, 124.673 97.203, 121.217 97.131 L 114.934 97 110.475 106.608 M 136.740 107.029 C 131.373 111.963, 127.173 116, 127.407 116 C 127.854 116, 154.089 99.244, 154.879 98.455 C 155.129 98.205, 153.346 98.013, 150.917 98.029 C 146.763 98.057, 145.920 98.592, 136.740 107.029 M 142.303 109.806 C 132.295 116.238, 124.420 121.771, 124.803 122.102 C 125.186 122.433, 130 123.915, 135.500 125.395 C 141 126.875, 146.227 128.303, 147.115 128.567 C 148.365 128.940, 148.855 128.119, 149.281 124.942 C 149.869 120.554, 150.570 119.236, 151.707 120.374 C 152.315 120.982, 146.215 168.864, 145.402 169.864 C 145.039 170.310, 98.626 130.061, 98.182 128.914 C 98.008 128.463, 98.766 126.057, 99.867 123.568 L 101.869 119.042 97.685 117.965 C 95.383 117.372, 92.007 116.418, 90.183 115.844 C 88.359 115.270, 86.586 115.081, 86.243 115.423 C 85.212 116.454, 80.082 146.449, 80.818 147.143 C 84.203 150.332, 105.811 168.470, 107.421 169.474 C 109.960 171.057, 168.812 182.521, 169.724 181.610 C 170.281 181.052, 176.837 118.317, 176.957 112.388 C 176.987 110.923, 174.698 108.472, 169.487 104.388 C 165.354 101.150, 161.642 98.413, 161.237 98.306 C 160.832 98.199, 152.311 103.374, 142.303 109.806 M 43.671 128.083 L 25.053 147.992 36.219 164.470 C 42.361 173.533, 47.519 180.814, 47.683 180.650 C 47.847 180.487, 51.604 165.086, 56.033 146.426 C 60.461 127.767, 64.304 111.766, 64.572 110.868 C 64.840 109.971, 64.436 108.998, 63.674 108.705 C 62.797 108.369, 55.454 115.482, 43.671 128.083 M 102.578 124.098 C 101.653 126.407, 101.258 128.630, 101.699 129.036 C 102.139 129.442, 111.725 137.743, 123 147.482 L 143.500 165.189 145.676 150.345 C 146.873 142.180, 147.884 134.600, 147.923 133.500 C 147.984 131.764, 146.177 131.011, 134.247 127.799 L 120.500 124.098 117.193 126.049 C 115.374 127.122, 113.461 128, 112.943 128 C 111.383 128, 111.880 125.809, 113.750 124.435 C 115.369 123.246, 115.313 123.078, 113 122.202 C 111.625 121.681, 109.096 120.949, 107.379 120.576 C 104.433 119.936, 104.164 120.133, 102.578 124.098" stroke="none" fill="black" fill-rule="evenodd"/>
</svg>