<svg xmlns="http://www.w3.org/2000/svg" width="200" height="200" viewBox="0 0 200 200" version="1.1">
	<path d="M 127.450 19.874 L 101.400 23.500 87.950 33.412 C 80.552 38.864, 73.959 43.739, 73.298 44.245 C 71.111 45.920, 68.351 44.038, 61.926 36.491 C 54.708 28.012, 51.896 27.718, 56.353 35.908 L 59.053 40.869 38.309 33.936 C 26.899 30.123, 16.754 27.261, 15.764 27.575 C 14.226 28.063, 14.661 28.928, 18.731 33.484 C 21.354 36.419, 26.098 41.736, 29.274 45.299 L 35.048 51.777 31.012 68.638 C 28.424 79.454, 25.785 94.765, 23.653 111.339 L 20.329 137.179 27.678 149.026 C 31.721 155.543, 35.809 161.106, 36.764 161.388 C 40.698 162.554, 64.155 167.179, 64.480 166.853 C 64.674 166.659, 65.113 154.800, 65.455 140.500 C 66.245 107.537, 66.404 106.188, 69.575 105.392 C 70.924 105.053, 78.160 100.327, 85.654 94.888 C 93.149 89.450, 99.628 85, 100.053 85 C 101.240 85, 112.902 98.349, 112.411 99.145 C 112.173 99.530, 106.127 104.006, 98.976 109.093 C 89.851 115.584, 86.108 118.813, 86.422 119.921 C 86.669 120.789, 89.176 137.025, 91.993 156 C 94.811 174.975, 97.427 191.277, 97.808 192.226 C 98.326 193.518, 103.390 186.897, 117.948 165.894 C 132.796 144.473, 137.552 138.270, 138.058 139.668 C 138.422 140.676, 140.921 153.086, 143.610 167.246 C 146.300 181.406, 148.731 192.994, 149.013 192.996 C 149.296 192.998, 156.204 179.613, 164.365 163.250 L 179.204 133.500 178.102 113.836 C 177.496 103.020, 177 91.433, 177 88.086 L 177 82 180.500 82 C 187.258 82, 183.948 79.477, 167.763 72.293 C 158.834 68.328, 151.416 64.728, 151.280 64.293 C 151.143 63.857, 155.324 58.153, 160.572 51.618 C 166.240 44.558, 169.890 39.156, 169.565 38.309 C 168.694 36.040, 154.679 15.987, 154.060 16.124 C 153.752 16.192, 141.777 17.879, 127.450 19.874 M 127.550 22.591 C 106.487 25.439, 102.111 26.318, 99.459 28.232 C 86.958 37.254, 76.065 45.612, 76.035 46.205 C 76.016 46.592, 77.463 47.173, 79.250 47.495 C 81.637 47.924, 85.922 46.866, 95.386 43.509 C 102.473 40.995, 108.473 39.140, 108.720 39.386 C 108.966 39.633, 110.217 43.959, 111.500 49 C 112.783 54.041, 114.034 58.368, 114.282 58.615 C 114.931 59.265, 174.313 79.020, 174.638 78.695 C 174.788 78.545, 168.413 75.542, 160.472 72.022 C 147.807 66.408, 146.192 65.430, 147.330 64.061 C 148.043 63.202, 152.790 57.227, 157.878 50.783 L 167.129 39.065 160.325 29.033 C 156.583 23.515, 153.291 19.049, 153.010 19.109 C 152.730 19.169, 141.273 20.736, 127.550 22.591 M 26.679 38.482 C 30.430 42.597, 33.826 45.972, 34.224 45.982 C 34.623 45.992, 35.647 44.650, 36.500 43 C 38.170 39.771, 40 39.022, 40 41.568 C 40 42.430, 37.724 52.443, 34.943 63.818 C 31.164 79.274, 29.045 91.069, 26.558 110.500 L 23.230 136.500 29.274 146.500 C 32.599 152, 35.809 157.042, 36.409 157.703 C 37.452 158.854, 60.998 164.335, 61.735 163.599 C 62.020 163.313, 63.857 116.781, 63.970 106.951 C 63.994 104.921, 64.763 104.130, 67.750 103.064 C 71.486 101.732, 98 83.282, 98 82.015 C 98 81.648, 96.957 80.369, 95.682 79.171 L 93.365 76.994 89.432 79.969 C 87.270 81.605, 84.989 82.957, 84.365 82.972 C 83.741 82.987, 79.776 76.925, 75.555 69.500 C 71.333 62.075, 67.738 56, 67.565 56 C 67.393 56, 65.338 56.675, 63 57.500 C 57.766 59.347, 57 59.364, 57 57.636 C 57 56.886, 58.804 55.022, 61.008 53.494 L 65.017 50.716 63.095 47.608 C 61.373 44.825, 59.151 43.802, 41.836 37.822 C 31.201 34.149, 21.905 31.112, 21.179 31.072 C 20.452 31.032, 22.927 34.367, 26.679 38.482 M 95 46.426 L 85.500 49.717 98 53.699 C 104.875 55.889, 110.588 57.628, 110.696 57.562 C 110.803 57.496, 110.100 54.306, 109.132 50.473 C 108.040 46.143, 106.829 43.433, 105.937 43.319 C 105.146 43.217, 100.225 44.615, 95 46.426 M 66 46.882 C 66 47.432, 66.450 48.160, 67 48.500 C 67.550 48.840, 68 48.668, 68 48.118 C 68 47.568, 67.550 46.840, 67 46.500 C 66.450 46.160, 66 46.332, 66 46.882 M 73 49.035 C 73 50.397, 74.490 50.933, 75.882 50.073 C 76.821 49.493, 76.604 49.130, 75.085 48.732 C 73.938 48.433, 73 48.569, 73 49.035 M 69.500 51 C 69.160 51.550, 69.359 52, 69.941 52 C 70.523 52, 71 51.550, 71 51 C 71 50.450, 70.802 50, 70.559 50 C 70.316 50, 69.840 50.450, 69.500 51 M 78.659 52.260 C 77.105 53.396, 77.780 54.477, 85.534 63.278 C 90.892 69.360, 94.577 72.769, 95.316 72.325 C 98.986 70.120, 110 61.733, 110 61.144 C 110 60.568, 82.557 51, 80.905 51 C 80.617 51, 79.607 51.567, 78.659 52.260 M 71.526 54.958 C 71.200 55.485, 74.020 61.317, 77.792 67.919 L 84.651 79.922 88.352 77.407 L 92.052 74.893 82.906 64.446 C 77.876 58.701, 73.391 54, 72.939 54 C 72.488 54, 71.852 54.431, 71.526 54.958 M 105.128 68.623 L 95.903 75.267 98.153 77.663 C 99.497 79.094, 101.028 79.816, 101.952 79.457 C 102.803 79.126, 117.225 78.862, 134 78.870 L 164.500 78.885 141 70.934 C 128.075 66.561, 116.792 62.757, 115.927 62.480 C 115.007 62.186, 110.523 64.737, 105.128 68.623 M 103.472 82.045 C 102.915 82.947, 110.728 92.870, 114.384 95.904 C 115.545 96.868, 117.467 95.917, 124.450 90.921 C 129.197 87.526, 133.221 84.917, 133.393 85.124 C 133.564 85.331, 135.854 91.575, 138.483 99 C 142.405 110.082, 143.988 113.257, 147.318 116.729 C 149.550 119.055, 151.076 121.258, 150.709 121.624 C 150.343 121.990, 143.181 127.161, 134.792 133.115 C 125.118 139.982, 119.192 143.592, 118.587 142.987 C 118.063 142.463, 117.828 141.872, 118.067 141.676 C 118.305 141.479, 124.125 137.364, 131 132.531 C 148.641 120.129, 147.647 121.266, 144.088 117.573 C 142.119 115.530, 139.761 110.643, 137.054 103 C 134.814 96.675, 132.765 90.911, 132.499 90.191 C 132.167 89.288, 129.686 90.510, 124.498 94.132 L 116.978 99.382 119.796 102.441 C 132.049 115.745, 136.961 121.906, 135.858 122.588 C 135.086 123.065, 132.452 120.837, 128.574 116.426 C 125.233 112.625, 120.700 107.623, 118.500 105.309 L 114.500 101.103 102.042 110.093 C 95.190 115.038, 89.504 119.177, 89.406 119.292 C 89.309 119.406, 91.553 134.771, 94.394 153.435 L 99.558 187.370 103.122 182.435 C 105.082 179.721, 113.349 167.825, 121.493 156 C 129.637 144.175, 136.998 133.690, 137.850 132.700 C 139.272 131.049, 139.792 132.942, 144.166 155.700 C 146.788 169.340, 149.217 181.625, 149.566 183 C 150.091 185.071, 152.438 181.036, 163.236 159.500 L 176.272 133.500 175.036 108 C 174.357 93.975, 173.733 82.450, 173.650 82.389 C 173.568 82.328, 157.884 81.998, 138.798 81.657 C 115.879 81.247, 103.884 81.379, 103.472 82.045" stroke="none" fill="black" fill-rule="evenodd"/>
</svg>