<svg xmlns="http://www.w3.org/2000/svg" width="200" height="200" viewBox="0 0 200 200" version="1.1">
	<path d="M 60.612 39.155 C 60.226 55.740, 60.268 69.665, 60.705 70.098 C 62.257 71.638, 89.350 81.048, 90.019 80.281 C 90.394 79.851, 94.689 67.640, 99.564 53.144 C 104.440 38.648, 108.536 27.173, 108.666 27.644 C 108.797 28.115, 110.209 35.925, 111.806 45 C 114.533 60.504, 114.661 62.435, 113.931 76.994 C 113.504 85.516, 113.365 92.699, 113.623 92.957 C 114.125 93.458, 161.168 83.119, 161.990 82.326 C 162.259 82.066, 158.500 70.299, 153.635 56.177 C 148.770 42.055, 144.547 29.600, 144.251 28.500 C 143.941 27.350, 147.704 30.324, 153.106 35.500 L 162.500 44.500 168.354 66 L 174.208 87.500 170.044 112.500 C 167.754 126.250, 165.418 138.625, 164.853 140 C 164.288 141.375, 158.353 151.023, 151.663 161.440 L 139.500 180.379 139.214 170.120 C 138.996 162.295, 139.893 153.057, 142.995 131.180 C 145.232 115.406, 147.160 101.642, 147.281 100.593 C 147.827 95.842, 144.386 98.886, 134.735 111.690 C 129.010 119.286, 116.795 136.413, 107.589 149.750 C 98.383 163.088, 90.715 174, 90.548 174 C 90.382 174, 91.326 170.164, 92.646 165.475 C 95.536 155.214, 108.102 93.769, 107.445 93.112 C 106.876 92.542, 67.215 85.035, 64.667 85.015 C 63.171 85.003, 64.589 88.402, 72.380 103.500 C 77.631 113.675, 81.715 122, 81.457 122 C 81.199 122, 76.010 118.130, 69.928 113.399 C 63.845 108.669, 58.656 105.011, 58.397 105.270 C 58.137 105.529, 58.797 120.537, 59.864 138.621 C 60.930 156.704, 61.734 171.572, 61.651 171.660 C 61.568 171.748, 56.550 169.070, 50.500 165.709 C 44.450 162.348, 35.450 157.920, 30.500 155.870 C 25.550 153.820, 21.364 151.484, 21.197 150.678 C 21.031 149.873, 22.453 140.278, 24.358 129.357 C 26.262 118.436, 28.329 103.875, 28.951 97 C 29.572 90.125, 32.107 73.287, 34.583 59.582 C 38.876 35.819, 39.297 31.080, 36.989 32.507 C 36.426 32.855, 32.501 38.150, 28.267 44.273 L 20.570 55.405 19.899 51.952 C 19.531 50.054, 18.223 41.862, 16.993 33.750 C 15.290 22.519, 14.408 19, 13.299 19 C 12.242 19, 11.992 19.757, 12.390 21.750 C 12.692 23.263, 14.140 32.600, 15.607 42.500 C 17.075 52.400, 18.591 60.855, 18.976 61.288 C 19.361 61.722, 22.966 57.101, 26.987 51.020 C 31.007 44.939, 34.484 40.151, 34.713 40.379 C 34.941 40.608, 33.327 50.853, 31.126 63.147 C 28.925 75.441, 26.624 91.125, 26.011 98 C 25.399 104.875, 23.346 119.385, 21.449 130.244 C 19.552 141.104, 18 150.844, 18 151.889 C 18 153.354, 20.124 154.639, 27.250 157.486 C 32.337 159.519, 42.711 164.568, 50.302 168.706 C 57.892 172.844, 64.260 176.066, 64.452 175.865 C 64.643 175.664, 63.962 161.550, 62.938 144.500 C 61.914 127.450, 61.059 112.691, 61.038 111.702 C 61.011 110.404, 64.478 112.580, 73.504 119.523 C 83.059 126.873, 86.147 128.781, 86.596 127.610 C 86.935 126.727, 83.086 118.206, 77.497 107.468 C 72.169 97.232, 67.965 88.718, 68.155 88.547 C 68.345 88.377, 76.375 89.735, 86 91.565 C 95.625 93.396, 103.773 94.917, 104.106 94.947 C 105.106 95.035, 92.386 156.532, 88.591 169.952 C 86.655 176.801, 85.260 182.594, 85.492 182.826 C 86.789 184.122, 90.111 179.909, 105.958 156.876 C 123.074 131.995, 142.993 104.660, 143.579 105.246 C 143.742 105.409, 142.083 117.908, 139.892 133.021 C 136.110 159.115, 135.949 161.205, 136.705 174.490 L 137.500 188.481 152.703 164.809 L 167.905 141.137 172.466 114.428 L 177.026 87.719 171.398 66.110 L 165.770 44.500 153.914 32.750 C 143.887 22.812, 139 19.127, 139 21.506 C 139 21.784, 143.508 35.126, 149.019 51.154 C 154.529 67.182, 158.917 80.388, 158.769 80.502 C 158.621 80.615, 149.950 82.606, 139.500 84.925 C 129.050 87.245, 119.517 89.378, 118.315 89.664 L 116.130 90.184 116.629 73.842 C 117.113 57.944, 117.020 56.944, 113.194 37 C 111.031 25.725, 108.989 17.175, 108.656 18 C 108.324 18.825, 103.764 32.100, 98.523 47.500 C 93.282 62.900, 88.801 76.018, 88.566 76.651 C 88.282 77.416, 83.930 76.243, 75.580 73.151 L 63.022 68.500 63.019 62.500 L 63.016 56.500 75.951 51.150 C 88.378 46.010, 89.124 45.533, 94.943 38.985 C 98.274 35.237, 101 31.907, 101 31.585 C 101 29.507, 97.577 31.879, 92.825 37.250 C 87.374 43.410, 83.333 45.678, 65.250 52.727 C 64.273 53.108, 64 48.386, 64 31.107 C 64 13.272, 63.740 9, 62.657 9 C 61.578 9, 61.176 14.933, 60.612 39.155" stroke="none" fill="black" fill-rule="evenodd"/>
</svg>