<svg xmlns="http://www.w3.org/2000/svg" width="200" height="200" viewBox="0 0 200 200" version="1.1">
	<path d="M 36.036 19.608 C 33.667 25.048, 30.489 32.267, 28.973 35.648 C 26.813 40.468, 25.975 44.467, 25.097 54.148 C 24.481 60.942, 23.714 68.638, 23.394 71.250 C 22.914 75.173, 23.090 76, 24.406 76 C 25.283 76, 26.001 75.438, 26.003 74.750 C 26.005 74.063, 26.674 66.555, 27.491 58.067 C 28.968 42.707, 29.004 42.568, 35.066 28.567 C 38.416 20.830, 41.557 14.087, 42.046 13.582 C 42.586 13.025, 64.247 13.395, 97.124 14.523 C 126.928 15.545, 150.455 16.730, 149.406 17.155 C 145.422 18.773, 62.981 37.106, 62.111 36.568 C 61.608 36.258, 60.879 33.262, 60.490 29.911 C 60.101 26.559, 59.416 24.196, 58.969 24.659 C 57.555 26.121, 40.105 72.743, 40.250 74.671 C 40.326 75.684, 37.808 81.071, 34.654 86.641 L 28.919 96.770 29.926 103.019 C 30.927 109.238, 30.908 109.325, 25.920 120.780 L 20.909 132.291 21.604 149.645 C 21.987 159.190, 22.370 167, 22.456 167 C 22.541 167, 26.517 165.425, 31.291 163.500 C 36.065 161.575, 40.496 160, 41.139 160 C 41.781 160, 47.568 163.375, 54 167.500 C 60.432 171.625, 66.028 175, 66.435 175 C 66.843 175, 67.024 163.525, 66.838 149.499 C 66.652 135.474, 66.571 123.999, 66.659 123.999 C 66.791 124, 93.653 154.596, 94.696 155.933 C 94.881 156.172, 95.476 155.924, 96.017 155.383 C 96.662 154.738, 91.972 146.149, 82.403 130.450 C 74.374 117.277, 67.555 105.883, 67.249 105.129 C 66.784 103.983, 69.546 103.875, 84.097 104.474 C 99.361 105.103, 101.316 105.011, 100 103.731 C 99.175 102.929, 91.300 97.630, 82.500 91.957 C 73.700 86.284, 66.072 81.272, 65.549 80.819 C 64.982 80.330, 66.064 78.482, 68.226 76.249 L 71.854 72.500 68.515 56 C 66.678 46.925, 65.248 39.451, 65.338 39.390 C 66.469 38.627, 151.475 19.968, 152.329 20.296 C 153.543 20.762, 156.499 27.834, 155.780 28.553 C 155.558 28.775, 140.779 30.388, 122.938 32.137 C 105.097 33.886, 90.179 35.589, 89.787 35.922 C 89.395 36.254, 94.676 39.445, 101.521 43.013 L 113.968 49.500 113.984 108.528 L 114 167.556 97.331 172.528 C 88.163 175.263, 80.475 178.063, 80.247 178.750 C 79.921 179.735, 87.622 180, 116.548 180 L 153.262 180 168.300 173.300 C 180.597 167.822, 182.898 166.485, 180.920 165.963 C 179.589 165.612, 170.722 164.053, 161.216 162.497 L 143.931 159.669 144.548 103.585 C 144.887 72.738, 145.319 46.989, 145.507 46.364 C 145.695 45.740, 152.746 41.514, 161.175 36.975 C 169.604 32.435, 176.610 28.636, 176.744 28.533 C 176.879 28.429, 171.973 25.094, 165.842 21.121 L 154.696 13.896 117.098 12.498 C 96.419 11.728, 70.690 10.788, 59.921 10.407 L 40.343 9.715 36.036 19.608 M 156 19.036 C 156 19.555, 156.889 22.319, 157.976 25.180 C 159.063 28.040, 159.730 30.603, 159.458 30.875 C 159.186 31.147, 145.142 32.758, 128.249 34.453 L 97.534 37.537 102.017 40.144 C 104.483 41.578, 108.862 43.939, 111.750 45.392 L 117 48.034 117 108.805 L 117 169.577 103.750 173.539 L 90.500 177.500 120.595 177.764 L 150.690 178.029 162.539 172.813 L 174.389 167.598 164.944 165.931 C 159.750 165.015, 152.259 163.718, 148.298 163.050 L 141.096 161.835 141.575 118.668 C 141.839 94.925, 142.311 68.285, 142.624 59.467 L 143.194 43.433 157.097 36.020 C 164.744 31.942, 170.990 28.357, 170.978 28.053 C 170.938 27.060, 156 18.067, 156 19.036 M 51.379 51.006 C 48.013 59.803, 45.383 67, 45.534 67 C 45.686 67, 48.923 61.468, 52.728 54.706 C 58.602 44.267, 59.581 41.852, 59.214 38.706 C 58.976 36.668, 58.493 35.003, 58.141 35.006 C 57.788 35.009, 54.746 42.209, 51.379 51.006 M 47.154 70.053 L 31.860 96.990 32.825 103.245 C 33.778 109.428, 33.733 109.631, 28.895 120.790 C 23.566 133.082, 23.090 136.935, 24.639 155.252 L 25.277 162.806 31.889 160.265 C 42.242 156.285, 41.718 156.205, 52.721 163.415 C 58.249 167.037, 63.041 170, 63.370 170 C 63.698 170, 64.087 158.121, 64.234 143.603 L 64.500 117.206 74.395 128.603 C 84.007 139.674, 86.807 142.408, 83.733 137.716 C 80.899 133.390, 62 102.056, 62 101.683 C 62 101.477, 68.750 101.525, 77 101.790 C 85.250 102.055, 92 102.065, 92 101.813 C 92 101.560, 84.798 96.679, 75.995 90.966 L 59.991 80.578 64.383 76.039 L 68.776 71.500 66.055 57.751 C 64.559 50.188, 63.135 43.802, 62.892 43.558 C 62.648 43.315, 55.566 55.237, 47.154 70.053" stroke="none" fill="black" fill-rule="evenodd"/>
</svg>