<svg xmlns="http://www.w3.org/2000/svg" width="200" height="200" viewBox="0 0 200 200" version="1.1">
	<path d="M 87.287 8.977 C 58.569 9.316, 34.829 9.838, 34.530 10.137 C 34.065 10.601, 20 69.011, 20 70.476 C 20 70.764, 20.627 71, 21.394 71 C 22.161 71, 28.020 64.475, 34.415 56.500 L 46.041 42.001 55.021 46.510 C 64.415 51.229, 65.058 52.088, 63.081 57.287 C 62.247 59.481, 61.117 59.868, 50.831 61.480 C 44.599 62.457, 38.988 63.761, 38.362 64.378 C 37.736 64.995, 33.993 75.822, 30.043 88.438 C 24.335 106.671, 22.571 113.849, 21.440 123.438 C 19.375 140.946, 19.018 139.535, 26.437 143.193 L 32.873 146.367 41.092 166.433 C 45.613 177.470, 49.586 186.822, 49.922 187.217 C 50.258 187.611, 54.995 175.461, 60.447 160.217 C 65.900 144.972, 70.479 132.338, 70.623 132.141 C 70.767 131.943, 72.287 132.780, 74 134 C 75.713 135.220, 77.284 136.049, 77.491 135.842 C 77.918 135.416, 82 98.027, 82 94.549 C 82 92.392, 81.522 92.253, 71.772 91.581 C 66.146 91.194, 61.356 90.689, 61.126 90.460 C 60.897 90.230, 61.737 83.744, 62.993 76.045 C 65.520 60.550, 64.796 61.553, 74.261 60.443 C 79.382 59.842, 80.642 60.085, 85.594 62.633 L 91.165 65.500 90.454 106.037 L 89.744 146.573 110.622 165.962 C 122.105 176.625, 133.123 186.875, 135.107 188.738 L 138.714 192.127 169.103 172.985 C 185.816 162.456, 199.688 153.645, 199.929 153.405 C 200.170 153.164, 199.926 152.526, 199.387 151.987 C 198.748 151.348, 186.652 151.719, 164.552 153.056 C 145.932 154.182, 129.469 154.968, 127.968 154.802 C 125.357 154.513, 125.762 153.892, 137.370 140.367 C 144.291 132.303, 156.483 119.872, 165.759 111.421 C 181.118 97.428, 181.988 96.440, 181.480 93.554 C 181.185 91.874, 179.204 77.383, 177.079 61.352 L 173.216 32.204 165.979 20.102 L 158.743 8 149.121 8.181 C 143.830 8.280, 116.004 8.638, 87.287 8.977 M 78.539 11.750 C 56.010 11.900, 37.247 12.355, 36.843 12.761 C 36.439 13.168, 33.586 24.300, 30.504 37.500 C 27.421 50.700, 24.639 62.400, 24.322 63.500 C 24.006 64.600, 28.416 59.554, 34.123 52.288 C 39.830 45.021, 44.899 39.058, 45.387 39.038 C 45.875 39.017, 51.289 41.544, 57.419 44.653 L 68.565 50.306 78.532 45.990 C 90.121 40.971, 90.777 40.545, 91.190 37.769 C 91.454 35.996, 94.045 34.915, 108.500 30.546 C 117.850 27.720, 126.850 24.698, 128.500 23.831 C 130.150 22.963, 132.510 21.942, 133.744 21.561 C 135.599 20.989, 135.871 21.172, 135.316 22.619 C 134.822 23.906, 135.991 25.575, 139.737 28.934 L 144.829 33.500 147.059 56.272 C 148.286 68.796, 149.049 79.284, 148.755 79.578 C 148.015 80.318, 118.567 59.173, 118.217 57.651 C 118.061 56.973, 120.649 49.966, 123.967 42.078 C 127.285 34.191, 130 27.603, 130 27.438 C 130 26.352, 97.410 39.865, 94.306 42.239 C 93.509 42.849, 93.306 44.870, 93.696 48.326 C 94.017 51.172, 94.386 53.632, 94.516 53.793 C 94.646 53.954, 99.109 53.343, 104.435 52.435 C 109.760 51.527, 114.300 50.967, 114.524 51.191 C 114.747 51.414, 115.958 57.357, 117.215 64.397 C 118.925 73.977, 119.940 77.432, 121.250 78.133 C 122.564 78.837, 123 78.688, 123 77.535 C 123 75.143, 124.823 75.732, 125.180 78.240 C 125.425 79.954, 128.143 81.893, 136.765 86.506 C 146.255 91.584, 148.736 93.434, 152.515 98.248 C 154.982 101.391, 157 104.421, 157 104.981 C 157 107.272, 154.875 105.689, 150.650 100.250 C 146.921 95.450, 144.516 93.622, 136.091 89.182 L 126 83.864 126 99.516 C 126 120.555, 124.509 119.914, 120.377 97.099 C 118.659 87.614, 116.859 79.506, 116.377 79.080 C 115.895 78.654, 110.713 75.802, 104.861 72.741 L 94.223 67.176 93.616 94.838 C 93.283 110.052, 92.799 127.557, 92.542 133.738 L 92.075 144.977 115.057 166.488 C 127.697 178.320, 138.522 188, 139.113 188 C 140.218 188, 193.174 154.835, 192.741 154.415 C 192.609 154.286, 178.100 155.049, 160.500 156.112 C 142.900 157.174, 126.386 157.921, 123.802 157.772 L 119.103 157.500 132.768 141.500 C 141.251 131.567, 152.621 119.836, 162.754 110.560 C 177.151 97.383, 179.017 95.319, 178.578 93.060 C 178.304 91.652, 176.418 77.675, 174.386 62 L 170.692 33.500 164.096 22.276 L 157.500 11.053 138.500 11.265 C 128.050 11.382, 101.067 11.600, 78.539 11.750 M 126.967 42.080 C 120.937 56.511, 120.766 57.149, 122.596 58.461 C 139.921 70.886, 145.559 74.770, 145.848 74.482 C 146.174 74.159, 143.608 47.585, 142.352 38.281 C 141.890 34.861, 140.974 33.401, 137.512 30.563 L 133.241 27.064 126.967 42.080 M 95.500 37.535 C 92.999 38.740, 92.916 38.878, 95 38.369 C 97.834 37.677, 101.018 36.053, 99.500 36.076 C 98.950 36.084, 97.150 36.740, 95.500 37.535 M 81.500 47.606 C 77.100 49.557, 73.148 51.494, 72.717 51.910 C 72.286 52.326, 73.720 53.472, 75.903 54.456 C 78.984 55.846, 81.118 56.091, 85.436 55.551 L 91 54.856 91 49.428 C 91 46.443, 90.662 44.013, 90.250 44.029 C 89.838 44.045, 85.900 45.655, 81.500 47.606 M 66.667 54.667 C 66.300 55.033, 66 56.206, 66 57.274 C 66 58.632, 66.474 59.032, 67.582 58.607 C 68.452 58.273, 70.252 58, 71.582 58 C 74.731 58, 74.669 56.626, 71.453 55.161 C 68.529 53.828, 67.601 53.733, 66.667 54.667 M 105 55.073 C 102.525 55.542, 99.037 56.188, 97.250 56.508 C 94.340 57.030, 94 57.444, 94 60.468 C 94 63.733, 94.349 64.032, 104.573 69.516 C 110.388 72.635, 115.379 74.955, 115.663 74.671 C 115.947 74.387, 115.386 69.619, 114.416 64.077 C 112.484 53.042, 113.018 53.552, 105 55.073 M 85 58.839 C 85 59.566, 89.271 62, 90.547 62 C 90.796 62, 91 61.100, 91 60 C 91 58.444, 90.333 58, 88 58 C 86.350 58, 85 58.378, 85 58.839 M 51.137 64.144 C 45.437 65.106, 40.548 66.119, 40.272 66.395 C 39.996 66.670, 36.645 76.707, 32.824 88.698 C 27.706 104.762, 25.511 113.395, 24.482 121.500 C 22.256 139.043, 22.092 138.256, 28.530 140.924 C 34.902 143.565, 34.494 142.926, 42.936 163.495 C 46.321 171.742, 49.413 178.813, 49.809 179.209 C 50.204 179.604, 54.564 168.663, 59.498 154.895 C 64.431 141.126, 68.756 129.395, 69.108 128.825 C 69.520 128.158, 70.696 128.410, 72.405 129.530 C 73.867 130.487, 75.210 131.097, 75.391 130.885 C 75.997 130.174, 79.245 95.911, 78.752 95.419 C 78.485 95.151, 73.706 94.655, 68.133 94.315 C 59.195 93.771, 58 93.481, 58 91.863 C 58 90.854, 58.934 84.162, 60.076 76.992 C 61.218 69.822, 62.005 63.605, 61.826 63.175 C 61.647 62.745, 56.836 63.181, 51.137 64.144 M 121.186 86.340 C 122.601 94.639, 122.762 94.830, 122.884 88.357 C 122.965 84.043, 122.599 82.060, 121.653 81.697 C 120.563 81.279, 120.474 82.166, 121.186 86.340" stroke="none" fill="black" fill-rule="evenodd"/>
</svg>