<svg xmlns="http://www.w3.org/2000/svg" width="200" height="200" viewBox="0 0 200 200" version="1.1">
	<path d="M 37.362 14.203 C 39.128 15.563, 38.676 16.601, 28.612 34.326 C 22.775 44.606, 18 53.271, 18 53.583 C 18 54.316, 36.024 76.428, 36.864 76.725 C 37.214 76.849, 41.973 66.005, 47.440 52.629 L 57.379 28.308 79.851 27.654 C 92.211 27.294, 108.213 27.047, 115.412 27.104 L 128.500 27.208 113.500 29.419 L 98.500 31.631 104.500 34.383 C 107.800 35.897, 112.675 38.077, 115.334 39.227 L 120.168 41.319 119.834 67.660 C 119.598 86.301, 119.821 94.001, 120.596 94.001 C 121.914 94, 123 76.288, 123 54.781 L 123 39.875 115.753 36.519 C 107.174 32.545, 105.783 33.109, 133 29.530 C 156.541 26.434, 158.204 26.113, 157.750 24.749 C 157.377 23.631, 132.430 23.675, 81.564 24.884 L 55.628 25.500 45.964 48.827 L 36.301 72.154 29.877 64.327 C 26.343 60.022, 22.901 55.779, 22.226 54.897 C 21.198 53.554, 22.712 50.270, 31.563 34.647 L 42.126 16 47.813 16.023 C 50.941 16.035, 79.150 16.701, 110.500 17.502 C 141.850 18.304, 170.200 18.990, 173.500 19.028 L 179.500 19.098 170.930 27.299 C 163.035 34.855, 161.554 36.947, 152.111 53.881 C 146.474 63.990, 142.230 72.584, 142.681 72.977 C 143.131 73.370, 151.525 75.408, 161.333 77.504 L 179.166 81.316 167.833 86.746 C 161.600 89.732, 154.137 93.236, 151.250 94.533 C 147.721 96.117, 146.001 97.482, 146.005 98.695 C 146.007 99.688, 146.905 111.750, 148 125.500 C 149.095 139.250, 149.987 152.300, 149.982 154.500 L 149.972 158.500 136.736 166.268 C 129.456 170.540, 121.540 175.206, 119.145 176.637 C 115.303 178.932, 114.855 179.018, 115.346 177.369 C 115.652 176.341, 118.020 158.695, 120.608 138.156 C 124.584 106.596, 125.095 100.673, 123.906 99.921 C 120.820 97.967, 66.470 99.735, 62.256 101.926 C 61.405 102.369, 65.052 108.726, 73.794 122.037 C 80.824 132.741, 86.918 142.054, 87.336 142.732 C 87.754 143.409, 83.760 141.461, 78.462 138.401 C 73.163 135.342, 68.635 133.032, 68.399 133.268 C 68.163 133.504, 67.081 140.600, 65.995 149.038 C 64.909 157.476, 63.678 164.687, 63.260 165.063 C 62.842 165.438, 57.989 166.002, 52.476 166.317 L 42.451 166.889 38.015 159.027 C 33.346 150.752, 32.393 150.104, 24.625 149.930 C 16.817 149.754, 16.874 149.601, 31.479 131.544 L 45.126 114.672 42.313 113.514 C 40.766 112.877, 34.184 110.397, 27.687 108.002 L 15.874 103.649 32.187 87.226 C 46.335 72.982, 79.950 42.738, 80.794 43.492 C 80.956 43.637, 75.924 52.447, 69.612 63.072 L 58.135 82.388 59.600 85.893 C 60.405 87.820, 61.162 89.484, 61.282 89.589 C 61.725 89.980, 102.386 85.948, 102.867 85.466 C 104.698 83.636, 99.119 83.518, 82.500 85.034 C 72.050 85.988, 63.140 86.438, 62.699 86.033 C 60.684 84.184, 62.567 80.072, 74.850 59.500 C 82.074 47.400, 87.988 36.889, 87.993 36.143 C 87.997 35.358, 87.380 35.024, 86.528 35.351 C 82.835 36.768, 44.737 70.621, 28.696 86.739 L 10.892 104.628 25.441 110.064 C 33.442 113.054, 39.992 115.798, 39.995 116.162 C 39.998 116.527, 33.883 124.322, 26.407 133.486 C 18.931 142.650, 13.114 150.452, 13.480 150.824 C 13.847 151.196, 18.051 151.950, 22.823 152.500 L 31.500 153.500 36.245 161.500 L 40.990 169.500 49.745 169.142 C 54.560 168.945, 60.288 168.489, 62.473 168.129 L 66.446 167.475 68.138 154.487 C 69.068 147.344, 69.980 140.482, 70.165 139.238 C 70.485 137.078, 70.975 137.251, 80.909 143.033 C 86.634 146.366, 91.927 148.858, 92.671 148.573 C 94.019 148.056, 90.321 141.939, 72.523 115.242 C 68.761 109.599, 65.879 104.787, 66.118 104.548 C 67.939 102.728, 120.127 100.793, 121.817 102.483 C 122.311 102.978, 121.545 109.492, 115.889 152.881 C 113.711 169.591, 112.057 183.390, 112.215 183.547 C 112.980 184.310, 152.546 159.864, 152.842 158.446 C 153.030 157.544, 152.181 143.787, 150.956 127.873 C 149.731 111.959, 148.902 98.817, 149.114 98.668 C 149.326 98.520, 157.970 94.382, 168.322 89.473 C 178.675 84.565, 186.550 80.345, 185.822 80.097 C 185.095 79.849, 175.950 77.763, 165.500 75.462 C 151.255 72.324, 146.579 70.930, 146.817 69.889 C 146.991 69.125, 151.217 61.222, 156.208 52.326 C 164.954 36.736, 165.651 35.814, 175.512 26.826 C 181.334 21.518, 185.259 17.241, 184.621 16.899 C 184.004 16.568, 158.300 15.771, 127.500 15.127 C 96.700 14.483, 63.400 13.690, 53.500 13.363 C 37.750 12.844, 35.733 12.949, 37.362 14.203" stroke="none" fill="black" fill-rule="evenodd"/>
</svg>