<svg xmlns="http://www.w3.org/2000/svg" width="200" height="200" viewBox="0 0 200 200" version="1.1">
	<path d="M 42.937 20.158 C 32.797 28.932, 24.099 36.510, 23.608 36.997 C 22.769 37.831, 30.693 81.689, 31.945 83.145 C 32.250 83.500, 39.025 70.124, 47 53.421 C 54.975 36.718, 61.795 23.152, 62.155 23.276 C 63.010 23.569, 82.841 50.407, 82.494 50.802 C 82.349 50.968, 75.403 53.704, 67.060 56.881 L 51.891 62.657 34.574 87.079 L 17.257 111.500 22.128 116.531 C 25.294 119.801, 27 122.431, 27 124.041 C 27 125.405, 25.881 134.391, 24.513 144.010 C 23.146 153.630, 22.021 161.880, 22.013 162.345 C 22.006 162.810, 32.346 163.035, 44.992 162.845 L 67.983 162.500 74.578 155.904 L 81.173 149.309 78.024 137.404 C 76.292 130.857, 74.659 124.748, 74.395 123.829 C 73.726 121.499, 89.939 109.975, 93.761 110.063 C 99.258 110.190, 125.276 115.529, 125.133 116.500 C 125.052 117.050, 118.223 127.400, 109.956 139.500 C 101.689 151.600, 94.908 161.939, 94.888 162.475 C 94.793 164.925, 97.423 163.243, 110.478 152.500 C 118.164 146.175, 124.689 141.004, 124.977 141.008 C 125.265 141.012, 128.854 148.550, 132.953 157.758 C 147.439 190.295, 146.933 189.300, 148.370 188.108 C 149.270 187.361, 149.911 182.919, 150.369 174.254 C 150.739 167.239, 151.324 157.792, 151.668 153.260 L 152.294 145.020 156.775 151.050 C 159.240 154.367, 161.622 156.950, 162.068 156.791 C 163.162 156.399, 180 137.828, 180 137.013 C 180 136.658, 174.150 132.153, 167 127 C 159.850 121.847, 154 117.087, 154 116.422 C 154 115.757, 160.637 111.508, 168.750 106.979 C 186.347 97.156, 190.205 94.867, 189.803 94.483 C 189.636 94.324, 179.825 93.441, 168 92.521 C 156.175 91.601, 145.648 90.520, 144.607 90.120 C 142.977 89.494, 144.266 87.670, 153.857 77.024 C 159.986 70.221, 165 64.239, 165 63.731 C 165 63.222, 162.983 56.169, 160.517 48.056 C 158.052 39.944, 155.869 32.450, 155.667 31.403 C 155.466 30.356, 154.955 28.700, 154.533 27.723 C 154.008 26.507, 154.638 24.686, 156.531 21.955 C 158.052 19.760, 159.118 17.806, 158.899 17.613 C 158.679 17.420, 137.125 14.473, 111 11.065 C 84.875 7.657, 63.022 4.720, 62.437 4.537 C 61.852 4.355, 53.077 11.385, 42.937 20.158 M 45.432 21.554 C 36.119 29.600, 27.870 36.788, 27.101 37.527 C 25.904 38.675, 26.179 41.307, 28.994 55.685 C 30.805 64.933, 32.587 73.079, 32.954 73.787 C 33.339 74.529, 39.252 63.309, 46.921 47.287 C 54.236 32.004, 60.588 19.106, 61.037 18.624 C 61.486 18.141, 67.174 24.932, 73.676 33.713 C 80.402 42.794, 86.039 49.496, 86.750 49.256 C 87.437 49.023, 88.052 49.433, 88.115 50.167 C 88.179 50.900, 88.291 52.027, 88.365 52.670 C 88.439 53.314, 93.353 60.417, 99.285 68.456 L 110.069 83.072 113.120 81.286 C 114.798 80.304, 120.935 76.350, 126.758 72.500 L 137.344 65.500 144.694 48.500 C 148.736 39.150, 151.921 30.879, 151.772 30.119 C 151.622 29.360, 145.158 37.096, 137.407 47.311 L 123.313 65.883 110.544 57.355 C 103.520 52.664, 98.162 48.482, 98.637 48.062 C 99.112 47.641, 110.750 42.468, 124.500 36.566 C 147.894 26.525, 154 23.214, 154 20.570 C 154 19.900, 137.012 17.249, 109.250 13.588 C 84.638 10.342, 64.019 7.516, 63.432 7.306 C 62.844 7.097, 54.744 13.509, 45.432 21.554 M 125.250 39.201 C 113.563 44.222, 104 48.639, 104 49.018 C 104 49.609, 109.107 53.200, 120.176 60.394 L 122.853 62.133 134.950 46.067 C 141.603 37.230, 146.924 30.016, 146.773 30.036 C 146.623 30.056, 136.938 34.181, 125.250 39.201 M 146.531 51 C 142.750 59.800, 138.947 67.617, 138.078 68.370 C 137.210 69.123, 130.990 73.216, 124.254 77.466 C 115.711 82.857, 112.234 85.582, 112.754 86.480 C 113.165 87.187, 121.600 98.776, 131.500 112.232 L 149.500 136.697 150.162 132.099 C 151.401 123.502, 151.131 118.264, 149.417 117.606 C 147.798 116.985, 147.929 114.521, 149.583 114.474 C 150.088 114.460, 151.625 113.734, 153 112.861 C 154.375 111.988, 159.775 108.896, 165 105.990 C 177.560 99.004, 181.168 96.833, 180.803 96.478 C 180.636 96.316, 170.702 95.386, 158.727 94.411 C 146.752 93.436, 137.077 92.308, 137.227 91.904 C 137.377 91.500, 143.078 85.007, 149.895 77.476 L 162.290 63.783 158.002 49.391 C 155.643 41.476, 153.644 35, 153.559 35 C 153.474 35, 150.312 42.200, 146.531 51 M 67.566 59.610 C 59.902 62.557, 53.338 65.313, 52.978 65.734 C 52.619 66.155, 45.242 76.574, 36.585 88.887 L 20.845 111.274 25.618 116.120 L 30.392 120.966 27.778 140.232 C 26.341 150.828, 25.320 159.654, 25.510 159.844 C 25.700 160.034, 34.976 160.167, 46.124 160.139 L 66.391 160.089 72.231 154.249 L 78.070 148.410 74.531 135.116 C 72.584 127.805, 71.241 121.419, 71.546 120.925 C 72.705 119.050, 90.866 107, 92.534 107 C 93.495 107, 101.697 108.372, 110.760 110.048 C 119.822 111.724, 127.442 112.891, 127.693 112.640 C 128.436 111.897, 109.973 87.476, 108.889 87.767 C 108.343 87.914, 104.924 89.912, 101.291 92.206 L 94.685 96.378 71.093 96.106 C 58.117 95.956, 47.329 95.662, 47.119 95.452 C 46.909 95.243, 54.719 86.027, 64.474 74.974 C 74.229 63.920, 82.050 54.736, 81.855 54.564 C 81.660 54.392, 75.230 56.663, 67.566 59.610 M 69.072 73.759 L 52.644 92.500 72.877 93.319 L 93.110 94.138 100.597 89.472 C 105.777 86.243, 107.803 84.451, 107.172 83.653 C 106.671 83.019, 101.692 76.313, 96.107 68.750 C 90.523 61.188, 85.851 55.004, 85.727 55.009 C 85.602 55.014, 78.107 63.452, 69.072 73.759 M 124.781 122.693 C 117.044 133.801, 104.485 152.233, 103.466 153.976 C 102.585 155.482, 122.601 139.454, 123.581 137.869 C 125.226 135.207, 127.593 139.076, 136.500 158.999 C 141.909 171.099, 146.505 180.829, 146.712 180.621 C 146.919 180.414, 147.696 171.527, 148.437 160.872 L 149.786 141.500 140.225 128.500 C 134.967 121.350, 130.564 115.362, 130.441 115.193 C 130.319 115.024, 127.772 118.399, 124.781 122.693 M 153.640 124.760 C 153.300 126.817, 153.017 131.347, 153.011 134.827 C 153.001 140.635, 153.333 141.619, 157.062 146.827 C 159.297 149.947, 161.493 152.500, 161.944 152.500 C 162.814 152.500, 176 138.579, 176 137.660 C 176 137.113, 168.834 131.530, 159.379 124.712 L 154.259 121.019 153.640 124.760" stroke="none" fill="black" fill-rule="evenodd"/>
</svg>