<svg xmlns="http://www.w3.org/2000/svg" width="200" height="200" viewBox="0 0 200 200" version="1.1">
	<path d="M 38.823 10.750 C 37.393 15.013, 32.568 29.021, 28.103 41.880 C 22.734 57.338, 20.554 64.792, 21.668 63.880 C 22.595 63.121, 28.082 58.573, 33.860 53.773 L 44.367 45.045 50.433 50.773 C 53.770 53.923, 56.655 56.852, 56.844 57.282 C 57.033 57.711, 49.608 65.975, 40.344 75.646 C 31.080 85.316, 22.245 94.733, 20.712 96.572 L 17.924 99.916 21.462 114.976 C 24.376 127.380, 25 131.961, 25 140.944 L 25 151.850 38.540 164.675 C 45.988 171.729, 52.420 177.619, 52.835 177.765 C 53.249 177.910, 58.257 168.333, 63.962 156.482 L 74.337 134.934 70.163 124.806 C 67.868 119.235, 66.161 114.506, 66.370 114.297 C 66.718 113.948, 98.189 116.063, 98.742 116.471 C 98.875 116.570, 93.376 131.683, 86.524 150.057 C 78.331 172.023, 74.402 183.802, 75.050 184.450 C 75.699 185.099, 80.739 180.823, 89.768 171.965 C 112.478 149.685, 123.315 139.416, 122.447 141 C 121.995 141.825, 115.625 151.903, 108.291 163.395 C 100.957 174.887, 95.179 184.513, 95.452 184.786 C 95.725 185.058, 113.847 183.981, 135.724 182.391 C 165.525 180.225, 175.475 179.187, 175.400 178.250 C 175.345 177.563, 175.233 166.267, 175.150 153.149 L 175 129.298 154.507 119.442 C 143.235 114.022, 134.348 109.290, 134.757 108.927 C 135.165 108.564, 144.725 104.765, 156 100.484 C 167.275 96.204, 176.869 92.377, 177.320 91.980 C 177.771 91.584, 171.031 88.854, 162.343 85.915 L 146.545 80.570 156.872 77.353 C 162.551 75.583, 167.367 73.966, 167.573 73.760 C 168.029 73.304, 173.979 36.211, 173.991 33.750 C 173.999 32.297, 173.077 32, 168.559 32 C 165.566 32, 162.889 31.630, 162.609 31.177 C 162.329 30.724, 169.503 27.951, 178.550 25.014 C 195.695 19.449, 198.396 17.576, 190.750 16.555 C 186.157 15.943, 44.796 3, 42.695 3 C 41.996 3, 40.254 6.487, 38.823 10.750 M 34.788 30.750 C 30.081 44.363, 26.379 55.663, 26.561 55.863 C 26.744 56.063, 30.896 52.830, 35.789 48.679 L 44.685 41.132 51.565 48.066 C 55.350 51.880, 58.739 55, 59.097 55 C 59.455 55, 63.715 50.946, 68.564 45.990 C 74.174 40.258, 77.729 37.329, 78.337 37.937 C 78.946 38.546, 76.924 43.058, 72.780 50.344 L 66.266 61.794 79.149 74.647 L 92.032 87.500 97.516 84.535 C 100.532 82.904, 103 81.529, 103 81.479 C 103 81.428, 100.300 74.688, 97 66.500 C 93.700 58.312, 91.005 51.138, 91.012 50.557 C 91.019 49.975, 96.306 47.372, 102.762 44.772 C 118.671 38.364, 118 38.566, 118 40.201 C 118 41.073, 113.382 43.479, 105.958 46.476 C 96.438 50.318, 94.041 51.668, 94.515 52.918 C 94.845 53.788, 97.421 60.215, 100.239 67.199 L 105.363 79.898 108.432 78.199 C 112.104 76.166, 154.696 34.363, 153.904 33.570 C 153.600 33.267, 148.034 34.805, 141.535 36.988 L 129.718 40.958 116.368 35.229 C 109.025 32.078, 103.014 28.938, 103.009 28.250 C 102.998 26.665, 104.590 26.700, 130.966 28.855 L 152.433 30.609 169.966 24.959 L 187.500 19.310 182.500 18.643 C 176.498 17.843, 47.910 6, 45.223 6 C 43.668 6, 41.879 10.243, 34.788 30.750 M 120.897 34.024 L 129.294 38.036 136.897 35.655 C 143.736 33.513, 144.198 33.214, 141.500 32.682 C 139.850 32.357, 134 31.819, 128.500 31.487 C 123 31.155, 117.150 30.687, 115.500 30.448 C 113.642 30.178, 115.697 31.540, 120.897 34.024 M 138.307 55.295 C 127.226 67.137, 117.934 76.601, 117.659 76.325 C 116.951 75.618, 107.923 81.036, 107.359 82.506 C 107.103 83.174, 108.540 87.833, 110.552 92.860 C 113.876 101.165, 115.570 103.619, 129.094 119.711 C 138.947 131.436, 143.642 137.758, 142.985 138.415 C 142.327 139.073, 140.474 137.918, 137.500 135 C 134.712 132.264, 132.665 130.954, 132.102 131.546 C 131.604 132.071, 124.168 143.525, 115.579 157 C 102.698 177.208, 100.290 181.553, 101.834 181.800 C 103.696 182.099, 172.222 177.111, 172.691 176.642 C 172.826 176.507, 172.614 166.096, 172.218 153.506 L 171.500 130.615 149.294 120.057 C 137.081 114.251, 127.074 109.275, 127.055 109 C 127.037 108.725, 136.494 104.926, 148.070 100.559 C 159.647 96.191, 169.307 92.311, 169.538 91.938 C 169.769 91.564, 162.691 88.802, 153.808 85.800 L 137.659 80.342 146.579 77.633 C 151.486 76.142, 157.743 74.150, 160.485 73.205 L 165.471 71.487 168.307 53.649 C 169.868 43.838, 170.963 35.630, 170.741 35.408 C 170.519 35.186, 167.664 34.725, 164.396 34.384 L 158.455 33.763 138.307 55.295 M 66.208 52.288 C 61.912 56.665, 60.790 59.403, 63.529 58.823 C 64.768 58.561, 71.794 48, 70.728 48 C 70.557 48, 68.523 49.930, 66.208 52.288 M 49.480 70.250 C 43.989 75.888, 35.278 84.840, 30.122 90.146 L 20.748 99.791 24.374 115.299 C 27.263 127.653, 28 132.833, 28 140.777 L 28 150.748 36.750 159.245 C 41.563 163.918, 47.093 169.113, 49.039 170.789 L 52.579 173.837 61.946 154.401 L 71.312 134.965 66.598 123.374 C 64.005 116.999, 62.095 111.572, 62.353 111.313 C 62.837 110.830, 102.007 113.640, 102.482 114.192 C 102.628 114.361, 98.544 125.750, 93.406 139.500 C 88.268 153.250, 82.910 167.604, 81.499 171.398 L 78.933 178.296 94.716 163.220 C 103.397 154.928, 114.988 143.615, 120.474 138.079 L 130.447 128.015 111.554 109.758 L 92.660 91.500 69.810 91 L 46.961 90.500 54.893 76.500 C 60.673 66.300, 62.545 62.161, 61.791 61.250 C 61.221 60.563, 60.465 60, 60.110 60 C 59.755 60, 54.971 64.612, 49.480 70.250 M 58.250 75.989 C 54.813 82.020, 52 87.189, 52 87.477 C 52 87.765, 60.290 88, 70.423 88 L 88.845 88 77.347 76.750 C 71.024 70.563, 65.546 65.393, 65.175 65.262 C 64.804 65.132, 61.688 69.959, 58.250 75.989 M 99.741 86.407 C 97.673 87.660, 95.776 88.890, 95.526 89.141 C 95.275 89.392, 101.447 95.875, 109.241 103.548 C 123.186 117.277, 124.339 118.128, 116.348 108.790 C 113.974 106.015, 110.757 100.262, 108.520 94.790 C 106.431 89.680, 104.447 85.191, 104.111 84.814 C 103.775 84.437, 101.808 85.154, 99.741 86.407" stroke="none" fill="black" fill-rule="evenodd"/>
</svg>