<svg xmlns="http://www.w3.org/2000/svg" width="200" height="200" viewBox="0 0 200 200" version="1.1">
	<path d="M 38.312 16.168 C 46.097 21.874, 47.827 23.579, 46.796 24.523 C 46.083 25.175, 37.737 32.311, 28.250 40.381 C 12.499 53.778, 9.330 57, 11.901 57 C 12.397 57, 21.260 49.798, 31.598 40.996 C 41.935 32.194, 50.693 25.332, 51.060 25.746 C 51.427 26.161, 52.191 27.893, 52.758 29.596 C 53.746 32.565, 53.115 33.675, 37.407 56.559 C 26.819 71.986, 21.369 80.769, 21.996 81.396 C 22.530 81.930, 23.132 82.172, 23.333 81.933 C 23.535 81.695, 30.679 71.281, 39.208 58.790 C 54.007 37.119, 54.768 36.195, 55.858 38.587 C 56.486 39.966, 57 41.830, 57 42.730 C 57 43.630, 52.788 51.146, 47.641 59.433 L 38.281 74.500 34.508 90 C 32.432 98.525, 27.197 116.491, 22.874 129.924 C 18.551 143.357, 15.176 154.509, 15.374 154.707 C 15.572 154.905, 20.406 155.336, 26.117 155.664 C 36.089 156.237, 37.012 156.493, 49.445 162.135 C 56.565 165.366, 62.712 167.670, 63.106 167.255 C 63.500 166.840, 66.640 161.385, 70.084 155.134 L 76.346 143.768 75.078 130.134 C 74.381 122.635, 72.690 109.975, 71.322 102 C 69.363 90.590, 68.970 85.720, 69.477 79.145 C 70.104 71.015, 69.994 70.424, 65.395 57.145 L 60.669 43.500 65.935 35.250 C 68.831 30.713, 71.718 27.028, 72.350 27.062 C 72.983 27.097, 79.350 28.138, 86.500 29.377 C 100.731 31.842, 100.809 31.525, 85.457 33.620 C 82.735 33.991, 81.066 34.693, 81.293 35.370 C 81.559 36.161, 88.703 36.549, 105.086 36.663 C 117.964 36.752, 129.850 36.900, 131.500 36.992 C 134.480 37.157, 134.484 37.164, 132 38.016 C 130.625 38.488, 117.081 41.447, 101.903 44.592 L 74.306 50.311 90.238 82.905 C 99 100.832, 106.473 115.819, 106.843 116.208 C 107.214 116.598, 108.008 116.598, 108.609 116.208 C 109.381 115.708, 108.742 108.010, 106.432 90 C 104.634 75.975, 102.908 62.250, 102.598 59.500 C 102.087 54.973, 103.143 56.685, 113.767 77.612 C 120.220 90.324, 125.981 100.551, 126.568 100.340 C 127.284 100.081, 127.491 95.433, 127.197 86.227 L 126.758 72.500 136.629 72.849 C 142.058 73.040, 147.038 73.494, 147.695 73.858 C 148.493 74.298, 144.220 81.828, 134.841 96.509 C 127.115 108.604, 120.211 119.850, 119.499 121.500 C 118.788 123.150, 117.653 127.957, 116.977 132.181 L 115.748 139.862 94.758 159.681 L 73.767 179.500 116.039 179.761 C 139.289 179.905, 158.468 179.865, 158.660 179.674 C 158.851 179.482, 158.418 177.621, 157.697 175.539 C 156.561 172.257, 156.743 168.602, 159.065 148.126 C 160.539 135.132, 162.319 115.087, 163.020 103.583 L 164.297 82.666 171.495 62.583 C 175.453 51.537, 178.586 42.362, 178.456 42.193 C 178.326 42.025, 172.208 40.855, 164.860 39.593 C 154.196 37.762, 152.105 37.152, 154.500 36.566 C 159.627 35.313, 160 35.106, 160 33.512 C 160 32.434, 159.315 32.103, 157.750 32.425 C 149.105 34.206, 120.731 33.957, 122.539 32.117 C 122.872 31.778, 136.725 29.685, 153.323 27.467 C 177.340 24.256, 183.500 23.134, 183.500 21.967 C 183.500 20.790, 180.338 20.258, 167.500 19.278 C 134.882 16.786, 30.274 9, 29.419 9 C 28.932 9, 32.934 12.226, 38.312 16.168 M 38.292 12.625 C 41.144 15.477, 49.731 20.933, 50.752 20.542 C 51.480 20.262, 52.358 20.814, 52.704 21.767 C 53.049 22.720, 54.713 24.682, 56.400 26.127 C 59.215 28.537, 59.361 28.958, 58.160 31.201 C 57.075 33.228, 57.085 34.222, 58.216 36.995 L 59.582 40.343 64.843 32.057 C 69.661 24.468, 70.331 23.815, 72.802 24.293 C 74.286 24.581, 83.205 26.069, 92.622 27.601 L 109.744 30.385 139.477 26.478 C 155.830 24.328, 168.825 22.458, 168.355 22.320 C 167.885 22.183, 140.050 20.041, 106.500 17.561 C 72.950 15.080, 43.775 12.852, 41.667 12.609 C 39.559 12.367, 38.040 12.374, 38.292 12.625 M 108.813 33.683 C 109.534 33.972, 110.397 33.936, 110.729 33.604 C 111.061 33.272, 110.471 33.036, 109.417 33.079 C 108.252 33.127, 108.015 33.364, 108.813 33.683 M 121.500 43.189 C 111.050 45.400, 102.361 47.338, 102.192 47.496 C 102.022 47.654, 106.972 57.954, 113.192 70.384 L 124.500 92.983 124.152 81.229 L 123.803 69.475 137.652 70.234 C 145.268 70.651, 152.085 71.107, 152.799 71.246 C 153.586 71.400, 147.708 81.541, 137.908 96.938 L 121.717 122.375 119.892 131.798 L 118.067 141.222 105.284 153.349 C 98.253 160.020, 89.800 168.061, 86.500 171.220 L 80.500 176.962 117.655 176.981 L 154.810 177 154.319 173.250 C 154.049 171.188, 154.992 159.150, 156.414 146.500 C 157.836 133.850, 159.620 114.050, 160.378 102.500 L 161.756 81.500 168.340 63.046 C 171.961 52.896, 174.817 44.484, 174.686 44.353 C 174.226 43.893, 144.209 39.001, 142.364 39.085 C 141.339 39.132, 131.950 40.979, 121.500 43.189 M 49.663 61.304 L 40.831 75.446 36.447 93.473 C 34.035 103.388, 29.123 120.262, 25.531 130.971 C 21.939 141.680, 19 151.018, 19 151.721 C 19 152.659, 21.267 153, 27.514 153 C 35.722 153, 36.478 153.204, 48.553 158.661 C 56.072 162.060, 61.439 163.958, 61.982 163.411 C 62.480 162.910, 65.302 158.104, 68.253 152.730 L 73.618 142.960 71.906 126.730 C 70.964 117.804, 69.276 105.484, 68.155 99.354 C 66.647 91.111, 66.259 85.902, 66.662 79.354 C 67.186 70.853, 67.045 70.045, 63.105 59.084 C 60.848 52.805, 58.888 47.554, 58.748 47.415 C 58.609 47.276, 54.521 53.526, 49.663 61.304 M 87.811 50.291 L 78.121 52.234 91.777 79.567 C 99.288 94.600, 105.499 106.810, 105.580 106.700 C 105.925 106.231, 98.454 49.118, 98 48.752 C 97.725 48.530, 93.140 49.222, 87.811 50.291" stroke="none" fill="black" fill-rule="evenodd"/>
</svg>