<svg xmlns="http://www.w3.org/2000/svg" width="200" height="200" viewBox="0 0 200 200" version="1.1">
	<path d="M 30.653 33.274 C 24.794 44.582, 20 54.327, 20 54.929 C 20 55.531, 24.443 62.410, 29.873 70.215 L 39.746 84.407 29.257 98.323 C 18 113.256, 17.822 113.954, 25.250 113.985 C 27.313 113.993, 29 114.308, 29 114.685 C 29 115.061, 25.436 126.649, 21.081 140.435 C 12.298 168.233, 12.064 169.139, 13.530 169.656 C 14.096 169.856, 20.396 163.309, 27.530 155.107 L 40.500 140.194 41.117 144.347 C 41.456 146.631, 42.325 158.075, 43.047 169.777 C 43.949 184.379, 44.760 191.386, 45.632 192.110 C 47.095 193.323, 46.186 195.279, 59.162 163 C 64.137 150.625, 68.426 140.275, 68.692 140 C 68.959 139.725, 71.797 142.425, 75 146 L 80.822 152.500 80.300 134.500 L 79.778 116.500 86.990 100.500 C 90.956 91.700, 94.380 84.207, 94.598 83.850 C 94.816 83.492, 103.850 92.155, 114.673 103.100 C 132.716 121.346, 137 124.954, 137 121.902 C 137 121.298, 131.488 110.265, 124.750 97.384 L 112.500 73.965 105.750 74.612 C 100.953 75.071, 99 74.926, 99 74.108 C 99 73.475, 100.013 72.514, 101.250 71.972 C 104.447 70.573, 146.060 58, 147.495 58 C 148.366 58, 148.947 65.606, 149.654 86.250 L 150.621 114.500 134.666 146.772 C 125.891 164.522, 118.956 179.290, 119.257 179.590 C 119.778 180.111, 170.758 171.580, 171.477 170.851 C 172.078 170.242, 183.973 58.495, 183.995 53.250 C 183.999 52.290, 179.148 52, 163.060 52 L 142.120 52 133.529 40.040 C 128.803 33.462, 124.519 27.821, 124.008 27.505 C 123.497 27.189, 117.987 26.658, 111.764 26.324 L 100.448 25.718 93.587 45.359 C 89.814 56.162, 86.338 65, 85.863 65 C 84.766 65, 84.809 58.490, 85.965 49.515 C 86.460 45.674, 86.735 42.401, 86.576 42.243 C 86.418 42.084, 83.329 43.282, 79.712 44.905 L 73.136 47.855 64.369 36.183 L 55.601 24.511 54.021 31.900 L 52.442 39.289 46.874 26.002 L 41.307 12.714 30.653 33.274 M 31.593 37.362 C 25.575 49.064, 22.959 55.139, 23.529 56.091 C 23.993 56.866, 28.414 63.309, 33.353 70.410 C 38.292 77.510, 42.333 83.842, 42.333 84.480 C 42.333 85.118, 38.168 91.156, 33.077 97.897 C 27.987 104.639, 24.025 110.358, 24.273 110.606 C 24.521 110.854, 26.542 111.382, 28.763 111.779 L 32.803 112.500 28.371 126.500 C 16.710 163.339, 16.991 162.318, 19.035 160.468 C 20.086 159.517, 25.773 153.172, 31.673 146.369 C 37.573 139.566, 42.697 134.337, 43.061 134.750 C 43.425 135.162, 44.254 144.725, 44.904 156 C 46.847 189.681, 45.638 189.254, 57.266 160.361 C 62.769 146.687, 67.479 135.275, 67.732 135 C 67.986 134.725, 70.387 136.880, 73.069 139.790 L 77.945 145.079 77.353 130.790 L 76.762 116.500 84.881 98.571 C 89.346 88.710, 93 80.272, 93 79.821 C 93 79.369, 91.177 79, 88.949 79 C 85.264 79, 84.766 79.317, 83.436 82.500 C 81.535 87.049, 78.786 87.318, 79.676 82.868 L 80.303 79.737 72.401 80.424 C 63.816 81.170, 63.502 81.372, 55.261 91.463 C 53.192 93.997, 51.680 95.078, 51.067 94.463 C 50.455 93.848, 51.762 91.513, 54.687 88 L 59.266 82.500 54.633 82.195 C 46.897 81.686, 49.316 79, 57.510 79 C 60.092 79, 62.483 78.374, 63.398 77.459 C 64.786 76.072, 64.730 75.401, 62.838 70.709 C 56.896 55.974, 57.993 57.141, 52.314 59.513 C 50.323 60.345, 48.515 60.848, 48.298 60.631 C 48.081 60.414, 48.662 56.470, 49.590 51.868 L 51.277 43.500 46.389 31.757 C 43.700 25.299, 41.275 20.021, 41 20.028 C 40.725 20.035, 36.492 27.835, 31.593 37.362 M 98.505 39.750 C 96.432 45.663, 93.269 54.585, 91.474 59.578 L 88.211 68.656 91.560 72.578 L 94.910 76.500 96.170 73.261 C 97.556 69.699, 96.567 70.082, 130.897 59.837 C 141.091 56.795, 144.609 55.380, 142.951 54.988 C 141.414 54.626, 137.614 50.323, 131.901 42.477 C 126.447 34.987, 122.316 30.271, 120.846 29.859 C 119.556 29.496, 114.849 29.155, 110.386 29.100 L 102.273 29 98.505 39.750 M 56.106 35.750 C 55.572 37.813, 55 40.400, 54.835 41.500 C 54.412 44.316, 57.902 53, 59.456 53 C 62.331 53, 70.033 48.862, 69.333 47.693 C 68.038 45.529, 57.765 32, 57.417 32 C 57.230 32, 56.640 33.688, 56.106 35.750 M 78.179 48.521 C 74.608 50.072, 74.619 50.184, 78.879 55.856 C 81.120 58.840, 81.480 59.006, 82.129 57.356 C 83.105 54.877, 83.197 46.990, 82.250 47.039 C 81.838 47.061, 80.006 47.727, 78.179 48.521 M 52.665 51.116 C 51.681 54.794, 51.872 56, 53.441 56 C 55.729 56, 56.202 54.264, 54.696 51.389 L 53.303 48.732 52.665 51.116 M 66.053 53.588 C 63.057 54.948, 60.468 56.198, 60.300 56.366 C 60.132 56.534, 61.816 61.031, 64.042 66.359 C 66.268 71.687, 67.777 76.551, 67.396 77.169 C 66.893 77.983, 68.462 78.093, 73.095 77.569 C 76.611 77.171, 79.701 76.632, 79.962 76.371 C 80.223 76.111, 80.697 73.167, 81.016 69.831 C 81.594 63.789, 81.577 63.740, 76.765 57.382 C 74.107 53.872, 71.836 51.026, 71.716 51.058 C 71.597 51.089, 69.049 52.228, 66.053 53.588 M 151.341 61.750 C 151.671 65.463, 152.227 79.075, 152.577 92 L 153.213 115.500 138.128 145.938 C 129.831 162.679, 123.146 176.458, 123.271 176.558 C 123.647 176.857, 168.464 168.860, 168.916 168.413 C 169.514 167.821, 181 60.856, 181 55.873 C 181 55.393, 174.192 55, 165.871 55 L 150.742 55 151.341 61.750 M 84.079 69.583 C 84.127 70.748, 84.364 70.985, 84.683 70.188 C 84.972 69.466, 84.936 68.603, 84.604 68.271 C 84.272 67.939, 84.036 68.529, 84.079 69.583 M 86.637 73.503 C 85.811 75.657, 86.307 76.288, 88.472 75.838 C 89.888 75.544, 89.919 75.254, 88.711 73.610 C 87.394 71.818, 87.286 71.812, 86.637 73.503 M 101.250 77.710 C 98.228 77.998, 97 78.568, 97 79.684 C 97 81.118, 128.955 114.379, 129.658 113.676 C 129.826 113.507, 125.737 105.299, 120.571 95.435 C 110.187 75.608, 111.423 76.742, 101.250 77.710" stroke="none" fill="black" fill-rule="evenodd"/>
</svg>