<svg xmlns="http://www.w3.org/2000/svg" width="200" height="200" viewBox="0 0 200 200" version="1.1">
	<path d="M 60.442 11.749 L 37.385 12.036 29.085 41.268 C 19.484 75.078, 20.179 72.132, 21.675 72.683 C 22.322 72.922, 28.807 65.918, 36.086 57.120 L 49.322 41.124 52.911 43.023 C 59.948 46.747, 59.993 46.003, 52.085 56.525 C 47.307 62.881, 40.944 73.667, 33.561 87.925 L 22.316 109.643 21.626 123.578 L 20.936 137.512 25.882 142.383 C 30.336 146.771, 31.644 149.235, 39.053 167.188 C 43.577 178.151, 47.617 186.757, 48.031 186.311 C 48.445 185.865, 53.178 175.150, 58.548 162.500 C 63.919 149.850, 68.669 139.096, 69.103 138.603 C 69.562 138.083, 72.471 138.430, 76.036 139.430 C 79.415 140.378, 82.326 141.007, 82.505 140.827 C 82.683 140.647, 81.084 131.098, 78.950 119.606 L 75.069 98.713 70.398 92.767 L 65.727 86.821 66.432 75.680 C 67.115 64.876, 67.242 64.410, 70.635 60.270 C 72.560 57.921, 74.557 56, 75.075 56 C 76.208 56, 93.853 65.952, 94.459 66.934 C 94.694 67.314, 93.795 71.871, 92.463 77.062 C 91.130 82.253, 90.031 87.059, 90.020 87.742 C 90.009 88.426, 95.620 91.802, 102.489 95.244 L 114.978 101.504 100.721 124.002 C 92.880 136.376, 85.439 148.162, 84.186 150.193 L 81.908 153.885 88.704 151.908 C 92.442 150.820, 99.632 148.748, 104.683 147.303 L 113.866 144.675 117.218 147.587 C 121.451 151.266, 145.901 167.438, 146.416 166.901 C 146.627 166.680, 147.770 157.513, 148.955 146.528 C 150.141 135.543, 151.214 126.452, 151.341 126.326 C 151.468 126.199, 155.990 136.424, 161.391 149.048 C 167.498 163.324, 171.737 172, 172.605 172 C 173.372 172, 174.018 171.887, 174.040 171.750 C 174.230 170.567, 176.944 109.391, 176.968 105.750 L 177 101 167 101 C 161.500 101, 157 100.843, 157 100.650 C 157 100.458, 163.075 87.598, 170.500 72.074 C 177.925 56.549, 184 43.431, 184 42.923 C 184 42.416, 183.662 42.005, 183.250 42.012 C 181.786 42.036, 134.495 34.778, 134.172 34.481 C 133.992 34.314, 133.587 28.963, 133.274 22.589 L 132.703 11 108.101 11.231 C 94.571 11.358, 73.124 11.591, 60.442 11.749 M 54.439 14.747 L 39.378 15.050 32.522 39.275 C 28.751 52.599, 25.437 64.175, 25.159 65 C 24.880 65.825, 29.709 60.425, 35.889 53 C 42.070 45.575, 47.673 39.115, 48.342 38.645 C 49.107 38.106, 51.531 38.955, 54.896 40.939 C 57.834 42.671, 60.606 43.955, 61.056 43.794 C 61.507 43.632, 65.470 38.720, 69.863 32.878 L 77.851 22.256 86.340 25.225 L 94.830 28.194 98.287 24.347 C 100.188 22.231, 102.966 19.038, 104.461 17.250 L 107.178 14 88.339 14.222 C 77.978 14.344, 62.723 14.580, 54.439 14.747 M 109 17.951 C 109 20.124, 108.506 24.205, 107.902 27.020 C 107.299 29.835, 107.017 32.350, 107.276 32.609 C 107.535 32.869, 122.092 38.281, 139.624 44.636 C 157.156 50.992, 171.920 56.591, 172.433 57.079 C 175.631 60.119, 168.382 58.019, 139.447 47.519 C 120.856 40.773, 106.547 36.091, 106.086 36.603 C 105.642 37.096, 103.714 43.837, 101.800 51.581 L 98.322 65.662 106.635 70.316 L 114.948 74.969 130.506 71.292 C 139.064 69.270, 145.488 67.319, 144.783 66.956 C 144.077 66.593, 137.537 64.769, 130.250 62.903 C 122.089 60.814, 117 59.028, 117 58.255 C 117 56.599, 116.084 56.446, 135.498 61.340 C 147.352 64.327, 152.584 66.077, 152.784 67.119 C 153.008 68.280, 148.789 69.665, 133.933 73.309 L 114.794 78.003 106.789 73.502 C 102.387 71.026, 98.488 69, 98.127 69 C 97.420 69, 92.592 86.946, 93.160 87.463 C 93.347 87.633, 99.217 90.636, 106.204 94.136 L 118.907 100.500 103.425 124.874 C 93.674 140.226, 88.602 149.063, 89.722 148.749 C 90.700 148.474, 96.553 146.778, 102.728 144.980 L 113.956 141.710 117.228 144.387 C 121.462 147.850, 142.850 162, 143.851 162 C 144.273 162, 145.655 151.763, 146.922 139.250 C 148.189 126.738, 149.381 116.332, 149.571 116.126 C 149.960 115.703, 151.731 119.618, 163.314 146.500 L 171.500 165.500 172.126 154 C 172.471 147.675, 173.083 133.903, 173.486 123.395 L 174.220 104.291 171.860 103.659 C 170.562 103.312, 165.787 103.021, 161.250 103.014 C 156.713 103.006, 153 102.843, 153 102.650 C 153 102.458, 159.075 89.598, 166.500 74.074 C 173.925 58.549, 180 45.516, 180 45.112 C 180 44.707, 169.988 42.901, 157.750 41.098 C 128.208 36.744, 131.001 37.680, 130.993 32.142 C 130.989 29.589, 130.699 24.462, 130.348 20.750 L 129.711 14 119.355 14 L 109 14 109 17.951 M 101.635 24.640 C 99.509 27.095, 97.934 29.214, 98.135 29.349 C 98.336 29.484, 99.699 30.109, 101.165 30.737 C 103.781 31.859, 103.851 31.790, 105.008 26.968 C 105.656 24.267, 106.031 21.634, 105.843 21.117 C 105.654 20.600, 103.761 22.185, 101.635 24.640 M 71.249 35.648 C 67.298 40.955, 64.307 45.688, 64.603 46.167 C 64.899 46.646, 67.249 48.106, 69.826 49.412 L 74.510 51.785 82.950 42.058 C 87.592 36.708, 91.543 31.872, 91.729 31.312 C 92.030 30.411, 81.762 26, 79.364 26 C 78.852 26, 75.200 30.342, 71.249 35.648 M 86.030 42.573 C 80.960 48.388, 76.967 53.272, 77.156 53.426 C 77.674 53.847, 91.186 61.564, 93.633 62.836 C 95.697 63.909, 95.882 63.481, 99.383 49.496 C 101.372 41.548, 103 34.855, 103 34.621 C 103 34.167, 97.192 32, 95.975 32 C 95.575 32, 91.100 36.758, 86.030 42.573 M 54.380 58.158 C 49.064 65.178, 43.482 74.632, 35.784 89.654 L 24.784 111.119 24.246 123.559 L 23.709 135.999 28.638 141.250 C 32.832 145.718, 34.587 149.001, 40.428 163.305 C 44.202 172.548, 47.628 179.748, 48.041 179.305 C 48.454 178.862, 52.717 169.275, 57.514 158 C 62.311 146.725, 66.624 136.759, 67.098 135.854 C 67.884 134.352, 68.406 134.338, 73.050 135.700 C 75.850 136.520, 78.386 136.947, 78.686 136.647 C 78.985 136.348, 77.662 127.783, 75.746 117.614 L 72.262 99.125 67.541 93.600 L 62.820 88.074 63.550 75.787 L 64.281 63.500 68.124 59.128 C 70.238 56.723, 71.745 54.397, 71.474 53.958 C 71.203 53.519, 68.955 52.028, 66.479 50.644 L 61.976 48.128 54.380 58.158" stroke="none" fill="black" fill-rule="evenodd"/>
</svg>