<svg xmlns="http://www.w3.org/2000/svg" width="200" height="200" viewBox="0 0 200 200" version="1.1">
	<path d="M 111.488 32.250 C 111.927 41.026, 111.844 46.116, 111.272 45.500 C 110.762 44.950, 106.848 38.987, 102.574 32.250 C 98.300 25.512, 94.324 20, 93.739 20 C 92.582 20, 59.678 36.855, 55.535 39.569 C 54.141 40.483, 53 41.577, 53 42.002 C 53 42.426, 58.606 46.068, 65.459 50.095 C 72.311 54.122, 77.822 57.511, 77.706 57.627 C 77.590 57.743, 63.547 59.963, 46.498 62.560 C 29.449 65.157, 15.168 67.573, 14.762 67.928 C 14.357 68.284, 20.882 71.317, 29.262 74.667 C 44.082 80.592, 44.664 80.736, 50.473 79.936 C 53.758 79.483, 56.498 79.199, 56.562 79.306 C 58.757 82.949, 73 109.544, 73 109.999 C 73 112.585, 65.896 116.036, 47.285 122.491 C 33.626 127.228, 26.398 130.219, 26.202 131.216 C 25.956 132.470, 28.413 132.957, 40.369 134.022 C 61.340 135.891, 61.456 134.825, 37.683 158.730 C 25.707 170.772, 18.922 178.301, 19.530 178.872 C 20.124 179.431, 30.384 176.660, 46 171.724 C 60.025 167.291, 71.723 163.479, 71.996 163.252 C 72.269 163.026, 69.795 157.717, 66.498 151.455 C 60.912 140.846, 60.616 139.955, 62.163 138.409 C 63.600 136.972, 65.252 136.846, 74.474 137.475 C 84.200 138.138, 85.199 138.393, 85.964 140.406 C 86.425 141.618, 89.846 153.948, 93.567 167.806 C 97.287 181.664, 100.594 192.741, 100.916 192.421 C 101.237 192.102, 104.443 180.388, 108.040 166.391 L 114.580 140.942 142.998 160.963 C 160.940 173.603, 171.766 180.634, 172.366 180.034 C 172.965 179.435, 172.940 178.608, 172.298 177.792 C 171.738 177.082, 164.417 167.500, 156.029 156.500 L 140.778 136.500 129.276 135.804 C 122.950 135.421, 117.556 134.889, 117.288 134.621 C 117.020 134.354, 117.111 132.304, 117.489 130.067 L 118.176 126 123.838 126.022 C 126.952 126.035, 140.517 126.680, 153.983 127.456 C 167.448 128.232, 178.628 128.705, 178.827 128.507 C 179.142 128.191, 157.344 111.751, 143.737 102.041 L 138.974 98.642 128.205 103.321 C 122.282 105.895, 117.080 108, 116.645 108 C 114.240 108, 117.675 104.280, 127.215 96.552 L 137.929 87.872 132.663 79.686 C 129.767 75.184, 127.057 70.939, 126.642 70.253 C 125.746 68.776, 124.036 68.140, 149.940 78.914 C 160.632 83.362, 169.702 87, 170.095 87 C 170.489 87, 170.632 84.412, 170.414 81.250 C 170.196 78.088, 169.741 68.412, 169.403 59.750 C 168.912 47.151, 168.507 44, 167.379 44 C 166.210 44, 166.061 46.188, 166.507 56.750 C 166.804 63.763, 167.264 72.537, 167.530 76.250 C 167.796 79.963, 167.802 83, 167.543 83 C 166.896 83, 126.368 66.305, 124.563 65.295 C 123.765 64.849, 121.263 61.623, 119.004 58.127 C 115.646 52.932, 114.951 51.045, 115.198 47.790 L 115.500 43.809 128.807 55.547 C 137.460 63.179, 142.456 66.944, 143.091 66.309 C 143.725 65.675, 140.185 61.916, 132.970 55.563 C 126.867 50.190, 122.014 45.662, 122.187 45.501 C 122.359 45.341, 134.425 44.250, 149 43.078 C 163.575 41.906, 176.963 40.713, 178.750 40.428 C 186.406 39.206, 181.565 37.244, 147.250 27.663 C 128.137 22.326, 112.112 17.969, 111.638 17.980 C 111.161 17.991, 111.094 24.384, 111.488 32.250 M 114.015 30.821 C 114.024 36.144, 114.395 41.074, 114.840 41.775 C 115.491 42.800, 120.811 42.638, 142.074 40.944 C 156.608 39.786, 169.337 38.520, 170.361 38.130 C 171.601 37.658, 164.704 35.333, 149.707 31.168 C 137.323 27.728, 124.223 24.065, 120.596 23.027 L 114 21.141 114.015 30.821 M 75.539 31.900 C 66.210 36.776, 58.445 41.164, 58.283 41.652 C 58.120 42.139, 64.054 46.129, 71.469 50.519 C 78.884 54.908, 84.962 58.729, 84.975 59.010 C 84.989 59.290, 71.838 61.498, 55.750 63.917 C 39.663 66.336, 25.917 68.611, 25.204 68.973 C 24.461 69.350, 28.437 71.420, 34.511 73.818 C 45.192 78.036, 46.750 78.229, 55.664 76.439 C 57.550 76.061, 58.825 77.840, 65.558 90.252 C 69.809 98.089, 73.740 105.078, 74.295 105.785 C 75.027 106.718, 77.384 101.788, 82.902 87.785 C 87.081 77.178, 90.864 67.938, 91.309 67.250 C 91.811 66.474, 94.465 65.996, 98.309 65.989 C 101.714 65.983, 106.188 65.699, 108.250 65.358 L 112 64.738 112 58.424 C 112 52.190, 111.885 51.927, 102.831 37.555 C 97.788 29.550, 93.401 23.008, 93.081 23.017 C 92.761 23.026, 84.868 27.023, 75.539 31.900 M 115.032 61.250 C 115.003 64.606, 115.267 65, 117.535 65 C 120.248 65, 120.081 64.009, 116.605 59.500 C 115.134 57.592, 115.062 57.672, 115.032 61.250 M 117.750 67.716 C 115.470 68.062, 115 68.634, 115 71.066 C 115 74.009, 116.297 74.947, 117.554 72.913 C 118.033 72.138, 118.534 72.134, 119.300 72.900 C 120.065 73.665, 119.735 74.653, 118.154 76.336 C 116.085 78.538, 115.953 79.488, 116.217 90.262 L 116.500 101.826 124.695 95.134 C 129.202 91.454, 133.191 88.142, 133.559 87.775 C 134.233 87.100, 121.928 66.900, 121 67.160 C 120.725 67.237, 119.263 67.487, 117.750 67.716 M 98.301 68.735 L 93.102 69.101 88.144 81.800 C 85.417 88.785, 82.241 96.886, 81.087 99.803 C 79.660 103.407, 79.414 104.849, 80.318 104.303 C 81.050 103.861, 88.703 97.486, 97.325 90.136 C 110.654 78.772, 113 76.351, 113 73.967 C 113 67.695, 113.018 67.701, 98.301 68.735 M 86.650 107.164 C 68.811 124.553, 61.246 132.552, 62.167 133.054 C 62.900 133.453, 74.750 133.942, 88.500 134.140 L 113.500 134.500 113.784 123.750 C 113.940 117.838, 113.818 113, 113.512 113 C 113.206 113, 109.960 114.359, 106.297 116.019 C 101.790 118.063, 99.310 118.710, 98.623 118.023 C 97.936 117.336, 98.119 116.602, 99.190 115.754 C 100.061 115.064, 103.524 112.296, 106.887 109.602 L 113 104.705 113 93.352 C 113 87.109, 112.880 82, 112.732 82 C 112.585 82, 100.848 93.324, 86.650 107.164 M 85 104.127 C 83.625 105.261, 80.507 107.993, 78.072 110.198 C 70.761 116.817, 67.258 118.590, 49.500 124.658 L 32.500 130.467 44.496 131.664 L 56.492 132.862 69.996 119.746 C 77.423 112.532, 84.615 105.588, 85.977 104.315 C 89.038 101.455, 88.392 101.331, 85 104.127 M 127 106.833 L 116.500 111.579 116.801 117.007 C 116.967 119.993, 117.192 122.519, 117.301 122.622 C 117.537 122.843, 170.395 125.690, 170.733 125.499 C 171.219 125.225, 139.157 102.002, 138.349 102.044 C 137.882 102.068, 132.775 104.223, 127 106.833 M 110.424 110.084 C 108.543 112.162, 108.545 112.164, 111.269 110.923 C 112.771 110.239, 114 109.301, 114 108.839 C 114 107.367, 112.369 107.934, 110.424 110.084 M 91.545 149.655 C 93.438 156.720, 96.280 167.225, 97.861 173 L 100.735 183.500 101.801 179.500 C 107.300 158.865, 112.230 138.903, 111.903 138.604 C 111.681 138.402, 106.236 137.915, 99.801 137.523 L 88.103 136.809 91.545 149.655 M 117.016 138.600 C 117.030 139.397, 123.355 143.963, 156.983 167.448 C 161.667 170.719, 165.007 172.744, 164.405 171.948 C 163.803 171.152, 157.993 163.525, 151.495 155 C 144.997 146.475, 139.615 139.401, 139.536 139.280 C 139.044 138.525, 117.003 137.859, 117.016 138.600 M 41.491 159.130 C 32.696 168.005, 26.175 175.047, 27 174.779 C 27.825 174.511, 37.597 171.437, 48.716 167.948 L 68.932 161.604 64.036 152.575 C 61.343 147.610, 58.767 143.422, 58.311 143.270 C 57.855 143.118, 50.286 150.255, 41.491 159.130" stroke="none" fill="black" fill-rule="evenodd"/>
</svg>