<svg xmlns="http://www.w3.org/2000/svg" width="200" height="200" viewBox="0 0 200 200" version="1.1">
	<path d="M 113 13.523 L 66.500 18.858 63.997 15.893 L 61.493 12.929 59.656 16.341 C 57.545 20.261, 60.042 19.722, 28.500 23.071 C 16.950 24.298, 7.171 25.585, 6.770 25.931 C 6.163 26.454, 30.653 68.061, 32.811 70.175 C 33.190 70.546, 39.350 59.971, 46.500 46.675 C 59.271 22.927, 59.556 22.500, 62.670 22.500 C 65.464 22.500, 66.745 23.615, 73.471 31.899 C 77.668 37.068, 80.742 41.608, 80.301 41.987 C 79.861 42.366, 72.750 43.689, 64.500 44.928 C 56.250 46.166, 49 47.701, 48.389 48.340 C 47.778 48.978, 40.929 63.450, 33.169 80.500 L 19.061 111.500 18.867 128.519 L 18.674 145.538 26.403 156.269 C 30.654 162.171, 34.344 167, 34.602 167 C 34.861 167, 41.018 164.234, 48.286 160.854 C 61.255 154.823, 61.644 154.546, 69.235 145.974 L 76.970 137.240 71.846 121.093 C 69.027 112.211, 66.970 104.696, 67.274 104.392 C 67.810 103.857, 121.032 95.053, 123.950 95.018 C 127.776 94.971, 122.249 97.203, 109 101.055 C 93.331 105.611, 90.668 106.654, 91.455 107.927 C 91.736 108.382, 102.107 109.085, 114.501 109.489 L 137.036 110.224 140.518 114.292 C 144.120 118.500, 144.758 120, 142.947 120 C 141.648 120, 97.286 126.838, 94.461 127.473 C 92.745 127.860, 92.176 129.369, 90.871 137.008 L 89.321 146.084 95.021 153.792 C 98.156 158.031, 105.468 165.882, 111.270 171.239 L 121.818 180.977 141.151 160.739 C 151.784 149.607, 160.820 140.500, 161.232 140.500 C 161.645 140.500, 166.544 146.125, 172.121 153 C 181.294 164.310, 184.929 167.688, 184.262 164.287 C 184.132 163.620, 179.744 157.221, 174.512 150.068 C 169.281 142.915, 165 136.668, 165 136.186 C 165 135.704, 165.946 134.454, 167.101 133.408 C 169.288 131.429, 169.316 129.439, 167.359 115.250 C 166.881 111.782, 167.066 111, 168.367 111 C 170.394 111, 170.255 111.703, 174.831 78.254 L 178.696 50.009 171.598 29.254 C 164.977 9.895, 164.332 8.489, 162 8.344 C 160.625 8.258, 138.575 10.588, 113 13.523 M 113.500 16.224 C 89.300 18.976, 69.342 21.372, 69.148 21.549 C 68.955 21.726, 72.394 26.313, 76.792 31.743 L 84.787 41.615 94.931 40.128 C 103.002 38.945, 104.962 38.344, 104.520 37.191 C 102.640 32.292, 101.808 26.792, 102.798 25.802 C 103.556 25.044, 104.310 26.298, 105.391 30.117 C 108.593 41.422, 108.690 40.715, 103.833 41.470 C 87.583 43.999, 86.903 44.179, 88.110 45.632 C 88.756 46.411, 89.505 46.828, 89.774 46.559 C 90.043 46.290, 92.566 48.035, 95.382 50.437 L 100.500 54.803 117.142 45.152 C 126.295 39.843, 136.116 33.532, 138.968 31.126 C 142.303 28.313, 144.497 27.097, 145.119 27.719 C 146.762 29.362, 136.481 37.137, 120.500 46.337 C 100.538 57.829, 101.985 56.611, 105.128 59.274 C 106.574 60.498, 110.688 64.101, 114.272 67.279 L 120.788 73.058 131.926 67.945 L 143.065 62.833 148.282 66.141 C 151.152 67.960, 155.587 70.929, 158.139 72.738 C 163.310 76.405, 162.997 75.381, 165.102 95.500 C 165.735 101.550, 166.646 106.928, 167.127 107.450 C 167.678 108.050, 168.008 108.050, 168.021 107.450 C 168.033 106.928, 169.810 93.900, 171.969 78.500 L 175.896 50.500 169.198 30.760 C 162.842 12.027, 162.372 11.026, 160 11.121 C 158.625 11.176, 137.700 13.472, 113.500 16.224 M 31 25.563 C 20.275 26.841, 11.180 27.913, 10.790 27.944 C 10 28.006, 32.190 64.971, 33.028 64.989 C 33.319 64.995, 35.901 60.612, 38.766 55.250 C 41.631 49.888, 46.684 40.438, 49.996 34.250 L 56.018 23 53.259 23.119 C 51.741 23.185, 41.725 24.284, 31 25.563 M 64.673 47.519 C 57.067 48.786, 50.606 50.061, 50.314 50.353 C 50.021 50.645, 43.605 64.335, 36.055 80.774 L 22.327 110.663 21.667 127.400 L 21.007 144.137 28.056 154.010 L 35.106 163.884 39.303 162.042 C 54.372 155.430, 59.796 152.562, 62 150.039 C 63.375 148.465, 66.614 144.754, 69.198 141.792 L 73.895 136.407 68.485 119.499 C 65.509 110.200, 63.282 102.385, 63.535 102.132 C 63.788 101.879, 76.840 99.608, 92.539 97.086 C 108.238 94.564, 121.091 92.050, 121.100 91.500 C 121.108 90.950, 115.577 83.661, 108.808 75.302 L 96.500 60.104 92 62.724 C 89.525 64.166, 78.122 71.600, 66.659 79.245 C 55.112 86.946, 45.198 92.906, 44.428 92.611 C 43.146 92.119, 52.279 82.788, 79.869 56.402 C 86.774 49.798, 87.153 49.217, 85.879 47.177 C 84.198 44.486, 82.749 44.510, 64.673 47.519 M 73.382 66.482 L 58.500 81.043 75.271 70.098 C 84.495 64.078, 92.595 58.956, 93.271 58.716 C 94.591 58.248, 91.342 52.947, 89.321 52.274 C 88.740 52.080, 81.567 58.474, 73.382 66.482 M 99 58.432 C 99 59.190, 124.715 90.740, 125.805 91.320 C 126.187 91.523, 133.025 90.639, 141 89.355 C 154.877 87.121, 158.738 86.996, 157.612 88.818 C 157.329 89.276, 151.226 91.377, 144.049 93.486 C 136.872 95.595, 131.001 97.586, 131.003 97.910 C 131.004 98.235, 132.692 100.378, 134.753 102.674 L 138.500 106.847 151.348 107.506 L 164.195 108.165 163.629 105.332 C 163.318 103.775, 162.578 97.775, 161.985 92 C 160.407 76.629, 160.906 77.616, 151.552 71.391 L 143.145 65.796 132.029 70.898 C 125.916 73.704, 120.639 76, 120.303 76 C 119.968 76, 115.825 72.508, 111.097 68.240 C 101.057 59.178, 99 57.510, 99 58.432 M 128.813 94.683 C 129.534 94.972, 130.397 94.936, 130.729 94.604 C 131.061 94.272, 130.471 94.036, 129.417 94.079 C 128.252 94.127, 128.015 94.364, 128.813 94.683 M 114.250 102.246 C 108.612 103.919, 104 105.672, 104 106.143 C 104 106.615, 110.766 107, 119.035 107 C 135.520 107, 135.182 107.175, 130.107 101.250 C 127.708 98.450, 126.870 98.502, 114.250 102.246 M 142.916 112.750 C 147.177 118.458, 147.773 119, 149.792 119 C 151.214 119, 153.568 121.335, 157.311 126.461 C 162.606 133.711, 162.809 133.868, 164.501 131.999 C 165.956 130.391, 166.131 128.965, 165.566 123.288 C 165.195 119.555, 164.640 115.037, 164.334 113.250 L 163.777 110 152.321 110 L 140.864 110 142.916 112.750 M 120.078 126.097 C 106.647 128.249, 95.499 130.168, 95.306 130.361 C 95.113 130.554, 94.323 134.028, 93.550 138.082 L 92.146 145.452 97.174 152.235 C 99.940 155.966, 106.545 163.081, 111.851 168.046 L 121.500 177.073 140.216 157.787 C 150.510 147.179, 158.947 138.127, 158.966 137.671 C 159.026 136.206, 146.914 121.997, 145.686 122.092 C 145.034 122.142, 133.510 123.944, 120.078 126.097" stroke="none" fill="black" fill-rule="evenodd"/>
</svg>