<svg xmlns="http://www.w3.org/2000/svg" width="200" height="200" viewBox="0 0 200 200" version="1.1">
	<path d="M 62.718 3.307 C 61.887 4.576, 58.037 11.942, 54.163 19.675 C 49.265 29.451, 46.503 33.897, 45.096 34.265 C 43.784 34.608, 40.545 33.235, 35.877 30.357 C 27.021 24.896, 25.274 25.740, 30.617 32.897 C 34.272 37.793, 34.621 38, 39.213 38 C 41.846 38, 44 38.457, 44 39.017 C 44 39.576, 41.525 44.968, 38.500 51 C 32.865 62.236, 32.255 64, 34.005 64 C 34.559 64, 37.593 58.813, 40.749 52.473 C 43.904 46.134, 46.961 41.071, 47.541 41.223 C 50.144 41.906, 75.981 58.620, 75.990 59.628 C 75.996 60.248, 75.438 61.196, 74.750 61.735 C 74.063 62.274, 60.788 64.442, 45.250 66.554 C 24.660 69.352, 17 70.746, 17 71.696 C 17 72.413, 17.337 72.998, 17.750 72.997 C 18.163 72.995, 31.529 71.185, 47.454 68.975 C 65.246 66.506, 76.709 64.484, 77.188 63.729 C 77.617 63.053, 78.126 62.050, 78.320 61.500 C 79.065 59.388, 83.638 63.310, 87.820 69.647 C 90.197 73.247, 91.997 76.320, 91.820 76.476 C 91.644 76.632, 74.662 78.727, 54.082 81.130 C 28.304 84.141, 16.536 85.889, 16.249 86.750 C 15.925 87.724, 20.595 88, 37.417 88 C 49.288 88, 59 88.378, 59 88.840 C 59 89.302, 57.838 95.416, 56.418 102.425 C 54.998 109.435, 53.986 115.287, 54.168 115.430 C 54.351 115.574, 65.878 111.315, 79.786 105.967 L 105.071 96.243 107.970 100.457 L 110.870 104.671 79.051 117.386 L 47.232 130.102 40.616 146.853 C 36.977 156.067, 34 164.065, 34 164.627 C 34 165.436, 47.034 171.085, 59.258 175.575 C 60.576 176.059, 63.991 173.312, 72.887 164.610 C 79.416 158.225, 85.161 153, 85.654 153 C 86.147 153, 91.264 156.820, 97.025 161.490 C 102.786 166.159, 107.814 169.984, 108.197 169.990 C 108.580 169.995, 115.947 165.480, 124.569 159.956 C 133.191 154.431, 140.363 150.044, 140.508 150.206 C 140.653 150.368, 146.476 159.224, 153.448 169.887 C 161.762 182.601, 166.464 188.936, 167.109 188.291 C 167.755 187.645, 164.446 181.003, 157.497 168.995 C 151.669 158.924, 146.458 149.855, 145.915 148.842 C 145.063 147.249, 146.118 146.239, 153.715 141.368 C 158.547 138.270, 162.678 135.580, 162.894 135.390 C 163.111 135.200, 158.109 129.522, 151.778 122.772 C 145.446 116.022, 136.810 105.561, 132.585 99.525 L 124.904 88.551 130.702 86.430 C 134.914 84.889, 142.177 83.812, 157.250 82.493 C 168.662 81.494, 178 80.459, 178 80.192 C 178 79.513, 163.917 26.575, 163.687 26.391 C 159.613 23.121, 147.615 19.703, 109.515 10.958 C 85.653 5.481, 65.703 1, 65.180 1 C 64.658 1, 63.550 2.038, 62.718 3.307 M 58.217 17.855 C 54.248 25.475, 51 32.163, 51 32.716 C 51 33.707, 51.717 33.687, 59.326 32.485 L 63.152 31.881 61.496 29.354 C 60.585 27.964, 60.078 26.588, 60.370 26.297 C 60.661 26.006, 66.181 26.566, 72.637 27.542 C 82.723 29.067, 85.791 29.153, 94.438 28.153 C 104.414 26.999, 123 26.559, 123 27.478 C 123 27.740, 117.856 36.396, 111.568 46.713 C 105.281 57.029, 100.318 65.652, 100.540 65.874 C 100.763 66.096, 111.761 65.019, 124.981 63.481 C 138.202 61.944, 149.322 60.989, 149.693 61.359 C 151.082 62.749, 147.983 63.934, 128.252 69.557 L 108.003 75.328 116.087 80.616 L 124.170 85.904 129.143 83.943 C 132.550 82.601, 140.432 81.376, 154.159 80.058 C 165.182 78.999, 174.312 77.990, 174.448 77.816 C 174.584 77.642, 171.726 66.483, 168.098 53.018 L 161.500 28.536 157.187 26.158 C 154.328 24.582, 138.486 20.453, 110.187 13.909 C 86.709 8.479, 67.035 4.028, 66.467 4.018 C 65.899 4.008, 62.186 10.235, 58.217 17.855 M 65 29.834 C 65 31.562, 66.361 31.884, 70.025 31.022 C 73.081 30.303, 73.179 30.192, 70.832 30.102 C 69.364 30.046, 67.452 29.727, 66.582 29.393 C 65.712 29.059, 65 29.258, 65 29.834 M 105 29.603 C 104.175 29.751, 101.379 30.152, 98.786 30.492 L 94.073 31.112 87.854 43.396 L 81.636 55.680 83.831 58.762 C 85.037 60.457, 88.181 63.171, 90.817 64.792 L 95.609 67.741 106.855 49.254 C 113.040 39.086, 117.965 30.657, 117.800 30.522 C 117.274 30.091, 106.560 29.322, 105 29.603 M 75.253 33.228 C 69.967 33.929, 68.208 34.520, 68.753 35.413 C 73.237 42.761, 79.473 52, 79.949 52 C 80.279 52, 82.649 47.771, 85.217 42.602 C 89.781 33.414, 89.837 33.190, 87.693 32.615 C 85.162 31.937, 84.907 31.949, 75.253 33.228 M 35 34 C 35 34.550, 35.477 35, 36.059 35 C 36.641 35, 36.840 34.550, 36.500 34 C 36.160 33.450, 35.684 33, 35.441 33 C 35.198 33, 35 33.450, 35 34 M 55.500 35.674 C 48.772 36.514, 47.583 37.020, 49.094 38.403 C 52.047 41.104, 77.133 56.200, 77.710 55.623 C 78.044 55.290, 75.318 50.513, 71.653 45.008 C 64.409 34.129, 65.025 34.485, 55.500 35.674 M 111.109 67.762 C 98.767 69.273, 98.728 69.286, 101.109 71.117 C 104.300 73.571, 104.741 73.530, 118.006 69.561 C 130.646 65.779, 129.575 65.500, 111.109 67.762 M 92.619 72 C 95.321 76.083, 96.062 76.423, 99.406 75.112 C 101.028 74.476, 100.539 73.888, 96.141 71.182 C 93.297 69.432, 90.745 68, 90.471 68 C 90.196 68, 91.163 69.800, 92.619 72 M 99.250 77.706 C 98.013 77.944, 97 78.338, 97 78.582 C 97 78.825, 99.074 82.143, 101.609 85.955 L 106.217 92.885 111.359 90.820 C 114.186 89.684, 117.287 88.532, 118.250 88.260 C 121.205 87.427, 120.277 86.315, 112.666 81.571 C 105.603 77.169, 104.174 76.757, 99.250 77.706 M 70 81.894 C 51.358 84.154, 49.443 84.539, 55.594 84.791 L 62.689 85.081 60.198 97.561 C 58.827 104.424, 57.933 110.266, 58.209 110.543 C 58.750 111.084, 100.953 95.266, 102.324 94.008 C 103.416 93.006, 94.374 78.959, 92.757 79.144 C 92.065 79.223, 81.825 80.460, 70 81.894 M 114.586 92.540 C 111.333 93.891, 108.538 95.129, 108.375 95.292 C 108.212 95.454, 109.303 97.437, 110.800 99.698 L 113.521 103.808 119.282 101.464 C 122.451 100.175, 124.732 99.656, 124.352 100.310 C 123.971 100.965, 122.386 103.381, 120.830 105.680 C 119.273 107.979, 118 110.130, 118 110.460 C 118 110.789, 121.604 116.438, 126.008 123.013 C 131.650 131.434, 134.743 135.148, 136.473 135.582 C 137.823 135.921, 139.177 136.942, 139.481 137.849 C 139.784 138.757, 140.874 140.591, 141.903 141.925 L 143.772 144.349 151.465 139.554 L 159.159 134.759 155.829 131.132 C 153.998 129.137, 149.116 123.904, 144.980 119.503 C 140.843 115.101, 134.124 106.662, 130.047 100.750 C 125.971 94.838, 122.155 90.019, 121.568 90.042 C 120.981 90.066, 117.838 91.190, 114.586 92.540 M 115.500 106 C 115.160 106.550, 115.332 107, 115.882 107 C 116.432 107, 117.160 106.550, 117.500 106 C 117.840 105.450, 117.668 105, 117.118 105 C 116.568 105, 115.840 105.450, 115.500 106 M 80.359 119.741 L 49.219 132.294 43.359 147.397 C 40.137 155.704, 37.500 162.866, 37.500 163.314 C 37.500 163.762, 42.647 166.143, 48.938 168.606 L 60.376 173.084 68.938 164.778 C 73.647 160.209, 79.371 154.739, 81.657 152.623 L 85.814 148.776 97.021 157.928 C 107.385 166.392, 108.389 166.980, 110.364 165.744 C 111.539 165.009, 118.408 160.635, 125.629 156.023 L 138.759 147.638 135.800 142.829 C 134.172 140.184, 132.453 137.780, 131.980 137.488 C 131.506 137.195, 124.691 135.139, 116.833 132.918 C 108.976 130.698, 102.423 128.756, 102.271 128.604 C 102.118 128.452, 104.716 124.400, 108.044 119.599 C 112.308 113.449, 113.913 110.300, 113.480 108.936 C 113.142 107.871, 112.558 107.042, 112.183 107.094 C 111.807 107.145, 97.487 112.836, 80.359 119.741 M 111.250 119.511 C 108.912 123.069, 107.002 126.322, 107.004 126.740 C 107.007 127.563, 127.853 133.480, 128.493 132.840 C 128.938 132.396, 116.761 113.134, 116 113.078 C 115.725 113.058, 113.588 115.953, 111.250 119.511" stroke="none" fill="black" fill-rule="evenodd"/>
</svg>