<svg xmlns="http://www.w3.org/2000/svg" width="200" height="200" viewBox="0 0 200 200" version="1.1">
	<path d="M 119 23.642 C 119 23.995, 121.071 29.507, 123.602 35.892 C 126.134 42.276, 129.048 49.628, 130.079 52.229 L 131.954 56.957 125.227 52.703 C 119.963 49.373, 115.959 47.838, 106.813 45.641 L 95.126 42.833 98.674 35.167 C 104.547 22.476, 105.475 23.571, 89.501 24.337 C 81.902 24.702, 63.830 25, 49.342 25 C 27.266 25, 23 25.230, 23 26.418 C 23 27.278, 25.600 28.702, 29.597 30.032 L 36.193 32.227 35.591 36.364 C 35.024 40.252, 35.296 40.858, 40.113 46.470 L 45.238 52.441 42.369 53.120 C 40.791 53.493, 35.082 54.566, 29.683 55.504 C 23.232 56.624, 20.025 57.602, 20.328 58.354 C 20.583 58.985, 26.432 73.453, 33.326 90.507 C 40.520 108.302, 46.380 124.330, 47.079 128.124 L 48.297 134.735 42.398 142.117 L 36.500 149.500 36.146 161.205 C 35.795 172.801, 35.814 172.915, 38.146 173.467 C 39.441 173.773, 45.792 175.084, 52.260 176.380 L 64.020 178.737 81.760 167.383 L 99.500 156.029 111.101 156.014 C 117.481 156.007, 124.231 156.505, 126.101 157.122 C 128.353 157.866, 135.115 163.815, 146.137 174.749 L 162.774 191.253 163.358 185.376 C 163.679 182.144, 164.196 176.125, 164.505 172 C 164.815 167.875, 165.317 162.381, 165.622 159.792 L 166.176 155.084 173.338 154.792 C 182.852 154.404, 182.991 152.465, 173.750 149.052 C 167.446 146.723, 167.001 146.358, 167.009 143.529 C 167.013 141.863, 169.038 115.750, 171.507 85.500 C 173.976 55.250, 175.997 29.712, 175.998 28.750 C 175.999 27.788, 175.427 27, 174.727 27 C 173.794 27, 172.276 37.241, 169.057 65.250 L 164.662 103.500 160.184 110.250 C 157.722 113.963, 155.155 117, 154.482 117 C 153.808 117, 143.187 114.559, 130.879 111.577 C 114.651 107.644, 105.515 105.960, 97.642 105.450 L 86.784 104.746 101.384 97.123 C 109.414 92.930, 115.988 88.938, 115.992 88.250 C 116.003 86.536, 115.454 86.609, 99 90.511 L 84.500 93.949 80.271 89.225 C 75.825 84.259, 75.469 83.388, 76.934 81.073 C 77.706 79.853, 78.687 79.838, 83.669 80.969 C 86.876 81.696, 92.994 83.079, 97.264 84.041 L 105.029 85.790 128.264 68.823 C 141.044 59.492, 151.871 51.495, 152.325 51.053 C 152.779 50.611, 145.949 44.119, 137.147 36.625 C 122.693 24.319, 119 21.677, 119 23.642 M 44 28 C 37.675 28.331, 33.708 28.691, 35.184 28.801 C 36.661 28.910, 50.101 31.947, 65.052 35.549 C 80.003 39.151, 92.334 41.963, 92.455 41.799 C 92.901 41.192, 99 27.762, 99 27.388 C 99 26.829, 57.587 27.290, 44 28 M 129.670 43.750 C 132.694 51.313, 135.554 57.901, 136.026 58.392 C 136.519 58.905, 139.464 57.366, 142.964 54.765 L 149.044 50.246 137.097 40.123 C 130.526 34.555, 124.930 30, 124.661 30 C 124.392 30, 126.646 36.188, 129.670 43.750 M 38.361 35.502 C 37.350 38.137, 38.906 41.357, 43.835 46.828 L 48.636 52.156 60.568 50.055 C 67.131 48.899, 73.625 47.691, 75 47.370 C 76.915 46.923, 73.288 45.303, 59.500 40.450 C 49.600 36.964, 40.923 34.088, 40.219 34.057 C 39.514 34.025, 38.678 34.676, 38.361 35.502 M 73.305 42.268 C 83.093 45.671, 87.499 47.628, 86.305 48.045 C 85.312 48.392, 77.075 49.944, 68 51.496 C 58.925 53.047, 51.328 54.455, 51.117 54.625 C 50.906 54.794, 54.607 59.407, 59.342 64.874 C 66.964 73.677, 68.419 74.895, 72.043 75.507 C 74.293 75.887, 76.286 76.041, 76.470 75.849 C 77.022 75.275, 90.034 46.931, 90.276 45.776 C 90.465 44.876, 62.515 36.986, 59.500 37.088 C 58.950 37.106, 65.162 39.438, 73.305 42.268 M 86.396 61.250 C 82.494 69.638, 79.439 76.668, 79.607 76.873 C 79.775 77.078, 85.416 78.518, 92.142 80.072 L 104.371 82.899 118.213 72.809 C 125.827 67.260, 132.281 62.355, 132.556 61.909 C 132.831 61.464, 129.781 58.902, 125.778 56.215 C 119.836 52.228, 116.532 50.842, 107.780 48.666 C 101.885 47.200, 96.258 46, 95.276 46 C 93.951 46, 91.663 49.930, 86.396 61.250 M 42.500 56.002 C 40.300 56.426, 35.221 57.317, 31.213 57.983 C 24.446 59.107, 23.973 59.347, 24.576 61.347 C 24.933 62.531, 25.558 63.861, 25.965 64.302 C 26.796 65.204, 61.112 73.221, 61.686 72.647 C 62.134 72.199, 48.181 55.555, 47.199 55.365 C 46.814 55.291, 44.700 55.578, 42.500 56.002 M 37.633 93.703 C 43.824 108.909, 48.785 122.690, 49.715 127.270 L 51.293 135.040 45.146 142.969 L 39 150.898 39 160.878 L 39 170.858 44.750 172.024 C 47.913 172.666, 53.420 173.790, 56.989 174.523 L 63.478 175.856 81.369 164.428 L 99.261 153 105.881 152.921 L 112.500 152.842 98.820 148.171 C 91.295 145.602, 84.878 143.233, 84.559 142.906 C 83.858 142.189, 109.230 122.240, 112.323 121.075 C 113.520 120.624, 120.350 119.943, 127.500 119.562 C 134.650 119.180, 141.400 118.598, 142.500 118.269 C 143.747 117.895, 137.911 116.026, 127 113.303 C 111.806 109.513, 107.589 108.859, 95 108.347 C 87.025 108.022, 79.923 107.447, 79.217 107.070 C 78.435 106.651, 82.683 103.888, 90.103 99.987 C 96.796 96.469, 101.838 93.446, 101.308 93.269 C 100.778 93.093, 96.554 93.865, 91.922 94.985 L 83.500 97.021 78.931 91.867 L 74.362 86.712 73.060 89.856 C 72.343 91.585, 71.437 93, 71.045 93 C 69.358 93, 69.179 91.555, 70.540 88.923 C 72.562 85.012, 72.373 83.975, 68.954 80.216 C 66.178 77.164, 64.716 76.649, 48.234 72.918 C 38.480 70.710, 29.742 68.679, 28.815 68.405 C 27.570 68.037, 29.877 74.653, 37.633 93.703 M 71.991 79.489 C 72.671 80.308, 73.674 80.702, 74.220 80.364 C 74.824 79.991, 74.681 79.413, 73.857 78.890 C 71.700 77.524, 70.641 77.863, 71.991 79.489 M 155.688 122.181 L 145.119 138.439 154.132 141.814 C 159.089 143.670, 163.321 145.013, 163.535 144.798 C 164.110 144.224, 167.160 106.827, 166.672 106.339 C 166.443 106.110, 161.500 113.239, 155.688 122.181 M 126 122.386 L 112.500 123.500 100.753 132.668 L 89.007 141.836 106.195 147.565 L 123.383 153.294 142.912 152.599 C 161.304 151.945, 163.913 151.494, 163.985 148.958 C 163.993 148.660, 159.370 146.721, 153.712 144.648 C 148.053 142.575, 142.888 140.549, 142.235 140.145 C 141.403 139.631, 142.343 137.468, 145.356 132.955 C 147.727 129.405, 150.468 125.263, 151.448 123.750 L 153.230 121 146.365 121.136 C 142.589 121.210, 133.425 121.773, 126 122.386 M 166 151 C 166 151.550, 167.463 151.993, 169.250 151.985 C 171.716 151.973, 172.138 151.736, 171 151 C 169.035 149.730, 166 149.730, 166 151 M 134.233 155.850 C 132.188 156.436, 133.376 157.908, 146.338 170.842 L 160.710 185.185 161.390 176.342 C 161.764 171.479, 162.342 164.688, 162.673 161.250 L 163.276 155 149.888 155.100 C 142.525 155.155, 135.480 155.492, 134.233 155.850" stroke="none" fill="black" fill-rule="evenodd"/>
</svg>