<svg xmlns="http://www.w3.org/2000/svg" width="200" height="200" viewBox="0 0 200 200" version="1.1">
	<path d="M 164 15.565 C 154.925 16.842, 140.525 18.801, 132 19.919 C 49.467 30.744, 44.564 31.542, 36.011 35.556 C 30.816 37.994, 28.097 39.811, 28.413 40.633 C 28.683 41.337, 32.770 47.061, 37.496 53.352 C 43.604 61.484, 46.580 64.677, 47.793 64.400 C 48.732 64.186, 57.090 62.208, 66.367 60.005 C 75.644 57.802, 84.194 56.014, 85.367 56.032 C 86.540 56.050, 91.987 58.877, 97.471 62.314 L 107.441 68.564 109.148 76.032 C 110.087 80.139, 110.550 83.767, 110.178 84.094 C 109.275 84.885, 90.720 90.054, 90.298 89.631 C 90.116 89.450, 88.463 82.471, 86.624 74.124 C 83.314 59.102, 82.624 57.042, 81.338 58.328 C 80.623 59.043, 86.793 90.046, 88.057 92.092 C 88.643 93.041, 91.606 92.552, 100.662 90.011 C 107.173 88.184, 112.849 86.387, 113.276 86.019 C 113.703 85.650, 113.343 82.292, 112.477 78.556 C 111.611 74.821, 111.088 71.579, 111.315 71.352 C 111.542 71.125, 119.041 75.392, 127.979 80.835 L 144.229 90.732 149.010 99.519 L 153.791 108.306 136.271 128.696 C 126.636 139.910, 118.560 148.893, 118.325 148.659 C 118.091 148.424, 116.144 137.778, 114 125 C 111.856 112.222, 109.958 101.625, 109.783 101.449 C 109.608 101.274, 104.388 114.429, 98.183 130.683 C 91.978 146.936, 87.036 160.364, 87.201 160.523 C 87.670 160.975, 168.446 158.849, 168.943 158.372 C 169.187 158.138, 166.685 146.774, 163.383 133.118 L 157.380 108.290 160.675 104.395 C 162.487 102.253, 163.975 100.275, 163.982 100 C 163.988 99.725, 159.900 97.025, 154.897 94 C 147.990 89.823, 145.340 87.598, 143.881 84.750 L 141.959 81 144.230 81.024 C 145.478 81.038, 148.472 81.504, 150.882 82.059 C 153.292 82.615, 155.400 82.933, 155.567 82.767 C 155.733 82.600, 152.070 76.622, 147.426 69.482 L 138.983 56.500 141.850 54 C 153.093 44.194, 161.919 35.530, 161.270 34.937 C 160.846 34.551, 153.172 31.825, 144.215 28.879 C 135.258 25.933, 128.283 23.418, 128.715 23.288 C 130.543 22.741, 182.357 16.024, 182.632 16.299 C 182.798 16.465, 181.087 32.778, 178.831 52.550 L 174.728 88.500 179.438 128.500 C 182.028 150.500, 184.226 169.129, 184.323 169.898 C 184.459 170.972, 175.792 172.869, 147 178.068 L 109.500 184.839 98 173.672 C 91.675 167.530, 79.975 156.103, 72 148.278 L 57.500 134.052 44.599 154.132 C 36.181 167.234, 31.453 173.740, 30.992 172.856 C 29.882 170.722, 22.588 130.079, 23.204 129.462 C 23.508 129.158, 34.499 126.399, 47.628 123.331 C 60.758 120.262, 71.904 117.381, 72.397 116.928 C 73.166 116.223, 61.050 86.945, 59.084 84.759 C 58.717 84.351, 51.686 90.156, 43.459 97.659 L 28.500 111.301 27.696 92.538 C 27.253 82.219, 27.068 73.599, 27.284 73.383 C 27.500 73.167, 36.974 74.032, 48.338 75.304 C 64.436 77.108, 69 77.340, 69 76.355 C 69 75.659, 67.538 74.849, 65.750 74.553 C 59.949 73.593, 24.796 69.868, 24.567 70.188 C 23.913 71.105, 25.364 117.041, 26.040 116.794 C 26.481 116.632, 33.803 110.118, 42.309 102.318 L 57.776 88.137 63.806 101.552 L 69.836 114.967 66.168 115.951 C 64.151 116.491, 52.852 119.209, 41.060 121.990 C 29.269 124.771, 19.548 127.148, 19.459 127.273 C 19.370 127.398, 21.617 139.842, 24.453 154.927 L 29.608 182.353 43.554 160.703 C 51.224 148.796, 57.758 139.041, 58.073 139.027 C 58.389 139.012, 69.838 149.912, 83.516 163.250 C 101.705 180.985, 108.939 187.430, 110.443 187.238 C 118.635 186.197, 186.619 173.730, 187.073 173.186 C 187.388 172.809, 185.376 153.652, 182.602 130.615 L 177.557 88.730 181.352 54.615 C 183.439 35.852, 185.396 18.813, 185.701 16.750 C 186.235 13.137, 186.150 13.004, 183.378 13.122 C 181.795 13.190, 173.075 14.289, 164 15.565 M 120.187 25.342 C 119.689 25.979, 116.262 31.620, 112.572 37.879 L 105.862 49.257 107.026 54.379 C 110.050 67.691, 108.543 65.890, 125.039 75.893 C 133.300 80.902, 140.256 85, 140.496 85 C 140.736 85, 139.992 83.406, 138.842 81.457 C 137.693 79.509, 136.957 77.710, 137.207 77.460 C 137.457 77.210, 140.257 77.485, 143.429 78.071 C 146.601 78.658, 149.371 78.962, 149.586 78.748 C 149.800 78.533, 146.831 73.527, 142.988 67.622 C 139.145 61.718, 136 56.680, 136 56.426 C 136 55.986, 145.025 47.388, 153.425 39.825 L 157.351 36.290 139.221 30.237 C 125.975 25.815, 120.848 24.496, 120.187 25.342 M 97 27.279 C 89.025 28.386, 82.365 29.399, 82.201 29.529 C 82.036 29.659, 84.399 35.059, 87.451 41.529 C 90.503 48, 93 53.420, 93 53.574 C 93 53.727, 92.290 53.999, 91.422 54.177 C 90.505 54.365, 93.097 56.477, 97.615 59.224 C 101.889 61.822, 105.567 63.767, 105.789 63.545 C 106.011 63.323, 105.463 59.934, 104.571 56.014 L 102.950 48.886 108.636 39.193 C 111.763 33.862, 114.976 28.488, 115.776 27.250 C 117.168 25.096, 117.107 25.006, 114.365 25.133 C 112.789 25.206, 104.975 26.171, 97 27.279 M 66.750 31.767 C 61.388 32.611, 57 33.571, 57 33.900 C 57.001 34.916, 85.692 52, 87.397 52 C 88.279 52, 89 51.841, 89 51.647 C 89 49.787, 78.655 30.029, 77.728 30.117 C 77.052 30.181, 72.112 30.924, 66.750 31.767 M 38.719 37.293 C 34.447 39.248, 32.118 40.865, 32.424 41.663 C 32.692 42.361, 36.094 47.167, 39.985 52.343 L 47.059 61.754 57.279 59.327 C 62.901 57.993, 70.785 56.174, 74.799 55.285 C 80.556 54.011, 81.824 53.419, 80.799 52.481 C 80.085 51.827, 73.086 47.401, 65.247 42.646 C 55.909 36.981, 50.048 34.033, 48.247 34.096 C 46.736 34.148, 42.448 35.587, 38.719 37.293 M 152.213 99.840 L 155.500 105.913 157.964 103.470 C 160.748 100.709, 160.605 100.475, 153.713 96.516 L 148.926 93.767 152.213 99.840 M 99.736 134.240 C 94.916 146.926, 91.131 157.465, 91.325 157.659 C 91.754 158.087, 165.157 156.176, 165.609 155.724 C 166.172 155.161, 155.552 112, 154.850 112 C 154.479 112, 146.195 121.338, 136.441 132.750 C 126.688 144.162, 118.173 154.085, 117.519 154.800 C 116.588 155.817, 115.624 151.797, 113.085 136.300 C 111.300 125.410, 109.539 115.302, 109.170 113.837 C 108.620 111.653, 106.928 115.313, 99.736 134.240" stroke="none" fill="black" fill-rule="evenodd"/>
</svg>