<svg xmlns="http://www.w3.org/2000/svg" width="200" height="200" viewBox="0 0 200 200" version="1.1">
	<path d="M 56.669 22.801 C 41.175 29.526, 37.169 31.637, 38.353 32.454 C 39.186 33.029, 44.174 36.107, 49.437 39.293 L 59.006 45.087 55.376 50.793 C 53.379 53.932, 48.763 60.100, 45.118 64.500 C 41.474 68.900, 37.890 73.271, 37.154 74.213 C 35.992 75.702, 36.505 77.117, 41.086 85.055 C 44.067 90.220, 47.271 94.533, 48.465 94.987 C 49.625 95.428, 54.495 96.604, 59.287 97.600 C 64.079 98.596, 68 99.731, 68 100.122 C 68 100.514, 65.627 103.730, 62.726 107.269 L 57.452 113.703 51.089 107.852 C 47.590 104.633, 44.451 102.010, 44.113 102.021 C 43.776 102.033, 39.592 109.345, 34.816 118.271 C 26.755 133.336, 26.289 134.520, 28.316 134.779 C 29.517 134.932, 38.600 134.186, 48.500 133.120 C 58.400 132.055, 66.616 131.296, 66.759 131.434 C 66.901 131.572, 56.660 138.576, 44.001 147 C 21.049 162.271, 18.142 164.476, 19.357 165.690 C 19.709 166.043, 29.612 165.268, 41.363 163.969 L 62.727 161.606 75.028 170.398 C 81.794 175.233, 87.841 179.386, 88.467 179.626 C 89.282 179.938, 90.269 169.308, 91.936 142.281 C 93.217 121.502, 94.353 104.391, 94.459 104.257 C 94.754 103.887, 122.807 101, 126.107 101 C 131.548 101, 129.006 102.709, 120.989 104.442 C 115.818 105.559, 112.679 106.762, 112.136 107.836 C 110.775 110.525, 102.698 141.031, 103.211 141.544 C 103.469 141.802, 109.939 139.034, 117.590 135.393 C 139.622 124.907, 148.439 120.894, 147.613 121.727 C 147.191 122.152, 140.468 127.468, 132.673 133.540 L 118.500 144.579 117.753 154.993 C 117.343 160.721, 117.343 165.689, 117.753 166.034 C 118.164 166.378, 123.518 168.822, 129.651 171.464 L 140.801 176.267 158.151 163.707 C 167.693 156.800, 176.353 150.510, 177.395 149.731 C 179.230 148.360, 179.056 147.393, 172.037 119.907 C 164.861 91.804, 164.742 91.461, 160.918 87.888 L 157.053 84.275 171.012 74.456 C 178.689 69.056, 184.798 64.465, 184.588 64.255 C 184.378 64.045, 173.809 64.631, 161.102 65.557 L 137.997 67.241 132.286 62.370 C 129.145 59.692, 124.118 55.217, 121.115 52.426 L 115.654 47.352 125.482 35.426 C 130.887 28.867, 135.887 22.869, 136.593 22.098 C 137.683 20.907, 140.219 21.568, 153.438 26.493 C 161.997 29.681, 169 32.414, 169 32.566 C 169 32.718, 162.927 36.140, 155.504 40.171 C 148.082 44.202, 142.020 47.725, 142.033 48 C 142.065 48.649, 169.641 59.555, 170.669 59.325 C 173.553 58.679, 170.500 56.754, 159.926 52.553 C 151.601 49.245, 148.228 47.466, 149.153 46.872 C 149.894 46.396, 156.012 42.987, 162.750 39.296 C 169.488 35.604, 174.997 32.340, 174.993 32.042 C 174.986 31.441, 138.979 18, 137.375 18 C 136.821 18, 131.236 24.260, 124.965 31.912 L 113.563 45.824 110.032 42.751 C 108.089 41.061, 104.370 37.776, 101.766 35.450 L 97.031 31.223 99.016 25.455 C 100.107 22.282, 101 19.532, 101 19.343 C 101 19.155, 96.985 19, 92.077 19 C 84.018 19, 82.866 18.758, 80.182 16.500 C 78.548 15.125, 77.051 14.044, 76.856 14.097 C 76.660 14.151, 67.576 18.067, 56.669 22.801 M 75 18 C 73.793 18.780, 73.951 18.972, 75.809 18.985 C 77.097 18.993, 77.845 18.558, 77.500 18 C 76.757 16.798, 76.861 16.798, 75 18 M 90.530 21.892 L 86.560 22.500 90.634 25.718 L 94.708 28.937 95.854 26.421 C 96.484 25.038, 97 23.252, 97 22.453 C 97 20.929, 96.882 20.919, 90.530 21.892 M 53.781 26.857 C 47.885 29.411, 43.055 31.725, 43.047 32 C 43.039 32.275, 47.293 34.975, 52.500 38 C 57.707 41.025, 61.975 43.891, 61.984 44.369 C 62.021 46.366, 54.235 57.774, 46.798 66.618 L 38.820 76.107 43.699 84.289 L 48.579 92.470 58.539 94.720 C 64.018 95.958, 69.132 96.864, 69.906 96.735 C 70.679 96.606, 72.095 94.250, 73.053 91.500 C 74.012 88.750, 77.728 78.119, 81.312 67.876 L 87.829 49.251 77.307 35.876 C 71.520 28.519, 66.271 22.436, 65.642 22.357 C 65.014 22.279, 59.676 24.304, 53.781 26.857 M 73.138 26.250 C 84.863 41.321, 89.035 46.066, 89.484 44.844 C 89.756 44.105, 90.855 40.925, 91.926 37.777 L 93.873 32.055 88.187 27.041 C 82.645 22.156, 82.338 22.028, 76.166 22.014 L 69.832 22 73.138 26.250 M 93.480 41.467 L 90.757 48.932 95.065 54.216 C 97.434 57.122, 99.677 59.865, 100.048 60.312 C 100.712 61.110, 111 49.578, 111 48.035 C 111 47.601, 107.671 44.265, 103.601 40.623 L 96.202 34.001 93.480 41.467 M 108.179 56.463 C 105.331 60.018, 103 63.207, 103 63.549 C 103 64.033, 125.617 93.351, 129.093 97.374 C 129.522 97.870, 131.084 97.818, 132.705 97.253 C 135.861 96.153, 152 85.081, 152 84.017 C 152 83.648, 148.573 80.322, 144.383 76.624 L 136.767 69.902 129.883 70.580 C 123.992 71.161, 123 71.031, 123 69.679 C 123 68.466, 124.285 68.030, 128.535 67.800 L 134.071 67.500 124.125 58.750 C 118.654 53.938, 113.994 50, 113.769 50 C 113.543 50, 111.028 52.909, 108.179 56.463 M 83.246 70.683 C 79.828 80.408, 77.197 88.531, 77.400 88.733 C 77.602 88.935, 81.941 84.016, 87.041 77.800 C 92.141 71.585, 96.894 65.817, 97.602 64.983 C 98.684 63.707, 98.253 62.631, 94.899 58.233 C 92.704 55.355, 90.583 53, 90.184 53 C 89.785 53, 86.663 60.957, 83.246 70.683 M 78.925 91.931 L 57.500 117.942 51.277 111.777 C 47.855 108.386, 44.884 105.812, 44.675 106.056 C 43.253 107.722, 31.010 131.344, 31.379 131.712 C 31.632 131.966, 40.926 131.194, 52.030 129.997 C 65.201 128.577, 72.561 128.161, 73.199 128.799 C 74.235 129.835, 67.449 134.796, 40.744 152.525 C 32.628 157.913, 26.152 162.485, 26.352 162.685 C 26.551 162.885, 34.066 162.137, 43.050 161.024 C 52.035 159.911, 60.357 159, 61.544 159 C 62.730 159, 68.767 162.626, 74.959 167.059 C 81.150 171.491, 86.422 174.911, 86.674 174.659 C 86.926 174.407, 88.209 157.843, 89.524 137.850 C 90.840 117.858, 91.935 101.446, 91.958 101.379 C 91.981 101.312, 98.631 100.683, 106.735 99.980 C 114.839 99.277, 122.451 98.431, 123.650 98.101 C 125.638 97.553, 124.830 96.230, 114.494 83.115 C 108.259 75.203, 102.526 68.097, 101.754 67.325 C 100.548 66.119, 97.320 69.598, 78.925 91.931 M 157.500 68.557 C 149.250 69.254, 142.173 69.864, 141.772 69.912 C 141.139 69.989, 144.401 73.100, 152.736 80.372 L 154.973 82.323 163.236 76.629 C 167.781 73.497, 172.625 70.059, 174 68.990 C 176.931 66.709, 178.786 66.758, 157.500 68.557 M 147.228 91.187 C 143.229 93.993, 140.079 96.373, 140.228 96.475 C 140.378 96.577, 145.338 96.230, 151.250 95.703 C 158.286 95.077, 162 94.340, 162 93.569 C 162 92.454, 155.913 85.953, 154.952 86.042 C 154.704 86.064, 151.228 88.380, 147.228 91.187 M 138.516 103.001 L 114.531 108.686 110.697 122.441 C 108.588 130.006, 107.058 136.392, 107.298 136.631 C 107.537 136.871, 119.315 131.608, 133.470 124.937 C 150.066 117.115, 159.551 113.151, 160.175 113.775 C 160.800 114.400, 154.163 120.165, 141.487 130.010 C 130.677 138.406, 121.638 145.780, 121.402 146.395 C 121.166 147.011, 120.866 151.313, 120.736 155.957 L 120.500 164.400 130 168.647 C 135.225 170.983, 140.071 172.704, 140.770 172.471 C 141.887 172.098, 173.195 149.924, 175.324 147.998 C 176.105 147.291, 164.355 99.156, 163.097 97.908 C 162.768 97.583, 151.707 99.874, 138.516 103.001 M 134.813 100.683 C 135.534 100.972, 136.397 100.936, 136.729 100.604 C 137.061 100.272, 136.471 100.036, 135.417 100.079 C 134.252 100.127, 134.015 100.364, 134.813 100.683" stroke="none" fill="black" fill-rule="evenodd"/>
</svg>