<svg xmlns="http://www.w3.org/2000/svg" width="200" height="200" viewBox="0 0 200 200" version="1.1">
	<path d="M 133.500 19.059 L 109.500 25.872 71.007 22.512 C 49.836 20.664, 32.420 19.247, 32.304 19.363 C 32.188 19.479, 31.622 29.682, 31.045 42.037 C 30.469 54.391, 29.806 66.862, 29.571 69.750 C 29.239 73.831, 29.462 75, 30.572 75 C 31.358 75, 32.033 74.213, 32.073 73.250 C 32.932 52.728, 34.674 22.993, 35.039 22.628 C 35.562 22.104, 98.882 27.548, 99.504 28.170 C 99.712 28.379, 86.409 32.345, 69.941 36.983 C 50.494 42.461, 40 45.870, 40 46.708 C 40 48.431, 38.411 48.607, 72.859 43.065 L 103.218 38.181 109.414 40.961 C 119.575 45.520, 118.852 45.571, 129.248 39.569 C 134.474 36.552, 139.318 33.952, 140.013 33.792 C 140.827 33.604, 142.116 36.527, 143.631 41.998 L 145.984 50.496 140.225 56.255 L 134.466 62.014 112.033 58.572 C 99.695 56.678, 89.353 55.260, 89.050 55.419 C 88.748 55.578, 79.050 61.042, 67.500 67.560 C 47.035 79.109, 46.590 79.428, 50 80.093 C 51.925 80.468, 63.743 82.042, 76.262 83.591 C 88.782 85.140, 98.457 86.712, 97.762 87.085 C 97.068 87.458, 87.275 89.646, 76 91.947 C 51.430 96.962, 52 96.808, 52 98.428 C 52 99.399, 55.493 99.846, 66.066 100.226 C 73.802 100.504, 80.536 101.136, 81.030 101.630 C 81.524 102.124, 82.057 104.043, 82.214 105.893 C 82.489 109.127, 82.296 109.329, 77.287 111.056 C 71.942 112.899, 61.852 119.180, 63.552 119.605 C 64.074 119.736, 66.696 120.139, 69.379 120.502 L 74.258 121.161 70.129 125.368 C 67.858 127.682, 66 129.832, 66 130.145 C 66 130.458, 71.831 135.137, 78.957 140.544 C 91.535 150.086, 91.945 150.517, 92.957 155.236 C 94.831 163.971, 95.977 163.390, 78.411 162.607 L 62.821 161.911 53.419 171.131 C 48.248 176.202, 43.837 180.160, 43.617 179.926 C 43.397 179.691, 39.285 167.125, 34.479 152 L 25.742 124.500 26.413 102.500 C 26.782 90.400, 27.348 78.362, 27.671 75.750 C 28.141 71.943, 27.961 71, 26.765 71 C 25.123 71, 24.585 76.916, 23.401 108 L 22.772 124.500 32.349 154.380 C 37.616 170.813, 42.143 184.477, 42.409 184.743 C 42.675 185.009, 47.624 180.623, 53.407 174.997 L 63.921 164.768 81.009 165.500 L 98.097 166.233 97.556 163.867 C 95.412 154.471, 95.229 152.941, 96.347 153.752 C 96.981 154.212, 99.671 156.314, 102.325 158.422 C 106.427 161.682, 112.146 163.944, 140.508 173.525 C 165.203 181.867, 173.996 184.453, 174.367 183.485 C 174.666 182.708, 169.634 177.631, 161.949 170.956 L 149.029 159.733 156.264 151.817 C 160.244 147.464, 164.538 142.615, 165.807 141.043 L 168.115 138.184 156.095 131.342 C 149.484 127.579, 144.170 124.204, 144.287 123.843 C 144.404 123.481, 150.611 116.506, 158.081 108.343 C 165.551 100.179, 173.158 91.786, 174.985 89.692 L 178.309 85.884 175.600 58.692 C 174.110 43.736, 172.643 30.208, 172.339 28.629 L 171.788 25.758 164.144 33.142 C 159.940 37.204, 154.640 42.248, 152.367 44.352 L 148.235 48.177 145.995 39.700 C 144.764 35.038, 143.431 30.697, 143.033 30.053 C 142.536 29.249, 138.780 30.934, 131.025 35.441 C 124.819 39.049, 119.405 42, 118.995 42 C 118.585 42, 114.931 40.495, 110.875 38.655 L 103.500 35.311 86.500 38.128 C 77.150 39.677, 69.110 40.828, 68.634 40.684 C 66.761 40.119, 108.765 29, 112.774 29 C 116.408 29, 157.201 16.133, 158.875 14.458 C 159.146 14.188, 158.947 13.580, 158.433 13.106 C 157.900 12.615, 147.202 15.169, 133.500 19.059 M 159.104 41.672 L 149.030 51.500 150.856 57.960 C 152.502 63.781, 152.995 64.501, 155.841 65.239 C 159.647 66.225, 159.929 67.729, 156.469 68.597 C 154.728 69.034, 154.093 69.742, 154.433 70.866 C 154.705 71.765, 156.506 78.300, 158.436 85.389 C 160.365 92.478, 162.119 98.452, 162.332 98.666 C 162.546 98.879, 165.483 96.100, 168.860 92.490 C 173.780 87.231, 174.994 85.289, 174.972 82.713 C 174.929 77.705, 170.202 32.869, 169.660 32.327 C 169.394 32.061, 164.644 36.266, 159.104 41.672 M 142.122 58.376 L 137.868 62.710 142.574 63.355 C 150.330 64.418, 150.080 64.584, 148.520 59.402 C 147.759 56.872, 146.965 54.632, 146.756 54.423 C 146.547 54.213, 144.461 55.992, 142.122 58.376 M 72.110 67.928 C 55.442 77.445, 54.861 77.881, 58.110 78.427 C 59.975 78.741, 72.234 80.350, 85.353 82.004 C 98.472 83.657, 109.578 85.239, 110.034 85.521 C 110.489 85.802, 111.147 85.570, 111.497 85.006 C 111.846 84.441, 109.883 80.271, 107.136 75.739 L 102.140 67.500 116.024 67 C 136.320 66.269, 135.637 64.935, 113.254 61.589 C 102.939 60.047, 93.375 58.608, 92 58.392 C 90.216 58.112, 84.519 60.844, 72.110 67.928 M 135.750 65.662 C 136.438 65.940, 137.563 65.940, 138.250 65.662 C 138.938 65.385, 138.375 65.158, 137 65.158 C 135.625 65.158, 135.063 65.385, 135.750 65.662 M 113.789 69.927 L 107.077 70.500 110.152 75.500 C 111.843 78.250, 113.531 80.833, 113.903 81.239 C 114.275 81.646, 117.473 79.059, 121.011 75.489 L 127.442 69 123.971 69.177 C 122.062 69.274, 117.480 69.611, 113.789 69.927 M 123.573 76.615 L 115.646 84.191 118.073 88.667 C 119.408 91.130, 121.007 93.570, 121.626 94.091 C 122.366 94.714, 128.191 93.099, 138.626 89.377 C 147.357 86.264, 154.627 83.615, 154.783 83.492 C 154.939 83.368, 154.218 80.170, 153.182 76.384 L 151.299 69.500 141.399 69.270 L 131.500 69.039 123.573 76.615 M 140 91.728 C 131.475 94.748, 124.336 97.371, 124.135 97.557 C 123.578 98.075, 137.090 120.830, 138.794 122.244 C 140.052 123.288, 141.852 121.822, 150.145 112.993 C 160.987 101.449, 160.553 102.746, 157.224 91.869 L 155.500 86.238 140 91.728 M 103.479 96.026 L 94.500 105.053 106 100.962 C 112.325 98.711, 117.823 96.554, 118.217 96.168 C 118.989 95.412, 114.360 87, 113.172 87 C 112.780 87, 108.418 91.062, 103.479 96.026 M 86.699 92.387 C 75.808 94.684, 67.220 96.887, 67.615 97.282 C 68.010 97.677, 71.807 98, 76.053 98 L 83.773 98 84.444 102.477 C 84.813 104.939, 85.566 107.232, 86.116 107.572 C 86.666 107.912, 91.702 103.653, 97.308 98.107 C 102.914 92.562, 107.275 88.067, 107 88.117 C 106.725 88.168, 97.589 90.089, 86.699 92.387 M 104.500 104.169 C 89.617 109.531, 86.991 111.069, 87.015 114.405 C 87.047 118.689, 87.968 118.943, 109.056 120.487 C 120.300 121.311, 130.725 121.988, 132.221 121.992 C 134.940 122, 134.938 121.993, 128.153 110.751 C 124.419 104.563, 120.719 99.416, 119.932 99.313 C 119.144 99.209, 112.200 101.394, 104.500 104.169 M 76.500 114.168 C 69.598 116.879, 68.753 118, 73.613 118 C 76.766 118, 78.241 117.357, 80.500 115 C 83.799 111.557, 83.374 111.468, 76.500 114.168 M 82 117.500 C 80.960 118.753, 81.104 119, 82.878 119 C 84.098 119, 85 118.362, 85 117.500 C 85 116.675, 84.605 116, 84.122 116 C 83.640 116, 82.685 116.675, 82 117.500 M 73.649 125.353 L 68.798 129.628 79.642 137.738 C 85.606 142.198, 90.567 145.766, 90.667 145.666 C 91.317 145.017, 85.665 122.407, 84.700 121.793 C 81.965 120.055, 78.332 121.225, 73.649 125.353 M 88.986 122.750 C 88.978 123.162, 90.174 129.236, 91.642 136.247 L 94.313 148.993 101.783 154.616 C 108.879 159.957, 110.662 160.708, 137.357 169.619 C 152.814 174.779, 165.841 179, 166.307 179 C 166.772 179, 162.393 174.854, 156.576 169.786 C 150.759 164.718, 146.020 160.106, 146.043 159.536 C 146.067 158.966, 150.101 154.225, 155.007 149 C 165.266 138.074, 165.610 139.818, 151.612 131.789 C 144.363 127.632, 142.397 126.896, 140.952 127.798 C 139.542 128.678, 138.907 128.518, 137.840 127.014 C 136.657 125.345, 133.872 124.941, 114 123.556 C 87.952 121.742, 89.004 121.776, 88.986 122.750" stroke="none" fill="black" fill-rule="evenodd"/>
</svg>