<svg xmlns="http://www.w3.org/2000/svg" width="200" height="200" viewBox="0 0 200 200" version="1.1">
	<path d="M 128.250 23.748 C 114.837 24.037, 114 24.171, 114 26.027 C 114 28.397, 115.161 28.399, 100.500 26 C 87.419 23.860, 74.119 23.564, 40.250 24.661 C 25.258 25.147, 20 25.637, 20 26.546 C 20 27.222, 23.577 29.217, 27.949 30.980 C 34.894 33.779, 36.416 34.869, 39.991 39.604 C 43.508 44.263, 45.582 45.776, 54.760 50.380 L 65.438 55.737 48.219 66.973 C 38.749 73.153, 31 78.837, 31 79.605 C 31 80.372, 31.201 81, 31.448 81 C 31.694 81, 36.081 78.368, 41.198 75.152 C 46.314 71.935, 54.153 67.019, 58.618 64.227 L 66.736 59.152 68.888 62.063 C 70.698 64.510, 71.180 67.084, 71.916 78.237 C 72.397 85.532, 72.632 91.669, 72.437 91.875 C 72.242 92.082, 65.328 93.006, 57.072 93.928 C 48.815 94.851, 41.818 95.848, 41.522 96.144 C 41.226 96.440, 39.624 102.941, 37.962 110.591 C 36.299 118.241, 34.710 125.248, 34.430 126.162 C 33.863 128.013, 33.045 127.773, 51.204 131.079 L 62.908 133.211 57.883 139.855 L 52.859 146.500 44.459 147 L 36.059 147.500 63.957 164.803 L 91.854 182.107 111.677 169.172 L 131.500 156.237 155.750 149.877 C 169.088 146.379, 180 143.230, 180 142.880 C 180 142.529, 169.537 134.275, 156.750 124.538 C 143.963 114.800, 133.389 106.533, 133.253 106.166 C 133.117 105.800, 140.767 103.527, 150.253 101.115 C 159.739 98.704, 167.824 96.445, 168.220 96.095 C 168.736 95.640, 176 27.858, 176 23.502 C 176 23.017, 157.806 23.111, 128.250 23.748 M 56.831 26.946 C 44.913 27.251, 34.923 27.740, 34.631 28.034 C 34.338 28.328, 46.339 30.286, 61.299 32.387 C 76.260 34.487, 89.807 36.454, 91.405 36.759 C 93.454 37.149, 94.100 36.971, 93.596 36.156 C 92.682 34.676, 93.241 34.697, 102.662 36.500 C 113.184 38.513, 113 38.549, 113 34.519 C 113 31.730, 112.553 30.935, 110.750 30.518 C 105.298 29.259, 82.820 26.018, 80.767 26.196 C 79.520 26.303, 68.749 26.641, 56.831 26.946 M 123.750 26.742 C 120.037 26.934, 117 27.437, 117 27.860 C 117 28.283, 123.862 29.687, 132.250 30.980 C 146.875 33.236, 150.165 34.168, 148.692 35.641 C 148.100 36.233, 122.192 32.682, 117.863 31.416 C 116.601 31.047, 116.118 31.803, 115.755 34.719 C 115.496 36.798, 115.332 38.570, 115.392 38.655 C 115.523 38.843, 142.146 43.676, 146.844 44.365 C 151.147 44.996, 151.557 45.483, 150.232 48.390 C 149.631 49.709, 146.159 60.624, 142.516 72.644 C 138.873 84.665, 135.440 95.938, 134.886 97.696 C 133.131 103.274, 131.344 100.660, 130.096 90.690 C 129.463 85.636, 128.685 79.436, 128.366 76.913 L 127.785 72.325 120.237 71.152 C 116.085 70.506, 112.476 70.191, 112.216 70.451 C 111.956 70.710, 110.733 79.828, 109.499 90.712 L 107.254 110.500 109.241 113.803 C 110.334 115.619, 110.961 117.372, 110.635 117.699 C 110.103 118.230, 125.351 128.017, 148.441 141.965 L 156.731 146.972 161.616 145.557 C 164.302 144.779, 168.429 143.638, 170.786 143.023 L 175.073 141.903 151.286 123.816 C 123.693 102.834, 126.554 105.113, 127.111 104.556 C 127.355 104.311, 136.093 101.904, 146.528 99.206 C 163.673 94.774, 165.571 94.070, 166.239 91.901 C 166.645 90.580, 168.120 77.125, 169.517 62 C 170.914 46.875, 172.320 32.587, 172.642 30.250 L 173.227 26 151.864 26.196 C 140.114 26.304, 127.463 26.549, 123.750 26.742 M 29.813 28.683 C 30.534 28.972, 31.397 28.936, 31.729 28.604 C 32.061 28.272, 31.471 28.036, 30.417 28.079 C 29.252 28.127, 29.015 28.364, 29.813 28.683 M 39 32.318 C 39.275 32.591, 47.037 35.827, 56.250 39.510 L 73 46.206 73.073 50.853 C 73.272 63.544, 73.568 64.182, 89.478 86.285 C 97.667 97.660, 104.499 106.834, 104.661 106.672 C 104.942 106.391, 109 72.098, 109 70.003 C 109 69.451, 107.930 69, 106.622 69 C 105.315 69, 103.792 68.438, 103.239 67.750 C 102.686 67.063, 100.547 60.650, 98.486 53.500 C 96.425 46.350, 94.650 40.390, 94.541 40.255 C 94.432 40.120, 83.354 38.443, 69.922 36.529 C 56.490 34.614, 43.925 32.772, 42 32.435 C 40.075 32.097, 38.725 32.045, 39 32.318 M 42.872 38.761 C 44.516 41.832, 47.216 43.642, 58.733 49.392 C 64.912 52.476, 70.128 55, 70.326 55 C 70.524 55, 70.419 53.381, 70.093 51.402 C 69.504 47.828, 69.413 47.770, 56.036 42.402 C 48.631 39.431, 42.428 37, 42.251 37 C 42.074 37, 42.354 37.793, 42.872 38.761 M 98 41.734 C 98 42.266, 98.428 44.006, 98.950 45.601 C 99.473 47.195, 101.075 52.438, 102.511 57.250 C 104.790 64.892, 105.407 66, 107.376 66 C 109.518 66, 109.692 65.414, 110.844 54.362 C 111.512 47.961, 111.932 42.606, 111.779 42.461 C 110.857 41.590, 98 40.912, 98 41.734 M 114.957 43.125 C 114.933 43.331, 114.297 48.675, 113.543 55 C 112.789 61.325, 112.293 66.622, 112.440 66.771 C 112.588 66.920, 116.456 67.701, 121.036 68.506 C 125.616 69.312, 129.674 70.473, 130.054 71.088 C 130.434 71.702, 131.046 75.196, 131.413 78.853 C 133.046 95.091, 132.660 95.442, 140.146 70.911 C 143.907 58.585, 146.988 48.250, 146.992 47.944 C 146.997 47.638, 141.037 46.582, 133.750 45.599 C 126.463 44.615, 119.263 43.572, 117.750 43.280 C 116.237 42.989, 114.981 42.919, 114.957 43.125 M 69.015 56.750 C 69.024 57.163, 69.467 58.175, 70 59 C 70.784 60.213, 70.972 60.069, 70.985 58.250 C 70.993 57.013, 70.550 56, 70 56 C 69.450 56, 69.007 56.337, 69.015 56.750 M 74.334 74 C 74.658 76.475, 75.047 82.095, 75.197 86.490 L 75.470 94.480 70.985 95.107 C 68.518 95.452, 61.302 96.289, 54.948 96.965 L 43.397 98.196 40.534 111.600 C 38.959 118.972, 37.865 125.198, 38.102 125.435 C 38.339 125.672, 44.788 127.022, 52.434 128.434 C 60.080 129.846, 66.551 131.218, 66.815 131.481 C 67.078 131.745, 64.415 135.785, 60.897 140.460 C 54.908 148.417, 54.265 148.960, 50.809 148.980 C 48.779 148.991, 46.901 149.351, 46.636 149.780 C 46.371 150.208, 53.207 154.913, 61.827 160.235 C 70.447 165.557, 80.732 171.936, 84.683 174.410 L 91.866 178.908 110.683 166.502 C 127.949 155.118, 130.273 153.888, 138.879 151.585 C 144.038 150.205, 148.424 148.909, 148.627 148.707 C 148.829 148.504, 138.374 146.156, 125.392 143.488 L 101.789 138.638 102.484 129.369 L 103.179 120.100 95.840 122.384 C 91.803 123.640, 87.569 124.972, 86.430 125.344 C 84.544 125.960, 83.865 124.711, 78.784 111.260 C 75.717 103.142, 73.323 96.376, 73.463 96.225 C 73.603 96.073, 80.302 100.011, 88.350 104.975 C 96.398 109.939, 103.212 114, 103.491 114 C 105.435 114, 102.212 108.699, 89.416 90.847 C 81.394 79.656, 74.586 70.275, 74.287 70 C 73.988 69.725, 74.009 71.525, 74.334 74 M 81.703 111.234 C 83.664 116.330, 85.617 120.886, 86.043 121.358 C 86.840 122.243, 102 118.192, 102 117.094 C 102 116.755, 98.297 114.234, 93.771 111.489 C 89.245 108.745, 83.876 105.480, 81.839 104.234 L 78.137 101.968 81.703 111.234 M 105.654 125.199 C 105.304 128.114, 105.014 131.850, 105.010 133.500 L 105.002 136.500 125.667 140.750 C 137.033 143.088, 146.478 144.855, 146.657 144.677 C 147.007 144.326, 110.115 121.365, 107.733 120.451 C 106.631 120.028, 106.141 121.147, 105.654 125.199" stroke="none" fill="black" fill-rule="evenodd"/>
</svg>