<svg xmlns="http://www.w3.org/2000/svg" width="200" height="200" viewBox="0 0 200 200" version="1.1">
	<path d="M 18.516 75.750 C 18.075 111.913, 17.666 145.045, 17.607 149.378 L 17.500 157.256 33 168.074 C 41.525 174.024, 48.841 178.917, 49.257 178.946 C 49.673 178.976, 49.735 175.963, 49.393 172.250 L 48.772 165.500 75.004 161.759 L 101.235 158.018 105.367 161.241 C 107.640 163.014, 114.778 168.635, 121.229 173.732 C 127.680 178.829, 133.530 182.976, 134.229 182.947 C 134.928 182.918, 144.248 177.856, 154.939 171.697 L 174.378 160.500 174.113 90.008 C 173.968 51.237, 173.722 19.389, 173.567 19.234 C 173.364 19.031, 150.888 49.558, 145 58.035 C 144.642 58.550, 105.147 56.639, 104.407 56.071 C 104.356 56.032, 104.581 54.361, 104.907 52.358 L 105.500 48.717 118.750 44.213 C 136.018 38.342, 136.230 37, 119.886 37 L 107.773 37 108.458 32.250 C 109.640 24.057, 110.081 23.005, 112.358 22.928 C 113.536 22.888, 125.038 21.876, 137.917 20.678 C 154.137 19.169, 161.463 18.116, 161.751 17.250 C 162.294 15.616, 156.999 15.648, 121 17.500 C 105.325 18.306, 90.307 18.974, 87.628 18.983 L 82.755 19 83.186 28 L 83.616 37 73.558 36.923 C 64.270 36.852, 63.796 36.756, 67.370 35.673 L 71.240 34.500 60.870 30.116 C 55.167 27.705, 49.081 25.130, 47.347 24.393 C 44.736 23.285, 44.106 23.282, 43.686 24.376 C 43.341 25.275, 46.169 26.943, 52.516 29.585 C 57.652 31.723, 61.355 33.780, 60.746 34.157 C 60.136 34.534, 56.794 35.378, 53.319 36.034 C 49.171 36.817, 47 37.703, 47 38.613 C 47 39.746, 50.394 40, 65.500 40 L 84 40 84.011 42.750 C 84.017 44.263, 84.291 47.126, 84.620 49.114 C 85.175 52.470, 84.996 52.806, 82.116 53.810 C 79.920 54.575, 74.499 54.595, 63.557 53.878 C 55.056 53.321, 46.714 53.008, 45.019 53.183 L 41.938 53.500 47.853 60 L 53.768 66.500 66.134 62.234 C 72.935 59.888, 79.935 57.975, 81.689 57.984 C 84.689 57.999, 84.908 58.251, 85.393 62.250 C 86.078 67.894, 86.901 77.996, 86.678 78.014 C 84.830 78.158, 39.682 85.988, 39.477 86.199 C 39.317 86.365, 40.875 106.075, 42.939 130 C 45.003 153.925, 46.628 173.596, 46.549 173.714 C 46.470 173.832, 40.402 169.795, 33.064 164.744 L 19.723 155.559 20.363 141.030 C 20.716 133.038, 21.297 100.288, 21.656 68.250 C 22.230 16.941, 22.130 10, 20.813 10 C 19.510 10, 19.215 18.435, 18.516 75.750 M 90.500 21.726 L 85.500 22.082 85.829 29.541 L 86.158 37 95.476 37 L 104.795 37 105.897 30.668 C 107.647 20.619, 107.821 20.974, 101.250 21.185 C 98.088 21.287, 93.250 21.530, 90.500 21.726 M 159.105 43.203 L 147.969 58.500 153.407 59.006 C 162.771 59.876, 162.060 62.296, 152.096 63.463 C 149.018 63.824, 145.752 64.335, 144.838 64.599 C 143.182 65.077, 131 81.036, 131 82.727 C 131 83.216, 136.400 84.914, 143 86.500 C 152.008 88.665, 154.993 89.772, 154.972 90.942 C 154.936 92.945, 133.404 163.929, 132.584 164.749 C 130.646 166.687, 130.436 160.833, 131.588 137 C 132.293 122.425, 132.899 106.787, 132.935 102.250 L 133 94 127.630 94 L 122.261 94 103.977 119.250 C 82.708 148.622, 84.262 146.673, 83.086 145.450 C 82.527 144.869, 84.433 138.860, 87.986 130 L 93.800 115.500 90.870 113.633 C 87.571 111.531, 87.569 111.552, 92.061 101.023 C 93.590 97.439, 94.764 94.435, 94.670 94.346 C 94.469 94.155, 63.613 101.028, 63.415 101.308 C 62.751 102.245, 52.822 161.155, 53.254 161.588 C 53.726 162.059, 90.172 157.150, 99.097 155.414 C 101.254 154.994, 104.443 157.058, 117.961 167.623 C 130.952 177.776, 134.559 180.138, 135.865 179.346 C 136.764 178.800, 145.242 173.957, 154.705 168.582 L 171.909 158.810 171.317 93.655 C 170.992 57.820, 170.616 28.367, 170.483 28.203 C 170.349 28.040, 165.229 34.790, 159.105 43.203 M 113.355 39.738 C 108.050 40.042, 107.132 40.385, 106.645 42.251 C 106.334 43.440, 106.258 44.591, 106.476 44.810 C 106.941 45.275, 123 40.035, 123 39.418 C 123 39.188, 122.213 39.087, 121.250 39.193 C 120.287 39.299, 116.735 39.544, 113.355 39.738 M 87 45.333 C 87 48.267, 87.258 50.925, 87.573 51.240 C 87.889 51.555, 91.443 50.705, 95.471 49.351 C 101.040 47.478, 102.937 46.362, 103.384 44.694 C 104.609 40.125, 104.399 40, 95.500 40 L 87 40 87 45.333 M 94.738 52.296 C 88.071 54.692, 88.764 55.961, 96.750 55.985 C 101.920 56, 102 55.954, 102 53 C 102 49.551, 102.296 49.580, 94.738 52.296 M 51.153 59.620 L 54.773 63.240 63.137 60.387 L 71.500 57.533 65.500 56.875 C 62.200 56.513, 56.807 56.168, 53.517 56.109 L 47.533 56 51.153 59.620 M 88.630 67.617 C 89.008 73.053, 89.359 78.152, 89.409 78.948 C 89.480 80.071, 84.154 81.286, 65.649 84.368 L 41.799 88.339 42.332 91.920 C 42.625 93.889, 44.122 110.688, 45.659 129.250 C 47.195 147.813, 48.691 163, 48.983 163 C 49.275 163, 52.063 148.786, 55.178 131.413 C 58.292 114.040, 61.058 99.609, 61.323 99.343 C 61.896 98.771, 68.240 97.160, 84.326 93.501 L 96.152 90.812 97.931 86.656 C 101.039 79.398, 101.303 78, 99.567 78 C 97.663 78, 97.666 78.413, 99.487 68.069 C 100.303 63.431, 100.862 59.528, 100.729 59.396 C 100.596 59.263, 97.665 58.835, 94.214 58.445 L 87.941 57.735 88.630 67.617 M 103.574 61.139 C 102.170 67.506, 101.059 75.392, 101.503 75.836 C 102.183 76.517, 102.446 76.098, 104.223 71.500 L 105.770 67.500 123.498 64.804 C 133.248 63.321, 141.413 61.920, 141.642 61.691 C 141.872 61.462, 136.308 60.979, 129.280 60.618 C 122.251 60.257, 113.709 59.695, 110.297 59.369 C 104.375 58.804, 104.071 58.884, 103.574 61.139 M 123.500 67.607 C 115.250 68.842, 108.399 69.885, 108.276 69.926 C 107.756 70.097, 104.881 76.214, 105.180 76.513 C 105.592 76.925, 125.547 82, 126.756 82 C 127.691 82, 139.460 66.054, 138.850 65.615 C 138.658 65.476, 131.750 66.372, 123.500 67.607 M 103.068 81.319 C 102.611 82.518, 101.532 85.188, 100.670 87.250 L 99.102 91 109.978 91 C 120.575 91, 120.909 90.931, 122.956 88.329 C 124.112 86.859, 124.707 85.355, 124.279 84.985 C 123.850 84.616, 119.090 83.149, 113.699 81.725 L 103.898 79.137 103.068 81.319 M 126.655 87.829 C 124.118 90.632, 124.565 91, 130.500 91 L 136 91 136 96.622 C 136 99.714, 135.510 112.024, 134.912 123.979 C 134.313 135.933, 133.976 146.791, 134.162 148.107 C 134.459 150.212, 151.029 97.449, 151.370 93.313 C 151.468 92.119, 148.909 91.023, 141 88.873 C 128.549 85.487, 128.760 85.503, 126.655 87.829 M 96.430 97.750 C 92.484 107.017, 91.083 111.002, 91.765 111.022 C 92.169 111.034, 93.549 111.851, 94.830 112.837 L 97.161 114.630 93.588 123.490 C 91.624 128.362, 90.153 132.486, 90.320 132.653 C 90.684 133.017, 118 95.464, 118 94.600 C 118 94.270, 113.506 94, 108.013 94 L 98.027 94 96.430 97.750" stroke="none" fill="black" fill-rule="evenodd"/>
</svg>