<svg xmlns="http://www.w3.org/2000/svg" width="200" height="200" viewBox="0 0 200 200" version="1.1">
	<path d="M 114.216 14.764 L 92.933 20.340 89.174 16.670 C 87.107 14.652, 85.102 13, 84.718 13 C 84.334 13, 82.377 15.475, 80.369 18.500 C 78.360 21.525, 76.668 24.036, 76.608 24.081 C 76.549 24.125, 64.907 25.181, 50.737 26.427 C 36.567 27.673, 24.718 28.949, 24.405 29.261 C 24.093 29.574, 23.401 51.959, 22.869 79.007 L 21.900 128.184 24.450 145.050 C 25.853 154.327, 27 162.161, 27 162.459 C 27 162.756, 34.538 163, 43.752 163 L 60.504 163 72 169 C 78.323 172.300, 83.858 175, 84.301 175 C 85.085 175, 84.246 112.797, 83.426 110.187 C 83.200 109.464, 82.545 109.163, 81.973 109.517 C 81.263 109.956, 81.153 119.893, 81.627 140.737 L 82.323 171.314 71.491 165.657 L 60.659 160 44.969 160 L 29.279 160 26.986 143.250 C 24.738 126.832, 24.711 125.566, 25.596 79.332 C 26.093 53.389, 26.725 31.946, 27 31.681 C 27.598 31.104, 73.321 27.171, 73.905 27.646 C 74.387 28.039, 65.213 42, 64.472 42 C 64.190 42, 59.872 39.947, 54.876 37.438 C 49.879 34.928, 45.591 33.076, 45.346 33.321 C 44.750 33.916, 50.130 65.280, 51.001 66.291 C 51.375 66.726, 54.541 62.676, 58.035 57.291 C 61.529 51.906, 64.694 47.129, 65.069 46.675 C 65.599 46.033, 79.066 51.923, 80.897 53.598 C 81.116 53.798, 80.258 57.820, 78.990 62.537 L 76.686 71.112 64.593 81.739 L 52.500 92.366 50.956 84.002 C 50.033 79.001, 48.868 75.456, 48.060 75.187 C 46.333 74.611, 46.796 78.228, 51.969 105.750 C 54.114 117.163, 56.395 129.537, 57.037 133.250 C 57.791 137.604, 58.676 140, 59.532 140 C 61.015 140, 60.781 140.759, 71.665 100.572 C 76.028 84.465, 80.054 71.465, 80.750 71.239 C 81.718 70.925, 82 74.784, 82 88.333 C 82 101.444, 82.314 105.938, 83.250 106.250 C 83.938 106.480, 91.614 100.394, 100.309 92.726 C 109.005 85.059, 116.317 78.983, 116.559 79.225 C 116.800 79.467, 116.565 85.928, 116.036 93.582 C 115.077 107.447, 115.038 107.603, 105.961 134.500 L 96.848 161.500 98.053 169.500 C 99.713 180.515, 100.221 181.193, 103.243 176.416 C 104.605 174.262, 113.208 160.901, 122.360 146.724 C 131.512 132.547, 139.030 120.397, 139.068 119.724 C 139.244 116.544, 141.438 124.608, 146.922 148.584 C 154.546 181.920, 155.080 184, 156.012 184 C 156.438 184, 162.936 177.506, 170.452 169.569 L 184.117 155.138 164.990 131.410 L 145.864 107.681 153.211 100.091 C 157.251 95.916, 166.574 86.290, 173.928 78.699 C 183.358 68.966, 186.986 64.586, 186.237 63.837 C 185.488 63.088, 180.589 64.304, 169.613 67.962 C 161.054 70.815, 153.577 72.857, 152.998 72.499 C 152.420 72.141, 150.227 68.395, 148.125 64.174 C 144.476 56.846, 144.203 55.599, 142.084 36.500 C 139.034 9.001, 139.030 8.983, 137.122 9.094 C 136.230 9.145, 125.922 11.697, 114.216 14.764 M 115.050 17.324 L 95.599 22.368 108.639 34.934 L 121.680 47.500 120.947 58.500 C 120.367 67.207, 120.500 69.824, 121.587 71.056 C 122.753 72.379, 122.737 72.834, 121.481 74.090 C 120.409 75.163, 119.723 79.808, 118.980 91.034 L 117.956 106.500 108.828 134 C 100.162 160.109, 99.737 161.791, 100.422 167.250 C 100.819 170.413, 101.449 172.976, 101.822 172.947 C 103.294 172.833, 135.536 121.201, 136.935 116.718 C 139.741 107.728, 140.769 110.157, 148.695 144.500 C 152.757 162.100, 156.307 177.149, 156.583 177.942 C 156.922 178.916, 160.798 175.680, 168.542 167.958 C 174.844 161.674, 180 156.062, 180 155.486 C 180 154.910, 171.680 144.103, 161.511 131.470 C 151.343 118.836, 143.038 108.050, 143.056 107.500 C 143.074 106.950, 151.360 97.950, 161.468 87.500 C 171.577 77.050, 179.535 68.384, 179.153 68.243 C 178.771 68.102, 172.506 69.983, 165.230 72.423 L 152.002 76.860 149.640 72.680 C 141.514 58.297, 142.002 60.047, 139.202 35.250 C 137.614 21.185, 136.166 12.055, 135.538 12.140 C 134.967 12.217, 125.747 14.550, 115.050 17.324 M 82.659 20 C 80.656 23.391, 81.594 23.865, 86.567 21.975 C 89.181 20.981, 89.209 20.888, 87.477 18.975 C 85.128 16.379, 84.751 16.459, 82.659 20 M 87.500 24.583 C 86.950 24.753, 84.583 25.385, 82.240 25.987 C 78.430 26.967, 77.399 27.949, 72.492 35.280 L 67.004 43.477 74.252 47.138 C 78.238 49.151, 81.558 50.731, 81.628 50.649 C 82.063 50.141, 89.039 24.715, 88.797 24.518 C 88.634 24.383, 88.050 24.413, 87.500 24.583 M 92 24.472 C 92 24.732, 90.425 30.757, 88.500 37.862 C 86.575 44.967, 85 51.196, 85 51.705 C 85 52.679, 91.301 56, 93.150 56 C 93.745 56, 97.330 53.254, 101.116 49.897 C 104.902 46.540, 108 43.987, 108 44.222 C 108 44.457, 106.875 47.957, 105.500 52 C 104.125 56.043, 103 59.848, 103 60.456 C 103 61.064, 106.311 63.200, 110.359 65.203 L 117.718 68.844 118.305 58.672 L 118.891 48.500 106.196 36.301 C 94.730 25.284, 92 23.009, 92 24.472 M 50.165 47.806 C 51.205 53.688, 52.189 58.935, 52.351 59.468 C 52.513 60, 55.013 56.926, 57.908 52.636 C 60.802 48.347, 63.020 44.702, 62.835 44.536 C 62.651 44.370, 59.299 42.632, 55.386 40.673 L 48.273 37.112 50.165 47.806 M 98.741 55.545 C 96.119 57.801, 96.077 57.971, 97.898 58.945 C 99.537 59.822, 99.974 59.515, 100.912 56.823 C 101.515 55.092, 101.894 53.562, 101.755 53.423 C 101.615 53.284, 100.258 54.239, 98.741 55.545 M 85 59.500 C 85 63.602, 85.844 63.859, 88.842 60.668 L 91.033 58.336 88.469 57.168 C 84.969 55.573, 85 55.552, 85 59.500 M 89.351 63.780 L 85.202 67.500 84.574 85.944 C 84.229 96.088, 84.163 104.170, 84.428 103.905 C 84.693 103.640, 87.915 94.665, 91.587 83.961 C 95.259 73.258, 98.446 64.018, 98.670 63.428 C 98.978 62.618, 94.931 59.849, 93.703 60.030 C 93.591 60.046, 91.633 61.734, 89.351 63.780 M 81.079 65.583 C 81.127 66.748, 81.364 66.985, 81.683 66.188 C 81.972 65.466, 81.936 64.603, 81.604 64.271 C 81.272 63.939, 81.036 64.529, 81.079 65.583 M 95.936 79.750 C 93.059 88.412, 90.461 96.162, 90.161 96.970 C 89.862 97.779, 95.778 93.101, 103.308 86.575 C 110.839 80.048, 117 74.140, 117 73.445 C 117 72.422, 103.294 64, 101.630 64 C 101.375 64, 98.812 71.088, 95.936 79.750 M 63.580 86.208 C 55.329 93.395, 53.015 95.953, 53.370 97.500 C 53.623 98.600, 55.079 106.588, 56.607 115.250 C 58.135 123.912, 59.647 131, 59.966 131 C 60.628 131, 75.109 77.775, 74.588 77.255 C 74.402 77.069, 69.448 81.097, 63.580 86.208" stroke="none" fill="black" fill-rule="evenodd"/>
</svg>