<svg xmlns="http://www.w3.org/2000/svg" width="200" height="200" viewBox="0 0 200 200" version="1.1">
	<path d="M 97.657 23.803 C 97.440 24.186, 96.958 26.188, 96.586 28.250 C 96.214 30.313, 95.817 31.995, 95.705 31.990 C 95.592 31.984, 90.426 30.449, 84.224 28.579 L 72.948 25.178 69.680 30.339 C 67.883 33.178, 64.408 38.744, 61.956 42.709 C 58.872 47.700, 56.884 49.930, 55.500 49.956 C 54.400 49.977, 46.543 49.325, 38.040 48.507 C 28.192 47.559, 22.233 47.367, 21.623 47.977 C 21.013 48.587, 21.180 49.122, 22.083 49.451 C 24.002 50.151, 54.740 53.274, 58.500 53.152 C 60.150 53.098, 62.033 53.388, 62.684 53.795 C 63.805 54.497, 68.195 78.026, 67.372 78.925 C 67.158 79.159, 55.211 80.284, 40.823 81.425 C 3.654 84.373, 5.294 87, 44.303 87 C 58.354 87, 64.863 87.467, 73.907 89.123 C 80.283 90.290, 85.832 91.545, 86.239 91.911 C 86.645 92.278, 72.360 103.735, 54.495 117.373 C 36.630 131.011, 21.740 142.611, 21.407 143.151 C 19.869 145.638, 23.032 145.181, 33.990 141.331 L 45.825 137.173 53.460 148.071 C 60.218 157.718, 62.935 160.520, 77.127 172.484 L 93.159 186 103.921 186 C 109.839 186, 121.391 186.254, 129.591 186.564 L 144.500 187.127 159.908 175.073 C 168.382 168.442, 175.440 162.893, 175.592 162.741 C 175.744 162.589, 172.186 158.542, 167.684 153.747 L 159.500 145.030 136.500 154.559 C 123.850 159.800, 112.704 164.181, 111.732 164.294 C 110.565 164.430, 106.412 160.248, 99.523 152 L 89.083 139.500 100.291 137.376 C 106.456 136.208, 118.147 134.014, 126.271 132.502 L 141.043 129.752 151.914 117.626 C 157.892 110.957, 162.640 105.345, 162.465 105.156 C 162.289 104.966, 146.925 108.465, 128.322 112.930 C 109.720 117.394, 93.375 121.286, 92 121.578 C 90.205 121.960, 94.150 117.461, 106 105.617 L 122.500 89.125 149.772 88.313 L 177.044 87.500 171.059 78.250 C 167.767 73.162, 164.740 69, 164.332 69 C 163.925 69, 158.695 70.387, 152.711 72.082 C 146.727 73.777, 141.688 75.014, 141.514 74.832 C 141.340 74.649, 150.403 65.773, 161.655 55.106 C 172.906 44.439, 181.749 35.382, 181.306 34.980 C 180.196 33.974, 152.855 24.994, 150.999 25.026 C 150.174 25.040, 143.237 28.409, 135.582 32.512 L 121.663 39.972 116.046 38.236 C 111.377 36.793, 109.385 35.370, 104.241 29.803 C 100.837 26.120, 97.875 23.420, 97.657 23.803 M 138.688 33.898 C 125.584 40.959, 124.920 41.534, 128.937 42.337 C 130.622 42.674, 131.988 43.299, 131.973 43.725 C 131.957 44.151, 128.232 51.810, 123.694 60.745 L 115.443 76.989 107.960 69.245 C 103.845 64.985, 98.530 59.417, 96.149 56.870 L 91.819 52.240 93.498 44.009 C 94.422 39.481, 94.800 35.425, 94.339 34.995 C 93.325 34.049, 76.768 28.985, 74.855 29.036 C 73.626 29.069, 61.947 46.749, 61.177 49.743 C 60.980 50.509, 61.852 51, 63.408 51 C 65.250 51, 66.093 51.627, 66.434 53.250 C 67.653 59.066, 71.040 81.293, 70.751 81.583 C 70.571 81.762, 65.716 82.292, 59.962 82.761 L 49.500 83.613 57.500 84.332 C 65.703 85.070, 87.675 88.600, 91.811 89.845 C 93.822 90.450, 90.118 93.599, 63.377 114.020 C 46.467 126.934, 31.926 138.053, 31.065 138.728 C 30.204 139.403, 33.225 138.616, 37.779 136.978 C 42.332 135.340, 46.237 134, 46.455 134 C 46.674 134, 50.438 139.063, 54.819 145.250 C 63.639 157.707, 64.118 158.196, 82.269 173.344 L 95.039 184 119.381 184 L 143.724 184 157.968 173.024 L 172.213 162.049 165.948 155.524 C 162.502 151.936, 159.193 149, 158.594 149 C 157.996 149, 147.072 153.275, 134.320 158.500 C 121.568 163.725, 110.690 168, 110.146 168 C 109.070 168, 86.248 140.811, 85.342 138.448 C 85.027 137.629, 85.376 136.983, 86.143 136.961 C 86.889 136.940, 99.193 134.744, 113.484 132.081 L 139.468 127.239 147.649 118.370 C 152.149 113.491, 155.745 109.414, 155.640 109.308 C 155.535 109.203, 147.361 111.148, 137.475 113.632 C 111.020 120.279, 82 126.798, 82 126.095 C 82 125.757, 90.892 116.598, 101.759 105.741 L 121.518 86 139.509 85.869 C 149.404 85.797, 160.756 85.460, 164.735 85.119 L 171.970 84.500 167.841 78.228 C 164.993 73.902, 163.214 72.098, 162.106 72.414 C 145.318 77.196, 136.877 79.167, 135.478 78.630 C 134.118 78.108, 136.561 75.304, 147.128 65.262 C 154.483 58.273, 164.283 48.891, 168.906 44.412 L 177.312 36.270 164.905 32.135 C 158.080 29.861, 151.823 28.016, 150.999 28.036 C 150.174 28.056, 144.635 30.694, 138.688 33.898 M 99.180 31.183 C 99.390 32.614, 100.495 33.630, 102.390 34.134 L 105.280 34.902 102.453 31.951 C 99.071 28.421, 98.766 28.349, 99.180 31.183 M 97.636 37.750 C 97.362 38.712, 96.623 42.097, 95.994 45.271 L 94.849 51.043 98.847 55.771 C 101.046 58.372, 105.545 63.151, 108.844 66.391 L 114.844 72.283 121.452 59.095 C 125.087 51.842, 127.826 45.528, 127.540 45.064 C 126.421 43.255, 121.910 42.995, 118.873 44.566 C 115.793 46.158, 115.727 46.140, 112.131 42.630 C 110.134 40.681, 106.531 38.391, 104.124 37.543 C 98.621 35.602, 98.245 35.614, 97.636 37.750 M 115.500 42 C 115.840 42.550, 116.316 43, 116.559 43 C 116.802 43, 117 42.550, 117 42 C 117 41.450, 116.523 41, 115.941 41 C 115.359 41, 115.160 41.450, 115.500 42" stroke="none" fill="black" fill-rule="evenodd"/>
</svg>