<svg xmlns="http://www.w3.org/2000/svg" width="200" height="200" viewBox="0 0 200 200" version="1.1">
	<path d="M 36.142 26.827 L 25.041 39.410 37.771 44.510 C 44.772 47.315, 51.368 49.940, 52.430 50.343 C 54.138 50.991, 53.800 51.568, 49.489 55.361 C 46.531 57.964, 45.051 59.913, 45.719 60.326 C 47.063 61.157, 59.452 51.011, 58.312 50.012 C 57.865 49.621, 51.425 46.910, 44 43.988 C 36.575 41.066, 30.333 38.543, 30.128 38.382 C 29.924 38.221, 33.890 33.401, 38.943 27.671 L 48.131 17.252 59.315 20.101 C 65.467 21.668, 75.675 25.150, 82 27.838 C 92.930 32.484, 93.516 32.882, 93.813 35.863 C 93.990 37.629, 93.657 39, 93.051 39 C 92.460 39, 84.263 36.728, 74.835 33.952 C 65.408 31.175, 56.989 29.174, 56.126 29.505 C 53.714 30.431, 55.477 31.224, 75 38 C 84.627 41.341, 93.011 44.395, 93.632 44.787 C 94.253 45.179, 95.082 49.592, 95.474 54.594 L 96.188 63.687 86.940 64.344 C 81.854 64.705, 69.437 65, 59.346 65 C 44.504 65, 41 65.261, 41 66.366 C 41 67.242, 47.098 69.791, 58.007 73.473 C 67.361 76.631, 75.222 79.551, 75.477 79.962 C 75.966 80.754, 37.276 97.613, 36.582 96.911 C 36.359 96.685, 33.162 89.638, 29.476 81.250 C 25.790 72.862, 22.451 66, 22.054 66 C 20.034 66, 20.791 68.424, 27.606 83.773 C 31.673 92.932, 35 100.555, 35 100.713 C 35 100.871, 32.525 101, 29.500 101 C 26.475 101, 24 101.214, 24 101.475 C 24 102.857, 47.345 158.678, 48.333 159.657 C 48.975 160.294, 55.389 163.560, 62.587 166.916 L 75.673 173.018 109.515 176.509 C 128.129 178.429, 144.124 180, 145.061 180 C 146.145 180, 150.078 174.958, 155.884 166.123 L 165.003 152.247 168.579 129.373 L 172.154 106.500 171.117 88.660 C 170.081 70.845, 170.084 70.787, 173.524 48.660 C 175.418 36.472, 177.134 25.510, 177.336 24.300 C 177.538 23.090, 177.124 21.878, 176.415 21.606 C 175.576 21.284, 171.450 27.645, 164.608 39.806 C 158.823 50.087, 153.507 59.295, 152.795 60.267 C 151.581 61.924, 150.587 61.711, 136.891 56.868 L 122.282 51.701 137.813 46.345 C 146.355 43.399, 153.521 40.813, 153.736 40.597 C 153.952 40.382, 145.437 38.091, 134.814 35.507 C 124.191 32.923, 115.221 30.636, 114.880 30.426 C 114.180 29.993, 115.425 22.242, 116.341 21.326 C 116.919 20.748, 145.225 17.116, 149.750 17.038 C 151.066 17.016, 152 16.378, 152 15.500 C 152 13.674, 154.723 13.678, 99.704 15.431 C 64.908 16.540, 56.005 16.557, 52.076 15.520 L 47.244 14.245 36.142 26.827 M 80 18.949 L 68.500 19.500 89 24.381 C 100.275 27.066, 109.974 29.443, 110.554 29.663 C 111.161 29.894, 112.032 27.504, 112.606 24.032 L 113.604 18 102.552 18.199 C 96.473 18.309, 86.325 18.647, 80 18.949 M 93.750 29.651 C 96.706 31.208, 97 31.784, 97 36.017 L 97 40.671 102.750 42.276 C 105.912 43.159, 108.792 43.571, 109.148 43.191 C 109.505 42.811, 110.098 40.221, 110.467 37.435 L 111.137 32.370 103.318 30.674 C 89.515 27.678, 90.132 27.744, 93.750 29.651 M 146.138 77.940 C 131.212 104.307, 119 126.097, 119 126.361 C 119 126.625, 120.374 127.143, 122.053 127.512 C 126.305 128.446, 125.185 130.438, 120.201 130.806 L 116.057 131.112 108.322 144.716 L 100.588 158.320 86.597 143.910 L 72.606 129.500 90.720 129 C 100.683 128.725, 109.086 128.248, 109.393 127.941 C 109.700 127.634, 105.687 126.354, 100.476 125.098 C 95.264 123.841, 91 122.491, 91 122.098 C 91 121.704, 94.678 118.045, 99.173 113.966 L 107.346 106.550 104.250 105.917 C 102.547 105.569, 84.629 104.952, 64.433 104.546 C 33.846 103.932, 27.802 104.033, 28.250 105.154 C 37.131 127.370, 49.535 156.773, 50.380 157.608 C 50.996 158.218, 57.125 161.339, 64 164.544 L 76.500 170.371 108.500 173.648 C 126.100 175.450, 141.630 176.941, 143.010 176.962 C 145.146 176.994, 146.804 175.022, 154.114 163.750 L 162.708 150.500 165.989 128.500 C 169.198 106.988, 169.250 106.112, 168.316 89 C 167.351 71.312, 167.982 64.192, 173.345 32.250 C 173.553 31.012, 173.622 30, 173.499 30 C 173.376 30, 161.063 51.573, 146.138 77.940 M 113.541 36.175 C 113.243 37.729, 112.744 40.328, 112.431 41.952 C 111.880 44.813, 112.041 44.956, 117.636 46.583 L 123.410 48.261 133.705 44.934 C 139.367 43.104, 143.999 41.357, 143.998 41.053 C 143.997 40.749, 137.266 38.891, 129.039 36.925 L 114.082 33.350 113.541 36.175 M 98.011 51.342 C 98.017 54.179, 98.301 58.188, 98.642 60.250 C 99.210 63.690, 99.531 64, 102.524 64 C 106.274 64, 106.631 63.381, 107.547 55.292 L 108.208 49.448 103.104 47.816 L 98 46.184 98.011 51.342 M 110.135 57.122 C 109.530 60.558, 109.223 63.556, 109.452 63.785 C 109.681 64.014, 117.661 63.819, 127.184 63.351 L 144.500 62.500 129 57.091 C 120.475 54.116, 112.990 51.501, 112.368 51.279 C 111.669 51.031, 110.814 53.269, 110.135 57.122 M 112.373 66.726 L 108.247 67.103 107.566 73.119 C 107.192 76.428, 106.669 79.699, 106.404 80.389 C 106.092 81.204, 110.491 83.689, 118.961 87.483 C 126.133 90.695, 132 93.452, 132 93.611 C 132 93.769, 128.287 95.828, 123.750 98.186 C 118.016 101.166, 112.602 105.172, 106 111.320 C 100.775 116.186, 96.714 120.467, 96.976 120.833 C 97.741 121.904, 115.439 125.923, 116.108 125.178 C 117.018 124.163, 147.878 69.482, 148.595 67.613 C 149.151 66.165, 147.539 66.018, 132.857 66.175 C 123.861 66.271, 114.643 66.519, 112.373 66.726 M 63.726 67.951 L 51.952 68.500 66.377 73.449 L 80.802 78.398 87.753 75.600 C 96.842 71.941, 97.023 71.806, 96.346 69.214 C 95.792 67.095, 95.333 67.009, 85.633 67.201 C 80.060 67.312, 70.202 67.649, 63.726 67.951 M 99 70.387 C 99 73.609, 98.679 73.911, 92.465 76.552 C 88.871 78.080, 86.283 79.664, 86.715 80.073 C 87.340 80.665, 112.544 89.629, 121.500 92.446 C 122.600 92.791, 118.853 90.821, 113.173 88.068 C 104.873 84.043, 102.945 82.711, 103.350 81.280 C 103.627 80.301, 104.145 77.475, 104.500 75 C 104.855 72.525, 105.369 69.713, 105.640 68.750 C 106.045 67.318, 105.487 67, 102.567 67 C 99.180 67, 99 67.171, 99 70.387 M 58.249 91.202 C 46.560 96.223, 37.152 100.485, 37.340 100.673 C 37.528 100.862, 53.726 101.475, 73.335 102.037 C 103.765 102.909, 109.391 102.848, 111.743 101.624 C 114.623 100.126, 119.649 95.256, 118.921 94.669 C 117.877 93.827, 82.336 81.971, 81 82.019 C 80.175 82.049, 69.937 86.181, 58.249 91.202 M 86.223 131.930 L 78.946 132.500 89.440 142.949 C 95.212 148.697, 100.108 153.197, 100.320 152.949 C 100.532 152.702, 102.631 149.125, 104.985 145 C 107.339 140.875, 110.142 136.037, 111.214 134.250 L 113.163 131 103.332 131.180 C 97.924 131.279, 90.225 131.617, 86.223 131.930" stroke="none" fill="black" fill-rule="evenodd"/>
</svg>