<svg xmlns="http://www.w3.org/2000/svg" width="200" height="200" viewBox="0 0 200 200" version="1.1">
	<path d="M 102 13.526 C 81.375 14.794, 55.463 16.994, 44.418 18.415 C 33.372 19.837, 23.799 21, 23.144 21 C 22.233 21, 22.099 29.066, 22.574 55.250 C 23.100 84.182, 22.870 94.333, 21.098 120.626 C 19.944 137.746, 19 153.121, 19 154.795 C 19 157.656, 19.394 157.968, 25.617 160.039 C 31.100 161.864, 32.384 162.006, 33.113 160.870 C 33.597 160.117, 39.031 150.986, 45.190 140.580 C 51.348 130.174, 56.524 122.074, 56.692 122.580 C 56.859 123.086, 54.120 138.350, 50.604 156.500 C 47.087 174.650, 44.292 189.592, 44.392 189.703 C 44.492 189.815, 53.782 182.972, 65.037 174.496 L 85.500 159.085 85.206 149.792 C 84.451 125.874, 82.907 94.574, 82.462 94.128 C 80.617 92.284, 80.426 99.157, 81.559 126.500 C 82.265 143.550, 82.541 157.768, 82.172 158.097 C 81.802 158.425, 73.911 164.453, 64.636 171.493 C 54.496 179.189, 47.997 183.537, 48.335 182.396 C 48.645 181.353, 51.647 166.100, 55.007 148.500 C 58.367 130.900, 61.364 115.487, 61.666 114.250 C 62.065 112.621, 61.773 112, 60.608 112 C 59.724 112, 59 111.448, 59 110.774 C 59 110.100, 58.271 102.429, 57.380 93.727 C 56.489 85.026, 55.992 77.674, 56.275 77.391 C 56.717 76.949, 92.850 87.708, 93.867 88.585 C 94.069 88.759, 94.465 90.948, 94.747 93.451 C 95.377 99.039, 97.374 99.435, 99.481 94.390 C 100.832 91.157, 101.277 90.851, 103.745 91.456 C 105.260 91.828, 107.109 92.727, 107.853 93.454 C 108.983 94.559, 108.598 94.977, 105.521 95.993 C 102.481 96.996, 101.928 97.585, 102.364 99.355 C 102.654 100.535, 104.066 106.757, 105.502 113.181 L 108.112 124.863 96.059 154.601 C 89.430 170.957, 84.117 184.448, 84.253 184.581 C 84.389 184.714, 90.789 181.806, 98.477 178.120 L 112.453 171.418 143.977 174.680 C 161.314 176.473, 176.538 177.954, 177.806 177.971 C 179.800 177.996, 178.595 176.020, 168.921 163.397 L 157.730 148.795 161.525 125.647 L 165.321 102.500 174.660 83.760 C 179.797 73.453, 184 64.625, 184 64.142 C 184 63.659, 179.747 60.460, 174.549 57.033 C 163.886 50.001, 166.246 53.964, 155.174 24.500 L 150.289 11.500 144.895 11.361 C 141.928 11.284, 122.625 12.259, 102 13.526 M 124.500 15.062 C 117.350 15.508, 99.800 16.604, 85.500 17.498 C 71.200 18.392, 51.850 20.114, 42.500 21.325 L 25.500 23.526 25.436 63.513 C 25.392 91.052, 24.848 110.349, 23.689 125.500 C 21.247 157.410, 21.078 155.498, 26.514 157.350 C 30.892 158.842, 31.069 158.822, 32.423 156.694 C 41.173 142.939, 57.865 113.528, 57.176 113.080 C 56.219 112.457, 39.747 69.919, 40.264 69.403 C 40.434 69.233, 42.951 69.791, 45.857 70.643 C 48.764 71.495, 51.391 71.943, 51.695 71.638 C 52 71.334, 51.742 66.228, 51.122 60.292 C 50.502 54.356, 49.996 48.675, 49.997 47.667 C 50.001 44.849, 52.233 46.237, 53.434 49.805 C 54.440 52.792, 54.778 51.971, 58.911 36.494 L 63.316 20 66.408 19.990 C 68.109 19.984, 84.974 19.321, 103.886 18.515 C 122.799 17.710, 138.662 17.291, 139.136 17.584 C 141.050 18.767, 139.683 19.891, 133.003 22.631 C 129.155 24.209, 126.005 25.796, 126.003 26.158 C 126.001 26.520, 131.676 38.581, 138.614 52.960 C 145.552 67.340, 151.035 79.299, 150.798 79.535 C 150.562 79.772, 143.873 82.704, 135.934 86.051 C 127.995 89.399, 121.161 92.468, 120.748 92.871 C 120.334 93.275, 123.146 94.620, 126.998 95.860 C 130.849 97.100, 134.010 98.427, 134.021 98.808 C 134.093 101.149, 128.577 139.630, 128.087 140.206 C 127.757 140.595, 123.508 131.062, 118.645 119.023 C 109.872 97.305, 109.784 97.141, 107.387 98.233 C 105.863 98.928, 105.154 99.919, 105.466 100.917 C 105.739 101.788, 107.104 107.576, 108.501 113.779 L 111.040 125.059 100.098 152.029 C 94.079 166.863, 89.358 179, 89.605 179 C 89.853 179, 95.030 176.667, 101.111 173.814 L 112.166 168.629 142.823 171.741 C 159.684 173.453, 173.573 174.761, 173.686 174.647 C 173.800 174.533, 169.642 168.881, 164.447 162.087 C 159.251 155.293, 155.006 149.232, 155.014 148.617 C 155.022 148.003, 156.802 136.925, 158.970 124 L 162.912 100.500 171.833 82.445 L 180.755 64.389 171.630 58.182 L 162.505 51.975 155.471 33.237 L 148.436 14.500 142.968 14.375 C 139.961 14.307, 131.650 14.616, 124.500 15.062 M 95.172 21.553 C 79.041 22.252, 65.702 22.976, 65.529 23.162 C 65.356 23.348, 63.093 31.375, 60.501 41 C 57.909 50.625, 55.368 59.017, 54.856 59.649 C 54.336 60.288, 54.214 63.635, 54.580 67.204 L 55.236 73.611 67.368 77.313 C 74.041 79.349, 79.728 81.012, 80.006 81.008 C 80.285 81.003, 80.347 67.950, 80.146 52 C 79.831 27.141, 79.986 23, 81.231 23 C 82.110 23, 83.793 25.865, 85.491 30.250 C 87.034 34.237, 88.435 37.667, 88.604 37.872 C 88.893 38.222, 130.023 21.229, 130.917 20.391 C 131.146 20.176, 129.796 20.064, 127.917 20.141 C 126.037 20.219, 111.302 20.854, 95.172 21.553 M 105.250 34.248 C 95.944 38.219, 91 40.851, 91 41.831 C 91 43.848, 103.089 74, 103.897 74 C 104.366 74, 116.256 44.107, 121.833 28.908 C 122.456 27.212, 119.521 28.157, 105.250 34.248 M 115.187 53.838 C 110.134 66.927, 106 78.333, 106 79.185 C 106 82.669, 110.236 90.829, 112.345 91.409 C 114.653 92.045, 146.979 79.210, 146.993 77.653 C 146.999 76.949, 125.267 30.980, 124.592 30.270 C 124.472 30.143, 120.239 40.749, 115.187 53.838 M 83.233 57.717 L 83.500 82.434 88.335 83.799 C 90.994 84.550, 93.297 85.015, 93.454 84.832 C 93.611 84.649, 92.694 75.950, 91.417 65.500 C 89.703 51.468, 88.406 44.735, 86.459 39.750 C 85.010 36.038, 83.630 33, 83.394 33 C 83.158 33, 83.085 44.123, 83.233 57.717 M 93.421 59.500 C 93.687 61.150, 94.398 66.775, 95 72 C 96.488 84.908, 96.959 87, 98.379 87 C 99.614 87, 102.032 81.553, 101.962 78.929 C 101.941 78.143, 99.902 72.775, 97.430 67 C 94.959 61.225, 93.154 57.850, 93.421 59.500 M 48.676 84.709 C 55.038 101.352, 55.121 101.488, 54.519 94.250 C 53.118 77.383, 52.811 75.878, 50.612 75.056 C 43.664 72.460, 43.777 71.895, 48.676 84.709 M 102.694 86.061 C 102.359 87.342, 102.710 88.335, 103.621 88.685 C 105.601 89.445, 106.029 88.828, 105.344 86.206 C 104.619 83.435, 103.398 83.368, 102.694 86.061 M 113.421 95.605 C 112.762 95.878, 115.080 102.856, 119.364 113.499 C 123.227 123.095, 126.511 130.822, 126.663 130.671 C 126.920 130.413, 131 102.372, 131 100.859 C 131 100.477, 127.511 99.002, 123.247 97.582 C 115.144 94.884, 115.156 94.886, 113.421 95.605" stroke="none" fill="black" fill-rule="evenodd"/>
</svg>