<svg xmlns="http://www.w3.org/2000/svg" width="200" height="200" viewBox="0 0 200 200" version="1.1">
	<path d="M 38.853 37.324 L 29.206 47.624 28.467 81.312 C 27.890 107.595, 27.997 115, 28.950 115 C 29.623 115, 41.884 111.625, 56.197 107.500 C 70.510 103.375, 82.397 100, 82.611 100 C 82.825 100, 83 99.295, 83 98.433 C 83 97.407, 82.395 97.046, 81.250 97.388 C 80.287 97.675, 69.150 100.879, 56.500 104.506 C 43.850 108.134, 32.872 111.315, 32.104 111.576 C 30.922 111.977, 30.788 107.223, 31.226 80.530 L 31.743 49.011 40.440 39.537 L 49.137 30.062 53.246 32.781 C 56.178 34.721, 56.874 35.593, 55.677 35.823 C 54.755 36.001, 54 36.789, 54 37.573 C 54 39.301, 53.599 39.280, 82.060 39.017 L 104.619 38.809 105.652 43.321 L 106.684 47.833 100.592 49.373 C 97.007 50.278, 94.364 50.522, 94.170 49.965 C 93.988 49.444, 93.277 49.581, 92.589 50.268 C 91.901 50.956, 82.487 53.518, 71.669 55.962 C 60.851 58.405, 52.016 60.876, 52.036 61.452 C 52.055 62.029, 52.717 65.200, 53.507 68.500 C 54.371 72.114, 54.562 74.631, 53.986 74.828 C 53.455 75.011, 53.746 76.567, 54.642 78.328 C 56.766 82.507, 56.722 82.475, 58.434 81.055 C 59.634 80.059, 62.940 80.733, 75.798 84.594 L 91.680 89.364 91.203 106.682 C 90.889 118.097, 91.075 124, 91.747 124 C 93.493 124, 93.972 119.989, 93.986 105.250 C 93.998 93.073, 94.225 91, 95.544 91 C 96.394 91, 101.833 92.452, 107.631 94.227 C 114.746 96.404, 118.506 98.077, 119.200 99.374 C 119.765 100.430, 121.702 106.825, 123.504 113.585 L 126.779 125.877 86.972 126.188 C 65.078 126.360, 46.827 126.838, 46.416 127.250 C 44.812 128.856, 47.554 129.481, 58.500 130 C 64.755 130.297, 70.121 130.788, 70.425 131.091 C 70.728 131.395, 66.251 136.293, 60.476 141.976 C 54.701 147.659, 50.094 152.401, 50.238 152.512 C 50.382 152.624, 57.475 154.060, 66 155.703 L 81.500 158.691 69 164.719 C 62.125 168.035, 51.550 173.120, 45.500 176.019 L 34.500 181.291 41.500 182.628 C 46.238 183.533, 62.073 184.168, 90.500 184.593 L 132.500 185.220 160.185 181.610 C 175.411 179.625, 188.124 178, 188.435 178 C 188.746 178, 189 177.396, 189 176.659 C 189 175.214, 163.885 174.008, 133.691 174.003 C 125.069 174.001, 119.117 173.620, 119.443 173.092 C 119.752 172.592, 128.073 167.530, 137.935 161.844 C 148.046 156.013, 155.350 151.217, 154.683 150.846 C 154.032 150.483, 149.225 149.418, 144 148.478 C 138.775 147.538, 134.172 146.470, 133.772 146.106 C 133.372 145.742, 136.072 141.934, 139.772 137.643 C 146.423 129.931, 146.686 129.753, 162.780 122.058 C 171.734 117.776, 179.278 114.056, 179.544 113.790 C 179.810 113.523, 174.284 111.603, 167.264 109.522 C 160.244 107.441, 153.884 105.412, 153.131 105.013 C 152.208 104.524, 156.356 101.223, 165.846 94.894 C 173.593 89.727, 179.946 84.895, 179.965 84.156 C 180.008 82.508, 168.048 29.714, 167.510 29.177 C 167.125 28.791, 129.628 30.448, 112.166 31.623 C 103.686 32.193, 102.877 32.422, 103.322 34.125 C 103.790 35.914, 102.859 36, 83.102 36 L 62.391 36 56 31.500 C 52.485 29.025, 49.360 27.006, 49.055 27.012 C 48.750 27.019, 44.159 31.659, 38.853 37.324 M 128.330 33.411 C 116.686 34.010, 106.824 34.837, 106.413 35.250 C 106.003 35.663, 116.767 36, 130.333 36 C 153.160 36, 155 36.131, 154.998 37.750 C 154.996 39.309, 147.855 81.316, 146.413 88.250 C 146.098 89.763, 145.202 91, 144.421 91 C 143.639 91, 143 90.858, 143 90.685 C 143 89.774, 129.977 46.643, 129.583 46.249 C 129.121 45.788, 111.158 49.469, 110.564 50.147 C 110.393 50.341, 112.817 60.616, 115.950 72.981 L 121.646 95.462 134.817 99.625 L 147.987 103.788 161.244 94.779 C 168.535 89.824, 175.110 85.197, 175.854 84.495 C 176.988 83.428, 176.268 79.047, 171.437 57.610 L 165.666 32 157.583 32.161 C 153.137 32.249, 139.973 32.811, 128.330 33.411 M 108.251 43.089 C 109.116 46.498, 109.639 47.105, 111.394 46.739 C 112.552 46.498, 117.423 45.468, 122.218 44.451 C 127.013 43.435, 131.168 42.834, 131.451 43.117 C 131.734 43.400, 133.574 49.002, 135.541 55.566 C 137.507 62.130, 140.283 71.325, 141.708 76 L 144.300 84.500 148.091 63 C 150.176 51.175, 151.908 40.938, 151.941 40.250 C 151.986 39.285, 146.886 39, 129.606 39 L 107.213 39 108.251 43.089 M 101.199 51.986 C 99.384 52.416, 97.640 53.027, 97.323 53.344 C 97.007 53.660, 99.581 57.875, 103.045 62.709 C 106.508 67.544, 110.867 74.650, 112.730 78.500 C 116.534 86.357, 116.516 86.198, 111.278 65.752 C 107.245 50.010, 107.585 50.474, 101.199 51.986 M 73.500 58.271 C 63.600 60.521, 55.378 62.440, 55.228 62.536 C 54.706 62.871, 57.897 75.296, 58.695 76.037 C 59.745 77.011, 90.930 86.421, 91.379 85.899 C 92.096 85.065, 92.931 54.004, 92.233 54.091 C 91.830 54.140, 83.400 56.022, 73.500 58.271 M 95 72.822 L 95 87.643 104.250 90.373 C 109.338 91.875, 114.270 93.330, 115.210 93.606 C 116.516 93.991, 115.736 91.578, 111.915 83.416 C 107.258 73.470, 97.460 58.079, 95.750 58.024 C 95.338 58.011, 95 64.670, 95 72.822 M 123 99.918 C 123 101.842, 130.046 115.155, 130.885 114.818 C 132.794 114.052, 143.983 106.442, 143.991 105.905 C 143.996 105.577, 139.870 104.070, 134.821 102.555 C 129.773 101.040, 125.048 99.572, 124.321 99.293 C 123.595 99.014, 123 99.295, 123 99.918 M 139 113 C 134.325 116.239, 129.889 118.914, 129.142 118.944 C 128.203 118.983, 127.971 119.773, 128.392 121.500 C 128.726 122.875, 129.274 125.125, 129.608 126.500 L 130.217 129 103.693 129 L 77.169 129 66.584 139.106 C 60.763 144.664, 56 149.565, 56 149.997 C 56 150.940, 56.490 151.056, 75.288 154.564 C 83.422 156.081, 89.722 157.670, 89.288 158.093 C 88.855 158.516, 78.451 163.569, 66.168 169.321 C 51.531 176.176, 44.287 180.059, 45.145 180.589 C 45.864 181.034, 64.689 181.713, 86.977 182.097 C 126.282 182.775, 128.101 182.722, 147.494 180.321 C 158.491 178.959, 167.678 177.655, 167.911 177.423 C 168.143 177.190, 159.821 176.943, 149.417 176.873 C 139.013 176.803, 125.602 176.465, 119.617 176.123 L 108.733 175.500 122.617 167.528 C 130.252 163.143, 139.320 157.913, 142.766 155.905 L 149.033 152.254 139.766 150.491 C 134.670 149.521, 129.911 148.419, 129.192 148.042 C 128.270 147.558, 130.299 144.495, 136.059 137.673 L 144.234 127.991 158.146 121.324 C 165.798 117.658, 171.708 114.339, 171.279 113.949 C 170.428 113.175, 149.798 106.965, 148.376 107.056 C 147.894 107.086, 143.675 109.761, 139 113" stroke="none" fill="black" fill-rule="evenodd"/>
</svg>