<svg xmlns="http://www.w3.org/2000/svg" width="200" height="200" viewBox="0 0 200 200" version="1.1">
	<path d="M 33.763 33.068 C 21.309 48.633, 18.567 52.629, 18.839 54.818 C 19.791 62.466, 25.928 98.262, 26.362 98.696 C 28.533 100.867, 28.276 95.572, 25.370 78.285 C 23.540 67.403, 21.948 57.128, 21.831 55.452 C 21.652 52.886, 23.873 49.597, 35.838 34.702 L 50.058 17 56.029 17 C 60.140 17, 62 17.389, 61.999 18.250 C 61.998 18.938, 60.408 26.873, 58.466 35.883 C 56.523 44.894, 55.132 52.465, 55.374 52.707 C 55.616 52.949, 57.184 52.439, 58.857 51.574 C 60.531 50.708, 62.213 50, 62.594 50 C 63.260 50, 62.316 64.017, 61.601 64.732 C 61.343 64.990, 33.758 69.932, 32.250 69.990 C 32.112 69.996, 32 70.675, 32 71.500 C 32 72.767, 34.333 73, 47 73 L 62 73 62 84.946 L 62 96.893 57.049 104.621 C 52.537 111.664, 51.750 114, 53.889 114 C 54.314 114, 56.200 111.862, 58.080 109.250 L 61.500 104.500 62 119.080 L 62.500 133.660 80.419 125.333 C 90.275 120.752, 98.548 117.215, 98.804 117.471 C 99.273 117.940, 88.541 175.423, 87.152 179.886 C 86.465 182.093, 85.336 181.143, 71.987 167.125 C 64.054 158.795, 57.223 152.096, 56.808 152.239 C 56.392 152.383, 49.768 157.338, 42.088 163.250 C 34.408 169.163, 27.858 174, 27.534 174 C 27.209 174, 27.253 158.700, 27.631 140 C 28.265 108.713, 28.187 106, 26.660 106 C 25.153 106, 25 108.569, 25 133.846 C 25 149.162, 24.704 165.866, 24.342 170.966 C 23.551 182.113, 21.832 182.531, 42.222 166.621 L 56.943 155.134 72.397 171.308 C 80.897 180.204, 88.080 187.253, 88.360 186.973 C 88.640 186.693, 91.934 170.547, 95.681 151.094 C 101.807 119.279, 102.722 115.573, 104.777 114.226 C 106.034 113.403, 107.386 113.052, 107.781 113.447 C 108.177 113.841, 108.905 129.877, 109.401 149.082 C 110.195 179.879, 110.488 184, 111.884 184 C 114.485 184, 187.406 175.927, 187.730 175.603 C 187.895 175.439, 183.358 169.127, 177.649 161.578 C 167.925 148.721, 166.737 147.534, 158.884 142.838 C 154.273 140.080, 150.114 137.455, 149.641 137.003 C 149.169 136.552, 153.786 130.446, 159.901 123.434 C 166.016 116.423, 170.888 110.555, 170.728 110.394 C 170.567 110.234, 164.600 110.969, 157.468 112.028 C 150.336 113.087, 143.102 113.964, 141.393 113.977 C 139.435 113.992, 130.009 109.951, 115.893 103.045 L 93.500 92.089 89.031 81.545 C 86.573 75.745, 83.974 71, 83.255 71 C 82.231 71, 82.281 70.358, 83.485 68.030 C 85.429 64.270, 87.109 63.419, 94.326 62.544 C 98.123 62.083, 100.002 61.430, 99.721 60.669 C 96.602 52.193, 95.951 48.961, 96.977 47.044 C 100.057 41.288, 108 29.686, 108 30.941 C 108 31.734, 107.506 37.359, 106.902 43.441 L 105.803 54.500 122.128 81.270 C 131.107 95.993, 138.955 107.847, 139.569 107.612 C 140.182 107.377, 154.137 98.705, 170.579 88.342 L 200.475 69.500 168.987 69 L 137.500 68.500 156.723 53.523 C 167.296 45.286, 175.621 38.262, 175.223 37.913 C 174.825 37.565, 167.953 36.717, 159.950 36.029 L 145.400 34.778 134.450 24.435 L 123.500 14.092 86.260 14.046 L 49.020 14 33.763 33.068 M 65.993 24.250 C 65.989 28.238, 65.699 34.538, 65.348 38.250 C 64.837 43.665, 64.987 44.997, 66.105 44.984 C 66.872 44.975, 72.122 42.967, 77.771 40.523 C 83.420 38.078, 88.772 35.948, 89.664 35.789 C 90.818 35.583, 91.775 36.942, 92.977 40.493 L 94.668 45.486 97.503 40.993 C 106.648 26.496, 109.104 23, 110.141 23 C 110.971 23, 111.116 25.315, 110.658 31.250 C 110.308 35.788, 109.764 42.875, 109.448 47 L 108.875 54.500 124.023 79.250 C 132.355 92.863, 139.501 104, 139.904 104 C 140.308 104, 152.040 96.807, 165.977 88.014 L 191.317 72.029 160.296 71.764 L 129.275 71.500 149.090 56.030 C 160.405 47.195, 168.433 40.267, 167.805 39.879 C 167.199 39.505, 161.764 38.877, 155.727 38.482 L 144.749 37.765 133.625 27.393 L 122.500 17.022 94.250 17.011 L 66 17 65.993 24.250 M 60.601 39.097 C 59.644 43.550, 59.053 47.386, 59.287 47.621 C 59.522 47.855, 60.453 47.763, 61.357 47.417 C 62.689 46.905, 63 45.292, 63 38.893 C 63 34.552, 62.852 31, 62.670 31 C 62.489 31, 61.558 34.644, 60.601 39.097 M 76.500 43.964 L 65.500 48.720 65.208 56.360 C 64.989 62.088, 65.239 64, 66.208 64.001 C 66.919 64.002, 71.271 63.476, 75.880 62.832 L 84.260 61.661 88.607 54.941 L 92.954 48.221 91.383 43.611 C 90.519 41.075, 89.292 39.047, 88.656 39.104 C 88.020 39.161, 82.550 41.348, 76.500 43.964 M 91.239 55.789 C 90.007 57.980, 89 59.958, 89 60.185 C 89 60.413, 90.575 60.415, 92.500 60.190 C 96.277 59.749, 96.563 59.028, 94.693 54.653 L 93.477 51.806 91.239 55.789 M 70.750 66.242 C 66.130 67.033, 65 67.598, 65 69.114 C 65 70.777, 65.803 71, 71.784 71 C 78.262 71, 78.649 70.864, 80.341 68 L 82.113 65 79.307 65.128 C 77.763 65.199, 73.912 65.700, 70.750 66.242 M 55 68.907 C 51.674 69.518, 51.624 69.586, 54 70.262 C 58.305 71.486, 62 71.135, 62 69.500 C 62 67.934, 60.829 67.835, 55 68.907 M 65 82.700 C 65 87.600, 65.374 90.985, 65.856 90.450 C 67.070 89.104, 76 75.034, 76 74.469 C 76 74.211, 73.525 74, 70.500 74 L 65 74 65 82.700 M 77.289 77.758 C 76.073 79.816, 74.117 83.075, 72.943 85 L 70.809 88.500 72.972 85.772 L 75.135 83.043 82.043 86.522 C 85.842 88.435, 89.154 90, 89.403 90 C 89.652 90, 88.237 86.400, 86.258 82 C 82.162 72.890, 80.601 72.152, 77.289 77.758 M 70.259 93.794 L 65.018 100.500 65.009 114.857 C 65.002 125.941, 65.285 129.102, 66.250 128.722 C 74.679 125.405, 99 113.444, 99 112.616 C 99 112.016, 97.358 107.647, 95.352 102.908 L 91.703 94.292 84.335 90.646 C 80.283 88.641, 76.637 87.020, 76.233 87.044 C 75.830 87.068, 73.142 90.106, 70.259 93.794 M 96 97.407 C 96 97.927, 102.014 111.347, 102.436 111.769 C 102.610 111.943, 104.377 111.311, 106.364 110.364 C 108.350 109.416, 110.194 108.861, 110.462 109.128 C 110.729 109.396, 111.452 125.564, 112.068 145.058 C 112.683 164.551, 113.330 180.648, 113.505 180.828 C 113.838 181.171, 182.279 173.924, 182.795 173.491 C 182.957 173.355, 179.217 168.126, 174.485 161.872 C 166.389 151.172, 165.278 150.129, 155.690 144.226 C 150.086 140.776, 145.387 137.623, 145.248 137.220 C 145.109 136.817, 149.273 131.579, 154.500 125.579 C 159.727 119.579, 163.853 114.520, 163.669 114.335 C 163.485 114.151, 157.843 114.740, 151.133 115.644 L 138.932 117.288 118.053 107.144 C 97.935 97.369, 96 96.515, 96 97.407" stroke="none" fill="black" fill-rule="evenodd"/>
</svg>