<svg xmlns="http://www.w3.org/2000/svg" width="200" height="200" viewBox="0 0 200 200" version="1.1">
	<path d="M 108.155 15.250 C 107.578 18.688, 106.111 27.914, 104.895 35.754 L 102.686 50.008 99.093 50.938 C 85.980 54.333, 72.044 57.053, 63.096 57.965 C 57.374 58.548, 52.559 58.893, 52.398 58.731 C 52.236 58.569, 60.844 51.860, 71.527 43.822 L 90.951 29.208 97.976 28.502 C 102.939 28.004, 105 27.392, 105 26.418 C 105 25.386, 103.929 25.160, 100.750 25.521 C 98.412 25.787, 88.175 26.455, 78 27.005 C 63.268 27.801, 19.467 32.574, 18.217 33.519 C 18.061 33.637, 18.623 41.915, 19.466 51.915 L 20.998 70.097 29.070 79.461 C 35.751 87.212, 38.078 89.205, 42.571 91.029 C 45.557 92.241, 47.978 93.518, 47.952 93.866 C 47.925 94.215, 41.175 100.112, 32.952 106.971 C 24.728 113.831, 18 119.828, 18 120.299 C 18 120.769, 22.727 126.937, 28.504 134.005 L 39.008 146.855 32.082 164.505 C 28.272 174.212, 25.683 181.948, 26.328 181.696 C 26.973 181.444, 44.512 173.453, 65.305 163.939 C 87.650 153.715, 102.576 146.356, 101.805 145.943 C 101.087 145.560, 93.975 144.459, 86 143.497 C 78.025 142.534, 71.344 141.611, 71.154 141.444 C 70.963 141.277, 76.494 134.287, 83.444 125.910 C 90.394 117.534, 95.725 110.335, 95.290 109.912 C 94.856 109.490, 85.500 105.460, 74.500 100.956 C 63.500 96.452, 54.379 92.662, 54.232 92.532 C 54.084 92.403, 55.659 91.129, 57.732 89.700 C 61.085 87.389, 62.931 87.006, 74.500 86.223 C 81.650 85.738, 91.601 85.532, 96.613 85.765 L 105.726 86.189 115.482 107.063 C 120.848 118.544, 125.012 128.514, 124.734 129.218 C 124.457 129.923, 115.843 141.492, 105.593 154.927 C 94.575 169.367, 87.322 179.722, 87.853 180.253 C 88.384 180.784, 93.387 178.258, 100.090 174.075 C 106.327 170.184, 112.010 167, 112.719 167 C 113.429 167, 124.221 169.270, 136.703 172.045 L 159.396 177.090 168.215 168.271 L 177.034 159.452 165.412 140.476 C 159.019 130.039, 153.372 120.600, 152.862 119.500 C 152.115 117.887, 154.943 111.744, 167.468 87.773 C 176.011 71.423, 183 57.684, 183 57.242 C 183 56.800, 177.091 54.978, 169.869 53.194 L 156.738 49.951 145.970 40.975 C 140.048 36.039, 134.933 32, 134.604 32 C 134.274 32, 131.820 33.570, 129.149 35.489 L 124.293 38.977 117.159 23.989 C 113.235 15.745, 109.840 9, 109.615 9 C 109.390 9, 108.733 11.813, 108.155 15.250 M 107.951 34.121 C 106.626 42.988, 105.083 50.819, 104.521 51.522 C 102.677 53.833, 77.180 59.185, 59.828 60.904 C 50.659 61.812, 43.353 62.238, 43.593 61.849 C 43.833 61.461, 53.464 54.052, 64.995 45.385 C 76.526 36.718, 85.852 29.519, 85.719 29.385 C 84.549 28.215, 22.966 34.701, 21.520 36.147 C 21.242 36.425, 21.559 43.807, 22.225 52.551 L 23.437 68.449 30.741 77.225 C 35.508 82.953, 38.746 86, 40.065 86 C 41.176 86, 50.217 82.798, 60.157 78.884 C 78.119 71.810, 78.357 71.676, 99.364 56.781 C 110.989 48.538, 120.857 41.461, 121.293 41.054 C 122.064 40.335, 112.074 18.167, 110.929 18.056 C 110.615 18.025, 109.275 25.255, 107.951 34.121 M 130.171 38.106 C 127.877 39.793, 126 41.401, 126 41.681 C 126 41.960, 130.757 52.112, 136.571 64.241 C 142.385 76.371, 146.739 86.566, 146.248 86.897 C 145.756 87.229, 140.361 91.438, 134.260 96.250 C 128.158 101.063, 122.903 105, 122.583 105 C 122.262 105, 122 94.425, 122 81.500 C 122 68.575, 121.696 58, 121.323 58 C 120.951 58, 111.406 61.636, 100.113 66.080 C 85.584 71.797, 77.628 75.535, 72.910 78.859 L 66.241 83.557 86.801 83.529 L 107.361 83.500 118.085 106.236 L 128.809 128.972 111.904 151.096 C 102.607 163.264, 95 173.422, 95 173.669 C 95 174.195, 95.320 174.009, 104.490 168.162 L 111.481 163.705 134.934 168.885 L 158.387 174.066 165.693 166.808 C 169.712 162.816, 173 159.203, 173 158.778 C 173 158.353, 167.600 149.172, 161 138.376 C 154.400 127.581, 149 118.398, 149 117.971 C 149 117.544, 155.750 104.282, 164 88.500 C 172.250 72.718, 179 59.492, 179 59.110 C 179 58.728, 173.769 57.084, 167.376 55.457 C 155.804 52.513, 155.710 52.465, 146.126 44.599 C 140.832 40.253, 136.014 36.324, 135.421 35.868 C 134.778 35.374, 132.657 36.278, 130.171 38.106 M 106.405 55.149 C 97.107 61.822, 90.175 67.039, 91 66.742 C 91.825 66.445, 99.428 63.456, 107.895 60.101 C 116.362 56.745, 123.450 54, 123.645 54 C 123.840 54, 124 64.388, 124 77.083 C 124 89.871, 124.390 100.018, 124.876 99.833 C 125.357 99.650, 129.783 96.362, 134.712 92.527 L 143.673 85.554 138.446 74.527 C 135.571 68.462, 130.990 58.891, 128.265 53.257 L 123.311 43.014 106.405 55.149 M 59.500 82.120 C 52.759 84.941, 52.662 85.029, 56.895 84.490 C 60.632 84.014, 67 80.826, 67 79.432 C 67 79.194, 66.888 79.043, 66.750 79.095 C 66.612 79.147, 63.350 80.508, 59.500 82.120 M 49 87.916 L 43.500 88.505 47.288 89.843 C 50.586 91.007, 51.394 90.972, 53.538 89.567 C 55.935 87.996, 56.763 86.834, 55.250 87.163 C 54.837 87.253, 52.025 87.591, 49 87.916 M 37.342 106.637 C 29.729 113.038, 22.947 118.782, 22.271 119.402 C 21.321 120.274, 23.432 123.468, 31.556 133.451 C 37.340 140.557, 41.884 146.850, 41.654 147.436 C 41.424 148.021, 38.887 154.575, 36.015 162 C 33.144 169.425, 30.599 175.822, 30.360 176.214 C 30.121 176.607, 31.405 176.310, 33.213 175.554 C 39.278 173.017, 93.122 148.211, 93.599 147.734 C 93.858 147.475, 87.754 146.456, 80.035 145.469 C 72.316 144.483, 66.017 143.411, 66.038 143.088 C 66.059 142.764, 71.877 135.525, 78.968 127 C 89.664 114.139, 91.584 111.347, 90.245 110.598 C 87.820 109.240, 52.875 95, 51.970 95 C 51.538 95, 44.955 100.237, 37.342 106.637" stroke="none" fill="black" fill-rule="evenodd"/>
</svg>