<svg xmlns="http://www.w3.org/2000/svg" width="200" height="200" viewBox="0 0 200 200" version="1.1">
	<path d="M 140.418 18.436 C 124.038 22.840, 116.344 25.383, 113.918 27.194 C 110.234 29.944, 87.738 37.699, 82 38.197 L 78.500 38.500 77.804 26.637 C 77.421 20.113, 76.926 14.593, 76.703 14.370 C 76.481 14.148, 63.632 17.441, 48.149 21.689 L 20 29.413 20.018 35.456 C 20.027 38.780, 20.699 56.350, 21.511 74.500 L 22.988 107.500 18.951 146.916 C 16.730 168.596, 15.155 186.962, 15.450 187.730 C 15.745 188.498, 16.417 188.861, 16.943 188.535 C 17.470 188.210, 24.318 175.304, 32.162 159.856 C 40.005 144.408, 46.548 132.158, 46.701 132.634 C 46.853 133.110, 45.952 141.150, 44.698 150.500 L 42.419 167.500 66.858 167.768 C 86.927 167.988, 91.673 167.776, 93.398 166.582 C 94.554 165.782, 102.456 158.817, 110.957 151.104 C 119.458 143.391, 126.525 137.192, 126.661 137.328 C 126.798 137.465, 123.480 146.912, 119.289 158.323 C 114.225 172.112, 112.003 179.403, 112.666 180.066 C 113.485 180.885, 134.634 157.832, 156.255 132.552 C 157.685 130.880, 157.557 131.795, 155.560 137.500 C 154.213 141.350, 149.258 155.500, 144.549 168.944 C 138.807 185.339, 136.319 193.719, 136.994 194.394 C 137.627 195.027, 138.311 195.048, 138.838 194.450 C 139.298 193.927, 151.508 180.982, 165.970 165.682 C 180.877 149.912, 191.882 137.494, 191.382 137.009 C 190.897 136.538, 179.925 130.222, 167 122.974 C 154.075 115.725, 143.342 109.646, 143.149 109.463 C 142.956 109.281, 144.614 108.643, 146.833 108.045 C 150.595 107.032, 152.056 105.337, 168.511 82.901 C 178.758 68.928, 185.928 58.255, 185.616 57.440 C 185.229 56.434, 180.469 59.248, 168.789 67.388 L 152.500 78.738 123.500 80.401 C 107.550 81.316, 91.463 82.333, 87.750 82.661 L 81 83.258 81 77.690 L 81 72.123 85.250 71.567 C 90.113 70.931, 142.461 67, 146.063 67 C 148.184 67, 147.794 66.322, 142.460 60.750 C 139.169 57.313, 134.762 52.648, 132.667 50.384 L 128.857 46.269 138.923 40.048 C 144.460 36.626, 149.245 33.412, 149.558 32.906 C 150.773 30.939, 146.565 30.945, 129.090 32.935 C 119.119 34.071, 110.406 34.992, 109.730 34.983 C 105.712 34.928, 117.771 30.162, 140.160 22.956 C 159.081 16.866, 165.685 14.342, 165.303 13.348 C 165.019 12.607, 164.497 12.052, 164.143 12.115 C 163.789 12.178, 153.113 15.022, 140.418 18.436 M 46.750 24.798 L 23 31.366 23.049 40.433 C 23.076 45.420, 23.690 62.550, 24.414 78.500 L 25.729 107.500 22.050 143.750 C 20.026 163.688, 18.478 180, 18.611 180 C 18.743 180, 25.497 166.950, 33.620 151 C 46.521 125.668, 51.011 118.499, 50.996 123.250 C 50.994 123.938, 49.869 132.761, 48.496 142.857 C 47.123 152.953, 46 162.066, 46 163.107 C 46 164.909, 47.091 164.999, 68.750 164.988 L 91.500 164.976 110.335 147.933 C 127.582 132.328, 131.941 129.237, 131.250 133.104 C 131.113 133.872, 127.857 143.018, 124.014 153.430 C 120.171 163.841, 117.133 172.458, 117.263 172.579 C 117.393 172.699, 126.500 162.455, 137.500 149.814 C 148.500 137.173, 158.514 126.015, 159.754 125.018 L 162.008 123.206 149.006 116.004 C 141.856 112.042, 136.216 108.460, 136.473 108.043 C 136.731 107.627, 139.665 106.708, 142.993 106.001 L 149.045 104.717 158.707 91.609 C 164.021 84.399, 170.829 75.168, 173.837 71.096 C 176.845 67.025, 178.674 64.074, 177.903 64.541 C 175.587 65.940, 123.894 102.025, 118.500 106.007 C 113.667 109.576, 113.100 110.557, 101.551 135.350 C 94.907 149.610, 89.024 161, 88.301 161 C 87.585 161, 87 160.726, 87 160.391 C 87 160.056, 90.867 149.143, 95.594 136.141 C 103.940 113.185, 104.309 112.413, 108.344 109.502 L 112.500 106.504 109.741 106.185 C 107.621 105.939, 104.332 107.733, 95.535 113.933 C 89.239 118.370, 83.649 122, 83.113 122 C 82.576 122, 81.823 118.390, 81.438 113.978 C 81.053 109.566, 80.307 105.690, 79.780 105.364 C 79.252 105.038, 70.107 104.468, 59.455 104.097 C 48.804 103.726, 39.825 103.158, 39.501 102.834 C 38.994 102.328, 56.609 74.271, 59.172 71.502 C 59.680 70.954, 63.887 70.253, 68.521 69.945 C 73.156 69.638, 77.104 69.186, 77.294 68.943 C 77.724 68.395, 76.284 44.951, 75.791 44.458 C 75.595 44.262, 69.824 45.878, 62.967 48.050 C 56.110 50.223, 50.236 52, 49.913 52 C 49.036 52, 37.819 43.848, 38.188 43.479 C 38.363 43.304, 46.801 42.216, 56.939 41.061 C 67.076 39.907, 75.476 38.857, 75.605 38.729 C 75.733 38.600, 75.584 33.883, 75.274 28.247 C 74.744 18.627, 74.580 18.007, 72.605 18.115 C 71.447 18.179, 59.813 21.186, 46.750 24.798 M 121.940 36.392 L 104.381 38.500 93.475 47.211 C 85.948 53.223, 82.332 55.546, 81.804 54.711 C 81.340 53.976, 81.925 52.844, 83.291 51.833 C 84.530 50.916, 88.604 47.657, 92.345 44.590 L 99.147 39.015 92.823 39.662 C 89.346 40.018, 84.925 40.854, 83 41.520 L 79.500 42.732 79.842 55.616 C 80.030 62.702, 80.307 68.627, 80.458 68.782 C 81.098 69.443, 141 64.453, 141 63.739 C 141 63.307, 137.332 59.132, 132.848 54.462 C 128.364 49.792, 124.877 45.799, 125.098 45.589 C 125.319 45.379, 129.526 42.685, 134.447 39.603 C 139.368 36.522, 142.518 34.064, 141.447 34.142 C 140.376 34.219, 131.598 35.232, 121.940 36.392 M 53.500 44.138 C 44.273 45.306, 44.283 45.300, 47.554 47.444 C 50.354 49.278, 50.471 49.266, 59.441 46.236 C 67.416 43.542, 68.021 43.181, 64.500 43.214 C 62.300 43.236, 57.350 43.651, 53.500 44.138 M 66.238 72.913 L 60.977 73.500 51.988 87 L 43 100.500 61.126 101.290 C 71.096 101.725, 79.386 101.948, 79.548 101.785 C 79.711 101.623, 79.351 94.855, 78.750 86.745 L 77.656 72 74.578 72.163 C 72.885 72.253, 69.132 72.590, 66.238 72.913 M 108.721 83.989 C 93.992 84.944, 81.798 85.900, 81.624 86.113 C 81.208 86.620, 82.591 100.925, 83.105 101.435 C 83.322 101.651, 88.675 102.125, 95 102.488 L 106.500 103.148 114.273 97.572 C 118.852 94.287, 126.867 89.959, 133.773 87.042 L 145.500 82.089 140.500 82.170 C 137.750 82.215, 123.449 83.033, 108.721 83.989 M 129.422 91.822 C 123.602 94.387, 111.640 101.974, 112.330 102.664 C 112.512 102.845, 113.750 103.079, 115.081 103.183 C 116.643 103.306, 120.688 101.128, 126.500 97.035 C 139.706 87.737, 140.037 87.146, 129.422 91.822 M 83.632 110.250 C 84.487 118.608, 84.291 118.556, 92.699 112.644 C 96.952 109.654, 100.596 106.711, 100.799 106.104 C 101.049 105.353, 98.275 105, 92.130 105 L 83.094 105 83.632 110.250 M 107.451 113.765 C 106.338 114.545, 101.722 126.056, 102.294 126.627 C 102.479 126.812, 104.027 123.822, 105.733 119.982 C 107.439 116.142, 108.760 113.007, 108.668 113.015 C 108.575 113.024, 108.028 113.361, 107.451 113.765 M 152.485 154.733 C 146.549 171.655, 141.473 186.100, 141.206 186.834 C 140.940 187.568, 148.742 179.693, 158.546 169.334 C 168.349 158.975, 179.037 147.737, 182.297 144.360 L 188.225 138.219 181.362 134.236 C 177.588 132.045, 171.975 128.838, 168.890 127.109 L 163.279 123.967 152.485 154.733" stroke="none" fill="black" fill-rule="evenodd"/>
</svg>