<svg xmlns="http://www.w3.org/2000/svg" width="200" height="200" viewBox="0 0 200 200" version="1.1">
	<path d="M 105.500 21.634 L 72.500 30.047 61.857 28.953 C 52.486 27.991, 49.438 28.117, 36.357 30.007 C 28.186 31.188, 21.246 32.457, 20.935 32.827 C 20.625 33.197, 20.731 47.225, 21.171 64 C 21.611 80.775, 21.691 114.413, 21.348 138.750 C 21.005 163.088, 20.898 182.998, 21.112 182.996 C 21.325 182.994, 28.700 180.956, 37.500 178.466 C 53.164 174.035, 53.970 173.916, 75.880 172.791 C 92.707 171.926, 104.712 171.924, 124.266 172.784 L 150.272 173.927 160.136 164.825 C 166.199 159.231, 170 154.965, 170 153.755 C 170 152.598, 169.485 151.978, 168.750 152.252 C 168.063 152.509, 158.631 155.555, 147.792 159.021 L 128.084 165.324 118.397 156.412 C 113.069 151.510, 107.087 146.082, 105.105 144.350 C 103.122 142.617, 101.725 141.004, 102 140.766 C 102.275 140.527, 108.125 137.388, 115 133.791 C 125.365 128.369, 129.582 126.777, 139.690 124.472 C 146.394 122.943, 152.332 121.413, 152.886 121.071 C 154.005 120.379, 159.592 69.259, 158.651 68.318 C 158.325 67.991, 151.666 67.333, 143.854 66.854 C 136.042 66.376, 129.538 65.871, 129.400 65.733 C 129.261 65.595, 137.215 56.791, 147.074 46.169 C 156.933 35.547, 165 26.439, 165 25.928 C 165 24.127, 162.406 25.057, 153.500 30.053 C 145.011 34.815, 143.079 35.418, 119.500 40.658 C 105.750 43.713, 94.381 46.322, 94.236 46.454 C 94.036 46.636, 114.564 60.557, 123.380 66.219 C 124.126 66.698, 123.661 67.780, 121.985 69.461 L 119.471 71.984 112.873 64.221 L 106.275 56.459 78.888 48.815 C 63.824 44.611, 51.389 41.280, 51.254 41.414 C 50.519 42.143, 84.639 77.673, 85.391 76.962 C 86.344 76.059, 83.191 72.239, 68.125 56.044 C 62.968 50.501, 59.368 46.179, 60.125 46.438 C 60.881 46.698, 68.925 48.980, 78 51.511 C 87.075 54.042, 96.846 56.789, 99.713 57.616 C 104.165 58.901, 105.815 60.150, 111.010 66.171 C 114.355 70.049, 116.959 73.616, 116.796 74.098 C 116.633 74.580, 107.973 84.205, 97.551 95.487 L 78.602 116 69.551 115.986 L 60.500 115.973 54.514 99.982 C 51.222 91.187, 48.072 84.147, 47.514 84.339 C 45.451 85.046, 46.856 123.956, 49.696 144.750 C 51.142 155.337, 52.590 163.988, 52.913 163.973 C 53.236 163.958, 58.450 154.877, 64.500 143.793 C 70.550 132.710, 76.320 122.597, 77.323 121.321 C 79.095 119.064, 79.602 118.998, 95.823 118.939 L 112.500 118.878 123.500 105.301 C 129.550 97.833, 134.623 91.417, 134.773 91.042 C 134.924 90.667, 132.045 86.842, 128.376 82.542 C 121.782 74.814, 121.723 74.693, 123.307 72.112 L 124.910 69.500 140.171 69.799 C 148.565 69.964, 155.615 70.281, 155.838 70.505 C 156.244 70.910, 152.287 112.602, 151.462 116.623 C 151.090 118.433, 149.159 119.213, 138.381 121.913 C 127.793 124.564, 123.392 126.321, 111.317 132.716 L 96.898 140.352 99.199 142.530 C 119.355 161.603, 127.211 168.189, 129.275 167.743 C 130.499 167.479, 138.025 165.126, 146 162.515 C 153.975 159.903, 161.400 157.539, 162.500 157.262 C 163.714 156.955, 161.705 159.596, 157.389 163.981 L 150.278 171.205 124.889 169.966 C 105.124 169.002, 94.440 168.987, 76.657 169.899 C 54.788 171.021, 53.197 171.243, 39.322 175.117 C 31.352 177.342, 24.680 179.013, 24.497 178.830 C 24.313 178.646, 24.014 146.190, 23.832 106.704 C 23.503 35.586, 23.519 34.908, 25.500 34.485 C 31.470 33.212, 49.707 31.010, 53.780 31.070 C 63.329 31.212, 62.439 32.481, 50.798 35.320 C 44.580 36.837, 38.906 38.440, 38.190 38.883 C 37.217 39.484, 39.577 44.162, 47.505 57.344 C 57.194 73.456, 60.063 77.233, 59.965 73.750 C 59.946 73.063, 55.702 65.525, 50.535 57 C 45.367 48.475, 41.445 41.223, 41.820 40.885 C 42.194 40.546, 49.342 38.586, 57.703 36.529 L 72.907 32.788 87.203 34.310 L 101.500 35.831 123.250 27.726 C 135.213 23.268, 145 19.317, 145 18.945 C 145 17.585, 140.820 13.003, 139.677 13.111 C 139.030 13.172, 123.650 17.007, 105.500 21.634 M 110 23.505 C 94.325 27.525, 81.950 30.864, 82.500 30.925 C 83.050 30.985, 87.643 31.471, 92.706 32.005 L 101.913 32.975 121.206 25.626 C 138.193 19.156, 142.364 17.026, 139.325 16.373 C 138.871 16.275, 125.675 19.485, 110 23.505 M 150.500 34.873 C 146.817 36.976, 139.638 39.015, 123.250 42.614 C 111.012 45.301, 101.027 47.725, 101.059 48 C 101.136 48.651, 123.977 63.410, 125.495 63.790 C 126.437 64.026, 138.847 51.329, 153.881 34.750 C 156.987 31.324, 156.698 31.335, 150.500 34.873 M 101.940 94.658 C 92.348 104.932, 84.140 113.936, 83.700 114.668 C 83.049 115.753, 85.548 115.989, 97.200 115.939 L 111.500 115.878 121.701 103.244 L 131.902 90.611 126.266 84.055 C 123.167 80.450, 120.349 77.158, 120.005 76.740 C 119.661 76.322, 111.532 84.385, 101.940 94.658 M 49.604 111.500 C 50.103 126.589, 53.005 154.338, 54.209 155.543 C 54.400 155.733, 59.113 147.701, 64.684 137.694 L 74.813 119.500 66.681 119 L 58.549 118.500 53.779 106 L 49.009 93.500 49.604 111.500" stroke="none" fill="black" fill-rule="evenodd"/>
</svg>