<svg xmlns="http://www.w3.org/2000/svg" width="200" height="200" viewBox="0 0 200 200" version="1.1">
	<path d="M 78.173 29.309 L 51.845 39.500 37.423 56.849 C 29.490 66.391, 23 74.528, 23 74.932 C 23 77.752, 25.955 74.846, 39.009 59.186 L 53.780 41.467 78.204 32.234 C 91.637 27.155, 103.070 23, 103.611 23 C 104.151 23, 105.520 28.735, 106.652 35.745 C 108.537 47.408, 108.575 48.594, 107.106 49.713 C 105.646 50.825, 105.658 50.939, 107.231 50.968 C 109.042 51.001, 109.287 51.686, 110.973 61.434 C 112.361 69.455, 112.348 69.542, 109.506 71.404 C 107.121 72.967, 106.221 72.800, 88.835 67.559 L 70.658 62.079 64.936 55.790 L 59.214 49.500 58.618 53 C 58.290 54.925, 56.440 74.628, 54.508 96.785 L 50.995 137.069 37.747 154.515 C 30.461 164.111, 24.400 171.408, 24.278 170.731 C 24.155 170.054, 26.432 152.486, 29.337 131.691 C 33.960 98.589, 34.545 91.121, 32.342 93.325 C 31.679 93.988, 19.879 179.096, 20.236 180.639 C 20.452 181.569, 40.412 156.126, 51.172 141.205 C 53.778 137.591, 53.919 136.620, 56.936 101.500 C 58.636 81.700, 60.295 63.315, 60.622 60.644 L 61.217 55.789 65.874 60.376 C 70.241 64.678, 71.493 65.250, 86.015 69.588 C 94.532 72.132, 102.094 74.539, 102.819 74.935 C 103.762 75.451, 103.057 76.491, 100.347 78.579 C 98.262 80.185, 95.563 81.950, 94.350 82.500 C 93.137 83.050, 84.290 91.031, 74.691 100.235 L 57.237 116.969 66.247 153 C 72.611 178.447, 75.587 188.778, 76.379 188.170 C 76.995 187.696, 87.734 179.985, 100.243 171.035 C 122.855 154.853, 123 154.770, 125.501 156.408 C 127.101 157.457, 130.863 163.742, 135.844 173.687 L 143.671 189.318 146.709 183.909 C 148.379 180.934, 155.683 167.141, 162.939 153.258 L 176.132 128.016 175.087 96.758 C 174.511 79.566, 173.754 56.883, 173.402 46.350 L 172.764 27.201 167.632 26.628 C 164.809 26.312, 151.025 25.127, 137 23.994 C 120.925 22.695, 110.286 21.392, 108.216 20.467 C 106.410 19.660, 104.835 19.027, 104.716 19.059 C 104.597 19.092, 92.653 23.705, 78.173 29.309 M 108 25.545 C 108 30.120, 111.464 47.001, 112.403 47.006 C 114.191 47.015, 133.988 39.556, 133.994 38.871 C 134 38.267, 109.545 24, 108.505 24 C 108.227 24, 108 24.695, 108 25.545 M 117.059 25.354 C 118.723 26.878, 138.945 37.722, 139.355 37.312 C 139.638 37.029, 141.494 38.038, 143.480 39.553 C 148.092 43.070, 146.760 45.263, 141.675 42.524 L 138.294 40.704 126.547 45.068 C 120.086 47.469, 115.397 49.632, 116.127 49.876 C 116.858 50.119, 127.556 52.619, 139.901 55.430 C 169.452 62.159, 170.365 63.572, 144.578 62.675 L 125.882 62.025 120.394 66.168 C 116.886 68.816, 115.103 70.826, 115.453 71.738 C 115.754 72.522, 116 73.720, 116 74.399 C 116 75.597, 118.483 76.517, 133.750 80.970 C 138.638 82.396, 141 83.579, 141 84.603 C 141 85.890, 139.253 86.074, 129.498 85.811 C 117.139 85.477, 117.209 85.445, 118.630 90.750 C 119.200 92.875, 119.742 93, 128.367 93.004 C 147.162 93.012, 163 94.224, 163 95.654 C 163 96.394, 162.662 97, 162.250 97 C 161.838 97, 152.995 98.125, 142.599 99.500 C 132.204 100.875, 123.091 102, 122.349 102 C 121.531 102, 121 103.128, 121 104.867 C 121 108.113, 119.421 107.778, 152.788 111.611 C 165.547 113.077, 168.026 113.627, 167.774 114.934 C 167.547 116.113, 162.286 117.629, 146.486 121.067 C 126.099 125.504, 125.491 125.707, 125.195 128.195 C 124.848 131.111, 125.681 131.456, 135.750 132.568 C 139.994 133.037, 142 133.692, 142 134.610 C 142 136.081, 140.062 136.647, 132.701 137.324 C 130.061 137.567, 127.635 138.032, 127.309 138.357 C 126.984 138.683, 127.281 142.441, 127.969 146.708 C 128.965 152.882, 130.699 157.418, 136.460 168.919 L 143.698 183.371 146.226 178.935 C 147.616 176.496, 154.251 163.990, 160.970 151.145 L 173.187 127.791 172.005 85.645 C 171.356 62.465, 170.526 40.351, 170.162 36.503 L 169.500 29.505 150 27.860 C 139.275 26.955, 127.376 25.931, 123.559 25.583 C 119.741 25.235, 116.816 25.132, 117.059 25.354 M 112.376 53.750 C 112.656 54.712, 113.194 57.750, 113.570 60.500 C 113.947 63.250, 114.445 65.830, 114.677 66.234 C 114.909 66.638, 117.366 65.176, 120.138 62.985 L 125.178 59.002 135.339 59.509 C 140.927 59.788, 145.050 59.798, 144.500 59.531 C 143.538 59.063, 113.404 52, 112.370 52 C 112.093 52, 112.095 52.788, 112.376 53.750 M 111.500 74 C 111.840 74.550, 112.316 75, 112.559 75 C 112.802 75, 113 74.550, 113 74 C 113 73.450, 112.523 73, 111.941 73 C 111.359 73, 111.160 73.450, 111.500 74 M 104.038 79.041 C 101.058 81.588, 100.864 82, 102.648 82 C 103.788 82, 106.809 82.286, 109.360 82.636 C 113.828 83.248, 114 83.178, 114 80.734 C 114 78.786, 113.268 77.940, 110.851 77.098 C 109.119 76.494, 107.656 76.018, 107.601 76.041 C 107.545 76.063, 105.942 77.413, 104.038 79.041 M 117 80.981 C 117 82.799, 117.624 82.993, 123.250 82.930 L 129.500 82.859 126 81.585 C 118.606 78.893, 117 78.785, 117 80.981 M 92.962 87.901 L 89.500 90.802 93 91.357 C 94.925 91.662, 100.932 92.096, 106.348 92.322 L 116.196 92.732 115.598 89.741 C 115.269 88.096, 115 86.356, 115 85.875 C 115 85.394, 110.821 85, 105.712 85 C 96.925 85, 96.238 85.156, 92.962 87.901 M 82.500 96.707 C 80.300 98.706, 74.389 104.284, 69.365 109.103 L 60.230 117.864 68.565 150.549 C 73.150 168.526, 77.063 183.397, 77.262 183.595 C 77.745 184.079, 119.416 154.160, 119.803 153.052 C 119.969 152.575, 116.073 149.105, 111.144 145.342 C 106.215 141.579, 102.397 138.275, 102.660 138 C 102.923 137.725, 107.394 137.050, 112.596 136.500 C 117.798 135.950, 122.094 135.050, 122.142 134.500 C 122.190 133.950, 117.600 132.825, 111.942 132 C 106.240 131.168, 101.485 129.981, 101.272 129.335 C 100.835 128.002, 101.476 127.784, 112.839 125.413 L 121.178 123.672 120.517 119.086 C 119.172 109.750, 119.818 110.342, 109.670 109.148 C 104.627 108.554, 97.013 107.775, 92.750 107.417 C 80.690 106.403, 82.569 104.592, 97.750 102.599 C 117.364 100.025, 117.153 100.080, 116.804 97.629 C 116.517 95.617, 115.788 95.469, 103.500 94.925 C 96.350 94.609, 89.600 94.063, 88.500 93.711 C 87.054 93.250, 85.392 94.079, 82.500 96.707 M 120 97.825 C 120 99.557, 120.518 99.583, 130.250 98.344 C 145.471 96.406, 145.581 96.284, 132.250 96.136 C 121.009 96.011, 120 96.150, 120 97.825 M 108.500 103.735 C 103.939 104.190, 101.199 105.995, 105.050 106.009 C 106.397 106.013, 109.862 106.301, 112.750 106.648 C 117.644 107.236, 118 107.133, 118 105.139 C 118 102.872, 117.661 102.822, 108.500 103.735 M 122.421 114 C 122.739 115.650, 123.261 118.350, 123.579 120 C 123.898 121.650, 124.461 122.973, 124.829 122.941 C 127.234 122.728, 159.204 115.158, 158 115.087 C 157.175 115.038, 149.525 114.099, 141 113 C 120.739 110.389, 121.713 110.336, 122.421 114 M 116.500 127.438 C 111.284 128.738, 111.705 129.440, 118.250 130.352 C 121.700 130.833, 122 130.680, 122 128.437 C 122 127.097, 121.888 126.043, 121.750 126.096 C 121.612 126.149, 119.250 126.753, 116.500 127.438 M 126.813 134.683 C 127.534 134.972, 128.397 134.936, 128.729 134.604 C 129.061 134.272, 128.471 134.036, 127.417 134.079 C 126.252 134.127, 126.015 134.364, 126.813 134.683 M 116 138.707 C 108.409 139.310, 108.408 139.697, 115.985 145.625 C 124.395 152.206, 125.595 151.919, 124.553 143.575 C 124.005 139.191, 123.498 138.037, 122.178 138.175 C 121.255 138.271, 118.475 138.510, 116 138.707" stroke="none" fill="black" fill-rule="evenodd"/>
</svg>