<svg xmlns="http://www.w3.org/2000/svg" width="200" height="200" viewBox="0 0 200 200" version="1.1">
	<path d="M 77.093 33.180 C 70.269 43.637, 64.479 53.275, 64.226 54.596 L 63.767 57 46.133 56.930 C 29.621 56.864, 28.754 56.768, 32.500 55.434 C 34.700 54.650, 43.841 51.470, 52.813 48.367 C 61.785 45.265, 68.760 42.391, 68.313 41.980 C 66.858 40.646, 22.020 21.647, 21.516 22.151 C 21.247 22.420, 19.634 37.234, 17.933 55.070 C 14.979 86.027, 14.845 89.474, 14.972 130.969 C 15.046 154.878, 15.270 174.603, 15.470 174.803 C 15.670 175.004, 21.497 174.319, 28.417 173.281 L 41 171.394 41 173.780 C 41 176.735, 43.366 176.251, 43.815 173.205 C 44.041 171.673, 45.035 170.919, 47.315 170.549 C 49.067 170.265, 53.170 169.575, 56.434 169.016 C 59.697 168.457, 63.783 168, 65.514 168 C 67.245 168, 79.870 172.682, 93.580 178.408 C 114.805 187.273, 118.587 188.571, 119.086 187.158 C 119.408 186.246, 122.100 174.618, 125.069 161.317 C 128.038 148.016, 130.566 137.232, 130.686 137.353 C 130.806 137.473, 134.129 151.280, 138.071 168.036 C 142.013 184.791, 145.562 198.855, 145.958 199.289 C 146.354 199.723, 156.411 186.021, 168.307 168.840 C 180.203 151.660, 189.760 137.427, 189.545 137.211 C 189.329 136.996, 179.844 132.656, 168.467 127.568 L 147.781 118.317 145.043 111.280 L 142.305 104.242 147.402 103.630 C 150.206 103.293, 155.200 102.982, 158.500 102.938 C 169.078 102.799, 169.118 104.349, 157.870 78.482 C 148.180 56.198, 147.728 55.389, 143.681 53.073 C 141.381 51.757, 137.700 49.550, 135.500 48.169 L 131.500 45.657 153.492 41.047 C 169.909 37.606, 175.559 36.050, 175.779 34.907 C 176.027 33.623, 170.738 32.722, 142.787 29.293 C 124.479 27.046, 109.372 25.326, 109.217 25.471 C 109.061 25.615, 111.648 32.753, 114.967 41.332 C 118.285 49.912, 121 57.207, 121 57.545 C 121 58.410, 95.320 57.659, 94.432 56.768 C 94.031 56.366, 92.983 46.839, 92.102 35.598 C 91.221 24.357, 90.275 14.936, 90 14.663 C 89.725 14.390, 83.916 22.722, 77.093 33.180 M 77.250 37.942 C 71.612 46.621, 67 54.460, 67 55.361 C 67 56.790, 68.557 57, 79.129 57 L 91.258 57 90.670 52.250 C 90.347 49.637, 89.776 42.550, 89.402 36.500 C 89.027 30.450, 88.446 24.749, 88.110 23.831 C 87.677 22.645, 84.534 26.728, 77.250 37.942 M 22.062 40.569 C 21.370 48.582, 21.014 55.347, 21.269 55.602 C 21.865 56.199, 61 42.894, 61 42.095 C 61 41.445, 25.708 26, 24.222 26 C 23.726 26, 22.754 32.556, 22.062 40.569 M 118.592 43.060 C 121.567 50.793, 124 57.318, 124 57.560 C 124 57.802, 129.063 57.996, 135.250 57.992 L 146.500 57.983 136.673 52.115 C 131.268 48.887, 126.387 45.787, 125.827 45.227 C 125.134 44.534, 126.361 43.883, 129.654 43.196 C 156.001 37.697, 165.854 35.520, 165.591 35.258 C 165.144 34.811, 119.012 29.013, 115.842 29.006 L 113.185 29 118.592 43.060 M 20.575 60.122 C 20.322 60.880, 19.379 69.326, 18.479 78.890 C 17.119 93.349, 16.965 102.673, 17.569 134.211 C 18.294 172.071, 18.300 172.142, 20.398 171.655 C 21.554 171.387, 26.615 170.622, 31.644 169.956 L 40.787 168.745 41.522 147.181 L 42.257 125.617 39.520 123.435 C 36.782 121.251, 37.353 119.431, 40.410 120.604 C 41.789 121.133, 42 120.054, 42 112.490 C 42 103.955, 42.048 103.779, 44.233 104.351 C 46.940 105.058, 77.384 88.437, 76.685 86.633 C 76.444 86.010, 73.881 79.763, 70.990 72.750 L 65.733 60 47.117 59.989 C 36.877 59.983, 26.820 59.700, 24.768 59.361 C 22.062 58.914, 20.909 59.123, 20.575 60.122 M 144.698 64.012 C 143.827 67.031, 141.898 74.379, 140.411 80.343 C 137.865 90.549, 137.793 91.459, 139.170 95.843 L 140.634 100.500 152.038 100.196 C 158.310 100.029, 163.563 99.770, 163.712 99.622 C 163.860 99.473, 160.346 91.060, 155.903 80.926 C 151.459 70.792, 147.476 61.606, 147.052 60.512 C 146.431 58.913, 145.971 59.598, 144.698 64.012 M 69 60.362 C 69 60.876, 79.155 85.427, 79.541 85.847 C 79.717 86.038, 83.062 84.463, 86.975 82.347 C 93.721 78.700, 94.064 78.344, 93.585 75.500 C 93.308 73.850, 92.779 69.688, 92.411 66.250 L 91.742 60 80.371 60 C 74.117 60, 69 60.163, 69 60.362 M 95.009 62.750 C 95.026 68.376, 96.310 76, 97.240 76 C 98.162 76, 115.822 66.454, 121 63.156 L 123.500 61.564 120.500 60.900 C 118.850 60.535, 112.438 60.183, 106.250 60.118 L 95 60 95.009 62.750 M 130.998 71.750 C 133.638 81.745, 135.788 88.331, 135.937 86.884 C 135.971 86.546, 137.347 81.146, 138.994 74.884 C 140.640 68.623, 141.990 62.938, 141.994 62.250 C 141.998 61.370, 139.952 61, 135.079 61 L 128.158 61 130.998 71.750 M 111.143 71.920 C 104.367 75.691, 98.413 79.187, 97.913 79.687 C 97.204 80.396, 99.478 102.772, 100.352 103.679 C 100.842 104.187, 136.617 101.622, 137.283 101.030 C 138.305 100.122, 137.050 96.851, 135.942 97.536 C 135.475 97.824, 134.597 96.134, 133.990 93.780 C 131.521 84.197, 125.576 67.292, 124.144 65.782 C 123.770 65.387, 117.919 68.149, 111.143 71.920 M 87.500 85.042 C 84.750 86.659, 82.088 88.124, 81.585 88.296 C 81.082 88.469, 82.188 92.461, 84.044 97.168 L 87.416 105.727 113.458 110.240 C 127.781 112.723, 140.528 115.091, 141.785 115.503 L 144.070 116.252 141.963 110.876 C 140.805 107.919, 139.552 105.191, 139.178 104.814 C 138.805 104.437, 129.503 104.737, 118.507 105.480 C 105.650 106.349, 98.299 106.484, 97.913 105.858 C 97.582 105.324, 96.718 99.737, 95.993 93.443 C 95.205 86.598, 94.238 82.020, 93.588 82.050 C 92.989 82.078, 90.250 83.424, 87.500 85.042 M 61 99.843 L 45.500 108.600 45.252 116.050 L 45.004 123.500 54.503 128.731 C 62.298 133.022, 65.663 134.248, 73.251 135.555 L 82.500 137.148 90.632 145.700 L 98.763 154.252 109.632 142.880 C 115.609 136.626, 123.282 128.589, 126.682 125.020 C 130.083 121.451, 133.042 118.749, 133.258 119.016 C 133.474 119.282, 138.965 127.150, 145.460 136.500 C 159.458 156.650, 159.696 156.933, 157.254 150.500 C 145.500 119.532, 145.850 120.245, 141.528 118.540 C 139.313 117.667, 126.700 115.160, 113.500 112.971 C 100.300 110.781, 88.555 108.775, 87.400 108.514 C 85.835 108.159, 84.463 105.870, 82.007 99.519 C 80.196 94.833, 78.216 91.020, 77.607 91.044 C 76.998 91.068, 69.525 95.027, 61 99.843 M 151.035 126.822 C 156.302 140.602, 166.147 165.480, 166.454 165.787 C 166.649 165.982, 171.117 159.950, 176.383 152.383 C 181.649 144.816, 185.855 138.528, 185.729 138.409 C 185.414 138.113, 154.014 124.006, 151.373 122.974 L 149.247 122.143 151.035 126.822 M 125.469 130.232 C 121.678 134.229, 114.120 142.137, 108.674 147.804 L 98.772 158.109 90.136 149.021 L 81.500 139.932 72.500 138.345 C 65.303 137.076, 61.727 135.768, 54.650 131.813 C 49.782 129.093, 45.534 127.132, 45.210 127.456 C 44.887 127.780, 44.423 137.103, 44.180 148.174 L 43.738 168.302 46.619 167.740 C 48.204 167.431, 53.775 166.646, 59 165.996 L 68.500 164.813 92.443 174.880 C 105.612 180.417, 116.516 184.817, 116.676 184.658 C 116.919 184.415, 126.269 143.666, 128.472 133.250 C 129.260 129.521, 131.705 128.913, 132.493 132.250 C 140.600 166.594, 147.072 193.406, 147.315 193.648 C 147.486 193.819, 151.508 188.346, 156.254 181.486 L 164.882 169.014 149.343 146.757 C 140.797 134.516, 133.480 124.154, 133.084 123.732 C 132.688 123.309, 129.261 126.234, 125.469 130.232" stroke="none" fill="black" fill-rule="evenodd"/>
</svg>