<svg xmlns="http://www.w3.org/2000/svg" width="200" height="200" viewBox="0 0 200 200" version="1.1">
	<path d="M 99.732 29.842 L 81.974 49.500 90.056 49.792 C 101.021 50.187, 100.205 52.124, 88.423 53.673 C 75.220 55.410, 73.116 55.350, 73.542 53.250 C 73.736 52.288, 74.172 49.363, 74.509 46.750 C 75.003 42.928, 75.501 42, 77.061 42 C 78.897 42, 79 41.169, 79 26.417 C 79 14.396, 78.714 10.928, 77.750 11.247 C 76.959 11.509, 75.788 16.860, 74.563 25.806 L 72.626 39.950 57.672 40.225 L 42.717 40.500 38.047 53 L 33.376 65.500 33.541 111.500 C 33.689 153.129, 33.916 158.971, 35.921 172.985 C 37.140 181.502, 38.232 188.565, 38.347 188.681 C 38.463 188.796, 46.454 185.106, 56.105 180.480 L 73.653 172.069 94.244 171.960 L 114.834 171.852 128.529 179.426 C 136.062 183.592, 142.553 187, 142.955 187 C 143.356 187, 147.369 179.832, 151.871 171.070 L 160.057 155.141 158.931 134.820 C 158.270 122.888, 158.086 106.117, 158.485 94.193 C 159.017 78.338, 158.784 69.896, 157.425 55.693 C 156.468 45.687, 155.562 37.344, 155.412 37.153 C 155.262 36.962, 146.756 39.118, 136.511 41.944 C 120.524 46.354, 116.839 47.041, 110.516 46.791 L 103.147 46.500 111.053 30 C 118.926 13.566, 119.680 11.538, 118.245 10.651 C 117.830 10.395, 109.499 19.031, 99.732 29.842 M 104.413 28.750 C 100.062 33.563, 94.505 39.661, 92.065 42.303 L 87.628 47.105 93.820 46.803 L 100.012 46.500 106.457 33.250 C 110.002 25.962, 112.772 20, 112.613 20 C 112.454 20, 108.764 23.938, 104.413 28.750 M 137.500 44.482 C 126.504 47.560, 119.715 48.861, 112.066 49.357 C 106.328 49.730, 101.415 50.251, 101.150 50.517 C 99.766 51.901, 102.828 51.920, 113.593 50.593 C 120.121 49.788, 125.601 49.268, 125.771 49.437 C 126.240 49.907, 108.830 66, 107.853 66 C 105.807 66, 107.394 63.535, 112.750 58.396 L 118.500 52.879 114 53.387 C 111.525 53.667, 107.091 54.192, 104.147 54.556 L 98.794 55.216 96.341 60.764 C 93.786 66.540, 94.233 68.275, 98.020 67.285 C 99.138 66.992, 99.947 67.431, 100.159 68.446 C 100.351 69.363, 106.852 73.502, 115 77.896 L 129.500 85.713 130.664 92.607 C 131.304 96.398, 132.105 101.975, 132.442 105 L 133.056 110.500 126.528 114.914 C 122.938 117.341, 120.001 119.591, 120.003 119.914 C 120.004 120.236, 122.119 121.625, 124.701 123 L 129.396 125.500 131.137 134.500 C 132.095 139.450, 132.906 144.195, 132.939 145.044 C 132.973 145.893, 128.463 151.405, 122.917 157.294 L 112.834 168 88.917 168 C 70.472 168, 64.991 167.714, 64.959 166.750 C 64.936 166.063, 63.869 157.400, 62.587 147.500 C 60.717 133.056, 60.493 129.038, 61.452 127.162 C 62.427 125.256, 62.108 121.597, 59.724 107.345 C 58.116 97.732, 57.023 89.643, 57.296 89.371 C 57.568 89.098, 61.827 90.902, 66.760 93.379 L 75.728 97.883 80.747 87.067 L 85.766 76.250 74.459 81.625 C 68.239 84.581, 62.746 87, 62.251 87 C 61.512 87, 58.960 58.220, 58.991 50.236 L 59 47.971 64.890 50.944 L 70.780 53.918 71.472 48.375 C 71.853 45.326, 72.015 42.757, 71.832 42.666 C 71.650 42.575, 65.445 42.725, 58.044 43 L 44.589 43.500 40.423 54.401 L 36.258 65.302 36.568 113.401 C 36.827 153.719, 37.170 163.405, 38.689 173.275 L 40.500 185.050 56.837 177.025 L 73.174 169 94.202 169 L 115.229 169 128 176 C 135.024 179.850, 141.175 183, 141.669 183 C 142.162 183, 145.869 176.659, 149.906 168.908 L 157.247 154.816 156.146 133.658 C 155.541 122.021, 155.308 103.050, 155.629 91.500 C 156.070 75.661, 155.817 66.833, 154.602 55.579 C 153.716 47.372, 152.881 40.573, 152.746 40.470 C 152.611 40.367, 145.750 42.172, 137.500 44.482 M 62.016 55.750 C 62.042 60.288, 63.977 82.311, 64.386 82.719 C 65.349 83.682, 87.905 72.046, 88.984 70.029 C 89.632 68.819, 90.013 67.691, 89.831 67.522 C 89.649 67.354, 85.225 64.979, 80 62.246 C 74.775 59.513, 68.925 56.316, 67 55.142 C 62.479 52.385, 61.997 52.444, 62.016 55.750 M 83.750 56.735 C 81.138 56.941, 79.005 57.422, 79.012 57.805 C 79.025 58.554, 91.034 65.390, 91.362 64.835 C 92.001 63.751, 95 56.854, 95 56.466 C 95 55.994, 92.345 56.057, 83.750 56.735 M 92.680 72.609 C 90.570 73.752, 88.475 77.079, 84.358 85.819 C 81.333 92.243, 78.776 97.843, 78.678 98.261 C 78.487 99.080, 114.449 118, 116.197 118 C 118.165 118, 130 108.904, 130 107.391 C 130 105.734, 128.182 92.709, 127.496 89.457 C 127.191 88.007, 122.610 85.033, 111.708 79.207 C 103.261 74.693, 96.159 71.018, 95.925 71.040 C 95.691 71.062, 94.231 71.768, 92.680 72.609 M 60.286 95.173 C 60.583 96.453, 61.632 102.338, 62.616 108.250 C 63.600 114.162, 64.699 119, 65.059 119 C 65.576 119, 71.144 107.581, 73.687 101.306 C 73.973 100.600, 71.218 98.624, 66.958 96.479 C 59.929 92.939, 59.758 92.906, 60.286 95.173 M 71.398 112.862 L 66.297 123.706 78.898 124.349 C 101.751 125.515, 106.616 125.270, 110.438 122.765 L 113.848 120.530 96.174 111.287 C 86.453 106.204, 78.050 102.039, 77.500 102.032 C 76.950 102.024, 74.204 106.898, 71.398 112.862 M 112 125.040 L 107.500 128.072 85.910 127.397 C 67.795 126.831, 64.233 126.950, 63.779 128.135 C 63.481 128.911, 64.165 137.492, 65.300 147.204 L 67.364 164.862 88.932 165.196 L 110.500 165.531 118.323 158.015 C 130.704 146.121, 130.420 146.740, 128.443 135.981 L 126.778 126.921 121.922 124.461 C 119.252 123.107, 116.939 122.002, 116.783 122.004 C 116.627 122.007, 114.475 123.373, 112 125.040" stroke="none" fill="black" fill-rule="evenodd"/>
</svg>