<svg xmlns="http://www.w3.org/2000/svg" width="200" height="200" viewBox="0 0 200 200" version="1.1">
	<path d="M 39.250 31.326 L 26 53.624 26.002 64.562 C 26.003 70.578, 26.300 86.628, 26.662 100.229 L 27.319 124.957 35.304 130.229 C 39.695 133.128, 43.703 135.770, 44.211 136.100 C 44.915 136.558, 38.251 154.962, 31.367 171.571 C 31.098 172.220, 35.114 173.520, 41.572 174.876 C 51.859 177.034, 52.293 177.049, 54.336 175.305 C 55.499 174.312, 63.437 167.181, 71.976 159.457 C 96.488 137.283, 101.947 134.157, 103.783 141.243 L 104.624 144.487 115.542 146.184 C 121.547 147.118, 126.591 148.246, 126.751 148.691 C 126.910 149.136, 132.841 160.750, 139.929 174.500 C 154.652 203.059, 155.725 204.197, 158.596 194.313 C 159.525 191.116, 162.633 180.500, 165.502 170.722 C 168.371 160.944, 170.444 152.779, 170.109 152.577 C 169.774 152.375, 160.314 150.702, 149.086 148.859 C 128.920 145.549, 128.649 145.471, 126.839 142.504 C 125.832 140.852, 125.006 139.186, 125.004 138.803 C 125.002 138.420, 137.713 138.360, 153.250 138.671 L 181.500 139.236 174.104 131.697 L 166.708 124.159 168.271 92.532 L 169.835 60.906 161.015 37.703 C 156.163 24.941, 151.813 14.678, 151.347 14.894 C 150.881 15.111, 147.265 23.227, 143.312 32.930 L 136.124 50.571 137.655 66.036 C 138.968 79.300, 139.007 84.381, 137.929 101.750 C 137.238 112.888, 136.397 122, 136.060 122 C 135.724 122, 133.254 115.363, 130.571 107.251 C 125.884 93.077, 125.234 91.813, 113.902 74.853 L 102.110 57.205 112.805 48.943 C 118.687 44.400, 123.895 40.336, 124.379 39.912 C 124.862 39.489, 119.091 35.060, 111.553 30.071 C 100.459 22.728, 97.148 21.004, 94.174 21.022 C 88.854 21.054, 65.007 23.659, 64.391 24.275 C 64.104 24.563, 65.249 27.530, 66.935 30.870 C 70.527 37.986, 70.605 38.394, 68.124 37.066 C 67.092 36.514, 63.291 29.973, 59.678 22.531 C 56.065 15.089, 52.972 9.006, 52.804 9.014 C 52.637 9.021, 46.538 19.062, 39.250 31.326 M 40.474 34.691 L 28.652 54.420 28.830 69.960 C 28.927 78.507, 29.291 94.070, 29.637 104.544 L 30.268 123.587 39.134 129.422 C 44.010 132.632, 48 135.609, 48 136.040 C 48 136.470, 45.060 144.347, 41.468 153.545 C 37.875 162.743, 35.062 170.386, 35.218 170.529 C 35.373 170.672, 39.216 171.542, 43.759 172.462 L 52.017 174.135 68.259 159.274 C 87.989 141.219, 95.974 135, 99.424 135 C 101.333 135, 102 134.482, 102 133 C 102 131.900, 101.585 131, 101.077 131 C 100.570 131, 95.296 121.550, 89.358 110 C 83.420 98.450, 78.322 89.010, 78.031 89.021 C 77.739 89.033, 74.249 94.546, 70.275 101.271 C 55.739 125.874, 52.436 130.888, 51.248 130.153 C 50.449 129.659, 53.528 122.413, 61.086 107.007 C 67.136 94.672, 72.262 84.404, 72.477 84.190 C 72.691 83.975, 73.342 84.093, 73.922 84.452 C 74.598 84.870, 73.899 87.239, 71.974 91.052 C 70.322 94.323, 69.151 97, 69.371 97 C 69.591 97, 71.683 93.835, 74.020 89.968 C 76.357 86.100, 78.395 83.062, 78.549 83.218 C 78.703 83.373, 83.359 92.275, 88.896 103 C 94.433 113.725, 98.971 121.902, 98.982 121.171 C 98.992 120.440, 96.752 109.932, 94.004 97.820 C 88.646 74.202, 88.261 73.333, 79.494 65 C 77.295 62.910, 73.455 56.818, 69.963 49.879 C 66.746 43.487, 63.384 37.977, 62.491 37.635 C 61.289 37.174, 61.003 37.463, 61.388 38.756 C 61.673 39.715, 63.060 45.111, 64.470 50.747 L 67.033 60.995 59.419 78.997 C 55.231 88.899, 51.474 97, 51.069 97 C 49.079 97, 49.796 94.644, 56.731 78.384 L 64.211 60.849 60.703 46.841 L 57.196 32.832 59.541 33.421 C 61.799 33.988, 61.726 33.671, 57.605 25 C 55.251 20.045, 53.093 15.759, 52.810 15.477 C 52.527 15.194, 46.976 23.841, 40.474 34.691 M 150.063 23.746 C 149.369 25.261, 146.591 32.032, 143.889 38.794 L 138.978 51.088 140.532 67.294 C 141.965 82.241, 141.951 85.387, 140.344 107.785 C 138.868 128.365, 138.370 132.025, 137.083 131.777 C 136.069 131.582, 133.559 125.305, 129.532 112.892 L 123.500 94.298 111.250 75.872 C 104.513 65.738, 99 57.151, 99 56.789 C 99 56.427, 103.725 52.472, 109.500 48 C 115.275 43.528, 120 39.666, 120 39.419 C 120 39.172, 114.686 35.458, 108.191 31.167 L 96.383 23.365 82.441 24.770 C 74.774 25.543, 68.366 26.308, 68.201 26.470 C 68.037 26.632, 69.357 29.713, 71.134 33.318 C 74.098 39.327, 74.783 40.030, 79.395 41.782 C 85.033 43.924, 84.323 42.332, 89.016 63.367 C 91.184 73.082, 91.326 73.357, 98.234 81.196 C 105.101 88.989, 105.237 89.251, 104.655 93.500 C 104.103 97.530, 104.740 99.165, 113.539 116.292 C 122.947 134.603, 123.046 134.746, 126.759 135.360 C 128.817 135.700, 140.385 135.983, 152.466 135.989 L 174.432 136 169.111 130.612 L 163.790 125.224 165.438 93.299 L 167.087 61.374 159.506 41.483 C 155.337 30.543, 151.790 21.457, 151.625 21.292 C 151.460 21.127, 150.757 22.231, 150.063 23.746 M 69 41.447 C 69 43.810, 78.542 60.179, 81.564 63 L 85.314 66.500 78.762 54 C 75.132 47.073, 71.495 41.356, 70.605 41.177 C 69.722 40.999, 69 41.120, 69 41.447 M 80.710 51.465 C 82.742 55.570, 84.546 58.788, 84.719 58.615 C 85.646 57.687, 82.418 47.243, 80.742 45.750 C 77.032 42.444, 77.023 44.014, 80.710 51.465 M 94.103 85.500 C 94.107 86.050, 95.360 91.874, 96.888 98.441 C 98.950 107.302, 99.835 109.753, 100.320 107.941 C 101.744 102.617, 100.887 97.470, 97.500 91 C 95.628 87.425, 94.100 84.950, 94.103 85.500 M 99.676 89.393 C 100.966 92.147, 101.602 92.769, 101.847 91.518 C 102.038 90.546, 101.217 88.794, 100.023 87.625 L 97.851 85.500 99.676 89.393 M 102.636 112.750 C 102.165 118.305, 102.435 122.554, 103.590 127.750 L 105.201 135 112.677 135 L 120.153 135 112.335 120 C 108.035 111.750, 104.241 105, 103.905 105 C 103.569 105, 102.998 108.487, 102.636 112.750 M 106.015 138.750 C 106.062 141.031, 108.483 142.179, 116.068 143.513 C 120.706 144.330, 124.605 144.998, 124.734 144.999 C 124.862 144.999, 124.217 143.425, 123.299 141.500 L 121.630 138 113.815 138 C 109.517 138, 106.007 138.338, 106.015 138.750 M 142.206 172.905 C 148.968 186.052, 154.657 196.658, 154.849 196.472 C 155.919 195.439, 166.893 155.509, 166.260 154.956 C 165.539 154.327, 133.943 148.941, 131.206 148.981 C 130.448 148.992, 134.999 158.891, 142.206 172.905" stroke="none" fill="black" fill-rule="evenodd"/>
</svg>