<svg xmlns="http://www.w3.org/2000/svg" width="200" height="200" viewBox="0 0 200 200" version="1.1">
	<path d="M 81.768 17.566 C 80.907 18.426, 87.035 40.288, 88.467 41.468 C 89.753 42.527, 91.298 46, 90.483 46 C 90.233 46, 88.875 44.258, 87.466 42.128 C 85.432 39.055, 82.003 36.675, 70.831 30.583 C 63.090 26.363, 56.637 23.042, 56.490 23.205 C 56.343 23.367, 51.217 33.520, 45.099 45.767 C 38.981 58.013, 30.830 73.072, 26.987 79.231 C 23.144 85.390, 20.025 90.670, 20.055 90.965 C 20.086 91.259, 24.120 94.875, 29.020 99 C 33.919 103.125, 37.937 107.175, 37.947 108 C 37.956 108.825, 37.081 119.625, 36 132 C 34.919 144.375, 34.027 155.702, 34.018 157.172 C 34.003 159.440, 36.590 161.906, 51.145 173.499 L 68.289 187.155 76.895 186.351 C 81.628 185.909, 103.275 185.604, 125 185.674 L 164.500 185.801 172.829 169.813 C 177.410 161.020, 181.010 153.708, 180.829 153.564 C 180.648 153.420, 176.766 151.278, 172.201 148.804 L 163.903 144.305 143.701 151.608 L 123.500 158.911 98.601 159.053 L 73.701 159.196 67.998 141.348 C 64.862 131.532, 62.429 123.338, 62.591 123.140 C 62.753 122.943, 72.699 121.540, 84.693 120.024 L 106.500 117.268 127.303 124.748 C 138.745 128.861, 148.239 132.063, 148.401 131.863 C 148.563 131.664, 153.039 125.692, 158.348 118.594 L 168 105.687 168 81.375 C 168 62.366, 167.727 57.155, 166.750 57.486 C 164.972 58.087, 126.901 66.856, 124.539 67.208 C 122.956 67.444, 122.449 66.731, 121.907 63.508 C 121.312 59.969, 122.017 57.824, 128.122 44.595 C 131.909 36.389, 134.893 29.563, 134.754 29.426 C 134.614 29.290, 124.825 31.128, 113 33.511 C 101.175 35.895, 91.218 37.542, 90.874 37.172 C 90.530 36.802, 88.806 32.112, 87.042 26.750 C 84.044 17.636, 83.188 16.145, 81.768 17.566 M 46.981 48.076 C 41.216 59.668, 33.519 73.919, 29.875 79.744 L 23.251 90.336 31.875 97.807 C 36.619 101.916, 40.630 105.383, 40.789 105.511 C 40.948 105.640, 40.161 116.449, 39.039 129.531 C 37.918 142.614, 37 154.539, 37 156.031 C 37 158.342, 39.382 160.635, 53.010 171.446 L 69.021 184.147 93.260 183.087 C 108.384 182.425, 125.774 182.342, 139.500 182.866 C 155.219 183.465, 161.818 183.390, 162.613 182.602 C 164.151 181.080, 177.459 155.109, 176.929 154.665 C 176.693 154.467, 173.667 152.730, 170.205 150.804 L 163.909 147.302 143.398 154.668 L 122.886 162.034 97.248 161.767 L 71.610 161.500 65.325 142 C 61.868 131.275, 59.031 122.027, 59.020 121.449 C 59.008 120.822, 68.701 119.227, 83.069 117.492 L 107.138 114.585 115.819 117.692 C 120.594 119.401, 129.568 122.619, 135.761 124.844 L 147.023 128.888 156.011 116.985 L 165 105.082 165 82.924 L 165 60.767 162.750 61.364 C 161.512 61.692, 156.099 62.947, 150.719 64.152 C 145.340 65.358, 141.383 66.619, 141.926 66.954 C 142.566 67.350, 142.228 75.964, 140.963 91.443 C 139.890 104.576, 138.897 115.418, 138.756 115.536 C 138.615 115.655, 131.975 112.320, 124 108.126 L 109.500 100.500 104.600 86.750 L 99.701 73 93.600 73.106 C 90.245 73.164, 83.481 73.502, 78.568 73.856 C 69.722 74.494, 69.628 74.529, 68.850 77.454 C 68.088 80.317, 70.380 84.256, 81.118 98.543 C 81.570 99.145, 79.548 102.532, 76.342 106.543 C 73.284 110.369, 69.919 114.590, 68.863 115.921 C 67.562 117.561, 66.615 118.015, 65.927 117.327 C 65.239 116.639, 67.051 113.660, 71.541 108.099 C 75.187 103.582, 77.944 99.350, 77.666 98.694 C 77.389 98.037, 74.910 94.410, 72.158 90.634 L 67.154 83.768 65.146 90.634 C 64.042 94.410, 62.640 99.412, 62.031 101.750 C 61.336 104.414, 60.352 106, 59.394 106 C 58.410 106, 58.047 105.376, 58.375 104.250 C 58.656 103.287, 60.282 97.637, 61.988 91.694 L 65.091 80.889 61.999 76.694 L 58.907 72.500 63.454 72.195 C 67.186 71.945, 68 71.542, 68 69.945 C 68 68.218, 67.272 68, 61.500 68 C 57.925 68, 55 67.656, 55 67.235 C 55 65.916, 75.095 43.517, 76.584 43.177 C 78.546 42.729, 78.376 44.104, 75.092 55.250 L 72.219 65 84.610 65 C 91.424 65, 97 64.842, 97 64.649 C 97 62.460, 93.596 55.892, 88.830 48.888 L 82.970 40.275 70.646 33.638 C 63.868 29.987, 58.128 27, 57.892 27 C 57.655 27, 52.745 36.484, 46.981 48.076 M 110 36.756 C 100.375 38.707, 92.338 40.435, 92.140 40.595 C 91.045 41.482, 97.449 56.781, 100.981 61.713 C 105.056 67.403, 105.086 67.508, 102.822 68.042 C 98.450 69.074, 102.529 69.636, 111.320 69.213 L 120.140 68.789 119.421 64.645 C 119.026 62.365, 118.702 60.050, 118.702 59.500 C 118.702 58.950, 121.244 52.922, 124.351 46.104 C 127.458 39.286, 130 33.549, 130 33.354 C 130 32.762, 128.149 33.076, 110 36.756 M 69.943 53.750 C 68.039 55.813, 64.935 59.188, 63.044 61.250 L 59.608 65 64.561 65 L 69.515 65 71.616 57.500 C 72.772 53.375, 73.647 50, 73.562 50 C 73.476 50, 71.848 51.688, 69.943 53.750 M 70.999 69.750 C 70.998 71.345, 71.907 71.443, 81.249 70.856 C 86.887 70.502, 93.214 70.164, 95.309 70.106 C 97.571 70.043, 98.867 69.594, 98.500 69 C 98.138 68.414, 92.323 68, 84.441 68 C 72.307 68, 71 68.170, 70.999 69.750 M 119.250 71.276 C 108.287 71.921, 103.022 72.601, 103.068 73.366 C 103.106 73.990, 105.018 79.900, 107.318 86.500 L 111.500 98.500 123.500 104.722 C 130.100 108.144, 135.768 110.957, 136.095 110.972 C 136.422 110.987, 137.223 103.688, 137.874 94.750 C 138.526 85.813, 139.322 76.588, 139.643 74.250 C 140.192 70.254, 140.086 70.010, 137.864 70.160 C 136.564 70.249, 128.188 70.751, 119.250 71.276 M 64.510 76.016 C 64.856 76.575, 65.557 76.774, 66.069 76.457 C 67.456 75.600, 67.198 75, 65.441 75 C 64.584 75, 64.165 75.457, 64.510 76.016" stroke="none" fill="black" fill-rule="evenodd"/>
</svg>