<svg xmlns="http://www.w3.org/2000/svg" width="200" height="200" viewBox="0 0 200 200" version="1.1">
	<path d="M 57.534 22.925 L 43.792 38.901 38.146 40.010 C 29.279 41.750, 29.146 41.861, 33.024 44.272 C 34.936 45.461, 42.933 50.611, 50.796 55.717 C 58.659 60.823, 65.559 65, 66.130 65 C 69.045 65, 64.956 61.629, 51.588 53.011 L 36.835 43.500 41.253 42.238 C 45.167 41.121, 47.078 39.324, 58.010 26.488 C 64.796 18.520, 70.608 12.008, 70.925 12.018 C 71.241 12.028, 75.550 18.997, 80.500 27.506 C 85.450 36.014, 89.782 42.981, 90.126 42.988 C 90.470 42.994, 98.064 37.150, 107 30 C 115.936 22.850, 123.501 17, 123.809 17 C 124.117 17, 128.291 20.837, 133.084 25.528 L 141.799 34.055 157.149 33.401 C 167.127 32.976, 172.150 33.088, 171.500 33.722 C 167.517 37.606, 149.165 48.442, 131.477 57.355 C 119.914 63.181, 109.652 68.534, 108.673 69.250 C 107.130 70.378, 108.873 70.991, 121.696 73.830 C 129.838 75.632, 142.350 78.770, 149.500 80.802 L 162.500 84.498 148.500 85.641 C 140.800 86.270, 128.802 87.119, 121.839 87.528 C 114.875 87.938, 108.628 88.612, 107.956 89.027 C 107.102 89.555, 109.678 94.094, 116.535 104.141 C 121.925 112.038, 126.442 118.645, 126.573 118.822 C 126.704 119, 134.514 117.537, 143.929 115.572 C 153.344 113.608, 161.374 112.019, 161.773 112.042 C 164.468 112.199, 114.502 130, 111.367 130 C 110.642 130, 109.207 128.362, 108.180 126.360 L 106.313 122.720 89.251 145.113 L 72.188 167.506 52.344 173.409 C 41.430 176.656, 31.600 179.508, 30.500 179.747 C 29.400 179.986, 34.080 177.025, 40.900 173.168 L 53.299 166.155 70.197 143.327 L 87.094 120.500 83.297 119.808 C 81.209 119.427, 71.850 119.076, 62.500 119.027 C 52.414 118.975, 46.110 118.588, 47 118.075 C 47.825 117.600, 59.975 113.712, 74 109.435 C 88.025 105.157, 99.815 101.397, 100.201 101.078 C 100.586 100.760, 89.387 97.124, 75.313 92.999 C 50.838 85.826, 49.938 85.476, 54.613 84.944 C 58.088 84.549, 65.214 81.510, 79.281 74.424 L 99.062 64.459 104.937 51.980 C 108.168 45.116, 110.689 39.373, 110.539 39.217 C 109.754 38.400, 71 61.415, 71 62.699 C 71 64.257, 75.520 61.998, 95 50.705 C 100.225 47.676, 104.635 45.326, 104.800 45.483 C 104.966 45.639, 103.215 49.569, 100.911 54.215 L 96.721 62.663 77.354 72.331 L 57.987 82 47.493 82 C 39.681 82, 37 82.324, 37 83.269 C 37 84.067, 47.015 87.478, 64.005 92.464 C 78.857 96.824, 90.670 100.711, 90.255 101.103 C 89.043 102.246, 43.944 115.766, 39 116.468 C 30.678 117.650, 29 118.153, 29 119.466 C 29 120.491, 34.732 120.932, 55.542 121.511 C 70.140 121.916, 81.953 122.556, 81.792 122.933 C 81.631 123.310, 74.797 132.660, 66.605 143.710 L 51.711 163.801 33.359 174.150 C 23.266 179.843, 15.007 185.063, 15.004 185.750 C 15.002 186.438, 15.283 187, 15.628 187 C 16.123 187, 37.331 180.779, 72.120 170.430 C 73.011 170.165, 80.884 160.551, 89.616 149.067 C 98.347 137.582, 105.831 128.395, 106.246 128.652 C 106.661 128.908, 107 129.954, 107 130.976 C 107 131.997, 107.375 132.983, 107.833 133.167 C 108.291 133.350, 112.187 140.250, 116.491 148.500 C 120.794 156.750, 124.386 163.604, 124.472 163.731 C 125.044 164.575, 173.284 183.049, 173.735 182.598 C 174.506 181.828, 171.257 154.851, 170.280 153.902 C 169.851 153.486, 156.926 148.443, 141.558 142.696 L 113.616 132.247 129.558 127.156 C 148.616 121.070, 179.191 108.926, 179.761 107.217 C 180.366 105.402, 179.116 105.577, 152.931 110.994 C 139.653 113.740, 128.464 115.787, 128.067 115.542 C 126.167 114.367, 111.051 91, 112.192 91 C 112.911 91, 126.100 90.066, 141.500 88.923 C 166.843 87.043, 172.515 86.181, 170.805 84.471 C 169.769 83.436, 140.642 75.302, 127.675 72.427 C 116.347 69.915, 115.062 69.426, 116.675 68.233 C 117.679 67.491, 126.600 62.802, 136.500 57.813 C 150.922 50.546, 175.299 35.600, 180.460 30.861 C 181.015 30.352, 173.300 30.262, 162.184 30.649 L 142.948 31.318 133.538 22.089 L 124.128 12.861 107.820 25.931 C 98.851 33.119, 91.238 39, 90.904 39 C 90.569 39, 86.559 32.588, 81.992 24.750 C 77.426 16.912, 73.147 9.701, 72.483 8.724 C 71.410 7.146, 69.744 8.728, 57.534 22.925 M 113.114 135.747 C 113.326 136.334, 116.420 142.429, 119.990 149.293 L 126.480 161.773 148.388 170.405 C 160.437 175.153, 170.478 178.855, 170.701 178.632 C 171.242 178.091, 168.805 157.281, 168.073 156.190 C 167.758 155.721, 156.025 151.020, 142 145.743 C 127.975 140.466, 115.651 135.818, 114.614 135.415 C 113.432 134.956, 112.872 135.080, 113.114 135.747" stroke="none" fill="black" fill-rule="evenodd"/>
</svg>