<svg xmlns="http://www.w3.org/2000/svg" width="200" height="200" viewBox="0 0 200 200" version="1.1">
	<path d="M 106.500 18.724 C 93.300 19.525, 82.288 20.389, 82.028 20.645 C 81.769 20.901, 82.825 23.367, 84.375 26.125 C 85.925 28.883, 86.979 31.354, 86.717 31.616 C 86.455 31.878, 74.374 31.397, 59.870 30.548 C 45.367 29.698, 33.163 29.002, 32.750 29.001 C 32.337 29.001, 32 29.643, 32 30.429 C 32 31.311, 34.203 32.491, 37.750 33.510 C 40.913 34.418, 46.091 35.913, 49.259 36.831 C 52.951 37.901, 54.848 38.943, 54.546 39.733 C 54.287 40.412, 46.859 51.926, 38.038 65.320 C 29.217 78.714, 22.001 90.084, 22.002 90.586 C 22.004 91.089, 29.129 96.675, 37.836 103 C 51.194 112.703, 54.174 115.352, 56.904 119.948 C 59.428 124.198, 59.932 125.848, 59.194 127.448 C 58.674 128.577, 51.650 140.470, 43.586 153.878 C 35.522 167.287, 29.179 178.512, 29.491 178.825 C 29.804 179.137, 47.258 178.652, 68.280 177.746 C 98.908 176.427, 112.941 176.287, 138.924 177.043 C 156.757 177.562, 171.483 177.851, 171.648 177.685 C 171.935 177.399, 148.138 119.942, 147.380 119.091 C 147.180 118.866, 138.871 124.103, 128.916 130.728 L 110.815 142.774 124.426 150.513 C 131.912 154.769, 138.246 158.589, 138.502 159.003 C 138.865 159.591, 93.657 169, 90.470 169 C 90.048 169, 89.969 165.223, 90.295 160.607 L 90.888 152.214 82.986 145.865 C 78.641 142.372, 75.403 139.217, 75.793 138.852 C 76.182 138.488, 82.426 133.938, 89.669 128.742 L 102.837 119.295 113.669 118.661 C 119.626 118.312, 135.203 117.727, 148.285 117.361 C 161.367 116.995, 172.288 116.343, 172.554 115.912 C 172.820 115.482, 166.801 105.616, 159.179 93.989 L 145.320 72.848 147.597 63.194 C 149.037 57.085, 149.509 53.314, 148.880 52.926 C 148.333 52.588, 142.721 51.717, 136.409 50.990 C 130.097 50.262, 125.285 49.336, 125.716 48.930 C 126.147 48.524, 138.875 44.280, 154 39.499 C 169.125 34.718, 182.050 30.501, 182.721 30.129 C 184.401 29.199, 138.351 16.879, 134 17.095 C 132.075 17.190, 119.700 17.923, 106.500 18.724 M 107 21.550 C 96.275 22.249, 87.168 22.861, 86.763 22.910 C 86.358 22.960, 86.986 24.977, 88.160 27.393 C 90.539 32.289, 92.370 32.968, 103.250 32.989 C 106.412 32.995, 109 33.324, 109 33.721 C 109 34.118, 106.517 36.951, 103.483 40.017 L 97.966 45.592 104.123 56.902 L 110.280 68.211 114.208 67.583 C 116.369 67.237, 118.612 66.852, 119.193 66.727 C 119.774 66.602, 120.437 67.006, 120.667 67.625 C 120.896 68.243, 119.264 69.477, 117.042 70.367 C 114.819 71.256, 113 72.227, 113 72.525 C 113 72.823, 114.145 75.326, 115.545 78.088 L 118.089 83.109 122.795 82.490 C 125.383 82.150, 128.779 81.630, 130.343 81.336 C 132.662 80.899, 133.122 81.122, 132.843 82.547 C 132.622 83.670, 130.717 84.806, 127.500 85.731 C 124.750 86.522, 122.201 87.468, 121.836 87.834 C 121.471 88.201, 124.014 93.675, 127.487 100 C 130.960 106.325, 133.666 111.643, 133.500 111.817 C 133.335 111.991, 125.784 110.070, 116.720 107.546 L 100.241 102.959 84.095 103.729 C 61.153 104.824, 62.235 103.531, 92.198 94.042 C 105.221 89.917, 115.791 86.457, 115.686 86.353 C 115.582 86.249, 103.361 87.692, 88.528 89.561 C 71.242 91.739, 61.213 92.613, 60.596 91.996 C 60.067 91.467, 59.828 90.848, 60.067 90.620 C 60.305 90.393, 69.170 86.718, 79.766 82.453 C 90.362 78.188, 98.853 74.519, 98.635 74.301 C 98.262 73.928, 75.336 75.557, 68.250 76.460 C 65.968 76.751, 65 76.468, 65 75.509 C 65 74.012, 67.600 73.613, 88 71.977 C 102.630 70.805, 107 70.100, 107 68.913 C 107 67.745, 97.021 49.131, 96.084 48.552 C 95.675 48.299, 92.917 50.547, 89.954 53.546 C 86.992 56.546, 84.243 59, 83.845 59 C 83.447 59, 81.953 55.171, 80.525 50.490 C 79.098 45.810, 77.672 41.310, 77.358 40.490 C 77 39.557, 77.377 39, 78.368 39 C 79.476 39, 80.602 41.246, 82.129 46.500 C 83.328 50.625, 84.595 54, 84.946 54 C 85.297 54, 87.590 51.951, 90.042 49.447 L 94.500 44.894 91.892 40.197 C 89.445 35.790, 88.977 35.462, 84.301 34.879 C 81.561 34.537, 72.159 33.994, 63.409 33.673 L 47.500 33.089 53.681 35.111 L 59.861 37.132 42.386 63.688 C 32.774 78.294, 25.043 90.347, 25.205 90.474 C 25.367 90.601, 32.211 95.595, 40.414 101.571 C 52.973 110.721, 55.931 113.389, 59.154 118.468 C 61.259 121.786, 62.985 125.033, 62.990 125.685 C 62.996 126.337, 56.458 137.757, 48.462 151.064 C 40.466 164.370, 34.174 175.507, 34.479 175.812 C 34.785 176.118, 50.439 175.717, 69.267 174.922 C 93.700 173.890, 112.231 173.696, 134 174.243 C 150.775 174.665, 165.230 174.896, 166.122 174.755 C 167.431 174.549, 165.733 169.689, 157.296 149.500 C 151.551 135.750, 146.533 124.172, 146.147 123.772 C 145.760 123.371, 138.824 127.454, 130.732 132.845 L 116.021 142.647 131.572 151.429 C 140.125 156.259, 146.929 160.404, 146.692 160.641 C 146.455 160.878, 133.715 163.531, 118.381 166.536 C 103.046 169.541, 89.656 172.198, 88.626 172.439 C 86.856 172.853, 86.790 172.333, 87.441 163.145 L 88.131 153.412 79.566 146.524 C 74.854 142.735, 71.023 139.379, 71.051 139.067 C 71.080 138.755, 78.167 133.492, 86.801 127.370 L 102.500 116.241 135.500 115.032 C 153.650 114.368, 168.575 113.751, 168.667 113.661 C 168.759 113.572, 162.894 104.499, 155.634 93.499 L 142.434 73.500 144.373 64.740 C 145.440 59.922, 146.082 55.748, 145.799 55.465 C 145.516 55.182, 138.927 54.143, 131.156 53.156 C 117.050 51.365, 115.320 50.909, 116.342 49.255 C 116.641 48.772, 129.511 44.374, 144.943 39.483 C 160.374 34.591, 173 30.306, 173 29.960 C 173 29.615, 165.237 27.232, 155.749 24.666 C 136.543 19.471, 137.732 19.547, 107 21.550 M 93.042 35.750 C 93.065 36.163, 93.868 37.971, 94.827 39.769 L 96.571 43.038 99.848 39.657 L 103.126 36.275 99.938 35.638 C 95.690 34.788, 92.991 34.832, 93.042 35.750 M 90.500 81.106 C 80.050 85.480, 72.850 88.838, 74.500 88.569 C 76.150 88.300, 85.375 87.133, 95 85.975 C 104.625 84.818, 113.075 83.685, 113.777 83.457 C 114.716 83.152, 114.381 81.712, 112.511 78.021 C 111.111 75.259, 109.861 73.034, 109.733 73.077 C 109.605 73.119, 100.950 76.732, 90.500 81.106 M 99.500 94.564 C 90.150 97.577, 82.050 100.261, 81.500 100.529 C 80.950 100.797, 85 100.819, 90.500 100.577 C 99.759 100.170, 101.501 100.419, 114 103.939 C 121.425 106.030, 127.656 107.606, 127.847 107.440 C 128.521 106.856, 118.485 89.020, 117.500 89.053 C 116.950 89.071, 108.850 91.551, 99.500 94.564" stroke="none" fill="black" fill-rule="evenodd"/>
</svg>