<svg xmlns="http://www.w3.org/2000/svg" width="200" height="200" viewBox="0 0 200 200" version="1.1">
	<path d="M 51.642 24.943 C 44.139 33.738, 38 41.364, 38 41.888 C 38 42.412, 39.319 43.131, 40.932 43.485 C 43.688 44.090, 43.988 44.658, 45.932 52.938 C 47.069 57.783, 48 62.282, 48 62.936 C 48 63.853, 34.658 87.559, 16.244 119.360 C 15.967 119.838, 22.172 119.899, 30.194 119.498 L 44.642 118.776 46.470 136.977 L 48.298 155.178 32.955 170.545 C 21.834 181.683, 18.033 186.075, 19.145 186.502 C 20.066 186.855, 31.113 181.178, 46.789 172.295 L 72.900 157.500 85.700 132.842 C 92.740 119.280, 98.642 108.321, 98.815 108.490 C 99.766 109.416, 102.674 124.956, 107.029 152.383 C 109.726 169.369, 112.061 183.373, 112.217 183.503 C 112.649 183.863, 176.982 176.358, 177.386 175.900 C 177.580 175.680, 178.054 167.963, 178.438 158.750 C 179.040 144.335, 178.932 142, 177.662 142 C 176.491 142, 136.976 154.537, 131.383 156.683 C 130.223 157.128, 130 151.877, 130 124.107 C 130 102.937, 130.357 91, 130.989 91 C 131.534 91, 134.932 92.182, 138.541 93.627 C 144.637 96.067, 145.066 96.440, 144.574 98.877 C 143.622 103.594, 138 144.808, 138 147.069 C 138 149.572, 137.943 149.621, 162.360 126.375 L 176.219 113.181 171.957 90.341 C 169.613 77.778, 167.426 67.200, 167.097 66.834 C 166.769 66.468, 154.350 66.984, 139.500 67.982 C 112.697 69.784, 112.406 69.828, 99.596 73.992 L 86.693 78.188 76.846 73.984 C 71.431 71.671, 67 69.447, 67 69.041 C 67 67.599, 98.028 44.797, 99.318 45.292 C 100.039 45.568, 107.297 49.862, 115.447 54.834 C 128.884 63.030, 130.463 63.750, 132.383 62.562 C 133.547 61.842, 142.375 56.859, 152 51.489 C 173.158 39.686, 176.210 37.877, 175.747 37.414 C 175.551 37.217, 170.925 35.868, 165.469 34.416 C 155.801 31.842, 155.276 31.550, 144.810 22.888 C 138.904 17.999, 133.612 14, 133.049 14 C 132.487 14, 125.040 19.400, 116.500 26 C 107.960 32.600, 100.591 38, 100.124 38 C 99.656 38, 97.109 35.638, 94.463 32.750 C 85.778 23.272, 74.728 11.939, 74.447 12.222 C 74.296 12.375, 71.864 24.857, 69.043 39.960 C 64.183 65.978, 63.510 68.912, 62.633 67.917 C 62.431 67.687, 63.036 54.450, 63.977 38.500 C 64.919 22.550, 65.598 9.376, 65.486 9.225 C 65.375 9.074, 59.145 16.147, 51.642 24.943 M 72.978 34.356 C 71.215 43.785, 69.199 54.333, 68.499 57.796 C 67.798 61.259, 67.619 63.959, 68.100 63.796 C 69.459 63.336, 97.944 41.568, 97.974 40.966 C 97.988 40.673, 93.091 35.208, 87.092 28.822 L 76.184 17.212 72.978 34.356 M 116.200 29.602 L 99.901 42.182 114.540 51.091 C 122.591 55.991, 129.633 60, 130.189 60 C 131.217 60, 169 39.094, 169 38.526 C 169 38.355, 165.912 37.459, 162.137 36.534 C 156.019 35.034, 154.095 33.887, 144.387 25.953 C 138.399 21.059, 133.275 17.048, 133 17.039 C 132.725 17.030, 125.165 22.683, 116.200 29.602 M 51.716 29.006 C 42.154 40.165, 41.991 40.439, 44.221 41.614 C 46.080 42.594, 46.941 44.755, 48.892 53.336 L 51.283 63.856 37.289 88.178 C 29.592 101.555, 22.727 113.579, 22.033 114.897 L 20.772 117.294 33.788 116.587 L 46.804 115.879 47.369 119.690 C 47.680 121.785, 48.680 130.861, 49.593 139.858 L 51.252 156.216 39.876 167.718 L 28.500 179.221 35.542 175.361 C 39.416 173.237, 48.952 167.900, 56.734 163.500 L 70.883 155.500 85.337 127.635 C 95.437 108.164, 99.966 100.331, 100.371 101.635 C 102.215 107.570, 106.382 129.947, 110.031 153.500 C 112.332 168.350, 114.278 180.556, 114.357 180.624 C 114.690 180.914, 174.539 173.759, 174.932 173.383 C 175.469 172.868, 176.399 144.998, 175.878 145.006 C 175.670 145.009, 164.700 148.594, 151.500 152.973 L 127.500 160.935 127.238 124.314 C 127.093 104.171, 127.192 87.474, 127.458 87.209 C 128.075 86.591, 148.010 94.042, 147.969 94.875 C 147.953 95.219, 146.431 105.850, 144.588 118.500 C 142.746 131.150, 141.388 141.666, 141.572 141.870 C 142.110 142.465, 173.001 112.600, 172.984 111.500 C 172.955 109.664, 165.185 69.852, 164.776 69.442 C 164.554 69.220, 153.376 69.736, 139.936 70.588 C 115.661 72.128, 115.405 72.168, 101.083 76.657 L 86.667 81.177 76.771 76.951 C 71.197 74.571, 66.526 73.113, 66.078 73.613 C 65.639 74.101, 63.858 82.254, 62.119 91.732 C 60.380 101.210, 58.683 110.435, 58.349 112.232 C 57.874 114.781, 60.094 112.255, 68.439 100.750 C 74.323 92.638, 79.804 86, 80.619 86 C 82.487 86, 82.967 85.228, 68.585 105.339 C 58.135 119.951, 54 124.406, 54 121.051 C 54 120.529, 54.865 115.466, 55.923 109.801 C 57.733 100.105, 62.717 23.962, 61.840 19.407 C 61.587 18.093, 58.817 20.719, 51.716 29.006 M 62.158 73 C 62.158 74.375, 62.385 74.938, 62.662 74.250 C 62.940 73.563, 62.940 72.438, 62.662 71.750 C 62.385 71.063, 62.158 71.625, 62.158 73" stroke="none" fill="black" fill-rule="evenodd"/>
</svg>