<svg xmlns="http://www.w3.org/2000/svg" width="200" height="200" viewBox="0 0 200 200" version="1.1">
	<path d="M 53.263 25.466 L 43.025 38.912 35.807 39.206 L 28.589 39.500 46.294 50.819 C 56.032 57.044, 64 62.301, 64 62.501 C 64 62.702, 59.651 61.096, 54.335 58.933 C 49.019 56.770, 44.519 55, 44.335 55 C 44.151 55, 44 55.633, 44 56.406 C 44 57.271, 48.225 59.437, 55 62.045 C 61.050 64.373, 66 66.581, 66 66.951 C 66 67.321, 61.945 68.920, 56.990 70.503 L 47.979 73.383 36.607 94.941 C 30.352 106.799, 24.289 118.380, 23.133 120.679 L 21.032 124.857 29.721 122.467 C 34.500 121.152, 38.585 120.252, 38.800 120.467 C 39.014 120.681, 40.695 128.002, 42.535 136.736 C 45.552 151.057, 46.584 154.081, 53.050 167.557 C 56.994 175.776, 61.356 184.975, 62.744 188 C 64.132 191.025, 65.431 193.050, 65.631 192.500 C 65.832 191.950, 68.200 179.350, 70.893 164.500 L 75.791 137.500 74.206 116.963 L 72.621 96.426 77.423 84.463 C 80.065 77.883, 82.425 71.996, 82.670 71.380 C 82.914 70.764, 81.413 69.581, 79.333 68.751 L 75.552 67.243 81.289 65.435 C 84.835 64.317, 87.368 63.984, 87.922 64.563 C 88.414 65.078, 91.578 74.950, 94.952 86.500 L 101.087 107.500 98.169 131.500 L 95.251 155.500 98.876 158.836 C 100.869 160.670, 108.940 167.590, 116.810 174.213 L 131.120 186.256 158.302 181.052 C 173.253 178.190, 185.551 175.770, 185.632 175.674 C 185.844 175.424, 179.242 132.226, 178.780 130.840 C 178.568 130.203, 170.598 136.746, 161.069 145.380 C 151.540 154.013, 143.483 160.817, 143.165 160.498 C 142.847 160.180, 138.001 151.967, 132.396 142.247 L 122.205 124.575 147.304 112.253 C 161.108 105.475, 172.531 99.802, 172.688 99.645 C 173.093 99.240, 161.978 70.674, 161.024 69.667 C 160.589 69.209, 153.319 77.251, 144.867 87.539 L 129.500 106.244 128.864 93.372 C 128.514 86.292, 128.173 78.250, 128.106 75.500 L 127.985 70.500 110.968 64.640 C 101.610 61.416, 93.090 59.005, 92.036 59.280 C 90.589 59.659, 89.860 59.037, 89.060 56.742 C 87.264 51.591, 87.778 50.430, 93.556 46.594 L 99.112 42.905 114.155 52.468 L 129.198 62.031 149.599 52.344 L 170 42.658 170 35.329 C 170 31.298, 169.662 27.995, 169.250 27.988 C 168.838 27.982, 161.750 26.387, 153.500 24.444 C 139.069 21.045, 138.026 20.937, 126 21.599 C 116.047 22.148, 110.749 23.056, 100 26.056 L 86.500 29.823 82.330 25.162 C 75.912 17.988, 75.415 20.221, 80.026 35.500 C 82.184 42.650, 83.961 48.835, 83.975 49.243 C 83.989 49.652, 80.250 52.482, 75.667 55.532 L 67.335 61.077 52.781 51.789 C 39.080 43.044, 38.410 42.471, 41.334 42 C 43.935 41.581, 46.182 39.229, 55.150 27.541 C 64.717 15.070, 66.518 11.977, 64.191 12.010 C 63.811 12.015, 58.893 18.070, 53.263 25.466 M 115.500 25.017 C 112.750 25.440, 104.875 27.402, 98 29.379 L 85.500 32.973 83.074 30.237 C 81.098 28.009, 80.749 27.872, 81.192 29.500 C 81.492 30.600, 82.768 35.217, 84.028 39.760 L 86.319 48.021 88.910 46.341 C 90.334 45.418, 93.185 43.554, 95.245 42.201 L 98.991 39.740 114.150 49.268 L 129.309 58.797 133.404 57.004 C 135.657 56.018, 144.137 52.037, 152.250 48.157 L 167 41.104 167 35.708 L 167 30.312 153.071 27.156 C 138.657 23.890, 127.118 23.233, 115.500 25.017 M 75.646 58.469 C 68.824 63.116, 68.036 63.949, 69.646 64.811 C 71.001 65.536, 73.606 65.139, 79.316 63.339 L 87.131 60.875 86.448 57.687 C 85.659 54.007, 85.156 52.976, 84.191 53.060 C 83.811 53.093, 79.966 55.527, 75.646 58.469 M 91.014 62.750 C 91.022 63.163, 93.925 73.319, 97.466 85.321 L 103.903 107.142 101.483 127.821 C 100.153 139.194, 98.855 149.946, 98.601 151.714 C 98.155 154.805, 98.779 155.471, 114.819 169.044 C 131.365 183.046, 131.532 183.155, 135.500 182.544 C 137.700 182.205, 149.063 180.090, 160.750 177.844 C 181.218 173.911, 182 173.674, 182 171.415 C 182 169.086, 177.109 135.774, 176.709 135.377 C 176.594 135.264, 169.075 141.868, 160 150.054 C 150.925 158.240, 143.264 164.952, 142.976 164.969 C 142.427 165.002, 120.560 127.622, 119.476 124.797 C 118.970 123.479, 123.676 120.807, 143.925 110.918 C 157.716 104.182, 169 98.207, 169 97.641 C 169 96.286, 161.005 75.718, 160.103 74.752 C 159.719 74.341, 152.001 83.044, 142.952 94.092 L 126.500 114.179 126 93.392 L 125.500 72.604 110.500 67.356 C 96.152 62.336, 90.983 61.114, 91.014 62.750 M 59.683 72.401 L 49.867 75.594 38.363 97.393 C 32.035 109.382, 27.066 119.399, 27.319 119.652 C 27.572 119.905, 30.590 119.384, 34.026 118.493 C 37.463 117.603, 40.592 117.240, 40.980 117.687 C 41.369 118.134, 43.194 125.925, 45.037 135 C 48.195 150.546, 48.847 152.454, 56.313 168 C 60.672 177.075, 64.388 184.050, 64.572 183.500 C 64.756 182.950, 66.738 172.316, 68.977 159.869 L 73.047 137.239 71.385 116.707 L 69.722 96.175 74.361 84.582 C 76.912 78.206, 79 72.633, 79 72.196 C 79 71.258, 72.987 68.954, 70.929 69.104 C 70.143 69.161, 65.082 70.645, 59.683 72.401" stroke="none" fill="black" fill-rule="evenodd"/>
</svg>