<svg xmlns="http://www.w3.org/2000/svg" width="200" height="200" viewBox="0 0 200 200" version="1.1">
	<path d="M 123.934 23.750 C 117.751 30.762, 111.691 37.561, 110.466 38.858 L 108.239 41.216 89.560 28.501 C 79.286 21.508, 70.677 15.990, 70.427 16.239 C 70.178 16.489, 71.589 20.238, 73.564 24.571 C 76.168 30.285, 76.652 32.028, 75.327 30.916 C 74.322 30.072, 70.611 26.821, 67.080 23.691 C 63.548 20.561, 60.245 18, 59.739 18 C 58.840 18, 31.769 42.669, 31.226 43.983 C 30.903 44.763, 48.902 53.780, 64.297 60.550 L 75.093 65.298 80.044 62.980 C 82.766 61.704, 85.182 60.850, 85.412 61.080 C 85.643 61.311, 85.981 65.070, 86.165 69.434 L 86.500 77.368 66.500 81.296 C 38.512 86.793, 34.039 87.939, 34.623 89.459 C 35.017 90.487, 36.330 90.477, 41.436 89.407 L 47.761 88.081 68.631 97.127 C 80.109 102.102, 89.611 106.282, 89.746 106.416 C 89.882 106.550, 81.782 107.431, 71.746 108.375 C 61.711 109.319, 52.359 110.310, 50.965 110.578 C 48.509 111.049, 48.296 111.748, 44.175 132.782 C 41.835 144.727, 39.938 154.986, 39.960 155.580 C 39.991 156.427, 57.623 181.956, 59.413 183.746 C 59.649 183.982, 67.190 181.820, 76.171 178.942 C 85.152 176.064, 96.426 172.474, 101.224 170.964 L 109.948 168.218 130.669 178.081 C 142.066 183.505, 151.535 187.799, 151.711 187.622 C 152.164 187.170, 164 133.172, 164 131.559 C 164 130.829, 157.813 126.487, 150.250 121.911 C 134.784 112.552, 118.361 100.961, 116.202 97.879 C 115.414 96.753, 115.158 95.490, 115.634 95.072 C 116.110 94.654, 127.687 93.016, 141.360 91.432 C 169.429 88.181, 167.149 89.249, 168.438 78.750 C 169.026 73.963, 168.889 73, 167.625 73 C 166.789 73, 155.439 75.047, 142.404 77.550 C 129.368 80.052, 118.149 81.887, 117.473 81.628 C 116.572 81.282, 105.686 62.062, 101.238 52.964 C 101.094 52.669, 103.494 51.194, 106.571 49.684 L 112.165 46.941 118.833 52.881 C 122.500 56.148, 127.075 60.473, 129 62.493 C 135.281 69.081, 133.603 69.638, 160.120 52.167 L 184.250 36.268 169.213 35.543 L 154.177 34.818 144.971 22.909 C 139.908 16.359, 135.632 11, 135.470 11 C 135.308 11, 130.116 16.738, 123.934 23.750 M 122.001 29.886 L 108.809 44.913 93.654 34.616 C 74.211 21.404, 75.587 22.101, 77.449 26.409 C 78.302 28.384, 79.653 31.507, 80.451 33.349 C 81.248 35.192, 85.487 39.931, 89.869 43.882 L 97.837 51.065 105.351 47.346 L 112.866 43.628 124.377 54.364 L 135.888 65.100 155.694 51.800 L 175.500 38.500 164.241 38 L 152.982 37.500 144.393 26.500 C 139.669 20.450, 135.667 15.356, 135.499 15.180 C 135.330 15.004, 129.256 21.622, 122.001 29.886 M 47.337 32.260 L 35.174 43.429 39.837 46.067 C 42.402 47.518, 51.386 51.763, 59.801 55.500 L 75.103 62.294 79.862 60.065 C 87.086 56.681, 87.295 55.795, 83.107 46.356 C 79.796 38.893, 78.699 37.520, 69.732 29.613 C 64.359 24.876, 59.859 21.020, 59.732 21.046 C 59.604 21.071, 54.027 26.117, 47.337 32.260 M 85.856 45.750 C 86.366 46.712, 87.484 49.188, 88.341 51.252 C 89.814 54.797, 90.041 54.938, 92.485 53.825 L 95.070 52.647 90.827 48.324 C 86.429 43.843, 84.249 42.714, 85.856 45.750 M 94.328 55.841 C 91.172 57.492, 91.164 57.518, 92.620 61 C 94.770 66.141, 112.098 92, 113.393 91.999 C 114.002 91.998, 125.525 90.648, 139 89 C 152.475 87.352, 163.776 86.002, 164.114 86.001 C 164.784 86, 166.229 76.896, 165.652 76.318 C 165.456 76.123, 154.705 77.997, 141.759 80.482 C 128.814 82.967, 117.562 85, 116.757 85 C 115.892 85, 112.161 79.109, 107.654 70.629 C 103.453 62.725, 99.450 55.791, 98.758 55.220 C 97.868 54.485, 96.572 54.667, 94.328 55.841 M 89.169 70.482 L 89.500 79.463 72.500 83.044 C 63.150 85.013, 54.928 86.824, 54.230 87.069 C 53.531 87.313, 63.319 91.945, 75.980 97.362 C 88.641 102.778, 99 107.517, 99 107.893 C 99 108.268, 88.320 109.601, 75.267 110.854 C 62.214 112.107, 51.355 113.312, 51.134 113.532 C 50.560 114.107, 43 151.994, 43 154.299 C 43 155.357, 46.712 161.427, 51.250 167.787 C 55.788 174.147, 59.773 179.757, 60.107 180.253 C 60.441 180.750, 70.341 178.012, 82.107 174.168 L 103.500 167.179 95.907 167.090 C 81.485 166.919, 64 165.690, 64 164.846 C 64 164.381, 76.262 163.979, 91.250 163.954 L 118.500 163.907 129.702 152.103 L 140.905 140.300 128.120 120.900 C 121.004 110.102, 113.930 100.489, 112.167 99.220 C 110.425 97.966, 109 97.215, 109 97.550 C 109 97.886, 112.150 105.351, 116 114.140 C 119.850 122.928, 122.997 130.429, 122.992 130.809 C 122.985 131.506, 81.826 158.746, 79.339 159.700 C 78.603 159.983, 78.010 159.603, 78.023 158.857 C 78.035 158.111, 87.372 151.454, 98.773 144.064 C 110.173 136.675, 119.640 130.535, 119.811 130.420 C 120.283 130.103, 91.879 65.795, 90.254 63.500 C 88.997 61.725, 88.874 62.511, 89.169 70.482 M 103.172 84.750 C 103.358 85.162, 104.161 87.188, 104.956 89.250 C 105.751 91.313, 106.986 93, 107.701 93 C 109.499 93, 109.371 92.517, 106.367 87.979 C 104.054 84.483, 102.212 82.622, 103.172 84.750 M 123 107.701 C 123 108.038, 127.725 115.457, 133.500 124.186 C 139.275 132.915, 144 140.389, 144 140.793 C 144 142.486, 118.332 167.005, 116.486 167.076 C 115.394 167.118, 122.332 170.948, 131.904 175.588 C 141.477 180.228, 149.490 183.844, 149.711 183.622 C 150.209 183.124, 161.006 134.360, 160.985 132.701 C 160.977 132.040, 155.705 128.350, 149.269 124.500 C 142.834 120.650, 134.290 115.157, 130.284 112.294 C 126.278 109.430, 123 107.363, 123 107.701" stroke="none" fill="black" fill-rule="evenodd"/>
</svg>