<svg xmlns="http://www.w3.org/2000/svg" width="200" height="200" viewBox="0 0 200 200" version="1.1">
	<path d="M 53 18.548 C 42.825 23.173, 34.086 27.104, 33.580 27.285 C 33.075 27.465, 31.656 42.630, 30.427 60.985 L 28.193 94.356 33.451 101.834 L 38.708 109.311 30.938 128.655 C 26.664 139.295, 23.315 148, 23.495 148 C 23.676 148, 35.676 138.743, 50.162 127.429 L 76.500 106.858 76.776 122.639 C 76.929 131.318, 76.863 138.915, 76.630 139.521 C 76.398 140.127, 69.858 142.595, 62.097 145.005 C 54.337 147.415, 48.328 149.694, 48.744 150.069 C 49.160 150.444, 55.350 153.870, 62.500 157.682 C 74 163.813, 77.479 165.121, 92.643 169.013 L 109.785 173.414 128.143 164.547 C 138.239 159.670, 150.641 153.708, 155.703 151.299 C 167.333 145.762, 167.417 144, 156.053 144 C 151.799 144, 140.838 143.705, 131.694 143.344 L 115.068 142.689 123.284 133.721 C 127.803 128.789, 132.691 123.347, 134.146 121.627 L 136.793 118.500 142.146 121.047 L 147.500 123.594 162.500 122.211 C 170.750 121.451, 177.675 120.655, 177.888 120.443 C 178.101 120.231, 173.643 115.072, 167.980 108.978 L 157.683 97.899 161.841 93.662 L 166 89.424 166 57.712 L 166 26 140.520 26 C 118.674 26, 94.341 25.019, 80.790 23.592 L 77.081 23.201 76.790 30.851 L 76.500 38.500 73.250 38.813 C 69.062 39.217, 69.153 40.548, 73.685 45.189 C 75.712 47.265, 77.149 49.184, 76.879 49.455 C 76.609 49.725, 74.683 49.475, 72.600 48.900 C 70.517 48.325, 68.634 48.033, 68.416 48.251 C 67.507 49.160, 73.380 64.611, 75.113 65.872 C 77.024 67.261, 77.749 71, 76.107 71 C 75.616 71, 71.756 70.285, 67.529 69.411 C 63.303 68.537, 59.686 67.981, 59.491 68.176 C 59.296 68.370, 58.824 73.477, 58.442 79.524 L 57.746 90.519 67.405 94.509 C 76.169 98.130, 77.037 98.727, 76.782 100.946 C 76.567 102.814, 71.098 107.621, 53.661 121.274 C 41.100 131.109, 30.641 138.974, 30.419 138.752 C 30.197 138.530, 32.667 131.769, 35.908 123.728 L 41.801 109.106 36.377 101.259 L 30.953 93.411 33.096 61.956 C 34.275 44.655, 35.524 30.184, 35.872 29.797 C 36.221 29.411, 44.795 25.351, 54.927 20.775 C 65.059 16.199, 73.532 11.903, 73.757 11.228 C 74.482 9.053, 71.833 9.987, 53 18.548 M 80 32.148 L 80 38.258 86.750 37.648 C 90.463 37.312, 97.381 36.746, 102.124 36.391 L 110.749 35.745 116.401 40.013 C 119.510 42.360, 122.208 44.105, 122.396 43.890 C 122.585 43.676, 123.050 40.237, 123.430 36.250 L 124.121 29 120.998 29 C 117.052 29, 89.912 27.171, 84.250 26.524 L 80 26.038 80 32.148 M 126.599 32.250 C 126.328 34.038, 125.857 38.389, 125.551 41.919 C 125.245 45.449, 124.805 48.528, 124.573 48.760 C 124.341 48.992, 121.080 46.841, 117.326 43.981 L 110.500 38.780 100 39.414 C 94.225 39.762, 87.362 40.319, 84.750 40.652 C 80.221 41.230, 80.001 41.403, 80.022 44.379 C 80.067 50.711, 81.256 51.275, 112.962 59.992 C 129.167 64.447, 142.530 68.197, 142.659 68.326 C 143.236 68.903, 133.537 84.241, 132.293 84.718 C 131.527 85.012, 126.537 84.324, 121.204 83.190 C 112.913 81.426, 111.392 81.334, 110.708 82.557 C 110.041 83.748, 109.096 83.575, 105.042 81.521 C 101.137 79.542, 84.249 75, 80.797 75 C 80.359 75, 80 79.964, 80 86.031 C 80 98.970, 80.703 99.862, 87.157 95.116 L 91.351 92.032 119.605 106.406 L 147.859 120.781 159.929 119.724 C 166.568 119.143, 172 118.397, 172 118.065 C 172 117.733, 167.941 112.994, 162.980 107.533 L 153.959 97.604 158.980 92.521 L 164 87.437 164 58.219 L 164 29 145.545 29 L 127.091 29 126.599 32.250 M 75 41.941 C 75 42.459, 75.450 43.160, 76 43.500 C 76.550 43.840, 77 43.416, 77 42.559 C 77 41.702, 76.550 41, 76 41 C 75.450 41, 75 41.423, 75 41.941 M 74.316 58.250 L 76.500 64.500 76.808 59.095 C 77.111 53.771, 76.263 52.053, 73.316 52.015 C 72.512 52.005, 72.833 54.007, 74.316 58.250 M 80 59.772 L 80 65.544 90.615 70.823 C 96.454 73.727, 101.374 75.959, 101.550 75.783 C 102.066 75.268, 81.917 54, 80.913 54 C 80.411 54, 80 56.597, 80 59.772 M 91.422 60.104 C 93.577 62.522, 98.088 67.439, 101.446 71.032 L 107.553 77.563 118.125 79.782 C 123.939 81.002, 129.388 82, 130.232 82 C 131.076 82, 133.371 79.306, 135.333 76.013 L 138.899 70.026 133.699 68.553 C 130.840 67.743, 120.175 64.791, 110 61.995 C 99.825 59.198, 90.601 56.639, 89.502 56.309 C 88.021 55.863, 88.519 56.847, 91.422 60.104 M 80 70.421 C 80 71.222, 81.416 72.126, 83.250 72.495 C 85.037 72.855, 87.400 73.355, 88.500 73.605 C 89.600 73.856, 88.475 72.943, 86 71.576 C 80.718 68.659, 80 68.520, 80 70.421 M 61.678 71.656 C 61.305 72.028, 61 76.016, 61 80.518 L 61 88.702 68.129 91.851 C 72.050 93.583, 75.650 95, 76.129 95 C 76.608 95, 77 90.307, 77 84.571 L 77 74.142 71.250 73.002 C 68.088 72.375, 64.792 71.663, 63.928 71.420 C 63.063 71.177, 62.050 71.283, 61.678 71.656 M 88.659 97.455 L 85.870 99.679 90.185 101.316 C 95.403 103.297, 121.339 110.994, 121.672 110.661 C 121.802 110.531, 115.055 107.006, 106.678 102.828 L 91.447 95.231 88.659 97.455 M 81.145 103.325 C 80.454 104.158, 79.944 111.668, 79.773 123.527 L 79.500 142.404 67.101 146.287 L 54.703 150.171 58.933 152.574 C 71.811 159.889, 77.591 162.241, 91.869 165.978 C 100.321 168.190, 107.932 170, 108.782 170 C 109.631 170, 120.920 164.938, 133.869 158.750 L 157.411 147.500 149.956 146.881 C 145.855 146.540, 136.200 146.158, 128.500 146.031 C 107.103 145.679, 107.585 146.797, 122.038 131.040 C 128.810 123.657, 133.935 117.485, 133.426 117.323 C 132.917 117.161, 122.670 114.090, 110.656 110.499 C 98.641 106.907, 87.983 103.526, 86.971 102.985 C 84.448 101.634, 82.452 101.751, 81.145 103.325" stroke="none" fill="black" fill-rule="evenodd"/>
</svg>