<svg xmlns="http://www.w3.org/2000/svg" width="200" height="200" viewBox="0 0 200 200" version="1.1">
	<path d="M 55 21.431 C 55 21.786, 57.705 26.100, 61.011 31.017 C 66.755 39.559, 66.922 39.979, 64.761 40.469 C 63.517 40.751, 55.525 42.120, 47 43.510 C 38.475 44.900, 30.313 46.279, 28.863 46.574 L 26.226 47.109 29.603 58.305 C 32.641 68.379, 32.980 70.728, 32.990 81.762 C 32.999 92.320, 32.446 96.602, 29.013 112.561 L 25.027 131.096 34.263 142.183 C 39.344 148.280, 43.425 153.546, 43.332 153.884 C 43.240 154.223, 39.930 161.630, 35.977 170.344 C 31.244 180.776, 29.126 186.526, 29.776 187.176 C 30.427 187.827, 41.138 179.426, 61.132 162.584 C 77.834 148.514, 91.838 137.002, 92.250 137.002 C 92.662 137.001, 93 138.744, 93 140.875 C 93 150.064, 93.029 150.102, 113.894 168.107 C 124.677 177.413, 133.884 185.133, 134.354 185.263 C 135.296 185.524, 179.859 153.873, 179.946 152.881 C 179.976 152.541, 174.375 147.860, 167.500 142.480 C 160.625 137.100, 155 132.202, 155 131.597 C 155 129.050, 160.906 110.105, 162.947 106.103 C 164.265 103.521, 166.124 96.106, 167.526 87.845 L 169.887 73.935 165.822 67.452 C 161.142 59.988, 161.032 61.903, 167.359 40.750 C 169.785 32.638, 171.339 26, 170.812 26 C 170.284 26, 155.069 28.700, 137 32 C 118.931 35.300, 103.438 38, 102.571 38 C 101.342 38, 82.291 31.115, 56.250 21.259 C 55.563 20.999, 55 21.076, 55 21.431 M 65.629 32.985 C 68.178 36.819, 70.567 39.767, 70.938 39.538 C 71.309 39.309, 73.597 42.284, 76.023 46.149 L 80.432 53.176 85.466 52.581 C 108.865 49.814, 146.514 48.958, 145.763 51.210 C 145.542 51.875, 132.680 55.588, 117.181 59.460 C 101.683 63.332, 89.002 66.869, 89.001 67.321 C 89.001 67.772, 91.075 71.049, 93.611 74.603 C 96.806 79.081, 98.725 80.921, 99.861 80.597 C 100.762 80.340, 111.120 79.816, 122.877 79.433 C 150.649 78.528, 150.811 79.704, 123.766 85.878 L 104.168 90.352 124.996 121.426 C 136.451 138.517, 145.484 152.626, 145.069 152.781 C 144.654 152.935, 133.676 149.223, 120.673 144.531 C 107.670 139.839, 96.650 136, 96.183 136 C 95.411 136, 95.658 145.939, 96.498 148.639 C 97.121 150.643, 134.178 182.146, 135.373 181.687 C 136.006 181.444, 145.400 174.837, 156.250 167.003 L 175.978 152.760 163.989 143.205 C 157.395 137.950, 152 133.009, 152 132.224 C 152 129.534, 158.191 109.547, 160.270 105.523 C 161.424 103.290, 163.365 95.541, 164.633 88.105 L 166.918 74.711 162.791 67.764 L 158.664 60.818 162.835 46.482 C 165.130 38.597, 167.298 31.386, 167.655 30.457 C 168.158 29.145, 167.879 28.897, 166.401 29.344 C 165.356 29.660, 150.402 32.471, 133.170 35.592 L 101.840 41.266 87.670 35.988 C 79.877 33.086, 70.686 29.654, 67.247 28.363 L 60.994 26.015 65.629 32.985 M 47.543 46.126 C 38.216 47.751, 30.433 49.233, 30.247 49.419 C 30.061 49.605, 31.280 54.371, 32.955 60.009 C 35.587 68.871, 36 71.838, 36 81.907 C 36 91.750, 35.382 96.405, 32.009 111.958 C 28.653 127.433, 28.229 130.612, 29.343 131.931 C 30.072 132.794, 34.317 137.888, 38.777 143.251 L 46.887 153.002 40.500 167.001 C 36.987 174.700, 34.330 181, 34.596 181 C 35.449 181, 90 134.779, 90 134.056 C 90 133.674, 83.345 130.997, 75.212 128.108 C 63.981 124.119, 59.731 123.029, 57.547 123.577 C 55.085 124.196, 54.767 124.050, 55.336 122.568 C 55.701 121.616, 56 120.373, 56 119.807 C 56 119.196, 57.320 119.008, 59.250 119.345 C 61.140 119.676, 70.033 118.477, 80.500 116.480 L 98.500 113.047 86.500 113.561 L 74.500 114.075 69.282 105.805 C 66.412 101.257, 64.387 97.266, 64.782 96.935 C 65.177 96.605, 72.920 94.652, 81.989 92.595 C 91.059 90.538, 98.657 88.676, 98.875 88.458 C 99.093 88.241, 98.525 86.923, 97.612 85.531 C 96.056 83.155, 95.438 83, 87.553 83 C 78.206 83, 68.747 81.221, 69.333 79.573 C 69.543 78.983, 70.567 78.608, 71.608 78.740 C 79.923 79.792, 93.426 80.908, 93.763 80.570 C 94.499 79.834, 85.970 68, 84.713 68.012 C 84.046 68.018, 81.025 68.688, 78 69.500 C 74.975 70.312, 72.388 70.982, 72.250 70.988 C 72.112 70.995, 72 70.342, 72 69.539 C 72 68.658, 73.690 67.641, 76.250 66.979 C 78.588 66.375, 81.265 65.659, 82.201 65.389 C 84.807 64.634, 70.144 43.566, 66.852 43.335 C 65.558 43.244, 56.869 44.500, 47.543 46.126 M 92.500 54.533 C 86.450 55.227, 81.381 55.842, 81.236 55.898 C 80.487 56.188, 86.431 63.996, 87.383 63.972 C 87.997 63.957, 97.950 61.522, 109.500 58.563 L 130.500 53.182 117 53.226 C 109.575 53.250, 98.550 53.838, 92.500 54.533 M 108.750 82.745 C 103.938 82.928, 100.014 83.398, 100.032 83.789 C 100.049 84.180, 100.643 85.262, 101.351 86.193 C 102.553 87.775, 103.359 87.725, 113.569 85.430 C 129.559 81.835, 129.756 81.944, 108.750 82.745 M 84 95.015 C 75.475 97.098, 68.371 98.846, 68.213 98.901 C 68.055 98.955, 69.804 101.767, 72.101 105.148 L 76.276 111.297 89.796 110.648 C 97.232 110.292, 105.722 110, 108.663 110 L 114.010 110 107.755 100.524 C 104.315 95.312, 101.050 91.088, 100.500 91.138 C 99.950 91.188, 92.525 92.933, 84 95.015 M 91.816 117.377 C 79.340 119.645, 68.889 121.750, 68.593 122.057 C 68.114 122.550, 89.195 130.450, 93 131.203 C 93.825 131.366, 94.725 131.743, 95 132.040 C 95.787 132.889, 138.350 147.983, 138.771 147.562 C 139.315 147.018, 115.994 112.975, 115.181 113.127 C 114.807 113.197, 104.292 115.109, 91.816 117.377" stroke="none" fill="black" fill-rule="evenodd"/>
</svg>