<svg xmlns="http://www.w3.org/2000/svg" width="200" height="200" viewBox="0 0 200 200" version="1.1">
	<path d="M 51.069 24.250 L 36.984 37.203 40.891 41.852 C 43.041 44.408, 45.966 47.588, 47.392 48.917 L 49.985 51.335 65.743 50.095 C 74.409 49.413, 83.306 48.616, 85.513 48.324 L 89.527 47.793 91.778 54.049 C 93.016 57.490, 93.811 60.522, 93.546 60.788 C 93.280 61.053, 80.561 60.621, 65.281 59.827 C 49.892 59.028, 37.236 58.768, 36.908 59.245 C 36.066 60.471, 33.102 85.644, 32.404 97.500 L 31.816 107.500 42.844 116.950 C 52.651 125.353, 74 146.920, 74 148.424 C 74 148.741, 64.662 149.003, 53.250 149.006 C 28.597 149.013, 15.780 149.841, 16.298 151.393 C 16.751 152.754, 86.423 165.637, 98 166.501 C 106.188 167.112, 107.855 166.821, 143.396 158.588 C 163.689 153.887, 180.496 149.837, 180.746 149.587 C 180.996 149.337, 180.904 148.653, 180.541 148.067 C 180.105 147.360, 171.998 147, 156.555 147 L 133.227 147 135.419 138.250 L 137.611 129.500 151.555 123.537 C 159.225 120.257, 165.643 117.489, 165.817 117.386 C 165.991 117.284, 167.675 112.092, 169.558 105.850 L 172.983 94.500 163.910 86 L 154.838 77.500 166.330 65.010 C 172.650 58.141, 177.622 52.197, 177.377 51.801 C 177.132 51.405, 174.497 50.313, 171.521 49.375 C 168.545 48.437, 166.198 47.190, 166.305 46.603 C 166.412 46.017, 164.891 45.482, 162.925 45.416 C 155.017 45.148, 155.269 44.020, 165.137 35.491 L 174.297 27.574 153.399 22.258 L 132.500 16.942 108 17.516 L 83.500 18.089 74.328 14.693 L 65.155 11.297 51.069 24.250 M 53.009 26.114 C 44.991 33.553, 41.272 37.658, 41.764 38.529 C 42.169 39.244, 44.346 41.795, 46.603 44.199 L 50.706 48.569 68.776 47.035 C 78.714 46.191, 87.152 45.191, 87.527 44.813 C 87.901 44.435, 86.361 38.583, 84.103 31.809 L 79.999 19.493 73.562 17.246 C 70.022 16.011, 66.645 15, 66.058 15 C 65.471 15, 59.599 20.001, 53.009 26.114 M 96.519 20.875 C 94.037 21.406, 98.495 23.279, 123.147 32.064 L 152.755 42.616 160.352 36.082 C 164.530 32.489, 167.623 29.253, 167.224 28.891 C 166.826 28.529, 158.694 26.381, 149.154 24.117 C 132.351 20.129, 131.301 20.004, 115.654 20.118 C 106.769 20.183, 98.159 20.524, 96.519 20.875 M 87.429 33.034 L 91.500 45.145 95.500 44.747 C 97.700 44.528, 110.253 44.906, 123.397 45.587 C 145.932 46.754, 150.010 46.686, 149.993 45.143 C 149.988 44.677, 102.737 27.484, 84.429 21.286 C 83.839 21.086, 85.189 26.373, 87.429 33.034 M 150.861 48.084 C 149.006 49.721, 148.895 50.041, 150.343 49.579 C 151.356 49.256, 153.312 48.709, 154.688 48.363 C 156.546 47.897, 156.844 47.516, 155.845 46.883 C 153.916 45.660, 153.490 45.763, 150.861 48.084 M 94.750 47.629 C 92.560 48.277, 92.562 48.314, 95.092 55.806 L 97.184 62 105.363 62 C 112.693 62, 115.359 61.389, 131.022 56.122 C 150.987 49.406, 150.989 49.411, 129 48.536 C 121.025 48.219, 110.450 47.768, 105.500 47.535 C 100.550 47.303, 95.713 47.345, 94.750 47.629 M 129.760 59.351 C 113.404 64.933, 100.016 69.734, 100.010 70.020 C 99.993 70.868, 123.182 82.152, 123.758 81.576 C 124.048 81.285, 123.771 78.487, 123.143 75.357 C 121.709 68.216, 121.714 68, 123.334 68 C 124.230 68, 125.211 71.019, 126.318 77.183 C 127.226 82.233, 127.821 86.512, 127.641 86.692 C 127.461 86.872, 121.785 84.299, 115.027 80.973 C 108.269 77.647, 102.580 75.087, 102.384 75.283 C 101.905 75.762, 110.043 100.265, 111.048 101.370 C 111.486 101.851, 115.006 100.997, 118.926 99.459 C 125.642 96.825, 127.958 96.641, 126.592 98.851 C 125.475 100.659, 110.684 108.106, 110.088 107.160 C 109.764 106.647, 100.787 109.801, 90.138 114.168 C 79.488 118.536, 70.661 121.972, 70.522 121.804 C 70.383 121.637, 70.021 115.313, 69.718 107.750 C 69.284 96.916, 69.441 94, 70.455 94 C 71.394 94, 71.937 97.250, 72.459 106 C 72.853 112.600, 73.303 118, 73.459 118 C 74.221 118, 107.272 104.061, 107.828 103.506 C 108.868 102.465, 98.924 74.655, 96.859 72.827 C 95.075 71.248, 94.134 71.433, 80.271 76.077 C 72.188 78.784, 64.958 81, 64.204 81 C 61.072 81, 64.265 78.218, 74.952 71.637 C 85.810 64.950, 86.400 64.716, 89.386 65.918 C 95.151 68.239, 96 68.325, 96 66.585 C 96 65.679, 95.438 64.749, 94.750 64.520 C 93.527 64.111, 39.672 61.041, 39.322 61.360 C 38.674 61.951, 35.904 85.995, 35.418 95.255 L 34.827 106.500 45.164 115.376 C 50.849 120.257, 61.015 130.157, 67.756 137.376 L 80.011 150.500 74.756 151.151 C 71.865 151.509, 60.950 151.885, 50.500 151.985 L 31.500 152.169 63 158.070 C 80.325 161.316, 97.200 163.990, 100.500 164.013 C 104.429 164.040, 116.832 161.715, 136.430 157.277 L 166.360 150.500 148.180 150.227 C 136.053 150.046, 130 149.597, 130 148.880 C 130 148.289, 131.217 143.177, 132.705 137.520 L 135.410 127.235 149.296 121.375 C 156.933 118.152, 163.430 115.113, 163.734 114.621 C 164.038 114.129, 165.540 109.625, 167.071 104.613 L 169.854 95.500 160.418 86.500 L 150.982 77.500 162.035 65.627 C 168.114 59.097, 172.822 53.489, 172.498 53.165 C 171.478 52.145, 162.570 48.997, 161 49.102 C 160.175 49.157, 146.117 53.769, 129.760 59.351 M 98.596 65.389 C 98.926 66.248, 99.943 66.566, 101.261 66.221 C 103.314 65.685, 103.321 65.636, 101.446 64.902 C 98.542 63.766, 98.008 63.857, 98.596 65.389 M 81 71.155 C 78.525 72.819, 77.175 73.973, 78 73.719 C 89.014 70.327, 90.889 69.547, 89.759 68.830 C 87.639 67.484, 85.689 68.002, 81 71.155" stroke="none" fill="black" fill-rule="evenodd"/>
</svg>