<svg xmlns="http://www.w3.org/2000/svg" width="200" height="200" viewBox="0 0 200 200" version="1.1">
	<path d="M 59.865 12.207 C 59.790 12.368, 59.228 16.325, 58.615 21 L 57.500 29.500 36.563 36.576 C 25.048 40.467, 16.048 43.901, 16.563 44.206 C 17.079 44.511, 21.227 45.558, 25.783 46.532 L 34.066 48.304 28.415 52.057 L 22.763 55.810 30.932 60.521 C 35.425 63.113, 38.907 65.427, 38.670 65.663 C 38.433 65.900, 35.263 65.545, 31.625 64.875 C 25.292 63.708, 22.571 64.089, 24.567 65.863 C 25.080 66.320, 31.096 68.647, 37.935 71.035 C 44.774 73.423, 49.949 75.504, 49.435 75.659 C 48.921 75.814, 40.190 77.777, 30.034 80.020 C 19.878 82.263, 11.401 84.266, 11.196 84.470 C 10.992 84.675, 19.296 91.204, 29.650 98.980 C 40.004 106.756, 48.481 113.761, 48.488 114.548 C 48.520 118.344, 51.470 114.770, 63 96.966 C 69.875 86.349, 76.066 77.476, 76.757 77.246 C 77.995 76.835, 76.423 80.430, 62.073 110.820 L 54.839 126.141 55.169 154.571 C 55.351 170.208, 55.349 183.001, 55.165 183.001 C 54.878 183, 25.821 160.851, 23.758 159.060 C 23.349 158.705, 27.935 150.334, 33.949 140.458 C 40.669 129.421, 44.526 122.140, 43.958 121.567 C 43.449 121.053, 42.854 120.828, 42.634 121.067 C 41.461 122.341, 20 158.163, 20 158.847 C 20 159.690, 56.434 188, 57.519 188 C 57.858 188, 58.037 174.142, 57.915 157.205 L 57.694 126.410 69.738 100.955 C 80.246 78.745, 81.541 75.459, 79.891 75.180 C 77.594 74.792, 77.536 74.107, 79.557 71.223 C 81.395 68.598, 81.350 68.594, 73.063 70.547 C 67.923 71.758, 65.555 71.842, 61.313 70.961 C 55.368 69.727, 55.385 69.768, 56.648 59.250 C 57.199 54.662, 57.562 54, 59.525 54 C 60.760 54, 67.560 52.232, 74.635 50.070 C 81.711 47.909, 88.252 45.996, 89.172 45.820 C 90.140 45.635, 97.023 50.555, 105.513 57.500 L 120.182 69.500 102.111 75.383 C 84.228 81.205, 84.036 81.298, 83.552 84.383 C 83.284 86.097, 82.378 98.075, 81.539 111 L 80.014 134.500 87.392 158.801 C 91.449 172.167, 95.040 183.373, 95.371 183.704 C 96.005 184.338, 155.242 182.284, 160.642 181.440 C 163.613 180.977, 164.094 180.231, 169.420 167.836 C 172.519 160.623, 174.925 154.592, 174.766 154.433 C 174.607 154.274, 160.307 154.968, 142.989 155.976 C 125.670 156.983, 111.440 157.738, 111.366 157.654 C 111.108 157.357, 108.037 102.630, 108.267 102.415 C 108.395 102.296, 119.504 100.813, 132.953 99.121 L 157.406 96.044 164.203 89.299 C 167.941 85.589, 171 82.274, 171 81.933 C 171 81.592, 163.463 79.613, 154.250 77.537 C 145.037 75.460, 137.238 73.610, 136.917 73.425 C 136.061 72.931, 139.500 50.087, 140.581 49.091 C 141.086 48.625, 150.500 45.917, 161.500 43.073 C 172.500 40.229, 182.287 37.669, 183.250 37.384 C 185.266 36.786, 185.642 34, 183.707 34 C 182.995 34, 173.760 33.108, 163.183 32.019 L 143.953 30.038 133.727 22.361 C 128.102 18.139, 123.021 14.319, 122.435 13.873 C 121.790 13.382, 115.528 17.792, 106.561 25.051 C 97.108 32.704, 91.345 36.735, 90.626 36.197 C 90.007 35.734, 86.125 32.661, 82 29.369 C 65.381 16.105, 59.994 11.928, 59.865 12.207 M 61.583 18.644 C 61.262 19.480, 61 21.963, 61 24.161 C 61 28.054, 61.076 28.142, 63.905 27.521 C 68.417 26.530, 68.502 28.640, 64.068 31.574 C 59.545 34.567, 59.379 34.940, 58.445 44.250 C 57.797 50.700, 57.863 51, 59.916 51 C 61.099 51, 68.621 48.994, 76.633 46.543 L 91.200 42.086 108.100 56.112 C 117.395 63.826, 125 70.319, 125 70.540 C 125 70.761, 116.338 73.715, 105.750 77.105 C 95.162 80.494, 86.445 83.319, 86.377 83.383 C 86.310 83.448, 85.470 94.761, 84.511 108.526 L 82.768 133.551 89.978 157.583 L 97.188 181.614 102.844 181.310 C 117.823 180.505, 153.257 179, 157.226 179 L 161.696 179 166.263 168.250 C 168.774 162.337, 170.753 157.423, 170.661 157.330 C 170.568 157.236, 156.769 157.958, 139.996 158.934 C 123.223 159.910, 109.297 160.534, 109.049 160.320 C 108.479 159.829, 105.036 100.633, 105.548 100.120 C 105.757 99.910, 117.204 98.309, 130.986 96.560 L 156.044 93.381 161.056 88.445 C 167.001 82.589, 167.943 83.299, 148.500 78.973 C 140.800 77.259, 134.209 75.552, 133.853 75.179 C 133.279 74.576, 136.409 50.144, 137.410 47.419 C 137.629 46.824, 146.371 44.132, 156.838 41.437 C 167.305 38.741, 175.776 36.442, 175.662 36.328 C 175.429 36.096, 146.441 33, 144.496 33 C 143.812 33, 138.523 29.400, 132.744 25 C 126.964 20.600, 121.918 17, 121.528 17 C 121.139 17, 114.405 22.175, 106.563 28.500 C 98.722 34.825, 92 40, 91.627 40 C 91.253 40, 84.472 34.853, 76.557 28.562 C 65.738 19.963, 62.021 17.502, 61.583 18.644 M 40.500 38.278 L 25.500 43.398 31.566 44.831 L 37.633 46.263 46.066 40.508 C 54.148 34.994, 56.922 32.908, 55.950 33.079 C 55.703 33.122, 48.750 35.462, 40.500 38.278 M 49 41.567 C 45.425 44.016, 42.500 46.316, 42.500 46.680 C 42.500 47.386, 54.079 50.254, 54.644 49.689 C 55.290 49.043, 56.663 37.001, 56.084 37.058 C 55.763 37.090, 52.575 39.119, 49 41.567 M 32.739 52.433 L 27.979 55.702 39.500 62.351 C 45.837 66.008, 51.467 69, 52.011 69 C 52.555 69, 53.038 67.987, 53.084 66.750 C 53.131 65.513, 53.493 61.899, 53.890 58.720 C 54.593 53.091, 54.545 52.926, 52.056 52.370 C 50.650 52.056, 47.925 51.440, 46 51 C 37.644 49.091, 37.600 49.096, 32.739 52.433 M 64.750 76.674 C 65.987 77.538, 67 78.864, 67 79.622 C 67 81.337, 67.400 81.374, 60.611 79.038 C 56.399 77.589, 54.809 77.393, 54.527 78.288 C 53.808 80.579, 50.784 107.852, 51.142 108.821 C 51.339 109.354, 56.315 102.300, 62.201 93.145 C 73.765 75.157, 73.764 75.162, 66 75.123 C 62.532 75.105, 62.521 75.119, 64.750 76.674 M 34.232 81.798 C 25.284 83.774, 18.097 85.792, 18.260 86.281 C 18.759 87.776, 47.479 108.947, 47.797 108.054 C 48.508 106.054, 51.561 78.010, 51.058 78.103 C 50.751 78.159, 43.179 79.822, 34.232 81.798" stroke="none" fill="black" fill-rule="evenodd"/>
</svg>