<svg xmlns="http://www.w3.org/2000/svg" width="200" height="200" viewBox="0 0 200 200" version="1.1">
	<path d="M 45 25.086 C 34.275 32.767, 25.380 39.400, 25.234 39.825 C 25.087 40.251, 29.362 41.652, 34.734 42.940 C 40.105 44.228, 54.170 48.350, 65.990 52.101 C 77.809 55.852, 87.861 58.539, 88.327 58.073 C 88.793 57.607, 88.691 56.927, 88.101 56.562 C 86.236 55.410, 49.873 44.040, 41 41.835 C 36.325 40.674, 32.159 39.422, 31.742 39.054 C 31.072 38.462, 62.429 15.451, 64.834 14.769 C 65.356 14.621, 70.370 19.812, 75.977 26.305 C 81.583 32.798, 86.474 37.973, 86.844 37.805 C 87.215 37.637, 95.589 33.263, 105.453 28.083 C 115.317 22.904, 123.890 18.667, 124.503 18.667 C 125.117 18.667, 130.542 20.942, 136.559 23.723 C 143.852 27.093, 151.501 29.692, 159.500 31.516 C 166.100 33.022, 172.084 34.564, 172.798 34.943 C 173.512 35.323, 161.587 39.363, 146.298 43.922 C 131.009 48.481, 118.359 52.341, 118.188 52.501 C 118.016 52.661, 119.933 56.888, 122.448 61.896 L 127.020 71 139.760 71.106 L 152.500 71.213 138.719 72.971 C 131.140 73.937, 124.797 74.902, 124.624 75.114 C 124.451 75.326, 121.338 83.889, 117.707 94.141 L 111.106 112.783 111.028 144.082 C 110.986 161.297, 110.741 175.593, 110.483 175.850 C 110.226 176.108, 104.742 172.807, 98.297 168.514 L 86.579 160.710 69.040 162.288 C 52.405 163.785, 50.886 164.103, 39.602 168.452 C 33.059 170.974, 27.594 172.917, 27.459 172.769 C 27.324 172.621, 37.733 162.600, 50.590 150.500 C 63.447 138.400, 73.974 128.234, 73.983 127.909 C 73.993 127.584, 67.218 126.840, 58.928 126.254 C 50.639 125.669, 43.642 124.975, 43.378 124.712 C 43.115 124.448, 41.632 119.685, 40.083 114.127 L 37.266 104.021 51.021 95.522 C 58.586 90.848, 65.424 86.775, 66.216 86.471 C 67.013 86.165, 71.777 88.624, 76.885 91.978 C 81.961 95.311, 86.651 98.142, 87.307 98.269 C 90.458 98.879, 87.693 95.425, 79.531 88.554 C 73.229 83.249, 70.026 81.174, 68.758 81.577 C 67.092 82.105, 53 74.408, 53 72.970 C 53 72.656, 65.158 71.094, 80.018 69.498 C 94.877 67.902, 107.457 66.336, 107.972 66.018 C 108.500 65.691, 106.992 59.405, 104.509 51.583 C 98.828 33.690, 99.146 34.454, 97.886 35.714 C 97.154 36.446, 98.119 40.731, 101.078 49.889 C 103.410 57.108, 105.081 63.252, 104.791 63.542 C 104.501 63.832, 89.917 65.642, 72.382 67.564 C 54.847 69.486, 39.938 71.256, 39.250 71.498 C 36.117 72.600, 38.470 74, 43.454 74 C 48.235 74, 49.838 74.586, 56.449 78.750 C 60.596 81.362, 63.991 83.725, 63.992 84 C 63.993 84.275, 57.452 88.511, 49.455 93.414 C 41.458 98.316, 34.771 102.591, 34.595 102.914 C 34.274 103.499, 40.560 126.893, 41.214 127.547 C 41.403 127.737, 46.946 128.200, 53.529 128.577 C 60.113 128.953, 66.039 129.545, 66.697 129.891 C 67.421 130.271, 58.441 139.402, 43.960 153.010 C 22.333 173.333, 18.033 178, 20.935 178 C 21.449 178, 29.034 175.349, 37.791 172.108 C 53.417 166.325, 54.011 166.192, 69.812 164.923 L 85.911 163.629 98.949 172.315 C 106.120 177.092, 112.208 181, 112.478 181 C 112.748 181, 113.088 168.410, 113.234 153.021 L 113.500 125.043 128.749 150.771 C 137.136 164.922, 144.382 177.094, 144.852 177.821 C 145.508 178.837, 150.698 176.648, 167.353 168.331 C 179.259 162.386, 189 157.230, 189 156.873 C 189 156.516, 176.512 150.717, 161.250 143.987 C 145.988 137.256, 133.375 131.644, 133.223 131.515 C 133.071 131.385, 137.074 130.215, 142.120 128.914 L 151.293 126.549 158.550 118.147 L 165.807 109.746 156.594 95.623 C 151.526 87.855, 146.559 80.248, 145.555 78.719 C 144.551 77.189, 143.903 75.767, 144.115 75.559 C 144.327 75.351, 150.575 74.462, 158 73.585 C 177.704 71.255, 179 70.998, 179 69.412 C 179 68.233, 174.824 68, 153.715 68 L 128.429 68 125.166 61.382 C 123.371 57.742, 122.106 54.560, 122.355 54.311 C 122.605 54.062, 136.239 49.837, 152.654 44.921 C 169.069 40.006, 183.175 35.711, 184 35.377 C 184.825 35.042, 177.130 32.834, 166.900 30.469 C 151.988 27.021, 145.911 25.075, 136.247 20.654 L 124.194 15.139 106.347 24.544 C 96.531 29.716, 87.965 33.960, 87.311 33.974 C 86.657 33.988, 81.707 28.826, 76.311 22.502 C 70.915 16.178, 66.050 11.029, 65.500 11.061 C 64.950 11.093, 55.725 17.404, 45 25.086 M 130.010 76.882 C 126.541 77.496, 126.492 77.579, 121.741 90.897 C 119.112 98.266, 117.108 104.441, 117.287 104.620 C 117.565 104.898, 122.661 98.265, 136.337 79.825 L 139.173 76 136.337 76.132 C 134.776 76.204, 131.930 76.542, 130.010 76.882 M 126.579 97.547 L 111.911 117.095 129.062 146.047 C 138.496 161.971, 146.612 175, 147.100 175 C 148.360 175, 183 157.635, 183 157.003 C 183 156.715, 170.184 150.859, 154.519 143.990 C 138.855 137.120, 126.030 131.254, 126.019 130.954 C 126.009 130.654, 131.063 129.108, 137.250 127.518 L 148.500 124.628 155.250 117.564 C 158.962 113.679, 161.999 110.101, 162 109.614 C 162 108.777, 142.045 78, 141.502 78 C 141.361 78, 134.646 86.796, 126.579 97.547" stroke="none" fill="black" fill-rule="evenodd"/>
</svg>