<svg xmlns="http://www.w3.org/2000/svg" width="200" height="200" viewBox="0 0 200 200" version="1.1">
	<path d="M 70.370 17.477 C 75.609 25.586, 75.406 24.757, 72.305 25.381 C 70.762 25.692, 57.350 27.545, 42.500 29.499 C 27.650 31.453, 15.061 33.186, 14.525 33.351 C 13.665 33.615, 31.890 43.510, 48.341 51.710 L 54.181 54.622 39.141 65.061 C 30.869 70.802, 24.105 75.950, 24.109 76.500 C 24.114 77.050, 31.404 88.281, 40.309 101.457 L 56.500 125.413 64 127.927 L 71.500 130.440 44.031 131.739 C 20.123 132.869, 13.286 133.725, 15.067 135.366 C 15.305 135.586, 24.275 139.006, 35 142.967 C 45.725 146.928, 54.630 150.299, 54.790 150.458 C 54.949 150.617, 47.684 157.415, 38.645 165.565 C 22.636 180.001, 19.078 184.651, 26.347 181.640 C 28.081 180.922, 42.432 175.040, 58.238 168.570 L 86.975 156.806 97.970 166.473 C 105 172.655, 109.421 175.875, 110.232 175.403 C 110.929 174.998, 115.181 171.817, 119.680 168.333 C 125.076 164.156, 128.776 162, 130.549 162 C 132.027 162, 145.857 163.591, 161.282 165.536 C 180.328 167.937, 189.656 168.744, 190.348 168.052 C 190.908 167.492, 191.172 166.861, 190.933 166.650 C 190.695 166.439, 176.793 160.694, 160.041 153.883 C 139.929 145.707, 130.417 141.390, 132.041 141.176 C 170.330 136.130, 178.344 134.990, 178.810 134.523 C 180.423 132.911, 175.744 132.131, 158.628 131.160 C 148.249 130.571, 139.637 129.957, 139.491 129.795 C 139.344 129.633, 138.913 126.758, 138.533 123.407 L 137.840 117.314 153.170 112.064 C 168.576 106.788, 170.985 105.652, 169.635 104.302 C 169.233 103.900, 150.912 105.979, 128.923 108.923 C 106.934 111.867, 88.781 114.101, 88.584 113.888 C 87.192 112.382, 72.059 80.792, 73.135 81.638 C 73.886 82.228, 81.530 88.149, 90.123 94.795 L 105.747 106.879 128.908 99.571 C 141.647 95.552, 152.197 92.092, 152.352 91.882 C 152.506 91.672, 158.366 84.408, 165.372 75.740 C 173.501 65.683, 177.639 59.811, 176.805 59.513 C 176.087 59.256, 167.642 57.215, 158.039 54.978 C 148.435 52.741, 140.435 50.768, 140.261 50.594 C 140.010 50.343, 157.040 43.799, 183.889 33.831 C 185.202 33.343, 186.075 32.742, 185.828 32.495 C 185.581 32.248, 175.243 28.963, 162.854 25.194 L 140.328 18.343 123.455 23.307 L 106.582 28.272 100.541 26.245 C 97.218 25.131, 88.704 22.135, 81.620 19.587 C 69.045 15.064, 68.779 15.014, 70.370 17.477 M 76.980 22.963 C 77.598 24.116, 78.643 24.691, 79.515 24.356 C 80.594 23.942, 81 24.498, 81 26.391 C 81 29.012, 95.856 53.318, 97.382 53.192 C 97.811 53.156, 101.919 48.351, 106.512 42.514 L 114.862 31.900 115.388 36.200 C 116.067 41.761, 117.231 89, 116.688 89 C 116.461 89, 112.117 82.475, 107.034 74.500 C 101.951 66.525, 97.437 60, 97.002 60 C 96.567 60, 93.627 63.375, 90.467 67.500 C 87.308 71.625, 84.410 75, 84.028 75 C 81.763 75, 82.773 72.871, 88.543 65.482 C 92.094 60.934, 95 56.878, 95 56.469 C 95 55.481, 80.647 33.080, 79.985 33.035 C 79.702 33.016, 77.922 40.425, 76.030 49.500 C 73.722 60.570, 72.164 66, 71.295 66 C 69.585 66, 69.455 66.986, 73.858 46.647 C 76.839 32.872, 77.423 28.716, 76.428 28.334 C 75.070 27.813, 29.169 33.651, 25.169 34.854 C 23.226 35.438, 25.869 37.112, 41.025 44.903 C 51.028 50.044, 58.796 54.532, 58.286 54.875 C 47.609 62.077, 28 76.504, 28 77.158 C 28 77.639, 34.724 88.104, 42.943 100.415 L 57.886 122.797 68.943 126.481 C 75.284 128.594, 80 130.707, 80 131.436 C 80 132.788, 73.141 133.347, 40.703 134.637 C 31.464 135.004, 24.264 135.619, 24.703 136.004 C 25.141 136.388, 33.331 139.559, 42.903 143.050 L 60.306 149.397 50.411 158.448 C 44.968 163.427, 38.262 169.647, 35.508 172.270 L 30.500 177.040 35.383 174.999 C 48.740 169.414, 86.744 154, 87.156 154 C 87.416 154, 92.518 158.222, 98.495 163.382 L 109.363 172.765 118.782 165.685 L 128.201 158.605 153.350 161.712 C 167.183 163.421, 178.578 164.744, 178.673 164.653 C 178.768 164.562, 165.585 159.097, 149.376 152.509 C 133.168 145.921, 120.424 140.359, 121.055 140.148 C 121.687 139.938, 131.271 138.542, 142.352 137.047 L 162.500 134.330 149.840 133.550 L 137.179 132.770 136.643 129.635 C 136.347 127.911, 135.821 124.025, 135.473 121 L 134.841 115.500 143.433 112.596 C 148.159 110.999, 151.823 109.490, 151.575 109.242 C 151.327 108.994, 136.880 110.687, 119.471 113.004 C 102.061 115.321, 87.474 116.830, 87.056 116.358 C 86.638 115.886, 81.740 106.594, 76.172 95.709 C 68.704 81.112, 66.409 75.780, 67.422 75.392 C 68.203 75.092, 76.495 80.784, 86.648 88.589 C 96.467 96.137, 104.950 102.655, 105.501 103.072 C 106.263 103.650, 149.859 90.723, 150.555 89.712 C 150.636 89.595, 155.719 83.313, 161.851 75.750 C 167.983 68.188, 173 61.857, 173 61.680 C 173 61.504, 163.552 59.142, 152.005 56.430 C 140.458 53.719, 131.017 51.275, 131.024 51 C 131.031 50.725, 141.376 46.675, 154.013 42 C 166.650 37.325, 176.991 33.239, 176.994 32.920 C 176.997 32.601, 168.742 29.834, 158.650 26.771 L 140.299 21.202 123.213 26.254 L 106.127 31.305 91.814 26.134 C 83.941 23.290, 77.147 20.972, 76.715 20.982 C 76.283 20.992, 76.402 21.883, 76.980 22.963 M 111.500 40.411 C 110.950 41.205, 107.882 45.221, 104.681 49.336 L 98.863 56.818 106.181 68.154 C 111.205 75.935, 113.578 78.864, 113.749 77.495 C 113.886 76.398, 113.661 67.280, 113.249 57.234 C 112.730 44.569, 112.193 39.411, 111.500 40.411" stroke="none" fill="black" fill-rule="evenodd"/>
</svg>