<svg xmlns="http://www.w3.org/2000/svg" width="200" height="200" viewBox="0 0 200 200" version="1.1">
	<path d="M 86.650 29.250 C 90.245 37.088, 93.392 43.994, 93.642 44.598 C 94.167 45.864, 82.461 46.985, 68.622 46.994 L 59.743 47 46.846 37.500 C 39.753 32.275, 33.511 28, 32.975 28 C 30.870 28, 32.191 30.779, 36.086 34.547 C 38.333 36.721, 42.851 41.506, 46.126 45.179 L 52.081 51.859 41.408 57.822 L 30.734 63.786 42.117 64.389 C 48.378 64.721, 62.275 65.372, 73 65.836 C 86.605 66.425, 89.563 66.729, 82.785 66.840 L 73.070 67 62.128 74.952 L 51.185 82.903 38.343 80.541 C 15.161 76.278, 14.572 76.714, 29.003 87.454 L 39.142 95 45.591 90.398 L 52.039 85.797 67.270 88.482 C 75.646 89.959, 82.565 91.242, 82.645 91.334 C 82.724 91.425, 82.494 93.300, 82.133 95.500 L 81.477 99.500 70.988 101.332 C 62.172 102.872, 59.216 102.991, 52.448 102.082 C 40.972 100.540, 40.314 100.612, 39.593 103.485 C 39.205 105.033, 38.017 106.209, 36.441 106.604 C 34.047 107.205, 33.496 109.779, 35.875 109.250 C 37.586 108.870, 37.426 109.474, 31.155 127.074 L 25.309 143.478 29.680 156.553 L 34.051 169.629 74.456 177.216 L 114.861 184.803 150.999 173.500 C 170.874 167.284, 187.306 162.027, 187.514 161.820 C 187.721 161.612, 187.578 160.965, 187.196 160.381 C 186.706 159.635, 173.334 159.673, 142 160.512 L 97.500 161.704 93.632 157.602 L 89.764 153.500 93.132 153.233 C 94.984 153.086, 111.701 152.360, 130.280 151.620 C 148.859 150.879, 164.318 150.015, 164.633 149.701 C 164.947 149.386, 163.795 140.727, 162.073 130.458 L 158.940 111.787 169.473 95.667 C 178.456 81.918, 179.748 79.445, 178.253 78.858 C 177.289 78.480, 165.296 73.456, 151.603 67.694 L 126.705 57.218 133.103 54.208 C 156.233 43.322, 163 39.908, 163 39.123 C 163 38.010, 155.556 21.223, 154.669 20.336 C 154.104 19.771, 92.030 15.169, 83.306 15.045 L 80.112 15 86.650 29.250 M 85 18.403 C 85 18.782, 87.749 25.126, 91.110 32.501 L 97.219 45.910 103.054 46.205 L 108.888 46.500 105.508 51.851 C 102.223 57.054, 102.172 57.293, 103.677 60.449 L 105.226 63.696 120.789 64.338 C 129.349 64.692, 136.489 64.845, 136.655 64.678 C 136.821 64.512, 133.327 62.892, 128.889 61.077 C 124.452 59.263, 121.199 57.418, 121.661 56.976 C 122.122 56.535, 130.825 52.219, 141 47.385 C 151.175 42.552, 159.624 38.526, 159.776 38.439 C 159.927 38.353, 158.437 34.700, 156.464 30.323 L 152.877 22.363 125.688 20.627 C 110.735 19.673, 95.463 18.627, 91.750 18.302 C 88.037 17.978, 85 18.023, 85 18.403 M 50.784 46.281 C 53.653 49.186, 56 51.855, 56 52.211 C 56 52.568, 52.513 54.804, 48.250 57.180 L 40.500 61.500 54.500 62.128 C 62.200 62.473, 74.585 62.811, 82.023 62.878 L 95.545 63 97.338 59.671 C 99.063 56.468, 99.062 56.199, 97.321 52.548 L 95.512 48.753 77.299 49.468 L 59.086 50.183 53.119 45.591 C 49.837 43.066, 46.796 41, 46.360 41 C 45.925 41, 47.915 43.377, 50.784 46.281 M 99.393 50.582 C 99.727 51.452, 100 52.352, 100 52.582 C 100 53.720, 101.662 52.771, 102.768 51 C 103.897 49.191, 103.767 49, 101.401 49 C 99.427 49, 98.935 49.388, 99.393 50.582 M 99.072 61.865 C 98.080 63.720, 98.197 64, 99.965 64 C 102.172 64, 102.457 63.270, 101.092 61.115 C 100.391 60.008, 99.985 60.159, 99.072 61.865 M 140 66.762 C 140 67.272, 132.970 67.965, 124.378 68.300 C 115.786 68.636, 108.588 69.078, 108.383 69.284 C 107.978 69.688, 117.759 92.047, 118.848 93.205 C 119.212 93.593, 126.012 95.297, 133.958 96.991 C 141.904 98.685, 148.621 100.288, 148.886 100.552 C 149.150 100.817, 148.947 101.445, 148.433 101.948 C 147.868 102.502, 142.396 101.916, 134.552 100.462 C 127.431 99.142, 121.465 98.202, 121.294 98.372 C 121.123 98.543, 122.559 102.093, 124.485 106.260 C 128.351 114.628, 127.203 113.951, 141 116.010 C 145.125 116.626, 149.046 117.305, 149.713 117.519 C 150.530 117.782, 149.439 121.110, 146.376 127.704 C 143.873 133.092, 141.167 139.072, 140.362 140.992 L 138.899 144.485 132.553 130.492 L 126.207 116.500 112.353 114.360 C 104.734 113.183, 98.367 112.341, 98.204 112.490 C 98.041 112.638, 98.378 116.514, 98.954 121.103 C 99.529 125.693, 99.998 130.359, 99.997 131.474 C 99.995 132.588, 96.783 137.016, 92.859 141.312 C 88.935 145.609, 86.124 149.459, 86.612 149.867 C 87.369 150.500, 160.970 148.177, 161.791 147.494 C 162.024 147.300, 158.965 127.672, 156.537 113.779 C 156.157 111.606, 157.896 108.289, 165.187 97.279 C 170.205 89.701, 174.494 82.807, 174.717 81.960 C 175.069 80.627, 162.164 74.611, 140.842 66.167 C 140.379 65.983, 140 66.251, 140 66.762 M 79.500 69.922 C 72.916 70.486, 72.012 70.878, 64.286 76.511 C 59.768 79.805, 56.055 82.773, 56.036 83.107 C 56.016 83.440, 61.901 84.734, 69.114 85.982 C 83.257 88.429, 83.951 88.299, 83.985 83.202 C 83.993 81.938, 85.575 78.442, 87.500 75.433 C 89.425 72.423, 91 69.745, 91 69.481 C 91 68.968, 90.364 68.993, 79.500 69.922 M 90.820 75.267 C 87.650 80.636, 84.852 89, 86.226 89 C 86.473 89, 92.874 90.145, 100.452 91.545 C 108.030 92.945, 114.563 93.957, 114.970 93.795 C 115.376 93.633, 113.224 87.987, 110.187 81.250 L 104.665 69 99.582 69.017 L 94.500 69.035 90.820 75.267 M 26 81.383 C 26 82.172, 38.371 91, 39.438 90.972 C 40.518 90.944, 48.829 85, 47.789 85 C 47.095 85, 31.377 82.152, 28.250 81.460 C 27.012 81.186, 26 81.151, 26 81.383 M 84.800 95.585 L 84.382 99.170 88.941 98.528 C 91.448 98.175, 96.425 97.378, 100 96.756 L 106.500 95.625 97.500 93.872 C 85.022 91.442, 85.288 91.406, 84.800 95.585 M 101 99.500 C 93.575 100.732, 87.281 101.799, 87.013 101.870 C 86.746 101.942, 88.939 103.625, 91.888 105.611 C 96.646 108.815, 98.704 109.450, 110.154 111.248 C 117.252 112.363, 123.328 113.005, 123.658 112.675 C 124.642 111.691, 117.210 96.989, 115.799 97.130 C 115.085 97.201, 108.425 98.268, 101 99.500 M 75 103.542 C 71.425 104.210, 68.950 104.812, 69.500 104.882 C 70.050 104.951, 74.550 105.673, 79.500 106.486 C 90.607 108.311, 90.909 108.317, 88.473 106.653 C 82.199 102.370, 81.787 102.275, 75 103.542 M 42 105.019 C 42 105.624, 43.117 105.770, 44.750 105.378 C 48.676 104.437, 48.808 104, 45.167 104 C 43.425 104, 42 104.459, 42 105.019 M 48.130 107.562 C 44.076 108.301, 40.650 109.040, 40.515 109.203 C 40.381 109.367, 37.575 117.132, 34.279 126.460 L 28.288 143.420 32.233 155.213 C 35.425 164.756, 36.591 167.106, 38.339 167.528 C 39.528 167.814, 57.210 171.161, 77.634 174.966 L 114.769 181.882 145.084 172.408 C 161.757 167.197, 175.647 162.668, 175.950 162.342 C 176.252 162.016, 174.025 162.014, 171 162.338 C 167.975 162.661, 149.835 163.227, 130.689 163.594 L 95.878 164.262 90.836 158.605 C 86.130 153.325, 85.567 152.991, 82.397 153.585 C 78.702 154.279, 78.177 153.567, 80.493 151.008 C 82.010 149.332, 79.132 145.929, 53.648 119.254 C 50.978 116.460, 49.929 114.671, 50.579 114.021 C 51.229 113.371, 57.025 118.867, 67.533 130.100 L 83.500 147.166 90.359 139.975 L 97.219 132.783 96.503 124.191 C 95.389 110.816, 96.910 112.008, 76.903 108.834 C 57.207 105.710, 58.066 105.748, 48.130 107.562 M 130.473 118.916 C 130.842 120.078, 132.869 124.735, 134.977 129.265 L 138.810 137.500 142.758 129 C 145.373 123.372, 146.334 120.284, 145.604 119.862 C 144.997 119.511, 142.025 118.915, 139 118.539 C 135.975 118.163, 132.668 117.618, 131.651 117.329 C 130.145 116.900, 129.927 117.194, 130.473 118.916" stroke="none" fill="black" fill-rule="evenodd"/>
</svg>