<svg xmlns="http://www.w3.org/2000/svg" width="200" height="200" viewBox="0 0 200 200" version="1.1">
	<path d="M 130.895 25.312 L 116.291 30.461 91.158 25.551 C 77.335 22.850, 65.748 20.918, 65.409 21.257 C 64.932 21.734, 69.406 36.654, 72.754 45.750 C 73.007 46.438, 72.753 47, 72.189 47 C 71.626 47, 69.722 42.613, 67.958 37.250 C 66.194 31.888, 64.470 27.191, 64.126 26.814 C 63.464 26.090, 29.003 32.789, 27.793 33.878 C 27.404 34.228, 33.525 38.875, 41.394 44.206 L 55.702 53.898 61.101 52.461 C 69.201 50.305, 69.620 50.435, 71.403 55.670 C 72.278 58.238, 72.870 60.463, 72.719 60.614 C 72.568 60.766, 60.532 62.756, 45.972 65.037 C 31.412 67.319, 19.401 69.280, 19.280 69.396 C 19.159 69.512, 22.534 73.044, 26.780 77.245 L 34.500 84.882 56.250 79.591 C 68.213 76.681, 78 74.616, 78 75.002 C 78 75.521, 42.149 101.516, 33.583 107.208 C 32.856 107.691, 32.842 108.242, 33.540 108.940 C 34.461 109.861, 45.578 107.037, 82.718 96.450 L 87.936 94.963 84.968 86.913 C 81.825 78.388, 81.300 75.900, 83.004 77.604 C 83.981 78.581, 93.217 105.126, 92.740 105.584 C 92.608 105.710, 86.200 107.461, 78.500 109.474 C 70.800 111.488, 63.150 114.098, 61.500 115.275 C 53.966 120.649, 20.952 150.352, 21.691 151.091 C 22.795 152.195, 49.096 168.493, 52.683 170.295 C 54.232 171.074, 66.525 174.742, 80 178.447 L 104.500 185.183 126.500 174.012 L 148.500 162.841 157.807 153.170 C 174.631 135.691, 186.295 122.962, 185.875 122.542 C 185.648 122.315, 171.971 118.960, 155.481 115.087 C 120.219 106.804, 115.700 104.984, 120.500 101 C 123.915 98.166, 121.346 97.395, 115.702 99.561 C 114.759 99.923, 109.169 95.838, 100.359 88.347 C 92.737 81.866, 86.169 76.100, 85.765 75.532 C 84.130 73.235, 85.341 72.405, 92.768 70.736 C 100.496 68.999, 100.655 69.005, 122.829 71.889 C 135.090 73.484, 145.315 74.982, 145.551 75.218 C 145.787 75.453, 138.280 79.213, 128.870 83.573 C 113.866 90.524, 109.705 93.074, 111.126 94.447 C 111.332 94.645, 125.675 93.967, 143 92.939 C 160.325 91.912, 174.848 91.055, 175.272 91.036 C 175.945 91.005, 160.726 60.697, 159.071 58.773 C 158.727 58.373, 149.796 57.500, 139.223 56.833 C 128.650 56.165, 120 55.360, 120 55.044 C 120 54.727, 130.688 50.934, 143.750 46.614 C 166.930 38.949, 170.021 37.687, 168.746 36.413 C 167.692 35.358, 109.860 55.079, 110.280 56.350 C 110.528 57.104, 117.349 57.937, 130.080 58.769 C 140.761 59.466, 151.300 60.265, 153.500 60.543 L 157.500 61.048 164.346 74.594 C 168.112 82.045, 171.037 88.280, 170.846 88.449 C 170.656 88.619, 159.925 89.284, 147 89.929 C 134.075 90.573, 122.376 91.339, 121.002 91.631 C 116.647 92.558, 119.392 91.040, 137.474 82.526 C 147.175 77.958, 155.387 73.946, 155.723 73.611 C 156.059 73.275, 155.471 72.995, 154.417 72.989 C 153.363 72.982, 140.666 71.446, 126.203 69.575 L 99.906 66.174 92.203 68.018 C 87.966 69.033, 84.224 69.557, 83.886 69.182 C 83.549 68.807, 82.800 67.081, 82.222 65.347 L 81.172 62.195 97.086 50.877 C 105.839 44.651, 113 38.983, 113 38.279 C 113 36.589, 113.964 36.427, 94 41.474 C 84.375 43.907, 76.237 45.584, 75.915 45.199 C 74.846 43.922, 68.096 24, 68.732 24 C 69.076 24, 79.833 26.070, 92.638 28.601 L 115.919 33.202 131.019 28.156 L 146.119 23.111 165.977 29.992 C 180.686 35.088, 185.964 36.536, 186.333 35.575 C 186.683 34.662, 181.110 32.314, 167.476 27.631 C 156.831 23.975, 147.531 20.799, 146.811 20.573 C 146.090 20.347, 138.928 22.479, 130.895 25.312 M 52.500 31.149 C 47.550 32.164, 41.105 33.485, 38.177 34.084 L 32.854 35.172 44.540 43.069 L 56.226 50.966 62.555 49.376 L 68.885 47.786 65.806 39.143 C 64.113 34.389, 62.451 30.231, 62.114 29.901 C 61.776 29.572, 57.450 30.134, 52.500 31.149 M 89.500 45.241 C 82.900 46.918, 77.342 48.421, 77.148 48.581 C 76.657 48.985, 80.044 59, 80.672 59 C 81.197 59, 101.736 44.462, 103.450 42.878 C 104.919 41.520, 102.573 41.918, 89.500 45.241 M 73.302 51.750 C 74.144 55.943, 75.987 60.347, 76.630 59.703 C 77.276 59.058, 74.142 49, 73.295 49 C 72.995 49, 72.999 50.237, 73.302 51.750 M 50.288 67.023 C 37.521 69.105, 26.597 70.968, 26.012 71.163 C 25.427 71.358, 27.322 73.842, 30.224 76.683 L 35.500 81.849 56.154 76.821 L 76.808 71.794 75.310 67.397 C 74.486 64.979, 73.742 63.053, 73.656 63.119 C 73.570 63.184, 63.055 64.941, 50.288 67.023 M 77.397 64.593 C 77.733 65.469, 78.280 67.269, 78.613 68.593 C 78.945 69.917, 79.666 71, 80.215 71 C 80.765 71, 80.939 70.283, 80.603 69.407 C 80.267 68.531, 79.720 66.731, 79.387 65.407 C 79.055 64.083, 78.334 63, 77.785 63 C 77.235 63, 77.061 63.717, 77.397 64.593 M 59.798 91.796 C 50.062 98.745, 42.201 104.535, 42.330 104.664 C 42.944 105.277, 83.500 93.209, 83.500 92.413 C 83.500 89.795, 79.530 79.012, 78.592 79.082 C 77.991 79.127, 69.534 84.848, 59.798 91.796 M 88.334 83.250 C 88.609 83.938, 90.283 88.775, 92.053 94 C 93.824 99.225, 95.470 103.721, 95.711 103.992 C 95.953 104.262, 96.589 103.700, 97.125 102.742 C 98.286 100.667, 100 100.443, 100 102.366 C 100 103.504, 100.908 103.480, 105.421 102.224 L 110.842 100.715 99.832 91.357 C 93.777 86.211, 88.600 82, 88.328 82 C 88.056 82, 88.059 82.563, 88.334 83.250 M 105.561 104.937 C 98.125 107.065, 97.143 109.122, 99.814 116.980 L 101.653 122.388 108.232 113.446 C 111.851 108.528, 114.602 104.165, 114.347 103.752 C 113.736 102.763, 112.634 102.912, 105.561 104.937 M 113.292 111.165 C 111.149 114.099, 107.908 118.600, 106.089 121.166 L 102.782 125.832 110.940 149.632 C 115.428 162.722, 119.254 173.587, 119.443 173.776 C 119.632 173.965, 126.046 170.985, 133.696 167.152 L 147.606 160.184 164.422 142.448 C 176.468 129.743, 180.850 124.504, 179.869 123.977 C 179.116 123.572, 165.675 120.210, 150 116.506 C 129.956 111.769, 120.861 109.186, 119.345 107.800 L 117.189 105.829 113.292 111.165 M 78.728 112.291 L 63.956 116.307 44.444 133.276 L 24.931 150.246 39.715 159.415 L 54.500 168.584 79.424 175.413 L 104.348 182.242 109.597 179.402 C 112.485 177.840, 114.675 176.284, 114.465 175.943 C 114.255 175.603, 105.841 172.304, 95.769 168.612 C 85.696 164.920, 76.819 161.506, 76.043 161.026 C 74.895 160.317, 76.467 155.471, 84.431 135.175 C 89.822 121.437, 94.068 109.765, 93.866 109.236 C 93.662 108.700, 86.982 110.048, 78.728 112.291 M 94.672 126.145 C 93.729 130.075, 93.110 133.443, 93.297 133.630 C 93.484 133.817, 95.039 131.979, 96.754 129.546 C 99.572 125.549, 99.761 124.827, 98.717 122.061 C 98.081 120.378, 97.297 119, 96.974 119 C 96.651 119, 95.615 122.215, 94.672 126.145 M 85.201 140.737 C 81.843 149.407, 78.961 157.107, 78.798 157.849 C 78.596 158.763, 83.986 161.260, 95.500 165.587 C 104.850 169.101, 113.260 172.228, 114.188 172.536 C 115.521 172.978, 114.388 168.608, 108.811 151.798 C 104.926 140.084, 101.429 130.148, 101.041 129.718 C 100.474 129.089, 96.176 134.420, 90.792 142.430 C 90.324 143.126, 89.751 143.147, 89.105 142.492 C 88.466 141.844, 88.774 138.726, 89.991 133.511 C 91.016 129.117, 91.731 125.398, 91.581 125.248 C 91.430 125.097, 88.559 132.067, 85.201 140.737" stroke="none" fill="black" fill-rule="evenodd"/>
</svg>