<svg xmlns="http://www.w3.org/2000/svg" width="200" height="200" viewBox="0 0 200 200" version="1.1">
	<path d="M 36.756 29.853 C 24.797 35.159, 15.009 39.732, 15.006 40.015 C 15.003 40.299, 19.837 41.578, 25.750 42.858 C 52.273 48.601, 50.269 47.904, 49.617 51.163 C 49.298 52.759, 48.327 56.506, 47.460 59.490 L 45.883 64.915 38.766 65.207 L 31.648 65.500 44.324 73.890 C 51.296 78.505, 57 82.456, 57 82.670 C 57 82.885, 47.325 82.752, 35.500 82.374 C 16.524 81.768, 14 81.868, 14 83.225 C 14 84.210, 15.597 85.165, 18.443 85.881 C 23.945 87.267, 27 87.309, 27 86 C 27 84.651, 59.514 84.669, 62.037 86.020 C 63.533 86.820, 63.814 87.733, 63.346 90.270 C 63.019 92.046, 62.019 94.252, 61.125 95.171 C 59.609 96.730, 57.552 96.379, 30.500 89.948 C 14.550 86.155, 1.163 83.041, 0.750 83.026 C 0.337 83.012, -0 83.645, -0 84.433 C -0 85.262, 6.852 89.533, 16.250 94.561 C 39.098 106.786, 41.379 108.147, 40.225 108.865 C 39.283 109.450, 21.837 168.171, 22.430 168.763 C 22.574 168.908, 28.873 168.054, 36.427 166.867 C 48.433 164.979, 50.257 164.443, 50.926 162.604 C 51.347 161.447, 54.340 147.598, 57.577 131.829 L 63.464 103.157 66.467 102.557 C 69.239 102.002, 90.561 106.221, 93.855 107.975 C 94.766 108.461, 89.382 112.923, 77.418 121.598 C 67.632 128.694, 59.233 134.768, 58.752 135.097 C 58.272 135.425, 63.344 144.062, 70.024 154.292 L 82.169 172.890 106.335 180.945 C 119.626 185.375, 131.176 188.965, 132 188.922 C 133.268 188.857, 162.322 158.326, 171.368 147.555 L 174.236 144.140 165.118 127.713 C 160.103 118.678, 156 110.747, 156 110.088 C 156 109.429, 158.295 99.435, 161.100 87.878 C 163.905 76.322, 166.024 66.691, 165.809 66.476 C 165.594 66.261, 153.962 65.496, 139.959 64.776 L 114.500 63.467 140 52.588 C 154.025 46.605, 166.983 41.085, 168.796 40.322 L 172.093 38.934 164.450 30.217 L 156.808 21.500 116.332 21.500 L 75.856 21.500 76.400 24 C 76.699 25.375, 78.487 31.558, 80.372 37.740 L 83.800 48.980 79.993 50.120 C 76.811 51.074, 74.491 50.885, 65.843 48.972 C 60.155 47.714, 55.175 46.408, 54.778 46.070 C 54.381 45.732, 55.536 39.728, 57.346 32.728 C 59.275 25.264, 60.194 20.043, 59.568 20.103 C 58.981 20.160, 48.715 24.548, 36.756 29.853 M 82.755 36 C 84.632 42.325, 86.308 47.641, 86.480 47.813 C 86.652 47.985, 92.723 46.257, 99.971 43.971 C 107.220 41.686, 113.322 39.989, 113.533 40.200 C 113.744 40.411, 109.020 46.785, 103.036 54.364 C 92.725 67.423, 92.208 68.299, 93.175 71.073 C 93.736 72.683, 94.489 73.998, 94.848 73.996 C 95.207 73.993, 97.491 72.670, 99.925 71.056 C 104.208 68.214, 104.466 68.168, 107.925 69.632 C 109.891 70.464, 118.362 73.917, 126.750 77.305 C 135.156 80.700, 142 84.034, 142 84.732 C 142 85.717, 137.095 86, 120 86 C 107.900 86, 98 86.268, 98 86.596 C 98 86.924, 98.721 89.673, 99.603 92.706 L 101.206 98.220 107.603 97.813 C 111.121 97.589, 113.990 97.652, 113.978 97.953 C 113.965 98.254, 111.726 100.075, 109.002 102 C 106.278 103.925, 104.183 105.935, 104.346 106.466 C 104.510 106.998, 109.253 108.500, 114.885 109.805 C 124.489 112.030, 125.044 112.293, 123.813 114.039 C 123.091 115.063, 119.893 119.261, 116.707 123.368 L 110.915 130.835 115.957 147.555 C 118.731 156.751, 121 164.663, 121 165.137 C 121 165.612, 120.393 166, 119.652 166 C 118.898 166, 115.124 159.318, 111.086 150.835 L 103.867 135.671 105.896 132.927 L 107.924 130.183 104.776 119.524 C 102.235 110.921, 101.307 108.948, 99.969 109.298 C 98.263 109.744, 62 135.754, 62 136.532 C 62 136.770, 66.924 144.511, 72.943 153.733 L 83.886 170.500 107.455 178.329 C 120.418 182.636, 131.371 186.011, 131.796 185.829 C 132.221 185.648, 141.236 176.176, 151.828 164.780 L 171.087 144.060 161.873 127.433 L 152.660 110.806 157.702 90.153 C 160.475 78.794, 162.579 69.315, 162.377 69.089 C 162.045 68.716, 119.060 66.163, 111.177 66.048 C 103.409 65.935, 108.753 62.792, 137 50.860 C 152.675 44.238, 165.843 38.496, 166.261 38.099 C 166.680 37.702, 164.513 34.480, 161.445 30.939 L 155.868 24.500 117.605 24.500 L 79.342 24.500 82.755 36 M 43.500 30.024 C 37.450 32.715, 30.250 35.889, 27.500 37.076 L 22.500 39.235 36.500 42.437 C 44.200 44.198, 50.626 45.557, 50.779 45.457 C 51.220 45.170, 55.974 27.640, 55.988 26.250 C 56.005 24.495, 55.769 24.566, 43.500 30.024 M 96 47.983 C 91.325 49.508, 87.561 51.149, 87.636 51.628 C 88.265 55.656, 91.248 63.965, 91.917 63.551 C 93.898 62.327, 106.884 45.010, 105.750 45.105 C 105.063 45.162, 100.675 46.457, 96 47.983 M 51.984 53.250 C 48.107 68.333, 48.282 68, 44.229 68 C 40.609 68, 40.802 68.193, 51.737 75.500 L 62.961 83 69.868 83 L 76.775 83 82.199 76.250 C 85.182 72.537, 87.954 68.946, 88.359 68.268 C 88.950 67.280, 85.612 53.383, 84.496 52.184 C 84.334 52.011, 82.379 52.359, 80.152 52.959 C 76.759 53.873, 74.287 53.640, 64.916 51.525 C 58.765 50.136, 53.584 49, 53.404 49 C 53.224 49, 52.585 50.913, 51.984 53.250 M 86 75.793 C 80.464 83.089, 80.475 83.395, 86.147 79.744 C 90.016 77.254, 91.407 75.772, 91.166 74.399 C 90.549 70.882, 89.516 71.161, 86 75.793 M 100 74.206 C 96.636 76.379, 95.570 77.661, 95.779 79.285 C 95.932 80.480, 96.382 81.762, 96.779 82.134 C 97.415 82.731, 134.215 83.882, 133.619 83.286 C 133.372 83.039, 109.964 73.336, 106.500 72.045 C 105.093 71.521, 103.166 72.162, 100 74.206 M 89.500 81 L 86.500 82.987 90.156 82.993 C 93.322 82.999, 93.743 82.731, 93.290 81 C 93.002 79.900, 92.707 79.003, 92.633 79.007 C 92.560 79.010, 91.150 79.907, 89.500 81 M 66.607 87.582 C 65.760 89.790, 65.850 92, 66.788 92 C 67.221 92, 69.134 90.668, 71.038 89.041 L 74.500 86.081 70.857 86.041 C 68.430 86.014, 67.011 86.528, 66.607 87.582 M 78.018 88.130 C 74.554 90.242, 73.921 90.879, 69.823 96.381 L 67.678 99.262 82.315 98.821 C 90.366 98.579, 97.215 98.119, 97.535 97.798 C 97.856 97.477, 97.385 94.692, 96.488 91.607 L 94.858 86 88.179 86.004 C 83.136 86.007, 80.647 86.528, 78.018 88.130 M 13 89.421 C 13 89.652, 19.863 93.507, 28.250 97.987 L 43.500 106.132 47.500 104.026 C 52.227 101.537, 55.525 99.160, 54.927 98.672 C 54.443 98.278, 14.908 88.986, 13.750 88.994 C 13.338 88.997, 13 89.189, 13 89.421 M 52.744 103.979 L 46.989 107.803 52.595 110.967 C 55.679 112.707, 58.313 113.989, 58.449 113.816 C 58.752 113.427, 61 101.988, 61 100.833 C 61 99.220, 58.441 100.195, 52.744 103.979 M 85.615 101.859 C 84.202 102.430, 85.206 102.941, 89.615 103.897 C 92.852 104.598, 96.551 105.417, 97.837 105.716 C 99.841 106.183, 100.125 105.922, 99.837 103.880 C 99.529 101.702, 98.990 101.483, 93.500 101.299 C 90.200 101.188, 86.652 101.440, 85.615 101.859 M 102.510 102.016 C 102.856 102.575, 103.557 102.774, 104.069 102.457 C 105.456 101.600, 105.198 101, 103.441 101 C 102.584 101, 102.165 101.457, 102.510 102.016 M 42.437 110.765 C 41.512 111.405, 25.658 165.106, 26.269 165.532 C 26.636 165.789, 48.140 162.200, 48.439 161.832 C 48.587 161.649, 50.747 151.480, 53.239 139.234 L 57.769 116.969 51.539 113.484 C 44.994 109.825, 44.159 109.575, 42.437 110.765 M 105.628 112.653 C 107.438 119.866, 109.769 126.072, 110.577 125.827 C 111.741 125.474, 118.875 116.501, 119.233 114.938 C 119.391 114.248, 116.554 113.066, 112.268 112.036 L 105.037 110.299 105.628 112.653 M 107.576 134.877 C 107.218 135.456, 108.046 138.083, 109.416 140.715 C 112.189 146.042, 112.572 145.746, 110.831 139.616 C 109.474 134.834, 108.489 133.400, 107.576 134.877" stroke="none" fill="black" fill-rule="evenodd"/>
</svg>