<svg xmlns="http://www.w3.org/2000/svg" width="200" height="200" viewBox="0 0 200 200" version="1.1">
	<path d="M 67.500 16.337 C 64.200 18.160, 55.524 22.916, 48.220 26.905 L 34.940 34.159 40.069 40.079 L 45.198 46 67.099 46 L 89 46 89 50.981 C 89 55.616, 88.809 56, 86.250 56.508 C 84.737 56.809, 71.925 60.274, 57.778 64.209 C 35.173 70.496, 32.204 71.551, 33.278 72.917 C 33.950 73.771, 41.813 83.110, 50.750 93.670 C 59.688 104.230, 67 113.154, 67 113.502 C 67 113.850, 66.107 113.851, 65.016 113.505 C 63.495 113.022, 58.310 116.543, 42.766 128.610 C 31.620 137.265, 22.331 144.474, 22.124 144.632 C 21.723 144.938, 45.523 182.597, 47.520 184.816 C 48.455 185.855, 50.834 180.479, 58.806 159.316 C 64.362 144.567, 68.924 133.400, 68.945 134.500 C 68.965 135.600, 68.154 141.337, 67.142 147.250 L 65.301 158 68.401 157.988 C 70.105 157.982, 81.400 157.087, 93.500 156 C 105.600 154.913, 116.625 154.027, 118 154.030 C 119.888 154.035, 121.234 155.194, 123.500 158.768 C 126.268 163.135, 127.928 164.250, 145 173.218 C 155.175 178.563, 163.958 182.951, 164.518 182.968 C 165.439 182.997, 179.112 114.226, 178.435 112.965 C 178.277 112.671, 168.327 113.209, 156.324 114.159 C 124.497 116.680, 124.156 116.635, 138.500 111.784 C 145.100 109.552, 150.630 107.621, 150.788 107.492 C 151.530 106.888, 163.014 56.278, 162.774 54.673 C 162.591 53.451, 159.782 51.639, 154.294 49.202 L 146.088 45.558 159.794 38.365 C 167.332 34.408, 174.850 30.382, 176.500 29.416 L 179.500 27.661 158 22.339 L 136.500 17.017 114.490 19.166 L 92.480 21.315 83.114 17.157 C 77.962 14.871, 73.692 13.005, 73.624 13.011 C 73.556 13.018, 70.800 14.514, 67.500 16.337 M 56.765 25.280 C 47.560 30.351, 40.023 34.844, 40.015 35.265 C 40.007 35.685, 41.485 37.650, 43.300 39.630 L 46.599 43.230 67.521 43.061 C 79.027 42.968, 88.521 42.803, 88.618 42.696 C 88.716 42.588, 89.114 38.194, 89.503 32.931 L 90.211 23.362 82.855 20.063 C 78.810 18.249, 75.050 16.606, 74.500 16.412 C 73.950 16.219, 65.969 20.209, 56.765 25.280 M 114.250 21.814 C 105.862 22.655, 99.013 23.603, 99.029 23.921 C 99.045 24.240, 108.925 28.899, 120.984 34.276 L 142.910 44.053 157.659 36.332 L 172.408 28.612 154.954 24.354 C 135.646 19.643, 135.812 19.654, 114.250 21.814 M 92.629 26.524 C 92.283 27.426, 92 31.502, 92 35.582 L 92 43 112.667 43 C 124.033 43, 133.146 42.838, 132.917 42.639 C 132.535 42.309, 96.953 26.318, 94.379 25.320 C 93.763 25.081, 92.975 25.623, 92.629 26.524 M 92.545 45.979 C 92.087 46.801, 90.842 56, 91.189 56 C 91.360 56, 103.425 54.425, 118 52.500 C 132.575 50.575, 144.613 49, 144.750 49 C 144.887 49, 145 49.641, 145 50.425 C 145 51.261, 143.037 52.430, 140.250 53.254 C 137.637 54.027, 125.732 57.530, 113.794 61.040 C 101.856 64.550, 92.243 67.576, 92.431 67.764 C 92.620 67.953, 96.762 67.409, 101.637 66.557 C 112.362 64.681, 113.167 64.663, 115.287 66.250 C 116.753 67.347, 115.551 68.599, 105.446 76.500 L 93.936 85.500 112.218 87.171 C 122.273 88.089, 130.820 88.877, 131.211 88.921 C 131.602 88.964, 128.385 94.963, 124.062 102.250 C 119.739 109.537, 116.285 115.591, 116.387 115.702 C 116.721 116.069, 147.484 105.902, 148.207 105.186 C 148.884 104.515, 160 58.084, 160 55.927 C 160 55.353, 155.807 52.938, 150.683 50.560 L 141.366 46.235 117.100 45.847 C 103.754 45.633, 92.704 45.693, 92.545 45.979 M 104.271 56.946 C 97.544 57.870, 91.773 58.894, 91.445 59.221 C 91.118 59.549, 90.996 60.935, 91.175 62.301 L 91.500 64.785 107.500 59.963 C 124.785 54.754, 124.203 54.210, 104.271 56.946 M 64.500 65.052 C 52.950 68.321, 42.235 71.341, 40.689 71.763 C 39.143 72.184, 37.918 72.973, 37.968 73.515 C 38.082 74.769, 63.248 104.884, 64.237 104.950 C 65.896 105.062, 85.765 88.462, 84.668 87.882 C 84.026 87.541, 79.969 87.010, 75.653 86.701 C 71.337 86.392, 67.542 85.876, 67.220 85.553 C 65.575 83.908, 69.416 83.367, 77.445 84.112 C 82.365 84.569, 86.612 84.721, 86.883 84.450 C 87.766 83.567, 88.263 72, 87.418 72 C 86.966 72, 81.295 72.951, 74.817 74.114 C 63.758 76.099, 57.237 76.075, 61 74.064 C 61.825 73.622, 68.237 71.561, 75.250 69.482 L 88 65.702 88 62.351 C 88 60.308, 87.512 59.021, 86.750 59.053 C 86.063 59.083, 76.050 61.782, 64.500 65.052 M 98.875 69.707 L 91.249 71.164 90.625 75.722 C 89.237 85.845, 89.139 85.798, 97.750 79.092 C 102.013 75.772, 106.850 71.935, 108.500 70.564 L 111.500 68.072 109 68.161 C 107.625 68.210, 103.069 68.906, 98.875 69.707 M 90.007 92.635 L 90.015 97.500 101.582 106.342 C 107.945 111.205, 113.296 115.030, 113.474 114.842 C 114.420 113.845, 127.036 91.705, 126.790 91.473 C 126.631 91.322, 120.650 90.697, 113.500 90.085 C 106.350 89.473, 98.138 88.702, 95.250 88.371 L 90 87.770 90.007 92.635 M 79 97.268 C 74.875 100.539, 70.199 104.240, 68.609 105.493 L 65.718 107.771 70.272 112.324 L 74.825 116.877 71.814 135.507 C 70.158 145.753, 69.060 154.394, 69.374 154.708 C 69.688 155.021, 81.461 154.269, 95.536 153.036 C 109.611 151.802, 121.384 151.051, 121.699 151.366 C 122.014 151.681, 123.678 154.090, 125.395 156.719 C 128.227 161.054, 130.058 162.311, 145.009 170.191 C 154.079 174.971, 161.950 178.907, 162.500 178.938 C 163.307 178.983, 175.134 120.042, 175.030 116.496 C 174.996 115.365, 122 118.938, 122 120.071 C 122 120.638, 146.182 141.039, 149.424 143.208 C 150.160 143.701, 150.165 144.235, 149.439 144.961 C 148.713 145.687, 143.277 142.039, 131.618 133.003 C 122.391 125.851, 114.250 120, 113.528 120 C 112.805 120, 111.973 119.371, 111.678 118.603 C 111.383 117.835, 105.822 113.063, 99.321 107.999 C 88.594 99.644, 87.454 98.446, 87 95.057 L 86.500 91.322 79 97.268 M 46 129.578 C 36.375 137.039, 27.874 143.753, 27.109 144.498 C 25.928 145.649, 27.347 148.422, 36.548 162.938 C 42.504 172.335, 47.671 179.680, 48.030 179.261 C 49.047 178.077, 71.323 117.984, 70.887 117.603 C 70.674 117.417, 68.925 116.983, 67 116.639 C 63.688 116.046, 62.558 116.743, 46 129.578" stroke="none" fill="black" fill-rule="evenodd"/>
</svg>