<svg xmlns="http://www.w3.org/2000/svg" width="200" height="200" viewBox="0 0 200 200" version="1.1">
	<path d="M 99.564 21.139 C 85.299 23.284, 73.435 25.232, 73.200 25.467 C 72.964 25.702, 73.723 27.104, 74.886 28.582 C 76.049 30.060, 77 31.591, 77 31.984 C 77 32.376, 64.287 33.019, 48.750 33.412 C 23.925 34.039, 17.369 34.703, 19.082 36.416 C 19.781 37.114, 74.912 43, 80.754 43 C 85.934 43, 85.965 43.019, 90.889 49.250 C 93.605 52.688, 95.712 55.617, 95.571 55.759 C 95.430 55.901, 91.466 54.214, 86.760 52.009 C 77.255 47.555, 76.986 47.478, 77.034 49.250 C 77.053 49.938, 82.360 53.016, 88.828 56.092 L 100.588 61.684 110.988 75.033 C 122.735 90.111, 122.235 90.069, 123.512 76.096 L 124.115 69.500 113.207 64.384 C 103.039 59.615, 101.929 58.801, 96.837 52.384 C 88.895 42.374, 88.960 42.864, 95.681 43.628 C 100.025 44.123, 104.966 46.020, 115.174 51.114 L 128.848 57.937 152.924 61.217 C 166.166 63.021, 177 64.727, 177 65.008 C 177 65.290, 171.963 69.791, 165.807 75.010 C 159.651 80.230, 151.997 86.914, 148.799 89.865 C 144.281 94.033, 142.684 94.983, 141.642 94.118 C 140.584 93.239, 139.913 93.899, 138.458 97.253 C 137.269 99.992, 131.447 106.781, 122.057 116.376 L 107.500 131.252 111.773 130.610 C 114.123 130.258, 118.303 129.485, 121.062 128.893 L 126.077 127.818 132.446 115.108 C 139.440 101.150, 141.281 98.801, 143.431 101.086 C 146.102 103.926, 168.250 132.488, 168.710 133.686 C 169.061 134.602, 150.818 183.076, 149.476 184.794 C 149.242 185.092, 121.145 169.252, 119.726 168.023 C 119.300 167.654, 121.888 160.435, 125.476 151.980 C 136.445 126.135, 134.433 127.333, 114.033 158.792 C 105.402 172.103, 98.094 183.240, 97.792 183.541 C 97.491 183.842, 89.748 173.060, 80.585 159.580 C 71.422 146.101, 63.523 134.823, 63.032 134.520 C 60.132 132.727, 61.995 137.560, 69.585 151.512 C 74.295 160.169, 77.777 167.584, 77.324 167.990 C 76.062 169.120, 38.005 178.338, 37.341 177.674 C 37.020 177.354, 35.263 168.659, 33.435 158.354 L 30.111 139.616 40.806 128.101 C 64.057 103.065, 63.410 103.678, 65.793 104.434 C 68.452 105.278, 68.524 106.864, 66.500 120 C 65.695 125.225, 65.028 130.782, 65.018 132.349 L 65 135.198 70.750 130.113 C 73.912 127.316, 79.417 122.370, 82.983 119.122 L 89.466 113.217 80.646 108.858 L 71.825 104.500 72.438 97 L 73.052 89.500 68.193 94.845 L 63.334 100.190 54.917 95.941 L 46.500 91.692 52 89.095 C 55.025 87.667, 61.276 84.800, 65.891 82.724 C 70.506 80.647, 74.106 78.776, 73.891 78.565 C 73.676 78.353, 65.649 77.226, 56.054 76.061 C 46.458 74.895, 38.488 73.821, 38.341 73.675 C 38.195 73.528, 43.121 72.176, 49.288 70.669 C 70.163 65.568, 76 63.792, 76 62.544 C 76 61.779, 70.760 60.076, 62.250 58.076 C 54.688 56.299, 47.713 54.624, 46.750 54.355 C 45.642 54.045, 45 54.417, 45 55.370 C 45 56.472, 48.199 57.607, 56.984 59.619 C 63.576 61.129, 68.833 62.500, 68.668 62.665 C 68.503 62.830, 59.683 65.200, 49.069 67.931 C 38.455 70.662, 29.552 73.115, 29.285 73.382 C 27.757 74.910, 31.521 75.883, 45.215 77.500 C 53.622 78.494, 61.334 79.602, 62.353 79.963 C 63.698 80.440, 60.860 82.095, 52 86 L 39.794 91.380 50.528 96.764 L 61.261 102.149 57.818 105.824 C 55.924 107.846, 48.263 116.066, 40.794 124.092 L 27.213 138.684 30.577 158.092 C 32.427 168.766, 34.170 178.444, 34.451 179.597 C 34.951 181.654, 35.405 181.586, 57.909 176.086 C 70.530 173.001, 81.147 170.186, 81.502 169.831 C 81.857 169.476, 81.388 167.682, 80.459 165.843 C 77.939 160.852, 79.844 163.257, 88.500 176 C 92.797 182.325, 96.621 187.857, 96.999 188.292 C 97.376 188.728, 103.203 180.516, 109.947 170.042 C 116.691 159.569, 122.370 151, 122.566 151 C 122.763 151, 121.366 154.640, 119.462 159.089 C 117.558 163.537, 116.014 167.700, 116.032 168.339 C 116.049 168.977, 120.884 172.200, 126.776 175.500 C 132.668 178.800, 140.486 183.198, 144.149 185.274 L 150.810 189.047 160.906 163.444 C 166.459 149.362, 171.269 136.777, 171.595 135.476 C 172.082 133.537, 169.742 130, 158.594 115.827 C 151.117 106.320, 145 98.058, 145 97.467 C 145 96.876, 153.583 89.047, 164.072 80.069 C 174.562 71.091, 182.775 63.415, 182.322 63.011 C 181.870 62.608, 169.727 60.664, 155.337 58.691 L 129.174 55.105 118.337 49.564 L 107.500 44.023 122.235 44.655 L 136.969 45.288 159.459 35.418 C 171.828 29.990, 181.623 25.255, 181.224 24.895 C 180.826 24.536, 168.800 22.812, 154.500 21.064 C 140.200 19.316, 127.825 17.740, 127 17.562 C 126.175 17.385, 113.829 18.994, 99.564 21.139 M 101.078 23.639 C 88.746 25.494, 78.422 27.244, 78.137 27.529 C 77.075 28.592, 80.787 31.059, 90.831 35.968 L 101.162 41.017 119.014 41.664 L 136.867 42.311 154.951 34.411 C 164.896 30.066, 172.689 26.406, 172.267 26.277 C 170.892 25.857, 125.146 19.996, 124.312 20.133 C 123.865 20.207, 113.410 21.784, 101.078 23.639 M 56.500 35.957 L 42.500 36.500 58 38.251 C 74.971 40.169, 83 40.459, 83 39.155 C 83 36.904, 79.125 35.010, 74.921 35.207 C 72.490 35.321, 64.200 35.658, 56.500 35.957 M 85 36.825 C 85 38.618, 88.925 41.147, 91.168 40.798 C 93.238 40.477, 93.023 40.185, 89.250 38.198 C 86.912 36.967, 85 36.349, 85 36.825 M 109.590 68.750 C 111.145 70.813, 114.072 74.613, 116.094 77.195 L 119.772 81.891 120.386 78.820 C 121.709 72.205, 121.382 71.617, 114.481 68.215 C 110.896 66.447, 107.692 65, 107.362 65 C 107.033 65, 108.035 66.688, 109.590 68.750 M 67.028 99.467 C 65.827 100.913, 65.832 101.280, 67.064 102.050 C 68.052 102.667, 68.602 102.482, 68.827 101.455 C 69.420 98.746, 68.484 97.711, 67.028 99.467 M 70.980 107.759 C 70.950 108.891, 69.108 122.062, 68.446 125.880 C 67.861 129.259, 67.862 129.258, 75.930 121.880 C 80.368 117.821, 83.999 114.259, 83.999 113.965 C 84 113.124, 71.002 106.929, 70.980 107.759 M 122.975 119.628 C 117.134 125.588, 116.047 127.121, 118 126.641 C 119.375 126.304, 121.282 126.021, 122.237 126.014 C 123.380 126.005, 125.181 123.604, 127.500 119 C 129.439 115.150, 130.896 112, 130.738 112 C 130.579 112, 127.086 115.432, 122.975 119.628" stroke="none" fill="black" fill-rule="evenodd"/>
</svg>