<svg xmlns="http://www.w3.org/2000/svg" width="200" height="200" viewBox="0 0 200 200" version="1.1">
	<path d="M 103.250 22.781 C 90.463 25.331, 80 27.762, 80 28.184 C 80 28.605, 81.997 32.224, 84.438 36.225 L 88.875 43.500 75.188 43.812 C 67.659 43.983, 58.237 43.832, 54.250 43.476 L 47 42.829 47 35.331 C 47 25.062, 44.991 26.048, 42.923 37.331 C 41.676 44.141, 41.606 46, 42.598 46 C 44.099 46, 43.503 48.371, 39.521 58.231 L 36.803 64.961 43.898 72.731 C 47.800 77.004, 50.995 80.740, 50.997 81.034 C 50.998 81.328, 49.641 82.371, 47.980 83.352 C 45.341 84.912, 42.856 85.096, 28.230 84.818 C 5.427 84.385, 5.174 85.409, 26.637 91.251 L 35.774 93.739 40.384 90.869 C 44.228 88.477, 46.075 88, 51.497 88 C 55.074 88, 58 88.191, 58 88.423 C 58 88.656, 49.450 102.831, 39 119.922 C 28.550 137.013, 20 151.387, 20 151.864 C 20 152.341, 26.284 158.672, 33.965 165.931 C 46.589 177.864, 47.981 178.908, 48.466 176.815 C 49.304 173.206, 62.050 93.838, 62.288 90.752 C 62.490 88.135, 62.738 88.009, 67.500 88.101 C 70.250 88.154, 74.788 88.491, 77.585 88.849 L 82.671 89.500 74.390 108 C 69.835 118.175, 66.084 126.838, 66.054 127.250 C 66.024 127.662, 78.938 128.053, 94.750 128.118 L 123.500 128.236 98.269 132.432 C 84.392 134.741, 72.830 136.837, 72.575 137.091 C 72.175 137.492, 87.380 165.653, 88.724 167 C 88.998 167.275, 94.791 161.709, 101.597 154.631 C 109.464 146.450, 114.151 142.261, 114.465 143.131 C 114.736 143.884, 117.004 153.924, 119.504 165.442 C 122.005 176.960, 124.255 186.588, 124.505 186.838 C 124.932 187.266, 176.176 137.404, 176.783 135.969 C 176.939 135.601, 173.677 133.821, 169.533 132.015 C 164.623 129.873, 162 128.168, 161.999 127.115 C 161.999 126.227, 160.874 114.475, 159.500 101 C 158.126 87.525, 157.001 75.536, 157.001 74.358 C 157 72.533, 158.050 71.958, 164.086 70.479 C 169.732 69.095, 170.900 68.500, 169.836 67.547 C 169.101 66.890, 164.675 63.266, 160 59.493 C 155.325 55.721, 151.178 52.373, 150.784 52.052 C 150.391 51.731, 156.127 46.547, 163.531 40.531 C 170.935 34.515, 176.657 29.288, 176.246 28.915 C 175.167 27.935, 131.700 17.986, 128.876 18.073 C 127.569 18.113, 116.037 20.232, 103.250 22.781 M 105 25.246 C 93.725 27.457, 84.347 29.397, 84.160 29.557 C 83.973 29.716, 85.678 32.975, 87.950 36.799 C 92.686 44.771, 93.175 44.970, 108.090 44.989 C 116.283 44.999, 117.244 45.248, 128.869 50.362 C 135.573 53.312, 141.272 55.939, 141.534 56.200 C 141.795 56.462, 133.457 57.958, 123.005 59.525 C 112.552 61.093, 104 62.719, 104 63.140 C 104 63.560, 107.066 68.988, 110.813 75.202 L 117.626 86.500 125.234 87 C 129.418 87.275, 133.105 87.765, 133.427 88.089 C 133.749 88.414, 131.760 90.214, 129.008 92.089 C 126.256 93.965, 124.003 95.888, 124.002 96.361 C 124.001 96.835, 126.236 100.924, 128.969 105.449 C 131.702 109.974, 134.201 114.361, 134.523 115.199 C 134.983 116.397, 131.951 115.888, 120.304 112.807 C 112.162 110.654, 104.857 108.675, 104.071 108.409 C 103.176 108.106, 105.856 105.584, 111.231 101.668 L 119.820 95.411 118.219 92.773 C 116.809 90.448, 115.781 90.059, 109.559 89.498 C 105.677 89.148, 98.730 89.005, 94.122 89.181 L 85.743 89.500 77.912 107 L 70.080 124.500 108.540 124.762 C 133.836 124.934, 147 125.372, 147 126.043 C 147 127.545, 147.164 127.512, 112.500 133.029 C 94.900 135.831, 79.548 138.433, 78.384 138.811 C 76.374 139.466, 76.599 140.092, 82.877 151.339 L 89.485 163.179 102.347 150.027 C 109.421 142.794, 115.459 137.125, 115.764 137.431 C 116.069 137.736, 118.252 146.877, 120.615 157.743 C 122.977 168.609, 125.169 178.534, 125.486 179.798 C 126 181.846, 128.564 179.668, 149.023 159.798 C 161.652 147.534, 171.988 137.224, 171.992 136.887 C 171.996 136.549, 169.334 135.076, 166.074 133.614 C 161.358 131.497, 160.038 130.398, 159.604 128.227 C 159.304 126.727, 157.850 113.195, 156.372 98.156 C 153.399 67.897, 153.171 69.654, 160.230 68.461 C 162.303 68.111, 164 67.463, 164 67.022 C 164 66.581, 159.950 62.947, 155 58.945 C 150.050 54.944, 146 51.578, 146 51.465 C 146 51.352, 151.654 46.655, 158.564 41.027 C 165.474 35.399, 170.957 30.624, 170.748 30.415 C 169.798 29.464, 131.640 21.013, 128.751 21.113 C 126.963 21.175, 116.275 23.035, 105 25.246 M 46 47.707 C 46 48.817, 44.650 52.999, 43 57 L 40 64.274 46.590 71.637 C 50.214 75.687, 53.702 78.986, 54.340 78.969 C 54.978 78.952, 57.300 77.829, 59.500 76.474 C 61.700 75.119, 64.063 74.008, 64.750 74.005 C 67.368 73.994, 65.813 75.943, 60.972 78.738 C 56.264 81.456, 56.058 81.738, 57.722 83.187 C 59.784 84.982, 59.220 84.895, 73.500 85.606 L 84.500 86.154 87.287 79.541 C 88.820 75.904, 89.856 72.576, 89.590 72.146 C 89.324 71.715, 84.807 70.518, 79.553 69.484 C 73.854 68.364, 70 67.124, 70 66.410 C 70 64.720, 70.970 64.470, 85.250 62.475 C 92.263 61.495, 98 60.259, 98 59.728 C 98 59.196, 96.392 56.115, 94.428 52.881 L 90.855 47 82.086 47 C 77.262 47, 67.170 46.705, 59.658 46.345 C 46.411 45.710, 46 45.751, 46 47.707 M 97.648 53.105 C 99.703 56.622, 101.443 59.608, 101.514 59.739 C 101.792 60.248, 131 55.501, 131 54.948 C 131 54.625, 127.737 52.946, 123.750 51.216 C 117.618 48.555, 114.759 47.966, 105.206 47.390 L 93.913 46.710 97.648 53.105 M 89 64.615 C 77.499 66.524, 77.504 66.519, 85.795 68.018 C 89.807 68.743, 93.308 69.690, 93.576 70.122 C 93.843 70.555, 92.698 73.916, 91.031 77.593 C 89.364 81.269, 88 84.599, 88 84.992 C 88 85.792, 112.950 87.383, 113.703 86.631 C 114.653 85.681, 100.497 63.053, 99 63.128 C 98.175 63.170, 93.675 63.839, 89 64.615 M 52 84 C 50.793 84.780, 50.951 84.972, 52.809 84.985 C 54.097 84.993, 54.845 84.558, 54.500 84 C 53.757 82.798, 53.861 82.798, 52 84 M 24.083 87.408 C 24.313 87.633, 27.011 88.470, 30.080 89.269 C 34.557 90.434, 35.996 90.476, 37.360 89.479 C 38.902 88.351, 38.910 88.179, 37.448 87.618 C 35.683 86.941, 23.410 86.748, 24.083 87.408 M 120.638 91.500 C 121.358 93.375, 122.934 93.364, 125.441 91.468 C 127.262 90.091, 127.155 90, 123.723 90 C 120.880 90, 120.191 90.335, 120.638 91.500 M 40.677 122.345 L 22.855 151.500 34.138 162.239 C 40.344 168.146, 45.709 172.646, 46.059 172.239 C 46.778 171.406, 59.330 93.990, 58.825 93.503 C 58.646 93.331, 50.480 106.310, 40.677 122.345 M 114.660 102.464 L 108.820 106.874 113.160 107.991 C 115.547 108.606, 119.911 109.785, 122.857 110.613 C 125.804 111.441, 128.431 111.903, 128.694 111.639 C 129.218 111.115, 121.813 98.034, 121 98.046 C 120.725 98.050, 117.872 100.038, 114.660 102.464" stroke="none" fill="black" fill-rule="evenodd"/>
</svg>