<svg xmlns="http://www.w3.org/2000/svg" width="200" height="200" viewBox="0 0 200 200" version="1.1">
	<path d="M 76.529 14.805 C 75.131 16.202, 77.163 17.226, 92.736 22.968 C 101.942 26.362, 109.631 29.298, 109.824 29.491 C 110.018 29.684, 104.810 33.438, 98.251 37.832 L 86.326 45.821 84.010 62.425 C 82.737 71.557, 81.529 78.862, 81.325 78.659 C 81.122 78.456, 80.178 75.862, 79.228 72.895 L 77.500 67.500 67.328 67.216 C 58.286 66.963, 57.098 67.130, 56.633 68.716 C 56.344 69.697, 53.593 88.050, 50.519 109.500 C 47.445 130.950, 44.608 149.267, 44.215 150.205 C 43.822 151.142, 39 155.712, 33.500 160.360 C 26.240 166.496, 23.430 168.358, 23.245 167.156 C 23.104 166.245, 24.484 148.850, 26.310 128.500 L 29.631 91.500 38.016 69.358 L 46.401 47.216 51.951 45.704 C 55.003 44.872, 66.388 41.826, 77.250 38.935 C 91.069 35.258, 97 33.257, 97 32.272 C 97 31.406, 96.327 31.060, 95.250 31.372 C 94.287 31.650, 84.725 34.190, 74 37.016 C 63.275 39.842, 52.199 42.808, 49.388 43.608 L 44.275 45.062 35.593 67.981 L 26.912 90.900 23.180 132.950 C 21.128 156.077, 19.640 175, 19.875 175 C 20.229 175, 41.729 157.189, 45.718 153.591 C 46.582 152.811, 59 75.024, 59 70.388 C 59 70.175, 62.756 70, 67.346 70 L 75.692 70 77.878 77.524 L 80.064 85.049 65.532 107.434 C 57.539 119.745, 51 130.272, 51 130.825 C 51 131.379, 54.162 136.813, 58.026 142.901 C 61.890 148.990, 65.277 154.558, 65.553 155.276 C 65.828 155.994, 62.891 160.804, 59.027 165.964 C 55.162 171.125, 52 175.625, 52 175.965 C 52 176.304, 68.088 178.732, 87.750 181.359 L 123.500 186.136 157.492 178.288 C 182.630 172.483, 191.560 170.046, 191.775 168.930 C 192.020 167.660, 186.516 166.880, 156.911 163.991 L 121.757 160.561 118.379 155.544 C 116.520 152.784, 115 150.142, 115 149.671 C 115 148.640, 131.269 126.066, 132.040 126.027 C 132.337 126.012, 141.225 132.992, 151.790 141.537 C 162.356 150.082, 171 156.720, 170.999 156.287 C 170.999 155.854, 169.470 147.602, 167.601 137.949 L 164.204 120.397 166.067 101.949 C 167.092 91.802, 167.946 82.725, 167.965 81.778 C 167.996 80.245, 166.510 80.026, 154.420 79.778 L 140.841 79.500 137.920 72.651 C 136.314 68.884, 135 65.583, 135 65.316 C 135 65.048, 137.158 66.414, 139.797 68.351 L 144.593 71.872 163.797 60.704 C 174.358 54.561, 182.991 49.302, 182.980 49.018 C 182.969 48.733, 177.006 45.172, 169.730 41.104 C 162.453 37.036, 150.123 30.136, 142.328 25.770 L 128.156 17.833 120.807 22.793 L 113.457 27.753 95.257 21.015 C 85.247 17.308, 76.819 14.514, 76.529 14.805 M 122.592 24.939 C 119.418 27.047, 117.199 28.981, 117.660 29.237 C 118.122 29.493, 127.609 33.032, 138.743 37.102 C 161.596 45.454, 164.522 47.732, 151 46.644 C 146.600 46.290, 139.400 45.710, 135 45.356 C 129.207 44.890, 127 45.034, 127 45.878 C 127 46.519, 128.297 49.904, 129.882 53.401 C 132.156 58.415, 133.940 60.645, 138.333 63.962 C 141.395 66.274, 144.555 68.016, 145.354 67.833 C 146.153 67.650, 153.809 63.450, 162.366 58.500 C 176.073 50.571, 177.721 49.346, 176.213 48.204 C 174.984 47.274, 139.571 27.210, 128.932 21.416 C 128.619 21.246, 125.766 22.831, 122.592 24.939 M 101.993 38.625 C 95.672 42.819, 90.126 46.591, 89.669 47.007 C 88.917 47.690, 78 120.840, 78 125.192 C 78 126.763, 79.264 126.385, 87 122.500 C 93.218 119.377, 95.990 117.442, 95.968 116.240 C 95.951 115.283, 95.285 110, 94.488 104.500 C 92.711 92.234, 92.718 93, 94.375 93 C 95.204 93, 97.253 97.062, 99.544 103.250 C 101.632 108.888, 103.440 113.640, 103.563 113.810 C 103.686 113.981, 110.129 110.943, 117.880 107.060 C 131.365 100.305, 132.279 100, 139.054 100 C 147.142 100, 146.882 100.906, 142.073 89.498 L 139.123 82.500 125.570 82 L 112.017 81.500 118.676 67.767 C 124.070 56.642, 125.594 54.248, 126.699 55.166 C 128.221 56.428, 127.958 55.572, 124.071 46.608 C 122.904 43.918, 122.074 41.621, 122.225 41.504 C 122.376 41.388, 126.550 41.695, 131.500 42.188 C 146.936 43.725, 146.711 42.947, 129.925 36.750 C 121.359 33.587, 114.156 31, 113.918 31 C 113.681 31, 108.315 34.431, 101.993 38.625 M 121.689 67.713 C 119.108 73.096, 116.998 77.838, 116.998 78.250 C 116.999 78.662, 121.500 79, 127 79 C 132.500 79, 137 78.654, 137 78.231 C 137 76.100, 130.514 62.202, 128.592 60.213 L 126.381 57.926 121.689 67.713 M 142 82.185 C 142 82.444, 143.822 86.855, 146.048 91.989 C 149.191 99.236, 149.806 101.506, 148.798 102.146 C 148.084 102.599, 144.006 102.976, 139.736 102.985 C 132.179 103, 131.617 103.177, 118.736 109.614 C 111.456 113.251, 105.329 116.385, 105.120 116.577 C 104.557 117.095, 114.352 143, 115.109 143 C 115.465 143, 119.023 138.613, 123.016 133.250 C 127.009 127.888, 130.621 123.115, 131.043 122.645 C 131.465 122.175, 139.587 128.128, 149.093 135.874 C 158.598 143.620, 166.505 149.829, 166.663 149.670 C 166.821 149.512, 165.743 142.939, 164.267 135.062 L 161.584 120.742 163.276 102.188 C 164.206 91.983, 164.856 83.522, 164.719 83.386 C 164.232 82.899, 142 81.724, 142 82.185 M 66.944 110.205 C 60.100 120.737, 54.384 129.838, 54.242 130.428 C 54.101 131.017, 57.550 137.105, 61.908 143.955 L 69.830 156.410 63.415 164.721 C 59.887 169.292, 57 173.378, 57 173.801 C 57 174.224, 71.786 176.541, 89.859 178.951 L 122.717 183.332 152.093 176.598 C 168.250 172.895, 181.663 169.670, 181.901 169.432 C 182.139 169.194, 181.505 169, 180.492 169 C 178.147 169, 119.587 162.949, 119.443 162.692 C 119.383 162.586, 114.309 154.421, 108.167 144.547 C 100.885 132.840, 97 125.621, 97 123.797 C 97 122.259, 96.768 121, 96.483 121 C 96.199 121, 91.001 123.490, 84.932 126.534 L 73.897 132.069 74.469 128.784 C 75.742 121.482, 79.872 91.539, 79.639 91.305 C 79.501 91.167, 73.788 99.672, 66.944 110.205 M 98.086 110.500 C 98.029 113.597, 99.465 116.868, 100.450 115.884 C 100.757 115.577, 100.363 113.565, 99.574 111.413 C 98.171 107.583, 98.140 107.563, 98.086 110.500 M 100.222 118.718 C 97.866 119.580, 100.064 126.208, 105.848 135.689 C 108.932 140.743, 111.584 144.749, 111.743 144.591 C 112.115 144.219, 102.941 119.700, 102.121 118.875 C 101.779 118.531, 100.925 118.460, 100.222 118.718" stroke="none" fill="black" fill-rule="evenodd"/>
</svg>