<svg xmlns="http://www.w3.org/2000/svg" width="200" height="200" viewBox="0 0 200 200" version="1.1">
	<path d="M 108.731 17.714 C 103.834 21.640, 102.148 22.406, 97.577 22.785 L 92.192 23.232 91.554 27.488 C 90.973 31.364, 90.169 32.336, 82.544 38.378 L 74.173 45.012 51.477 51.006 C 38.994 54.303, 28.599 57, 28.378 57 C 28.157 57, 28.094 73.950, 28.238 94.667 C 28.440 123.723, 28.786 132.429, 29.750 132.750 C 30.735 133.078, 31 125.305, 31 96.083 C 31 75.688, 31.229 59, 31.509 59 C 33.501 59, 74.855 47.588, 76.207 46.665 C 77.146 46.024, 80.696 43.283, 84.097 40.574 L 90.280 35.647 89.568 40.574 C 88.148 50.401, 88.314 50.170, 83.235 49.408 C 80.746 49.035, 78.079 48.678, 77.309 48.615 C 76.421 48.542, 71.672 57.462, 64.328 73 L 52.747 97.500 43.577 133.848 C 36.681 161.184, 34.138 169.862, 33.319 168.848 C 32.721 168.107, 30.545 164.132, 28.485 160.015 C 23.459 149.974, 21.898 147.702, 20.787 148.813 C 20.014 149.586, 32.480 174.777, 34.844 177.220 C 35.227 177.616, 39.990 160.066, 45.429 138.220 L 55.317 98.500 66.187 75.522 C 72.165 62.884, 77.381 52.245, 77.778 51.879 C 78.777 50.959, 85 52.023, 85 53.113 C 85 53.601, 84.100 54, 83 54 C 79.773 54, 80.630 56.976, 84.055 57.661 C 86.177 58.085, 86.940 58.714, 86.555 59.718 C 86.250 60.513, 86 62.252, 86 63.582 C 86 67.037, 84.741 66.560, 83 62.446 L 81.500 58.902 73.250 74.808 C 68.713 83.556, 65 90.947, 65 91.232 C 65 91.517, 68.588 92.787, 72.974 94.054 C 80.019 96.089, 80.893 96.599, 80.477 98.429 C 80.217 99.568, 78.868 107.673, 77.479 116.440 C 76.089 125.208, 74.774 132.559, 74.556 132.777 C 74.338 132.995, 69.062 133.825, 62.830 134.621 C 56.599 135.417, 51.123 136.179, 50.663 136.313 C 50.203 136.448, 57.509 143.729, 66.899 152.493 C 76.289 161.258, 83.640 168.738, 83.236 169.116 C 82.831 169.495, 75.075 171.447, 66 173.455 C 35.909 180.115, 36 180.090, 36 181.580 C 36 183.762, 183.514 183.710, 184.351 181.527 C 185.009 179.813, 185.250 179.884, 158.500 173.892 C 148.050 171.551, 139.132 169.327, 138.683 168.950 C 138.233 168.574, 144.196 162.485, 151.933 155.420 C 159.670 148.354, 166 142.302, 166 141.970 C 166 140.411, 116.490 109.169, 115.541 110.130 C 115.340 110.333, 113.473 121.874, 111.392 135.776 C 109.311 149.678, 107.304 160.478, 106.932 159.776 C 106.559 159.074, 105.686 149.050, 104.992 137.500 C 103.931 119.846, 103.341 115.410, 101.287 109.662 C 99.943 105.901, 99.011 102.655, 99.217 102.450 C 99.422 102.244, 108.552 104.765, 119.504 108.051 C 138.514 113.755, 139.497 113.947, 141.163 112.263 C 142.123 111.293, 148.296 104.200, 154.881 96.500 L 166.854 82.500 162.177 82.212 C 159.605 82.054, 147.917 81.604, 136.204 81.212 L 114.909 80.500 125.531 71.250 C 131.373 66.163, 135.593 62, 134.910 62 C 134.226 62, 133.911 61.756, 134.209 61.458 C 134.507 61.159, 138.819 61.660, 143.790 62.569 L 152.829 64.223 167.165 59.477 C 175.049 56.866, 181.870 54.520, 182.322 54.262 C 182.773 54.004, 172.873 46.149, 160.322 36.805 L 137.500 19.817 128.921 20.385 L 120.342 20.954 118.107 16.977 C 116.878 14.790, 115.563 13.020, 115.186 13.045 C 114.809 13.069, 111.904 15.170, 108.731 17.714 M 111.045 19.467 L 107.611 22 110.556 21.930 C 112.175 21.891, 114.299 21.543, 115.277 21.157 C 116.778 20.564, 116.854 20.183, 115.766 18.694 C 114.556 17.040, 114.272 17.086, 111.045 19.467 M 123.496 24.007 C 123.043 24.739, 130.006 37.775, 133.516 42.770 C 133.621 42.918, 136.752 42.333, 140.474 41.470 C 144.197 40.606, 147.857 40.035, 148.609 40.200 C 149.455 40.386, 147.556 43.164, 143.622 47.496 L 137.269 54.491 135.139 50.996 C 133.967 49.073, 132.894 47.170, 132.754 46.766 C 132.614 46.362, 125.874 47.461, 117.776 49.209 C 109.679 50.956, 103.156 52.489, 103.282 52.615 C 103.408 52.741, 114.524 54.741, 127.986 57.059 L 152.460 61.274 162.480 58.004 C 167.991 56.205, 173.585 54.326, 174.912 53.830 C 177.133 52.998, 175.733 51.743, 157.215 37.963 L 137.105 23 130.612 23 C 127.040 23, 123.838 23.453, 123.496 24.007 M 107.500 24.878 C 105.119 25.248, 101.421 27.070, 98.362 29.380 C 93.645 32.942, 93.169 33.681, 92.564 38.380 C 92.201 41.196, 91.643 45.188, 91.324 47.250 C 90.761 50.892, 90.832 51, 93.801 51 C 95.483 51, 104.059 49.425, 112.861 47.500 C 121.662 45.575, 129.119 44, 129.432 44 C 130.837 44, 129.473 40.889, 124.609 33 C 119.518 24.741, 119.257 24.497, 115.434 24.378 C 113.270 24.310, 109.700 24.535, 107.500 24.878 M 94.459 27.067 C 93.399 28.782, 94.348 28.950, 96.443 27.418 C 98.065 26.232, 98.115 26, 96.750 26 C 95.852 26, 94.821 26.480, 94.459 27.067 M 137.821 44.868 C 135.385 45.443, 135.253 45.705, 136.366 47.769 L 137.590 50.037 140.482 47.019 C 143.417 43.955, 143.027 43.641, 137.821 44.868 M 92.041 54.888 C 90.434 55.334, 95.459 56.345, 106.541 57.804 C 127.852 60.610, 130.220 60.489, 113.500 57.448 C 95.724 54.215, 94.841 54.110, 92.041 54.888 M 89.466 59.439 C 89.286 60.023, 88.682 63.200, 88.122 66.500 C 87.125 72.373, 87.209 72.774, 92.102 85.500 L 97.101 98.500 117.300 104.500 C 128.410 107.800, 137.893 110.500, 138.373 110.500 C 138.853 110.500, 144.090 104.875, 150.010 98 L 160.775 85.500 155.138 84.859 C 152.037 84.506, 142.075 84.142, 133 84.051 C 123.925 83.960, 114.721 83.569, 112.546 83.183 L 108.593 82.481 118.799 73.577 C 124.413 68.679, 128.746 64.408, 128.429 64.086 C 127.200 62.835, 89.793 58.374, 89.466 59.439 M 128.269 60.693 C 129.242 60.947, 130.592 60.930, 131.269 60.656 C 131.946 60.382, 131.150 60.175, 129.500 60.195 C 127.850 60.215, 127.296 60.439, 128.269 60.693 M 75.149 77.220 C 71.767 83.560, 69 89.017, 69 89.346 C 69 89.675, 71.531 90.680, 74.625 91.579 C 78.933 92.832, 80.424 92.933, 80.994 92.010 C 81.403 91.348, 82.307 86.831, 83.004 81.973 C 84.087 74.414, 84.056 72.603, 82.784 69.416 L 81.299 65.691 75.149 77.220 M 85.149 85.925 C 84.517 89.753, 84 93.306, 84 93.821 C 84 94.758, 92.099 97.234, 92.817 96.517 C 93.141 96.192, 87.270 79.999, 86.550 79.233 C 86.412 79.086, 85.782 82.097, 85.149 85.925 M 80.473 115.587 C 78.912 125.700, 77.379 134.387, 77.067 134.891 C 76.755 135.394, 72 136.342, 66.500 136.996 C 61 137.650, 56.387 138.294, 56.249 138.427 C 56.110 138.561, 63.642 145.800, 72.985 154.515 C 82.328 163.230, 89.817 170.516, 89.627 170.706 C 89.437 170.896, 80.556 173.031, 69.891 175.451 L 50.500 179.849 111 179.846 L 171.500 179.842 152.020 175.358 C 141.306 172.891, 132.339 170.672, 132.093 170.426 C 131.847 170.180, 132.360 169.421, 133.232 168.740 C 136.779 165.967, 161.999 142.558, 161.988 142.049 C 161.981 141.747, 160.293 140.401, 158.238 139.057 C 150.066 133.717, 117.695 113.978, 117.524 114.230 C 117.423 114.379, 116.104 122.825, 114.593 133 C 108.654 172.971, 107.749 178, 106.496 178 C 105.054 178, 104.667 174.398, 102.469 140.500 C 101.105 119.483, 100.590 115.630, 98.325 109.500 C 96.902 105.650, 95.234 101.976, 94.619 101.336 C 94.003 100.695, 91.208 99.503, 88.406 98.686 L 83.312 97.201 80.473 115.587" stroke="none" fill="black" fill-rule="evenodd"/>
</svg>