<svg xmlns="http://www.w3.org/2000/svg" width="200" height="200" viewBox="0 0 200 200" version="1.1">
	<path d="M 59.723 12.611 C 59.325 13.008, 59 14.581, 59 16.105 C 59 19.256, 59.318 19.175, 39.500 21.064 C 33.450 21.641, 28.218 22.425, 27.873 22.806 C 27.528 23.188, 24.505 35.927, 21.155 51.116 L 15.064 78.733 26.102 104.053 L 37.140 129.373 27.070 150.099 C 21.531 161.498, 17 171.225, 17 171.714 C 17 172.202, 29.487 171.346, 44.750 169.812 C 67.956 167.478, 117.467 163, 120.067 163 C 120.479 163, 119.961 165.813, 118.916 169.250 C 117.871 172.688, 117.012 175.778, 117.008 176.117 C 117.003 176.456, 124.988 177.031, 134.750 177.394 C 144.512 177.758, 155.875 178.310, 160 178.621 L 167.500 179.188 176.214 161.659 L 184.927 144.131 181.123 126.558 C 179.031 116.893, 177.135 108.826, 176.910 108.630 C 176.684 108.435, 172 105.465, 166.500 102.030 C 161 98.595, 156.360 95.656, 156.189 95.498 C 156.017 95.340, 160.180 88.174, 165.439 79.575 C 170.697 70.975, 175 63.695, 175 63.396 C 175 62.864, 161.089 38.705, 158.208 34.233 C 157.015 32.381, 157 32.058, 158.124 32.466 C 158.881 32.741, 165.262 34.732, 172.305 36.890 C 182.515 40.019, 185.049 40.502, 184.805 39.275 C 184.598 38.231, 173.563 33.883, 150.500 25.757 L 116.500 13.778 91.500 15.966 C 77.750 17.169, 65.713 18.374, 64.750 18.644 C 63.531 18.986, 63 18.566, 63 17.259 C 63 14.912, 60.693 11.640, 59.723 12.611 M 84.200 19.283 C 70.553 20.638, 64.038 21.659, 64.321 22.399 C 64.552 23.005, 66.651 30.475, 68.985 39 C 71.319 47.525, 73.378 54.664, 73.562 54.864 C 74.166 55.524, 80.973 50.877, 82.412 48.822 C 83.188 47.715, 90.199 40.102, 97.992 31.904 L 112.161 17 108.331 17.134 C 106.224 17.208, 95.365 18.175, 84.200 19.283 M 103 30.273 C 91.371 42.517, 91.455 42.629, 104.847 32.753 C 109.988 28.962, 114.355 26.022, 114.552 26.219 C 114.749 26.416, 116.735 34.435, 118.965 44.039 C 121.194 53.642, 123.358 62.312, 123.774 63.305 C 124.383 64.761, 127.105 61.891, 137.860 48.450 C 145.192 39.288, 150.810 31.444, 150.345 31.020 C 149.296 30.064, 115.875 18.959, 114.499 19.109 C 113.950 19.169, 108.775 24.193, 103 30.273 M 41.781 23.403 C 35.886 24.027, 30.670 24.979, 30.190 25.519 C 29.710 26.058, 26.753 38.200, 23.618 52.500 L 17.918 78.500 20.623 84.750 C 22.110 88.188, 23.638 91, 24.018 91 C 24.398 91, 28.192 84.362, 32.450 76.250 C 36.708 68.138, 40.533 61.138, 40.950 60.696 C 41.367 60.253, 43.564 62.851, 45.832 66.468 C 49.673 72.594, 50.100 72.957, 52.069 71.772 C 54.082 70.560, 54.150 69.992, 53.507 59.750 C 52.943 50.775, 53.068 49, 54.263 49 C 55.050 49, 56.183 50.013, 56.780 51.250 C 57.628 53.010, 57.882 50.885, 57.943 41.500 C 57.987 34.900, 58.301 27.813, 58.642 25.750 C 59.259 22.016, 59.248 22.001, 55.881 22.135 C 54.021 22.209, 47.677 22.780, 41.781 23.403 M 61 33.180 C 61 38.962, 60.748 47.699, 60.439 52.596 C 59.713 64.124, 60.464 65.336, 65.969 61.522 C 68.234 59.952, 70.324 58.285, 70.613 57.817 C 71.104 57.023, 62.390 24.057, 61.437 23.104 C 61.197 22.863, 61 27.398, 61 33.180 M 100.192 39.534 C 93.423 44.584, 87.439 49.161, 86.896 49.704 C 86.245 50.355, 88.121 59.536, 92.389 76.596 L 98.871 102.500 88.059 91 L 77.247 79.500 74.984 70.723 C 73.739 65.895, 72.389 61.741, 71.985 61.491 C 71.039 60.906, 63 66.704, 63 67.971 C 63 69.128, 84.446 130.081, 88.983 141.818 C 90.751 146.393, 91.964 150.369, 91.679 150.654 C 91.394 150.939, 82.958 148.134, 72.932 144.420 L 54.703 137.668 55.314 121.584 C 56.121 100.305, 54.960 86.289, 51.991 81.486 C 50.612 79.255, 49.227 78.083, 48.362 78.415 C 47.592 78.710, 42.059 82.571, 36.067 86.995 L 25.173 95.038 32.652 112.269 L 40.131 129.500 30.633 149 C 22.450 165.801, 21.390 168.543, 22.976 168.808 C 23.988 168.977, 38.470 167.756, 55.158 166.096 C 71.846 164.435, 92.025 162.584, 100 161.982 C 107.975 161.380, 115.565 160.666, 116.867 160.395 L 119.233 159.903 118.489 118.219 L 117.745 76.535 128.872 90.209 C 134.993 97.730, 139.987 104.472, 139.970 105.192 C 139.954 105.911, 135.540 121.645, 130.161 140.156 L 120.382 173.812 129.941 174.388 C 135.198 174.705, 145.435 175.246, 152.690 175.590 L 165.880 176.216 173.984 160.032 L 182.088 143.848 178.433 127.091 L 174.778 110.334 163.889 103.566 C 157.900 99.843, 153 96.342, 153 95.785 C 153 95.229, 157.302 87.700, 162.559 79.056 L 172.118 63.338 163.309 48.184 C 158.464 39.850, 154.195 33.136, 153.823 33.265 C 153.450 33.394, 146.523 41.825, 138.430 52 C 130.336 62.175, 123.433 70.615, 123.088 70.756 C 122.744 70.897, 120.502 62.572, 118.105 52.256 C 115.709 41.940, 113.467 32.792, 113.124 31.926 C 112.632 30.685, 109.890 32.298, 100.192 39.534 M 79.240 55.055 C 76.908 56.770, 75 58.700, 75 59.344 C 75 59.987, 76.078 64.431, 77.395 69.218 C 79.596 77.219, 80.337 78.532, 86.563 85.461 C 90.289 89.608, 93.434 93, 93.553 93 C 93.717 93, 84.835 56.678, 83.703 52.719 C 83.580 52.289, 81.571 53.340, 79.240 55.055 M 56.252 62.500 C 56.263 64.700, 56.468 65.482, 56.707 64.238 C 56.946 62.994, 56.937 61.194, 56.687 60.238 C 56.437 59.282, 56.241 60.300, 56.252 62.500 M 35.645 76.062 C 32.425 82.146, 29.952 87.286, 30.151 87.485 C 30.350 87.683, 34.424 84.925, 39.205 81.354 L 47.897 74.863 44.863 69.931 C 43.194 67.219, 41.755 65, 41.664 65.001 C 41.574 65.001, 38.865 69.979, 35.645 76.062 M 59.728 78.020 C 58.982 88.847, 58.519 105.865, 58.509 122.858 L 58.500 136.216 73 141.589 C 80.975 144.544, 87.609 146.970, 87.741 146.981 C 87.874 146.991, 86.826 143.963, 85.411 140.250 C 83.396 134.961, 69.670 96.321, 61.528 73.020 C 60.354 69.657, 60.293 69.827, 59.728 78.020 M 52.505 74.992 C 52.168 75.538, 52.352 76.775, 52.915 77.742 C 53.794 79.250, 53.944 79.109, 53.970 76.750 C 54.001 73.874, 53.539 73.319, 52.505 74.992 M 121.003 100.661 C 121.004 109.373, 121.302 125.664, 121.665 136.865 L 122.325 157.230 129.659 131.865 C 133.693 117.914, 136.992 106.050, 136.989 105.500 C 136.987 104.950, 133.388 100.073, 128.992 94.661 L 121 84.823 121.003 100.661" stroke="none" fill="black" fill-rule="evenodd"/>
</svg>