<svg xmlns="http://www.w3.org/2000/svg" width="200" height="200" viewBox="0 0 200 200" version="1.1">
	<path d="M 124.500 18.544 C 72.042 25.804, 71.272 25.880, 49.183 25.940 C 27.251 25.999, 26.876 26.035, 27.507 28.022 C 27.860 29.135, 32.816 41.169, 38.521 54.765 C 48.607 78.803, 48.844 79.540, 47.097 81.492 C 38.442 91.169, 17.976 115.309, 18.220 115.553 C 18.390 115.724, 27.748 119.100, 39.015 123.056 C 50.282 127.012, 59.638 130.368, 59.806 130.514 C 59.974 130.659, 60.814 135.005, 61.673 140.171 L 63.235 149.563 55.119 161.449 C 50.655 167.987, 47.121 173.454, 47.265 173.599 C 47.410 173.743, 63.062 169.985, 82.047 165.247 L 116.565 156.632 137.249 173.816 C 148.626 183.267, 158.286 190.997, 158.717 190.993 C 159.494 190.987, 183 117.430, 183 115.004 C 183 113.302, 169.951 71.688, 169.139 70.799 C 168.787 70.414, 166.711 70.501, 164.527 70.994 C 162.343 71.486, 160.381 71.714, 160.167 71.500 C 159.953 71.286, 165.069 65.212, 171.536 58.002 C 179.724 48.874, 182.976 44.576, 182.247 43.847 C 181.519 43.119, 174.263 45.905, 158.351 53.023 L 135.501 63.245 120 62.529 C 111.475 62.136, 104.295 61.613, 104.045 61.369 C 103.795 61.124, 107.395 57.135, 112.045 52.505 L 120.500 44.086 134.287 48.206 C 143.769 51.039, 148.397 52.003, 149.107 51.293 C 149.817 50.583, 146.761 47.240, 139.320 40.590 L 128.500 30.920 123.991 35.971 L 119.482 41.023 110.526 38.367 C 101.794 35.777, 101.493 35.755, 98.535 37.484 C 95.675 39.156, 63.892 50.248, 63.423 49.738 C 63.303 49.607, 62.885 45.179, 62.495 39.898 C 61.845 31.111, 61.942 30.230, 63.642 29.505 C 65.192 28.844, 116.274 27.382, 148.250 27.082 C 155.062 27.018, 157 26.689, 157 25.594 C 157 24.410, 152.541 24.250, 128.750 24.580 L 100.500 24.972 142 19.073 C 164.825 15.829, 183.639 13.136, 183.809 13.088 C 183.979 13.039, 183.840 12.550, 183.500 12 C 182.587 10.522, 181.955 10.592, 124.500 18.544 M 37.661 28.744 C 32.849 28.991, 30.962 29.452, 31.294 30.298 C 31.553 30.959, 36.326 42.428, 41.900 55.784 L 52.035 80.068 37.518 96.770 C 29.533 105.956, 23 113.718, 23 114.020 C 23 114.321, 31.212 117.419, 41.250 120.904 C 51.287 124.388, 60.218 127.614, 61.096 128.072 C 62.207 128.653, 63.219 132.117, 64.429 139.491 L 66.166 150.077 59.983 159.105 C 56.582 164.070, 54.012 168.345, 54.271 168.605 C 54.531 168.864, 68.290 165.684, 84.847 161.538 C 101.404 157.392, 115.528 154, 116.234 154 C 116.939 154, 126.488 161.413, 137.452 170.473 C 148.417 179.533, 157.528 186.806, 157.699 186.634 C 158.386 185.947, 180 116.529, 180 115.011 C 180 113.564, 168.330 75.428, 167.416 73.889 C 167.217 73.552, 164.679 73.712, 161.777 74.244 C 157.906 74.952, 155.713 76.047, 153.545 78.350 C 151.006 81.048, 150.839 81.538, 152.359 81.831 C 154.008 82.148, 154.088 83.642, 153.539 103.836 C 153.215 115.751, 152.689 131.038, 152.371 137.807 L 151.792 150.113 149.146 149.589 C 147.691 149.300, 138.175 147.910, 128 146.500 C 104.770 143.280, 104 143.121, 104 141.536 C 104 140.674, 109.464 138.935, 120.079 136.419 C 134.881 132.911, 136.123 132.446, 135.714 130.554 C 135.470 129.424, 134.217 123.213, 132.929 116.750 C 131.642 110.287, 130.343 105.012, 130.044 105.026 C 129.745 105.040, 126.800 108.190, 123.500 112.025 L 117.500 118.998 103.743 118.999 C 91.242 119, 88.788 118.684, 76.865 115.539 C 69.649 113.635, 63.574 111.907, 63.366 111.699 C 63.158 111.491, 66.473 108.566, 70.734 105.199 L 78.481 99.077 97.991 94.448 C 122.180 88.710, 124.066 88.201, 121.500 88.107 C 120.400 88.067, 109.825 89.144, 98 90.500 C 86.175 91.856, 74.935 92.974, 73.022 92.983 L 69.544 93 77.857 84.644 L 86.170 76.288 77.063 68.499 C 72.054 64.215, 68.078 60.628, 68.228 60.527 C 68.378 60.426, 75.475 60.675, 84 61.079 L 99.500 61.814 108.129 52.657 C 113.177 47.300, 116.290 43.259, 115.629 42.919 C 115.008 42.599, 111.659 41.507, 108.186 40.491 C 102.129 38.720, 101.750 38.717, 98.871 40.417 C 97.220 41.392, 88.066 44.800, 78.527 47.991 L 61.184 53.792 60.649 50.646 C 60.356 48.916, 59.811 43.112, 59.439 37.750 L 58.762 28 51.631 28.196 C 47.709 28.304, 41.423 28.550, 37.661 28.744 M 125.118 38.378 L 121.934 41.664 126.217 42.960 C 128.573 43.674, 133.425 45.099, 137 46.127 L 143.500 47.997 137.500 42.495 C 128.826 34.540, 128.835 34.543, 125.118 38.378 M 156 57.060 L 136.500 65.926 118.500 65.355 L 100.500 64.783 95.144 70.281 L 89.787 75.778 93.644 79.368 C 95.765 81.342, 98.220 83.201, 99.099 83.498 C 101.879 84.438, 154.298 73.154, 156.131 71.220 C 164.609 62.280, 177.078 47.583, 175.750 48.097 C 175.613 48.150, 166.725 52.183, 156 57.060 M 77.444 64.909 C 77.753 65.410, 80.180 67.639, 82.836 69.863 L 87.667 73.907 92.546 68.954 L 97.425 64 87.153 64 C 81.242 64, 77.121 64.386, 77.444 64.909 M 124 82.032 C 111.625 84.665, 102.625 86.832, 104 86.847 C 105.375 86.862, 115.381 85.886, 126.236 84.678 C 145.049 82.585, 146.100 82.354, 148.713 79.741 L 151.455 77 148.977 77.122 C 147.615 77.189, 136.375 79.399, 124 82.032 M 82 84.250 L 76.500 90.275 80 89.684 C 81.925 89.359, 87.183 88.792, 91.684 88.423 L 99.868 87.753 95.021 83.922 C 92.355 81.815, 89.884 79.621, 89.528 79.046 C 88.507 77.394, 87.837 77.857, 82 84.250 M 140.203 93.250 C 136.242 97.787, 133.002 102.065, 133.001 102.755 C 133 103.446, 134.350 110.379, 136 118.163 C 137.650 125.947, 139 132.885, 139 133.582 C 139 134.377, 134.636 135.851, 127.250 137.550 C 120.787 139.037, 114.922 140.561, 114.215 140.936 C 113.508 141.311, 120.933 142.759, 130.715 144.153 C 140.497 145.547, 148.782 146.421, 149.127 146.094 C 149.471 145.767, 150.059 131.887, 150.432 115.250 C 151.235 79.415, 151.598 80.195, 140.203 93.250 M 132.675 86.724 C 129.957 87.131, 129.875 87.307, 130.537 91.324 C 131.702 98.395, 132.170 98.438, 137.844 91.992 L 143.118 86 139.309 86.150 C 137.214 86.232, 134.229 86.490, 132.675 86.724 M 125.500 90.622 C 124.950 90.827, 114.315 93.400, 101.866 96.340 C 79.711 101.573, 79.123 101.777, 74.110 106.004 C 71.294 108.379, 69.106 110.439, 69.248 110.581 C 69.390 110.724, 74.005 111.967, 79.503 113.344 C 86.036 114.980, 94.005 116.086, 102.500 116.535 L 115.500 117.223 122.624 109.091 L 129.749 100.959 128.769 96.229 C 127.716 91.147, 127.069 90.038, 125.500 90.622" stroke="none" fill="black" fill-rule="evenodd"/>
</svg>