<svg xmlns="http://www.w3.org/2000/svg" width="200" height="200" viewBox="0 0 200 200" version="1.1">
	<path d="M 39.671 13.750 C 38.805 15.203, 27.831 52.164, 28.166 52.500 C 28.353 52.686, 33.003 48.862, 38.500 44 C 43.997 39.138, 48.598 35.264, 48.724 35.391 C 48.850 35.517, 44.464 45.784, 38.977 58.206 L 29 80.792 29.039 93.146 L 29.079 105.500 46.512 126 C 61.769 143.941, 64.027 147.044, 64.602 150.858 L 65.259 155.215 50.880 169.666 C 40.466 180.130, 37.190 183.964, 39 183.566 C 40.375 183.263, 60.334 180.057, 83.353 176.442 L 125.206 169.869 146.353 170.837 C 157.984 171.370, 167.708 171.604, 167.962 171.358 C 168.216 171.112, 164.906 160.243, 160.607 147.205 L 152.790 123.500 164.006 103.174 L 175.222 82.849 165.691 60.924 C 160.449 48.866, 156.337 39, 156.552 39 C 156.767 39, 159.500 40.131, 162.625 41.513 C 165.750 42.895, 168.409 43.908, 168.533 43.763 C 168.837 43.408, 155.131 18.736, 153.999 17.601 C 153.469 17.070, 152.115 17.350, 150.686 18.286 C 149.279 19.208, 147.899 19.499, 147.382 18.982 C 146.865 18.465, 144.289 19.812, 141.213 22.209 L 135.932 26.324 124.942 21.519 C 118.897 18.877, 113.808 16.892, 113.632 17.108 C 113.456 17.323, 112.054 23.575, 110.516 31 C 108.979 38.425, 107.192 45.075, 106.546 45.778 C 105.612 46.795, 103.350 45.472, 95.478 39.304 L 85.583 31.552 89.291 30.140 C 91.331 29.364, 93 28.115, 93 27.364 C 93 26.614, 92.815 26, 92.589 26 C 91.336 26, 81.008 30.376, 81.049 30.889 C 81.076 31.225, 86.032 35.395, 92.062 40.156 L 103.026 48.812 97.763 52.049 C 94.868 53.829, 91.582 55.886, 90.460 56.620 C 88.500 57.902, 88.066 57.124, 79.490 36.978 C 74.164 24.463, 70.018 16, 69.213 16 C 67.470 16, 67.407 15.821, 77.468 39.454 C 82.134 50.414, 85.850 59.468, 85.726 59.574 C 85.602 59.679, 82.247 61.859, 78.271 64.417 C 71.301 68.903, 70.524 69.148, 56.521 71.268 C 47.436 72.643, 42 73.900, 42 74.626 C 42 76.088, 44.261 76.972, 48.332 77.100 C 50.074 77.155, 52.595 77.505, 53.933 77.879 C 56.111 78.487, 55.353 79.186, 46.718 84.529 C 41.412 87.813, 37.212 90.950, 37.385 91.500 C 37.579 92.113, 42.124 92.385, 49.138 92.202 L 60.576 91.905 72.038 104.940 C 78.342 112.110, 85.822 119.583, 88.660 121.548 L 93.820 125.119 102.491 122.474 C 107.260 121.020, 111.304 119.980, 111.477 120.165 C 111.651 120.349, 115.728 129.837, 120.539 141.250 C 126.275 154.857, 129.791 162, 130.754 162 C 131.860 162, 132.083 161.197, 131.659 158.750 C 131.348 156.963, 129.662 146.050, 127.910 134.500 C 126.159 122.950, 124.607 113.357, 124.462 113.182 C 124.316 113.007, 121.815 113.571, 118.903 114.436 C 115.991 115.301, 113.266 115.666, 112.848 115.248 C 111.944 114.344, 105.868 99.797, 106.241 99.430 C 106.384 99.291, 113.553 99.939, 122.174 100.870 C 132.220 101.955, 137.631 102.193, 137.244 101.532 C 136.911 100.964, 133.936 97.170, 130.633 93.100 L 124.626 85.699 130.813 86.399 C 134.216 86.784, 137 86.790, 137 86.412 C 137 86.033, 132.223 76.686, 126.384 65.641 L 115.768 45.557 119.134 42.713 C 120.985 41.148, 125.780 37.662, 129.789 34.964 L 137.078 30.060 142.789 32.618 C 145.930 34.025, 149.400 35.550, 150.500 36.006 C 151.909 36.591, 155.406 43.623, 162.338 59.819 L 172.177 82.803 160.949 103.151 L 149.722 123.500 157.275 146.250 C 161.758 159.752, 164.355 168.986, 163.664 168.966 C 163.024 168.947, 154.175 168.511, 144 167.997 L 125.500 167.062 87.500 173.046 C 66.600 176.338, 48.375 179.275, 47 179.574 C 45.147 179.977, 47.597 177.002, 56.461 168.082 L 68.423 156.046 67.246 150.436 C 66.264 145.757, 64.922 143.473, 59.151 136.663 C 55.346 132.174, 47.681 123.124, 42.117 116.553 L 32 104.606 32 92.717 L 32 80.828 43.047 55.758 C 49.123 41.970, 53.848 30.046, 53.547 29.262 C 52.969 27.756, 52.175 28.337, 39.083 39.849 C 35.737 42.791, 33 45.041, 33.001 44.849 C 33.001 44.657, 35.018 37.975, 37.484 30 C 39.949 22.025, 41.973 14.938, 41.983 14.250 C 42.002 12.889, 40.392 12.541, 39.671 13.750 M 150.847 21.370 C 149.395 22.431, 149.481 23.123, 151.746 28.646 C 153.746 33.520, 154.954 35.085, 157.749 36.417 C 159.673 37.335, 161.458 37.875, 161.715 37.618 C 161.972 37.361, 160.487 34.080, 158.416 30.326 C 152.748 20.056, 152.708 20.009, 150.847 21.370 M 113.166 31.598 C 111.899 37.427, 111.093 42.426, 111.374 42.707 C 112.089 43.423, 132.402 29.701, 132.252 28.604 C 132.138 27.776, 117.829 21, 116.194 21 C 115.795 21, 114.433 25.769, 113.166 31.598 M 143.208 26.165 L 139.917 28.249 144.709 30.469 C 147.344 31.690, 149.639 32.340, 149.810 31.915 C 149.980 31.489, 149.305 29.552, 148.309 27.611 L 146.499 24.082 143.208 26.165 M 110.068 47.873 C 109.480 48.971, 109 50.577, 109 51.443 C 109 52.740, 108.665 52.808, 107.096 51.828 C 105.500 50.831, 104.326 51.165, 99.828 53.890 C 96.878 55.678, 93.401 57.943, 92.101 58.924 L 89.737 60.707 93.577 70.240 L 97.417 79.773 112.459 81.433 C 120.731 82.346, 128.512 83.305, 129.750 83.565 C 130.988 83.825, 131.992 83.692, 131.982 83.269 C 131.942 81.568, 113.320 46.607, 112.267 46.256 C 111.645 46.048, 110.655 46.776, 110.068 47.873 M 83.203 64.471 C 81.390 65.730, 79.731 66.936, 79.516 67.150 C 79.301 67.365, 80.931 67.369, 83.137 67.158 C 85.439 66.939, 87.387 66.155, 87.707 65.321 C 88.752 62.597, 86.511 62.174, 83.203 64.471 M 78.894 70.423 C 75.260 71.082, 70.781 72.575, 68.940 73.741 C 65.611 75.849, 65.606 75.863, 68.047 76.394 C 72.404 77.344, 93.051 79.282, 93.546 78.788 C 93.809 78.524, 93.098 76.215, 91.965 73.655 C 89.659 68.441, 89.726 68.457, 78.894 70.423 M 57 74 C 54.828 74.457, 54.322 74.787, 55.668 74.868 C 56.861 74.941, 58.449 75.235, 59.197 75.522 C 59.945 75.809, 61.444 75.374, 62.529 74.554 C 64.487 73.073, 64.487 73.064, 62.500 73.163 C 61.400 73.218, 58.925 73.595, 57 74 M 52 84.569 L 43.500 90.135 51 89.594 C 55.125 89.297, 67.050 88.533, 77.500 87.898 C 87.950 87.262, 96.654 86.609, 96.841 86.446 C 97.029 86.284, 96.911 85.294, 96.578 84.247 C 96.052 82.588, 94.009 82.127, 80.737 80.670 C 72.357 79.750, 64.375 78.999, 63 79 C 61.625 79.002, 56.675 81.508, 52 84.569 M 99.195 84.095 C 99.764 85.814, 114 86.726, 114 85.044 C 114 84.470, 112.987 83.996, 111.750 83.991 C 110.513 83.987, 107.077 83.692, 104.115 83.336 C 99.740 82.811, 98.817 82.953, 99.195 84.095 M 106.250 88.732 C 101.670 89.145, 101.391 89.569, 103.153 93.436 C 103.925 95.130, 105.330 96.125, 107.403 96.444 C 111.188 97.028, 129.395 99, 130.998 99 C 131.634 99, 130.040 96.525, 127.456 93.500 L 122.757 88 116.629 88.175 C 113.258 88.271, 108.588 88.522, 106.250 88.732 M 80 90.500 C 71.475 91.153, 65.175 91.776, 66 91.885 C 73.327 92.850, 100.551 95.747, 100.733 95.581 C 101.596 94.791, 98.276 89.029, 97.031 89.156 C 96.189 89.242, 88.525 89.847, 80 90.500 M 73.147 102.100 C 84.368 114.640, 86.429 116.736, 90.303 119.553 L 94.107 122.319 101.615 119.964 C 105.745 118.669, 109.318 117.294, 109.556 116.910 C 109.793 116.525, 108.352 112.347, 106.353 107.624 C 103.054 99.831, 102.431 98.990, 99.609 98.521 C 96.752 98.046, 68.922 95, 67.440 95 C 67.085 95, 69.653 98.195, 73.147 102.100 M 118 117.502 C 116.075 118.194, 114.624 119.301, 114.777 119.960 C 115.411 122.710, 126.322 148.011, 126.707 147.626 C 127.261 147.072, 122.845 117.686, 122.086 116.871 C 121.764 116.525, 119.925 116.809, 118 117.502" stroke="none" fill="black" fill-rule="evenodd"/>
</svg>