<svg xmlns="http://www.w3.org/2000/svg" width="200" height="200" viewBox="0 0 200 200" version="1.1">
	<path d="M 91.283 22.157 C 84.721 30.046, 76.572 40.186, 73.176 44.691 C 69.779 49.196, 66.662 53.086, 66.250 53.336 C 65.837 53.585, 55.712 53.036, 43.750 52.116 C 27.616 50.874, 22 50.740, 22 51.596 C 22 52.966, 26.468 53.978, 32.875 54.058 C 35.419 54.089, 39.300 54.488, 41.500 54.943 C 44.460 55.555, 41.860 55.823, 31.500 55.973 C 15.248 56.208, 6.477 57.202, 9.372 58.481 C 10.402 58.936, 20.527 59.032, 31.872 58.696 L 52.500 58.084 59.326 64.424 L 66.151 70.765 40.679 97.633 C 26.670 112.410, 15.297 124.598, 15.405 124.718 C 15.514 124.838, 24.093 122.476, 34.469 119.469 C 44.846 116.463, 53.484 114.151, 53.664 114.331 C 53.845 114.511, 52.935 122.792, 51.642 132.733 L 49.292 150.807 40.613 162.653 L 31.933 174.500 38.716 175.126 C 42.447 175.470, 50.056 175.807, 55.624 175.876 L 65.749 176 85.374 163.825 C 103.193 152.771, 105 151.395, 105 148.890 C 105 142.887, 103.759 141.743, 90.581 135.595 L 77.924 129.690 78.556 125.595 C 78.904 123.343, 80.609 113.303, 82.344 103.285 L 85.500 85.069 95 74.097 C 102.388 65.565, 104.648 63.501, 105.166 64.813 C 105.532 65.741, 106.578 74.939, 107.489 85.253 L 109.145 104.007 115.605 121.753 C 121.894 139.030, 122.412 140.021, 135.172 159.165 C 142.381 169.981, 148.779 178.650, 149.390 178.429 C 150 178.209, 158.544 175.566, 168.375 172.556 C 178.206 169.547, 186.401 166.932, 186.587 166.746 C 186.999 166.334, 162.763 145.719, 143.574 130.158 C 135.833 123.882, 128.881 118.168, 128.123 117.461 C 126.978 116.391, 128.741 114.703, 138.623 107.408 C 148.937 99.794, 177.541 74.208, 176.690 73.357 C 176.523 73.190, 167.412 74.791, 156.443 76.915 C 138.956 80.301, 135.291 81.356, 126.680 85.485 C 121.279 88.075, 116.708 90.037, 116.522 89.847 C 116.075 89.388, 113.796 55.846, 114.193 55.558 C 114.362 55.436, 124.625 56.817, 137 58.629 C 149.375 60.440, 159.966 61.940, 160.536 61.961 C 161.615 62.002, 177.537 41.172, 176.876 40.585 C 176.669 40.402, 167.750 42.758, 157.056 45.821 L 137.612 51.390 125.491 45.035 L 113.369 38.680 109.034 24.090 C 106.650 16.066, 104.365 9.121, 103.957 8.657 C 103.548 8.194, 97.845 14.269, 91.283 22.157 M 92.207 25.230 C 86.659 31.978, 78.806 41.775, 74.754 47 L 67.387 56.500 60.545 56.151 L 53.702 55.803 61.818 63.143 L 69.934 70.483 66.618 73.991 C 34.240 108.242, 24.871 118.454, 25.611 118.688 C 26.100 118.843, 33.249 116.987, 41.498 114.566 C 49.747 112.144, 56.665 110.332, 56.872 110.539 C 57.219 110.886, 53.615 141.131, 52.306 148.855 C 51.969 150.845, 48.741 156.236, 44.369 162.111 C 40.316 167.557, 37 172.235, 37 172.506 C 37 172.778, 43.366 173, 51.148 173 L 65.295 173 83.654 161.750 C 101.998 150.509, 102.012 150.497, 101.756 147.097 C 101.506 143.775, 101.201 143.555, 89 137.860 C 82.125 134.651, 76.108 131.890, 75.628 131.722 C 74.783 131.428, 81.391 88.208, 82.800 84.815 C 83.605 82.876, 106.107 57, 106.988 57 C 107.309 57, 108.535 67.463, 109.713 80.250 L 111.856 103.500 118.385 121.327 C 124.649 138.432, 125.392 139.866, 136.707 156.693 C 143.193 166.339, 149.028 174.439, 149.673 174.693 C 150.681 175.090, 179.769 166.564, 180.749 165.585 C 181.248 165.086, 163.807 150.100, 141.750 132.076 C 131.438 123.648, 123.017 116.471, 123.037 116.127 C 123.057 115.782, 128.563 111.450, 135.272 106.500 C 145.900 98.658, 169.526 78.169, 168.770 77.449 C 168.621 77.308, 161.300 78.657, 152.500 80.447 C 139.066 83.180, 134.751 84.536, 125.593 88.905 C 118.722 92.183, 114.444 93.719, 114.034 93.055 C 113.414 92.052, 110.779 52.888, 111.296 52.371 C 111.431 52.235, 122.492 53.700, 135.875 55.625 C 149.258 57.550, 160.306 58.985, 160.427 58.813 C 160.548 58.641, 162.799 55.660, 165.429 52.189 C 168.059 48.718, 170.042 45.708, 169.835 45.501 C 169.628 45.294, 162.493 47.132, 153.979 49.585 C 145.466 52.038, 137.825 53.923, 137 53.773 C 136.175 53.623, 130.023 50.583, 123.329 47.018 L 111.158 40.535 107.051 27.073 C 104.793 19.669, 102.798 13.465, 102.619 13.286 C 102.440 13.107, 97.754 18.481, 92.207 25.230" stroke="none" fill="black" fill-rule="evenodd"/>
</svg>