<svg xmlns="http://www.w3.org/2000/svg" width="200" height="200" viewBox="0 0 200 200" version="1.1">
	<path d="M 36.579 23.465 C 31.291 30.871, 26.749 37.509, 26.486 38.215 C 26.223 38.922, 30.284 49.605, 35.510 61.956 L 45.012 84.411 28.419 106.285 C 19.293 118.316, 11.977 128.283, 12.163 128.434 C 12.348 128.586, 17.395 131.973, 23.377 135.962 L 34.254 143.215 33.877 169.773 C 33.608 188.708, 33.820 196.437, 34.614 196.703 C 35.860 197.120, 37.716 143.967, 36.523 142.037 C 36.154 141.440, 31.723 138.203, 26.676 134.843 C 21.629 131.483, 17.132 128.403, 16.683 128 C 16.234 127.597, 23.137 117.724, 32.023 106.062 L 48.180 84.857 38.528 61.965 L 28.876 39.073 38.188 25.917 L 47.500 12.762 71 13.394 C 83.925 13.743, 101.522 14.312, 110.104 14.661 L 125.707 15.294 128.888 28.974 L 132.070 42.655 150.090 45.716 C 160.002 47.400, 168.391 49.058, 168.734 49.400 C 169.076 49.743, 168.578 60.645, 167.628 73.627 C 166.065 94.958, 166.048 97.395, 167.449 98.944 C 168.302 99.886, 169 100.872, 169 101.134 C 169 101.396, 159.524 104.961, 147.942 109.055 C 128.720 115.851, 126.757 116.761, 125.420 119.500 C 124.614 121.150, 116.844 133.975, 108.152 148 L 92.349 173.500 85.425 174.122 C 81.616 174.465, 78.335 174.600, 78.133 174.423 C 77.932 174.245, 83.669 161.671, 90.883 146.480 C 98.098 131.289, 104 118.394, 104 117.824 C 104 117.255, 101.996 113.224, 99.546 108.868 L 95.092 100.948 100.032 79.724 C 102.749 68.051, 104.979 57.487, 104.986 56.250 C 105.019 50.835, 107.453 53.711, 125.089 80 L 137.500 98.500 137.782 86.055 C 137.938 79.211, 137.862 73.083, 137.615 72.438 C 137.367 71.794, 131.150 67.318, 123.799 62.494 C 111.996 54.747, 109.911 52.948, 105.967 47.111 L 101.500 40.500 101.187 43.750 C 101.014 45.538, 100.707 47, 100.503 47 C 100.299 47, 89.491 39.997, 76.484 31.437 C 63.477 22.877, 52.151 15.612, 51.316 15.291 C 47.312 13.755, 51.587 18.784, 63.829 30.012 C 74.596 39.888, 77.062 42.647, 76.660 44.369 C 75.505 49.318, 71.757 81.090, 72.268 81.601 C 72.575 81.909, 74.005 81.388, 75.444 80.444 C 76.884 79.501, 78.254 78.921, 78.488 79.155 C 78.985 79.651, 88 102.834, 88 103.614 C 88 103.902, 82.885 106.552, 76.632 109.501 L 65.265 114.863 61.766 123.681 L 58.266 132.500 57.716 159.750 C 57.273 181.711, 57.418 187, 58.465 187 C 59.481 187, 59.911 181.079, 60.444 159.750 L 61.124 132.500 64.187 124.718 L 67.251 116.936 79.125 111.318 C 85.656 108.228, 90.999 105.205, 90.998 104.600 C 90.996 103.695, 86.611 91.768, 81.111 77.710 C 80.155 75.267, 79.758 75.059, 77.924 76.041 C 76.772 76.657, 75.652 76.985, 75.435 76.769 C 75.219 76.552, 76.135 68.528, 77.472 58.938 L 79.901 41.500 72.701 34.578 C 68.740 30.771, 66.217 28.071, 67.093 28.578 C 67.969 29.085, 76.182 34.431, 85.343 40.458 L 102 51.416 101.981 55.458 C 101.971 57.681, 99.760 68.902, 97.068 80.394 L 92.174 101.288 96.587 109.266 C 99.014 113.653, 101 117.575, 101 117.980 C 101 118.385, 94.738 131.943, 87.084 148.108 C 79.430 164.274, 73.276 177.608, 73.408 177.741 C 73.826 178.160, 92.897 176.182, 93.797 175.626 C 94.269 175.334, 102.032 163.092, 111.047 148.423 L 127.439 121.751 129.739 130.914 L 132.040 140.078 149.514 163.618 C 165.710 185.436, 167.057 186.980, 167.921 184.708 C 169.258 181.192, 174.810 165.639, 177.494 157.895 L 179.782 151.290 155.891 134.988 C 142.751 126.022, 132.002 118.419, 132.005 118.093 C 132.008 117.767, 141.662 114.125, 153.458 110 L 174.905 102.500 171.833 99.329 L 168.760 96.157 170.502 72.617 C 171.460 59.670, 172.017 48.487, 171.740 47.765 C 171.416 46.921, 164.934 45.399, 153.551 43.494 C 143.824 41.867, 135.503 40.302, 135.060 40.017 C 134.617 39.733, 132.734 33.425, 130.877 26 L 127.500 12.500 96 11.354 C 78.675 10.723, 60.381 10.161, 55.348 10.104 L 46.195 10 36.579 23.465 M 116.625 62.728 C 117.656 64.275, 122.100 70.888, 126.500 77.424 L 134.500 89.307 134.797 81.997 C 134.960 77.977, 134.893 74.164, 134.648 73.524 C 134.402 72.884, 129.825 69.561, 124.476 66.138 C 116.162 60.819, 115.022 60.324, 116.625 62.728 M 132.516 130.064 C 133.800 135.111, 135.897 140.680, 137.175 142.440 C 149.581 159.520, 165.599 180.923, 166 180.955 C 166.275 180.977, 168.701 174.664, 171.392 166.925 C 175.542 154.987, 176.072 152.657, 174.892 151.552 C 173.660 150.400, 139.710 127.027, 132.841 122.602 L 130.182 120.889 132.516 130.064" stroke="none" fill="black" fill-rule="evenodd"/>
</svg>