<svg xmlns="http://www.w3.org/2000/svg" width="200" height="200" viewBox="0 0 200 200" version="1.1">
	<path d="M 70.560 19.487 L 65.733 32.974 54.820 22.833 C 48.043 16.534, 43.554 13.046, 42.972 13.628 C 42.391 14.209, 46.011 20.519, 52.527 30.282 C 58.298 38.927, 62.902 46.011, 62.759 46.024 C 62.617 46.036, 52.214 46.910, 39.642 47.965 C 27.071 49.019, 16.644 50.023, 16.471 50.195 C 16.299 50.367, 20.793 54.422, 26.458 59.205 L 36.759 67.901 53.494 63.398 C 62.698 60.922, 70.395 59.062, 70.599 59.265 C 70.802 59.469, 65.096 67.638, 57.919 77.419 C 50.742 87.201, 45.012 95.325, 45.185 95.473 C 45.358 95.621, 54.050 96.258, 64.500 96.889 C 74.950 97.520, 86.534 98.311, 90.241 98.647 L 96.983 99.257 96.352 103.378 C 96.005 105.645, 95.672 107.560, 95.611 107.634 C 95.550 107.707, 88.075 108.724, 79 109.894 C 58.683 112.513, 36.762 116.102, 35.735 116.978 C 34.829 117.750, 43.118 137.952, 46.003 142.004 C 47.101 143.546, 48.001 145.414, 48.003 146.154 C 48.005 146.894, 46.377 154.835, 44.386 163.799 C 42.394 172.764, 41.028 180.361, 41.349 180.682 C 41.670 181.003, 55.759 177.808, 72.658 173.582 L 103.384 165.898 134.760 172.547 C 152.017 176.204, 166.377 178.956, 166.670 178.663 C 166.964 178.370, 164.655 170.999, 161.540 162.285 L 155.877 146.440 159.517 136.470 C 163.488 125.596, 172 98.361, 172 96.530 C 172 95.850, 167.259 94.617, 160.250 93.475 L 148.500 91.559 153.826 90.370 C 159.624 89.076, 160.492 88.605, 159.636 87.220 C 159.311 86.695, 155.549 87.105, 150.786 88.184 C 143.526 89.830, 141.438 89.920, 133.923 88.911 L 125.345 87.759 113.423 76.859 C 106.865 70.864, 101.355 65.293, 101.177 64.479 C 100.942 63.404, 101.766 63, 104.193 63 C 107.926 63, 141.821 65.647, 149.332 66.526 C 153.479 67.011, 154.117 66.855, 153.832 65.425 C 153.452 63.520, 109.527 47.108, 104.625 47.040 C 101.944 47.003, 101.792 46.790, 102.375 43.875 C 102.719 42.156, 103.007 37.094, 103.015 32.625 C 103.024 28.156, 103.424 23.878, 103.906 23.118 C 104.583 22.049, 106.955 23.468, 114.406 29.399 L 124.031 37.062 132.766 35.534 C 144.904 33.411, 145.999 33.521, 154.483 37.719 L 162 41.439 162 56.803 C 162 68.649, 162.286 72.072, 163.250 71.751 C 164.163 71.448, 164.574 67.116, 164.775 55.691 L 165.051 40.045 155.775 35.371 L 146.500 30.697 138.500 31.913 C 134.100 32.582, 129.150 33.339, 127.500 33.595 C 124.915 33.997, 122.910 32.800, 113 24.935 L 101.500 15.808 100.874 22.654 C 100.530 26.419, 100.186 33.325, 100.109 38 C 100.032 42.675, 99.639 46.988, 99.235 47.585 C 98.831 48.181, 95.713 49.362, 92.306 50.209 C 86.240 51.717, 86.070 51.703, 84.047 49.550 C 82.911 48.341, 82.199 47.135, 82.464 46.870 C 82.891 46.443, 79.958 19.553, 78.415 9.750 C 78.090 7.688, 77.276 6, 76.605 6 C 75.935 6, 73.214 12.069, 70.560 19.487 M 71.695 24.267 L 67.979 34.457 73.453 39.931 C 76.464 42.942, 79.153 45.181, 79.428 44.906 C 79.988 44.345, 76.575 15.241, 75.865 14.531 C 75.615 14.282, 73.739 18.663, 71.695 24.267 M 53.495 26.500 C 58.896 35.269, 62.350 39.902, 63.128 39.421 C 65.227 38.124, 63.577 35.029, 57.824 29.469 C 53.595 25.382, 52.230 24.446, 53.495 26.500 M 65.522 41.293 C 64.685 43.297, 64 45.175, 64 45.468 C 64 46.226, 70.159 45.994, 72.281 45.156 C 73.843 44.539, 73.631 44.035, 70.553 41.051 L 67.044 37.650 65.522 41.293 M 48 50.048 C 36.725 51.033, 26.375 51.894, 25 51.960 C 22.531 52.080, 22.543 52.119, 26 55.126 C 27.925 56.800, 31.305 59.673, 33.510 61.509 L 37.521 64.848 48.010 62.017 C 53.780 60.460, 64.032 57.731, 70.793 55.953 L 83.086 52.721 80.869 50.360 C 78.196 47.516, 77.088 47.505, 48 50.048 M 102 55 C 102 58.685, 102.379 60, 103.440 60 C 104.232 60, 113.067 60.690, 123.073 61.533 C 133.080 62.377, 141.406 62.928, 141.575 62.758 C 142.219 62.114, 107.140 50, 104.632 50 C 102.140 50, 102 50.267, 102 55 M 93.672 52.692 C 89.416 53.939, 89.001 54.296, 90.172 55.708 C 91.621 57.456, 97.938 60.395, 98.671 59.663 C 98.921 59.413, 98.985 57.424, 98.813 55.243 L 98.500 51.278 93.672 52.692 M 79.500 56.528 L 75.500 57.846 79 57.934 C 80.925 57.982, 84.300 58.305, 86.500 58.651 L 90.500 59.280 87.842 57.140 C 84.842 54.724, 84.949 54.732, 79.500 56.528 M 62.020 76.460 C 55.510 85.282, 50.336 92.656, 50.521 92.846 C 50.878 93.212, 88.193 95.903, 93.750 95.964 C 96.975 96, 97 95.963, 97 91.145 L 97 86.289 89 84.561 C 83.580 83.390, 81 82.376, 81 81.416 C 81 79.686, 80.845 79.687, 89.708 81.377 C 93.672 82.133, 97.159 82.507, 97.458 82.209 C 97.756 81.911, 98 78.220, 98 74.008 C 98 63.380, 96.743 62.263, 83.608 61.205 L 73.856 60.420 62.020 76.460 M 100.763 76.208 C 100.497 79.668, 100.432 82.678, 100.619 82.896 C 101.035 83.381, 114.760 85.874, 117.416 85.947 C 118.722 85.983, 116.686 83.532, 111.022 78.250 C 106.451 73.987, 102.381 70.368, 101.979 70.208 C 101.576 70.047, 101.029 72.747, 100.763 76.208 M 100 91.326 C 100 97.753, 103.521 98.466, 118.500 95.073 C 127.334 93.072, 127.735 93.412, 112.500 89.971 C 107.550 88.853, 102.713 87.697, 101.750 87.402 C 100.265 86.946, 100 87.540, 100 91.326 M 129.813 91.683 C 130.534 91.972, 131.397 91.936, 131.729 91.604 C 132.061 91.272, 131.471 91.036, 130.417 91.079 C 129.252 91.127, 129.015 91.364, 129.813 91.683 M 124.500 96.577 C 113.104 99.152, 108.238 99.823, 104.250 99.368 L 99 98.770 99 102.885 C 99 105.294, 99.472 107, 100.138 107 C 100.763 107, 107.034 106.270, 114.072 105.378 L 126.868 103.756 136.684 109.016 C 153.156 117.842, 155.334 119.238, 153.851 120.018 C 153.108 120.408, 143.915 122.647, 133.422 124.994 L 114.344 129.260 105.628 146.725 L 96.912 164.191 100.706 163.627 C 103.344 163.236, 113.340 164.986, 133.500 169.369 C 149.450 172.837, 162.659 175.550, 162.854 175.400 C 163.048 175.249, 160.902 168.651, 158.084 160.736 L 152.961 146.347 156.595 136.424 C 163.142 118.547, 168.979 98.605, 167.867 97.918 C 166.892 97.315, 141.091 92.831, 140 93.075 C 139.725 93.136, 132.750 94.712, 124.500 96.577 M 109.536 108.656 C 104.055 109.448, 99.418 110.249, 99.230 110.437 C 98.859 110.808, 96.060 158.364, 96.389 158.711 C 96.499 158.827, 100.159 151.737, 104.522 142.956 C 108.885 134.175, 113.140 126.801, 113.977 126.569 C 114.815 126.336, 122.700 124.501, 131.500 122.489 C 140.300 120.477, 147.639 118.693, 147.808 118.525 C 147.977 118.356, 143.410 115.694, 137.659 112.609 C 125.978 106.343, 125.761 106.312, 109.536 108.656 M 79 112.554 C 59.132 115.355, 41.049 118.352, 39.965 119.022 C 38.584 119.875, 44.963 135.902, 48.587 140.683 C 49.914 142.434, 51 144.498, 51 145.269 C 51 146.040, 49.448 153.594, 47.552 162.055 C 45.656 170.515, 44.217 177.550, 44.355 177.688 C 44.582 177.916, 92.154 165.941, 92.757 165.505 C 92.975 165.348, 95.977 115.954, 95.994 112.250 C 96.001 110.693, 91.653 110.770, 79 112.554" stroke="none" fill="black" fill-rule="evenodd"/>
</svg>