<svg xmlns="http://www.w3.org/2000/svg" width="200" height="200" viewBox="0 0 200 200" version="1.1">
	<path d="M 93 16.304 C 93 16.470, 94.575 21.285, 96.501 27.003 C 98.426 32.720, 99.644 37.756, 99.206 38.194 C 98.768 38.632, 91.138 38.470, 82.251 37.834 L 66.092 36.678 39.528 58.034 C 15.679 77.207, 10.615 82.025, 15.116 81.261 C 15.890 81.129, 29.118 76.140, 44.512 70.173 C 70.295 60.178, 73.546 58.641, 85.782 50.662 C 93.088 45.898, 99.613 42.005, 100.282 42.010 C 100.952 42.016, 102.455 45.160, 103.622 48.997 L 105.743 55.974 103.622 55.456 C 86.280 51.225, 85 51.063, 85 53.103 C 85 54.102, 106.947 67.333, 108.604 67.333 C 109.706 67.333, 111.598 71.790, 110.799 72.502 C 110.480 72.786, 50.691 78, 47.750 78 C 46.787 78, 46 78.675, 46 79.500 C 46 81.307, 44.954 81.292, 75.374 79.923 C 100.761 78.781, 105.600 79.382, 95.840 82.467 C 92.903 83.396, 89.900 84.346, 89.166 84.578 C 88.342 84.840, 91.852 89.288, 98.359 96.225 C 104.148 102.398, 108.713 107.620, 108.504 107.830 C 108.294 108.039, 98.968 108.572, 87.778 109.013 C 58.979 110.148, 19 114.022, 19 115.677 C 19 117.251, 18.704 117.187, 44.500 121.234 L 65.500 124.529 40.500 135.397 C 26.750 141.374, 14.150 146.957, 12.500 147.804 C 9.561 149.312, 9.874 149.409, 28 152.622 C 38.175 154.425, 49.502 156.407, 53.170 157.027 L 59.841 158.154 65.670 165.747 C 68.877 169.923, 71.975 173.981, 72.555 174.764 C 73.428 175.942, 76.832 174.579, 92.305 166.856 C 102.587 161.724, 111 157.014, 111 156.389 C 111 155.765, 108.045 149.234, 104.433 141.877 L 97.866 128.500 110.671 142 C 117.714 149.425, 125.732 157.808, 128.488 160.628 L 133.500 165.757 158.932 169.397 C 176.846 171.961, 184.677 172.723, 185.423 171.977 C 186.170 171.230, 186.160 170.707, 185.388 170.208 C 163.435 156.012, 148 145.656, 148 145.123 C 148 144.595, 169.596 127.941, 174.240 124.888 C 175.054 124.353, 172.598 103.265, 171.606 102.272 C 171.415 102.081, 163.772 102.879, 154.623 104.044 C 145.473 105.209, 137.535 106.012, 136.982 105.827 C 136.430 105.643, 142.313 97.654, 150.056 88.073 C 159.982 75.791, 163.745 70.448, 162.817 69.955 C 162.092 69.571, 150.475 66.658, 137 63.482 C 123.525 60.306, 112.388 57.624, 112.252 57.522 C 112.116 57.421, 113.128 54.033, 114.502 49.994 C 115.876 45.954, 117 42.054, 117 41.325 C 117 40.376, 115.342 40, 111.167 40 C 107.958 40, 105.019 39.685, 104.634 39.301 C 103.927 38.594, 116.650 30.051, 118.500 29.989 C 119.050 29.971, 126.597 32.964, 135.271 36.641 L 151.042 43.326 163.034 54.317 C 169.629 60.362, 174.899 65.434, 174.744 65.590 C 174.589 65.745, 162.320 63.009, 147.481 59.510 C 131.210 55.674, 120.129 53.510, 119.567 54.058 C 119.053 54.558, 118.828 55.159, 119.067 55.393 C 119.305 55.628, 130.300 58.339, 143.500 61.417 C 156.700 64.495, 171.098 67.875, 175.496 68.928 C 179.893 69.981, 183.627 70.706, 183.793 70.541 C 183.959 70.375, 177.018 63.673, 168.370 55.648 L 152.645 41.056 136.889 34.328 C 128.223 30.628, 121.216 27.128, 121.316 26.551 C 121.417 25.973, 120.600 25.598, 119.500 25.717 C 118.400 25.836, 112.248 23.699, 105.830 20.967 C 94.699 16.229, 93 15.612, 93 16.304 M 98 21.595 C 98 23.264, 102.287 36, 102.847 35.997 C 103.206 35.995, 106.181 34.211, 109.458 32.033 L 115.416 28.072 111.958 26.617 C 110.056 25.817, 106.325 24.226, 103.667 23.081 C 98.405 20.815, 98 20.709, 98 21.595 M 44.714 57.322 C 32.496 67.164, 22.284 75.420, 22.021 75.670 C 21.758 75.920, 22.658 75.697, 24.021 75.174 C 68.573 58.096, 70.821 57.104, 82.671 49.295 L 94.500 41.500 90.500 41.211 C 88.300 41.052, 82.096 40.586, 76.714 40.175 L 66.927 39.429 44.714 57.322 M 106.765 49.750 L 109.392 57.500 111.525 50.500 L 113.658 43.500 111.079 42.868 C 109.661 42.521, 107.518 42.183, 106.319 42.118 L 104.137 42 106.765 49.750 M 95 56.495 C 95 57.413, 107.051 63.727, 107.479 63.033 C 108.750 60.978, 106.445 59.106, 100.934 57.718 C 97.670 56.896, 95 56.345, 95 56.495 M 111.254 63.082 C 111.568 64.962, 112.326 67.798, 112.939 69.385 L 114.053 72.270 123.527 71.575 C 131.354 71, 133 71.125, 133 72.294 C 133 73.196, 130.193 74.533, 125.250 75.983 C 120.987 77.234, 117.209 78.422, 116.854 78.624 C 116.499 78.825, 117.475 82.929, 119.023 87.745 C 121.502 95.457, 122.413 97.004, 126.669 100.729 C 129.326 103.056, 131.787 104.968, 132.137 104.979 C 132.900 105.004, 157.850 74.554, 158.540 72.755 C 158.885 71.858, 152.529 69.966, 136.261 66.121 C 123.742 63.163, 112.866 60.500, 112.092 60.204 C 110.989 59.782, 110.807 60.405, 111.254 63.082 M 105.648 75.739 C 100.989 76.103, 100.864 76.192, 102.480 77.978 C 103.974 79.629, 104.571 79.698, 107.776 78.588 C 109.762 77.900, 111.563 76.812, 111.777 76.169 C 111.991 75.526, 111.792 75.081, 111.333 75.180 C 110.875 75.279, 108.317 75.531, 105.648 75.739 M 115.813 75.683 C 116.534 75.972, 117.397 75.936, 117.729 75.604 C 118.061 75.272, 117.471 75.036, 116.417 75.079 C 115.252 75.127, 115.015 75.364, 115.813 75.683 M 109.003 81.123 L 106.506 82.118 111.503 86.464 C 114.251 88.854, 116.599 90.715, 116.721 90.601 C 116.842 90.486, 116.194 88.054, 115.280 85.196 C 113.547 79.776, 113.102 79.488, 109.003 81.123 M 97.611 84.640 L 92.722 86.141 97.102 90.821 C 113.290 108.115, 113.152 108, 117.721 108 C 122.421 108, 122.583 107.679, 120.834 101.840 C 120.007 99.081, 117.391 95.772, 111.845 90.474 C 107.542 86.363, 103.679 83.031, 103.261 83.070 C 102.842 83.108, 100.300 83.815, 97.611 84.640 M 124 103.135 C 124 105.530, 126.355 108.054, 127.761 107.166 C 128.697 106.574, 128.376 105.762, 126.511 104.010 C 124.685 102.295, 124 102.056, 124 103.135 M 158.365 106.228 L 150.230 107.177 142.411 123.656 C 138.111 132.718, 134.300 140.315, 133.942 140.536 C 133.583 140.757, 131.114 134.197, 128.453 125.957 L 123.616 110.976 98.058 111.513 C 84.001 111.809, 65.525 112.714, 57 113.525 C 28.601 116.224, 28.848 115.902, 52.357 119.600 C 63.828 121.404, 73.403 123.069, 73.633 123.300 C 73.864 123.531, 61.891 129.040, 47.027 135.544 C 32.162 142.047, 20 147.637, 20 147.967 C 20 148.297, 29.111 150.108, 40.247 151.992 C 62.912 155.827, 61.414 155.082, 69.685 166.631 C 71.783 169.560, 74.119 171.967, 74.876 171.978 C 75.633 171.990, 83.349 168.353, 92.022 163.896 L 107.791 155.792 104.533 148.646 C 102.740 144.716, 98.969 136.910, 96.153 131.299 C 89.820 118.687, 90.815 117.101, 99.415 126.099 C 102.780 129.620, 112.050 139.359, 120.016 147.742 L 134.500 162.984 155 165.986 C 166.275 167.638, 176.175 168.986, 177 168.983 C 177.825 168.980, 170.636 163.840, 161.023 157.559 C 151.411 151.279, 143.434 145.772, 143.297 145.320 C 143.159 144.869, 148.899 140.225, 156.051 135 C 163.204 129.775, 169.734 124.989, 170.562 124.365 C 172.755 122.712, 170.450 104.928, 168.070 105.139 C 167.206 105.216, 162.839 105.706, 158.365 106.228 M 127 111.094 C 127 112.704, 133.125 132.377, 133.889 133.220 C 134.247 133.617, 137.082 128.554, 140.187 121.970 L 145.833 110 136.416 110 C 130.268 110, 127 110.380, 127 111.094" stroke="none" fill="black" fill-rule="evenodd"/>
</svg>