<svg xmlns="http://www.w3.org/2000/svg" width="200" height="200" viewBox="0 0 200 200" version="1.1">
	<path d="M 109.197 30.361 L 109.641 35.722 100.071 36.356 C 94.807 36.704, 87.732 36.992, 84.348 36.995 C 78.359 37, 78.167 36.917, 77.110 33.885 C 76.073 30.910, 75.831 30.795, 71.762 31.342 C 69.418 31.658, 53.888 32.220, 37.250 32.592 C 11.655 33.164, 7 33.493, 7 34.733 C 7 36.005, 10.725 36.088, 35.250 35.363 C 72.901 34.251, 74.242 34.264, 74.744 35.750 C 75.068 36.708, 72.056 37.002, 61.833 37.007 C 54.500 37.011, 45.463 37.301, 41.750 37.652 C 28.607 38.893, 35.274 40, 55.892 40 L 76.783 40 77.440 42.618 C 77.802 44.058, 77.961 45.373, 77.793 45.540 C 77.626 45.707, 68.087 44.746, 56.596 43.404 C 45.104 42.063, 35.586 41.085, 35.444 41.232 C 35.302 41.380, 38.632 54.865, 42.843 71.200 L 50.500 100.899 54.500 101.523 C 62.518 102.772, 62.895 103.133, 58.250 105.109 L 54 106.918 54 113.034 L 54 119.150 48.006 121.736 C 42.277 124.208, 41.717 124.784, 35.376 134.731 C 31.726 140.456, 29.136 145.484, 29.620 145.904 C 30.104 146.323, 33.837 147.642, 37.916 148.833 C 41.995 150.024, 45.561 151.227, 45.840 151.507 C 46.119 151.786, 47.017 159.211, 47.835 168.007 C 48.653 176.803, 49.606 184, 49.954 184 C 50.302 184, 63.842 178.343, 80.043 171.428 C 96.244 164.514, 111.043 158.203, 112.930 157.404 L 116.359 155.952 112.908 152.226 C 111.010 150.177, 108.342 147.197, 106.979 145.604 C 105.615 144.011, 117.813 152.674, 134.085 164.854 C 150.357 177.034, 164.020 187, 164.449 187 C 164.877 187, 164.897 179.726, 164.493 170.836 C 163.834 156.356, 163.419 153.668, 160.511 145.031 L 157.264 135.390 167.978 125.336 L 178.693 115.281 169.096 114.646 C 163.818 114.296, 154.438 114.008, 148.250 114.005 C 142.063 114.002, 137 113.605, 137 113.122 C 137 111.125, 140.299 110.152, 156 107.517 C 165.075 105.994, 172.622 104.645, 172.771 104.520 C 172.920 104.394, 168.758 92.037, 163.521 77.061 C 158.285 62.084, 154 49.313, 154 48.681 C 154 48.049, 159.055 42.462, 165.234 36.266 L 176.467 25 142.610 25 L 108.752 25 109.197 30.361 M 112 31.281 C 112 35.220, 112.305 35.906, 114.176 36.180 C 115.950 36.441, 116.595 37.608, 117.670 42.500 C 118.395 45.800, 119.225 49.513, 119.513 50.750 C 119.962 52.672, 119.630 53, 117.243 53 C 114.583 53, 114.466 53.195, 114.829 57.007 C 115.128 60.144, 115.678 61.108, 117.356 61.445 C 125.230 63.023, 125.600 63.183, 123.500 64.097 C 122.400 64.576, 120.213 65.433, 118.639 66.002 C 115.884 66.997, 115.804 67.209, 116.483 71.767 C 116.870 74.370, 117.257 76.567, 117.344 76.649 C 117.430 76.731, 119.951 76.407, 122.946 75.928 C 125.941 75.450, 128.525 75.191, 128.687 75.353 C 128.849 75.516, 127.204 80.939, 125.032 87.405 L 121.082 99.162 124.791 98.622 C 132.156 97.550, 143 96.810, 143 97.378 C 143 97.698, 142.269 99.787, 141.375 102.021 C 140.481 104.255, 140.024 106.357, 140.358 106.692 C 141.332 107.666, 169.005 102.671, 168.951 101.532 C 168.924 100.964, 164.693 88.575, 159.548 74 L 150.194 47.500 159.828 37.750 L 169.462 28 149.885 28 C 139.117 28, 126.188 27.708, 121.154 27.350 L 112 26.701 112 31.281 M 82.299 39.720 C 79.239 40.102, 79.148 40.238, 80.251 42.810 C 80.886 44.289, 81.513 45.661, 81.645 45.859 C 81.776 46.056, 88.435 46.987, 96.442 47.927 L 111 49.637 111 47.444 C 111 46.237, 110.719 43.844, 110.375 42.125 L 109.750 39 97.625 39.160 C 90.956 39.248, 84.059 39.500, 82.299 39.720 M 113.041 40.500 C 113.003 44.434, 114.279 50, 115.219 50 C 116.287 50, 115.301 42.421, 113.918 40 C 113.226 38.790, 113.057 38.886, 113.041 40.500 M 39 44.578 C 39 45.367, 49.495 86.184, 51.607 93.609 L 53.060 98.719 62.030 100.004 C 66.964 100.711, 71 101.589, 71 101.954 C 71 102.319, 67.868 103.939, 64.040 105.554 L 57.080 108.491 56.790 114.832 L 56.500 121.174 50.196 123.846 C 44.255 126.364, 43.579 127.008, 38.466 135.009 C 35.482 139.679, 33.031 143.751, 33.020 144.057 C 33.009 144.364, 36.064 145.409, 39.810 146.381 C 43.555 147.352, 47.115 148.453, 47.719 148.827 C 48.324 149.200, 49.468 156.151, 50.261 164.272 C 51.055 172.393, 51.929 179.263, 52.205 179.539 C 52.739 180.072, 108.951 156.449, 110.258 155.142 C 110.683 154.717, 106.549 149.449, 101.071 143.435 C 95.288 137.084, 91.483 132.127, 91.996 131.610 C 92.510 131.093, 95.935 132.964, 100.190 136.087 C 107.915 141.758, 158.521 179.523, 160.889 181.383 C 162.064 182.307, 162.195 180.404, 161.742 168.987 C 161.263 156.905, 160.837 154.425, 157.646 145.180 L 154.085 134.859 163.292 125.966 L 172.500 117.074 156.250 116.858 C 147.313 116.740, 139.042 116.611, 137.870 116.571 C 136.040 116.510, 134.975 118.473, 130.310 130.500 C 127.323 138.200, 124.474 144.911, 123.977 145.413 C 122.476 146.931, 121.361 142.254, 120.005 128.750 L 118.726 116 113.863 116 C 110.373 116, 109 115.607, 109 114.607 C 109 113.004, 111.127 112, 114.523 112 C 115.820 112, 117.134 111.593, 117.441 111.095 C 117.902 110.349, 115.137 81.045, 114.531 80.255 C 114.427 80.120, 101.778 81.775, 86.421 83.933 C 61.625 87.417, 54.880 87.787, 57.128 85.538 C 57.401 85.266, 69.944 80.613, 85.003 75.198 C 100.061 69.784, 112.538 64.886, 112.729 64.314 C 113.227 62.820, 107.070 62.024, 94.935 62.011 L 84.370 62 82.085 55.526 C 79.454 48.074, 81.600 48.931, 59.500 46.509 C 51.800 45.665, 44.038 44.735, 42.250 44.442 C 40.462 44.149, 39 44.210, 39 44.578 M 83.054 49.845 C 83.084 50.205, 83.872 52.479, 84.804 54.897 L 86.500 59.294 99.296 59.397 L 112.091 59.500 111.796 56 L 111.500 52.500 101 51.312 C 95.225 50.658, 88.813 49.913, 86.750 49.657 C 84.688 49.400, 83.024 49.485, 83.054 49.845 M 92.808 75.356 C 81.978 79.258, 73.244 82.577, 73.399 82.732 C 73.690 83.023, 107.748 78.339, 111.750 77.457 C 113.521 77.067, 113.997 76.274, 113.985 73.731 C 113.976 71.954, 113.639 69.997, 113.235 69.381 C 112.730 68.612, 106.341 70.481, 92.808 75.356 M 117.907 79.750 C 117.665 81.710, 118.207 88.850, 118.826 91.840 C 119.489 95.046, 119.623 94.855, 122.169 87.090 L 124.821 79 121.410 79 C 119.535 79, 117.958 79.338, 117.907 79.750 M 130.500 100.675 C 128.300 100.861, 124.982 101.266, 123.127 101.575 C 119.835 102.123, 119.768 102.231, 120.293 106.151 C 120.590 108.359, 120.988 110.321, 121.179 110.512 C 121.480 110.814, 126.010 110.066, 133.744 108.437 C 135.553 108.057, 139 102.770, 139 100.378 C 139 100.001, 138.080 100.033, 130.500 100.675 M 130.500 112 C 128.850 112.420, 128.251 112.817, 129.168 112.882 C 130.086 112.947, 131.490 113.251, 132.289 113.557 C 133.088 113.864, 134.011 113.414, 134.340 112.557 C 134.986 110.873, 134.951 110.867, 130.500 112 M 122.644 126.750 C 123.337 132.662, 123.950 137.725, 124.007 138 C 124.122 138.562, 127.003 131.623, 130.547 122.250 L 132.910 116 127.147 116 L 121.383 116 122.644 126.750" stroke="none" fill="black" fill-rule="evenodd"/>
</svg>