<svg xmlns="http://www.w3.org/2000/svg" width="200" height="200" viewBox="0 0 200 200" version="1.1">
	<path d="M 89.392 22.356 L 78.283 34.570 50.474 36.786 C 35.179 38.005, 22.432 39.234, 22.149 39.518 C 20.375 41.292, 26.618 41.936, 51.750 42.575 C 70.588 43.054, 80 42.956, 80 42.282 C 80 40.920, 72.833 40.028, 60.610 39.868 L 50.500 39.736 64.500 38.457 C 72.200 37.753, 78.794 37.138, 79.153 37.089 C 79.511 37.040, 84.439 31.938, 90.103 25.750 C 95.767 19.563, 100.649 14.393, 100.951 14.261 C 101.253 14.130, 107.350 19.197, 114.500 25.522 C 126.678 36.295, 127.721 36.993, 131 36.558 C 132.925 36.302, 139.450 35.857, 145.500 35.569 L 156.500 35.045 143.194 38.773 L 129.888 42.500 125.347 50.820 C 122.850 55.396, 120.983 59.317, 121.200 59.533 C 121.417 59.750, 129.566 60.239, 139.309 60.619 C 149.052 60.999, 156.905 61.428, 156.762 61.571 C 156.618 61.715, 147.069 63.463, 135.542 65.457 C 124.015 67.451, 114.402 69.265, 114.178 69.488 C 113.807 69.860, 116.522 72.470, 130.232 84.923 L 134.963 89.221 146.232 88.661 L 157.500 88.101 148.500 89.526 C 143.550 90.310, 138.035 91.208, 136.245 91.522 C 133.644 91.978, 131.181 94.208, 123.996 102.613 C 115.139 112.974, 114.986 113.094, 114.001 110.502 C 113.450 109.054, 112.993 107.562, 112.985 107.185 C 112.976 106.808, 112.584 105.891, 112.112 105.147 C 111.425 104.063, 108.397 104.830, 96.877 109.009 C 88.970 111.878, 82.130 114.567, 81.677 114.986 C 81.224 115.404, 85.876 122.845, 92.015 131.521 C 98.153 140.196, 103.369 147.797, 103.604 148.410 C 103.839 149.024, 101.199 152.334, 97.736 155.766 L 91.440 162.006 65.065 171.514 C 50.559 176.744, 38.563 180.897, 38.409 180.743 C 38.255 180.588, 43.740 171.926, 50.597 161.492 C 57.455 151.058, 62.713 142.427, 62.283 142.310 C 61.852 142.194, 55.006 141.169, 47.069 140.034 C 39.131 138.899, 32.479 137.812, 32.285 137.618 C 32.091 137.424, 34.064 134.649, 36.669 131.451 C 39.275 128.253, 45.549 118.081, 50.613 108.846 L 59.819 92.057 56.660 91.522 C 54.922 91.228, 50.575 90.596, 47 90.117 C 42.110 89.462, 46.862 89.216, 66.191 89.123 C 80.321 89.056, 92.132 88.595, 92.438 88.101 C 92.743 87.607, 85.140 82.096, 75.541 75.856 C 65.943 69.616, 58.407 64.196, 58.795 63.813 C 59.372 63.242, 85.140 52.559, 94.771 48.897 C 96.641 48.186, 97.028 47.628, 96.217 46.817 C 95.406 46.006, 89.329 48.063, 73.554 54.489 C 61.700 59.319, 52 63.390, 52 63.536 C 52 63.682, 59.520 68.684, 68.711 74.651 L 85.421 85.500 50.211 85.763 C 20.038 85.988, 15 86.236, 15 87.494 C 15 89.321, 15.614 89.446, 36.902 91.935 C 46.473 93.055, 54.494 94.160, 54.725 94.392 C 55.735 95.401, 38.643 124.594, 32.998 131.502 C 29.578 135.688, 27.021 139.354, 27.316 139.650 C 27.611 139.945, 34.524 141.117, 42.676 142.254 C 50.829 143.392, 57.683 144.470, 57.907 144.651 C 58.130 144.832, 52.322 153.989, 45 165 C 37.678 176.011, 31.939 185.272, 32.246 185.580 C 32.554 185.888, 46.237 181.319, 62.653 175.428 L 92.500 164.717 100.248 157.103 L 107.996 149.489 96.460 133.116 C 90.115 124.111, 85.078 116.588, 85.268 116.399 C 85.458 116.209, 91.076 114.081, 97.754 111.669 L 109.896 107.283 111.466 111.208 C 112.330 113.366, 112.801 115.514, 112.512 115.981 C 112.224 116.447, 112.364 116.980, 112.823 117.165 C 113.283 117.349, 117.630 128.879, 122.484 142.787 C 127.338 156.695, 131.583 168.242, 131.916 168.448 C 132.990 169.112, 178.118 177.128, 178.980 176.809 C 179.438 176.639, 175.766 169.525, 170.819 161 C 160.974 144.031, 150.992 124.761, 151.014 122.767 C 151.022 122.070, 154.352 115.875, 158.415 109 C 162.478 102.125, 165.490 96.381, 165.109 96.236 C 164.727 96.091, 159.372 97.778, 153.208 99.986 C 147.043 102.194, 137.027 105.781, 130.949 107.958 L 119.898 111.917 123.157 107.802 C 124.949 105.539, 128.459 101.545, 130.958 98.926 L 135.500 94.164 159 91.013 C 185.025 87.523, 186 87.334, 186 85.773 C 186 84.995, 178.738 84.873, 160.731 85.349 L 135.462 86.016 127.206 78.508 C 122.665 74.379, 119.073 70.998, 119.225 70.995 C 119.904 70.981, 166.797 62.951, 169.250 62.428 C 170.762 62.105, 172 61.272, 172 60.576 C 172 59.318, 154.588 58, 137.967 58 C 134.273 58, 129.918 57.734, 128.289 57.408 L 125.329 56.816 128.601 50.658 L 131.874 44.500 153.437 39.099 C 168.196 35.402, 175 33.272, 175 32.349 C 175 30.669, 174.788 30.670, 149.496 32.512 C 132.858 33.724, 128.413 33.776, 127.117 32.775 C 126.228 32.089, 120.031 26.683, 113.346 20.763 C 106.662 14.843, 101.037 10.032, 100.846 10.071 C 100.656 10.109, 95.501 15.638, 89.392 22.356 M 137.073 108.596 C 125.838 112.679, 116.544 116.129, 116.418 116.260 C 116.178 116.513, 133.040 165.233, 133.588 165.870 C 133.763 166.073, 142.139 167.738, 152.203 169.571 C 162.266 171.403, 171.493 173.083, 172.707 173.304 C 175.301 173.777, 175.793 174.896, 166.017 158.099 C 162.304 151.719, 156.533 141.048, 153.193 134.386 C 147.911 123.848, 147.288 122.027, 148.406 120.386 C 152.997 113.650, 159.757 101.014, 158.732 101.085 C 158.054 101.132, 148.308 104.512, 137.073 108.596" stroke="none" fill="black" fill-rule="evenodd"/>
</svg>