<svg xmlns="http://www.w3.org/2000/svg" width="200" height="200" viewBox="0 0 200 200" version="1.1">
	<path d="M 54.358 13.750 C 50.355 23.497, 48.258 26.817, 34.148 45.750 C 25.848 56.888, 19.324 66, 19.651 66 C 19.978 66, 19.676 66.686, 18.980 67.524 C 15.886 71.252, 20.216 69.865, 35.546 62.217 C 44.596 57.702, 51.992 54.119, 51.983 54.254 C 51.973 54.389, 50.705 58.775, 49.165 64 C 46.464 73.165, 45.778 74.310, 29.720 96.454 C 20.564 109.078, 13.170 119.502, 13.287 119.618 C 13.404 119.734, 19.688 118.350, 27.250 116.543 C 34.813 114.736, 40.993 113.537, 40.985 113.879 C 40.976 114.220, 40.311 123.950, 39.506 135.500 C 38.701 147.050, 38.033 158.824, 38.021 161.665 L 38 166.829 51.738 176.468 L 65.475 186.106 66.123 183.303 C 66.781 180.455, 68.482 143.414, 69.580 108 L 70.185 88.500 75.650 74.141 C 78.656 66.244, 80.875 59.542, 80.582 59.249 C 80.289 58.955, 74.975 57.059, 68.774 55.035 L 57.500 51.355 60.879 49.585 C 64.143 47.876, 65.192 47.906, 91.822 50.486 C 106.982 51.955, 120.109 53.684, 120.994 54.328 C 121.878 54.973, 127.903 60, 134.381 65.500 C 145.786 75.182, 146.071 75.520, 143.331 76.132 C 141.774 76.479, 129.025 76.822, 115 76.893 C 89.372 77.023, 82 77.523, 82 79.131 C 82 79.609, 90.213 80.004, 100.250 80.009 L 118.500 80.019 126.222 99.469 L 133.945 118.919 123.836 137.710 C 118.276 148.044, 111.764 159.053, 109.364 162.174 C 106.964 165.295, 105 168.232, 105 168.701 C 105 169.701, 151.750 180.584, 152.560 179.773 C 154.007 178.326, 159.036 126.321, 159.801 104.889 L 160.645 81.277 167 73.389 C 170.495 69.050, 173.726 65.003, 174.179 64.396 C 174.713 63.679, 172.434 61.707, 167.685 58.776 L 160.368 54.260 140.706 52.455 L 121.043 50.650 114.965 45.575 L 108.887 40.500 120.694 40.297 C 132.906 40.086, 179.515 37.140, 181.785 36.435 C 182.505 36.211, 178.436 31.744, 172.525 26.268 C 166.726 20.896, 162.179 15.982, 162.421 15.348 C 162.675 14.685, 161.455 13.933, 159.542 13.574 C 156.184 12.944, 78.094 10.045, 63.699 10.016 L 55.898 10 54.358 13.750 M 55.070 19.250 C 53.395 23.577, 48.083 31.577, 37.807 45.250 C 29.642 56.112, 23.271 65, 23.648 65 C 24.529 65, 47.223 53.055, 48.349 51.999 C 48.816 51.561, 47.803 50.896, 46.099 50.522 C 44.394 50.147, 43 49.530, 43 49.150 C 43 48.460, 53.502 45.036, 62 42.957 C 66.246 41.918, 66.948 41.210, 74.431 30.428 C 78.793 24.142, 82.689 19, 83.088 19 C 83.487 19, 87.297 21.960, 91.554 25.578 C 96.184 29.512, 99.939 31.975, 100.897 31.706 C 126.848 24.415, 152.820 16.443, 152.248 15.945 C 151.584 15.367, 78.804 12.937, 63.495 12.982 L 57.490 13 55.070 19.250 M 140.500 22.949 C 131.700 25.569, 119.413 29.193, 113.196 31.002 C 106.731 32.883, 102.266 34.666, 102.766 35.166 C 103.267 35.667, 113.459 34.508, 126.571 32.459 C 147.343 29.213, 149.690 28.648, 151.525 26.453 C 153.515 24.073, 157.408 17.911, 156.807 18.093 C 156.638 18.144, 149.300 20.329, 140.500 22.949 M 156.019 24.972 C 153.768 28.287, 151.830 31.032, 151.713 31.070 C 151.596 31.109, 143.850 32.414, 134.500 33.971 L 117.500 36.802 129.107 36.901 C 139.815 36.992, 161.433 35.726, 171.885 34.395 L 176.271 33.837 170.885 28.341 C 167.923 25.318, 164.288 21.967, 162.806 20.894 L 160.113 18.944 156.019 24.972 M 77.191 31.250 C 73.943 35.788, 71.398 39.640, 71.536 39.810 C 71.743 40.066, 90.197 35.029, 94.836 33.451 C 95.659 33.171, 93.878 31.081, 90.189 27.999 C 86.899 25.249, 83.957 23, 83.652 23 C 83.347 23, 80.439 26.712, 77.191 31.250 M 83.632 39.564 C 75.455 41.950, 68.528 44.139, 68.239 44.428 C 67.311 45.355, 70.141 45.770, 89 47.472 C 99.175 48.390, 109.300 49.363, 111.500 49.633 L 115.500 50.125 110 45.073 C 105.763 41.182, 103.754 40.020, 101.250 40.011 C 98.039 40, 96.554 37.649, 99.201 36.766 C 99.885 36.538, 99.992 36.121, 99.451 35.796 C 98.928 35.482, 91.809 37.178, 83.632 39.564 M 52.513 62.650 C 48.857 75.037, 49.699 73.554, 34.149 94.972 C 26.396 105.650, 20.238 114.571, 20.463 114.796 C 20.688 115.021, 25.896 114.004, 32.036 112.536 C 38.176 111.068, 43.379 110.046, 43.598 110.265 C 43.972 110.639, 41.591 149.925, 40.570 160.213 L 40.103 164.925 51.631 173.050 C 57.972 177.518, 63.297 181.022, 63.465 180.837 C 63.971 180.278, 65.959 137.083, 66.632 112 L 67.263 88.500 72.131 75.663 C 74.809 68.603, 76.993 62.303, 76.985 61.663 C 76.973 60.730, 66.958 57.056, 56.813 54.264 C 55.447 53.888, 54.628 55.485, 52.513 62.650 M 126.865 55.338 C 127.476 56.073, 133.804 61.586, 140.928 67.588 L 153.881 78.500 138.418 79.106 C 129.913 79.439, 122.685 79.981, 122.356 80.310 C 122.027 80.639, 125.188 89.482, 129.381 99.962 L 137.004 119.015 126.415 138.682 C 120.591 149.498, 114.261 160.398, 112.348 162.902 C 110.436 165.407, 109.237 167.570, 109.685 167.708 C 112.936 168.709, 150.287 177.033, 150.473 176.798 C 151.600 175.373, 156.321 123.798, 157.072 104.716 L 158.023 80.555 161.205 76.527 C 162.955 74.312, 165.893 70.631, 167.734 68.347 L 171.082 64.194 165.220 60.633 C 159.659 57.255, 158.572 56.994, 144.039 55.536 C 125.083 53.635, 125.456 53.640, 126.865 55.338" stroke="none" fill="black" fill-rule="evenodd"/>
</svg>