<svg xmlns="http://www.w3.org/2000/svg" width="200" height="200" viewBox="0 0 200 200" version="1.1">
	<path d="M 149.176 22.057 L 136.993 32.115 119.247 31.996 C 56.229 31.574, 26 32.020, 26 33.371 C 26 34.362, 30.013 35.385, 40.481 37.065 L 54.962 39.389 54.342 51.444 C 54.001 58.075, 53.672 63.531, 53.611 63.569 C 53.550 63.606, 46.750 66.380, 38.500 69.732 L 23.500 75.827 23.668 99.663 C 23.913 134.508, 26.106 187, 27.317 187 C 27.872 187, 37.457 182.275, 48.616 176.500 L 68.907 166 95.589 166 L 122.271 166 143.089 177 C 154.539 183.050, 164.265 188, 164.703 187.999 C 165.142 187.998, 168.105 177.761, 171.290 165.249 L 177.080 142.500 177.040 112.169 L 177 81.839 168.831 69.933 C 161.612 59.413, 160.274 57.967, 157.331 57.514 C 155.499 57.231, 152.328 56.736, 150.284 56.414 L 146.569 55.828 153.034 49.662 C 156.590 46.271, 162.813 40.420, 166.862 36.660 C 171.333 32.508, 173.863 29.463, 173.306 28.906 C 172.464 28.064, 113.726 51.921, 111.677 53.936 C 111.225 54.381, 116.155 55.317, 122.633 56.014 C 141.033 57.996, 140.459 57.486, 132.487 64.790 C 128.760 68.206, 125.213 71.004, 124.605 71.009 C 123.997 71.014, 118.888 69.380, 113.250 67.377 L 103 63.736 103 49.368 L 103 35 120.370 35 L 137.739 35 150.314 24.750 C 161.441 15.680, 164.866 12, 162.180 12 C 161.728 12, 155.877 16.526, 149.176 22.057 M 142.829 43.311 C 130.910 48.360, 121.279 52.612, 121.427 52.760 C 121.575 52.908, 126.342 53.629, 132.020 54.361 L 142.344 55.694 153.672 45.234 C 163.503 36.157, 165.870 33.771, 164.750 34.066 C 164.613 34.102, 154.748 38.262, 142.829 43.311 M 52.888 36.081 C 55.302 36.555, 57.337 37.068, 57.411 37.221 C 57.486 37.375, 57.311 43.768, 57.023 51.428 L 56.500 65.357 41.500 71.431 L 26.500 77.504 26.713 107.002 C 26.917 135.183, 28.609 181.943, 29.456 182.789 C 29.677 183.010, 38.153 178.873, 48.291 173.595 C 65.196 164.796, 67.214 163.991, 72.613 163.891 C 75.851 163.832, 81.200 163.494, 84.500 163.141 C 89.769 162.578, 88.062 162.269, 70.500 160.601 C 59.500 159.557, 49.794 158.432, 48.931 158.101 C 47.725 157.639, 51.163 152.522, 63.779 136 C 72.808 124.175, 80.845 113.540, 81.637 112.366 C 82.835 110.592, 88 89.207, 88 86.020 C 88 84.965, 73.157 73.467, 72.623 74.109 C 72.445 74.324, 70.628 81.700, 68.585 90.500 C 65.616 103.296, 63.745 108.857, 59.243 118.269 C 56.147 124.742, 53.138 129.879, 52.557 129.686 C 51.976 129.492, 51.500 128.921, 51.500 128.417 C 51.500 127.913, 55.087 113.910, 59.472 97.301 C 66.455 70.846, 67.675 67.127, 69.314 67.301 C 70.917 67.472, 71.654 65.597, 74.460 54.216 C 76.261 46.910, 77.907 40.769, 78.117 40.571 C 78.328 40.372, 83.225 44.634, 89 50.043 C 96.321 56.900, 99.562 59.366, 99.706 58.188 C 99.820 57.260, 100.056 51.663, 100.232 45.750 L 100.551 35 74.525 35.110 C 56.946 35.184, 49.924 35.499, 52.888 36.081 M 76.688 57.250 C 75.189 63.438, 73.972 69.048, 73.982 69.717 C 74.011 71.659, 88.377 82.094, 89.097 80.695 C 89.435 80.038, 90.537 75.338, 91.547 70.250 C 92.910 63.378, 93.783 60.987, 94.941 60.951 C 96.322 60.908, 81.398 46, 79.974 46 C 79.665 46, 78.186 51.063, 76.688 57.250 M 135.108 65.888 L 127.716 72.689 141.895 77.500 C 149.693 80.146, 156.250 82.595, 156.465 82.943 C 156.680 83.291, 152.318 90.533, 146.772 99.038 L 136.689 114.500 131.094 94.612 L 125.500 74.725 110.676 69.474 C 101.078 66.075, 95.724 64.626, 95.492 65.362 C 94.572 68.274, 92 81.099, 92 82.773 C 92 83.888, 94.133 86.197, 97.250 88.458 C 100.929 91.127, 105.941 96.934, 114 107.865 C 121.780 118.419, 130.450 128.523, 140.805 139.102 L 156.109 154.739 141.805 156.950 C 133.937 158.166, 122.325 159.979, 116 160.979 L 104.500 162.796 113.347 162.898 L 122.195 163 141.847 173.250 C 152.656 178.887, 161.968 183.627, 162.539 183.783 C 163.117 183.940, 165.903 175.071, 168.820 163.783 L 174.063 143.500 174.031 112.807 L 174 82.114 166.443 71.307 C 158.981 60.636, 158.826 60.492, 154.193 59.838 C 143.683 58.354, 143.094 58.541, 135.108 65.888 M 64.144 90.603 C 57.376 116.212, 57.636 115.012, 59.585 111.580 C 61.332 108.501, 70.270 73.309, 69.721 71.664 C 69.546 71.137, 67.036 79.659, 64.144 90.603 M 129.331 77.599 C 129.640 78.644, 131.577 85.688, 133.636 93.250 C 135.695 100.813, 137.633 107, 137.941 107 C 138.379 107, 148.024 92.462, 152.235 85.455 C 152.752 84.594, 149.941 83.184, 142.735 80.689 C 137.106 78.740, 131.661 76.820, 130.635 76.422 C 129.130 75.838, 128.878 76.065, 129.331 77.599 M 90.665 88.750 C 90.415 89.162, 89.216 94.435, 87.999 100.467 L 85.787 111.434 68.879 133.717 C 56.836 149.589, 52.479 156.016, 53.736 156.055 C 54.706 156.085, 65.175 157.138, 77 158.395 L 98.500 160.680 123.891 156.840 C 137.856 154.728, 149.549 153, 149.876 153 C 150.204 153, 144.792 147.262, 137.850 140.250 C 129.616 131.932, 121.069 121.852, 113.261 111.252 C 106.187 101.648, 99.417 93.572, 96.706 91.502 C 91.832 87.780, 91.376 87.573, 90.665 88.750" stroke="none" fill="black" fill-rule="evenodd"/>
</svg>