<svg xmlns="http://www.w3.org/2000/svg" width="200" height="200" viewBox="0 0 200 200" version="1.1">
	<path d="M 107.500 22.591 C 81.300 30.714, 79.824 31.048, 57.687 33.878 C 45.139 35.481, 34.663 37.004, 34.406 37.261 C 34.149 37.518, 31.877 46.841, 29.358 57.979 L 24.777 78.229 31.660 85.364 C 45.442 99.652, 43.820 95.783, 47.080 122.156 C 48.666 134.995, 49.973 146.740, 49.982 148.255 C 49.993 149.860, 47.022 156.235, 42.870 163.521 L 35.741 176.031 38.507 182.266 C 40.028 185.695, 41.398 188.649, 41.552 188.832 C 41.705 189.015, 53.863 179.896, 68.568 168.568 C 83.274 157.241, 95.468 148.135, 95.667 148.333 C 95.865 148.532, 98.040 154.232, 100.500 161 C 102.960 167.768, 105.152 173.485, 105.371 173.704 C 105.590 173.923, 118.005 177.386, 132.960 181.399 L 160.151 188.695 173.015 171.404 C 180.091 161.894, 186.594 153.023, 187.467 151.690 C 188.997 149.356, 188.971 149.282, 186.778 149.682 C 171.456 152.475, 134.462 158.795, 134.312 158.646 C 134.204 158.538, 138.477 153.702, 143.808 147.900 L 153.500 137.351 157.724 108.926 C 160.933 87.325, 162.102 76.032, 162.590 61.890 L 163.232 43.280 156.386 34.140 C 152.621 29.113, 149.303 25, 149.014 25 C 148.725 25, 146.438 28.411, 143.932 32.580 L 139.376 40.160 124.037 47.080 C 115.600 50.886, 108.328 54, 107.877 54 C 106.868 54, 103.675 43.335, 104.354 42.236 C 104.623 41.801, 112.029 35.855, 120.812 29.021 C 130.561 21.437, 136.588 16.091, 136.284 15.298 C 136.010 14.584, 135.497 14.050, 135.143 14.110 C 134.789 14.171, 122.350 17.987, 107.500 22.591 M 103.640 26.559 C 81.126 33.491, 78.554 34.057, 58.057 36.605 L 36.334 39.306 32.070 58.267 L 27.807 77.227 32.145 81.864 C 34.532 84.414, 38.823 88.975, 41.681 92 L 46.878 97.500 50.084 124.128 L 53.289 150.757 46.027 163.453 L 38.764 176.150 40.534 180.075 C 41.507 182.234, 42.704 184, 43.192 184 C 43.681 184, 55.809 175.002, 70.143 164.004 C 84.477 153.007, 96.546 144.219, 96.962 144.476 C 97.378 144.734, 99.836 150.969, 102.423 158.333 L 107.128 171.722 132.556 178.447 C 146.542 182.146, 158.431 185.021, 158.976 184.836 C 159.878 184.530, 183.065 153.716, 182.670 153.348 C 182.576 153.261, 170.125 155.355, 155 158 C 139.875 160.645, 127.364 162.679, 127.198 162.520 C 127.032 162.360, 132.269 156.429, 138.836 149.340 L 150.776 136.450 154.942 109.475 C 158.275 87.887, 159.227 78.672, 159.707 63.329 L 160.307 44.159 155.059 37.079 C 152.172 33.186, 149.516 30.009, 149.155 30.020 C 148.795 30.031, 147.037 32.541, 145.250 35.599 C 142.125 40.947, 142 41.575, 142 52.012 C 142 64.229, 142.646 63.327, 133.018 64.553 C 127.265 65.286, 125.087 66.947, 125.032 70.643 C 125.014 71.822, 124.373 73.026, 123.608 73.320 C 122.842 73.614, 119.242 78.790, 115.608 84.821 C 109.083 95.651, 109 95.879, 109 103.026 L 109 110.263 105.021 109.730 C 101.322 109.234, 100.891 109.441, 98.894 112.671 C 97.713 114.583, 97.141 116.486, 97.623 116.902 C 98.105 117.317, 103.675 118.442, 110 119.401 C 116.325 120.360, 122.513 121.386, 123.750 121.681 C 126.102 122.241, 126.921 124.980, 124.750 125.027 C 124.063 125.041, 108.656 126.810, 90.513 128.956 C 72.370 131.103, 57.367 132.700, 57.172 132.505 C 56.977 132.310, 63.580 126.604, 71.845 119.825 C 80.110 113.046, 86.902 107.243, 86.936 106.929 C 86.971 106.615, 80.026 105.040, 71.502 103.429 C 62.978 101.818, 56.003 100.263, 56.002 99.973 C 56.001 99.682, 62.723 96.532, 70.940 92.973 C 79.157 89.413, 85.570 86.237, 85.190 85.916 C 84.811 85.595, 79.444 83.179, 73.266 80.546 C 67.087 77.913, 62.241 75.418, 62.498 75.002 C 62.756 74.586, 65.449 73.238, 68.483 72.007 C 71.517 70.775, 74 69.381, 74 68.909 C 74 68.437, 69.756 63.629, 64.568 58.224 C 58.033 51.416, 55.388 47.990, 55.956 47.071 C 56.407 46.341, 57.226 46.022, 57.777 46.362 C 58.327 46.702, 67.095 49.871, 77.263 53.404 L 95.749 59.829 100.294 57.664 L 104.838 55.500 102.934 49.500 C 101.886 46.200, 101.023 42.967, 101.015 42.315 C 101.007 41.663, 106.063 37.189, 112.250 32.372 C 127.023 20.871, 129.316 18.979, 128.327 19.106 C 127.872 19.165, 116.763 22.518, 103.640 26.559 M 121.339 51.174 L 108.178 57.211 109.440 60.856 C 110.133 62.860, 111.106 64.487, 111.601 64.472 C 112.095 64.457, 115.500 64.087, 119.167 63.651 L 125.833 62.859 130.917 54.353 C 133.712 49.675, 136 45.657, 136 45.424 C 136 44.566, 134.231 45.260, 121.339 51.174 M 134.525 53.617 C 131.982 57.807, 130.107 61.440, 130.359 61.692 C 130.611 61.944, 132.883 61.840, 135.408 61.461 L 140 60.773 140 53.386 C 140 49.324, 139.809 46, 139.575 46 C 139.341 46, 137.069 49.428, 134.525 53.617 M 69.013 59.015 C 72.987 63.423, 76.588 67.246, 77.016 67.510 C 77.898 68.055, 91.328 61.995, 90.679 61.345 C 90.265 60.932, 62.886 51, 62.160 51 C 61.956 51, 65.039 54.607, 69.013 59.015 M 95.306 62.919 C 89.700 65.409, 85.275 67.608, 85.472 67.806 C 85.987 68.320, 105.278 65.872, 106.608 65.123 C 107.419 64.667, 107.419 63.681, 106.608 61.446 L 105.500 58.393 95.306 62.919 M 116.004 66.742 C 114.081 66.974, 111.963 67.615, 111.298 68.168 C 110.632 68.720, 109.621 68.884, 109.050 68.531 C 108.479 68.178, 101.440 68.845, 93.407 70.014 C 85.374 71.182, 78.271 71.934, 77.622 71.685 C 76.974 71.437, 74.581 72.193, 72.304 73.367 L 68.164 75.500 78.973 80.110 L 89.782 84.721 105.041 78.014 C 115.574 73.384, 120.900 70.485, 122.234 68.653 L 124.167 66 121.833 66.160 C 120.550 66.248, 117.927 66.510, 116.004 66.742 M 104.500 83.012 C 97.504 86.790, 92.823 88.742, 91.639 88.374 C 89.912 87.836, 64.999 97.755, 65.001 98.980 C 65.002 99.974, 89.916 104.170, 91.204 103.392 C 91.917 102.962, 95.952 99.731, 100.171 96.211 C 104.391 92.692, 108.216 89.789, 108.671 89.760 C 109.127 89.731, 110.335 88.310, 111.355 86.603 C 112.376 84.897, 114.100 82.037, 115.187 80.250 C 116.274 78.463, 116.789 77.016, 116.332 77.036 C 115.874 77.056, 110.550 79.745, 104.500 83.012 M 99.708 100.010 C 94.011 104.859, 93.959 104.952, 96.531 105.597 C 97.969 105.958, 99.504 105.859, 99.940 105.377 C 101.027 104.176, 106.274 94.990, 105.845 95.039 C 105.655 95.061, 102.893 97.297, 99.708 100.010 M 104.035 103.934 C 102.653 106.518, 102.726 107, 104.500 107 C 105.433 107, 106 106.056, 106 104.500 C 106 101.499, 105.427 101.334, 104.035 103.934 M 77.833 118.258 L 64.500 129.285 69 128.728 C 71.475 128.421, 82.363 127.150, 93.196 125.902 C 104.029 124.655, 112.712 123.342, 112.491 122.985 C 112.270 122.628, 108.132 121.756, 103.295 121.049 C 98.458 120.342, 93.961 119.474, 93.302 119.121 C 92.457 118.668, 92.979 117.073, 95.069 113.715 C 97.138 110.391, 97.651 108.834, 96.767 108.564 C 91.642 107.002, 91.117 107.271, 77.833 118.258" stroke="none" fill="black" fill-rule="evenodd"/>
</svg>