<svg xmlns="http://www.w3.org/2000/svg" width="200" height="200" viewBox="0 0 200 200" version="1.1">
	<path d="M 56.090 27.286 L 35.680 41.500 25.729 69.306 C 20.256 84.599, 15.980 97.313, 16.226 97.559 C 16.472 97.805, 24.442 95.275, 33.936 91.936 C 43.431 88.597, 51.310 86.008, 51.447 86.183 C 51.583 86.357, 50.240 98.200, 48.461 112.500 C 45.759 134.231, 43 166.559, 43 176.496 L 43 179 53.250 179.014 C 63.178 179.027, 64.151 178.817, 84.203 172.348 L 104.905 165.669 136.483 175.471 C 153.851 180.862, 168.190 185.099, 168.347 184.886 C 168.505 184.674, 167.083 178.993, 165.187 172.261 L 161.740 160.023 151.870 149.607 C 146.441 143.879, 142 138.873, 142 138.484 C 142 138.094, 150.174 126.464, 160.165 112.638 C 170.156 98.812, 178.331 86.993, 178.332 86.374 C 178.334 84.904, 163.071 47.856, 161.833 46.328 C 160.820 45.077, 130.522 24, 129.736 24 C 129.480 24, 127.782 27.487, 125.963 31.750 C 124.145 36.013, 122.362 39.850, 122.002 40.277 C 121.641 40.704, 113.287 36.074, 103.436 29.988 C 93.585 23.902, 85.379 19.364, 85.199 19.903 C 85.019 20.442, 86.097 24.964, 87.594 29.951 C 89.090 34.938, 90.053 39.281, 89.732 39.601 C 88.854 40.480, 67 37.786, 67 36.799 C 67 36.328, 68.350 33.269, 70 30 C 74.674 20.741, 77.959 12.996, 77.195 13.036 C 76.813 13.056, 67.315 19.468, 56.090 27.286 M 54.626 31.480 C 46.445 37.183, 39.339 42.261, 38.836 42.764 C 37.910 43.690, 19.824 93.173, 20.263 93.578 C 20.393 93.699, 28.600 90.921, 38.500 87.406 C 54.620 81.681, 57.300 81.013, 64.156 81.007 L 71.812 81 73.271 76.718 L 74.730 72.437 64.872 68.468 C 59.450 66.286, 55.028 64.275, 55.045 64 C 55.061 63.725, 61.851 58.775, 70.133 53 L 85.191 42.500 74.403 41.225 C 68.470 40.523, 63.386 39.719, 63.104 39.437 C 62.822 39.155, 64.483 35.110, 66.796 30.448 C 69.108 25.785, 71 21.752, 71 21.485 C 71 20.277, 68.567 21.762, 54.626 31.480 M 89.309 26.363 C 89.670 27.304, 90.698 30.645, 91.594 33.787 C 92.489 36.929, 93.509 39.798, 93.861 40.162 C 94.212 40.527, 98.504 41.306, 103.399 41.894 C 112.651 43.006, 113.559 43.286, 112.659 44.742 C 112.351 45.241, 108.629 45.226, 103.995 44.707 C 99.526 44.206, 95.633 44.034, 95.342 44.325 C 94.462 45.204, 101.292 67.175, 102.601 67.677 C 103.271 67.934, 111.397 65.681, 120.660 62.671 C 139.992 56.388, 141.154 56.107, 141.680 57.602 C 141.894 58.208, 133.728 63.074, 123.534 68.415 C 113.340 73.756, 105 78.548, 105 79.063 C 105 79.610, 112.246 80, 122.392 80 L 139.783 80 137.983 88.075 C 136.993 92.516, 135.962 96.372, 135.691 96.643 C 135.420 96.914, 129.416 96.469, 122.349 95.654 C 115.282 94.839, 109.455 94.246, 109.401 94.336 C 109.346 94.426, 109.667 95.850, 110.114 97.500 C 110.901 100.406, 111.087 100.489, 116.081 100.146 C 121.970 99.741, 122.634 101.589, 117.261 103.431 C 112.800 104.961, 112.644 105.330, 114.081 110.941 C 115.311 115.740, 115.548 116, 118.689 116 C 122.697 116, 123.293 118.637, 119.500 119.589 C 118.125 119.934, 117.011 120.506, 117.025 120.858 C 117.039 121.211, 118.812 127.339, 120.966 134.476 C 123.119 141.613, 124.772 147.561, 124.639 147.695 C 124.187 148.146, 65.008 134.505, 65.004 133.948 C 65.002 133.645, 75.125 130.288, 87.500 126.489 C 99.875 122.690, 110 119.226, 110 118.791 C 110 118.356, 100.550 118, 89 118 C 72.197 118, 68 117.734, 68 116.670 C 68 115.811, 74.369 113.451, 85.997 110.001 C 95.895 107.064, 103.853 104.520, 103.682 104.348 C 103.510 104.176, 94.632 104.899, 83.953 105.953 C 73.275 107.008, 64.327 107.660, 64.068 107.401 C 63.810 107.143, 64.802 103.260, 66.273 98.773 C 67.744 94.285, 68.728 90.395, 68.460 90.127 C 67.944 89.610, 54.789 87.869, 54.413 88.267 C 54.293 88.395, 52.799 99.750, 51.094 113.500 C 48.315 135.924, 46.058 162.032, 46.015 172.250 L 46 176 54.881 176 C 63.084 176, 65.316 175.499, 84.131 169.437 C 103.115 163.321, 104.772 162.952, 108.500 164.015 C 110.700 164.642, 123.979 168.721, 138.008 173.078 C 152.037 177.435, 163.781 181, 164.104 181 C 164.428 181, 163.525 176.667, 162.096 171.371 L 159.500 161.742 148.788 150.188 L 138.076 138.634 141.361 134.067 C 143.168 131.555, 151.648 119.788, 160.205 107.919 L 175.765 86.337 168.132 67.919 C 163.935 57.788, 160.144 48.951, 159.709 48.279 C 158.753 46.803, 131.006 27.649, 130.548 28.148 C 130.370 28.342, 128.799 31.875, 127.055 36 C 125.312 40.125, 123.557 43.832, 123.155 44.237 C 122.754 44.643, 115.467 40.652, 106.963 35.369 C 89.349 24.427, 88.375 23.930, 89.309 26.363 M 84.652 50.521 C 83.261 54.657, 82.554 57.776, 83.080 57.451 C 83.606 57.125, 85.716 57.861, 87.768 59.084 C 89.821 60.308, 92.950 62.168, 94.721 63.218 L 97.943 65.128 96.461 60.314 C 95.645 57.666, 94.214 52.688, 93.280 49.250 C 91.851 43.991, 91.233 43, 89.381 43 C 87.533 43, 86.776 44.204, 84.652 50.521 M 70.692 55.918 L 59.884 63.500 63.192 64.859 C 65.011 65.606, 68.572 67.037, 71.105 68.037 L 75.710 69.856 78.987 59.393 C 80.789 53.638, 82.091 48.796, 81.882 48.633 C 81.672 48.470, 76.636 51.749, 70.692 55.918 M 81.566 60.219 C 81.349 60.923, 80.495 63.608, 79.668 66.185 L 78.166 70.869 86.333 74.288 C 90.825 76.168, 95.449 78.008, 96.609 78.376 C 102.423 80.221, 101.538 69.648, 95.630 66.688 C 93.909 65.825, 90.129 63.729, 87.231 62.029 C 83.498 59.839, 81.846 59.311, 81.566 60.219 M 112.250 68.175 C 104.803 70.562, 103 71.517, 103 73.070 C 103 75.579, 104.077 75.504, 109.783 72.597 C 116.881 68.982, 123.629 65.012, 122.500 65.117 C 121.950 65.168, 117.338 66.544, 112.250 68.175 M 76.098 77.149 C 75.494 78.881, 75 80.456, 75 80.649 C 75 80.842, 79.140 81, 84.200 81 C 89.260 81, 92.972 80.626, 92.450 80.169 C 91.311 79.172, 79.223 74, 78.032 74 C 77.572 74, 76.702 75.417, 76.098 77.149 M 76 83.880 C 74.625 84.271, 73.500 85.240, 73.500 86.035 C 73.500 87.158, 76.939 87.859, 88.969 89.187 C 97.477 90.126, 104.590 90.743, 104.776 90.557 C 104.962 90.371, 104.723 88.707, 104.245 86.860 L 103.376 83.500 90.938 83.335 C 84.097 83.245, 77.375 83.490, 76 83.880 M 106.397 84.593 C 106.733 85.469, 107.281 87.273, 107.615 88.602 C 107.965 89.996, 109.126 91.193, 110.361 91.433 C 112.630 91.874, 131.231 94, 132.823 94 C 133.667 94, 136 86.698, 136 84.057 C 136 83.361, 130.842 83, 120.893 83 C 107.484 83, 105.855 83.179, 106.397 84.593 M 55 85 C 55 85.881, 57.881 86.208, 67.667 86.438 C 69.133 86.472, 70.521 85.938, 70.750 85.250 C 71.060 84.319, 69.106 84, 63.083 84 C 58.361 84, 55 84.416, 55 85 M 69.677 97.446 L 67.114 105.069 70.307 104.543 C 72.063 104.254, 81.126 103.325, 90.447 102.478 C 99.769 101.631, 107.553 100.780, 107.746 100.587 C 108.766 99.568, 106.452 94.747, 104.623 94.081 C 103.455 93.655, 97.100 92.765, 90.500 92.103 C 83.900 91.441, 77.092 90.657, 75.370 90.361 C 72.254 89.825, 72.230 89.854, 69.677 97.446 M 94.003 110.360 L 80.507 114.500 85.003 115.176 C 93.324 116.427, 112.001 116.132, 111.994 114.750 C 111.981 111.736, 109.800 106.010, 108.703 106.110 C 108.041 106.170, 101.426 108.083, 94.003 110.360 M 97 126.425 C 87.925 129.256, 78.935 132.021, 77.022 132.568 C 73.843 133.477, 75.554 134.016, 96.894 138.826 C 109.737 141.720, 120.355 143.956, 120.491 143.794 C 120.881 143.328, 114.872 122.568, 114.150 121.888 C 113.792 121.552, 106.075 123.593, 97 126.425" stroke="none" fill="black" fill-rule="evenodd"/>
</svg>