<svg xmlns="http://www.w3.org/2000/svg" width="200" height="200" viewBox="0 0 200 200" version="1.1">
	<path d="M 119 18.674 L 95.500 25.162 67.102 25.009 L 38.704 24.856 39.512 35.178 C 39.957 40.855, 40.372 62.769, 40.434 83.875 L 40.547 122.250 51.742 129.875 C 57.898 134.069, 62.950 137.851, 62.968 138.280 C 62.986 138.709, 54.900 147.796, 45 158.473 C 35.100 169.150, 27 178.059, 27 178.272 C 27 178.484, 29.191 179.685, 31.870 180.939 L 36.740 183.220 58.067 171.358 L 79.394 159.495 89.066 138.713 L 98.739 117.931 99.381 130.215 C 99.735 136.972, 100.292 147.034, 100.619 152.575 L 101.215 162.650 116.977 174.296 L 132.738 185.943 157.580 181.927 C 171.243 179.718, 182.634 177.700, 182.892 177.441 C 183.407 176.926, 179.059 137.913, 178.073 134.197 C 177.527 132.141, 176.012 133.471, 163.981 146.575 L 150.500 161.257 136.781 146.898 C 129.235 139, 123.385 132.259, 123.781 131.917 C 124.176 131.574, 130.504 130.235, 137.842 128.940 C 145.180 127.645, 151.747 126.116, 152.434 125.543 C 154.955 123.440, 161.051 34, 158.674 34 C 158.321 34, 148.982 39.625, 137.921 46.500 L 117.810 59 96.373 59 C 80.115 59, 74.836 59.302, 74.518 60.250 C 74.287 60.938, 73.609 63.413, 73.011 65.750 C 71.917 70.024, 70.182 71.036, 67.196 69.142 C 66.188 68.503, 67.014 65.916, 70.830 57.766 L 75.768 47.217 82.301 48.781 L 88.835 50.344 110.343 42.060 C 126.200 35.953, 131.712 33.412, 131.319 32.388 C 130.887 31.263, 126.496 30.988, 108.143 30.937 C 91.637 30.890, 86.178 30.595, 88 29.846 C 89.407 29.267, 97.529 28.876, 106.583 28.951 L 122.666 29.084 133.688 21.792 C 140.108 17.545, 144.528 13.978, 144.272 13.250 C 143.722 11.684, 146.401 11.109, 119 18.674 M 119 21.515 L 103.500 25.844 112.930 25.922 C 122.340 26, 122.374 25.991, 128.680 21.883 C 132.156 19.618, 135 17.593, 135 17.383 C 135 17.172, 134.887 17.042, 134.750 17.093 C 134.613 17.145, 127.525 19.135, 119 21.515 M 42.592 43.250 C 43.043 51.638, 43.325 72.486, 43.220 89.581 L 43.028 120.662 55.014 128.886 C 61.606 133.410, 67 137.431, 67 137.823 C 67 138.215, 58.935 147.303, 49.078 158.018 L 31.155 177.500 33.887 178.841 C 36.495 180.122, 37.538 179.670, 56.973 168.841 L 77.328 157.500 87.883 134.750 C 93.689 122.237, 99.015 112, 99.719 112 C 100.424 112, 101.044 112.112, 101.097 112.250 C 101.150 112.388, 101.770 123.432, 102.474 136.794 C 103.178 150.155, 103.922 161.222, 104.127 161.386 C 104.332 161.551, 110.922 166.500, 118.770 172.385 L 133.040 183.083 156.520 179.317 C 179.976 175.555, 180 175.549, 179.990 173.026 C 179.977 169.723, 176.172 138.839, 175.723 138.390 C 175.533 138.199, 169.783 144.144, 162.945 151.600 L 150.513 165.157 133.878 147.828 C 121.295 134.721, 117.640 130.356, 118.871 129.909 C 119.767 129.584, 127.362 128.042, 135.750 126.483 C 146.725 124.442, 151 123.258, 151 122.259 C 151 121.496, 151.910 111.563, 153.023 100.186 C 155.154 78.403, 156.965 38.998, 155.836 38.999 C 154.526 39.001, 124 58.325, 124 59.153 C 124 59.619, 124.938 60, 126.083 60 C 130.867 60, 126.443 62.870, 110.922 69.837 C 92.173 78.253, 90.697 78.998, 82.500 84.185 L 76.500 87.981 101 88.022 C 129.079 88.070, 128.115 87.134, 110.841 97.575 L 100.183 104.017 81.571 105.155 C 71.334 105.780, 62.701 106.035, 62.386 105.720 C 62.071 105.405, 63.851 98.035, 66.341 89.342 C 71.146 72.570, 71.130 72.046, 65.809 72.015 C 64.329 72.007, 62.865 71.590, 62.555 71.089 C 62.245 70.588, 64.469 64.907, 67.496 58.464 C 70.523 52.021, 73 46.641, 73 46.507 C 73 46.373, 70.300 45.506, 67 44.580 C 61.405 43.010, 60.180 42.154, 61.558 40.776 C 61.864 40.469, 64.802 41.032, 68.085 42.026 L 74.055 43.833 77.085 37.831 C 79.665 32.721, 79.847 31.906, 78.308 32.349 C 70.006 34.741, 48.912 40, 47.620 40 C 46.729 40, 46 39.582, 46 39.071 C 46 38.094, 48.462 37.318, 69.500 31.663 L 82.500 28.169 62.137 28.085 L 41.774 28 42.592 43.250 M 79.643 38.656 C 78.137 41.726, 77.039 44.328, 77.202 44.439 C 78.108 45.049, 86.014 47.002, 87.616 47.010 C 89.387 47.020, 122.334 34.937, 121.765 34.486 C 121.619 34.371, 112.698 34.006, 101.940 33.675 L 82.380 33.074 79.643 38.656 M 76.098 65.149 C 74.256 70.433, 74.465 70.616, 84.250 72.262 L 93.500 73.818 102.750 68.272 C 107.838 65.222, 112 62.563, 112 62.363 C 112 62.163, 104.169 62, 94.598 62 L 77.196 62 76.098 65.149 M 115 64.082 L 112.500 66.120 116 64.433 C 120.280 62.369, 120.735 61.994, 118.917 62.022 C 118.138 62.034, 116.375 62.962, 115 64.082 M 73.482 74.365 C 73.280 74.989, 72.229 78.549, 71.147 82.276 L 69.179 89.053 72.839 86.828 C 74.853 85.605, 79.590 82.698, 83.366 80.369 L 90.233 76.134 86.866 75.543 C 85.015 75.218, 81.329 74.565, 78.674 74.091 C 75.276 73.485, 73.740 73.566, 73.482 74.365 M 68.477 92.250 C 68.224 92.938, 67.382 95.638, 66.607 98.250 L 65.196 103 70.848 102.936 C 73.957 102.901, 81.675 102.517, 88 102.083 C 99.394 101.301, 99.572 101.250, 107.250 96.572 C 111.513 93.975, 115 91.659, 115 91.425 C 115 91.191, 104.636 91, 91.969 91 C 74.455 91, 68.827 91.299, 68.477 92.250" stroke="none" fill="black" fill-rule="evenodd"/>
</svg>