<svg xmlns="http://www.w3.org/2000/svg" width="200" height="200" viewBox="0 0 200 200" version="1.1">
	<path d="M 68.165 18.971 C 50.381 26.466, 35.756 33.026, 35.665 33.549 C 35.570 34.097, 41.797 34.712, 50.361 35 L 65.222 35.500 61.288 39.929 L 57.354 44.359 52.427 43.037 C 49.717 42.310, 47.065 41.667, 46.533 41.607 C 46.002 41.548, 45.099 46.563, 44.527 52.750 C 43.955 58.938, 43.719 64, 44.001 64 C 44.284 64, 47.575 60.400, 51.315 56 C 55.055 51.600, 58.575 48, 59.139 48 C 60.292 48, 83.193 54.859, 83.686 55.353 C 83.861 55.527, 83.333 57.882, 82.513 60.585 C 81.693 63.288, 81.017 66.442, 81.011 67.592 C 81.001 69.431, 79.396 70.111, 67.750 73.203 L 54.500 76.721 51.165 74.245 C 49.289 72.852, 47.453 72.148, 46.967 72.635 C 46.481 73.121, 47.836 77.392, 50.061 82.389 L 54.020 91.279 45.010 90.765 C 37.945 90.362, 36 90.537, 36 91.574 C 36 92.301, 42.288 96.182, 49.972 100.198 C 57.657 104.214, 64.117 107.950, 64.328 108.500 C 64.726 109.540, 44.845 156.179, 44.255 155.588 C 44.070 155.404, 45.306 143.888, 47 129.998 C 48.695 116.108, 49.941 104.324, 49.771 103.812 C 49.498 102.993, 11.864 146.952, 11.268 148.786 C 11.051 149.454, 52.519 193.201, 53.895 193.754 C 54.242 193.894, 60.531 179.973, 67.869 162.818 L 81.211 131.628 79.466 128.564 C 78.507 126.879, 76.781 123.925, 75.632 122 C 73.667 118.709, 73.914 118.827, 79.771 123.972 L 86 129.445 86 158.331 L 86 187.217 88.250 186.659 C 102.471 183.130, 136.640 176.032, 137.610 176.404 C 138.304 176.670, 139.012 176.503, 139.185 176.033 C 139.358 175.563, 143.511 174.327, 148.414 173.285 L 157.328 171.391 162.625 146.445 L 167.921 121.500 163.308 109 C 159.044 97.449, 158.659 95.625, 158.232 84.971 L 157.769 73.441 164.038 58.730 L 170.307 44.018 163.979 36.759 C 160.499 32.766, 157.129 28.915, 156.489 28.199 C 155.553 27.152, 152.454 28.394, 140.609 34.561 C 132.514 38.776, 125.778 42.062, 125.640 41.862 C 124.253 39.866, 106.650 20.018, 106.450 20.225 C 106.303 20.376, 107.928 29.477, 110.060 40.448 C 112.193 51.419, 113.826 60.507, 113.691 60.643 C 113.025 61.308, 88.001 53.363, 88 52.486 C 88 51.928, 90.947 41.420, 94.550 29.135 C 98.152 16.850, 100.964 6.471, 100.800 6.071 C 100.635 5.672, 85.949 11.477, 68.165 18.971 M 88 13.485 C 83.875 15.301, 72.175 20.323, 62 24.644 L 43.500 32.500 56.865 33 L 70.230 33.500 65.472 39.274 C 62.856 42.450, 60.892 45.203, 61.108 45.392 C 62.130 46.289, 84.127 52.207, 84.616 51.717 C 85.177 51.156, 96.949 12.157, 96.982 10.750 C 97.009 9.630, 96.177 9.883, 88 13.485 M 111.589 33.500 C 111.946 35.700, 113.309 42.849, 114.619 49.388 C 115.928 55.926, 117 61.411, 117 61.577 C 117 61.743, 120.883 63.063, 125.629 64.511 C 131.931 66.433, 133.959 67.441, 133.152 68.248 C 132.344 69.056, 130.255 69.024, 125.403 68.130 C 121.750 67.457, 118.605 67.062, 118.415 67.252 C 118.225 67.442, 119.315 74.100, 120.837 82.049 L 123.605 96.500 130.396 97.176 C 134.130 97.548, 137.404 98.071, 137.670 98.337 C 137.936 98.603, 135.419 100.678, 132.077 102.948 C 128.735 105.217, 126 107.479, 126 107.973 C 126 108.467, 128.700 122.879, 132 140 C 135.300 157.121, 138 171.501, 138 171.956 C 138 172.804, 152.847 169.831, 154.875 168.577 C 155.494 168.195, 156 166.885, 156 165.666 C 156 164.447, 158.046 154.049, 160.547 142.560 L 165.093 121.671 160.613 109.435 C 156.585 98.435, 156.064 96.002, 155.461 85.349 L 154.789 73.500 160.881 59.140 C 167.774 42.889, 167.974 45.695, 159.186 35.315 L 154.873 30.220 140.251 37.780 L 125.629 45.341 118.285 37.420 L 110.941 29.500 111.589 33.500 M 47.499 50.007 C 47.112 52.824, 47.016 55.349, 47.285 55.619 C 47.555 55.889, 49.465 54.049, 51.529 51.529 C 53.594 49.010, 55.106 46.788, 54.891 46.591 C 54.676 46.395, 53.083 45.930, 51.352 45.560 C 48.204 44.886, 48.203 44.886, 47.499 50.007 M 86.517 57.146 C 84.760 61.905, 83.296 68.058, 83.847 68.361 C 84.981 68.985, 107.114 62.708, 106.288 61.998 C 105.854 61.625, 101.900 60.284, 97.500 59.018 C 93.100 57.753, 88.941 56.509, 88.258 56.255 C 87.576 56, 86.792 56.402, 86.517 57.146 M 95.689 68.343 L 83.878 71.500 84.392 74.500 C 84.675 76.150, 85.421 81.156, 86.050 85.624 L 87.193 93.747 92.347 94.335 C 95.181 94.659, 102.732 95.228, 109.126 95.601 L 120.752 96.279 118.888 86.389 C 115.141 66.521, 115.060 66.250, 112.701 65.617 C 109.470 64.751, 108.610 64.889, 95.689 68.343 M 65.504 76.488 C 56.997 78.862, 53.144 79.534, 52.258 78.799 C 51.571 78.229, 52.407 80.926, 54.114 84.793 L 57.219 91.822 67.860 92.469 C 73.712 92.824, 79.737 93.350, 81.250 93.637 C 84.476 94.249, 84.509 93.967, 82.670 81.500 C 81.664 74.679, 81.196 73.474, 79.495 73.320 C 78.398 73.222, 72.102 74.647, 65.504 76.488 M 50.863 97.565 C 54.363 99.513, 57.363 100.970, 57.529 100.803 C 57.695 100.636, 57.216 99.037, 56.464 97.250 C 55.165 94.162, 54.833 94.001, 49.798 94.011 L 44.500 94.023 50.863 97.565 M 59 95.912 C 59 96.511, 59.430 97, 59.956 97 C 60.482 97, 62.696 100.037, 64.877 103.750 C 67.513 108.237, 71.752 113.152, 77.521 118.408 L 86.199 126.316 85.849 112.207 C 85.657 104.447, 85.050 97.676, 84.500 97.161 C 82.984 95.741, 59 94.567, 59 95.912 M 88.352 101.549 C 88.708 104.151, 89 111.326, 89 117.495 L 89 128.711 111.747 149.275 C 124.258 160.585, 134.581 169.753, 134.686 169.647 C 134.900 169.434, 124.078 112.249, 123.439 110.215 C 123.174 109.371, 120.258 110.876, 114.949 114.596 C 109.466 118.439, 106.535 119.935, 105.845 119.245 C 105.155 118.555, 107.711 116.253, 113.784 112.094 C 122.526 106.106, 122.724 105.883, 122.080 102.730 C 121.340 99.102, 121.596 99.157, 98.102 97.536 L 87.703 96.819 88.352 101.549 M 124.704 101.976 C 125.228 103.982, 125.836 103.875, 130 101.049 C 131.148 100.269, 130.643 100.027, 127.844 100.015 C 124.691 100.002, 124.258 100.272, 124.704 101.976 M 30.232 129.954 C 21.854 139.889, 15 148.378, 15 148.819 C 15 149.703, 51.659 188.326, 52.937 188.789 C 53.376 188.948, 59.241 176.249, 65.970 160.569 L 78.205 132.060 74.643 125.780 C 72.684 122.326, 70.050 117.840, 68.790 115.812 L 66.500 112.123 54.598 139.596 C 48.052 154.707, 42.285 167.324, 41.782 167.635 C 41.279 167.946, 40.612 167.945, 40.300 167.634 C 39.989 167.322, 41.178 155.117, 42.943 140.511 C 44.707 125.905, 45.997 113.490, 45.807 112.922 C 45.618 112.354, 38.609 120.018, 30.232 129.954 M 88.991 152.595 C 88.987 163.543, 88.699 174.863, 88.352 177.750 C 87.762 182.659, 87.862 183, 89.883 183 C 91.935 183, 133.168 174.089, 133.800 173.509 C 134.045 173.284, 99.080 141.327, 91.223 134.595 L 89 132.690 88.991 152.595" stroke="none" fill="black" fill-rule="evenodd"/>
</svg>