<svg xmlns="http://www.w3.org/2000/svg" width="200" height="200" viewBox="0 0 200 200" version="1.1">
	<path d="M 36.353 30.185 C 25.562 43.767, 25.642 43.556, 24.499 61.650 C 23.846 71.980, 23.931 72.840, 25.647 73.345 C 26.666 73.644, 34.925 75.957, 44 78.485 C 53.075 81.012, 61.238 83.302, 62.141 83.573 C 63.389 83.948, 66.116 80.105, 73.537 67.513 C 78.903 58.409, 83.429 51.096, 83.595 51.262 C 83.762 51.428, 82.384 60.100, 80.533 70.532 C 78.683 80.964, 77.245 89.577, 77.338 89.671 C 77.431 89.764, 87.383 85.392, 99.453 79.953 C 111.523 74.515, 121.504 70.171, 121.634 70.301 C 121.763 70.430, 113.747 76.151, 103.819 83.014 C 85.673 95.559, 81.480 99.189, 84.418 99.813 C 85.849 100.117, 137.720 92.415, 141.276 91.370 C 142.811 90.919, 142.689 91.590, 140.373 96.312 L 137.694 101.775 127.597 104.411 C 117.841 106.958, 115.828 107.097, 68 108.515 C 40.775 109.323, 17.938 109.987, 17.250 109.992 C 16.563 109.996, 16 110.675, 16 111.500 C 16 112.806, 20.701 113, 52.313 113 L 88.626 113 91.395 115.890 C 92.918 117.480, 93.790 118.993, 93.332 119.253 C 92.874 119.513, 89.125 120.520, 85 121.491 C 77.562 123.241, 75.070 124.403, 76.242 125.575 C 76.577 125.910, 82.768 127.676, 90 129.500 C 97.232 131.324, 103.337 133.003, 103.565 133.232 C 103.794 133.461, 93.973 134.194, 81.741 134.862 C 48.787 136.660, 44 137.120, 44 138.484 C 44 139.697, 75.664 141, 105.162 141 C 112.223 141, 118 141.210, 118 141.466 C 118 141.722, 117.269 143.465, 116.376 145.338 L 114.752 148.743 102.626 149.365 C 95.957 149.707, 76.775 150.469, 60 151.059 C 43.225 151.649, 29.095 152.237, 28.599 152.366 C 28.104 152.495, 40.029 159.163, 55.099 167.183 L 82.500 181.766 118.648 182.469 L 154.795 183.172 155.365 179.336 C 155.679 177.226, 157.145 158.850, 158.625 138.500 C 161.269 102.123, 161.357 101.443, 163.907 98.138 C 169.455 90.943, 169.306 92.028, 166.024 82.728 C 164.361 78.015, 163 73.453, 163 72.589 C 163 71.725, 165.475 64.670, 168.500 56.911 C 171.525 49.152, 174 42.623, 174 42.402 C 174 42.181, 173.325 42, 172.500 42 C 170.746 42, 170.656 41.511, 171.960 39.074 C 172.848 37.415, 172.075 37.227, 161.710 36.577 C 155.545 36.190, 150.218 35.565, 149.874 35.187 C 149.530 34.809, 148.031 30.788, 146.542 26.250 C 144.955 21.412, 143.286 18, 142.507 18 C 141.776 18, 130.060 19.811, 116.471 22.025 C 98.888 24.889, 91.400 25.747, 90.499 24.999 C 89.583 24.239, 89.072 24.370, 88.648 25.474 C 87.777 27.745, 85.168 27.401, 66.003 22.487 C 56.379 20.019, 47.949 18, 47.270 18 C 46.590 18, 41.677 23.483, 36.353 30.185 M 38.269 32.107 C 33.446 38.216, 29.219 43.954, 28.875 44.857 C 28.531 45.761, 27.920 51.992, 27.517 58.704 L 26.785 70.908 29.642 71.608 C 31.214 71.992, 39.241 74.235, 47.479 76.591 C 55.718 78.947, 62.518 80.791, 62.590 80.688 C 62.662 80.584, 67.902 71.725, 74.234 61 C 83.444 45.399, 85.941 40.350, 86.721 35.750 C 87.603 30.553, 87.527 30, 85.931 30 C 84.960 30, 76.365 27.978, 66.832 25.507 C 57.300 23.035, 48.946 21.010, 48.269 21.007 C 47.592 21.003, 43.092 25.998, 38.269 32.107 M 114.822 25.007 C 102.348 27.090, 91.661 29.091, 91.072 29.456 C 90.482 29.820, 90.007 31.104, 90.015 32.309 C 90.025 33.697, 90.310 34.061, 90.792 33.303 C 91.210 32.644, 92.077 32.429, 92.717 32.825 C 93.536 33.331, 93.056 34.872, 91.097 38.022 C 88.807 41.704, 87.653 46.211, 84.606 63.367 C 82.568 74.844, 81.071 84.404, 81.279 84.612 C 81.486 84.820, 94.093 79.367, 109.293 72.495 C 124.493 65.623, 137.170 60, 137.465 60 C 137.759 60, 138 60.593, 138 61.319 C 138 62.044, 127.019 70.257, 113.598 79.569 C 100.177 88.881, 89.265 96.555, 89.348 96.622 C 89.482 96.730, 144.450 88.198, 144.533 88.056 C 144.552 88.025, 147.231 82.611, 150.488 76.024 L 156.409 64.049 152.971 53.411 C 150.435 45.564, 149.004 42.575, 147.516 42.017 C 146.407 41.602, 141.900 40.953, 137.500 40.575 C 125.825 39.573, 123 38.952, 123 37.389 C 123 36.280, 125.443 36, 135.107 36 C 146.243 36, 147.157 35.860, 146.499 34.250 C 146.106 33.288, 144.891 29.913, 143.800 26.750 C 142.180 22.053, 141.421 21.020, 139.658 21.110 C 138.471 21.171, 127.295 22.924, 114.822 25.007 M 153.083 39.370 C 154.238 40.395, 168 41.032, 168 40.061 C 168 39.405, 165.070 39, 160.333 39 C 156.117 39, 152.854 39.166, 153.083 39.370 M 155.184 51.070 L 158.298 60.356 162.232 52.538 C 166.572 43.910, 166.372 43.054, 160 43.002 C 158.075 42.986, 155.503 42.705, 154.285 42.379 C 152.088 41.790, 152.095 41.861, 155.184 51.070 M 164.706 53.553 C 160.277 62.469, 158.962 67, 160.804 67 C 161.681 67, 170.425 45.091, 169.797 44.464 C 169.586 44.252, 167.294 48.342, 164.706 53.553 M 152.695 77.575 C 150.113 82.773, 148 87.168, 148 87.340 C 148 87.513, 149.329 87.459, 150.953 87.220 C 153.556 86.838, 154.209 85.995, 156.453 80.122 C 159.054 73.317, 159.630 69.508, 158.195 68.621 C 157.752 68.347, 155.277 72.376, 152.695 77.575 M 158.409 82.782 C 156.303 88.639, 155.772 89.064, 148.762 90.479 C 146.854 90.864, 145.414 92.228, 144.012 94.976 C 142.905 97.145, 142 99.335, 142 99.841 C 142 101.377, 161.852 95.592, 164.020 93.425 C 166.012 91.432, 166.012 91.424, 163.876 84.965 C 162.700 81.409, 161.451 78.177, 161.101 77.782 C 160.751 77.387, 159.539 79.637, 158.409 82.782 M 149 101.704 L 139.500 104.216 131.500 120.667 C 127.100 129.715, 123.350 137.542, 123.167 138.059 C 122.973 138.606, 126.959 139, 132.681 139 L 142.529 139 145.278 125.799 C 148.178 111.868, 147.828 112.566, 157.829 100.750 C 158.643 99.787, 159.128 99.043, 158.905 99.096 C 158.682 99.149, 154.225 100.322, 149 101.704 M 126.500 107.566 C 119.697 109.369, 114.815 109.960, 106.500 109.989 C 100.450 110.010, 94.494 110.297, 93.264 110.627 C 91.104 111.206, 91.164 111.380, 95.043 115.786 C 99.676 121.049, 99.510 121.300, 90.246 123.048 C 86.730 123.711, 84.224 124.591, 84.677 125.003 C 85.130 125.414, 91.714 127.259, 99.308 129.102 C 106.902 130.945, 113.648 132.783, 114.299 133.185 C 117.101 134.917, 112.657 135.931, 98.500 136.792 L 83.500 137.704 99.750 138.019 C 108.688 138.192, 116.762 138.371, 117.694 138.417 C 118.626 138.463, 120.175 137.150, 121.137 135.500 C 122.887 132.499, 136.103 104.920, 135.709 105.091 C 135.594 105.140, 131.450 106.254, 126.500 107.566 M 154 109.682 C 150.856 113.367, 150.204 115.236, 147.589 128.037 L 144.679 142.289 133.077 141.706 L 121.476 141.123 112.182 159.672 C 107.070 169.874, 103.156 178.490, 103.484 178.818 C 103.812 179.145, 115.087 179.601, 128.540 179.830 L 153 180.246 153 177.588 C 153 176.126, 154.148 160.259, 155.551 142.327 C 156.955 124.396, 157.967 108.792, 157.801 107.652 C 157.538 105.838, 157.064 106.091, 154 109.682 M 91 154.088 C 80.825 155.105, 71.661 156.065, 70.635 156.219 C 69.456 156.397, 74.484 160.084, 84.311 166.250 C 92.859 171.613, 100.107 176, 100.418 176 C 100.730 176, 103.692 170.600, 107 164 C 111.845 154.336, 112.673 152.023, 111.258 152.119 C 110.291 152.184, 101.175 153.070, 91 154.088 M 40.758 154.830 C 39.501 155.328, 45.144 158.797, 61.048 167.300 L 83.080 179.080 90.874 178.790 L 98.669 178.500 79.219 166.250 L 59.769 154 51.134 154.070 C 46.385 154.109, 41.716 154.451, 40.758 154.830" stroke="none" fill="black" fill-rule="evenodd"/>
</svg>