<svg xmlns="http://www.w3.org/2000/svg" width="200" height="200" viewBox="0 0 200 200" version="1.1">
	<path d="M 108.500 15.063 C 85.400 18.281, 56.038 22.349, 43.250 24.104 C 27.112 26.318, 20 27.674, 20 28.536 C 20 30.053, 21.437 30.304, 46.346 33.140 L 66.192 35.400 65.605 38.950 C 65.282 40.903, 64.573 44.075, 64.030 46 L 63.043 49.500 44.271 52.307 C 26.446 54.973, 22.555 55.989, 24.817 57.387 C 25.674 57.917, 44.983 56.203, 57.656 54.473 L 61.811 53.906 60.826 57.788 C 59.941 61.274, 58.269 62.837, 44.457 73.085 C 35.996 79.363, 29.057 85.111, 29.037 85.857 C 28.983 87.833, 30.561 87.003, 44.047 77.968 C 50.718 73.499, 56.420 70.087, 56.718 70.385 C 57.016 70.683, 56.174 74.881, 54.846 79.713 L 52.431 88.500 44.216 88.463 C 39.697 88.443, 36 88.521, 36 88.637 C 36 88.753, 38.264 94.036, 41.031 100.377 C 44.795 109.003, 45.893 112.578, 45.392 114.575 C 44.749 117.135, 44.515 117.219, 39.611 116.659 C 36.800 116.338, 30.287 115.765, 25.137 115.386 L 15.774 114.696 16.338 117.598 C 16.648 119.194, 18.594 135.463, 20.663 153.750 C 22.731 172.038, 24.748 187, 25.145 187 C 25.542 187, 36.359 182.229, 49.183 176.397 C 62.007 170.565, 74.819 164.759, 77.653 163.495 L 82.806 161.196 78.850 147.082 L 74.894 132.969 80.170 128.118 L 85.446 123.266 91.973 123.746 C 100.569 124.378, 105.281 125.336, 105.668 126.529 C 105.841 127.063, 99.911 129.904, 92.490 132.843 C 85.069 135.782, 79.246 138.588, 79.549 139.080 C 82.287 143.510, 119.282 193.500, 119.823 193.500 C 121.357 193.500, 176.986 159.438, 176.983 158.500 C 176.981 157.950, 173.450 145.575, 169.137 131 L 161.295 104.500 174.116 103.500 L 186.937 102.500 174.111 82.126 L 161.284 61.753 143.216 49.376 C 133.279 42.569, 124.665 37, 124.074 37 C 121.107 37, 124.501 39.826, 141.067 51.150 L 159.134 63.500 170.492 81.467 C 176.739 91.348, 181.632 99.786, 181.366 100.217 C 181.100 100.648, 176.232 101, 170.549 101 C 160.470 101, 160.202 100.941, 159.613 98.594 C 159.109 96.588, 158.180 96.075, 154.004 95.501 C 151.251 95.122, 149.188 94.505, 149.419 94.131 C 149.651 93.756, 139.189 86.070, 126.170 77.050 C 113.152 68.031, 102.352 60.544, 102.170 60.412 C 101.989 60.281, 100.948 56.691, 99.858 52.434 C 97.561 43.469, 96.800 44.537, 109 39.596 C 113.675 37.702, 126.802 32.348, 138.171 27.697 L 158.841 19.240 162.043 28.120 C 163.964 33.446, 165.797 37, 166.623 37 C 168.390 37, 168.535 37.710, 164.615 27.167 C 161.377 18.459, 161.314 18.035, 163.170 17.446 C 165.678 16.650, 164.911 14.431, 162.228 14.723 C 160.754 14.882, 159.885 14.108, 159.140 11.973 C 158.225 9.347, 157.660 9.012, 154.302 9.106 C 152.211 9.165, 131.600 11.845, 108.500 15.063 M 93 20.030 C 61.925 24.367, 35.638 27.935, 34.583 27.958 C 29.725 28.065, 34.909 28.982, 51.452 30.943 C 61.326 32.113, 69.575 33.242, 69.784 33.451 C 69.993 33.660, 69.238 37.104, 68.105 41.105 C 66.973 45.106, 66.178 48.511, 66.338 48.671 C 66.986 49.320, 85.798 45.880, 89.861 44.371 C 94.604 42.608, 94.512 42.996, 92.474 33.424 L 91.820 30.348 99.660 28.654 C 139.903 19.957, 157.065 15.577, 156.782 14.076 C 156.586 13.043, 155.279 12.439, 152.992 12.322 C 151.071 12.224, 124.075 15.692, 93 20.030 M 120 26.775 C 106.525 29.839, 95.412 32.394, 95.305 32.451 C 94.955 32.640, 96.812 40.145, 97.340 40.673 C 97.780 41.113, 144.746 22.463, 145.917 21.384 C 146.608 20.747, 145.415 20.995, 120 26.775 M 89.500 47.536 C 87.850 48.292, 85.312 48.930, 83.861 48.955 C 82.409 48.980, 80.159 49.901, 78.861 51.002 C 77.497 52.159, 77.184 52.768, 78.122 52.444 C 79.063 52.120, 83.350 54.015, 88.336 56.960 C 100.765 64.301, 100.090 64.475, 97.676 54.561 C 95.431 45.343, 95.034 45.002, 89.500 47.536 M 66.356 53.692 C 65.046 53.948, 64.029 55.066, 63.743 56.564 C 63.420 58.251, 63.622 58.758, 64.387 58.188 C 71.714 52.726, 71.753 52.636, 66.356 53.692 M 70.629 60.481 C 66.300 63.429, 62.347 66.253, 61.844 66.756 C 61.171 67.429, 55.047 88.024, 55.006 89.750 C 55.003 89.888, 57.847 90, 61.326 90 L 67.652 90 81.864 78.045 C 89.680 71.470, 96.171 65.843, 96.288 65.540 C 96.525 64.926, 80.274 54.966, 79.190 55.060 C 78.810 55.093, 74.958 57.533, 70.629 60.481 M 103.125 64.874 C 103.341 65.524, 105.539 67.232, 108.009 68.671 C 112.971 71.560, 112.520 70.871, 106.616 66.541 C 104.479 64.975, 102.908 64.225, 103.125 64.874 M 85.818 78.100 C 78.293 84.370, 72.105 89.769, 72.068 90.098 C 71.993 90.759, 97.052 92.282, 97.679 91.654 C 98.379 90.954, 100.130 73.008, 99.810 69.807 L 99.500 66.701 85.818 78.100 M 102.613 75.229 C 102.255 78.678, 101.698 83.833, 101.374 86.685 L 100.786 91.869 104.143 92.380 C 108.818 93.091, 145.195 95.138, 145.619 94.714 C 145.899 94.435, 130.109 84.811, 106.382 70.799 L 103.263 68.958 102.613 75.229 M 40.936 93.302 C 41.401 94.511, 43.006 98.200, 44.502 101.500 L 47.221 107.500 49.230 100.203 C 50.335 96.189, 51.072 92.765, 50.869 92.593 C 50.666 92.421, 48.158 92.016, 45.295 91.693 C 40.247 91.123, 40.115 91.172, 40.936 93.302 M 53.119 96.443 C 51.378 103.358, 51.635 103.466, 57.631 98.344 C 62.984 93.771, 63.144 93.501, 60.881 92.867 C 55.294 91.301, 54.298 91.760, 53.119 96.443 M 59.201 100.494 C 51.624 106.816, 49.850 108.842, 48.943 112.212 C 48.126 115.246, 48.141 116.469, 49 117 C 50.108 117.685, 67.126 119.207, 67.663 118.670 C 67.807 118.527, 66.968 114.940, 65.800 110.700 C 64.632 106.460, 63.872 102.795, 64.111 102.555 C 64.351 102.316, 71.616 102.850, 80.257 103.743 C 88.898 104.635, 96.137 105.171, 96.343 104.933 C 96.549 104.695, 96.993 102.397, 97.330 99.826 L 97.941 95.153 91.720 94.601 C 88.299 94.298, 81.644 93.780, 76.931 93.450 L 68.362 92.851 59.201 100.494 M 100.661 95.672 C 100.298 96.036, 100 97.874, 100 99.756 L 100 103.179 121.250 102.564 C 149.492 101.745, 157.204 101.114, 156.722 99.660 C 156.362 98.576, 150.278 98.037, 110.911 95.604 C 105.637 95.278, 101.025 95.309, 100.661 95.672 M 125.832 104.918 C 116.114 105.238, 107.910 105.754, 107.600 106.065 C 107.291 106.375, 115.017 107.408, 124.769 108.361 C 145.955 110.429, 148 110.786, 148 112.411 C 148 113.099, 140.773 116.525, 131.940 120.024 C 123.107 123.522, 115.690 126.693, 115.457 127.070 C 115.224 127.447, 121.513 135.789, 129.434 145.607 C 142.311 161.571, 144.571 165.006, 142.191 164.998 C 141.811 164.996, 134.144 156.947, 125.152 147.111 L 108.805 129.226 97.038 133.985 C 90.567 136.602, 84.777 138.913, 84.173 139.121 C 83.244 139.442, 115.421 184.816, 119.455 188.875 C 120.613 190.041, 124.819 187.831, 147.035 174.383 C 161.452 165.656, 173.400 158.063, 173.586 157.508 C 173.771 156.954, 170.440 144.800, 166.184 130.500 L 158.444 104.500 150.972 104.418 C 146.863 104.372, 135.549 104.597, 125.832 104.918 M 67.008 105.139 C 67.053 107.281, 71.228 118.528, 72.208 119.150 C 72.919 119.601, 76.200 119.955, 79.500 119.938 C 85.403 119.906, 85.602 119.812, 91.815 114.101 L 98.130 108.296 85.815 107.104 C 79.042 106.449, 72.037 105.657, 70.250 105.345 C 68.463 105.033, 67.003 104.940, 67.008 105.139 M 106.120 116.750 C 109.557 121.013, 112.398 124.568, 112.434 124.652 C 112.470 124.736, 119.025 122.194, 127 119.004 L 141.500 113.204 137 112.582 C 129.319 111.520, 104.940 109, 102.340 109 C 100.040 109, 100.299 109.530, 106.120 116.750 M 93.111 116.387 L 88.805 120.775 97.152 121.491 C 103.556 122.040, 106.080 122.707, 107.993 124.353 C 110.217 126.268, 110.316 126.284, 108.917 124.500 C 103.831 118.017, 98.601 112, 98.052 112 C 97.702 112, 95.479 113.974, 93.111 116.387 M 19.637 121.627 C 19.900 123.757, 21.606 138.229, 23.427 153.786 C 25.248 169.343, 26.977 182.311, 27.270 182.603 C 27.796 183.129, 76.647 161.412, 78.420 159.863 C 78.967 159.386, 77.985 154.165, 76.001 147.005 L 72.662 134.949 70.081 137.355 C 57.036 149.513, 30.611 172.945, 30.298 172.632 C 29.968 172.302, 42.362 124.865, 43.691 121.373 C 44.267 119.859, 41.382 119.272, 29.329 118.448 L 19.157 117.754 19.637 121.627 M 46.509 121.250 C 45.003 125.643, 34.944 164.278, 35.232 164.565 C 35.426 164.759, 43.757 157.512, 53.745 148.459 L 71.904 132 70.520 127.401 C 69.759 124.872, 68.960 122.627, 68.745 122.412 C 68.389 122.056, 51.264 120.059, 48.219 120.017 C 47.514 120.008, 46.744 120.563, 46.509 121.250 M 72.582 124.614 C 73.878 130.049, 74.387 130.227, 77.991 126.509 C 80.330 124.096, 80.902 123, 79.821 123 C 78.957 123, 76.820 122.714, 75.072 122.364 C 71.984 121.747, 71.913 121.811, 72.582 124.614" stroke="none" fill="black" fill-rule="evenodd"/>
</svg>