<svg xmlns="http://www.w3.org/2000/svg" width="200" height="200" viewBox="0 0 200 200" version="1.1">
	<path d="M 61 11.536 C 58.720 14.572, 58.315 14.746, 56.398 13.506 C 54.387 12.207, 54.037 12.635, 48.398 23.278 C 45.154 29.400, 42.579 34.643, 42.675 34.929 C 43.343 36.916, 45.637 35.008, 51.550 27.546 C 55.275 22.846, 58.494 19, 58.703 19 C 59.128 19, 88.647 42.488, 91 44.699 C 92.294 45.914, 91.128 46.023, 82.500 45.491 C 75.531 45.061, 63.919 45.620, 44.186 47.334 C 4.180 50.810, 4.503 51.470, 48.500 56.151 L 80.500 59.556 80.827 62.961 C 81.007 64.833, 80.866 67.899, 80.515 69.774 L 79.875 73.182 74.188 72.581 C 71.059 72.250, 66.775 71.890, 64.667 71.780 C 61.091 71.593, 60.862 71.396, 61.238 68.828 C 61.852 64.645, 59.217 64.325, 58.436 68.488 C 57.702 72.400, 59.256 71.891, 37.093 75.483 C 28.619 76.857, 21.449 78.218, 21.160 78.507 C 19.164 80.503, 24.759 80.321, 39.483 77.911 C 48.823 76.383, 56.549 75.215, 56.651 75.317 C 56.753 75.419, 56.347 77.640, 55.750 80.251 C 54.685 84.904, 53.735 85.999, 52.500 84 C 52.160 83.450, 51.234 83, 50.441 83 C 49.257 83, 49 85.412, 49 96.500 C 49 107.486, 49.264 110, 50.418 110 C 51.394 110, 52.522 106.964, 54.038 100.250 C 55.249 94.887, 56.383 90.340, 56.558 90.145 C 56.733 89.950, 61.876 92.847, 67.987 96.582 C 78.158 102.798, 79.074 103.604, 78.799 106.109 C 78.589 108.031, 72.735 115.283, 59.132 130.471 C 48.480 142.366, 39.599 151.932, 39.396 151.729 C 39.193 151.527, 41.948 142.623, 45.518 131.945 C 49.089 121.266, 51.895 112.208, 51.755 111.816 C 51.521 111.163, 11.841 146.574, 11.235 147.977 C 11.089 148.314, 20.200 157.492, 31.480 168.372 C 50.712 186.920, 52.047 188.009, 52.888 185.827 C 56.734 175.849, 76.218 129.382, 76.799 128.801 C 77.204 128.396, 77.390 135.813, 77.214 145.282 C 77.037 154.752, 77.254 166.396, 77.696 171.158 L 78.500 179.816 101 163.049 C 113.375 153.828, 123.635 146.392, 123.800 146.525 C 123.965 146.658, 121.159 154.101, 117.565 163.065 C 113.971 172.029, 111.149 179.482, 111.294 179.627 C 111.861 180.195, 165.437 173.958, 166.058 173.252 C 168.728 170.220, 186.323 144.262, 186.328 143.349 C 186.331 142.716, 183.259 135.516, 179.502 127.349 C 175.745 119.182, 170.281 104.855, 167.360 95.512 L 162.050 78.524 165.717 72.512 C 169.360 66.541, 169.396 66.372, 171.072 47.500 C 172 37.050, 172.562 28.163, 172.321 27.750 C 172.079 27.337, 167.452 27, 162.038 27 L 152.193 27 143.297 36.617 L 134.400 46.235 101.950 28.761 C 84.103 19.151, 68.150 10.595, 66.500 9.747 C 63.552 8.234, 63.455 8.266, 61 11.536 M 62.557 13.937 C 61.593 15.002, 61.110 16.369, 61.484 16.974 C 61.858 17.579, 70.018 24.383, 79.617 32.094 L 97.071 46.115 112.547 47.128 C 121.058 47.686, 128.732 47.998, 129.598 47.821 C 130.808 47.575, 66.340 12, 64.683 12 C 64.478 12, 63.521 12.872, 62.557 13.937 M 53.643 19.250 L 51.854 22.500 53.927 20.139 C 55.718 18.100, 56.625 16, 55.716 16 C 55.559 16, 54.626 17.462, 53.643 19.250 M 144.805 38.792 C 140.573 43.581, 137.536 47.650, 138.055 47.833 C 140.065 48.542, 138.921 51, 136.581 51 C 134.856 51, 132.288 53.053, 127.634 58.153 L 121.105 65.306 133.154 74.903 C 139.781 80.181, 144.595 84.612, 143.851 84.749 C 143.108 84.886, 134.850 83.695, 125.500 82.103 C 116.150 80.511, 108.482 79.273, 108.460 79.354 C 108.425 79.480, 95.133 94.443, 88.278 102.072 L 85.967 104.644 88.509 106.005 C 90.902 107.285, 91.301 107.125, 95.276 103.284 L 99.500 99.203 109.307 112.111 C 116.363 121.397, 118.715 125.172, 117.692 125.565 C 116.909 125.865, 111.107 122.936, 104.797 119.055 C 98.488 115.175, 92.838 112, 92.243 112 C 91.647 112, 88.899 114.537, 86.135 117.638 C 79.954 124.572, 79.781 125.642, 80.198 154.264 L 80.500 175.028 101.679 159.264 L 122.859 143.500 131.179 126.260 C 136.649 114.926, 139.886 109.273, 140.627 109.760 C 141.396 110.265, 137.525 120.970, 128.436 143.475 C 121.111 161.612, 115.204 176.511, 115.309 176.585 C 115.775 176.911, 163.932 171.396, 164.311 170.973 C 164.544 170.713, 167.568 166.450, 171.031 161.500 C 174.493 156.550, 178.800 150.453, 180.600 147.952 L 183.874 143.404 177.423 129.452 C 173.875 121.778, 168.259 107.083, 164.942 96.795 L 158.912 78.091 162.873 71.795 C 166.775 65.596, 166.852 65.288, 167.939 51.500 C 168.546 43.800, 169.264 35.813, 169.533 33.750 L 170.024 30 161.262 30.042 L 152.500 30.083 144.805 38.792 M 51.500 49.535 C 43.800 50.238, 36.150 50.967, 34.500 51.156 C 32.850 51.345, 41.175 52.532, 53 53.793 C 64.825 55.053, 76.684 56.355, 79.354 56.685 L 84.208 57.285 83.507 64.773 C 82.697 73.409, 83.081 73.961, 89.918 73.985 C 92.348 73.993, 97.225 74.503, 100.755 75.118 L 107.174 76.236 111.166 72.368 C 117.969 65.777, 118.075 66.158, 106.983 57.377 C 98.700 50.820, 96.234 49.389, 92.266 48.838 C 84.920 47.817, 66.969 48.124, 51.500 49.535 M 102 49.498 C 102 50.190, 118.130 63, 119.001 63 C 119.442 63, 122.107 60.339, 124.924 57.087 L 130.046 51.175 122.773 50.624 C 104.311 49.227, 102 49.102, 102 49.498 M 114.761 72.382 L 111.098 76.764 120.299 78.415 C 136.036 81.240, 136.565 81.305, 135.500 80.278 C 132.545 77.428, 120.145 68, 119.351 68 C 118.841 68, 116.775 69.972, 114.761 72.382 M 59.159 77.677 C 56.663 87.636, 55.865 86.179, 67.748 93.360 L 78.500 99.857 79.151 94.679 C 79.509 91.830, 79.847 86.483, 79.901 82.795 L 80 76.091 76.750 75.586 C 74.963 75.308, 70.489 74.805, 66.808 74.467 L 60.117 73.853 59.159 77.677 M 82.648 83.638 C 81.742 94.349, 81.841 101.784, 82.897 102.436 C 83.722 102.946, 103.958 81.157, 104.334 79.353 C 104.518 78.468, 99.866 77.587, 89.898 76.617 L 83.296 75.975 82.648 83.638 M 52.102 91.050 L 52.205 95.500 53.036 92 C 53.522 89.952, 53.480 88.106, 52.933 87.550 C 52.353 86.960, 52.039 88.284, 52.102 91.050 M 96.004 106.496 C 94.714 107.869, 93.848 109.135, 94.079 109.309 C 95.935 110.706, 109.911 119, 110.410 119 C 110.761 119, 108.507 115.625, 105.403 111.500 C 102.298 107.375, 99.441 104, 99.053 104 C 98.666 104, 97.293 105.123, 96.004 106.496 M 81.980 109.038 C 81.380 110.159, 81.026 112.886, 81.194 115.097 L 81.500 119.117 85.353 114.495 C 89.016 110.100, 89.115 109.802, 87.353 108.468 C 84.764 106.506, 83.249 106.667, 81.980 109.038 M 59 134.571 C 48.825 145.925, 39.521 156.404, 38.325 157.857 C 36.827 159.676, 35.822 160.180, 35.099 159.475 C 34.369 158.762, 35.890 152.715, 40.092 139.625 C 43.415 129.272, 45.991 120.658, 45.817 120.483 C 45.522 120.188, 32.664 131.624, 20.080 143.374 L 14.661 148.434 32.580 165.656 C 42.436 175.129, 50.792 182.569, 51.149 182.189 C 51.506 181.810, 56.377 170.250, 61.973 156.500 C 67.569 142.750, 73.486 129.296, 75.124 126.603 C 77.349 122.941, 78.025 120.724, 77.800 117.816 L 77.500 113.927 59 134.571" stroke="none" fill="black" fill-rule="evenodd"/>
</svg>