<svg xmlns="http://www.w3.org/2000/svg" width="200" height="200" viewBox="0 0 200 200" version="1.1">
	<path d="M 78 20.540 C 71.675 22.948, 65.699 24.937, 64.719 24.959 C 63.740 24.982, 59.762 23.200, 55.880 21 C 51.997 18.800, 48.482 17, 48.067 17 C 47.653 17, 46.322 20.617, 45.111 25.038 C 43.899 29.459, 42.628 33.806, 42.285 34.699 C 41.554 36.605, 41.543 36.607, 54.733 31.936 L 63.966 28.667 67.483 30.561 C 69.417 31.602, 71 32.765, 71 33.145 C 71 33.524, 67.191 37.124, 62.536 41.143 L 54.072 48.452 38.536 48.131 C 29.991 47.955, 23 48.005, 23 48.243 C 23 48.481, 29.792 53.361, 38.094 59.088 L 53.188 69.500 48.344 69.736 C 35.022 70.384, 29 71.223, 29 72.429 C 29 74.197, 60.896 82.504, 62.299 81.101 C 63.552 79.848, 63.751 79.924, 49.556 76.198 L 38.612 73.324 47.556 72.689 L 56.500 72.053 63.250 76.534 C 66.963 78.999, 70 81.362, 70 81.785 C 70 82.209, 69.307 83.544, 68.461 84.752 C 67.303 86.405, 61.109 88.826, 43.461 94.523 C 22.473 101.299, 16.302 104, 21.813 104 C 22.810 104, 32.240 102.267, 42.768 100.149 C 64.606 95.755, 62.996 94.856, 55.737 107.392 C 53.542 111.183, 50.216 115.627, 48.347 117.269 C 44.488 120.657, 12.185 158.355, 11.409 160.375 C 10.806 161.948, 50.340 179.406, 52.956 178.722 C 53.861 178.485, 63.353 172.449, 74.050 165.308 C 84.748 158.168, 95.331 151.173, 97.570 149.764 L 101.640 147.202 104.427 165.851 C 108.066 190.191, 108.025 190, 109.625 190 C 110.381 190, 111 189.866, 111 189.702 C 111 189.538, 115.050 171.222, 120 149 C 124.950 126.778, 129.024 108.350, 129.052 108.048 C 129.081 107.747, 132.290 113.798, 136.183 121.496 L 143.261 135.493 147.138 162.454 C 150.598 186.516, 151.903 192.430, 153.418 190.916 C 153.666 190.668, 158.360 173.148, 163.850 151.982 C 172.493 118.662, 174.464 109.466, 178.546 83.428 L 183.261 53.356 171.332 34.928 C 164.770 24.793, 159.053 16.500, 158.625 16.500 C 158.198 16.500, 152.101 27.011, 145.077 39.858 L 132.307 63.217 134.081 70.848 C 135.056 75.045, 135.750 78.583, 135.622 78.711 C 135.494 78.839, 129.114 65.246, 121.445 48.503 C 113.775 31.761, 107.204 18.049, 106.841 18.031 C 106.479 18.014, 103.402 22.948, 100.002 28.996 C 96.603 35.044, 93.425 40.238, 92.939 40.538 C 92.454 40.837, 88.596 39.183, 84.365 36.862 L 76.674 32.640 84.864 25.070 C 89.369 20.907, 93.042 17.163, 93.027 16.750 C 92.975 15.299, 89.391 16.203, 78 20.540 M 47.622 26.214 C 46.782 29.081, 46.232 31.566, 46.402 31.735 C 46.781 32.114, 58.201 27.920, 59.277 27.006 C 59.938 26.445, 51.247 21, 49.690 21 C 49.393 21, 48.463 23.346, 47.622 26.214 M 76.717 23.922 C 72.437 25.467, 68.683 26.984, 68.375 27.292 C 68.066 27.600, 69.216 28.578, 70.930 29.464 L 74.046 31.075 79.523 26.347 C 84.334 22.194, 85.659 20.853, 84.750 21.056 C 84.612 21.087, 80.998 22.376, 76.717 23.922 M 146.823 42.310 L 135.194 63.597 138.055 76.048 C 141.222 89.832, 141.595 93.365, 139.821 92.774 C 139.172 92.557, 132.218 78.457, 124.366 61.440 C 116.514 44.423, 109.282 28.822, 108.295 26.771 L 106.500 23.041 100.822 33.007 L 95.144 42.972 105.572 48.656 C 111.307 51.783, 116 54.628, 116 54.978 C 116 55.329, 109.117 56.661, 100.703 57.937 L 85.407 60.258 83.271 64.158 L 81.134 68.058 96.317 67.779 C 105.493 67.610, 111.638 67.884, 111.850 68.471 C 112.153 69.314, 105.813 72.431, 84.500 81.917 L 79.500 84.143 82.331 86.423 L 85.161 88.704 93.581 86.984 C 100.115 85.648, 102 85.546, 102 86.525 C 102 87.219, 102.674 94.177, 103.499 101.987 C 104.905 115.317, 104.890 116.324, 103.249 118.408 C 97.055 126.271, 67.511 157.816, 66.770 157.358 C 65.412 156.518, 66.189 155.044, 77.542 136.933 C 83.294 127.757, 88 119.977, 88 119.646 C 88 118.864, 27.588 163.802, 27.225 164.854 C 26.954 165.638, 49.836 176, 51.838 176 C 52.403 176, 64.187 168.541, 78.024 159.425 C 91.862 150.309, 103.326 142.996, 103.501 143.175 C 103.676 143.354, 105.092 151.960, 106.647 162.301 C 108.396 173.929, 109.761 180.415, 110.225 179.301 C 110.637 178.310, 114.799 160.219, 119.473 139.097 C 124.148 117.976, 128.162 100.505, 128.394 100.273 C 128.625 100.041, 132.667 107.793, 137.374 117.500 L 145.933 135.148 149.081 157.324 C 150.812 169.521, 152.525 179.825, 152.888 180.223 C 153.250 180.621, 157.471 165.771, 162.269 147.223 C 169.301 120.034, 171.864 108.010, 175.495 85.167 C 177.973 69.585, 180 56.037, 180 55.062 C 180 53.452, 162.464 25.198, 159.642 22.262 C 158.712 21.294, 155.914 25.669, 146.823 42.310 M 64.500 42.962 L 55.500 50.887 43.603 51.194 L 31.706 51.500 40.283 57.383 L 48.860 63.267 66.136 60.594 C 75.637 59.125, 83.497 57.827, 83.603 57.711 C 84.510 56.715, 91 44.974, 90.999 44.332 C 90.998 43.456, 75.883 34.987, 74.376 35.018 C 73.894 35.028, 69.450 38.603, 64.500 42.962 M 90.653 51.071 C 89.087 53.859, 88.012 56.345, 88.263 56.597 C 88.515 56.848, 92.946 56.368, 98.110 55.531 C 103.275 54.693, 107.950 54.001, 108.500 53.992 C 109.743 53.973, 95.878 46.100, 94.500 46.043 C 93.950 46.021, 92.219 48.283, 90.653 51.071 M 66 63.250 C 59.125 64.354, 53.308 65.430, 53.073 65.639 C 52.838 65.849, 53.513 66.677, 54.573 67.479 C 56.777 69.146, 72.324 69.597, 76.185 68.106 C 77.458 67.614, 79.313 65.814, 80.307 64.106 C 82.486 60.359, 83.588 60.425, 66 63.250 M 84.884 70.735 C 79.294 71.090, 79.255 71.115, 76.568 76.052 C 74.193 80.415, 74.065 81.088, 75.499 81.638 C 76.869 82.164, 103 71.427, 103 70.339 C 103 69.969, 93.766 70.171, 84.884 70.735 M 66.184 71.735 L 61.868 72.121 65.684 74.866 C 71.947 79.369, 71.773 79.366, 73.982 75.035 L 76.041 71 73.270 71.175 C 71.747 71.271, 68.558 71.523, 66.184 71.735 M 71.250 87.989 C 67.493 90.280, 66.889 92.494, 70.250 91.656 C 71.487 91.348, 74.412 90.792, 76.750 90.420 C 81.485 89.667, 81.779 89.311, 79.250 87.392 C 76.826 85.552, 75.027 85.686, 71.250 87.989 M 89.753 90.463 C 84.668 91.576, 82.304 93.098, 69.253 103.663 L 54.500 115.605 42.649 136.368 C 36.130 147.787, 30.955 157.286, 31.149 157.477 C 31.342 157.668, 45.225 147.538, 62 134.967 C 78.775 122.396, 93.063 112.085, 93.750 112.055 C 95.594 111.974, 95.284 113.588, 92.653 117.770 C 91.363 119.821, 87.272 126.450, 83.564 132.500 C 76.253 144.427, 76.418 144.320, 92.394 126.803 L 102.149 116.105 100.896 102.553 C 99.472 87.165, 100.370 88.139, 89.753 90.463 M 57.500 93.066 L 52.500 94.978 57 94.373 C 61.308 93.794, 65 92.451, 65 91.465 C 65 90.613, 62.549 91.136, 57.500 93.066 M 71 94.191 C 68.525 94.728, 66.008 95.692, 65.407 96.333 C 63.467 98.403, 57.660 109.525, 59.104 108.404 C 64.513 104.207, 77 93.745, 77 93.410 C 77 92.914, 76.706 92.953, 71 94.191 M 49.813 95.683 C 50.534 95.972, 51.397 95.936, 51.729 95.604 C 52.061 95.272, 51.471 95.036, 50.417 95.079 C 49.252 95.127, 49.015 95.364, 49.813 95.683 M 30.801 141.006 C 22.385 150.909, 15.372 159.392, 15.216 159.857 C 15.060 160.322, 17.083 161.557, 19.712 162.601 C 22.340 163.646, 24.831 164.650, 25.246 164.834 C 25.661 165.017, 25.747 164.503, 25.435 163.692 C 24.959 162.451, 31.060 150.876, 44.641 127.250 C 45.985 124.912, 46.863 123, 46.593 123 C 46.323 123, 39.216 131.103, 30.801 141.006" stroke="none" fill="black" fill-rule="evenodd"/>
</svg>