<svg xmlns="http://www.w3.org/2000/svg" width="200" height="200" viewBox="0 0 200 200" version="1.1">
	<path d="M 134.017 19.973 L 130.651 25.219 125.076 24.642 C 122.009 24.324, 104.524 23.098, 86.221 21.917 L 52.942 19.769 44.221 21.935 C 28.412 25.861, 28 26.007, 28 27.696 C 28 29.163, 30.496 29.259, 54.500 28.714 C 69.314 28.378, 81 28.496, 81 28.982 C 81 29.460, 84.677 31.347, 89.170 33.176 C 99.063 37.201, 98.121 37.435, 77 36.203 L 62.500 35.357 42.063 44.489 C 30.823 49.513, 21.425 54.224, 21.180 54.959 C 20.812 56.064, 25.402 56.180, 47.617 55.628 C 62.403 55.261, 77.875 54.700, 82 54.382 L 89.500 53.803 91.151 58.471 C 92.330 61.805, 92.473 63.234, 91.651 63.472 C 91.018 63.656, 77.247 64.540, 61.049 65.438 C 44.850 66.335, 31.416 67.251, 31.195 67.472 C 30.783 67.884, 41.832 78.506, 46.452 82.141 C 47.864 83.251, 48.772 84.560, 48.470 85.049 C 48.168 85.538, 43.888 88.727, 38.960 92.137 C 30.200 98.197, 29.099 99.325, 30.870 100.420 C 31.348 100.715, 44.286 99.436, 59.620 97.576 C 74.954 95.717, 87.589 94.277, 87.697 94.378 C 88.441 95.068, 78.500 109.024, 76.902 109.531 C 75.800 109.881, 73.588 111.448, 71.987 113.012 C 70.386 114.577, 68.301 116.292, 67.353 116.822 C 65.736 117.727, 65.733 117.944, 67.308 120.347 C 68.627 122.360, 68.764 123.490, 67.950 125.631 C 66.173 130.307, 52.744 151.152, 52.056 150.305 C 51.697 149.862, 49.641 143.875, 47.488 137 C 45.335 130.125, 43.452 124.319, 43.302 124.098 C 42.970 123.608, 15.852 133.986, 14.626 135.073 C 13.800 135.805, 48.578 187, 49.902 187 C 50.246 187, 54.742 174.288, 59.895 158.750 C 65.047 143.213, 69.775 129.495, 70.401 128.266 C 71.458 126.191, 72.880 127.822, 90.411 151.199 C 100.791 165.041, 109.499 177.194, 109.764 178.205 C 110.144 179.657, 110.904 179.931, 113.372 179.503 C 115.093 179.206, 131.524 177.634, 149.887 176.011 C 168.250 174.387, 183.403 172.930, 183.561 172.772 C 183.719 172.615, 182.073 160.850, 179.904 146.628 L 175.961 120.770 169.480 106.731 L 163 92.693 163 79.330 L 163 65.967 157.500 55 C 154.475 48.968, 152 43.763, 152 43.432 C 152 43.102, 157.044 43.158, 163.208 43.558 L 174.416 44.284 172.555 41.392 C 171.531 39.801, 168.625 35.477, 166.097 31.782 L 161.500 25.064 151.957 25.032 L 142.414 25 139.899 19.863 L 137.384 14.727 134.017 19.973 M 135.232 23 C 134.108 24.800, 134.233 25, 136.492 25 C 139.222 25, 139.289 24.916, 138.393 22.582 C 137.585 20.476, 136.738 20.588, 135.232 23 M 45.500 24.455 C 40.967 25.682, 42.973 25.804, 67 25.767 C 94.829 25.724, 94.086 24.672, 65.500 23.642 C 54.552 23.248, 49.149 23.468, 45.500 24.455 M 105.520 28.749 C 97.831 28.920, 91.197 29.403, 90.777 29.823 C 90.358 30.242, 93.949 32.228, 98.757 34.236 C 105.628 37.104, 109.091 37.950, 114.930 38.185 L 122.361 38.484 125.710 33.242 L 129.059 28 124.279 28.219 C 121.651 28.340, 113.209 28.578, 105.520 28.749 M 129.028 33.109 C 127.299 35.919, 126.023 38.331, 126.192 38.470 C 126.362 38.609, 131.120 39.013, 136.768 39.367 L 147.035 40.012 144.003 34.006 C 140.988 28.034, 140.946 28, 136.571 28 C 132.356 28, 132.040 28.214, 129.028 33.109 M 146.904 33.810 L 149.879 39.702 156.086 40.351 C 159.500 40.708, 163.836 41, 165.721 41 L 169.148 41 164.792 34.750 L 160.436 28.500 152.183 28.209 L 143.930 27.918 146.904 33.810 M 47.018 45.135 C 38.503 48.983, 31.303 52.373, 31.018 52.670 C 30.733 52.967, 42.650 52.860, 57.500 52.432 C 72.350 52.004, 86.075 51.620, 88 51.577 C 91.384 51.503, 91.566 51.691, 93.482 57.256 C 94.572 60.422, 95.782 62.897, 96.170 62.756 C 98.009 62.089, 118 46.842, 118 46.106 C 118 45.644, 115.638 44.259, 112.750 43.027 C 107.476 40.778, 106.484 40.673, 71 38.630 L 62.500 38.140 47.018 45.135 M 117 42 C 118.939 43.253, 120 43.253, 120 42 C 120 41.450, 118.987 41.007, 117.750 41.015 C 115.931 41.028, 115.787 41.216, 117 42 M 123.290 44.001 C 123.649 45.374, 122.980 46.655, 121.157 48.085 C 118.621 50.073, 112.070 59.578, 112.023 61.338 C 112.010 61.798, 117.458 61.850, 124.129 61.452 C 134.250 60.847, 136.181 60.957, 135.799 62.114 C 135.462 63.130, 131.833 63.767, 122.195 64.500 L 109.050 65.500 103.593 74.204 C 99.042 81.463, 98.416 82.990, 99.818 83.399 C 106.687 85.402, 121.059 87.174, 126.134 86.644 C 131.460 86.087, 132 86.207, 132 87.946 C 132 89.147, 132.810 89.980, 134.172 90.180 C 135.366 90.356, 136.548 91.122, 136.799 91.882 C 137.141 92.920, 136.475 93.150, 134.127 92.805 C 132.407 92.553, 131 92.626, 131 92.967 C 131 93.308, 127.613 109.731, 123.473 129.463 C 119.333 149.194, 116.084 165.751, 116.252 166.255 C 116.420 166.760, 121.018 158.921, 126.469 148.836 C 139.692 124.376, 140.104 123.704, 141.208 124.808 C 141.788 125.388, 137.018 135.175, 128.635 150.602 C 121.206 164.274, 115.313 175.646, 115.540 175.873 C 116.136 176.470, 179.384 170.812, 180.099 170.098 C 180.429 169.769, 179.012 158.655, 176.951 145.401 L 173.204 121.302 166.544 106.946 L 159.885 92.589 160.076 79.544 L 160.267 66.500 154.459 54.862 L 148.652 43.224 144.186 42.612 C 141.730 42.275, 135.906 42, 131.244 42 C 123.258 42, 122.797 42.116, 123.290 44.001 M 107.500 58.080 C 101.687 62.474, 101.461 62.858, 105.121 62.109 C 107.392 61.645, 109.015 60.426, 110.306 58.216 C 111.339 56.447, 112.030 55.013, 111.842 55.028 C 111.654 55.043, 109.700 56.417, 107.500 58.080 M 63.250 67.805 C 49.362 68.634, 38 69.655, 38 70.073 C 38 70.491, 41.462 74.023, 45.694 77.923 C 50.235 82.107, 53.001 85.357, 52.444 85.854 C 51.925 86.317, 48.393 88.879, 44.595 91.546 C 40.797 94.214, 38.216 96.572, 38.858 96.786 C 39.884 97.128, 78.108 92.863, 86.758 91.442 C 90.556 90.818, 94.231 86.379, 92.060 85.037 C 91.355 84.601, 87.341 83.676, 83.139 82.980 C 78.938 82.284, 74.873 81.387, 74.107 80.988 C 73.133 80.479, 75.457 78.248, 81.857 73.550 C 86.886 69.860, 91 66.651, 91 66.420 C 91 66.189, 90.438 66.067, 89.750 66.149 C 89.063 66.231, 77.138 66.976, 63.250 67.805 M 88.250 72.114 C 83.713 75.431, 80 78.485, 80 78.900 C 80 79.612, 90.977 82, 94.251 82 C 95.423 82, 102.747 71.444, 104.833 66.750 C 105.017 66.338, 103.217 66.018, 100.833 66.041 C 97.144 66.075, 95.273 66.978, 88.250 72.114 M 94.954 88.086 C 94.340 89.233, 93.987 90.269, 94.169 90.389 C 94.351 90.509, 98.100 90.127, 102.500 89.540 L 110.500 88.472 104.583 87.236 C 96.764 85.603, 96.259 85.647, 94.954 88.086 M 117 90.719 C 116.175 91.052, 115.050 91.882, 114.500 92.563 C 113.950 93.245, 105.883 98.098, 96.574 103.349 C 80.785 112.255, 79.429 113.251, 76.391 118.177 C 74.551 121.159, 73.486 123.901, 73.942 124.478 C 74.386 125.040, 82.893 136.484, 92.846 149.908 C 103.588 164.398, 111.141 173.744, 111.433 172.908 C 113.388 167.311, 128.110 92.721, 127.393 92.046 C 126.179 90.904, 118.856 89.969, 117 90.719 M 101 92.550 C 95.775 93.253, 91.455 93.867, 91.399 93.914 C 90.544 94.643, 85.033 104.366, 85.315 104.649 C 85.753 105.086, 111 92.082, 111 91.419 C 111 91.189, 110.888 91.061, 110.750 91.136 C 110.612 91.210, 106.225 91.847, 101 92.550 M 29 132.045 C 23.775 134.155, 19.078 136.049, 18.562 136.254 C 17.666 136.609, 47.844 181, 48.982 181 C 49.284 181, 52.523 172, 56.179 161 C 59.836 150, 62.672 141, 62.481 141 C 62.290 141, 59.761 144.930, 56.859 149.733 L 51.585 158.465 46.623 143.233 C 42.922 131.870, 41.260 128.026, 40.081 128.104 C 39.211 128.161, 34.225 129.934, 29 132.045" stroke="none" fill="black" fill-rule="evenodd"/>
</svg>