<svg xmlns="http://www.w3.org/2000/svg" width="200" height="200" viewBox="0 0 200 200" version="1.1">
	<path d="M 40.396 27.087 C 12.886 48.570, 14.652 46.958, 16.446 48.940 C 18.787 51.527, 18.392 51.991, 13.750 52.100 C 3.171 52.348, 3.617 52.880, 23.643 63.889 C 34.014 69.591, 42.677 74.413, 42.894 74.606 C 43.968 75.558, 38.954 85.292, 29.520 100.574 L 19.071 117.500 24.286 118.151 C 27.153 118.509, 33.636 118.847, 38.691 118.901 C 43.746 118.955, 48.081 119.338, 48.324 119.750 C 48.568 120.163, 42.757 127.200, 35.410 135.389 C 28.064 143.578, 22.253 150.600, 22.496 150.993 C 22.739 151.387, 27.114 152.012, 32.219 152.383 C 37.324 152.754, 42.852 153.299, 44.505 153.594 L 47.511 154.131 47.170 172.815 C 46.832 191.339, 46.845 191.483, 48.773 189.500 C 51.999 186.183, 86.089 143.932, 86.587 142.635 C 86.841 141.972, 81.412 127.724, 74.522 110.973 C 67.632 94.222, 62.108 80.179, 62.247 79.768 C 62.386 79.356, 68.638 81.995, 76.139 85.632 C 88.801 91.770, 89.814 92.468, 90.284 95.372 C 90.562 97.092, 91.819 109.075, 93.076 122 L 95.364 145.500 86.529 167.297 C 80.505 182.158, 78.019 189.419, 78.717 190.117 C 79.414 190.814, 86.862 181.989, 102.120 162.381 C 114.429 146.564, 125.088 132.920, 125.806 132.061 C 126.899 130.755, 127.010 131.434, 126.489 136.212 L 125.865 141.925 146.032 164.462 C 157.124 176.858, 166.506 187, 166.881 187 C 167.565 187, 182.295 145.935, 181.777 145.474 C 181.625 145.338, 175.799 142.364, 168.831 138.864 L 156.163 132.500 170.071 99.500 C 177.721 81.350, 183.980 66.275, 183.980 66 C 183.980 65.725, 176.133 59.425, 166.543 52 L 149.106 38.500 146.032 30.977 L 142.958 23.454 127.852 24.671 L 112.745 25.887 104.123 34.270 L 95.500 42.653 82.667 43.971 L 69.835 45.289 62.021 37.521 C 52 27.558, 49.380 28.274, 58.514 38.479 L 65.076 45.811 61.288 46.384 C 52.409 47.726, 29.889 50.129, 29.008 49.828 C 28.480 49.648, 35.068 41.928, 43.647 32.672 C 53.794 21.726, 58.904 15.504, 58.269 14.869 C 57.633 14.233, 51.387 18.503, 40.396 27.087 M 126.331 27.396 C 119.088 28.003, 113.013 28.736, 112.831 29.025 C 112.649 29.313, 109.800 32.406, 106.500 35.898 C 101.216 41.488, 100.821 42.171, 103.188 41.620 C 105.696 41.035, 106.460 41.813, 114.621 53.247 C 119.432 59.986, 124.203 66.597, 125.225 67.938 L 127.084 70.376 126.579 66.438 C 124.836 52.824, 124.838 51.822, 126.612 52.168 C 128.274 52.492, 155.491 102.842, 154.526 103.807 C 154.283 104.051, 142.818 101.156, 129.049 97.375 L 104.014 90.500 85.901 69.750 C 71.268 52.987, 67.301 49, 65.257 49 C 62.825 49, 28.252 52.854, 26.786 53.288 C 26.394 53.405, 31.041 57.473, 37.113 62.328 C 44.542 68.267, 47.972 71.631, 47.597 72.608 C 47.252 73.507, 47.954 74.478, 49.441 75.155 C 50.887 75.814, 51.626 76.810, 51.300 77.660 C 50.836 78.870, 50.442 78.864, 48.545 77.622 C 46.414 76.225, 46.231 76.381, 43.581 81.836 C 42.067 84.951, 37.042 93.616, 32.414 101.091 C 27.787 108.565, 24 114.978, 24 115.341 C 24 115.703, 27.938 116.056, 32.750 116.124 C 37.563 116.193, 44.543 116.530, 48.262 116.874 L 55.024 117.500 41.095 133 C 25.145 150.749, 25.134 149.250, 41.226 150.499 L 49.951 151.175 50.226 167.239 L 50.500 183.302 67.362 162.567 L 84.225 141.832 70.497 108.365 C 62.946 89.958, 56.987 74.680, 57.253 74.414 C 57.823 73.844, 89.960 88.776, 91.652 90.397 C 92.317 91.034, 93.938 102.933, 95.486 118.549 L 98.168 145.597 91.599 161.981 C 87.986 170.991, 85.179 178.512, 85.360 178.694 C 85.542 178.875, 95.508 166.418, 107.509 151.012 C 119.509 135.605, 129.540 123, 129.801 123 C 130.061 123, 129.985 127.162, 129.631 132.250 L 128.988 141.500 146.911 161.473 C 156.770 172.457, 165.229 181.576, 165.709 181.736 C 166.190 181.897, 167.523 179.209, 168.671 175.764 C 169.819 172.319, 172.571 164.420, 174.787 158.211 L 178.815 146.922 165.908 140.454 C 158.808 136.896, 153 133.785, 153 133.540 C 153 133.295, 159.290 118.131, 166.977 99.842 C 174.664 81.553, 180.597 66.344, 180.161 66.045 C 176.792 63.728, 148.195 40.938, 147.312 39.865 C 146.694 39.114, 145.119 35.833, 143.812 32.572 C 142.504 29.312, 141 26.565, 140.467 26.468 C 139.935 26.371, 133.574 26.788, 126.331 27.396 M 31.168 37.660 C 18.982 47.165, 18.858 47.303, 20.766 49.211 C 22.675 51.119, 22.768 51.067, 28.670 44.821 C 38.253 34.678, 44.303 27.998, 43.887 28.020 C 43.674 28.032, 37.950 32.370, 31.168 37.660 M 99.928 44.699 C 98.368 44.941, 94.279 48.193, 89.541 52.959 L 81.726 60.820 93.591 74.415 C 100.116 81.892, 106.140 88.216, 106.978 88.467 C 111.245 89.749, 149.117 100, 149.586 100 C 150.197 100, 132.478 65.622, 130.257 62.500 C 129.003 60.737, 128.915 61.628, 129.516 70 L 130.198 79.500 117.508 61.750 C 110.529 51.987, 104.297 44.067, 103.659 44.150 C 103.022 44.232, 101.342 44.479, 99.928 44.699 M 78.601 47.105 C 75.356 47.578, 72.553 48.114, 72.372 48.295 C 72.190 48.476, 74.065 50.610, 76.537 53.036 L 81.031 57.447 86.755 51.724 L 92.478 46 88.489 46.122 C 86.295 46.189, 81.845 46.631, 78.601 47.105 M 15.251 54.823 C 14.427 55.347, 16.636 57.035, 21.751 59.791 C 26.013 62.088, 32.763 65.789, 36.750 68.017 C 40.737 70.245, 44 71.869, 44 71.626 C 44 71.383, 39.424 67.528, 33.832 63.060 C 27.382 57.906, 23.315 55.285, 22.710 55.890 C 21.559 57.041, 18.781 56.163, 19.565 54.895 C 20.247 53.791, 16.963 53.737, 15.251 54.823" stroke="none" fill="black" fill-rule="evenodd"/>
</svg>