<svg xmlns="http://www.w3.org/2000/svg" width="200" height="200" viewBox="0 0 200 200" version="1.1">
	<path d="M 36 27.569 C 26.925 34.472, 19.102 40.513, 18.616 40.994 C 18.105 41.499, 18.703 58.854, 20.035 82.184 L 22.338 122.500 18.155 151 C 15.854 166.675, 13.978 179.777, 13.986 180.116 C 13.994 180.454, 25.138 177.289, 38.750 173.083 L 63.500 165.434 67.193 156.967 C 69.224 152.310, 70.911 148.220, 70.943 147.877 C 70.974 147.534, 66.745 145.302, 61.544 142.916 C 56.343 140.530, 52.204 138.463, 52.346 138.321 C 52.488 138.179, 64.108 134.498, 78.168 130.141 C 92.229 125.784, 104.646 121.930, 105.763 121.575 C 107.706 120.959, 107.645 121.525, 104.353 134.588 C 102.460 142.099, 101.044 148.372, 101.206 148.527 C 101.463 148.774, 111.690 142.941, 121.858 136.748 C 124.687 135.026, 122.362 138.980, 107.117 161.824 C 97.163 176.741, 88.902 189.520, 88.759 190.223 C 88.617 190.925, 89.010 191.500, 89.634 191.500 C 90.257 191.500, 101.507 181.381, 114.634 169.014 C 127.760 156.647, 140.920 144.272, 143.878 141.514 L 149.256 136.500 145.562 143.857 L 141.868 151.213 146.022 171.357 C 148.307 182.435, 150.326 191.652, 150.508 191.837 C 150.691 192.022, 151.507 191.122, 152.323 189.837 C 156.708 182.924, 195 115.978, 195 115.223 C 195 114.733, 182.287 111.039, 166.750 107.014 C 151.213 102.990, 137.771 99.331, 136.880 98.883 C 135.608 98.244, 132.460 89.944, 133.301 89.447 C 133.410 89.382, 137.371 87.243, 142.103 84.692 C 149.845 80.519, 151.046 80.153, 154.097 81.028 C 155.961 81.562, 157.827 82, 158.243 82 C 159.639 82, 159.018 79.109, 157.431 78.222 C 156.247 77.559, 159.427 75.446, 170.431 69.588 C 178.444 65.322, 185 61.666, 185 61.464 C 185 61.263, 177.542 50.725, 168.427 38.048 C 154.128 18.160, 151.556 15.067, 149.677 15.501 C 148.480 15.778, 139.928 17.803, 130.672 20.002 C 121.417 22.201, 112.642 23.998, 111.172 23.996 C 109.703 23.994, 96.001 21.969, 80.724 19.496 C 65.448 17.023, 52.848 15.004, 52.724 15.009 C 52.601 15.014, 45.075 20.666, 36 27.569 M 37.175 30.114 L 21 42.229 20.989 46.864 C 20.983 49.414, 21.919 67.475, 23.069 87 L 25.160 122.500 21.176 149.500 C 18.985 164.350, 17.295 176.608, 17.420 176.741 C 17.545 176.873, 20.989 175.889, 25.074 174.554 C 29.158 173.219, 39.099 170.069, 47.165 167.554 L 61.830 162.982 64.576 155.985 C 66.085 152.136, 67.136 148.807, 66.910 148.586 C 66.685 148.365, 61.550 145.849, 55.500 142.995 L 44.500 137.805 55 134.493 C 98.477 120.779, 110.523 117.295, 110.777 118.361 C 110.930 119, 109.705 124.668, 108.055 130.956 C 106.405 137.244, 105.239 142.572, 105.464 142.797 C 105.688 143.021, 110.803 140.234, 116.830 136.602 C 128.125 129.797, 130 129.047, 130 131.335 C 130 132.070, 122.803 143.320, 114.007 156.335 C 105.210 169.351, 98.259 180, 98.560 180 C 98.861 180, 111.261 168.525, 126.117 154.500 C 140.972 140.475, 153.548 129, 154.063 129 C 155.725 129, 155.094 130.850, 149.900 141.200 L 144.799 151.363 148.036 167.682 C 149.816 176.657, 151.577 184, 151.949 184 C 152.621 184, 189.269 121.096, 190.546 117.750 C 190.913 116.787, 190.985 116, 190.705 116 C 190.199 116, 137.994 102.382, 134.861 101.432 C 133.897 101.140, 132.744 98.990, 132.065 96.218 C 131.430 93.623, 130.689 90.759, 130.420 89.854 C 130.056 88.627, 132.038 87.055, 138.216 83.674 C 143.447 80.811, 145.947 78.941, 145 78.601 C 142.666 77.763, 95.567 66.097, 95.382 66.310 C 95.291 66.415, 95.815 75.941, 96.545 87.480 C 97.568 103.639, 97.601 108.634, 96.687 109.215 C 95.877 109.729, 93.475 105.762, 89.129 96.735 C 83.322 84.669, 82.670 82.655, 81.760 73.940 L 80.761 64.380 75.010 67.396 L 69.259 70.412 64.996 90.956 C 62.652 102.255, 60.434 111.837, 60.068 112.248 C 59.703 112.660, 55.425 106.220, 50.563 97.938 C 45.479 89.278, 42.100 82.513, 42.611 82.019 C 43.100 81.547, 48.675 78.382, 55 74.987 C 61.325 71.592, 66.596 68.722, 66.714 68.609 C 66.832 68.497, 68.315 61.901, 70.009 53.952 C 71.703 46.004, 73.345 38.479, 73.658 37.232 C 74.220 34.987, 74.195 34.981, 71.271 36.659 C 68.938 37.998, 61.389 47.613, 55.792 56.374 C 55.294 57.154, 54.769 57.169, 54.026 56.426 C 53.283 55.683, 54.179 53.679, 57.040 49.684 C 59.278 46.558, 60.835 44, 60.500 44 C 60.164 44, 56.286 46.312, 51.881 49.137 C 46.793 52.401, 43.525 53.925, 42.918 53.318 C 42.311 52.711, 46.333 49.538, 53.950 44.615 C 64.170 38.009, 66.679 35.846, 70.969 29.948 C 73.736 26.144, 76 22.661, 76 22.209 C 76 21.582, 56.931 17.938, 53.925 17.990 C 53.609 17.996, 46.071 23.451, 37.175 30.114 M 146.500 19.009 C 144.850 19.460, 138.187 21.042, 131.694 22.525 C 125.201 24.008, 120.046 25.380, 120.240 25.573 C 120.433 25.766, 127.995 27.111, 137.045 28.561 C 146.095 30.011, 153.614 31.305, 153.754 31.436 C 154.021 31.687, 140.545 55.789, 139.622 56.711 C 139.331 57.003, 129.288 51.900, 117.307 45.371 C 105.325 38.842, 94.954 33.355, 94.261 33.177 C 92.396 32.699, 92.731 35.456, 94.750 37.211 C 97.012 39.177, 150.625 73.919, 152.518 74.645 C 153.726 75.109, 177.839 63.291, 180.310 61.024 C 181.087 60.310, 151.737 18.663, 150.233 18.345 C 149.830 18.260, 148.150 18.559, 146.500 19.009 M 87.500 25.946 C 92.368 28.772, 92.645 28.814, 98 27.553 C 104.184 26.095, 103.722 25.823, 92 24.017 C 82.459 22.546, 81.989 22.748, 87.500 25.946 M 81 27.458 C 81 28.930, 89.682 34.652, 90.569 33.765 C 91.644 32.689, 89.737 30.369, 86.035 28.250 C 81.404 25.599, 81 25.536, 81 27.458 M 104.250 28.789 C 100.813 29.646, 98 30.672, 98 31.067 C 98 32.079, 136.940 53.187, 138.096 52.801 C 138.617 52.628, 141.481 48.214, 144.460 42.993 L 149.877 33.500 133.189 30.801 C 124.010 29.317, 115.150 27.906, 113.500 27.666 C 111.850 27.426, 107.688 27.931, 104.250 28.789 M 81.310 36.040 C 81.640 38.493, 82.209 44.885, 82.574 50.243 L 83.237 59.987 87.219 61.059 C 89.410 61.649, 91.437 61.897, 91.724 61.610 C 92.011 61.323, 91.922 55.917, 91.527 49.597 C 90.862 38.945, 90.633 37.992, 88.405 36.553 C 87.082 35.699, 84.810 34.230, 83.355 33.290 L 80.710 31.580 81.310 36.040 M 76.999 33.691 C 76.999 34.136, 75.460 41.698, 73.579 50.496 C 71.698 59.294, 70.254 66.587, 70.369 66.702 C 70.484 66.817, 72.946 65.559, 75.841 63.906 C 79.679 61.714, 80.968 60.440, 80.603 59.200 C 80.328 58.265, 79.793 52.201, 79.414 45.724 C 79.035 39.247, 78.337 33.708, 77.862 33.415 C 77.388 33.122, 77 33.246, 76.999 33.691 M 94.109 46.167 C 94.168 49.100, 94.506 54.174, 94.859 57.442 L 95.500 63.384 122.480 70.128 C 137.320 73.837, 149.545 76.788, 149.648 76.686 C 149.883 76.450, 96.249 41.619, 94.955 41.167 C 94.418 40.979, 94.048 43.168, 94.109 46.167 M 84.298 72.162 C 84.829 80.360, 85.366 82.278, 89.615 91.137 C 92.215 96.557, 94.400 100.881, 94.472 100.746 C 94.544 100.611, 94.130 92.643, 93.552 83.040 L 92.500 65.581 88.103 64.311 L 83.707 63.042 84.298 72.162 M 54.747 78.195 C 45.519 83.063, 45.063 83.453, 46.296 85.420 C 47.013 86.564, 50.029 91.648, 52.999 96.717 C 55.969 101.787, 58.538 105.796, 58.707 105.626 C 58.877 105.456, 60.363 99.059, 62.009 91.409 C 63.656 83.759, 65.236 76.487, 65.521 75.250 C 65.805 74.013, 65.692 73.011, 65.269 73.025 C 64.846 73.038, 60.111 75.365, 54.747 78.195" stroke="none" fill="black" fill-rule="evenodd"/>
</svg>