<svg xmlns="http://www.w3.org/2000/svg" width="200" height="200" viewBox="0 0 200 200" version="1.1">
	<path d="M 45.082 29.024 L 23.991 47.043 25.574 50.772 C 26.444 52.822, 29.193 59.563, 31.682 65.750 C 34.929 73.820, 36.673 76.983, 37.854 76.940 C 38.759 76.907, 46.025 75.882, 54 74.663 L 68.500 72.447 86.811 61.585 C 99.019 54.343, 104.789 50.389, 104.123 49.723 C 103.456 49.056, 97.185 52.232, 85.311 59.252 L 67.500 69.782 53.142 71.950 C 45.246 73.142, 38.534 73.868, 38.228 73.562 C 37.314 72.648, 28 49.706, 28 48.369 C 28 47.691, 36.734 39.690, 47.408 30.591 L 66.817 14.046 94.658 19.574 C 109.971 22.614, 123.175 25.334, 124 25.619 C 124.907 25.931, 121.744 28.082, 116 31.059 C 110.775 33.767, 106.207 35.987, 105.848 35.992 C 105.489 35.996, 104.725 34.650, 104.150 33 C 103.575 31.350, 102.454 30, 101.659 30 C 100.864 30, 90.379 31.572, 78.357 33.494 C 66.336 35.416, 56.163 36.991, 55.750 36.994 C 55.337 36.997, 55 37.675, 55 38.500 C 55 39.325, 55.788 40.003, 56.750 40.008 C 57.712 40.012, 67.645 40.685, 78.823 41.504 C 93.662 42.590, 99.695 42.698, 101.181 41.903 C 102.299 41.305, 103.550 41.194, 103.960 41.657 C 104.836 42.648, 112 62.217, 112 63.619 C 112 65.016, 103.075 70.182, 90.561 76.028 L 79.621 81.139 62.564 79.150 C 53.182 78.056, 45.374 77.293, 45.212 77.455 C 44.699 77.968, 44.956 152.290, 45.473 152.806 C 45.745 153.078, 55.762 152.678, 67.733 151.918 C 79.705 151.158, 89.950 150.528, 90.500 150.518 C 91.050 150.508, 91.637 151.462, 91.805 152.638 C 92.094 154.665, 91.573 154.814, 81.805 155.504 L 71.500 156.231 47.319 170.714 C 32.208 179.764, 23.318 185.664, 23.617 186.444 C 23.980 187.389, 32.921 186.205, 60.500 181.560 C 80.522 178.188, 97.207 175.126, 97.578 174.756 C 97.948 174.385, 97.665 170.469, 96.947 166.053 C 96.230 161.636, 95.836 157.843, 96.072 157.622 C 96.307 157.402, 106.850 156.669, 119.500 155.994 C 132.150 155.319, 142.914 154.707, 143.420 154.634 C 143.926 154.560, 148.201 164.252, 152.920 176.172 C 157.639 188.091, 161.827 198.168, 162.226 198.565 C 162.626 198.962, 163.198 198.647, 163.498 197.865 C 163.798 197.084, 160.496 186.782, 156.160 174.972 C 151.824 163.162, 147.959 152.487, 147.571 151.250 C 146.885 149.062, 147.061 149, 153.933 149 C 160.481 149, 161 148.843, 161 146.866 C 161 145.692, 158.723 130.373, 155.941 112.823 L 150.882 80.914 164.118 66.207 C 171.399 58.118, 178.264 50.476, 179.376 49.225 L 181.396 46.949 174.610 40.111 L 167.824 33.272 171.485 31.009 C 176.418 27.961, 174.774 26.237, 168.837 28.234 L 164.500 29.692 156.330 22.296 L 148.160 14.900 139.152 19.424 L 130.144 23.948 100.322 17.992 C 83.920 14.716, 69.526 11.804, 68.336 11.520 C 66.630 11.114, 61.709 14.818, 45.082 29.024 M 141 21.500 C 137.425 23.372, 134.788 24.925, 135.140 24.951 C 135.913 25.010, 154.479 28.750, 158 29.556 C 160.062 30.029, 159.453 29.066, 154.531 24.065 C 151.249 20.729, 148.324 18.022, 148.031 18.049 C 147.739 18.075, 144.575 19.628, 141 21.500 M 117.956 33.279 L 106.411 39.500 110.261 50 C 112.379 55.775, 114.493 60.884, 114.960 61.354 C 115.428 61.825, 124.383 56.931, 134.915 50.448 C 145.423 43.980, 153.859 38.526, 153.662 38.329 C 153.465 38.132, 148.514 39.102, 142.660 40.485 C 130.192 43.431, 131 43.347, 131 41.691 C 131 40.897, 136.005 38.768, 143.744 36.272 C 153.579 33.099, 155.918 32.026, 153.994 31.572 C 148.360 30.243, 131.699 27.002, 130.640 27.029 C 130.013 27.045, 124.305 29.858, 117.956 33.279 M 83.500 35.443 C 68.825 37.913, 69.455 38.380, 89 39.518 C 100.840 40.208, 103.526 39.322, 101.940 35.250 C 100.890 32.553, 100.649 32.555, 83.500 35.443 M 147.500 45.820 C 138.150 51.694, 130.500 56.950, 130.500 57.500 C 130.500 58.050, 128.094 62.459, 125.154 67.298 L 119.808 76.095 122.279 82.798 C 124.386 88.515, 125.135 89.547, 127.375 89.816 C 130.366 90.177, 130.772 91.715, 128.346 93.489 C 126.849 94.583, 127.587 97.147, 136.081 120.349 L 145.472 146 151.736 146 C 156.512 146, 158 145.659, 158 144.565 C 158 143.775, 155.754 129.101, 153.009 111.955 C 150.263 94.809, 148.332 80.268, 148.716 79.640 C 149.100 79.013, 155.621 71.635, 163.207 63.245 C 170.793 54.854, 177 47.640, 177 47.213 C 177 46.351, 165.716 34.959, 164.971 35.070 C 164.712 35.108, 156.850 39.945, 147.500 45.820 M 120.250 64.801 C 116.996 66.365, 116.260 68.283, 117.913 70.893 C 118.584 71.953, 119.433 71.275, 121.469 68.048 C 122.941 65.718, 123.999 63.683, 123.822 63.525 C 123.645 63.368, 122.037 63.942, 120.250 64.801 M 110 69.722 C 103.368 72.491, 89.868 81.300, 91.095 82.059 C 91.747 82.462, 95.705 83.091, 99.890 83.458 C 104.076 83.825, 108.271 84.347, 109.213 84.618 C 110.434 84.970, 111.769 83.758, 113.858 80.402 C 116.405 76.311, 116.654 75.287, 115.758 72.597 C 114.315 68.261, 113.942 68.075, 110 69.722 M 47.088 87.238 C 47.136 91.232, 47.473 96.568, 47.838 99.096 L 48.500 103.692 64.149 94.096 C 72.756 88.818, 79.690 84.384, 79.558 84.242 C 79.426 84.101, 73.734 83.323, 66.909 82.514 C 60.084 81.705, 52.813 80.803, 50.750 80.510 L 47 79.976 47.088 87.238 M 114.928 83.915 C 112.980 87.380, 112.369 87.782, 109.614 87.414 C 85.976 84.257, 85.152 84.273, 79.247 87.981 L 74.500 90.962 92.103 90.981 C 101.785 90.991, 112.413 90.717, 115.720 90.371 L 121.734 89.743 120.176 84.871 C 119.319 82.192, 118.283 80, 117.873 80 C 117.463 80, 116.138 81.762, 114.928 83.915 M 61 99.147 C 55.775 102.454, 52.400 104.935, 53.500 104.660 C 54.600 104.385, 61.088 103.148, 67.918 101.910 L 80.336 99.660 76.418 96.345 C 74.263 94.521, 72.050 93.053, 71.500 93.082 C 70.950 93.111, 66.225 95.840, 61 99.147 M 80.166 93.876 C 78.210 95.116, 83.582 99.124, 86.371 98.506 C 87.542 98.246, 93.675 97.077, 100 95.908 C 106.325 94.739, 111.687 93.606, 111.917 93.391 C 112.774 92.587, 81.445 93.066, 80.166 93.876 M 106.155 97.597 C 96.615 99.390, 88.613 101.053, 88.373 101.294 C 88.132 101.535, 95.374 107.446, 104.467 114.430 C 113.560 121.414, 121 127.474, 121 127.897 C 121 129.951, 118.717 129.241, 103.279 122.387 C 94.138 118.329, 86.524 115.143, 86.360 115.307 C 86.195 115.472, 92.122 122.299, 99.530 130.478 C 106.939 138.657, 113 145.764, 113 146.271 C 113 147.336, 140.460 146.877, 141.540 145.794 C 142.047 145.287, 124.517 95.035, 123.619 94.418 C 123.553 94.373, 115.695 95.804, 106.155 97.597 M 64.250 105.317 L 48 108.398 48 129.464 L 48 150.529 69.250 149.135 C 80.938 148.369, 90.574 147.687, 90.665 147.621 C 90.756 147.554, 90.142 143.764, 89.300 139.198 C 88.459 134.633, 88.021 130.646, 88.327 130.339 C 88.634 130.033, 90.148 130.667, 91.692 131.750 C 93.237 132.832, 96.525 134.967, 99 136.494 C 104.360 139.800, 104.782 140.364, 89.095 123.253 C 75.126 108.018, 75.709 107.220, 94.706 115.572 C 102.843 119.150, 108.825 121.452, 108 120.690 C 102.422 115.531, 83.695 102.021, 82.256 102.118 C 81.290 102.183, 73.188 103.623, 64.250 105.317 M 92.401 141.078 L 93.381 147 101.940 147 L 110.500 147 102.758 142.040 C 90.403 134.123, 91.264 134.203, 92.401 141.078 M 108.191 149.748 C 93.928 150.055, 93.885 150.063, 94.566 152.278 C 94.941 153.500, 95.305 154.549, 95.374 154.608 C 95.443 154.668, 104.275 154.126, 115 153.406 C 125.725 152.685, 136.637 152.074, 139.250 152.048 C 142.784 152.012, 144 151.616, 144 150.500 C 144 148.903, 145.784 148.940, 108.191 149.748 M 74.918 158.892 C 71.248 159.515, 32.230 182.243, 33.884 182.795 C 34.939 183.146, 94.145 173.188, 94.782 172.552 C 95.013 172.320, 94.666 168.951, 94.011 165.065 L 92.819 158 85.660 158.142 C 81.722 158.220, 76.888 158.557, 74.918 158.892" stroke="none" fill="black" fill-rule="evenodd"/>
</svg>