<svg xmlns="http://www.w3.org/2000/svg" width="200" height="200" viewBox="0 0 200 200" version="1.1">
	<path d="M 64.048 14.750 C 64.074 15.162, 68.579 20.225, 74.059 26 L 84.022 36.500 83.261 42 C 82.476 47.670, 82.613 61.167, 83.509 66.553 L 84.017 69.606 105.258 72.814 C 116.941 74.578, 127.194 76.017, 128.042 76.011 C 129.957 75.997, 150.610 40.183, 149.367 39.030 C 148.890 38.588, 140.752 36.510, 131.283 34.414 C 121.813 32.317, 114.199 30.467, 114.363 30.303 C 114.921 29.745, 165.131 19.798, 165.505 20.171 C 165.876 20.543, 173.616 61.316, 174.194 65.947 C 174.493 68.338, 174.050 68.500, 154.642 73.104 C 143.720 75.696, 134.491 78.195, 134.132 78.658 C 133.361 79.654, 134.247 126.581, 135.052 127.386 C 135.356 127.689, 145.407 123.677, 157.389 118.469 C 169.370 113.261, 179.596 109, 180.113 109 C 181.020 109, 163.478 144.676, 160.810 148.259 C 159.587 149.901, 157.846 149.466, 134.500 141.674 L 109.500 133.330 109 105.488 L 108.500 77.647 102 77.905 C 98.425 78.047, 87.175 78.726, 77 79.414 C 66.825 80.102, 58.313 80.516, 58.085 80.334 C 57.856 80.152, 56.468 65.601, 55 48 C 53.532 30.399, 52.114 15.780, 51.848 15.515 C 51.583 15.250, 46.280 22.256, 40.065 31.084 L 28.763 47.136 35.461 61.214 L 42.160 75.293 40.580 79.430 C 38.518 84.830, 38.567 85.147, 41.364 84.445 C 44.290 83.710, 44.976 85.720, 44.966 95 L 44.959 101.500 32.951 108 C 24.792 112.416, 20.810 115.141, 20.529 116.500 C 20.302 117.600, 19.400 132.450, 18.525 149.500 C 17.650 166.550, 16.836 181.812, 16.717 183.416 C 16.195 190.441, 19.308 186.364, 28.517 167.966 C 37.329 150.360, 38.252 148.913, 39.807 150.263 C 41.176 151.452, 51.163 159.288, 76.569 179.111 C 77.158 179.570, 91.823 180.641, 109.160 181.491 L 140.680 183.037 164.090 173.053 C 178.473 166.919, 187.625 162.477, 187.823 161.534 C 188.001 160.690, 187.551 159.997, 186.823 159.994 C 172.267 159.924, 81.909 153.383, 78.755 152.171 C 77.267 151.599, 78.776 148.589, 88.986 131.761 C 100.902 112.122, 100.951 112.014, 98.731 110.619 C 97.504 109.848, 92.830 106.966, 88.344 104.216 C 80.886 99.643, 60.554 84.090, 61.218 83.466 C 61.373 83.320, 69.825 82.701, 80 82.089 C 90.175 81.477, 100.180 80.753, 102.234 80.479 L 105.968 79.981 106.234 107.655 L 106.500 135.329 132.986 144.165 C 147.553 149.024, 160.017 153, 160.684 153 C 161.784 153, 187.342 104.009, 186.619 103.285 C 186.449 103.115, 175.364 107.705, 161.986 113.486 C 148.608 119.266, 137.571 123.884, 137.461 123.748 C 137.350 123.611, 137.030 113.789, 136.749 101.920 L 136.238 80.341 156.369 75.565 C 167.441 72.938, 176.822 70.492, 177.216 70.128 C 177.610 69.765, 175.698 57.612, 172.966 43.122 C 170.235 28.631, 168 16.655, 168 16.507 C 168 16.260, 113.393 27.202, 108.250 28.479 C 107.013 28.787, 106 29.638, 106 30.370 C 106 31.288, 112.211 33.068, 126 36.100 C 137 38.518, 146 40.777, 146 41.119 C 146 42.675, 128.491 72.258, 127.299 72.715 C 126.153 73.155, 94.610 68.802, 88.373 67.343 C 86.473 66.898, 86.173 65.912, 85.562 58.104 C 85.138 52.684, 85.328 46.782, 86.061 42.570 L 87.244 35.777 76.389 24.889 C 66.315 14.783, 63.925 12.819, 64.048 14.750 M 45.950 27.362 C 43.997 30.188, 40.029 35.899, 37.132 40.053 L 31.864 47.606 37.432 58.951 L 43 70.296 43 64.565 C 43 57.580, 45.364 57.160, 45.740 64.078 C 45.873 66.510, 46.246 71.313, 46.570 74.750 L 47.159 81 51.080 81 C 53.236 81, 54.991 80.662, 54.979 80.250 C 54.884 76.801, 50.036 22.709, 49.803 22.498 C 49.636 22.347, 47.902 24.536, 45.950 27.362 M 47.570 91.250 C 47.950 95.237, 48.385 98.646, 48.537 98.824 C 48.690 99.002, 50.206 98.428, 51.907 97.548 L 55 95.949 54.973 99.224 C 54.957 101.026, 54.292 112.400, 53.494 124.500 C 52.696 136.600, 52.034 147.963, 52.022 149.750 C 52.008 151.840, 51.506 153, 50.616 153 C 49.028 153, 48.617 149.634, 46.894 122.500 C 46.265 112.600, 45.682 104.413, 45.598 104.306 C 45.489 104.167, 24.530 115.559, 23.355 116.396 C 22.947 116.687, 19.847 176.042, 20.187 177.061 C 20.406 177.717, 24.140 170.772, 28.485 161.627 C 32.830 152.482, 36.636 145.005, 36.942 145.011 C 37.249 145.016, 46.616 152.184, 57.758 160.940 C 81.328 179.461, 74.815 177.380, 114.500 179.068 L 140.500 180.173 161 171.337 L 181.500 162.500 158.500 161.302 C 139.918 160.334, 78.359 155.577, 73.234 154.713 C 72.488 154.588, 77.151 145.965, 84.599 133.699 C 91.546 122.258, 97.066 112.769, 96.865 112.612 C 96.664 112.455, 92.675 110.035, 88 107.233 C 83.325 104.431, 74.380 98.058, 68.121 93.070 C 57.254 84.408, 56.521 84, 51.811 84 L 46.879 84 47.570 91.250 M 49.345 102.250 C 48.456 103.688, 48.785 114.939, 49.954 123 L 50.750 128.500 50.881 123 C 50.953 119.975, 51.301 113.787, 51.654 109.250 C 52.096 103.573, 51.957 101, 51.207 101 C 50.608 101, 49.770 101.563, 49.345 102.250" stroke="none" fill="black" fill-rule="evenodd"/>
</svg>