<svg xmlns="http://www.w3.org/2000/svg" width="200" height="200" viewBox="0 0 200 200" version="1.1">
	<path d="M 105 21.196 C 84.375 23.939, 67.364 26.316, 67.198 26.478 C 67.031 26.639, 66.479 31.210, 65.971 36.636 C 65.463 42.061, 64.838 48.595, 64.582 51.155 L 64.117 55.810 77.597 66.074 L 91.077 76.337 111.288 75.039 C 131.090 73.768, 136.658 72.874, 135.586 71.139 C 135.292 70.663, 124.352 65.427, 111.276 59.503 C 98.199 53.578, 87.399 48.654, 87.276 48.559 C 87.089 48.414, 100.166 42.553, 145.628 22.406 L 150.757 20.133 155.682 36.816 L 160.606 53.500 154.903 70.967 C 151.765 80.574, 148.784 88.572, 148.276 88.741 C 147.768 88.911, 139.574 86.087, 130.067 82.468 C 120.559 78.848, 112.534 76.132, 112.234 76.432 C 111.934 76.733, 112.557 86.208, 113.618 97.489 L 115.548 118 112.774 118 C 111.248 118, 110 118.443, 110 118.984 C 110 120.338, 116.151 161.449, 116.392 161.710 C 116.499 161.826, 127.546 160.573, 140.940 158.926 C 154.335 157.279, 165.711 156.070, 166.221 156.240 C 167.284 156.595, 175.227 175.107, 174.589 175.744 C 174.358 175.975, 164.894 177.117, 153.557 178.282 C 131.121 180.587, 133.624 180.707, 102.648 175.834 L 88.796 173.655 76.861 155.791 C 70.296 145.967, 64.532 138.171, 64.051 138.468 C 63.571 138.765, 57.726 145.962, 51.062 154.462 C 44.398 162.961, 38.621 170.116, 38.223 170.360 C 37.825 170.605, 35.362 171.125, 32.750 171.516 C 29.143 172.056, 28 171.912, 28 170.920 C 28 167.137, 44.293 128.788, 51.427 115.780 C 55.867 107.684, 59.743 101.046, 60.041 101.030 C 60.338 101.013, 62.328 106.737, 64.462 113.750 C 68.336 126.478, 68.359 126.521, 77.921 138.422 L 87.500 150.344 88.118 139.422 C 88.458 133.415, 89.031 120.625, 89.390 111 L 90.044 93.500 79.272 87.142 L 68.500 80.783 55.666 82.474 C 48.607 83.404, 42.696 84.015, 42.530 83.832 C 42.364 83.650, 41.929 72.025, 41.562 58 L 40.895 32.500 48.948 26.735 C 56.313 21.463, 58.568 19, 56.031 19 C 55.498 19, 51.238 21.809, 46.565 25.242 L 38.067 31.483 38.672 58.992 C 39.005 74.121, 39.424 86.672, 39.603 86.882 C 39.783 87.091, 46.221 86.459, 53.911 85.476 L 67.892 83.689 77.532 89.442 L 87.173 95.195 86.442 116.313 C 86.040 127.928, 85.422 138.515, 85.068 139.839 C 84.467 142.086, 84.056 141.789, 78.886 135.373 C 70.986 125.569, 70.696 124.985, 66.036 109.500 C 63.719 101.800, 61.518 95.178, 61.146 94.785 C 60.774 94.391, 56.070 101.976, 50.692 111.639 C 43.724 124.159, 38.483 135.383, 32.457 150.697 C 27.806 162.515, 24 172.594, 24 173.093 C 24 173.592, 27.487 173.973, 31.750 173.940 L 39.500 173.880 51.891 157.937 L 64.282 141.995 75.697 158.992 C 83.469 170.567, 87.811 176.144, 89.305 176.474 C 90.512 176.741, 100.725 178.383, 112 180.124 L 132.500 183.289 155 181.005 C 167.375 179.749, 177.793 178.446, 178.152 178.111 C 178.511 177.775, 176.538 171.988, 173.768 165.250 C 170.252 156.698, 168.244 153.002, 167.116 153.007 C 166.227 153.011, 155.150 154.330, 142.500 155.938 C 129.850 157.546, 119.229 158.555, 118.897 158.181 C 118.565 157.806, 117.289 150.525, 116.060 142 C 114.832 133.475, 113.598 125.329, 113.318 123.899 L 112.809 121.297 136.953 120.767 C 150.232 120.475, 161.316 120.018, 161.583 119.751 C 161.850 119.484, 161.940 114.296, 161.784 108.223 L 161.500 97.181 140.207 106.214 C 128.495 111.182, 118.719 115.052, 118.481 114.815 C 117.829 114.162, 114.699 80.967, 115.239 80.427 C 115.497 80.169, 123.480 82.911, 132.979 86.521 C 142.478 90.130, 150.357 92.952, 150.488 92.792 C 151.286 91.816, 163 55.160, 163 53.640 C 163 52.618, 160.696 43.995, 157.880 34.477 C 152.372 15.858, 152.407 15.910, 145.500 16.118 C 143.850 16.167, 125.625 18.452, 105 21.196 M 109.500 23.457 C 84.137 26.868, 83.285 27.454, 102.338 28.375 C 111.973 28.840, 112.425 28.760, 124.338 24.479 C 131.027 22.075, 135.825 20.135, 135 20.169 C 134.175 20.202, 122.700 21.682, 109.500 23.457 M 121.500 28.344 L 112.500 31.588 99 30.863 C 91.575 30.465, 81.849 29.884, 77.387 29.574 L 69.274 29.009 68.612 37.755 C 68.248 42.565, 67.706 48.300, 67.408 50.500 L 66.865 54.500 79.183 63.953 L 91.500 73.407 97 73.170 C 104.182 72.861, 128.356 70.977, 128.628 70.706 C 128.743 70.590, 118.049 65.594, 104.863 59.604 C 91.676 53.614, 81.250 48.401, 81.694 48.019 C 82.137 47.638, 93.525 42.466, 107 36.526 C 120.475 30.586, 131.688 25.563, 131.917 25.363 C 132.970 24.445, 129.800 25.352, 121.500 28.344 M 139.533 109.481 L 120.566 117.500 139.427 117.773 C 149.801 117.923, 158.467 117.866, 158.687 117.647 C 158.906 117.428, 158.953 113.697, 158.792 109.356 L 158.500 101.463 139.533 109.481" stroke="none" fill="black" fill-rule="evenodd"/>
</svg>