<svg xmlns="http://www.w3.org/2000/svg" width="200" height="200" viewBox="0 0 200 200" version="1.1">
	<path d="M 112.200 14.750 C 106.124 31.538, 102 43.393, 102 44.076 C 102 44.535, 103.857 44.256, 106.126 43.456 C 108.395 42.655, 110.645 42, 111.126 42 C 111.607 42, 112 45.987, 112 50.861 L 112 59.721 96.575 53.452 C 82.445 47.710, 80 47.054, 80 49.005 C 80 49.374, 86.862 52.524, 95.250 56.004 C 103.638 59.484, 110.828 62.607, 111.228 62.944 C 111.885 63.496, 96.377 63.393, 77.250 62.717 C 72.403 62.546, 70 62.833, 70 63.584 C 70 65.038, 81.452 66, 98.750 66 L 112.199 66 111.849 74.918 C 111.657 79.823, 111.212 84.123, 110.861 84.474 C 110.509 84.825, 98.584 83.986, 84.361 82.610 C 68.419 81.067, 58.142 80.464, 57.567 81.037 C 57.053 81.548, 56.828 82.159, 57.067 82.394 C 57.305 82.629, 69.425 85.260, 84 88.239 C 103.697 92.266, 110.574 94.041, 110.790 95.153 C 110.994 96.209, 104.847 99.661, 89.899 106.884 C 74.387 114.380, 69.016 117.416, 69.828 118.228 C 70.640 119.040, 75.964 118.884, 89.719 117.643 C 100.048 116.711, 110.093 115.712, 112.039 115.422 L 115.578 114.895 120.182 101.007 C 122.714 93.369, 124.534 86.867, 124.226 86.560 C 123.919 86.252, 121.942 86, 119.833 86 C 117.725 86, 116 85.835, 116 85.634 C 116 85.433, 118.025 80.993, 120.500 75.768 C 122.975 70.543, 125 66.039, 125 65.757 C 125 65.476, 122.750 64.278, 120 63.095 L 115 60.944 115.001 50.722 L 115.002 40.500 129.869 35.497 L 144.736 30.493 145.368 39.400 C 145.715 44.299, 146.005 51.726, 146.011 55.904 C 146.017 60.082, 146.292 65.133, 146.622 67.128 L 147.222 70.756 157.769 72.869 C 163.570 74.032, 168.542 75.209, 168.819 75.485 C 169.095 75.762, 167.927 81.728, 166.224 88.744 C 163.952 98.098, 160.856 106.664, 154.616 120.861 C 146.810 138.620, 145.673 142.071, 140.878 162.552 L 135.650 184.881 132.575 183.595 C 116.695 176.957, 98.005 168.570, 98.025 168.093 C 98.039 167.767, 104.550 163.450, 112.494 158.500 C 120.438 153.550, 126.952 149.275, 126.971 149 C 126.989 148.725, 120.141 148.750, 111.752 149.056 L 96.500 149.612 73 160.910 C 49.980 171.976, 49.286 172.234, 39 173.517 C 33.225 174.238, 28.378 174.707, 28.229 174.559 C 28.080 174.412, 33.705 171.682, 40.729 168.493 C 62.380 158.662, 66.294 156.446, 87.726 141.882 L 108.500 127.766 94.890 128.431 L 81.281 129.095 55.899 137.514 L 30.517 145.933 28.777 136.216 C 27.819 130.872, 27.198 126.050, 27.395 125.500 C 27.592 124.950, 32.277 118.736, 37.805 111.692 C 46.675 100.388, 47.802 98.509, 47.404 95.692 C 46.629 90.212, 42 49.097, 42 47.694 C 42 46.832, 46.860 45.034, 55.790 42.593 L 69.580 38.823 74.921 32.412 C 77.859 28.885, 80.395 26, 80.557 26 C 80.719 26, 77.024 33.928, 72.345 43.619 C 66.316 56.104, 64.149 61.549, 64.905 62.305 C 65.661 63.061, 69.327 56.468, 77.486 39.680 C 83.819 26.649, 89 15.540, 89 14.994 C 89 12.494, 86.415 14.767, 77.904 24.750 C 72.863 30.663, 68.235 35.794, 67.619 36.154 C 67.004 36.514, 60.313 38.498, 52.750 40.564 C 42.400 43.390, 39.003 44.712, 39.012 45.910 C 39.018 46.784, 40.352 58.928, 41.976 72.895 L 44.929 98.289 34.446 111.591 L 23.964 124.893 26.073 136.697 C 27.233 143.188, 28.349 148.670, 28.553 148.879 C 28.757 149.087, 40.763 145.394, 55.233 140.671 C 76.320 133.790, 83.226 131.952, 90.021 131.416 C 95.560 130.979, 98.153 131.087, 97.500 131.727 C 96.950 132.266, 89.351 137.568, 80.613 143.510 C 67.389 152.502, 60.767 156.145, 41.113 165.241 C 28.126 171.252, 17.412 176.257, 17.304 176.364 C 17.197 176.470, 17.424 177.068, 17.809 177.691 C 18.323 178.523, 22.711 178.312, 34.333 176.896 L 50.157 174.967 74.385 163.444 L 98.613 151.920 107.731 152.210 L 116.849 152.500 104.353 160.379 C 97.481 164.712, 92.227 168.611, 92.679 169.042 C 93.806 170.119, 135.505 188, 136.889 188 C 137.500 188, 138 187.698, 138 187.329 C 138 186.960, 140.467 176.272, 143.483 163.579 C 148.512 142.410, 149.672 138.893, 157.501 121.084 C 164.125 106.018, 166.797 98.513, 169.430 87.584 C 171.297 79.838, 172.710 73.384, 172.571 73.243 C 172.432 73.101, 167.185 71.957, 160.909 70.700 L 149.500 68.414 148.624 47.707 C 148.143 36.318, 147.451 27, 147.087 27 C 146.723 27, 139.709 29.250, 131.500 32 C 123.291 34.750, 116.230 37, 115.808 37 C 115.387 37, 115.327 31.375, 115.675 24.500 C 116.228 13.583, 116.112 12, 114.752 12 C 113.896 12, 112.748 13.238, 112.200 14.750 M 109.274 31.121 L 106.047 40.205 108.774 39.532 C 110.273 39.161, 111.858 38.510, 112.295 38.084 C 112.732 37.659, 112.957 33.874, 112.795 29.673 L 112.500 22.036 109.274 31.121 M 114.625 71.440 C 114.291 74.223, 114.052 77.850, 114.095 79.500 C 114.162 82.103, 114.619 81.573, 117.547 75.500 C 119.404 71.650, 120.940 68.214, 120.961 67.863 C 120.983 67.513, 119.703 67.037, 118.117 66.804 C 115.325 66.394, 115.214 66.541, 114.625 71.440 M 99 88.378 C 109.322 90.631, 111 90.723, 111 89.035 C 111 88.159, 106.224 87.425, 95 86.577 C 88.914 86.117, 89.169 86.232, 99 88.378 M 114.494 88.839 C 114.222 89.111, 114 91.432, 114 93.998 L 114 98.662 108.250 101.237 C 98.939 105.407, 78.959 115.293, 79.252 115.585 C 79.400 115.733, 87.126 115.100, 96.421 114.177 L 113.321 112.500 116.657 102.549 C 118.492 97.076, 120.233 91.842, 120.526 90.917 C 120.930 89.647, 120.318 89.127, 118.024 88.790 C 116.355 88.545, 114.766 88.567, 114.494 88.839" stroke="none" fill="black" fill-rule="evenodd"/>
</svg>