<svg xmlns="http://www.w3.org/2000/svg" width="200" height="200" viewBox="0 0 200 200" version="1.1">
	<path d="M 138.883 29.750 C 138.819 36.763, 138.481 45.226, 138.133 48.558 L 137.500 54.615 118.777 44.558 C 108.479 39.026, 100.042 34.228, 100.027 33.896 C 100.012 33.564, 104.723 31.089, 110.495 28.396 C 126.603 20.881, 125.901 20.587, 93.750 21.369 C 78.762 21.734, 60.188 22.310, 52.474 22.650 L 38.447 23.268 29.688 45.384 C 24.870 57.548, 20.944 68.099, 20.964 68.830 C 20.984 69.562, 22.337 73.949, 23.972 78.580 C 26.269 85.089, 26.624 87, 25.533 87 C 24.631 87, 23.914 88.532, 23.545 91.250 C 22.761 97.018, 16 168.248, 16 170.736 C 16 172.654, 16.993 172.744, 45.831 173.446 L 75.662 174.173 100.515 164.074 C 114.184 158.520, 125.622 154.386, 125.934 154.887 C 129.921 161.299, 139.691 174.947, 140.310 174.970 C 141.298 175.007, 183 138.965, 183 138.074 C 183 137.726, 175.960 133.405, 167.356 128.471 L 151.712 119.500 166.106 118.775 C 174.023 118.376, 181.051 117.926, 181.724 117.775 C 182.398 117.624, 176.006 112.325, 167.521 106 C 159.036 99.675, 152.073 94.275, 152.048 94 C 152.024 93.725, 156.931 89.241, 162.954 84.036 C 168.977 78.831, 173.780 74.447, 173.628 74.294 C 173.475 74.142, 171.067 72.768, 168.276 71.242 L 163.202 68.467 165.553 65.733 C 166.846 64.230, 168.878 63, 170.069 63 C 171.815 63, 172.121 62.569, 171.650 60.770 C 171.243 59.212, 171.820 57.754, 173.563 55.934 L 176.059 53.329 169.049 44.271 C 162.904 36.332, 142.165 17.033, 139.750 17.008 C 139.338 17.004, 138.947 22.738, 138.883 29.750 M 141.659 33.221 C 141.302 39.424, 141.007 47.239, 141.005 50.587 L 141 56.674 151.750 57.838 C 167.154 59.507, 167.530 59.468, 170.034 55.952 L 172.204 52.905 166.518 45.481 C 163.390 41.397, 157.607 35.256, 153.666 31.832 C 149.725 28.409, 145.557 24.783, 144.404 23.775 L 142.309 21.942 141.659 33.221 M 61.798 24.959 C 50.412 25.296, 40.892 25.780, 40.643 26.036 C 40.395 26.291, 36.405 35.961, 31.777 47.524 L 23.362 68.549 36.125 105.524 C 43.144 125.861, 48.913 143.063, 48.944 143.750 C 48.975 144.438, 48.438 144.996, 47.750 144.991 C 47.051 144.986, 42.098 133.902, 36.513 119.846 C 27.357 96.802, 26.466 94.992, 25.809 98.105 C 24.475 104.422, 18.748 169.081, 19.459 169.793 C 19.847 170.182, 32.672 170.649, 47.960 170.831 L 75.756 171.163 98.628 161.937 C 111.208 156.863, 121.853 152.401, 122.284 152.022 C 122.715 151.643, 115.741 150.739, 106.787 150.014 C 97.833 149.288, 89.530 148.426, 88.338 148.098 C 86.448 147.577, 87.501 146.348, 96.534 138.533 C 102.235 133.601, 106.810 129.492, 106.700 129.401 C 106.590 129.310, 98.237 130.782, 88.138 132.672 C 78.038 134.562, 69.573 135.906, 69.325 135.659 C 69.078 135.411, 70.928 131.122, 73.437 126.126 L 77.998 117.044 96.534 116.772 L 115.070 116.500 87.785 104.093 C 72.778 97.270, 60.111 91.345, 59.635 90.928 C 59.159 90.511, 62.658 80.168, 67.410 67.943 C 72.162 55.719, 75.927 45.605, 75.775 45.468 C 75.624 45.330, 69.019 48.319, 61.098 52.109 C 53.177 55.899, 46.415 59, 46.071 59 C 45.142 59, 37.986 36.831, 38.596 35.845 C 39.851 33.814, 40.860 35.622, 43.918 45.389 L 47.171 55.777 62.336 48.490 L 77.500 41.202 80.466 33.851 C 82.098 29.808, 83.543 26.330, 83.679 26.121 C 83.814 25.913, 86.757 27.211, 90.219 29.006 L 96.513 32.269 104.506 28.185 L 112.500 24.100 97.500 24.224 C 89.250 24.292, 73.184 24.623, 61.798 24.959 M 84.109 32.250 C 83.646 33.487, 82.948 35.524, 82.558 36.776 L 81.849 39.053 87.440 36.310 L 93.032 33.568 89.766 31.826 C 85.505 29.553, 85.107 29.583, 84.109 32.250 M 93.481 43.037 C 91.496 46.979, 90.095 50.428, 90.368 50.701 C 90.924 51.258, 132.329 55.951, 132.801 55.512 C 132.967 55.357, 128.242 52.645, 122.301 49.484 C 116.360 46.323, 108.258 41.966, 104.296 39.803 L 97.091 35.869 93.481 43.037 M 85.597 40.278 L 79.694 43.500 74.533 57 C 71.695 64.425, 67.745 74.669, 65.755 79.765 L 62.137 89.029 66.103 91.052 C 69.384 92.726, 70.295 92.848, 71.386 91.757 C 72.111 91.032, 85.573 87.318, 101.303 83.504 C 117.033 79.690, 129.666 76.328, 129.377 76.034 C 129.088 75.741, 118.650 73.457, 106.182 70.960 C 87.817 67.282, 83.449 66.095, 83.183 64.710 C 82.893 63.205, 83.911 62.992, 91.677 62.931 C 107.529 62.808, 136.971 61.363, 137.660 60.673 C 138.030 60.303, 138.133 59.799, 137.887 59.554 C 137.642 59.309, 126.205 57.911, 112.471 56.448 C 98.737 54.985, 86.921 53.619, 86.214 53.412 C 85.319 53.150, 86.153 50.805, 88.964 45.682 C 94.587 35.438, 94.556 35.388, 85.597 40.278 M 157 65 C 160.121 67.441, 160.291 67.441, 162.500 65 C 164.287 63.026, 164.247 63, 159.405 63.022 L 154.500 63.044 157 65 M 113.329 64.946 C 105.536 65.251, 98.916 65.745, 98.619 66.044 C 97.867 66.801, 135.985 74.127, 137.098 73.440 C 137.594 73.133, 138 70.884, 138 68.441 L 138 64 132.750 64.196 C 129.863 64.304, 121.123 64.641, 113.329 64.946 M 140.562 66.250 C 140.300 67.487, 139.938 75.756, 139.758 84.624 L 139.431 100.748 143.215 97.707 C 145.297 96.034, 147 94.494, 147 94.285 C 147 94.075, 145.895 92.913, 144.544 91.702 L 142.089 89.500 150.478 79.525 L 158.867 69.550 154.184 66.792 C 148.029 63.168, 141.271 62.899, 140.562 66.250 M 153.571 80.174 C 147.765 87.250, 146.296 89.651, 147.144 90.674 C 147.750 91.403, 148.575 92, 148.977 92 C 149.380 92, 154.070 88.181, 159.399 83.512 L 169.089 75.024 165.794 73.016 C 163.982 71.911, 162.185 71.006, 161.800 71.004 C 161.414 71.002, 157.712 75.128, 153.571 80.174 M 106.750 84.864 C 92.037 88.512, 80 91.752, 80 92.064 C 80 92.376, 90.912 94.580, 104.250 96.961 C 117.588 99.342, 129.038 101.566, 129.696 101.904 C 130.463 102.298, 128.777 104.844, 124.989 109.009 C 121.743 112.579, 119.067 115.870, 119.044 116.323 C 118.942 118.243, 122.330 116.075, 129.429 109.680 L 137 102.859 137 90.430 C 137 79.215, 136.829 78.011, 135.250 78.116 C 134.287 78.179, 121.463 81.216, 106.750 84.864 M 78 96.404 C 79.375 97.132, 88.646 101.434, 98.602 105.963 L 116.703 114.198 121.306 109.349 C 125.193 105.254, 125.644 104.390, 124.205 103.790 C 122.338 103.013, 78.735 94.975, 76.736 95.040 C 76.056 95.062, 76.625 95.676, 78 96.404 M 144.108 100.593 C 139.160 105.042, 139 105.355, 139 110.593 L 139 116 157 116 C 166.900 116, 175 115.799, 175 115.553 C 175 115.093, 150.147 96, 149.549 96 C 149.366 96, 146.918 98.067, 144.108 100.593 M 130.500 112.516 L 125.500 116.941 130.500 116.330 C 133.250 115.993, 135.642 115.602, 135.816 115.459 C 135.990 115.317, 135.990 113.601, 135.816 111.646 L 135.500 108.091 130.500 112.516 M 98.118 119.966 L 79.736 120.500 76.746 125.795 C 75.102 128.707, 74.021 131.354, 74.344 131.677 C 74.667 132, 83.159 130.755, 93.216 128.909 C 110.337 125.768, 111.723 125.347, 115 122.304 C 116.925 120.517, 118.050 119.139, 117.500 119.243 C 116.950 119.347, 108.228 119.672, 98.118 119.966 M 120.306 121.468 C 116.975 124.398, 117.225 124.435, 127.338 122.500 C 131.649 121.675, 135.361 121, 135.588 121 C 135.815 121, 136 120.550, 136 120 C 136 119.437, 133.185 119, 129.556 119 C 124.128 119, 122.669 119.389, 120.306 121.468 M 139.750 119.662 C 140.438 119.940, 141.563 119.940, 142.250 119.662 C 142.938 119.385, 142.375 119.158, 141 119.158 C 139.625 119.158, 139.063 119.385, 139.750 119.662 M 144.112 122.081 C 141.698 122.555, 139.448 123.216, 139.112 123.551 C 138.775 123.885, 138.275 130.536, 138 138.329 L 137.500 152.500 132.227 152.156 L 126.954 151.812 133.614 161.406 C 137.278 166.683, 140.595 171, 140.986 171 C 141.560 171, 172.994 144.165, 177.794 139.578 C 178.834 138.583, 176.139 136.645, 164.011 129.671 C 155.719 124.902, 148.837 121.049, 148.717 121.110 C 148.598 121.170, 146.525 121.607, 144.112 122.081 M 122.013 126.204 L 112.526 128.202 102.600 136.797 C 97.141 141.524, 93.093 145.531, 93.604 145.701 C 94.714 146.071, 134.440 149.917, 134.607 149.671 C 134.670 149.577, 135 143.762, 135.340 136.750 C 136.062 121.861, 137.443 122.953, 122.013 126.204" stroke="none" fill="black" fill-rule="evenodd"/>
</svg>