<svg xmlns="http://www.w3.org/2000/svg" width="200" height="200" viewBox="0 0 200 200" version="1.1">
	<path d="M 128 24.212 L 128 37.425 122.989 32.489 L 117.978 27.554 109.239 29.431 C 96.366 32.197, 95.823 32.143, 94.738 28 C 94.233 26.075, 93.701 24.378, 93.555 24.229 C 93.410 24.079, 90.742 24.932, 87.628 26.124 C 83.149 27.838, 81.847 28.835, 81.399 30.895 C 81.088 32.328, 80.678 34.015, 80.489 34.644 C 80.142 35.796, 62.093 40.426, 61.247 39.580 C 60.997 39.330, 61.336 34.344, 62 28.500 C 62.664 22.656, 63.040 17.706, 62.834 17.501 C 62.413 17.079, 16.215 45.514, 14.195 47.439 C 13.132 48.451, 15.829 53.589, 28.712 75.091 L 44.536 101.500 42.518 116.177 C 41.408 124.250, 40.250 131.099, 39.945 131.399 C 39.640 131.698, 36.792 121.156, 33.617 107.971 C 29.753 91.925, 27.414 84, 26.544 84 C 25.029 84, 25.084 83.645, 17.908 139.241 C 15.015 161.649, 12.940 180.273, 13.295 180.628 C 13.866 181.200, 71.646 160.081, 74.713 158.180 C 75.655 157.596, 75.494 153.294, 73.995 138.964 C 72.933 128.809, 71.609 114.650, 71.054 107.500 L 70.045 94.500 76.272 66.272 L 82.500 38.044 87.880 36.924 C 91.541 36.162, 93.464 36.132, 93.896 36.831 C 94.245 37.396, 96.250 44.832, 98.353 53.356 L 102.175 68.855 95.182 80.827 L 88.190 92.799 93.476 101.597 L 98.762 110.396 91.435 121.360 C 84.290 132.053, 84.142 132.401, 85.448 135.412 C 87.804 140.845, 107.232 182.485, 107.603 182.897 C 108.122 183.474, 173.843 179.723, 174.841 179.059 C 175.304 178.752, 174.424 165.450, 172.887 149.500 C 171.349 133.550, 170.070 119.773, 170.045 118.884 C 170.020 117.996, 166.653 113.520, 162.563 108.938 C 158.472 104.355, 155.332 100.271, 155.585 99.862 C 155.839 99.452, 158.848 97.441, 162.273 95.392 C 165.698 93.342, 168.630 91.574, 168.789 91.461 C 168.948 91.348, 169.755 83.661, 170.583 74.378 C 171.411 65.095, 173.419 50.650, 175.044 42.277 C 176.670 33.904, 178 26.214, 178 25.188 C 178 23.592, 174.561 22.429, 154.250 17.154 C 141.188 13.762, 129.938 10.990, 129.250 10.994 C 128.313 10.998, 128 14.313, 128 24.212 M 131 26.792 L 131 39.797 142.005 49.594 C 149.215 56.013, 152.670 59.730, 152.026 60.374 C 151.382 61.018, 147.587 60.302, 141.021 58.297 L 131 55.236 131.030 59.368 C 131.047 61.641, 132.597 68.622, 134.476 74.883 L 137.891 86.266 134.446 93.108 L 131 99.950 131 115.989 L 131 132.028 133.982 134.764 L 136.964 137.500 130.774 148.250 C 127.369 154.162, 124.002 159, 123.292 159 C 121.550 159, 121.572 158.900, 125 151.340 C 127.168 146.559, 128.008 143.166, 128.028 139.112 C 128.055 133.531, 128.024 133.472, 122.278 128.311 L 116.500 123.121 122.250 111.549 L 128 99.978 128 81.148 C 128 67.335, 127.603 61.010, 126.511 57.409 C 124.657 51.298, 124.657 51, 126.500 51 C 127.645 51, 128 49.743, 128 45.691 C 128 40.485, 127.891 40.287, 122.390 35.538 L 116.780 30.695 110.640 31.842 C 101.605 33.531, 97 34.965, 97 36.092 C 97 36.641, 98.817 44.318, 101.038 53.151 L 105.076 69.212 98.538 80.471 C 94.942 86.664, 92 92.233, 92 92.848 C 92 93.462, 93.725 96.785, 95.834 100.232 C 102.679 111.425, 102.775 109.480, 94.812 121.112 C 90.901 126.825, 87.743 132.175, 87.795 133 C 87.847 133.825, 92.637 144.625, 98.438 157 C 108.804 179.112, 109.043 179.506, 112.243 179.841 C 114.989 180.128, 172.245 177.106, 172.631 176.653 C 172.702 176.569, 171.506 163.330, 169.973 147.232 L 167.184 117.965 158.940 108.934 C 154.324 103.878, 151.093 99.548, 151.598 99.096 C 152.094 98.651, 155.677 96.262, 159.559 93.787 L 166.619 89.287 167.867 73.893 C 168.553 65.427, 170.439 51.650, 172.057 43.277 C 173.676 34.904, 175 27.457, 175 26.728 C 175 25.842, 168.114 23.618, 154.250 20.027 C 142.838 17.071, 132.938 14.457, 132.250 14.219 C 131.292 13.887, 131 16.823, 131 26.792 M 38.262 35.344 C 26.581 42.580, 17.018 48.881, 17.012 49.347 C 17.005 49.812, 23.750 61.430, 32 75.164 C 40.250 88.899, 47 101.188, 47 102.475 C 47 105.288, 42.181 138.972, 41.524 140.750 C 40.252 144.196, 38.750 140.090, 33.384 118.500 C 30.171 105.575, 27.291 95, 26.984 95 C 26.235 95, 15.790 176.123, 16.454 176.787 C 16.979 177.312, 70.871 157.313, 72.239 156.085 C 72.645 155.721, 72.087 146.890, 70.997 136.461 C 69.908 126.033, 68.633 112.100, 68.164 105.500 L 67.312 93.500 73.318 66.746 C 76.622 52.031, 79.099 39.765, 78.823 39.489 C 78.546 39.213, 74.272 39.931, 69.323 41.085 L 60.326 43.184 58.504 61.592 C 57.136 75.414, 56.348 80, 55.341 80 C 53.686 80, 53.705 79.240, 55.853 59.750 C 56.807 51.087, 57.344 44, 57.044 44.001 C 56.745 44.002, 48.625 45.795, 39 47.986 C 18.957 52.549, 20 52.399, 20 50.720 C 20 49.877, 26.361 48.006, 38.656 45.231 C 48.916 42.916, 57.451 40.882, 57.622 40.711 C 58.011 40.323, 60.037 22.699, 59.727 22.404 C 59.602 22.285, 49.943 28.108, 38.262 35.344 M 86.835 29.269 C 85.250 29.898, 83.983 31.307, 83.708 32.748 C 83.313 34.815, 83.556 35.086, 85.373 34.598 C 86.543 34.284, 88.175 34.014, 89 33.998 C 91.779 33.945, 93.243 32.343, 92.540 30.125 C 91.804 27.808, 90.874 27.668, 86.835 29.269 M 131.188 48.060 C 131.491 52.200, 131.641 52.368, 136.500 54.014 C 146.835 57.514, 146.764 57.551, 140.585 51.892 C 137.347 48.927, 133.837 45.892, 132.786 45.150 C 130.982 43.875, 130.893 44.038, 131.188 48.060 M 131.100 83.500 L 131.088 93.500 133.076 89.735 C 135.057 85.982, 135.057 85.949, 133.088 79.735 L 131.112 73.500 131.100 83.500 M 123.641 114.654 L 119.782 122.473 123.641 125.815 L 127.500 129.158 127.800 123.579 C 127.965 120.511, 127.965 115.488, 127.800 112.418 L 127.500 106.835 123.641 114.654 M 131 138.500 C 131 139.991, 131.431 140.852, 132 140.500 C 132.550 140.160, 133 139.260, 133 138.500 C 133 137.740, 132.550 136.840, 132 136.500 C 131.431 136.148, 131 137.009, 131 138.500" stroke="none" fill="black" fill-rule="evenodd"/>
</svg>