<svg xmlns="http://www.w3.org/2000/svg" width="200" height="200" viewBox="0 0 200 200" version="1.1">
	<path d="M 130.500 22.600 C 112.520 26.313, 98.030 28.820, 96 28.569 C 94.075 28.331, 80.670 25.631, 66.210 22.568 C 51.751 19.506, 39.504 17, 38.994 17 C 38.178 17, 22.691 63.024, 23.302 63.635 C 23.722 64.056, 63.586 30.541, 63.874 29.525 C 64.683 26.669, 60.913 29.229, 46.130 41.575 C 37.172 49.056, 29.614 54.948, 29.335 54.668 C 28.645 53.978, 39.680 20.597, 40.695 20.306 C 41.138 20.179, 51.625 22.257, 64 24.924 L 86.500 29.774 78.580 30.137 C 73.164 30.385, 70.522 30.918, 70.223 31.822 C 69.865 32.904, 75.959 33.085, 103.893 32.822 C 129.234 32.583, 138.001 32.797, 138.001 33.657 C 138 34.768, 132.568 39.602, 124.837 45.371 L 121.173 48.105 107.050 42.658 L 92.927 37.211 69.419 47.483 C 56.489 53.133, 45.695 57.972, 45.431 58.236 C 45.167 58.500, 52.724 61.913, 62.225 65.820 L 79.500 72.924 68 72.967 C 61.675 72.991, 52.112 73.301, 46.750 73.656 L 37 74.302 37 108.151 L 37 142 39.371 142 C 40.675 142, 48.391 141.302, 56.518 140.448 C 64.646 139.594, 72.392 139.032, 73.731 139.198 C 76.460 139.536, 45.769 151.436, 42.688 151.234 C 37.120 150.869, 44.138 155.238, 66.292 165.928 C 79.928 172.508, 92.021 178.189, 93.166 178.553 C 94.851 179.087, 97.009 177.460, 104.469 170.031 L 113.689 160.849 146.345 157.726 C 170.616 155.404, 179 154.273, 179 153.320 C 179 151.694, 177.620 151.410, 160 149.413 C 151.106 148.405, 140.093 146.320, 131.513 144.021 L 117.527 140.272 125.513 137.840 C 129.906 136.502, 141.034 133.179, 150.243 130.454 C 161.713 127.060, 166.988 125.052, 166.993 124.077 C 167.001 122.444, 154.011 68.886, 153.331 67.750 C 153.084 67.338, 152.226 67, 151.424 67 C 150.282 67, 150.491 65.965, 152.390 62.217 C 154.734 57.592, 155.047 57.373, 161.851 55.609 C 170.031 53.487, 169.324 55.021, 171.054 35.651 C 171.890 26.298, 171.903 22.503, 171.101 21.701 C 170.496 21.096, 169.969 20.802, 169.932 21.050 C 169.894 21.297, 165.957 29.146, 161.182 38.491 L 152.500 55.482 136.500 60.105 C 127.700 62.647, 117.912 65.476, 114.750 66.392 C 111.064 67.459, 109 68.591, 109 69.548 C 109 70.840, 111.409 70.949, 127 70.363 C 137.597 69.966, 144.979 70.060, 144.949 70.594 C 144.920 71.092, 138.733 83.929, 131.199 99.121 L 117.500 126.741 102.195 121.211 C 89.867 116.757, 87.144 115.440, 88.195 114.439 C 88.913 113.755, 98.950 106.780, 110.500 98.938 C 134.826 82.423, 133.694 83.294, 132.446 82.046 C 131.243 80.843, 95.746 86.377, 91.500 88.429 C 89.850 89.227, 86.520 91.097, 84.101 92.585 C 79.030 95.705, 78.828 96.123, 89.780 80.789 C 97.301 70.258, 99.320 68.182, 109.822 60.188 L 121.500 51.298 125.911 52.899 C 128.693 53.909, 130.450 54.123, 130.669 53.478 C 130.859 52.916, 132.924 49.112, 135.257 45.025 C 139.078 38.334, 140.718 36.663, 151.750 28.228 C 162.731 19.831, 166.377 15.811, 162.750 16.099 C 162.063 16.154, 147.550 19.079, 130.500 22.600 M 132.500 24.997 L 109.500 29.780 126.945 30.140 L 144.391 30.500 150.695 25.630 C 154.163 22.952, 157 20.589, 157 20.380 C 157 19.873, 158.492 19.591, 132.500 24.997 M 162.657 41.657 C 159.489 48.022, 157.047 53.380, 157.231 53.564 C 157.940 54.273, 166.193 51.654, 166.551 50.606 C 166.946 49.447, 168.804 30.653, 168.559 30.292 C 168.481 30.178, 165.825 35.292, 162.657 41.657 M 72.747 48.943 C 61.883 53.745, 52.751 57.916, 52.454 58.212 C 52.158 58.509, 59.663 61.857, 69.133 65.653 C 78.603 69.449, 86.516 73.048, 86.717 73.650 C 87.357 75.572, 82.989 75.972, 61.250 75.986 L 40 76 40 107.500 L 40 139 42.250 138.959 C 43.487 138.937, 54.725 137.904, 67.222 136.665 C 84.857 134.916, 90.049 134.686, 90.415 135.640 C 90.902 136.907, 88.327 137.997, 61.217 147.998 C 53.361 150.896, 47.065 153.399, 47.227 153.560 C 47.388 153.722, 58.035 158.884, 70.886 165.031 L 94.252 176.209 103.376 167.176 L 112.500 158.144 136.500 155.919 C 149.700 154.696, 160.861 153.380, 161.302 152.996 C 161.742 152.611, 158.817 152.010, 154.802 151.661 C 146.248 150.915, 107.304 140.936, 109.205 139.976 C 109.917 139.617, 122.533 135.763, 137.241 131.411 C 151.948 127.060, 163.970 123.050, 163.956 122.500 C 163.942 121.950, 161.124 110.029, 157.695 96.010 C 153.239 77.795, 151.037 70.444, 149.979 70.255 C 148.945 70.070, 144.161 78.874, 134.060 99.554 C 126.117 115.814, 119.342 129.289, 119.003 129.498 C 118.665 129.707, 109.638 126.755, 98.944 122.937 C 88.250 119.120, 75.594 114.603, 70.819 112.900 C 64.712 110.722, 62.292 109.403, 62.657 108.452 C 63.062 107.395, 65.278 107.860, 72.789 110.579 C 78.077 112.493, 83.016 113.824, 83.765 113.537 C 85.763 112.770, 125.074 85.741, 124.715 85.381 C 124.547 85.213, 117.642 86.169, 109.370 87.505 C 94.677 89.877, 94.114 90.061, 84.948 95.478 C 76.031 100.747, 73.182 101.671, 73.756 99.106 C 73.897 98.477, 79.152 90.883, 85.433 82.231 C 96.034 67.628, 97.611 65.929, 107.413 58.537 C 113.221 54.157, 117.642 50.277, 117.237 49.915 C 116.578 49.327, 95.980 41.139, 93.500 40.480 C 92.950 40.333, 83.611 44.142, 72.747 48.943 M 129.385 45.171 C 124.557 48.805, 124.410 49.016, 126.008 50.026 C 128.373 51.521, 128.837 51.240, 131 47 C 132.122 44.800, 132.867 43, 132.655 43 C 132.443 43, 130.972 43.977, 129.385 45.171 M 134.777 63.320 C 127.229 65.557, 121.228 67.562, 121.442 67.775 C 121.655 67.988, 127.516 67.839, 134.465 67.443 L 147.100 66.723 149.071 62.862 C 150.446 60.165, 150.657 59.038, 149.770 59.126 C 149.072 59.196, 142.325 61.083, 134.777 63.320" stroke="none" fill="black" fill-rule="evenodd"/>
</svg>