<svg xmlns="http://www.w3.org/2000/svg" width="200" height="200" viewBox="0 0 200 200" version="1.1">
	<path d="M 124 21.899 L 90.500 29.577 73 27.350 C 63.375 26.125, 53.825 24.867, 51.779 24.554 C 48.734 24.089, 48.162 24.260, 48.636 25.493 C 49.352 27.359, 49.341 27.359, 41.419 25.369 C 37.849 24.473, 34.703 23.963, 34.429 24.238 C 34.155 24.512, 32.590 29.741, 30.951 35.858 C 27.974 46.969, 25.897 58.515, 19.975 96.892 L 16.828 117.283 21.072 129.392 C 25.102 140.888, 26.023 142.485, 39.300 161 C 46.991 171.725, 53.381 180.624, 53.500 180.775 C 53.619 180.926, 61.964 171.354, 72.043 159.503 C 82.123 147.653, 90.694 138.079, 91.089 138.228 C 91.484 138.378, 103.153 149.300, 117.020 162.500 C 130.887 175.700, 142.713 186.500, 143.300 186.500 C 143.887 186.500, 152.781 173.225, 163.065 157 L 181.762 127.500 178.269 96.513 L 174.775 65.527 166.829 49.658 C 158.095 32.216, 158.572 34.620, 160.597 18.250 C 161.049 14.595, 160.869 14.015, 159.311 14.110 C 158.315 14.171, 142.425 17.676, 124 21.899 M 124.500 24.758 L 91.500 32.236 77 30.565 C 69.025 29.647, 60.700 28.689, 58.500 28.437 C 54.086 27.931, 73.299 32.694, 99.250 38.539 C 110.736 41.127, 116 42.735, 116 43.656 C 116 44.741, 111.671 45, 93.500 45 C 76.164 45, 71.001 45.287, 71.006 46.250 C 71.019 49.204, 73.386 55.817, 75.844 59.767 C 78.149 63.469, 78.864 63.966, 81.250 63.517 C 90.046 61.863, 89.956 61.904, 89.725 59.680 C 89.504 57.544, 89.853 57.489, 110.899 56.327 C 122.668 55.677, 136.561 54.418, 141.773 53.530 C 150.628 52.020, 151.371 52.026, 153.124 53.612 C 154.156 54.546, 155 55.624, 155 56.009 C 155 56.393, 149.443 57.016, 142.652 57.394 C 131.402 58.019, 96.468 63.198, 95.244 64.423 C 94.962 64.705, 95.323 66.366, 96.047 68.114 L 97.363 71.291 112.932 70.632 L 128.500 69.973 141.853 79.423 C 149.197 84.621, 155.444 89.111, 155.735 89.402 C 156.026 89.693, 151.593 89.890, 145.882 89.839 C 136.881 89.759, 107.978 91.698, 107.238 92.431 C 107.094 92.574, 107.883 94.741, 108.991 97.248 C 110.987 101.759, 111.065 101.810, 116.754 102.378 C 119.914 102.694, 129.250 103.208, 137.500 103.521 C 157.372 104.275, 160.342 104.726, 159.424 106.850 C 158.672 108.590, 152.129 161.418, 152.047 166.410 C 152.010 168.684, 154.933 164.727, 165.444 148.271 L 178.888 127.222 175.458 96.627 L 172.027 66.031 164.137 50.266 L 156.246 34.500 157.011 26 C 157.432 21.325, 157.714 17.450, 157.638 17.390 C 157.562 17.329, 142.650 20.645, 124.500 24.758 M 35.098 30.741 C 30.229 49.343, 26.215 70.549, 27.349 71.683 C 27.806 72.140, 72.072 65.157, 72.789 64.514 C 73.865 63.550, 69.112 54.711, 62.025 44.500 C 57.445 37.900, 53.379 32.136, 52.991 31.692 C 52.602 31.248, 49.858 30.282, 46.892 29.545 C 35.289 26.663, 36.189 26.571, 35.098 30.741 M 57.894 33.750 C 58.424 34.712, 60.958 38.425, 63.524 42 C 67.656 47.756, 68.113 48.128, 67.515 45.250 L 66.841 42 83.671 41.917 L 100.500 41.835 79.500 36.942 C 67.950 34.252, 58.147 32.039, 57.715 32.025 C 57.283 32.011, 57.364 32.788, 57.894 33.750 M 94.250 60.689 C 95.213 60.941, 96.787 60.941, 97.750 60.689 C 98.713 60.438, 97.925 60.232, 96 60.232 C 94.075 60.232, 93.287 60.438, 94.250 60.689 M 83.750 65.716 C 80.675 66.182, 80.470 66.718, 82.392 69.250 C 83.354 70.517, 85.138 71, 88.860 71 C 91.687 71, 94 70.796, 94 70.547 C 94 70.298, 93.478 68.948, 92.839 67.547 C 91.658 64.954, 90.425 64.705, 83.750 65.716 M 77 69 C 77 70.131, 77.667 71, 78.535 71 C 79.760 71, 79.854 70.596, 79 69 C 78.411 67.900, 77.720 67, 77.465 67 C 77.209 67, 77 67.900, 77 69 M 58 70 L 48.500 71.766 61.857 71.883 C 73.655 71.986, 75.143 71.815, 74.607 70.418 C 74.273 69.548, 74 68.648, 74 68.418 C 74 67.603, 67.373 68.258, 58 70 M 103.665 73.738 C 100.432 73.991, 98.990 74.511, 99.311 75.308 C 99.576 75.964, 101.047 79.369, 102.581 82.875 L 105.369 89.249 116.935 88.485 C 123.296 88.065, 132.688 87.447, 137.807 87.111 L 147.114 86.500 137.607 79.750 L 128.100 73 118.300 73.180 C 112.910 73.279, 106.324 73.531, 103.665 73.738 M 48.331 74.952 C 36.688 75.254, 26.904 75.759, 26.589 76.076 C 26.273 76.392, 24.598 85.770, 22.866 96.915 L 19.716 117.178 22.529 125.339 C 24.077 129.828, 26.114 135.329, 27.056 137.564 C 29.051 142.296, 52.585 175.500, 53.944 175.500 C 54.449 175.500, 62.128 166.950, 71.009 156.500 C 79.890 146.050, 87.980 136.654, 88.986 135.620 C 90.769 133.788, 91.477 134.370, 116.658 158.370 C 130.871 171.916, 142.732 183, 143.016 183 C 143.300 183, 145.026 180.504, 146.851 177.453 C 150.107 172.008, 150.136 171.856, 148.427 169.203 C 145.691 164.956, 117.773 124.610, 116.834 123.546 C 116.326 122.971, 114.305 124.169, 111.746 126.562 C 102.117 135.565, 101 136.400, 99.966 135.366 C 99.272 134.672, 101.483 132.131, 106.879 127.423 L 114.812 120.500 110.282 114 C 103.550 104.342, 103.003 104, 94.281 104 C 86.177 104, 86.195 103.981, 88.491 110.157 C 89.011 111.557, 60.743 143.500, 58.983 143.500 C 56.749 143.500, 58.798 140.780, 71.995 126.225 C 85.088 111.786, 85.800 110.789, 85.002 108.007 C 84.538 106.389, 83.914 104.671, 83.616 104.188 C 83.318 103.706, 77.080 103.041, 69.752 102.710 C 49.660 101.801, 25 98.897, 25 97.438 C 25 95.779, 27.870 95.399, 55.500 93.403 C 68.700 92.449, 79.662 91.544, 79.859 91.392 C 80.057 91.239, 79.201 87.264, 77.958 82.557 C 75.710 74.048, 75.680 74.001, 72.599 74.202 C 70.894 74.314, 59.974 74.651, 48.331 74.952 M 79.356 77.032 C 79.690 78.700, 80.678 82.525, 81.552 85.532 L 83.142 91 88.071 91 C 90.782 91, 93 90.567, 93 90.039 C 93 87.754, 82.403 74.035, 80.625 74.018 C 79.068 74.003, 78.853 74.515, 79.356 77.032 M 86.952 75.750 C 87.514 76.713, 89.908 80.200, 92.272 83.500 C 95.444 87.929, 97.281 89.583, 99.285 89.816 C 100.778 89.990, 102 89.711, 102 89.196 C 102 88.680, 100.583 85.050, 98.851 81.129 L 95.702 74 90.816 74 C 86.440 74, 86.036 74.183, 86.952 75.750 M 101.250 92.805 C 99.009 93.138, 99.012 93.158, 102.048 97.570 C 105.908 103.180, 108.768 103.775, 106.568 98.509 C 104.325 93.141, 103.675 92.444, 101.250 92.805 M 87.247 93.724 C 84.286 94.091, 84.051 94.369, 84.626 96.814 C 84.974 98.291, 85.538 99.784, 85.879 100.132 C 86.555 100.820, 101 101.979, 101 101.345 C 101 101.132, 99.815 99.167, 98.367 96.979 C 95.624 92.834, 95.265 92.729, 87.247 93.724 M 63.500 95.561 C 55.800 96.262, 47.700 96.928, 45.500 97.040 C 41.891 97.224, 42.087 97.331, 47.500 98.134 C 53.380 99.007, 82.253 100.982, 82.755 100.546 C 82.894 100.424, 82.513 98.901, 81.907 97.162 C 81.225 95.208, 80.173 94.054, 79.152 94.142 C 78.243 94.220, 71.200 94.859, 63.500 95.561 M 108.022 105.750 C 108.034 106.162, 108.926 107.625, 110.003 109 L 111.961 111.500 110.761 108.250 C 109.692 105.355, 107.964 103.777, 108.022 105.750 M 113 105.778 C 113 106.347, 114.350 109.822, 116 113.500 C 117.650 117.178, 119 120.567, 119 121.031 C 119 122.716, 148.354 164.043, 149.010 163.282 C 149.381 162.852, 150.905 151.475, 152.398 138 C 153.891 124.525, 155.350 112.100, 155.641 110.389 L 156.170 107.279 142.335 106.616 C 134.726 106.251, 125.013 105.680, 120.750 105.347 C 115.681 104.951, 113 105.100, 113 105.778" stroke="none" fill="black" fill-rule="evenodd"/>
</svg>