<svg xmlns="http://www.w3.org/2000/svg" width="200" height="200" viewBox="0 0 200 200" version="1.1">
	<path d="M 34.495 18.328 C 34.027 19.760, 27.652 50.270, 21.190 82 L 16.404 105.500 20.952 125.084 L 25.500 144.667 35.885 158.584 C 41.596 166.238, 46.616 172.885, 47.040 173.355 C 47.463 173.825, 52.915 174.818, 59.155 175.562 C 78.499 177.866, 74.475 180.439, 93.714 153.470 L 110.500 129.941 111.133 139.720 C 111.480 145.099, 111.818 156.363, 111.883 164.750 C 111.989 178.569, 112.164 179.998, 113.750 179.983 C 116.062 179.961, 180.009 168.339, 180.419 167.866 C 181.317 166.830, 174.813 119.652, 172.157 107.943 L 169.082 94.385 173.522 79.443 C 175.963 71.224, 177.970 63.928, 177.980 63.228 C 177.999 62.047, 155.634 20.474, 154.027 18.702 C 153.629 18.263, 134.756 19.048, 112.087 20.446 L 70.871 22.989 54.686 20.466 C 45.784 19.077, 37.685 17.765, 36.689 17.549 C 35.693 17.332, 34.705 17.683, 34.495 18.328 M 36.573 21.939 C 35.842 24.525, 31.379 45.804, 25.096 76.661 L 19.159 105.822 20.991 113.161 C 21.999 117.197, 24.024 125.749, 25.490 132.165 L 28.156 143.831 38.669 157.665 L 49.182 171.500 58.341 172.664 C 63.378 173.305, 69.369 173.867, 71.654 173.914 L 75.808 174 94.654 147.583 L 113.500 121.166 114.216 148.716 C 114.611 163.869, 115.113 176.447, 115.334 176.667 C 115.674 177.007, 177.302 166.112, 177.606 165.658 C 178.346 164.554, 172.047 120.746, 169.523 109.444 L 166.161 94.387 170.581 79.508 C 173.011 71.325, 175 64.057, 175 63.358 C 175 62.659, 172.244 57.105, 168.875 51.016 C 164.255 42.663, 162.352 40.068, 161.125 40.450 C 152.163 43.238, 125.597 48.836, 122.909 48.503 C 121.034 48.270, 111.729 47.843, 102.232 47.555 L 84.964 47.030 88.232 49.834 C 100.213 60.114, 113.385 70, 115.102 70 C 116.217 70, 125.290 66.625, 135.264 62.500 C 147.155 57.582, 153.738 55.338, 154.383 55.983 C 154.924 56.524, 155.172 57.127, 154.933 57.323 C 153.846 58.218, 117.975 79, 117.517 79 C 117.232 79, 117 78.325, 117 77.500 C 117 76.675, 117.477 76, 118.059 76 C 118.641 76, 118.840 75.550, 118.500 75 C 117.584 73.517, 113.684 73.749, 114.291 75.250 C 114.569 75.938, 116.482 80.213, 118.542 84.750 L 122.287 93 136.143 93 C 146.709 93, 150 93.303, 150 94.275 C 150 94.977, 145.387 97.526, 139.750 99.941 C 134.113 102.356, 129.150 104.630, 128.721 104.994 C 128.293 105.359, 128.768 106.747, 129.778 108.079 C 131.337 110.137, 136.821 121.715, 147.578 145.663 C 149.370 149.650, 149.599 150.940, 148.587 151.328 C 147.693 151.671, 144.322 145.532, 137.973 131.994 L 128.668 112.158 123.084 111.594 C 111.730 110.448, 82.933 108.733, 82.489 109.177 C 82.237 109.430, 78.554 120.743, 74.304 134.318 C 69.458 149.802, 66.098 159, 65.289 159 C 64.580 159, 64 158.760, 64 158.467 C 64 157.817, 76.941 111.318, 77.599 109.601 C 77.947 108.696, 73.851 108.096, 61.784 107.285 L 45.500 106.190 37.750 102.008 C 25.897 95.612, 26.768 95.001, 47.750 94.994 C 73.101 94.985, 81.821 94.197, 82.479 91.853 C 82.766 90.834, 83.242 89.141, 83.539 88.090 C 83.973 86.551, 82.445 85.195, 75.650 81.090 C 67.696 76.286, 66.836 76, 60.361 75.995 C 56.588 75.992, 49.112 75.699, 43.750 75.344 C 36.061 74.835, 34 74.383, 34 73.206 C 34 71.943, 35.496 71.809, 43.750 72.334 C 49.112 72.675, 61.712 73.255, 71.750 73.623 C 81.787 73.991, 90 74.567, 90 74.903 C 90 75.239, 89.584 76.965, 89.075 78.739 L 88.150 81.964 91.825 80.403 C 93.846 79.544, 98.425 77.685, 102 76.272 C 109.503 73.305, 110.171 72.858, 109.208 71.440 C 108.819 70.867, 100.563 66.993, 90.862 62.832 C 79.296 57.872, 70.611 53.414, 65.636 49.884 C 61.462 46.923, 58.037 44.219, 58.024 43.876 C 58.011 43.532, 62.050 43.482, 67 43.764 C 71.950 44.046, 76 44.070, 76 43.817 C 76 43.564, 70.802 39.128, 64.450 33.959 C 55.979 27.067, 53.338 24.408, 54.543 23.985 C 55.446 23.668, 51.872 22.727, 46.600 21.893 C 37.937 20.524, 36.972 20.528, 36.573 21.939 M 114.772 22.953 C 100.071 23.872, 87.834 24.833, 87.578 25.088 C 87.220 25.447, 123.085 31.391, 158.365 36.820 L 161.230 37.261 156.865 29.144 L 152.500 21.028 147 21.155 C 143.975 21.225, 129.472 22.034, 114.772 22.953 M 60 26.366 C 60 26.568, 64.728 30.628, 70.507 35.389 L 81.015 44.046 104.257 44.981 L 127.500 45.917 141 42.627 C 152.100 39.923, 153.967 39.219, 151.500 38.672 C 149.850 38.306, 131.336 35.305, 110.357 32.003 C 77.771 26.875, 60 24.885, 60 26.366 M 66 46.345 C 66 47.845, 76.130 53.539, 87.607 58.488 C 94.636 61.520, 100.581 64, 100.818 64 C 101.055 64, 96.584 60.175, 90.883 55.500 C 80.577 47.049, 80.486 47, 74.841 47 C 71.718 47, 68.452 46.727, 67.582 46.393 C 66.712 46.059, 66 46.038, 66 46.345 M 125 69.750 C 121.841 71.236, 120.164 72.493, 121.059 72.705 C 122.460 73.036, 132 68.423, 132 67.415 C 132 66.657, 130.549 67.141, 125 69.750 M 99.500 80.030 C 94.550 82.125, 90.367 84.486, 90.204 85.276 C 90.028 86.132, 92.378 88.183, 96.026 90.356 C 101.675 93.721, 102.746 94, 110.013 94 C 114.341 94, 118.123 93.610, 118.417 93.134 C 119.373 91.587, 111.690 75.991, 110.031 76.110 C 109.189 76.171, 104.450 77.935, 99.500 80.030 M 79.387 80.106 C 84.455 83.288, 85.948 82.981, 85.985 78.750 C 85.998 77.282, 85.073 77.003, 80.250 77.019 L 74.500 77.038 79.387 80.106 M 87.656 91.208 C 86.902 94.090, 87.053 94.180, 92.034 93.813 L 96.277 93.500 92.255 91.251 L 88.233 89.003 87.656 91.208 M 107 96.410 C 107 97.282, 120.034 105, 121.507 105 C 123.883 105, 124.320 102.519, 122.547 99.090 C 120.992 96.085, 120.757 96, 113.974 96 C 110.138 96, 107 96.185, 107 96.410 M 125.526 99.051 C 127.287 102.456, 127.589 102.440, 136.337 98.463 L 141.500 96.115 132.724 96.058 L 123.949 96 125.526 99.051 M 48.598 97.951 L 36.696 98.500 42.598 101.210 C 47.656 103.532, 50.287 104.004, 61 104.512 C 67.875 104.838, 74.677 105.328, 76.115 105.602 C 78.345 106.026, 78.813 105.687, 79.295 103.300 C 79.606 101.760, 80.165 99.713, 80.537 98.750 C 81.158 97.145, 80.356 97.017, 70.857 97.201 C 65.161 97.312, 55.144 97.649, 48.598 97.951 M 84.695 101.381 L 83.203 105.762 89.851 106.364 C 101.500 107.419, 119.518 108.284, 119 107.764 C 118.725 107.487, 114.792 104.952, 110.261 102.131 C 102.154 97.082, 101.895 97, 94.105 97 L 86.188 97 84.695 101.381 M 123 107.500 L 120.500 108.929 123.719 108.965 C 126.177 108.992, 126.801 108.646, 126.362 107.500 C 126.045 106.675, 125.722 106.016, 125.643 106.035 C 125.564 106.055, 124.375 106.714, 123 107.500" stroke="none" fill="black" fill-rule="evenodd"/>
</svg>