<svg xmlns="http://www.w3.org/2000/svg" width="200" height="200" viewBox="0 0 200 200" version="1.1">
	<path d="M 34.640 11.250 C 35.058 11.938, 39.600 17.846, 44.735 24.381 C 49.870 30.915, 53.931 36.403, 53.759 36.575 C 53.587 36.747, 43.117 33.538, 30.494 29.444 C 17.870 25.350, 7.416 22, 7.263 22 C 7.110 22, 16.664 33.696, 28.493 47.991 C 40.322 62.286, 50 74.471, 50 75.068 C 50 75.666, 42.080 72.024, 32.401 66.976 C 21.177 61.123, 14.454 58.146, 13.843 58.757 C 13.232 59.368, 17.706 64.300, 26.192 72.371 L 39.500 85.027 30.378 93.941 L 21.256 102.855 28.812 115.533 L 36.367 128.211 26.666 156.754 C 21.330 172.453, 17.109 185.442, 17.285 185.618 C 17.535 185.869, 62.150 155.025, 63.933 153.369 C 64.172 153.148, 63.947 152.562, 63.433 152.067 C 62.871 151.526, 54.632 156.698, 42.701 165.084 C 31.811 172.738, 22.737 179, 22.536 179 C 22.335 179, 26.021 167.412, 30.726 153.250 L 39.282 127.500 32.097 115.632 C 28.145 109.104, 25.044 103.461, 25.206 103.091 C 25.368 102.721, 29.160 98.939, 33.634 94.687 L 41.768 86.956 51.352 96.228 L 60.936 105.500 64.079 130.500 C 65.808 144.250, 67.371 155.661, 67.552 155.858 C 67.912 156.247, 77.952 157.031, 114 159.482 C 136.361 161.002, 173.444 165.300, 177.308 166.820 C 178.502 167.289, 169.146 170.496, 149.751 176.265 C 133.600 181.069, 119.926 185, 119.363 185 C 118.800 185, 106.675 180.282, 92.419 174.516 C 78.164 168.750, 65.900 164.025, 65.167 164.016 C 60.658 163.962, 67.717 167.463, 91.812 177.234 L 119.064 188.285 143.282 181.063 C 185.714 168.411, 187 167.984, 187 166.545 C 187 164.992, 187.739 165.129, 157.500 161.056 C 145.400 159.425, 120.875 157.115, 103 155.922 C 85.125 154.728, 70.329 153.599, 70.121 153.413 C 69.912 153.227, 68.284 141.920, 66.503 128.287 L 63.264 103.500 53.487 94.366 L 43.710 85.231 47.038 82.257 L 50.366 79.284 53.747 81.278 C 58.425 84.038, 60.038 82.331, 56.852 77.992 L 54.500 74.788 59.972 69.949 C 62.982 67.288, 65.600 65.266, 65.790 65.457 C 65.980 65.647, 65.026 69.418, 63.669 73.836 C 62.312 78.254, 61.457 82.123, 61.768 82.434 C 62.079 82.746, 65.163 83, 68.621 83 L 74.909 83 75.450 86.250 C 75.748 88.037, 77.318 101.588, 78.941 116.362 C 80.563 131.136, 82.028 143.317, 82.195 143.430 C 82.363 143.544, 98.080 146.021, 117.122 148.934 L 151.745 154.232 155.739 149.866 C 170.349 133.893, 186.063 115.521, 185.325 115.275 C 184.843 115.114, 169.306 118.513, 150.797 122.828 L 117.145 130.673 110.564 111.087 C 106.944 100.314, 103.987 91.170, 103.991 90.767 C 103.998 90.221, 122.939 110.224, 131.136 119.433 C 131.593 119.947, 132.169 120.165, 132.415 119.918 C 132.835 119.498, 141.953 80.088, 142.040 78.316 C 142.120 76.687, 144.923 82.852, 152.083 100.401 C 157.511 113.708, 159.576 117.815, 160.128 116.401 C 160.942 114.316, 167.318 60.982, 166.813 60.484 C 165.554 59.246, 128.554 50.110, 127.636 50.811 C 127.011 51.288, 121.478 55.800, 115.340 60.839 C 109.202 65.878, 103.914 70, 103.590 70 C 102.820 70, 102.849 62.248, 103.652 53.750 L 104.289 47 114.982 47 C 120.863 47, 137.898 46.703, 152.838 46.339 C 186.739 45.515, 187.963 44.556, 160.750 40.143 C 146.031 37.755, 137.043 35.620, 122.564 31.072 L 103.628 25.123 89.941 38.056 C 82.413 45.169, 75.692 51.666, 75.005 52.494 C 72.155 55.928, 72.487 53.222, 76.732 38.401 C 79.190 29.821, 80.818 22.437, 80.351 21.991 C 79.537 21.217, 37.026 10, 34.905 10 C 34.342 10, 34.223 10.563, 34.640 11.250 M 50.878 27.846 C 57.020 35.631, 61.530 42, 60.900 42 C 60.271 42, 50.101 38.810, 38.300 34.911 C 26.500 31.012, 16.665 28.002, 16.445 28.222 C 16.165 28.502, 48.714 68.762, 52.480 72.794 C 52.631 72.956, 56.217 69.806, 60.448 65.794 L 68.142 58.500 73.020 41.500 C 75.703 32.150, 77.584 24.220, 77.199 23.879 C 76.815 23.537, 69.300 21.398, 60.500 19.125 C 51.700 16.852, 43.423 14.700, 42.106 14.342 C 40.249 13.837, 42.219 16.869, 50.878 27.846 M 87.549 44.013 L 70.674 59.801 67.869 69.150 C 66.326 74.293, 65.049 78.802, 65.032 79.170 C 65.014 79.539, 67.925 80.154, 71.500 80.537 C 75.272 80.941, 77.998 81.709, 77.996 82.366 C 77.989 84.469, 84.276 140.497, 84.556 140.834 C 85.019 141.389, 149.362 151.082, 150.582 150.780 C 151.682 150.508, 179.186 119.846, 178.728 119.402 C 178.603 119.280, 164.327 122.479, 147.005 126.511 C 129.682 130.543, 115.472 133.766, 115.427 133.671 C 114.460 131.646, 98.992 85.126, 98.995 84.250 C 99.007 81.157, 102.458 84.127, 116 98.886 C 124.100 107.713, 130.774 114.206, 131.120 113.594 C 131.461 112.992, 133.917 102.716, 136.578 90.758 C 139.238 78.799, 141.729 69.349, 142.113 69.758 C 142.496 70.166, 145.828 77.925, 149.516 87 C 153.204 96.075, 156.768 104.554, 157.436 105.841 C 158.477 107.847, 159.043 104.925, 161.382 85.480 C 162.883 72.994, 163.974 62.651, 163.806 62.496 C 163.638 62.341, 155.750 60.121, 146.278 57.563 L 129.055 52.911 114.948 64.543 C 107.189 70.940, 100.621 75.954, 100.351 75.685 C 100.082 75.415, 100.182 68.176, 100.575 59.597 L 101.288 44 131.811 44 C 148.598 44, 162.124 43.790, 161.867 43.534 C 161.611 43.278, 156.924 42.353, 151.451 41.478 C 145.978 40.604, 133.625 37.411, 124 34.383 C 114.375 31.355, 106.033 28.731, 105.462 28.551 C 104.891 28.372, 96.830 35.330, 87.549 44.013 M 24.629 67.151 C 25.658 68.292, 30.016 72.399, 34.314 76.276 L 42.128 83.327 44.761 80.694 C 46.209 79.246, 47.193 77.891, 46.947 77.684 C 46.701 77.477, 41.158 74.555, 34.629 71.191 C 27.224 67.376, 23.462 65.856, 24.629 67.151" stroke="none" fill="black" fill-rule="evenodd"/>
</svg>