<svg xmlns="http://www.w3.org/2000/svg" width="200" height="200" viewBox="0 0 200 200" version="1.1">
	<path d="M 103.500 25.119 C 99.650 25.656, 86.825 27.452, 75 29.109 C 60.296 31.171, 47.401 32.309, 34.205 32.709 C 17.703 33.210, 14.953 33.514, 15.205 34.811 C 15.453 36.083, 28.354 40.921, 49.250 47.577 C 50.381 47.938, 51 47.610, 51 46.651 C 51 45.637, 46.802 43.759, 37.750 40.723 L 24.500 36.279 37.500 35.599 C 44.650 35.225, 64.225 33.132, 81 30.948 C 102.840 28.104, 115.120 26.980, 124.250 26.988 C 131.262 26.995, 137 27.155, 137 27.345 C 137 27.535, 133.921 35.297, 130.158 44.595 L 123.315 61.500 124.090 86 C 125.559 132.498, 125.314 141.488, 122.023 161.888 C 120.391 172.002, 118.884 180.450, 118.672 180.661 C 118.461 180.872, 114.173 177.409, 109.144 172.966 C 98.473 163.538, 99.122 166.350, 101.536 140 C 102.835 125.823, 102.884 117.517, 101.884 81 C 101.243 57.625, 100.569 38.324, 100.384 38.108 C 100.200 37.892, 92.501 38.117, 83.275 38.608 L 66.500 39.500 66.804 63 C 67.005 78.463, 67.822 92.713, 69.195 104.668 L 71.281 122.836 75.725 124.533 C 78.170 125.466, 79.790 126.610, 79.325 127.075 C 78.445 127.955, 52.961 143.880, 49.281 145.850 C 46.928 147.109, 21.769 151.328, 19.623 150.823 C 18.725 150.611, 20.932 146.875, 26.018 140 C 32.891 130.710, 34.460 127.714, 39.643 114 L 45.500 98.500 44.343 77.500 C 43.707 65.950, 43.145 55.712, 43.093 54.750 C 43.042 53.788, 42.385 53, 41.634 53 C 40.573 53, 40.359 54.509, 40.678 59.750 C 40.905 63.462, 41.484 73.475, 41.966 82 L 42.841 97.500 37.171 112.783 C 31.845 127.136, 30.908 128.865, 21.768 141.218 C 16.416 148.451, 12.206 154.540, 12.414 154.747 C 12.621 154.955, 20.826 153.890, 30.646 152.381 L 48.500 149.637 67.187 138.122 C 77.465 131.788, 85.693 126.312, 85.470 125.951 C 85.247 125.591, 82.913 124.496, 80.283 123.517 C 77.652 122.538, 75.115 121.388, 74.644 120.962 C 72.952 119.432, 70.127 89.815, 69.425 66.247 L 68.709 42.212 79.604 41.586 C 85.597 41.242, 92.135 40.794, 94.134 40.591 L 97.768 40.221 98.376 55.361 C 100.110 98.556, 100.173 123.622, 98.592 141.300 C 96.208 167.957, 95.147 164.245, 108.535 176.073 C 114.879 181.678, 120.289 186.044, 120.558 185.776 C 120.826 185.507, 122.620 175.581, 124.544 163.718 L 128.042 142.149 127.047 102.325 L 126.052 62.500 131.714 48.272 C 134.829 40.446, 137.498 34.165, 137.647 34.314 C 139.298 35.964, 147.756 86.577, 146.578 87.755 C 146.270 88.064, 146.438 88.823, 146.952 89.442 C 147.466 90.061, 148.592 99.646, 149.455 110.741 L 151.024 130.914 143.441 141.957 C 139.270 148.031, 136.002 153.036, 136.179 153.079 C 153.038 157.224, 175.253 161.471, 175.539 160.604 C 176.994 156.195, 186.103 116.830, 185.837 116.106 C 185.651 115.603, 177.625 109.232, 168 101.949 C 158.375 94.665, 150.351 88.585, 150.169 88.439 C 149.335 87.766, 165.532 61.852, 176.272 46.673 C 182.821 37.419, 188.027 29.697, 187.840 29.513 C 187.653 29.330, 179.400 28.259, 169.500 27.133 C 148.693 24.766, 113.685 23.698, 103.500 25.119 M 143.069 45.566 C 145.116 55.227, 147.339 67.602, 148.008 73.066 C 148.677 78.530, 149.358 83, 149.521 83 C 149.683 83, 152.609 78.222, 156.023 72.381 C 159.436 66.541, 166.960 55.049, 172.742 46.842 C 178.524 38.636, 183.085 31.783, 182.878 31.613 C 181.981 30.880, 152.863 27.990, 146.423 27.995 L 139.347 28 143.069 45.566 M 151.487 100.160 C 151.809 104.197, 152.466 112.853, 152.945 119.395 L 153.818 131.291 147.251 141.154 C 143.639 146.579, 140.867 151.169, 141.092 151.355 C 142.339 152.386, 172.386 158.001, 173.003 157.318 C 174.584 155.567, 183.463 116.904, 182.445 116.204 C 181.880 115.817, 175.137 110.748, 167.459 104.939 C 159.782 99.131, 152.915 94.028, 152.200 93.599 C 151.161 92.977, 151.018 94.292, 151.487 100.160" stroke="none" fill="black" fill-rule="evenodd"/>
</svg>