<svg xmlns="http://www.w3.org/2000/svg" width="200" height="200" viewBox="0 0 200 200" version="1.1">
	<path d="M 39.503 20.250 C 39.264 20.938, 37.464 27.943, 35.504 35.817 C 33.544 43.692, 29.470 56.471, 26.451 64.215 C 23.432 71.959, 21.088 78.421, 21.243 78.576 C 21.397 78.731, 28.268 80.035, 36.512 81.475 C 44.755 82.916, 51.901 84.206, 52.391 84.344 C 52.881 84.481, 45.554 91.484, 36.108 99.904 C 24.042 110.660, 19.076 115.703, 19.413 116.857 C 19.677 117.761, 21.698 124.811, 23.904 132.524 C 27.520 145.170, 28.866 148.192, 37.593 163.274 C 45.237 176.485, 47.715 180.007, 49.385 180.035 C 50.548 180.055, 60.275 180.701, 71 181.471 C 81.725 182.242, 90.759 182.563, 91.077 182.186 C 91.761 181.371, 106 126.790, 106 124.979 C 106 124.293, 102.063 119.486, 97.250 114.296 C 92.438 109.107, 85.917 102.016, 82.759 98.538 L 77.018 92.215 86.134 87.032 C 91.147 84.182, 95.617 82.221, 96.067 82.675 C 96.517 83.129, 100.685 93.175, 105.331 105 L 113.777 126.500 117.127 158.777 C 119.930 185.787, 120.722 191.008, 121.979 190.766 C 122.945 190.579, 127.103 180.847, 133.633 163.488 L 143.785 136.500 142.223 103 L 140.661 69.500 144.209 60.048 L 147.757 50.595 148.402 55.548 C 148.756 58.271, 150.141 71.300, 151.480 84.500 L 153.913 108.500 150.159 136.779 C 147.576 156.234, 146.770 164.919, 147.575 164.610 C 148.575 164.226, 186.029 136.997, 188.300 135.002 C 188.740 134.616, 181.862 122.251, 173.015 107.525 L 156.930 80.750 171.715 58.223 C 179.847 45.833, 187.330 34.416, 188.345 32.853 C 189.798 30.614, 189.904 29.922, 188.845 29.595 C 188.105 29.366, 175.125 27.761, 160 26.027 L 132.500 22.876 114.747 25.872 L 96.993 28.868 70.344 23.934 C 41.253 18.548, 40.141 18.415, 39.503 20.250 M 41.093 25.750 C 40.552 27.813, 38.962 34.073, 37.560 39.663 C 36.157 45.253, 32.709 55.742, 29.898 62.973 C 27.087 70.204, 24.947 76.273, 25.143 76.460 C 26.020 77.296, 57.165 82.168, 57.769 81.564 C 58.469 80.865, 61.841 39.483, 61.943 30.354 L 62 25.208 53.250 23.602 C 48.438 22.719, 43.955 21.997, 43.289 21.998 C 42.622 21.999, 41.634 23.688, 41.093 25.750 M 124.500 26.996 C 122.300 27.423, 117.125 28.348, 113 29.052 L 105.500 30.332 111.745 31.494 C 115.180 32.134, 118.288 32.955, 118.651 33.318 C 119.015 33.681, 118.069 41.521, 116.549 50.739 C 111.852 79.225, 111.901 79, 110.314 79 C 109.237 79, 108.993 78.261, 109.405 76.250 C 111.139 67.803, 116.140 35.806, 115.782 35.449 C 114.713 34.380, 98.499 31.959, 93.303 32.092 C 90.111 32.174, 82.438 31.109, 76.250 29.725 C 67.447 27.755, 65 27.499, 65 28.545 C 65 29.280, 62.956 57.190, 60.458 90.566 C 57.960 123.942, 56.124 151.458, 56.379 151.712 C 56.633 151.967, 60.922 148.648, 65.909 144.337 L 74.976 136.500 70.181 134.354 L 65.386 132.208 68.236 106.854 C 70.591 85.905, 71.002 78.764, 70.602 65.750 C 70.336 57.087, 70.368 50, 70.673 50 C 71.443 50, 100.859 45.093, 104.301 44.390 C 107.059 43.827, 106.964 44.092, 98.045 61.909 C 92.342 73.303, 88.434 80, 87.489 80 C 86.426 80, 88.325 75.333, 94 64 C 98.406 55.200, 101.672 47.995, 101.256 47.988 C 100.840 47.981, 94.390 48.961, 86.922 50.166 L 73.343 52.356 73.422 71.678 C 73.465 82.304, 73.748 90.887, 74.051 90.750 C 74.354 90.612, 79.663 87.634, 85.849 84.132 C 92.035 80.629, 97.272 77.938, 97.486 78.152 C 97.700 78.366, 102.103 89.332, 107.271 102.521 L 116.667 126.500 119.528 154.750 C 121.101 170.287, 122.638 182.992, 122.944 182.982 C 123.250 182.973, 127.432 172.442, 132.237 159.581 L 140.974 136.196 139.370 102.709 L 137.765 69.221 142.557 56.611 C 145.192 49.675, 147.894 44, 148.563 44 C 150.035 44, 150.524 46.706, 152.090 63.500 C 152.756 70.650, 153.610 77.100, 153.987 77.833 C 154.425 78.684, 160.186 70.764, 169.890 55.971 C 178.260 43.213, 184.878 32.545, 184.597 32.264 C 183.849 31.515, 137.196 26.020, 132.500 26.128 C 130.300 26.178, 126.700 26.569, 124.500 26.996 M 154.559 88 C 154.926 91.575, 155.572 97.425, 155.994 101 C 156.591 106.051, 156.013 113.172, 153.402 132.938 C 151.554 146.928, 150.233 158.566, 150.466 158.799 C 150.928 159.261, 183.663 135.354, 184.564 133.897 C 184.867 133.405, 178.716 122.315, 170.893 109.252 C 152.323 78.241, 153.747 80.093, 154.559 88 M 40 100.059 C 27.670 111.173, 22.590 116.375, 22.805 117.667 C 22.973 118.675, 24.751 125.335, 26.755 132.466 C 29.941 143.800, 31.528 147.386, 39.370 160.966 C 44.304 169.510, 48.444 176.642, 48.570 176.816 C 48.966 177.363, 88.308 180.026, 88.795 179.539 C 89.379 178.954, 103 127.231, 103 125.597 C 103 124.934, 96.138 117.008, 87.750 107.983 C 72.509 91.584, 72.500 91.577, 72.173 94.966 C 71.994 96.832, 71.069 105.526, 70.119 114.286 L 68.391 130.213 73.696 132.815 C 76.613 134.246, 79 135.671, 79 135.981 C 79 136.292, 73.150 141.614, 66 147.810 C 53.275 158.835, 53 159.009, 53 156.007 C 53 154.320, 54.141 137.814, 55.535 119.326 C 56.930 100.838, 57.942 85.390, 57.785 84.997 C 57.628 84.605, 49.625 91.382, 40 100.059" stroke="none" fill="black" fill-rule="evenodd"/>
</svg>