<svg xmlns="http://www.w3.org/2000/svg" width="200" height="200" viewBox="0 0 200 200" version="1.1">
	<path d="M 73 10.563 C 44.675 12.944, 20.880 14.916, 20.122 14.946 C 18.435 15.012, 20.356 17.474, 32 30.178 L 40.500 39.451 28.500 29.301 C 20.964 22.927, 16.143 19.499, 15.540 20.086 C 14.932 20.677, 19.978 31.602, 29.290 49.857 C 37.380 65.718, 44 78.954, 44 79.270 C 44 79.587, 38.037 83.294, 30.750 87.508 C 23.462 91.723, 17.166 95.489, 16.757 95.878 C 16.348 96.268, 19.770 107.836, 24.361 121.585 L 32.709 146.584 30.300 161.404 C 28.975 169.555, 28.028 176.358, 28.195 176.523 C 28.363 176.687, 38.175 174.853, 50 172.448 L 71.500 168.074 104.629 179.642 L 137.759 191.211 162.629 175.451 C 176.308 166.783, 188.175 159.052, 189 158.272 C 190.307 157.037, 190.050 156.924, 187 157.394 C 185.075 157.691, 168.650 158.685, 150.500 159.604 L 117.500 161.273 88.582 153.135 C 72.677 148.659, 59.433 144.766, 59.150 144.483 C 58.725 144.058, 61.422 110.477, 63.707 87.750 C 64.174 83.100, 64.004 82, 62.817 82 C 61.618 82, 60.831 87.832, 58.501 113.992 C 56.934 131.588, 55.877 146.210, 56.153 146.486 C 56.429 146.762, 70.345 150.852, 87.077 155.575 L 117.500 164.162 147.209 162.484 C 163.549 161.561, 177.450 160.983, 178.100 161.200 C 179.167 161.556, 138.736 188.015, 137.164 187.989 C 136.799 187.983, 121.931 182.838, 104.125 176.556 L 71.749 165.135 51.886 169.245 C 40.961 171.506, 31.837 173.163, 31.611 172.928 C 31.385 172.693, 32.050 167.550, 33.091 161.500 C 34.131 155.450, 34.986 149.071, 34.991 147.324 C 34.996 145.578, 31.418 133.672, 27.040 120.868 C 22.662 108.063, 19.174 97.501, 19.290 97.397 C 19.446 97.257, 38.550 86.157, 45.212 82.337 C 45.603 82.113, 46.850 83.745, 47.982 85.965 C 49.972 89.866, 52.044 91.317, 51.958 88.750 C 51.935 88.063, 51.079 85.928, 50.057 84.007 L 48.197 80.513 54.848 76.655 C 58.507 74.533, 66.804 69.699, 73.287 65.913 C 82.512 60.525, 85.198 59.353, 85.646 60.519 C 85.960 61.338, 84.286 66.531, 81.926 72.059 L 77.634 82.110 79.492 85.305 C 85.542 95.706, 85.434 95.608, 92.922 97.550 C 96.815 98.559, 100 99.709, 100 100.104 C 100 100.499, 95.725 105.852, 90.500 112 C 85.275 118.148, 81 123.491, 81 123.874 C 81 124.257, 83.958 126.029, 87.574 127.812 C 93.823 130.894, 94.116 131.196, 93.513 133.940 C 93.017 136.201, 93.272 136.940, 94.690 137.350 C 95.685 137.638, 106.074 140.666, 117.775 144.079 C 129.476 147.491, 139.215 150.107, 139.417 149.892 C 139.619 149.676, 140.990 139.825, 142.464 128 C 143.938 116.175, 145.449 105.705, 145.822 104.733 C 146.403 103.219, 149.140 104.626, 164.872 114.527 C 174.977 120.886, 183.400 125.933, 183.590 125.743 C 183.780 125.554, 178.283 114.926, 171.375 102.126 L 158.816 78.853 160.323 70.677 C 161.152 66.180, 161.705 62.374, 161.552 62.219 C 161.398 62.065, 154.216 63.078, 145.592 64.469 C 136.969 65.861, 129.595 66.986, 129.206 66.970 C 128.818 66.953, 140.425 62.051, 155 56.076 C 173.812 48.364, 181.601 44.709, 181.848 43.478 C 182.149 41.976, 181.613 41.823, 177.848 42.335 C 175.457 42.660, 166.852 43.229, 158.727 43.599 L 143.955 44.271 145.871 39.886 C 146.926 37.474, 150.064 30.663, 152.846 24.750 C 155.627 18.837, 157.680 14, 157.406 14 C 157.133 14, 151.062 17.432, 143.914 21.626 C 136.767 25.820, 130.720 29.053, 130.477 28.810 C 130.087 28.421, 132.193 14.266, 133.536 8.250 C 134.005 6.150, 133.721 6.008, 129.269 6.116 C 126.646 6.180, 101.325 8.181, 73 10.563 M 75.500 13.064 C 50.200 15.162, 28.302 17.018, 26.838 17.189 C 24.369 17.477, 25.438 18.875, 41.587 36.451 C 52.666 48.510, 58.650 55.750, 58.041 56.359 C 57.433 56.967, 54.998 55.530, 51.348 52.408 C 30.775 34.808, 21.557 27.109, 21.330 27.337 C 20.980 27.687, 45.633 76.039, 46.679 77.055 C 47.376 77.732, 79.690 59.718, 82.072 57.324 C 82.523 56.871, 80.891 54.093, 78.446 51.151 C 76.001 48.209, 74 45.498, 74 45.127 C 74 44.503, 82.091 36.472, 94.715 24.564 L 99.929 19.645 110.521 26.921 C 120.426 33.725, 121.294 34.121, 123.913 33.036 C 126.526 31.954, 126.824 31.212, 128.357 21.983 C 129.261 16.542, 130 11.395, 130 10.545 C 130 8.520, 130.660 8.489, 75.500 13.064 M 140.280 26.796 C 129.197 33.341, 129.051 33.475, 128.414 37.722 L 127.770 42.021 124.482 39.989 L 121.195 37.957 105.347 47.141 C 86.953 57.801, 87.350 57.512, 88.756 59.208 C 89.548 60.162, 88.644 63.288, 85.296 71.171 L 80.763 81.843 83.929 87.375 C 87.085 92.893, 87.117 92.915, 95.797 95.553 C 100.584 97.009, 104.658 98.350, 104.851 98.534 C 105.044 98.718, 100.657 104.231, 95.101 110.784 C 89.546 117.337, 85 122.908, 85 123.165 C 85 123.422, 87.716 124.930, 91.035 126.517 C 96.649 129.200, 97.029 129.593, 96.468 132.144 C 95.918 134.648, 96.198 134.977, 99.683 135.925 C 101.782 136.496, 110.925 139.172, 120 141.872 C 129.075 144.571, 136.769 146.492, 137.098 146.140 C 137.427 145.788, 138.986 135.037, 140.564 122.250 C 142.141 109.463, 143.844 99, 144.347 99 C 144.850 99, 152.443 103.507, 161.219 109.015 C 169.996 114.523, 177.024 118.662, 176.838 118.214 C 176.652 117.766, 171.852 108.751, 166.171 98.181 L 155.842 78.964 156.921 73.933 C 158.943 64.506, 160.673 64.987, 137.449 68.519 C 118.822 71.353, 113.920 71.479, 116.637 69.056 C 117.112 68.633, 129.425 63.449, 144 57.536 C 158.575 51.623, 170.725 46.561, 171 46.287 C 171.275 46.013, 164.412 46.116, 155.750 46.515 C 147.088 46.915, 140 46.976, 140 46.650 C 140 46.038, 142.174 41.125, 148.363 27.750 C 150.336 23.487, 151.848 20.038, 151.725 20.084 C 151.601 20.131, 146.451 23.151, 140.280 26.796 M 88.500 34.086 L 77.046 45.278 81.156 50.187 C 83.417 52.886, 85.769 54.961, 86.383 54.798 C 88.526 54.227, 118 36.798, 118 36.102 C 118 35.716, 113.939 32.587, 108.977 29.148 L 99.953 22.894 88.500 34.086 M 124.500 36 C 124.160 36.550, 124.359 37, 124.941 37 C 125.523 37, 126 36.550, 126 36 C 126 35.450, 125.802 35, 125.559 35 C 125.316 35, 124.840 35.450, 124.500 36" stroke="none" fill="black" fill-rule="evenodd"/>
</svg>