<svg xmlns="http://www.w3.org/2000/svg" width="200" height="200" viewBox="0 0 200 200" version="1.1">
	<path d="M 12.482 15.029 C 11.552 16.534, 10.327 15.555, 35.467 33.386 C 50.467 44.025, 57.759 48.641, 58.458 47.942 C 59.158 47.242, 59.129 46.692, 58.365 46.208 C 49.964 40.886, 19.388 18.404, 20.174 18.128 C 20.755 17.924, 21.566 18.297, 21.974 18.958 C 23.055 20.707, 48.130 24.407, 49.030 22.951 C 49.545 22.118, 52.220 22.150, 59.280 23.074 L 68.832 24.324 68.293 43.412 C 67.996 53.910, 67.471 62.811, 67.126 63.190 C 66.782 63.570, 63.081 64.189, 58.902 64.565 C 51.328 65.246, 51.271 65.233, 41.118 60.458 C 35.160 57.655, 30.594 56.047, 30.116 56.583 C 28.993 57.842, 23.822 71.156, 24.279 71.612 C 24.481 71.814, 30.650 71.156, 37.986 70.149 L 51.326 68.317 59.163 71.877 L 67 75.437 67 83.144 C 67 90.533, 65.543 96.535, 57.870 120.762 L 56.837 124.024 42.754 110.509 C 35.009 103.076, 28.431 97.236, 28.136 97.531 C 27.624 98.043, 19.222 173.885, 19.631 174.300 C 19.739 174.410, 29.879 173.884, 42.164 173.131 L 64.500 171.763 110.818 179.381 C 136.293 183.572, 157.967 187, 158.983 187 C 160.619 187, 160.272 185.556, 155.949 174.367 C 153.264 167.419, 150.939 161.632, 150.784 161.508 C 150.628 161.384, 132.123 160.129, 109.662 158.720 C 87.201 157.310, 68.592 155.925, 68.309 155.642 C 68.025 155.359, 68.938 151.611, 70.336 147.313 C 71.735 143.016, 76.742 127.497, 81.463 112.826 L 90.046 86.152 102.773 92.152 C 109.773 95.452, 115.830 98.470, 116.233 98.858 C 116.636 99.247, 112.795 103.281, 107.698 107.823 C 99.178 115.416, 98.211 116.662, 95.698 123.291 C 94.195 127.256, 92.973 131.009, 92.983 131.630 C 92.997 132.559, 105.322 137.962, 138.609 151.632 L 141.718 152.909 154.835 138.037 C 165.383 126.079, 168.149 122.316, 168.952 118.832 C 170.961 110.123, 171.780 110.899, 152.750 103.480 C 143.263 99.782, 133.777 96.023, 131.671 95.128 L 127.842 93.500 141.171 82.224 L 154.500 70.949 156.665 83.913 C 157.855 91.043, 159 97.692, 159.209 98.689 C 159.417 99.685, 163.234 91.275, 167.692 80 C 172.149 68.725, 176.741 57.123, 177.896 54.218 C 181.220 45.856, 178.736 46.387, 167.008 56.542 C 161.467 61.340, 156.730 65.063, 156.481 64.815 C 156.233 64.566, 155.492 60.906, 154.836 56.682 C 154.179 52.457, 153.160 49.007, 152.571 49.017 C 151.982 49.026, 146.684 50.553, 140.798 52.411 L 130.095 55.789 117.298 52.523 C 110.259 50.726, 105.175 49.006, 106 48.700 C 106.825 48.394, 122.350 46.056, 140.500 43.504 C 171.228 39.183, 176.430 38.097, 174.696 36.363 C 174.327 35.994, 153.568 32.963, 128.565 29.627 C 103.561 26.292, 83.208 23.459, 83.334 23.332 C 83.461 23.205, 103.676 24.066, 128.255 25.245 C 152.835 26.423, 173.258 27.075, 173.640 26.694 C 174.021 26.312, 174.025 25.691, 173.647 25.314 C 173.042 24.708, 76.982 14.129, 71.250 14.036 C 69.453 14.007, 69 14.554, 69.001 16.750 L 69.002 19.500 59.251 19.201 C 50.721 18.939, 23.361 15.923, 15.845 14.415 C 14.364 14.118, 12.877 14.389, 12.482 15.029 M 72 18.264 C 72 19.457, 74.753 19.854, 86.750 20.390 C 94.862 20.753, 105.100 21.241, 109.500 21.475 C 114.249 21.728, 111.201 21.158, 102 20.073 C 73.602 16.724, 72 16.628, 72 18.264 M 71.561 27.250 C 70.874 30.485, 70.335 63.008, 70.969 62.961 C 71.261 62.939, 80.725 61.654, 92 60.105 C 103.275 58.557, 112.649 57.411, 112.831 57.559 C 113.013 57.707, 112.637 58.810, 111.995 60.009 C 110.691 62.446, 110.225 62.500, 120.447 59.026 L 125.393 57.345 114.447 54.623 C 96.658 50.199, 96 49.983, 96 48.565 C 96 47.626, 98.545 46.843, 104.250 46.028 C 124.181 43.180, 163.432 37.189, 162.742 37.099 C 162.325 37.044, 155.575 36.111, 147.742 35.024 C 126.053 32.015, 73.595 25.002, 72.769 25.001 C 72.367 25, 71.823 26.012, 71.561 27.250 M 143.250 54.290 C 139.813 55.442, 137 56.677, 137 57.033 C 137 57.390, 139.588 58.255, 142.750 58.955 C 145.912 59.655, 148.823 60.419, 149.218 60.653 C 149.613 60.887, 144.073 67.858, 136.907 76.145 C 129.742 84.432, 124.128 91.462, 124.433 91.767 C 124.738 92.072, 125.778 91.655, 126.744 90.841 C 154.471 67.469, 154.065 67.868, 153.481 64.605 C 153.176 62.897, 152.599 59.510, 152.199 57.079 C 151.799 54.647, 151.028 52.553, 150.486 52.426 C 149.944 52.298, 146.688 53.137, 143.250 54.290 M 165.814 61.137 C 161.241 65.062, 157.395 68.550, 157.266 68.887 C 157.137 69.224, 157.837 74.225, 158.822 80 L 160.612 90.500 165.713 77.500 C 168.519 70.350, 171.749 62.138, 172.892 59.250 C 174.036 56.362, 174.781 54, 174.549 54 C 174.317 54, 170.386 57.212, 165.814 61.137 M 29.762 63.790 C 28.845 66.341, 28.185 68.502, 28.297 68.593 C 28.630 68.865, 42.375 66.898, 44 66.346 C 45.486 65.842, 41.502 63.367, 34.465 60.422 L 31.429 59.153 29.762 63.790 M 119.090 62.330 L 109.681 65.608 107.710 70.796 L 105.739 75.983 113.038 82.742 C 117.053 86.459, 120.686 89.500, 121.112 89.500 C 121.537 89.500, 127.085 83.425, 133.439 76 L 144.993 62.500 140.747 61.218 C 132.409 58.702, 129.006 58.876, 119.090 62.330 M 89.500 63.080 C 68.335 66.082, 70 65.491, 70 69.997 L 70 73.904 78.638 77.952 C 83.390 80.178, 87.581 82, 87.954 82 C 88.326 82, 89.502 78.963, 90.567 75.250 L 92.504 68.500 99.952 65.900 C 107.740 63.182, 110.296 60.911, 105.333 61.118 C 103.775 61.184, 96.650 62.066, 89.500 63.080 M 61.750 66.728 C 57.320 67.192, 56.922 68.414, 60.750 69.800 C 62.263 70.347, 64.287 71.115, 65.250 71.505 C 66.693 72.090, 67 71.670, 67 69.107 C 67 67.398, 66.662 66.076, 66.250 66.168 C 65.838 66.261, 63.813 66.513, 61.750 66.728 M 99.776 68.763 C 95.214 70.281, 94.978 70.555, 92.923 76.731 C 91.752 80.249, 90.956 83.290, 91.154 83.487 C 92.081 84.415, 115.402 95, 116.518 95 C 120.062 95, 118.468 91.674, 111.873 85.308 C 108.008 81.576, 104.331 78.204, 103.702 77.816 C 102.614 77.143, 102.855 76.016, 105.748 68.250 C 106.317 66.723, 105.764 66.771, 99.776 68.763 M 69.797 84.852 C 69.478 90.277, 67.776 97.660, 63.941 110.250 C 60.967 120.013, 58.222 128, 57.842 128 C 57.461 128, 51.072 122.130, 43.643 114.956 L 30.136 101.912 29.559 106.206 C 28.401 114.819, 23 166.507, 23 168.969 L 23 171.502 43.250 170.177 L 63.500 168.852 109.478 176.365 C 134.766 180.497, 155.642 183.691, 155.870 183.463 C 156.321 183.012, 150.147 165.947, 149.113 164.789 C 148.764 164.398, 129.583 162.870, 106.489 161.393 C 83.395 159.916, 64.373 158.610, 64.219 158.489 C 64.064 158.369, 69.126 142.070, 75.469 122.270 C 81.811 102.469, 87 85.991, 87 85.651 C 87 84.989, 79.811 81.191, 73.873 78.716 L 70.245 77.204 69.797 84.852 M 119.872 95.750 C 118.629 97.336, 118.664 97.371, 120.250 96.128 C 121.916 94.821, 122.445 94, 121.622 94 C 121.415 94, 120.627 94.787, 119.872 95.750 M 113 106.515 C 102.800 115.771, 101.180 117.702, 98.671 123.596 C 97.115 127.252, 96.215 130.595, 96.671 131.026 C 97.127 131.457, 104.897 134.821, 113.937 138.500 C 122.977 142.180, 132.742 146.238, 135.635 147.517 L 140.896 149.844 153.448 135.501 C 165.350 121.900, 166.012 120.917, 166.250 116.483 L 166.500 111.808 146.500 103.937 C 135.500 99.608, 126.050 96.070, 125.500 96.073 C 124.950 96.077, 119.325 100.776, 113 106.515" stroke="none" fill="black" fill-rule="evenodd"/>
</svg>