<svg xmlns="http://www.w3.org/2000/svg" width="200" height="200" viewBox="0 0 200 200" version="1.1">
	<path d="M 26.600 15.250 C 26.995 15.938, 28.927 18.729, 30.894 21.454 C 32.861 24.179, 33.802 26.005, 32.985 25.511 C 32.168 25.018, 29.091 23.082, 26.147 21.210 C 22.537 18.915, 20.464 18.136, 19.782 18.818 C 19.100 19.500, 20.192 20.720, 23.135 22.565 C 25.536 24.069, 29.915 26.835, 32.867 28.712 C 39.698 33.056, 42.352 32.491, 38.610 27.489 C 37.175 25.570, 34.764 22.350, 33.253 20.332 L 30.507 16.665 38.003 17.261 C 42.127 17.589, 63.387 18.888, 85.250 20.149 C 107.113 21.410, 125 22.714, 125 23.046 C 125 24.170, 83.543 33.023, 78.333 33.011 C 75.148 33.004, 73.011 33.468, 72.760 34.220 C 72.536 34.891, 70.361 35.924, 67.927 36.515 L 63.500 37.590 63.207 45.943 L 62.914 54.295 51.188 53.633 L 39.461 52.970 31.704 62.473 C 27.437 67.700, 23.708 72.598, 23.416 73.359 C 22.981 74.492, 26.496 74.873, 42.957 75.474 L 63.029 76.207 62.376 107.353 C 62.017 124.484, 61.649 138.599, 61.558 138.720 C 61.467 138.841, 55.138 127.865, 47.494 114.327 C 35.593 93.251, 33.489 90.058, 32.854 92.107 C 31.582 96.209, 17.821 171.154, 18.259 171.592 C 18.487 171.820, 32.360 173.625, 49.087 175.603 L 79.500 179.199 125 178.080 C 180.764 176.708, 191 176.162, 191 174.563 C 191 173.790, 175.923 170.205, 148.547 164.469 C 125.197 159.576, 106.211 155.455, 106.356 155.311 C 106.500 155.167, 120.702 154.389, 137.917 153.583 C 155.131 152.777, 169.403 151.931, 169.631 151.702 C 169.860 151.474, 170.437 143.918, 170.914 134.912 L 171.782 118.537 164.734 99.519 C 160.857 89.058, 157.687 80.050, 157.689 79.500 C 157.691 78.950, 162.936 68.861, 169.346 57.081 C 175.756 45.301, 181 35.288, 181 34.831 C 181 31.510, 175.180 38.455, 151.024 70.598 C 125.855 104.091, 123.337 107.119, 121.024 106.676 C 119.636 106.410, 113.550 105.382, 107.500 104.391 L 96.500 102.589 110.873 99.839 C 118.777 98.326, 125.497 96.836, 125.806 96.527 C 127.243 95.090, 123.417 94.002, 110.170 92.079 C 102.288 90.936, 95.598 90, 95.302 90 C 95.007 90, 95.075 86.694, 95.453 82.654 L 96.142 75.307 87.821 74.660 C 83.244 74.303, 76.463 74.009, 72.750 74.006 L 66 74 66 65.464 L 66 56.928 74.750 57.506 C 79.563 57.823, 97 58.782, 113.500 59.636 C 130 60.490, 145.681 61.420, 148.347 61.703 L 153.194 62.217 145.347 51.635 C 137.985 41.706, 137.315 41.081, 134.500 41.515 C 132.850 41.769, 136.450 40.257, 142.500 38.155 C 148.550 36.052, 153.389 33.920, 153.252 33.416 C 153.116 32.912, 146.152 32.375, 137.777 32.223 C 125.614 32.001, 122.383 31.649, 121.725 30.473 C 120.575 28.419, 119.328 28.637, 118.710 31 C 118.228 32.844, 117.380 32.994, 107.844 32.923 L 97.500 32.847 118 28.153 C 133.312 24.646, 138.500 23.084, 138.500 21.979 C 138.500 20.733, 130.240 20, 86 17.324 C 23.647 13.551, 25.665 13.622, 26.600 15.250 M 98.500 35.944 L 88.500 36.500 103.500 39.272 C 111.750 40.797, 118.838 42.035, 119.250 42.022 C 120.152 41.995, 120.237 38.781, 119.393 36.582 C 118.742 34.884, 117.968 34.861, 98.500 35.944 M 122.015 36.750 C 122.054 41.210, 123.352 41.387, 132.634 38.201 L 141.500 35.158 131.750 35.079 C 123.095 35.009, 122.002 35.197, 122.015 36.750 M 75.500 37.525 C 74.950 37.727, 72.588 38.384, 70.250 38.985 L 66 40.077 66 46.922 C 66 53.175, 66.195 53.819, 68.250 54.370 C 74.542 56.056, 81.758 54.882, 98 49.529 C 107.075 46.538, 114.275 44.069, 114 44.042 C 113.725 44.015, 105.175 42.421, 95 40.500 C 84.825 38.579, 76.500 37.041, 76.500 37.083 C 76.500 37.124, 76.050 37.323, 75.500 37.525 M 113 49.834 L 91.500 55.500 114.500 56.655 C 127.150 57.290, 139.679 58.061, 142.342 58.369 C 146.045 58.796, 146.968 58.642, 146.263 57.714 C 145.756 57.046, 143.213 53.688, 140.612 50.250 C 138.011 46.813, 135.572 44.038, 135.192 44.084 C 134.811 44.130, 124.825 46.718, 113 49.834 M 147.655 79.578 C 136.191 94.739, 126.990 107.323, 127.209 107.542 C 127.583 107.916, 155.543 113, 157.225 113 C 157.651 113, 158 113.675, 158 114.500 C 158 116.308, 159.240 116.307, 139.023 114.514 C 129.961 113.711, 122.262 113.379, 121.914 113.777 C 121.566 114.175, 118.708 117.962, 115.563 122.192 C 110.182 129.431, 109.422 130.045, 102.672 132.606 C 98.728 134.103, 89.214 137.729, 81.531 140.664 C 73.849 143.599, 66.986 146, 66.281 146 C 65.577 146, 64.986 146.787, 64.968 147.750 C 64.940 149.328, 64.791 149.308, 63.458 147.545 C 62.645 146.470, 56.289 135.445, 49.334 123.045 C 42.378 110.645, 36.169 99.928, 35.536 99.228 C 34.654 98.254, 32.910 105.876, 28.097 131.728 C 24.639 150.303, 21.600 166.425, 21.345 167.556 C 20.897 169.541, 21.933 169.730, 51.161 172.985 L 81.442 176.357 129.471 175.093 C 155.887 174.397, 177.581 173.748, 177.681 173.650 C 177.780 173.552, 158.743 169.457, 135.375 164.550 C 112.008 159.643, 92.644 155.232, 92.344 154.748 C 92.045 154.263, 92.049 153.618, 92.353 153.313 C 92.658 153.009, 109.465 152.056, 129.704 151.197 C 149.942 150.338, 166.770 149.237, 167.100 148.751 C 167.430 148.265, 167.965 141.323, 168.289 133.323 L 168.878 118.778 161.576 98.940 L 154.273 79.103 157.449 73.301 C 166.248 57.226, 169.027 52.001, 168.776 52.006 C 168.624 52.009, 159.120 64.417, 147.655 79.578 M 34.182 63.750 C 30.811 68.013, 28.405 71.621, 28.836 71.770 C 29.267 71.918, 37.130 72.368, 46.310 72.770 L 63.001 73.500 63 65.398 L 63 57.296 54.750 56.654 C 39.841 55.494, 41.038 55.081, 34.182 63.750 M 65.505 83.500 C 65.166 87.350, 65.027 102.458, 65.195 117.073 L 65.500 143.647 88.500 126.859 C 109.707 111.381, 111.851 110.060, 116 109.919 C 120.470 109.768, 120.457 109.758, 114 108.494 C 110.425 107.795, 103.112 106.444, 97.750 105.493 C 84.375 103.121, 84.890 101.779, 100.250 98.978 C 106.987 97.750, 112.950 96.472, 113.500 96.138 C 114.050 95.805, 109.550 94.842, 103.500 93.998 L 92.500 92.463 92.826 85.270 C 93.214 76.701, 94.042 77.155, 77.310 76.762 L 66.120 76.500 65.505 83.500 M 95.283 125.315 C 85.263 132.622, 76.780 138.887, 76.431 139.236 C 76.082 139.585, 83.048 137.120, 91.910 133.758 L 108.024 127.646 113.536 120.323 C 116.920 115.826, 118.491 113, 117.606 113 C 116.812 113, 115.564 112.781, 114.832 112.514 C 114.099 112.247, 105.302 118.007, 95.283 125.315" stroke="none" fill="black" fill-rule="evenodd"/>
</svg>