<svg xmlns="http://www.w3.org/2000/svg" width="200" height="200" viewBox="0 0 200 200" version="1.1">
	<path d="M 14.215 14.806 C 16.022 16.349, 22.112 21.350, 27.750 25.919 C 33.388 30.487, 38 34.403, 38 34.620 C 38 34.837, 32.172 32.094, 25.048 28.524 C 17.016 24.499, 11.851 22.433, 11.448 23.084 C 11.092 23.661, 10.957 24.275, 11.150 24.448 C 13.426 26.493, 85.597 77.303, 87.248 78.023 C 94.216 81.059, 133.768 89.351, 148.484 90.860 L 164.469 92.500 166.343 102.808 C 167.375 108.477, 167.981 113.352, 167.692 113.641 C 166.833 114.500, 127.029 123.696, 126.492 123.159 C 126.222 122.888, 126 117.624, 126 111.460 L 126 100.254 117.250 98.667 C 94.491 94.539, 70.817 90.850, 70.314 91.353 C 70.008 91.659, 70.961 98.175, 72.433 105.832 L 75.108 119.755 70.358 131.377 C 67.745 137.770, 65.341 143, 65.016 143 C 64.690 143, 59.984 127.700, 54.559 109 C 49.133 90.300, 44.425 75.005, 44.097 75.011 C 43.769 75.018, 40.443 81.663, 36.706 89.778 L 29.912 104.533 23.650 140.517 C 20.206 160.307, 17.655 176.618, 17.981 176.762 C 18.307 176.907, 27.056 173.865, 37.422 170.003 L 56.271 162.981 93.616 176.602 L 130.961 190.223 149.230 180.870 C 159.279 175.727, 172.785 168.814, 179.244 165.509 C 185.704 162.204, 190.991 158.908, 190.994 158.184 C 190.999 157.161, 188.764 156.938, 180.998 157.184 L 170.996 157.500 171.003 117.500 C 171.007 95.500, 171.294 73.213, 171.641 67.973 L 172.272 58.447 178.668 54.038 C 185.845 49.090, 187.520 47.440, 186.197 46.622 C 185.702 46.316, 182.418 48.094, 178.899 50.574 L 172.500 55.082 172 39.791 L 171.500 24.500 156.607 42.307 C 146.967 53.833, 142.057 60.457, 142.686 61.086 C 143.477 61.877, 157.640 46.024, 167.718 33.066 C 168.694 31.812, 168.943 34.108, 168.968 44.602 L 169 57.704 157.812 65.602 C 151.658 69.946, 146.089 73.828, 145.436 74.230 C 144.609 74.739, 142.085 68.982, 137.105 55.230 C 133.176 44.378, 129.970 35.032, 129.981 34.460 C 129.991 33.888, 134.500 31.206, 140 28.500 C 145.500 25.794, 150 22.999, 150 22.290 C 150 21.276, 145.314 21, 128.095 21 L 106.189 21 103.071 29.618 C 101.356 34.358, 98.563 42.216, 96.864 47.080 L 93.776 55.925 95.837 62.680 C 96.971 66.395, 97.756 69.577, 97.581 69.752 C 97.406 69.927, 89.754 63.239, 80.576 54.890 C 71.398 46.542, 64.252 39.381, 64.695 38.978 C 65.138 38.574, 73.825 35.675, 84 32.535 C 102.196 26.920, 105.059 25.726, 103.666 24.333 C 103.106 23.772, 16.961 12.194, 12.215 12.041 C 11.509 12.019, 12.409 13.263, 14.215 14.806 M 21 16.437 C 21 16.753, 43.391 35.162, 52.933 42.691 C 53.172 42.879, 52.902 43.498, 52.333 44.067 C 51.622 44.778, 47.902 43.322, 40.400 39.397 C 34.405 36.260, 29.950 34.151, 30.500 34.709 C 31.050 35.268, 44.100 44.661, 59.500 55.582 C 85.058 73.708, 88.107 75.591, 94.461 77.175 C 98.290 78.129, 101.574 78.760, 101.758 78.575 C 101.942 78.391, 92.397 69.371, 80.546 58.531 C 68.696 47.691, 59 38.494, 59 38.093 C 59 37.693, 61.363 36.642, 64.250 35.757 C 67.138 34.873, 75.575 32.240, 83 29.907 L 96.500 25.664 60 20.889 C 20.745 15.755, 21 15.784, 21 16.437 M 107.494 25.250 C 107.250 25.938, 104.789 32.860, 102.025 40.634 C 99.261 48.408, 97.011 55.383, 97.024 56.134 C 97.037 56.885, 98.559 62.448, 100.405 68.496 L 103.762 79.493 119.548 83.196 C 128.230 85.233, 140.546 87.388, 146.917 87.984 C 165.233 89.698, 167 90.035, 167 91.814 C 167 92.899, 167.324 93.076, 168.027 92.373 C 168.664 91.736, 168.949 85.638, 168.777 76.299 L 168.500 61.253 156.071 70.147 C 149.235 75.039, 143.302 78.695, 142.888 78.271 C 142.240 77.609, 126 33.378, 126 32.277 C 126 32.057, 129.713 30.118, 134.250 27.966 L 142.500 24.055 125.219 24.028 C 112.276 24.007, 107.826 24.314, 107.494 25.250 M 38.059 93.248 C 32.796 104.485, 32.781 104.545, 26.884 138.406 C 23.636 157.054, 21.114 172.448, 21.280 172.614 C 21.447 172.780, 29.386 170.016, 38.923 166.471 L 56.264 160.027 93.574 173.626 L 130.885 187.226 156.693 173.986 C 170.887 166.705, 182.725 160.531, 183 160.267 C 183.515 159.773, 174.873 160.129, 128.564 162.506 C 113.750 163.266, 101.301 163.686, 100.901 163.439 C 99.024 162.279, 87.835 142.770, 88.618 142.023 C 89.103 141.560, 97.278 137.679, 106.783 133.399 C 119.229 127.795, 123.918 125.228, 123.533 124.227 C 123.240 123.462, 123 118.248, 123 112.640 L 123 102.443 98.305 98.249 C 84.723 95.943, 73.482 94.184, 73.326 94.341 C 73.169 94.498, 74.158 100.339, 75.523 107.322 L 78.006 120.018 72.477 133.513 C 69.436 140.935, 66.497 148.194, 65.946 149.643 C 65.395 151.092, 64.729 152.063, 64.467 151.801 C 64.205 151.538, 59.504 135.887, 54.020 117.020 C 48.537 98.154, 43.888 82.555, 43.689 82.356 C 43.491 82.158, 40.957 87.059, 38.059 93.248 M 148.250 121.305 C 138.762 123.543, 131 125.693, 131 126.082 C 131 126.615, 153.641 145.103, 166.750 155.275 C 167.740 156.044, 168 152.171, 168 136.622 C 168 121.528, 167.712 117.027, 166.750 117.118 C 166.063 117.182, 157.738 119.067, 148.250 121.305 M 109.500 135.145 C 98.617 140.162, 92.545 143.493, 92.624 144.403 C 92.820 146.646, 102.082 161, 103.333 161 C 106.220 161, 163.595 157.885, 164.297 157.690 C 164.995 157.496, 130.091 129.168, 127.500 127.827 C 126.950 127.542, 118.850 130.835, 109.500 135.145" stroke="none" fill="black" fill-rule="evenodd"/>
</svg>