<svg xmlns="http://www.w3.org/2000/svg" width="200" height="200" viewBox="0 0 200 200" version="1.1">
	<path d="M 133.040 26.708 C 134.925 39.830, 135.413 45.708, 134.659 46.189 C 133.930 46.654, 134.096 47.466, 135.170 48.689 C 136.045 49.685, 137.070 53.071, 137.448 56.214 C 138.243 62.827, 138.794 62.478, 126 63.466 C 121.875 63.784, 116.044 64.323, 113.043 64.664 L 107.585 65.282 109.257 62.730 L 110.930 60.177 103.215 57.427 C 98.972 55.914, 95.153 54.380, 94.729 54.017 C 94.305 53.655, 95.351 51.436, 97.053 49.086 C 98.755 46.736, 99.972 44.639, 99.757 44.424 C 99.543 44.210, 94.785 43.734, 89.184 43.367 C 83.583 43, 79 42.411, 79 42.059 C 79 41.706, 86.537 39.252, 95.750 36.605 C 114.444 31.232, 115.200 30.935, 114.205 29.346 C 113.681 28.510, 27.069 13.187, 14.593 11.724 C 9.751 11.156, 12.993 14.591, 26.199 24.021 C 34.064 29.639, 40.915 34.619, 41.422 35.090 C 42.154 35.768, 19.902 28.314, 12.879 25.528 C 11.933 25.153, 11.040 25.453, 10.734 26.250 C 10.353 27.245, 16.220 29.906, 32.355 36.057 C 44.535 40.701, 55.122 44.428, 55.883 44.339 C 57.051 44.203, 87.906 54.572, 88.702 55.368 C 88.850 55.517, 86.948 58.420, 84.474 61.819 C 80.881 66.758, 79.427 68.007, 77.239 68.032 C 72.349 68.090, 46.959 70.708, 46.462 71.205 C 46.196 71.471, 46.657 73.610, 47.486 75.960 C 48.986 80.213, 48.983 80.229, 46.746 79.592 C 39.316 77.476, 39.896 77.058, 34.758 88.209 L 30.016 98.500 26.479 133.887 C 24.533 153.350, 23.067 169.385, 23.221 169.520 C 23.374 169.654, 28.146 167.582, 33.824 164.914 L 44.149 160.063 72.487 172.417 L 100.825 184.770 138.163 182.417 C 158.698 181.124, 177.053 180.050, 178.950 180.033 C 181.113 180.012, 182.046 179.649, 181.450 179.059 C 180.928 178.541, 172.850 173.759, 163.500 168.431 L 146.500 158.744 111.500 158.336 C 92.250 158.111, 74.620 157.696, 72.322 157.413 C 67.782 156.855, 67.927 157.140, 65.509 143.976 L 64.862 140.453 71.681 138.230 L 78.500 136.008 102.595 144.241 L 126.689 152.474 152.306 144.570 C 166.396 140.222, 178.444 136.344, 179.081 135.950 C 179.937 135.421, 179.288 128.136, 176.596 108.032 L 172.952 80.829 164.367 72.703 C 156.399 65.160, 155.936 64.508, 157.919 63.623 C 161.231 62.145, 159.783 60.520, 155.425 60.824 C 151.789 61.077, 151.036 60.628, 145.199 54.720 L 138.898 48.343 156.699 45.572 C 166.490 44.048, 175.801 42.492, 177.392 42.115 C 180.098 41.473, 178.758 40.381, 156.576 25.158 C 143.537 16.209, 132.299 8.668, 131.604 8.402 C 130.660 8.039, 131.024 12.674, 133.040 26.708 M 134.339 16.595 C 134.697 18.743, 135.757 26.012, 136.694 32.750 C 138.335 44.542, 138.489 45, 140.800 45 C 142.982 45, 165.188 41.606, 170.860 40.406 C 172.944 39.965, 172.357 39.313, 165.860 34.842 C 161.812 32.057, 152.917 25.933, 146.094 21.234 L 133.688 12.690 134.339 16.595 M 19.500 15.733 C 20.050 16.278, 27.663 21.848, 36.417 28.112 L 52.333 39.500 71.417 46.220 L 90.500 52.940 92.745 50.220 C 93.980 48.724, 94.992 47.223, 94.995 46.885 C 94.998 46.546, 89.037 45.871, 81.750 45.385 C 62.893 44.126, 63.616 43.034, 88 35.945 C 103.866 31.333, 106.941 30.160, 104.500 29.649 C 102.850 29.304, 83.950 26.064, 62.500 22.450 C 41.050 18.835, 22.375 15.623, 21 15.310 C 19.345 14.934, 18.838 15.077, 19.500 15.733 M 140.014 55.694 C 140.048 60.186, 141.211 62, 144.058 62 C 148.286 62, 148.252 60.815, 143.916 57.175 C 140.694 54.470, 140.002 54.207, 140.014 55.694 M 88.064 61.561 C 86.262 64.069, 84.994 66.327, 85.245 66.578 C 85.496 66.829, 89.631 66.733, 94.433 66.363 C 102.561 65.739, 106 64.448, 106 62.020 C 106 61.197, 94.693 57, 92.475 57 C 91.850 57, 89.865 59.052, 88.064 61.561 M 144.750 65.716 C 143.238 65.945, 142 66.765, 142 67.538 C 142 68.311, 143.808 81.173, 146.018 96.120 C 148.228 111.068, 149.915 123.406, 149.768 123.538 C 149.621 123.671, 145.563 122.166, 140.750 120.196 L 132 116.612 132.080 111.556 C 132.123 108.775, 132.468 102.787, 132.845 98.250 C 133.223 93.713, 133.477 90, 133.412 90 C 133.346 90, 127.529 93.336, 120.485 97.413 L 107.678 104.825 97.089 101.008 C 91.265 98.909, 82.225 95.636, 77 93.734 L 67.500 90.277 64.811 94.066 C 62.817 96.876, 62.429 98.096, 63.311 98.783 C 63.965 99.293, 75.185 105.063, 88.245 111.605 C 101.305 118.147, 111.993 123.786, 111.995 124.136 C 111.998 124.485, 105.588 126.898, 97.750 129.497 C 89.912 132.097, 83.359 134.351, 83.187 134.508 C 82.721 134.932, 125.258 149, 127.001 148.998 C 130.702 148.994, 176.518 134.142, 176.753 132.870 C 176.892 132.117, 175.500 120.348, 173.660 106.717 L 170.315 81.933 161.408 73.516 C 152.305 64.913, 151.754 64.655, 144.750 65.716 M 114.500 67.189 C 106.347 68.021, 102.802 69.135, 104.117 70.450 C 104.383 70.716, 109.978 69.869, 116.550 68.569 C 129.323 66.042, 128.850 65.723, 114.500 67.189 M 118.074 71.100 C 107.389 73.234, 98.465 74.799, 98.244 74.577 C 98.022 74.355, 98.603 73.009, 99.535 71.587 C 101.222 69.012, 101.217 69, 98.365 69.007 C 96.789 69.011, 92.445 69.303, 88.711 69.655 L 81.922 70.296 75.838 78.725 C 72.442 83.428, 70.139 87.523, 70.627 87.989 C 71.107 88.449, 79.562 91.756, 89.416 95.337 L 107.332 101.850 121.854 93.446 C 129.841 88.824, 136.461 85.145, 136.565 85.271 C 136.669 85.397, 136.392 89.550, 135.948 94.500 C 135.505 99.450, 135.110 106.028, 135.071 109.117 L 135 114.733 140.157 116.876 C 142.993 118.055, 145.550 118.783, 145.839 118.495 C 146.128 118.206, 144.890 107.739, 143.089 95.235 C 139.277 68.769, 138.958 66.963, 138.125 67.110 C 137.781 67.171, 128.758 68.966, 118.074 71.100 M 59.500 72.236 C 54.550 72.763, 50.358 73.330, 50.184 73.496 C 50.011 73.662, 50.348 75.578, 50.934 77.754 C 51.942 81.498, 52.384 81.852, 59.190 84.365 C 63.145 85.825, 66.668 86.678, 67.020 86.260 C 67.372 85.842, 69.991 82.237, 72.841 78.250 L 78.022 71 73.261 71.138 C 70.643 71.214, 64.450 71.708, 59.500 72.236 M 37.088 89.929 L 32.833 98.883 29.522 131.692 C 27.701 149.736, 26.352 164.651, 26.525 164.836 C 26.697 165.021, 30.724 163.351, 35.473 161.125 L 44.108 157.079 72.701 169.527 L 101.294 181.975 137.205 179.767 C 167.783 177.886, 172.848 177.359, 171.308 176.219 C 170.314 175.482, 163.845 171.757, 156.933 167.940 L 144.365 161 115.933 160.873 C 100.295 160.803, 82.580 160.465, 76.567 160.123 L 65.634 159.500 58.896 125 C 55.190 106.025, 51.618 89.005, 50.956 87.179 C 50.295 85.352, 48.797 83.499, 47.627 83.062 C 41.184 80.654, 41.636 80.359, 37.088 89.929 M 54.491 89.360 C 55.167 91.637, 57.632 103.461, 59.968 115.636 L 64.216 137.772 85.300 130.736 L 106.383 123.700 82.442 111.738 C 69.274 105.160, 58.334 99.623, 58.130 99.435 C 57.927 99.248, 59.396 96.866, 61.395 94.144 L 65.028 89.193 59.145 87.206 L 53.262 85.220 54.491 89.360" stroke="none" fill="black" fill-rule="evenodd"/>
</svg>