<svg xmlns="http://www.w3.org/2000/svg" width="200" height="200" viewBox="0 0 200 200" version="1.1">
	<path d="M 123.030 9.887 L 122.006 13.690 104.395 14.378 C 91.162 14.894, 86.418 14.762, 85.315 13.847 C 84.159 12.887, 83.683 12.896, 83.069 13.889 C 82.497 14.813, 73.722 15.508, 50.181 16.492 C 19.294 17.784, 17.883 17.763, 13.082 15.939 C 6.890 13.586, 5.590 14.912, 9.750 19.336 C 11.386 21.076, 19.649 29.956, 28.112 39.070 C 36.576 48.183, 43.939 55.754, 44.475 55.895 C 47.236 56.617, 45.072 52.876, 34.628 38.869 C 28.325 30.416, 23.314 23.354, 23.491 23.176 C 23.753 22.913, 66.870 38.803, 67.765 39.492 C 67.910 39.604, 66.936 41.677, 65.601 44.098 L 63.172 48.500 65.046 80.500 C 66.077 98.100, 66.939 113.270, 66.960 114.211 C 66.988 115.382, 65.705 116.272, 62.899 117.027 C 60.644 117.635, 58.670 117.989, 58.513 117.816 C 58.356 117.642, 52.281 107.825, 45.014 96 C 37.746 84.175, 31.343 74.050, 30.784 73.500 C 30.096 72.823, 29.923 80.599, 30.250 97.572 L 30.731 122.645 24.039 151.572 C 20.358 167.483, 17.446 180.640, 17.568 180.811 C 17.690 180.983, 27.195 176.897, 38.691 171.732 L 59.593 162.342 89.510 176.171 C 105.964 183.777, 120.118 189.998, 120.963 189.995 C 124.291 189.986, 190.509 164.104, 190.799 162.700 C 191.051 161.482, 186.619 161.116, 162.668 160.377 L 134.239 159.500 156.065 131.500 C 168.069 116.100, 177.915 103.030, 177.945 102.456 C 177.975 101.881, 173.950 99.426, 169 97 C 164.050 94.574, 160 92.427, 160 92.229 C 160 92.031, 163.150 84.503, 167 75.500 C 170.850 66.497, 174 58.600, 174 57.952 C 174 57.142, 172.668 56.951, 169.750 57.342 C 167.412 57.656, 157.287 58.214, 147.250 58.584 C 131.353 59.169, 129.001 59.465, 129.010 60.878 C 129.015 61.770, 129.671 68.332, 130.466 75.460 C 131.262 82.588, 131.782 88.551, 131.623 88.710 C 131.464 88.869, 128.548 83.070, 125.143 75.823 C 121.738 68.577, 119.301 62.352, 119.726 61.991 C 120.152 61.630, 134.788 56.670, 152.252 50.969 C 169.716 45.268, 183.644 40.244, 183.205 39.805 C 182.221 38.821, 146.085 23, 144.822 23 C 144.322 23, 135.612 29.323, 125.467 37.052 L 107.021 51.104 92.261 45.626 C 84.142 42.613, 76.293 39.687, 74.817 39.124 L 72.134 38.100 77.817 28.084 C 80.943 22.575, 83.950 18.055, 84.500 18.039 C 85.050 18.024, 92.025 23.839, 100 30.963 C 107.975 38.087, 114.725 43.932, 115 43.953 C 115.275 43.973, 116.963 39.155, 118.750 33.245 C 120.538 27.335, 123.081 19.044, 124.402 14.819 C 126.352 8.579, 126.545 7.039, 125.429 6.611 C 124.498 6.254, 123.724 7.311, 123.030 9.887 M 105.333 16.925 C 97.541 17.241, 90.933 17.733, 90.648 18.018 C 90.081 18.586, 112.303 38.500, 113.503 38.500 C 113.910 38.500, 115.762 33.550, 117.617 27.500 C 121.454 14.992, 121.232 15.946, 120.250 16.175 C 119.838 16.272, 113.125 16.609, 105.333 16.925 M 51.500 19.114 C 41.600 19.560, 31.700 20.055, 29.500 20.213 C 25.952 20.468, 27.874 21.392, 46.500 28.395 C 58.050 32.737, 67.964 36.460, 68.530 36.668 C 69.401 36.987, 80 20.266, 80 18.573 C 80 17.919, 76.535 17.984, 51.500 19.114 M 19 25.500 C 22.543 29.075, 25.596 32, 25.783 32 C 26.611 32, 19.264 22.574, 17.115 20.880 C 11.854 16.732, 12.934 19.379, 19 25.500 M 127.129 39.168 L 109.759 52.307 116.001 54.653 C 119.434 55.944, 122.934 57, 123.778 57 C 124.922 57, 163.673 44.679, 175.968 40.406 C 177.203 39.976, 147.260 25.972, 145.197 26.014 C 144.814 26.022, 136.683 31.941, 127.129 39.168 M 68.168 44.915 L 65.968 48.829 67.457 75.665 C 68.276 90.424, 69.212 105.962, 69.537 110.194 L 70.128 117.889 66.314 118.889 C 56.357 121.500, 58.561 123.296, 45.373 101.829 L 33.500 82.504 32.859 106.502 L 32.218 130.500 26.765 153 C 23.766 165.375, 21.452 175.672, 21.622 175.883 C 21.793 176.093, 30.160 172.540, 40.216 167.987 C 50.272 163.434, 58.950 159.709, 59.500 159.709 C 60.050 159.709, 73.826 165.850, 90.112 173.355 C 106.399 180.860, 120.349 187.005, 121.112 187.011 C 121.876 187.017, 135.848 181.955, 152.162 175.761 L 181.824 164.500 176.662 163.849 C 173.823 163.491, 164.075 163.169, 155 163.134 C 141.240 163.081, 62.428 157.380, 61.097 156.342 C 60.876 156.169, 67.598 140.271, 76.037 121.014 C 86.185 97.854, 91.876 86, 92.848 86 C 94.110 86, 94.229 88.715, 93.695 105.320 L 93.073 124.640 100.137 133.320 C 104.022 138.094, 107.527 142, 107.926 142 C 108.325 142, 113.792 132.597, 120.076 121.105 L 131.500 100.209 132.133 109.855 C 132.480 115.160, 132.844 125.800, 132.940 133.500 C 133.036 141.200, 133.427 149.134, 133.808 151.132 L 134.500 154.764 153.693 130.053 C 164.249 116.462, 173.024 104.743, 173.193 104.011 C 173.376 103.217, 170.027 100.828, 164.891 98.090 L 156.281 93.500 163.271 77.214 C 167.115 68.256, 170.086 60.753, 169.873 60.539 C 169.419 60.086, 132.713 61.954, 132.211 62.456 C 131.855 62.811, 134.592 90.071, 135.562 95.835 C 136.026 98.598, 135.832 99.113, 134.431 98.835 C 133.333 98.618, 129.633 91.867, 123.889 79.603 C 119.021 69.209, 114.904 60.570, 114.739 60.405 C 114.574 60.241, 109.411 61.378, 103.266 62.933 C 88.360 66.704, 87.479 65.957, 97.610 58.137 C 103.896 53.284, 104.104 52.991, 101.860 52.157 C 100.562 51.674, 93.305 48.967, 85.733 46.140 C 78.161 43.313, 71.606 41, 71.167 41 C 70.728 41, 69.378 42.762, 68.168 44.915 M 103.221 57.300 C 100.907 58.976, 99.126 60.459, 99.262 60.596 C 99.791 61.125, 113 57.577, 113 56.906 C 113 56.515, 111.746 55.759, 110.214 55.224 C 107.838 54.396, 106.807 54.702, 103.221 57.300 M 77.707 123.951 C 70.671 140.064, 65.106 153.439, 65.340 153.673 C 65.575 153.908, 78.757 155.192, 94.633 156.526 C 110.510 157.861, 125.200 159.195, 127.277 159.492 L 131.055 160.032 130.390 135.266 C 130.024 121.645, 129.616 110.367, 129.484 110.205 C 129.352 110.043, 125.281 117.243, 120.437 126.205 C 115.593 135.167, 110.902 143.711, 110.012 145.191 L 108.394 147.882 99.723 137.109 L 91.052 126.336 90.776 110.495 L 90.500 94.655 77.707 123.951" stroke="none" fill="black" fill-rule="evenodd"/>
</svg>