<svg xmlns="http://www.w3.org/2000/svg" width="200" height="200" viewBox="0 0 200 200" version="1.1">
	<path d="M 12.654 15.679 C 12.294 16.039, 12 16.628, 12 16.988 C 12 17.348, 18.609 20.536, 26.686 24.071 L 41.371 30.500 35.936 31.151 C 32.946 31.509, 27.125 31.854, 23 31.916 C 15.494 32.031, 11.700 33.079, 13.891 34.433 C 14.499 34.808, 23.772 35.385, 34.498 35.714 C 51.712 36.242, 54 36.130, 54 34.760 C 54 33.037, 55.956 32.812, 87.345 30.929 C 104.958 29.872, 112.083 30.168, 99.811 31.447 C 90.894 32.377, 88 33.022, 88 34.079 C 88 34.619, 100.161 35, 117.406 35 L 146.812 35 156.862 39.631 L 166.913 44.263 168.052 49.881 C 168.678 52.972, 169.506 57.075, 169.892 59 C 170.439 61.731, 169.835 64.478, 167.147 71.500 C 165.252 76.450, 163.404 80.841, 163.042 81.259 C 162.256 82.164, 116.882 77.337, 115.975 76.251 C 114.918 74.986, 108.369 65.588, 107.505 64.095 C 107.044 63.300, 107.083 62.923, 107.595 63.227 C 108.093 63.521, 111.596 65.647, 115.381 67.950 C 119.905 70.704, 122.599 71.801, 123.248 71.152 C 123.896 70.504, 120.255 67.516, 112.617 62.429 C 106.228 58.173, 101 54.412, 101 54.071 C 101 53.730, 105.275 51.328, 110.500 48.732 C 119.364 44.329, 122.115 42, 118.453 42 C 117.602 42, 111.044 43.800, 103.878 46 C 96.713 48.200, 90.609 50, 90.315 50 C 90.020 50, 90.826 50.848, 92.106 51.884 L 94.433 53.769 81.361 60.319 L 68.290 66.869 67.716 71.185 C 67.400 73.558, 65.674 89.170, 63.880 105.879 C 61.024 132.476, 60.475 135.837, 59.475 132.879 C 58.847 131.020, 55.022 116.996, 50.976 101.713 C 46.931 86.431, 43.303 74.506, 42.915 75.213 C 42.527 75.921, 39.678 85.500, 36.584 96.500 C 30.361 118.622, 19.245 178.985, 21.389 179.016 C 22 179.025, 32.696 176.941, 45.159 174.386 L 67.818 169.741 106.659 178.372 C 128.021 183.119, 146.141 187.002, 146.923 187.001 C 148.162 187, 173.944 162.750, 174.833 160.750 C 175.017 160.337, 171.979 160, 168.083 160 C 164.188 160, 161 159.574, 161 159.053 C 161 158.532, 165.577 145.375, 171.172 129.816 L 181.344 101.527 177.661 83.513 C 175.636 73.606, 173.983 64.547, 173.989 63.381 C 173.995 62.216, 176.474 55.016, 179.497 47.381 C 182.520 39.747, 184.995 33.163, 184.997 32.750 C 184.999 32.337, 176.207 32, 165.460 32 C 147.674 32, 145.556 31.814, 141.863 29.930 C 139.632 28.792, 137.962 27.735, 138.153 27.582 C 138.344 27.428, 148.509 25.576, 160.743 23.465 C 183.469 19.543, 186.263 18.802, 184.492 17.169 C 183.361 16.128, 13.677 14.656, 12.654 15.679 M 23.500 19.501 C 25.150 20.236, 31.450 23.027, 37.500 25.703 L 48.500 30.568 92 27.934 C 127.544 25.781, 138.426 24.769, 151.500 22.400 L 167.500 19.500 127 18.887 C 104.725 18.550, 71.650 18.249, 53.500 18.219 C 25.150 18.171, 20.923 18.352, 23.500 19.501 M 121.500 30.519 L 115.500 31.782 127.500 31.810 C 138.453 31.835, 139.238 31.718, 136.500 30.464 C 132.912 28.821, 129.510 28.833, 121.500 30.519 M 160.953 38.378 C 165.052 40.202, 168.745 42.326, 169.160 43.098 C 169.574 43.869, 170.509 47.425, 171.236 51 L 172.559 57.500 176.237 48 C 178.261 42.775, 180.208 37.712, 180.565 36.750 C 181.164 35.135, 180.142 35.002, 167.357 35.030 L 153.500 35.060 160.953 38.378 M 98 51 C 97.175 51.533, 96.950 51.969, 97.500 51.969 C 98.050 51.969, 99.175 51.533, 100 51 C 100.825 50.467, 101.050 50.031, 100.500 50.031 C 99.950 50.031, 98.825 50.467, 98 51 M 83.500 62.166 C 76.900 65.500, 71.326 68.389, 71.113 68.585 C 70.900 68.780, 68.875 85.942, 66.613 106.720 C 63.305 137.107, 62.217 144.500, 61.054 144.500 C 60.004 144.500, 57.372 136.162, 51.428 114 L 43.248 83.500 41.177 90.500 C 35.417 109.971, 32.753 121.865, 28.455 147.295 C 25.871 162.582, 23.924 175.253, 24.128 175.452 C 24.333 175.652, 34.236 173.801, 46.136 171.341 L 67.772 166.868 106.573 175.471 C 127.913 180.203, 145.900 183.945, 146.543 183.787 C 147.187 183.629, 152.520 178.934, 158.396 173.354 L 169.078 163.208 164.499 162.843 C 161.981 162.643, 159.508 162.892, 159.003 163.397 C 158.445 163.955, 157.577 163.906, 156.792 163.273 C 156.005 162.639, 139.681 161.747, 115 160.990 C 92.725 160.308, 74.344 159.612, 74.153 159.444 C 73.686 159.034, 77.257 138.203, 77.999 137.001 C 78.353 136.428, 84.197 137.006, 92.778 138.462 L 106.971 140.871 116.487 135.329 L 126.003 129.787 141.371 144.393 C 149.824 152.427, 156.956 159, 157.221 159 C 157.487 159, 162.353 146.109, 168.036 130.353 L 178.368 101.706 175.059 84.853 C 173.239 75.584, 171.666 68, 171.563 68 C 171.460 68, 166.457 80.600, 160.447 96 C 154.436 111.400, 149.010 124, 148.390 124 C 146.912 124, 146.025 118.341, 146.011 108.823 L 146 101.146 128.281 107.073 C 118.536 110.333, 110.047 113, 109.417 113 C 108.786 113, 105.907 105.025, 103.019 95.278 C 100.130 85.531, 97.547 76.983, 97.278 76.282 C 96.895 75.283, 98.480 75.151, 104.618 75.669 L 112.447 76.331 110.817 73.843 C 109.920 72.475, 107.345 68.726, 105.093 65.512 C 102.842 62.298, 101 59.116, 101 58.441 C 101 57.189, 98.770 55.959, 96.668 56.052 C 96.026 56.080, 90.100 58.832, 83.500 62.166 M 101.357 79.726 C 107.112 99.847, 110.525 110.016, 111.416 109.690 C 120.412 106.403, 147.239 97.905, 147.571 98.238 C 147.816 98.483, 148.350 102.692, 148.758 107.592 L 149.500 116.500 155.588 101 C 158.936 92.475, 161.510 85.298, 161.307 85.052 C 160.889 84.545, 119.686 79.980, 119.272 80.395 C 119.124 80.542, 121.753 84.603, 125.114 89.420 C 129.183 95.252, 130.890 98.510, 130.225 99.175 C 129.559 99.841, 126.933 96.817, 122.363 90.123 C 115.043 79.402, 115.858 79.951, 105.175 78.528 C 101.368 78.021, 100.911 78.165, 101.357 79.726 M 116.470 138.488 L 107.493 143.783 96.496 141.938 C 90.448 140.923, 84.308 139.867, 82.851 139.591 C 80.242 139.098, 80.176 139.223, 78.602 147.713 C 77.722 152.455, 77.123 156.456, 77.270 156.603 C 77.647 156.980, 133.722 158.995, 143.905 158.998 L 152.310 159 150.405 156.886 C 149.357 155.724, 143.313 149.917, 136.974 143.983 L 125.447 133.193 116.470 138.488" stroke="none" fill="black" fill-rule="evenodd"/>
</svg>