<svg xmlns="http://www.w3.org/2000/svg" width="200" height="200" viewBox="0 0 200 200" version="1.1">
	<path d="M 16.660 8.314 C 17.672 9.509, 22.755 15.214, 27.956 20.993 C 33.157 26.772, 38.557 32.824, 39.956 34.442 L 42.500 37.384 40 35.864 C 38.625 35.028, 32.859 31.505, 27.186 28.036 C 20.324 23.838, 16.539 22.061, 15.874 22.726 C 15.210 23.390, 22.175 28.934, 36.688 39.294 C 49.553 48.477, 58.872 54.499, 59.408 53.974 C 59.949 53.444, 59.747 52.391, 58.908 51.365 C 57.240 49.329, 55.618 48.434, 74.381 59.904 L 88.127 68.308 82.834 73.668 C 78.391 78.167, 75.906 79.667, 67.366 83.006 L 57.191 86.984 39.572 82.849 C 29.882 80.574, 21.746 78.921, 21.491 79.176 C 21.236 79.430, 24.172 87.629, 28.014 97.394 C 31.856 107.160, 34.990 115.904, 34.977 116.825 C 34.964 117.746, 30.950 132.674, 26.057 149.997 C 21.164 167.320, 17.313 181.647, 17.500 181.833 C 17.686 182.019, 26.564 176.247, 37.229 169.006 L 56.620 155.840 83.177 172.420 C 97.784 181.539, 110.357 188.991, 111.117 188.979 C 111.878 188.967, 129.600 184.528, 150.500 179.114 C 177.473 172.127, 188.500 168.868, 188.500 167.885 C 188.500 165.609, 147.104 159.501, 115 157.040 C 99.875 155.881, 85.925 154.668, 84 154.344 C 81.200 153.873, 85.600 152.580, 106 147.879 C 125.318 143.428, 170.140 135, 174.497 135 C 174.774 135, 175 134.316, 175 133.481 C 175 132.427, 174.311 132.112, 172.750 132.451 C 171.513 132.721, 162.850 134.117, 153.500 135.555 C 144.150 136.992, 123.732 141.075, 108.127 144.627 C 92.521 148.180, 79.637 150.954, 79.496 150.793 C 79.355 150.632, 78.913 138.012, 78.516 122.750 C 78 102.964, 78.105 95, 78.881 95 C 80.926 95, 124.498 106.198, 125.273 106.922 C 125.697 107.320, 121.486 113.391, 115.913 120.413 C 109.448 128.560, 106.128 133.528, 106.740 134.140 C 107.528 134.928, 122.786 123.307, 129.797 116.579 C 130.529 115.877, 133.182 102.846, 135.887 86.660 C 138.524 70.889, 140.865 57.813, 141.090 57.601 C 141.571 57.149, 150.854 58.496, 151.373 59.093 C 151.567 59.317, 155.444 70.750, 159.988 84.500 C 164.532 98.250, 168.636 109.920, 169.108 110.433 C 172.043 113.624, 170.401 106.814, 162.484 82.953 C 153.940 57.200, 153.429 55.999, 151.021 55.985 C 144.670 55.946, 146.623 54.157, 160.653 47.162 C 168.669 43.165, 174.985 39.652, 174.688 39.354 C 174.391 39.057, 167.252 35.950, 158.824 32.450 C 144.787 26.620, 143.473 26.249, 143.180 28.042 C 143.005 29.119, 142.780 29.998, 142.680 29.996 C 142.581 29.993, 130.661 26.225, 116.191 21.622 C 99.506 16.314, 90.073 13.748, 90.403 14.607 C 90.688 15.352, 93.640 20.003, 96.961 24.942 C 100.283 29.882, 103 34.108, 103 34.333 C 103 34.558, 89.388 30.295, 72.750 24.858 C 15.093 6.018, 14.587 5.869, 16.660 8.314 M 26.059 14.650 C 27.466 16.327, 33.541 23.198, 39.559 29.920 C 51.073 42.781, 50.647 42.459, 78.601 59.405 L 89.701 66.135 95.299 60.317 L 100.897 54.500 89.698 52.825 C 83.539 51.903, 77.938 51.116, 77.250 51.075 C 74.689 50.922, 76.116 48.119, 79.250 47.147 C 81.037 46.593, 87.833 44.503, 94.351 42.504 C 100.869 40.504, 106.044 38.729, 105.851 38.558 C 105.658 38.388, 87.725 32.506, 66 25.487 C 44.275 18.468, 25.825 12.473, 25 12.164 C 24.131 11.838, 24.576 12.884, 26.059 14.650 M 96.643 19.287 C 101.988 28.357, 109.388 38.065, 110.600 37.600 C 111.394 37.295, 116.872 35.643, 122.772 33.927 C 128.672 32.212, 133.642 30.672, 133.816 30.505 C 133.990 30.338, 127.465 28.068, 119.316 25.460 C 95.476 17.830, 95.843 17.930, 96.643 19.287 M 143.496 41.027 C 142.520 47.092, 141.961 52.295, 142.254 52.588 C 142.548 52.881, 148.771 50.123, 156.083 46.458 L 169.379 39.796 157.555 34.898 C 151.051 32.204, 145.627 30, 145.500 30 C 145.373 30, 144.471 34.962, 143.496 41.027 M 112.346 39.849 C 96.861 44.607, 84.359 48.770, 84.563 49.101 C 84.766 49.431, 89.673 50.263, 95.467 50.949 C 101.260 51.636, 106 52.503, 106 52.876 C 106 53.249, 102.857 56.673, 99.015 60.485 L 92.030 67.417 95.072 69.343 C 97.505 70.883, 98.587 71.054, 100.473 70.194 C 102.403 69.315, 105.117 69.876, 115.416 73.285 C 122.766 75.719, 128 77.981, 128 78.726 C 128 80.350, 128.926 80.448, 112.125 77.048 L 97.750 74.138 88.125 77.843 L 78.500 81.548 78.199 86.742 C 77.925 91.465, 78.107 91.982, 80.199 92.444 C 85.122 93.529, 122.687 102.973, 125.934 103.942 C 127.822 104.505, 129.533 104.801, 129.734 104.599 C 130.090 104.243, 137.611 60.019, 137.829 57 C 137.889 56.175, 138.848 50.550, 139.960 44.500 C 142.207 32.280, 142.334 30.956, 141.250 31.099 C 140.838 31.154, 127.831 35.091, 112.346 39.849 M 87.059 72.653 C 85.911 74.112, 85.123 75.457, 85.309 75.642 C 85.494 75.827, 87.524 75.241, 89.820 74.339 C 93.134 73.037, 93.764 72.421, 92.875 71.349 C 91.182 69.309, 89.369 69.715, 87.059 72.653 M 25.322 83.320 C 25.588 83.969, 28.623 91.629, 32.066 100.342 L 38.328 116.184 30.164 145.456 C 25.674 161.555, 22 175.043, 22 175.429 C 22 175.815, 29.626 170.926, 38.947 164.565 C 48.267 158.204, 56.193 153, 56.559 153 C 56.925 153, 69.096 160.425, 83.605 169.500 C 98.114 178.575, 110.551 186, 111.242 186 C 111.934 186, 128.023 182.015, 146.996 177.145 L 181.493 168.291 174.996 167.180 C 151.029 163.079, 131.125 160.742, 100.500 158.435 C 81.250 156.985, 65.192 155.506, 64.816 155.149 C 64.230 154.593, 52.800 98.091, 51.839 91 C 51.538 88.782, 50.653 88.296, 44 86.697 C 25.190 82.174, 24.827 82.109, 25.322 83.320 M 68.750 85.412 C 65.588 86.554, 63 87.735, 63 88.037 C 63 88.702, 74.201 91.132, 74.748 90.586 C 74.959 90.374, 74.990 88.656, 74.816 86.769 L 74.500 83.337 68.750 85.412 M 55.391 91.424 C 54.817 92.918, 65.790 150.987, 66.875 152.199 C 67.219 152.583, 69.463 153.211, 71.861 153.594 L 76.222 154.291 75.860 124.727 C 75.660 108.467, 75.215 94.881, 74.870 94.537 C 74.246 93.913, 58.751 90, 56.905 90 C 56.373 90, 55.691 90.641, 55.391 91.424 M 123.823 114.750 C 117.116 123.372, 117.035 123.966, 123.291 118.629 C 127.271 115.232, 129 113.037, 129 111.379 C 129 110.070, 128.841 109, 128.648 109 C 128.454 109, 126.282 111.588, 123.823 114.750" stroke="none" fill="black" fill-rule="evenodd"/>
</svg>