<svg xmlns="http://www.w3.org/2000/svg" width="200" height="200" viewBox="0 0 200 200" version="1.1">
	<path d="M 38.136 9.423 C 37.662 11.115, 33.330 25.625, 28.510 41.668 L 19.746 70.835 25.253 78.668 C 29.095 84.132, 31.370 88.662, 32.775 93.651 L 34.790 100.802 27.408 124.651 C 23.348 137.768, 20.020 149.100, 20.013 149.833 C 20.006 150.567, 20.557 150.981, 21.238 150.754 C 22.269 150.410, 27.993 138.021, 36.602 117.500 L 38.281 113.500 39.565 118.361 C 40.787 122.986, 40.533 124.703, 34.338 153.691 C 30.756 170.449, 28.049 184.383, 28.322 184.655 C 28.803 185.136, 88.821 153.314, 92.484 150.635 C 94.192 149.386, 93.919 148.785, 88.287 141.400 L 82.263 133.500 79.131 117.529 C 76.150 102.333, 76.083 101.476, 77.749 99.879 C 78.712 98.955, 84.225 94.095, 90 89.080 C 98.870 81.376, 100.616 80.235, 101.244 81.730 C 101.653 82.704, 104.687 95.425, 107.986 110 C 111.284 124.575, 114.202 137.438, 114.469 138.583 C 114.861 140.266, 110.531 144.787, 91.993 162.050 C 76.748 176.247, 69.367 183.767, 70.028 184.428 C 70.689 185.089, 81.857 181.045, 103.262 172.393 L 135.500 159.362 160.231 165.555 C 173.833 168.962, 184.672 171.242, 184.316 170.624 C 183.961 170.006, 176.540 158.925, 167.825 146 L 151.981 122.500 166.938 85.155 L 181.894 47.809 173.269 34.155 C 157.631 9.397, 157.868 9.732, 156.780 10.820 C 156.079 11.521, 156.447 12.819, 157.945 14.923 C 159.680 17.359, 159.823 18, 158.631 18 C 157.101 18, 46.787 7.328, 41.749 6.693 C 39.409 6.398, 38.870 6.805, 38.136 9.423 M 39.727 13.822 C 38.967 16.395, 34.833 30.237, 30.540 44.582 L 22.734 70.665 27.903 77.771 C 30.746 81.680, 33.761 87.200, 34.604 90.037 C 35.447 92.875, 36.271 95.040, 36.437 94.849 C 37.017 94.176, 50 50.992, 50 49.735 C 50 49.036, 48.875 46.809, 47.500 44.785 C 46.125 42.762, 45 40.885, 45 40.614 C 45 40.343, 46.847 40.207, 49.104 40.311 L 53.207 40.500 57.273 27.250 C 59.510 19.962, 61.623 14, 61.970 14 C 62.317 14, 63.585 16.025, 64.788 18.500 C 66.795 22.632, 67.282 23.003, 70.737 23.041 C 80.294 23.145, 155.045 28.711, 155.701 29.368 C 157.441 31.108, 152.471 31.761, 128.192 32.984 C 114.061 33.695, 101.691 34.571, 100.701 34.929 C 99.590 35.331, 110.218 38.767, 128.500 43.916 C 146.912 49.101, 157.985 52.684, 157.799 53.395 C 157.073 56.173, 122.561 121.201, 122.240 120.397 C 122.042 119.904, 118.404 109.857, 114.155 98.071 C 107.051 78.368, 104 72.345, 104 78.023 C 104 79.692, 113.947 124.752, 117.517 139.256 C 117.985 141.156, 114.940 144.411, 97.641 160.500 C 86.406 170.950, 77.293 179.590, 77.390 179.700 C 77.487 179.810, 90.261 174.748, 105.777 168.450 C 121.292 162.153, 134.875 157, 135.961 157 C 137.047 157, 146.770 159.280, 157.567 162.068 C 168.364 164.855, 177.427 166.907, 177.706 166.628 C 177.985 166.348, 171.633 156.413, 163.591 144.550 L 148.969 122.980 163.860 85.487 L 178.751 47.994 170.263 34.497 C 165.594 27.074, 161.255 21, 160.621 21 C 158.881 21, 47.986 10.136, 44.304 9.604 C 41.245 9.163, 41.049 9.344, 39.727 13.822 M 59.170 30.402 C 57.426 36.123, 56 41.021, 56 41.286 C 56 41.550, 57.097 41.977, 58.438 42.233 C 60.591 42.644, 60.935 42.279, 61.389 39.099 C 62.266 32.960, 63.192 20, 62.755 20 C 62.526 20, 60.913 24.681, 59.170 30.402 M 64.668 34.155 C 64.319 38.672, 64.231 42.564, 64.471 42.804 C 65.117 43.450, 74.267 45.066, 74.720 44.614 C 74.933 44.400, 72.901 40.112, 70.204 35.084 L 65.301 25.942 64.668 34.155 M 69 26.565 C 69 26.876, 71.253 31.309, 74.007 36.418 L 79.014 45.706 108.435 50.565 C 124.616 53.238, 137.669 55.727, 137.440 56.097 C 137.212 56.466, 132.632 58.645, 127.263 60.939 C 121.223 63.518, 115.702 66.709, 112.787 69.304 L 108.074 73.500 114.544 91.500 C 118.103 101.400, 121.490 110.597, 122.071 111.937 C 123.033 114.157, 124.511 111.724, 138.663 84.620 C 147.208 68.255, 153.940 54.607, 153.624 54.291 C 153.308 53.975, 138.531 49.610, 120.785 44.592 C 81.176 33.391, 80.178 32.608, 104.204 31.595 C 130.081 30.504, 130.041 29.778, 104 27.868 C 78.889 26.025, 69 25.657, 69 26.565 M 50.500 45 C 50.840 45.550, 51.316 46, 51.559 46 C 51.802 46, 52 45.550, 52 45 C 52 44.450, 51.523 44, 50.941 44 C 50.359 44, 50.160 44.450, 50.500 45 M 54.667 45.667 C 53.238 47.095, 54.138 50.695, 57 55 C 59.744 59.128, 59.992 59.284, 59.996 56.890 C 59.998 55.454, 60.286 52.191, 60.636 49.640 C 61.269 45.019, 61.260 45, 58.303 45 C 56.669 45, 55.033 45.300, 54.667 45.667 M 63.644 48.199 C 63.305 49.465, 62.995 52.525, 62.956 55 C 62.917 57.475, 62.569 61.281, 62.182 63.457 L 61.480 67.415 57.106 60.175 C 54.700 56.193, 52.607 53.062, 52.455 53.218 C 51.636 54.055, 38 99.821, 38 101.732 C 38 105.725, 39.424 104.178, 42.378 96.977 C 43.960 93.118, 45.577 89.762, 45.970 89.519 C 46.363 89.276, 50.105 93.589, 54.286 99.104 L 61.887 109.132 62.895 105.316 C 63.449 103.217, 64.653 98.125, 65.571 94 C 67.593 84.913, 67.587 84.924, 75.944 73.590 C 79.630 68.590, 82.966 63.956, 83.356 63.291 C 83.747 62.627, 82.498 58.968, 80.581 55.162 C 77.373 48.790, 76.795 48.189, 73.298 47.586 C 71.209 47.226, 68.321 46.699, 66.880 46.415 C 64.768 45.998, 64.140 46.345, 63.644 48.199 M 81.018 49.750 C 81.028 50.163, 82.378 52.934, 84.018 55.910 C 85.658 58.885, 87 61.748, 87 62.272 C 87 62.796, 83.299 68.236, 78.775 74.362 C 70.840 85.107, 70.454 85.888, 67.804 96.500 C 66.294 102.550, 65.045 108.441, 65.029 109.591 C 65.013 110.741, 67.925 115.425, 71.500 120 C 75.075 124.575, 78 127.633, 78 126.796 C 78 125.960, 76.869 119.720, 75.486 112.930 C 73.087 101.152, 73.052 100.509, 74.736 98.953 C 75.706 98.056, 81.705 92.777, 88.067 87.221 L 99.633 77.121 99.186 65.434 C 98.649 51.414, 99.905 50.558, 104.126 62.067 C 107.116 70.220, 107.763 70.523, 112.500 65.988 C 114.150 64.409, 118.425 61.791, 122 60.171 C 126.045 58.338, 127.934 57.019, 127 56.680 C 125.557 56.156, 83.284 48.972, 81.750 48.991 C 81.338 48.996, 81.008 49.337, 81.018 49.750 M 101.598 68.500 C 102.266 74.171, 102.597 74.803, 104.104 73.296 C 104.864 72.536, 104.571 70.963, 103.091 67.863 L 101.008 63.500 101.598 68.500 M 43.246 101.772 L 39.993 109.518 41.854 116.228 L 43.714 122.939 37.734 151.012 C 34.444 166.453, 31.970 179.303, 32.236 179.569 C 32.641 179.975, 71.944 159.247, 85.760 151.342 C 90.715 148.507, 90.575 147.746, 83.821 140.762 C 81.554 138.418, 72.323 126.938, 63.307 115.250 C 54.291 103.563, 46.821 94.006, 46.707 94.013 C 46.593 94.020, 45.036 97.512, 43.246 101.772 M 35.816 107.549 C 34.709 109.463, 31.809 119.142, 32.219 119.553 C 32.909 120.242, 37.214 109.142, 36.772 107.816 C 36.544 107.133, 36.125 107.016, 35.816 107.549" stroke="none" fill="black" fill-rule="evenodd"/>
</svg>