<svg xmlns="http://www.w3.org/2000/svg" width="200" height="200" viewBox="0 0 200 200" version="1.1">
	<path d="M 133.500 19.632 C 116.227 25.435, 117.481 24.881, 118.749 26.149 C 119.528 26.928, 122.816 26.234, 130.417 23.689 C 136.237 21.740, 141 20.262, 141 20.406 C 141 21.195, 112.959 46, 112.067 46 C 111.480 46, 111 46.418, 111 46.928 C 111 47.439, 103.013 55.141, 93.250 64.044 C 56.402 97.649, 55.817 98.217, 56.940 99.340 C 57.708 100.108, 59.518 98.992, 63.258 95.445 C 66.141 92.710, 70.115 88.998, 72.090 87.196 L 75.680 83.918 97.057 87.510 C 108.815 89.485, 118.551 91.218, 118.694 91.361 C 118.837 91.504, 105.914 96.062, 89.977 101.491 C 71.631 107.739, 61 111.845, 61 112.680 C 61 114.340, 61.393 114.324, 67.500 112.418 C 71.752 111.091, 76.366 110.962, 98.344 111.550 C 112.558 111.930, 126.438 112.525, 129.189 112.871 L 134.189 113.500 132.046 116.219 L 129.903 118.938 132.063 138.219 C 133.250 148.824, 134.377 157.668, 134.568 157.874 C 136.339 159.785, 138.383 153.563, 145 126.119 C 149.125 109.011, 152.737 95.011, 153.026 95.007 C 153.315 95.003, 155.934 98.183, 158.845 102.073 L 164.138 109.146 162.668 131.140 C 161.860 143.237, 160.992 153.342, 160.739 153.594 C 160.486 153.847, 147.984 156.878, 132.956 160.329 C 117.927 163.781, 105.473 167.082, 105.278 167.665 C 104.737 169.290, 111.014 169.965, 128 170.111 C 136.525 170.184, 149.722 170.527, 157.327 170.872 L 171.153 171.500 158.391 176.818 L 145.629 182.135 94.064 181.021 C 65.704 180.407, 41.375 179.814, 40 179.703 C 38.625 179.591, 47.400 177.544, 59.500 175.154 C 91.252 168.881, 95 167.965, 95 166.472 C 95 165.738, 93.132 164.768, 90.750 164.265 C 51.746 156.031, 40 153.410, 40 152.941 C 40 152.631, 51.716 150.856, 66.036 148.995 C 100.720 144.489, 100.638 144.092, 63.744 137.952 C 48.486 135.413, 35.766 133.100, 35.477 132.811 C 35.022 132.355, 41.342 79.051, 42.520 73.412 C 42.916 71.518, 44.470 71.111, 59.228 69.032 C 77.264 66.491, 78 66.316, 78 64.549 C 78 63.662, 71.856 62.788, 56.250 61.456 L 34.500 59.598 61.965 55.751 C 77.070 53.635, 89.640 51.693, 89.898 51.435 C 91.400 49.934, 85.994 48.751, 64.287 45.832 C 50.978 44.043, 40.211 42.456, 40.361 42.305 C 40.512 42.155, 53.429 39.995, 69.067 37.506 C 103.951 31.952, 102.995 32.149, 102.414 30.636 C 102.059 29.711, 93.073 30.834, 66.221 35.159 C 46.574 38.323, 30.163 40.932, 29.750 40.956 C 29.337 40.980, 29 41.629, 29 42.397 C 29 43.387, 31.401 44.127, 37.250 44.939 C 41.788 45.569, 52.925 47.099, 62 48.338 L 78.500 50.592 55 53.830 C 42.075 55.610, 29.138 57.339, 26.250 57.673 C 22.826 58.068, 21 58.745, 21 59.620 C 21 61.398, 22.325 61.615, 44.426 63.449 C 54.836 64.312, 63.500 65.166, 63.679 65.346 C 63.859 65.526, 58.757 66.420, 52.341 67.332 C 45.924 68.245, 40.564 69.106, 40.428 69.246 C 40.166 69.515, 32 132.789, 32 134.549 C 32 135.121, 42.741 137.335, 56.083 139.514 C 70.738 141.907, 79.449 143.732, 78.333 144.175 C 76.839 144.769, 32.315 151.030, 29.750 151.007 C 28.207 150.993, 29.069 153.885, 30.750 154.360 C 31.713 154.632, 44.650 157.411, 59.500 160.535 C 74.350 163.659, 86.624 166.328, 86.775 166.466 C 86.926 166.604, 72.639 169.584, 55.025 173.088 C 34.948 177.083, 23 179.895, 23 180.626 C 23 182.079, 35.648 182.632, 98.846 183.945 L 146.192 184.928 161.846 178.366 C 170.456 174.758, 177.911 171.416, 178.413 170.940 C 180.410 169.046, 173.129 167.994, 157.185 167.873 C 148.008 167.803, 135.550 167.465, 129.500 167.123 L 118.500 166.500 140.272 161.545 C 152.246 158.821, 162.441 156.345, 162.927 156.045 C 163.413 155.745, 164.520 144.963, 165.387 132.087 L 166.964 108.674 161.232 100.805 C 158.079 96.476, 155.093 92.339, 154.596 91.611 C 154.012 90.757, 155.196 84.252, 157.931 73.276 L 162.171 56.265 166.043 55.105 C 170.368 53.810, 170.607 51, 166.393 51 C 163.451 51, 163.409 49.908, 165.972 40.038 C 167.038 35.934, 167.795 32.461, 167.654 32.321 C 167.514 32.180, 156.862 34.728, 143.983 37.983 C 131.104 41.238, 120.451 43.784, 120.308 43.641 C 120.165 43.499, 126.338 37.639, 134.024 30.620 C 152.541 13.711, 152.519 13.243, 133.500 19.632 M 141.747 41.248 C 130.882 44.041, 122.187 46.520, 122.423 46.756 C 122.915 47.248, 151.666 49.904, 157.128 49.962 L 160.757 50 162.378 43.544 C 163.270 39.994, 164 36.844, 164 36.544 C 164 35.615, 162.078 36.021, 141.747 41.248 M 102 59.720 C 95.675 65.575, 87.861 72.782, 84.636 75.736 C 81.411 78.689, 78.936 81.267, 79.136 81.463 C 79.851 82.167, 123.147 89, 126.887 89 C 133.193 89, 138.998 91.685, 136.250 93.331 C 135.838 93.578, 133.252 93.434, 130.506 93.012 C 125.896 92.302, 123.779 92.840, 103.034 99.987 L 80.558 107.731 91.029 108.349 C 96.788 108.689, 110.159 109.257, 120.742 109.611 L 139.984 110.255 136.377 115.168 L 132.770 120.081 134.464 134.286 C 135.396 142.099, 136.256 148.590, 136.376 148.710 C 136.496 148.829, 139.762 135.896, 143.633 119.969 L 150.671 91.011 142.773 80.255 C 135.508 70.363, 134.926 69.219, 135.526 66 C 135.885 64.075, 136.251 62.466, 136.339 62.424 C 136.428 62.382, 141.450 60.642, 147.500 58.557 C 158.541 54.752, 162.034 53, 158.579 53 C 156.651 53, 125.630 50.365, 118 49.554 L 113.500 49.075 102 59.720 M 147.500 61.472 C 140.334 64.090, 138.434 65.200, 138.176 66.916 C 137.799 69.422, 151.145 88.065, 151.835 85.996 C 154.120 79.140, 158.484 58.018, 157.600 58.092 C 156.995 58.142, 152.450 59.663, 147.500 61.472" stroke="none" fill="black" fill-rule="evenodd"/>
</svg>