<svg xmlns="http://www.w3.org/2000/svg" width="200" height="200" viewBox="0 0 200 200" version="1.1">
	<path d="M 124 26.625 C 101.690 33.993, 98.876 34.384, 95.852 30.539 L 93.759 27.878 91.535 29.967 C 90.312 31.116, 88.678 31.835, 87.905 31.565 C 85.765 30.816, 45.866 24.795, 45.536 25.171 C 45.378 25.352, 42.267 33.067, 38.624 42.315 L 32 59.129 32 89.065 C 32 105.529, 32.171 119, 32.381 119 C 33.042 119, 66.446 111.922, 67.622 111.532 C 68.276 111.316, 70.328 115.826, 72.535 122.330 C 74.619 128.474, 76.524 134.063, 76.769 134.750 C 77.118 135.729, 71.563 136, 51.107 136 C 28.567 136, 25 136.205, 25 137.500 C 25 138.325, 25.337 138.993, 25.750 138.985 C 27.567 138.948, 86.545 146.369, 86.934 146.683 C 87.957 147.511, 69.477 173.248, 67.252 174.094 C 65.942 174.592, 56.868 175, 47.089 175 C 24.429 175, 11 175.918, 11 177.467 C 11 178.291, 19.603 179.143, 40.250 180.363 C 66.235 181.898, 75.525 181.968, 123.477 180.985 C 153.164 180.377, 177.540 179.794, 177.644 179.689 C 177.749 179.584, 174.022 175.555, 169.363 170.736 L 160.890 161.973 139.195 165.987 C 127.263 168.194, 116.150 170.284, 114.500 170.630 C 111.124 171.339, 110.112 172.605, 129.676 151.654 L 137.937 142.808 153.219 137.046 C 162.347 133.603, 168.500 130.749, 168.500 129.957 C 168.500 128.434, 166.606 128.462, 135.100 130.459 C 123.770 131.178, 114.423 131.704, 114.330 131.629 C 114.236 131.554, 118.424 127.108, 123.637 121.749 L 133.116 112.005 149.619 108.608 C 158.696 106.739, 166.258 105.051, 166.424 104.855 C 166.590 104.660, 166.992 88.785, 167.318 69.579 L 167.910 34.657 162.205 40.068 C 159.067 43.044, 150.525 51.333, 143.223 58.489 C 133.771 67.751, 129.713 71.127, 129.137 70.207 C 128.693 69.496, 126.384 62.296, 124.006 54.207 C 121.628 46.118, 119.368 39.136, 118.983 38.692 C 118.598 38.247, 116.823 40.160, 115.037 42.942 C 113.252 45.724, 111.430 48, 110.989 48 C 109.953 48, 102 38.519, 102 37.285 C 102 36.769, 112.463 34.402, 125.250 32.025 C 138.037 29.649, 148.920 27.328, 149.433 26.869 C 151.626 24.906, 148.364 24.734, 139.864 26.364 C 134.864 27.322, 130.606 27.939, 130.402 27.735 C 130.198 27.531, 133.624 26.326, 138.015 25.057 C 143.004 23.615, 146 22.234, 146 21.375 C 146 20.619, 145.438 20.042, 144.750 20.093 C 144.063 20.143, 134.725 23.083, 124 26.625 M 41.075 43.552 L 35 59.104 35 87.378 L 35 115.653 52.735 111.895 C 62.490 109.828, 70.519 108.219, 70.579 108.319 C 71.798 110.352, 80.697 137.969, 80.271 138.396 C 79.939 138.728, 73.554 139.056, 66.083 139.125 L 52.500 139.251 72 141.722 C 82.725 143.082, 91.656 144.344, 91.847 144.527 C 92.037 144.710, 87.312 152.074, 81.347 160.891 L 70.500 176.922 63.309 176.961 C 58.999 176.984, 55.833 177.462, 55.406 178.153 C 54.869 179.021, 67.025 179.138, 104.597 178.629 C 132.043 178.257, 158.204 177.677, 162.731 177.340 L 170.962 176.728 165.805 170.774 C 161.099 165.343, 160.377 164.875, 157.573 165.438 C 141.064 168.751, 105.592 174.925, 105.217 174.550 C 104.954 174.287, 111.877 166.518, 120.602 157.286 L 136.465 140.500 147.482 136.307 C 160.312 131.425, 160.841 131.513, 130.537 133.481 C 118.458 134.266, 108.388 134.721, 108.160 134.493 C 107.932 134.266, 113.204 128.512, 119.875 121.708 L 132.005 109.337 147.725 106.112 C 156.371 104.339, 163.534 102.799, 163.642 102.691 C 163.751 102.583, 164.169 88.550, 164.573 71.508 L 165.307 40.521 146.261 59.010 L 127.215 77.498 126.065 91.999 C 124.231 115.109, 124.967 115.213, 113.609 90.244 C 108.169 78.285, 103.405 68.146, 103.022 67.713 C 102.639 67.280, 98.776 72.289, 94.437 78.843 L 86.549 90.761 73.025 96.504 C 65.586 99.663, 58.938 102.465, 58.250 102.731 C 57.563 102.997, 57 102.531, 57 101.696 C 57 99.991, 100.678 60, 102.541 60 C 103.650 60, 109 52.860, 109 51.379 C 109 50.841, 105.603 46.549, 98.934 38.663 C 98.545 38.203, 95.762 38.603, 92.751 39.553 C 87.415 41.234, 86.985 41.660, 75.972 56.168 C 66.036 69.257, 62.487 72.896, 62.995 69.475 C 63.074 68.939, 68.757 60.912, 75.624 51.637 C 82.490 42.363, 87.971 34.646, 87.804 34.488 C 87.485 34.188, 49.551 28, 48.028 28 C 47.545 28, 44.416 34.998, 41.075 43.552 M 90.500 36 C 89.762 37.194, 91.722 37.194, 94.500 36 C 96.286 35.233, 96.212 35.133, 93.809 35.070 C 92.329 35.032, 90.840 35.450, 90.500 36 M 115.191 47.589 C 112.627 51.545, 112.300 50.640, 119.402 59.255 C 121.558 61.871, 123.457 63.877, 123.621 63.713 C 123.920 63.413, 118.086 43.989, 117.704 44.012 C 117.592 44.019, 116.461 45.628, 115.191 47.589 M 108.048 58.430 C 106.372 60.867, 105 63.303, 105 63.844 C 105 65.587, 121.408 100.925, 121.964 100.377 C 122.259 100.086, 122.985 94.491, 123.577 87.944 C 124.397 78.892, 125.093 75.555, 126.482 74.020 C 127.488 72.909, 127.830 72, 127.243 72 C 126.656 72, 122.897 67.950, 118.890 63 C 114.884 58.050, 111.491 54, 111.351 54 C 111.211 54, 109.724 55.994, 108.048 58.430 M 89.480 74.287 C 83.969 79.354, 76.094 86.551, 71.980 90.280 L 64.500 97.059 72.724 93.578 C 77.248 91.664, 81.861 89.609, 82.976 89.013 C 84.912 87.977, 101.128 64.879, 99.809 65.037 C 99.639 65.057, 94.991 69.220, 89.480 74.287" stroke="none" fill="black" fill-rule="evenodd"/>
</svg>