<svg xmlns="http://www.w3.org/2000/svg" width="200" height="200" viewBox="0 0 200 200" version="1.1">
	<path d="M 75 25.712 L 67.500 49.417 44.579 72.738 C 29.482 88.099, 21.996 96.396, 22.647 97.047 C 23.298 97.698, 27.219 96.689, 34.136 94.091 L 44.636 90.147 56.204 93.725 L 67.772 97.304 64.914 103.346 C 63.342 106.670, 61.481 109.689, 60.778 110.054 C 60.075 110.420, 51.769 112.628, 42.320 114.961 C 28.415 118.393, 25.251 119.490, 25.721 120.714 C 26.160 121.858, 27.368 122.106, 30.688 121.732 C 34.756 121.273, 35.616 121.633, 42.537 126.687 C 46.642 129.685, 50 132.788, 50 133.584 C 50 134.380, 47.297 140.424, 43.992 147.015 C 40.688 153.607, 38.408 159, 38.926 159 C 42.037 159, 78.030 149.643, 77.341 149.014 C 76.878 148.592, 71.455 144.566, 65.290 140.068 L 54.080 131.889 56.290 127.334 L 58.500 122.778 66.737 123.209 C 71.267 123.446, 75.242 123.909, 75.570 124.237 C 76.376 125.042, 85.965 169.368, 85.446 169.887 C 85.117 170.216, 32.454 177.858, 29.750 177.969 C 29.337 177.986, 29 178.621, 29 179.381 C 29 182.451, 49.631 183.506, 107.146 183.377 C 162.934 183.252, 177.400 182.701, 176.743 180.728 C 176.304 179.413, 158.026 173.142, 141.500 168.637 C 134.900 166.838, 129.600 165.044, 129.723 164.651 C 129.846 164.257, 138.283 156.946, 148.473 148.403 C 165.606 134.038, 168.666 131, 165.997 131 C 165.446 131, 156.148 138.425, 145.335 147.500 C 134.522 156.575, 125.017 164, 124.213 164 C 123.151 164, 122.900 163.245, 123.295 161.250 C 123.595 159.737, 125.078 151.525, 126.591 143 C 128.103 134.475, 129.420 127.382, 129.517 127.237 C 129.614 127.092, 131.323 127.655, 133.314 128.487 C 137.739 130.335, 138 130.345, 138 128.652 C 138 127.910, 136.200 126.596, 134 125.732 C 129.847 124.101, 128.705 121.510, 131.750 120.628 C 132.713 120.349, 142.275 118.267, 153 116 C 176.743 110.982, 176 111.195, 176 109.421 C 176 108.332, 175.078 108.096, 172.250 108.464 C 170.188 108.733, 159.950 109.426, 149.500 110.006 C 139.050 110.585, 128.700 111.282, 126.500 111.553 C 122.530 112.043, 122.488 112.013, 120.877 107.533 L 119.255 103.019 126.809 93.398 C 133.295 85.139, 134.531 84.006, 135.542 85.389 C 136.190 86.275, 137.571 87.010, 138.610 87.022 C 143.703 87.083, 195.903 80.508, 195.251 79.889 C 194.838 79.496, 182.863 73.628, 168.640 66.850 L 142.780 54.525 127.736 38.012 C 119.462 28.931, 111.436 20.183, 109.900 18.573 L 107.107 15.646 101.877 26.883 C 98.664 33.785, 96.377 37.614, 95.948 36.810 C 95.564 36.089, 92.606 27.964, 89.375 18.753 C 86.144 9.543, 83.275 2.007, 83 2.007 C 82.725 2.007, 79.125 12.674, 75 25.712 M 82.801 10.591 C 82.518 11.091, 79.458 20.341, 75.999 31.146 L 69.711 50.791 49.106 72.088 C 37.773 83.801, 29.400 93.035, 30.500 92.608 C 31.600 92.182, 35.216 90.802, 38.536 89.542 L 44.572 87.251 56.823 91.025 L 69.073 94.799 72.102 88.798 C 73.768 85.498, 74.944 82.610, 74.715 82.382 C 74.486 82.153, 71.656 81.635, 68.427 81.232 L 62.555 80.498 75.646 66.999 C 85.100 57.252, 89.557 51.833, 91.685 47.500 L 94.633 41.500 88.974 25.591 C 85.861 16.842, 83.083 10.092, 82.801 10.591 M 102.723 31.298 C 100.096 36.909, 97.958 41.935, 97.973 42.466 C 97.988 42.997, 100.425 41.037, 103.390 38.109 L 108.779 32.787 112.198 38.643 C 114.078 41.864, 120.032 52.263, 125.429 61.750 C 130.826 71.237, 135.637 79, 136.121 79 C 136.604 79, 137 79.914, 137 81.031 C 137 82.149, 137.714 83.337, 138.587 83.672 C 139.906 84.178, 185.943 79.436, 186.584 78.728 C 186.698 78.603, 176.443 73.552, 163.796 67.505 L 140.801 56.510 124.667 38.755 C 115.793 28.990, 108.300 21.022, 108.016 21.048 C 107.732 21.075, 105.350 25.687, 102.723 31.298 M 103.294 42.250 L 99.171 46.500 105.335 63.836 L 111.500 81.173 121.500 80.475 C 127 80.091, 131.658 79.631, 131.851 79.454 C 132.367 78.980, 108.871 38, 108.084 38 C 107.717 38, 105.561 39.913, 103.294 42.250 M 94.291 51.237 C 92.252 53.453, 80 77.120, 80 78.843 C 80 79.955, 103.366 82.336, 106.017 81.494 C 107.108 81.148, 108 80.523, 108 80.105 C 108 78.815, 97.839 50.548, 97.084 49.737 C 96.693 49.317, 95.436 49.992, 94.291 51.237 M 76.727 69.772 C 72.477 74.047, 69 77.872, 69 78.272 C 69 78.672, 70.700 79, 72.777 79 C 76.520 79, 76.593 78.922, 80.770 70.500 C 83.088 65.825, 84.866 62, 84.719 62 C 84.573 62, 80.976 65.497, 76.727 69.772 M 75.217 88.514 C 73.448 92.102, 72 95.184, 72 95.363 C 72 95.542, 77.676 97.428, 84.613 99.554 C 93.778 102.363, 96.717 103.630, 95.363 104.189 C 94.338 104.612, 86.975 106.565, 79 108.530 C 65.355 111.890, 62.004 113.449, 61.998 116.441 C 61.996 117.122, 64.696 117.382, 69.570 117.168 C 76.544 116.863, 77.188 117.002, 77.689 118.918 C 78.092 120.458, 79.049 121.009, 81.367 121.033 C 83.090 121.051, 93.031 121.482, 103.458 121.991 C 113.885 122.500, 122.593 122.741, 122.808 122.525 C 123.023 122.310, 122.676 120.548, 122.036 118.610 L 120.873 115.085 113.873 114.793 L 106.873 114.500 111.477 108.577 C 114.010 105.320, 115.904 102.170, 115.687 101.577 C 115.471 100.985, 114.069 96.799, 112.573 92.276 L 109.853 84.052 103.067 84.115 C 96.752 84.174, 88.679 83.553, 81.467 82.453 C 78.593 82.015, 78.265 82.333, 75.217 88.514 M 115.250 83.706 C 114.013 83.944, 113 84.374, 113 84.662 C 113 84.950, 114.183 88.516, 115.628 92.588 L 118.256 99.990 124.628 91.836 C 128.133 87.352, 131 83.529, 131 83.341 C 131 82.871, 118.023 83.172, 115.250 83.706 M 68.076 103.046 C 66.858 105.877, 66.019 108.352, 66.213 108.546 C 66.580 108.913, 86.238 104.095, 86.844 103.489 C 87.035 103.298, 83.941 102.174, 79.968 100.991 C 75.995 99.807, 72.193 98.627, 71.518 98.368 C 70.784 98.087, 69.400 99.967, 68.076 103.046 M 115.220 108.266 C 112.288 111.387, 112.416 112, 116 112 C 119.047 112, 119.494 111.107, 118.150 107.701 C 117.495 106.042, 117.268 106.086, 115.220 108.266 M 51 115.562 L 42.500 117.809 50.215 117.904 C 57.065 117.989, 58.055 117.766, 59.046 115.914 C 59.660 114.767, 60.013 113.713, 59.831 113.572 C 59.649 113.431, 55.675 114.326, 51 115.562 M 131.250 113.743 C 123.435 114.115, 122.942 114.585, 125.193 119.523 C 126.364 122.095, 126.413 122.106, 127.943 120.162 C 129.053 118.751, 132.799 117.465, 141 115.679 L 152.500 113.175 145.500 113.286 C 141.650 113.347, 135.238 113.553, 131.250 113.743 M 68.264 120.718 C 69.784 120.947, 72.034 120.941, 73.264 120.704 C 74.494 120.467, 73.250 120.279, 70.500 120.286 C 67.750 120.294, 66.744 120.488, 68.264 120.718 M 42.455 122.926 C 42.811 123.503, 45.087 125.340, 47.514 127.009 L 51.925 130.045 53.536 126.929 C 54.423 125.216, 55.002 123.691, 54.824 123.540 C 54.646 123.389, 51.644 122.953, 48.154 122.572 C 43.823 122.099, 42.013 122.212, 42.455 122.926 M 79 124.353 C 79 124.637, 81.250 135.233, 84 147.902 C 86.750 160.570, 89 171.313, 89 171.775 C 89 172.237, 79.662 173.869, 68.250 175.401 C 42.322 178.883, 40.771 179.245, 48 180.130 C 54.899 180.973, 134.680 180.972, 153.500 180.128 L 167.500 179.500 157.028 176.122 C 151.268 174.263, 141.956 171.509, 136.335 170.001 L 126.114 167.259 122.807 170.089 C 118.494 173.779, 118.052 173.703, 119.015 169.434 C 119.567 166.984, 119.456 165.742, 118.660 165.466 C 118.022 165.245, 114.173 164.161, 110.108 163.056 C 106.042 161.952, 102.496 160.830, 102.229 160.562 C 101.961 160.294, 106.690 152.521, 112.738 143.288 C 121.604 129.751, 123.421 126.381, 122.117 125.888 C 120.080 125.117, 79 123.655, 79 124.353 M 116.171 142.952 C 111.093 150.782, 106.839 157.661, 106.719 158.239 C 106.598 158.816, 109.524 160.071, 113.220 161.027 C 119.407 162.626, 119.977 162.635, 120.412 161.132 C 121.540 157.233, 126.054 130.661, 125.745 129.736 C 125.558 129.175, 121.250 135.122, 116.171 142.952 M 48 145 C 45.011 150.957, 43.491 154.985, 44.241 154.962 C 44.933 154.941, 51.527 153.478, 58.892 151.711 L 72.285 148.498 63.117 141.749 C 58.075 138.037, 53.740 135, 53.484 135 C 53.228 135, 50.760 139.500, 48 145" stroke="none" fill="black" fill-rule="evenodd"/>
</svg>