<svg xmlns="http://www.w3.org/2000/svg" width="200" height="200" viewBox="0 0 200 200" version="1.1">
	<path d="M 30.500 44.621 C 22.800 63.089, 16.500 78.665, 16.500 79.234 C 16.500 79.803, 19.941 81.578, 24.147 83.179 C 31.306 85.905, 31.836 86.312, 32.445 89.560 C 33.354 94.405, 30.470 99.335, 27.205 98.515 C 25.058 97.977, 24.941 98.169, 25.525 101.280 C 26.028 103.964, 25.525 105.631, 22.972 109.738 C 21.223 112.552, 20.043 115.260, 20.349 115.756 C 21.070 116.922, 33.030 124.314, 33.448 123.851 C 33.622 123.658, 32.731 119.225, 31.467 114.001 C 29.152 104.432, 29.379 102, 32.587 102 C 34.664 102, 35.548 104.539, 38.049 117.680 L 40.367 129.860 34.843 156.180 C 31.804 170.656, 29.595 182.616, 29.933 182.758 C 30.272 182.900, 42.688 177.340, 57.525 170.403 C 72.361 163.466, 86.396 156.960, 88.714 155.946 L 92.928 154.102 105.614 164.051 C 112.592 169.523, 119.020 174.016, 119.900 174.036 C 120.780 174.055, 134.663 175.778, 150.750 177.864 L 180 181.658 180 145.933 C 180 117.714, 180.520 103.096, 182.474 76.354 C 183.835 57.734, 185.073 40.250, 185.224 37.500 L 185.500 32.500 156.500 31.960 L 127.500 31.419 103.013 25.143 L 78.527 18.866 76.842 20.946 C 75.916 22.091, 74.961 23.583, 74.721 24.263 C 74.394 25.190, 73.543 25.074, 71.327 23.803 C 68.408 22.127, 68.348 22.140, 66.767 24.803 C 65.886 26.286, 63.720 29.488, 61.954 31.919 L 58.743 36.337 52.296 23.669 C 48.749 16.701, 45.545 11.010, 45.174 11.022 C 44.803 11.034, 38.200 26.154, 30.500 44.621 M 44.164 19.069 C 43.632 20.467, 37.978 34.027, 31.599 49.201 C 25.219 64.376, 20 77.248, 20 77.805 C 20 78.363, 22.987 79.873, 26.638 81.160 C 31.726 82.953, 33.542 84.122, 34.412 86.164 C 35.503 88.726, 36.034 88.025, 48.277 67.861 C 60.238 48.162, 60.929 46.743, 59.703 44.404 C 58.430 41.973, 58.151 42.282, 47.949 57.417 C 42.202 65.943, 36.889 72.938, 36.143 72.960 C 34.062 73.021, 35.092 71.190, 46.556 54.442 L 57.135 38.986 51.133 27.756 C 45.529 17.271, 45.067 16.695, 44.164 19.069 M 77.535 24.587 C 76.603 26.009, 75.989 27.288, 76.170 27.427 C 86.744 35.555, 103.683 47.773, 114.206 54.864 L 127.913 64.099 142.618 57.044 C 150.706 53.164, 157.517 50.184, 157.755 50.421 C 158.211 50.878, 153.999 83.218, 153.394 83.896 C 153.200 84.114, 148.776 81.479, 143.562 78.041 L 134.082 71.790 124.889 72.145 C 114.498 72.546, 112.605 71.384, 118.972 68.513 C 121.187 67.514, 122.994 66.427, 122.986 66.098 C 122.973 65.546, 100.272 48.500, 99.550 48.500 C 99.374 48.500, 93.778 52.735, 87.115 57.911 C 79.156 64.094, 75 67.976, 75 69.228 C 75 70.580, 74.491 70.980, 73.250 70.603 C 72.203 70.285, 70.119 71.213, 68.061 72.914 L 64.622 75.757 70.847 79.628 C 74.271 81.758, 80.659 85.771, 85.042 88.546 L 93.012 93.593 88.518 99.975 C 86.046 103.485, 84.218 106.551, 84.455 106.789 C 85.018 107.351, 116.262 100.002, 117.272 99.069 C 117.696 98.677, 118.377 96.405, 118.784 94.019 L 119.524 89.682 122.012 93.334 C 123.692 95.801, 125.268 96.989, 126.867 96.993 C 128.896 96.999, 129.160 97.384, 128.718 99.695 C 128.322 101.767, 129.329 104.060, 133.074 109.610 C 138.096 117.052, 137.989 116.984, 147.203 118.568 L 150.906 119.205 155.386 133.352 C 157.851 141.134, 160.171 148.738, 160.542 150.250 C 162.096 156.583, 157.980 152.163, 147.247 135.974 C 135.205 117.810, 136.367 118.850, 127.803 118.571 C 125.709 118.503, 125.415 119.621, 121.510 142.500 C 115.823 175.819, 114.443 173.522, 116.353 133.921 L 117.201 116.342 100.850 113.652 C 91.858 112.173, 83.600 110.985, 82.500 111.013 C 81.182 111.046, 78.880 113.412, 75.747 117.955 L 70.994 124.846 83.516 131.489 C 90.724 135.313, 95.766 138.570, 95.397 139.166 C 94.665 140.351, 93.440 140.153, 75.205 135.904 L 61.910 132.807 64.429 129.504 C 67.398 125.612, 67.495 125.730, 57.125 120.540 C 53.069 118.510, 50.144 116.487, 50.625 116.044 C 51.106 115.601, 56.900 113.992, 63.500 112.469 C 70.100 110.946, 75.050 109.554, 74.500 109.376 C 72.713 108.797, 38.507 103.172, 38.257 103.416 C 38.124 103.546, 39.189 109.517, 40.625 116.686 L 43.235 129.719 38.536 152.110 C 35.952 164.424, 33.602 175.504, 33.315 176.730 C 32.825 178.826, 33.354 178.699, 42.147 174.599 C 47.291 172.200, 60.859 165.888, 72.297 160.573 L 93.095 150.908 106.050 161.001 L 119.005 171.094 146.252 174.539 C 161.239 176.434, 174.585 177.988, 175.911 177.992 L 178.322 178 177.653 145.750 C 177.057 117.020, 177.255 109.789, 179.459 79.500 C 180.820 60.800, 182.169 43.210, 182.457 40.411 L 182.980 35.321 155.240 34.681 L 127.500 34.041 104 28.032 C 91.075 24.726, 80.214 22.017, 79.865 22.011 C 79.516 22.005, 78.467 23.164, 77.535 24.587 M 65.261 31.819 C 59.895 39.572, 60.022 39.238, 61.430 41.869 C 62.642 44.134, 62.844 43.942, 67.342 36.269 C 69.904 31.899, 72 28.074, 72 27.769 C 72 27.464, 71.369 26.972, 70.597 26.676 C 69.697 26.330, 67.782 28.177, 65.261 31.819 M 69.141 38.551 L 64.031 47.101 68.546 56.091 C 71.608 62.189, 73.453 64.847, 74.280 64.354 C 75.734 63.488, 93.923 49.262, 95.825 47.504 C 96.898 46.512, 95.043 44.732, 86.069 38.140 C 79.975 33.663, 74.823 30, 74.620 30 C 74.417 30, 71.952 33.848, 69.141 38.551 M 49.173 71.677 C 37.368 91.203, 36.027 93.883, 36.606 96.781 C 37.044 98.970, 37.946 100.182, 39.378 100.506 C 43.163 101.362, 77.766 107, 79.153 106.988 C 79.894 106.981, 81.625 105.303, 83 103.260 C 84.375 101.217, 86.298 98.350, 87.273 96.890 L 89.047 94.236 81.273 89.421 C 76.998 86.773, 70.426 82.649, 66.669 80.258 L 59.839 75.910 63.669 72.850 C 65.776 71.168, 68.317 69.212, 69.316 68.505 C 71.028 67.293, 70.883 66.723, 66.760 58.519 L 62.388 49.818 49.173 71.677 M 142.763 59.908 C 136.307 62.984, 131.030 65.725, 131.036 66 C 131.051 66.678, 149.777 79, 150.792 79 C 151.488 79, 155.361 54.900, 154.733 54.474 C 154.605 54.387, 149.218 56.833, 142.763 59.908 M 124 69 C 122.835 69.753, 123.128 69.973, 125.309 69.985 C 126.930 69.994, 127.857 69.577, 127.500 69 C 126.733 67.758, 125.921 67.758, 124 69 M 121 104.375 C 121 106.231, 120.719 109.156, 120.375 110.875 C 119.841 113.546, 120.042 114, 121.760 114 C 123.445 114, 123.880 113.115, 124.455 108.517 C 125.186 102.663, 124.740 101, 122.441 101 C 121.471 101, 121 102.103, 121 104.375 M 104 105.462 C 97.125 107.263, 92.175 108.989, 93 109.299 C 95.020 110.058, 113.205 113, 115.874 113 C 117.784 113, 118 112.442, 118 107.500 C 118 104.475, 117.662 102.042, 117.250 102.094 C 116.838 102.146, 110.875 103.662, 104 105.462 M 126.751 110.750 C 126.494 112.813, 126.389 114.632, 126.518 114.793 C 126.647 114.954, 128.453 115.362, 130.532 115.699 L 134.311 116.312 131.107 111.656 C 129.345 109.095, 127.750 107, 127.561 107 C 127.373 107, 127.008 108.688, 126.751 110.750 M 24.700 111.931 C 23.347 114.221, 23.245 115.026, 24.234 115.609 C 24.930 116.020, 26.450 116.961, 27.611 117.702 C 29.697 119.032, 29.710 118.989, 28.728 114.024 C 28.182 111.261, 27.442 109, 27.083 109 C 26.725 109, 25.652 110.319, 24.700 111.931 M 70 113.706 C 66.975 114.478, 62.700 115.583, 60.500 116.161 L 56.500 117.212 62 120.059 C 65.025 121.625, 67.799 122.927, 68.165 122.953 C 68.968 123.010, 76.396 113.034, 75.870 112.604 C 75.666 112.438, 73.025 112.934, 70 113.706 M 119.993 120.750 C 119.989 122.813, 119.775 127.650, 119.517 131.500 L 119.048 138.500 120.479 131 C 123.252 116.474, 123.212 117, 121.545 117 C 120.428 117, 119.998 118.038, 119.993 120.750 M 147.264 130.937 C 151.244 136.921, 154.608 141.713, 154.740 141.586 C 155.421 140.927, 148.720 121.844, 147.699 121.536 C 147.039 121.336, 145.044 120.922, 143.264 120.614 L 140.029 120.056 147.264 130.937 M 67.990 129.019 C 66.767 131.304, 66.324 131.064, 75.972 133.353 C 79.532 134.198, 82.616 134.718, 82.825 134.509 C 83.034 134.299, 80.024 132.526, 76.135 130.568 C 69.241 127.096, 69.039 127.058, 67.990 129.019" stroke="none" fill="black" fill-rule="evenodd"/>
</svg>