<svg xmlns="http://www.w3.org/2000/svg" width="200" height="200" viewBox="0 0 200 200" version="1.1">
	<path d="M 44.672 8.739 C 44.420 9.158, 38.500 23.162, 31.516 39.860 C 22.625 61.121, 19.135 70.535, 19.873 71.273 C 20.610 72.010, 21.214 71.603, 21.888 69.913 C 28.756 52.692, 45.896 12.861, 46.468 12.794 C 46.882 12.746, 57.090 20.085, 69.155 29.103 L 91.090 45.500 83.795 46.232 C 79.783 46.634, 69.075 47.309, 60 47.732 L 43.500 48.500 54.372 54.370 L 65.245 60.240 64.540 76.370 L 63.836 92.500 70.604 86 C 75.214 81.573, 76.574 80.616, 74.871 83 C 73.494 84.925, 68.606 91.787, 64.008 98.250 C 59.409 104.712, 55.377 110, 55.048 110 C 54.719 110, 51.086 106.615, 46.975 102.478 C 41.557 97.025, 39.065 93.659, 37.919 90.244 L 36.338 85.532 26.419 81.764 C 20.964 79.691, 15.873 78.232, 15.107 78.521 C 12.943 79.338, 14.366 80.155, 24.799 84.087 C 32.586 87.022, 34.463 88.114, 34.312 89.622 C 34.209 90.655, 32.250 104.931, 29.959 121.347 C 27.182 141.246, 26.127 151.527, 26.794 152.194 C 27.460 152.860, 29.209 151.245, 32.041 147.347 C 34.376 144.131, 36.632 141.113, 37.054 140.640 C 37.476 140.167, 35.648 150.291, 32.993 163.139 C 30.337 175.986, 28.306 186.640, 28.480 186.813 C 28.748 187.082, 87.678 154.451, 88.951 153.329 C 89.199 153.110, 83.813 147.330, 76.983 140.483 C 67.148 130.624, 64.821 127.779, 65.796 126.804 C 66.772 125.828, 68.806 127.333, 75.575 134.036 C 82.110 140.507, 83.982 141.911, 83.525 140 C 78.138 117.472, 76.238 108.396, 76.808 107.910 C 77.716 107.136, 136.065 97.732, 136.606 98.273 C 136.834 98.501, 132.224 99.959, 126.360 101.514 L 115.700 104.339 109.350 117.703 C 105.857 125.052, 103 131.506, 103 132.044 C 103 133.969, 122.066 195.466, 122.931 196.331 C 123.443 196.843, 124.207 196.432, 124.747 195.357 C 125.260 194.336, 128.556 177.193, 132.072 157.262 C 135.655 136.951, 138.759 121.819, 139.133 122.832 C 139.501 123.826, 140.593 128.433, 141.559 133.070 L 143.316 141.500 157.658 151.292 C 165.546 156.677, 172 160.945, 172 160.776 C 172 160.607, 173.100 146.751, 174.445 129.984 C 175.790 113.218, 177.018 97.482, 177.174 95.017 L 177.458 90.533 162.774 86.517 C 154.698 84.307, 147.667 82.050, 147.149 81.500 C 146.291 80.588, 137.868 53.783, 138.310 53.368 C 138.414 53.270, 143.619 57.891, 149.875 63.636 C 156.132 69.382, 161.684 73.939, 162.214 73.762 C 162.744 73.585, 165.617 68.900, 168.600 63.350 L 174.023 53.260 150.911 32.880 C 138.200 21.671, 127.282 12.320, 126.650 12.100 C 126.017 11.880, 125.257 11.331, 124.960 10.881 C 124.663 10.430, 121.757 14.660, 118.502 20.281 C 108.180 38.105, 89.188 63.413, 77.438 75 L 66.790 85.500 67.447 72 L 68.103 58.500 61.552 55.141 C 57.948 53.293, 55 51.436, 55 51.013 C 55 50.590, 64.675 49.915, 76.500 49.511 C 88.325 49.108, 98 48.430, 98 48.004 C 98 47.423, 62.799 20.731, 46.878 9.239 C 45.917 8.546, 44.925 8.321, 44.672 8.739 M 127.150 17.070 C 127.427 17.856, 129.586 25.054, 131.948 33.065 L 136.244 47.630 148.559 58.815 C 155.332 64.967, 161.095 70, 161.367 70 C 162.040 70, 170 55.499, 170 54.273 C 170 53.395, 133.537 20.603, 128.633 17.070 C 126.912 15.830, 126.715 15.830, 127.150 17.070 M 119.578 25.338 C 117.038 28.898, 112.008 36.916, 108.401 43.156 C 104.280 50.286, 99.496 56.915, 95.525 61 C 90.356 66.317, 79.226 81.233, 59.268 109.588 L 57.094 112.676 61.395 116.897 L 65.696 121.118 69.348 114.987 C 71.357 111.615, 73 107.989, 73 106.928 C 73 105.868, 73.567 105, 74.261 105 C 74.954 105, 77.612 101.512, 80.167 97.250 C 83.039 92.459, 91.395 82.246, 102.052 70.500 C 129.887 39.822, 128.968 40.729, 130.741 42.200 C 132.092 43.321, 132.186 43.167, 131.484 40.992 C 131.041 39.621, 129.401 34.262, 127.838 29.082 C 126.275 23.902, 124.817 19.484, 124.597 19.264 C 124.378 19.044, 122.119 21.778, 119.578 25.338 M 108.234 67.550 C 89.963 87.732, 78.800 102.133, 80.280 103.614 C 80.886 104.220, 143.438 94.350, 146.309 93.196 C 147.681 92.644, 145.992 91.518, 139.309 88.529 C 115.773 78.005, 107.707 73.893, 108.684 72.916 C 109.361 72.239, 115.054 73.398, 126.022 76.445 C 135.003 78.940, 142.566 80.768, 142.827 80.506 C 143.870 79.464, 134.003 49.632, 131.862 47.353 C 130.646 46.059, 129.392 45.037, 129.076 45.082 C 128.759 45.128, 119.380 55.238, 108.234 67.550 M 134.715 83.356 C 144.730 88.196, 145.950 88.524, 145.346 86.215 C 144.991 84.858, 142.901 83.849, 137.679 82.516 C 133.731 81.508, 129.825 80.500, 129 80.276 C 128.175 80.052, 130.747 81.438, 134.715 83.356 M 148 85.992 C 148 88.384, 150.426 93.051, 151.462 92.653 C 152.136 92.394, 155.266 91.861, 158.419 91.467 C 161.571 91.073, 163.779 90.402, 163.325 89.977 C 162.103 88.831, 148 85.163, 148 85.992 M 168.453 91.915 C 167.929 92.422, 157.600 95.602, 145.500 98.982 C 133.400 102.362, 122.107 105.561, 120.405 106.090 C 117.677 106.939, 116.637 108.503, 111.641 119.276 C 108.523 125.999, 105.978 131.921, 105.986 132.437 C 106.009 133.951, 122.289 187.427, 122.980 188.255 C 123.326 188.670, 125.779 176.745, 128.431 161.755 C 136.703 114.999, 137.120 113, 138.597 113 C 139.348 113, 140.190 114.013, 140.469 115.250 C 140.747 116.487, 142.110 122.642, 143.497 128.926 C 144.884 135.210, 146.127 140.435, 146.259 140.537 C 146.392 140.638, 151.675 144.165, 158 148.375 L 169.500 156.028 169.824 152.764 C 171.660 134.274, 174.588 93.359, 174.112 92.862 C 172.902 91.601, 169.386 91.013, 168.453 91.915 M 35.950 97.583 C 35.922 98.638, 34.406 109.850, 32.581 122.500 C 30.756 135.150, 29.374 145.633, 29.510 145.796 C 29.647 145.959, 31.825 143.196, 34.351 139.657 C 38.063 134.454, 39.295 131.597, 40.783 124.737 L 42.623 116.252 39.852 106.499 C 36.997 96.452, 36.037 94.259, 35.950 97.583 M 41.337 101.500 C 41.639 102.600, 42.632 106.131, 43.542 109.347 C 45.092 114.819, 45.003 120.783, 43.295 125.878 C 42.996 126.770, 45.058 124.362, 47.876 120.527 C 50.694 116.693, 53 113.079, 53 112.496 C 53 111.914, 50.252 108.751, 46.894 105.469 C 43.093 101.754, 40.995 100.255, 41.337 101.500 M 70.619 118.136 L 67.770 123.204 73.076 128.577 C 75.995 131.533, 78.547 133.787, 78.747 133.586 C 79.243 133.090, 74.945 114.681, 74.124 113.784 C 73.763 113.390, 72.186 115.348, 70.619 118.136 M 48.533 124.563 L 41.754 134.127 36.888 157.741 C 34.212 170.729, 32.139 181.472, 32.282 181.615 C 32.424 181.758, 44.352 175.280, 58.788 167.219 L 85.035 152.564 73.061 140.532 L 61.086 128.500 62.764 125.768 C 64.424 123.064, 64.401 122.995, 60.518 119.018 C 58.360 116.808, 56.306 115, 55.953 115 C 55.600 115, 52.261 119.303, 48.533 124.563" stroke="none" fill="black" fill-rule="evenodd"/>
</svg>