<svg xmlns="http://www.w3.org/2000/svg" width="200" height="200" viewBox="0 0 200 200" version="1.1">
	<path d="M 36.659 13.750 C 35.878 16.363, 31.531 30.782, 26.997 45.794 C 22.464 60.806, 19.042 73.376, 19.394 73.727 C 21.006 75.339, 21.292 74.492, 38.650 16.750 L 40.077 12 96.424 12 L 152.770 12 162.876 23.250 L 172.982 34.500 172.353 70.500 C 171.713 107.103, 171.089 112.650, 167.742 111.507 C 167.059 111.273, 157.950 109.216, 147.500 106.936 C 137.050 104.655, 128.011 102.274, 127.413 101.645 C 126.309 100.482, 119.665 77.002, 120.269 76.398 C 120.450 76.217, 127.518 78.748, 135.977 82.023 C 144.435 85.298, 151.546 87.787, 151.779 87.555 C 152.011 87.322, 147.431 79.199, 141.601 69.504 C 135.770 59.809, 131 51.545, 131 51.138 C 131 50.732, 137.300 48.870, 145 47 C 152.700 45.130, 159 43.286, 159 42.902 C 159 42.198, 106.498 14, 105.188 14 C 104.801 14, 101.879 27.837, 98.694 44.750 C 94.076 69.273, 92.913 77.456, 92.952 85.161 L 93 94.823 86.855 93.389 C 83.476 92.601, 80.551 92.116, 80.356 92.311 C 80.160 92.506, 79.702 100.237, 79.337 109.491 L 78.673 126.315 76.723 123.908 C 75.650 122.583, 73.029 118.032, 70.897 113.794 L 67.022 106.087 73.041 93.153 L 79.061 80.219 74.966 71.281 L 70.872 62.342 60.388 57.519 C 54.622 54.866, 50.263 52.372, 50.702 51.976 C 51.141 51.580, 61.400 48.656, 73.500 45.477 C 85.600 42.299, 95.870 39.374, 96.322 38.977 C 96.774 38.580, 93.849 37.064, 89.822 35.607 C 52.227 22.011, 41.413 18.310, 40.884 18.860 C 40.366 19.397, 33.039 79.455, 32.936 84 C 32.917 84.825, 31.296 82.350, 29.333 78.500 C 25.125 70.246, 25.410 70.629, 24.081 71.450 C 23.415 71.862, 24.438 74.927, 26.869 79.800 C 28.981 84.035, 30.967 88.625, 31.282 90 C 31.596 91.375, 30.387 104.875, 28.594 120 C 26.801 135.125, 25.446 147.650, 25.583 147.832 C 25.719 148.015, 29.046 144.865, 32.975 140.832 C 37.049 136.651, 39.893 134.359, 39.594 135.500 C 37.235 144.495, 29.042 183.375, 29.425 183.758 C 29.692 184.026, 43.994 176.305, 61.206 166.601 L 92.500 148.957 92.796 153.270 L 93.093 157.583 105.673 163.850 L 118.253 170.116 148.226 173.625 C 164.711 175.555, 178.445 176.888, 178.745 176.588 C 179.045 176.288, 175.340 167.595, 170.512 157.271 C 165.683 146.947, 161.293 137.538, 160.757 136.363 C 159.952 134.599, 161.096 131.808, 167.315 120.363 L 174.848 106.500 175.174 69.890 L 175.500 33.280 164.584 21.140 L 153.668 9 95.873 9 L 38.077 9 36.659 13.750 M 106.535 19.166 C 106.279 19.900, 103.804 32.336, 101.035 46.801 C 96.853 68.644, 96 75.001, 96 84.303 L 96 95.505 110.014 98.585 C 121.917 101.201, 123.957 101.427, 123.551 100.083 C 120.867 91.191, 116.126 72.541, 116.464 72.203 C 116.702 71.965, 123.332 74.239, 131.198 77.256 C 139.064 80.273, 145.631 82.631, 145.791 82.496 C 145.952 82.361, 141.570 74.753, 136.054 65.589 C 129.629 54.916, 126.469 48.774, 127.262 48.500 C 127.943 48.265, 133.225 46.915, 139 45.500 C 144.775 44.085, 150.162 42.694, 150.971 42.410 C 152.457 41.888, 149.445 40.156, 121.251 25.327 C 111.068 19.972, 106.868 18.213, 106.535 19.166 M 42.629 24.679 C 42.320 26.231, 40.407 42.025, 38.376 59.778 L 34.685 92.056 38.916 108.269 C 41.244 117.186, 43.274 124.608, 43.428 124.761 C 43.659 124.992, 52.402 116.176, 63.765 104.255 C 65.011 102.948, 68.263 96.991, 70.993 91.016 L 75.956 80.152 72.478 72.522 L 69.001 64.892 55.461 58.318 C 48.015 54.703, 42.112 51.555, 42.343 51.323 C 42.575 51.091, 53.227 48.086, 66.013 44.645 L 89.261 38.387 67.381 30.540 C 55.346 26.224, 44.980 22.505, 44.345 22.276 C 43.710 22.047, 42.937 23.128, 42.629 24.679 M 82.617 99.133 C 82.332 100.985, 81.887 108.758, 81.627 116.408 L 81.154 130.315 86.827 137.908 L 92.500 145.500 92.769 122.069 C 92.917 109.182, 92.692 98.292, 92.269 97.870 C 91.846 97.448, 89.618 96.802, 87.317 96.434 C 83.170 95.772, 83.130 95.795, 82.617 99.133 M 95.650 108.689 C 95.292 114.531, 95 127.463, 95 137.426 L 95 155.540 106.750 161.413 L 118.500 167.285 146.471 170.589 C 161.854 172.406, 174.562 173.771, 174.710 173.624 C 174.858 173.476, 170.881 164.613, 165.872 153.927 L 156.766 134.500 161.972 124.672 C 164.836 119.267, 167.021 114.688, 166.829 114.496 C 166.107 113.774, 129.886 107.781, 129.369 108.297 C 129.072 108.594, 131.343 118.054, 134.415 129.319 C 137.487 140.584, 140 150.521, 140 151.401 C 140 156.031, 136.707 150.652, 125.405 127.563 L 112.955 102.126 105.227 100.433 C 100.977 99.502, 97.230 98.589, 96.900 98.404 C 96.570 98.219, 96.007 102.847, 95.650 108.689 M 31.613 118.250 C 30.624 127.188, 29.578 135.850, 29.289 137.500 C 28.787 140.364, 29.041 140.226, 34.923 134.449 L 41.083 128.397 37.822 115.199 C 36.029 107.939, 34.303 102, 33.986 102 C 33.669 102, 32.601 109.313, 31.613 118.250 M 125.194 120.857 C 129.137 129.169, 132.533 135.800, 132.742 135.591 C 133.056 135.277, 126.081 108.142, 125.447 107.207 C 125.337 107.046, 123.623 106.651, 121.637 106.328 L 118.026 105.742 125.194 120.857 M 52.778 119.409 L 44.057 128.552 38.442 153.356 C 35.354 166.999, 33.018 178.352, 33.252 178.585 C 33.604 178.937, 80.411 152.986, 87.737 148.378 L 89.974 146.971 85.737 141.074 C 82.503 136.572, 81.356 135.570, 80.893 136.838 C 80.470 137.998, 79.031 136.006, 76.129 130.244 C 71.495 121.042, 64.036 110.065, 62.500 110.187 C 61.950 110.231, 57.575 114.381, 52.778 119.409" stroke="none" fill="black" fill-rule="evenodd"/>
</svg>