<svg xmlns="http://www.w3.org/2000/svg" width="200" height="200" viewBox="0 0 200 200" version="1.1">
	<path d="M 29.540 42.004 C 23.014 61.807, 17.861 78.173, 18.088 78.374 C 18.314 78.575, 23.450 81.573, 29.500 85.037 C 35.550 88.500, 41.036 91.821, 41.692 92.417 C 42.611 93.252, 42.409 95.985, 40.814 104.333 C 38.868 114.520, 38.618 115.127, 36.622 114.502 C 31.585 112.927, 30.066 112.925, 24.684 114.490 C 21.147 115.518, 19 116.689, 19 117.591 C 19 118.802, 20.563 118.931, 28.500 118.373 C 33.725 118.005, 38 118.060, 38 118.494 C 38 118.928, 35.692 131.162, 32.872 145.680 C 30.051 160.198, 27.936 172.269, 28.171 172.505 C 28.406 172.740, 40.277 170.552, 54.549 167.643 C 78.102 162.842, 80.474 162.175, 80.217 160.427 C 80.061 159.367, 78.428 153.185, 76.587 146.688 C 73.286 135.034, 73.264 134.827, 74.981 131.188 C 75.938 129.160, 77.784 124.714, 79.083 121.309 C 81.630 114.631, 82.493 114.037, 89.682 114.014 L 93.865 114 104.497 129.611 C 110.344 138.198, 114.910 145.793, 114.642 146.491 C 114.374 147.188, 111.405 151.629, 108.043 156.360 L 101.930 164.961 105.095 175.231 C 106.835 180.879, 108.389 185.650, 108.547 185.833 C 108.797 186.124, 170.602 172.279, 178.445 170.176 C 181.177 169.443, 180.726 169.147, 172.195 166.070 C 167.138 164.247, 162.988 162.472, 162.973 162.127 C 162.959 161.782, 167.730 146.401, 173.575 127.948 L 184.204 94.395 174.102 76.281 C 168.546 66.318, 164 57.702, 164 57.135 C 164 56.568, 165.161 52.428, 166.580 47.937 C 167.998 43.446, 168.891 38.810, 168.562 37.636 C 168.234 36.461, 164.036 31.339, 159.233 26.253 L 150.500 17.007 96.586 11.503 C 66.933 8.477, 42.387 6, 42.038 6 C 41.690 6, 36.066 22.202, 29.540 42.004 M 32.594 41.702 C 26.608 59.688, 21.663 75.072, 21.605 75.889 C 21.542 76.780, 25.906 79.918, 32.500 83.725 C 38.550 87.217, 44.071 90.418, 44.769 90.838 C 45.776 91.443, 45.596 93.923, 43.897 102.845 C 42.720 109.029, 41.923 114.217, 42.128 114.372 C 42.742 114.840, 63.113 113.221, 63.673 112.660 C 63.959 112.375, 63.510 109.815, 62.676 106.971 L 61.160 101.800 70.152 88.216 L 79.143 74.632 61.822 70.840 C 52.295 68.755, 43.488 66.804, 42.250 66.505 C 39.596 65.864, 39.225 64.002, 41.750 63.996 C 44.358 63.990, 81.385 72.117, 82.217 72.878 C 82.611 73.238, 78.721 80.017, 73.572 87.941 L 64.212 102.350 65.708 107.425 C 66.532 110.216, 67.337 112.640, 67.497 112.812 C 67.658 112.983, 70.507 112.816, 73.828 112.440 L 79.866 111.757 82.114 106.219 L 84.361 100.682 82.141 96.825 C 80.481 93.939, 80.246 92.855, 81.211 92.522 C 81.920 92.277, 89.097 90.366, 97.159 88.276 L 111.819 84.476 107.956 77.988 C 103.667 70.785, 101.289 69.037, 95.750 69.015 C 90.878 68.996, 90.714 66.564, 95.452 64.585 L 98.903 63.143 91.434 50.821 C 87.326 44.045, 83.606 38.378, 83.167 38.228 C 82.728 38.079, 74.188 41.527, 64.189 45.890 C 53.758 50.443, 45.752 53.407, 45.405 52.846 C 45.072 52.307, 44.998 51.668, 45.241 51.425 C 45.484 51.182, 54.383 47.198, 65.015 42.570 L 84.348 34.157 86.986 38.328 C 88.437 40.623, 92.239 46.888, 95.435 52.250 C 100.806 61.260, 103.004 63.420, 104.441 61.095 C 104.749 60.597, 103.006 55.534, 100.568 49.845 C 98.130 44.155, 96.522 39.361, 96.994 39.191 C 98.110 38.790, 143.951 45.858, 146.271 46.789 C 147.501 47.283, 142.075 49.759, 128.521 54.891 C 117.785 58.956, 109 62.422, 109 62.594 C 109 64.304, 111.668 68.004, 112.911 68.016 C 113.785 68.025, 124.175 68.923, 136 70.012 C 147.825 71.100, 158.287 71.993, 159.250 71.995 C 160.213 71.998, 161 72.654, 161 73.453 C 161 75.071, 160.832 75.125, 138.764 80.555 C 130.109 82.685, 123.359 84.734, 123.764 85.108 C 124.169 85.483, 130.707 87.241, 138.293 89.017 C 146.928 91.037, 151.946 92.666, 151.713 93.372 C 151.276 94.700, 143.508 95.756, 133 95.916 C 128.875 95.979, 124.950 96.380, 124.277 96.807 C 123.387 97.373, 124.113 99.306, 126.944 103.909 C 129.083 107.387, 131.319 110.719, 131.914 111.314 C 132.508 111.908, 136.246 113.318, 140.221 114.447 L 147.448 116.500 149.661 129.500 C 150.879 136.650, 151.903 143.287, 151.938 144.250 C 152.100 148.806, 148.531 144.696, 139.666 130.120 C 130.020 114.259, 130.002 114.238, 125.363 113.070 C 122.432 112.332, 117.171 112.124, 111.109 112.508 C 95.272 113.509, 95.594 111.753, 107.943 129.752 C 116.976 142.917, 118.564 145.784, 117.624 147.231 C 117.006 148.183, 113.865 152.765, 110.645 157.412 L 104.790 165.863 107.531 174.181 C 109.039 178.757, 110.342 182.594, 110.428 182.709 C 110.600 182.938, 166.281 170.327, 169.470 169.337 C 170.972 168.871, 170.022 168.211, 165.470 166.559 C 162.186 165.367, 159.558 163.966, 159.629 163.446 C 159.701 162.926, 164.588 147.233, 170.491 128.574 C 180.588 96.657, 181.136 94.496, 179.747 92.074 C 178.935 90.658, 174.319 82.364, 169.489 73.643 L 160.707 57.787 163.354 48.946 C 164.809 44.084, 165.986 39.520, 165.970 38.803 C 165.953 38.086, 162.236 33.512, 157.710 28.637 L 149.481 19.775 97.490 14.412 C 68.896 11.462, 45.045 9.038, 44.488 9.025 C 43.932 9.011, 38.580 23.716, 32.594 41.702 M 103.812 50.447 C 105.840 55.130, 107.863 59.037, 108.306 59.128 C 109.592 59.393, 137.102 48.769, 136.553 48.219 C 136.279 47.946, 129.406 46.679, 121.278 45.404 C 113.150 44.128, 105.065 42.826, 103.312 42.509 L 100.124 41.933 103.812 50.447 M 104 65.500 C 104 66.325, 104.885 67, 105.969 67 C 107.308 67, 107.753 66.520, 107.362 65.500 C 107.045 64.675, 106.159 64, 105.393 64 C 104.627 64, 104 64.675, 104 65.500 M 107 70.619 C 107 71.428, 114.030 83, 114.521 83 C 114.958 83, 112.428 76.764, 110.363 72.750 C 109.106 70.306, 107 68.972, 107 70.619 M 113 71.376 C 113 71.582, 114.132 74.310, 115.515 77.438 C 117.456 81.828, 118.426 83.006, 119.765 82.603 C 120.719 82.316, 128.153 80.428, 136.284 78.408 C 144.415 76.388, 150.939 74.605, 150.781 74.447 C 150.445 74.111, 118.266 71, 115.126 71 C 113.957 71, 113 71.169, 113 71.376 M 98.405 90.844 C 89.513 93.150, 84.455 94.922, 84.703 95.644 C 84.919 96.273, 85.862 96.610, 86.798 96.393 C 87.734 96.176, 94.730 95.581, 102.345 95.070 C 109.960 94.560, 116.417 93.917, 116.693 93.641 C 117.266 93.067, 113.849 86.951, 113.034 87.094 C 112.740 87.146, 106.157 88.833, 98.405 90.844 M 118.438 89.881 C 119.290 91.527, 120.414 93.138, 120.936 93.461 C 121.459 93.784, 126.300 93.733, 131.694 93.348 L 141.500 92.649 132.712 90.428 C 127.878 89.207, 122.341 87.911, 120.407 87.549 L 116.891 86.889 118.438 89.881 M 99.274 97.966 C 93.649 98.325, 88.744 98.923, 88.372 99.294 C 87.443 100.224, 94.722 111.005, 96.260 110.977 C 96.942 110.965, 103.012 110.526, 109.750 110.002 C 117.842 109.373, 122.895 109.390, 124.638 110.053 C 126.090 110.604, 127.403 110.930, 127.557 110.776 C 127.712 110.622, 125.962 107.464, 123.669 103.759 L 119.500 97.022 114.500 97.168 C 111.750 97.248, 104.898 97.607, 99.274 97.966 M 84.665 107.172 C 83.761 109.472, 83.221 111.554, 83.464 111.797 C 84.032 112.366, 91 111.075, 91 110.402 C 91 110.122, 89.944 108.340, 88.654 106.441 L 86.308 102.989 84.665 107.172 M 69.284 115.804 C 68.353 116.395, 68.547 118.176, 70.108 123.380 C 71.231 127.122, 72.296 130.030, 72.475 129.842 C 73.051 129.236, 78 116.684, 78 115.828 C 78 114.785, 70.918 114.765, 69.284 115.804 M 49 116.901 L 42.500 117.500 54.898 123 C 61.717 126.025, 67.652 128.641, 68.087 128.813 C 68.522 128.985, 68.079 126.285, 67.103 122.813 L 65.327 116.500 60.414 116.401 C 57.711 116.346, 52.575 116.571, 49 116.901 M 135.204 117.089 C 135.507 117.879, 138.556 123.019, 141.980 128.512 C 147.157 136.818, 148.111 137.911, 147.640 135 C 144.770 117.238, 145.134 118.248, 141.343 117.537 C 139.426 117.177, 137.137 116.606, 136.255 116.268 C 135.138 115.839, 134.820 116.088, 135.204 117.089 M 40.508 121.250 C 39.589 123.925, 31.238 168.523, 31.586 168.894 C 32.122 169.466, 75.344 160.855, 76.328 159.980 C 77.186 159.217, 70.712 134.294, 69.299 132.922 C 68.544 132.189, 42.161 120, 41.329 120 C 41.113 120, 40.744 120.563, 40.508 121.250" stroke="none" fill="black" fill-rule="evenodd"/>
</svg>