<svg xmlns="http://www.w3.org/2000/svg" width="200" height="200" viewBox="0 0 200 200" version="1.1">
	<path d="M 140 17.188 C 133.402 18.566, 129.736 19.878, 128 21.483 C 124.666 24.567, 103.678 31.308, 99.957 30.491 C 98.107 30.084, 89.083 32.080, 72.842 36.488 C 59.454 40.122, 47.914 43.293, 47.198 43.536 C 45.474 44.120, 45.680 43.825, 54.984 32.396 C 59.393 26.980, 63 22.279, 63 21.948 C 63 21.618, 50.962 23.511, 36.250 26.156 C 21.537 28.800, 9.387 30.972, 9.250 30.982 C 9.113 30.992, 9 31.705, 9 32.567 C 9 33.588, 9.611 33.957, 10.750 33.625 C 11.713 33.345, 21.725 31.508, 33 29.544 C 44.275 27.580, 54.313 25.790, 55.307 25.565 C 57.413 25.090, 58.056 24.141, 47.167 37.577 C 42.675 43.120, 39 47.891, 39 48.180 C 39 48.470, 50.136 45.658, 63.746 41.933 C 77.357 38.207, 88.577 35.244, 88.681 35.348 C 88.785 35.451, 87.099 38.728, 84.936 42.629 L 81.002 49.721 75.751 50.342 C 68.024 51.257, 36 59.075, 36 60.048 C 36 61.900, 38.658 62.016, 56.008 60.918 C 65.962 60.288, 74.353 60.020, 74.655 60.322 C 75.398 61.065, 66.753 76.942, 54.683 97 L 44.754 113.500 38.501 147.792 C 35.062 166.653, 32.071 182.263, 31.853 182.480 C 31.636 182.698, 28.858 169.741, 25.679 153.688 L 19.901 124.500 21.201 87.250 C 22.239 57.476, 22.249 49.999, 21.250 50 C 20.563 50, 19.970 50.112, 19.934 50.250 C 19.898 50.388, 19.234 67.150, 18.458 87.500 L 17.047 124.500 23.774 158.271 C 29.040 184.712, 30.813 191.984, 31.940 191.769 C 33.012 191.566, 35.183 181.638, 40.440 152.902 L 47.500 114.308 57.625 97.404 C 63.194 88.107, 70.169 75.916, 73.125 70.313 C 76.566 63.791, 79.219 59.928, 80.500 59.577 C 83.687 58.701, 96 58.915, 96 59.845 C 96 60.310, 95.100 61.505, 94 62.500 C 92.900 63.495, 92 64.600, 92 64.954 C 92 65.308, 104.156 68.480, 119.012 72.003 L 146.025 78.408 145.762 113.954 L 145.500 149.500 129.879 149.775 L 114.258 150.049 112.129 141.561 C 110.958 136.892, 110 132.644, 110 132.121 C 110 131.397, 115.592 126.894, 120.814 123.415 C 120.987 123.300, 120.701 120.855, 120.179 117.982 C 119.335 113.342, 119.654 111.182, 123.031 98.630 C 125.122 90.858, 126.758 84.435, 126.666 84.355 C 126.426 84.145, 71.546 90.149, 71.264 90.416 C 71.134 90.539, 70.501 96.360, 69.858 103.353 C 68.807 114.771, 68.876 116.888, 70.531 124.135 C 72.339 132.051, 72.336 132.439, 70.366 144.631 L 68.358 157.059 71.647 161.943 C 73.886 165.266, 75.826 167.005, 77.718 167.384 C 79.248 167.690, 95.575 169.990, 114 172.495 C 132.425 175, 148.242 177.209, 149.149 177.405 C 150.340 177.661, 154.037 172.810, 162.430 159.981 L 174.061 142.201 175.503 99.907 C 176.296 76.645, 176.845 57.525, 176.723 57.420 C 176.600 57.314, 168.457 54.667, 158.626 51.538 C 140.220 45.678, 136.069 45.356, 141.871 50.238 L 144.862 52.755 138.181 53.348 C 134.507 53.675, 125.252 54.244, 117.615 54.613 L 103.730 55.284 106.053 52.142 C 107.331 50.414, 108.629 48.998, 108.938 48.996 C 109.247 48.994, 118.275 47.870, 129 46.500 C 139.725 45.130, 148.838 44.006, 149.250 44.004 C 149.662 44.002, 150 43.357, 150 42.571 C 150 41.632, 148.027 40.744, 144.250 39.983 C 132.346 37.584, 121.835 35.168, 121.399 34.732 C 121.150 34.484, 122.421 32.441, 124.224 30.192 C 127.247 26.419, 128.535 25.772, 140.918 21.798 C 148.298 19.430, 154.523 16.931, 154.751 16.246 C 155.320 14.539, 151.529 14.781, 140 17.188 M 115.302 29.884 C 108.454 32.095, 108.131 32.605, 113.078 33.397 C 117.402 34.088, 119.253 33.265, 121.090 29.832 C 122.238 27.687, 122.101 27.688, 115.302 29.884 M 96.169 35.887 C 91.398 37.458, 90.532 38.203, 87.917 42.985 C 86.310 45.924, 85.150 48.483, 85.339 48.672 C 85.528 48.861, 90.367 48.483, 96.091 47.831 L 106.500 46.646 110.750 42.095 C 113.088 39.592, 115 37.254, 115 36.900 C 115 36.312, 113.375 35.955, 104.500 34.593 C 102.850 34.340, 99.101 34.922, 96.169 35.887 M 115.055 41.227 C 113.257 43.368, 111.947 45.249, 112.143 45.407 C 112.801 45.937, 138 42.633, 138 42.017 C 138 41.683, 133.573 40.492, 128.162 39.371 L 118.323 37.334 115.055 41.227 M 90 51.156 C 85.970 51.720, 83.025 52.696, 82.250 53.724 C 80.368 56.221, 80.740 57.303, 83.250 56.630 C 84.487 56.299, 88.678 56.021, 92.562 56.014 C 99.242 56.001, 99.744 55.838, 101.842 53 L 104.060 50 100.280 50.123 C 98.201 50.191, 93.575 50.656, 90 51.156 M 149.993 52.962 C 151.924 54.444, 152.150 54.983, 150.993 55.349 C 150.172 55.609, 138.700 56.356, 125.500 57.008 C 102.384 58.151, 101.410 58.282, 99.053 60.567 C 97.707 61.872, 96.867 63.200, 97.185 63.518 C 97.748 64.081, 146.593 75.975, 148.411 75.992 C 149.305 76, 148.530 151.803, 147.627 152.707 C 147.386 152.947, 139.186 152.774, 129.405 152.322 L 111.620 151.500 108.949 140.840 L 106.277 130.181 111.889 126.311 L 117.500 122.442 117.162 116.842 C 116.923 112.883, 117.729 107.852, 119.912 99.671 C 121.610 93.307, 123 87.946, 123 87.757 C 123 87.299, 74.055 92.598, 73.609 93.105 C 73.417 93.322, 72.861 98.675, 72.373 105 C 71.602 114.992, 71.739 117.500, 73.415 124.129 C 75.331 131.708, 75.330 131.838, 73.298 144.129 L 71.253 156.500 74.175 160.750 C 75.781 163.087, 77.723 165, 78.489 165 C 79.255 165, 94.584 167.025, 112.555 169.500 C 130.526 171.975, 146.292 174, 147.592 174 C 149.541 174, 151.825 171.153, 160.630 157.750 L 171.306 141.500 172.604 104 C 173.319 83.375, 173.925 64.844, 173.952 62.821 C 173.999 59.237, 173.865 59.102, 168.750 57.578 C 165.863 56.718, 159.900 54.896, 155.500 53.530 C 148.385 51.322, 147.776 51.259, 149.993 52.962 M 63.500 55.535 L 54.500 57.925 66 57.363 C 76.640 56.843, 78.935 56.205, 78.985 53.750 C 79.013 52.378, 72.605 53.116, 63.500 55.535" stroke="none" fill="black" fill-rule="evenodd"/>
</svg>