<svg xmlns="http://www.w3.org/2000/svg" width="200" height="200" viewBox="0 0 200 200" version="1.1">
	<path d="M 74 13.348 C 74 14.038, 75.116 18.405, 76.479 23.051 C 77.842 27.698, 78.967 32.063, 78.979 32.750 C 78.994 33.613, 77.145 34, 73 34 C 69.700 34, 67 33.753, 67 33.452 C 67 33.151, 68.569 30.451, 70.488 27.452 L 73.975 22 46.651 22 L 19.326 22 18.694 94.697 C 18.346 134.681, 18.204 167.538, 18.379 167.713 C 18.716 168.050, 47.182 162.231, 47.450 161.770 C 47.536 161.622, 46.997 144.236, 46.251 123.136 C 45.505 102.035, 45.104 84.563, 45.359 84.307 C 45.615 84.052, 56.424 81.493, 69.380 78.620 C 82.336 75.747, 93.155 73.178, 93.422 72.912 C 93.688 72.645, 93.209 70.049, 92.357 67.143 C 91.505 64.236, 91.029 61.638, 91.299 61.368 C 91.569 61.098, 94.312 60.617, 97.395 60.299 L 103 59.720 103 71.177 L 103 82.635 108.750 84.502 C 111.912 85.529, 113.825 86.519, 113 86.703 C 112.175 86.887, 101.013 89.003, 88.195 91.407 C 75.378 93.810, 64.648 96.019, 64.352 96.315 C 64.056 96.611, 63.413 102.849, 62.924 110.177 C 62.435 117.504, 60.296 135.102, 58.170 149.282 C 56.045 163.463, 54.652 174.938, 55.075 174.782 C 55.498 174.627, 63.353 166.400, 72.530 156.500 C 81.707 146.600, 89.557 138.133, 89.974 137.684 C 90.391 137.236, 95.629 145.207, 101.616 155.399 C 107.602 165.591, 112.763 173.945, 113.085 173.965 C 113.406 173.984, 119.183 162.560, 125.923 148.579 L 138.177 123.157 134.089 112.001 C 131.400 104.665, 130 99.184, 130 95.996 L 130 91.148 142 95.162 C 148.600 97.370, 154 99.529, 154 99.961 C 154 100.393, 148.586 116.164, 141.968 135.008 C 135.351 153.852, 130.063 169.381, 130.218 169.516 C 130.811 170.034, 171.479 173.855, 171.901 173.432 C 173.634 171.699, 175.954 27.036, 174.250 26.971 C 173.838 26.956, 168.063 32.670, 161.417 39.669 L 149.333 52.395 127.614 54.478 C 115.668 55.624, 105.693 56.360, 105.447 56.114 C 105.201 55.868, 105 54.652, 105 53.413 C 105 51.757, 105.730 51.009, 107.750 50.595 C 109.263 50.286, 118.150 48.628, 127.500 46.912 C 136.850 45.195, 144.660 43.641, 144.855 43.457 C 145.050 43.274, 140.671 40.846, 135.123 38.062 L 125.036 33 114.963 33 L 104.890 33 105.195 28.250 L 105.500 23.500 130.500 22.353 C 144.250 21.723, 157.863 21.160, 160.750 21.103 C 164.704 21.025, 166 20.630, 166 19.500 C 166 18.675, 165.630 18, 165.177 18 C 162.659 18, 82.725 12.988, 78.750 12.581 C 75.350 12.232, 74 12.451, 74 13.348 M 77.015 15.345 C 77.024 15.430, 78.286 19.550, 79.820 24.500 C 82.242 32.318, 82.897 33.491, 84.804 33.429 C 86.012 33.389, 90.600 33.277, 95 33.179 L 103 33 103 27.139 L 103 21.279 108.250 20.648 C 111.138 20.301, 117.962 20.013, 123.417 20.009 C 128.871 20.004, 133.085 19.752, 132.782 19.448 C 132.478 19.145, 122.391 18.263, 110.365 17.488 C 98.339 16.713, 85.912 15.879, 82.750 15.634 C 79.588 15.390, 77.007 15.259, 77.015 15.345 M 40.250 24.749 L 22 25.045 21.999 50.773 C 21.998 64.923, 21.700 96.367, 21.337 120.650 L 20.677 164.800 32.589 162.273 C 39.140 160.884, 44.558 159.691, 44.628 159.623 C 44.699 159.556, 44.131 142.203, 43.366 121.062 C 42.602 99.921, 42.319 82.335, 42.738 81.982 C 43.157 81.629, 53.473 79.178, 65.661 76.534 C 77.850 73.890, 88.337 71.410, 88.965 71.021 C 89.821 70.493, 89.814 69.147, 88.937 65.664 C 87.776 61.053, 87.736 61.018, 84.133 61.510 C 69.878 63.459, 37.549 65.949, 36.759 65.159 C 36.246 64.646, 36.202 63.993, 36.663 63.709 C 38.353 62.666, 67.754 55.047, 75.930 53.534 C 80.566 52.676, 84.481 51.852, 84.630 51.703 C 85.174 51.159, 80.428 36.864, 79.726 36.931 C 79.326 36.969, 75.733 37, 71.741 37 L 64.482 37 58.491 46.968 C 55.196 52.450, 51.938 56.950, 51.250 56.968 C 49.281 57.018, 49.696 55.900, 54.597 47.954 C 57.126 43.854, 59.653 39.645, 60.213 38.599 C 61.203 36.752, 60.720 36.718, 43.116 37.413 C 27.044 38.048, 25 37.952, 25 36.564 C 25 35.287, 26.349 35, 32.343 35 C 36.382 35, 45.079 34.710, 51.671 34.356 L 63.656 33.711 66.386 28.856 L 69.115 24 63.808 24.226 C 60.888 24.350, 50.288 24.585, 40.250 24.749 M 162.750 42.198 C 157.938 47.442, 154 52.474, 154 53.382 C 154 54.290, 152.537 55.765, 150.750 56.660 C 148.963 57.555, 143.450 62.666, 138.500 68.018 L 129.500 77.748 129.833 83.208 L 130.166 88.668 144.083 92.990 C 151.737 95.368, 158 97.410, 158 97.529 C 158 97.648, 152.586 113.164, 145.968 132.008 C 139.351 150.852, 134.162 166.495, 134.437 166.770 C 134.883 167.216, 169.314 171.009, 169.627 170.647 C 170.228 169.950, 172.105 71.566, 171.841 54.582 L 171.500 32.665 162.750 42.198 M 111.750 35.742 L 105 36.091 105 42.171 L 105 48.250 108.072 47.636 C 109.762 47.298, 116.737 46.035, 123.572 44.830 C 130.407 43.626, 136 42.367, 136 42.035 C 136 40.857, 122.929 35.003, 120.731 35.196 C 119.504 35.304, 115.463 35.549, 111.750 35.742 M 84 37.543 C 84 38.392, 84.787 41.766, 85.750 45.042 C 87.716 51.731, 88.011 51.847, 97.500 49.651 L 102.500 48.493 102.798 42.247 L 103.095 36 93.548 36 C 85.608 36, 84 36.260, 84 37.543 M 93.250 53.166 C 90.036 53.886, 89 54.591, 89 56.059 C 89 58.210, 90.579 58.431, 98.360 57.364 C 102.392 56.811, 103 56.418, 103 54.364 C 103 51.701, 100.930 51.446, 93.250 53.166 M 72.500 57.037 C 54.112 60.855, 54.237 61.671, 72.941 59.914 C 86.704 58.620, 87.134 58.513, 86.376 56.538 C 85.642 54.625, 83.796 54.692, 72.500 57.037 M 121 57.871 L 105.500 59.500 105.500 69.907 L 105.500 80.315 112.142 82.555 L 118.784 84.796 123.018 80.482 C 127.198 76.222, 127.243 76.101, 126.584 70.830 L 125.917 65.491 135.209 60.804 C 144.217 56.260, 144.378 56.119, 140.500 56.179 C 138.300 56.213, 129.525 56.975, 121 57.871 M 133.750 64.566 C 129.699 66.675, 129 67.477, 129 70.019 C 129 71.659, 129.338 72.994, 129.750 72.987 C 130.162 72.980, 132.666 70.505, 135.313 67.487 C 137.959 64.469, 139.759 62.021, 139.313 62.047 C 138.866 62.072, 136.363 63.206, 133.750 64.566 M 124.569 82.923 C 122.660 85.033, 123.377 85.681, 125.872 84.100 C 126.626 83.622, 127.065 82.695, 126.846 82.039 C 126.590 81.269, 125.784 81.582, 124.569 82.923 M 91.526 93.567 C 78.890 95.982, 68.048 98.151, 67.434 98.387 C 66.754 98.648, 66.054 103.447, 65.645 110.658 C 65.276 117.171, 63.473 132.512, 61.639 144.750 C 59.805 156.988, 58.574 166.962, 58.902 166.915 C 59.231 166.868, 66.475 159.234, 75 149.949 C 83.525 140.665, 90.741 133.053, 91.036 133.034 C 91.331 133.015, 96.252 140.875, 101.972 150.500 C 107.691 160.125, 112.652 168, 112.995 168 C 113.338 168, 118.458 157.880, 124.373 145.511 L 135.128 123.023 131.064 111.934 C 128.213 104.153, 127 99.258, 127 95.529 C 127 87.136, 125.178 87.401, 115.061 97.264 C 88.027 123.620, 79.726 131.126, 78.723 130.123 C 77.768 129.168, 87.142 118.554, 110.406 94.250 C 113.170 91.362, 115.222 89.039, 114.966 89.087 C 114.710 89.136, 104.161 91.151, 91.526 93.567" stroke="none" fill="black" fill-rule="evenodd"/>
</svg>