<svg xmlns="http://www.w3.org/2000/svg" width="200" height="200" viewBox="0 0 200 200" version="1.1">
	<path d="M 21.667 26.750 C 19.513 60.672, 18.760 99.931, 19.470 141.345 C 20.088 177.385, 20.486 185.925, 21.494 184.845 C 22.878 183.362, 51.733 134.858, 52.645 132.484 C 52.977 131.618, 52.649 131.007, 51.857 131.018 C 51.111 131.027, 44.317 141.490, 36.761 154.268 L 23.021 177.500 22.957 170 C 22.921 165.875, 22.526 147.819, 22.078 129.876 C 21.445 104.497, 21.636 88.902, 22.941 59.650 C 23.864 38.969, 24.898 21.768, 25.240 21.426 C 25.582 21.084, 33.131 23.661, 42.016 27.152 L 58.170 33.500 51.017 33.795 C 45.985 34.003, 43.982 34.448, 44.262 35.295 C 44.705 36.632, 71.002 39.046, 71.001 37.750 C 71 37.337, 73.758 37, 77.129 37 L 83.258 37 82.552 43.244 C 82.163 46.678, 81.752 49.581, 81.638 49.696 C 81.445 49.888, 54.509 55.829, 42.075 58.421 C 35.527 59.786, 34.034 62.002, 39.667 61.996 C 41.775 61.994, 50.700 61.324, 59.500 60.508 C 68.300 59.692, 76.750 59.018, 78.278 59.012 L 81.056 59 80.466 65.750 C 79.419 77.745, 81.386 75.941, 55.713 88.447 C 40.633 95.793, 33.045 99.984, 34.055 100.409 C 35.003 100.809, 44.567 96.789, 58.555 90.113 L 81.500 79.162 82.299 72.831 C 82.739 69.349, 83.322 64.635, 83.594 62.356 L 84.091 58.213 95.124 57.492 L 106.157 56.771 115.445 65.636 C 120.554 70.511, 124.766 74.950, 124.804 75.500 C 124.843 76.050, 121.733 79.200, 117.892 82.500 C 110.222 89.091, 110.269 88.488, 117.054 93.198 C 119.408 94.831, 118.982 94.897, 105.703 94.948 L 91.907 95 84.105 90.500 C 79.814 88.025, 75.990 86, 75.606 86 C 74.623 86, 54 104.207, 54 105.076 C 54 105.469, 55.308 108.875, 56.906 112.645 L 59.813 119.500 55.416 140.500 C 50.632 163.349, 50.357 165.461, 52.262 164.730 C 52.955 164.464, 60.382 163.428, 68.766 162.429 C 77.150 161.430, 84.400 160.362, 84.877 160.056 C 85.354 159.750, 86.481 151.850, 87.381 142.500 C 90.032 114.954, 89.316 117.494, 94.786 116.242 C 97.377 115.649, 99.643 115.309, 99.821 115.487 C 99.999 115.665, 99.151 127.295, 97.937 141.332 C 96.723 155.368, 95.968 167.474, 96.259 168.233 C 96.967 170.078, 126.547 172.042, 153.250 172.018 L 173 172 173.092 163.750 C 173.142 159.213, 173.736 137.950, 174.411 116.500 L 175.639 77.500 169.819 48.701 C 166.619 32.861, 164 19.698, 164 19.451 C 164 19.203, 163.342 19, 162.539 19 C 161.113 19, 160 21.979, 158.239 30.500 L 157.412 34.500 136.985 34.771 C 124.405 34.939, 116.930 34.686, 117.529 34.115 C 118.063 33.605, 127.865 30.189, 139.310 26.525 C 152.669 22.248, 159.978 19.439, 159.721 18.681 C 159.420 17.792, 150.184 17.592, 122.411 17.873 C 102.110 18.079, 85.382 18.346, 85.238 18.468 C 85.094 18.590, 84.644 22.022, 84.238 26.095 L 83.500 33.500 75.101 33.793 L 66.703 34.086 45.349 25.543 C 33.604 20.844, 23.611 17, 23.141 17 C 22.670 17, 22.007 21.387, 21.667 26.750 M 93.750 20.742 L 87 21.091 86.986 25.296 C 86.979 27.608, 86.689 30.561, 86.342 31.857 L 85.711 34.214 98.105 33.723 C 110.136 33.247, 111.073 33.040, 130 26.688 L 149.500 20.143 125 20.267 C 111.525 20.336, 97.463 20.549, 93.750 20.742 M 161.659 28.500 C 161.244 30.150, 160.671 32.288, 160.385 33.250 C 160.008 34.520, 160.432 35, 161.933 35 C 164.117 35, 164.309 33.922, 163.088 28.500 L 162.412 25.500 161.659 28.500 M 164.086 36.750 C 164.039 37.438, 163.116 38, 162.035 38 C 159.747 38, 158.454 40.061, 157.477 45.268 C 156.969 47.981, 157.123 49, 158.044 49 C 158.862 49, 158.636 49.740, 157.405 51.093 C 156.135 52.487, 153.296 62.186, 148.892 80.172 L 142.284 107.159 146.054 109.654 L 149.824 112.149 144.982 123.825 C 131.208 157.043, 128.397 163.372, 127.250 163.752 C 126.563 163.980, 126 163.441, 126 162.555 C 126 161.668, 128.925 149.269, 132.500 135 C 136.075 120.731, 139 108.833, 139 108.559 C 139 108.285, 135.735 105.858, 131.744 103.165 L 124.488 98.269 107.494 97.826 L 90.500 97.383 83.217 93.128 L 75.934 88.873 66.467 97.081 C 61.260 101.595, 57 105.404, 57 105.545 C 57 105.686, 58.279 108.799, 59.841 112.462 L 62.682 119.122 58.404 139.791 C 56.051 151.159, 54.324 160.657, 54.565 160.898 C 55.051 161.384, 82.164 158.170, 82.780 157.553 C 83.175 157.159, 86.943 121.178, 86.980 117.454 C 86.997 115.742, 88.310 115.063, 95 113.301 L 103 111.194 103 113.364 C 103 114.557, 102.105 125.650, 101.010 138.016 C 99.916 150.382, 99.016 161.896, 99.010 163.603 L 99 166.707 106.750 167.437 C 114.141 168.134, 169.186 169.907, 169.788 169.468 C 169.946 169.352, 170.691 148.387, 171.442 122.879 L 172.809 76.500 168.490 56 C 166.115 44.725, 164.133 36.063, 164.086 36.750 M 85.625 40.125 C 85.281 41.844, 85 44.595, 85 46.239 L 85 49.227 89.750 48.520 C 92.362 48.131, 94.694 47.623, 94.932 47.391 C 95.169 47.160, 93.859 45.418, 92.021 43.521 L 88.678 40.073 91.089 39.180 C 92.415 38.689, 94.175 38.033, 95 37.723 C 95.825 37.412, 94.194 37.122, 91.375 37.079 C 86.412 37.003, 86.230 37.099, 85.625 40.125 M 99.639 39.199 L 93.779 41.240 96.639 44.030 L 99.500 46.820 121.997 42.660 C 147.753 37.897, 147.548 37.144, 120.500 37.153 C 107.988 37.157, 104.528 37.496, 99.639 39.199 M 131.500 43.568 C 118.850 45.960, 106.961 48.195, 105.080 48.535 L 101.661 49.154 104.404 51.342 L 107.147 53.529 130.212 51.514 C 151.388 49.665, 153.337 49.336, 154.009 47.500 C 155.420 43.643, 156.151 39.001, 155.329 39.110 C 154.873 39.171, 144.150 41.177, 131.500 43.568 M 89.513 51.350 C 86.508 52.048, 84.409 53.115, 84.232 54.034 C 83.980 55.342, 85.040 55.458, 91.719 54.850 C 95.999 54.461, 100.357 54.110, 101.405 54.071 C 103.247 54.002, 103.250 53.933, 101.500 52 C 99.488 49.777, 96.893 49.636, 89.513 51.350 M 71.212 54.741 C 67.204 55.575, 64.141 56.474, 64.405 56.738 C 64.669 57.002, 68.480 56.900, 72.873 56.511 C 78.289 56.032, 81.034 55.353, 81.399 54.402 C 82.054 52.694, 80.848 52.735, 71.212 54.741 M 126.649 54.580 C 119.031 55.302, 112.154 56.029, 111.367 56.196 C 110.491 56.382, 113.340 59.883, 118.723 65.235 L 127.509 73.969 139.305 63.485 L 151.101 53 145.801 53.134 C 142.885 53.208, 134.267 53.858, 126.649 54.580 M 140.707 65.806 L 129.914 75.355 135.601 81.102 L 141.288 86.849 138.073 90.907 C 136.306 93.139, 133.770 95.823, 132.438 96.870 L 130.017 98.774 134.725 101.837 C 137.315 103.522, 139.555 104.779, 139.703 104.631 C 140.059 104.274, 151.901 56.555, 151.675 56.387 C 151.579 56.315, 146.643 60.553, 140.707 65.806 M 120.820 83.334 L 115.140 88.578 119.779 91.539 C 127.022 96.162, 128.878 96.243, 133.250 92.126 C 135.313 90.183, 137 88.140, 137 87.585 C 137 86.214, 128.845 77.989, 127.542 78.045 C 126.969 78.070, 123.944 80.450, 120.820 83.334 M 137.600 125.549 C 135.491 134.101, 133.936 141.269, 134.144 141.477 C 134.353 141.686, 137.134 135.543, 140.324 127.826 C 145.855 114.450, 146.045 113.708, 144.408 111.898 C 143.463 110.854, 142.408 110, 142.062 110 C 141.717 110, 139.709 116.997, 137.600 125.549" stroke="none" fill="black" fill-rule="evenodd"/>
</svg>