<svg xmlns="http://www.w3.org/2000/svg" width="200" height="200" viewBox="0 0 200 200" version="1.1">
	<path d="M 20.005 37.250 C 20.007 52.238, 19.518 82.500, 18.917 104.500 L 17.825 144.500 30.038 167.291 C 36.755 179.827, 42.452 189.882, 42.697 189.636 C 43.105 189.228, 45.923 121.600, 45.977 110.927 C 46 106.431, 46.144 106.231, 54.500 99.116 C 62.352 92.430, 63 92.071, 63 94.407 C 63 95.798, 61.865 112.316, 60.477 131.112 C 59.090 149.909, 58.077 165.406, 58.227 165.550 C 58.377 165.694, 64.800 161.144, 72.500 155.439 C 80.200 149.734, 86.759 145.052, 87.075 145.033 C 87.392 145.015, 89.766 148.339, 92.352 152.421 L 97.052 159.841 118.727 172.345 L 140.402 184.850 149.951 176.027 C 155.203 171.175, 162.988 163.896, 167.252 159.852 L 175.003 152.500 174.038 121.500 C 173.507 104.450, 173.056 73.457, 173.036 52.627 L 173 14.754 159.678 33.601 C 148.152 49.907, 145.928 52.535, 143.177 53.098 C 137.396 54.280, 102.700 54.584, 102.321 53.456 C 102.116 52.845, 110.074 50.581, 121.485 48.003 C 132.218 45.579, 141 43.277, 141 42.888 C 141 41.976, 127.107 34.350, 124.565 33.866 C 123.432 33.650, 127.789 31.469, 135.065 28.609 C 148.450 23.346, 149.940 22.511, 148.450 21.101 C 147.594 20.291, 71.967 10.700, 71.344 11.323 C 71.200 11.466, 75.385 16.965, 80.643 23.542 L 90.202 35.500 80.351 36.163 C 74.933 36.528, 66.606 37.008, 61.847 37.229 L 53.194 37.631 52.517 31.316 C 52.036 26.823, 51.428 25, 50.412 25 C 49.273 25, 49.110 26.085, 49.611 30.345 L 50.239 35.689 46.442 38.036 C 44.354 39.326, 43.063 40.510, 43.573 40.666 C 44.083 40.822, 55.188 40.392, 68.250 39.711 C 81.313 39.029, 92 38.800, 92 39.201 C 92 39.603, 90.365 42.906, 88.367 46.541 C 86.015 50.820, 83.811 53.518, 82.117 54.193 C 80.678 54.766, 70.758 55.636, 60.074 56.127 C 49.389 56.618, 40.457 57.210, 40.224 57.443 C 38.734 58.933, 42.384 59.847, 52.305 60.467 C 61.375 61.033, 65.275 60.824, 71.817 59.418 C 76.315 58.451, 80.274 57.941, 80.616 58.283 C 80.959 58.625, 77.955 64.783, 73.942 71.967 C 66.823 84.711, 66.363 85.274, 54.989 95.134 L 43.332 105.240 42.063 142.870 C 41.366 163.566, 40.725 180.578, 40.640 180.674 C 40.555 180.769, 36.060 172.669, 30.651 162.674 L 20.817 144.500 21.924 93.500 C 23.462 22.580, 23.398 10, 21.500 10 C 20.203 10, 20.001 13.692, 20.005 37.250 M 78 15.562 C 78 15.871, 81.538 20.435, 85.863 25.703 L 93.726 35.281 103.085 35.076 C 112.049 34.879, 113.076 34.610, 127.472 28.703 C 135.737 25.311, 141.825 22.422, 141 22.283 C 137.636 21.714, 80.985 15, 79.551 15 C 78.698 15, 78 15.253, 78 15.562 M 160 37.829 C 154.775 45.201, 150.350 51.630, 150.167 52.116 C 149.983 52.602, 151.221 53, 152.917 53 C 157.958 53, 156.619 55.545, 150.753 57.114 C 145.641 58.480, 145.281 58.826, 136.816 70.508 C 132.037 77.104, 128.099 82.853, 128.064 83.285 C 128.029 83.716, 133.417 91.937, 140.037 101.554 L 152.074 119.038 140.787 133.905 C 132.364 145, 129.327 148.357, 128.817 147.136 C 128.442 146.236, 126.944 134.025, 125.488 120 C 124.032 105.975, 122.639 93.867, 122.392 93.093 C 121.894 91.534, 122.511 90.735, 104.036 116.833 C 96.952 126.839, 91.393 133.793, 90.883 133.283 C 90.374 132.774, 94.262 123.969, 100.082 112.451 L 110.162 92.500 106.331 92.209 C 101.225 91.821, 67.149 93.518, 66.473 94.193 C 65.856 94.811, 60.960 159.294, 61.490 159.824 C 61.685 160.019, 67.281 156.074, 73.924 151.057 C 80.568 146.041, 86.565 141.746, 87.252 141.514 C 87.965 141.273, 90.754 144.659, 93.761 149.415 L 99.022 157.738 119.114 169.369 C 130.165 175.766, 139.540 181, 139.948 181 C 140.355 181, 147.778 174.393, 156.442 166.317 L 172.195 151.633 171.459 130.567 C 171.054 118.980, 170.448 90.358, 170.111 66.963 L 169.500 24.425 160 37.829 M 105 40.670 C 100.325 42.591, 96.187 44.464, 95.804 44.831 C 95.421 45.199, 95.937 46.597, 96.951 47.939 L 98.793 50.378 115.647 46.547 C 124.916 44.440, 132.880 42.502, 133.344 42.241 C 133.808 41.980, 132.299 40.694, 129.991 39.383 C 123.689 35.803, 115.865 36.206, 105 40.670 M 95 40 C 93.712 42.407, 94.300 42.407, 99.500 40 L 103.500 38.148 99.785 38.074 C 97.045 38.019, 95.789 38.525, 95 40 M 89.760 49.378 L 88.149 52.756 91.654 51.965 C 96.277 50.923, 96.388 50.713, 93.681 48.170 L 91.371 46 89.760 49.378 M 95 54 C 92.650 54.753, 92.698 54.807, 95.809 54.900 C 97.781 54.960, 98.868 54.596, 98.500 54 C 98.160 53.450, 97.796 53.045, 97.691 53.100 C 97.586 53.155, 96.375 53.560, 95 54 M 120.250 56.748 C 112.412 56.917, 106 57.306, 106 57.613 C 106 58.446, 118.188 72, 118.937 72 C 119.293 72, 120.789 69.541, 122.263 66.536 C 125.148 60.653, 124.192 61.190, 139 57.138 L 142.500 56.180 138.500 56.310 C 136.300 56.382, 128.088 56.579, 120.250 56.748 M 82.656 62.250 C 81.320 64.588, 77.682 71, 74.572 76.500 C 71.462 82, 67.716 87.573, 66.247 88.884 L 63.577 91.268 74.039 90.652 C 79.792 90.314, 90.616 89.753, 98.091 89.406 L 111.681 88.776 114.856 82.339 L 118.030 75.901 110.265 66.960 L 102.500 58.019 93.792 58.010 L 85.084 58 82.656 62.250 M 132.644 61.733 C 126.883 63.242, 126.742 63.365, 123.916 69.342 L 121.043 75.417 123.196 77.708 C 124.380 78.969, 125.681 80, 126.087 80 C 126.492 80, 128.972 76.963, 131.598 73.250 C 134.223 69.537, 137.466 65.037, 138.804 63.250 C 141.572 59.553, 141.259 59.476, 132.644 61.733 M 117.199 83.527 C 114.480 89.123, 114.474 89, 117.461 89 C 119.958 89, 124 85.580, 124 83.466 C 124 82.372, 120.882 79, 119.871 79 C 119.611 79, 118.409 81.037, 117.199 83.527 M 124.993 88.750 C 124.983 91.317, 129.993 137.089, 130.587 139.860 C 131.027 141.910, 132.203 140.738, 139.547 130.938 C 144.196 124.733, 148 119.276, 148 118.812 C 148 117.435, 126.834 87, 125.877 87 C 125.395 87, 124.997 87.787, 124.993 88.750 M 114.279 91.653 C 113.264 92.064, 104 110.190, 104 111.763 C 104 112.469, 117.126 93.835, 117.721 92.285 C 118.212 91.006, 116.605 90.710, 114.279 91.653" stroke="none" fill="black" fill-rule="evenodd"/>
</svg>