<svg xmlns="http://www.w3.org/2000/svg" width="200" height="200" viewBox="0 0 200 200" version="1.1">
	<path d="M 115.321 14.750 C 77.139 14.990, 72.105 15.202, 71.821 16.582 C 71.635 17.487, 67.508 19.800, 62 22.087 C 52.972 25.835, 51.613 26.101, 34.651 27.448 C 24.834 28.227, 16.540 29.126, 16.221 29.446 C 15.901 29.765, 16.598 43.183, 17.769 59.263 C 19.662 85.250, 19.783 91.168, 18.859 112.500 C 17.834 136.182, 17.861 136.863, 20.919 163.926 C 22.624 179.010, 24.157 191.490, 24.325 191.658 C 24.790 192.123, 49.154 153.128, 49.698 151.048 C 49.959 150.050, 48.968 137.041, 47.495 122.139 C 46.023 107.237, 44.972 94.669, 45.159 94.212 C 45.347 93.754, 52.622 94.474, 61.327 95.812 C 70.322 97.195, 77.525 97.869, 78.013 97.373 C 78.485 96.893, 82.448 87.950, 86.818 77.500 C 93.022 62.665, 95.199 58.434, 96.747 58.198 C 99.422 57.791, 100 61.089, 100 76.752 L 100 89.255 117.167 88.877 L 134.334 88.500 142.086 108 L 149.838 127.500 134.808 142.069 L 119.777 156.638 127.361 168.319 C 131.533 174.744, 135.219 180, 135.555 180 C 136.980 180, 172.592 164.627, 173.512 163.614 C 174.170 162.890, 174.345 153.043, 174.012 135.500 C 173.731 120.650, 174.032 96.575, 174.681 82 L 175.862 55.500 169.348 35.750 C 165.765 24.887, 162.684 16, 162.500 16 C 162.316 16, 159.413 24.260, 156.048 34.356 L 149.930 52.713 136.215 53.365 C 128.672 53.724, 117.851 54.303, 112.170 54.651 L 101.840 55.284 102.170 52.417 C 102.485 49.681, 102.837 49.494, 109.930 48.312 C 116.719 47.180, 118.292 47.274, 128.155 49.403 C 140.167 51.996, 139.172 52.373, 140.458 44.750 C 141.212 40.279, 141.412 40.315, 128.500 42.596 C 119.490 44.188, 113.054 44.007, 105.750 41.958 C 102.019 40.911, 102 40.878, 102 35.595 L 102 30.285 108.147 29.642 C 111.527 29.289, 120.055 29, 127.097 29 L 139.900 29 150.442 22.250 C 160.146 16.037, 162.944 13.628, 159.750 14.239 C 159.063 14.371, 139.070 14.600, 115.321 14.750 M 105.033 17.750 C 90.476 17.906, 78.181 18.419, 77.709 18.891 C 77.234 19.366, 78.872 23.768, 81.391 28.783 L 85.929 37.819 91.014 38.910 C 99.177 40.660, 99 40.776, 99 33.658 L 99 27.316 119.059 26.695 L 139.117 26.074 145.036 22.478 C 148.291 20.501, 151.216 18.459, 151.536 17.941 C 151.889 17.371, 148.060 17.092, 141.809 17.233 C 136.139 17.361, 119.590 17.593, 105.033 17.750 M 63.037 24.542 C 52.818 28.838, 52.182 28.968, 35.787 30.131 L 19 31.321 19.052 36.411 C 19.081 39.210, 19.890 51.400, 20.849 63.500 C 22.315 81.984, 22.442 89.563, 21.646 110.920 C 20.775 134.296, 20.880 138.034, 22.944 157.420 C 24.178 169.014, 25.483 179.711, 25.844 181.191 C 26.439 183.630, 27.460 182.355, 36.750 167.576 C 43.563 156.738, 47.004 150.302, 47.012 148.384 C 47.019 146.798, 45.812 133.245, 44.329 118.267 C 42.847 103.288, 41.853 90.814, 42.121 90.546 C 42.389 90.278, 49.709 91.170, 58.387 92.529 C 67.065 93.888, 74.704 95, 75.362 95 C 76.019 95, 79.327 88.362, 82.712 80.250 C 86.097 72.137, 89.536 63.910, 90.355 61.968 L 91.845 58.436 81.672 58.761 C 67.332 59.219, 67.862 58.981, 65.078 66.210 C 63.746 69.670, 61.598 74.898, 60.305 77.829 L 57.955 83.158 45.728 71.465 C 39.002 65.034, 33.350 59.373, 33.167 58.886 C 32.983 58.399, 35.908 57.998, 39.667 57.995 C 43.425 57.992, 50.845 57.702, 56.155 57.350 C 64.781 56.779, 65.917 56.478, 66.804 54.532 C 67.637 52.703, 69.220 52.142, 76.648 51.043 C 89.607 49.126, 89.364 49.285, 86.677 44.495 L 84.438 40.504 69.469 37.282 C 61.236 35.510, 53.962 34.046, 53.304 34.030 C 52.467 34.009, 52.692 35.699, 54.054 39.657 C 55.124 42.768, 56 45.693, 56 46.157 C 56 46.620, 53.300 47, 50 47 C 45.333 47, 44 46.667, 44 45.500 C 44 44.417, 45.111 44, 48 44 C 50.200 44, 51.997 43.663, 51.992 43.250 C 51.988 42.837, 51.130 39.689, 50.085 36.254 L 48.186 30.009 50.343 30.518 C 57.187 32.135, 81.550 36.780, 81.813 36.518 C 82.138 36.195, 74.161 19.945, 73.739 20.072 C 73.607 20.111, 68.792 22.123, 63.037 24.542 M 152.600 52.700 C 145.758 73.227, 142.492 81.742, 141.595 81.398 C 140.610 81.020, 140.977 78.150, 143.201 68.829 C 144.786 62.185, 145.855 56.521, 145.576 56.243 C 144.946 55.613, 103.007 57.660, 102.312 58.355 C 102.034 58.633, 102.133 65.201, 102.533 72.951 L 103.259 87.042 106.379 86.550 C 108.096 86.279, 115.500 85.932, 122.834 85.779 L 136.168 85.500 144.614 107 L 153.060 128.500 138.494 142.500 C 130.483 150.200, 123.944 156.873, 123.964 157.329 C 123.984 157.785, 126.739 162.387, 130.088 167.556 L 136.176 176.954 139.838 175.428 C 141.852 174.588, 149.863 171.202, 157.640 167.902 L 171.780 161.903 171.262 132.701 C 170.976 116.601, 171.258 92.733, 171.889 79.500 L 173.035 55.500 167.682 39.506 L 162.329 23.512 152.600 52.700 M 89.689 44.475 C 91.250 47.748, 91.756 48.067, 94.958 47.798 C 97.692 47.568, 98.569 47.015, 98.804 45.371 C 99.055 43.611, 98.450 43.126, 95.304 42.568 C 93.212 42.197, 90.704 41.659, 89.731 41.373 C 88.046 40.878, 88.044 41.024, 89.689 44.475 M 102 45.368 C 102 46.613, 102.692 46.818, 105.250 46.331 C 109.197 45.580, 110.068 45, 107.248 45 C 106.102 45, 104.452 44.727, 103.582 44.393 C 102.550 43.997, 102 44.336, 102 45.368 M 130 44.888 C 125.925 45.616, 126.819 46.491, 132.616 47.450 C 136.236 48.048, 136.798 47.881, 137.273 46.065 C 137.860 43.820, 136.875 43.661, 130 44.888 M 95.252 50.705 C 93.375 51.067, 93.174 51.457, 94.037 53.069 C 95.595 55.980, 99 55.590, 99 52.500 C 99 51.125, 98.662 50.061, 98.250 50.136 C 97.838 50.211, 96.488 50.467, 95.252 50.705 M 84.500 52.510 C 83.950 52.704, 80.237 53.384, 76.250 54.022 C 72.263 54.659, 69 55.511, 69 55.915 C 69 56.548, 91.027 56.169, 91.774 55.523 C 91.924 55.393, 91.763 54.547, 91.417 53.643 C 90.841 52.142, 87.225 51.550, 84.500 52.510 M 43.663 60.907 L 38.826 61.500 47.962 69.867 C 52.987 74.469, 57.227 78.069, 57.384 77.867 C 57.956 77.131, 64.011 61.478, 64.005 60.750 C 63.999 59.904, 51.025 60.005, 43.663 60.907" stroke="none" fill="black" fill-rule="evenodd"/>
</svg>