<svg xmlns="http://www.w3.org/2000/svg" width="200" height="200" viewBox="0 0 200 200" version="1.1">
	<path d="M 77.938 22.750 C 80.071 28.663, 82.130 34.288, 82.515 35.250 C 83.032 36.544, 82.730 36.991, 81.357 36.964 C 77.994 36.899, 60.036 34.370, 59.561 33.894 C 59.305 33.638, 61.159 30.828, 63.681 27.648 C 66.622 23.941, 67.922 21.522, 67.304 20.904 C 66.686 20.286, 64.396 22.441, 60.920 26.910 C 55.579 33.779, 55.444 33.871, 51.648 33.296 C 46.680 32.543, 46.021 33.630, 46.068 42.500 L 46.105 49.500 49.303 45.584 C 51.061 43.430, 53.436 40.549, 54.579 39.182 L 56.658 36.696 70.078 38.397 C 77.459 39.333, 83.780 40.413, 84.126 40.799 C 84.471 41.185, 85.707 44.099, 86.872 47.276 L 88.992 53.053 86.248 54.096 C 84.612 54.718, 74.623 55.098, 61.504 55.036 C 42.200 54.946, 39.688 55.112, 41.002 56.393 C 41.826 57.197, 45.844 60.518, 49.930 63.775 L 57.360 69.696 70.851 63.848 C 78.271 60.632, 85.803 58, 87.589 58 C 90.685 58, 90.935 58.293, 92.917 64.250 C 94.061 67.688, 95.110 70.950, 95.248 71.500 C 95.402 72.111, 86.432 73.140, 72.187 74.147 C 59.365 75.052, 48.716 75.952, 48.523 76.147 C 48.331 76.341, 47.423 90, 46.506 106.500 L 44.839 136.500 34.170 158.349 L 23.500 180.198 22.854 171.849 C 22.498 167.257, 21.865 137.548, 21.447 105.828 L 20.686 48.156 31.632 34.328 C 44.433 18.156, 44.323 18.318, 43.051 17.531 C 42.510 17.197, 36.582 23.797, 29.876 32.196 L 17.684 47.467 18.471 101.484 C 19.448 168.513, 20.112 186.211, 21.668 186.725 C 22.345 186.950, 27.920 177.117, 34.945 163.306 L 47.054 139.500 48.962 109.148 C 50.011 92.455, 51.012 78.675, 51.185 78.527 C 52.259 77.607, 95.591 75.393, 96.124 76.231 C 96.468 76.770, 100.603 77.511, 105.313 77.878 C 110.023 78.244, 114.083 78.759, 114.335 79.022 C 114.587 79.285, 113.377 83.406, 111.646 88.181 L 108.500 96.861 101.220 92.302 C 94.662 88.195, 93.770 87.890, 92.220 89.224 C 91.274 90.039, 82.400 97.367, 72.500 105.510 C 62.600 113.653, 53.941 120.819, 53.258 121.435 C 52.289 122.309, 54.460 127.277, 63.131 144.028 C 69.245 155.838, 74.594 165.880, 75.018 166.345 C 75.442 166.809, 87.108 166.475, 100.941 165.602 L 126.092 164.015 149.145 169.075 C 161.825 171.858, 172.470 173.863, 172.802 173.531 C 173.134 173.200, 173.590 140.882, 173.816 101.714 C 174.222 31.250, 174.206 30.526, 172.300 33 C 171.241 34.375, 166.831 40.398, 162.502 46.384 L 154.629 57.268 146.565 56.640 C 142.129 56.295, 130.504 56.009, 120.731 56.006 L 102.962 56 103.605 53.250 C 104.446 49.654, 105.486 48.738, 111.639 46.178 C 116.576 44.124, 117.185 44.093, 127.139 45.397 C 132.838 46.143, 137.681 46.591, 137.902 46.392 C 138.328 46.008, 131.257 35, 130.583 35 C 130.365 35, 127.107 36.389, 123.343 38.087 C 118.025 40.487, 115.542 41.070, 112.201 40.705 C 109.836 40.446, 107.658 39.992, 107.361 39.695 C 106.897 39.231, 109.616 24.003, 110.266 23.428 C 110.395 23.314, 122.425 22.659, 137 21.973 C 161.277 20.831, 166.494 20.160, 164.741 18.408 C 164.208 17.874, 84.559 12.094, 76.780 12.024 L 74.060 12 77.938 22.750 M 81.976 25.934 C 84.189 32.112, 86 37.296, 86 37.454 C 86 37.612, 89.263 38.047, 93.250 38.421 C 97.237 38.795, 101.237 39.317, 102.139 39.582 C 103.487 39.979, 104.104 38.446, 105.626 30.917 C 107.813 20.096, 107.879 20.049, 120.815 19.900 C 137.866 19.705, 134.371 18.388, 113.500 17.146 C 101.950 16.458, 89.227 15.627, 85.226 15.299 L 77.953 14.703 81.976 25.934 M 49 38.559 C 49 41.340, 50.360 41.064, 52.030 37.944 C 52.902 36.315, 52.741 36, 51.035 36 C 49.518 36, 49 36.652, 49 38.559 M 125.570 40.037 L 121.639 41.823 126.257 42.516 C 132.271 43.418, 133.285 42.979, 131.201 40.376 C 129.527 38.286, 129.437 38.280, 125.570 40.037 M 164.652 48.045 C 161.435 52.492, 158.714 56.743, 158.604 57.492 C 158.494 58.240, 157.458 59.673, 156.302 60.676 C 155.146 61.679, 151.662 65.987, 148.561 70.250 C 143.114 77.735, 143.008 78, 145.461 78 L 148 78 148 114.393 C 148 144.663, 147.764 150.876, 146.600 151.323 C 145.564 151.721, 143.420 147.167, 138.350 133.805 L 131.500 115.749 126.235 112.223 C 123.339 110.284, 120.812 108.878, 120.619 109.098 C 120.427 109.319, 113.177 119.321, 104.508 131.324 C 86.220 156.647, 82.618 158.886, 94.019 137.844 C 97.996 130.505, 101.493 124.086, 101.789 123.580 C 102.086 123.074, 101.579 122.947, 100.664 123.299 C 99.749 123.650, 99 123.764, 99 123.552 C 99 123.340, 100.800 118.141, 103 112 C 105.200 105.859, 107 100.481, 107 100.050 C 107 99.343, 105.318 98.111, 96.890 92.646 L 94.280 90.953 75.390 106.632 C 65 115.255, 56.353 122.681, 56.173 123.135 C 55.994 123.588, 60.494 132.962, 66.173 143.966 L 76.500 163.973 81 163.936 C 83.475 163.916, 94.675 163.306, 105.889 162.581 L 126.278 161.263 148.377 166.060 C 160.532 168.698, 170.598 170.735, 170.746 170.588 C 170.894 170.440, 170.899 140.988, 170.757 105.139 L 170.500 39.959 164.652 48.045 M 88.056 42.149 C 88.087 42.892, 88.874 45.363, 89.806 47.640 L 91.500 51.780 96.787 49.640 C 100.501 48.137, 102.247 46.817, 102.657 45.203 C 102.978 43.940, 103.074 42.753, 102.870 42.566 C 102.667 42.378, 99.237 41.903, 95.250 41.511 C 89.463 40.941, 88.011 41.070, 88.056 42.149 M 105.682 44.387 C 105.307 45.362, 105.725 45.623, 107.090 45.266 C 109.790 44.560, 110.531 43, 108.166 43 C 107.092 43, 105.975 43.624, 105.682 44.387 M 96.250 52.745 C 91.926 54.897, 92.137 56.192, 96.750 55.810 C 99.762 55.561, 100.563 55.057, 100.820 53.250 C 101.192 50.625, 100.634 50.563, 96.250 52.745 M 52 62 C 54.475 64.167, 57.023 65.954, 57.661 65.970 C 58.807 66, 75.035 59.298, 75.892 58.442 C 76.135 58.199, 69.846 58.013, 61.917 58.030 L 47.500 58.060 52 62 M 94 58.322 C 94 58.499, 94.761 60.861, 95.691 63.572 L 97.382 68.500 98.506 64 C 99.465 60.160, 99.400 59.400, 98.065 58.820 C 96.381 58.089, 94 57.797, 94 58.322 M 100.778 66.528 C 99.955 70.668, 99.555 74.221, 99.890 74.424 C 100.226 74.627, 104.054 74.952, 108.397 75.146 L 116.295 75.500 117.980 70.510 C 119.862 64.940, 119.079 65.325, 137 61.179 L 145.500 59.213 123.888 59.107 L 102.276 59 100.778 66.528 M 135.784 64.305 L 122.068 67.353 120.612 71.627 L 119.155 75.901 123.328 76.403 C 125.622 76.680, 130.276 77.142, 133.670 77.429 L 139.840 77.953 145.903 69.476 C 149.237 64.814, 151.411 61.058, 150.733 61.128 C 150.055 61.199, 143.328 62.628, 135.784 64.305 M 117.127 81.190 C 112.780 92.733, 111.049 98.435, 111.713 99.023 C 112.146 99.406, 114.258 100.885, 116.407 102.309 L 120.314 104.898 129.087 92.712 C 133.912 86.010, 137.779 80.467, 137.680 80.395 C 137.581 80.322, 133.112 79.951, 127.748 79.571 C 118.186 78.893, 117.980 78.924, 117.127 81.190 M 138.268 84.750 C 133.857 90.453, 123 105.751, 123 106.264 C 123 106.513, 125.402 108.311, 128.337 110.261 C 133.673 113.803, 133.675 113.807, 138.963 127.902 C 141.872 135.656, 144.420 142, 144.626 142 C 144.832 142, 145 128.275, 145 111.500 C 145 82.113, 144.930 81, 143.084 81 C 142.030 81, 139.863 82.688, 138.268 84.750 M 106.723 109.750 C 103.527 118.782, 103.500 119, 105.583 119 C 106.454 119, 107.014 119.338, 106.828 119.750 C 106.641 120.162, 105.205 122.975, 103.637 126 C 102.068 129.025, 101.205 131.050, 101.718 130.500 C 103.928 128.131, 117.999 108.100, 117.988 107.338 C 117.974 106.437, 111.541 102, 110.247 102 C 109.817 102, 108.232 105.487, 106.723 109.750" stroke="none" fill="black" fill-rule="evenodd"/>
</svg>