<svg xmlns="http://www.w3.org/2000/svg" width="200" height="200" viewBox="0 0 200 200" version="1.1">
	<path d="M 125.426 22.264 L 103.352 33.303 76.168 25.493 C 61.217 21.197, 48.732 17.935, 48.424 18.243 C 48.116 18.551, 48.501 30.639, 49.280 45.106 L 50.696 71.410 39.226 88.940 C 32.918 98.581, 27.565 106.971, 27.330 107.584 C 27.047 108.320, 29.858 108.925, 35.638 109.369 C 40.443 109.738, 44.456 110.144, 44.557 110.270 C 44.658 110.397, 44.971 120.254, 45.253 132.175 L 45.766 153.849 35.483 169.675 C 29.828 178.379, 25.302 185.609, 25.426 185.742 C 25.550 185.876, 39.704 180.893, 56.879 174.670 L 88.107 163.356 91.101 156.912 L 94.095 150.468 86.074 133.159 C 81.662 123.640, 78.429 115.997, 78.890 116.175 C 79.351 116.354, 85.792 119.412, 93.202 122.971 L 106.676 129.441 123.588 155.145 C 132.890 169.283, 140.950 180.892, 141.500 180.945 C 143.608 181.146, 193.079 163.684, 192.311 163.011 C 191.865 162.620, 181.150 158.793, 168.500 154.507 C 155.850 150.221, 145.173 146.429, 144.774 146.080 C 144.374 145.732, 148.424 141.840, 153.774 137.432 L 163.500 129.417 167.250 119.939 C 169.313 114.726, 171 109.624, 171 108.601 C 171 105.584, 166.759 91, 165.881 91 C 165.438 91, 161.711 92.069, 157.597 93.375 C 148.764 96.180, 149 96.409, 149 85.017 L 149 77.198 153.496 75.349 C 159.587 72.844, 159.589 70.510, 153.500 71.345 L 149 71.962 149 59.915 C 149 52.789, 149.467 46.996, 150.143 45.732 C 151.001 44.129, 151.001 43.500, 150.143 43.214 C 149.515 43.005, 149 41.296, 149 39.417 C 149 36.667, 149.390 36, 151 36 C 152.100 36, 153 35.377, 153 34.617 C 153 33.856, 152.100 32.998, 151 32.710 C 149.168 32.231, 149 31.346, 149 22.153 C 149 16.634, 148.662 11.917, 148.250 11.672 C 147.838 11.426, 137.567 16.193, 125.426 22.264 M 127.443 24.428 L 110.500 32.855 128.250 32.928 L 146 33 146 24.500 C 146 19.825, 145.637 16, 145.193 16 C 144.749 16, 136.762 19.792, 127.443 24.428 M 51.325 30.778 C 51.667 36.125, 52.235 47.700, 52.586 56.500 L 53.224 72.500 42.566 88.871 C 36.704 97.875, 32.163 105.497, 32.475 105.808 C 32.786 106.120, 36.295 106.628, 40.271 106.937 L 47.500 107.500 47.768 131.405 L 48.037 155.309 39.976 167.779 C 35.543 174.638, 32.047 180.342, 32.208 180.456 C 32.369 180.570, 44.425 176.332, 59 171.038 L 85.500 161.413 88.289 155.884 L 91.077 150.355 82.039 131.027 C 77.067 120.397, 73 111.352, 73 110.927 C 73 110.502, 81.012 113.990, 90.804 118.680 L 108.607 127.206 125.015 152.175 C 134.039 165.907, 141.732 177.335, 142.111 177.569 C 142.490 177.803, 152.301 174.754, 163.913 170.794 C 175.779 166.748, 184.473 163.285, 183.763 162.889 C 183.068 162.501, 173.050 158.984, 161.500 155.074 C 149.950 151.164, 139.899 147.747, 139.164 147.481 C 138.366 147.192, 142.277 143.362, 148.871 137.972 C 154.945 133.009, 160.271 128.401, 160.707 127.733 C 161.143 127.065, 163.112 122.531, 165.081 117.658 L 168.663 108.797 166.718 101.649 C 165.649 97.717, 164.678 94.391, 164.561 94.257 C 164.443 94.123, 161.232 95.062, 157.424 96.343 C 150.853 98.554, 150.483 98.843, 150.173 102.023 C 149.888 104.936, 150.045 105.207, 151.379 104.100 C 152.222 103.401, 153.381 103.117, 153.954 103.472 C 154.544 103.836, 149.738 110.165, 142.857 118.083 C 136.181 125.766, 130.604 131.928, 130.464 131.776 C 130.324 131.624, 131.240 125.425, 132.500 118 C 133.760 110.575, 134.665 104.365, 134.512 104.201 C 134.359 104.036, 129.395 105.382, 123.481 107.192 L 112.727 110.484 96.614 102.125 C 75.629 91.240, 65.801 85.865, 66.188 85.484 C 66.359 85.315, 80.225 84.676, 97 84.063 C 124.461 83.061, 128.073 82.730, 133.250 80.742 C 138.839 78.596, 141.463 75.398, 136.750 76.477 C 128.562 78.350, 100.781 81.968, 99.669 81.306 C 97.445 79.983, 73 58.625, 73 58.006 C 73 57.692, 76.172 57.614, 80.048 57.833 C 87.027 58.227, 87.091 58.208, 86.548 55.866 C 85.825 52.742, 83.009 34.830, 83.004 33.320 C 83.002 32.670, 84.013 31.995, 85.250 31.820 C 86.497 31.642, 82.374 30.057, 76 28.263 C 69.675 26.482, 61.396 24.132, 57.602 23.041 L 50.703 21.056 51.325 30.778 M 86.339 37.630 C 86.643 39.208, 87.406 43.763, 88.036 47.750 C 88.665 51.737, 89.568 55, 90.042 55 C 91.003 55, 144.432 43.889, 144.617 43.651 C 144.682 43.568, 145.040 41.813, 145.413 39.750 L 146.091 36 128.795 35.972 C 119.283 35.957, 105.715 35.678, 98.644 35.352 L 85.788 34.760 86.339 37.630 M 138 47.910 C 136.625 48.317, 125.648 50.641, 113.607 53.075 L 91.714 57.500 102.607 58.123 C 108.598 58.465, 119.615 58.803, 127.089 58.873 C 142.331 59.015, 141.931 59.217, 143.549 50.589 C 144.281 46.688, 143.468 46.295, 138 47.910 M 144.251 63.917 C 142.993 72.393, 143.170 74.230, 145.062 72.338 C 145.647 71.753, 145.963 67.903, 145.795 63.405 L 145.500 55.500 144.251 63.917 M 80.523 61.037 C 80.772 61.440, 85.488 65.700, 91.003 70.502 L 101.029 79.235 120.131 76.376 C 141.103 73.237, 140.043 73.765, 141.272 65.859 L 141.839 62.219 118.169 61.602 C 105.151 61.262, 91.253 60.832, 87.285 60.645 C 83.317 60.458, 80.274 60.635, 80.523 61.037 M 143 76 C 142.175 76.533, 141.950 76.969, 142.500 76.969 C 143.050 76.969, 144.175 76.533, 145 76 C 145.825 75.467, 146.050 75.031, 145.500 75.031 C 144.950 75.031, 143.825 75.467, 143 76 M 142.255 80.250 C 141.077 81.737, 138.496 97.829, 139.305 98.638 C 139.613 98.947, 141.471 98.670, 143.433 98.022 L 147 96.845 147 87.922 C 147 79.861, 146.819 79, 145.122 79 C 144.090 79, 142.799 79.563, 142.255 80.250 M 132.500 83.999 C 129.114 85.548, 124.547 85.940, 102.750 86.553 C 88.588 86.952, 77 87.605, 77 88.006 C 77 88.407, 85.164 93.016, 95.142 98.248 L 113.283 107.760 124.383 104.044 L 135.483 100.328 136.680 93.414 C 138.105 85.182, 138.267 81.970, 137.250 82.084 C 136.838 82.131, 134.700 82.992, 132.500 83.999 M 141.500 101.316 C 139.850 101.923, 138.376 102.487, 138.225 102.569 C 137.688 102.859, 134.904 120.211, 135.234 121.203 C 135.419 121.758, 138.142 119.282, 141.285 115.702 C 146.465 109.802, 147 108.763, 147 104.596 C 147 99.651, 146.629 99.430, 141.500 101.316" stroke="none" fill="black" fill-rule="evenodd"/>
</svg>