<svg xmlns="http://www.w3.org/2000/svg" width="200" height="200" viewBox="0 0 200 200" version="1.1">
	<path d="M 138 18.014 C 128.925 19.563, 112.982 22.444, 102.572 24.415 C 92.162 26.387, 82.775 28, 81.713 28 C 80.094 28, 79.847 28.567, 80.190 31.500 L 80.598 35 75.858 35 C 73.251 35, 70.865 34.591, 70.556 34.091 C 70.247 33.591, 71.402 31.998, 73.123 30.550 C 74.843 29.102, 76.082 27.772, 75.876 27.594 C 75.024 26.860, 20.532 17.135, 20.037 17.629 C 19.742 17.924, 19.351 53.059, 19.170 95.706 L 18.839 173.245 31.670 164.461 C 38.726 159.629, 44.620 155.591, 44.768 155.487 C 44.915 155.383, 46.384 138.244, 48.033 117.399 C 49.682 96.555, 51.142 79.148, 51.277 78.718 C 51.411 78.287, 54.217 85.238, 57.511 94.164 C 62.961 108.932, 64.018 110.980, 69.250 116.908 C 72.412 120.491, 75 123.763, 75 124.178 C 75 124.593, 69.375 133.116, 62.500 143.119 C 55.625 153.121, 50.007 161.574, 50.015 161.902 C 50.030 162.506, 110.645 181.022, 112.500 180.990 C 113.050 180.981, 119.566 170.433, 126.981 157.551 C 134.395 144.668, 140.579 134.246, 140.723 134.390 C 140.867 134.534, 138.914 141.746, 136.383 150.416 C 133.851 159.086, 132.167 166.519, 132.640 166.933 C 133.612 167.784, 170.055 177.304, 170.471 176.816 C 171.773 175.286, 175.976 23, 174.716 23 C 174.421 23, 169.301 30.659, 163.340 40.021 L 152.500 57.041 145 56.534 C 140.875 56.255, 130.430 55.749, 121.788 55.410 L 106.076 54.793 108.995 49.009 C 112.630 41.808, 115.099 40.752, 126.425 41.553 C 130.866 41.868, 135.625 42.348, 137 42.620 C 139.209 43.058, 138.955 42.566, 134.825 38.397 L 130.151 33.677 124.223 35.839 C 120.962 37.027, 117.323 38, 116.135 38 C 114.052 38, 114.100 37.751, 117.500 31 C 119.439 27.150, 121.270 24, 121.569 24 C 122.307 24, 155.926 18.087, 158.750 17.461 C 162.165 16.703, 161.438 14.987, 157.750 15.099 C 155.963 15.153, 147.075 16.465, 138 18.014 M 22.494 20.839 C 21.681 21.652, 21.936 167.002, 22.750 166.974 C 23.163 166.960, 27.769 163.913, 32.986 160.204 L 42.471 153.460 45.674 112.980 C 47.435 90.716, 48.904 71.938, 48.938 71.250 C 48.972 70.563, 49.571 70, 50.268 70 C 51.002 70, 54.691 78.457, 59.018 90.060 C 66.265 109.491, 66.697 110.336, 72.772 116.995 L 79.043 123.870 66.516 142.096 C 59.626 152.120, 54.104 160.426, 54.244 160.554 C 55.527 161.717, 111.461 177.934, 112.062 177.317 C 113.626 175.711, 139 131.226, 139 130.090 C 139 129.452, 135.747 123.777, 131.772 117.479 C 126.216 108.676, 124.281 106.313, 123.409 107.264 C 122.784 107.944, 114.500 120.650, 105 135.500 C 86.786 163.970, 85.479 165.813, 84.322 164.655 C 83.923 164.256, 86.469 158.129, 89.980 151.040 L 96.364 138.150 93.943 127.825 C 92.278 120.727, 91.348 113.124, 90.968 103.500 C 90.617 94.629, 89.337 83.547, 87.474 73.250 L 84.535 57 79.911 57 C 76.745 57, 70.632 58.747, 60.520 62.543 C 52.398 65.591, 45.621 67.954, 45.461 67.793 C 45.300 67.632, 44.842 64.173, 44.441 60.106 L 43.713 52.711 60.244 53.213 C 72.837 53.595, 77.543 53.391, 80.001 52.357 C 83.155 51.031, 83.212 50.895, 82.557 46.251 C 81.398 38.042, 81.666 38.297, 73.416 37.524 L 65.893 36.819 58.514 42.923 C 53.567 47.016, 50.895 48.640, 50.408 47.852 C 49.989 47.173, 50.680 45.868, 52.044 44.763 C 57.111 40.661, 61.194 36.862, 60.855 36.567 C 60.660 36.397, 54.977 35.862, 48.228 35.379 C 40.940 34.857, 36.066 34.094, 36.228 33.500 C 36.554 32.303, 43.212 32.228, 55.660 33.283 C 64.474 34.029, 64.928 33.966, 67.655 31.620 L 70.489 29.182 66.995 28.544 C 65.073 28.193, 54.385 26.205, 43.244 24.126 C 32.103 22.046, 22.766 20.568, 22.494 20.839 M 101 27.567 C 82.400 30.811, 82.814 30.678, 83.185 33.285 C 83.475 35.322, 84.222 35.556, 92.500 36.198 C 97.450 36.582, 103.663 37.081, 106.307 37.307 L 111.114 37.717 114.057 31.887 C 115.676 28.681, 117 25.819, 117 25.529 C 117 24.806, 116.370 24.886, 101 27.567 M 163.707 44.262 L 155.913 56.500 158.957 56.813 C 163.632 57.295, 162.596 59.347, 156.115 62.445 C 150.795 64.988, 149.683 66.108, 144.542 74.106 C 141.413 78.972, 139.098 83.349, 139.397 83.833 C 139.696 84.317, 143.382 86.015, 147.588 87.606 C 151.794 89.198, 155.397 90.950, 155.595 91.500 C 155.793 92.050, 151.288 108.700, 145.582 128.500 C 139.877 148.300, 135.387 164.688, 135.605 164.918 C 136.042 165.377, 167.358 173.760, 167.733 173.518 C 169.006 172.695, 173.161 31.975, 171.911 32.012 C 171.685 32.019, 167.993 37.531, 163.707 44.262 M 126 38 C 124.865 38.734, 125.305 38.973, 127.809 38.985 C 129.764 38.994, 130.865 38.591, 130.500 38 C 129.724 36.744, 127.944 36.744, 126 38 M 84.399 40.900 C 84.729 42.605, 85.268 45.382, 85.595 47.071 C 86.050 49.419, 86.579 49.987, 87.845 49.487 C 88.755 49.127, 93.775 47.241, 99 45.296 C 104.225 43.350, 108.876 41.414, 109.335 40.994 C 109.794 40.574, 105.069 39.921, 98.835 39.543 C 92.601 39.166, 86.667 38.620, 85.649 38.329 C 84.050 37.873, 83.880 38.224, 84.399 40.900 M 97 48.893 C 91.775 50.804, 87.312 52.510, 87.083 52.684 C 86.106 53.426, 87.943 53.841, 95.173 54.510 L 102.847 55.221 104.982 51.036 C 106.156 48.734, 106.978 46.528, 106.808 46.135 C 106.639 45.741, 102.225 46.982, 97 48.893 M 47 59.492 C 47 65.056, 46.533 65.053, 60.624 59.575 L 69.500 56.124 60.500 56.049 C 55.550 56.007, 50.487 55.701, 49.250 55.370 C 47.149 54.807, 47 55.080, 47 59.492 M 89.628 70.750 C 92.573 87.880, 92.836 89, 93.907 89 C 94.385 89, 99.793 86.581, 105.923 83.624 L 117.070 78.248 106.535 74.014 C 100.741 71.685, 96 69.590, 96 69.357 C 96 69.124, 97.125 66.713, 98.500 64 C 99.875 61.287, 101 58.602, 101 58.033 C 101 57.423, 98.191 57, 94.132 57 L 87.264 57 89.628 70.750 M 102.055 62.882 C 100.738 65.694, 99.850 68.144, 100.080 68.328 C 100.311 68.512, 105 70.454, 110.500 72.644 L 120.500 76.626 134.375 69.965 C 146.234 64.272, 151.279 60.869, 149.842 59.532 C 149.654 59.358, 139.364 58.890, 126.975 58.492 L 104.450 57.770 102.055 62.882 M 135.021 72.624 C 129.807 75.100, 125.345 77.322, 125.104 77.563 C 124.413 78.253, 125.162 78.699, 130.637 80.857 L 135.774 82.882 138.695 78.191 C 140.302 75.611, 142.429 72.263, 143.423 70.750 C 144.417 69.237, 145.066 68.028, 144.865 68.062 C 144.664 68.096, 140.234 70.149, 135.021 72.624 M 109.750 84.756 C 104.388 87.276, 100 89.635, 100 89.999 C 100 90.363, 104.838 92.129, 110.750 93.923 C 116.662 95.718, 122.228 97.835, 123.117 98.627 C 124.565 99.919, 125.167 99.377, 128.908 93.411 C 131.204 89.749, 133.176 86.350, 133.291 85.857 C 133.501 84.955, 122.366 79.937, 120.500 80.093 C 119.950 80.139, 115.112 82.237, 109.750 84.756 M 131.035 95.040 L 125.877 103.080 134.080 116.066 C 138.591 123.208, 142.388 128.927, 142.519 128.776 C 142.873 128.364, 151.784 96.803, 152.168 94.600 C 152.433 93.087, 151.095 92.120, 145.598 89.850 C 141.802 88.283, 138.133 87, 137.444 87 C 136.756 87, 133.872 90.618, 131.035 95.040 M 93.667 92.667 C 91.819 94.514, 93.129 111.125, 96.197 124.741 L 99.405 138.981 109.002 124.241 C 121.683 104.762, 122.401 103.487, 121.704 101.672 C 121.341 100.725, 116.069 98.536, 108.191 96.060 C 93.934 91.579, 94.599 91.734, 93.667 92.667" stroke="none" fill="black" fill-rule="evenodd"/>
</svg>