<svg xmlns="http://www.w3.org/2000/svg" width="200" height="200" viewBox="0 0 200 200" version="1.1">
	<path d="M 117.217 19.751 L 73.934 28.272 50.217 22.087 C 37.173 18.686, 25.771 15.688, 24.881 15.426 C 23.505 15.020, 22.560 18.570, 18.587 39.080 C 14.454 60.419, 13.989 64.155, 14.568 71.356 C 14.928 75.835, 15.510 102.821, 15.862 131.325 L 16.500 183.150 28.836 165.575 C 35.621 155.909, 41.471 148.010, 41.836 148.023 C 42.201 148.035, 47.361 149.361, 53.302 150.968 C 61.111 153.080, 64.222 153.559, 64.527 152.695 C 65.233 150.694, 71 106.586, 71 103.187 C 71 101.440, 68.043 90.066, 64.429 77.911 C 60.815 65.757, 58.082 55.228, 58.356 54.514 C 58.631 53.799, 65.180 51.106, 72.909 48.530 L 86.964 43.846 94.664 45.439 C 98.899 46.315, 102.504 47.171, 102.675 47.342 C 102.846 47.513, 99.557 51.444, 95.365 56.076 C 91.174 60.709, 84.842 67.740, 81.295 71.699 L 74.846 78.899 77.033 110.199 C 78.236 127.415, 79.350 141.642, 79.509 141.816 C 79.824 142.159, 116.050 132.347, 116.412 131.821 C 116.534 131.644, 120.607 125.287, 125.464 117.694 L 134.296 103.887 133.751 83.521 C 133.213 63.411, 133.235 63.128, 135.435 61.061 L 137.664 58.967 140.332 63.869 L 143 68.771 142.910 99.135 L 142.821 129.500 127.982 143 C 119.820 150.425, 113.228 156.851, 113.332 157.281 C 113.551 158.186, 150.126 188, 151.018 188 C 151.346 188, 156.421 176.187, 162.296 161.750 L 172.977 135.500 170.853 105 L 168.728 74.500 173.770 45.500 C 176.543 29.550, 178.727 16.410, 178.623 16.301 C 178.520 16.191, 169.485 24.642, 158.547 35.080 C 146.247 46.818, 138.303 53.703, 137.726 53.126 C 137.214 52.614, 134.370 47.988, 131.406 42.847 L 126.019 33.500 131.613 33.197 C 136.832 32.914, 138.204 32.227, 152.138 22.908 C 160.350 17.415, 166.802 12.489, 166.476 11.961 C 165.495 10.373, 162.244 10.888, 117.217 19.751 M 120.554 21.955 C 90.308 27.942, 87.134 28.747, 91.443 29.337 C 98.686 30.330, 117.513 30.136, 120.399 29.038 C 121.865 28.481, 123.161 28.452, 123.480 28.968 C 123.784 29.459, 126.520 30.171, 129.562 30.551 L 135.093 31.242 145.797 23.967 C 158.610 15.257, 158.960 14.966, 156.450 15.118 C 155.377 15.182, 139.224 18.259, 120.554 21.955 M 21.104 40.556 L 16.939 62.112 18.012 97.806 C 18.602 117.438, 19.179 142.659, 19.293 153.854 L 19.500 174.208 29.306 160.129 C 34.699 152.385, 39.515 145.800, 40.008 145.495 C 40.501 145.190, 45.480 146.101, 51.071 147.518 C 56.663 148.936, 61.522 149.812, 61.869 149.466 C 62.216 149.120, 63.904 138.411, 65.620 125.669 L 68.740 102.500 61.843 79 C 58.050 66.075, 54.720 54.765, 54.443 53.867 C 54.038 52.555, 56.407 51.373, 66.465 47.867 C 73.355 45.465, 78.994 43.237, 78.996 42.916 C 79.003 41.860, 53.906 37.691, 53.090 38.612 C 51.409 40.509, 48.770 75.859, 48.264 103.250 C 47.835 126.423, 47.471 132, 46.385 132 C 44.566 132, 44.500 131.592, 40.974 98.500 C 38.469 74.994, 37.998 67.132, 38.486 57 C 38.818 50.125, 39.314 43.038, 39.590 41.250 C 40.017 38.479, 39.789 38, 38.045 38 C 35.416 38, 35.382 35.974, 38 35.290 C 39.100 35.002, 40 34.238, 40 33.591 C 40 32.834, 41.861 32.430, 45.220 32.457 L 50.440 32.500 51.049 28.831 L 51.659 25.162 39.356 22.081 C 32.589 20.386, 26.651 19, 26.161 19 C 25.670 19, 23.395 28.700, 21.104 40.556 M 156.750 40.349 C 147.537 49.285, 140 56.891, 140 57.254 C 140 57.616, 141.350 60.202, 143 63 L 146 68.088 146 98.942 L 146 129.796 131.750 143.148 C 123.912 150.492, 117.500 156.782, 117.500 157.126 C 117.500 158.327, 149.506 183.845, 150.172 183.175 C 150.542 182.804, 155.184 171.956, 160.488 159.069 L 170.131 135.637 168.010 105.069 L 165.890 74.500 170.308 49.250 C 172.738 35.362, 174.450 24.023, 174.113 24.052 C 173.776 24.080, 165.963 31.414, 156.750 40.349 M 53.558 28.626 C 53.197 30.061, 53.097 31.430, 53.334 31.668 C 53.572 31.905, 56.856 31.548, 60.633 30.874 L 67.500 29.649 63.500 28.478 C 54.357 25.802, 54.266 25.803, 53.558 28.626 M 64 33.109 C 59.325 34.004, 56.175 34.985, 57 35.290 C 57.825 35.595, 64.800 36.985, 72.500 38.378 L 86.500 40.912 97.500 37.074 L 108.500 33.237 101 32.633 C 84.838 31.332, 72.460 31.491, 64 33.109 M 104.500 37.490 C 97.900 39.899, 92.725 41.947, 93 42.041 C 94.349 42.501, 131.536 49.635, 131.768 49.478 C 131.916 49.378, 129.897 45.630, 127.282 41.148 C 121.495 31.232, 121.600 31.249, 104.500 37.490 M 44.381 36.689 C 42.361 37.085, 42.229 37.876, 41.538 53.663 C 40.963 66.777, 41.195 73.789, 42.650 87.361 C 44.232 102.107, 44.581 103.802, 45.156 99.500 C 45.524 96.750, 45.864 90.146, 45.912 84.825 C 45.961 79.504, 46.905 66.709, 48.012 56.391 C 49.616 41.427, 49.768 37.470, 48.762 36.832 C 48.068 36.391, 47.275 36.085, 47 36.151 C 46.725 36.218, 45.547 36.460, 44.381 36.689 M 102.691 67.078 C 101.752 78.126, 101.243 87.584, 101.559 88.096 C 101.875 88.608, 108.642 82.845, 116.595 75.290 L 131.056 61.554 130.400 57.027 C 130.039 54.537, 129.664 52.400, 129.566 52.278 C 129.469 52.155, 124.464 51.121, 118.444 49.978 C 112.425 48.836, 106.802 47.697, 105.949 47.446 C 104.621 47.057, 104.151 49.892, 102.691 67.078 M 133 55.492 C 133 59.122, 133.126 59.302, 134.622 57.807 C 136.117 56.311, 136.117 56.005, 134.622 53.870 C 133.009 51.567, 133 51.576, 133 55.492 M 92 63.724 C 87.325 68.891, 82.206 74.683, 80.624 76.596 L 77.747 80.073 79.392 104.787 C 80.297 118.379, 81.286 131.562, 81.590 134.082 L 82.141 138.664 98.326 134.207 L 114.511 129.749 122.777 116.812 L 131.043 103.875 130.771 84.722 L 130.500 65.569 117.377 78.285 C 106.253 89.064, 103.778 91, 101.127 91 C 99.286 91, 98.005 90.486, 98.012 89.750 C 98.019 89.063, 98.699 80.893, 99.523 71.594 C 100.348 62.296, 100.905 54.608, 100.761 54.510 C 100.618 54.411, 96.675 58.558, 92 63.724" stroke="none" fill="black" fill-rule="evenodd"/>
</svg>