<svg xmlns="http://www.w3.org/2000/svg" width="200" height="200" viewBox="0 0 200 200" version="1.1">
	<path d="M 132.196 18.368 L 124.891 23.487 102.696 25.044 L 80.500 26.601 65.527 22.857 C 57.292 20.798, 50.405 19.262, 50.223 19.444 C 50.041 19.626, 50.815 21.288, 51.942 23.137 C 53.070 24.987, 53.994 26.973, 53.996 27.552 C 53.999 28.208, 46.765 29.076, 34.776 29.859 C 24.203 30.549, 15.327 31.340, 15.051 31.616 C 14.538 32.129, 24.662 104.995, 25.340 105.674 C 25.546 105.880, 41.796 106.336, 61.451 106.687 L 97.186 107.326 93.082 99.163 C 87.644 88.347, 90.006 88.417, 96.244 99.257 L 100.988 107.500 95.494 107.800 C 91.257 108.031, 90 108.465, 90 109.695 C 90 111.047, 90.954 111.200, 96.280 110.703 L 102.560 110.116 105.337 115.058 L 108.115 120 82.141 120 C 67.034 120, 56.027 120.389, 55.833 120.930 C 55.650 121.441, 48.979 122.229, 41.010 122.680 L 26.520 123.500 48.755 143.421 C 60.985 154.378, 70.880 163.418, 70.745 163.511 C 70.610 163.603, 60.713 167.638, 48.750 172.478 C 24.635 182.234, 21.506 184.627, 34.250 183.568 C 38.238 183.237, 62.650 181.854, 88.500 180.495 C 114.350 179.136, 137.354 177.811, 139.620 177.549 C 142.795 177.183, 166.875 166.458, 168.765 164.569 C 168.970 164.363, 163.972 154.364, 157.658 142.348 C 149.838 127.467, 145.802 118.641, 145.001 114.671 C 144.355 111.465, 143.987 108.680, 144.185 108.482 C 144.383 108.284, 150.272 107.804, 157.272 107.415 C 165.861 106.938, 170 106.330, 170 105.547 C 170 104.908, 169.100 99.487, 168 93.500 C 165.540 80.113, 165.311 59.101, 167.500 47.662 C 169.875 35.251, 170.589 36.581, 155.303 24.935 C 147.770 19.196, 141.133 14.218, 140.553 13.874 C 139.974 13.530, 136.213 15.552, 132.196 18.368 M 134.500 20.141 L 130.500 23.226 135.750 22.760 C 141.335 22.264, 141.697 22.498, 139.607 25.251 C 138.639 26.527, 136.198 27.178, 130.613 27.650 C 122.956 28.297, 122.935 28.307, 109.724 37.382 C 101.345 43.138, 97.127 46.588, 98.211 46.799 C 99.152 46.982, 112.022 46.427, 126.811 45.566 C 159.384 43.669, 160 43.663, 160 45.258 C 160 46.114, 147.325 49.076, 120.423 54.508 C 98.656 58.904, 80.373 62.787, 79.795 63.138 C 79.217 63.489, 79.092 64.340, 79.518 65.030 C 80.118 66, 86.394 66.194, 107.308 65.891 C 125.934 65.622, 134.435 65.832, 134.685 66.570 C 134.897 67.199, 125.654 70.260, 112.273 73.993 C 99.748 77.487, 89.354 80.451, 89.176 80.580 C 88.711 80.916, 91.840 86.795, 92.743 87.280 C 93.159 87.504, 103.337 86.724, 115.359 85.547 C 134.934 83.630, 137.281 83.567, 137.816 84.953 C 138.144 85.804, 139.363 90.550, 140.525 95.500 L 142.637 104.500 154.411 104.324 C 160.887 104.227, 166.367 103.966, 166.589 103.745 C 166.810 103.523, 166.094 98.453, 164.996 92.478 C 162.576 79.304, 162.368 61.104, 164.500 49 C 165.323 44.325, 165.996 39.600, 165.994 38.500 C 165.992 37.111, 162.063 33.520, 153.140 26.750 C 146.072 21.387, 139.887 17.013, 139.395 17.028 C 138.903 17.043, 136.700 18.444, 134.500 20.141 M 56.115 25.050 C 57.389 26.982, 58.740 27.566, 62.505 27.810 C 69.569 28.270, 70.052 26.554, 63.283 25.039 C 60.103 24.327, 56.825 23.487, 56 23.172 C 54.725 22.685, 54.742 22.966, 56.115 25.050 M 106 29.656 C 104.075 29.841, 99.696 30.254, 96.269 30.574 L 90.039 31.155 87.965 38.328 C 86.824 42.272, 85.705 46.063, 85.477 46.750 C 84.370 50.091, 90.796 47.238, 102.100 39.369 C 108.920 34.622, 114.927 30.347, 115.450 29.869 C 116.380 29.018, 113.351 28.950, 106 29.656 M 72.778 32.394 L 61.056 33.500 65.585 41.172 L 70.114 48.844 75.807 48.295 C 78.938 47.993, 81.788 47.466, 82.139 47.123 C 82.491 46.780, 83.529 43.800, 84.446 40.500 C 85.363 37.200, 86.343 33.712, 86.624 32.750 C 86.937 31.678, 86.624 31.056, 85.817 31.144 C 85.093 31.223, 79.225 31.785, 72.778 32.394 M 27.734 32.997 C 22.912 33.383, 18.676 33.991, 18.318 34.348 C 17.961 34.705, 19.838 50.261, 22.488 68.917 L 27.307 102.836 36.404 103.413 C 51.083 104.342, 92 104.570, 92 103.721 C 92 103.293, 90.637 100.242, 88.970 96.941 L 85.940 90.939 81.220 91.498 C 74.857 92.251, 35.822 95.988, 34.250 95.995 C 33.563 95.998, 33 95.406, 33 94.679 C 33 93.809, 40.758 91.205, 55.750 87.043 C 68.263 83.569, 78.876 80.390, 79.335 79.978 C 79.794 79.567, 79.397 77.735, 78.453 75.909 C 77.276 73.633, 77.092 72.469, 77.868 72.211 C 78.491 72.003, 79 71.155, 79 70.326 C 79 69.012, 76.749 68.911, 61.500 69.542 C 45.681 70.197, 44 70.110, 44 68.633 C 44 67.735, 44.163 67, 44.362 67 C 44.840 67, 68.867 62.171, 71.679 61.510 L 73.858 60.998 71.283 56.391 L 68.708 51.784 58.354 52.167 C 51.696 52.414, 48.003 52.185, 48.008 51.525 C 48.015 50.493, 49.576 39.858, 50.469 34.750 L 50.950 32 43.725 32.147 C 39.751 32.228, 32.555 32.611, 27.734 32.997 M 52.105 41.650 C 51.479 45.858, 51.087 49.415, 51.234 49.555 C 51.380 49.695, 54.932 49.515, 59.127 49.155 L 66.753 48.500 62.627 41.283 C 59.170 35.237, 58.073 34.060, 55.872 34.033 C 53.357 34.001, 53.194 34.332, 52.105 41.650 M 108 49.212 L 91.500 50.113 85.690 54.133 L 79.881 58.153 80.552 54.577 L 81.223 51 76.611 51 C 74.075 51, 72 51.276, 72 51.614 C 72 53.654, 76.644 60, 78.136 60 C 79.854 60, 133.497 49.273, 135.500 48.529 C 137.054 47.952, 126.089 48.224, 108 49.212 M 67 65.338 C 61.869 66.365, 61.733 66.463, 64.974 66.800 C 69.720 67.292, 77.170 66.084, 76.460 64.936 C 75.770 63.819, 74.270 63.883, 67 65.338 M 106.358 69.042 C 105.785 69.615, 100.745 70.796, 95.158 71.668 C 89.571 72.540, 85 73.560, 85 73.935 C 85 74.311, 85.573 75.401, 86.273 76.359 C 87.463 77.986, 88.689 77.774, 105.023 73.119 L 122.500 68.138 114.950 68.069 C 110.797 68.031, 106.931 68.469, 106.358 69.042 M 82.550 69.906 C 83.083 70.415, 85.254 70.465, 87.500 70.021 L 91.500 69.230 86.550 69.115 C 83.564 69.046, 81.977 69.359, 82.550 69.906 M 81 74.618 C 81 75.168, 81.661 76.491, 82.468 77.559 C 83.276 78.626, 83.936 79.050, 83.936 78.500 C 83.936 77.950, 83.276 76.626, 82.468 75.559 C 81.661 74.491, 81 74.068, 81 74.618 M 85.033 82.203 C 84.967 83.600, 87.341 88, 88.161 88 C 88.622 88, 89 87.600, 89 87.111 C 89 86.043, 85.081 81.194, 85.033 82.203 M 66.261 86.788 C 59.530 88.750, 54.211 90.545, 54.442 90.776 C 55.255 91.588, 84 88.669, 84 87.775 C 84 85.705, 81.811 83.008, 80.215 83.110 C 79.272 83.171, 72.993 84.826, 66.261 86.788 M 116.500 88.147 C 106.600 89.125, 97.530 90.054, 96.343 90.212 C 94.309 90.484, 94.456 90.952, 98.944 98.500 L 103.700 106.500 121.600 106.164 C 131.445 105.979, 139.620 105.709, 139.767 105.564 C 140.219 105.116, 135.881 87.536, 135.169 86.934 C 134.801 86.623, 126.400 87.169, 116.500 88.147 M 121.500 109.240 C 113.250 109.757, 106.366 110.310, 106.203 110.470 C 106.039 110.630, 107.149 112.820, 108.668 115.336 C 111.302 119.696, 111.667 119.924, 116.466 120.205 C 122.549 120.561, 123.153 122.380, 117.330 122.804 L 113.160 123.107 119.032 133.054 C 122.261 138.524, 124.551 143, 124.120 143 C 123.689 143, 110.034 138.950, 93.775 134 L 64.213 125 50.856 125.070 C 43.510 125.109, 36.688 125.461, 35.696 125.852 C 34.243 126.425, 38.019 130.248, 55.044 145.444 L 76.196 164.324 57.348 171.912 C 42.772 177.780, 39.161 179.575, 41.416 179.832 C 43.020 180.015, 66.195 178.974, 92.916 177.519 L 141.500 174.874 153.250 169.253 C 159.713 166.162, 165 163.336, 165 162.973 C 165 162.611, 160.289 153.356, 154.532 142.407 C 147.149 128.367, 143.558 120.363, 142.349 115.250 C 140.879 109.033, 140.340 108.021, 138.567 108.151 C 137.430 108.234, 129.750 108.724, 121.500 109.240 M 86 123.956 L 72.500 124.500 78 126.213 C 81.025 127.155, 91.473 130.361, 101.217 133.336 C 121.097 139.407, 119.951 139.842, 113.302 128.750 L 109.855 123 104.678 123.206 C 101.830 123.319, 93.425 123.656, 86 123.956" stroke="none" fill="black" fill-rule="evenodd"/>
</svg>