<svg xmlns="http://www.w3.org/2000/svg" width="200" height="200" viewBox="0 0 200 200" version="1.1">
	<path d="M 86.366 16.685 L 84.500 20.219 75.500 19.568 C 70.550 19.210, 64.925 18.704, 63 18.444 L 59.500 17.972 39.500 44.592 C 17.302 74.138, 17.653 73.629, 18.490 74.984 C 18.820 75.517, 30.883 70.059, 45.377 62.818 L 71.666 49.684 78.583 36.845 C 82.387 29.783, 85.647 24.444, 85.826 24.981 C 86.005 25.517, 85.193 31.928, 84.020 39.228 C 82.357 49.577, 80.193 72.533, 80.021 81.636 C 80.004 82.584, 67.889 87.978, 27.055 105.219 L 22.611 107.096 33.055 112.888 C 41.830 117.754, 43.601 119.146, 44.132 121.590 C 44.479 123.191, 44.817 137.887, 44.882 154.250 C 44.947 170.613, 45.387 184, 45.860 184 C 46.333 184, 58.595 182.176, 73.110 179.947 L 99.500 175.895 135.750 176.596 C 155.688 176.982, 172 177.047, 172 176.741 C 172 175.268, 152.527 161.710, 145.098 158.010 L 136.697 153.825 151.458 147.199 C 159.576 143.555, 165.805 140.435, 165.299 140.266 C 164.793 140.098, 156.780 138.243, 147.491 136.144 L 130.603 132.328 150.551 127.588 C 175.593 121.637, 174 122.123, 174 120.433 C 174 119.645, 173.662 118.993, 173.250 118.985 C 172.838 118.977, 162.825 118.084, 151 117 C 139.175 115.916, 128.413 115.023, 127.083 115.015 C 125.754 115.007, 124.898 114.769, 125.181 114.486 C 125.614 114.052, 142.596 108.898, 173.250 99.897 C 177.721 98.584, 180 97.406, 180 96.408 C 180 95.172, 178.963 95.005, 174.250 95.480 C 167.862 96.124, 131.186 99, 129.360 99 C 128.609 99, 129.378 95.032, 131.539 87.750 C 135.656 73.882, 139.756 47.085, 137.934 45.959 C 137.034 45.403, 137.293 44.397, 138.926 42.103 C 140.142 40.397, 141.450 39, 141.833 39 C 142.216 39, 151.232 43.515, 161.868 49.034 C 172.504 54.553, 181.722 59.166, 182.353 59.284 C 182.984 59.403, 183.500 58.936, 183.500 58.246 C 183.500 56.440, 134.983 17.893, 133.704 18.683 C 133.068 19.076, 134.230 20.739, 136.567 22.780 L 140.500 26.215 135.500 25.605 C 132.750 25.269, 123.075 24.312, 114 23.477 C 88.608 21.143, 89.671 21.413, 90.311 17.471 C 91.081 12.725, 88.708 12.252, 86.366 16.685 M 42.243 45.530 C 32.202 58.988, 24.211 70, 24.487 70 C 24.763 70, 35.032 64.984, 47.307 58.854 L 69.626 47.707 76.195 35.604 L 82.763 23.500 79.132 22.878 C 77.134 22.536, 72.125 21.987, 68 21.658 L 60.500 21.060 42.243 45.530 M 88.990 24.633 C 88.984 25.110, 87.895 32.475, 86.569 41 C 85.243 49.525, 83.844 62.833, 83.460 70.573 L 82.762 84.647 55.891 95.990 L 29.021 107.334 31.760 108.981 C 33.267 109.886, 37.245 112.128, 40.599 113.961 L 46.698 117.296 47.261 148.727 C 47.571 166.014, 48.001 180.334, 48.217 180.550 C 48.433 180.766, 60.060 179.217, 74.055 177.109 L 99.500 173.275 132 173.690 L 164.500 174.106 162 171.989 C 157.451 168.138, 149.622 163.326, 140.250 158.623 C 135.162 156.069, 131 153.832, 131 153.651 C 131 153.470, 136.908 150.693, 144.129 147.481 C 154.019 143.080, 156.787 141.465, 155.349 140.933 C 154.299 140.545, 146.816 138.751, 138.720 136.947 C 129.251 134.837, 124 133.216, 124 132.403 C 124 131.585, 131.097 129.439, 144.088 126.330 C 167.397 120.751, 167.718 121.096, 136.750 118.444 C 112.845 116.397, 111.238 115.511, 124.250 111.558 C 166.916 98.595, 165.774 98.986, 159.500 99.500 C 138.934 101.185, 125.670 102.004, 125.278 101.611 C 125.029 101.363, 126.439 95.611, 128.410 88.830 C 131.657 77.658, 136.531 51.093, 135.759 48.777 C 135.586 48.258, 130.030 56.534, 123.412 67.167 C 112.890 84.071, 110.748 86.911, 106.361 89.774 L 101.344 93.048 96.560 121.274 C 93.929 136.798, 91.539 150.769, 91.249 152.320 L 90.722 155.141 80.611 154.445 C 75.050 154.062, 70.306 153.574, 70.068 153.359 C 69.830 153.144, 72.141 150.736, 75.203 148.007 L 80.769 143.046 81.945 132.773 C 82.592 127.123, 83.345 121.306, 83.619 119.847 C 84.061 117.489, 83.337 116.657, 77.090 112.347 C 73.225 109.681, 70.054 107.275, 70.043 107 C 70.032 106.725, 76.074 103.419, 83.470 99.653 C 90.865 95.887, 97.360 92.271, 97.902 91.618 C 98.444 90.965, 101.170 76.947, 103.961 60.466 C 106.752 43.985, 109.252 29.523, 109.517 28.329 C 109.902 26.591, 109.450 26.052, 107.249 25.623 C 101.388 24.480, 88.999 23.808, 88.990 24.633 M 115 26.403 C 115 27.079, 134.325 43, 135.145 43 C 135.541 43, 136.128 42.212, 136.449 41.250 C 136.770 40.288, 137.827 38.471, 138.798 37.214 L 140.563 34.928 155.531 42.608 C 163.764 46.832, 170.050 49.839, 169.500 49.291 C 168.950 48.742, 163.100 44.005, 156.500 38.763 L 144.500 29.233 132 28.072 C 125.125 27.433, 118.487 26.697, 117.250 26.436 C 116.013 26.175, 115 26.161, 115 26.403 M 112 28.907 C 112 29.539, 109.757 43.175, 107.015 59.210 C 104.273 75.244, 102.177 88.510, 102.356 88.689 C 102.535 88.868, 104.195 87.995, 106.045 86.749 C 108.329 85.210, 113.196 78.390, 121.204 65.508 C 127.692 55.072, 133 46.259, 133 45.924 C 133 45.588, 130.637 43.351, 127.750 40.953 C 124.862 38.555, 120.138 34.605, 117.250 32.175 C 114.362 29.745, 112 28.274, 112 28.907 M 86.673 101.029 C 80.718 104.149, 75.856 107.029, 75.868 107.428 C 75.880 107.827, 78.408 109.957, 81.485 112.161 C 85.346 114.926, 86.937 116.685, 86.615 117.834 C 86.358 118.750, 85.578 125.038, 84.882 131.807 L 83.615 144.115 79.906 147.466 C 76.410 150.625, 76.320 150.851, 78.348 151.395 C 79.532 151.713, 82.306 151.979, 84.514 151.986 L 88.529 152 93.308 123.877 C 95.937 108.410, 97.955 95.665, 97.794 95.555 C 97.632 95.445, 92.628 97.909, 86.673 101.029" stroke="none" fill="black" fill-rule="evenodd"/>
</svg>