<svg xmlns="http://www.w3.org/2000/svg" width="200" height="200" viewBox="0 0 200 200" version="1.1">
	<path d="M 126 21.028 C 110.325 23.677, 89.400 27.037, 79.500 28.496 C 69.600 29.955, 60.571 31.328, 59.435 31.547 C 58.299 31.766, 55.638 34.460, 53.521 37.535 C 50.753 41.553, 45.151 46.667, 33.585 55.731 C 13.771 71.260, 15.399 69.799, 16.589 70.989 C 17.241 71.641, 28.297 68.915, 49.038 62.989 C 66.341 58.045, 80.836 54, 81.249 54 C 85.989 54, 71.799 61.086, 58.250 65.486 C 47.479 68.983, 47.127 70.960, 57.250 71.100 C 70.668 71.284, 70.665 71.249, 58.158 82.009 C 47.653 91.047, 45.255 94, 48.421 94 C 49.202 94, 58.396 90.863, 68.853 87.028 C 92.924 78.201, 92.117 78.058, 97.970 92.163 C 100.261 97.683, 101.992 102.338, 101.817 102.509 C 101.643 102.680, 86.777 101.421, 68.783 99.711 C 50.788 98, 35.758 96.909, 35.382 97.285 C 34.804 97.863, 39.605 162.983, 40.270 163.580 C 40.396 163.694, 51.975 167.174, 66 171.314 L 91.500 178.842 126.500 181.487 C 145.750 182.941, 164.153 184.398, 167.395 184.723 L 173.291 185.315 162.712 171.281 L 152.133 157.248 142.555 158.990 C 134.035 160.540, 133.117 160.560, 134.239 159.170 C 134.932 158.311, 144.848 146.807, 156.273 133.607 C 171.386 116.145, 176.675 109.398, 175.682 108.842 C 174.932 108.422, 167.159 105.538, 158.409 102.434 C 149.659 99.329, 141.949 96.487, 141.276 96.119 C 140.432 95.657, 143.270 90.075, 150.443 78.094 C 160.369 61.515, 161.238 60.401, 169.861 53.184 C 174.826 49.028, 178.662 45.262, 178.385 44.814 C 178.108 44.366, 176.559 44, 174.941 44 C 171.362 44, 171.283 42.765, 174.526 37.500 C 175.881 35.300, 176.992 33.199, 176.995 32.831 C 176.998 32.464, 166.537 32.381, 153.750 32.647 L 130.500 33.131 144.270 25.877 C 156.783 19.285, 159.876 16.757, 155.917 16.357 C 155.138 16.278, 141.675 18.380, 126 21.028 M 118.500 25.051 C 102.550 27.710, 82.646 30.892, 74.270 32.121 L 59.039 34.357 55.126 39.929 C 52.469 43.712, 46.880 48.870, 37.714 56 C 30.290 61.775, 24.338 66.633, 24.487 66.796 C 24.637 66.959, 37.395 63.472, 52.839 59.046 C 68.283 54.621, 81.564 51, 82.352 51 C 83.141 51, 84.031 51.639, 84.331 52.419 C 84.745 53.500, 88.291 52.050, 99.188 46.347 C 115.250 37.939, 116.607 37, 112.700 37 C 110.967 37, 110 36.463, 110 35.500 C 110 34.330, 111.349 34, 116.137 34 C 121.663 34, 123.479 33.392, 134.387 27.885 C 144.497 22.781, 150.031 19.608, 147.950 20.108 C 147.703 20.168, 134.450 22.392, 118.500 25.051 M 141.500 35.959 L 126.500 36.500 145 39.327 C 155.175 40.882, 164.625 42.366, 166 42.624 C 168.088 43.016, 168.875 42.427, 170.780 39.047 L 173.060 35 164.780 35.209 C 160.226 35.324, 149.750 35.662, 141.500 35.959 M 103.526 47.099 C 94.190 52.057, 86.425 56.242, 86.270 56.397 C 86.115 56.552, 87.228 59.673, 88.744 63.332 L 91.500 69.985 99.782 69.992 C 104.873 69.997, 109.438 69.426, 111.630 68.510 C 114.973 67.113, 115.299 67.147, 116.848 69.050 C 118.355 70.903, 119.460 71.055, 129.459 70.790 L 140.418 70.500 142.731 63.106 C 144.004 59.039, 144.916 55.583, 144.759 55.426 C 144.602 55.268, 135.311 57.358, 124.114 60.070 C 112.917 62.781, 103.585 65, 103.378 65 C 103.170 65, 103 64.365, 103 63.590 C 103 62.638, 105.847 61.517, 111.750 60.145 C 116.563 59.026, 126.949 56.559, 134.831 54.663 C 148.928 51.272, 149.153 51.251, 148.588 53.358 C 148.272 54.536, 146.911 59.016, 145.564 63.314 C 144.217 67.612, 143.517 70.987, 144.008 70.814 C 147.590 69.554, 159.199 58.273, 162.340 53.001 C 164.353 49.621, 166 46.525, 166 46.120 C 166 45.715, 156.438 43.907, 144.750 42.103 C 133.063 40.299, 122.825 38.656, 122 38.453 C 121.175 38.249, 112.862 42.140, 103.526 47.099 M 167.797 49.006 C 165.615 52.839, 166.824 52.837, 170.500 49 C 173.032 46.357, 173.144 46.001, 171.437 46.006 C 170.336 46.010, 168.765 47.304, 167.797 49.006 M 77 60.998 C 73.975 62.595, 68.575 64.936, 65 66.201 L 58.500 68.500 73 69 C 80.975 69.275, 87.665 69.410, 87.866 69.300 C 88.417 69, 83.721 57.993, 83.066 58.047 C 82.755 58.073, 80.025 59.401, 77 60.998 M 150.500 69.469 C 148.370 71.215, 147.974 71.939, 149.135 71.964 C 150.034 71.984, 151.507 70.875, 152.408 69.500 C 154.440 66.399, 154.249 66.396, 150.500 69.469 M 80.500 74.519 C 89.009 77.891, 91.272 77.758, 90.275 73.942 C 89.826 72.225, 88.882 72.008, 82.133 72.070 L 74.500 72.141 80.500 74.519 M 93 73.639 C 93 75.148, 93.571 75.222, 96.472 74.089 C 98.242 73.397, 98.166 73.265, 95.722 72.798 C 93.838 72.437, 93 72.696, 93 73.639 M 101 75.186 C 94.278 77.731, 94.280 77.729, 96.060 79.399 C 97.549 80.797, 129.010 92.323, 129.634 91.700 C 129.827 91.507, 126.951 87.237, 123.242 82.211 L 116.500 73.073 111.500 73.089 C 108.750 73.097, 104.025 74.041, 101 75.186 M 120.998 74.098 C 121.004 75.630, 134.288 92.096, 134.916 91.349 C 135.309 90.882, 138.091 87.575, 141.099 84 C 149.751 73.715, 149.579 74, 147.157 74 C 146.009 74, 143.422 75.447, 141.408 77.215 L 137.747 80.430 138.437 77.287 L 139.127 74.145 130.061 73.823 C 125.075 73.645, 120.996 73.769, 120.998 74.098 M 63.201 81.307 C 58.702 85.183, 55.166 88.500, 55.345 88.678 C 55.692 89.025, 81.918 79.416, 82.666 78.667 C 82.911 78.422, 80.473 77.330, 77.247 76.241 L 71.382 74.260 63.201 81.307 M 98 84.415 C 98 84.762, 99.638 89.049, 101.639 93.942 C 105.546 103.494, 106.082 103.949, 113.500 104 C 118.833 104.036, 122.165 105.001, 121.711 106.377 C 121.339 107.502, 114.601 108.520, 101.500 109.430 C 88.689 110.320, 85.474 111.011, 84.130 113.164 C 83.432 114.281, 83.119 115.452, 83.434 115.767 C 83.749 116.082, 92.217 115.336, 102.253 114.110 C 130.103 110.706, 127.567 111.419, 130.643 106.126 C 132.121 103.582, 133.935 100.561, 134.673 99.414 C 135.974 97.392, 135.478 97.137, 118.257 91.003 C 108.491 87.524, 99.938 84.477, 99.250 84.232 C 98.563 83.987, 98 84.069, 98 84.415 M 138.278 91.250 C 136.431 93.639, 135.887 95, 136.780 95 C 137.275 95, 138.192 93.875, 138.818 92.500 C 140.051 89.794, 139.819 89.257, 138.278 91.250 M 135.450 103.336 C 133.828 106.167, 132.350 108.824, 132.167 109.242 C 131.983 109.659, 132.996 110, 134.417 110 C 138.559 110, 137.418 112.426, 132.250 114.610 C 127.694 116.535, 127.078 117.321, 117.202 133.809 C 108.634 148.113, 106.518 151, 104.600 151 C 101.956 151, 53.741 145.074, 53.370 144.703 C 53.236 144.569, 69.291 137.749, 89.049 129.549 C 108.807 121.349, 124.849 114.515, 124.698 114.364 C 124.547 114.213, 113.891 115.408, 101.019 117.019 C 88.147 118.630, 77.508 119.841, 77.377 119.711 C 77.247 119.580, 78.693 117.004, 80.592 113.987 C 83.800 108.887, 84.377 108.453, 88.772 107.838 C 91.372 107.473, 95.750 107.107, 98.500 107.024 C 102.066 106.917, 102.926 106.648, 101.500 106.087 C 98.602 104.948, 39.187 99.480, 38.388 100.278 C 37.776 100.891, 41.534 154.725, 42.529 159.586 C 42.895 161.373, 46.422 162.697, 67.228 168.851 L 91.500 176.032 128.996 178.937 C 149.619 180.534, 166.608 181.725, 166.751 181.582 C 166.894 181.440, 163.439 176.580, 159.074 170.782 L 151.138 160.241 138.623 162.459 L 126.108 164.678 127.804 162.536 C 128.737 161.358, 138.950 149.473, 150.500 136.124 C 162.050 122.776, 171.634 111.486, 171.797 111.037 C 171.960 110.588, 170.160 109.539, 167.797 108.706 C 165.434 107.874, 157.853 105.167, 150.950 102.690 L 138.400 98.188 135.450 103.336 M 93.500 130.526 C 78.650 136.746, 65.868 142.233, 65.095 142.717 C 63.693 143.596, 102.622 148.643, 104.843 147.870 C 106.462 147.307, 123.050 118.984, 121.688 119.108 C 121.035 119.167, 108.350 124.305, 93.500 130.526" stroke="none" fill="black" fill-rule="evenodd"/>
</svg>