<svg xmlns="http://www.w3.org/2000/svg" width="200" height="200" viewBox="0 0 200 200" version="1.1">
	<path d="M 111 23.532 C 76.084 27.292, 53.545 30.034, 50.166 30.934 C 48.199 31.458, 49.649 32.558, 59.416 37.954 C 65.787 41.473, 71 44.617, 71 44.940 C 71 45.263, 58.400 49.718, 43 54.840 C 23.811 61.223, 15 64.601, 15 65.577 C 15 67.328, 13.208 67.525, 29.336 64 C 40.324 61.598, 45.449 61, 55.031 61 C 68.635 61, 67.748 60.210, 65.831 70.615 C 65.001 75.118, 64.967 77.632, 65.713 79.270 C 66.658 81.342, 65.857 82.640, 57.874 91.981 C 45.852 106.047, 47.735 107.453, 60.618 94.030 C 66.002 88.420, 70.510 83.135, 70.634 82.285 C 70.759 81.434, 71.288 80.312, 71.809 79.791 C 73.069 78.531, 107.158 86.017, 106.691 87.451 C 106.503 88.028, 100.568 90.982, 93.503 94.016 C 86.437 97.050, 80.471 100.088, 80.245 100.766 C 80.018 101.445, 80.256 102, 80.774 102 C 83.373 102, 107.635 90.929, 108.765 89.227 C 109.931 87.471, 110.582 87.365, 114.786 88.246 C 117.379 88.789, 119.665 89.384, 119.867 89.568 C 120.070 89.751, 113.995 96.650, 106.367 104.898 L 92.500 119.895 62.809 119.947 C 35.085 119.997, 30.107 120.441, 32.334 122.667 C 32.627 122.961, 52.309 123.817, 76.071 124.571 C 99.833 125.325, 119.423 126.089, 119.604 126.270 C 119.785 126.451, 116.989 130.239, 113.392 134.686 L 106.851 142.773 97.675 143.368 C 92.629 143.695, 79.725 144.207, 69 144.506 C 43.958 145.203, 37 145.827, 37 147.376 C 37 148.278, 46.642 149.057, 74.250 150.387 C 94.738 151.374, 111.666 152.345, 111.870 152.544 C 112.368 153.032, 116.086 171.248, 115.754 171.579 C 115.611 171.723, 102.220 172.320, 85.997 172.907 C 36.913 174.683, 32 175.019, 32 176.601 C 32 177.771, 37.352 178, 64.750 177.999 C 94.449 177.997, 100.275 178.289, 127.285 181.130 C 143.667 182.853, 157.243 184.090, 157.454 183.879 C 158.298 183.035, 161.107 117.708, 160.332 116.947 C 159.874 116.498, 151.963 112.241, 142.750 107.486 C 133.537 102.731, 126 98.648, 126 98.413 C 126 98.178, 129.037 98.204, 132.750 98.470 C 136.463 98.737, 145.688 99.201, 153.250 99.503 C 164.752 99.961, 167 99.817, 167 98.623 C 167 97.619, 163.512 96.400, 155.250 94.516 C 148.787 93.042, 139.556 90.934, 134.736 89.831 L 125.972 87.827 130.736 82.520 L 135.500 77.213 154.750 73.498 C 165.338 71.455, 174 69.483, 174 69.116 C 174 68.750, 170.625 65.097, 166.500 61 C 162.375 56.903, 159 53.200, 159 52.772 C 159 52.344, 163.090 47.607, 168.088 42.247 L 177.177 32.500 161.338 31.885 C 152.627 31.547, 142.575 31.201, 139 31.115 L 132.500 30.959 141.750 26.538 C 157.799 18.869, 155.964 18.689, 111 23.532 M 109.500 26.517 C 68.186 30.920, 58.007 32.180, 57.532 32.948 C 57.313 33.303, 61.865 36.213, 67.647 39.416 C 73.429 42.620, 77.786 45.583, 77.330 46.003 C 76.873 46.422, 69.142 49.181, 60.148 52.133 L 43.796 57.500 55.648 58.123 C 62.167 58.466, 67.950 58.409, 68.500 57.997 C 69.050 57.585, 79.400 52.646, 91.500 47.021 C 103.600 41.397, 115.975 35.550, 119 34.030 C 122.025 32.509, 127.875 29.793, 132 27.993 C 138.073 25.344, 143.104 22.597, 140.950 23.106 C 140.703 23.165, 126.550 24.700, 109.500 26.517 M 130.176 34.510 C 130.457 34.790, 135.369 37.523, 141.093 40.583 C 146.817 43.644, 152.625 47.210, 154 48.508 L 156.500 50.868 163.725 43.044 C 170.381 35.836, 170.774 35.173, 168.725 34.624 C 166.021 33.899, 129.457 33.791, 130.176 34.510 M 98 47.018 L 72.500 58.975 80.110 58.988 C 84.296 58.994, 89.809 59.286, 92.360 59.636 C 101.206 60.848, 96.934 62, 83.591 62 L 70.182 62 68.948 68.905 C 68.269 72.703, 68.015 76.598, 68.384 77.559 C 69.018 79.210, 69.128 79.207, 70.380 77.496 C 71.644 75.767, 72.542 75.874, 90.102 79.849 C 100.221 82.140, 108.793 84.011, 109.152 84.007 C 109.510 84.003, 117.113 75.876, 126.048 65.947 C 137.161 53.596, 142.617 48.217, 143.320 48.920 C 144.022 49.622, 141.586 54.092, 135.606 63.068 L 126.866 76.188 130.183 75.491 C 133.896 74.710, 136.975 72.040, 147.253 60.686 L 154.327 52.872 151.913 50.531 C 149.669 48.354, 125.718 34.963, 124.188 35.030 C 123.810 35.047, 112.025 40.441, 98 47.018 M 148.216 63.683 C 143.764 68.532, 140.500 72.635, 140.964 72.801 C 141.828 73.110, 168.053 68.280, 168.627 67.706 C 168.802 67.531, 166.103 64.571, 162.628 61.127 L 156.311 54.866 148.216 63.683 M 121.325 75.266 C 116.189 81.067, 113.586 84.731, 114.325 85.122 C 114.971 85.464, 117.091 86.029, 119.037 86.377 C 122.277 86.957, 122.947 86.624, 127.037 82.395 C 130.142 79.184, 130.891 77.943, 129.500 78.315 C 128.400 78.610, 125.989 79.156, 124.143 79.528 L 120.786 80.206 124.719 74.353 C 132.163 63.275, 131.870 63.354, 121.325 75.266 M 121.584 92.183 C 119.986 94.462, 120.021 94.513, 123.711 95.282 C 125.774 95.713, 131.971 95.938, 137.481 95.782 L 147.500 95.500 136.502 93.124 C 130.453 91.816, 124.988 90.549, 124.356 90.306 C 123.724 90.064, 122.477 90.908, 121.584 92.183 M 105.906 109.188 C 99.773 115.733, 95.061 121.394, 95.436 121.769 C 95.811 122.144, 102.859 122.687, 111.098 122.975 L 126.079 123.500 116.854 134.750 L 107.630 146 101.065 146.127 C 97.454 146.197, 89.550 146.542, 83.500 146.894 L 72.500 147.534 92.621 148.378 C 103.688 148.843, 113.162 149.510, 113.676 149.861 C 114.572 150.474, 119 169.978, 119 173.311 C 119 174.659, 117.477 174.972, 109.750 175.212 C 101.203 175.478, 102.540 175.714, 127.356 178.311 C 142.126 179.857, 154.432 180.902, 154.700 180.633 C 155.199 180.135, 157.920 132.599, 157.972 123.494 L 158 118.489 137.529 107.888 L 117.058 97.288 105.906 109.188" stroke="none" fill="black" fill-rule="evenodd"/>
</svg>