<svg xmlns="http://www.w3.org/2000/svg" width="200" height="200" viewBox="0 0 200 200" version="1.1">
	<path d="M 49 22.399 C 49 23.778, 45.171 25.350, 25 32.250 L 15.500 35.500 15.202 70.500 C 14.943 100.910, 17.380 186.713, 18.535 187.869 C 19.977 189.310, 22.796 184.311, 32.449 163.199 L 43.397 139.252 64.263 135.524 C 75.739 133.473, 85.353 132.019, 85.626 132.292 C 85.898 132.565, 82.525 139.136, 78.130 146.894 C 73.734 154.652, 70.336 161, 70.579 161 C 70.822 161, 79.116 156.948, 89.011 151.995 C 98.905 147.042, 107 143.169, 107 143.389 C 107 145.359, 101.937 159.507, 98.273 167.776 C 95.769 173.429, 93.895 178.220, 94.110 178.423 C 94.489 178.783, 161.342 181.006, 161.650 180.669 C 162.166 180.104, 184.657 109.407, 184.450 109 C 184.310 108.725, 176.614 108.747, 167.348 109.049 C 158.082 109.351, 150.333 109.485, 150.130 109.346 C 149.926 109.207, 150.035 107.997, 150.371 106.656 C 150.886 104.605, 152.076 103.952, 157.887 102.528 L 164.792 100.836 165.413 83.168 C 165.755 73.451, 166.293 61.788, 166.607 57.250 C 167.095 50.224, 166.950 49, 165.632 49 C 164.075 49, 163.675 50.114, 157.581 71.400 C 156.179 76.295, 154.913 80.405, 154.766 80.533 C 154.464 80.797, 121.950 84, 119.574 84 C 118.723 84, 117.394 82.537, 116.620 80.750 C 115.847 78.962, 113.590 73.985, 111.605 69.690 C 109.620 65.394, 108.559 62.212, 109.248 62.618 C 109.936 63.025, 114.386 65.954, 119.135 69.127 C 126.961 74.356, 129 75.140, 129 72.920 C 129 72.316, 110.113 48.574, 104.199 41.744 C 103.363 40.778, 102.864 39.827, 103.089 39.630 C 103.315 39.434, 108.450 39.865, 114.500 40.588 C 127.337 42.124, 144.377 42.419, 143.556 41.091 C 143.248 40.592, 136.359 36.364, 128.247 31.697 L 113.500 23.211 85.932 21.944 C 65.586 21.009, 57.531 20.968, 55.182 21.787 C 53.291 22.446, 52 22.511, 52 21.948 C 52 21.427, 51.325 21, 50.500 21 C 49.675 21, 49 21.629, 49 22.399 M 56.322 24.342 C 54.574 24.979, 52.821 25.828, 52.426 26.229 C 51.778 26.888, 49.799 70.132, 50.390 70.723 C 50.761 71.095, 66 37.476, 66 36.284 C 66 35.720, 62.822 34.945, 58.939 34.563 C 54.169 34.093, 52.012 33.483, 52.290 32.683 C 52.701 31.505, 57.961 31.456, 64.776 32.567 C 67.835 33.065, 68.176 32.824, 69.910 28.952 L 71.768 24.803 73.212 29.152 C 74.617 33.382, 74.784 33.508, 79.346 33.806 C 84.059 34.113, 85.799 32.965, 90.270 26.597 C 91.032 25.512, 92.124 26.533, 97.411 33.273 C 99.438 35.856, 100.434 36.145, 112.043 37.514 C 118.894 38.322, 126.973 38.987, 129.996 38.991 L 135.492 39 124.496 32.628 L 113.500 26.257 90 25.101 C 77.075 24.465, 64.925 23.774, 63 23.564 C 61.075 23.355, 58.070 23.705, 56.322 24.342 M 32.758 32.348 L 18.016 37.500 17.990 75 C 17.963 113.795, 19.663 175.135, 20.852 178.307 C 21.335 179.593, 24.399 173.888, 31.478 158.523 C 39.022 142.148, 41.918 136.821, 43.463 136.476 C 50.594 134.884, 90.391 127.968, 91.045 128.208 C 91.485 128.368, 90.313 131.092, 88.442 134.261 C 86.571 137.430, 83.173 143.424, 80.891 147.581 L 76.742 155.140 93.860 146.570 C 103.275 141.857, 111.160 138, 111.383 138 C 112.186 138, 104.187 161.660, 101.108 168.394 C 99.373 172.186, 98.137 175.470, 98.360 175.693 C 98.823 176.156, 159.123 178.216, 159.538 177.783 C 160.047 177.252, 181.057 111.723, 180.778 111.538 C 180.625 111.437, 173.316 111.612, 164.535 111.927 L 148.569 112.500 145.272 124 L 141.974 135.500 146.662 145.775 C 149.874 152.816, 151.026 156.374, 150.321 157.079 C 149.616 157.784, 146.020 150.976, 138.896 135.446 L 128.500 112.785 120.250 113.398 C 113.386 113.909, 112 113.765, 112 112.544 C 112 111.174, 113.239 110.686, 122.747 108.311 L 125.995 107.500 122.411 99.920 L 118.828 92.341 109.909 94.340 L 100.990 96.339 92.480 107.669 C 87.799 113.901, 83.586 119, 83.118 119 C 82.650 119, 75.119 111.042, 66.383 101.315 L 50.500 83.630 49.641 91.906 L 48.782 100.182 45.141 99.538 C 37.573 98.199, 37.721 98.851, 42.605 88.328 L 47.055 78.741 48.011 54.121 C 48.537 40.579, 48.975 28.938, 48.984 28.250 C 49.005 26.605, 49.667 26.438, 32.758 32.348 M 89.063 32.433 L 86.910 34.725 91.186 35.298 C 93.538 35.614, 95.545 35.788, 95.646 35.686 C 95.747 35.584, 94.792 34.294, 93.523 32.820 L 91.217 30.140 89.063 32.433 M 61.723 53.151 C 57.446 62.572, 54.071 70.380, 54.223 70.501 C 54.376 70.623, 59.129 64.976, 64.787 57.952 L 75.075 45.182 73.919 40.591 C 71.909 32.608, 70.295 34.270, 61.723 53.151 M 76 37.918 C 76 38.423, 76.281 39.568, 76.624 40.461 C 77.195 41.949, 77.405 41.943, 79.124 40.388 C 81.678 38.077, 81.480 37, 78.500 37 C 77.125 37, 76 37.413, 76 37.918 M 81.621 41.426 L 78.289 45.500 84.673 65.945 C 88.184 77.190, 91.157 86.468, 91.279 86.564 C 91.400 86.659, 96.795 86.275, 103.267 85.710 C 117.044 84.508, 116.509 86.531, 107.879 68.243 C 104.624 61.347, 102.092 55.575, 102.251 55.415 C 102.411 55.256, 106.807 57.861, 112.020 61.203 C 117.234 64.545, 120.789 66.429, 119.920 65.390 C 119.052 64.350, 114.362 58.550, 109.499 52.500 C 104.636 46.450, 100.149 40.931, 99.528 40.235 C 98.907 39.540, 95.374 38.606, 91.676 38.161 L 84.953 37.352 81.621 41.426 M 63.470 63.714 C 56.887 71.807, 51.353 78.772, 51.174 79.192 C 50.840 79.975, 81.908 115, 82.936 115 C 83.250 115, 87.104 110.256, 91.503 104.459 C 96.881 97.369, 100.319 93.731, 102 93.348 C 114.746 90.445, 117.876 89.409, 117.198 88.316 C 116.634 87.406, 113.336 87.442, 102.982 88.471 C 95.567 89.208, 89.386 89.702, 89.248 89.569 C 89.109 89.437, 86.198 80.255, 82.779 69.164 C 79.360 58.074, 76.310 49, 76.002 49 C 75.693 49, 70.054 55.621, 63.470 63.714 M 161.764 66.500 C 160.513 71.601, 157.257 83.103, 154.570 91.919 C 153.159 96.549, 152.174 100.507, 152.381 100.714 C 152.587 100.921, 154.798 100.576, 157.292 99.948 L 161.828 98.806 162.486 89.653 C 163.319 78.081, 162.823 62.185, 161.764 66.500 M 138 87.756 C 129.475 89.733, 122.329 91.481, 122.121 91.638 C 121.913 91.796, 123.333 95.275, 125.278 99.369 L 128.813 106.814 138.824 104.304 C 147.112 102.225, 148.931 101.424, 149.395 99.647 C 149.703 98.466, 150.833 94.463, 151.907 90.750 C 152.980 87.037, 153.778 84.036, 153.679 84.080 C 153.581 84.124, 146.525 85.778, 138 87.756 M 44.332 91.094 C 42.183 95.877, 42.182 95.923, 44.158 96.550 C 46.909 97.423, 47.156 96.929, 46.806 91.246 L 46.500 86.270 44.332 91.094 M 122.250 86.706 C 121.013 86.944, 120 87.558, 120 88.070 C 120 89.237, 120.300 89.215, 127 87.543 C 132.347 86.208, 132.389 86.172, 128.500 86.221 C 126.300 86.249, 123.487 86.467, 122.250 86.706 M 138 107.500 L 129.500 109.809 138.133 109.904 C 146.580 109.998, 146.777 109.946, 147.245 107.500 C 147.508 106.125, 147.448 105.043, 147.111 105.096 C 146.775 105.148, 142.675 106.230, 138 107.500 M 132 113.482 C 132 113.747, 133.844 117.909, 136.099 122.732 L 140.198 131.500 142.575 123.500 C 143.883 119.100, 144.963 114.938, 144.976 114.250 C 144.993 113.376, 143.046 113, 138.500 113 C 134.925 113, 132 113.217, 132 113.482" stroke="none" fill="black" fill-rule="evenodd"/>
</svg>