<svg xmlns="http://www.w3.org/2000/svg" width="200" height="200" viewBox="0 0 200 200" version="1.1">
	<path d="M 28 15.260 C 28 16.735, 29.871 17.158, 65.500 23.751 C 73.641 25.257, 75.430 26.031, 84.250 31.861 C 89.612 35.405, 94 38.633, 94 39.034 C 94 39.746, 70.962 48, 68.974 48 C 68.423 48, 57.755 41.048, 45.269 32.550 C 32.783 24.053, 22.400 17.267, 22.197 17.470 C 21.820 17.847, 36.694 61.027, 37.467 61.801 C 37.701 62.034, 39.957 61.521, 42.482 60.661 L 47.073 59.096 43.473 63.298 C 41.493 65.609, 39.114 67.511, 38.186 67.524 C 37.220 67.537, 36.610 68.216, 36.757 69.115 C 36.899 69.977, 32.314 76.041, 26.568 82.591 L 16.121 94.500 27.511 106 L 38.901 117.500 32.798 127.500 L 26.695 137.500 24.927 157.496 C 23.954 168.493, 23.308 177.641, 23.491 177.824 C 23.897 178.231, 83.202 165.131, 83.839 164.494 C 84.088 164.245, 83.817 157.511, 83.237 149.530 C 82.313 136.833, 81.851 134.428, 79.538 130.289 C 76.936 125.633, 76.921 125.501, 78.599 121.780 C 79.537 119.701, 80.668 118, 81.114 118 C 81.560 118, 86.216 122.103, 91.462 127.118 L 101 136.236 101 160.118 L 101 184 103.250 184.011 C 106.977 184.028, 178.441 172.807, 179.249 172.078 C 179.661 171.706, 175.923 163.774, 170.941 154.451 L 161.882 137.500 164.401 120 C 166.241 107.215, 166.998 97.247, 167.210 83 L 167.500 63.500 162.128 54.168 C 159.173 49.035, 153.644 41.060, 149.842 36.446 L 142.928 28.057 137.714 30.419 C 124.946 36.202, 123.400 36.933, 122.904 37.430 C 122.614 37.719, 122.691 41.003, 123.075 44.728 C 123.458 48.453, 124.069 55.325, 124.432 60 C 124.795 64.675, 125.327 69.287, 125.614 70.250 C 126.298 72.549, 126.060 72.518, 115.174 68.891 L 105.842 65.783 106.400 61.141 C 107.580 51.324, 109.150 29.817, 108.719 29.386 C 108.470 29.137, 100.933 27.556, 91.970 25.872 C 80.549 23.728, 74.600 22.122, 72.086 20.505 C 69.113 18.593, 65.766 17.922, 52.500 16.577 C 43.700 15.686, 34.587 14.690, 32.250 14.364 C 28.890 13.897, 28 14.084, 28 15.260 M 27.409 25.614 C 27.810 26.651, 30.325 33.800, 33 41.500 C 35.675 49.200, 38.151 56.247, 38.504 57.160 C 39.093 58.686, 39.622 58.659, 45.056 56.824 C 48.675 55.601, 51.911 53.707, 53.400 51.937 C 55.599 49.323, 56.123 49.147, 58.863 50.102 C 60.732 50.753, 62.516 50.811, 63.516 50.251 C 64.797 49.534, 61.298 46.728, 46.898 36.922 C 36.866 30.090, 28.213 24.326, 27.670 24.114 C 27.085 23.885, 26.978 24.497, 27.409 25.614 M 83.500 27.759 C 84.050 28.301, 88.295 31.259, 92.933 34.333 C 98.235 37.847, 100.834 40.116, 99.933 40.443 C 99.145 40.730, 92.662 43.022, 85.528 45.538 C 78.393 48.053, 72.424 50.243, 72.263 50.404 C 72.102 50.565, 74.529 52.396, 77.656 54.472 C 84.369 58.930, 102.901 65.556, 103.466 63.701 C 104.014 61.900, 106.230 31.887, 105.838 31.564 C 105.652 31.410, 101.225 30.503, 96 29.547 C 90.775 28.592, 85.600 27.578, 84.500 27.293 C 83.181 26.952, 82.841 27.110, 83.500 27.759 M 132.730 35.692 C 126.990 38.358, 125.077 39.718, 125.409 40.900 C 125.655 41.780, 126.171 46.774, 126.554 51.998 C 127.209 60.913, 127.546 62.017, 132.052 69.988 C 134.693 74.659, 136.734 78.599, 136.589 78.745 C 136.443 78.890, 134.878 78.505, 133.111 77.889 C 131.344 77.273, 129.696 76.970, 129.450 77.217 C 129.203 77.463, 129.536 83.675, 130.190 91.021 C 131.461 105.314, 131.703 105.890, 137.843 109.203 C 142.515 111.724, 141.912 113.363, 136.537 112.757 L 132.073 112.254 132.593 116.377 C 133.373 122.554, 137.807 170.471, 137.620 170.688 C 137.530 170.791, 130.195 163.929, 121.319 155.438 C 112.443 146.947, 104.915 140, 104.590 140 C 104.266 140, 104 149.225, 104 160.500 C 104 178.340, 104.201 181, 105.548 181 C 108.355 181, 172.462 170.921, 174.224 170.203 C 175.719 169.594, 174.822 167.392, 167.498 153.682 L 159.047 137.863 161.432 121.182 C 162.837 111.358, 164.105 96.403, 164.516 84.806 L 165.214 65.112 160.102 56.179 C 154.487 46.367, 143.491 31.976, 141.660 32.042 C 141.022 32.066, 137.004 33.708, 132.730 35.692 M 68 53 C 69.958 54.266, 71.282 54.266, 70.500 53 C 70.160 52.450, 69.121 52.007, 68.191 52.015 C 66.734 52.029, 66.707 52.165, 68 53 M 56.225 55.804 C 53.372 56.936, 50.106 59.626, 46.405 63.894 C 38.905 72.543, 39.416 72.989, 57.614 73.693 L 71.500 74.231 81.674 79.487 L 91.848 84.743 94.791 78.157 L 97.735 71.572 90.738 66.752 C 81.681 60.513, 81.252 60.296, 71.169 56.888 C 61.300 53.552, 61.810 53.589, 56.225 55.804 M 95.500 66.492 C 96.600 67.369, 98.337 68.643, 99.360 69.323 C 101.142 70.506, 101.090 70.846, 98.110 77.417 C 96.400 81.190, 95 84.817, 95 85.478 C 95 87, 100.059 89.365, 101.032 88.298 C 101.432 87.859, 102.066 83.112, 102.440 77.748 C 103.193 66.966, 103.556 67.653, 96 65.582 C 93.564 64.914, 93.552 64.938, 95.500 66.492 M 105.577 73.171 C 105.264 75.552, 104.893 80.636, 104.754 84.468 L 104.500 91.437 116.374 97.761 C 122.905 101.239, 128.353 103.954, 128.480 103.793 C 128.608 103.632, 128.132 97.875, 127.423 91 C 126.715 84.125, 126.104 77.805, 126.067 76.956 C 126.022 75.918, 123.134 74.481, 117.250 72.571 C 112.438 71.008, 107.970 69.529, 107.323 69.286 C 106.580 69.006, 105.936 70.439, 105.577 73.171 M 128.035 70.691 C 128.016 71.896, 128.480 73.179, 129.067 73.541 C 130.791 74.607, 130.934 73.673, 129.454 70.998 C 128.120 68.589, 128.070 68.578, 128.035 70.691 M 29.222 83.713 L 19.945 94.414 30.972 105.472 C 37.038 111.555, 42 116.810, 42 117.151 C 42 117.492, 39.148 122.435, 35.661 128.135 L 29.322 138.500 27.755 156.500 C 26.892 166.400, 26.257 174.568, 26.343 174.652 C 26.430 174.736, 38.808 172.063, 53.851 168.712 L 81.202 162.620 80.510 149.560 C 79.874 137.564, 79.572 136.057, 76.798 131.068 L 73.778 125.637 75.889 121.292 C 77.050 118.902, 78 116.321, 78 115.557 C 78 114.792, 73.861 110.304, 68.802 105.583 C 63.742 100.862, 60.031 97, 60.554 97 C 61.076 97, 66.227 97.900, 72 99 C 84.363 101.356, 84.633 101.371, 85.301 99.750 C 85.584 99.063, 86.942 95.991, 88.318 92.924 L 90.821 87.349 81.160 82.254 L 71.500 77.159 56.761 76.446 C 46.237 75.936, 41.698 75.341, 40.889 74.366 C 40.265 73.615, 39.473 73.003, 39.128 73.006 C 38.782 73.010, 34.325 77.828, 29.222 83.713 M 90.573 94.621 C 89.158 97.712, 88 100.575, 88 100.983 C 88 101.611, 97.633 104, 100.167 104 C 100.625 104, 101 101.383, 101 98.185 C 101 92.514, 100.913 92.329, 97.466 90.685 C 95.522 89.758, 93.755 89, 93.539 89 C 93.323 89, 91.989 91.529, 90.573 94.621 M 104 99.854 L 104 104.707 114.750 106.420 C 120.662 107.362, 126.287 108.359, 127.250 108.634 C 128.213 108.909, 128.996 108.767, 128.992 108.317 C 128.984 107.557, 106.012 95, 104.628 95 C 104.282 95, 104 97.184, 104 99.854 M 68.500 101.722 C 69.050 102.243, 71.840 104.809, 74.699 107.424 L 79.898 112.179 81.472 108.413 C 83.321 103.987, 82.863 103.486, 76.085 102.532 C 73.563 102.177, 70.600 101.636, 69.500 101.331 C 68.220 100.975, 67.860 101.116, 68.500 101.722 M 84.015 109.411 L 81.896 114.500 91.198 123.129 L 100.500 131.757 100.782 119.744 C 100.937 113.136, 100.834 107.500, 100.552 107.219 C 100.271 106.938, 96.912 106.171, 93.087 105.515 L 86.133 104.322 84.015 109.411 M 104.027 121.750 L 104.055 135.500 118.627 149.317 C 126.643 156.916, 133.421 162.913, 133.690 162.643 C 134.605 161.728, 129.734 113.508, 128.613 112.391 C 127.636 111.417, 109.682 108, 105.545 108 C 104.225 108, 104.004 110.004, 104.027 121.750" stroke="none" fill="black" fill-rule="evenodd"/>
</svg>