<svg xmlns="http://www.w3.org/2000/svg" width="200" height="200" viewBox="0 0 200 200" version="1.1">
	<path d="M 128 19.109 L 108.500 26.120 71.765 27.379 C 51.560 28.071, 34.715 28.951, 34.331 29.335 C 32.924 30.742, 35.884 31.871, 54.750 37.123 C 65.338 40.071, 74 42.742, 74 43.059 C 74 43.375, 59.801 48.257, 42.447 53.907 C 22.308 60.463, 11.042 64.599, 11.304 65.340 C 11.530 65.978, 12.434 66.441, 13.312 66.369 C 15.558 66.184, 61.406 55.777, 61.933 55.332 C 62.172 55.131, 61.896 54.496, 61.320 53.920 C 60.592 53.192, 58.441 53.349, 54.243 54.437 C 42.078 57.589, 45.966 55.702, 64.500 49.457 C 74.950 45.936, 83.725 43.010, 84 42.955 C 84.275 42.900, 75.500 40.220, 64.500 37 C 53.500 33.780, 45.767 31.112, 47.316 31.072 C 48.865 31.033, 63.339 30.520, 79.481 29.934 L 108.831 28.868 124.109 23.461 C 132.513 20.488, 139.493 18.160, 139.621 18.288 C 139.973 18.640, 83.854 57.456, 82.509 57.791 C 81.866 57.950, 80.796 56.263, 80.130 54.041 C 79.464 51.818, 78.432 50, 77.835 50 C 76.791 50, 76.968 52.038, 78.560 58.383 C 79.344 61.505, 78.227 61.697, 72.019 59.507 C 69.692 58.686, 67.433 58.232, 67 58.500 C 64.814 59.851, 51.964 79.463, 52.444 80.715 C 52.856 81.788, 55.469 80.439, 62.748 75.400 C 68.112 71.687, 73.573 67.828, 74.885 66.824 C 79.393 63.376, 80.541 64.284, 83.446 73.602 C 84.922 78.334, 85.970 82.363, 85.777 82.557 C 85.583 82.750, 75.429 85.268, 63.212 88.152 C 46.963 91.988, 41 93.783, 41 94.837 C 41 96.072, 44.483 96.175, 65.390 95.554 L 89.780 94.829 92.014 101.665 C 93.242 105.424, 94.588 108.874, 95.004 109.330 C 95.420 109.787, 98.337 106.862, 101.485 102.830 C 108.272 94.141, 108.271 94.141, 128.317 94.058 C 141.013 94.005, 142.095 94.142, 141.642 95.750 C 141.370 96.713, 140.624 100.762, 139.984 104.750 L 138.819 112 109.660 112.026 C 86.969 112.047, 77.438 112.465, 66.698 113.912 C 59.107 114.934, 52.649 116.017, 52.348 116.319 C 50.008 118.659, 55.489 119, 95.393 119 L 137.669 119 136.584 125.599 L 135.500 132.197 110 131.854 C 63.873 131.233, 40.517 131.449, 40.164 132.500 C 39.979 133.050, 42.976 134.773, 46.823 136.330 L 53.818 139.159 39.908 160.245 C 32.258 171.843, 26.111 181.443, 26.249 181.580 C 26.387 181.717, 42.925 180.107, 63 178.003 C 92.761 174.885, 106.516 173.961, 137.500 173 C 158.400 172.351, 175.651 171.672, 175.836 171.491 C 176.021 171.309, 166.614 165.466, 154.932 158.506 L 133.691 145.852 116.095 149.841 C 106.418 152.036, 98.397 153.729, 98.271 153.603 C 98.145 153.478, 107.370 149.910, 118.771 145.674 L 139.500 137.973 157.432 125.237 L 175.364 112.500 165.173 112.215 L 154.983 111.930 149.992 101.983 C 147.246 96.512, 145 91.854, 145 91.632 C 145 91.409, 148.037 91.288, 151.750 91.363 C 155.463 91.439, 158.646 91.062, 158.825 90.527 C 159.003 89.991, 156.303 88.603, 152.825 87.441 C 149.346 86.280, 146.516 84.918, 146.536 84.415 C 146.556 83.912, 146.927 80.773, 147.362 77.440 L 148.152 71.380 167.326 65.519 C 177.872 62.295, 187.100 59.358, 187.834 58.992 C 188.983 58.419, 166.822 53.137, 155.750 51.345 C 153.688 51.011, 152.003 50.460, 152.007 50.119 C 152.010 49.779, 152.900 44.352, 153.983 38.060 C 155.066 31.767, 155.796 26.462, 155.604 26.271 C 155.193 25.860, 124.116 43.753, 122.174 45.518 C 121.121 46.475, 122.707 47.083, 129.909 48.482 C 136.036 49.672, 138.747 50.607, 138.285 51.371 C 137.910 51.992, 133.470 57.711, 128.419 64.080 L 119.236 75.661 101.096 69.580 C 89.168 65.582, 83.050 63.061, 83.228 62.219 C 83.378 61.514, 98.539 50.486, 116.919 37.712 C 135.299 24.938, 150.524 13.927, 150.752 13.243 C 151.489 11.033, 147.866 11.967, 128 19.109 M 140.250 37.838 C 134.063 41.436, 129 44.669, 129 45.023 C 129 45.376, 131.588 46.143, 134.750 46.727 C 139.509 47.606, 140.791 47.532, 142.187 46.297 C 144.227 44.492, 146.662 45.497, 145.026 47.468 C 144.209 48.453, 144.548 48.872, 146.456 49.236 C 148.184 49.567, 149.094 49.218, 149.404 48.107 C 150.246 45.084, 152.203 31.870, 151.851 31.583 C 151.658 31.425, 146.438 34.240, 140.250 37.838 M 134.380 62.816 C 129.914 69.242, 126.380 74.641, 126.527 74.814 C 126.912 75.266, 144.352 69.925, 145.270 69.074 C 146.292 68.127, 148.894 53.041, 148.110 52.611 C 147.775 52.427, 146.375 52.019, 145 51.704 C 142.736 51.185, 141.732 52.236, 134.380 62.816 M 150.238 60.215 C 149.622 64.195, 149.266 67.599, 149.446 67.780 C 149.627 67.960, 155.900 66.193, 163.387 63.853 C 170.873 61.513, 176.661 59.289, 176.249 58.910 C 175.837 58.531, 170.775 57.236, 165 56.032 C 159.225 54.828, 153.793 53.648, 152.929 53.411 C 151.674 53.066, 151.133 54.432, 150.238 60.215 M 63.624 67.350 C 61.195 70.733, 59.332 73.634, 59.486 73.799 C 59.725 74.056, 72.071 65.884, 74.275 64.009 C 74.701 63.647, 73.473 62.867, 71.546 62.275 L 68.042 61.200 63.624 67.350 M 86.667 74.750 C 88.018 79.013, 89.432 82.789, 89.811 83.142 C 90.190 83.496, 95.265 84.097, 101.089 84.478 L 111.679 85.171 114.396 81.942 C 115.890 80.166, 116.750 78.393, 116.306 78.001 C 115.632 77.407, 85.596 67, 84.554 67 C 84.366 67, 85.317 70.487, 86.667 74.750 M 134.500 75.668 L 126.500 78.242 134.854 81.184 C 139.449 82.801, 143.336 83.984, 143.491 83.812 C 143.647 83.641, 144.092 81.138, 144.481 78.250 C 145.319 72.025, 145.598 72.097, 134.500 75.668 M 117.091 82.873 L 115.045 85.746 124.272 86.420 C 129.348 86.791, 135.750 87.354, 138.500 87.671 C 141.833 88.056, 143.167 87.915, 142.500 87.249 C 141.300 86.049, 123.204 80, 120.816 80 C 119.892 80, 118.216 81.293, 117.091 82.873 M 69.500 89.594 L 56.500 92.962 72.372 92.526 C 81.101 92.286, 88.426 91.907, 88.650 91.684 C 88.873 91.460, 88.605 90.090, 88.053 88.639 C 86.783 85.299, 85.902 85.344, 69.500 89.594 M 91.187 89.107 C 92.174 91.936, 92.354 92, 99.398 92 C 103.666 92, 107.089 91.511, 107.800 90.800 C 110.356 88.244, 110.365 88.247, 93.839 86.583 C 90.195 86.216, 90.183 86.227, 91.187 89.107 M 111.439 90.068 L 109.500 92.211 124 91.484 C 131.975 91.084, 138.628 90.645, 138.785 90.510 C 138.942 90.374, 134.442 89.961, 128.785 89.593 C 123.128 89.225, 117.348 88.699, 115.939 88.424 C 114.149 88.075, 112.795 88.569, 111.439 90.068 M 93.556 97.250 C 93.936 98.487, 94.754 100.762, 95.374 102.305 L 96.500 105.110 100.269 100.055 L 104.039 95 98.452 95 C 93.120 95, 92.897 95.103, 93.556 97.250 M 143.026 103.847 C 142.350 107.853, 142.020 111.353, 142.291 111.624 C 142.563 111.896, 144.811 111.979, 147.287 111.809 L 151.790 111.500 148.022 104.031 L 144.255 96.562 143.026 103.847 M 159.705 114.721 C 157.473 115.057, 157.034 115.530, 157.522 117.071 C 158.097 118.880, 157.569 119, 149.067 119 C 141.268 119, 140 119.233, 140 120.668 C 140 121.586, 139.495 125.236, 138.878 128.781 L 137.755 135.226 93.628 134.640 C 52.501 134.095, 49.755 134.164, 53.250 135.663 C 55.313 136.548, 57 137.737, 57 138.306 C 57 138.875, 51.350 147.863, 44.444 158.281 C 37.538 168.698, 32.133 177.467, 32.433 177.767 C 32.733 178.067, 48.846 176.676, 68.239 174.675 C 95.566 171.856, 110.023 170.888, 132.486 170.369 C 148.428 170.002, 162.572 169.407, 163.915 169.047 C 166.020 168.485, 164.052 167.038, 149.744 158.628 L 133.129 148.863 108.314 154.433 C 94.666 157.496, 81.703 160.432, 79.506 160.957 C 77.016 161.552, 75.158 161.558, 74.572 160.972 C 74.056 160.456, 73.828 159.846, 74.067 159.617 C 74.305 159.387, 88.968 153.806, 106.651 147.213 L 138.803 135.226 152.404 125.514 C 159.884 120.172, 166.255 115.396, 166.561 114.901 C 167.120 113.996, 164.902 113.938, 159.705 114.721 M 91.250 115.748 C 99.912 115.915, 114.087 115.915, 122.750 115.748 C 131.412 115.582, 124.325 115.445, 107 115.445 C 89.675 115.445, 82.587 115.582, 91.250 115.748 M 143.728 115.722 C 145.503 115.943, 148.653 115.946, 150.728 115.730 C 152.802 115.513, 151.350 115.333, 147.500 115.328 C 143.650 115.324, 141.952 115.501, 143.728 115.722" stroke="none" fill="black" fill-rule="evenodd"/>
</svg>