<svg xmlns="http://www.w3.org/2000/svg" width="200" height="200" viewBox="0 0 200 200" version="1.1">
	<path d="M 19.995 19.250 C 19.992 19.938, 19.098 33.100, 18.009 48.500 C 16.521 69.528, 16.050 85.962, 16.115 114.500 L 16.202 152.500 26.851 162.435 C 32.708 167.900, 37.950 172.494, 38.500 172.645 C 40.313 173.143, 54.583 146.844, 62.996 127.500 L 71.259 108.500 70.250 94.500 C 69.694 86.800, 69.400 80.324, 69.595 80.108 C 69.914 79.756, 79.255 81.429, 92.250 84.165 C 96.752 85.114, 97 85.337, 97 88.458 C 97 96.106, 96.158 97.471, 87.480 103.898 L 79.158 110.062 78.823 145.281 C 78.639 164.652, 78.584 180.668, 78.700 180.872 C 78.816 181.077, 91.194 180.689, 106.206 180.009 L 133.500 178.774 154 169.699 C 165.275 164.708, 174.691 160.481, 174.923 160.305 C 175.156 160.130, 172.006 145.815, 167.923 128.494 C 160.619 97.507, 160.460 97.002, 158 97.033 C 156.625 97.051, 149.200 97.689, 141.500 98.452 L 127.500 99.838 118.786 91.169 L 110.072 82.500 109.190 66 C 108.705 56.925, 108.412 49.365, 108.537 49.200 C 108.663 49.036, 114.691 58.330, 121.933 69.855 L 135.100 90.810 159.050 82.819 C 172.222 78.424, 183 74.456, 183 74.001 C 183 73.546, 176.951 67.935, 169.558 61.532 L 156.116 49.890 161.060 39.780 C 163.779 34.220, 165.890 29.570, 165.752 29.447 C 165.613 29.324, 158.075 26.916, 149 24.097 L 132.500 18.970 117.838 24.234 L 103.176 29.498 102.653 32.999 C 102.366 34.924, 101.336 44.945, 100.365 55.267 C 99.394 65.588, 98.305 73.913, 97.946 73.767 C 97.586 73.620, 90.509 69.225, 82.219 64 C 67.989 55.030, 67.129 54.309, 66.824 51.077 C 66.436 46.976, 64 45.566, 64 49.442 C 64 52.033, 63.978 52.040, 60.929 50.463 C 58.268 49.087, 58.034 48.659, 59.179 47.248 C 59.906 46.352, 64.656 40.868, 69.735 35.060 C 74.815 29.252, 78.977 24.163, 78.985 23.750 C 78.993 23.337, 78.213 22.992, 77.250 22.981 C 76.287 22.971, 64.475 21.850, 51 20.490 C 22.755 17.639, 20.002 17.529, 19.995 19.250 M 22.580 23.250 C 21.391 29.094, 18.980 81.209, 18.399 113.667 L 17.750 149.834 27.489 159.167 C 32.845 164.300, 37.514 168.604, 37.864 168.732 C 39.358 169.277, 52.466 144.731, 60.259 126.793 L 68.708 107.348 66.503 81.643 C 64.567 59.079, 64.066 55.765, 62.399 54.525 C 59.566 52.416, 56.044 50.607, 55.697 51.082 C 55.529 51.312, 52.006 55.357, 47.867 60.071 L 40.342 68.642 42.607 88.879 C 43.853 100.010, 45.042 109.627, 45.250 110.249 C 45.457 110.872, 46.439 105.895, 47.431 99.190 C 48.822 89.791, 49.580 87, 50.742 87 C 51.852 87, 52.107 87.726, 51.708 89.750 C 51.410 91.263, 50.145 99.362, 48.898 107.750 C 47.314 118.409, 46.241 123, 45.335 123 C 44.622 123, 43.817 121.988, 43.547 120.750 C 42.405 115.513, 33.729 34.937, 34.251 34.415 C 34.566 34.100, 39.026 36.499, 44.162 39.746 C 49.298 42.993, 54.011 45.948, 54.636 46.313 C 55.647 46.904, 74.744 26.294, 73.844 25.583 C 73.459 25.278, 27.481 20.976, 24.769 20.991 C 23.781 20.996, 22.842 21.965, 22.580 23.250 M 118.500 26.841 C 106.015 31.441, 105.488 31.750, 105.199 34.643 C 104.958 37.060, 107.798 42.283, 119.573 61.078 C 127.644 73.960, 134.819 85.112, 135.519 85.859 C 136.582 86.996, 140.161 86.099, 157.395 80.377 C 168.728 76.615, 178 73.281, 178 72.968 C 178 72.655, 172.375 67.522, 165.500 61.560 C 158.625 55.598, 153 50.546, 153 50.335 C 153 50.123, 154.603 46.767, 156.562 42.876 C 163.031 30.031, 163.781 31.642, 149.213 27.091 C 142.221 24.906, 135.375 22.878, 134 22.585 C 132.409 22.246, 126.774 23.794, 118.500 26.841 M 37.315 42.750 C 37.629 44.813, 38.194 49.875, 38.569 54 C 38.945 58.125, 39.566 62.090, 39.950 62.810 C 40.429 63.710, 42.736 61.786, 47.324 56.660 L 54 49.200 45.967 44.100 C 41.549 41.295, 37.666 39, 37.339 39 C 37.012 39, 37.001 40.688, 37.315 42.750 M 103.164 55.500 C 102.471 63.200, 101.671 70.856, 101.385 72.513 C 100.952 75.028, 101.381 75.906, 103.987 77.832 L 107.107 80.139 106.426 64.819 C 105.367 41.020, 104.652 38.975, 103.164 55.500 M 68.149 65.250 C 68.549 69.237, 68.904 73.460, 68.938 74.632 C 68.994 76.567, 70.257 77.007, 82.546 79.382 C 89.996 80.822, 96.521 82, 97.046 82 C 97.570 82, 98 80.914, 98 79.587 C 98 77.570, 95.540 75.604, 82.983 67.587 C 74.723 62.314, 67.843 58, 67.694 58 C 67.545 58, 67.750 61.263, 68.149 65.250 M 100.733 80.912 C 100.350 82.376, 100.920 82.934, 103.280 83.406 C 107.417 84.233, 107.661 83.607, 104.171 81.122 C 101.332 79.100, 101.209 79.093, 100.733 80.912 M 99.696 90.231 C 99.384 92.558, 99.214 94.547, 99.318 94.651 C 99.422 94.755, 101.735 93.190, 104.459 91.172 L 109.411 87.504 106.455 86.870 C 100.587 85.612, 100.296 85.757, 99.696 90.231 M 105.597 93.552 C 102.360 95.974, 99.520 98.146, 99.286 98.380 C 98.748 98.919, 94.725 138.078, 95.170 138.447 C 95.352 138.597, 102.250 142.677, 110.500 147.515 C 118.750 152.352, 129.097 158.455, 133.494 161.077 C 137.891 163.700, 141.611 165.722, 141.762 165.572 C 141.912 165.421, 137.507 155.709, 131.972 143.990 C 126.437 132.271, 122.155 122.038, 122.457 121.252 C 122.864 120.191, 124.706 121.158, 129.587 124.994 C 133.206 127.838, 136.320 130.013, 136.507 129.827 C 136.750 129.583, 112.887 90.717, 111.640 89.325 C 111.553 89.228, 108.834 91.131, 105.597 93.552 M 131.916 116.449 C 140.202 129.716, 144.652 137.748, 144.049 138.351 C 143.446 138.954, 140.603 137.300, 136.298 133.840 C 132.559 130.836, 128.936 128.040, 128.248 127.628 C 126.950 126.852, 129.046 131.656, 140.462 155.630 L 147.191 169.760 159.331 164.311 C 166.008 161.314, 171.614 158.719, 171.789 158.545 C 172.278 158.056, 158.858 101.606, 158.040 100.709 C 157.643 100.274, 150.268 100.471, 141.650 101.147 L 125.982 102.375 122.407 98.938 C 119.792 96.423, 122.346 101.127, 131.916 116.449 M 88.910 106.238 L 82.319 111.212 81.674 144.287 C 81.320 162.479, 81.241 177.574, 81.499 177.832 C 81.757 178.090, 93.563 177.755, 107.734 177.086 C 131.553 175.962, 133.910 175.684, 138.932 173.407 C 145.441 170.455, 148.077 172.722, 117 154.549 C 104.075 146.992, 93.145 140.473, 92.711 140.065 C 92.277 139.656, 92.794 130.812, 93.860 120.411 C 94.927 110.010, 95.732 101.447, 95.650 101.382 C 95.567 101.317, 92.534 103.503, 88.910 106.238" stroke="none" fill="black" fill-rule="evenodd"/>
</svg>