<svg xmlns="http://www.w3.org/2000/svg" width="200" height="200" viewBox="0 0 200 200" version="1.1">
	<path d="M 158.107 15.525 C 146.973 20.945, 139.087 24.006, 129.607 26.589 L 116.500 30.160 76.521 29.142 C 54.533 28.582, 36.416 28.251, 36.261 28.406 C 36.106 28.561, 38.290 30.125, 41.115 31.881 C 47.321 35.739, 73.860 54.964, 74.574 56.120 C 75.701 57.943, 69.393 57.970, 46.250 56.240 L 22 54.427 22.001 87.463 C 22.001 110.125, 22.623 129.450, 23.982 149 C 26.623 187.007, 26.940 190.001, 28.330 189.994 C 28.973 189.990, 34.450 177.953, 40.500 163.244 C 49.817 140.592, 51.577 135.455, 52 129.667 L 52.500 122.834 65.476 132.417 C 72.612 137.688, 78.800 142, 79.226 142 C 81.231 142, 79.356 138.712, 72.097 129.500 C 67.764 124, 64.343 119.363, 64.496 119.196 C 64.649 119.029, 69.325 119.206, 74.887 119.589 L 85 120.286 84.939 124.393 C 84.906 126.652, 83.871 138.303, 82.639 150.283 C 81.408 162.264, 80.526 172.192, 80.679 172.346 C 80.833 172.499, 88.505 171.469, 97.729 170.056 L 114.500 167.488 114.820 164.706 C 114.996 163.176, 114.434 153.799, 113.570 143.868 C 111.425 119.194, 110.976 121.667, 117.499 122.208 C 120.523 122.459, 123.211 122.877, 123.471 123.137 C 123.731 123.398, 122.113 127.104, 119.875 131.375 C 117.637 135.646, 115.974 139.307, 116.179 139.512 C 116.384 139.717, 123.290 136.126, 131.526 131.531 L 146.500 123.177 146.786 129.839 C 147.061 136.250, 146.711 137.376, 137.461 159.842 C 132.175 172.680, 128.080 183.414, 128.361 183.694 C 128.881 184.214, 172.849 166.360, 174.287 165.046 C 174.720 164.650, 175.534 147.200, 176.097 126.267 L 177.120 88.208 169.060 73.983 C 164.627 66.159, 161 59.386, 161 58.933 C 161 58.479, 165.101 50.184, 170.113 40.500 C 175.124 30.815, 179.062 22.733, 178.863 22.539 C 178.663 22.345, 162.330 27.312, 142.567 33.577 C 122.804 39.842, 106.511 44.844, 106.360 44.693 C 105.640 43.973, 146.211 24.824, 151.250 23.505 C 164.861 19.943, 168 18.881, 168 17.841 C 168 17.134, 166.654 16.939, 164.250 17.297 C 160.961 17.786, 161.392 17.407, 167.750 14.209 C 171.738 12.204, 175 9.986, 175 9.282 C 175 8.577, 174.662 8.007, 174.250 8.016 C 173.838 8.025, 166.573 11.404, 158.107 15.525 M 141.260 36.833 C 117.315 44.488, 111.590 46.638, 113.760 47.164 C 115.267 47.530, 125.500 48.837, 136.500 50.070 C 151.759 51.781, 156.777 52.690, 157.668 53.905 C 158.311 54.780, 159.035 55.273, 159.278 54.998 C 159.521 54.724, 162.969 48.313, 166.941 40.750 C 171.248 32.547, 173.625 27.034, 172.831 27.083 C 172.099 27.129, 157.892 31.516, 141.260 36.833 M 121.500 31.566 C 117.375 32.710, 110.380 32.793, 81.517 32.042 C 62.277 31.542, 46.423 31.244, 46.287 31.380 C 46.150 31.516, 53.262 36.861, 62.089 43.257 L 78.140 54.886 85.320 51.594 C 96.114 46.645, 128.645 30.101, 127.500 30.143 C 126.950 30.162, 124.250 30.803, 121.500 31.566 M 92.500 51.218 C 87 53.975, 82.275 56.444, 82 56.705 C 81.725 56.966, 82.850 58.292, 84.500 59.652 L 87.500 62.125 80 61.523 C 72.918 60.955, 72.114 61.109, 65.570 64.295 L 58.639 67.669 68.570 73.804 C 77.944 79.596, 78.780 79.913, 83.500 79.475 C 86.250 79.220, 96.282 78.538, 105.793 77.959 L 123.085 76.906 135.543 71.019 L 148 65.131 148.030 70.815 L 148.059 76.500 152.513 68.500 C 157.278 59.942, 157.791 57.901, 155.625 56.104 C 154.628 55.276, 109.601 49.111, 103.823 49.012 C 103.451 49.005, 103.001 48.371, 102.823 47.603 C 102.585 46.572, 99.875 47.521, 92.500 51.218 M 25 90.399 C 25 113.463, 25.614 132.115, 27.043 152.439 C 28.167 168.423, 29.180 181.803, 29.293 182.173 C 29.407 182.544, 33.887 172.163, 39.250 159.105 C 48.567 136.417, 49 135.034, 49.009 127.932 C 49.018 120.762, 48.903 120.404, 45.759 117.777 L 42.500 115.054 45.750 115.027 L 49 115 49 109.700 C 49 106.785, 48.441 103.841, 47.758 103.158 C 46.770 102.170, 46.772 101.759, 47.769 101.143 C 48.671 100.585, 48.986 96.992, 48.895 88.258 L 48.770 76.148 45.885 74.952 C 42.223 73.435, 42.248 72.554, 46 71 C 48.619 69.915, 49 69.255, 49 65.797 L 49 61.837 52.442 63.964 L 55.885 66.092 61.192 63.296 L 66.500 60.500 62.500 60.197 C 60.300 60.031, 50.963 59.337, 41.750 58.657 L 25 57.419 25 90.399 M 153.599 72.396 L 148.697 81.762 149.241 109.499 L 149.784 137.235 142.297 155.368 C 138.180 165.340, 134.217 174.924, 133.492 176.665 L 132.173 179.829 147.837 173.325 C 156.452 169.747, 165.410 166.090, 167.745 165.196 C 171.220 163.867, 172.073 163.022, 172.452 160.536 C 172.706 158.866, 173.190 141.975, 173.526 123 L 174.138 88.500 166.967 75.750 C 163.023 68.737, 159.505 63.007, 159.148 63.015 C 158.792 63.023, 156.294 67.244, 153.599 72.396 M 53.724 70.134 C 52.776 70.665, 52 71.992, 52 73.082 C 52 76.114, 63.120 80.864, 68.779 80.249 L 73.058 79.784 65.779 75.295 C 55.676 69.064, 55.654 69.054, 53.724 70.134 M 138.072 72.904 C 135.086 74.450, 133.199 75.900, 133.878 76.126 C 135.054 76.518, 137.449 94.884, 136.454 95.879 C 136.216 96.117, 130.279 96.874, 123.261 97.561 C 116.242 98.248, 110.371 98.853, 110.214 98.905 C 109.629 99.099, 111.277 117.530, 111.946 118.271 C 112.329 118.695, 115.583 119.316, 119.177 119.652 L 125.712 120.262 135.856 100.729 C 145.180 82.774, 146 80.742, 146 75.597 C 146 69.056, 145.701 68.955, 138.072 72.904 M 52 79.465 C 52 80.461, 52.936 81, 54.667 81 C 57.598 81, 57.559 80.822, 54.250 79.100 C 52.385 78.130, 52 78.193, 52 79.465 M 125 79.943 C 123.075 80.335, 118.688 82.090, 115.250 83.842 C 109.518 86.765, 109.001 87.297, 109.015 90.264 C 109.042 95.856, 109.314 95.948, 122.364 94.761 L 134.210 93.683 133.616 90.092 C 133.289 88.116, 133.017 84.813, 133.011 82.750 C 132.999 78.638, 132.413 78.433, 125 79.943 M 100 81.105 C 93.675 81.555, 87.150 82.053, 85.500 82.212 L 82.500 82.500 87.015 85.154 C 91.455 87.765, 91.524 87.885, 91.164 92.404 L 90.799 97 95.774 97 C 98.511 97, 102.181 96.714, 103.930 96.364 L 107.110 95.728 106.471 90.612 L 105.832 85.496 111.166 82.809 C 117.189 79.775, 117.662 79.847, 100 81.105 M 61.473 84.044 C 61.148 84.570, 61.809 85, 62.941 85 C 65.356 85, 65.599 84.444, 63.532 83.651 C 62.725 83.341, 61.798 83.518, 61.473 84.044 M 75.250 86.064 C 78.412 87.696, 81 89.475, 81 90.016 C 81 91.551, 77.455 91.143, 64.500 88.121 L 52.500 85.321 52.206 92.783 C 52.044 96.887, 52.091 100.424, 52.310 100.643 C 52.652 100.985, 87.303 98.042, 87.612 97.644 C 87.674 97.565, 87.959 95.661, 88.245 93.414 C 88.760 89.373, 88.707 89.292, 83.477 86.164 C 79.636 83.867, 76.998 83.013, 73.844 83.048 L 69.500 83.096 75.250 86.064 M 137.249 103.919 L 128.998 119.750 132.124 120.375 C 133.843 120.719, 137.839 121, 141.002 121 L 146.755 121 146.297 105.250 C 146.046 96.588, 145.764 89.182, 145.670 88.794 C 145.577 88.406, 141.787 95.213, 137.249 103.919 M 96 99.913 L 90.500 100.500 89.610 108.776 C 89.120 113.328, 88.895 117.207, 89.110 117.395 C 89.324 117.583, 93.858 118.046, 99.183 118.424 L 108.867 119.111 108.388 113.305 C 108.124 110.112, 107.677 105.588, 107.393 103.250 C 106.819 98.517, 107.422 98.694, 96 99.913 M 65.500 102.547 C 58.350 103.256, 52.388 103.873, 52.251 103.918 C 52.114 103.963, 54.099 106.700, 56.662 110 C 60.123 114.457, 61.987 116.026, 63.910 116.100 C 65.335 116.155, 70.839 116.493, 76.141 116.850 L 85.783 117.500 86.383 112.500 C 86.713 109.750, 86.987 106.037, 86.991 104.250 C 87 101.072, 86.906 101.003, 82.750 101.129 C 80.412 101.199, 72.650 101.837, 65.500 102.547 M 52.204 112 C 52.437 114.758, 52.977 115.568, 54.750 115.820 C 57.621 116.227, 57.545 115.237, 54.418 111.500 L 51.908 108.500 52.204 112 M 52 118.455 C 52 118.705, 55.712 121.704, 60.250 125.118 C 72.142 134.066, 71.689 133.759, 70.404 132 C 64.638 124.107, 60.419 119.392, 58.638 118.850 C 56.058 118.065, 52 117.824, 52 118.455 M 88.012 122.134 C 88.019 122.885, 87.038 133.507, 85.832 145.737 C 84.627 157.967, 83.933 168.266, 84.290 168.623 C 84.978 169.312, 110.881 165.452, 111.810 164.523 C 112.495 163.839, 109.291 122.958, 108.490 122.157 C 108.165 121.832, 103.423 121.387, 97.950 121.167 C 90.006 120.848, 88.002 121.043, 88.012 122.134 M 124.750 128.014 C 123.238 130.756, 122.338 132.987, 122.750 132.970 C 123.163 132.954, 127.020 130.990, 131.322 128.606 C 138.098 124.850, 138.833 124.188, 136.822 123.649 C 135.545 123.307, 132.925 123.028, 131 123.028 C 127.836 123.029, 127.236 123.507, 124.750 128.014" stroke="none" fill="black" fill-rule="evenodd"/>
</svg>