<svg xmlns="http://www.w3.org/2000/svg" width="200" height="200" viewBox="0 0 200 200" version="1.1">
	<path d="M 137.830 26.975 C 122.061 35.172, 107.436 42.157, 105.330 42.497 C 97.348 43.785, 96.862 43.990, 97.441 45.815 C 97.893 47.238, 94.922 49.144, 81.518 56.032 L 65.040 64.500 65.020 69.601 C 65.009 72.406, 62.753 88.831, 60.008 106.101 C 57.262 123.370, 55.020 138.625, 55.026 140 C 55.031 141.375, 57.840 147.450, 61.268 153.500 L 67.500 164.500 68.273 133 C 68.697 115.675, 68.922 96.217, 68.773 89.760 C 68.539 79.714, 68.716 78.084, 70 78.459 C 70.825 78.700, 79.726 81.022, 89.780 83.618 C 102.892 87.004, 108.367 88.033, 109.143 87.257 C 109.919 86.481, 108.058 84.986, 102.563 81.970 C 98.349 79.657, 95.068 77.599, 95.271 77.396 C 95.715 76.952, 130.208 73.865, 130.549 74.239 C 130.680 74.382, 128.023 78.788, 124.644 84.029 C 121.265 89.270, 115.244 98.616, 111.264 104.799 L 104.028 116.039 97.014 112.507 C 92.623 110.296, 90.015 109.447, 90.041 110.237 C 90.063 110.932, 93.615 123.650, 97.933 138.500 C 102.251 153.350, 105.629 165.666, 105.440 165.868 C 105.251 166.071, 102.263 165.688, 98.798 165.019 L 92.500 163.801 67.500 172.531 C 53.750 177.332, 41.975 181.461, 41.334 181.705 C 40.590 181.989, 38.183 176.051, 34.692 165.325 L 29.217 148.500 28.556 117.459 L 27.894 86.417 38.529 75.911 C 47.872 66.680, 51.517 63.957, 68.537 53.490 C 79.192 46.938, 87.752 41.419, 87.560 41.227 C 87.281 40.948, 49.563 37.559, 39 36.863 C 29.538 36.240, 60.973 35.112, 86.464 35.159 C 126.661 35.234, 128.544 33.542, 89.191 32.708 C 68.649 32.273, 54.291 32.511, 39.411 33.533 C 27.910 34.323, 17.938 34.976, 17.250 34.985 C 16.563 34.993, 16 35.675, 16 36.500 C 16 37.325, 16.563 38.001, 17.250 38.002 C 17.938 38.002, 32 39.125, 48.500 40.496 C 65 41.867, 78.949 42.991, 79.498 42.994 C 80.047 42.997, 73.297 47.367, 64.498 52.704 C 50.757 61.039, 46.878 63.992, 37 73.638 L 25.500 84.868 25.825 116.184 L 26.151 147.500 32.118 166.250 C 35.534 176.984, 38.602 184.995, 39.293 184.988 C 39.957 184.982, 52.425 180.801, 67 175.698 L 93.500 166.419 120 172.744 C 134.575 176.223, 147.285 178.941, 148.243 178.785 C 149.202 178.628, 155.418 174, 162.057 168.500 L 174.127 158.500 173.550 127.500 C 172.914 93.364, 170.993 50.996, 170.082 51.008 C 169.762 51.012, 166.598 51.898, 163.052 52.976 C 159.505 54.054, 156.449 54.782, 156.260 54.593 C 156.071 54.405, 156.948 51.647, 158.208 48.465 C 159.934 44.110, 161.550 41.930, 164.750 39.647 C 168.512 36.963, 170.350 33.999, 168.250 34.001 C 167.838 34.001, 159.438 35.126, 149.584 36.501 C 139.730 37.876, 131.530 38.863, 131.361 38.694 C 131.191 38.525, 139.444 33.012, 149.699 26.443 C 166.912 15.418, 171.283 11.945, 167.833 12.035 C 167.100 12.054, 153.598 18.777, 137.830 26.975 M 128.046 35.057 C 117.184 40.822, 116.286 41.494, 120.709 40.546 C 122.474 40.168, 126.905 37.897, 130.556 35.499 C 141.534 28.289, 140.980 28.191, 128.046 35.057 M 133.173 41.481 C 110.914 44.615, 102 46.879, 102 49.398 C 102 51.052, 107.137 66.378, 108.013 67.339 C 108.881 68.291, 149.874 57.251, 151.663 55.584 C 152.302 54.988, 154.034 51.575, 155.512 48 C 156.990 44.425, 158.899 40.712, 159.755 39.750 C 161.189 38.136, 161.123 38.008, 158.905 38.098 C 157.582 38.153, 146.003 39.675, 133.173 41.481 M 83.199 58.274 L 67.898 66.188 68.199 70.786 L 68.500 75.385 81.500 78.664 C 88.650 80.468, 94.884 81.829, 95.354 81.687 C 95.823 81.546, 93.880 80.164, 91.036 78.616 C 88.192 77.068, 86.047 75.619, 86.271 75.396 C 86.554 75.113, 142.834 70, 145.670 70 C 146.229 70, 149.982 60.649, 149.584 60.250 C 149.341 60.008, 139.548 62.487, 127.822 65.759 L 106.500 71.708 103.235 62.604 C 101.439 57.597, 99.639 52.793, 99.235 51.930 C 98.622 50.621, 95.950 51.678, 83.199 58.274 M 159.171 56.848 C 153.976 58.458, 153.770 58.667, 151.037 65.075 C 148.273 71.558, 148.217 72.091, 147.080 103.075 C 145.695 140.825, 144.094 153.706, 141.186 150.492 C 140.693 149.946, 139.023 139.006, 137.474 126.180 C 135.925 113.354, 134.340 103.454, 133.952 104.180 C 131.264 109.200, 106.796 166.130, 107.166 166.500 C 107.755 167.088, 145.509 176, 147.413 176 C 148.191 176, 153.804 171.838, 159.885 166.750 L 170.943 157.500 170.962 135.500 C 170.981 114.069, 169.679 76.846, 168.400 62.250 C 167.682 54.054, 167.856 54.156, 159.171 56.848 M 135.773 73.685 C 134.280 74.076, 134.132 74.979, 134.684 80.319 C 135.910 92.186, 136.199 92.311, 140.304 82.758 C 142.337 78.025, 144 73.894, 144 73.577 C 144 72.924, 138.394 72.998, 135.773 73.685 M 127.749 84.167 C 125.868 87.100, 120.148 96.025, 115.038 104 C 109.928 111.975, 105.566 118.700, 105.345 118.945 C 105.125 119.189, 102.446 118.164, 99.393 116.667 C 95.859 114.933, 93.962 114.419, 94.171 115.250 C 97.431 128.200, 106.585 157.815, 107.153 157.247 C 107.573 156.827, 113.799 143.072, 120.988 126.680 L 134.058 96.878 132.917 88.189 C 132.289 83.410, 131.638 79.350, 131.471 79.167 C 131.304 78.984, 129.629 81.234, 127.749 84.167 M 140.622 88.842 L 136.858 97.631 139.013 116.066 C 141.238 135.092, 142.768 142.902, 142.919 136 C 142.961 134.075, 143.489 120.880, 144.092 106.678 C 144.695 92.475, 145.008 80.675, 144.788 80.454 C 144.567 80.234, 142.693 84.009, 140.622 88.842 M 61.401 114.500 L 57.303 140.500 60.901 147.229 L 64.500 153.958 65.249 144.729 C 65.661 139.653, 65.886 124.925, 65.749 112 L 65.500 88.500 61.401 114.500" stroke="none" fill="black" fill-rule="evenodd"/>
</svg>