<svg xmlns="http://www.w3.org/2000/svg" width="200" height="200" viewBox="0 0 200 200" version="1.1">
	<path d="M 124.741 19.994 C 107.480 23.596, 96.369 25.262, 78.741 26.895 C 65.959 28.080, 54.123 29.267, 52.441 29.534 C 49.352 30.024, 48.879 30.782, 40.211 49.131 C 40.047 49.477, 41.957 51.052, 44.455 52.631 C 46.953 54.209, 48.994 55.725, 48.992 56 C 48.990 56.275, 44.378 58.319, 38.744 60.542 C 24.278 66.250, 24.994 67.234, 43.500 67.077 C 51.750 67.007, 59.872 66.703, 61.548 66.401 C 63.659 66.022, 65.302 66.424, 66.891 67.710 L 69.184 69.568 58.557 72.322 C 44.573 75.946, 42.399 76.799, 43.736 78.136 C 44.320 78.720, 55.080 80.125, 67.649 81.258 C 87.824 83.077, 90.899 83.587, 93.907 85.608 C 97.181 87.808, 97.401 87.830, 99.537 86.150 C 101.592 84.533, 102.770 84.497, 115.130 85.672 C 122.483 86.372, 131.988 87.940, 136.250 89.158 L 144 91.373 143.882 105.937 C 143.766 120.159, 142.512 149.302, 142.171 145.675 C 141.984 143.683, 129.949 101.754, 129.374 101.094 C 128.966 100.625, 108.276 105.915, 105.940 107.086 C 105.028 107.543, 103.189 112.128, 101.516 118.119 L 98.653 128.370 96.491 122.435 C 95.302 119.171, 92.662 111.750, 90.625 105.945 L 86.921 95.389 60.211 92.865 C 45.520 91.476, 33.384 90.417, 33.243 90.511 C 33.101 90.605, 36.364 94.993, 40.493 100.263 C 44.622 105.533, 48 110.333, 48 110.930 C 48 111.526, 42.112 119.099, 34.915 127.757 C 27.718 136.416, 21.614 144.011, 21.351 144.637 C 20.982 145.514, 33.978 173.145, 35.576 174.879 C 35.768 175.088, 42.804 172.236, 51.212 168.541 C 64.001 162.922, 69.267 159.879, 83.429 149.925 C 92.740 143.379, 100.472 138.139, 100.612 138.279 C 100.752 138.419, 98.480 146.851, 95.563 157.017 L 90.260 175.500 93.380 176.274 C 95.096 176.700, 106.446 178.763, 118.603 180.858 L 140.705 184.668 159.286 160.084 L 177.868 135.500 175.274 116.500 C 173.847 106.050, 172.344 97.275, 171.933 97 C 171.522 96.725, 165.736 94.952, 159.074 93.060 L 146.961 89.620 147.593 79.060 L 148.224 68.500 165.815 50.786 C 175.490 41.044, 183.076 32.742, 182.672 32.338 C 182.268 31.935, 178.014 35.407, 173.219 40.054 C 168.423 44.702, 160.815 52.066, 156.311 56.418 L 148.122 64.332 148.667 43.569 L 149.211 22.807 134.856 34.443 C 121.721 45.089, 119.292 47.537, 121.152 48.250 C 121.511 48.388, 127.248 44.091, 133.902 38.703 L 146 28.905 145.880 42.703 C 145.781 54.068, 145.594 55.707, 144.817 52 C 142.455 40.732, 143.820 40.743, 131.937 51.898 L 121.373 61.814 93.937 62.730 L 66.500 63.647 61.250 60.612 C 58.363 58.943, 56 57.323, 56 57.013 C 56 56.702, 77.592 47.685, 103.982 36.974 C 147.245 19.416, 157.076 14.722, 149.750 15.123 C 148.512 15.191, 137.259 17.383, 124.741 19.994 M 116.500 24.475 C 106.404 26.543, 91.644 28.569, 76.500 29.967 C 63.300 31.186, 52.191 32.480, 51.814 32.842 C 51.437 33.204, 49.378 36.991, 47.238 41.258 L 43.348 49.015 47.943 51.963 L 52.538 54.912 92.676 38.570 C 114.752 29.582, 133.418 21.988, 134.157 21.693 C 137.175 20.490, 131.906 21.320, 116.500 24.475 M 132.473 55.128 C 126.949 60.775, 126.020 62.129, 128 61.642 C 129.375 61.304, 133.333 61.021, 136.795 61.014 L 143.091 61 142.478 57.250 C 141.227 49.597, 140.825 48, 140.144 48 C 139.760 48, 136.308 51.208, 132.473 55.128 M 45 60.847 L 38.500 63.500 43.713 63.801 C 46.581 63.967, 51.531 63.967, 54.713 63.801 L 60.500 63.500 56.518 60.750 C 54.328 59.237, 52.303 58.044, 52.018 58.097 C 51.733 58.150, 48.575 59.387, 45 60.847 M 118.997 67.622 C 116.750 69.651, 115.269 71.619, 115.706 71.994 C 116.143 72.368, 122.043 74.158, 128.818 75.970 C 137.657 78.334, 141.441 78.959, 142.218 78.182 C 142.814 77.586, 143.346 74.264, 143.400 70.800 L 143.500 64.500 133.291 64.215 L 123.082 63.931 118.997 67.622 M 93 65.892 C 93.825 66.350, 98.259 67.721, 102.854 68.939 L 111.207 71.154 113.854 68.842 C 115.309 67.570, 116.928 66.186, 117.450 65.765 C 117.973 65.344, 112.348 65.014, 104.950 65.030 C 97.246 65.048, 92.141 65.416, 93 65.892 M 70.500 67 C 71.240 68.198, 75.713 68.198, 78.500 67 C 79.965 66.370, 79.080 66.122, 75.191 66.070 C 71.890 66.027, 70.116 66.378, 70.500 67 M 80.139 69.362 L 75.778 70.528 83.735 75.764 C 90.631 80.302, 92.351 81, 96.643 81 C 101.067 81, 101.993 80.591, 105.341 77.162 L 109.089 73.325 98.794 70.655 C 87.504 67.726, 86.515 67.658, 80.139 69.362 M 61.500 74.437 C 53.880 76.613, 53.666 76.751, 57 77.342 C 60.598 77.980, 81.107 80.003, 83.924 79.997 C 84.791 79.995, 82.800 78.196, 79.500 76 C 76.200 73.804, 72.600 72.039, 71.500 72.079 C 70.400 72.119, 65.900 73.180, 61.500 74.437 M 108.512 77.988 L 104.773 81.817 111.637 82.471 C 125.094 83.754, 132.562 84.933, 136.876 86.456 C 143.406 88.760, 145 88.517, 145 85.213 C 145 83.226, 144.473 82.386, 143.165 82.287 C 141.587 82.169, 116.557 75.671, 113.375 74.554 C 112.757 74.337, 110.568 75.882, 108.512 77.988 M 146.597 116.750 C 145.709 150.355, 145.083 159, 143.537 159 C 142.768 159, 141.772 156.512, 141.033 152.750 C 139.940 147.180, 128.161 104.966, 127.484 104.190 C 127.197 103.862, 107.754 108.986, 107.143 109.551 C 106.670 109.988, 100 133.161, 100 134.369 C 100 134.887, 100.903 134.493, 102.006 133.494 C 103.110 132.496, 104.300 131.967, 104.652 132.319 C 105.004 132.671, 102.712 142.003, 99.558 153.058 C 96.404 164.112, 93.979 173.313, 94.170 173.503 C 94.511 173.844, 139.406 181.872, 139.599 181.626 C 139.653 181.557, 147.652 171.018, 157.376 158.206 L 175.054 134.912 172.574 117.336 C 171.210 107.670, 169.924 99.591, 169.716 99.382 C 169.163 98.830, 149.706 93.025, 148.362 93.011 C 147.560 93.003, 147.038 100.019, 146.597 116.750 M 45.473 102.250 C 49.053 106.787, 51.978 110.725, 51.972 111 C 51.967 111.275, 45.703 119.059, 38.052 128.297 L 24.141 145.094 25.688 148.797 C 29.055 156.860, 37.100 172.056, 37.780 171.637 C 38.176 171.393, 44.637 168.478, 52.137 165.160 C 62.856 160.418, 69.168 156.733, 81.637 147.936 C 90.362 141.781, 97.673 136.592, 97.885 136.405 C 98.304 136.034, 86.399 101.264, 85.175 99.283 C 84.535 98.247, 49.369 94.023, 41.232 94.005 C 39.219 94.001, 39.696 94.927, 45.473 102.250" stroke="none" fill="black" fill-rule="evenodd"/>
</svg>