<svg xmlns="http://www.w3.org/2000/svg" width="200" height="200" viewBox="0 0 200 200" version="1.1">
	<path d="M 84.379 14.832 C 82.662 16.300, 76.119 22.074, 69.839 27.665 L 58.422 37.829 44.076 40.382 C 36.187 41.787, 29.484 43.182, 29.182 43.484 C 27.408 45.258, 31.924 45.753, 44 45.107 C 51.425 44.711, 57.697 44.533, 57.938 44.714 C 58.456 45.102, 56.105 81.228, 55.524 81.809 C 55.304 82.029, 47.596 82.724, 38.393 83.354 C 27.464 84.103, 21.528 84.904, 21.276 85.665 C 20.744 87.270, 28.274 87.829, 60.500 88.576 C 75.350 88.921, 87.644 89.338, 87.821 89.505 C 87.997 89.671, 87.319 92.888, 86.315 96.654 L 84.488 103.500 76.994 104.116 C 70.923 104.615, 44.697 111.717, 43.577 113.165 C 43.435 113.349, 43.584 128.856, 43.909 147.624 L 44.500 181.747 61.371 176.686 L 78.242 171.624 104.629 175.927 L 131.016 180.230 137.723 174.365 C 141.412 171.139, 147.125 165.977, 150.420 162.892 L 156.411 157.285 156.193 143.392 C 156.074 135.752, 155.697 123.560, 155.355 116.299 L 154.735 103.098 143.913 95.942 C 134.711 89.858, 128.906 84.622, 130.170 83.545 C 130.704 83.091, 165.126 80.792, 165.518 81.185 C 165.716 81.382, 159.605 83.026, 151.938 84.838 C 141.430 87.322, 138 88.514, 138 89.683 C 138 90.664, 138.642 91.068, 139.750 90.783 C 140.713 90.535, 151.287 87.905, 163.250 84.940 C 177.375 81.438, 185 79.101, 185 78.274 C 185 76.676, 183.981 76.685, 159.500 78.494 C 148.500 79.307, 138.032 79.978, 136.239 79.986 L 132.978 80 136.989 72.022 C 139.195 67.634, 141 63.302, 141 62.395 C 141 61.488, 139.153 57.400, 136.896 53.311 C 134.638 49.221, 132.951 45.734, 133.146 45.560 C 133.341 45.387, 142.275 43.360, 153 41.057 C 176.785 35.948, 176 36.172, 176 34.505 C 176 33.468, 174.753 33.262, 170.750 33.640 C 167.863 33.913, 157.850 34.704, 148.500 35.399 L 131.500 36.661 119.266 24.648 C 112.538 18.040, 106.864 12.829, 106.659 13.067 C 106.453 13.305, 105.258 17.775, 104.003 23 C 102.747 28.225, 101.513 32.869, 101.258 33.320 C 101.004 33.770, 98.106 29.495, 94.819 23.820 C 91.531 18.144, 88.540 13.200, 88.171 12.832 C 87.802 12.465, 86.095 13.365, 84.379 14.832 M 72.597 28.782 L 58.693 41.316 76.659 40.622 C 93.984 39.953, 94.692 40.002, 96.489 41.988 C 98.477 44.184, 99.953 43.263, 99.985 39.806 C 100 38.152, 89.754 19.606, 87.591 17.373 C 86.791 16.547, 82.795 19.587, 72.597 28.782 M 107.111 21.680 C 106.559 23.781, 105.458 28.356, 104.665 31.847 L 103.223 38.194 114.728 57.847 C 121.056 68.656, 126.883 78.537, 127.676 79.805 C 129.078 82.045, 129.246 81.850, 133.559 72.987 C 136.002 67.969, 138 63.171, 138 62.326 C 138 61.480, 135.975 57.187, 133.500 52.786 C 131.025 48.385, 129 44.452, 129 44.046 C 129 43.639, 134.287 42.136, 140.750 40.704 L 152.500 38.101 141.784 38.685 L 131.069 39.268 119.592 28.564 L 108.115 17.860 107.111 21.680 M 54.750 41.662 C 55.438 41.940, 56.563 41.940, 57.250 41.662 C 57.938 41.385, 57.375 41.158, 56 41.158 C 54.625 41.158, 54.063 41.385, 54.750 41.662 M 101.680 44.115 C 101.032 46.594, 103.014 49.826, 108.049 54.500 L 111.281 57.500 108.436 52.500 C 102.035 41.250, 102.333 41.620, 101.680 44.115 M 69.182 43.744 C 65.157 43.934, 62.007 44.434, 62.182 44.853 C 62.357 45.273, 67.811 52.854, 74.303 61.701 C 83.758 74.587, 86.486 77.686, 88.020 77.285 C 91.030 76.497, 91.523 75.329, 94.868 61.074 L 98.017 47.647 95.834 45.324 C 93.512 42.852, 91.075 42.707, 69.182 43.744 M 60.926 50.250 C 60.885 50.938, 60.323 58.905, 59.676 67.956 C 58.513 84.232, 58.473 84.420, 56 85.107 C 54.625 85.488, 61.435 85.845, 71.133 85.900 C 88.613 85.999, 88.772 85.980, 89.370 83.750 C 90.339 80.132, 90.134 79.749, 87.570 80.393 C 85.370 80.945, 84.036 79.492, 73.439 65.001 C 67.003 56.201, 61.572 49, 61.369 49 C 61.166 49, 60.967 49.563, 60.926 50.250 M 97.573 61.462 C 96.054 67.888, 95.018 73.351, 95.270 73.603 C 95.812 74.145, 115.014 66.728, 114.951 66 C 114.927 65.725, 111.628 61.963, 107.620 57.640 L 100.333 49.779 97.573 61.462 M 105.601 73.140 C 99.057 75.793, 93.604 78.085, 93.484 78.232 C 93.364 78.379, 92.960 80.188, 92.587 82.250 L 91.909 86 109.997 86 L 128.084 86 125.344 81.250 C 123.837 78.638, 121.455 74.659, 120.052 72.408 L 117.500 68.316 105.601 73.140 M 90.053 92.804 C 89.489 94.897, 88.727 98.117, 88.358 99.961 L 87.688 103.312 99.594 102.636 C 106.142 102.264, 116.138 101.676, 121.807 101.329 L 132.114 100.698 131.580 103.099 C 131.286 104.420, 130.351 111.745, 129.503 119.379 C 127.872 134.044, 127.633 135, 125.601 135 C 124.617 135, 124.938 138.691, 126.982 150.893 L 129.644 166.786 105.572 167.478 C 92.332 167.858, 78.761 168.019, 75.414 167.835 L 69.328 167.500 72.618 154 C 76.524 137.971, 76.521 138, 74.107 138 C 70.740 138, 70.970 135.385, 74.484 133.709 C 77.646 132.201, 77.914 131.623, 80.455 120.815 C 81.919 114.592, 83.314 108.813, 83.555 107.974 C 84.287 105.422, 71.135 107.185, 57.603 111.452 L 45.705 115.203 46.428 146.344 C 46.825 163.471, 47.256 177.590, 47.385 177.719 C 47.514 177.848, 54.441 175.877, 62.779 173.339 L 77.938 168.725 103.957 172.955 C 129.452 177.100, 130.024 177.148, 132.382 175.342 C 133.706 174.329, 139.068 169.675, 144.297 165 L 153.805 156.500 153.366 136.500 C 153.124 125.500, 152.683 113.800, 152.387 110.500 L 151.848 104.500 140.275 96.750 L 128.702 89 109.889 89 L 91.077 89 90.053 92.804 M 101.500 105.236 C 93.800 105.752, 87.348 106.325, 87.161 106.509 C 86.564 107.099, 81.092 129.426, 81.456 129.789 C 81.648 129.981, 90.138 126.283, 100.321 121.569 C 110.505 116.856, 119.262 113, 119.782 113 C 120.301 113, 121.266 116.487, 121.927 120.750 C 124.283 135.949, 124.973 135.498, 127.020 117.422 L 128.540 104 122.020 104.149 C 118.434 104.231, 109.200 104.720, 101.500 105.236 M 98.712 125.301 C 83.404 132.356, 81.377 133.546, 84.175 133.829 C 87.427 134.159, 120.045 132.288, 120.592 131.741 C 121.371 130.963, 118.502 117.007, 117.572 117.051 C 116.983 117.079, 108.495 120.792, 98.712 125.301 M 100.500 136.047 C 95 136.442, 87.988 136.818, 84.918 136.883 L 79.335 137 76.639 148.750 C 75.157 155.213, 73.670 161.547, 73.335 162.826 L 72.727 165.152 98.782 164.826 C 113.112 164.647, 125.134 164.202, 125.497 163.838 C 125.861 163.473, 125.130 156.836, 123.873 149.088 L 121.588 135 116.044 135.165 C 112.995 135.256, 106 135.653, 100.500 136.047" stroke="none" fill="black" fill-rule="evenodd"/>
</svg>