<svg xmlns="http://www.w3.org/2000/svg" width="200" height="200" viewBox="0 0 200 200" version="1.1">
	<path d="M 130.056 20.411 C 119.361 24.951, 110.436 29.191, 110.222 29.833 C 109.567 31.799, 112.077 31.141, 122.938 26.502 C 128.679 24.050, 133.529 22.196, 133.716 22.383 C 133.903 22.570, 122.779 30.013, 108.996 38.923 L 83.936 55.124 76.218 55.312 C 71.973 55.415, 67.263 55.114, 65.750 54.642 C 63.534 53.950, 63 54.096, 63 55.392 C 63 56.276, 62.438 57.012, 61.750 57.027 C 61.063 57.042, 52.400 57.896, 42.500 58.926 C 32.600 59.956, 24.415 60.722, 24.311 60.627 C 24.207 60.532, 31.857 57.133, 41.311 53.073 C 50.765 49.014, 58.900 45.339, 59.388 44.908 C 59.880 44.474, 58.614 41.810, 56.556 38.944 C 54.509 36.096, 53.209 33.416, 53.667 32.988 C 54.125 32.561, 59.788 30.994, 66.250 29.508 C 76.960 27.044, 79.383 25.973, 77.243 24.650 C 76.525 24.206, 49.229 30.437, 48.442 31.225 C 48.237 31.430, 49.906 34.186, 52.150 37.350 C 54.394 40.514, 56.058 43.275, 55.846 43.487 C 55.635 43.698, 46.470 47.772, 35.481 52.539 C 24.491 57.307, 15.087 61.596, 14.583 62.071 C 12.388 64.137, 18.494 64.148, 38.728 62.115 C 50.583 60.923, 60.403 60.072, 60.550 60.224 C 60.698 60.376, 59.172 64.441, 57.159 69.258 L 53.500 78.017 46.748 80.206 C 43.034 81.410, 40.334 82.705, 40.748 83.083 C 41.161 83.461, 52.356 86.148, 65.625 89.055 L 89.749 94.339 90.981 104.730 C 91.658 110.445, 92.051 115.282, 91.854 115.479 C 91.657 115.676, 82.332 110.212, 71.131 103.336 C 59.930 96.460, 50.428 91.209, 50.016 91.667 C 49.603 92.125, 43.356 100.414, 36.133 110.086 C 26.322 123.224, 23 128.409, 22.999 130.586 C 22.997 133.577, 27.031 165.277, 27.477 165.779 C 27.988 166.355, 62.163 178, 63.307 177.988 C 63.963 177.981, 68.863 171.761, 74.196 164.166 L 83.892 150.355 86.009 137.948 C 87.173 131.124, 88.241 125.426, 88.382 125.285 C 88.523 125.144, 91.526 137.656, 95.056 153.089 C 98.586 168.522, 101.788 181.657, 102.172 182.278 C 102.853 183.381, 151.178 186.343, 158.966 185.759 L 162.431 185.500 173.077 147.665 C 179.946 123.254, 183.328 109.690, 182.611 109.433 C 181.697 109.106, 141.613 103, 140.381 103 C 140.171 103, 140 98.559, 140 93.131 L 140 83.262 143.750 82.642 C 145.813 82.301, 150.088 82.017, 153.250 82.011 C 157.622 82.003, 159 81.650, 159 80.539 C 159 79.106, 157.855 78.684, 146 75.747 L 140.500 74.385 140.200 69.816 L 139.901 65.247 156.457 64.517 C 172.064 63.828, 176.118 62.939, 172.878 60.915 C 172.120 60.442, 164.417 57.005, 155.760 53.277 L 140.021 46.500 140.010 35.333 C 140.004 28.154, 139.610 24.037, 138.907 23.802 C 138.306 23.602, 141.006 21.435, 144.907 18.988 C 151.361 14.938, 153.947 11.879, 150.750 12.078 C 150.063 12.120, 140.750 15.870, 130.056 20.411 M 111.909 40.261 C 81.569 59.938, 81.982 58.909, 102.299 64.193 C 110.087 66.218, 116.615 67.718, 116.806 67.527 C 116.998 67.336, 117.508 63.300, 117.940 58.560 C 118.372 53.820, 118.954 49.712, 119.234 49.433 C 119.514 49.153, 122.675 52.091, 126.259 55.962 C 130.370 60.402, 133.554 63, 134.887 63 C 136.849 63, 137 62.466, 137 55.550 C 137 50.055, 136.616 47.885, 135.539 47.282 C 134.259 46.565, 134.263 45.235, 135.572 36.521 C 136.393 31.053, 136.938 26.069, 136.783 25.445 C 136.627 24.822, 125.434 31.489, 111.909 40.261 M 140 56.269 L 140 62.539 147.750 62.250 C 152.012 62.091, 157.926 61.704, 160.891 61.391 L 166.282 60.821 153.891 55.411 C 147.076 52.436, 141.162 50.002, 140.750 50.001 C 140.338 50, 140 52.821, 140 56.269 M 120.662 59.451 C 119.366 68.908, 119.141 68.549, 127.818 70.890 C 132.118 72.051, 135.943 73, 136.318 73 C 136.693 73, 137 71.425, 137 69.500 C 137 66.417, 136.697 66, 134.457 66 C 132.651 66, 130.378 64.351, 126.618 60.311 L 121.324 54.623 120.662 59.451 M 64.618 59.715 C 63.522 60.811, 59.924 69.257, 60.365 69.699 C 60.580 69.913, 64.209 67.876, 68.430 65.171 C 74.049 61.571, 75.667 60.086, 74.470 59.627 C 72.245 58.773, 65.500 58.833, 64.618 59.715 M 67.772 68.766 C 61.322 72.952, 56.182 76.516, 56.350 76.684 C 56.519 76.852, 60.671 75.616, 65.578 73.938 C 73.142 71.350, 75.418 70.979, 80.532 71.499 L 86.564 72.112 86.179 67.806 C 85.742 62.901, 85.445 62.467, 82 61.706 C 80.057 61.276, 76.885 62.850, 67.772 68.766 M 88.829 68.006 C 89.039 70.210, 89.556 72.226, 89.978 72.487 C 90.400 72.747, 96.291 73.865, 103.069 74.971 C 115.960 77.074, 116.948 76.918, 116.985 72.778 C 117 71.004, 116.234 70.722, 98.739 66.066 C 88.282 63.282, 88.377 63.264, 88.829 68.006 M 119.667 72.667 C 119.300 73.033, 119 74.321, 119 75.529 C 119 77.430, 119.705 77.810, 124.250 78.363 C 127.138 78.714, 131.188 79.285, 133.250 79.632 C 136.554 80.187, 137 80.021, 137 78.240 C 137 76.564, 135.665 75.859, 129.182 74.110 C 120.359 71.729, 120.572 71.761, 119.667 72.667 M 61.205 78.191 C 54.993 80.420, 50.046 82.379, 50.211 82.544 C 50.881 83.214, 88.226 91.108, 88.661 90.672 C 89.195 90.138, 87.378 76.045, 86.687 75.353 C 86.439 75.106, 83.146 74.731, 79.368 74.521 C 73.320 74.185, 71.152 74.623, 61.205 78.191 M 90.412 80 C 90.735 82.200, 91.265 85.801, 91.588 88.003 C 92.032 91.018, 92.710 92.133, 94.338 92.520 C 100.671 94.026, 114.457 96.870, 114.590 96.699 C 114.674 96.589, 115.056 92.803, 115.437 88.286 C 116.241 78.774, 117.798 80.001, 101.761 77.512 C 88.925 75.519, 89.728 75.343, 90.412 80 M 140 78.481 C 140 79.606, 141.102 79.992, 144.250 79.970 C 148.699 79.938, 148.018 78.869, 142.750 77.616 C 140.670 77.121, 140 77.332, 140 78.481 M 118.593 84.900 C 118.289 87.430, 117.922 91.272, 117.779 93.439 L 117.518 97.377 124.009 99.014 C 127.579 99.915, 131.963 100.944, 133.750 101.301 L 137 101.950 137 92.475 C 137 87.264, 136.662 82.991, 136.250 82.980 C 135.838 82.969, 131.820 82.362, 127.323 81.630 L 119.146 80.300 118.593 84.900 M 38.211 112.063 L 25.394 129.126 27.518 146.143 C 28.992 157.955, 30.079 163.437, 31.071 164.064 C 32.972 165.266, 63.051 175.307, 63.392 174.854 C 63.539 174.659, 67.706 168.650, 72.651 161.500 L 81.644 148.500 83.882 134 C 85.113 126.025, 86.333 118.762, 86.593 117.859 C 86.949 116.623, 82.779 113.606, 69.656 105.609 C 60.081 99.774, 51.973 95, 51.638 95 C 51.303 95, 45.261 102.678, 38.211 112.063 M 93.019 97.683 C 93.030 99.232, 93.675 104.992, 94.453 110.483 C 95.231 115.974, 95.686 120.647, 95.465 120.869 C 95.243 121.090, 93.857 120.481, 92.383 119.515 C 89.803 117.825, 89.721 117.829, 90.180 119.630 C 90.442 120.658, 93.724 134.842, 97.474 151.149 L 104.291 180.797 121.896 181.544 C 131.578 181.955, 144.192 182.338, 149.927 182.396 L 160.355 182.500 170.207 147.580 C 175.626 128.373, 179.708 112.361, 179.280 111.996 C 178.495 111.327, 148.879 106.759, 148.458 107.242 C 148.334 107.384, 146.380 110.382, 144.116 113.905 L 140 120.310 140 145.655 C 140 165.758, 139.732 171, 138.703 171 C 137.763 171, 136.955 166.653, 135.776 155.250 C 134.355 141.518, 134.322 138.475, 135.520 131.500 C 137.153 121.990, 137.457 105, 135.993 105 C 131.359 105, 114.459 101.669, 113.592 100.585 C 112.991 99.833, 108.900 98.463, 104.500 97.540 C 100.100 96.617, 95.713 95.637, 94.750 95.363 C 93.377 94.972, 93.004 95.472, 93.019 97.683 M 140 110 C 140 112.200, 140.188 114, 140.418 114 C 140.947 114, 145 107.482, 145 106.632 C 145 106.284, 143.875 106, 142.500 106 C 140.250 106, 140 106.400, 140 110" stroke="none" fill="black" fill-rule="evenodd"/>
</svg>