<svg xmlns="http://www.w3.org/2000/svg" width="200" height="200" viewBox="0 0 200 200" version="1.1">
	<path d="M 102 22.576 C 89.625 24.421, 68.925 27.073, 56 28.467 C 27.668 31.524, 26 31.787, 26 33.199 C 26 34.253, 38.546 34.033, 67 32.482 L 75.500 32.018 63.190 35.267 C 56.419 37.054, 51.019 38.963, 51.190 39.508 C 51.520 40.565, 76.384 40.550, 92.750 39.483 C 97.838 39.151, 102 39.248, 102 39.699 C 102 41.161, 60.996 50.802, 42.753 53.628 C 32.992 55.141, 24.522 56.677, 23.931 57.043 C 23.233 57.474, 24.930 62.754, 28.770 72.105 L 34.684 86.503 32.342 93.446 C 30.073 100.175, 30 101.413, 30.007 133.445 C 30.015 168.621, 30.598 180.001, 32.395 179.999 C 33.003 179.998, 41.593 164.714, 51.485 146.034 C 61.378 127.354, 69.757 112.393, 70.106 112.785 C 72.023 114.941, 77.485 135.106, 83.504 162.250 C 88.299 183.874, 90.720 193, 91.661 193 C 92.398 193, 93.032 192.662, 93.071 192.250 C 93.110 191.838, 96.830 176.200, 101.339 157.500 L 109.538 123.500 112.519 123.208 C 115.459 122.921, 115.742 123.356, 132.912 154.500 C 142.489 171.870, 150.662 186.291, 151.075 186.547 C 151.824 187.009, 193.921 159.962, 193.973 158.985 C 193.988 158.702, 184.287 154.840, 172.416 150.404 L 150.832 142.337 159.166 139.545 C 163.750 138.010, 167.810 136.472, 168.189 136.127 C 168.568 135.782, 168.971 128.300, 169.085 119.500 L 169.292 103.500 154.896 102.897 L 140.500 102.295 124.167 96.231 C 115.184 92.896, 107.651 89.985, 107.429 89.762 C 106.623 88.957, 105.264 43.478, 106.021 42.652 C 106.768 41.835, 108.965 45.325, 119.595 64.218 L 124.500 72.936 153 88.453 C 168.675 96.987, 181.598 103.639, 181.718 103.235 C 181.838 102.831, 179.357 93.275, 176.204 82 L 170.471 61.500 162.053 61 L 153.634 60.500 166.407 50.029 C 176.867 41.454, 178.846 39.425, 177.339 38.820 C 173.553 37.298, 148.780 32.870, 147.278 33.447 C 144.545 34.496, 146.630 35.219, 160.225 37.936 L 173.500 40.590 159.615 52.045 L 145.731 63.500 157.093 64 L 168.456 64.500 173.193 81.452 C 175.798 90.775, 177.833 98.477, 177.715 98.567 C 177.597 98.657, 166.011 92.456, 151.969 84.787 L 126.438 70.843 118.469 56.715 C 114.086 48.944, 110.374 42.300, 110.219 41.951 C 110.065 41.602, 122.890 38.045, 138.719 34.048 C 154.549 30.050, 168.175 26.409, 169 25.957 C 170.304 25.242, 170.284 25.051, 168.848 24.498 C 167.621 24.025, 124.225 34.385, 109.917 38.566 C 108.821 38.886, 107.482 37.465, 105.568 33.947 C 104.046 31.152, 102.959 28.718, 103.151 28.538 C 103.343 28.358, 109.317 26.769, 116.428 25.006 C 131.656 21.231, 132.155 21.060, 131.435 19.895 C 130.601 18.546, 126.542 18.915, 102 22.576 M 87.500 27.548 L 79.500 28.845 86.840 28.312 C 90.877 28.019, 95.377 27.417, 96.840 26.975 C 100.789 25.783, 96.937 26.019, 87.500 27.548 M 78 34.485 L 65.500 37.781 81 37.338 C 96.712 36.889, 103 36.332, 103 35.389 C 103 35.103, 102.534 33.998, 101.965 32.934 C 100.428 30.064, 92.927 30.549, 78 34.485 M 92.500 45.781 C 87.550 47.106, 83.346 48.339, 83.159 48.520 C 82.971 48.701, 80.925 59.793, 78.612 73.170 C 75.400 91.748, 74.050 97.559, 72.897 97.781 C 71.730 98.006, 70.034 93.270, 65.443 76.964 C 62.174 65.354, 59.239 55.422, 58.919 54.892 C 58.354 53.955, 28.451 58.216, 27.264 59.403 C 26.961 59.705, 29.028 65.571, 31.857 72.438 C 34.686 79.305, 37 85.753, 37 86.768 C 37 87.782, 36.094 91.293, 34.987 94.571 C 33.094 100.179, 32.990 102.703, 33.237 137.308 L 33.500 174.085 51.367 140.293 C 61.194 121.707, 69.597 106.107, 70.041 105.626 C 71.495 104.051, 79.025 129.962, 85.405 158.500 L 91.666 186.500 95.939 168.500 C 98.289 158.600, 101.857 143.750, 103.868 135.500 L 107.524 120.500 112.379 120.500 L 117.233 120.500 134.367 151.709 C 143.790 168.874, 151.811 182.937, 152.190 182.959 C 152.570 182.982, 160.866 177.769, 170.626 171.375 C 187.624 160.241, 188.269 159.699, 185.936 158.529 C 184.596 157.857, 174.583 154.028, 163.685 150.019 C 152.786 146.011, 144.236 142.397, 144.685 141.990 C 145.133 141.582, 149.920 139.795, 155.322 138.018 C 160.725 136.241, 165.300 134.272, 165.491 133.643 C 165.681 133.015, 166.063 126.605, 166.339 119.401 L 166.841 106.301 153.914 105.683 C 141.159 105.073, 140.745 104.977, 122.648 98.460 L 104.308 91.855 103.654 75.268 C 103.294 66.145, 103 55.404, 103 51.399 C 103 47.395, 102.662 43.950, 102.250 43.744 C 101.838 43.539, 97.450 44.455, 92.500 45.781 M 67.750 52.242 C 64.588 52.784, 62 53.644, 62 54.154 C 62 56.049, 72.403 91.292, 72.699 90.402 C 72.869 89.893, 74.503 80.819, 76.331 70.238 L 79.655 51 76.577 51.128 C 74.885 51.199, 70.912 51.700, 67.750 52.242" stroke="none" fill="black" fill-rule="evenodd"/>
</svg>