<svg xmlns="http://www.w3.org/2000/svg" width="200" height="200" viewBox="0 0 200 200" version="1.1">
	<path d="M 128.677 17.169 C 129.402 23.862, 129.855 29.479, 129.684 29.650 C 129.512 29.821, 113.688 28.395, 94.519 26.480 C 54.353 22.469, 57 22.624, 57 24.287 C 57 25.246, 65.837 26.431, 91.750 28.946 C 110.863 30.801, 127.513 32.686, 128.750 33.135 C 133.944 35.018, 131.078 36.654, 117.750 39.415 L 104.500 42.160 74.500 37.546 C 58 35.008, 43.262 32.687, 41.750 32.387 C 39.757 31.991, 39 32.243, 39 33.300 C 39 34.388, 47.671 36.880, 73.021 43.078 C 92.300 47.792, 106.467 51.719, 105.714 52.140 C 104.984 52.548, 100.994 53.122, 96.847 53.414 C 92.699 53.706, 88.675 54.172, 87.903 54.448 C 84.696 55.598, 24.551 62.940, 23.987 62.251 C 23.649 61.838, 21.523 59.229, 19.263 56.453 L 15.153 51.405 27.097 38.140 C 33.953 30.526, 38.747 24.400, 38.351 23.758 C 37.653 22.629, 35.554 24.708, 19.614 42.317 L 11.728 51.029 16.364 56.930 C 21.446 63.399, 21.713 64, 19.500 64 C 16.303 64, 18.133 66.768, 21.750 67.402 C 25.138 67.997, 26.656 69.521, 37.476 83.199 L 49.452 98.338 49.144 104.992 C 48.975 108.651, 48.761 112.464, 48.668 113.465 C 48.161 118.950, 52.266 113.660, 65.645 91.591 C 75.806 74.828, 81.053 67.072, 82.250 67.042 C 83.213 67.019, 83.991 67.338, 83.981 67.750 C 83.970 68.162, 79.308 81.077, 73.621 96.449 L 63.280 124.397 40.512 128.660 C 27.990 131.004, 17.635 133.052, 17.500 133.211 C 17.028 133.769, 24.352 174, 24.923 173.983 C 26.574 173.935, 63.500 154.137, 64.200 152.924 C 64.652 152.141, 66.062 149.077, 67.334 146.116 L 69.645 140.732 79.029 163.859 C 84.191 176.579, 88.717 186.652, 89.088 186.243 C 89.459 185.834, 94.354 163.225, 99.965 136 C 105.577 108.775, 110.618 84.362, 111.167 81.750 C 111.716 79.138, 112.510 77, 112.930 77 C 113.350 77, 113.986 82.063, 114.341 88.250 C 114.936 98.586, 114.571 102.243, 109.853 133.275 C 107.028 151.852, 104.913 167.246, 105.152 167.485 C 105.391 167.724, 118.829 170.184, 135.016 172.952 C 158.244 176.924, 164.675 177.722, 165.537 176.742 C 166.138 176.059, 170.088 171.623, 174.315 166.885 C 180.577 159.866, 182 157.664, 182 154.996 C 182 153.195, 179.962 131.917, 177.470 107.713 L 172.941 63.704 162.470 49.915 C 156.712 42.330, 152 35.197, 152 34.062 C 152 32.783, 151.336 31.982, 150.250 31.953 C 149.194 31.925, 144.535 26.578, 138.500 18.467 C 133 11.075, 128.243 5.021, 127.929 5.014 C 127.615 5.006, 127.952 10.476, 128.677 17.169 M 131.033 14.536 C 131.218 20.008, 133.121 29.461, 134.171 30.127 C 135.606 31.037, 144 31.337, 144 30.479 C 144 29.950, 134.756 17.722, 132.325 15.036 C 131.596 14.230, 131.015 14.005, 131.033 14.536 M 133 34.617 C 133 35.805, 133.596 36.074, 135.250 35.630 C 136.488 35.299, 138.400 34.976, 139.500 34.914 C 141.166 34.820, 141.083 34.667, 139 34 C 134.916 32.692, 133 32.889, 133 34.617 M 140.010 37.382 C 134.037 38.641, 133.337 39.652, 134.424 45.448 L 135.034 48.696 140.262 47.870 L 145.490 47.043 151.820 53.272 C 158.896 60.233, 162.855 65.211, 160.813 64.579 C 155.304 62.874, 136.812 58.855, 136.394 59.272 C 136.107 59.559, 136.464 64.887, 137.186 71.112 L 138.500 82.429 141.792 83.371 C 144.476 84.139, 145.586 83.949, 147.792 82.343 C 153.215 78.395, 153.267 78.401, 152.842 82.860 L 152.449 86.983 159.474 89.366 C 163.338 90.677, 166.431 92.144, 166.347 92.625 C 166.263 93.106, 161.168 108.912, 155.024 127.750 C 146.758 153.096, 143.454 162, 142.314 162 C 141.074 162, 140.889 161.168, 141.368 157.750 C 143.675 141.264, 149.045 90.560, 148.605 89.413 C 147.853 87.453, 144.968 87.685, 142.032 89.941 C 140.030 91.479, 139.617 92.579, 139.847 95.759 L 140.130 99.681 131.519 101.995 C 119.543 105.213, 118.668 103.789, 128.369 96.870 C 135.265 91.952, 135.903 91.203, 135.949 87.968 L 136 84.436 126.308 81.243 C 120.977 79.488, 116.564 78.152, 116.501 78.275 C 116.438 78.399, 116.706 83, 117.097 88.500 C 117.739 97.541, 117.324 101.692, 112.775 131.789 C 110.008 150.097, 107.914 165.223, 108.122 165.401 C 108.330 165.580, 120.875 167.812, 136 170.362 L 163.500 174.998 166 172.138 C 167.375 170.565, 171.024 166.403, 174.110 162.889 L 179.719 156.500 175.052 111 C 172.485 85.975, 169.960 64.775, 169.442 63.890 C 166.040 58.075, 148.225 36.029, 147 36.117 C 146.175 36.176, 143.029 36.745, 140.010 37.382 M 116 42.620 L 105.500 44.986 92.159 42.917 C 84.822 41.779, 78.653 41.014, 78.451 41.216 C 78.248 41.418, 86.951 43.696, 97.791 46.276 C 116.465 50.722, 117.865 50.915, 124.439 49.961 C 128.256 49.408, 131.563 48.770, 131.789 48.545 C 132.014 48.319, 131.889 46.304, 131.511 44.067 C 130.694 39.229, 130.942 39.252, 116 42.620 M 138.689 50.732 C 135.435 51.070, 134.923 51.448, 135.189 53.314 C 135.444 55.105, 136.674 55.785, 142 57.077 C 145.575 57.945, 149.850 58.987, 151.500 59.394 C 154.409 60.111, 154.350 59.980, 149.538 55.067 C 146.808 52.280, 144.108 50.076, 143.538 50.168 C 142.967 50.261, 140.785 50.514, 138.689 50.732 M 126.500 52.800 C 127.050 53.318, 128.782 54.045, 130.348 54.415 C 132.444 54.910, 133.084 54.746, 132.771 53.794 C 132.537 53.082, 130.806 52.355, 128.923 52.179 C 126.751 51.975, 125.865 52.202, 126.500 52.800 M 110 54.559 C 109.175 54.738, 104.532 55.412, 99.682 56.055 C 90.361 57.293, 90.635 57.105, 88.598 63.650 C 87.983 65.626, 88.791 66.088, 98.660 69.392 C 110.558 73.377, 110.505 73.390, 111.586 66.238 C 112.223 62.024, 113.490 60.159, 114.817 61.481 C 115.192 61.855, 115.725 65.121, 116 68.738 L 116.500 75.313 125.500 78.136 C 130.450 79.689, 134.666 80.969, 134.868 80.980 C 135.375 81.008, 134.019 65.293, 133.149 61.056 C 132.473 57.767, 132.128 57.532, 125.471 55.829 C 119.038 54.183, 113.727 53.747, 110 54.559 M 77.500 58.693 C 71.843 59.434, 71.317 60.150, 75.365 61.595 C 79.576 63.098, 80.459 62.880, 82.030 59.944 C 82.813 58.480, 82.753 58.037, 81.785 58.150 C 81.078 58.232, 79.150 58.477, 77.500 58.693 M 84.522 60.607 C 83.323 62.437, 83.128 63.528, 83.870 64.270 C 84.611 65.011, 85.244 64.489, 85.993 62.519 C 86.580 60.975, 87.298 59.327, 87.589 58.856 C 88.956 56.644, 86.021 58.320, 84.522 60.607 M 45 63.010 C 38.125 63.972, 31.375 64.930, 30 65.139 C 27.920 65.455, 56.210 71.076, 59.592 71.019 C 60.600 71.001, 63 64.745, 63 62.134 C 63 60.712, 60.569 60.831, 45 63.010 M 64.967 66.124 C 64.356 68.393, 63.475 71.252, 63.009 72.478 L 62.161 74.706 46.831 71.863 C 38.399 70.300, 31.115 69.144, 30.644 69.295 C 30.174 69.447, 34.763 75.732, 40.844 83.262 C 51.672 96.673, 51.905 97.068, 52.199 102.548 L 52.500 108.143 65.359 87.014 C 72.431 75.392, 78.056 65.750, 77.859 65.587 C 77.293 65.118, 67.732 62, 66.860 62 C 66.430 62, 65.577 63.856, 64.967 66.124 M 76.100 97.541 C 70.380 113.230, 65.309 126.309, 64.831 126.605 C 64.352 126.900, 54.439 128.916, 42.801 131.084 C 31.164 133.251, 21.425 135.242, 21.159 135.507 C 20.894 135.773, 21.962 143.657, 23.534 153.027 C 25.934 167.337, 26.640 169.969, 27.945 169.470 C 28.800 169.144, 36.768 165.077, 45.652 160.432 L 61.804 151.988 65.609 143.001 C 67.702 138.058, 69.704 134.349, 70.059 134.757 C 70.413 135.166, 74.419 144.841, 78.960 156.258 C 83.502 167.675, 87.508 177.196, 87.864 177.416 C 88.446 177.776, 109.189 78.951, 109.056 76.450 C 109.009 75.571, 89.747 68.983, 87.294 69.008 C 86.858 69.012, 81.820 81.852, 76.100 97.541 M 139 87.622 C 139 88.951, 139.271 89.020, 140.500 88 C 141.325 87.315, 142 86.585, 142 86.378 C 142 86.170, 141.325 86, 140.500 86 C 139.675 86, 139 86.730, 139 87.622 M 151.606 93.750 C 150.203 102.991, 145.898 143.193, 146.210 144.131 C 146.402 144.706, 150.289 133.617, 154.848 119.490 C 159.407 105.362, 162.994 93.688, 162.819 93.547 C 162.498 93.288, 152.848 90, 152.410 90 C 152.281 90, 151.920 91.688, 151.606 93.750 M 133.500 96.569 L 130.500 99.133 133.498 98.485 C 137.122 97.702, 137.267 97.576, 136.838 95.581 C 136.562 94.292, 135.953 94.472, 133.500 96.569" stroke="none" fill="black" fill-rule="evenodd"/>
</svg>