<svg xmlns="http://www.w3.org/2000/svg" width="200" height="200" viewBox="0 0 200 200" version="1.1">
	<path d="M 130 17.555 C 105.525 22.145, 82.669 25.923, 79.210 25.950 C 71.854 26.008, 28.740 29.926, 28.069 30.598 C 27.817 30.849, 28.568 46.455, 29.737 65.277 L 31.863 99.500 26.347 133.332 C 23.313 151.940, 21.034 167.367, 21.281 167.614 C 21.528 167.862, 26.620 167.249, 32.596 166.253 L 43.462 164.442 49.981 130.786 C 53.566 112.275, 56.725 96.913, 57 96.649 C 57.275 96.384, 62.855 104.702, 69.401 115.133 C 76.166 125.915, 80.913 134.452, 80.401 134.918 C 79.905 135.369, 75 139.218, 69.500 143.472 C 64 147.727, 59.372 151.546, 59.215 151.960 C 59.058 152.374, 62.133 156.857, 66.049 161.924 L 73.168 171.136 93.334 170.545 C 104.425 170.220, 119.834 169.697, 127.575 169.382 L 141.651 168.810 136.548 154.655 L 131.446 140.500 120.483 139.677 C 114.454 139.224, 109.359 138.692, 109.162 138.495 C 108.723 138.057, 138.370 100.094, 138.824 100.514 C 139.002 100.679, 138.639 106.880, 138.017 114.294 L 136.887 127.775 154.566 160.638 C 164.289 178.712, 172.595 193.883, 173.023 194.351 C 173.451 194.819, 174.041 194.369, 174.335 193.351 C 176.342 186.389, 188.067 132.701, 187.773 131.818 C 187.571 131.214, 182.477 127.918, 176.453 124.494 L 165.500 118.268 165.780 112.884 C 165.934 109.923, 166.951 91.567, 168.041 72.094 C 169.131 52.621, 169.892 36.558, 169.732 36.399 C 169.572 36.239, 157.480 47.761, 142.861 62.003 C 118.624 85.613, 115.716 88.123, 109.890 90.466 C 106.375 91.879, 98.218 95.903, 91.762 99.408 C 85.305 102.913, 80.355 105.203, 80.762 104.496 C 83.177 100.292, 117.609 57.281, 118.119 57.832 C 118.460 58.199, 119.531 62.775, 120.500 68 C 121.469 73.225, 122.587 77.862, 122.984 78.304 C 123.382 78.746, 128.037 73.942, 133.329 67.628 C 144.350 54.478, 144.836 56.018, 129.009 53.949 C 124.339 53.338, 120.289 52.537, 120.009 52.169 C 119.729 51.801, 115.810 51.381, 111.300 51.236 C 95.514 50.729, 97.201 49.761, 124.666 43.571 C 138.875 40.368, 150.946 37.336, 151.492 36.832 C 153.618 34.869, 149.072 34.305, 121.717 33.134 C 106.198 32.469, 89.225 31.628, 84 31.264 C 67.349 30.105, 79.724 29.121, 111.750 29.058 C 130.545 29.021, 141 28.643, 141 28 C 141 27.450, 138.637 26.945, 135.750 26.878 C 132.863 26.811, 124.200 26.473, 116.500 26.128 L 102.500 25.500 126 21.206 C 174.265 12.388, 177 11.807, 177 10.373 C 177 9.618, 176.438 9.047, 175.750 9.105 C 175.063 9.162, 154.475 12.965, 130 17.555 M 43 31.558 C 36.125 32.269, 30.497 32.885, 30.493 32.926 C 30.489 32.967, 31.412 47.962, 32.544 66.250 L 34.602 99.500 29.356 131.972 C 26.471 149.831, 24.198 164.526, 24.305 164.627 C 24.674 164.974, 40.279 162.054, 40.791 161.542 C 41.073 161.260, 44.381 145.035, 48.141 125.486 L 54.979 89.943 67.134 74.722 C 81.910 56.218, 81.556 56.607, 82.886 57.429 C 83.546 57.838, 79.326 65.036, 71.982 76.028 C 65.392 85.890, 60 94.246, 60 94.595 C 60 95.091, 75.440 119.875, 83.706 132.647 C 85.028 134.691, 84.585 135.190, 74.583 142.935 C 68.802 147.413, 63.791 151.529, 63.448 152.083 C 63.106 152.637, 65.367 156.467, 68.473 160.594 L 74.120 168.097 104.810 167.467 C 121.690 167.121, 136.010 166.684, 136.634 166.495 C 137.370 166.272, 136.317 162.110, 133.634 154.631 C 130.533 145.988, 129 142.975, 127.500 142.569 C 126.400 142.271, 120.438 142.021, 114.250 142.014 C 108.063 142.006, 103 141.787, 103 141.526 C 103 140.807, 141.058 92.539, 141.860 92.240 C 142.243 92.098, 141.948 99.973, 141.203 109.740 L 139.849 127.500 156.110 157.731 C 165.054 174.357, 172.481 187.852, 172.614 187.720 C 172.747 187.587, 175.651 175.161, 179.067 160.107 C 184.181 137.577, 185.034 132.591, 183.890 131.915 C 183.125 131.463, 178.225 128.669, 173 125.706 L 163.500 120.319 163.221 115.909 C 163.067 113.484, 163.821 96.204, 164.896 77.509 C 165.971 58.814, 166.729 43.396, 166.579 43.246 C 166.430 43.097, 155.292 53.688, 141.828 66.782 C 119.917 88.091, 116.726 90.826, 111.424 92.842 C 108.166 94.081, 98.829 98.709, 90.677 103.126 C 74.574 111.850, 70.766 112.648, 75.758 106.249 C 77.367 104.187, 86.900 92.008, 96.942 79.184 C 106.985 66.360, 114.977 55.644, 114.703 55.370 C 114.429 55.095, 98.184 52.763, 78.602 50.186 C 53.286 46.854, 43 45.139, 43 44.250 C 43 42.632, 42.405 42.613, 71 45.148 L 95.500 47.321 117.180 42.424 C 129.105 39.731, 138.679 37.345, 138.456 37.123 C 137.724 36.391, 86.851 34.102, 70.167 34.051 C 57.562 34.012, 53.928 33.715, 54.249 32.750 C 54.478 32.063, 55.978 31.216, 57.582 30.868 C 60.164 30.309, 60.212 30.238, 58 30.251 C 56.625 30.258, 49.875 30.847, 43 31.558 M 121.046 56.750 C 121.071 57.163, 121.858 61.225, 122.796 65.778 L 124.500 74.055 130.843 66.454 C 134.331 62.273, 136.980 58.647, 136.729 58.396 C 136.203 57.869, 125.354 56.014, 122.750 56.006 C 121.787 56.003, 121.021 56.337, 121.046 56.750" stroke="none" fill="black" fill-rule="evenodd"/>
</svg>