<svg xmlns="http://www.w3.org/2000/svg" width="200" height="200" viewBox="0 0 200 200" version="1.1">
	<path d="M 135 23.685 C 119.325 28.261, 104.813 32.471, 102.750 33.041 C 100.504 33.662, 99 34.690, 99 35.606 C 99 36.692, 99.594 36.946, 101.050 36.484 C 109.012 33.957, 150.479 22.146, 150.681 22.348 C 150.820 22.486, 145.238 25.696, 138.279 29.482 C 131.319 33.267, 122.693 38.583, 119.109 41.296 L 112.592 46.228 106.235 43.093 C 102.738 41.369, 99.342 40.255, 98.688 40.619 C 93.545 43.477, 56.041 68.375, 56.376 68.709 C 57.411 69.744, 83.369 72.945, 84.384 72.162 C 84.998 71.690, 90.945 67.005, 97.601 61.753 C 104.257 56.500, 110.603 51.640, 111.704 50.953 C 113.460 49.856, 115.801 50.783, 130.838 58.533 C 140.261 63.389, 147.841 67.493, 147.682 67.652 C 147.523 67.811, 130.542 70.662, 109.946 73.989 C 75.166 79.606, 47.288 84.286, 40.750 85.604 C 39.237 85.909, 38 86.721, 38 87.407 C 38 88.257, 41.583 89.047, 49.250 89.885 C 55.438 90.561, 61.914 91.355, 63.642 91.648 L 66.784 92.182 61.142 102.060 C 58.039 107.493, 54.911 111.952, 54.191 111.969 C 53.471 111.986, 53.162 112.453, 53.503 113.006 C 53.845 113.559, 48.134 124.368, 40.812 137.027 C 30.901 154.162, 27.318 159.590, 26.789 158.271 C 26.399 157.297, 24.695 149.466, 23.004 140.869 L 19.930 125.239 29.023 88.869 C 37.702 54.158, 38.272 52.340, 41.529 48.988 C 44.628 45.798, 44.995 44.787, 45.524 37.988 C 45.844 33.869, 46.311 29.125, 46.561 27.445 L 47.017 24.390 66.259 26.638 C 89.433 29.345, 89 29.325, 89 27.687 C 89 26.430, 72.555 24.085, 51.406 22.326 L 44.312 21.736 43.656 28.015 C 43.295 31.468, 43 36.251, 43 38.644 C 43 42.239, 42.371 43.690, 39.379 47.002 C 35.893 50.861, 35.410 52.398, 26.462 88.152 L 17.166 125.293 21.311 146.147 C 23.591 157.616, 25.716 167, 26.034 167 C 26.352 167, 32.887 156.142, 40.556 142.872 C 48.225 129.601, 54.950 118.128, 55.500 117.375 C 56.277 116.311, 58.124 117.900, 63.785 124.503 C 67.792 129.176, 71.435 133, 71.882 133 C 72.329 133, 76.550 130.092, 81.261 126.538 L 89.828 120.077 95.664 121.033 C 98.874 121.558, 101.522 121.991, 101.549 121.994 C 101.576 121.997, 101.418 123.549, 101.196 125.443 C 100.807 128.779, 99.954 129.395, 73.647 145.350 C 58.716 154.405, 43.601 163.577, 40.058 165.733 C 33.356 169.810, 31.492 172, 34.722 172 C 35.761 172, 46.425 170.028, 58.419 167.618 L 80.227 163.236 90.197 153.368 L 100.168 143.500 99.463 158.250 L 98.758 173 108.134 173 L 117.511 173 131.869 163.414 C 139.766 158.141, 146.558 154.204, 146.962 154.664 C 147.366 155.124, 154.852 164.950, 163.598 176.500 L 179.500 197.500 180.111 172.500 C 180.446 158.750, 180.784 134.240, 180.861 118.033 C 180.977 93.362, 181.267 87.867, 182.642 84.269 C 184.164 80.283, 184.164 79.838, 182.642 78.156 C 181.215 76.580, 181 73.188, 181 52.290 L 181 28.238 159.250 36.204 C 147.287 40.586, 137.360 44.310, 137.188 44.481 C 137.016 44.651, 146.129 52.282, 157.438 61.438 L 178 78.085 178 83.084 C 178 90.169, 155.435 143.088, 150.651 147.223 C 148.918 148.721, 147.275 149.941, 147 149.935 C 146.484 149.924, 131.169 129.938, 129.643 127.284 C 128.943 126.069, 129.312 125.895, 131.643 126.343 C 133.214 126.646, 136.412 127.182, 138.750 127.534 C 145.515 128.555, 144.154 125.808, 134.791 119.539 L 126.583 114.043 124.467 116.031 C 123.304 117.124, 122.042 117.709, 121.665 117.331 C 121.287 116.953, 119.286 117.595, 117.217 118.758 C 114.363 120.362, 112.438 120.734, 109.229 120.304 L 105 119.737 105.024 114.118 L 105.048 108.500 112.428 103.265 L 119.807 98.031 132.041 99.545 C 138.769 100.378, 144.456 100.877, 144.679 100.654 C 144.902 100.431, 141.539 97.316, 137.207 93.732 L 129.329 87.215 124.125 91.183 C 118.960 95.122, 118.874 95.146, 112.461 94.459 C 106.141 93.782, 106 93.703, 106 90.838 L 106 87.910 79.501 88.156 C 59.929 88.338, 52.688 88.088, 51.801 87.201 C 50.866 86.266, 50.922 86, 52.050 86.002 C 55.028 86.005, 154.530 69.646, 155.251 69.035 C 155.664 68.685, 146.929 63.738, 135.840 58.042 L 115.678 47.685 119.965 44.029 C 122.324 42.019, 133.421 35.311, 144.626 29.124 C 163.433 18.740, 166.312 16.777, 164.250 15.741 C 163.838 15.534, 150.675 19.109, 135 23.685 M 160.500 38.558 C 151.150 42.044, 143.149 45.036, 142.719 45.208 C 142.290 45.380, 149.900 51.931, 159.630 59.766 C 169.360 67.601, 177.417 73.897, 177.533 73.756 C 178.227 72.917, 179.011 32.020, 178.331 32.111 C 177.874 32.171, 169.850 35.073, 160.500 38.558 M 81.136 55.012 C 71.035 61.592, 63.385 67.163, 64.136 67.394 C 64.886 67.624, 69.439 68.322, 74.252 68.944 L 83.005 70.076 95.752 59.883 C 102.764 54.277, 108.892 49.345, 109.372 48.924 C 110.035 48.340, 101.195 42.902, 99.783 43.025 C 99.627 43.038, 91.236 48.433, 81.136 55.012 M 91.500 92.046 C 98.697 93.167, 103 93.150, 103 92 C 103 91.403, 99.672 91.054, 94.750 91.134 C 86.978 91.259, 86.789 91.312, 91.500 92.046 M 125.500 93.531 C 122.789 95.753, 122.703 95.991, 124.610 95.995 C 125.771 95.998, 128.921 96.254, 131.610 96.565 L 136.500 97.130 133.038 94.065 C 131.134 92.379, 129.334 91.016, 129.038 91.036 C 128.742 91.056, 127.150 92.179, 125.500 93.531 M 63.969 102.381 C 60.736 107.904, 58.183 112.516, 58.295 112.629 C 58.408 112.741, 65.375 113.823, 73.778 115.033 L 89.055 117.234 93.182 114.374 C 101.657 108.501, 103 106.685, 103 101.099 C 103 96.931, 102.680 95.990, 101.250 95.943 C 100.287 95.911, 92.828 95.087, 84.674 94.111 L 69.848 92.337 63.969 102.381 M 166.534 121.580 C 156.967 143.989, 155.151 147.535, 152.296 149.382 C 150.497 150.547, 149.019 151.857, 149.012 152.293 C 149.006 152.729, 155.178 161.152, 162.729 171.010 C 172.473 183.732, 176.684 188.529, 177.239 187.538 C 177.669 186.769, 177.903 165.835, 177.760 141.018 L 177.500 95.894 166.534 121.580 M 105.547 100.602 C 105.175 102.583, 105.044 104.378, 105.256 104.589 C 105.846 105.179, 114 98.953, 114 97.913 C 114 97.411, 112.250 97, 110.111 97 C 106.438 97, 106.185 97.199, 105.547 100.602 M 97.233 114.532 L 92.965 117.818 97.050 118.508 C 99.297 118.888, 101.359 118.974, 101.634 118.700 C 101.908 118.425, 101.990 116.636, 101.816 114.723 L 101.500 111.246 97.233 114.532 M 65.874 122.857 L 72.248 130.048 75.374 127.702 C 77.093 126.411, 79.963 124.291, 81.750 122.990 C 83.537 121.688, 85 120.349, 85 120.012 C 85 119.676, 81.063 118.840, 76.250 118.154 C 71.438 117.468, 65.700 116.628, 63.500 116.286 L 59.500 115.666 65.874 122.857 M 125.110 119.367 C 123.458 121.357, 125.505 122.678, 131.500 123.490 L 136.500 124.168 132 121.088 C 126.855 117.567, 126.647 117.515, 125.110 119.367 M 104 125.023 C 104 126.980, 104.089 126.990, 106.750 125.326 C 108.263 124.379, 109.688 123.469, 109.917 123.303 C 110.146 123.136, 108.908 123, 107.167 123 C 104.655 123, 104 123.418, 104 125.023 M 108.750 127.130 C 104.773 129.731, 104 130.741, 104 133.337 L 104 136.437 110 130.500 C 113.300 127.234, 116 124.436, 116 124.281 C 116 123.227, 112.788 124.489, 108.750 127.130 M 111.290 133.250 L 103.124 141.500 102.422 155.750 L 101.719 170 109.386 170 L 117.053 170 130.590 160.940 C 138.035 155.957, 143.986 151.505, 143.813 151.047 C 143.641 150.589, 139.225 144.556, 134 137.641 C 126.303 127.455, 124.021 125.062, 121.978 125.034 C 120.123 125.009, 117.297 127.181, 111.290 133.250 M 71.368 149.827 C 55.345 159.547, 42.329 167.609, 42.442 167.741 C 42.556 167.874, 50.715 166.361, 60.574 164.380 L 78.500 160.777 89.823 150.106 C 100.644 139.909, 101.132 139.273, 100.823 135.795 L 100.500 132.155 71.368 149.827" stroke="none" fill="black" fill-rule="evenodd"/>
</svg>