<svg xmlns="http://www.w3.org/2000/svg" width="200" height="200" viewBox="0 0 200 200" version="1.1">
	<path d="M 131.507 24.511 C 98.095 29.685, 96.909 29.796, 62.007 31.019 C 42.478 31.703, 26.080 32.646, 25.567 33.115 C 25.053 33.583, 24.952 34.286, 25.342 34.676 C 25.732 35.066, 39.202 36.795, 55.276 38.517 C 81.925 41.374, 84.148 41.753, 80.500 42.819 C 78.300 43.463, 75.878 43.991, 75.118 43.994 C 74.084 43.999, 73.872 45.006, 74.273 48 C 74.730 51.407, 74.538 52, 72.977 52 C 71.087 52, 57.997 50.385, 52.250 49.442 C 49.756 49.033, 49 49.269, 49 50.455 C 49 51.305, 49.126 52, 49.280 52 C 51.194 52, 74.487 55.183, 75.030 55.519 C 75.437 55.770, 76.082 58.063, 76.465 60.616 C 76.848 63.168, 77.413 65.913, 77.722 66.717 C 78.188 67.931, 77.368 68.078, 72.891 67.581 L 67.500 66.983 54.500 79.494 L 41.500 92.006 60.500 91.421 C 70.950 91.099, 80.039 90.671, 80.699 90.469 C 81.358 90.267, 82.115 90.867, 82.380 91.801 C 83.623 96.180, 85.123 105.211, 84.680 105.653 C 84.121 106.212, 18.961 100.294, 18.290 99.623 C 18.052 99.386, 23.065 87.335, 29.430 72.845 C 35.795 58.355, 41.003 45.900, 41.002 45.167 C 40.997 40.960, 37.547 47.502, 26.422 72.818 C 19.590 88.365, 14 101.425, 14 101.841 C 14 102.257, 28.843 103.903, 46.985 105.499 C 65.127 107.095, 79.444 108.726, 78.800 109.123 C 78.157 109.521, 75.097 110.141, 72 110.500 C 63.349 111.504, 63.013 112.072, 67.836 117.551 C 70.126 120.153, 72 122.602, 72 122.994 C 72 123.654, 53.837 127.072, 53.225 126.528 C 53.074 126.393, 53.845 124.195, 54.939 121.643 L 56.927 117.003 53.714 118.326 C 51.946 119.053, 42.963 122.715, 33.750 126.463 C 23.627 130.582, 17 133.817, 17 134.639 C 17 136.347, 15.753 136.444, 32.226 133.459 C 39.940 132.061, 46.473 131.139, 46.743 131.410 C 47.013 131.680, 45.832 134.899, 44.117 138.563 C 42.403 142.227, 41 146.113, 41 147.199 C 41 152.308, 45.457 173.039, 46.471 172.649 C 47.076 172.417, 56.996 166.073, 68.515 158.550 C 80.033 151.028, 89.572 145.239, 89.712 145.687 C 89.851 146.134, 88.222 154.150, 86.091 163.500 C 83.960 172.850, 82.359 180.654, 82.533 180.842 C 82.708 181.030, 90.413 179.571, 99.655 177.600 L 116.459 174.016 130.992 159.508 C 138.985 151.529, 145.795 145, 146.127 145 C 146.458 145, 151.152 154.675, 156.558 166.500 C 162.051 178.516, 166.963 188, 167.693 188 C 168.744 188, 169 181.241, 169 153.557 L 169 119.114 174.696 112.807 C 177.829 109.338, 181.685 105.096, 183.266 103.380 L 186.140 100.260 177.588 88.295 L 169.037 76.330 168.768 52.680 L 168.500 29.031 156.726 38.078 L 144.953 47.125 146.852 49.813 C 147.897 51.291, 152.858 58.287, 157.876 65.360 L 167 78.220 166.971 97.860 L 166.943 117.500 157.419 128 C 152.181 133.775, 147.565 138.618, 147.162 138.762 C 146.758 138.906, 145.205 136.530, 143.710 133.482 L 140.992 127.940 147.931 118.739 C 151.748 113.678, 154.718 109.385, 154.532 109.198 C 154.249 108.915, 106.187 117.144, 100.753 118.405 C 99.235 118.758, 99.088 118.268, 99.626 114.656 C 99.967 112.370, 100.753 110.003, 101.373 109.395 C 101.993 108.787, 109.615 107.129, 118.312 105.712 L 134.124 103.134 141.679 96.317 C 145.835 92.568, 150.420 88.504, 151.867 87.286 L 154.500 85.072 147 85.088 C 142.875 85.097, 131.625 85.487, 122 85.955 C 112.375 86.422, 104.439 86.736, 104.365 86.652 C 104.291 86.569, 104.690 83.688, 105.253 80.250 C 106.447 72.957, 104.775 73.391, 123.500 75.510 C 142.183 77.623, 140.643 77.985, 147.346 69.905 C 150.561 66.029, 153.036 62.715, 152.846 62.540 C 152.464 62.188, 112.316 56.969, 110.142 56.988 C 109.240 56.996, 108.963 56.244, 109.317 54.750 C 109.611 53.513, 110.162 49.913, 110.541 46.750 L 111.230 41 106.449 41 C 103.819 41, 101.963 40.703, 102.326 40.341 C 102.688 39.979, 118.368 35.575, 137.171 30.555 C 155.973 25.535, 171.539 20.882, 171.762 20.214 C 172.380 18.361, 168.645 18.760, 131.507 24.511 M 121 29.080 C 107.315 31.336, 97.288 32.235, 75 33.202 C 43.809 34.555, 43.804 34.521, 75.612 37.820 L 92.724 39.595 117.612 32.862 C 131.300 29.158, 141.600 26.143, 140.500 26.161 C 139.400 26.179, 130.625 27.492, 121 29.080 M 158.500 40.081 C 154.100 43.396, 150.104 46.503, 149.621 46.984 C 148.821 47.779, 163.794 70.136, 166.066 71.541 C 166.632 71.891, 167 64.609, 167 53.059 C 167 42.577, 166.887 34.012, 166.750 34.026 C 166.613 34.040, 162.900 36.765, 158.500 40.081 M 84.750 44.409 C 78.279 46.102, 77.003 46.772, 77.015 48.468 C 77.024 49.586, 77.361 51.014, 77.765 51.642 C 78.679 53.062, 104.918 56.501, 106.005 55.343 C 106.440 54.879, 107.105 52.171, 107.482 49.324 L 108.167 44.148 103.334 43.543 C 93.765 42.347, 92.390 42.411, 84.750 44.409 M 79.416 61.250 C 79.787 64.138, 80.760 67.011, 81.578 67.634 C 82.397 68.258, 86.989 69.075, 91.783 69.448 C 96.577 69.821, 101.240 70.339, 102.145 70.597 C 103.463 70.975, 103.989 69.921, 104.795 65.284 C 105.347 62.103, 105.725 59.417, 105.633 59.316 C 105.399 59.059, 81.902 56, 80.163 56 C 79.030 56, 78.879 57.064, 79.416 61.250 M 107.579 65.117 C 107.206 67.931, 107.078 70.412, 107.296 70.629 C 107.514 70.847, 114.970 71.779, 123.866 72.701 L 140.040 74.376 143.029 70.938 C 149.029 64.036, 149.797 64.562, 130.198 62.149 C 106.513 59.234, 108.392 58.987, 107.579 65.117 M 58.500 79.558 L 48.500 89.036 64.500 88.387 C 73.300 88.029, 80.670 87.589, 80.878 87.407 C 81.086 87.225, 80.701 83.506, 80.022 79.142 C 78.830 71.478, 78.685 71.187, 75.769 70.604 C 69.753 69.401, 68.569 70.015, 58.500 79.558 M 82.900 79.073 L 84.549 87.321 92.524 87.095 C 96.911 86.971, 100.807 86.562, 101.181 86.185 C 101.556 85.808, 102.170 82.745, 102.546 79.378 L 103.229 73.256 95.365 72.572 C 91.039 72.196, 86.094 71.649, 84.376 71.356 L 81.251 70.825 82.900 79.073 M 169.022 97.958 L 169 114.416 173.581 109.958 C 176.101 107.506, 179.078 104.232, 180.198 102.682 L 182.233 99.864 177.593 93.182 C 175.042 89.507, 172.074 85.375, 170.999 84 L 169.044 81.500 169.022 97.958 M 118.017 88.749 C 111.152 88.923, 105.077 89.521, 104.517 90.079 C 103.724 90.870, 100.865 105.045, 101.380 105.638 C 101.446 105.714, 108.605 104.589, 117.288 103.138 L 133.077 100.500 139.788 94.303 L 146.500 88.106 138.500 88.269 C 134.100 88.359, 124.883 88.575, 118.017 88.749 M 85.334 92.250 C 85.637 93.487, 86.437 97.531, 87.113 101.235 L 88.340 107.969 92.420 107.348 C 97.969 106.503, 98.642 105.773, 99.429 99.733 C 99.805 96.855, 100.360 93.487, 100.664 92.250 C 101.203 90.054, 101.018 90, 93 90 C 84.982 90, 84.797 90.055, 85.334 92.250 M 83.281 111.414 C 76.011 112.618, 69.816 113.851, 69.513 114.153 C 69.211 114.455, 70.660 116.537, 72.732 118.780 L 76.500 122.857 85.833 121.157 C 91.641 120.098, 95.460 118.898, 95.947 117.978 C 97.048 115.896, 98.016 108.977, 97.187 109.112 C 96.809 109.173, 90.552 110.209, 83.281 111.414 M 121.830 117.354 C 109.362 119.634, 98.945 121.725, 98.682 122 C 98.027 122.686, 85.733 177.085, 86.159 177.417 C 86.347 177.563, 92.908 176.292, 100.739 174.592 L 114.978 171.500 129.918 156.584 L 144.858 141.667 141.371 134.744 L 137.885 127.821 142.942 120.889 C 145.724 117.077, 148 113.742, 148 113.479 C 148 112.665, 145.223 113.076, 121.830 117.354 M 86.302 123.811 L 78.105 125.274 84.302 132.562 C 87.711 136.570, 90.745 139.883, 91.045 139.925 C 91.643 140.007, 95.362 122.972, 94.830 122.587 C 94.648 122.456, 90.811 123.007, 86.302 123.811 M 41.214 126.216 C 37.207 127.891, 34.117 129.450, 34.347 129.681 C 35.329 130.662, 48.599 127.669, 49.750 126.206 C 52.934 122.160, 50.910 122.162, 41.214 126.216 M 156.836 132.610 L 148.312 142.220 156.906 160.744 C 164.785 177.726, 165.519 178.944, 165.725 175.384 C 166.275 165.879, 166.443 122.999, 165.930 122.999 C 165.616 123, 161.524 127.325, 156.836 132.610 M 64.500 127.553 C 60.650 128.304, 56.042 129.182, 54.260 129.503 C 51.372 130.023, 50.628 130.923, 47.404 137.793 C 43.411 146.302, 43.316 147.615, 45.790 160.207 L 47.500 168.913 54.144 164.630 C 57.798 162.274, 67.140 156.201, 74.903 151.133 L 89.019 141.920 82.259 133.996 C 74.843 125.302, 75.262 125.454, 64.500 127.553" stroke="none" fill="black" fill-rule="evenodd"/>
</svg>