<svg xmlns="http://www.w3.org/2000/svg" width="200" height="200" viewBox="0 0 200 200" version="1.1">
	<path d="M 137.333 22.529 L 100.167 28.717 61.333 29.442 C 26.520 30.091, 19.312 30.645, 21.195 32.528 C 21.504 32.837, 37.449 33.978, 56.628 35.062 C 90.314 36.968, 96.784 37.550, 95.752 38.581 C 95.486 38.848, 89.020 40.895, 81.384 43.132 C 71.847 45.925, 60.613 48.211, 45.500 50.433 L 23.500 53.668 22.754 83.084 C 22.343 99.263, 22.118 120.600, 22.254 130.500 L 22.500 148.500 28.274 149.500 C 33.672 150.435, 34.921 151.249, 47.450 162 L 60.853 173.500 89.676 177.127 C 105.529 179.121, 118.793 180.585, 119.152 180.378 C 119.511 180.172, 124.611 171.227, 130.487 160.501 C 136.362 149.776, 141.299 141, 141.457 141 C 141.616 141, 149.512 150.916, 159.005 163.035 C 168.497 175.154, 176.407 184.927, 176.581 184.752 C 176.756 184.577, 177.417 170.724, 178.049 153.967 L 179.200 123.500 174.615 84.500 C 172.093 63.050, 169.686 42.125, 169.265 38 L 168.500 30.500 152.537 48.809 L 136.573 67.118 135.490 63.309 C 134.269 59.013, 134.829 59.129, 121.250 60.378 C 114.100 61.036, 113 60.928, 113 59.569 C 113 58.706, 112.325 58, 111.500 58 C 110.675 58, 110 58.842, 110 59.871 C 110 61.515, 108.879 61.824, 100.750 62.420 C 95.662 62.793, 90.029 63.352, 88.231 63.664 C 84.441 64.320, 84.332 64.913, 90.427 51.659 L 94.032 43.819 89.766 44.401 C 86.683 44.822, 87.580 44.349, 93 42.696 L 100.500 40.408 117.446 47.708 C 128.599 52.513, 134.729 54.671, 135.379 54.021 C 135.922 53.478, 136.172 52.880, 135.933 52.692 C 135.695 52.505, 128.574 49.382, 120.108 45.752 L 104.717 39.153 108.608 38.086 C 130.229 32.158, 175.245 19.088, 175.737 18.596 C 178.081 16.253, 170.151 17.065, 137.333 22.529 M 124 27.575 C 108.198 30.279, 100.328 31.060, 82.500 31.694 L 60.500 32.476 77.500 33.584 C 87.008 34.204, 95.914 35.290, 97.709 36.050 C 100.699 37.315, 102.444 36.976, 123.209 31.091 C 135.469 27.617, 145.688 24.601, 145.917 24.388 C 146.588 23.763, 144.526 24.063, 124 27.575 M 151.445 54.137 C 142.531 64.452, 137.610 70.931, 137.806 72.096 C 137.974 73.098, 140.073 80.063, 142.470 87.572 L 146.827 101.227 129.914 100.839 L 113 100.451 113 110.226 C 113 117.378, 113.335 120, 114.250 120.001 C 114.938 120.002, 126.300 120.902, 139.500 122 C 152.700 123.098, 164.512 123.998, 165.750 123.999 C 167.173 123.999, 168 124.606, 168 125.649 C 168 127.159, 165.674 127.238, 140.500 126.581 L 113 125.864 113 137.263 L 113 148.663 102.750 153.275 L 92.500 157.888 92.225 141.944 C 91.978 127.585, 91.779 126.008, 90.225 126.076 C 89.276 126.118, 81.975 133.732, 74 142.995 C 64.712 153.783, 59.149 159.498, 58.522 158.892 C 57.886 158.275, 57.886 157.434, 58.522 156.480 C 59.060 155.674, 64.450 147.828, 70.500 139.043 C 80.788 124.104, 81.706 123.068, 84.691 123.035 C 88.271 122.996, 89.975 121.412, 87.265 120.643 C 86.294 120.368, 80.438 119.836, 74.250 119.462 C 66.863 119.015, 63.009 118.390, 63.027 117.641 C 63.042 117.013, 64.055 112.043, 65.279 106.596 L 67.505 96.691 75.989 96.915 C 80.655 97.039, 84.254 96.929, 83.986 96.671 C 83.719 96.414, 77.425 94.997, 70 93.524 C 51.772 89.906, 52 89.971, 52 88.392 C 52 87.299, 54.098 86.995, 61.750 86.978 L 71.500 86.956 75.771 77.333 C 78.121 72.040, 79.920 67.587, 79.771 67.438 C 79.622 67.288, 75.675 67.564, 71 68.050 C 66.325 68.536, 60.008 69.185, 56.963 69.492 L 51.425 70.051 47.463 61.925 L 43.501 53.798 37.501 54.476 C 34.200 54.848, 30.312 55.390, 28.861 55.679 L 26.222 56.206 25.618 83.853 C 25.286 99.059, 24.825 119.235, 24.595 128.690 L 24.176 145.880 27.088 146.440 C 28.690 146.748, 31.238 147.239, 32.750 147.530 C 34.322 147.833, 41.132 152.938, 48.645 159.445 L 61.790 170.829 87.145 173.955 C 101.090 175.674, 113.675 177.310, 115.112 177.590 C 117.601 178.074, 118.251 177.132, 128.945 157.557 C 135.116 146.259, 140.466 136.839, 140.833 136.624 C 141.200 136.408, 148.659 145.387, 157.408 156.577 C 166.157 167.767, 173.643 176.720, 174.044 176.473 C 174.444 176.225, 175.082 163.755, 175.461 148.761 L 176.150 121.500 171.575 82.726 C 169.059 61.401, 167 42.613, 167 40.976 C 167 39.339, 166.638 38, 166.195 38 C 165.752 38, 159.115 45.261, 151.445 54.137 M 76.500 49.060 C 63.569 50.872, 48 54.768, 48 56.190 C 48 57.880, 53.043 67, 53.978 67 C 55.655 67, 75.402 64.958, 78.600 64.454 C 81.355 64.020, 82.121 63.069, 85.469 55.935 C 87.542 51.518, 89.072 47.786, 88.869 47.641 C 88.666 47.496, 83.100 48.134, 76.500 49.060 M 126.500 62.564 C 125.400 62.743, 121.912 63.172, 118.750 63.517 L 113 64.144 113 79.118 L 113 94.092 123.596 82.031 C 134.132 70.037, 134.186 69.948, 133.312 66.235 C 132.419 62.443, 131.217 61.795, 126.500 62.564 M 96.172 65.545 C 89.392 66.247, 83.705 66.975, 83.533 67.161 C 83.362 67.347, 80.969 72.445, 78.216 78.489 C 74.419 86.824, 72.675 89.605, 70.995 90.001 C 68.447 90.603, 94.130 96.059, 103.750 96.960 L 110 97.545 110 80.773 C 110 71.548, 109.662 64.060, 109.250 64.133 C 108.838 64.207, 102.953 64.842, 96.172 65.545 M 124.833 84.750 C 119.640 90.662, 115.052 96.063, 114.637 96.750 C 114.047 97.727, 117.033 98, 128.318 98 L 142.753 98 139.127 86.009 C 137.132 79.414, 135.224 74.014, 134.887 74.009 C 134.550 74.004, 130.026 78.838, 124.833 84.750 M 69.520 100.292 C 68.674 102.941, 66.116 115.450, 66.369 115.702 C 67.197 116.530, 92.280 118.106, 92.942 117.372 C 93.717 116.512, 98.164 100.779, 97.726 100.447 C 97.602 100.353, 91.291 100.008, 83.703 99.680 C 73.359 99.233, 69.809 99.386, 69.520 100.292 M 99.983 104.063 C 99.381 106.297, 98.629 108.884, 98.312 109.813 C 97.994 110.741, 99.799 109.250, 102.322 106.500 C 104.846 103.750, 106.931 101.162, 106.955 100.750 C 106.980 100.338, 105.667 100, 104.039 100 C 101.422 100, 100.950 100.473, 99.983 104.063 M 102.750 109.985 C 99.037 114.337, 96 118.109, 96 118.367 C 96 118.625, 99.151 118.985, 103.002 119.168 L 110.005 119.500 110.002 110.750 C 110.001 105.938, 109.888 102.016, 109.750 102.036 C 109.612 102.056, 106.463 105.633, 102.750 109.985 M 95 122.058 C 95 122.576, 98.450 123, 102.667 123 C 106.883 123, 110.146 122.837, 109.917 122.638 C 108.883 121.741, 95 121.201, 95 122.058 M 79.595 131 C 77.620 133.750, 76.186 136, 76.409 136 C 76.631 136, 78.698 133.750, 81 131 C 83.302 128.250, 84.737 126, 84.187 126 C 83.637 126, 81.571 128.250, 79.595 131 M 95 139.925 L 95 153.849 102.987 150.175 L 110.974 146.500 110.987 136.250 L 111 126 103 126 L 95 126 95 139.925" stroke="none" fill="black" fill-rule="evenodd"/>
</svg>