<svg xmlns="http://www.w3.org/2000/svg" width="200" height="200" viewBox="0 0 200 200" version="1.1">
	<path d="M 33.507 19.989 C 32.449 21.700, 16 72.918, 16 74.500 C 16 79.864, 19.019 72.674, 26.602 49.250 C 31.364 34.538, 35.315 22.442, 35.381 22.371 C 35.446 22.300, 38.425 22.655, 42 23.161 C 45.575 23.667, 62.603 26.053, 79.839 28.463 C 97.076 30.874, 111.346 33.013, 111.551 33.218 C 111.756 33.422, 101.815 35.578, 89.461 38.008 C 77.108 40.437, 67 42.707, 67 43.050 C 67 43.394, 72.601 48.122, 79.447 53.557 C 86.292 58.993, 91.780 63.553, 91.642 63.691 C 91.504 63.829, 87.140 63.425, 81.945 62.791 C 69.378 61.260, 65.772 61.251, 65.260 62.750 C 64.990 63.542, 65.799 64, 67.468 64 C 69.417 64, 99.916 78.625, 101.782 80.454 C 102.476 81.135, 99.474 90.003, 98.543 90.025 C 97.969 90.038, 87.168 91.144, 74.540 92.482 C 61.913 93.819, 51.507 94.821, 51.417 94.707 C 51.327 94.593, 50.740 87.551, 50.113 79.057 C 48.676 59.612, 45.086 38, 43.292 38 C 42.581 38, 41.971 38.112, 41.936 38.250 C 41.900 38.388, 41.080 58.750, 40.113 83.500 L 38.355 128.500 29.009 148.248 C 23.869 159.110, 19.516 167.849, 19.335 167.668 C 19.154 167.488, 19.902 150.276, 20.997 129.420 C 22.092 108.564, 22.991 91.162, 22.994 90.750 C 22.997 90.338, 22.325 90, 21.500 90 C 20.608 90, 20.004 90.912, 20.010 92.250 C 20.015 93.487, 19.076 112.663, 17.923 134.863 C 16.433 163.540, 16.136 175.536, 16.896 176.296 C 17.485 176.885, 18.135 177.172, 18.342 176.933 C 18.548 176.695, 23.761 165.804, 29.926 152.731 L 41.136 128.962 42.560 91.823 C 43.343 71.396, 44.159 54.508, 44.373 54.293 C 45.221 53.445, 47.269 74.970, 47.381 85.904 C 47.447 92.282, 47.776 97.725, 48.113 98 C 48.450 98.275, 49.239 105.385, 49.866 113.801 L 51.007 129.102 47.858 140.031 L 44.709 150.959 50.976 160.464 C 54.796 166.256, 57.684 169.705, 58.372 169.295 C 58.992 168.924, 65.575 164.052, 73 158.467 L 86.500 148.313 91.921 128.157 C 97.314 108.104, 97.356 108, 100.112 108 C 101.635 108, 103.145 108.425, 103.466 108.945 C 103.787 109.465, 102.967 117.002, 101.642 125.695 C 99.877 137.282, 99.369 143.902, 99.740 150.500 L 100.246 159.500 111.683 167.857 C 117.973 172.453, 123.253 176.053, 123.417 175.857 C 123.581 175.661, 128.100 167.288, 133.459 157.250 C 138.819 147.213, 143.329 139, 143.483 139 C 143.636 139, 149.281 149.128, 156.026 161.507 C 162.771 173.885, 168.816 184.734, 169.461 185.615 C 170.393 186.890, 171.503 181.097, 174.902 157.223 L 179.172 127.228 178.054 94.364 C 177.439 76.289, 176.697 58.800, 176.405 55.500 L 175.873 49.500 169.478 44.652 C 165.961 41.986, 162.607 39.231, 162.025 38.530 C 161.254 37.601, 161.911 35.049, 164.445 29.127 C 166.359 24.657, 167.507 21, 166.997 21 C 166.486 21, 153.768 23.036, 138.734 25.524 L 111.398 30.048 74.949 25.017 C 54.902 22.249, 37.515 19.762, 36.311 19.489 C 35.107 19.216, 33.846 19.441, 33.507 19.989 M 143 27.672 C 132.275 29.457, 123.388 30.937, 123.250 30.959 C 123.112 30.982, 123.007 31.563, 123.015 32.250 C 123.023 32.938, 121.151 40.590, 118.854 49.256 C 116.558 57.922, 114.925 65.259, 115.227 65.560 C 115.678 66.012, 139.781 68.913, 143.638 68.980 C 145.997 69.021, 150.863 53.919, 151.524 44.500 C 152.422 31.727, 152.523 31.479, 155.783 34.044 L 158.421 36.119 160.734 30.879 C 162.006 27.997, 162.923 25.366, 162.773 25.032 C 162.623 24.698, 153.725 25.886, 143 27.672 M 119.813 31.683 C 120.534 31.972, 121.397 31.936, 121.729 31.604 C 122.061 31.272, 121.471 31.036, 120.417 31.079 C 119.252 31.127, 119.015 31.364, 119.813 31.683 M 113.750 32.662 C 114.438 32.940, 115.563 32.940, 116.250 32.662 C 116.938 32.385, 116.375 32.158, 115 32.158 C 113.625 32.158, 113.063 32.385, 113.750 32.662 M 94.782 39.689 L 72.065 44.239 85.199 54.620 C 96.519 63.566, 98.845 65, 102.041 65 C 104.081 65, 107.091 65.268, 108.731 65.596 C 111.393 66.129, 111.777 65.888, 112.322 63.346 C 112.657 61.781, 114.480 54.763, 116.372 47.750 C 118.593 39.520, 119.402 35.024, 118.656 35.069 C 118.020 35.107, 107.277 37.185, 94.782 39.689 M 154.986 38.550 C 154.979 39.623, 154.740 41.625, 154.455 43 C 154.025 45.079, 154.228 44.950, 155.656 42.237 C 156.983 39.719, 157.104 38.704, 156.187 37.787 C 155.271 36.871, 154.997 37.045, 154.986 38.550 M 156.234 48.750 C 153.253 56.127, 152.954 58.183, 150.009 91.500 C 148.308 110.750, 146.682 127.589, 146.396 128.919 C 145.915 131.163, 145.213 130.679, 136.689 122.224 L 127.500 113.110 117.500 111.198 C 112 110.147, 107.369 109.390, 107.210 109.516 C 106.033 110.451, 101.986 142.875, 102.219 149.500 L 102.500 157.500 112.326 164.841 C 117.730 168.878, 122.282 172.028, 122.440 171.841 C 122.599 171.653, 127.349 162.822, 132.997 152.215 C 138.644 141.609, 143.398 133.065, 143.562 133.228 C 143.725 133.392, 149.516 143.869, 156.429 156.510 C 163.343 169.152, 169 179.160, 169 178.750 C 169 178.340, 170.634 167.091, 172.632 153.752 L 176.264 129.500 175.114 95.500 C 174.482 76.800, 173.973 59.372, 173.982 56.772 C 174 52.148, 173.852 51.922, 167.305 46.522 C 163.623 43.485, 160.330 41, 159.988 41 C 159.645 41, 157.956 44.487, 156.234 48.750 M 91.500 71.937 C 102.195 77.677, 102.523 77.781, 103.321 75.670 C 104.619 72.240, 98.481 67.457, 91.744 66.647 C 79.817 65.215, 79.796 65.655, 91.500 71.937 M 147.552 69.250 C 147.129 70.763, 146.269 71.991, 145.642 71.980 C 145.014 71.969, 138.425 71.303, 131 70.500 C 111.634 68.405, 113.395 67.972, 112.133 75.137 C 111.538 78.513, 111.297 81.671, 111.597 82.156 C 111.896 82.641, 114.269 84.116, 116.869 85.434 C 121.089 87.572, 122.291 87.742, 128.049 87.017 C 133.936 86.275, 134.631 86.385, 136 88.278 C 138.606 91.881, 144.009 102, 143.327 102 C 142.967 102, 137.997 99.525, 132.281 96.500 C 124.416 92.337, 120.870 91.003, 117.695 91.014 C 109.850 91.039, 109.454 91.385, 108.382 99.140 C 107.850 102.989, 107.659 106.279, 107.958 106.450 C 108.256 106.621, 113 107.541, 118.500 108.495 L 128.500 110.230 136.167 117.759 L 143.834 125.288 144.422 120.894 C 144.745 118.477, 145.944 106.057, 147.086 93.294 C 149.100 70.800, 149.247 63.182, 147.552 69.250 M 104.773 69.962 C 106.708 71.576, 106.949 72.465, 106.395 75.929 C 105.892 79.076, 106.065 80, 107.157 80 C 108.082 80, 108.920 78.088, 109.584 74.465 C 110.141 71.421, 110.388 68.721, 110.132 68.465 C 109.876 68.209, 108.054 68.015, 106.083 68.033 L 102.500 68.067 104.773 69.962 M 103.625 85.125 C 102.721 89.647, 102.794 89.867, 105.011 89.287 C 107.520 88.631, 108.838 84.145, 106.885 82.908 C 104.697 81.522, 104.290 81.798, 103.625 85.125 M 110 87.500 C 110 88.325, 110.873 89, 111.941 89 C 114.456 89, 115.448 87.386, 113.412 86.605 C 110.916 85.647, 110 85.887, 110 87.500 M 129.244 89.850 C 127.209 90.436, 127.479 90.776, 131.994 93.308 C 137.474 96.381, 137.838 96.226, 135.284 91.904 C 133.513 88.906, 133.057 88.751, 129.244 89.850 M 101.540 93.250 C 99.089 100.952, 98.339 105.001, 99.360 105.014 C 99.987 105.021, 101.456 105.284, 102.624 105.597 C 104.556 106.116, 104.814 105.648, 105.466 100.427 C 105.860 97.270, 106.415 94.082, 106.699 93.343 C 107.050 92.428, 106.373 92, 104.576 92 C 103.124 92, 101.758 92.563, 101.540 93.250 M 76.672 95.019 C 67.417 96.011, 59.672 96.995, 59.461 97.206 C 59.250 97.416, 67.195 99.072, 77.116 100.884 C 87.037 102.696, 95.288 104.026, 95.452 103.839 C 95.615 103.653, 96.431 101.138, 97.265 98.250 L 98.781 93 96.140 93.108 C 94.688 93.167, 85.927 94.027, 76.672 95.019 M 52.049 103.731 C 52.075 106.354, 52.500 113, 52.993 118.500 C 53.848 128.037, 53.746 129.012, 50.795 139.573 L 47.700 150.646 52.923 158.386 L 58.146 166.126 61.323 163.736 C 63.070 162.422, 68.894 158.059, 74.264 154.041 C 80.916 149.064, 84.236 145.901, 84.680 144.117 C 85.039 142.678, 87.454 133.850, 90.048 124.500 C 92.642 115.150, 94.654 107.374, 94.518 107.219 C 94.383 107.065, 85.773 105.368, 75.386 103.450 C 64.999 101.531, 55.487 99.736, 54.250 99.461 C 52.157 98.997, 52.003 99.294, 52.049 103.731" stroke="none" fill="black" fill-rule="evenodd"/>
</svg>