<svg xmlns="http://www.w3.org/2000/svg" width="200" height="200" viewBox="0 0 200 200" version="1.1">
	<path d="M 42.664 9.784 C 41.921 11.278, 36.685 24.112, 31.030 38.305 L 20.747 64.111 22.429 95.805 C 24.060 126.524, 24.294 128.512, 30.027 160.388 C 33.281 178.477, 36.177 193.510, 36.463 193.796 C 37.032 194.365, 40.048 192.334, 82 163.113 C 97.675 152.195, 110.625 143.366, 110.778 143.492 C 110.931 143.619, 109.876 149.217, 108.433 155.933 C 106.991 162.649, 105.966 168.255, 106.155 168.390 C 106.345 168.525, 114.375 165.905, 124 162.568 L 141.500 156.500 147.658 144.500 C 151.045 137.900, 154.113 132.579, 154.477 132.676 C 154.841 132.772, 161.227 138.556, 168.667 145.528 C 177.557 153.860, 182.532 157.868, 183.180 157.220 C 183.829 156.571, 179.882 150.283, 171.667 138.874 L 159.168 121.514 166.162 108.262 L 173.156 95.010 170.631 94.050 C 169.242 93.522, 164.904 92.117, 160.990 90.928 C 155.879 89.376, 154.025 88.378, 154.406 87.385 C 154.697 86.625, 160.151 78.062, 166.524 68.357 C 172.897 58.652, 177.749 50.399, 177.306 50.017 C 176.863 49.636, 173.575 47.153, 170 44.500 C 166.425 41.847, 163.078 39.305, 162.563 38.851 C 162.005 38.360, 162.542 37.052, 163.893 35.614 L 166.159 33.202 158.048 31.450 C 150.361 29.789, 149.254 29.185, 136.832 19.874 C 129.624 14.472, 123.329 10.296, 122.844 10.596 C 122.359 10.896, 120.827 13.381, 119.440 16.118 C 118.053 18.855, 116.309 21.328, 115.564 21.614 C 114.488 22.027, 50.069 9.077, 45.258 7.481 C 44.575 7.254, 43.408 8.291, 42.664 9.784 M 35.627 34.300 C 30.305 47.491, 26.081 58.414, 26.240 58.573 C 26.399 58.732, 31.300 57.250, 37.131 55.279 L 47.732 51.695 48.366 44.196 C 48.715 40.072, 49 33.616, 49 29.849 C 49 25.422, 49.400 23, 50.131 23 C 51.926 23, 96.416 36.146, 97.266 36.927 C 97.687 37.314, 87.452 41.202, 74.522 45.566 C 51.475 53.344, 51.013 53.554, 51.007 56.250 C 51.003 57.763, 51.134 59, 51.297 59 C 51.460 59, 55.737 58.096, 60.801 56.990 C 67.933 55.434, 105.391 41.319, 106.462 39.785 C 108.560 36.781, 114.032 25.698, 113.621 25.287 C 113.086 24.752, 96.799 21.138, 61.401 13.700 L 45.303 10.316 35.627 34.300 M 121.240 18.443 L 119.056 22.938 122.778 23.893 C 131.546 26.141, 138.265 27.135, 139.093 26.307 C 139.878 25.522, 127.917 15.673, 124.665 14.425 C 123.940 14.147, 122.515 15.820, 121.240 18.443 M 51.651 33.602 C 50.784 43.855, 50.829 50, 51.770 50 C 52.193 50, 61.048 47.159, 71.447 43.688 L 90.354 37.376 72.455 32.071 C 62.610 29.154, 54.049 26.572, 53.429 26.334 C 52.685 26.049, 52.081 28.518, 51.651 33.602 M 114.030 31.601 C 112.291 34.682, 111.011 37.342, 111.184 37.513 C 111.358 37.683, 116.099 35.959, 121.719 33.681 C 127.340 31.402, 131.615 29.268, 131.219 28.937 C 130.421 28.269, 120.608 26, 118.519 26 C 117.789 26, 115.768 28.520, 114.030 31.601 M 121.273 36.705 L 108.045 42.255 100.964 55.204 C 91.597 72.333, 91.624 72.529, 103.848 76.273 C 108.990 77.848, 113.327 78.993, 113.485 78.818 C 114.064 78.178, 127.404 51.212, 132.069 41.250 C 134.721 35.588, 136.339 31.035, 135.685 31.078 C 135.033 31.121, 128.548 33.653, 121.273 36.705 M 135.583 40.250 C 133.217 45.337, 128.471 55.101, 125.035 61.947 L 118.787 74.394 122.643 71.020 C 124.765 69.165, 133.377 61.089, 141.782 53.074 L 157.064 38.501 153.782 35.765 C 150.573 33.090, 145.305 31.017, 141.692 31.006 C 140.386 31.002, 138.689 33.570, 135.583 40.250 M 157.500 35 C 157.840 35.550, 158.568 36, 159.118 36 C 159.668 36, 159.840 35.550, 159.500 35 C 159.160 34.450, 158.432 34, 157.882 34 C 157.332 34, 157.160 34.450, 157.500 35 M 138.670 59.787 C 118.865 78.735, 117.873 79.869, 113.113 89 C 110.389 94.225, 107.118 100.381, 105.844 102.681 C 104.570 104.980, 103.747 107.039, 104.014 107.256 C 104.281 107.474, 112.375 107.085, 122 106.393 C 149.592 104.410, 146.685 103.872, 152.411 112.026 L 157.322 119.020 163.224 107.907 C 166.471 101.795, 168.986 96.677, 168.814 96.533 C 168.641 96.390, 164.148 94.836, 158.828 93.080 L 149.156 89.887 161.720 70.744 L 174.284 51.600 171.076 48.923 C 169.312 47.450, 165.935 44.856, 163.572 43.159 L 159.275 40.073 138.670 59.787 M 86.821 51 C 77.647 54.808, 67.174 58.471, 63.548 59.139 C 59.921 59.807, 57.302 60.685, 57.727 61.089 C 59.115 62.409, 87.930 71.162, 88.904 70.559 C 89.426 70.237, 91.977 66.042, 94.574 61.236 C 97.170 56.431, 100.396 50.587, 101.742 48.250 C 103.089 45.913, 104.035 44.017, 103.845 44.038 C 103.655 44.059, 95.994 47.192, 86.821 51 M 40 57.080 C 36.975 58.143, 33.825 59.274, 33 59.591 C 32.069 59.950, 33.776 61.031, 37.500 62.441 C 48.110 66.459, 48 66.446, 48 63.651 C 48 62.284, 47.438 60.940, 46.750 60.662 C 45.750 60.259, 45.750 60.142, 46.750 60.079 C 47.438 60.036, 48 58.875, 48 57.500 C 48 54.558, 47.280 54.520, 40 57.080 M 24.267 62.747 C 23.904 63.693, 24.362 78.874, 25.285 96.483 C 26.907 127.442, 27.146 129.506, 32.520 158.955 C 35.576 175.706, 38.207 189.540, 38.365 189.698 C 38.523 189.857, 55.719 178.124, 76.577 163.627 C 97.434 149.129, 114.645 137.389, 114.822 137.539 C 115 137.689, 113.918 143.485, 112.419 150.419 C 110.920 157.354, 109.978 163.311, 110.325 163.658 C 110.672 164.006, 117.379 162.064, 125.228 159.343 L 139.500 154.397 145.752 142.257 L 152.003 130.116 146.521 124.931 C 143.506 122.080, 141.293 119.335, 141.603 118.833 C 141.925 118.313, 141.056 118.199, 139.587 118.568 C 138.168 118.924, 129.242 120.854, 119.753 122.858 L 102.500 126.500 101.851 131.815 C 101.494 134.739, 101.044 137.269, 100.851 137.439 C 99.806 138.356, 51.635 163, 50.888 163 C 48.500 163, 51.082 159.631, 63.624 146.387 C 71.117 138.474, 76.983 132, 76.659 132 C 76.335 132, 69.738 133.350, 62 135 C 54.262 136.650, 47.220 138, 46.353 138 C 44.939 138, 44.864 135.704, 45.628 115.750 C 46.097 103.512, 46.485 87.894, 46.490 81.043 L 46.500 68.587 35.714 64.807 C 25.946 61.384, 24.865 61.189, 24.267 62.747 M 50 64.310 C 50 67.063, 49.131 66.629, 68.327 73.468 L 78.153 76.969 81.800 75.098 L 85.446 73.228 69.048 68.015 C 60.028 65.148, 52.053 62.574, 51.325 62.294 C 50.441 61.955, 50 62.626, 50 64.310 M 49.757 80.195 C 49.474 85.863, 49.448 90.723, 49.700 90.996 C 50.152 91.485, 69.543 81.786, 72.638 79.523 C 73.959 78.557, 72.357 77.696, 63.367 74.537 C 57.390 72.436, 51.999 70.532, 51.386 70.304 C 50.633 70.025, 50.106 73.226, 49.757 80.195 M 84 77 C 83.207 77.490, 82.890 78.223, 83.296 78.629 C 83.701 79.035, 84.558 78.842, 85.200 78.200 C 86.711 76.689, 85.868 75.846, 84 77 M 88.618 77.660 C 87.423 81.370, 85.498 82.320, 81.709 81.069 C 78.541 80.024, 77.534 80.377, 64.767 87.006 C 57.301 90.883, 50.924 94.755, 50.596 95.611 C 50.267 96.467, 49.705 100.329, 49.345 104.193 L 48.692 111.219 61.596 110.483 C 68.693 110.078, 76.503 109.464, 78.951 109.118 L 83.402 108.489 86.697 92.995 C 88.509 84.473, 89.839 77.050, 89.652 76.500 C 89.466 75.950, 89 76.472, 88.618 77.660 M 91.512 83.750 C 90.583 88.013, 88.989 95.314, 87.970 99.975 C 86.951 104.636, 86.222 108.556, 86.351 108.684 C 87.150 109.483, 101.004 107.520, 101.025 106.605 C 101.039 105.997, 103.923 100.325, 107.434 94 L 113.818 82.500 104.197 79.250 C 98.906 77.463, 94.267 76, 93.889 76 C 93.510 76, 92.441 79.487, 91.512 83.750 M 119 109.278 C 110.361 109.852, 104.203 110.698, 103.765 111.371 C 103.361 111.992, 103.024 114.862, 103.015 117.750 C 103.004 121.776, 103.353 123, 104.512 123 C 105.730 123, 136.654 116.617, 145.750 114.488 C 148.778 113.780, 148.789 116.560, 145.761 117.352 C 143.634 117.909, 143.744 118.163, 147.969 122.469 C 150.415 124.961, 152.700 127, 153.048 127 C 153.395 127, 154.205 125.845, 154.849 124.432 C 155.907 122.110, 155.563 121.205, 151.259 114.964 L 146.500 108.064 140 108.189 C 136.425 108.258, 126.975 108.748, 119 109.278 M 86.433 111.765 C 85.548 112.375, 81.735 127.082, 82.316 127.643 C 82.662 127.976, 98.850 124.501, 99.285 124 C 99.524 123.725, 100.001 120.688, 100.345 117.250 L 100.969 111 94.235 111.015 C 90.531 111.024, 87.020 111.361, 86.433 111.765 M 70 112.602 C 68.625 112.768, 63.112 113.193, 57.750 113.545 L 48 114.187 48 124.593 C 48 130.317, 48.198 135, 48.441 135 C 49.413 135, 78.523 128.736, 78.835 128.460 C 79.020 128.296, 79.960 124.526, 80.924 120.081 L 82.678 112 77.589 112.150 C 74.790 112.232, 71.375 112.436, 70 112.602 M 156.463 127.117 C 155.926 128.810, 157.066 130.530, 162.145 135.689 C 171.767 145.461, 172.757 145.106, 165.267 134.570 C 161.545 129.335, 158.193 125.040, 157.817 125.026 C 157.442 125.012, 156.832 125.953, 156.463 127.117 M 90.500 128.937 L 82.500 130.670 72.178 141.215 C 66.501 147.015, 61.137 152.787, 60.258 154.041 C 59.096 155.701, 64.160 153.483, 78.823 145.911 L 98.985 135.500 98.992 131.250 C 98.997 128.912, 98.888 127.046, 98.750 127.102 C 98.612 127.158, 94.900 127.984, 90.500 128.937" stroke="none" fill="black" fill-rule="evenodd"/>
</svg>