<svg xmlns="http://www.w3.org/2000/svg" width="200" height="200" viewBox="0 0 200 200" version="1.1">
	<path d="M 133.150 22.360 L 115.800 31.608 88.650 27.291 C 73.717 24.917, 59.074 22.868, 56.109 22.737 L 50.718 22.500 44.440 41.237 L 38.162 59.974 39.002 93.074 C 39.464 111.280, 40.043 126.376, 40.289 126.622 C 40.535 126.868, 42.595 126.652, 44.868 126.141 C 49.624 125.072, 49.746 125.437, 47.654 134.500 L 46.500 139.500 31.250 143.385 C 22.863 145.522, 16.017 147.547, 16.038 147.885 C 16.058 148.223, 21.810 154.523, 28.819 161.884 L 41.563 175.268 44.912 159.384 C 46.753 150.648, 48.764 142.998, 49.380 142.384 C 50.546 141.223, 75.162 134.828, 75.843 135.510 C 76.057 135.723, 71.229 144.608, 65.116 155.254 C 59.002 165.900, 54 174.956, 54 175.379 C 54 177.919, 58.307 173.660, 70.307 159.253 L 83.839 143.006 95.014 154.753 L 106.188 166.500 105.525 149.750 C 105.161 140.538, 105.047 133, 105.273 133 C 105.710 133, 133.200 148.018, 133.937 148.660 C 134.178 148.870, 132.835 151.923, 130.953 155.445 L 127.531 161.849 129.233 173.558 C 130.169 179.998, 131.138 185.472, 131.388 185.721 C 131.754 186.087, 177.734 156.313, 180.193 154.119 C 180.853 153.530, 174.511 101.178, 173.679 100.346 C 173.460 100.126, 161.630 101.713, 147.390 103.872 C 133.151 106.031, 121.401 107.707, 121.281 107.596 C 121.160 107.485, 130.484 101.817, 142 95 C 153.516 88.183, 162.789 82.455, 162.605 82.272 C 162.422 82.088, 156.749 81.291, 150 80.500 C 143.251 79.709, 137.615 78.935, 137.477 78.781 C 137.339 78.626, 146.589 67.251, 158.032 53.502 C 169.476 39.754, 178.664 28.331, 178.452 28.118 C 178.239 27.906, 164.472 30.136, 147.857 33.075 L 117.649 38.418 130.039 44.257 C 136.854 47.469, 142.635 50.301, 142.886 50.552 C 143.136 50.803, 142.823 53.254, 142.190 55.998 C 141.462 59.151, 138.639 64.575, 134.522 70.732 C 129.232 78.642, 128.310 80.583, 129.622 81.043 C 130.865 81.479, 128.043 85.467, 117.403 98.310 L 103.567 115.009 100.034 114.399 C 96.287 113.751, 68 105.048, 68 104.543 C 68 104.380, 74.539 101.429, 82.531 97.987 C 90.522 94.544, 96.935 91.617, 96.781 91.482 C 96.626 91.347, 91.775 89.555, 86 87.500 C 80.225 85.445, 75.343 83.622, 75.151 83.449 C 74.959 83.277, 76.279 76.353, 78.085 68.064 L 81.367 52.992 98.224 43.996 C 107.495 39.048, 115.968 35, 117.052 35 C 118.136 35, 126.331 30.660, 135.262 25.355 C 154.145 14.139, 152.613 15.211, 151.433 14.039 C 150.858 13.467, 143.840 16.661, 133.150 22.360 M 46.715 42.930 L 41.004 60.859 41.662 92.373 L 42.321 123.886 45.410 123.302 C 49.956 122.444, 50.490 121.718, 51.936 114.443 L 53.254 107.814 58.988 113.488 L 64.721 119.162 76.611 116.744 L 88.500 114.327 75.500 110.149 C 68.350 107.851, 61.825 105.718, 61 105.409 C 60.133 105.085, 65.383 102.351, 73.446 98.928 C 81.117 95.671, 87.771 92.629, 88.234 92.166 C 88.697 91.703, 85.234 90.020, 80.538 88.425 C 75.821 86.824, 72 84.958, 72 84.256 C 72 83.557, 73.350 76.917, 75 69.500 C 76.650 62.083, 78 55.771, 78 55.472 C 78 55.174, 77.130 55.395, 76.066 55.965 C 68.518 60.004, 72.464 53.336, 81.329 47.070 C 83.140 45.790, 83.284 45.816, 82.707 47.320 C 82.353 48.244, 82.310 49, 82.613 49 C 83.713 49, 110 34.677, 110 34.078 C 110 33.502, 57.320 24.954, 53.963 24.986 C 52.853 24.996, 50.839 29.981, 46.715 42.930 M 149 35.547 C 138.825 37.398, 129.600 39.044, 128.500 39.206 C 127.227 39.393, 130.181 41.268, 136.622 44.361 L 146.743 49.222 145.014 55.945 C 143.844 60.494, 141.594 65.174, 138.057 70.415 C 135.182 74.676, 132.982 78.315, 133.168 78.502 C 133.453 78.786, 163.209 43.436, 169.996 34.750 L 172.145 32 169.823 32.091 C 168.545 32.141, 159.175 33.696, 149 35.547 M 121.250 97.843 C 113.963 106.661, 108 114.129, 108 114.438 C 108 114.747, 118.575 115, 131.500 115 C 144.425 115, 154.985 115.338, 154.966 115.750 C 154.948 116.162, 149.404 126.791, 142.646 139.369 L 130.360 162.238 131.696 171.369 C 132.431 176.391, 133.138 180.838, 133.267 181.252 C 133.430 181.773, 173.158 156.125, 177.741 152.540 C 177.992 152.343, 171.867 103.682, 171.537 103.258 C 171.434 103.125, 159.683 104.781, 145.425 106.938 C 113.316 111.796, 113.758 111.749, 113.283 110.338 C 113.067 109.695, 122.112 103.707, 133.538 96.929 C 147.043 88.918, 153.719 84.426, 152.842 83.943 C 152.104 83.536, 147.675 82.890, 143 82.506 L 134.500 81.809 121.250 97.843 M 54.613 115.091 C 54.368 115.866, 53.908 117.689, 53.591 119.143 C 53.030 121.718, 53.107 121.765, 56.587 120.980 C 58.551 120.537, 60.343 119.990, 60.569 119.765 C 60.794 119.539, 59.647 118.078, 58.019 116.518 C 55.827 114.418, 54.943 114.048, 54.613 115.091 M 77.364 119.357 L 67.228 121.500 71.864 126.660 C 75.881 131.130, 76.882 131.747, 79.359 131.272 C 82.065 130.754, 82.153 130.846, 81.008 132.984 C 79.990 134.888, 80.098 135.543, 81.699 137.143 C 83.564 139.009, 83.688 138.932, 88.710 132.774 L 93.823 126.506 88.837 123.628 C 85.486 121.693, 84.182 120.418, 84.859 119.741 C 85.537 119.063, 87.395 119.628, 90.528 121.463 L 95.188 124.194 98.096 121.408 C 100.224 119.369, 100.669 118.408, 99.752 117.826 C 97.604 116.462, 87.924 117.124, 77.364 119.357 M 114 119.400 L 120.500 121.647 127.735 133.069 C 131.714 139.350, 135.321 144.607, 135.750 144.750 C 136.350 144.950, 151.034 118.880, 150.598 118.389 C 150.544 118.328, 140.825 118.025, 129 117.716 L 107.500 117.153 114 119.400 M 100.822 122.349 L 98.144 125.713 101.822 127.760 C 123.394 139.767, 130.959 143.725, 130.391 142.707 C 130.021 142.043, 127.284 137.592, 124.311 132.816 L 118.904 124.131 112.202 121.919 C 108.516 120.703, 105.050 119.545, 104.500 119.346 C 103.950 119.147, 102.295 120.499, 100.822 122.349 M 58.003 123.426 L 52.505 124.542 51.349 129.521 C 50.712 132.259, 50.149 135.475, 50.096 136.667 L 50 138.834 61.250 135.813 C 67.438 134.151, 72.704 132.597, 72.952 132.360 C 73.201 132.123, 71.176 129.764, 68.452 127.119 L 63.500 122.309 58.003 123.426 M 91.045 134.236 C 88.270 137.665, 86.021 140.703, 86.046 140.986 C 86.072 141.268, 89.937 145.550, 94.636 150.500 L 103.180 159.500 102.624 145.530 C 102.105 132.494, 101.915 131.442, 99.784 129.802 C 98.528 128.835, 97.183 128.034, 96.795 128.022 C 96.408 128.010, 93.820 130.806, 91.045 134.236 M 73.493 146.200 C 70.887 150.765, 67.837 156.075, 66.717 158 C 64.200 162.325, 64.767 161.753, 74.290 150.372 C 81.624 141.608, 81.854 141.178, 80.080 139.573 C 78.316 137.976, 78.017 138.277, 73.493 146.200 M 32.190 145.852 C 26.519 147.316, 21.868 148.884, 21.854 149.336 C 21.819 150.510, 39.144 169.189, 39.728 168.606 C 39.994 168.339, 41.444 162.469, 42.949 155.560 C 46.127 140.971, 47.232 141.968, 32.190 145.852" stroke="none" fill="black" fill-rule="evenodd"/>
</svg>