<svg xmlns="http://www.w3.org/2000/svg" width="200" height="200" viewBox="0 0 200 200" version="1.1">
	<path d="M 53.645 12.483 C 53.312 13.349, 61.215 17.598, 77.826 25.484 C 97.599 34.871, 103.650 38.221, 108.287 42.349 C 114.062 47.489, 114.078 47.517, 115.290 55.500 L 116.504 63.500 124.002 65.871 C 132.088 68.428, 132.640 68.693, 131.742 69.591 C 131.417 69.916, 122.907 72.622, 112.831 75.604 C 97.532 80.132, 94.033 80.858, 91.607 80.013 C 87.497 78.580, 86.791 78.741, 87.920 80.850 C 88.811 82.515, 88.060 82.938, 80.365 85.096 C 75.666 86.414, 71.354 87.781, 70.782 88.134 C 68.234 89.709, 71.829 90.872, 82.790 92.019 L 94.596 93.254 99.218 101.352 C 101.760 105.806, 103.657 109.746, 103.434 110.107 C 103.211 110.467, 99.197 111.820, 94.514 113.112 C 89.831 114.404, 86 115.770, 86 116.146 C 86 116.523, 90.050 120.332, 95 124.610 C 99.950 128.888, 104 132.680, 104 133.036 C 104 133.392, 100.737 134.957, 96.750 136.513 C 83.267 141.775, 83.026 141.904, 83.661 143.558 C 83.989 144.414, 84.763 144.922, 85.379 144.686 C 85.996 144.450, 99.010 146.595, 114.299 149.453 C 129.589 152.311, 142.250 154.390, 142.435 154.074 C 142.704 153.613, 137.489 93.430, 135.691 76.253 C 135.253 72.070, 135.304 71.989, 139.090 70.855 C 143.563 69.515, 143.349 68.344, 138.465 67.427 C 136.559 67.070, 134.969 66.490, 134.932 66.139 C 133.771 55.222, 131.369 28.419, 131.533 28.205 C 131.656 28.042, 133.451 30.803, 135.520 34.341 L 139.282 40.772 153.641 41.490 L 168 42.208 168 59.055 L 168 75.902 158.523 82.510 C 153.310 86.144, 148.834 89.459, 148.576 89.876 C 148.319 90.294, 153.240 97.225, 159.513 105.280 L 170.919 119.925 159.965 127.067 C 153.101 131.543, 149.271 134.637, 149.705 135.355 C 150.087 135.985, 154.584 141.826, 159.699 148.335 C 164.815 154.845, 169 160.487, 169 160.873 C 169 161.524, 164.651 165.820, 155.914 173.799 L 152.328 177.074 122.414 170.971 C 105.961 167.615, 90.475 164.641, 88 164.363 C 84.629 163.985, 77.358 165.362, 59.010 169.855 C 45.540 173.154, 34.388 175.722, 34.228 175.562 C 34.068 175.402, 38.677 163.249, 44.469 148.556 C 50.261 133.862, 55 121.509, 55 121.104 C 55 120.699, 49.375 119.302, 42.500 118 C 31.294 115.878, 30 115.419, 30.003 113.567 C 30.004 112.430, 29.488 104.404, 28.855 95.731 C 28.222 87.059, 28.031 79.634, 28.431 79.231 C 28.832 78.829, 39.356 78.050, 51.819 77.500 C 80.831 76.220, 81.278 75.657, 59.311 68.069 C 50.663 65.082, 44.018 62.503, 44.544 62.339 C 45.070 62.174, 54.454 60.704, 65.398 59.072 C 76.341 57.440, 85.752 55.648, 86.311 55.089 C 87.874 53.526, 84.706 52.703, 58.790 47.943 C 45.749 45.547, 35.315 43.343, 35.603 43.044 C 35.891 42.745, 43.163 40.430, 51.763 37.899 C 60.364 35.369, 67.596 32.713, 67.834 31.997 C 68.419 30.243, 65.717 30.836, 44.425 37.135 C 27.209 42.228, 23.743 44.180, 29.750 45.400 C 31.262 45.707, 42.400 47.807, 54.500 50.066 C 66.600 52.325, 76.597 54.270, 76.716 54.387 C 76.835 54.504, 67.933 55.909, 56.934 57.510 C 40.811 59.856, 36.990 60.707, 37.220 61.903 C 37.398 62.829, 42.861 65.244, 51.776 68.337 C 59.624 71.060, 65.887 73.446, 65.693 73.641 C 65.499 73.835, 56.400 74.458, 45.474 75.026 C 34.547 75.595, 25.424 76.243, 25.199 76.468 C 24.284 77.383, 27.430 116.287, 28.506 117.363 C 29.132 117.989, 34.449 119.354, 40.322 120.398 C 46.292 121.458, 50.999 122.781, 50.998 123.397 C 50.998 124.004, 46.098 136.875, 40.111 152 C 34.125 167.125, 29.289 179.576, 29.365 179.668 C 29.441 179.761, 42.103 176.803, 57.502 173.094 L 85.500 166.352 119.294 173.245 L 153.088 180.139 163.044 170.959 C 168.520 165.911, 173 161.556, 173 161.283 C 173 161.009, 168.886 155.546, 163.858 149.143 C 158.830 142.739, 154.282 136.947, 153.753 136.271 C 153.049 135.372, 155.762 133.117, 163.859 127.869 L 174.928 120.695 168.260 112.097 C 164.593 107.369, 159.433 100.805, 156.793 97.510 C 154.153 94.216, 152.107 91.196, 152.247 90.799 C 152.386 90.402, 156.550 87.226, 161.500 83.742 L 170.500 77.406 170.500 58.453 L 170.500 39.500 156.750 38.857 C 149.187 38.503, 142.386 37.978, 141.635 37.690 C 140.885 37.402, 138.124 33.417, 135.500 28.833 C 129.789 18.860, 130.213 19.387, 128.924 20.676 C 128.199 21.401, 128.489 28.256, 129.870 43.097 C 130.963 54.855, 131.706 64.628, 131.519 64.814 C 131.332 65.001, 128.477 64.396, 125.174 63.469 L 119.168 61.783 118.084 55.560 C 117.488 52.137, 117 48.698, 116.999 47.918 C 116.999 47.138, 114.071 43.881, 110.492 40.681 C 105.519 36.234, 100.509 33.201, 89.242 27.819 C 56.190 12.029, 54.155 11.153, 53.645 12.483 M 114.635 77.914 L 98.770 82.688 114.385 88.505 C 123.866 92.037, 130 94.848, 130 95.661 C 130 97.313, 130.885 97.328, 113.954 95.390 C 106.217 94.505, 99.645 94.022, 99.350 94.316 C 99.056 94.611, 100.906 98.688, 103.462 103.377 L 108.109 111.903 99.554 114.512 C 94.849 115.947, 91 117.232, 91 117.367 C 91 117.502, 95.050 121.112, 100 125.390 C 104.950 129.668, 109 133.476, 109 133.852 C 109 134.227, 105.175 136.068, 100.500 137.942 C 95.825 139.816, 92 141.622, 92 141.957 C 92 142.605, 138.984 151.401, 139.424 150.835 C 139.567 150.651, 138.096 133.063, 136.156 111.750 C 133.906 87.029, 132.243 73.026, 131.564 73.070 C 130.979 73.109, 123.361 75.289, 114.635 77.914 M 94.629 87.348 C 96.222 90.689, 96.248 90.699, 106.333 91.795 C 111.892 92.399, 116.567 92.766, 116.723 92.611 C 117.010 92.323, 94.672 84, 93.612 84 C 93.293 84, 93.751 85.507, 94.629 87.348 M 84 86.995 L 78.500 88.693 85.295 89.468 C 89.033 89.894, 92.264 90.069, 92.477 89.856 C 92.689 89.644, 92.106 88.531, 91.182 87.383 C 89.532 85.336, 89.397 85.328, 84 86.995" stroke="none" fill="black" fill-rule="evenodd"/>
</svg>