<svg xmlns="http://www.w3.org/2000/svg" width="200" height="200" viewBox="0 0 200 200" version="1.1">
	<path d="M 68.680 23.031 C 51.179 27.307, 36.715 30.962, 36.538 31.153 C 36.083 31.642, 22 85.910, 22 87.175 C 22 87.746, 22.667 87.958, 23.483 87.645 C 24.299 87.332, 32.916 90.889, 42.632 95.549 L 60.297 104.023 78.637 93.434 C 88.724 87.610, 97.253 82.400, 97.589 81.856 C 98.845 79.823, 96.652 79.649, 85.385 80.885 C 79.024 81.582, 73.627 81.961, 73.392 81.725 C 73.156 81.490, 77.829 78.080, 83.775 74.149 C 94.860 66.820, 97.358 66.043, 103.945 67.882 C 106.102 68.484, 106.719 69.859, 109.169 79.532 C 110.698 85.564, 111.960 91.013, 111.974 91.640 C 111.988 92.266, 104.310 97.829, 94.911 104 C 82.478 112.165, 78.122 115.522, 78.922 116.322 C 79.723 117.123, 84.966 116.817, 98.165 115.199 C 108.144 113.976, 116.521 113.188, 116.782 113.448 C 117.184 113.851, 122.935 137.051, 122.613 136.972 C 122.551 136.957, 102.700 131.377, 78.500 124.572 C 54.300 117.767, 34.298 112.394, 34.051 112.632 C 33.805 112.869, 37.742 117.220, 42.802 122.301 L 52 131.538 35.574 159.269 C 26.540 174.521, 19.377 187, 19.657 187 C 19.937 187, 33.516 180.216, 49.833 171.924 C 66.150 163.633, 78.784 157.445, 77.909 158.174 C 77.033 158.903, 69.058 165.125, 60.186 172 C 51.314 178.875, 44.520 184.659, 45.088 184.853 C 45.655 185.048, 66.455 183.558, 91.310 181.544 L 136.500 177.881 152.299 171.266 C 160.988 167.627, 168.311 164.306, 168.571 163.885 C 168.832 163.463, 161.385 156.457, 152.022 148.315 C 142.660 140.173, 135 133.266, 135 132.966 C 135 132.666, 143.325 128.910, 153.500 124.621 C 163.675 120.331, 172 116.397, 172 115.879 C 172 114.374, 170.552 114.155, 150 112.545 C 117.679 110.013, 119.223 110.292, 118.464 106.837 C 118.104 105.198, 118 103.667, 118.232 103.435 C 118.464 103.203, 133.919 98.253, 152.577 92.436 C 171.235 86.618, 186.920 81.448, 187.433 80.946 C 187.947 80.444, 188.054 79.720, 187.671 79.338 C 187.288 78.955, 179.218 77.371, 169.738 75.818 C 160.257 74.265, 152.143 72.876, 151.706 72.732 C 151.270 72.589, 154.111 69.840, 158.020 66.624 C 164.907 60.958, 166.525 60.235, 178.250 57.584 C 180.626 57.046, 182.332 53.993, 180.250 54.004 C 179.400 54.008, 104.592 40.825, 104.331 40.625 C 104.238 40.554, 103.840 39.210, 103.445 37.638 L 102.728 34.781 116.378 35.512 C 135.413 36.531, 169 35.220, 169 33.458 C 169 32.730, 168.213 31.894, 167.250 31.600 C 165.909 31.190, 109.567 17.381, 102 15.608 C 101.175 15.414, 86.181 18.755, 68.680 23.031 M 70.087 25.583 C 53.359 29.622, 39.358 33.281, 38.973 33.713 C 38.156 34.630, 25.997 80.888, 26.006 83.046 C 26.009 83.939, 32.610 87.672, 43.107 92.718 L 60.204 100.935 75.128 92.327 C 83.337 87.593, 89.920 83.587, 89.757 83.424 C 89.594 83.261, 84.308 83.764, 78.009 84.542 C 70.679 85.447, 66.210 85.610, 65.595 84.995 C 64.414 83.814, 63.084 84.883, 78.407 74.697 C 93.315 64.786, 93.451 65.133, 74.500 64.745 L 62.500 64.500 78.742 53.575 C 87.675 47.566, 94.756 42.423, 94.478 42.145 C 94.200 41.867, 86.253 40.258, 76.818 38.570 C 51.618 34.060, 53.282 32.133, 82.733 31.716 C 95.735 31.532, 97.902 31.280, 97.531 30 C 95.881 24.318, 95.830 23, 97.262 23 C 98.153 23, 99.224 24.730, 99.960 27.359 L 101.181 31.718 109.340 32.353 C 122.082 33.345, 157.848 33.025, 155.500 31.941 C 153.819 31.164, 108.659 19.819, 102.500 18.627 C 101.400 18.414, 86.814 21.544, 70.087 25.583 M 76.274 34.791 C 75.560 35.255, 79.743 36.363, 86.274 37.440 C 92.448 38.458, 98.033 39.487, 98.686 39.728 C 99.529 40.038, 99.653 39.347, 99.115 37.332 L 98.360 34.500 87.930 34.247 C 82.193 34.108, 76.948 34.353, 76.274 34.791 M 84.600 52.803 L 71.700 61.500 82.600 62.299 C 88.595 62.738, 93.959 63.151, 94.520 63.215 C 95.080 63.280, 97.422 62.087, 99.724 60.564 C 103.515 58.055, 103.853 57.498, 103.312 54.647 C 102.151 48.524, 100.482 44.525, 99 44.317 C 98.175 44.201, 91.695 48.020, 84.600 52.803 M 105.700 45.360 C 106.140 46.108, 110.650 51.126, 115.722 56.511 L 124.944 66.302 147.222 61.538 C 159.475 58.918, 170.043 56.481, 170.706 56.122 C 171.660 55.606, 108.780 43.851, 105.700 43.969 C 105.260 43.986, 105.260 44.612, 105.700 45.360 M 108.690 54.924 C 109.018 56.178, 108.807 57.501, 108.221 57.864 C 107.564 58.269, 107.427 59.862, 107.864 62.011 C 108.540 65.334, 108.857 65.559, 114.537 66.730 C 117.816 67.406, 121.078 67.856, 121.786 67.730 C 122.493 67.603, 119.701 64.157, 115.583 60.072 C 110.350 54.881, 108.274 53.330, 108.690 54.924 M 101.750 62.080 C 99.103 63.622, 99.649 65, 102.906 65 C 105.320 65, 105.724 64.661, 105.290 63 C 104.701 60.748, 104.242 60.629, 101.750 62.080 M 142 65.452 C 126.475 68.941, 126.595 68.725, 139 70.841 C 143.223 71.561, 143.916 71.335, 150.250 67.158 C 153.963 64.710, 157 62.548, 157 62.353 C 157 62.159, 156.887 62.043, 156.750 62.097 C 156.613 62.150, 149.975 63.660, 142 65.452 M 109.994 69.625 C 109.977 72.334, 114.467 90, 115.172 90 C 116.879 90, 139.028 74.631, 138.277 73.968 C 137.850 73.591, 132.550 72.500, 126.500 71.544 C 120.450 70.589, 114.263 69.569, 112.750 69.279 C 111.237 68.988, 109.997 69.144, 109.994 69.625 M 132.786 87.266 C 124.693 93.942, 118.229 99.562, 118.421 99.755 C 118.614 99.947, 132.866 95.705, 150.093 90.327 L 181.415 80.549 165.458 77.837 C 156.681 76.345, 149.050 75.125, 148.500 75.126 C 147.950 75.127, 140.879 80.590, 132.786 87.266 M 127.500 85.557 C 120.197 90.491, 116.388 93.701, 116.166 95.106 C 115.923 96.645, 116.196 97.007, 117.166 96.433 C 119.025 95.333, 139 78.797, 139 78.358 C 139 77.786, 139.019 77.774, 127.500 85.557 M 98 105.152 C 86.807 112.627, 85.098 114.078, 88 113.641 C 89.925 113.352, 96.546 112.563, 102.713 111.889 C 108.881 111.215, 114.454 110.337, 115.099 109.939 C 115.786 109.514, 116.014 108.193, 115.650 106.743 C 115.149 104.744, 114.549 104.364, 112.515 104.752 C 109.357 105.356, 109.068 102.863, 112.065 100.872 C 113.448 99.953, 113.908 98.922, 113.458 97.750 C 113.088 96.787, 112.497 96.031, 112.143 96.068 C 111.789 96.106, 105.425 100.193, 98 105.152 M 120 113.340 C 120 113.585, 121.369 119.514, 123.042 126.515 C 124.716 133.517, 125.953 139.561, 125.792 139.947 C 125.555 140.516, 98.878 133.277, 47.042 118.579 L 41.585 117.031 48.292 123.791 C 51.982 127.508, 55 130.863, 55 131.245 C 55 131.798, 38.827 159.435, 27.672 177.945 L 25.595 181.391 35.048 176.328 C 42.942 172.100, 89.732 148.236, 92.223 147.167 C 92.650 146.983, 93 147.528, 93 148.377 C 93 149.226, 83.662 157.193, 72.250 166.083 L 51.500 182.246 56.500 181.632 C 59.250 181.295, 78.375 179.657, 99 177.994 L 136.500 174.969 149.762 169.370 C 157.056 166.291, 163.232 163.433, 163.488 163.020 C 163.743 162.607, 156.313 155.613, 146.976 147.479 C 137.639 139.345, 130.005 132.422, 130.011 132.095 C 130.017 131.768, 138.004 128.125, 147.761 124 L 165.500 116.500 151 115.363 C 143.025 114.738, 132.787 113.927, 128.250 113.561 C 123.713 113.195, 120 113.096, 120 113.340" stroke="none" fill="black" fill-rule="evenodd"/>
</svg>