<svg xmlns="http://www.w3.org/2000/svg" width="200" height="200" viewBox="0 0 200 200" version="1.1">
	<path d="M 137 19.445 C 104.224 24.428, 102.100 24.881, 94.500 28.506 C 90.100 30.605, 85.825 33.083, 85 34.014 C 83.591 35.603, 82.349 35.595, 64.610 33.880 L 45.721 32.054 33.110 37.179 C 26.175 39.998, 20.158 42.600, 19.740 42.962 C 19.322 43.324, 24.993 59.191, 32.343 78.222 C 42.435 104.356, 45.868 114.408, 46.369 119.296 L 47.032 125.769 36.001 135.589 C 29.934 140.990, 25.145 145.880, 25.360 146.455 C 25.882 147.854, 26.547 147.653, 37.059 142.920 C 42.048 140.673, 46.704 139.056, 47.406 139.325 C 48.263 139.654, 49.105 144.334, 49.970 153.564 C 51.967 174.898, 49.970 174.901, 69.344 153.539 C 78.592 143.342, 86.479 135, 86.873 135 C 87.266 135, 88.865 138.938, 90.426 143.750 C 91.987 148.563, 93.635 153.492, 94.089 154.704 C 94.905 156.880, 95.062 156.841, 106.708 151.546 C 113.193 148.597, 118.587 146.267, 118.693 146.369 C 118.800 146.471, 117.138 153.505, 115 162 C 112.862 170.495, 111.265 177.598, 111.450 177.783 C 111.790 178.123, 186.116 164.218, 186.613 163.721 C 186.760 163.573, 181.908 155.434, 175.831 145.632 L 164.781 127.812 172.938 105.112 L 181.095 82.412 170.961 59.456 C 165.387 46.830, 160.708 36.380, 160.564 36.234 C 160.419 36.087, 157.196 36.618, 153.400 37.412 L 146.500 38.857 159.500 26.474 C 166.650 19.663, 172.275 14.115, 172 14.145 C 171.725 14.175, 155.975 16.560, 137 19.445 M 133.787 22.647 C 105.364 26.902, 103.694 27.273, 95.287 31.213 C 90.454 33.479, 86.973 35.490, 87.551 35.683 C 90.898 36.801, 138.800 40.632, 140.500 39.918 C 142.330 39.149, 165.148 18.004, 164 18.140 C 163.725 18.173, 150.129 20.201, 133.787 22.647 M 34.250 39.651 C 28.063 42.157, 23.002 44.724, 23.004 45.354 C 23.006 45.984, 24.321 49.875, 25.926 54 L 28.845 61.500 41.672 62.136 C 48.728 62.486, 58.108 62.823, 62.519 62.886 L 70.537 63 76.683 50.661 L 82.829 38.323 65.165 36.657 C 55.449 35.741, 47.050 35.014, 46.500 35.043 C 45.950 35.071, 40.438 37.145, 34.250 39.651 M 79.678 50.615 C 76.498 57.003, 74.032 62.344, 74.198 62.483 C 74.364 62.622, 81.145 63.047, 89.268 63.429 L 104.035 64.122 106.508 58.811 C 109.559 52.257, 109.592 51.224, 106.760 50.820 C 105.528 50.644, 104.383 49.776, 104.214 48.892 C 103.984 47.685, 104.980 47.135, 108.204 46.683 C 110.567 46.353, 115.875 45.293, 120 44.327 L 127.500 42.572 110.500 40.859 C 101.150 39.916, 91.691 39.112, 89.480 39.073 L 85.460 39 79.678 50.615 M 153.438 40.134 L 149.377 41.043 153.701 50.272 C 156.079 55.347, 158.393 60.155, 158.843 60.955 C 159.579 62.264, 168.959 65.374, 169.759 64.574 C 170.310 64.024, 159.200 39.559, 158.321 39.386 C 157.869 39.298, 155.672 39.635, 153.438 40.134 M 123.750 46.237 C 118.388 47.348, 114 48.600, 114 49.018 C 114 49.436, 116.956 50.578, 120.570 51.556 L 127.139 53.335 131.806 48.667 C 137.045 43.428, 137.151 43.460, 123.750 46.237 M 135.560 48.934 C 132.843 51.695, 130.818 54.119, 131.060 54.320 C 131.988 55.093, 154.429 60.904, 154.852 60.481 C 155.097 60.236, 153.701 56.540, 151.749 52.268 C 148.284 44.684, 148.108 44.493, 144.350 44.207 C 140.887 43.944, 140.004 44.418, 135.560 48.934 M 109.743 58.250 L 107.354 63.500 111.346 63.816 C 114.857 64.093, 115.814 63.657, 119.275 60.196 L 123.211 56.260 118.427 54.630 C 115.796 53.733, 113.304 53, 112.888 53 C 112.472 53, 111.057 55.362, 109.743 58.250 M 122.500 61 L 119.626 64 123.659 64 C 125.878 64, 131.924 64.235, 137.096 64.522 L 146.500 65.043 137.500 61.576 C 132.550 59.668, 127.797 58.084, 126.937 58.054 C 126.077 58.024, 124.081 59.350, 122.500 61 M 152.500 64 C 153.600 64.473, 155.175 64.859, 156 64.859 C 156.945 64.859, 156.761 64.542, 155.500 64 C 154.400 63.527, 152.825 63.141, 152 63.141 C 151.055 63.141, 151.239 63.458, 152.500 64 M 36.193 68.844 C 37.462 70.959, 41.425 77.498, 45 83.376 L 51.500 94.063 58 93.556 C 61.575 93.278, 68.218 92.766, 72.762 92.420 L 81.024 91.790 72.960 82.957 L 64.896 74.124 66.898 70.199 L 68.901 66.275 62.804 65.637 C 59.450 65.287, 51.572 65, 45.297 65 L 33.887 65 36.193 68.844 M 70.131 69.737 L 68.214 73.473 74.357 80.347 C 77.736 84.127, 81.410 88.333, 82.523 89.694 L 84.545 92.167 90.678 86.334 C 95.072 82.154, 97.664 78.608, 99.817 73.828 C 101.470 70.158, 102.562 66.896, 102.244 66.578 C 101.927 66.260, 95.002 66, 86.857 66 L 72.048 66 70.131 69.737 M 33.388 73.250 C 34.693 76.688, 38.739 87.256, 42.380 96.736 C 47.017 108.809, 49 115.324, 49 118.486 C 49 120.969, 49.274 123, 49.608 123 C 50.065 123, 73.013 102.728, 80.500 95.711 C 81.477 94.796, 63.303 95.432, 54.446 96.623 L 50.392 97.168 41.118 82.084 C 36.017 73.788, 31.658 67, 31.430 67 C 31.203 67, 32.084 69.813, 33.388 73.250 M 103.951 71.097 C 102.801 73.350, 102.004 75.332, 102.180 75.502 C 102.356 75.671, 104.750 73.837, 107.500 71.425 L 112.500 67.041 109.270 67.021 C 106.488 67.003, 105.751 67.568, 103.951 71.097 M 107.410 75.087 C 102.509 79.535, 97.742 84.814, 96.815 86.819 C 95.889 88.824, 95.252 90.585, 95.400 90.733 C 95.548 90.881, 105.081 90.333, 116.584 89.515 C 142.007 87.708, 140 87.724, 140 89.332 C 140 90.353, 135.606 90.944, 121.250 91.855 C 93.091 93.644, 93.405 93.585, 91.915 97.332 C 90.176 101.705, 90.307 101.669, 87.151 98.645 L 84.324 95.936 67.412 111.105 C 50.925 125.893, 50.502 126.372, 50.587 130.141 C 50.634 132.267, 50.859 134.186, 51.087 134.404 C 51.314 134.623, 69.394 129.590, 91.265 123.220 C 113.875 116.634, 130.501 111.310, 129.803 110.879 C 129.129 110.462, 123.947 108.425, 118.288 106.352 C 112.493 104.229, 108 102.019, 108 101.292 C 108 99.507, 107.828 99.465, 121.215 104.500 C 127.796 106.975, 134.152 108.997, 135.340 108.994 C 136.528 108.991, 142.450 107.644, 148.500 106 C 154.550 104.356, 159.613 103.009, 159.750 103.006 C 159.887 103.003, 160 103.658, 160 104.461 C 160 105.340, 158.108 106.483, 155.250 107.330 C 152.637 108.104, 128.450 115.161, 101.500 123.013 C 74.550 130.865, 52.173 137.574, 51.772 137.922 C 51.156 138.459, 53.540 164.874, 54.271 165.605 C 54.410 165.744, 61.855 157.789, 70.816 147.929 C 79.776 138.068, 87.439 130, 87.843 130 C 88.248 130, 90.322 135.063, 92.452 141.250 C 94.583 147.438, 96.410 152.619, 96.512 152.765 C 96.613 152.911, 101.919 150.691, 108.303 147.833 C 116.963 143.955, 119.984 142.128, 120.204 140.635 C 120.445 139.005, 123.323 137.700, 135.706 133.606 C 149.666 128.989, 153.126 128.369, 151.658 130.744 C 151.360 131.227, 144.594 134.519, 136.622 138.061 L 122.128 144.500 118.437 159.289 C 116.407 167.424, 114.915 174.229, 115.123 174.413 C 115.629 174.862, 181.061 162.272, 181.738 161.596 C 182.030 161.303, 177.944 154.141, 172.659 145.678 C 167.374 137.216, 162.803 129.651, 162.503 128.868 C 162.203 128.085, 165.585 117.376, 170.019 105.070 L 178.082 82.695 174.857 75.097 L 171.632 67.500 166.817 67.846 C 163.745 68.067, 162.239 68.577, 162.657 69.254 C 163.093 69.960, 162.507 70.068, 160.906 69.576 C 156.992 68.375, 140.360 67.101, 127.910 67.049 L 116.320 67 107.410 75.087 M 90.500 90 C 90.160 90.550, 90.332 91, 90.882 91 C 91.432 91, 92.160 90.550, 92.500 90 C 92.840 89.450, 92.668 89, 92.118 89 C 91.568 89, 90.840 89.450, 90.500 90 M 87.500 95 C 87.840 95.550, 88.541 96, 89.059 96 C 89.577 96, 90 95.550, 90 95 C 90 94.450, 89.298 94, 88.441 94 C 87.584 94, 87.160 94.450, 87.500 95 M 40.412 135.535 C 34.529 141.044, 34.520 141.062, 38.500 139.177 C 40.700 138.136, 43.737 136.986, 45.250 136.623 C 47.487 136.085, 48 135.406, 48 132.981 C 48 131.341, 47.623 130, 47.162 130 C 46.701 130, 43.663 132.491, 40.412 135.535" stroke="none" fill="black" fill-rule="evenodd"/>
</svg>