<svg xmlns="http://www.w3.org/2000/svg" width="200" height="200" viewBox="0 0 200 200" version="1.1">
	<path d="M 99 20.375 C 99 23.881, 98.728 28.110, 98.396 29.772 L 97.791 32.794 80.146 33.410 C 70.441 33.749, 56.987 34.291, 50.250 34.614 L 38 35.201 38 39.101 L 38 43 68.132 43 L 98.263 43 97.716 47.083 C 97.415 49.328, 96.996 51.338, 96.785 51.549 C 96.574 51.760, 88.166 51.243, 78.100 50.400 C 68.034 49.557, 59.676 49.010, 59.525 49.184 C 59.374 49.358, 56.944 60.038, 54.124 72.918 C 51.305 85.798, 48.787 96.547, 48.529 96.804 C 48.272 97.061, 42.859 96.250, 36.500 95 C 30.141 93.750, 24.693 92.974, 24.393 93.274 C 23.878 93.789, 19.924 157.258, 20.379 157.712 C 21.034 158.368, 48.326 171, 49.087 171 C 49.589 171, 50.001 165.938, 50.003 159.750 C 50.004 153.563, 50.300 139.387, 50.661 128.250 L 51.317 108 72.659 108 L 94 108 94 111.567 C 94 114.820, 93.801 115.069, 91.750 114.394 C 90.513 113.987, 88.774 113.619, 87.887 113.577 C 86.931 113.531, 79.713 121.890, 70.137 134.135 C 61.262 145.484, 54 154.983, 54 155.244 C 54 155.505, 59.962 156.015, 67.250 156.379 C 87.452 157.386, 90.835 157.906, 91.535 160.111 C 92.335 162.630, 94.054 162.510, 94.740 159.888 C 95.804 155.818, 101.720 158.088, 126.700 172.155 C 139.735 179.495, 150.569 185.413, 150.776 185.308 C 150.984 185.202, 158.120 175.838, 166.633 164.498 L 182.113 143.881 178.020 118.190 C 175.769 104.061, 173.553 91.600, 173.095 90.500 C 172.491 89.047, 169.015 87.425, 160.381 84.566 L 148.500 80.633 153.289 79.247 L 158.077 77.862 153.342 71.181 C 150.738 67.506, 145.108 59.663, 140.829 53.750 L 133.051 43 153.025 43 C 170.114 43, 173 42.783, 173 41.500 C 173 40.214, 169.999 40, 151.990 40 L 130.981 40 128.240 35.947 L 125.500 31.895 113.103 32.533 L 100.706 33.170 101.403 26.368 C 101.787 22.627, 102.277 19.389, 102.494 19.173 C 102.710 18.956, 110.225 22.846, 119.194 27.818 L 135.500 36.856 160.750 34.220 C 179.362 32.277, 186 31.244, 186 30.292 C 186 28.629, 187.061 28.580, 159.515 31.530 L 135.896 34.059 118.053 24.030 C 108.239 18.513, 99.938 14, 99.605 14 C 99.272 14, 99 16.869, 99 20.375 M 103.250 35.706 C 101.843 35.977, 101 36.863, 101 38.070 C 101 39.878, 101.823 40, 114 40 C 121.150 40, 127 39.620, 127 39.155 C 127 38.690, 126.177 37.565, 125.171 36.655 C 123.729 35.350, 121.456 35.029, 114.421 35.136 C 109.515 35.211, 104.487 35.467, 103.250 35.706 M 60 36.713 C 44.613 37.002, 41 37.441, 41 39.019 C 41 39.637, 51.536 40, 69.500 40 C 97.333 40, 98 39.953, 98 38 C 98 35.791, 101.947 35.925, 60 36.713 M 100.617 43.555 C 100.278 44.440, 100 46.669, 100 48.510 C 100 52.268, 98.530 51.863, 118.921 53.729 C 123.812 54.177, 127.503 54.988, 127.726 55.665 C 128.198 57.098, 127.490 57.297, 112.250 60.022 C 104.875 61.340, 100 62.674, 100 63.373 C 100 64.012, 109.841 67.803, 121.869 71.798 C 143.219 78.890, 143.847 79.033, 148.369 77.824 C 150.916 77.143, 153 76.304, 153 75.960 C 153 75.616, 147.683 67.947, 141.184 58.917 L 129.367 42.500 115.301 42.223 C 103.134 41.984, 101.151 42.164, 100.617 43.555 M 56.861 73.258 C 54.309 84.941, 52.408 94.699, 52.636 94.942 C 52.864 95.185, 62.318 94.223, 73.646 92.805 C 87.616 91.056, 94.520 89.788, 95.106 88.863 C 95.581 88.113, 95.970 85.475, 95.971 83 L 95.973 78.500 80.012 72.526 C 71.233 69.240, 64.602 66.252, 65.275 65.887 C 65.949 65.522, 68.772 64.918, 71.548 64.546 C 78.856 63.565, 79.702 62.693, 75.529 60.446 C 73.588 59.400, 72 57.973, 72 57.273 C 72 55.563, 72.270 55.600, 81.738 58.609 C 91.756 61.793, 97 61.403, 97 57.474 C 97 55.748, 96.344 54.907, 94.750 54.588 C 92.587 54.155, 65.922 51.992, 62.948 52.008 C 61.876 52.014, 60.294 57.538, 56.861 73.258 M 100 56.861 C 100 59.376, 101.092 59.456, 109.500 57.559 C 112.800 56.814, 114.375 56.155, 113 56.094 C 111.625 56.033, 108.138 55.699, 105.250 55.352 C 100.356 54.764, 100 54.867, 100 56.861 M 88.801 65.250 C 89.376 65.938, 91.184 67.285, 92.818 68.245 C 95.460 69.796, 95.856 69.817, 96.385 68.439 C 96.804 67.346, 95.961 66.464, 93.522 65.445 C 89.146 63.616, 87.373 63.543, 88.801 65.250 M 80.500 65.715 C 73.232 67.034, 73.270 67.094, 83.887 71.090 C 89.599 73.241, 94.662 75, 95.137 75 C 97.439 75, 95.416 72.930, 89.750 69.487 C 82.365 64.999, 83.005 65.260, 80.500 65.715 M 99.180 70.163 C 99.399 71.639, 102.187 74, 107.971 77.604 C 112.629 80.507, 116.969 83.605, 117.614 84.487 C 118.678 85.942, 119.652 85.847, 128.143 83.460 C 133.289 82.014, 137.641 80.690, 137.813 80.519 C 138.233 80.101, 101.857 68, 100.180 68 C 99.396 68, 98.991 68.877, 99.180 70.163 M 100 77 C 100.825 77.533, 101.950 77.969, 102.500 77.969 C 103.050 77.969, 102.825 77.533, 102 77 C 101.175 76.467, 100.050 76.031, 99.500 76.031 C 98.950 76.031, 99.175 76.467, 100 77 M 98.630 83.099 C 97.357 89.464, 97.585 89.856, 102.250 89.331 C 104.588 89.067, 108.975 88.379, 112 87.802 L 117.500 86.752 110 83.867 C 98.677 79.511, 99.339 79.556, 98.630 83.099 M 129 86.074 C 121.575 88.234, 111.675 90.585, 107 91.300 L 98.500 92.600 97.988 98.300 C 97.707 101.435, 97.573 104, 97.691 104 C 97.809 104, 110.397 102.650, 125.665 101 C 140.934 99.350, 154.942 98, 156.796 98 C 163.697 98, 159.092 100.425, 144.443 104.505 C 136.224 106.794, 128.962 108.854, 128.305 109.083 C 127.648 109.312, 133.142 116.250, 140.514 124.500 C 152.881 138.340, 155.509 142, 153.080 142 C 152.574 142, 149.311 139.569, 145.830 136.598 C 139.601 131.281, 139.167 131.097, 118.622 125.059 C 107.139 121.684, 97.503 119.164, 97.209 119.458 C 96.485 120.181, 94.670 154.004, 95.320 154.653 C 95.603 154.937, 97.744 155.424, 100.077 155.737 C 102.892 156.115, 110.238 159.654, 121.910 166.256 C 131.584 171.728, 141.842 177.530, 144.705 179.150 L 149.910 182.095 164.538 162.601 L 179.167 143.107 174.958 117.095 L 170.750 91.082 157.124 86.541 C 149.629 84.044, 143.273 82.033, 142.999 82.074 C 142.724 82.115, 136.425 83.915, 129 86.074 M 73.617 95.575 C 63.782 96.866, 55.307 98.064, 54.783 98.239 C 52.477 99.008, 88.316 105.163, 91.558 104.555 C 94.981 103.913, 95 103.879, 95 98.455 C 95 93.883, 94.717 93.018, 93.250 93.114 C 92.287 93.177, 83.453 94.284, 73.617 95.575 M 25.132 120.237 C 24.464 133.582, 23.656 147.064, 23.335 150.198 L 22.753 155.896 34.537 161.454 C 41.018 164.511, 46.450 166.883, 46.608 166.725 C 46.767 166.567, 47.216 153.022, 47.606 136.627 C 48.085 116.532, 48.672 106.705, 49.408 106.476 C 50.009 106.289, 55 105.806, 60.500 105.401 L 70.500 104.666 52 100.982 C 41.825 98.956, 31.890 97, 29.923 96.636 L 26.347 95.974 25.132 120.237 M 128.500 103.512 C 123 104.180, 119.648 104.788, 121.050 104.864 C 122.453 104.939, 124.028 105.423, 124.550 105.940 C 125.144 106.528, 128.124 106.152, 132.500 104.937 C 144.150 101.703, 143.956 101.634, 128.500 103.512 M 97 111.405 L 97 114.811 105.750 112.386 C 110.563 111.053, 115.850 109.561, 117.500 109.071 C 119.687 108.422, 117.317 108.156, 108.750 108.090 L 97 108 97 111.405 M 112 113.442 L 100.500 116.716 109 119.291 C 129.987 125.648, 138.371 127.962, 138.812 127.521 C 139.203 127.130, 124.153 109.815, 123.656 110.084 C 123.570 110.131, 118.325 111.642, 112 113.442 M 72.291 135.762 L 59.224 152.500 63.362 153.110 C 65.638 153.445, 72.801 154.027, 79.280 154.402 L 91.059 155.085 90.543 152.793 C 90.260 151.532, 89.090 143.532, 87.945 135.015 C 86.800 126.498, 85.749 119.416, 85.610 119.277 C 85.471 119.138, 79.478 126.556, 72.291 135.762 M 89.396 120.411 C 88.869 121.783, 91.778 144.085, 92.592 144.917 C 92.816 145.146, 93 142.174, 93 138.313 C 93 134.452, 93.289 128.527, 93.642 125.147 C 94.253 119.306, 94.177 119, 92.111 119 C 90.915 119, 89.694 119.635, 89.396 120.411" stroke="none" fill="black" fill-rule="evenodd"/>
</svg>