<svg xmlns="http://www.w3.org/2000/svg" width="200" height="200" viewBox="0 0 200 200" version="1.1">
	<path d="M 31 13.917 C 31 14.421, 31.563 15.099, 32.250 15.423 C 32.938 15.747, 32.298 15.785, 30.829 15.507 C 27.728 14.920, 28.236 13.303, 24.522 35.621 L 22.005 50.741 31.579 84.066 L 41.152 117.390 32.448 146.945 C 18.841 193.146, 19.838 189.276, 21.719 188.554 C 23.109 188.021, 52.944 170.604, 59.807 166.320 L 62.114 164.879 60.455 168.087 L 58.796 171.295 62.151 170.750 C 63.997 170.451, 75.517 168.941, 87.753 167.396 C 99.989 165.851, 109.981 164.342, 109.957 164.043 C 109.933 163.744, 105.649 160.157, 100.435 156.072 C 95.064 151.862, 91.334 148.266, 91.826 147.774 C 92.305 147.295, 95.663 145.170, 99.289 143.051 L 105.883 139.198 132.680 160.103 C 147.418 171.601, 159.932 180.837, 160.488 180.629 C 161.968 180.075, 161.739 179.463, 151.328 156.175 C 142.438 136.287, 141.838 134.535, 142.428 130.175 C 142.776 127.604, 146.760 116.557, 151.281 105.626 L 159.500 85.752 167.870 86.273 L 176.240 86.794 175.512 60.147 C 175.112 45.491, 174.657 33.362, 174.501 33.193 C 174.346 33.024, 166.182 30.729, 156.359 28.093 C 146.537 25.457, 137.496 22.980, 136.269 22.589 C 134.317 21.966, 133.709 22.548, 131.405 27.246 L 128.772 32.614 109.636 28.729 C 93.678 25.490, 90.144 24.453, 88.356 22.489 C 87.176 21.194, 86.025 19.575, 85.797 18.892 C 85.514 18.043, 78.123 16.932, 62.442 15.382 C 36.816 12.850, 31 12.579, 31 13.917 M 27.570 34.374 L 24.839 50.500 34.429 84.030 L 44.018 117.561 34.455 149.893 C 29.195 167.675, 25.109 182.442, 25.374 182.707 C 25.640 182.973, 34.476 178.117, 45.010 171.916 L 64.163 160.642 69.519 149.963 L 74.875 139.283 71.840 137.039 C 68.384 134.485, 68.714 133.927, 75.076 131.562 C 78.986 130.109, 80.025 129.099, 82.224 124.616 L 84.797 119.370 74.648 120.637 C 61.391 122.293, 59 122.298, 59 120.672 C 59 119.700, 62.697 118.961, 72.750 117.922 L 86.500 116.500 92.231 105.353 L 97.962 94.206 90.844 92.462 C 85.287 91.100, 81.562 90.859, 73.863 91.364 C 65.514 91.911, 64 91.782, 64 90.524 C 64 89.707, 65.158 88.747, 66.573 88.392 C 70.363 87.441, 68.671 86.595, 56.785 83.501 L 46.070 80.712 58.069 68.224 C 64.669 61.355, 69.941 55.610, 69.784 55.458 C 69.628 55.305, 64.409 54.474, 58.188 53.610 C 51.966 52.747, 46.446 51.776, 45.921 51.451 C 43.769 50.121, 46.471 49.190, 55.731 48.073 C 72.858 46.006, 72.175 46.240, 70.501 43.002 L 69.060 40.215 79.089 36.417 C 84.604 34.328, 89.303 32.319, 89.530 31.952 C 89.757 31.585, 79.043 28.923, 65.721 26.037 C 52.400 23.150, 38.980 20.217, 35.900 19.518 L 30.300 18.247 27.570 34.374 M 44.813 18.683 C 45.534 18.972, 46.397 18.936, 46.729 18.604 C 47.061 18.272, 46.471 18.036, 45.417 18.079 C 44.252 18.127, 44.015 18.364, 44.813 18.683 M 61 18.279 C 61.551 18.838, 81.481 23, 83.608 23 C 84.339 23, 84.697 22.375, 84.404 21.611 C 84.046 20.679, 81.348 20.012, 76.186 19.579 C 71.959 19.225, 66.700 18.674, 64.500 18.353 C 62.300 18.033, 60.725 18, 61 18.279 M 49.813 19.683 C 50.534 19.972, 51.397 19.936, 51.729 19.604 C 52.061 19.272, 51.471 19.036, 50.417 19.079 C 49.252 19.127, 49.015 19.364, 49.813 19.683 M 53.750 20.662 C 54.438 20.940, 55.563 20.940, 56.250 20.662 C 56.938 20.385, 56.375 20.158, 55 20.158 C 53.625 20.158, 53.063 20.385, 53.750 20.662 M 58.750 21.662 C 59.438 21.940, 60.563 21.940, 61.250 21.662 C 61.938 21.385, 61.375 21.158, 60 21.158 C 58.625 21.158, 58.063 21.385, 58.750 21.662 M 63.813 22.683 C 64.534 22.972, 65.397 22.936, 65.729 22.604 C 66.061 22.272, 65.471 22.036, 64.417 22.079 C 63.252 22.127, 63.015 22.364, 63.813 22.683 M 67.750 23.662 C 68.438 23.940, 69.563 23.940, 70.250 23.662 C 70.938 23.385, 70.375 23.158, 69 23.158 C 67.625 23.158, 67.063 23.385, 67.750 23.662 M 76.500 25.442 C 84.447 27.381, 88.404 28.070, 87.731 27.398 C 86.987 26.653, 75.140 24.038, 73 24.146 C 72.175 24.187, 73.750 24.770, 76.500 25.442 M 133.485 29.029 C 131.823 32.243, 132.199 34, 134.547 34 C 135.427 34, 135.885 34.850, 135.738 36.209 C 135.573 37.737, 136.117 38.531, 137.500 38.785 C 149.160 40.924, 150.142 43.228, 139.250 42.890 L 131.500 42.649 120.178 60.919 C 113.951 70.968, 109.023 79.357, 109.227 79.560 C 109.430 79.764, 121.275 80.610, 135.548 81.441 C 149.822 82.271, 164.159 83.188, 167.409 83.477 L 173.318 84.003 172.639 59.814 C 172.265 46.511, 171.811 35.478, 171.630 35.296 C 171.052 34.719, 138.188 26, 136.587 26 C 135.743 26, 134.346 27.363, 133.485 29.029 M 92.126 28.460 C 92.722 29.055, 123.702 36, 125.764 36 C 129.671 36, 125.081 34.715, 109.641 31.485 C 92.338 27.866, 91.365 27.698, 92.126 28.460 M 94 32.884 C 94 33.335, 89.277 35.459, 83.505 37.602 C 77.732 39.746, 73.007 41.751, 73.005 42.059 C 73.002 42.366, 73.563 43.301, 74.250 44.136 C 75.362 45.487, 78.205 45.305, 100 42.485 C 113.475 40.742, 123.825 39.045, 123 38.715 C 122.175 38.385, 115.875 36.928, 109 35.479 C 102.125 34.029, 95.938 32.667, 95.250 32.453 C 94.563 32.238, 94 32.432, 94 32.884 M 109.500 44.088 C 102.350 44.992, 91.897 46.291, 86.270 46.976 L 76.040 48.220 84.520 64.453 C 89.184 73.381, 93 80.945, 93 81.261 C 93 81.578, 89.981 82.842, 86.292 84.069 C 80.153 86.112, 79.792 86.382, 82.042 87.249 C 84.122 88.050, 100.732 87.658, 101.515 86.790 C 102.594 85.593, 123.037 43.661, 122.802 43.127 C 122.636 42.752, 116.650 43.184, 109.500 44.088 M 125.049 45.903 C 123.900 48.156, 123.149 50, 123.381 50 C 124.133 50, 128.096 42.763, 127.610 42.277 C 127.351 42.018, 126.199 43.650, 125.049 45.903 M 62 50 C 59.525 50.385, 58.175 50.776, 59 50.870 C 59.825 50.963, 63.605 51.488, 67.400 52.037 C 71.194 52.585, 74.467 52.866, 74.673 52.660 C 74.879 52.455, 74.763 51.547, 74.417 50.643 C 73.740 48.880, 70.337 48.704, 62 50 M 63.822 66.011 C 57.595 72.618, 52.385 78.364, 52.243 78.781 C 52.102 79.199, 57.143 80.837, 63.445 82.422 L 74.904 85.303 81.202 83.041 C 84.666 81.797, 87.885 80.421, 88.356 79.984 C 89.074 79.316, 76.546 54, 75.496 54 C 75.302 54, 70.049 59.405, 63.822 66.011 M 105.663 84.437 C 105.298 85.387, 105 86.362, 105 86.605 C 105 87.342, 135.354 85.765, 137.500 84.917 C 138.944 84.347, 138.222 84.109, 134.907 84.063 C 132.381 84.029, 124.917 83.710, 118.320 83.355 C 107.524 82.775, 106.259 82.883, 105.663 84.437 M 128.645 88.571 C 115.524 89.284, 104.162 90.108, 103.395 90.402 C 100.640 91.459, 102.095 92.703, 107.500 93.913 C 112.889 95.119, 113 95.214, 113 98.655 C 113 102.486, 110.743 102.986, 110.194 99.276 C 109.968 97.747, 108.701 96.910, 105.323 96.060 C 102.811 95.427, 100.638 95.043, 100.493 95.205 C 100.348 95.367, 97.915 100.130, 95.087 105.788 L 89.943 116.076 94.722 115.475 C 115.632 112.845, 121.948 112.421, 122.406 113.616 C 122.883 114.859, 119.824 116.270, 94.304 126.575 C 83.020 131.132, 81.983 131.776, 80.429 135.190 L 78.750 138.881 81.625 141.383 C 87.641 146.620, 87.818 146.615, 97.274 140.964 L 105.927 135.792 130.213 154.717 C 143.571 165.125, 155.022 173.948, 155.660 174.324 C 156.299 174.700, 152.766 165.987, 147.811 154.962 L 138.801 134.917 139.839 129.023 C 140.721 124.018, 143.277 117.331, 154.661 90.250 C 155.906 87.289, 155.870 87.012, 154.263 87.138 C 153.294 87.213, 141.765 87.858, 128.645 88.571 M 95 90.383 C 95 91.271, 99.046 91.735, 99.558 90.906 C 99.866 90.408, 98.966 90, 97.559 90 C 96.152 90, 95 90.173, 95 90.383 M 100.500 117.502 C 99.950 117.692, 96.991 118.129, 93.925 118.474 C 88.539 119.079, 88.278 119.248, 86.224 123.476 L 84.098 127.852 96.299 122.839 C 103.010 120.082, 108.688 117.640, 108.917 117.413 C 109.410 116.924, 101.949 117.003, 100.500 117.502 M 74.500 135 C 74.160 135.550, 74.584 136, 75.441 136 C 76.298 136, 77 135.550, 77 135 C 77 134.450, 76.577 134, 76.059 134 C 75.541 134, 74.840 134.450, 74.500 135 M 72.727 149.500 C 70.686 153.625, 69.272 157, 69.584 157 C 70.129 157, 83.980 149.158, 84.994 148.276 C 85.633 147.719, 78.822 142.062, 77.469 142.027 C 76.902 142.012, 74.769 145.375, 72.727 149.500 M 76.810 156.254 C 70.389 160.006, 65.682 163.450, 65.023 164.879 C 64.419 166.188, 64.054 167.344, 64.213 167.448 C 64.898 167.901, 103 162.594, 103 162.045 C 103 161.478, 88.526 149.996, 87.821 150.004 C 87.644 150.006, 82.690 152.818, 76.810 156.254" stroke="none" fill="black" fill-rule="evenodd"/>
</svg>