<svg xmlns="http://www.w3.org/2000/svg" width="200" height="200" viewBox="0 0 200 200" version="1.1">
	<path d="M 128.088 34.503 C 119.628 43.599, 112.562 50.896, 112.385 50.719 C 112.208 50.541, 113.872 43.953, 116.082 36.078 C 118.292 28.203, 119.965 21.223, 119.800 20.567 C 119.585 19.713, 114.532 20.444, 102 23.144 C 81.033 27.661, 81.005 27.663, 80.985 24.750 C 80.950 19.723, 80.730 19.746, 49.520 28.078 C 33.064 32.471, 19.527 36.163, 19.435 36.283 C 19.073 36.758, 23.681 119.015, 24.094 119.427 C 24.337 119.670, 30.780 118.538, 38.412 116.912 C 46.044 115.285, 52.452 114.119, 52.652 114.319 C 52.853 114.520, 46.784 121.167, 39.165 129.092 C 22.619 146.301, 12 158.064, 12 159.184 C 12 161.299, 14.576 159.349, 21.820 151.750 C 26.146 147.213, 30.993 142.019, 32.592 140.208 L 35.500 136.916 41.407 138.958 C 50.591 142.133, 50.380 142.296, 49.597 132.638 L 48.918 124.277 58.709 123.750 C 64.094 123.461, 68.591 123.302, 68.703 123.398 C 68.815 123.494, 63.945 133.837, 57.882 146.382 C 51.819 158.928, 47.085 169.418, 47.362 169.695 C 47.638 169.971, 52.395 168.803, 57.932 167.099 C 63.469 165.394, 72.446 162.632, 77.880 160.960 L 87.759 157.920 91.987 145.710 C 94.313 138.994, 96.536 133.153, 96.928 132.730 C 97.320 132.306, 106.717 136.323, 117.811 141.656 C 128.905 146.989, 138.167 151.160, 138.395 150.926 C 138.622 150.692, 137.723 141.316, 136.396 130.092 C 135.069 118.867, 134.150 109.516, 134.355 109.311 C 134.560 109.107, 138.791 115.391, 143.757 123.276 L 152.786 137.612 148.897 160.056 C 144.639 184.631, 144.367 187.375, 146.250 186.755 C 147.265 186.421, 179.464 132.881, 183.149 125.402 C 183.980 123.715, 182.204 117.135, 174.081 91.800 L 163.978 60.296 168.489 50.578 C 170.970 45.232, 172.982 40.328, 172.961 39.679 C 172.925 38.608, 147.519 19.520, 144.676 18.429 C 144.011 18.174, 136.547 25.407, 128.088 34.503 M 118.862 48.275 C 104.841 63.249, 90.473 78.624, 86.934 82.442 L 80.500 89.385 90 84.332 C 113.114 72.037, 131.137 62.810, 131.393 63.141 C 131.546 63.338, 131.183 68.450, 130.586 74.500 C 129.505 85.451, 129.488 85.501, 126.750 85.816 C 125.237 85.990, 124 86.359, 124 86.636 C 124 88.159, 130.320 96, 131.548 96 C 132.457 96, 133.013 97.029, 133.036 98.750 C 133.058 100.499, 137.190 107.975, 144.382 119.283 L 155.693 137.066 152.335 156.283 C 150.488 166.852, 149.095 176.031, 149.239 176.679 C 149.438 177.581, 179.261 127.689, 180.832 123.825 C 181.014 123.376, 176.633 108.875, 171.095 91.601 L 161.027 60.193 165.513 50.526 C 167.981 45.209, 170 40.663, 170 40.423 C 170 40.184, 164.713 36.100, 158.250 31.349 C 151.787 26.597, 146.017 22.336, 145.428 21.880 C 144.750 21.355, 134.978 31.063, 118.862 48.275 M 50.011 30.793 C 34.891 34.837, 22.442 38.225, 22.345 38.323 C 22.248 38.420, 23.018 54.025, 24.056 73 C 25.095 91.975, 25.957 109.412, 25.972 111.750 C 26.006 116.987, 25.528 116.953, 43.719 113.021 C 57.305 110.084, 57.553 109.982, 61.222 105.795 C 64.059 102.558, 64.621 101.367, 63.585 100.787 C 62.837 100.369, 55.626 98.946, 47.559 97.626 C 39.492 96.305, 32.691 95.025, 32.446 94.779 C 32.201 94.534, 36.096 88.366, 41.101 81.071 L 50.202 67.808 49.067 59.654 C 48.443 55.169, 47.686 50.263, 47.386 48.750 C 46.991 46.756, 47.243 46, 48.301 46 C 49.391 46, 50.194 48.810, 51.468 57.078 L 53.174 68.156 44.985 80.143 C 40.481 86.735, 37.066 92.400, 37.397 92.730 C 37.727 93.061, 44.086 94.301, 51.528 95.487 L 65.058 97.643 69.432 95.071 C 73.018 92.963, 109 56.012, 109 54.437 C 109 54.028, 83.417 70.719, 75.671 76.181 C 74.116 77.278, 72.641 77.975, 72.395 77.728 C 72.149 77.482, 73.769 69.457, 75.996 59.896 C 79.346 45.509, 79.930 41.507, 79.385 36.682 C 78.786 31.392, 78.529 30.900, 76.612 31.368 C 66.627 33.808, 43.738 38.071, 43.249 37.582 C 41.839 36.172, 45.321 35.033, 60.500 31.937 C 69.300 30.143, 76.876 28.349, 77.335 27.952 C 77.794 27.555, 78.019 26.378, 77.835 25.336 C 77.525 23.579, 75.484 23.980, 50.011 30.793 M 103.500 25.521 C 98 26.786, 90.854 28.356, 87.621 29.009 L 81.742 30.195 82.251 36.542 C 82.649 41.494, 82.035 46.031, 79.457 57.187 C 77.639 65.052, 76.299 71.633, 76.478 71.812 C 76.657 71.991, 84.051 67.309, 92.908 61.407 L 109.012 50.677 110.925 44.088 C 116.751 24.031, 116.961 22.992, 115.173 23.110 C 114.253 23.171, 109 24.256, 103.500 25.521 M 101.121 81.476 C 87.162 88.821, 75.012 95.587, 74.121 96.511 C 72.605 98.082, 73.214 98.153, 83.500 97.608 C 89.550 97.287, 101.588 96.739, 110.250 96.391 C 118.912 96.043, 126 95.544, 126 95.283 C 126 95.022, 125.179 93.614, 124.176 92.154 C 123.172 90.694, 121.370 87.867, 120.170 85.872 L 117.988 82.244 122.343 82.735 L 126.697 83.226 127.349 78.473 C 128.213 72.170, 128.173 67.986, 127.250 68.061 C 126.838 68.095, 115.079 74.132, 101.121 81.476 M 93.500 99.948 L 82.500 100.500 104.891 104.224 C 117.205 106.272, 127.483 108.149, 127.729 108.395 C 127.975 108.641, 127.859 111.803, 127.472 115.421 L 126.767 122 115.634 122.138 C 109.510 122.214, 97.191 122.552, 88.257 122.888 L 72.014 123.500 61.914 144.324 C 56.360 155.777, 51.974 165.308, 52.169 165.503 C 52.364 165.698, 59.977 163.568, 69.086 160.771 L 85.648 155.684 90.448 141.842 C 93.089 134.229, 95.361 128, 95.499 128 C 95.637 128, 104.626 132.275, 115.474 137.500 C 126.322 142.725, 135.280 147, 135.381 147 C 135.844 147, 130.190 102.297, 129.531 100.750 C 128.873 99.204, 127.370 99.023, 116.643 99.198 C 109.964 99.306, 99.550 99.644, 93.500 99.948 M 65.502 104.998 C 63.353 107.199, 61.821 109, 62.098 109 C 62.375 109, 66.516 108.145, 71.301 107.099 C 76.085 106.053, 80 105.616, 80 106.127 C 80 106.639, 78.650 109.731, 77 113 C 75.350 116.269, 74 119.181, 74 119.471 C 74 120.210, 98.237 120.132, 112.843 119.346 L 125 118.693 125 114.496 L 125 110.300 98.750 106.095 C 84.313 103.782, 71.805 101.689, 70.955 101.443 C 70.065 101.185, 67.754 102.692, 65.502 104.998 M 66.265 110.877 C 60.128 112.254, 58.384 113.145, 54.779 116.750 L 50.529 121 60.250 121 L 69.971 121 73 115 C 74.897 111.242, 75.556 109.047, 74.764 109.127 C 74.069 109.197, 70.244 109.984, 66.265 110.877 M 42.121 130.376 L 37.826 134.753 42.413 136.316 L 47 137.879 47 131.939 C 47 128.673, 46.869 126, 46.708 126 C 46.548 126, 44.484 127.969, 42.121 130.376" stroke="none" fill="black" fill-rule="evenodd"/>
</svg>