<svg xmlns="http://www.w3.org/2000/svg" width="200" height="200" viewBox="0 0 200 200" version="1.1">
	<path d="M 38.131 10.250 C 38.792 11.488, 41.058 15.320, 43.166 18.768 C 45.275 22.215, 47 25.315, 47 25.657 C 47 25.999, 39.833 25.957, 31.074 25.565 L 15.148 24.851 14.805 63.676 C 14.480 100.338, 14.637 104.577, 17.616 139.802 C 19.351 160.318, 21.026 177.359, 21.338 177.671 C 21.650 177.983, 34.070 169.747, 48.939 159.369 L 75.972 140.500 75.986 131.750 C 75.994 126.938, 76.338 123.007, 76.750 123.015 C 79.180 123.065, 79.885 125.554, 80.792 137.294 L 81.781 150.087 75.911 168.294 C 72.682 178.307, 70.031 187.063, 70.020 187.750 C 69.952 191.992, 74.375 185.859, 89.316 160.990 C 98.565 145.595, 106.595 133, 107.161 133 C 107.727 133, 111.297 133.944, 115.095 135.097 L 122 137.195 122 157.116 L 122 177.038 124.250 176.491 C 136.546 173.500, 159.435 169.230, 160.655 169.698 C 161.506 170.024, 162.494 169.839, 162.851 169.286 C 163.208 168.732, 167.953 167.327, 173.395 166.162 C 178.837 164.997, 183.480 163.853, 183.714 163.620 C 183.947 163.387, 180.222 154.714, 175.436 144.348 C 170.650 133.982, 165.885 123.615, 164.847 121.311 L 162.960 117.121 157.324 119.061 C 154.223 120.127, 151.585 121, 151.460 121 C 151.335 121, 151.013 119.850, 150.745 118.445 C 150.337 116.310, 152.603 113.074, 164.532 98.756 L 178.807 81.621 176.571 76.561 C 175.340 73.777, 170.199 62.049, 165.146 50.498 L 155.958 29.497 140.729 25.402 C 129.852 22.478, 125.414 21.657, 125.201 22.529 C 125.036 23.200, 126.049 28.275, 127.451 33.806 C 128.853 39.337, 130 44.343, 130 44.931 C 130 46.123, 120.975 46.370, 113.728 45.376 C 109.439 44.788, 109.078 44.493, 107.455 40.242 C 105.776 35.847, 105.788 35.617, 107.912 31.245 C 109.111 28.777, 109.958 26.628, 109.796 26.469 C 109.515 26.194, 38.106 8, 37.309 8 C 37.100 8, 37.470 9.012, 38.131 10.250 M 43 12.694 C 43 12.945, 44.804 16.188, 47.010 19.900 L 51.020 26.649 76.760 27.844 C 97.552 28.809, 102.718 29.329, 103.632 30.549 C 104.630 31.881, 104.839 31.862, 105.405 30.386 C 105.758 29.466, 105.840 28.507, 105.587 28.254 C 104.890 27.556, 43 12.170, 43 12.694 M 129.536 30.708 C 130.292 33.894, 131.443 38.820, 132.093 41.655 L 133.276 46.810 146.682 47.528 C 154.055 47.923, 160.261 48.073, 160.472 47.861 C 161.020 47.313, 155.017 33.723, 153.643 32.399 C 153.014 31.793, 147.775 30.078, 142 28.586 C 136.225 27.095, 130.749 25.659, 129.830 25.396 C 128.297 24.955, 128.273 25.388, 129.536 30.708 M 17.598 64.606 C 16.907 100.558, 16.967 102.394, 19.955 136.500 C 21.642 155.750, 23.129 172.028, 23.261 172.674 C 23.392 173.319, 34.616 166.119, 48.203 156.674 L 72.906 139.500 72.953 130.828 L 73 122.155 69.569 121.023 C 66.275 119.936, 65.615 120.198, 53.044 127.587 C 45.843 131.820, 39.809 135.108, 39.635 134.892 C 38.994 134.097, 35.099 108.567, 35.550 108.117 C 35.806 107.861, 42.626 109.733, 50.706 112.278 L 65.395 116.906 69.198 114.769 L 73 112.632 72.989 94.566 C 72.974 69.142, 73.316 70.316, 64.438 65.227 C 60.383 62.902, 56.681 61, 56.211 61 C 55.742 61, 52.305 68.222, 48.573 77.048 C 44.578 86.494, 41.316 92.929, 40.643 92.690 C 40.015 92.467, 39.547 91.658, 39.605 90.892 C 39.877 87.298, 47.310 54.397, 48.023 53.634 C 48.470 53.155, 49.862 53.490, 51.138 54.384 C 52.407 55.273, 53.712 56, 54.038 56 C 54.569 56, 58.452 47.248, 59.203 44.359 C 59.366 43.732, 57.081 40.020, 54.124 36.109 C 48.989 29.318, 48.564 29, 44.624 28.995 C 42.356 28.993, 35.507 28.703, 29.404 28.351 L 18.307 27.712 17.598 64.606 M 53 29.826 C 53 30.005, 55.005 32.758, 57.456 35.942 L 61.911 41.733 68.706 42.349 C 72.443 42.689, 80.450 43.241, 86.500 43.577 L 97.500 44.187 99.750 40.145 C 102.271 35.617, 102.565 33.467, 100.812 32.384 C 99.658 31.670, 52.999 29.174, 53 29.826 M 102.225 41.011 C 100.381 43.964, 100.730 45, 103.567 45 C 105.765 45, 106.037 44.676, 105.455 42.750 C 104.418 39.317, 103.569 38.860, 102.225 41.011 M 65 45.373 C 65 45.577, 67.250 48.560, 70 52 C 74.531 57.668, 75.001 58.735, 75.006 63.377 C 75.012 68.067, 75.277 68.651, 78.142 70.281 C 79.863 71.261, 81.359 71.936, 81.466 71.781 C 83.616 68.679, 95.027 47.694, 94.727 47.394 C 93.914 46.580, 65 44.615, 65 45.373 M 59.499 51.250 C 58.554 53.587, 57.578 56.008, 57.330 56.629 C 56.976 57.516, 69.884 66, 71.588 66 C 71.815 66, 72 64.387, 72 62.416 C 72 59.666, 70.918 57.454, 67.352 52.916 C 64.796 49.662, 62.370 47, 61.961 47 C 61.552 47, 60.444 48.913, 59.499 51.250 M 96.767 50.636 C 91.933 58.413, 83.793 73.126, 84.142 73.456 C 85.236 74.494, 110.580 89, 111.298 89 C 112.747 89, 136.185 74.687, 136.584 73.559 C 136.789 72.976, 135.920 68.450, 134.652 63.500 L 132.347 54.500 123.665 54.592 C 118.890 54.642, 114.707 54.960, 114.368 55.299 C 114.030 55.637, 114.984 58.971, 116.488 62.707 C 117.992 66.443, 119.446 70.063, 119.719 70.750 C 119.991 71.438, 119.530 72, 118.695 72 C 117.717 72, 115.986 68.972, 113.838 63.504 C 110.777 55.713, 110.271 55.007, 107.750 55.004 C 106.237 55.002, 105 54.550, 105 54 C 105 53.450, 105.900 53, 107 53 C 109.051 53, 109.561 51.431, 108.205 49.297 C 107.784 48.635, 105.579 47.796, 103.305 47.433 C 99.319 46.795, 99.082 46.912, 96.767 50.636 M 111.015 48.608 C 111.069 51.765, 112.802 52.228, 121.880 51.509 C 130.872 50.798, 134.644 49, 127.147 49 C 125.027 49, 120.527 48.711, 117.147 48.358 C 113.727 48, 111.007 48.111, 111.015 48.608 M 147.500 52.252 C 140.900 52.777, 135.397 53.300, 135.271 53.416 C 134.972 53.688, 148.954 111.287, 149.436 111.769 C 150.005 112.338, 175 82.243, 175 80.988 C 175 80.377, 172.188 73.387, 168.750 65.454 C 164.505 55.659, 162.019 51.074, 161 51.165 C 160.175 51.237, 154.100 51.727, 147.500 52.252 M 47.677 65.618 C 46.701 70.358, 46.070 74.403, 46.274 74.607 C 46.478 74.811, 48.146 71.341, 49.981 66.896 C 52.742 60.210, 53.075 58.661, 51.909 57.923 C 51.134 57.432, 50.264 57.024, 49.975 57.015 C 49.687 57.007, 48.652 60.878, 47.677 65.618 M 75.530 90.750 C 75.924 101.063, 76.423 109.695, 76.640 109.933 C 78.224 111.677, 78.578 106.460, 77.710 94.140 C 76.827 81.604, 76.900 79.439, 78.287 77.092 C 79.773 74.576, 79.751 74.326, 77.951 73.202 C 76.893 72.541, 75.754 72, 75.421 72 C 75.087 72, 75.136 80.438, 75.530 90.750 M 80.813 78.386 C 79.785 80.349, 79.690 83.690, 80.375 93.698 C 80.857 100.739, 81.388 106.656, 81.555 106.846 C 81.950 107.296, 108.009 91.671, 107.972 91.006 C 107.950 90.593, 85.344 77.257, 82.855 76.188 C 82.456 76.017, 81.537 77.006, 80.813 78.386 M 125.247 84.337 C 119.611 87.722, 115 90.845, 115 91.277 C 115 93.470, 118.788 92.769, 127.440 88.975 C 135.258 85.546, 136.997 84.392, 136.985 82.641 C 136.951 77.889, 135.676 78.073, 125.247 84.337 M 128.154 91.697 L 117.807 96.351 114.501 94.570 L 111.194 92.789 96.597 101.527 L 82 110.265 82 116.077 L 82 121.889 93.601 125.510 C 99.981 127.502, 105.313 128.990, 105.450 128.816 C 105.586 128.642, 109.703 121.773, 114.599 113.550 L 123.500 98.601 123.773 116.796 L 124.045 134.991 132.795 137.655 L 141.546 140.319 149.988 151.659 C 154.631 157.897, 158.490 163, 158.563 163 C 158.829 163, 149.723 125.486, 149.355 125.071 C 149.147 124.835, 146.467 125.433, 143.400 126.400 C 140.333 127.367, 137.655 127.988, 137.448 127.781 C 137.241 127.574, 139.337 124.638, 142.106 121.257 L 147.141 115.109 143.809 101.384 C 141.976 93.835, 140.032 87.521, 139.489 87.351 C 138.945 87.182, 133.844 89.138, 128.154 91.697 M 115.576 117.221 C 112.869 121.774, 110.033 126.468, 109.276 127.652 C 107.950 129.724, 108.144 129.885, 114.513 132.004 C 118.151 133.215, 121.279 134.047, 121.463 133.853 C 121.647 133.659, 121.506 127.974, 121.149 121.221 L 120.500 108.942 115.576 117.221 M 39.061 114.250 C 39.199 119.272, 41.701 130.487, 42.645 130.307 C 44.408 129.971, 61 119.780, 61 119.033 C 61 118.409, 41.603 112, 39.713 112 C 39.321 112, 39.028 113.013, 39.061 114.250 M 77.250 113.138 C 75.482 114.923, 75.678 119.939, 77.543 120.655 C 79.570 121.433, 79.633 121.242, 79.022 116.188 C 78.603 112.730, 78.252 112.126, 77.250 113.138 M 71.143 116.907 C 70.137 117.532, 70.090 117.937, 70.960 118.475 C 72.332 119.323, 73.362 118.572, 72.854 117.095 C 72.646 116.489, 71.940 116.412, 71.143 116.907 M 146.072 120.865 C 144.907 123.042, 145.550 123.574, 147.697 122.208 C 148.421 121.748, 148.562 120.910, 148.055 120.089 C 147.397 119.024, 146.968 119.192, 146.072 120.865 M 155.684 122.319 C 152.526 123.201, 151.961 123.740, 152.411 125.443 C 152.709 126.574, 155.029 136.109, 157.565 146.632 L 162.176 165.764 170.745 163.891 C 175.459 162.861, 179.517 161.816, 179.763 161.570 C 180.570 160.763, 161.725 120.997, 160.598 121.126 C 159.994 121.196, 157.783 121.733, 155.684 122.319 M 83.585 138.399 L 84.274 151.674 80.533 162.900 C 78.476 169.074, 76.997 174.330, 77.247 174.580 C 77.743 175.076, 103 133.344, 103 132.027 C 103 131.581, 101.987 130.946, 100.750 130.615 C 99.513 130.284, 94.989 128.913, 90.698 127.568 L 82.897 125.123 83.585 138.399 M 124.147 154.817 C 124.341 164.177, 124.807 172.142, 125.182 172.516 C 125.795 173.128, 155.942 167.391, 156.842 166.491 C 157.047 166.287, 153.453 160.925, 148.857 154.577 L 140.500 143.035 134 140.989 C 130.425 139.864, 126.666 138.686, 125.647 138.372 C 123.884 137.828, 123.812 138.626, 124.147 154.817" stroke="none" fill="black" fill-rule="evenodd"/>
</svg>