<svg xmlns="http://www.w3.org/2000/svg" width="200" height="200" viewBox="0 0 200 200" version="1.1">
	<path d="M 129.005 17.128 C 129.008 17.882, 130.576 25.916, 132.490 34.980 C 135.232 47.969, 135.708 51.699, 134.735 52.590 C 134.056 53.211, 130.124 55.553, 125.998 57.793 L 118.496 61.866 106.498 52.878 C 99.899 47.934, 94.128 43.520, 93.674 43.069 C 93.220 42.617, 98.300 37.355, 104.962 31.374 L 117.076 20.500 101.288 19.885 C 74.712 18.851, 51 18.905, 51 20 C 51 20.550, 52.125 21, 53.500 21 C 54.875 21, 55.988 21.337, 55.974 21.750 C 55.960 22.163, 48.985 27.114, 40.474 32.753 C 31.963 38.392, 25 43.455, 25 44.003 C 25 45.431, 30.249 45.215, 59.500 42.584 C 77.569 40.958, 85.893 40.559, 86.789 41.277 C 88.879 42.951, 84.166 47.052, 65.500 59.802 C 56.150 66.189, 44.225 74.547, 39 78.375 C 33.775 82.204, 29.368 85.431, 29.207 85.545 C 28.717 85.893, 15.083 149.417, 15.426 149.759 C 16.135 150.468, 59.191 147.205, 59.962 146.385 C 61.194 145.072, 80.966 107.633, 80.614 107.280 C 80.447 107.114, 70.721 111.038, 59 116 C 47.279 120.962, 37.552 124.885, 37.384 124.717 C 37.216 124.550, 42.534 114.575, 49.201 102.550 L 61.322 80.688 78.661 98.252 C 88.197 107.912, 96 116.226, 96 116.727 C 96 117.228, 88.570 131.965, 79.489 149.475 C 70.409 166.985, 63.183 181.516, 63.432 181.765 C 63.681 182.014, 71.885 178.231, 81.662 173.359 L 99.440 164.500 111.470 138.265 L 123.500 112.030 123.762 147.845 L 124.025 183.660 156.222 177.287 C 173.930 173.782, 188.600 170.733, 188.821 170.512 C 189.043 170.291, 185.218 159.397, 180.323 146.305 L 171.422 122.500 163.574 122.827 C 156.271 123.131, 155.761 123.022, 156.224 121.250 C 156.498 120.203, 163.760 106.618, 172.361 91.060 C 180.962 75.502, 187.976 62.487, 187.947 62.136 C 187.918 61.786, 180.214 55.875, 170.827 49 C 161.439 42.125, 148.968 32.450, 143.113 27.500 C 128.293 14.969, 128.999 15.489, 129.005 17.128 M 46.452 32.034 C 38.228 37.514, 32.182 41.998, 33.016 41.999 C 33.850 41.999, 44.650 41.105, 57.016 40.010 C 69.382 38.916, 80.109 38.016, 80.853 38.010 C 82.041 38.001, 78.130 34.742, 64.952 24.759 L 61.404 22.070 46.452 32.034 M 75.579 29.474 C 84.491 36.188, 85.961 36.951, 90.035 36.974 C 94.232 36.998, 95.139 36.495, 102.171 30.250 L 109.772 23.500 103.636 22.867 C 100.261 22.519, 90.335 22.181, 81.579 22.117 L 65.658 22 75.579 29.474 M 133.255 25 C 133.578 26.375, 134.824 32.450, 136.024 38.500 C 137.224 44.550, 138.361 49.664, 138.550 49.864 C 138.740 50.064, 140.485 49.245, 142.429 48.044 C 147.880 44.675, 148.592 46.516, 143.972 52.034 L 139.886 56.914 145.989 86.207 C 149.346 102.318, 152.351 116.533, 152.667 117.797 C 153.122 119.621, 156.403 114.371, 168.605 92.297 C 177.056 77.008, 183.977 63.975, 183.985 63.334 C 183.993 62.692, 176.238 56.436, 166.750 49.431 C 157.262 42.426, 146.575 34.166, 143 31.075 C 132.573 22.059, 132.563 22.053, 133.255 25 M 86.924 47.594 C 85.591 49.020, 77.525 54.926, 69 60.718 C 60.475 66.510, 48.506 74.882, 42.403 79.323 L 31.305 87.397 25.004 116.717 C 21.538 132.842, 18.950 146.283, 19.252 146.585 C 19.553 146.887, 28.428 146.541, 38.972 145.817 L 58.143 144.500 66.651 128.663 C 71.331 119.953, 75.011 112.711, 74.830 112.570 C 74.648 112.429, 64.825 116.447, 53 121.500 C 41.175 126.553, 31.335 130.554, 31.132 130.392 C 30.798 130.124, 57.622 81.507, 60.039 78 C 60.879 76.782, 64.722 80.262, 80.473 96.500 L 99.872 116.500 95.569 124.500 C 84.392 145.280, 68.936 175.996, 69.675 175.959 C 70.129 175.936, 76.532 172.899, 83.903 169.209 L 97.307 162.500 110.446 134 C 118.875 115.718, 124.108 105.500, 125.043 105.500 C 126.288 105.500, 126.538 110.913, 126.762 142.750 C 126.964 171.454, 127.307 180, 128.257 180 C 128.934 180, 142.165 177.444, 157.659 174.320 L 185.829 168.640 184.054 164.070 C 183.078 161.556, 179.418 151.738, 175.921 142.250 L 169.562 125 163.031 125.015 C 159.439 125.024, 156.010 125.361, 155.410 125.765 C 154.653 126.276, 155.495 131.994, 158.166 144.500 C 160.281 154.400, 161.896 163.090, 161.756 163.811 C 161.605 164.584, 159.386 163.146, 156.352 160.311 L 151.204 155.500 146.504 119.500 C 143.919 99.700, 141.510 83.193, 141.152 82.817 C 140.793 82.442, 131.725 86.342, 121 91.484 C 102.590 100.311, 97.254 101.867, 101.152 97.274 C 101.980 96.298, 110.384 86.625, 119.829 75.778 C 129.273 64.931, 137 55.788, 137 55.460 C 137 55.132, 132.728 57.173, 127.507 59.996 L 118.015 65.129 104.838 55.064 C 97.591 49.529, 91.142 45, 90.505 45 C 89.869 45, 88.258 46.167, 86.924 47.594 M 123.565 75.589 C 115.919 84.340, 108.973 92.311, 108.129 93.302 C 106.696 94.987, 106.755 95.042, 109.048 94.151 C 110.397 93.626, 117.984 90.020, 125.908 86.137 C 133.833 82.254, 140.688 79.307, 141.143 79.588 C 142.026 80.134, 141.798 78.706, 139.154 67.089 L 137.467 59.677 123.565 75.589 M 149.090 116.500 C 149.044 117.050, 150.139 125.821, 151.522 135.990 C 153.552 150.923, 154.417 154.862, 156.018 156.463 C 157.108 157.553, 157.983 158.007, 157.961 157.472 C 157.892 155.733, 149.174 115.470, 149.090 116.500" stroke="none" fill="black" fill-rule="evenodd"/>
</svg>