<svg xmlns="http://www.w3.org/2000/svg" width="200" height="200" viewBox="0 0 200 200" version="1.1">
	<path d="M 75.908 19.909 C 64.537 25.301, 55.410 28.993, 52.408 29.413 C 42.717 30.771, 41 31.242, 41 32.542 C 41 33.267, 42.006 34.005, 43.236 34.180 C 44.798 34.404, 42.084 36.075, 34.236 39.721 C 28.056 42.593, 23 45.449, 23 46.069 C 23 47.731, 19.106 87.955, 18.578 91.750 L 18.126 95 47.813 95.015 C 64.141 95.024, 78.137 95.434, 78.916 95.927 C 79.939 96.574, 75.557 99.213, 63.123 105.438 C 45.039 114.492, 42.765 116.717, 52.637 115.698 C 55.587 115.394, 58 115.462, 58 115.851 C 58 116.240, 55.148 125.095, 51.661 135.529 L 45.322 154.500 44.628 172.370 C 44.070 186.725, 44.186 190.137, 45.217 189.721 C 45.923 189.436, 60.561 183.307, 77.746 176.101 C 94.932 168.895, 109.414 163, 109.930 163 C 110.445 163, 121.663 169.300, 134.859 177 C 148.055 184.700, 159.032 191, 159.253 191 C 159.474 191, 156.272 175.291, 152.138 156.091 L 144.621 121.181 149.561 115.205 C 152.277 111.918, 157.823 105.338, 161.885 100.583 C 165.947 95.827, 169.097 91.766, 168.885 91.558 C 168.673 91.350, 159.991 90.125, 149.591 88.835 L 130.682 86.490 149.237 72.995 C 161.629 63.982, 167.182 59.396, 165.955 59.188 C 164.266 58.901, 118.877 62.217, 105.895 63.576 L 100.290 64.163 100.771 56.331 C 101.036 52.024, 101.367 48.366, 101.508 48.201 C 101.649 48.037, 106.205 49.051, 111.632 50.455 L 121.500 53.008 146.270 49.800 C 159.894 48.036, 171.590 46.253, 172.262 45.838 C 175.069 44.103, 170.524 43.172, 151 41.480 C 139.725 40.503, 129.943 39.418, 129.262 39.069 C 128.438 38.647, 130.217 35.938, 134.583 30.967 C 138.191 26.860, 141.448 23.392, 141.821 23.259 C 142.194 23.126, 153.975 25.180, 168 27.823 C 185.225 31.069, 193.730 32.285, 194.209 31.571 C 195.214 30.074, 194.188 29.816, 167.874 24.933 L 144.249 20.550 145.839 18.123 L 147.429 15.697 143.964 16.298 C 133.161 18.172, 131.155 18.085, 115 15.045 C 105.925 13.336, 97.600 11.748, 96.500 11.516 C 95.349 11.272, 86.609 14.834, 75.908 19.909 M 81.500 20.440 C 74.350 23.954, 68.950 26.851, 69.500 26.878 C 70.797 26.941, 122.696 19.238, 121.884 19.103 C 121.545 19.046, 115.297 17.875, 108 16.500 C 100.703 15.125, 94.680 14.012, 94.616 14.026 C 94.552 14.041, 88.650 16.927, 81.500 20.440 M 116.312 22.957 C 109.608 23.974, 103.646 25.101, 103.062 25.462 C 102.478 25.823, 102 28.521, 102 31.458 L 102 36.797 109.250 37.440 C 113.237 37.793, 118.101 38.314, 120.058 38.597 C 123.457 39.088, 123.940 38.751, 130.929 31.010 C 134.952 26.555, 137.986 22.653, 137.671 22.338 C 136.319 20.986, 127.649 21.237, 116.312 22.957 M 75.824 28.867 C 66.103 30.315, 57.890 31.763, 57.574 32.084 C 57.257 32.405, 63.411 33.216, 71.249 33.886 C 79.087 34.555, 87.761 35.355, 90.524 35.663 L 95.547 36.222 97.182 31.111 L 98.816 26 96.158 26.117 C 94.696 26.182, 85.546 27.419, 75.824 28.867 M 38.500 40.646 C 31.900 43.742, 26.351 46.400, 26.169 46.552 C 25.672 46.968, 21.230 91.404, 21.615 92.112 C 21.798 92.449, 34.447 92.504, 49.724 92.235 C 77.087 91.752, 77.556 91.778, 81.250 93.971 C 83.313 95.196, 85 96.503, 85 96.877 C 85 97.251, 78.661 100.694, 70.913 104.529 C 63.165 108.363, 56.663 111.756, 56.465 112.069 C 56.268 112.382, 57.432 112.443, 59.053 112.206 C 60.674 111.968, 62 111.949, 62 112.163 C 62 112.378, 58.885 121.874, 55.078 133.266 L 48.156 153.979 47.438 170.012 C 46.834 183.499, 46.940 185.959, 48.110 185.507 C 48.874 185.212, 58.950 181.001, 70.500 176.150 L 91.500 167.330 92.561 149.915 C 93.145 140.337, 93.456 132.162, 93.252 131.750 C 93.049 131.338, 90.046 131, 86.581 131 C 68.387 131, 65.613 127.904, 82.054 125.949 C 88.134 125.226, 93.323 124.287, 93.585 123.862 C 94.009 123.176, 95.985 95.744, 95.639 95.336 C 95.563 95.245, 85.375 92.865, 73 90.047 C 60.625 87.228, 49.738 84.693, 48.807 84.412 C 47.522 84.024, 49.207 81.961, 55.807 75.839 C 66.296 66.110, 69.417 60.238, 71.040 47.176 C 71.629 42.434, 72.296 38.371, 72.522 38.145 C 72.747 37.919, 77.478 38.875, 83.035 40.268 C 91.559 42.406, 93.225 42.576, 93.693 41.358 C 93.998 40.564, 94.005 39.672, 93.710 39.377 C 93.181 38.848, 57.869 35.086, 53 35.040 C 51.625 35.027, 45.100 37.550, 38.500 40.646 M 97 39.918 C 97 40.423, 96.727 41.548, 96.393 42.418 C 95.995 43.456, 96.338 44, 97.393 44 C 98.440 44, 99 43.130, 99 41.500 C 99 40.125, 98.550 39, 98 39 C 97.450 39, 97 39.413, 97 39.918 M 101.787 42.332 C 101.326 44.747, 101.667 44.920, 111.905 47.490 L 122.500 50.150 140.201 47.859 C 149.936 46.599, 157.741 45.408, 157.545 45.212 C 157.008 44.675, 127.804 41.934, 125.500 42.204 C 124.400 42.333, 123.050 42.169, 122.500 41.839 C 121.950 41.509, 117.172 40.923, 111.883 40.537 L 102.265 39.833 101.787 42.332 M 73.601 48.442 C 72.591 59.589, 68.668 67.398, 59.855 75.802 L 52.735 82.591 73.938 87.392 C 85.600 90.032, 95.317 92.017, 95.531 91.802 C 95.745 91.588, 96.235 85.854, 96.619 79.059 L 97.317 66.706 91.199 67.398 L 85.081 68.090 86.507 63.295 C 87.291 60.658, 88.848 55.842, 89.966 52.593 C 91.085 49.345, 92 46.363, 92 45.966 C 92 45.413, 76.605 41, 74.674 41 C 74.455 41, 73.972 44.349, 73.601 48.442 M 92.065 55.285 C 90.391 60.274, 89.182 64.516, 89.378 64.711 C 89.573 64.906, 91.561 64.774, 93.796 64.417 L 97.860 63.767 98.180 55.432 C 98.455 48.269, 98.262 47.035, 96.803 46.656 C 95.445 46.303, 94.500 48.023, 92.065 55.285 M 128.272 64.440 C 113.296 65.641, 100.836 66.830, 100.583 67.084 C 100.329 67.337, 99.806 73.238, 99.419 80.196 L 98.716 92.847 102.608 93.884 C 104.749 94.455, 111 95.892, 116.500 97.077 C 122 98.262, 126.886 99.588, 127.358 100.023 C 128.571 101.144, 110.293 124.687, 107.662 125.393 C 106.473 125.712, 104.299 125.979, 102.832 125.986 C 99.532 126.003, 97 126.924, 97 128.107 C 97 128.598, 99.475 129, 102.500 129 C 105.525 129, 108 129.442, 108 129.982 C 108 130.523, 106.279 133.785, 104.176 137.232 C 101.551 141.536, 99.514 146.859, 97.676 154.220 C 96.204 160.115, 95 165.158, 95 165.425 C 95 165.692, 98.125 164.581, 101.945 162.955 C 105.765 161.330, 109.407 160, 110.039 160 C 110.973 160, 139.471 176.142, 152.750 184.193 C 154.919 185.508, 155.851 185.720, 155.552 184.831 C 154.255 180.978, 141.939 121.588, 142.197 120.432 C 142.363 119.684, 147.338 113.444, 153.250 106.566 C 159.162 99.688, 164 93.888, 164 93.677 C 164 93.467, 155.225 92.239, 144.500 90.949 C 133.775 89.659, 125 88.317, 125 87.967 C 125 87.616, 131.863 82.326, 140.250 76.211 C 148.637 70.096, 156.400 64.411, 157.500 63.578 L 159.500 62.064 157.500 62.160 C 156.400 62.213, 143.247 63.239, 128.272 64.440 M 97.623 109.565 C 97.245 117.102, 97.089 123.423, 97.277 123.610 C 97.464 123.798, 99.988 123.670, 102.885 123.327 L 108.151 122.703 115.576 112.900 C 119.659 107.508, 123 102.699, 123 102.214 C 123 101.728, 118.388 100.319, 112.750 99.082 C 107.112 97.845, 101.558 96.614, 100.406 96.347 C 98.383 95.878, 98.288 96.328, 97.623 109.565 M 91.500 128 C 91.160 128.550, 91.584 129, 92.441 129 C 93.298 129, 94 128.550, 94 128 C 94 127.450, 93.577 127, 93.059 127 C 92.541 127, 91.840 127.450, 91.500 128 M 96 138.375 C 96 141.881, 95.780 146.269, 95.512 148.125 C 95.111 150.892, 95.285 150.689, 96.480 147 C 98.016 142.252, 98.280 141.703, 101.890 135.750 L 104.163 132 100.082 132 L 96 132 96 138.375" stroke="none" fill="black" fill-rule="evenodd"/>
</svg>