<svg xmlns="http://www.w3.org/2000/svg" width="200" height="200" viewBox="0 0 200 200" version="1.1">
	<path d="M 107.677 26.284 L 102.854 38.563 76.238 31.804 C 61.599 28.087, 49.538 25.147, 49.437 25.273 C 49.335 25.398, 47.123 35.625, 44.521 48 L 39.790 70.500 40.412 90.500 C 41.654 130.415, 42.040 135, 44.154 135 C 45.579 135, 45.925 135.549, 45.574 137.250 C 45.318 138.488, 44.845 141.549, 44.523 144.054 L 43.936 148.608 30.218 150.919 C 22.673 152.190, 15.948 153.528, 15.272 153.892 C 14.573 154.269, 20.341 157.693, 28.671 161.847 C 39.311 167.152, 43.504 168.803, 44.059 167.905 C 44.478 167.227, 45.131 163.168, 45.510 158.886 L 46.199 151.100 51.623 149.975 C 54.605 149.355, 57.442 148.995, 57.925 149.174 C 58.408 149.353, 57.087 153.775, 54.990 159 C 52.612 164.921, 51.526 168.865, 52.106 169.468 C 52.694 170.080, 58.167 165.316, 66.983 156.517 C 74.654 148.861, 80.790 142.457, 80.619 142.286 C 80.448 142.115, 76.783 142.649, 72.474 143.474 C 68.165 144.298, 64.437 144.770, 64.189 144.522 C 63.731 144.064, 67.807 133.092, 68.921 131.785 C 69.706 130.863, 93.539 127.030, 97.555 127.180 C 99.235 127.242, 102.875 126.750, 105.644 126.085 C 110.461 124.930, 111.074 125.035, 119.768 128.515 L 128.857 132.153 129.464 138.826 C 129.798 142.497, 130.273 146.760, 130.521 148.300 C 131.084 151.808, 131.482 152.049, 116.230 139.668 C 109.481 134.189, 103.768 129.898, 103.535 130.132 C 103.301 130.365, 103.494 135.719, 103.963 142.028 C 104.433 148.338, 104.637 153.683, 104.418 153.907 C 104.199 154.130, 98.953 152.378, 92.760 150.013 C 86.567 147.648, 80.938 145.505, 80.250 145.250 C 79.563 144.995, 79 145.445, 79 146.251 C 79 147.212, 83.650 149.486, 92.509 152.858 C 99.939 155.686, 106.459 158, 106.997 158 C 107.889 158, 107.648 148.456, 106.523 139.250 C 106.304 137.463, 106.393 136, 106.720 136 C 107.047 136, 113.160 140.734, 120.304 146.520 C 127.448 152.306, 133.452 156.881, 133.646 156.687 C 133.840 156.493, 133.512 151.497, 132.917 145.583 C 132.322 139.670, 132.079 134.587, 132.379 134.288 C 132.910 133.757, 148.762 139.670, 150.252 140.955 C 150.666 141.312, 144.122 152.381, 135.710 165.552 C 127.298 178.723, 120.050 190.096, 119.603 190.824 C 119.122 191.608, 120.566 191.250, 123.145 189.946 C 129.908 186.528, 174.245 162.884, 176.592 161.444 L 178.684 160.161 173.754 134.830 C 171.042 120.899, 168.710 109.385, 168.572 109.244 C 168.434 109.103, 160.424 110.790, 150.773 112.994 C 141.121 115.197, 132.499 117, 131.612 117 C 130.391 117, 130 116.005, 130 112.899 L 130 108.799 142.470 109.518 L 154.940 110.237 167.220 102.480 C 181.776 93.286, 180.606 94.206, 179.342 92.942 C 178.643 92.243, 170.650 93.257, 154.169 96.135 C 140.887 98.455, 129.771 100.104, 129.467 99.800 C 129.163 99.496, 128.638 97.546, 128.301 95.466 C 127.731 91.956, 127.843 91.726, 129.854 92.252 C 131.682 92.730, 134.234 90.212, 146.170 76.159 C 153.952 66.997, 161.134 58.585, 162.130 57.467 C 163.923 55.454, 163.736 55.324, 143.461 44.467 L 122.980 33.500 117.946 23.750 C 115.178 18.387, 112.819 14.001, 112.706 14.003 C 112.593 14.004, 110.330 19.531, 107.677 26.284 M 111.252 25 C 107.999 32.582, 105.691 39.028, 106.106 39.372 C 106.323 39.552, 112.350 41.139, 119.500 42.898 C 139.424 47.802, 140 47.985, 140 49.415 C 140 50.291, 136.628 51.515, 130.250 52.956 C 111.643 57.161, 113.410 56.165, 112.298 63.070 C 111.352 68.944, 111.388 69.120, 113.411 68.624 C 114.560 68.342, 117.818 67.810, 120.651 67.440 L 125.801 66.769 126.474 75.634 C 127.217 85.434, 128.078 89.193, 129.705 89.735 C 130.299 89.933, 137.206 82.583, 145.054 73.402 C 158.497 57.676, 159.212 56.628, 157.412 55.309 C 156.360 54.539, 147.693 49.767, 138.152 44.704 L 120.803 35.500 116.993 28 L 113.183 20.500 111.252 25 M 47.050 49.494 L 42.754 69.988 43.494 98.608 C 43.901 114.350, 44.561 128.415, 44.961 129.865 L 45.688 132.500 46.280 129.500 C 46.605 127.850, 47.153 124.362, 47.497 121.750 C 47.925 118.498, 48.591 117, 49.607 117 C 51.125 117, 51.126 116.966, 49.502 127.250 C 48.816 131.593, 48.407 131.484, 59.199 129.841 L 66.898 128.670 70.992 118.585 L 75.087 108.500 71.831 105.750 L 68.576 103 72.823 103 C 76.918 103, 77.142 102.834, 79.039 98.410 C 80.121 95.885, 80.803 93.490, 80.554 93.088 C 80.305 92.685, 76.929 91.111, 73.051 89.590 C 62.683 85.522, 63.450 83.782, 75.250 84.606 L 84.500 85.252 86.185 80.673 C 87.851 76.145, 87.845 76.086, 85.685 75.390 C 83.595 74.717, 83.624 74.645, 86.333 73.732 C 88.338 73.057, 89.727 71.470, 91.083 68.306 C 93.721 62.151, 93.591 61.667, 89.500 62.434 C 84.230 63.423, 85.069 61.061, 91.268 57.459 C 95.903 54.765, 96.799 53.680, 99.115 47.959 C 100.554 44.407, 101.679 41.425, 101.615 41.334 C 101.333 40.927, 54.157 29, 52.830 29 C 51.705 29, 50.304 33.966, 47.050 49.494 M 102.547 46.515 C 101.580 49.049, 100.962 51.295, 101.175 51.508 C 101.387 51.720, 104.442 50.271, 107.963 48.287 C 114.774 44.448, 114.748 44.186, 107.403 42.584 C 104.448 41.939, 104.226 42.119, 102.547 46.515 M 114.595 49.134 C 114.231 51.407, 114.066 53.399, 114.227 53.560 C 114.388 53.722, 118.790 52.863, 124.009 51.652 L 133.497 49.450 125.378 47.225 C 120.913 46.001, 116.809 45, 116.258 45 C 115.706 45, 114.958 46.860, 114.595 49.134 M 104.737 53.180 C 101.567 54.900, 99.170 56.503, 99.409 56.743 C 99.649 56.982, 102.314 56.626, 105.332 55.950 C 109.839 54.942, 110.901 54.300, 111.271 52.361 C 111.840 49.386, 111.696 49.404, 104.737 53.180 M 103 59.207 C 100.525 59.752, 97.970 60.632, 97.323 61.161 C 96.006 62.238, 92.763 71.097, 93.439 71.772 C 94.009 72.342, 107.990 69.834, 108.431 69.082 C 108.618 68.762, 109.090 66.138, 109.480 63.250 C 110.268 57.406, 110.502 57.552, 103 59.207 M 115.646 70.975 C 111.076 71.857, 110.427 72.726, 109.582 79.092 C 108.948 83.874, 108.910 83.916, 106.220 82.877 C 95.764 78.840, 90.668 77.010, 90.509 77.237 C 90.408 77.382, 89.581 79.412, 88.671 81.750 C 87.111 85.757, 87.116 86, 88.758 86.004 C 89.716 86.006, 97.700 86.676, 106.500 87.492 C 115.300 88.308, 123.090 88.982, 123.811 88.988 C 124.828 88.997, 124.983 87.379, 124.504 81.750 C 123.411 68.916, 123.807 69.398, 115.646 70.975 M 98 74.217 L 93.500 75.219 99.965 77.561 C 103.520 78.850, 106.493 79.813, 106.571 79.702 C 106.649 79.591, 106.991 78.037, 107.331 76.250 C 107.910 73.211, 107.773 73.007, 105.225 73.107 C 103.726 73.166, 100.475 73.665, 98 74.217 M 78.500 89 C 81.263 90.187, 83 90.187, 83 89 C 83 88.450, 81.537 88.032, 79.750 88.070 C 77.026 88.129, 76.824 88.280, 78.500 89 M 85.504 89.851 C 85.201 90.640, 85.076 91.399, 85.226 91.537 C 85.377 91.676, 91.575 94.341, 99 97.460 C 111.554 102.734, 112.879 103.085, 117.907 102.474 C 120.880 102.113, 123.918 101.585, 124.657 101.301 C 126.125 100.738, 126.460 95.273, 125.153 93.213 C 124.603 92.347, 118.069 91.351, 105.195 90.170 C 88.651 88.653, 85.980 88.610, 85.504 89.851 M 82.087 98.284 L 80.286 102.500 82.893 103.147 C 85.741 103.853, 109.516 105.165, 108.887 104.582 C 108.674 104.384, 102.963 101.937, 96.194 99.145 L 83.889 94.068 82.087 98.284 M 148.750 99.789 C 136.118 102.053, 129 103.758, 129 104.520 C 129 105.818, 138.268 106.981, 148.717 106.993 C 154.482 106.999, 155.517 106.630, 162.967 101.900 C 167.385 99.095, 171 96.620, 171 96.400 C 171 95.819, 170.394 95.911, 148.750 99.789 M 121 105 C 119.887 105.720, 120.481 105.973, 123.309 105.985 C 125.597 105.994, 126.871 105.601, 126.500 105 C 125.719 103.736, 122.956 103.736, 121 105 M 78.610 106.822 C 78.330 107.274, 82.395 111.212, 87.642 115.572 C 95.719 122.283, 97.667 123.455, 100.341 123.206 C 105.417 122.734, 120.181 120.124, 124.152 118.996 C 127.747 117.976, 127.796 117.894, 127.265 113.730 C 126.968 111.404, 126.545 109.296, 126.326 109.047 C 126.106 108.797, 116.381 108.037, 104.713 107.356 C 78.314 105.816, 79.220 105.834, 78.610 106.822 M 76.090 113.250 C 75.617 114.487, 74.062 118.367, 72.636 121.871 L 70.042 128.242 72.812 127.688 C 74.336 127.383, 79.515 126.583, 84.323 125.911 C 89.130 125.238, 92.936 124.372, 92.781 123.986 C 92.385 122.996, 78.341 111, 77.578 111 C 77.233 111, 76.563 112.013, 76.090 113.250 M 148.204 116.345 L 130.907 120.343 131.204 125.311 L 131.500 130.279 143 134.969 C 149.451 137.599, 154.389 140.177, 154.246 140.840 C 154.107 141.489, 147.902 151.524, 140.458 163.139 C 133.014 174.753, 127.053 184.355, 127.212 184.476 C 127.842 184.955, 173.559 159.970, 174.395 158.689 C 175.290 157.317, 167.513 114.115, 166.156 112.924 C 165.795 112.607, 157.717 114.146, 148.204 116.345 M 121.750 122.226 C 119.138 122.771, 117.001 123.505, 117.002 123.858 C 117.004 124.477, 128.193 129.201, 128.544 128.731 C 129.005 128.113, 127.697 121.015, 127.141 121.118 C 126.788 121.183, 124.362 121.682, 121.750 122.226 M 55.046 133.138 C 52.046 133.635, 49.290 134.531, 48.921 135.128 C 48.148 136.378, 46.769 147.102, 47.311 147.644 C 47.510 147.843, 50.538 147.426, 54.040 146.717 L 60.408 145.429 62.704 139.501 C 63.967 136.240, 65 133.219, 65 132.786 C 65 131.838, 62.313 131.933, 55.046 133.138 M 66.818 147.214 C 62.225 148.173, 62.086 148.315, 59.523 154.718 C 58.086 158.307, 57.067 161.401, 57.259 161.592 C 57.450 161.783, 61.172 158.353, 65.530 153.970 C 69.888 149.586, 73.014 146.053, 72.477 146.118 C 71.939 146.183, 69.393 146.676, 66.818 147.214 M 29.548 153.764 L 21.595 155.278 31.402 160.201 C 36.796 162.909, 41.382 164.951, 41.594 164.739 C 41.806 164.527, 42.360 161.574, 42.824 158.177 L 43.669 152 40.584 152.125 C 38.888 152.194, 33.921 152.932, 29.548 153.764" stroke="none" fill="black" fill-rule="evenodd"/>
</svg>