<svg xmlns="http://www.w3.org/2000/svg" width="200" height="200" viewBox="0 0 200 200" version="1.1">
	<path d="M 43.605 23.750 C 43.300 25.262, 41.649 33.925, 39.937 43 C 37.725 54.724, 35.691 62.223, 32.912 68.908 C 30.760 74.082, 29 78.704, 29 79.179 C 29 79.654, 33.033 89.881, 37.961 101.905 L 46.922 123.768 36.539 154.884 C 30.828 171.998, 26.356 186, 26.602 186 C 26.847 186, 35.514 182.249, 45.860 177.665 C 61.982 170.522, 65.942 168.308, 73.553 162.183 C 78.438 158.251, 82.732 155.365, 83.095 155.767 C 83.458 156.170, 85.656 160.775, 87.979 166 C 92.798 176.840, 92.705 176.695, 94.003 175.397 C 94.630 174.770, 94.378 170.115, 93.290 162.244 C 92.364 155.543, 91.807 149.868, 92.053 149.634 C 92.299 149.399, 103.075 149.819, 116 150.568 C 128.925 151.316, 141.300 151.962, 143.500 152.002 L 147.500 152.076 135.250 164.006 C 123.754 175.200, 121.514 178, 124.049 178 C 125.046 178, 180.080 157.253, 180.684 156.650 C 181.157 156.176, 173.865 118.558, 173.152 117.797 C 172.790 117.410, 159.267 119.107, 143.102 121.569 C 126.937 124.031, 113.476 125.810, 113.189 125.522 C 112.902 125.235, 113.406 125, 114.309 125 C 115.212 125, 126.890 116.934, 140.259 107.077 L 164.568 89.153 166.887 72.449 C 168.640 59.825, 168.918 55.567, 168.025 55.015 C 167.375 54.613, 158.101 52.348, 147.416 49.981 C 136.731 47.614, 128.121 45.546, 128.282 45.384 C 128.444 45.223, 138.459 44.341, 150.538 43.424 C 170.944 41.876, 176.241 40.789, 172.705 38.878 C 172.042 38.519, 160.128 34.576, 146.228 30.113 L 120.956 22 96.537 22 C 83.107 22, 71.917 22.337, 71.670 22.750 C 71.424 23.163, 71.815 27.770, 72.539 32.989 C 73.263 38.208, 73.701 42.632, 73.513 42.820 C 72.716 43.618, 67.795 40.067, 56.901 30.832 C 50.521 25.424, 45.045 21, 44.730 21 C 44.416 21, 43.910 22.238, 43.605 23.750 M 74.444 27.250 C 74.710 28.488, 75.412 32.856, 76.005 36.958 C 76.598 41.060, 77.209 44.542, 77.364 44.697 C 77.518 44.851, 84.137 47.964, 92.072 51.613 C 100.007 55.262, 106.695 58.425, 106.933 58.641 C 107.172 58.857, 106.914 59.486, 106.361 60.039 C 105.687 60.713, 103.133 60.208, 98.613 58.506 L 91.871 55.969 85.869 60.684 L 79.867 65.399 80.548 70.450 C 80.922 73.227, 81.429 75.838, 81.673 76.250 C 81.918 76.662, 88.418 77, 96.118 77 C 104.504 77, 109.887 76.627, 109.543 76.069 C 108.405 74.228, 111.329 73.729, 112.652 75.538 C 115.985 80.097, 115.093 80.349, 97.892 79.710 L 81.783 79.110 82.451 84.805 C 82.818 87.937, 83.342 91.272, 83.616 92.215 C 84.162 94.102, 84.360 94.148, 104 96.985 C 117.717 98.967, 132.802 103.256, 130 104.377 C 129.175 104.707, 119.351 107.419, 108.170 110.402 C 96.988 113.386, 87.644 116.022, 87.406 116.260 C 87.168 116.498, 87.708 118.450, 88.606 120.596 C 89.503 122.743, 90.605 125.465, 91.054 126.645 L 91.870 128.789 103.450 125.452 C 109.819 123.617, 116.486 121.091, 118.265 119.839 C 122.594 116.794, 160.307 88.941, 161.216 88.117 C 162.031 87.378, 166.316 57.983, 165.699 57.366 C 165.477 57.144, 155.442 54.720, 143.398 51.979 C 131.354 49.238, 120.487 46.762, 119.250 46.478 C 115.997 45.732, 116.378 43.018, 119.750 42.919 C 121.263 42.875, 132.175 42.073, 144 41.138 L 165.500 39.436 143.341 32.218 L 121.182 25 97.572 25 L 73.962 25 74.444 27.250 M 45.992 26.250 C 45.988 26.387, 44.451 34.375, 42.577 44 C 40.207 56.171, 38.078 64.039, 35.585 69.839 C 33.613 74.425, 32 78.623, 32 79.168 C 32 79.713, 36.033 89.970, 40.962 101.962 L 49.924 123.766 40.478 152.066 C 35.283 167.630, 31.170 180.503, 31.338 180.672 C 31.507 180.840, 38.812 177.782, 47.573 173.875 C 60.401 168.155, 65.203 165.415, 72.250 159.798 C 77.063 155.962, 80.992 152.300, 80.982 151.661 C 80.971 151.023, 79.413 147.125, 77.518 143 L 74.073 135.500 80.374 135.208 L 86.674 134.916 85.341 125.708 C 84.069 116.918, 83.764 114.629, 82.187 102.003 L 81.500 96.506 73.690 95.316 C 64.187 93.869, 63.882 93.770, 64.782 92.437 C 65.288 91.687, 67.805 91.700, 73.322 92.480 L 81.145 93.586 80.639 90.543 C 80.360 88.869, 79.840 85.603, 79.484 83.284 L 78.836 79.068 68.751 78.784 L 58.667 78.500 67.012 72 C 71.602 68.425, 75.720 65.253, 76.161 64.952 C 76.603 64.650, 76.436 60.453, 75.790 55.624 L 74.615 46.844 70.596 44.794 C 68.385 43.666, 62.226 38.976, 56.908 34.372 C 48.459 27.055, 46.023 25.243, 45.992 26.250 M 78.058 51.233 C 78.089 53.030, 78.427 56.245, 78.808 58.377 L 79.500 62.255 84.952 57.945 C 88.579 55.077, 89.918 53.481, 88.952 53.177 C 88.153 52.926, 85.362 51.650, 82.750 50.343 L 78 47.966 78.058 51.233 M 71.950 71.635 C 65.068 77.056, 65.070 77, 71.800 77 L 78 77 78 73.059 C 78 70.891, 77.640 68.896, 77.200 68.624 C 76.761 68.352, 74.398 69.707, 71.950 71.635 M 84.295 98.326 C 84.575 99.055, 85.125 102.655, 85.518 106.326 C 85.911 109.997, 86.626 113, 87.106 113 C 88.244 113, 121.309 104.024, 121.733 103.600 C 122.443 102.890, 112.790 100.869, 99.695 98.986 C 83.318 96.630, 83.650 96.644, 84.295 98.326 M 132.264 125.922 C 111.784 129.066, 94.722 131.945, 94.347 132.319 C 92.583 134.083, 96.590 134.225, 117.737 133.148 C 146.908 131.662, 150.277 131.670, 149.759 133.224 C 149.517 133.948, 144.676 135.158, 137.925 136.182 C 131.641 137.135, 119.349 138.994, 110.608 140.313 L 94.717 142.710 93.639 139.855 C 93.046 138.285, 91.928 137, 91.153 137 C 90.061 137, 89.894 137.934, 90.409 141.155 C 90.774 143.440, 91.262 145.615, 91.492 145.988 C 91.723 146.361, 104.644 147.262, 120.206 147.989 C 135.768 148.717, 149.561 149.595, 150.857 149.940 C 153.016 150.515, 152.231 151.514, 141.547 161.784 C 135.131 167.953, 130.020 172.999, 130.190 172.998 C 130.721 172.995, 177.200 155.134, 177.525 154.808 C 177.802 154.530, 172.852 127.727, 171.512 122.250 C 171.210 121.013, 170.633 120.046, 170.231 120.102 C 169.829 120.159, 152.744 122.777, 132.264 125.922 M 89.500 134 C 89.840 134.550, 90.316 135, 90.559 135 C 90.802 135, 91 134.550, 91 134 C 91 133.450, 90.523 133, 89.941 133 C 89.359 133, 89.160 133.450, 89.500 134 M 101.750 136.739 C 98.588 136.937, 96 137.501, 96 137.991 C 96 139.638, 97.458 139.631, 107.500 137.939 C 117.702 136.219, 115.928 135.849, 101.750 136.739 M 80.747 143.750 C 82.246 146.912, 83.547 149.644, 83.639 149.819 C 83.730 149.995, 84.749 149.549, 85.903 148.829 C 88.023 147.504, 88.526 144.565, 87.370 140.250 C 86.861 138.352, 86.083 138, 82.394 138 L 78.022 138 80.747 143.750 M 86.868 151.658 C 85.377 153.365, 85.466 153.940, 88.080 159.500 L 90.900 165.500 90.332 161 C 90.020 158.525, 89.474 154.996, 89.120 153.158 C 88.507 149.977, 88.399 149.905, 86.868 151.658" stroke="none" fill="black" fill-rule="evenodd"/>
</svg>