<svg xmlns="http://www.w3.org/2000/svg" width="200" height="200" viewBox="0 0 200 200" version="1.1">
	<path d="M 106.548 17.922 C 106.286 18.790, 104.919 24.873, 103.512 31.441 C 102.104 38.008, 100.850 43.470, 100.726 43.578 C 100.213 44.024, 77.536 48.869, 77.258 48.592 C 77.093 48.426, 79.698 41.882, 83.049 34.049 C 86.399 26.216, 88.997 19.666, 88.820 19.494 C 88.644 19.321, 80.175 22.647, 70 26.884 C 59.825 31.121, 43.295 37.943, 33.267 42.044 C 23.238 46.145, 15.026 49.749, 15.017 50.053 C 15.007 50.358, 23.438 53.226, 33.750 56.428 C 44.063 59.630, 53.086 62.563, 53.803 62.945 C 54.636 63.388, 49.490 67.368, 39.553 73.965 C 30.999 79.644, 24 84.672, 24 85.139 C 24 85.605, 29.440 94.834, 36.090 105.646 C 42.739 116.459, 48.385 125.840, 48.636 126.493 C 48.887 127.147, 43.850 140.466, 37.444 156.091 C 31.038 171.716, 25.381 185.572, 24.873 186.882 L 23.949 189.263 26.711 187.454 C 28.230 186.459, 40.009 178.067, 52.887 168.806 C 65.764 159.545, 76.420 152.087, 76.565 152.234 C 76.711 152.380, 75.537 158.125, 73.957 165 C 70.616 179.534, 70.566 180, 72.343 180 C 74.613 180, 92 157.006, 92 154.004 C 92 151.768, 92.908 150.934, 97.986 148.507 L 103.971 145.646 126.010 149.001 C 138.131 150.847, 147.924 152.614, 147.774 152.928 C 147.623 153.243, 142.325 158.446, 136 164.491 C 124.875 175.124, 122.542 178, 125.041 178 C 126.353 178, 177.981 155.110, 179.367 153.914 C 180.147 153.241, 173.716 117.383, 172.619 116.285 C 172.271 115.938, 129.922 121.844, 106.500 125.507 C 102.830 126.081, 99.538 127.447, 141.930 110.806 C 161.417 103.157, 177.985 96.548, 178.749 96.120 C 179.740 95.566, 175.114 91.202, 162.643 80.922 C 149.625 70.191, 145.576 66.343, 146.824 65.887 C 147.746 65.549, 153.074 64.475, 158.664 63.499 C 164.254 62.523, 169.359 61.396, 170.009 60.994 C 170.837 60.483, 169.138 56.254, 164.346 46.897 L 157.500 33.531 132.263 24.937 C 111.147 17.747, 106.948 16.601, 106.548 17.922 M 108.603 21.750 C 107.501 25.376, 103.948 42.281, 104.228 42.562 C 104.390 42.723, 108.112 42.020, 112.500 41 C 116.888 39.980, 120.661 39.328, 120.884 39.551 C 121.107 39.774, 119.215 45.029, 116.678 51.228 L 112.067 62.500 113.516 72 C 114.312 77.225, 114.972 82.057, 114.982 82.738 C 114.992 83.452, 112.782 82.579, 109.750 80.671 C 106.862 78.853, 102.859 76.376, 100.854 75.166 L 97.208 72.966 95.610 80.233 C 94.732 84.230, 93.728 88.962, 93.381 90.750 L 92.750 94 101.625 93.991 C 110.224 93.983, 110.912 94.161, 123.741 99.707 C 131.024 102.855, 136.424 105.719, 135.741 106.072 C 135.058 106.425, 124.071 108.219, 111.323 110.059 L 88.147 113.404 87.515 116.773 C 87.167 118.626, 86.684 120.673, 86.441 121.321 C 86.198 121.969, 87.493 123.515, 89.318 124.755 L 92.638 127.010 115.569 118.129 C 128.181 113.245, 146.689 106.020, 156.697 102.074 L 174.895 94.900 171.197 91.654 C 169.164 89.868, 160.999 83.030, 153.053 76.456 L 138.606 64.504 152.553 61.800 C 160.224 60.313, 166.616 59.074, 166.758 59.048 C 166.900 59.022, 164.389 53.760, 161.177 47.355 L 155.338 35.709 132.419 27.859 C 119.814 23.542, 109.418 20.007, 109.317 20.004 C 109.217 20.002, 108.895 20.788, 108.603 21.750 M 52.593 37.040 L 21.687 49.796 36.593 54.457 C 59.084 61.490, 61 62.127, 61 62.572 C 61 62.798, 53.355 68.084, 44.012 74.320 L 27.024 85.657 39.512 106.059 C 46.380 117.280, 52 126.785, 52 127.181 C 52 127.577, 47.226 139.511, 41.390 153.700 C 35.555 167.890, 30.546 180.090, 30.259 180.812 C 29.872 181.787, 73.036 151.695, 77.187 148.096 C 77.779 147.582, 83 125.969, 83 124.029 C 83 123.643, 80.086 121.341, 76.524 118.914 C 72.962 116.486, 70.037 114.214, 70.024 113.865 C 70.011 113.516, 72.588 112.920, 75.750 112.541 C 86.006 111.311, 85.719 111.518, 87.390 104.190 C 88.221 100.548, 88.681 97.347, 88.412 97.079 C 88.143 96.810, 85.089 96.409, 81.625 96.189 L 75.327 95.788 73.548 86.343 C 71.864 77.405, 71.965 74.458, 73.882 76.567 C 74.348 77.080, 75.266 80.425, 75.922 84 C 77.857 94.549, 77.418 94, 83.902 94 L 89.669 94 91.840 84.250 C 93.034 78.888, 94.009 73.745, 94.006 72.822 C 94.002 71.833, 91.435 69.610, 87.750 67.405 C 80.021 62.781, 80.446 63.154, 81.594 62.006 C 82.208 61.392, 84.636 62.299, 88.327 64.523 C 91.502 66.435, 94.420 68, 94.811 68 C 95.615 68, 100.204 47.870, 99.549 47.216 C 99.317 46.984, 93.152 48.168, 85.848 49.848 C 78.545 51.529, 72.477 52.810, 72.362 52.696 C 72.248 52.582, 74.830 46.238, 78.100 38.600 C 81.370 30.962, 83.923 24.616, 83.773 24.498 C 83.623 24.380, 69.592 30.024, 52.593 37.040 M 109.174 44.520 C 106.245 45.234, 103.661 46.005, 103.433 46.233 C 102.989 46.678, 97.988 68.337, 98.017 69.690 C 98.033 70.430, 109.981 78, 111.132 78 C 111.404 78, 111.118 74.513, 110.495 70.250 C 109.282 61.947, 109.111 62.788, 115.084 47.750 C 117.193 42.441, 117.350 42.526, 109.174 44.520 M 91.121 100.750 C 90.595 102.813, 89.885 105.881, 89.543 107.568 L 88.921 110.636 106.777 107.927 C 116.598 106.436, 125.445 105.056, 126.436 104.859 C 127.491 104.649, 124.558 102.936, 119.369 100.730 C 111.242 97.276, 109.729 96.962, 101.289 96.980 L 92.077 97 91.121 100.750 M 79.105 114.870 C 76.726 115.536, 76.734 115.560, 80.246 118.239 L 83.783 120.937 84.378 118.718 C 85.675 113.879, 84.835 113.266, 79.105 114.870 M 132 124.535 C 113.025 127.433, 97.313 129.848, 97.084 129.902 C 96.856 129.956, 99.262 131.817, 102.431 134.037 C 108.980 138.624, 108.095 138.697, 121.484 132.482 C 128.278 129.329, 130.975 128.492, 131.333 129.426 C 131.652 130.257, 127.802 132.793, 120.429 136.606 C 114.161 139.848, 109.025 142.752, 109.016 143.059 C 109.007 143.367, 119.127 145.160, 131.505 147.045 C 143.882 148.930, 153.895 150.703, 153.755 150.986 C 153.615 151.269, 148.709 156.113, 142.854 161.750 C 136.999 167.387, 132.388 172, 132.608 172 C 133.465 172, 175.546 152.833, 176.282 152.107 C 176.711 151.684, 175.644 144.061, 173.910 135.168 C 170.993 120.206, 170.599 119.010, 168.629 119.134 C 167.458 119.207, 150.975 121.638, 132 124.535 M 84.974 127.250 C 84.960 127.938, 84.109 132.213, 83.083 136.750 C 82.056 141.287, 81.306 145, 81.414 145 C 81.523 145, 83.047 143.941, 84.802 142.646 C 87.874 140.380, 88.272 140.336, 95.442 141.460 C 100.753 142.294, 103.461 142.323, 104.880 141.564 C 106.687 140.597, 106.220 140.040, 99.798 135.500 C 95.909 132.750, 92.451 130.500, 92.114 130.500 C 91.776 130.500, 90.487 129.488, 89.250 128.250 C 86.752 125.752, 85.013 125.345, 84.974 127.250 M 84.500 146.062 C 80.633 148.964, 80.411 149.456, 77.837 160.782 C 76.373 167.227, 75.287 172.614, 75.424 172.753 C 75.561 172.892, 78.671 169.222, 82.336 164.597 C 87.287 158.350, 89 155.398, 89 153.113 C 89 150.453, 89.641 149.710, 93.750 147.603 C 98.713 145.058, 98.526 144.630, 92 143.607 C 89.162 143.162, 87.744 143.626, 84.500 146.062" stroke="none" fill="black" fill-rule="evenodd"/>
</svg>