<svg xmlns="http://www.w3.org/2000/svg" width="200" height="200" viewBox="0 0 200 200" version="1.1">
	<path d="M 18.635 9.566 L 20.445 12.329 17.723 11.664 C 16.225 11.299, 13.921 10.738, 12.602 10.417 C 11.021 10.033, 16.100 15.695, 27.496 27.024 C 37.006 36.478, 45.161 44.200, 45.619 44.182 C 47.854 44.096, 46.348 41.379, 38.033 30.488 C 33.067 23.984, 29.186 18.480, 29.410 18.257 C 30.095 17.571, 76 30.303, 76 31.179 C 76 31.630, 74.703 32, 73.118 32 L 70.237 32 69.533 40.448 C 69.146 45.095, 68.305 49.312, 67.665 49.818 C 66.111 51.047, 58.983 53.316, 58.425 52.759 C 58.183 52.516, 58.363 49.546, 58.827 46.159 C 59.472 41.438, 59.376 40, 58.414 40 C 57.132 40, 56.563 41.943, 55.439 50.155 L 54.802 54.809 38.322 60.547 C 20.267 66.833, 20.565 66.596, 19.320 75.680 C 18.933 78.509, 19.107 80, 19.826 80 C 20.804 80, 22.254 75.936, 23.174 70.616 C 23.424 69.171, 27.003 67.484, 38.500 63.389 C 46.750 60.451, 53.612 58.036, 53.750 58.023 C 55.813 57.830, 50.923 69.330, 36.205 99.283 L 18.411 135.500 30.887 163.235 C 37.749 178.489, 43.539 190.794, 43.754 190.579 C 43.970 190.364, 45.895 170.008, 48.033 145.344 C 50.170 120.680, 52.909 92.513, 54.119 82.750 L 56.318 65 61.159 65 C 66.785 65, 66.721 64.777, 65.004 78.526 C 63.432 91.116, 59.017 143.350, 59.485 143.819 C 59.832 144.166, 84.728 134.731, 97.871 129.272 C 101.067 127.945, 100.913 128.239, 94.892 134.963 C 91.401 138.863, 84.147 145.530, 78.773 149.777 C 73.399 154.025, 69.001 157.725, 69.001 158.001 C 69 158.277, 79.012 160.219, 91.250 162.317 C 103.488 164.415, 114.671 166.367, 116.102 166.654 C 118.614 167.158, 118.727 166.974, 119.362 161.338 C 119.724 158.127, 120.531 151.921, 121.155 147.548 L 122.289 139.595 134.219 163.438 C 144.337 183.660, 146.356 187.069, 147.513 185.890 C 149.094 184.279, 190.053 125.009, 190.646 123.474 C 190.880 122.867, 179.710 120.055, 163.271 116.584 C 147.997 113.358, 134.696 110.429, 133.713 110.074 C 132.671 109.697, 143.515 106.766, 159.713 103.046 C 174.996 99.535, 188.234 96.401, 189.131 96.082 C 190.494 95.595, 188.363 90.011, 176.126 62 C 168.076 43.575, 161.120 27.923, 160.667 27.219 C 160.054 26.265, 156.091 25.962, 145.172 26.033 C 131.095 26.125, 128.311 25.760, 76.500 17.041 C 46.800 12.042, 21.223 7.694, 19.662 7.378 L 16.825 6.803 18.635 9.566 M 24.203 12.109 C 24.495 12.987, 36.197 16.645, 55.925 22.026 L 87.184 30.553 103.342 29.298 C 112.229 28.607, 120.134 27.920, 120.908 27.771 C 121.682 27.622, 101.207 23.969, 75.408 19.654 C 49.609 15.339, 27.429 11.563, 26.120 11.263 C 24.379 10.864, 23.864 11.092, 24.203 12.109 M 19.025 15.126 C 19.313 15.332, 22.438 18.200, 25.967 21.500 L 32.385 27.500 28.522 22.500 C 23.468 15.959, 23.870 16.334, 21 15.488 C 19.625 15.083, 18.736 14.920, 19.025 15.126 M 136.673 29.645 C 136.382 30.665, 135.851 34.234, 135.494 37.576 L 134.844 43.652 145.422 46.456 C 152.348 48.292, 156 49.733, 156 50.630 C 156 52.267, 156.066 52.267, 143.807 50.649 L 134.113 49.371 133.583 52.935 C 131.646 65.970, 131.640 65.811, 134.061 66.167 C 135.880 66.435, 136.785 67.866, 138.663 73.445 C 139.984 77.371, 141 82.773, 141 85.873 C 141 91.354, 140.997 91.360, 133.361 99.206 C 129.160 103.523, 125.904 107.237, 126.125 107.458 C 126.482 107.816, 186.074 94.259, 186.642 93.691 C 186.768 93.566, 180.542 78.959, 172.808 61.232 L 158.745 29 150.998 29 C 146.736 29, 141.889 28.728, 140.226 28.395 C 137.826 27.915, 137.092 28.174, 136.673 29.645 M 110.750 31.311 C 103.737 31.849, 98 32.570, 98 32.913 C 98 33.256, 105.537 35.587, 114.750 38.092 L 131.500 42.648 132.145 40.074 C 132.500 38.658, 133.034 35.813, 133.332 33.750 L 133.874 30 128.687 30.166 C 125.834 30.258, 117.763 30.773, 110.750 31.311 M 79.816 33.794 L 73.133 34.088 72.485 39.794 C 72.128 42.932, 71.623 46.272, 71.362 47.215 C 70.974 48.617, 73.477 48.019, 85.085 43.935 C 92.894 41.188, 99.898 38.597, 100.650 38.176 C 103.077 36.818, 87.164 33.471, 79.816 33.794 M 103.574 39.146 C 103.330 39.891, 102.279 45.750, 101.238 52.166 L 99.346 63.833 101.920 64.325 C 105.082 64.929, 105.233 64.695, 109.067 53.250 C 111.106 47.161, 112.669 44, 113.641 44 C 114.453 44, 118.246 44.486, 122.071 45.079 C 133.381 46.834, 132.162 45.622, 119.133 42.158 C 112.435 40.377, 106.293 38.666, 105.486 38.356 C 104.678 38.046, 103.817 38.402, 103.574 39.146 M 84.527 46.940 C 70.578 52.012, 70.330 52.232, 70.100 59.750 C 70.002 62.933, 70.089 63, 74.346 63 C 76.737 63, 82.725 63.286, 87.653 63.636 L 96.612 64.272 97.889 55.886 C 98.591 51.274, 99.409 46.263, 99.708 44.750 C 100.409 41.192, 100.289 41.209, 84.527 46.940 M 111.148 55.561 C 109.398 60.367, 108.086 64.394, 108.233 64.510 C 108.380 64.627, 113.063 65.009, 118.639 65.359 L 128.778 65.996 129.354 62.748 C 129.671 60.961, 130.223 57.186, 130.580 54.357 L 131.229 49.215 127.365 48.634 C 125.239 48.315, 121.437 47.777, 118.916 47.438 L 114.332 46.823 111.148 55.561 M 62 54.981 C 58.527 56.349, 57.430 57.329, 57.193 59.277 C 56.906 61.638, 57.205 61.822, 61.854 62.150 L 66.822 62.500 67.400 59 C 68.530 52.157, 68.750 52.321, 62 54.981 M 67.615 80.613 C 65.573 98.352, 62.041 139.357, 62.514 139.840 C 62.697 140.027, 72.669 136.287, 84.673 131.530 C 105.494 123.278, 106.769 122.617, 112.327 117.190 C 123.916 105.874, 123.648 106.463, 126.272 86.656 L 128.609 69.017 125.555 68.453 C 123.875 68.143, 118.942 68.027, 114.594 68.195 L 106.688 68.500 100.332 87 C 91.370 113.087, 91.001 114, 89.398 114 C 88.423 114, 88.127 113.277, 88.475 111.750 C 89.839 105.764, 95.878 67.545, 95.517 67.184 C 95.290 66.957, 89.305 66.536, 82.217 66.249 L 69.329 65.726 67.615 80.613 M 98.641 68.750 C 97.540 72.653, 94.833 91.167, 95.296 91.629 C 95.569 91.902, 97.480 87.035, 99.543 80.813 C 101.606 74.591, 103.501 68.938, 103.754 68.250 C 104.046 67.457, 103.285 67, 101.674 67 C 100.110 67, 98.945 67.672, 98.641 68.750 M 129.605 83.212 C 128.636 91.070, 127.605 98.400, 127.314 99.500 C 126.969 100.807, 128.691 99.643, 132.282 96.144 C 139.230 89.372, 139.938 86.171, 136.645 76.406 C 132.906 65.317, 131.663 66.519, 129.605 83.212 M 36.384 105.300 L 21.334 135.500 31.417 157.837 C 40.306 177.529, 41.585 179.838, 42.221 177.337 C 42.618 175.777, 44.310 158.075, 45.980 138 C 47.651 117.925, 49.721 95.719, 50.580 88.654 C 51.439 81.589, 51.982 75.649, 51.788 75.455 C 51.593 75.260, 44.662 88.691, 36.384 105.300 M 118.089 114.880 L 113.679 120.161 117.589 118.528 C 122.695 116.397, 123.219 115.786, 122.828 112.421 C 122.502 109.614, 122.478 109.626, 118.089 114.880 M 125.596 113.611 C 125.101 114.901, 125.455 115.103, 127.375 114.621 C 129.462 114.097, 131.627 115.993, 144.087 129.260 C 155.265 141.160, 157.974 144.560, 156.451 144.773 C 155.378 144.924, 148.425 144.404, 141 143.618 C 133.575 142.832, 127.364 142.321, 127.197 142.481 C 126.763 142.899, 146.371 182.009, 146.988 181.957 C 147.394 181.923, 183.559 129.874, 186.176 125.558 C 186.637 124.798, 177.590 122.466, 157.676 118.214 C 141.629 114.788, 127.986 111.988, 127.357 111.992 C 126.728 111.997, 125.936 112.725, 125.596 113.611 M 126.750 117.694 C 125.787 117.943, 124.984 118.451, 124.965 118.823 C 124.945 119.195, 124.320 123.775, 123.574 129 C 122.829 134.225, 122.293 138.586, 122.383 138.690 C 122.630 138.977, 151.392 141.941, 151.628 141.704 C 151.740 141.592, 146.582 136.042, 140.166 129.370 C 131.972 120.851, 127.979 117.375, 126.750 117.694 M 114.412 122.619 C 109.387 124.627, 106.593 126.817, 98.412 135.165 C 92.960 140.727, 85.386 147.803, 81.579 150.889 C 77.718 154.020, 75.287 156.615, 76.079 156.761 C 95.731 160.369, 115.595 163.672, 115.912 163.384 C 116.138 163.178, 117.355 155.020, 118.615 145.255 C 119.876 135.490, 121.158 125.813, 121.465 123.750 C 121.772 121.688, 121.681 120.042, 121.262 120.094 C 120.843 120.145, 117.760 121.282, 114.412 122.619" stroke="none" fill="black" fill-rule="evenodd"/>
</svg>