<svg xmlns="http://www.w3.org/2000/svg" width="200" height="200" viewBox="0 0 200 200" version="1.1">
	<path d="M 114.535 19.205 C 98.055 19.695, 84.390 20.277, 84.169 20.498 C 83.948 20.719, 90.044 28.865, 97.716 38.601 L 111.665 56.303 109.107 63.133 C 106.681 69.607, 106.248 70.122, 100.774 73.040 L 95 76.118 73.951 66.908 C 59.159 60.436, 52.588 58.012, 51.845 58.755 C 51.102 59.498, 52.082 60.378, 55.144 61.716 C 57.540 62.763, 66.636 66.734, 75.358 70.541 C 88.507 76.280, 90.898 77.636, 89.358 78.481 C 87.580 79.456, 77.882 89.226, 78.299 89.622 C 78.410 89.727, 86.497 89.114, 96.270 88.260 C 106.044 87.406, 114.302 86.968, 114.620 87.287 C 114.939 87.606, 114.950 88.272, 114.645 88.766 C 114.339 89.261, 102.596 93.903, 88.550 99.083 C 73.841 104.506, 63.008 109.030, 63.005 109.750 C 63.002 110.438, 63.907 111, 65.016 111 C 67.191 111, 106.393 106.346, 111.750 105.452 L 115 104.909 115 111.300 C 115 116.420, 114.603 118.050, 113 119.500 C 110.480 121.781, 110.480 122.631, 113 123.290 C 114.699 123.734, 115 124.654, 115 129.406 L 115 135 109.067 135 C 103.237 135, 103.069 135.079, 99.400 139.556 C 97.347 142.062, 94.279 144.696, 92.584 145.410 C 90.888 146.123, 76.983 153.523, 61.685 161.853 C 46.387 170.184, 33.483 177, 33.009 177 C 32.117 177, 16.379 155.150, 15.361 152.499 C 14.977 151.497, 15.402 151.003, 16.643 151.009 C 19.318 151.022, 78.830 145.073, 83 144.376 C 86.331 143.819, 85.633 143.356, 68.500 134.759 L 50.500 125.727 54 124.146 C 55.925 123.276, 57.635 122.490, 57.800 122.399 C 57.965 122.308, 51.041 110.010, 42.412 95.070 L 26.725 67.908 33.030 52.204 C 42.156 29.473, 41.312 30.795, 46.303 31.414 C 48.611 31.700, 57.813 32.218, 66.750 32.564 C 80.777 33.108, 83 32.990, 83 31.701 C 83 30.447, 79.632 30.090, 62.004 29.477 C 50.457 29.075, 40.669 28.758, 40.254 28.772 C 39.586 28.796, 24 66.473, 24 68.065 C 24 68.414, 30.344 79.680, 38.099 93.100 C 45.853 106.520, 52.621 118.292, 53.139 119.259 C 53.889 120.661, 53.564 121.220, 51.540 122.009 C 42.683 125.463, 41.877 124.369, 60 133.503 C 69.313 138.197, 75.847 142.035, 75 142.314 C 74.175 142.586, 59.344 144.221, 42.042 145.946 C 24.741 147.670, 10.400 149.266, 10.175 149.492 C 9.949 149.717, 14.430 156.527, 20.132 164.624 C 25.835 172.721, 30.792 179.783, 31.149 180.318 C 31.671 181.101, 61.344 165.618, 87 151.175 L 91.500 148.641 89.428 151.071 C 84.776 156.526, 68.533 175.623, 67.142 177.274 C 66.229 178.357, 66.008 179.399, 66.574 179.952 C 67.133 180.498, 75.209 174.337, 86.958 164.401 C 98.393 154.731, 106.982 148.163, 107.790 148.473 C 108.545 148.763, 110.252 149, 111.582 149 L 114 149 114 164.500 C 114 177.611, 114.231 180, 115.500 180 C 116.769 180, 117 177.611, 117 164.500 C 117 155.975, 117.385 149, 117.856 149 C 118.326 149, 133.514 154.846, 151.606 161.991 C 169.697 169.136, 185.100 174.986, 185.833 174.991 C 189.650 175.016, 184.365 171.734, 164.232 161.573 C 152.026 155.413, 141.782 150.116, 141.469 149.802 C 141.155 149.488, 149.766 149.472, 160.605 149.766 C 179.617 150.282, 180.293 150.234, 179.790 148.400 C 179.504 147.355, 175.565 135.025, 171.037 121 L 162.805 95.500 174.796 65.242 C 186.181 36.513, 186.678 34.961, 184.643 34.516 C 183.464 34.259, 175.750 33.122, 167.500 31.990 C 147.194 29.204, 146.747 29.100, 147.432 27.318 C 147.747 26.497, 148.286 24.064, 148.630 21.913 C 149.215 18.256, 149.100 18.010, 146.878 18.157 C 145.570 18.244, 131.016 18.715, 114.535 19.205 M 112.755 21.996 C 100.246 22.359, 89.835 22.846, 89.619 23.078 C 89.404 23.310, 95.029 30.851, 102.119 39.836 C 109.210 48.821, 114.812 56.495, 114.569 56.888 C 114.326 57.281, 113.201 59.953, 112.069 62.824 L 110.011 68.046 113.006 66.497 L 116 64.949 116 44.974 C 116 26.608, 116.141 25.002, 117.750 25.026 C 118.713 25.040, 125.031 25.867, 131.791 26.864 C 138.551 27.861, 144.236 28.412, 144.423 28.088 C 144.611 27.765, 145.078 26.038, 145.462 24.250 L 146.159 21 140.829 21.168 C 137.898 21.261, 125.265 21.634, 112.755 21.996 M 118.993 39.250 C 118.989 45.438, 118.696 53.574, 118.341 57.331 L 117.696 64.161 138.932 53.534 L 160.168 42.907 152.334 37.264 C 144.538 31.649, 144.441 31.612, 132.500 29.837 C 125.900 28.855, 120.162 28.040, 119.750 28.026 C 119.338 28.012, 118.997 33.063, 118.993 39.250 M 151 32.659 C 151 32.834, 154.173 35.285, 158.050 38.105 C 161.928 40.926, 164.965 43.343, 164.800 43.476 C 164.635 43.610, 154.037 49.028, 141.250 55.516 L 118 67.313 118 75.250 L 118 83.187 126.651 82.844 C 132.929 82.594, 135.420 82.843, 135.734 83.750 C 135.972 84.438, 135.718 85, 135.169 85 C 134.620 85, 130.532 86.389, 126.085 88.088 L 118 91.175 118 96.699 L 118 102.223 121.250 101.664 C 123.037 101.357, 127.200 100.810, 130.500 100.449 L 136.500 99.792 127.250 109.165 C 122.162 114.320, 118 119.295, 118 120.222 C 118 122.017, 117.559 121.861, 145.747 130.063 C 154.133 132.503, 160.996 134.993, 160.997 135.595 C 161 136.674, 143.025 137.938, 126.092 138.050 L 118.500 138.100 126.500 142.244 L 134.500 146.387 155.250 146.807 C 166.662 147.038, 176 146.838, 176.001 146.363 C 176.001 145.889, 172.371 134.250, 167.933 120.500 L 159.865 95.500 171.342 66.500 C 177.655 50.550, 182.674 37.351, 182.496 37.169 C 182.047 36.711, 151 32.265, 151 32.659 M 111.423 70.663 C 109.081 71.832, 107.908 73.491, 106.506 77.614 C 104.514 83.474, 104.132 83.594, 97.755 80.350 C 95.314 79.109, 94.587 79.170, 91.188 80.904 C 89.086 81.976, 86.779 83.562, 86.061 84.427 C 84.925 85.795, 85.129 86.001, 87.628 86.011 C 89.207 86.018, 96.013 85.494, 102.750 84.847 C 114.119 83.755, 115.001 83.521, 115.009 81.585 C 115.013 80.438, 115.301 77.138, 115.648 74.250 C 116.330 68.574, 116.063 68.348, 111.423 70.663 M 101.062 75.915 C 97.839 77.631, 97.760 77.789, 99.803 78.437 C 102.455 79.279, 103.593 78.665, 104.286 76.016 C 104.576 74.907, 104.742 74.019, 104.656 74.042 C 104.570 74.065, 102.953 74.908, 101.062 75.915 M 118 87 C 118 88.174, 118.769 88.174, 121.500 87 C 123.272 86.238, 123.187 86.133, 120.750 86.070 C 119.237 86.032, 118 86.450, 118 87 M 95.735 99.376 C 85.415 103.187, 77.107 106.441, 77.274 106.608 C 77.441 106.775, 85.886 105.899, 96.039 104.661 L 114.500 102.410 114.816 99.705 C 114.990 98.217, 114.990 95.976, 114.816 94.725 C 114.506 92.493, 114.141 92.582, 95.735 99.376 M 119.185 104.864 C 118.346 105.396, 117.984 107.219, 118.185 109.898 L 118.500 114.098 123.462 109.049 L 128.425 104 124.462 104.015 C 122.283 104.024, 119.908 104.406, 119.185 104.864 M 118 130 L 118 135 134.167 135 C 143.058 135, 150.105 134.772, 149.826 134.493 C 149.404 134.071, 119.295 125, 118.316 125 C 118.142 125, 118 127.250, 118 130 M 102.377 140.250 C 97.500 145.815, 97.460 146, 101.128 145.997 C 103.628 145.995, 105.663 144.972, 109 142.040 L 113.500 138.085 108.924 138.043 C 105.396 138.010, 103.897 138.515, 102.377 140.250 M 111.500 143.576 L 108.500 145.990 111.281 145.995 C 112.811 145.998, 114.316 145.340, 114.626 144.533 C 115.746 141.613, 114.438 141.213, 111.500 143.576 M 118 143.480 C 118 145.813, 118.346 146, 122.667 146 C 127.985 146, 127.984 145.994, 122.250 143.103 L 118 140.959 118 143.480 M 88.750 155.985 C 85.037 160.337, 82 164.178, 82 164.520 C 82 165.190, 99.735 150.238, 100.599 148.840 C 100.884 148.378, 99.854 148.016, 98.309 148.036 C 96.055 148.065, 94.166 149.636, 88.750 155.985 M 139 154.037 C 145.875 156.757, 151.725 158.964, 152 158.940 C 152.275 158.917, 148.225 156.694, 143 154 C 136.966 150.889, 132.223 149.100, 130 149.096 C 127.220 149.092, 129.070 150.108, 139 154.037" stroke="none" fill="black" fill-rule="evenodd"/>
</svg>