<svg xmlns="http://www.w3.org/2000/svg" width="200" height="200" viewBox="0 0 200 200" version="1.1">
	<path d="M 81.492 17.102 C 77.646 21.560, 73.579 26.338, 72.454 27.718 L 70.407 30.227 62.226 26.114 C 57.726 23.851, 53.809 22, 53.522 22 C 53.235 22, 52.996 23.462, 52.991 25.250 C 52.987 27.038, 52.708 30.786, 52.372 33.579 L 51.762 38.658 41.131 36.838 C 35.284 35.838, 30.050 35.164, 29.500 35.341 C 28.884 35.540, 27.711 56.365, 26.444 89.582 L 24.388 143.500 28.310 151.500 C 30.467 155.900, 32.395 159.677, 32.593 159.893 C 32.791 160.109, 35.326 159.282, 38.226 158.055 C 46.540 154.537, 46.651 154.529, 43.754 157.646 L 41.009 160.600 66.254 168.638 L 91.500 176.675 94 171.586 C 95.375 168.788, 97.921 163.271, 99.659 159.327 L 102.817 152.155 140.151 168.078 C 160.685 176.835, 177.636 184, 177.820 184 C 178.005 184, 174.164 176.238, 169.285 166.750 C 164.406 157.263, 158.681 144.550, 156.563 138.500 C 154.444 132.450, 152.377 127.123, 151.968 126.663 C 151.560 126.203, 137.175 128.365, 120.001 131.468 C 102.828 134.571, 88.594 136.927, 88.371 136.704 C 87.580 135.913, 115.928 124.154, 145.737 112.908 C 162.368 106.633, 175.980 101.193, 175.987 100.817 C 175.994 100.442, 172.175 97.824, 167.500 95 C 162.825 92.176, 159 89.507, 159 89.069 C 159 88.630, 165.548 75.769, 173.551 60.487 C 183.069 42.314, 187.763 32.363, 187.121 31.721 C 186.480 31.080, 179.630 36.547, 167.320 47.528 C 156.969 56.761, 147.414 65.257, 146.088 66.408 C 144.761 67.559, 146.037 65.350, 148.925 61.500 L 154.174 54.500 145.837 53.668 C 141.252 53.211, 136.938 52.663, 136.250 52.450 C 135.447 52.201, 135 50.083, 135 46.531 C 135 43.489, 134.629 41, 134.176 41 C 133.722 41, 130.058 38.536, 126.032 35.524 C 121.439 32.088, 119.232 29.864, 120.106 29.556 C 120.873 29.285, 133.200 25.859, 147.500 21.942 C 161.800 18.025, 173.877 14.462, 174.337 14.023 C 177.038 11.451, 169.986 12.854, 143.089 20.241 C 126.549 24.783, 113.036 28.725, 113.059 29 C 113.083 29.275, 116.481 31.910, 120.612 34.856 C 124.742 37.801, 127.885 40.448, 127.596 40.737 C 127.307 41.026, 121.005 42.486, 113.590 43.982 L 100.109 46.701 79.805 43.346 C 52.361 38.810, 54.998 39.727, 55.014 34.731 C 55.021 32.404, 55.294 29.506, 55.620 28.291 C 56.210 26.090, 56.238 26.095, 63.081 29.541 C 66.859 31.443, 70.299 32.999, 70.725 32.998 C 71.699 32.994, 89.861 11.850, 90.027 10.525 C 90.370 7.798, 87.821 9.762, 81.492 17.102 M 30.976 42.642 C 30.962 45.314, 30.099 69.072, 29.058 95.438 L 27.165 143.377 30.571 150.142 L 33.978 156.907 37.239 155.543 C 53.241 148.852, 55.363 147.420, 74.303 130.535 C 84.644 121.315, 92.949 113.616, 92.758 113.425 C 92.567 113.234, 89.056 113.459, 84.956 113.926 L 77.500 114.774 72.642 110.017 L 67.784 105.260 85.848 95.886 C 98.220 89.465, 103.374 86.318, 102.206 85.897 C 101.267 85.559, 93.300 84.984, 84.500 84.621 C 75.700 84.257, 65.575 83.697, 62 83.376 L 55.500 82.793 55.856 77.749 C 56.161 73.435, 55.980 72.798, 54.606 73.352 C 49.353 75.471, 49.687 76.182, 50.400 64.407 C 50.764 58.408, 51.316 50.772, 51.627 47.438 L 52.193 41.376 43.846 40.121 C 39.256 39.430, 34.487 38.622, 33.250 38.324 C 31.153 37.820, 30.998 38.114, 30.976 42.642 M 159.500 58.153 C 141.627 74.251, 113.982 98.902, 105.606 106.209 L 102.500 108.919 105 108.901 C 112.390 108.849, 129.918 106.154, 132.823 104.624 L 136.145 102.874 135.823 105.687 C 135.585 107.761, 134.882 108.587, 133.147 108.833 C 131.197 109.109, 110.500 121.447, 107.644 124.036 C 107.174 124.462, 121.011 119.387, 138.394 112.758 C 155.777 106.128, 169.994 100.433, 169.988 100.102 C 169.981 99.771, 166.606 97.548, 162.488 95.163 C 158.369 92.777, 155 90.625, 155 90.380 C 155 90.135, 159.891 80.612, 165.869 69.218 C 180.465 41.395, 181.160 39.989, 180.270 40.069 C 179.847 40.107, 170.500 48.245, 159.500 58.153 M 54.594 45.214 C 54.313 47.021, 53.799 53.600, 53.452 59.833 C 52.839 70.831, 52.878 71.136, 54.759 70.129 C 56.383 69.260, 56.885 67.247, 57.849 57.737 C 58.482 51.492, 59 45.816, 59 45.124 C 59 44.406, 59.752 44.075, 60.750 44.352 C 61.712 44.620, 65.650 45.076, 69.500 45.364 L 76.500 45.890 69 44.489 C 53.573 41.609, 55.166 41.529, 54.594 45.214 M 124.250 46.878 C 120.263 48.309, 117 49.756, 117 50.096 C 117 50.802, 131.073 52.261, 131.712 51.621 C 131.944 51.390, 131.990 49.643, 131.816 47.739 L 131.500 44.278 124.250 46.878 M 61.567 48.976 C 60.503 52.800, 59.863 67, 60.755 67 C 61.285 67, 65.044 65.479, 69.109 63.619 C 73.174 61.759, 81.787 58.511, 88.250 56.401 C 94.713 54.291, 100 52.296, 100 51.966 C 100 51.637, 91.448 50.487, 80.996 49.410 C 64.104 47.670, 61.944 47.622, 61.567 48.976 M 107.500 48 L 104.500 48.763 107.500 48.811 C 109.150 48.838, 111.400 48.473, 112.500 48 L 114.500 47.141 112.500 47.189 C 111.400 47.215, 109.150 47.580, 107.500 48 M 91 58.376 C 81.375 61.805, 70.350 66.017, 66.500 67.734 L 59.500 70.857 59.198 75.929 L 58.895 81 66.698 81.089 C 70.989 81.138, 83.725 81.701, 95 82.340 L 115.500 83.501 94.500 94.405 C 82.950 100.403, 73.298 105.479, 73.051 105.687 C 72.804 105.894, 73.929 107.367, 75.551 108.960 L 78.500 111.857 87.991 110.817 L 97.481 109.777 108.491 100.002 C 114.546 94.626, 122.280 87.814, 125.678 84.864 L 131.855 79.500 131.928 67.329 L 132 55.159 129.250 54.632 C 127.737 54.342, 123.125 53.824, 119 53.481 C 114.875 53.137, 110.825 52.695, 110 52.498 C 109.175 52.301, 100.625 54.946, 91 58.376 M 135 65.168 L 135 75.191 141.866 66.346 C 146.086 60.909, 148.302 57.262, 147.616 56.883 C 147.002 56.543, 143.912 56.013, 140.750 55.705 L 135 55.145 135 65.168 M 107.938 111.394 L 98.376 112.527 83.438 125.892 C 61.167 145.818, 61.792 144.854, 74.937 139.013 C 81.227 136.219, 87.977 132.946, 89.937 131.740 C 91.897 130.534, 100.448 125.149, 108.940 119.774 C 126.156 108.876, 126.199 109.231, 107.938 111.394 M 115.500 135.069 C 97.900 138.307, 82.103 140.966, 80.395 140.978 C 73.404 141.028, 47 155.185, 47 158.882 C 47 159.616, 89.960 173.415, 90.440 172.836 C 90.593 172.651, 93.098 167.213, 96.007 160.750 C 98.915 154.287, 101.566 149.002, 101.897 149.005 C 102.229 149.007, 117.787 155.532, 136.472 163.505 C 155.156 171.477, 170.831 178, 171.306 178 C 171.780 178, 168.811 171.588, 164.708 163.750 C 160.606 155.912, 155.747 144.887, 153.912 139.250 C 151.545 131.979, 150.128 129.026, 149.037 129.091 C 148.192 129.141, 133.100 131.831, 115.500 135.069" stroke="none" fill="black" fill-rule="evenodd"/>
</svg>