<svg xmlns="http://www.w3.org/2000/svg" width="200" height="200" viewBox="0 0 200 200" version="1.1">
	<path d="M 28 12.281 C 28 13.799, 34.437 14.974, 42.837 14.991 C 46.590 14.999, 61.447 19.965, 85.881 29.380 L 89.262 30.682 80.152 38.091 L 71.043 45.500 81.221 55.717 C 86.819 61.337, 91.197 66.131, 90.949 66.372 C 90.702 66.612, 80.531 66.964, 68.346 67.155 L 46.193 67.500 43.532 57.500 C 42.068 52, 40.181 45.097, 39.338 42.161 L 37.806 36.821 35.460 40.274 C 33.354 43.373, 26 66.357, 26 69.841 C 26 70.974, 27.738 71.162, 35.018 70.813 L 44.036 70.382 45.518 75.373 C 46.333 78.117, 47 80.696, 47 81.104 C 47 81.787, 38.271 84.678, 20.355 89.928 L 13.210 92.022 26.499 121.072 C 33.808 137.049, 40.007 150.340, 40.274 150.607 C 40.541 150.874, 42.243 149.159, 44.057 146.796 C 52.727 135.504, 48.777 142.298, 32.710 166.313 C 26.155 176.110, 20.952 184.250, 21.146 184.401 C 21.743 184.866, 100 151.555, 100 150.836 C 100 150.465, 96.063 148.036, 91.250 145.437 C 86.438 142.839, 81.994 140.319, 81.375 139.838 C 80.566 139.209, 81.656 133.344, 85.258 118.948 C 89.966 100.131, 90.377 99.010, 92.112 100.216 C 108.590 111.675, 119.938 120.769, 119.916 122.500 C 119.903 123.600, 111.191 137.775, 100.557 154 C 89.924 170.225, 81.387 183.676, 81.587 183.892 C 81.787 184.108, 89.159 180.998, 97.970 176.983 L 113.989 169.682 145.744 174.355 C 163.210 176.925, 177.816 179.022, 178.202 179.014 C 178.587 179.006, 173.990 170.787, 167.985 160.750 L 157.067 142.500 167.034 114.555 C 172.515 99.185, 177 86.301, 177 85.924 C 177 85.547, 170.925 79.714, 163.500 72.963 C 156.075 66.212, 150 60.377, 150 59.997 C 150 59.616, 156.300 56.321, 164 52.675 C 171.700 49.029, 177.986 45.698, 177.970 45.273 C 177.929 44.238, 136.899 15.767, 136.305 16.362 C 136.049 16.618, 133.467 32.625, 130.566 51.934 C 127.665 71.243, 125.006 87.327, 124.656 87.677 C 123.984 88.350, 58.570 84.191, 56 83.312 C 51.846 81.892, 61.342 81.136, 91.823 80.459 C 110.070 80.054, 125 79.535, 125 79.307 C 125 79.079, 119.375 72.732, 112.500 65.204 C 105.625 57.675, 100 51.191, 100 50.795 C 100 50.399, 107.650 43.252, 117 34.913 C 126.350 26.573, 134 19.455, 134 19.095 C 134 18.735, 111.388 16.963, 83.750 15.157 C 56.112 13.351, 32.263 11.641, 30.750 11.357 C 28.784 10.988, 28 11.252, 28 12.281 M 61.500 17.311 C 63.150 18.021, 71.142 21.041, 79.259 24.024 C 87.377 27.006, 93.902 29.737, 93.759 30.093 C 93.566 30.575, 81.801 40.401, 75.033 45.733 C 74.776 45.935, 79.922 51.141, 86.468 57.300 L 98.371 68.500 89.435 69.144 C 84.521 69.498, 72.914 69.836, 63.643 69.894 C 49.472 69.983, 46.873 70.228, 47.334 71.429 C 47.636 72.215, 48.185 74.470, 48.555 76.440 C 49.387 80.879, 50.093 81.338, 53.666 79.772 C 55.637 78.908, 66.165 78.373, 88.245 78.015 L 119.991 77.500 108.038 64.500 C 101.464 57.350, 96.066 51.175, 96.043 50.778 C 96.019 50.381, 103.189 43.657, 111.975 35.836 C 120.761 28.015, 127.776 21.443, 127.564 21.231 C 127.352 21.019, 114.651 20, 99.339 18.967 C 84.028 17.934, 68.575 16.849, 65 16.555 C 59.052 16.067, 58.755 16.131, 61.500 17.311 M 138 20.483 C 138 20.809, 135.750 36.021, 133.001 54.288 C 130.251 72.555, 128.001 87.798, 128.001 88.162 C 128 88.527, 133.425 89.148, 140.056 89.544 C 149.253 90.093, 151.996 90.569, 151.619 91.549 C 151.348 92.256, 144.235 100.813, 135.813 110.563 C 123.633 124.664, 117.206 133.326, 104.403 152.896 C 95.549 166.428, 88.415 177.641, 88.549 177.813 C 88.683 177.985, 94.406 175.598, 101.267 172.507 L 113.741 166.888 143.370 171.240 C 159.667 173.634, 173 175.381, 173 175.122 C 173 174.863, 168.861 167.659, 163.803 159.114 C 158.745 150.568, 154.666 142.884, 154.739 142.038 C 154.812 141.192, 159.200 128.350, 164.490 113.501 L 174.109 86.501 169.304 81.999 C 166.662 79.523, 160 73.367, 154.500 68.319 L 144.500 59.140 158.723 52.320 C 166.545 48.569, 172.958 45.243, 172.973 44.929 C 172.988 44.614, 167.713 40.717, 161.250 36.268 C 154.787 31.819, 146.912 26.314, 143.750 24.035 C 140.588 21.755, 138 20.157, 138 20.483 M 33.531 52.544 C 32.069 57.470, 30.451 62.805, 29.936 64.399 C 29.421 65.994, 29 67.456, 29 67.649 C 29 67.842, 32.150 68, 36 68 C 40.481 68, 43 67.599, 43 66.885 C 43 65.225, 37.907 46.730, 36.986 45.044 C 36.453 44.070, 35.311 46.550, 33.531 52.544 M 32.500 89.068 C 25.350 91.237, 18.969 93.207, 18.320 93.447 C 17.561 93.728, 21.239 102.897, 28.649 119.192 C 34.978 133.111, 40.459 144.809, 40.829 145.187 C 41.198 145.565, 47.532 137.557, 54.904 127.391 C 63.898 114.988, 68.639 109.239, 69.314 109.914 C 70.519 111.119, 51.499 143.441, 37.281 164.349 C 32.102 171.965, 28.007 178.319, 28.182 178.468 C 28.357 178.617, 43.474 172.416, 61.775 164.689 L 95.050 150.639 85.994 145.622 C 81.013 142.862, 77.109 140.131, 77.318 139.552 C 77.527 138.973, 80.118 128.713, 83.075 116.750 C 86.033 104.787, 88.707 95, 89.018 95 C 89.329 95, 96.539 100.137, 105.041 106.416 C 114.265 113.228, 120.621 117.311, 120.800 116.539 C 121.268 114.517, 124.755 91.519, 124.620 91.339 C 124.514 91.197, 53.450 85.974, 51.864 85.993 C 51.514 85.997, 52.376 90.275, 53.779 95.501 C 56.125 104.234, 56.248 107.782, 54.122 105.433 C 53.658 104.920, 51.753 100.113, 49.889 94.752 C 48.025 89.390, 46.275 85.031, 46 85.065 C 45.725 85.099, 39.650 86.900, 32.500 89.068 M 127.421 92.474 C 126.757 94.453, 123.205 119.504, 123.539 119.855 C 123.902 120.236, 125.150 118.853, 138.288 103.505 C 142.993 98.008, 146.671 93.338, 146.460 93.127 C 145.468 92.135, 127.739 91.527, 127.421 92.474" stroke="none" fill="black" fill-rule="evenodd"/>
</svg>