<svg xmlns="http://www.w3.org/2000/svg" width="200" height="200" viewBox="0 0 200 200" version="1.1">
	<path d="M 37.272 28.247 C 34.199 35.144, 32.621 37.581, 31.075 37.820 C 28.897 38.155, 28.206 40.569, 30.106 41.202 C 30.769 41.423, 28.525 47.504, 24.513 56.359 C 20.828 64.492, 18.051 71.384, 18.340 71.673 C 18.630 71.963, 26.659 72.895, 36.183 73.744 C 45.708 74.594, 53.670 75.431, 53.877 75.604 C 54.161 75.843, 29.288 106.274, 18.303 119.128 C 17.088 120.548, 18.381 124.673, 28.463 151.551 C 34.816 168.489, 40.172 182.505, 40.366 182.699 C 40.560 182.893, 44.453 177.077, 49.018 169.776 C 53.582 162.474, 57.867 155.895, 58.539 155.155 C 59.542 154.052, 62.736 155.800, 76.380 164.920 L 93 176.029 93 155.015 C 93 143.457, 93.338 134.021, 93.750 134.047 C 94.162 134.072, 98.300 135.121, 102.944 136.378 L 111.387 138.662 120.777 166.831 C 125.941 182.324, 130.467 194.979, 130.833 194.954 C 131.200 194.928, 140.050 187.094, 150.500 177.545 L 169.500 160.183 172.750 161.540 C 176.431 163.078, 176.616 162.870, 174.472 159.598 C 172.995 157.343, 173.146 157.081, 179.086 151.581 C 182.464 148.453, 185.064 145.762, 184.864 145.600 C 184.664 145.439, 177.811 142.661, 169.635 139.428 C 155.057 133.663, 154.687 133.442, 150.457 127.944 L 146.143 122.338 160.116 112.596 C 170.604 105.284, 173.960 102.436, 173.573 101.177 C 173.289 100.255, 170.557 88.925, 167.500 76 C 164.443 63.075, 161.708 51.737, 161.421 50.805 C 161.025 49.515, 161.869 48.820, 164.950 47.897 C 167.178 47.229, 169 46.411, 169 46.077 C 169 45.744, 163.205 39.689, 156.123 32.623 L 143.246 19.774 125.373 29.023 C 109.864 37.048, 106.548 39.202, 100.301 45.310 L 93.102 52.348 91.154 49.942 C 89.206 47.536, 89.206 47.534, 92.179 41.644 C 93.815 38.404, 94.781 35.426, 94.327 35.025 C 93.872 34.625, 87.697 30.831, 80.605 26.594 C 71.960 21.429, 67.379 19.221, 66.705 19.895 C 66.030 20.570, 69.069 25.335, 75.925 34.354 L 86.152 47.806 84.449 51.153 C 83.512 52.994, 82.606 54.659, 82.436 54.854 C 82.265 55.048, 76.506 53.335, 69.637 51.046 L 57.147 46.883 49.999 33.692 C 46.067 26.436, 42.523 20.161, 42.123 19.747 C 41.722 19.333, 39.539 23.158, 37.272 28.247 M 125.500 32.081 C 110.972 39.730, 107.499 42.031, 101.617 47.907 L 94.733 54.784 97.313 58.166 C 99.556 61.107, 101.666 62.128, 113.495 65.998 C 127.086 70.445, 127.102 70.448, 131.563 68.843 C 137.082 66.859, 138.214 68.123, 134.444 72.059 C 132.397 74.195, 131.064 74.803, 129.364 74.377 C 126.908 73.760, 114 77.903, 114 79.308 C 114 79.762, 115.175 81.674, 116.612 83.558 C 118.500 86.033, 119.816 86.862, 121.362 86.549 C 130.442 84.708, 130.277 84.669, 139.861 90.962 C 153.093 99.650, 152.358 100.647, 135.812 96.452 C 130.285 95.051, 125.623 94.043, 125.454 94.213 C 125.173 94.493, 142.039 117.421, 143.917 119.311 C 144.360 119.758, 150.642 115.971, 157.877 110.897 C 167.320 104.275, 170.891 101.225, 170.536 100.086 C 169.962 98.243, 158 48.101, 158 47.537 C 158 47.329, 159.350 46.862, 161 46.500 C 162.650 46.138, 164 45.532, 164 45.153 C 164 44.775, 159.162 39.666, 153.250 33.799 L 142.500 23.132 125.500 32.081 M 38.651 31.842 C 37.193 35.092, 36 38.219, 36 38.793 C 36 39.679, 49.969 45, 52.294 45 C 53.288 45, 43.406 26.635, 42.195 26.232 C 41.704 26.068, 40.110 28.593, 38.651 31.842 M 80.164 35.581 L 87.365 45.162 89.141 41.831 C 90.117 39.999, 90.935 37.968, 90.958 37.317 C 90.995 36.277, 75.225 26, 73.592 26 C 73.246 26, 76.203 30.311, 80.164 35.581 M 38 43.450 C 38 43.650, 43.461 47.975, 50.135 53.062 C 56.809 58.149, 62.087 61.903, 61.864 61.405 C 61.640 60.907, 60.162 57.967, 58.580 54.871 L 55.702 49.242 46.851 46.164 C 41.983 44.471, 38 43.250, 38 43.450 M 31.207 48.226 C 30.158 50.577, 27.590 56.221, 25.502 60.769 C 23.413 65.317, 21.890 69.223, 22.116 69.450 C 22.343 69.676, 31.747 70.634, 43.014 71.578 C 60.745 73.064, 63.803 73.568, 65.755 75.326 C 67.158 76.591, 72.867 78.546, 80.872 80.505 L 93.735 83.653 101.296 80.700 L 108.858 77.747 103.399 70.495 C 98.715 64.272, 97.297 63.063, 93.401 61.972 L 88.860 60.701 83.029 66.471 C 79.823 69.644, 76.728 71.950, 76.154 71.595 C 75.487 71.183, 76.169 68.707, 78.037 64.757 C 79.648 61.352, 80.636 58.271, 80.233 57.912 C 79.148 56.944, 60.711 50.956, 60.246 51.420 C 60.028 51.639, 61.702 55.195, 63.968 59.323 C 66.520 63.974, 67.690 67.074, 67.043 67.473 C 65.692 68.309, 65.875 68.429, 49.500 55.984 C 41.800 50.132, 34.963 45.031, 34.307 44.649 C 33.543 44.203, 32.428 45.490, 31.207 48.226 M 86.167 53.534 C 85.222 55.607, 85.286 56.172, 86.519 56.646 C 88.937 57.573, 91.150 55.149, 89.944 52.895 C 88.575 50.337, 87.544 50.511, 86.167 53.534 M 92 58 C 92 58.550, 92.477 59, 93.059 59 C 93.641 59, 93.840 58.550, 93.500 58 C 93.160 57.450, 92.684 57, 92.441 57 C 92.198 57, 92 57.450, 92 58 M 82.890 61.250 C 81.715 63.488, 81.720 63.490, 83.854 61.595 C 86.238 59.479, 86.456 59, 85.035 59 C 84.505 59, 83.539 60.013, 82.890 61.250 M 103.635 66.247 C 104.051 66.936, 106.014 69.566, 107.999 72.091 L 111.606 76.681 116.851 74.689 C 119.736 73.593, 121.737 72.376, 121.298 71.984 C 119.601 70.471, 102.912 65.050, 103.635 66.247 M 48 87.622 C 43.551 92.914, 40.127 97.460, 40.392 97.725 C 40.916 98.250, 77.218 93.079, 77.943 92.377 C 78.186 92.141, 75.717 89.251, 72.456 85.955 C 66.917 80.358, 62.608 78.021, 57.795 78.006 C 56.857 78.003, 52.449 82.330, 48 87.622 M 104.105 82.444 L 98.711 84.714 105.854 86.464 C 115.362 88.794, 116.999 88.145, 113.302 83.512 C 111.761 81.580, 110.275 80.039, 110 80.087 C 109.725 80.135, 107.072 81.196, 104.105 82.444 M 75.952 85.943 C 81.320 92.354, 81.283 92.335, 86.631 91.533 C 90.748 90.915, 91.094 90.643, 90.810 88.238 C 90.485 85.487, 91.269 85.804, 74.112 81.493 C 71.979 80.957, 72.176 81.433, 75.952 85.943 M 94 88.375 C 94 90.228, 99.442 90.653, 102 89 C 103.306 88.156, 103.289 88.029, 101.875 88.015 C 100.981 88.007, 98.844 87.719, 97.125 87.375 C 94.651 86.880, 94 87.088, 94 88.375 M 124 88.944 L 120.500 89.624 124.500 90.749 C 132.201 92.916, 140 94.807, 140 94.509 C 140 94.344, 137.823 92.812, 135.162 91.104 C 130.146 87.885, 129.794 87.817, 124 88.944 M 100.250 92.215 L 94 93.175 94 98.812 C 94 104.434, 94.019 104.469, 100.750 111.248 C 106.896 117.438, 107.769 118.851, 110.509 127.047 L 113.518 136.049 123.009 139.400 C 130.346 141.990, 155.287 151.635, 167.928 156.770 C 168.713 157.089, 165.601 152.410, 161.012 146.372 L 152.669 135.393 144.084 132.048 C 139.363 130.208, 135.313 128.545, 135.083 128.351 C 134.854 128.158, 136.355 126.538, 138.419 124.750 L 142.172 121.500 131.533 107.500 C 118.365 90.173, 117.212 89.610, 100.250 92.215 M 85 94.813 C 85 95.260, 86.350 96.919, 88 98.500 L 91 101.374 91 97.687 C 91 94.257, 90.791 94, 88 94 C 86.350 94, 85 94.366, 85 94.813 M 60.090 98.104 C 49.414 99.690, 40.479 101.188, 40.234 101.432 C 39.990 101.677, 42.141 105.952, 45.016 110.933 C 49.635 118.937, 50.663 120.097, 53.871 120.926 C 55.867 121.442, 64.517 123.695, 73.093 125.932 C 81.669 128.169, 89.206 130, 89.843 130 C 90.655 130, 91 126.402, 91 117.929 L 91 105.858 86.250 100.442 C 83.638 97.463, 81.050 95.069, 80.500 95.123 C 79.950 95.176, 70.765 96.518, 60.090 98.104 M 28.080 111.527 L 20.070 121.053 22.934 128.777 C 24.509 133.024, 29.041 145.275, 33.004 156 C 36.968 166.725, 40.501 175.811, 40.855 176.191 C 41.210 176.571, 45.279 170.834, 49.899 163.441 C 54.518 156.049, 58.466 150, 58.673 150 C 58.879 150, 65.828 154.534, 74.114 160.076 C 82.401 165.618, 89.317 170.006, 89.485 169.826 C 89.652 169.647, 89.954 161.330, 90.155 151.345 L 90.521 133.190 72.199 128.490 C 62.122 125.904, 53.662 124.005, 53.398 124.269 C 53.134 124.532, 53.858 126.340, 55.006 128.286 C 56.590 130.970, 56.795 132.009, 55.856 132.589 C 55.175 133.010, 54.470 132.937, 54.289 132.427 C 54.108 131.917, 52.651 129.415, 51.051 126.867 C 48.473 122.761, 47.535 122.092, 42.821 120.988 C 39.894 120.303, 36.825 119.381, 36 118.939 C 33.312 117.497, 37.400 116.740, 41.603 117.901 C 43.684 118.476, 45.560 118.773, 45.772 118.562 C 46.177 118.157, 37.090 102, 36.457 102 C 36.255 102, 32.485 106.287, 28.080 111.527 M 93 119.243 L 93 130.923 96.750 131.894 C 98.813 132.428, 102.458 133.375, 104.851 133.998 C 107.244 134.622, 109.377 134.956, 109.591 134.742 C 109.806 134.528, 108.849 130.985, 107.465 126.870 C 105.341 120.553, 104.019 118.467, 98.975 113.475 L 93 107.563 93 119.243 M 141.787 125.620 C 140.167 127.260, 140.297 127.453, 144.186 129.195 C 146.448 130.207, 148.446 130.887, 148.628 130.705 C 148.810 130.523, 147.730 128.915, 146.229 127.131 C 143.643 124.057, 143.410 123.978, 141.787 125.620 M 163.944 145.848 C 167.442 150.370, 170.580 154.240, 170.917 154.449 C 171.545 154.837, 180.392 146.996, 179.818 146.561 C 179.565 146.370, 169.658 142.383, 159.042 138.201 C 158.239 137.885, 160.445 141.326, 163.944 145.848 M 115.250 141.250 C 115.505 141.938, 119.258 153.188, 123.591 166.250 C 127.923 179.313, 131.737 190, 132.066 190 C 133.498 190, 166.009 159.614, 165.294 158.944 C 164.077 157.804, 118.040 140, 116.309 140 C 115.471 140, 114.995 140.563, 115.250 141.250" stroke="none" fill="black" fill-rule="evenodd"/>
</svg>