<svg xmlns="http://www.w3.org/2000/svg" width="200" height="200" viewBox="0 0 200 200" version="1.1">
	<path d="M 89 13.381 C 89 16.456, 91.232 16.031, 54.031 20.038 C 38.374 21.724, 25.454 23.212, 25.322 23.345 C 25.189 23.477, 26.695 28.793, 28.669 35.158 L 32.256 46.730 24.481 70.115 C 20.204 82.977, 16.533 93.974, 16.321 94.553 C 16.110 95.132, 23.497 105.482, 32.737 117.553 C 41.977 129.624, 50.781 141.137, 52.302 143.139 L 55.068 146.777 38.005 154.027 C 28.621 158.014, 21.133 161.466, 21.365 161.699 C 21.597 161.931, 24.770 162.543, 28.414 163.059 C 42.700 165.082, 154.528 179, 156.497 179 C 158.507 179, 158.717 177.767, 161.811 147.819 C 163.847 128.103, 164.673 116.416, 164.056 116.035 C 163.520 115.703, 148.170 112.990, 129.946 110.006 L 96.812 104.581 92.946 96.892 L 89.080 89.203 93.373 76.351 L 97.666 63.500 102.369 63.194 L 107.072 62.887 100.975 75.050 C 97.622 81.739, 95.018 87.310, 95.189 87.430 C 96.171 88.118, 169.226 107.082, 169.883 106.819 C 170.320 106.643, 168.994 95.998, 166.937 83.162 L 163.196 59.823 169.497 45.393 C 175.151 32.443, 175.622 30.868, 174.085 30.046 C 173.143 29.541, 163.739 25.729, 153.188 21.574 C 142.636 17.419, 133.180 13.505, 132.174 12.876 C 130.784 12.009, 126.394 12.135, 113.922 13.401 C 104.890 14.318, 96.519 15.279, 95.320 15.536 C 93.646 15.894, 93.065 15.482, 92.820 13.762 C 92.350 10.470, 89 10.136, 89 13.381 M 112.183 16.331 L 93.867 18.394 94.548 23.447 C 94.923 26.226, 95.590 29.185, 96.029 30.023 C 96.468 30.860, 102.266 33.741, 108.914 36.424 C 115.561 39.107, 121 41.470, 121 41.676 C 121 41.882, 119.414 45.199, 117.476 49.047 C 114.966 54.032, 114.319 56.164, 115.226 56.459 C 115.927 56.687, 123.250 57.595, 131.500 58.477 C 150.630 60.522, 153.171 60.988, 152.709 62.369 C 152.438 63.178, 146.346 63.395, 131.311 63.132 L 110.292 62.764 104.562 73.965 C 101.411 80.126, 98.983 85.304, 99.166 85.472 C 99.350 85.640, 114.575 89.792, 133 94.699 C 160.783 102.098, 166.540 103.354, 166.735 102.060 C 166.865 101.202, 165.486 91.275, 163.670 80 L 160.370 59.500 166.194 46.059 C 169.397 38.666, 171.676 32.318, 171.259 31.951 C 170.841 31.584, 161.632 27.770, 150.794 23.475 C 139.956 19.180, 131.320 15.291, 131.603 14.833 C 131.886 14.375, 131.754 14.060, 131.309 14.134 C 130.864 14.207, 122.257 15.196, 112.183 16.331 M 57 22.285 C 41.875 23.947, 29.302 25.474, 29.061 25.677 C 28.819 25.879, 30.131 30.717, 31.976 36.426 L 35.331 46.807 27.071 70.854 L 18.810 94.901 38.887 121.076 C 49.929 135.471, 58.788 147.535, 58.572 147.883 C 58.357 148.231, 51.813 151.203, 44.030 154.487 C 36.246 157.772, 30.243 160.552, 30.689 160.665 C 34.171 161.550, 155.175 176.159, 155.589 175.745 C 156.195 175.138, 162.231 118.897, 161.742 118.408 C 161.567 118.234, 147.716 115.814, 130.962 113.031 C 114.208 110.249, 99.283 107.722, 97.795 107.416 C 95.618 106.969, 94.196 105.180, 90.514 98.260 L 85.939 89.659 90.372 76.399 C 92.810 69.105, 94.548 62.882, 94.236 62.569 C 93.331 61.665, 83 61.910, 83 62.836 C 83 63.296, 80.975 75.020, 78.500 88.890 C 76.025 102.760, 74 114.759, 74 115.554 C 74 116.672, 75.530 117.001, 80.750 117.003 C 98.605 117.012, 119 118.351, 119 119.514 C 119 120.175, 111.567 123.547, 102.482 127.007 C 93.398 130.467, 86.144 133.477, 86.363 133.696 C 86.582 133.915, 95.109 133.173, 105.313 132.047 C 115.517 130.921, 124.482 130, 125.236 130 C 126.619 130, 150.215 149.459, 150.833 151.110 C 151.017 151.600, 150.479 152, 149.639 152 C 148.798 152, 136.723 153.572, 122.805 155.494 C 102.232 158.334, 94.368 158.989, 80.750 158.994 C 64.175 159, 64 158.977, 64 156.808 C 64 155.602, 65.381 146.882, 67.068 137.432 L 70.137 120.248 62.447 104.893 L 54.756 89.539 56.718 80.397 L 58.681 71.255 54.282 65.378 L 49.884 59.500 65.442 59.225 C 79.619 58.974, 81 58.790, 81 57.160 C 81 55.604, 79.213 55.169, 67.264 53.814 C 57.512 52.709, 52.873 52.557, 51.267 53.288 C 48.335 54.624, 37 51.406, 37 49.238 C 37 48.039, 38.355 47.912, 44.917 48.493 L 52.833 49.193 69.395 39.347 C 78.503 33.931, 86.151 28.825, 86.391 28 C 86.630 27.175, 87.110 24.813, 87.458 22.750 C 87.998 19.548, 87.828 19.019, 86.295 19.131 C 85.308 19.204, 72.125 20.623, 57 22.285 M 89.812 24.487 C 89.492 27.230, 89.819 28.368, 91.130 29.070 C 92.684 29.901, 92.813 29.593, 92.307 26.252 C 91.513 21.004, 90.317 20.158, 89.812 24.487 M 88.599 32.796 C 87.651 35.981, 85.034 52.367, 85.413 52.746 C 85.620 52.953, 88.382 53.390, 91.551 53.717 L 97.312 54.312 96.747 51.406 C 96.437 49.808, 95.609 45.047, 94.909 40.828 C 93.859 34.496, 93.240 32.975, 91.371 32.123 C 89.537 31.288, 89.009 31.416, 88.599 32.796 M 71.228 41.230 C 63.929 45.663, 58.104 49.437, 58.284 49.618 C 58.782 50.115, 81.445 52.810, 81.874 52.423 C 82.545 51.817, 85.655 32.998, 85.069 33.086 C 84.756 33.133, 78.528 36.798, 71.228 41.230 M 97 36.107 C 97 36.715, 97.732 41.215, 98.627 46.107 C 99.882 52.966, 100.625 55.003, 101.877 55.011 C 102.770 55.017, 105.154 55.296, 107.176 55.630 C 110.848 56.237, 110.854 56.232, 114.002 49.995 C 115.735 46.562, 116.781 43.388, 116.327 42.941 C 115.395 42.024, 98.988 35, 97.780 35 C 97.351 35, 97 35.498, 97 36.107 M 84 57.864 C 84 59.804, 84.542 60, 89.893 60 C 94.209 60, 95.940 59.599, 96.362 58.500 C 96.744 57.504, 96.323 57, 95.108 57 C 94.102 57, 91.191 56.714, 88.640 56.364 C 84.370 55.779, 84 55.898, 84 57.864 M 99 59 C 99 59.550, 101.277 60, 104.059 60 C 107.177 60, 108.881 59.616, 108.500 59 C 108.160 58.450, 105.884 58, 103.441 58 C 100.998 58, 99 58.450, 99 59 M 112.750 59.662 C 113.438 59.940, 114.563 59.940, 115.250 59.662 C 115.938 59.385, 115.375 59.158, 114 59.158 C 112.625 59.158, 112.063 59.385, 112.750 59.662 M 58.313 66.458 L 61.717 70.916 59.674 80.029 L 57.632 89.142 64.018 102.036 C 67.530 109.127, 70.596 114.737, 70.832 114.502 C 71.288 114.045, 79.997 65.357, 79.999 63.250 C 80 62.316, 76.825 62, 67.454 62 L 54.908 62 58.313 66.458 M 72.572 122.750 C 71.433 128.084, 67.008 153.516, 67.004 154.750 C 67.001 155.699, 70.914 156, 83.250 156 C 97.547 156, 121 153.580, 143.937 149.738 C 144.727 149.605, 140.944 145.708, 135.529 141.076 L 125.684 132.656 100.592 135.355 C 71.977 138.434, 71.996 138.433, 72.012 136.750 C 72.019 136.049, 80.165 132.453, 90.573 128.556 C 100.775 124.737, 109.346 121.250, 109.620 120.806 C 109.894 120.363, 101.802 120, 91.638 120 L 73.159 120 72.572 122.750" stroke="none" fill="black" fill-rule="evenodd"/>
</svg>