<svg xmlns="http://www.w3.org/2000/svg" width="200" height="200" viewBox="0 0 200 200" version="1.1">
	<path d="M 89.877 66.501 C 84.774 69.159, 80.280 74.922, 82.306 76.210 C 83.112 76.722, 82.931 76.974, 81.750 76.985 C 78.086 77.017, 80.485 86.458, 85.716 92.592 C 86.697 93.743, 90.987 96.859, 95.250 99.517 C 99.513 102.175, 103 104.544, 103 104.782 C 103 105.019, 101.623 108.100, 99.939 111.627 C 97.242 117.279, 95.937 118.700, 88.939 123.603 C 84.573 126.663, 81.002 129.467, 81.004 129.833 C 81.011 131.138, 84.986 137, 85.863 137 C 86.354 137, 87.297 136.347, 87.959 135.550 C 88.621 134.752, 91.489 132.769, 94.331 131.142 C 110.475 121.907, 120.872 102.315, 119.723 83.295 C 119.108 73.124, 117.195 70.348, 108.230 66.612 C 100.522 63.401, 95.883 63.373, 89.877 66.501 M 92.199 68.499 C 89.108 69.932, 86.516 72.047, 85.154 74.251 C 80.314 82.082, 83.710 88.832, 96.670 97.141 C 106.794 103.631, 106.823 103.720, 102.001 113.597 C 99.062 119.618, 98.787 119.883, 85.427 129.500 C 84.600 130.095, 84.364 131.017, 84.844 131.777 C 86.779 134.838, 103.813 121.757, 109.600 112.769 C 113.850 106.167, 117 94.973, 117 86.475 C 117 76.322, 115.255 72.649, 109.149 69.948 C 100.763 66.238, 97.653 65.972, 92.199 68.499" stroke="none" fill="black" fill-rule="evenodd"/>
</svg>